0, 0, Header, 1, 2, 384
1, 0, Start_track
1, 0, Time_signature, 4, 2, 24, 8
1, 0, Tempo, 222222
1, 0, Title_t, "Grand Piano"
1, 0, Program_c, 0, 0
1, 0, Note_on_c, 0, 62, 23
1, 0, Note_on_c, 0, 50, 17
1, 0, Note_on_c, 0, 50, 23
1, 192, Note_off_c, 0, 50, 0
1, 192, Note_off_c, 0, 62, 0
1, 192, Note_on_c, 0, 67, 23
1, 192, Note_on_c, 0, 55, 23
1, 384, Note_off_c, 0, 55, 0
1, 384, Note_off_c, 0, 67, 0
1, 384, Note_on_c, 0, 69, 23
1, 384, Note_on_c, 0, 57, 23
1, 576, Note_off_c, 0, 57, 0
1, 576, Note_off_c, 0, 69, 0
1, 576, Note_on_c, 0, 74, 23
1, 576, Note_on_c, 0, 62, 23
1, 672, Note_off_c, 0, 50, 0
1, 768, Note_off_c, 0, 62, 0
1, 768, Note_off_c, 0, 74, 0
1, 768, Note_on_c, 0, 63, 23
1, 768, Note_on_c, 0, 51, 17
1, 768, Note_on_c, 0, 51, 23
1, 960, Note_off_c, 0, 51, 0
1, 960, Note_off_c, 0, 63, 0
1, 960, Note_on_c, 0, 67, 23
1, 960, Note_on_c, 0, 55, 23
1, 1152, Note_off_c, 0, 55, 0
1, 1152, Note_off_c, 0, 67, 0
1, 1152, Note_on_c, 0, 69, 23
1, 1152, Note_on_c, 0, 57, 23
1, 1344, Note_off_c, 0, 57, 0
1, 1344, Note_off_c, 0, 69, 0
1, 1344, Note_on_c, 0, 74, 23
1, 1344, Note_on_c, 0, 62, 23
1, 1440, Note_off_c, 0, 51, 0
1, 1536, Note_off_c, 0, 62, 0
1, 1536, Note_off_c, 0, 74, 0
1, 1536, Note_on_c, 0, 64, 23
1, 1536, Note_on_c, 0, 52, 17
1, 1536, Note_on_c, 0, 52, 23
1, 1728, Note_off_c, 0, 52, 0
1, 1728, Note_off_c, 0, 64, 0
1, 1728, Note_on_c, 0, 67, 23
1, 1728, Note_on_c, 0, 55, 23
1, 1920, Note_off_c, 0, 55, 0
1, 1920, Note_off_c, 0, 67, 0
1, 1920, Note_on_c, 0, 69, 23
1, 1920, Note_on_c, 0, 57, 23
1, 2112, Note_off_c, 0, 57, 0
1, 2112, Note_off_c, 0, 69, 0
1, 2112, Note_on_c, 0, 74, 23
1, 2112, Note_on_c, 0, 62, 23
1, 2208, Note_off_c, 0, 52, 0
1, 2304, Note_off_c, 0, 62, 0
1, 2304, Note_off_c, 0, 74, 0
1, 2304, Note_on_c, 0, 63, 23
1, 2304, Note_on_c, 0, 51, 17
1, 2304, Note_on_c, 0, 51, 23
1, 2496, Note_off_c, 0, 51, 0
1, 2496, Note_off_c, 0, 63, 0
1, 2496, Note_on_c, 0, 67, 23
1, 2496, Note_on_c, 0, 55, 23
1, 2688, Note_off_c, 0, 55, 0
1, 2688, Note_off_c, 0, 67, 0
1, 2688, Note_on_c, 0, 69, 23
1, 2688, Note_on_c, 0, 57, 23
1, 2880, Note_off_c, 0, 57, 0
1, 2880, Note_off_c, 0, 69, 0
1, 2880, Note_on_c, 0, 74, 23
1, 2880, Note_on_c, 0, 62, 23
1, 2976, Note_off_c, 0, 51, 0
1, 3072, Note_off_c, 0, 62, 0
1, 3072, Note_off_c, 0, 74, 0
1, 3072, Note_on_c, 0, 62, 23
1, 3072, Note_on_c, 0, 50, 17
1, 3072, Note_on_c, 0, 50, 23
1, 3264, Note_off_c, 0, 50, 0
1, 3264, Note_off_c, 0, 62, 0
1, 3264, Note_on_c, 0, 67, 23
1, 3264, Note_on_c, 0, 55, 23
1, 3456, Note_off_c, 0, 55, 0
1, 3456, Note_off_c, 0, 67, 0
1, 3456, Note_on_c, 0, 69, 23
1, 3456, Note_on_c, 0, 57, 23
1, 3648, Note_off_c, 0, 57, 0
1, 3648, Note_off_c, 0, 69, 0
1, 3648, Note_on_c, 0, 74, 23
1, 3648, Note_on_c, 0, 62, 23
1, 3744, Note_off_c, 0, 50, 0
1, 3840, Note_off_c, 0, 62, 0
1, 3840, Note_off_c, 0, 74, 0
1, 3840, Note_on_c, 0, 63, 23
1, 3840, Note_on_c, 0, 51, 17
1, 3840, Note_on_c, 0, 51, 23
1, 4032, Note_off_c, 0, 51, 0
1, 4032, Note_off_c, 0, 63, 0
1, 4032, Note_on_c, 0, 67, 23
1, 4032, Note_on_c, 0, 55, 23
1, 4224, Note_off_c, 0, 55, 0
1, 4224, Note_off_c, 0, 67, 0
1, 4224, Note_on_c, 0, 69, 23
1, 4224, Note_on_c, 0, 57, 23
1, 4416, Note_off_c, 0, 57, 0
1, 4416, Note_off_c, 0, 69, 0
1, 4416, Note_on_c, 0, 74, 23
1, 4416, Note_on_c, 0, 62, 23
1, 4512, Note_off_c, 0, 51, 0
1, 4608, Note_off_c, 0, 62, 0
1, 4608, Note_off_c, 0, 74, 0
1, 4608, Note_on_c, 0, 64, 23
1, 4608, Note_on_c, 0, 52, 17
1, 4608, Note_on_c, 0, 52, 23
1, 4800, Note_off_c, 0, 52, 0
1, 4800, Note_off_c, 0, 64, 0
1, 4800, Note_on_c, 0, 67, 23
1, 4800, Note_on_c, 0, 55, 23
1, 4992, Note_off_c, 0, 55, 0
1, 4992, Note_off_c, 0, 67, 0
1, 4992, Note_on_c, 0, 69, 23
1, 4992, Note_on_c, 0, 57, 23
1, 5184, Note_off_c, 0, 57, 0
1, 5184, Note_off_c, 0, 69, 0
1, 5184, Note_on_c, 0, 74, 23
1, 5184, Note_on_c, 0, 62, 23
1, 5280, Note_off_c, 0, 52, 0
1, 5376, Note_off_c, 0, 62, 0
1, 5376, Note_off_c, 0, 74, 0
1, 5376, Note_on_c, 0, 63, 23
1, 5376, Note_on_c, 0, 51, 17
1, 5376, Note_on_c, 0, 51, 23
1, 5568, Note_off_c, 0, 51, 0
1, 5568, Note_off_c, 0, 63, 0
1, 5568, Note_on_c, 0, 67, 23
1, 5568, Note_on_c, 0, 55, 23
1, 5760, Note_off_c, 0, 55, 0
1, 5760, Note_off_c, 0, 67, 0
1, 5760, Note_on_c, 0, 69, 23
1, 5760, Note_on_c, 0, 57, 23
1, 5952, Note_off_c, 0, 57, 0
1, 5952, Note_off_c, 0, 69, 0
1, 5952, Note_on_c, 0, 74, 23
1, 5952, Note_on_c, 0, 62, 23
1, 6048, Note_off_c, 0, 51, 0
1, 6144, Note_off_c, 0, 62, 0
1, 6144, Note_off_c, 0, 74, 0
1, 6144, Note_on_c, 0, 62, 23
1, 6144, Note_on_c, 0, 50, 17
1, 6144, Note_on_c, 0, 50, 23
1, 6336, Note_off_c, 0, 50, 0
1, 6336, Note_off_c, 0, 62, 0
1, 6336, Note_on_c, 0, 67, 23
1, 6336, Note_on_c, 0, 55, 23
1, 6528, Note_off_c, 0, 55, 0
1, 6528, Note_off_c, 0, 67, 0
1, 6528, Note_on_c, 0, 69, 23
1, 6528, Note_on_c, 0, 57, 23
1, 6720, Note_off_c, 0, 57, 0
1, 6720, Note_off_c, 0, 69, 0
1, 6720, Note_on_c, 0, 74, 23
1, 6720, Note_on_c, 0, 62, 23
1, 6816, Note_off_c, 0, 50, 0
1, 6912, Note_off_c, 0, 62, 0
1, 6912, Note_off_c, 0, 74, 0
1, 6912, Note_on_c, 0, 63, 23
1, 6912, Note_on_c, 0, 51, 17
1, 6912, Note_on_c, 0, 51, 23
1, 7104, Note_off_c, 0, 51, 0
1, 7104, Note_off_c, 0, 63, 0
1, 7104, Note_on_c, 0, 67, 23
1, 7104, Note_on_c, 0, 55, 23
1, 7296, Note_off_c, 0, 55, 0
1, 7296, Note_off_c, 0, 67, 0
1, 7296, Note_on_c, 0, 69, 23
1, 7296, Note_on_c, 0, 57, 23
1, 7488, Note_off_c, 0, 57, 0
1, 7488, Note_off_c, 0, 69, 0
1, 7488, Note_on_c, 0, 74, 23
1, 7488, Note_on_c, 0, 62, 23
1, 7584, Note_off_c, 0, 51, 0
1, 7680, Note_off_c, 0, 62, 0
1, 7680, Note_off_c, 0, 74, 0
1, 7680, Note_on_c, 0, 64, 23
1, 7680, Note_on_c, 0, 52, 17
1, 7680, Note_on_c, 0, 52, 23
1, 7872, Note_off_c, 0, 52, 0
1, 7872, Note_off_c, 0, 64, 0
1, 7872, Note_on_c, 0, 67, 23
1, 7872, Note_on_c, 0, 55, 23
1, 8064, Note_off_c, 0, 55, 0
1, 8064, Note_off_c, 0, 67, 0
1, 8064, Note_on_c, 0, 69, 23
1, 8064, Note_on_c, 0, 57, 23
1, 8256, Note_off_c, 0, 57, 0
1, 8256, Note_off_c, 0, 69, 0
1, 8256, Note_on_c, 0, 74, 23
1, 8256, Note_on_c, 0, 62, 23
1, 8352, Note_off_c, 0, 52, 0
1, 8448, Note_off_c, 0, 62, 0
1, 8448, Note_off_c, 0, 74, 0
1, 8448, Note_on_c, 0, 63, 23
1, 8448, Note_on_c, 0, 51, 17
1, 8448, Note_on_c, 0, 51, 23
1, 8640, Note_off_c, 0, 51, 0
1, 8640, Note_off_c, 0, 63, 0
1, 8640, Note_on_c, 0, 67, 23
1, 8640, Note_on_c, 0, 55, 23
1, 8832, Note_off_c, 0, 55, 0
1, 8832, Note_off_c, 0, 67, 0
1, 8832, Note_on_c, 0, 69, 23
1, 8832, Note_on_c, 0, 57, 23
1, 9024, Note_off_c, 0, 57, 0
1, 9024, Note_off_c, 0, 69, 0
1, 9024, Note_on_c, 0, 74, 23
1, 9024, Note_on_c, 0, 62, 23
1, 9120, Note_off_c, 0, 51, 0
1, 9216, Note_off_c, 0, 62, 0
1, 9216, Note_off_c, 0, 74, 0
1, 9216, Note_on_c, 0, 62, 23
1, 9216, Note_on_c, 0, 50, 17
1, 9216, Note_on_c, 0, 50, 23
1, 9408, Note_off_c, 0, 50, 0
1, 9408, Note_off_c, 0, 62, 0
1, 9408, Note_on_c, 0, 67, 23
1, 9408, Note_on_c, 0, 55, 23
1, 9600, Note_off_c, 0, 55, 0
1, 9600, Note_off_c, 0, 67, 0
1, 9600, Note_on_c, 0, 69, 23
1, 9600, Note_on_c, 0, 57, 23
1, 9792, Note_off_c, 0, 57, 0
1, 9792, Note_off_c, 0, 69, 0
1, 9792, Note_on_c, 0, 74, 23
1, 9792, Note_on_c, 0, 62, 23
1, 9888, Note_off_c, 0, 50, 0
1, 9984, Note_off_c, 0, 62, 0
1, 9984, Note_off_c, 0, 74, 0
1, 9984, Note_on_c, 0, 63, 23
1, 9984, Note_on_c, 0, 51, 17
1, 9984, Note_on_c, 0, 51, 23
1, 10176, Note_off_c, 0, 51, 0
1, 10176, Note_off_c, 0, 63, 0
1, 10176, Note_on_c, 0, 67, 23
1, 10176, Note_on_c, 0, 55, 23
1, 10368, Note_off_c, 0, 55, 0
1, 10368, Note_off_c, 0, 67, 0
1, 10368, Note_on_c, 0, 69, 23
1, 10368, Note_on_c, 0, 57, 23
1, 10560, Note_off_c, 0, 57, 0
1, 10560, Note_off_c, 0, 69, 0
1, 10560, Note_on_c, 0, 74, 23
1, 10560, Note_on_c, 0, 62, 23
1, 10656, Note_off_c, 0, 51, 0
1, 10752, Note_off_c, 0, 62, 0
1, 10752, Note_off_c, 0, 74, 0
1, 10752, Note_on_c, 0, 64, 23
1, 10752, Note_on_c, 0, 52, 17
1, 10752, Note_on_c, 0, 52, 23
1, 10944, Note_off_c, 0, 52, 0
1, 10944, Note_off_c, 0, 64, 0
1, 10944, Note_on_c, 0, 67, 23
1, 10944, Note_on_c, 0, 55, 23
1, 11136, Note_off_c, 0, 55, 0
1, 11136, Note_off_c, 0, 67, 0
1, 11136, Note_on_c, 0, 69, 23
1, 11136, Note_on_c, 0, 57, 23
1, 11328, Note_off_c, 0, 57, 0
1, 11328, Note_off_c, 0, 69, 0
1, 11328, Note_on_c, 0, 74, 23
1, 11328, Note_on_c, 0, 62, 23
1, 11424, Note_off_c, 0, 52, 0
1, 11520, Note_off_c, 0, 62, 0
1, 11520, Note_off_c, 0, 74, 0
1, 11520, Note_on_c, 0, 63, 23
1, 11520, Note_on_c, 0, 51, 17
1, 11520, Note_on_c, 0, 51, 23
1, 11712, Note_off_c, 0, 51, 0
1, 11712, Note_off_c, 0, 63, 0
1, 11712, Note_on_c, 0, 67, 23
1, 11712, Note_on_c, 0, 55, 23
1, 11904, Note_off_c, 0, 55, 0
1, 11904, Note_off_c, 0, 67, 0
1, 11904, Note_on_c, 0, 69, 23
1, 11904, Note_on_c, 0, 57, 23
1, 12096, Note_off_c, 0, 57, 0
1, 12096, Note_off_c, 0, 69, 0
1, 12096, Note_on_c, 0, 74, 23
1, 12096, Note_on_c, 0, 62, 23
1, 12192, Note_off_c, 0, 51, 0
1, 12288, Note_off_c, 0, 62, 0
1, 12288, Note_off_c, 0, 74, 0
1, 12288, Note_on_c, 0, 62, 29
1, 12288, Note_on_c, 0, 50, 17
1, 12288, Note_on_c, 0, 50, 29
1, 12480, Note_off_c, 0, 50, 0
1, 12480, Note_off_c, 0, 62, 0
1, 12480, Note_on_c, 0, 67, 29
1, 12480, Note_on_c, 0, 55, 29
1, 12672, Note_off_c, 0, 55, 0
1, 12672, Note_off_c, 0, 67, 0
1, 12672, Note_on_c, 0, 69, 29
1, 12672, Note_on_c, 0, 57, 29
1, 12864, Note_off_c, 0, 57, 0
1, 12864, Note_off_c, 0, 69, 0
1, 12864, Note_on_c, 0, 74, 29
1, 12864, Note_on_c, 0, 62, 29
1, 12960, Note_off_c, 0, 50, 0
1, 13056, Note_off_c, 0, 62, 0
1, 13056, Note_off_c, 0, 74, 0
1, 13056, Note_on_c, 0, 63, 29
1, 13056, Note_on_c, 0, 51, 17
1, 13056, Note_on_c, 0, 51, 29
1, 13248, Note_off_c, 0, 51, 0
1, 13248, Note_off_c, 0, 63, 0
1, 13248, Note_on_c, 0, 67, 29
1, 13248, Note_on_c, 0, 55, 29
1, 13440, Note_off_c, 0, 55, 0
1, 13440, Note_off_c, 0, 67, 0
1, 13440, Note_on_c, 0, 69, 29
1, 13440, Note_on_c, 0, 57, 29
1, 13632, Note_off_c, 0, 57, 0
1, 13632, Note_off_c, 0, 69, 0
1, 13632, Note_on_c, 0, 74, 29
1, 13632, Note_on_c, 0, 62, 29
1, 13728, Note_off_c, 0, 51, 0
1, 13824, Note_off_c, 0, 62, 0
1, 13824, Note_off_c, 0, 74, 0
1, 13824, Note_on_c, 0, 64, 29
1, 13824, Note_on_c, 0, 52, 17
1, 13824, Note_on_c, 0, 52, 29
1, 14016, Note_off_c, 0, 52, 0
1, 14016, Note_off_c, 0, 64, 0
1, 14016, Note_on_c, 0, 67, 29
1, 14016, Note_on_c, 0, 55, 29
1, 14208, Note_off_c, 0, 55, 0
1, 14208, Note_off_c, 0, 67, 0
1, 14208, Note_on_c, 0, 69, 29
1, 14208, Note_on_c, 0, 57, 29
1, 14400, Note_off_c, 0, 57, 0
1, 14400, Note_off_c, 0, 69, 0
1, 14400, Note_on_c, 0, 74, 29
1, 14400, Note_on_c, 0, 62, 29
1, 14496, Note_off_c, 0, 52, 0
1, 14592, Note_off_c, 0, 62, 0
1, 14592, Note_off_c, 0, 74, 0
1, 14592, Note_on_c, 0, 63, 29
1, 14592, Note_on_c, 0, 51, 17
1, 14592, Note_on_c, 0, 51, 29
1, 14784, Note_off_c, 0, 51, 0
1, 14784, Note_off_c, 0, 63, 0
1, 14784, Note_on_c, 0, 67, 29
1, 14784, Note_on_c, 0, 55, 29
1, 14976, Note_off_c, 0, 55, 0
1, 14976, Note_off_c, 0, 67, 0
1, 14976, Note_on_c, 0, 69, 29
1, 14976, Note_on_c, 0, 57, 29
1, 15168, Note_off_c, 0, 57, 0
1, 15168, Note_off_c, 0, 69, 0
1, 15168, Note_on_c, 0, 74, 29
1, 15168, Note_on_c, 0, 62, 29
1, 15264, Note_off_c, 0, 51, 0
1, 15360, Note_off_c, 0, 62, 0
1, 15360, Note_off_c, 0, 74, 0
1, 15360, Note_on_c, 0, 62, 29
1, 15360, Note_on_c, 0, 50, 17
1, 15360, Note_on_c, 0, 50, 29
1, 15552, Note_off_c, 0, 50, 0
1, 15552, Note_off_c, 0, 62, 0
1, 15552, Note_on_c, 0, 67, 29
1, 15552, Note_on_c, 0, 55, 29
1, 15744, Note_off_c, 0, 55, 0
1, 15744, Note_off_c, 0, 67, 0
1, 15744, Note_on_c, 0, 69, 29
1, 15744, Note_on_c, 0, 57, 29
1, 15936, Note_off_c, 0, 57, 0
1, 15936, Note_off_c, 0, 69, 0
1, 15936, Note_on_c, 0, 74, 29
1, 15936, Note_on_c, 0, 62, 29
1, 16032, Note_off_c, 0, 50, 0
1, 16128, Note_off_c, 0, 62, 0
1, 16128, Note_off_c, 0, 74, 0
1, 16128, Note_on_c, 0, 63, 29
1, 16128, Note_on_c, 0, 51, 17
1, 16128, Note_on_c, 0, 51, 29
1, 16320, Note_off_c, 0, 51, 0
1, 16320, Note_off_c, 0, 63, 0
1, 16320, Note_on_c, 0, 67, 29
1, 16320, Note_on_c, 0, 55, 29
1, 16512, Note_off_c, 0, 55, 0
1, 16512, Note_off_c, 0, 67, 0
1, 16512, Note_on_c, 0, 69, 29
1, 16512, Note_on_c, 0, 57, 29
1, 16704, Note_off_c, 0, 57, 0
1, 16704, Note_off_c, 0, 69, 0
1, 16704, Note_on_c, 0, 74, 29
1, 16704, Note_on_c, 0, 62, 29
1, 16800, Note_off_c, 0, 51, 0
1, 16896, Note_off_c, 0, 62, 0
1, 16896, Note_off_c, 0, 74, 0
1, 16896, Note_on_c, 0, 64, 29
1, 16896, Note_on_c, 0, 52, 17
1, 16896, Note_on_c, 0, 52, 29
1, 17088, Note_off_c, 0, 52, 0
1, 17088, Note_off_c, 0, 64, 0
1, 17088, Note_on_c, 0, 67, 29
1, 17088, Note_on_c, 0, 55, 29
1, 17280, Note_off_c, 0, 55, 0
1, 17280, Note_off_c, 0, 67, 0
1, 17280, Note_on_c, 0, 69, 29
1, 17280, Note_on_c, 0, 57, 29
1, 17472, Note_off_c, 0, 57, 0
1, 17472, Note_off_c, 0, 69, 0
1, 17472, Note_on_c, 0, 74, 29
1, 17472, Note_on_c, 0, 62, 29
1, 17568, Note_off_c, 0, 52, 0
1, 17664, Note_off_c, 0, 62, 0
1, 17664, Note_off_c, 0, 74, 0
1, 17664, Note_on_c, 0, 63, 29
1, 17664, Note_on_c, 0, 51, 17
1, 17664, Note_on_c, 0, 51, 29
1, 17856, Note_off_c, 0, 51, 0
1, 17856, Note_off_c, 0, 63, 0
1, 17856, Note_on_c, 0, 67, 29
1, 17856, Note_on_c, 0, 55, 29
1, 18048, Note_off_c, 0, 55, 0
1, 18048, Note_off_c, 0, 67, 0
1, 18048, Note_on_c, 0, 69, 29
1, 18048, Note_on_c, 0, 57, 29
1, 18240, Note_off_c, 0, 57, 0
1, 18240, Note_off_c, 0, 69, 0
1, 18240, Note_on_c, 0, 74, 29
1, 18240, Note_on_c, 0, 62, 29
1, 18336, Note_off_c, 0, 51, 0
1, 18432, Note_off_c, 0, 62, 0
1, 18432, Note_off_c, 0, 74, 0
1, 18432, Note_on_c, 0, 62, 29
1, 18432, Note_on_c, 0, 50, 17
1, 18432, Note_on_c, 0, 50, 29
1, 18624, Note_off_c, 0, 50, 0
1, 18624, Note_off_c, 0, 62, 0
1, 18624, Note_on_c, 0, 67, 29
1, 18624, Note_on_c, 0, 55, 29
1, 18816, Note_off_c, 0, 55, 0
1, 18816, Note_off_c, 0, 67, 0
1, 18816, Note_on_c, 0, 69, 29
1, 18816, Note_on_c, 0, 57, 29
1, 19008, Note_off_c, 0, 57, 0
1, 19008, Note_off_c, 0, 69, 0
1, 19008, Note_on_c, 0, 74, 29
1, 19008, Note_on_c, 0, 62, 29
1, 19104, Note_off_c, 0, 50, 0
1, 19200, Note_off_c, 0, 62, 0
1, 19200, Note_off_c, 0, 74, 0
1, 19200, Note_on_c, 0, 63, 29
1, 19200, Note_on_c, 0, 51, 17
1, 19200, Note_on_c, 0, 51, 29
1, 19392, Note_off_c, 0, 51, 0
1, 19392, Note_off_c, 0, 63, 0
1, 19392, Note_on_c, 0, 67, 29
1, 19392, Note_on_c, 0, 55, 29
1, 19584, Note_off_c, 0, 55, 0
1, 19584, Note_off_c, 0, 67, 0
1, 19584, Note_on_c, 0, 69, 29
1, 19584, Note_on_c, 0, 57, 29
1, 19776, Note_off_c, 0, 57, 0
1, 19776, Note_off_c, 0, 69, 0
1, 19776, Note_on_c, 0, 74, 29
1, 19776, Note_on_c, 0, 62, 29
1, 19872, Note_off_c, 0, 51, 0
1, 19968, Note_off_c, 0, 62, 0
1, 19968, Note_off_c, 0, 74, 0
1, 19968, Note_on_c, 0, 64, 29
1, 19968, Note_on_c, 0, 52, 17
1, 19968, Note_on_c, 0, 52, 29
1, 20160, Note_off_c, 0, 52, 0
1, 20160, Note_off_c, 0, 64, 0
1, 20160, Note_on_c, 0, 67, 29
1, 20160, Note_on_c, 0, 55, 29
1, 20352, Note_off_c, 0, 55, 0
1, 20352, Note_off_c, 0, 67, 0
1, 20352, Note_on_c, 0, 69, 29
1, 20352, Note_on_c, 0, 57, 29
1, 20544, Note_off_c, 0, 57, 0
1, 20544, Note_off_c, 0, 69, 0
1, 20544, Note_on_c, 0, 74, 29
1, 20544, Note_on_c, 0, 62, 29
1, 20640, Note_off_c, 0, 52, 0
1, 20736, Note_off_c, 0, 62, 0
1, 20736, Note_off_c, 0, 74, 0
1, 20736, Note_on_c, 0, 63, 29
1, 20736, Note_on_c, 0, 51, 17
1, 20736, Note_on_c, 0, 51, 29
1, 20928, Note_off_c, 0, 51, 0
1, 20928, Note_off_c, 0, 63, 0
1, 20928, Note_on_c, 0, 67, 29
1, 20928, Note_on_c, 0, 55, 29
1, 21120, Note_off_c, 0, 55, 0
1, 21120, Note_off_c, 0, 67, 0
1, 21120, Note_on_c, 0, 69, 29
1, 21120, Note_on_c, 0, 57, 29
1, 21312, Note_off_c, 0, 57, 0
1, 21312, Note_off_c, 0, 69, 0
1, 21312, Note_on_c, 0, 74, 29
1, 21312, Note_on_c, 0, 62, 29
1, 21408, Note_off_c, 0, 51, 0
1, 21504, Note_off_c, 0, 62, 0
1, 21504, Note_off_c, 0, 74, 0
1, 21504, Note_on_c, 0, 62, 29
1, 21504, Note_on_c, 0, 50, 17
1, 21504, Note_on_c, 0, 50, 29
1, 21696, Note_off_c, 0, 50, 0
1, 21696, Note_off_c, 0, 62, 0
1, 21696, Note_on_c, 0, 67, 29
1, 21696, Note_on_c, 0, 55, 29
1, 21888, Note_off_c, 0, 55, 0
1, 21888, Note_off_c, 0, 67, 0
1, 21888, Note_on_c, 0, 69, 29
1, 21888, Note_on_c, 0, 57, 29
1, 22080, Note_off_c, 0, 57, 0
1, 22080, Note_off_c, 0, 69, 0
1, 22080, Note_on_c, 0, 74, 29
1, 22080, Note_on_c, 0, 62, 29
1, 22176, Note_off_c, 0, 50, 0
1, 22272, Note_off_c, 0, 62, 0
1, 22272, Note_off_c, 0, 74, 0
1, 22272, Note_on_c, 0, 63, 29
1, 22272, Note_on_c, 0, 51, 17
1, 22272, Note_on_c, 0, 51, 29
1, 22464, Note_off_c, 0, 51, 0
1, 22464, Note_off_c, 0, 63, 0
1, 22464, Note_on_c, 0, 67, 29
1, 22464, Note_on_c, 0, 55, 29
1, 22656, Note_off_c, 0, 55, 0
1, 22656, Note_off_c, 0, 67, 0
1, 22656, Note_on_c, 0, 69, 29
1, 22656, Note_on_c, 0, 57, 29
1, 22848, Note_off_c, 0, 57, 0
1, 22848, Note_off_c, 0, 69, 0
1, 22848, Note_on_c, 0, 74, 29
1, 22848, Note_on_c, 0, 62, 29
1, 22944, Note_off_c, 0, 51, 0
1, 23040, Note_off_c, 0, 62, 0
1, 23040, Note_off_c, 0, 74, 0
1, 23040, Note_on_c, 0, 64, 29
1, 23040, Note_on_c, 0, 52, 17
1, 23040, Note_on_c, 0, 52, 29
1, 23232, Note_off_c, 0, 52, 0
1, 23232, Note_off_c, 0, 64, 0
1, 23232, Note_on_c, 0, 67, 29
1, 23232, Note_on_c, 0, 55, 29
1, 23424, Note_off_c, 0, 55, 0
1, 23424, Note_off_c, 0, 67, 0
1, 23424, Note_on_c, 0, 69, 29
1, 23424, Note_on_c, 0, 57, 29
1, 23616, Note_off_c, 0, 57, 0
1, 23616, Note_off_c, 0, 69, 0
1, 23616, Note_on_c, 0, 74, 29
1, 23616, Note_on_c, 0, 62, 29
1, 23712, Note_off_c, 0, 52, 0
1, 23808, Note_off_c, 0, 62, 0
1, 23808, Note_off_c, 0, 74, 0
1, 23808, Note_on_c, 0, 63, 29
1, 23808, Note_on_c, 0, 51, 17
1, 23808, Note_on_c, 0, 51, 29
1, 24000, Note_off_c, 0, 51, 0
1, 24000, Note_off_c, 0, 63, 0
1, 24000, Note_on_c, 0, 67, 29
1, 24000, Note_on_c, 0, 55, 29
1, 24192, Note_off_c, 0, 55, 0
1, 24192, Note_off_c, 0, 67, 0
1, 24192, Note_on_c, 0, 69, 29
1, 24192, Note_on_c, 0, 57, 29
1, 24384, Note_off_c, 0, 57, 0
1, 24384, Note_off_c, 0, 69, 0
1, 24384, Note_on_c, 0, 74, 29
1, 24384, Note_on_c, 0, 62, 29
1, 24480, Note_off_c, 0, 51, 0
1, 24576, Note_off_c, 0, 62, 0
1, 24576, Note_off_c, 0, 74, 0
1, 24576, Note_on_c, 0, 74, 29
1, 24576, Note_on_c, 0, 62, 29
1, 24768, Note_off_c, 0, 62, 0
1, 24768, Note_off_c, 0, 74, 0
1, 24768, Note_on_c, 0, 79, 29
1, 24768, Note_on_c, 0, 67, 29
1, 24960, Note_off_c, 0, 67, 0
1, 24960, Note_off_c, 0, 79, 0
1, 24960, Note_on_c, 0, 81, 29
1, 24960, Note_on_c, 0, 69, 29
1, 25152, Note_off_c, 0, 69, 0
1, 25152, Note_off_c, 0, 81, 0
1, 25152, Note_on_c, 0, 86, 29
1, 25152, Note_on_c, 0, 74, 29
1, 25344, Note_off_c, 0, 74, 0
1, 25344, Note_off_c, 0, 86, 0
1, 25344, Note_on_c, 0, 75, 29
1, 25344, Note_on_c, 0, 63, 29
1, 25536, Note_off_c, 0, 63, 0
1, 25536, Note_off_c, 0, 75, 0
1, 25536, Note_on_c, 0, 79, 29
1, 25536, Note_on_c, 0, 67, 29
1, 25728, Note_off_c, 0, 67, 0
1, 25728, Note_off_c, 0, 79, 0
1, 25728, Note_on_c, 0, 81, 29
1, 25728, Note_on_c, 0, 69, 29
1, 25920, Note_off_c, 0, 69, 0
1, 25920, Note_off_c, 0, 81, 0
1, 25920, Note_on_c, 0, 86, 29
1, 25920, Note_on_c, 0, 74, 29
1, 26112, Note_off_c, 0, 74, 0
1, 26112, Note_off_c, 0, 86, 0
1, 26112, Note_on_c, 0, 76, 29
1, 26112, Note_on_c, 0, 52, 29
1, 26112, Note_on_c, 0, 64, 29
1, 26304, Note_off_c, 0, 64, 0
1, 26304, Note_off_c, 0, 76, 0
1, 26304, Note_on_c, 0, 79, 29
1, 26304, Note_on_c, 0, 67, 29
1, 26496, Note_off_c, 0, 67, 0
1, 26496, Note_off_c, 0, 79, 0
1, 26496, Note_on_c, 0, 81, 29
1, 26496, Note_on_c, 0, 69, 29
1, 26688, Note_off_c, 0, 69, 0
1, 26688, Note_off_c, 0, 81, 0
1, 26688, Note_on_c, 0, 86, 29
1, 26688, Note_on_c, 0, 74, 29
1, 26784, Note_off_c, 0, 52, 0
1, 26880, Note_off_c, 0, 74, 0
1, 26880, Note_off_c, 0, 86, 0
1, 26880, Note_on_c, 0, 75, 29
1, 26880, Note_on_c, 0, 51, 29
1, 26880, Note_on_c, 0, 63, 29
1, 27072, Note_off_c, 0, 63, 0
1, 27072, Note_off_c, 0, 75, 0
1, 27072, Note_on_c, 0, 79, 29
1, 27072, Note_on_c, 0, 67, 29
1, 27264, Note_off_c, 0, 67, 0
1, 27264, Note_off_c, 0, 79, 0
1, 27264, Note_on_c, 0, 81, 29
1, 27264, Note_on_c, 0, 69, 29
1, 27456, Note_off_c, 0, 69, 0
1, 27456, Note_off_c, 0, 81, 0
1, 27456, Note_on_c, 0, 86, 29
1, 27456, Note_on_c, 0, 74, 29
1, 27552, Note_off_c, 0, 51, 0
1, 27648, Note_off_c, 0, 74, 0
1, 27648, Note_off_c, 0, 86, 0
1, 27648, Note_on_c, 0, 74, 29
1, 27648, Note_on_c, 0, 50, 29
1, 27648, Note_on_c, 0, 62, 29
1, 27840, Note_off_c, 0, 62, 0
1, 27840, Note_off_c, 0, 74, 0
1, 27840, Note_on_c, 0, 79, 29
1, 27840, Note_on_c, 0, 67, 29
1, 28032, Note_off_c, 0, 67, 0
1, 28032, Note_off_c, 0, 79, 0
1, 28032, Note_on_c, 0, 81, 29
1, 28032, Note_on_c, 0, 69, 29
1, 28224, Note_off_c, 0, 69, 0
1, 28224, Note_off_c, 0, 81, 0
1, 28224, Note_on_c, 0, 86, 29
1, 28224, Note_on_c, 0, 74, 29
1, 28320, Note_off_c, 0, 50, 0
1, 28416, Note_off_c, 0, 74, 0
1, 28416, Note_off_c, 0, 86, 0
1, 28416, Note_on_c, 0, 75, 29
1, 28416, Note_on_c, 0, 51, 29
1, 28416, Note_on_c, 0, 63, 29
1, 28608, Note_off_c, 0, 63, 0
1, 28608, Note_off_c, 0, 75, 0
1, 28608, Note_on_c, 0, 79, 29
1, 28608, Note_on_c, 0, 67, 29
1, 28800, Note_off_c, 0, 67, 0
1, 28800, Note_off_c, 0, 79, 0
1, 28800, Note_on_c, 0, 81, 29
1, 28800, Note_on_c, 0, 69, 29
1, 28992, Note_off_c, 0, 69, 0
1, 28992, Note_off_c, 0, 81, 0
1, 28992, Note_on_c, 0, 86, 29
1, 28992, Note_on_c, 0, 74, 29
1, 29088, Note_off_c, 0, 51, 0
1, 29184, Note_off_c, 0, 74, 0
1, 29184, Note_off_c, 0, 86, 0
1, 29184, Note_on_c, 0, 76, 29
1, 29184, Note_on_c, 0, 52, 29
1, 29184, Note_on_c, 0, 64, 29
1, 29376, Note_off_c, 0, 64, 0
1, 29376, Note_off_c, 0, 76, 0
1, 29376, Note_on_c, 0, 79, 29
1, 29376, Note_on_c, 0, 67, 29
1, 29568, Note_off_c, 0, 67, 0
1, 29568, Note_off_c, 0, 79, 0
1, 29568, Note_on_c, 0, 81, 29
1, 29568, Note_on_c, 0, 69, 29
1, 29760, Note_off_c, 0, 69, 0
1, 29760, Note_off_c, 0, 81, 0
1, 29760, Note_on_c, 0, 86, 29
1, 29760, Note_on_c, 0, 74, 29
1, 29856, Note_off_c, 0, 52, 0
1, 29952, Note_off_c, 0, 74, 0
1, 29952, Note_off_c, 0, 86, 0
1, 29952, Note_on_c, 0, 75, 29
1, 29952, Note_on_c, 0, 51, 29
1, 29952, Note_on_c, 0, 63, 29
1, 30144, Note_off_c, 0, 63, 0
1, 30144, Note_off_c, 0, 75, 0
1, 30144, Note_on_c, 0, 79, 29
1, 30144, Note_on_c, 0, 67, 29
1, 30336, Note_off_c, 0, 67, 0
1, 30336, Note_off_c, 0, 79, 0
1, 30336, Note_on_c, 0, 81, 29
1, 30336, Note_on_c, 0, 69, 29
1, 30528, Note_off_c, 0, 69, 0
1, 30528, Note_off_c, 0, 81, 0
1, 30528, Note_on_c, 0, 86, 29
1, 30528, Note_on_c, 0, 74, 29
1, 30624, Note_off_c, 0, 51, 0
1, 30720, Note_off_c, 0, 74, 0
1, 30720, Note_off_c, 0, 86, 0
1, 30720, Note_on_c, 0, 74, 29
1, 30720, Note_on_c, 0, 50, 29
1, 30720, Note_on_c, 0, 62, 29
1, 30912, Note_off_c, 0, 62, 0
1, 30912, Note_off_c, 0, 74, 0
1, 30912, Note_on_c, 0, 79, 29
1, 30912, Note_on_c, 0, 67, 29
1, 31104, Note_off_c, 0, 67, 0
1, 31104, Note_off_c, 0, 79, 0
1, 31104, Note_on_c, 0, 81, 29
1, 31104, Note_on_c, 0, 69, 29
1, 31296, Note_off_c, 0, 69, 0
1, 31296, Note_off_c, 0, 81, 0
1, 31296, Note_on_c, 0, 86, 29
1, 31296, Note_on_c, 0, 74, 29
1, 31392, Note_off_c, 0, 50, 0
1, 31488, Note_off_c, 0, 74, 0
1, 31488, Note_off_c, 0, 86, 0
1, 31488, Note_on_c, 0, 75, 29
1, 31488, Note_on_c, 0, 51, 29
1, 31488, Note_on_c, 0, 63, 29
1, 31680, Note_off_c, 0, 63, 0
1, 31680, Note_off_c, 0, 75, 0
1, 31680, Note_on_c, 0, 79, 29
1, 31680, Note_on_c, 0, 67, 29
1, 31872, Note_off_c, 0, 67, 0
1, 31872, Note_off_c, 0, 79, 0
1, 31872, Note_on_c, 0, 81, 29
1, 31872, Note_on_c, 0, 69, 29
1, 32064, Note_off_c, 0, 69, 0
1, 32064, Note_off_c, 0, 81, 0
1, 32064, Note_on_c, 0, 86, 29
1, 32064, Note_on_c, 0, 74, 29
1, 32160, Note_off_c, 0, 51, 0
1, 32256, Note_off_c, 0, 74, 0
1, 32256, Note_off_c, 0, 86, 0
1, 32256, Note_on_c, 0, 76, 29
1, 32256, Note_on_c, 0, 52, 29
1, 32256, Note_on_c, 0, 64, 29
1, 32448, Note_off_c, 0, 64, 0
1, 32448, Note_off_c, 0, 76, 0
1, 32448, Note_on_c, 0, 79, 29
1, 32448, Note_on_c, 0, 67, 29
1, 32640, Note_off_c, 0, 67, 0
1, 32640, Note_off_c, 0, 79, 0
1, 32640, Note_on_c, 0, 81, 29
1, 32640, Note_on_c, 0, 69, 29
1, 32832, Note_off_c, 0, 69, 0
1, 32832, Note_off_c, 0, 81, 0
1, 32832, Note_on_c, 0, 86, 29
1, 32832, Note_on_c, 0, 74, 29
1, 32928, Note_off_c, 0, 52, 0
1, 33024, Note_off_c, 0, 74, 0
1, 33024, Note_off_c, 0, 86, 0
1, 33024, Note_on_c, 0, 75, 29
1, 33024, Note_on_c, 0, 51, 29
1, 33024, Note_on_c, 0, 63, 29
1, 33216, Note_off_c, 0, 63, 0
1, 33216, Note_off_c, 0, 75, 0
1, 33216, Note_on_c, 0, 79, 29
1, 33216, Note_on_c, 0, 67, 29
1, 33408, Note_off_c, 0, 67, 0
1, 33408, Note_off_c, 0, 79, 0
1, 33408, Note_on_c, 0, 81, 29
1, 33408, Note_on_c, 0, 69, 29
1, 33600, Note_off_c, 0, 69, 0
1, 33600, Note_off_c, 0, 81, 0
1, 33600, Note_on_c, 0, 86, 29
1, 33600, Note_on_c, 0, 74, 29
1, 33696, Note_off_c, 0, 51, 0
1, 33792, Note_off_c, 0, 74, 0
1, 33792, Note_off_c, 0, 86, 0
1, 33792, Note_on_c, 0, 74, 29
1, 33792, Note_on_c, 0, 50, 29
1, 33792, Note_on_c, 0, 62, 29
1, 33984, Note_off_c, 0, 62, 0
1, 33984, Note_off_c, 0, 74, 0
1, 33984, Note_on_c, 0, 79, 29
1, 33984, Note_on_c, 0, 67, 29
1, 34176, Note_off_c, 0, 67, 0
1, 34176, Note_off_c, 0, 79, 0
1, 34176, Note_on_c, 0, 81, 29
1, 34176, Note_on_c, 0, 69, 29
1, 34368, Note_off_c, 0, 69, 0
1, 34368, Note_off_c, 0, 81, 0
1, 34368, Note_on_c, 0, 86, 29
1, 34368, Note_on_c, 0, 74, 29
1, 34464, Note_off_c, 0, 50, 0
1, 34560, Note_off_c, 0, 74, 0
1, 34560, Note_off_c, 0, 86, 0
1, 34560, Note_on_c, 0, 75, 29
1, 34560, Note_on_c, 0, 51, 29
1, 34560, Note_on_c, 0, 63, 29
1, 34752, Note_off_c, 0, 63, 0
1, 34752, Note_off_c, 0, 75, 0
1, 34752, Note_on_c, 0, 79, 29
1, 34752, Note_on_c, 0, 67, 29
1, 34944, Note_off_c, 0, 67, 0
1, 34944, Note_off_c, 0, 79, 0
1, 34944, Note_on_c, 0, 81, 29
1, 34944, Note_on_c, 0, 69, 29
1, 35136, Note_off_c, 0, 69, 0
1, 35136, Note_off_c, 0, 81, 0
1, 35136, Note_on_c, 0, 86, 29
1, 35136, Note_on_c, 0, 74, 29
1, 35232, Note_off_c, 0, 51, 0
1, 35328, Note_off_c, 0, 74, 0
1, 35328, Note_off_c, 0, 86, 0
1, 35328, Note_on_c, 0, 76, 29
1, 35328, Note_on_c, 0, 52, 29
1, 35328, Note_on_c, 0, 64, 29
1, 35520, Note_off_c, 0, 64, 0
1, 35520, Note_off_c, 0, 76, 0
1, 35520, Note_on_c, 0, 79, 29
1, 35520, Note_on_c, 0, 67, 29
1, 35712, Note_off_c, 0, 67, 0
1, 35712, Note_off_c, 0, 79, 0
1, 35712, Note_on_c, 0, 81, 29
1, 35712, Note_on_c, 0, 69, 29
1, 35904, Note_off_c, 0, 69, 0
1, 35904, Note_off_c, 0, 81, 0
1, 35904, Note_on_c, 0, 86, 29
1, 35904, Note_on_c, 0, 74, 29
1, 36000, Note_off_c, 0, 52, 0
1, 36096, Note_off_c, 0, 74, 0
1, 36096, Note_off_c, 0, 86, 0
1, 36096, Note_on_c, 0, 75, 29
1, 36096, Note_on_c, 0, 51, 29
1, 36096, Note_on_c, 0, 63, 29
1, 36288, Note_off_c, 0, 63, 0
1, 36288, Note_off_c, 0, 75, 0
1, 36288, Note_on_c, 0, 79, 29
1, 36288, Note_on_c, 0, 67, 29
1, 36480, Note_off_c, 0, 67, 0
1, 36480, Note_off_c, 0, 79, 0
1, 36480, Note_on_c, 0, 81, 29
1, 36480, Note_on_c, 0, 69, 29
1, 36672, Note_off_c, 0, 69, 0
1, 36672, Note_off_c, 0, 81, 0
1, 36672, Note_on_c, 0, 86, 29
1, 36672, Note_on_c, 0, 74, 29
1, 36768, Note_off_c, 0, 51, 0
1, 36864, Note_off_c, 0, 74, 0
1, 36864, Note_off_c, 0, 86, 0
1, 36864, Note_on_c, 0, 74, 36
1, 36864, Note_on_c, 0, 50, 29
1, 36864, Note_on_c, 0, 62, 36
1, 37056, Note_off_c, 0, 62, 0
1, 37056, Note_off_c, 0, 74, 0
1, 37056, Note_on_c, 0, 79, 36
1, 37056, Note_on_c, 0, 67, 36
1, 37248, Note_off_c, 0, 67, 0
1, 37248, Note_off_c, 0, 79, 0
1, 37248, Note_on_c, 0, 81, 36
1, 37248, Note_on_c, 0, 69, 36
1, 37440, Note_off_c, 0, 69, 0
1, 37440, Note_off_c, 0, 81, 0
1, 37440, Note_on_c, 0, 86, 36
1, 37440, Note_on_c, 0, 74, 36
1, 37536, Note_off_c, 0, 50, 0
1, 37632, Note_off_c, 0, 74, 0
1, 37632, Note_off_c, 0, 86, 0
1, 37632, Note_on_c, 0, 75, 36
1, 37632, Note_on_c, 0, 51, 29
1, 37632, Note_on_c, 0, 63, 36
1, 37824, Note_off_c, 0, 63, 0
1, 37824, Note_off_c, 0, 75, 0
1, 37824, Note_on_c, 0, 79, 36
1, 37824, Note_on_c, 0, 67, 36
1, 38016, Note_off_c, 0, 67, 0
1, 38016, Note_off_c, 0, 79, 0
1, 38016, Note_on_c, 0, 81, 36
1, 38016, Note_on_c, 0, 69, 36
1, 38208, Note_off_c, 0, 69, 0
1, 38208, Note_off_c, 0, 81, 0
1, 38208, Note_on_c, 0, 86, 36
1, 38208, Note_on_c, 0, 74, 36
1, 38304, Note_off_c, 0, 51, 0
1, 38400, Note_off_c, 0, 74, 0
1, 38400, Note_off_c, 0, 86, 0
1, 38400, Note_on_c, 0, 76, 36
1, 38400, Note_on_c, 0, 52, 29
1, 38400, Note_on_c, 0, 64, 36
1, 38592, Note_off_c, 0, 64, 0
1, 38592, Note_off_c, 0, 76, 0
1, 38592, Note_on_c, 0, 79, 36
1, 38592, Note_on_c, 0, 67, 36
1, 38784, Note_off_c, 0, 67, 0
1, 38784, Note_off_c, 0, 79, 0
1, 38784, Note_on_c, 0, 81, 36
1, 38784, Note_on_c, 0, 69, 36
1, 38976, Note_off_c, 0, 69, 0
1, 38976, Note_off_c, 0, 81, 0
1, 38976, Note_on_c, 0, 86, 36
1, 38976, Note_on_c, 0, 74, 36
1, 39072, Note_off_c, 0, 52, 0
1, 39168, Note_off_c, 0, 74, 0
1, 39168, Note_off_c, 0, 86, 0
1, 39168, Note_on_c, 0, 75, 36
1, 39168, Note_on_c, 0, 51, 29
1, 39168, Note_on_c, 0, 63, 36
1, 39360, Note_off_c, 0, 63, 0
1, 39360, Note_off_c, 0, 75, 0
1, 39360, Note_on_c, 0, 79, 36
1, 39360, Note_on_c, 0, 67, 36
1, 39552, Note_off_c, 0, 67, 0
1, 39552, Note_off_c, 0, 79, 0
1, 39552, Note_on_c, 0, 81, 36
1, 39552, Note_on_c, 0, 69, 36
1, 39744, Note_off_c, 0, 69, 0
1, 39744, Note_off_c, 0, 81, 0
1, 39744, Note_on_c, 0, 86, 36
1, 39744, Note_on_c, 0, 74, 36
1, 39840, Note_off_c, 0, 51, 0
1, 39936, Note_off_c, 0, 74, 0
1, 39936, Note_off_c, 0, 86, 0
1, 39936, Note_on_c, 0, 74, 36
1, 39936, Note_on_c, 0, 50, 29
1, 39936, Note_on_c, 0, 62, 36
1, 40128, Note_off_c, 0, 62, 0
1, 40128, Note_off_c, 0, 74, 0
1, 40128, Note_on_c, 0, 79, 36
1, 40128, Note_on_c, 0, 67, 36
1, 40320, Note_off_c, 0, 67, 0
1, 40320, Note_off_c, 0, 79, 0
1, 40320, Note_on_c, 0, 81, 36
1, 40320, Note_on_c, 0, 69, 36
1, 40512, Note_off_c, 0, 69, 0
1, 40512, Note_off_c, 0, 81, 0
1, 40512, Note_on_c, 0, 86, 36
1, 40512, Note_on_c, 0, 74, 36
1, 40608, Note_off_c, 0, 50, 0
1, 40704, Note_off_c, 0, 74, 0
1, 40704, Note_off_c, 0, 86, 0
1, 40704, Note_on_c, 0, 75, 36
1, 40704, Note_on_c, 0, 51, 29
1, 40704, Note_on_c, 0, 63, 36
1, 40896, Note_off_c, 0, 63, 0
1, 40896, Note_off_c, 0, 75, 0
1, 40896, Note_on_c, 0, 79, 36
1, 40896, Note_on_c, 0, 67, 36
1, 41088, Note_off_c, 0, 67, 0
1, 41088, Note_off_c, 0, 79, 0
1, 41088, Note_on_c, 0, 81, 36
1, 41088, Note_on_c, 0, 69, 36
1, 41280, Note_off_c, 0, 69, 0
1, 41280, Note_off_c, 0, 81, 0
1, 41280, Note_on_c, 0, 86, 36
1, 41280, Note_on_c, 0, 74, 36
1, 41376, Note_off_c, 0, 51, 0
1, 41472, Note_off_c, 0, 74, 0
1, 41472, Note_off_c, 0, 86, 0
1, 41472, Note_on_c, 0, 76, 36
1, 41472, Note_on_c, 0, 52, 29
1, 41472, Note_on_c, 0, 64, 36
1, 41664, Note_off_c, 0, 64, 0
1, 41664, Note_off_c, 0, 76, 0
1, 41664, Note_on_c, 0, 79, 36
1, 41664, Note_on_c, 0, 67, 36
1, 41856, Note_off_c, 0, 67, 0
1, 41856, Note_off_c, 0, 79, 0
1, 41856, Note_on_c, 0, 81, 36
1, 41856, Note_on_c, 0, 69, 36
1, 42048, Note_off_c, 0, 69, 0
1, 42048, Note_off_c, 0, 81, 0
1, 42048, Note_on_c, 0, 86, 36
1, 42048, Note_on_c, 0, 74, 36
1, 42144, Note_off_c, 0, 52, 0
1, 42240, Note_off_c, 0, 74, 0
1, 42240, Note_off_c, 0, 86, 0
1, 42240, Note_on_c, 0, 75, 36
1, 42240, Note_on_c, 0, 51, 29
1, 42240, Note_on_c, 0, 63, 36
1, 42432, Note_off_c, 0, 63, 0
1, 42432, Note_off_c, 0, 75, 0
1, 42432, Note_on_c, 0, 79, 36
1, 42432, Note_on_c, 0, 67, 36
1, 42624, Note_off_c, 0, 67, 0
1, 42624, Note_off_c, 0, 79, 0
1, 42624, Note_on_c, 0, 81, 36
1, 42624, Note_on_c, 0, 69, 36
1, 42816, Note_off_c, 0, 69, 0
1, 42816, Note_off_c, 0, 81, 0
1, 42816, Note_on_c, 0, 86, 36
1, 42816, Note_on_c, 0, 74, 36
1, 42912, Note_off_c, 0, 51, 0
1, 43008, Note_off_c, 0, 74, 0
1, 43008, Note_off_c, 0, 86, 0
1, 43008, Note_on_c, 0, 74, 36
1, 43008, Note_on_c, 0, 50, 29
1, 43008, Note_on_c, 0, 62, 36
1, 43200, Note_off_c, 0, 62, 0
1, 43200, Note_off_c, 0, 74, 0
1, 43200, Note_on_c, 0, 79, 36
1, 43200, Note_on_c, 0, 67, 36
1, 43392, Note_off_c, 0, 67, 0
1, 43392, Note_off_c, 0, 79, 0
1, 43392, Note_on_c, 0, 81, 36
1, 43392, Note_on_c, 0, 69, 36
1, 43584, Note_off_c, 0, 69, 0
1, 43584, Note_off_c, 0, 81, 0
1, 43584, Note_on_c, 0, 86, 36
1, 43584, Note_on_c, 0, 74, 36
1, 43680, Note_off_c, 0, 50, 0
1, 43776, Note_off_c, 0, 74, 0
1, 43776, Note_off_c, 0, 86, 0
1, 43776, Note_on_c, 0, 75, 36
1, 43776, Note_on_c, 0, 51, 29
1, 43776, Note_on_c, 0, 63, 36
1, 43968, Note_off_c, 0, 63, 0
1, 43968, Note_off_c, 0, 75, 0
1, 43968, Note_on_c, 0, 79, 36
1, 43968, Note_on_c, 0, 67, 36
1, 44160, Note_off_c, 0, 67, 0
1, 44160, Note_off_c, 0, 79, 0
1, 44160, Note_on_c, 0, 81, 36
1, 44160, Note_on_c, 0, 69, 36
1, 44352, Note_off_c, 0, 69, 0
1, 44352, Note_off_c, 0, 81, 0
1, 44352, Note_on_c, 0, 86, 36
1, 44352, Note_on_c, 0, 74, 36
1, 44448, Note_off_c, 0, 51, 0
1, 44544, Note_off_c, 0, 74, 0
1, 44544, Note_off_c, 0, 86, 0
1, 44544, Note_on_c, 0, 76, 36
1, 44544, Note_on_c, 0, 52, 29
1, 44544, Note_on_c, 0, 64, 36
1, 44736, Note_off_c, 0, 64, 0
1, 44736, Note_off_c, 0, 76, 0
1, 44736, Note_on_c, 0, 79, 36
1, 44736, Note_on_c, 0, 67, 36
1, 44928, Note_off_c, 0, 67, 0
1, 44928, Note_off_c, 0, 79, 0
1, 44928, Note_on_c, 0, 81, 36
1, 44928, Note_on_c, 0, 69, 36
1, 45120, Note_off_c, 0, 69, 0
1, 45120, Note_off_c, 0, 81, 0
1, 45120, Note_on_c, 0, 86, 36
1, 45120, Note_on_c, 0, 74, 36
1, 45216, Note_off_c, 0, 52, 0
1, 45312, Note_off_c, 0, 74, 0
1, 45312, Note_off_c, 0, 86, 0
1, 45312, Note_on_c, 0, 75, 36
1, 45312, Note_on_c, 0, 51, 29
1, 45312, Note_on_c, 0, 63, 36
1, 45504, Note_off_c, 0, 63, 0
1, 45504, Note_off_c, 0, 75, 0
1, 45504, Note_on_c, 0, 79, 36
1, 45504, Note_on_c, 0, 67, 36
1, 45696, Note_off_c, 0, 67, 0
1, 45696, Note_off_c, 0, 79, 0
1, 45696, Note_on_c, 0, 81, 36
1, 45696, Note_on_c, 0, 69, 36
1, 45888, Note_off_c, 0, 69, 0
1, 45888, Note_off_c, 0, 81, 0
1, 45888, Note_on_c, 0, 86, 36
1, 45888, Note_on_c, 0, 74, 36
1, 45984, Note_off_c, 0, 51, 0
1, 46080, Note_off_c, 0, 74, 0
1, 46080, Note_off_c, 0, 86, 0
1, 46080, Note_on_c, 0, 74, 36
1, 46080, Note_on_c, 0, 50, 29
1, 46080, Note_on_c, 0, 62, 36
1, 46272, Note_off_c, 0, 62, 0
1, 46272, Note_off_c, 0, 74, 0
1, 46272, Note_on_c, 0, 79, 36
1, 46272, Note_on_c, 0, 67, 36
1, 46464, Note_off_c, 0, 67, 0
1, 46464, Note_off_c, 0, 79, 0
1, 46464, Note_on_c, 0, 81, 36
1, 46464, Note_on_c, 0, 69, 36
1, 46656, Note_off_c, 0, 69, 0
1, 46656, Note_off_c, 0, 81, 0
1, 46656, Note_on_c, 0, 86, 36
1, 46656, Note_on_c, 0, 74, 36
1, 46752, Note_off_c, 0, 50, 0
1, 46848, Note_off_c, 0, 74, 0
1, 46848, Note_off_c, 0, 86, 0
1, 46848, Note_on_c, 0, 75, 36
1, 46848, Note_on_c, 0, 51, 29
1, 46848, Note_on_c, 0, 63, 36
1, 47040, Note_off_c, 0, 63, 0
1, 47040, Note_off_c, 0, 75, 0
1, 47040, Note_on_c, 0, 79, 36
1, 47040, Note_on_c, 0, 67, 36
1, 47232, Note_off_c, 0, 67, 0
1, 47232, Note_off_c, 0, 79, 0
1, 47232, Note_on_c, 0, 81, 36
1, 47232, Note_on_c, 0, 69, 36
1, 47424, Note_off_c, 0, 69, 0
1, 47424, Note_off_c, 0, 81, 0
1, 47424, Note_on_c, 0, 86, 36
1, 47424, Note_on_c, 0, 74, 36
1, 47520, Note_off_c, 0, 51, 0
1, 47616, Note_off_c, 0, 74, 0
1, 47616, Note_off_c, 0, 86, 0
1, 47616, Note_on_c, 0, 76, 36
1, 47616, Note_on_c, 0, 52, 29
1, 47616, Note_on_c, 0, 64, 36
1, 47808, Note_off_c, 0, 64, 0
1, 47808, Note_off_c, 0, 76, 0
1, 47808, Note_on_c, 0, 79, 36
1, 47808, Note_on_c, 0, 67, 36
1, 48000, Note_off_c, 0, 67, 0
1, 48000, Note_off_c, 0, 79, 0
1, 48000, Note_on_c, 0, 81, 36
1, 48000, Note_on_c, 0, 69, 36
1, 48192, Note_off_c, 0, 69, 0
1, 48192, Note_off_c, 0, 81, 0
1, 48192, Note_on_c, 0, 86, 36
1, 48192, Note_on_c, 0, 74, 36
1, 48288, Note_off_c, 0, 52, 0
1, 48384, Note_off_c, 0, 74, 0
1, 48384, Note_off_c, 0, 86, 0
1, 48384, Note_on_c, 0, 75, 36
1, 48384, Note_on_c, 0, 51, 29
1, 48384, Note_on_c, 0, 63, 36
1, 48576, Note_off_c, 0, 63, 0
1, 48576, Note_off_c, 0, 75, 0
1, 48576, Note_on_c, 0, 79, 36
1, 48576, Note_on_c, 0, 67, 36
1, 48768, Note_off_c, 0, 67, 0
1, 48768, Note_off_c, 0, 79, 0
1, 48768, Note_on_c, 0, 81, 36
1, 48768, Note_on_c, 0, 69, 36
1, 48960, Note_off_c, 0, 69, 0
1, 48960, Note_off_c, 0, 81, 0
1, 48960, Note_on_c, 0, 86, 36
1, 48960, Note_on_c, 0, 74, 36
1, 49056, Note_off_c, 0, 51, 0
1, 49152, Note_off_c, 0, 74, 0
1, 49152, Note_off_c, 0, 86, 0
1, 55296, Note_on_c, 0, 62, 36
1, 55296, Note_on_c, 0, 50, 36
1, 55488, Note_off_c, 0, 50, 0
1, 55488, Note_off_c, 0, 62, 0
1, 55488, Note_on_c, 0, 67, 36
1, 55488, Note_on_c, 0, 55, 36
1, 55680, Note_off_c, 0, 55, 0
1, 55680, Note_off_c, 0, 67, 0
1, 55680, Note_on_c, 0, 69, 36
1, 55680, Note_on_c, 0, 57, 36
1, 55872, Note_off_c, 0, 57, 0
1, 55872, Note_off_c, 0, 69, 0
1, 55872, Note_on_c, 0, 74, 36
1, 55872, Note_on_c, 0, 62, 36
1, 56064, Note_off_c, 0, 62, 0
1, 56064, Note_off_c, 0, 74, 0
1, 56064, Note_on_c, 0, 63, 36
1, 56064, Note_on_c, 0, 51, 36
1, 56256, Note_off_c, 0, 51, 0
1, 56256, Note_off_c, 0, 63, 0
1, 56256, Note_on_c, 0, 67, 36
1, 56256, Note_on_c, 0, 55, 36
1, 56448, Note_off_c, 0, 55, 0
1, 56448, Note_off_c, 0, 67, 0
1, 56448, Note_on_c, 0, 69, 36
1, 56448, Note_on_c, 0, 57, 36
1, 56640, Note_off_c, 0, 57, 0
1, 56640, Note_off_c, 0, 69, 0
1, 56640, Note_on_c, 0, 74, 36
1, 56640, Note_on_c, 0, 62, 36
1, 56832, Note_off_c, 0, 62, 0
1, 56832, Note_off_c, 0, 74, 0
1, 56832, Note_on_c, 0, 64, 36
1, 56832, Note_on_c, 0, 52, 36
1, 57024, Note_off_c, 0, 52, 0
1, 57024, Note_off_c, 0, 64, 0
1, 57024, Note_on_c, 0, 67, 36
1, 57024, Note_on_c, 0, 55, 36
1, 57216, Note_off_c, 0, 55, 0
1, 57216, Note_off_c, 0, 67, 0
1, 57216, Note_on_c, 0, 69, 36
1, 57216, Note_on_c, 0, 57, 36
1, 57408, Note_off_c, 0, 57, 0
1, 57408, Note_off_c, 0, 69, 0
1, 57408, Note_on_c, 0, 74, 36
1, 57408, Note_on_c, 0, 62, 36
1, 57600, Note_off_c, 0, 62, 0
1, 57600, Note_off_c, 0, 74, 0
1, 57600, Note_on_c, 0, 63, 36
1, 57600, Note_on_c, 0, 51, 36
1, 57792, Note_off_c, 0, 51, 0
1, 57792, Note_off_c, 0, 63, 0
1, 57792, Note_on_c, 0, 67, 36
1, 57792, Note_on_c, 0, 55, 36
1, 57984, Note_off_c, 0, 55, 0
1, 57984, Note_off_c, 0, 67, 0
1, 57984, Note_on_c, 0, 69, 36
1, 57984, Note_on_c, 0, 57, 36
1, 58176, Note_off_c, 0, 57, 0
1, 58176, Note_off_c, 0, 69, 0
1, 58176, Note_on_c, 0, 74, 36
1, 58176, Note_on_c, 0, 62, 36
1, 58368, Note_off_c, 0, 62, 0
1, 58368, Note_off_c, 0, 74, 0
1, 58368, Note_on_c, 0, 62, 36
1, 58368, Note_on_c, 0, 50, 36
1, 58560, Note_off_c, 0, 50, 0
1, 58560, Note_off_c, 0, 62, 0
1, 58560, Note_on_c, 0, 67, 36
1, 58560, Note_on_c, 0, 55, 36
1, 58752, Note_off_c, 0, 55, 0
1, 58752, Note_off_c, 0, 67, 0
1, 58752, Note_on_c, 0, 69, 36
1, 58752, Note_on_c, 0, 57, 36
1, 58944, Note_off_c, 0, 57, 0
1, 58944, Note_off_c, 0, 69, 0
1, 58944, Note_on_c, 0, 74, 36
1, 58944, Note_on_c, 0, 62, 36
1, 59136, Note_off_c, 0, 62, 0
1, 59136, Note_off_c, 0, 74, 0
1, 59136, Note_on_c, 0, 63, 36
1, 59136, Note_on_c, 0, 51, 36
1, 59328, Note_off_c, 0, 51, 0
1, 59328, Note_off_c, 0, 63, 0
1, 59328, Note_on_c, 0, 67, 36
1, 59328, Note_on_c, 0, 55, 36
1, 59520, Note_off_c, 0, 55, 0
1, 59520, Note_off_c, 0, 67, 0
1, 59520, Note_on_c, 0, 69, 36
1, 59520, Note_on_c, 0, 57, 36
1, 59712, Note_off_c, 0, 57, 0
1, 59712, Note_off_c, 0, 69, 0
1, 59712, Note_on_c, 0, 74, 36
1, 59712, Note_on_c, 0, 62, 36
1, 59904, Note_off_c, 0, 62, 0
1, 59904, Note_off_c, 0, 74, 0
1, 59904, Note_on_c, 0, 64, 36
1, 59904, Note_on_c, 0, 52, 36
1, 60096, Note_off_c, 0, 52, 0
1, 60096, Note_off_c, 0, 64, 0
1, 60096, Note_on_c, 0, 67, 36
1, 60096, Note_on_c, 0, 55, 36
1, 60288, Note_off_c, 0, 55, 0
1, 60288, Note_off_c, 0, 67, 0
1, 60288, Note_on_c, 0, 69, 36
1, 60288, Note_on_c, 0, 57, 36
1, 60480, Note_off_c, 0, 57, 0
1, 60480, Note_off_c, 0, 69, 0
1, 60480, Note_on_c, 0, 74, 36
1, 60480, Note_on_c, 0, 62, 36
1, 60672, Note_off_c, 0, 62, 0
1, 60672, Note_off_c, 0, 74, 0
1, 60672, Note_on_c, 0, 63, 36
1, 60672, Note_on_c, 0, 51, 36
1, 60864, Note_off_c, 0, 51, 0
1, 60864, Note_off_c, 0, 63, 0
1, 60864, Note_on_c, 0, 67, 36
1, 60864, Note_on_c, 0, 55, 36
1, 61056, Note_off_c, 0, 55, 0
1, 61056, Note_off_c, 0, 67, 0
1, 61056, Note_on_c, 0, 69, 36
1, 61056, Note_on_c, 0, 57, 36
1, 61248, Note_off_c, 0, 57, 0
1, 61248, Note_off_c, 0, 69, 0
1, 61248, Note_on_c, 0, 74, 36
1, 61248, Note_on_c, 0, 62, 36
1, 61440, Note_off_c, 0, 62, 0
1, 61440, Note_off_c, 0, 74, 0
1, 61440, Note_on_c, 0, 62, 36
1, 61440, Note_on_c, 0, 50, 36
1, 61632, Note_off_c, 0, 50, 0
1, 61632, Note_off_c, 0, 62, 0
1, 61632, Note_on_c, 0, 67, 36
1, 61632, Note_on_c, 0, 55, 36
1, 61824, Note_off_c, 0, 55, 0
1, 61824, Note_off_c, 0, 67, 0
1, 61824, Note_on_c, 0, 69, 36
1, 61824, Note_on_c, 0, 57, 36
1, 62016, Note_off_c, 0, 57, 0
1, 62016, Note_off_c, 0, 69, 0
1, 62016, Note_on_c, 0, 74, 36
1, 62016, Note_on_c, 0, 62, 36
1, 62208, Note_off_c, 0, 62, 0
1, 62208, Note_off_c, 0, 74, 0
1, 62208, Note_on_c, 0, 63, 36
1, 62208, Note_on_c, 0, 51, 36
1, 62400, Note_off_c, 0, 51, 0
1, 62400, Note_off_c, 0, 63, 0
1, 62400, Note_on_c, 0, 67, 36
1, 62400, Note_on_c, 0, 55, 36
1, 62592, Note_off_c, 0, 55, 0
1, 62592, Note_off_c, 0, 67, 0
1, 62592, Note_on_c, 0, 69, 36
1, 62592, Note_on_c, 0, 57, 36
1, 62784, Note_off_c, 0, 57, 0
1, 62784, Note_off_c, 0, 69, 0
1, 62784, Note_on_c, 0, 74, 36
1, 62784, Note_on_c, 0, 62, 36
1, 62976, Note_off_c, 0, 62, 0
1, 62976, Note_off_c, 0, 74, 0
1, 62976, Note_on_c, 0, 64, 36
1, 62976, Note_on_c, 0, 52, 36
1, 63168, Note_off_c, 0, 52, 0
1, 63168, Note_off_c, 0, 64, 0
1, 63168, Note_on_c, 0, 67, 36
1, 63168, Note_on_c, 0, 55, 36
1, 63360, Note_off_c, 0, 55, 0
1, 63360, Note_off_c, 0, 67, 0
1, 63360, Note_on_c, 0, 69, 36
1, 63360, Note_on_c, 0, 57, 36
1, 63552, Note_off_c, 0, 57, 0
1, 63552, Note_off_c, 0, 69, 0
1, 63552, Note_on_c, 0, 74, 36
1, 63552, Note_on_c, 0, 62, 36
1, 63744, Note_off_c, 0, 62, 0
1, 63744, Note_off_c, 0, 74, 0
1, 63744, Note_on_c, 0, 63, 36
1, 63744, Note_on_c, 0, 51, 36
1, 63936, Note_off_c, 0, 51, 0
1, 63936, Note_off_c, 0, 63, 0
1, 63936, Note_on_c, 0, 67, 36
1, 63936, Note_on_c, 0, 55, 36
1, 64128, Note_off_c, 0, 55, 0
1, 64128, Note_off_c, 0, 67, 0
1, 64128, Note_on_c, 0, 69, 36
1, 64128, Note_on_c, 0, 57, 36
1, 64320, Note_off_c, 0, 57, 0
1, 64320, Note_off_c, 0, 69, 0
1, 64320, Note_on_c, 0, 74, 36
1, 64320, Note_on_c, 0, 62, 36
1, 64512, Note_off_c, 0, 62, 0
1, 64512, Note_off_c, 0, 74, 0
1, 64512, Note_on_c, 0, 62, 36
1, 64512, Note_on_c, 0, 50, 36
1, 64704, Note_off_c, 0, 50, 0
1, 64704, Note_off_c, 0, 62, 0
1, 64704, Note_on_c, 0, 67, 36
1, 64704, Note_on_c, 0, 55, 36
1, 64896, Note_off_c, 0, 55, 0
1, 64896, Note_off_c, 0, 67, 0
1, 64896, Note_on_c, 0, 69, 36
1, 64896, Note_on_c, 0, 57, 36
1, 65088, Note_off_c, 0, 57, 0
1, 65088, Note_off_c, 0, 69, 0
1, 65088, Note_on_c, 0, 74, 36
1, 65088, Note_on_c, 0, 62, 36
1, 65280, Note_off_c, 0, 62, 0
1, 65280, Note_off_c, 0, 74, 0
1, 65280, Note_on_c, 0, 63, 36
1, 65280, Note_on_c, 0, 51, 36
1, 65472, Note_off_c, 0, 51, 0
1, 65472, Note_off_c, 0, 63, 0
1, 65472, Note_on_c, 0, 67, 36
1, 65472, Note_on_c, 0, 55, 36
1, 65664, Note_off_c, 0, 55, 0
1, 65664, Note_off_c, 0, 67, 0
1, 65664, Note_on_c, 0, 69, 36
1, 65664, Note_on_c, 0, 57, 36
1, 65856, Note_off_c, 0, 57, 0
1, 65856, Note_off_c, 0, 69, 0
1, 65856, Note_on_c, 0, 74, 36
1, 65856, Note_on_c, 0, 62, 36
1, 66048, Note_off_c, 0, 62, 0
1, 66048, Note_off_c, 0, 74, 0
1, 66048, Note_on_c, 0, 64, 36
1, 66048, Note_on_c, 0, 52, 36
1, 66240, Note_off_c, 0, 52, 0
1, 66240, Note_off_c, 0, 64, 0
1, 66240, Note_on_c, 0, 67, 36
1, 66240, Note_on_c, 0, 55, 36
1, 66432, Note_off_c, 0, 55, 0
1, 66432, Note_off_c, 0, 67, 0
1, 66432, Note_on_c, 0, 69, 36
1, 66432, Note_on_c, 0, 57, 36
1, 66624, Note_off_c, 0, 57, 0
1, 66624, Note_off_c, 0, 69, 0
1, 66624, Note_on_c, 0, 74, 36
1, 66624, Note_on_c, 0, 62, 36
1, 66816, Note_off_c, 0, 50, 0
1, 66816, Note_off_c, 0, 62, 0
1, 66816, Note_off_c, 0, 74, 0
1, 66816, Note_on_c, 0, 63, 36
1, 66816, Note_on_c, 0, 50, 36
1, 66816, Note_on_c, 0, 51, 36
1, 66864, Note_off_c, 0, 48, 0
1, 66864, Note_on_c, 0, 48, 36
1, 67008, Note_off_c, 0, 51, 0
1, 67008, Note_off_c, 0, 63, 0
1, 67008, Note_on_c, 0, 67, 36
1, 67008, Note_on_c, 0, 55, 36
1, 67200, Note_off_c, 0, 55, 0
1, 67200, Note_off_c, 0, 67, 0
1, 67200, Note_on_c, 0, 69, 36
1, 67200, Note_on_c, 0, 57, 36
1, 67392, Note_off_c, 0, 57, 0
1, 67392, Note_off_c, 0, 69, 0
1, 67392, Note_on_c, 0, 74, 36
1, 67392, Note_on_c, 0, 62, 36
1, 67584, Note_off_c, 0, 62, 0
1, 67584, Note_off_c, 0, 74, 0
1, 67584, Note_on_c, 0, 62, 36
1, 67584, Note_on_c, 0, 50, 36
1, 67776, Note_off_c, 0, 50, 0
1, 67776, Note_off_c, 0, 62, 0
1, 67776, Note_on_c, 0, 67, 36
1, 67776, Note_on_c, 0, 55, 36
1, 67968, Note_off_c, 0, 55, 0
1, 67968, Note_off_c, 0, 67, 0
1, 67968, Note_on_c, 0, 69, 36
1, 67968, Note_on_c, 0, 57, 36
1, 68160, Note_off_c, 0, 57, 0
1, 68160, Note_off_c, 0, 69, 0
1, 68160, Note_on_c, 0, 74, 36
1, 68160, Note_on_c, 0, 62, 36
1, 68352, Note_off_c, 0, 62, 0
1, 68352, Note_off_c, 0, 74, 0
1, 68352, Note_on_c, 0, 63, 36
1, 68352, Note_on_c, 0, 51, 36
1, 68544, Note_off_c, 0, 51, 0
1, 68544, Note_off_c, 0, 63, 0
1, 68544, Note_on_c, 0, 67, 36
1, 68544, Note_on_c, 0, 55, 36
1, 68736, Note_off_c, 0, 55, 0
1, 68736, Note_off_c, 0, 67, 0
1, 68736, Note_on_c, 0, 69, 36
1, 68736, Note_on_c, 0, 57, 36
1, 68928, Note_off_c, 0, 57, 0
1, 68928, Note_off_c, 0, 69, 0
1, 68928, Note_on_c, 0, 74, 36
1, 68928, Note_on_c, 0, 62, 36
1, 69120, Note_off_c, 0, 62, 0
1, 69120, Note_off_c, 0, 74, 0
1, 69120, Note_on_c, 0, 64, 36
1, 69120, Note_on_c, 0, 52, 36
1, 69312, Note_off_c, 0, 52, 0
1, 69312, Note_off_c, 0, 64, 0
1, 69312, Note_on_c, 0, 67, 36
1, 69312, Note_on_c, 0, 55, 36
1, 69504, Note_off_c, 0, 55, 0
1, 69504, Note_off_c, 0, 67, 0
1, 69504, Note_on_c, 0, 69, 36
1, 69504, Note_on_c, 0, 57, 36
1, 69696, Note_off_c, 0, 57, 0
1, 69696, Note_off_c, 0, 69, 0
1, 69696, Note_on_c, 0, 74, 36
1, 69696, Note_on_c, 0, 62, 36
1, 69888, Note_off_c, 0, 62, 0
1, 69888, Note_off_c, 0, 74, 0
1, 69888, Note_on_c, 0, 63, 36
1, 69888, Note_on_c, 0, 51, 36
1, 70080, Note_off_c, 0, 51, 0
1, 70080, Note_off_c, 0, 63, 0
1, 70080, Note_on_c, 0, 67, 36
1, 70080, Note_on_c, 0, 55, 36
1, 70272, Note_off_c, 0, 55, 0
1, 70272, Note_off_c, 0, 67, 0
1, 70272, Note_on_c, 0, 69, 36
1, 70272, Note_on_c, 0, 57, 36
1, 70464, Note_off_c, 0, 57, 0
1, 70464, Note_off_c, 0, 69, 0
1, 70464, Note_on_c, 0, 74, 36
1, 70464, Note_on_c, 0, 62, 36
1, 70656, Note_off_c, 0, 62, 0
1, 70656, Note_off_c, 0, 74, 0
1, 70656, Note_on_c, 0, 62, 36
1, 70656, Note_on_c, 0, 50, 36
1, 70848, Note_off_c, 0, 50, 0
1, 70848, Note_off_c, 0, 62, 0
1, 70848, Note_on_c, 0, 67, 36
1, 70848, Note_on_c, 0, 55, 36
1, 71040, Note_off_c, 0, 55, 0
1, 71040, Note_off_c, 0, 67, 0
1, 71040, Note_on_c, 0, 69, 36
1, 71040, Note_on_c, 0, 57, 36
1, 71232, Note_off_c, 0, 57, 0
1, 71232, Note_off_c, 0, 69, 0
1, 71232, Note_on_c, 0, 74, 36
1, 71232, Note_on_c, 0, 62, 36
1, 71424, Note_off_c, 0, 62, 0
1, 71424, Note_off_c, 0, 74, 0
1, 71424, Note_on_c, 0, 63, 36
1, 71424, Note_on_c, 0, 51, 36
1, 71616, Note_off_c, 0, 51, 0
1, 71616, Note_off_c, 0, 63, 0
1, 71616, Note_on_c, 0, 67, 36
1, 71616, Note_on_c, 0, 55, 36
1, 71808, Note_off_c, 0, 55, 0
1, 71808, Note_off_c, 0, 67, 0
1, 71808, Note_on_c, 0, 69, 36
1, 71808, Note_on_c, 0, 57, 36
1, 72000, Note_off_c, 0, 57, 0
1, 72000, Note_off_c, 0, 69, 0
1, 72000, Note_on_c, 0, 74, 36
1, 72000, Note_on_c, 0, 62, 36
1, 72192, Note_off_c, 0, 62, 0
1, 72192, Note_off_c, 0, 74, 0
1, 72192, Note_on_c, 0, 64, 36
1, 72192, Note_on_c, 0, 52, 36
1, 72384, Note_off_c, 0, 52, 0
1, 72384, Note_off_c, 0, 64, 0
1, 72384, Note_on_c, 0, 67, 36
1, 72384, Note_on_c, 0, 55, 36
1, 72576, Note_off_c, 0, 55, 0
1, 72576, Note_off_c, 0, 67, 0
1, 72576, Note_on_c, 0, 69, 36
1, 72576, Note_on_c, 0, 57, 36
1, 72768, Note_off_c, 0, 57, 0
1, 72768, Note_off_c, 0, 69, 0
1, 72768, Note_on_c, 0, 74, 36
1, 72768, Note_on_c, 0, 62, 36
1, 72960, Note_off_c, 0, 62, 0
1, 72960, Note_off_c, 0, 74, 0
1, 72960, Note_on_c, 0, 63, 36
1, 72960, Note_on_c, 0, 51, 36
1, 73152, Note_off_c, 0, 51, 0
1, 73152, Note_off_c, 0, 63, 0
1, 73152, Note_on_c, 0, 67, 36
1, 73152, Note_on_c, 0, 55, 36
1, 73344, Note_off_c, 0, 55, 0
1, 73344, Note_off_c, 0, 67, 0
1, 73344, Note_on_c, 0, 69, 36
1, 73344, Note_on_c, 0, 57, 36
1, 73536, Note_off_c, 0, 57, 0
1, 73536, Note_off_c, 0, 69, 0
1, 73536, Note_on_c, 0, 74, 36
1, 73536, Note_on_c, 0, 62, 36
1, 73728, Note_off_c, 0, 62, 0
1, 73728, Note_off_c, 0, 74, 0
1, 73728, Note_on_c, 0, 62, 36
1, 73728, Note_on_c, 0, 50, 36
1, 73920, Note_off_c, 0, 50, 0
1, 73920, Note_off_c, 0, 62, 0
1, 73920, Note_on_c, 0, 67, 36
1, 73920, Note_on_c, 0, 55, 36
1, 74112, Note_off_c, 0, 55, 0
1, 74112, Note_off_c, 0, 67, 0
1, 74112, Note_on_c, 0, 69, 36
1, 74112, Note_on_c, 0, 57, 36
1, 74304, Note_off_c, 0, 57, 0
1, 74304, Note_off_c, 0, 69, 0
1, 74304, Note_on_c, 0, 74, 36
1, 74304, Note_on_c, 0, 62, 36
1, 74496, Note_off_c, 0, 62, 0
1, 74496, Note_off_c, 0, 74, 0
1, 74496, Note_on_c, 0, 63, 36
1, 74496, Note_on_c, 0, 51, 36
1, 74688, Note_off_c, 0, 51, 0
1, 74688, Note_off_c, 0, 63, 0
1, 74688, Note_on_c, 0, 67, 36
1, 74688, Note_on_c, 0, 55, 36
1, 74880, Note_off_c, 0, 55, 0
1, 74880, Note_off_c, 0, 67, 0
1, 74880, Note_on_c, 0, 69, 36
1, 74880, Note_on_c, 0, 57, 36
1, 75072, Note_off_c, 0, 57, 0
1, 75072, Note_off_c, 0, 69, 0
1, 75072, Note_on_c, 0, 74, 36
1, 75072, Note_on_c, 0, 62, 36
1, 75264, Note_off_c, 0, 62, 0
1, 75264, Note_off_c, 0, 74, 0
1, 75264, Note_on_c, 0, 64, 36
1, 75264, Note_on_c, 0, 52, 36
1, 75456, Note_off_c, 0, 52, 0
1, 75456, Note_off_c, 0, 64, 0
1, 75456, Note_on_c, 0, 67, 36
1, 75456, Note_on_c, 0, 55, 36
1, 75648, Note_off_c, 0, 55, 0
1, 75648, Note_off_c, 0, 67, 0
1, 75648, Note_on_c, 0, 69, 36
1, 75648, Note_on_c, 0, 57, 36
1, 75840, Note_off_c, 0, 57, 0
1, 75840, Note_off_c, 0, 69, 0
1, 75840, Note_on_c, 0, 74, 36
1, 75840, Note_on_c, 0, 62, 36
1, 76032, Note_off_c, 0, 62, 0
1, 76032, Note_off_c, 0, 74, 0
1, 76032, Note_on_c, 0, 63, 36
1, 76032, Note_on_c, 0, 51, 36
1, 76224, Note_off_c, 0, 51, 0
1, 76224, Note_off_c, 0, 63, 0
1, 76224, Note_on_c, 0, 67, 36
1, 76224, Note_on_c, 0, 55, 36
1, 76416, Note_off_c, 0, 55, 0
1, 76416, Note_off_c, 0, 67, 0
1, 76416, Note_on_c, 0, 69, 36
1, 76416, Note_on_c, 0, 57, 36
1, 76608, Note_off_c, 0, 57, 0
1, 76608, Note_off_c, 0, 69, 0
1, 76608, Note_on_c, 0, 74, 36
1, 76608, Note_on_c, 0, 62, 36
1, 76800, Note_off_c, 0, 62, 0
1, 76800, Note_off_c, 0, 74, 0
1, 76800, Note_on_c, 0, 62, 36
1, 76800, Note_on_c, 0, 50, 36
1, 76992, Note_off_c, 0, 50, 0
1, 76992, Note_off_c, 0, 62, 0
1, 76992, Note_on_c, 0, 67, 36
1, 76992, Note_on_c, 0, 55, 36
1, 77184, Note_off_c, 0, 55, 0
1, 77184, Note_off_c, 0, 67, 0
1, 77184, Note_on_c, 0, 69, 36
1, 77184, Note_on_c, 0, 57, 36
1, 77376, Note_off_c, 0, 57, 0
1, 77376, Note_off_c, 0, 69, 0
1, 77376, Note_on_c, 0, 74, 36
1, 77376, Note_on_c, 0, 62, 36
1, 77568, Note_off_c, 0, 62, 0
1, 77568, Note_off_c, 0, 74, 0
1, 77568, Note_on_c, 0, 63, 36
1, 77568, Note_on_c, 0, 51, 36
1, 77760, Note_off_c, 0, 51, 0
1, 77760, Note_off_c, 0, 63, 0
1, 77760, Note_on_c, 0, 67, 36
1, 77760, Note_on_c, 0, 55, 36
1, 77952, Note_off_c, 0, 55, 0
1, 77952, Note_off_c, 0, 67, 0
1, 77952, Note_on_c, 0, 69, 36
1, 77952, Note_on_c, 0, 57, 36
1, 78144, Note_off_c, 0, 57, 0
1, 78144, Note_off_c, 0, 69, 0
1, 78144, Note_on_c, 0, 74, 36
1, 78144, Note_on_c, 0, 62, 36
1, 78336, Note_off_c, 0, 62, 0
1, 78336, Note_off_c, 0, 74, 0
1, 78336, Note_on_c, 0, 64, 36
1, 78336, Note_on_c, 0, 52, 36
1, 78528, Note_off_c, 0, 52, 0
1, 78528, Note_off_c, 0, 64, 0
1, 78528, Note_on_c, 0, 67, 36
1, 78528, Note_on_c, 0, 55, 36
1, 78720, Note_off_c, 0, 55, 0
1, 78720, Note_off_c, 0, 67, 0
1, 78720, Note_on_c, 0, 69, 36
1, 78720, Note_on_c, 0, 57, 36
1, 78912, Note_off_c, 0, 57, 0
1, 78912, Note_off_c, 0, 69, 0
1, 78912, Note_on_c, 0, 74, 36
1, 78912, Note_on_c, 0, 62, 36
1, 79104, Note_off_c, 0, 62, 0
1, 79104, Note_off_c, 0, 74, 0
1, 79104, Note_on_c, 0, 63, 36
1, 79104, Note_on_c, 0, 51, 36
1, 79296, Note_off_c, 0, 51, 0
1, 79296, Note_off_c, 0, 63, 0
1, 79296, Note_on_c, 0, 67, 36
1, 79296, Note_on_c, 0, 55, 36
1, 79488, Note_off_c, 0, 55, 0
1, 79488, Note_off_c, 0, 67, 0
1, 79488, Note_on_c, 0, 69, 36
1, 79488, Note_on_c, 0, 57, 36
1, 79680, Note_off_c, 0, 57, 0
1, 79680, Note_off_c, 0, 69, 0
1, 79680, Note_on_c, 0, 74, 36
1, 79680, Note_on_c, 0, 62, 36
1, 79872, Note_off_c, 0, 62, 0
1, 79872, Note_off_c, 0, 74, 0
1, 79872, Note_on_c, 0, 62, 36
1, 79872, Note_on_c, 0, 50, 36
1, 80064, Note_off_c, 0, 50, 0
1, 80064, Note_off_c, 0, 62, 0
1, 80064, Note_on_c, 0, 67, 36
1, 80064, Note_on_c, 0, 55, 36
1, 80256, Note_off_c, 0, 55, 0
1, 80256, Note_off_c, 0, 67, 0
1, 80256, Note_on_c, 0, 69, 36
1, 80256, Note_on_c, 0, 57, 36
1, 80448, Note_off_c, 0, 57, 0
1, 80448, Note_off_c, 0, 69, 0
1, 80448, Note_on_c, 0, 74, 36
1, 80448, Note_on_c, 0, 62, 36
1, 80640, Note_off_c, 0, 62, 0
1, 80640, Note_off_c, 0, 74, 0
1, 80640, Note_on_c, 0, 63, 36
1, 80640, Note_on_c, 0, 51, 36
1, 80832, Note_off_c, 0, 51, 0
1, 80832, Note_off_c, 0, 63, 0
1, 80832, Note_on_c, 0, 67, 36
1, 80832, Note_on_c, 0, 55, 36
1, 81024, Note_off_c, 0, 55, 0
1, 81024, Note_off_c, 0, 67, 0
1, 81024, Note_on_c, 0, 69, 36
1, 81024, Note_on_c, 0, 57, 36
1, 81216, Note_off_c, 0, 57, 0
1, 81216, Note_off_c, 0, 69, 0
1, 81216, Note_on_c, 0, 74, 36
1, 81216, Note_on_c, 0, 62, 36
1, 81408, Note_off_c, 0, 62, 0
1, 81408, Note_off_c, 0, 74, 0
1, 81408, Note_on_c, 0, 64, 36
1, 81408, Note_on_c, 0, 52, 36
1, 81600, Note_off_c, 0, 52, 0
1, 81600, Note_off_c, 0, 64, 0
1, 81600, Note_on_c, 0, 67, 36
1, 81600, Note_on_c, 0, 55, 36
1, 81792, Note_off_c, 0, 55, 0
1, 81792, Note_off_c, 0, 67, 0
1, 81792, Note_on_c, 0, 69, 36
1, 81792, Note_on_c, 0, 57, 36
1, 81984, Note_off_c, 0, 57, 0
1, 81984, Note_off_c, 0, 69, 0
1, 81984, Note_on_c, 0, 74, 36
1, 81984, Note_on_c, 0, 62, 36
1, 82176, Note_off_c, 0, 62, 0
1, 82176, Note_off_c, 0, 74, 0
1, 82176, Note_on_c, 0, 63, 36
1, 82176, Note_on_c, 0, 51, 36
1, 82368, Note_off_c, 0, 51, 0
1, 82368, Note_off_c, 0, 63, 0
1, 82368, Note_on_c, 0, 67, 36
1, 82368, Note_on_c, 0, 55, 36
1, 82560, Note_off_c, 0, 55, 0
1, 82560, Note_off_c, 0, 67, 0
1, 82560, Note_on_c, 0, 69, 36
1, 82560, Note_on_c, 0, 57, 36
1, 82752, Note_off_c, 0, 57, 0
1, 82752, Note_off_c, 0, 69, 0
1, 82752, Note_on_c, 0, 74, 36
1, 82752, Note_on_c, 0, 62, 36
1, 82944, Note_off_c, 0, 62, 0
1, 82944, Note_off_c, 0, 74, 0
1, 82944, Note_on_c, 0, 62, 36
1, 82944, Note_on_c, 0, 50, 36
1, 83136, Note_off_c, 0, 50, 0
1, 83136, Note_off_c, 0, 62, 0
1, 83136, Note_on_c, 0, 67, 36
1, 83136, Note_on_c, 0, 55, 36
1, 83328, Note_off_c, 0, 55, 0
1, 83328, Note_off_c, 0, 67, 0
1, 83328, Note_on_c, 0, 69, 36
1, 83328, Note_on_c, 0, 57, 36
1, 83520, Note_off_c, 0, 57, 0
1, 83520, Note_off_c, 0, 69, 0
1, 83520, Note_on_c, 0, 74, 36
1, 83520, Note_on_c, 0, 62, 36
1, 83712, Note_off_c, 0, 62, 0
1, 83712, Note_off_c, 0, 74, 0
1, 83712, Note_on_c, 0, 63, 36
1, 83712, Note_on_c, 0, 51, 36
1, 83904, Note_off_c, 0, 51, 0
1, 83904, Note_off_c, 0, 63, 0
1, 83904, Note_on_c, 0, 67, 36
1, 83904, Note_on_c, 0, 55, 36
1, 84096, Note_off_c, 0, 55, 0
1, 84096, Note_off_c, 0, 67, 0
1, 84096, Note_on_c, 0, 69, 36
1, 84096, Note_on_c, 0, 57, 36
1, 84288, Note_off_c, 0, 57, 0
1, 84288, Note_off_c, 0, 69, 0
1, 84288, Note_on_c, 0, 74, 36
1, 84288, Note_on_c, 0, 62, 36
1, 84480, Note_off_c, 0, 62, 0
1, 84480, Note_off_c, 0, 74, 0
1, 84480, Note_on_c, 0, 64, 36
1, 84480, Note_on_c, 0, 52, 36
1, 84672, Note_off_c, 0, 52, 0
1, 84672, Note_off_c, 0, 64, 0
1, 84672, Note_on_c, 0, 67, 36
1, 84672, Note_on_c, 0, 55, 36
1, 84864, Note_off_c, 0, 55, 0
1, 84864, Note_off_c, 0, 67, 0
1, 84864, Note_on_c, 0, 69, 36
1, 84864, Note_on_c, 0, 57, 36
1, 85056, Note_off_c, 0, 57, 0
1, 85056, Note_off_c, 0, 69, 0
1, 85056, Note_on_c, 0, 74, 36
1, 85056, Note_on_c, 0, 62, 36
1, 85248, Note_off_c, 0, 62, 0
1, 85248, Note_off_c, 0, 74, 0
1, 85248, Note_on_c, 0, 63, 36
1, 85248, Note_on_c, 0, 51, 36
1, 85440, Note_off_c, 0, 51, 0
1, 85440, Note_off_c, 0, 63, 0
1, 85440, Note_on_c, 0, 67, 36
1, 85440, Note_on_c, 0, 55, 36
1, 85632, Note_off_c, 0, 55, 0
1, 85632, Note_off_c, 0, 67, 0
1, 85632, Note_on_c, 0, 69, 36
1, 85632, Note_on_c, 0, 57, 36
1, 85824, Note_off_c, 0, 57, 0
1, 85824, Note_off_c, 0, 69, 0
1, 85824, Note_on_c, 0, 74, 36
1, 85824, Note_on_c, 0, 62, 36
1, 86016, Note_off_c, 0, 62, 0
1, 86016, Note_off_c, 0, 74, 0
1, 86016, Note_on_c, 0, 62, 36
1, 86016, Note_on_c, 0, 50, 36
1, 86208, Note_off_c, 0, 50, 0
1, 86208, Note_off_c, 0, 62, 0
1, 86208, Note_on_c, 0, 67, 36
1, 86208, Note_on_c, 0, 55, 36
1, 86400, Note_off_c, 0, 55, 0
1, 86400, Note_off_c, 0, 67, 0
1, 86400, Note_on_c, 0, 69, 36
1, 86400, Note_on_c, 0, 57, 36
1, 86592, Note_off_c, 0, 57, 0
1, 86592, Note_off_c, 0, 69, 0
1, 86592, Note_on_c, 0, 74, 36
1, 86592, Note_on_c, 0, 62, 36
1, 86784, Note_off_c, 0, 62, 0
1, 86784, Note_off_c, 0, 74, 0
1, 86784, Note_on_c, 0, 63, 36
1, 86784, Note_on_c, 0, 51, 36
1, 86976, Note_off_c, 0, 51, 0
1, 86976, Note_off_c, 0, 63, 0
1, 86976, Note_on_c, 0, 67, 36
1, 86976, Note_on_c, 0, 55, 36
1, 87168, Note_off_c, 0, 55, 0
1, 87168, Note_off_c, 0, 67, 0
1, 87168, Note_on_c, 0, 69, 36
1, 87168, Note_on_c, 0, 57, 36
1, 87360, Note_off_c, 0, 57, 0
1, 87360, Note_off_c, 0, 69, 0
1, 87360, Note_on_c, 0, 74, 36
1, 87360, Note_on_c, 0, 62, 36
1, 87552, Note_off_c, 0, 62, 0
1, 87552, Note_off_c, 0, 74, 0
1, 87552, Note_on_c, 0, 64, 36
1, 87552, Note_on_c, 0, 52, 36
1, 87744, Note_off_c, 0, 52, 0
1, 87744, Note_off_c, 0, 64, 0
1, 87744, Note_on_c, 0, 67, 36
1, 87744, Note_on_c, 0, 55, 36
1, 87936, Note_off_c, 0, 55, 0
1, 87936, Note_off_c, 0, 67, 0
1, 87936, Note_on_c, 0, 69, 36
1, 87936, Note_on_c, 0, 57, 36
1, 88128, Note_off_c, 0, 57, 0
1, 88128, Note_off_c, 0, 69, 0
1, 88128, Note_on_c, 0, 74, 36
1, 88128, Note_on_c, 0, 62, 36
1, 88320, Note_off_c, 0, 62, 0
1, 88320, Note_off_c, 0, 74, 0
1, 88320, Note_on_c, 0, 63, 36
1, 88320, Note_on_c, 0, 51, 36
1, 88512, Note_off_c, 0, 51, 0
1, 88512, Note_off_c, 0, 63, 0
1, 88512, Note_on_c, 0, 67, 36
1, 88512, Note_on_c, 0, 55, 36
1, 88704, Note_off_c, 0, 55, 0
1, 88704, Note_off_c, 0, 67, 0
1, 88704, Note_on_c, 0, 69, 36
1, 88704, Note_on_c, 0, 57, 36
1, 88896, Note_off_c, 0, 57, 0
1, 88896, Note_off_c, 0, 69, 0
1, 88896, Note_on_c, 0, 74, 36
1, 88896, Note_on_c, 0, 62, 36
1, 89088, Note_off_c, 0, 62, 0
1, 89088, Note_off_c, 0, 74, 0
1, 89088, Note_on_c, 0, 62, 36
1, 89088, Note_on_c, 0, 50, 36
1, 89280, Note_off_c, 0, 50, 0
1, 89280, Note_off_c, 0, 62, 0
1, 89280, Note_on_c, 0, 67, 36
1, 89280, Note_on_c, 0, 55, 36
1, 89472, Note_off_c, 0, 55, 0
1, 89472, Note_off_c, 0, 67, 0
1, 89472, Note_on_c, 0, 69, 36
1, 89472, Note_on_c, 0, 57, 36
1, 89664, Note_off_c, 0, 57, 0
1, 89664, Note_off_c, 0, 69, 0
1, 89664, Note_on_c, 0, 74, 36
1, 89664, Note_on_c, 0, 62, 36
1, 89856, Note_off_c, 0, 62, 0
1, 89856, Note_off_c, 0, 74, 0
1, 89856, Note_on_c, 0, 63, 36
1, 89856, Note_on_c, 0, 51, 36
1, 90048, Note_off_c, 0, 51, 0
1, 90048, Note_off_c, 0, 63, 0
1, 90048, Note_on_c, 0, 67, 36
1, 90048, Note_on_c, 0, 55, 36
1, 90240, Note_off_c, 0, 55, 0
1, 90240, Note_off_c, 0, 67, 0
1, 90240, Note_on_c, 0, 69, 36
1, 90240, Note_on_c, 0, 57, 36
1, 90432, Note_off_c, 0, 57, 0
1, 90432, Note_off_c, 0, 69, 0
1, 90432, Note_on_c, 0, 74, 36
1, 90432, Note_on_c, 0, 62, 36
1, 90624, Note_off_c, 0, 62, 0
1, 90624, Note_off_c, 0, 74, 0
1, 90624, Note_on_c, 0, 64, 36
1, 90624, Note_on_c, 0, 52, 36
1, 90816, Note_off_c, 0, 52, 0
1, 90816, Note_off_c, 0, 64, 0
1, 90816, Note_on_c, 0, 67, 36
1, 90816, Note_on_c, 0, 55, 36
1, 91008, Note_off_c, 0, 55, 0
1, 91008, Note_off_c, 0, 67, 0
1, 91008, Note_on_c, 0, 69, 36
1, 91008, Note_on_c, 0, 57, 36
1, 91200, Note_off_c, 0, 57, 0
1, 91200, Note_off_c, 0, 69, 0
1, 91200, Note_on_c, 0, 74, 36
1, 91200, Note_on_c, 0, 62, 36
1, 91392, Note_off_c, 0, 50, 0
1, 91392, Note_off_c, 0, 62, 0
1, 91392, Note_off_c, 0, 74, 0
1, 91392, Note_on_c, 0, 63, 36
1, 91392, Note_on_c, 0, 50, 36
1, 91392, Note_on_c, 0, 51, 36
1, 91440, Note_off_c, 0, 48, 0
1, 91440, Note_on_c, 0, 48, 36
1, 91584, Note_off_c, 0, 51, 0
1, 91584, Note_off_c, 0, 63, 0
1, 91584, Note_on_c, 0, 67, 36
1, 91584, Note_on_c, 0, 55, 36
1, 91776, Note_off_c, 0, 55, 0
1, 91776, Note_off_c, 0, 67, 0
1, 91776, Note_on_c, 0, 69, 36
1, 91776, Note_on_c, 0, 57, 36
1, 91968, Note_off_c, 0, 57, 0
1, 91968, Note_off_c, 0, 69, 0
1, 91968, Note_on_c, 0, 74, 36
1, 91968, Note_on_c, 0, 62, 36
1, 92160, Note_off_c, 0, 62, 0
1, 92160, Note_off_c, 0, 74, 0
1, 92160, Note_on_c, 0, 62, 36
1, 92160, Note_on_c, 0, 50, 36
1, 92352, Note_off_c, 0, 50, 0
1, 92352, Note_off_c, 0, 62, 0
1, 92352, Note_on_c, 0, 67, 36
1, 92352, Note_on_c, 0, 55, 36
1, 92544, Note_off_c, 0, 55, 0
1, 92544, Note_off_c, 0, 67, 0
1, 92544, Note_on_c, 0, 69, 36
1, 92544, Note_on_c, 0, 57, 36
1, 92736, Note_off_c, 0, 57, 0
1, 92736, Note_off_c, 0, 69, 0
1, 92736, Note_on_c, 0, 74, 36
1, 92736, Note_on_c, 0, 62, 36
1, 92928, Note_off_c, 0, 62, 0
1, 92928, Note_off_c, 0, 74, 0
1, 92928, Note_on_c, 0, 63, 36
1, 92928, Note_on_c, 0, 51, 36
1, 93120, Note_off_c, 0, 51, 0
1, 93120, Note_off_c, 0, 63, 0
1, 93120, Note_on_c, 0, 67, 36
1, 93120, Note_on_c, 0, 55, 36
1, 93312, Note_off_c, 0, 55, 0
1, 93312, Note_off_c, 0, 67, 0
1, 93312, Note_on_c, 0, 69, 36
1, 93312, Note_on_c, 0, 57, 36
1, 93504, Note_off_c, 0, 57, 0
1, 93504, Note_off_c, 0, 69, 0
1, 93504, Note_on_c, 0, 74, 36
1, 93504, Note_on_c, 0, 62, 36
1, 93696, Note_off_c, 0, 62, 0
1, 93696, Note_off_c, 0, 74, 0
1, 93696, Note_on_c, 0, 64, 36
1, 93696, Note_on_c, 0, 52, 36
1, 93888, Note_off_c, 0, 52, 0
1, 93888, Note_off_c, 0, 64, 0
1, 93888, Note_on_c, 0, 67, 36
1, 93888, Note_on_c, 0, 55, 36
1, 94080, Note_off_c, 0, 55, 0
1, 94080, Note_off_c, 0, 67, 0
1, 94080, Note_on_c, 0, 69, 36
1, 94080, Note_on_c, 0, 57, 36
1, 94272, Note_off_c, 0, 57, 0
1, 94272, Note_off_c, 0, 69, 0
1, 94272, Note_on_c, 0, 74, 36
1, 94272, Note_on_c, 0, 62, 36
1, 94464, Note_off_c, 0, 62, 0
1, 94464, Note_off_c, 0, 74, 0
1, 94464, Note_on_c, 0, 63, 36
1, 94464, Note_on_c, 0, 51, 36
1, 94656, Note_off_c, 0, 51, 0
1, 94656, Note_off_c, 0, 63, 0
1, 94656, Note_on_c, 0, 67, 36
1, 94656, Note_on_c, 0, 55, 36
1, 94848, Note_off_c, 0, 55, 0
1, 94848, Note_off_c, 0, 67, 0
1, 94848, Note_on_c, 0, 69, 36
1, 94848, Note_on_c, 0, 57, 36
1, 95040, Note_off_c, 0, 57, 0
1, 95040, Note_off_c, 0, 69, 0
1, 95040, Note_on_c, 0, 74, 36
1, 95040, Note_on_c, 0, 62, 36
1, 95232, Note_off_c, 0, 62, 0
1, 95232, Note_off_c, 0, 74, 0
1, 95232, Note_on_c, 0, 62, 36
1, 95232, Note_on_c, 0, 50, 36
1, 95424, Note_off_c, 0, 50, 0
1, 95424, Note_off_c, 0, 62, 0
1, 95424, Note_on_c, 0, 67, 36
1, 95424, Note_on_c, 0, 55, 36
1, 95616, Note_off_c, 0, 55, 0
1, 95616, Note_off_c, 0, 67, 0
1, 95616, Note_on_c, 0, 69, 36
1, 95616, Note_on_c, 0, 57, 36
1, 95808, Note_off_c, 0, 57, 0
1, 95808, Note_off_c, 0, 69, 0
1, 95808, Note_on_c, 0, 74, 36
1, 95808, Note_on_c, 0, 62, 36
1, 96000, Note_off_c, 0, 62, 0
1, 96000, Note_off_c, 0, 74, 0
1, 96000, Note_on_c, 0, 63, 36
1, 96000, Note_on_c, 0, 51, 36
1, 96192, Note_off_c, 0, 51, 0
1, 96192, Note_off_c, 0, 63, 0
1, 96192, Note_on_c, 0, 67, 36
1, 96192, Note_on_c, 0, 55, 36
1, 96384, Note_off_c, 0, 55, 0
1, 96384, Note_off_c, 0, 67, 0
1, 96384, Note_on_c, 0, 69, 36
1, 96384, Note_on_c, 0, 57, 36
1, 96576, Note_off_c, 0, 57, 0
1, 96576, Note_off_c, 0, 69, 0
1, 96576, Note_on_c, 0, 74, 36
1, 96576, Note_on_c, 0, 62, 36
1, 96768, Note_off_c, 0, 62, 0
1, 96768, Note_off_c, 0, 74, 0
1, 96768, Note_on_c, 0, 64, 36
1, 96768, Note_on_c, 0, 52, 36
1, 96960, Note_off_c, 0, 52, 0
1, 96960, Note_off_c, 0, 64, 0
1, 96960, Note_on_c, 0, 67, 36
1, 96960, Note_on_c, 0, 55, 36
1, 97152, Note_off_c, 0, 55, 0
1, 97152, Note_off_c, 0, 67, 0
1, 97152, Note_on_c, 0, 69, 36
1, 97152, Note_on_c, 0, 57, 36
1, 97344, Note_off_c, 0, 57, 0
1, 97344, Note_off_c, 0, 69, 0
1, 97344, Note_on_c, 0, 74, 36
1, 97344, Note_on_c, 0, 62, 36
1, 97536, Note_off_c, 0, 62, 0
1, 97536, Note_off_c, 0, 74, 0
1, 97536, Note_on_c, 0, 63, 36
1, 97536, Note_on_c, 0, 51, 36
1, 97728, Note_off_c, 0, 51, 0
1, 97728, Note_off_c, 0, 63, 0
1, 97728, Note_on_c, 0, 67, 36
1, 97728, Note_on_c, 0, 55, 36
1, 97920, Note_off_c, 0, 55, 0
1, 97920, Note_off_c, 0, 67, 0
1, 97920, Note_on_c, 0, 69, 36
1, 97920, Note_on_c, 0, 57, 36
1, 98112, Note_off_c, 0, 57, 0
1, 98112, Note_off_c, 0, 69, 0
1, 98112, Note_on_c, 0, 74, 36
1, 98112, Note_on_c, 0, 62, 36
1, 98304, Note_off_c, 0, 62, 0
1, 98304, Note_off_c, 0, 74, 0
1, 98304, Note_on_c, 0, 62, 36
1, 98304, Note_on_c, 0, 50, 36
1, 98496, Note_off_c, 0, 50, 0
1, 98496, Note_off_c, 0, 62, 0
1, 98496, Note_on_c, 0, 67, 36
1, 98496, Note_on_c, 0, 55, 36
1, 98688, Note_off_c, 0, 55, 0
1, 98688, Note_off_c, 0, 67, 0
1, 98688, Note_on_c, 0, 69, 36
1, 98688, Note_on_c, 0, 57, 36
1, 98880, Note_off_c, 0, 57, 0
1, 98880, Note_off_c, 0, 69, 0
1, 98880, Note_on_c, 0, 74, 36
1, 98880, Note_on_c, 0, 62, 36
1, 99072, Note_off_c, 0, 62, 0
1, 99072, Note_off_c, 0, 74, 0
1, 99072, Note_on_c, 0, 63, 36
1, 99072, Note_on_c, 0, 51, 36
1, 99264, Note_off_c, 0, 51, 0
1, 99264, Note_off_c, 0, 63, 0
1, 99264, Note_on_c, 0, 67, 36
1, 99264, Note_on_c, 0, 55, 36
1, 99456, Note_off_c, 0, 55, 0
1, 99456, Note_off_c, 0, 67, 0
1, 99456, Note_on_c, 0, 69, 36
1, 99456, Note_on_c, 0, 50, 36
1, 99456, Note_on_c, 0, 57, 36
1, 99552, Note_off_c, 0, 50, 0
1, 99552, Note_on_c, 0, 50, 36
1, 99648, Note_off_c, 0, 50, 0
1, 99648, Note_off_c, 0, 57, 0
1, 99648, Note_off_c, 0, 69, 0
1, 99648, Note_on_c, 0, 74, 36
1, 99648, Note_on_c, 0, 50, 36
1, 99648, Note_on_c, 0, 62, 36
1, 99744, Note_off_c, 0, 50, 0
1, 99744, Note_on_c, 0, 50, 36
1, 99840, Note_off_c, 0, 50, 0
1, 99840, Note_off_c, 0, 62, 0
1, 99840, Note_off_c, 0, 74, 0
1, 99840, Note_on_c, 0, 64, 36
1, 99840, Note_on_c, 0, 52, 36
1, 100032, Note_off_c, 0, 52, 0
1, 100032, Note_off_c, 0, 64, 0
1, 100032, Note_on_c, 0, 67, 36
1, 100032, Note_on_c, 0, 55, 36
1, 100224, Note_off_c, 0, 55, 0
1, 100224, Note_off_c, 0, 67, 0
1, 100224, Note_on_c, 0, 69, 36
1, 100224, Note_on_c, 0, 57, 36
1, 100416, Note_off_c, 0, 57, 0
1, 100416, Note_off_c, 0, 69, 0
1, 100416, Note_on_c, 0, 74, 36
1, 100416, Note_on_c, 0, 62, 36
1, 100608, Note_off_c, 0, 62, 0
1, 100608, Note_off_c, 0, 74, 0
1, 100608, Note_on_c, 0, 63, 36
1, 100608, Note_on_c, 0, 51, 36
1, 100800, Note_off_c, 0, 51, 0
1, 100800, Note_off_c, 0, 63, 0
1, 100800, Note_on_c, 0, 67, 36
1, 100800, Note_on_c, 0, 55, 36
1, 100992, Note_off_c, 0, 55, 0
1, 100992, Note_off_c, 0, 67, 0
1, 100992, Note_on_c, 0, 69, 36
1, 100992, Note_on_c, 0, 50, 36
1, 100992, Note_on_c, 0, 57, 36
1, 101088, Note_off_c, 0, 50, 0
1, 101088, Note_on_c, 0, 50, 36
1, 101184, Note_off_c, 0, 50, 0
1, 101184, Note_off_c, 0, 57, 0
1, 101184, Note_off_c, 0, 69, 0
1, 101184, Note_on_c, 0, 74, 36
1, 101184, Note_on_c, 0, 50, 36
1, 101184, Note_on_c, 0, 62, 36
1, 101280, Note_off_c, 0, 50, 0
1, 101280, Note_on_c, 0, 50, 36
1, 101376, Note_off_c, 0, 50, 0
1, 101376, Note_off_c, 0, 62, 0
1, 101376, Note_off_c, 0, 74, 0
1, 101376, Note_on_c, 0, 62, 36
1, 101376, Note_on_c, 0, 50, 36
1, 101568, Note_off_c, 0, 50, 0
1, 101568, Note_off_c, 0, 62, 0
1, 101568, Note_on_c, 0, 67, 36
1, 101568, Note_on_c, 0, 55, 36
1, 101760, Note_off_c, 0, 55, 0
1, 101760, Note_off_c, 0, 67, 0
1, 101760, Note_on_c, 0, 69, 36
1, 101760, Note_on_c, 0, 50, 36
1, 101760, Note_on_c, 0, 57, 36
1, 101856, Note_off_c, 0, 50, 0
1, 101856, Note_on_c, 0, 50, 36
1, 101952, Note_off_c, 0, 50, 0
1, 101952, Note_off_c, 0, 57, 0
1, 101952, Note_off_c, 0, 69, 0
1, 101952, Note_on_c, 0, 74, 36
1, 101952, Note_on_c, 0, 50, 36
1, 101952, Note_on_c, 0, 62, 36
1, 102048, Note_off_c, 0, 50, 0
1, 102048, Note_on_c, 0, 50, 36
1, 102144, Note_off_c, 0, 50, 0
1, 102144, Note_off_c, 0, 62, 0
1, 102144, Note_off_c, 0, 74, 0
1, 102144, Note_on_c, 0, 63, 36
1, 102144, Note_on_c, 0, 51, 36
1, 102336, Note_off_c, 0, 51, 0
1, 102336, Note_off_c, 0, 63, 0
1, 102336, Note_on_c, 0, 67, 36
1, 102336, Note_on_c, 0, 55, 36
1, 102528, Note_off_c, 0, 55, 0
1, 102528, Note_off_c, 0, 67, 0
1, 102528, Note_on_c, 0, 69, 36
1, 102528, Note_on_c, 0, 50, 36
1, 102528, Note_on_c, 0, 57, 36
1, 102624, Note_off_c, 0, 50, 0
1, 102624, Note_on_c, 0, 50, 36
1, 102720, Note_off_c, 0, 50, 0
1, 102720, Note_off_c, 0, 57, 0
1, 102720, Note_off_c, 0, 69, 0
1, 102720, Note_on_c, 0, 74, 36
1, 102720, Note_on_c, 0, 50, 36
1, 102720, Note_on_c, 0, 62, 36
1, 102816, Note_off_c, 0, 50, 0
1, 102816, Note_on_c, 0, 50, 36
1, 102912, Note_off_c, 0, 50, 0
1, 102912, Note_off_c, 0, 62, 0
1, 102912, Note_off_c, 0, 74, 0
1, 102912, Note_on_c, 0, 64, 36
1, 102912, Note_on_c, 0, 50, 36
1, 102912, Note_on_c, 0, 52, 36
1, 103008, Note_off_c, 0, 50, 0
1, 103008, Note_on_c, 0, 50, 36
1, 103104, Note_off_c, 0, 50, 0
1, 103104, Note_off_c, 0, 52, 0
1, 103104, Note_off_c, 0, 64, 0
1, 103104, Note_on_c, 0, 67, 36
1, 103104, Note_on_c, 0, 50, 36
1, 103104, Note_on_c, 0, 55, 36
1, 103200, Note_off_c, 0, 50, 0
1, 103200, Note_on_c, 0, 50, 36
1, 103296, Note_off_c, 0, 50, 0
1, 103296, Note_off_c, 0, 55, 0
1, 103296, Note_off_c, 0, 67, 0
1, 103296, Note_on_c, 0, 69, 36
1, 103296, Note_on_c, 0, 50, 36
1, 103296, Note_on_c, 0, 57, 36
1, 103392, Note_off_c, 0, 50, 0
1, 103392, Note_on_c, 0, 50, 36
1, 103488, Note_off_c, 0, 50, 0
1, 103488, Note_off_c, 0, 57, 0
1, 103488, Note_off_c, 0, 69, 0
1, 103488, Note_on_c, 0, 74, 36
1, 103488, Note_on_c, 0, 50, 36
1, 103488, Note_on_c, 0, 62, 36
1, 103584, Note_off_c, 0, 50, 0
1, 103584, Note_on_c, 0, 50, 36
1, 103680, Note_off_c, 0, 50, 0
1, 103680, Note_off_c, 0, 62, 0
1, 103680, Note_off_c, 0, 74, 0
1, 103680, Note_on_c, 0, 63, 36
1, 103680, Note_on_c, 0, 50, 36
1, 103680, Note_on_c, 0, 51, 36
1, 103776, Note_off_c, 0, 50, 0
1, 103776, Note_on_c, 0, 50, 36
1, 103872, Note_off_c, 0, 50, 0
1, 103872, Note_off_c, 0, 51, 0
1, 103872, Note_off_c, 0, 63, 0
1, 103872, Note_on_c, 0, 67, 36
1, 103872, Note_on_c, 0, 50, 36
1, 103872, Note_on_c, 0, 55, 36
1, 103968, Note_off_c, 0, 50, 0
1, 103968, Note_on_c, 0, 50, 36
1, 104064, Note_off_c, 0, 50, 0
1, 104064, Note_off_c, 0, 55, 0
1, 104064, Note_off_c, 0, 67, 0
1, 104064, Note_on_c, 0, 69, 36
1, 104064, Note_on_c, 0, 50, 36
1, 104064, Note_on_c, 0, 57, 36
1, 104160, Note_off_c, 0, 50, 0
1, 104160, Note_on_c, 0, 50, 36
1, 104256, Note_off_c, 0, 50, 0
1, 104256, Note_off_c, 0, 57, 0
1, 104256, Note_off_c, 0, 69, 0
1, 104256, Note_on_c, 0, 74, 36
1, 104256, Note_on_c, 0, 50, 36
1, 104256, Note_on_c, 0, 62, 36
1, 104352, Note_off_c, 0, 50, 0
1, 104352, Note_on_c, 0, 50, 36
1, 104448, Note_off_c, 0, 50, 0
1, 104448, Note_off_c, 0, 62, 0
1, 104448, Note_off_c, 0, 74, 0
1, 104448, Note_on_c, 0, 62, 38
1, 104448, Note_on_c, 0, 50, 38
1, 104832, Note_off_c, 0, 50, 0
1, 104832, Note_off_c, 0, 62, 0
1, 104832, Note_on_c, 0, 69, 38
1, 104832, Note_on_c, 0, 57, 38
1, 105216, Note_off_c, 0, 57, 0
1, 105216, Note_off_c, 0, 69, 0
1, 105216, Note_on_c, 0, 68, 38
1, 105216, Note_on_c, 0, 56, 38
1, 105600, Note_off_c, 0, 56, 0
1, 105600, Note_off_c, 0, 68, 0
1, 105600, Note_on_c, 0, 64, 38
1, 105600, Note_on_c, 0, 52, 38
1, 105984, Note_off_c, 0, 52, 0
1, 105984, Note_off_c, 0, 64, 0
1, 105984, Note_on_c, 0, 67, 38
1, 105984, Note_on_c, 0, 55, 38
1, 106368, Note_off_c, 0, 55, 0
1, 106368, Note_off_c, 0, 67, 0
1, 106368, Note_on_c, 0, 65, 38
1, 106368, Note_on_c, 0, 53, 38
1, 106752, Note_off_c, 0, 53, 0
1, 106752, Note_off_c, 0, 65, 0
1, 106752, Note_on_c, 0, 64, 38
1, 106752, Note_on_c, 0, 52, 38
1, 107136, Note_off_c, 0, 52, 0
1, 107136, Note_off_c, 0, 64, 0
1, 107520, Note_on_c, 0, 62, 38
1, 107520, Note_on_c, 0, 50, 38
1, 107904, Note_off_c, 0, 50, 0
1, 107904, Note_off_c, 0, 62, 0
1, 107904, Note_on_c, 0, 69, 38
1, 107904, Note_on_c, 0, 57, 38
1, 108288, Note_off_c, 0, 57, 0
1, 108288, Note_off_c, 0, 69, 0
1, 108288, Note_on_c, 0, 64, 38
1, 108288, Note_on_c, 0, 52, 38
1, 108672, Note_off_c, 0, 52, 0
1, 108672, Note_off_c, 0, 64, 0
1, 108672, Note_on_c, 0, 72, 38
1, 108672, Note_on_c, 0, 60, 38
1, 109056, Note_off_c, 0, 60, 0
1, 109056, Note_off_c, 0, 72, 0
1, 109056, Note_on_c, 0, 71, 38
1, 109056, Note_on_c, 0, 59, 38
1, 109440, Note_off_c, 0, 59, 0
1, 109440, Note_off_c, 0, 71, 0
1, 109440, Note_on_c, 0, 68, 38
1, 109440, Note_on_c, 0, 56, 38
1, 109824, Note_off_c, 0, 56, 0
1, 109824, Note_off_c, 0, 68, 0
1, 109824, Note_on_c, 0, 69, 38
1, 109824, Note_on_c, 0, 57, 38
1, 110208, Note_off_c, 0, 57, 0
1, 110208, Note_off_c, 0, 69, 0
1, 110592, Note_on_c, 0, 62, 38
1, 110592, Note_on_c, 0, 50, 38
1, 110976, Note_off_c, 0, 50, 0
1, 110976, Note_off_c, 0, 62, 0
1, 110976, Note_on_c, 0, 69, 38
1, 110976, Note_on_c, 0, 57, 38
1, 111360, Note_off_c, 0, 57, 0
1, 111360, Note_off_c, 0, 69, 0
1, 111360, Note_on_c, 0, 68, 38
1, 111360, Note_on_c, 0, 56, 38
1, 111744, Note_off_c, 0, 56, 0
1, 111744, Note_off_c, 0, 68, 0
1, 111744, Note_on_c, 0, 64, 38
1, 111744, Note_on_c, 0, 52, 38
1, 112128, Note_off_c, 0, 52, 0
1, 112128, Note_off_c, 0, 64, 0
1, 112128, Note_on_c, 0, 67, 38
1, 112128, Note_on_c, 0, 55, 38
1, 112512, Note_off_c, 0, 55, 0
1, 112512, Note_off_c, 0, 67, 0
1, 112512, Note_on_c, 0, 65, 38
1, 112512, Note_on_c, 0, 53, 38
1, 112896, Note_off_c, 0, 53, 0
1, 112896, Note_off_c, 0, 65, 0
1, 112896, Note_on_c, 0, 64, 38
1, 112896, Note_on_c, 0, 52, 38
1, 113280, Note_off_c, 0, 52, 0
1, 113280, Note_off_c, 0, 64, 0
1, 113280, Note_on_c, 0, 61, 38
1, 113280, Note_on_c, 0, 49, 38
1, 113472, Note_off_c, 0, 49, 0
1, 113472, Note_off_c, 0, 61, 0
1, 113472, Note_on_c, 0, 61, 38
1, 113472, Note_on_c, 0, 49, 38
1, 113664, Note_off_c, 0, 49, 0
1, 113664, Note_off_c, 0, 61, 0
1, 113664, Note_on_c, 0, 62, 38
1, 113664, Note_on_c, 0, 50, 38
1, 114048, Note_off_c, 0, 50, 0
1, 114048, Note_off_c, 0, 62, 0
1, 114048, Note_on_c, 0, 69, 38
1, 114048, Note_on_c, 0, 57, 38
1, 114432, Note_off_c, 0, 57, 0
1, 114432, Note_off_c, 0, 69, 0
1, 114432, Note_on_c, 0, 64, 38
1, 114432, Note_on_c, 0, 52, 38
1, 114816, Note_off_c, 0, 52, 0
1, 114816, Note_off_c, 0, 64, 0
1, 114816, Note_on_c, 0, 72, 38
1, 114816, Note_on_c, 0, 60, 38
1, 115200, Note_off_c, 0, 60, 0
1, 115200, Note_off_c, 0, 72, 0
1, 115200, Note_on_c, 0, 71, 38
1, 115200, Note_on_c, 0, 59, 38
1, 115584, Note_off_c, 0, 59, 0
1, 115584, Note_off_c, 0, 71, 0
1, 115584, Note_on_c, 0, 68, 38
1, 115584, Note_on_c, 0, 56, 38
1, 115968, Note_off_c, 0, 56, 0
1, 115968, Note_off_c, 0, 68, 0
1, 115968, Note_on_c, 0, 69, 38
1, 115968, Note_on_c, 0, 57, 38
1, 116352, Note_off_c, 0, 57, 0
1, 116352, Note_off_c, 0, 69, 0
1, 116736, Note_on_c, 0, 62, 38
1, 116736, Note_on_c, 0, 50, 38
1, 117120, Note_off_c, 0, 50, 0
1, 117120, Note_off_c, 0, 62, 0
1, 117120, Note_on_c, 0, 69, 38
1, 117120, Note_on_c, 0, 57, 38
1, 117504, Note_off_c, 0, 57, 0
1, 117504, Note_off_c, 0, 69, 0
1, 117504, Note_on_c, 0, 68, 38
1, 117504, Note_on_c, 0, 56, 38
1, 117888, Note_off_c, 0, 56, 0
1, 117888, Note_off_c, 0, 68, 0
1, 117888, Note_on_c, 0, 64, 38
1, 117888, Note_on_c, 0, 52, 38
1, 118272, Note_off_c, 0, 52, 0
1, 118272, Note_off_c, 0, 64, 0
1, 118272, Note_on_c, 0, 67, 38
1, 118272, Note_on_c, 0, 55, 38
1, 118656, Note_off_c, 0, 55, 0
1, 118656, Note_off_c, 0, 67, 0
1, 118656, Note_on_c, 0, 65, 38
1, 118656, Note_on_c, 0, 53, 38
1, 119040, Note_off_c, 0, 53, 0
1, 119040, Note_off_c, 0, 65, 0
1, 119040, Note_on_c, 0, 64, 38
1, 119040, Note_on_c, 0, 52, 38
1, 119424, Note_off_c, 0, 52, 0
1, 119424, Note_off_c, 0, 64, 0
1, 119424, Note_on_c, 0, 61, 38
1, 119424, Note_on_c, 0, 49, 38
1, 119616, Note_off_c, 0, 49, 0
1, 119616, Note_off_c, 0, 61, 0
1, 119616, Note_on_c, 0, 61, 38
1, 119616, Note_on_c, 0, 49, 38
1, 119808, Note_off_c, 0, 49, 0
1, 119808, Note_off_c, 0, 61, 0
1, 119808, Note_on_c, 0, 62, 38
1, 119808, Note_on_c, 0, 50, 38
1, 120192, Note_off_c, 0, 50, 0
1, 120192, Note_off_c, 0, 62, 0
1, 120192, Note_on_c, 0, 69, 38
1, 120192, Note_on_c, 0, 57, 38
1, 120576, Note_off_c, 0, 57, 0
1, 120576, Note_off_c, 0, 69, 0
1, 120576, Note_on_c, 0, 64, 38
1, 120576, Note_on_c, 0, 52, 38
1, 120960, Note_off_c, 0, 52, 0
1, 120960, Note_off_c, 0, 64, 0
1, 120960, Note_on_c, 0, 72, 38
1, 120960, Note_on_c, 0, 60, 38
1, 121344, Note_off_c, 0, 60, 0
1, 121344, Note_off_c, 0, 72, 0
1, 121344, Note_on_c, 0, 71, 38
1, 121344, Note_on_c, 0, 59, 38
1, 121728, Note_off_c, 0, 59, 0
1, 121728, Note_off_c, 0, 71, 0
1, 121728, Note_on_c, 0, 68, 38
1, 121728, Note_on_c, 0, 56, 38
1, 122112, Note_off_c, 0, 56, 0
1, 122112, Note_off_c, 0, 68, 0
1, 122112, Note_on_c, 0, 69, 38
1, 122112, Note_on_c, 0, 57, 38
1, 122496, Note_off_c, 0, 57, 0
1, 122496, Note_off_c, 0, 69, 0
1, 122880, Note_on_c, 0, 62, 38
1, 122880, Note_on_c, 0, 50, 38
1, 123264, Note_off_c, 0, 50, 0
1, 123264, Note_off_c, 0, 62, 0
1, 123264, Note_on_c, 0, 69, 38
1, 123264, Note_on_c, 0, 57, 38
1, 123648, Note_off_c, 0, 57, 0
1, 123648, Note_off_c, 0, 69, 0
1, 123648, Note_on_c, 0, 68, 38
1, 123648, Note_on_c, 0, 56, 38
1, 124032, Note_off_c, 0, 56, 0
1, 124032, Note_off_c, 0, 68, 0
1, 124032, Note_on_c, 0, 64, 38
1, 124032, Note_on_c, 0, 52, 38
1, 124416, Note_off_c, 0, 52, 0
1, 124416, Note_off_c, 0, 64, 0
1, 124416, Note_on_c, 0, 67, 38
1, 124416, Note_on_c, 0, 55, 38
1, 124800, Note_off_c, 0, 55, 0
1, 124800, Note_off_c, 0, 67, 0
1, 124800, Note_on_c, 0, 65, 38
1, 124800, Note_on_c, 0, 53, 38
1, 125184, Note_off_c, 0, 53, 0
1, 125184, Note_off_c, 0, 65, 0
1, 125184, Note_on_c, 0, 64, 38
1, 125184, Note_on_c, 0, 52, 38
1, 125568, Note_off_c, 0, 52, 0
1, 125568, Note_off_c, 0, 64, 0
1, 125568, Note_on_c, 0, 61, 38
1, 125568, Note_on_c, 0, 49, 38
1, 125760, Note_off_c, 0, 49, 0
1, 125760, Note_off_c, 0, 61, 0
1, 125760, Note_on_c, 0, 61, 38
1, 125760, Note_on_c, 0, 49, 38
1, 125952, Note_off_c, 0, 49, 0
1, 125952, Note_off_c, 0, 61, 0
1, 125952, Note_on_c, 0, 62, 38
1, 125952, Note_on_c, 0, 50, 38
1, 126336, Note_off_c, 0, 50, 0
1, 126336, Note_off_c, 0, 62, 0
1, 126336, Note_on_c, 0, 69, 38
1, 126336, Note_on_c, 0, 57, 38
1, 126720, Note_off_c, 0, 57, 0
1, 126720, Note_off_c, 0, 69, 0
1, 126720, Note_on_c, 0, 64, 38
1, 126720, Note_on_c, 0, 52, 38
1, 127104, Note_off_c, 0, 52, 0
1, 127104, Note_off_c, 0, 64, 0
1, 127104, Note_on_c, 0, 72, 38
1, 127104, Note_on_c, 0, 60, 38
1, 127488, Note_off_c, 0, 60, 0
1, 127488, Note_off_c, 0, 72, 0
1, 127488, Note_on_c, 0, 71, 38
1, 127488, Note_on_c, 0, 59, 38
1, 127872, Note_off_c, 0, 59, 0
1, 127872, Note_off_c, 0, 71, 0
1, 127872, Note_on_c, 0, 68, 38
1, 127872, Note_on_c, 0, 56, 38
1, 128256, Note_off_c, 0, 56, 0
1, 128256, Note_off_c, 0, 68, 0
1, 128256, Note_on_c, 0, 69, 38
1, 128256, Note_on_c, 0, 57, 38
1, 128640, Note_off_c, 0, 57, 0
1, 128640, Note_off_c, 0, 69, 0
1, 129024, Note_on_c, 0, 62, 38
1, 129024, Note_on_c, 0, 65, 38
1, 129024, Note_on_c, 0, 74, 38
1, 129024, Note_on_c, 0, 50, 38
1, 129024, Note_on_c, 0, 53, 38
1, 129024, Note_on_c, 0, 62, 38
1, 129408, Note_off_c, 0, 62, 0
1, 129408, Note_off_c, 0, 53, 0
1, 129408, Note_off_c, 0, 50, 0
1, 129408, Note_off_c, 0, 74, 0
1, 129408, Note_off_c, 0, 65, 0
1, 129408, Note_off_c, 0, 62, 0
1, 129408, Note_on_c, 0, 69, 38
1, 129408, Note_on_c, 0, 72, 38
1, 129408, Note_on_c, 0, 81, 38
1, 129408, Note_on_c, 0, 57, 38
1, 129408, Note_on_c, 0, 60, 38
1, 129408, Note_on_c, 0, 69, 38
1, 129792, Note_off_c, 0, 69, 0
1, 129792, Note_off_c, 0, 60, 0
1, 129792, Note_off_c, 0, 57, 0
1, 129792, Note_off_c, 0, 81, 0
1, 129792, Note_off_c, 0, 72, 0
1, 129792, Note_off_c, 0, 69, 0
1, 129792, Note_on_c, 0, 68, 38
1, 129792, Note_on_c, 0, 71, 38
1, 129792, Note_on_c, 0, 80, 38
1, 129792, Note_on_c, 0, 56, 38
1, 129792, Note_on_c, 0, 59, 38
1, 129792, Note_on_c, 0, 68, 38
1, 130176, Note_off_c, 0, 68, 0
1, 130176, Note_off_c, 0, 59, 0
1, 130176, Note_off_c, 0, 56, 0
1, 130176, Note_off_c, 0, 80, 0
1, 130176, Note_off_c, 0, 71, 0
1, 130176, Note_off_c, 0, 68, 0
1, 130176, Note_on_c, 0, 64, 38
1, 130176, Note_on_c, 0, 68, 38
1, 130176, Note_on_c, 0, 76, 38
1, 130176, Note_on_c, 0, 52, 38
1, 130176, Note_on_c, 0, 56, 38
1, 130176, Note_on_c, 0, 64, 38
1, 130560, Note_off_c, 0, 64, 0
1, 130560, Note_off_c, 0, 56, 0
1, 130560, Note_off_c, 0, 52, 0
1, 130560, Note_off_c, 0, 76, 0
1, 130560, Note_off_c, 0, 68, 0
1, 130560, Note_off_c, 0, 64, 0
1, 130560, Note_on_c, 0, 67, 38
1, 130560, Note_on_c, 0, 70, 38
1, 130560, Note_on_c, 0, 79, 38
1, 130560, Note_on_c, 0, 55, 38
1, 130560, Note_on_c, 0, 58, 38
1, 130560, Note_on_c, 0, 67, 38
1, 130944, Note_off_c, 0, 67, 0
1, 130944, Note_off_c, 0, 58, 0
1, 130944, Note_off_c, 0, 55, 0
1, 130944, Note_off_c, 0, 79, 0
1, 130944, Note_off_c, 0, 70, 0
1, 130944, Note_off_c, 0, 67, 0
1, 130944, Note_on_c, 0, 65, 38
1, 130944, Note_on_c, 0, 69, 38
1, 130944, Note_on_c, 0, 77, 38
1, 130944, Note_on_c, 0, 53, 38
1, 130944, Note_on_c, 0, 57, 38
1, 130944, Note_on_c, 0, 65, 38
1, 131328, Note_off_c, 0, 65, 0
1, 131328, Note_off_c, 0, 57, 0
1, 131328, Note_off_c, 0, 53, 0
1, 131328, Note_off_c, 0, 77, 0
1, 131328, Note_off_c, 0, 69, 0
1, 131328, Note_off_c, 0, 65, 0
1, 131328, Note_on_c, 0, 64, 38
1, 131328, Note_on_c, 0, 67, 38
1, 131328, Note_on_c, 0, 76, 38
1, 131328, Note_on_c, 0, 52, 38
1, 131328, Note_on_c, 0, 55, 38
1, 131328, Note_on_c, 0, 64, 38
1, 131712, Note_off_c, 0, 64, 0
1, 131712, Note_off_c, 0, 55, 0
1, 131712, Note_off_c, 0, 52, 0
1, 131712, Note_off_c, 0, 76, 0
1, 131712, Note_off_c, 0, 67, 0
1, 131712, Note_off_c, 0, 64, 0
1, 131712, Note_on_c, 0, 61, 38
1, 131712, Note_on_c, 0, 64, 38
1, 131712, Note_on_c, 0, 73, 38
1, 131712, Note_on_c, 0, 49, 38
1, 131712, Note_on_c, 0, 52, 38
1, 131712, Note_on_c, 0, 61, 38
1, 131904, Note_off_c, 0, 61, 0
1, 131904, Note_off_c, 0, 52, 0
1, 131904, Note_off_c, 0, 49, 0
1, 131904, Note_off_c, 0, 73, 0
1, 131904, Note_off_c, 0, 64, 0
1, 131904, Note_off_c, 0, 61, 0
1, 131904, Note_on_c, 0, 61, 38
1, 131904, Note_on_c, 0, 64, 38
1, 131904, Note_on_c, 0, 73, 38
1, 131904, Note_on_c, 0, 49, 38
1, 131904, Note_on_c, 0, 52, 38
1, 131904, Note_on_c, 0, 61, 38
1, 132096, Note_off_c, 0, 61, 0
1, 132096, Note_off_c, 0, 52, 0
1, 132096, Note_off_c, 0, 49, 0
1, 132096, Note_off_c, 0, 73, 0
1, 132096, Note_off_c, 0, 64, 0
1, 132096, Note_off_c, 0, 61, 0
1, 132096, Note_on_c, 0, 62, 38
1, 132096, Note_on_c, 0, 65, 38
1, 132096, Note_on_c, 0, 74, 38
1, 132096, Note_on_c, 0, 50, 38
1, 132096, Note_on_c, 0, 53, 38
1, 132096, Note_on_c, 0, 62, 38
1, 132480, Note_off_c, 0, 62, 0
1, 132480, Note_off_c, 0, 53, 0
1, 132480, Note_off_c, 0, 50, 0
1, 132480, Note_off_c, 0, 74, 0
1, 132480, Note_off_c, 0, 65, 0
1, 132480, Note_off_c, 0, 62, 0
1, 132480, Note_on_c, 0, 69, 38
1, 132480, Note_on_c, 0, 72, 38
1, 132480, Note_on_c, 0, 81, 38
1, 132480, Note_on_c, 0, 57, 38
1, 132480, Note_on_c, 0, 60, 38
1, 132480, Note_on_c, 0, 69, 38
1, 132864, Note_off_c, 0, 69, 0
1, 132864, Note_off_c, 0, 60, 0
1, 132864, Note_off_c, 0, 57, 0
1, 132864, Note_off_c, 0, 81, 0
1, 132864, Note_off_c, 0, 72, 0
1, 132864, Note_off_c, 0, 69, 0
1, 132864, Note_on_c, 0, 64, 38
1, 132864, Note_on_c, 0, 68, 38
1, 132864, Note_on_c, 0, 76, 38
1, 132864, Note_on_c, 0, 52, 38
1, 132864, Note_on_c, 0, 56, 38
1, 132864, Note_on_c, 0, 64, 38
1, 133248, Note_off_c, 0, 64, 0
1, 133248, Note_off_c, 0, 56, 0
1, 133248, Note_off_c, 0, 52, 0
1, 133248, Note_off_c, 0, 76, 0
1, 133248, Note_off_c, 0, 68, 0
1, 133248, Note_off_c, 0, 64, 0
1, 133248, Note_on_c, 0, 72, 38
1, 133248, Note_on_c, 0, 75, 38
1, 133248, Note_on_c, 0, 84, 38
1, 133248, Note_on_c, 0, 60, 38
1, 133248, Note_on_c, 0, 63, 38
1, 133248, Note_on_c, 0, 72, 38
1, 133632, Note_off_c, 0, 72, 0
1, 133632, Note_off_c, 0, 63, 0
1, 133632, Note_off_c, 0, 60, 0
1, 133632, Note_off_c, 0, 84, 0
1, 133632, Note_off_c, 0, 75, 0
1, 133632, Note_off_c, 0, 72, 0
1, 133632, Note_on_c, 0, 71, 38
1, 133632, Note_on_c, 0, 74, 38
1, 133632, Note_on_c, 0, 83, 38
1, 133632, Note_on_c, 0, 59, 38
1, 133632, Note_on_c, 0, 62, 38
1, 133632, Note_on_c, 0, 71, 38
1, 134016, Note_off_c, 0, 71, 0
1, 134016, Note_off_c, 0, 62, 0
1, 134016, Note_off_c, 0, 59, 0
1, 134016, Note_off_c, 0, 83, 0
1, 134016, Note_off_c, 0, 74, 0
1, 134016, Note_off_c, 0, 71, 0
1, 134016, Note_on_c, 0, 68, 38
1, 134016, Note_on_c, 0, 71, 38
1, 134016, Note_on_c, 0, 80, 38
1, 134016, Note_on_c, 0, 56, 38
1, 134016, Note_on_c, 0, 59, 38
1, 134016, Note_on_c, 0, 68, 38
1, 134400, Note_off_c, 0, 68, 0
1, 134400, Note_off_c, 0, 59, 0
1, 134400, Note_off_c, 0, 56, 0
1, 134400, Note_off_c, 0, 80, 0
1, 134400, Note_off_c, 0, 71, 0
1, 134400, Note_off_c, 0, 68, 0
1, 134400, Note_on_c, 0, 69, 38
1, 134400, Note_on_c, 0, 72, 38
1, 134400, Note_on_c, 0, 81, 38
1, 134400, Note_on_c, 0, 57, 38
1, 134400, Note_on_c, 0, 60, 38
1, 134400, Note_on_c, 0, 69, 38
1, 134784, Note_off_c, 0, 69, 0
1, 134784, Note_off_c, 0, 60, 0
1, 134784, Note_off_c, 0, 57, 0
1, 134784, Note_off_c, 0, 81, 0
1, 134784, Note_off_c, 0, 72, 0
1, 134784, Note_off_c, 0, 69, 0
1, 135168, Note_on_c, 0, 62, 38
1, 135168, Note_on_c, 0, 65, 38
1, 135168, Note_on_c, 0, 74, 38
1, 135168, Note_on_c, 0, 50, 38
1, 135168, Note_on_c, 0, 53, 38
1, 135168, Note_on_c, 0, 62, 38
1, 135552, Note_off_c, 0, 62, 0
1, 135552, Note_off_c, 0, 53, 0
1, 135552, Note_off_c, 0, 50, 0
1, 135552, Note_off_c, 0, 74, 0
1, 135552, Note_off_c, 0, 65, 0
1, 135552, Note_off_c, 0, 62, 0
1, 135552, Note_on_c, 0, 69, 38
1, 135552, Note_on_c, 0, 72, 38
1, 135552, Note_on_c, 0, 81, 38
1, 135552, Note_on_c, 0, 57, 38
1, 135552, Note_on_c, 0, 60, 38
1, 135552, Note_on_c, 0, 69, 38
1, 135936, Note_off_c, 0, 69, 0
1, 135936, Note_off_c, 0, 60, 0
1, 135936, Note_off_c, 0, 57, 0
1, 135936, Note_off_c, 0, 81, 0
1, 135936, Note_off_c, 0, 72, 0
1, 135936, Note_off_c, 0, 69, 0
1, 135936, Note_on_c, 0, 68, 38
1, 135936, Note_on_c, 0, 71, 38
1, 135936, Note_on_c, 0, 80, 38
1, 135936, Note_on_c, 0, 56, 38
1, 135936, Note_on_c, 0, 59, 38
1, 135936, Note_on_c, 0, 68, 38
1, 136320, Note_off_c, 0, 68, 0
1, 136320, Note_off_c, 0, 59, 0
1, 136320, Note_off_c, 0, 56, 0
1, 136320, Note_off_c, 0, 80, 0
1, 136320, Note_off_c, 0, 71, 0
1, 136320, Note_off_c, 0, 68, 0
1, 136320, Note_on_c, 0, 64, 38
1, 136320, Note_on_c, 0, 68, 38
1, 136320, Note_on_c, 0, 76, 38
1, 136320, Note_on_c, 0, 52, 38
1, 136320, Note_on_c, 0, 56, 38
1, 136320, Note_on_c, 0, 64, 38
1, 136704, Note_off_c, 0, 64, 0
1, 136704, Note_off_c, 0, 56, 0
1, 136704, Note_off_c, 0, 52, 0
1, 136704, Note_off_c, 0, 76, 0
1, 136704, Note_off_c, 0, 68, 0
1, 136704, Note_off_c, 0, 64, 0
1, 136704, Note_on_c, 0, 67, 38
1, 136704, Note_on_c, 0, 70, 38
1, 136704, Note_on_c, 0, 79, 38
1, 136704, Note_on_c, 0, 55, 38
1, 136704, Note_on_c, 0, 58, 38
1, 136704, Note_on_c, 0, 67, 38
1, 137088, Note_off_c, 0, 67, 0
1, 137088, Note_off_c, 0, 58, 0
1, 137088, Note_off_c, 0, 55, 0
1, 137088, Note_off_c, 0, 79, 0
1, 137088, Note_off_c, 0, 70, 0
1, 137088, Note_off_c, 0, 67, 0
1, 137088, Note_on_c, 0, 65, 38
1, 137088, Note_on_c, 0, 69, 38
1, 137088, Note_on_c, 0, 77, 38
1, 137088, Note_on_c, 0, 53, 38
1, 137088, Note_on_c, 0, 57, 38
1, 137088, Note_on_c, 0, 65, 38
1, 137472, Note_off_c, 0, 65, 0
1, 137472, Note_off_c, 0, 57, 0
1, 137472, Note_off_c, 0, 53, 0
1, 137472, Note_off_c, 0, 77, 0
1, 137472, Note_off_c, 0, 69, 0
1, 137472, Note_off_c, 0, 65, 0
1, 137472, Note_on_c, 0, 64, 38
1, 137472, Note_on_c, 0, 67, 38
1, 137472, Note_on_c, 0, 76, 38
1, 137472, Note_on_c, 0, 52, 38
1, 137472, Note_on_c, 0, 55, 38
1, 137472, Note_on_c, 0, 64, 38
1, 137856, Note_off_c, 0, 64, 0
1, 137856, Note_off_c, 0, 55, 0
1, 137856, Note_off_c, 0, 52, 0
1, 137856, Note_off_c, 0, 76, 0
1, 137856, Note_off_c, 0, 67, 0
1, 137856, Note_off_c, 0, 64, 0
1, 137856, Note_on_c, 0, 61, 38
1, 137856, Note_on_c, 0, 64, 38
1, 137856, Note_on_c, 0, 73, 38
1, 137856, Note_on_c, 0, 49, 38
1, 137856, Note_on_c, 0, 52, 38
1, 137856, Note_on_c, 0, 61, 38
1, 138048, Note_off_c, 0, 61, 0
1, 138048, Note_off_c, 0, 52, 0
1, 138048, Note_off_c, 0, 49, 0
1, 138048, Note_off_c, 0, 73, 0
1, 138048, Note_off_c, 0, 64, 0
1, 138048, Note_off_c, 0, 61, 0
1, 138048, Note_on_c, 0, 61, 38
1, 138048, Note_on_c, 0, 64, 38
1, 138048, Note_on_c, 0, 73, 38
1, 138048, Note_on_c, 0, 49, 38
1, 138048, Note_on_c, 0, 52, 38
1, 138048, Note_on_c, 0, 61, 38
1, 138240, Note_off_c, 0, 61, 0
1, 138240, Note_off_c, 0, 52, 0
1, 138240, Note_off_c, 0, 49, 0
1, 138240, Note_off_c, 0, 73, 0
1, 138240, Note_off_c, 0, 64, 0
1, 138240, Note_off_c, 0, 61, 0
1, 138240, Note_on_c, 0, 62, 38
1, 138240, Note_on_c, 0, 65, 38
1, 138240, Note_on_c, 0, 74, 38
1, 138240, Note_on_c, 0, 50, 38
1, 138240, Note_on_c, 0, 53, 38
1, 138240, Note_on_c, 0, 62, 38
1, 138624, Note_off_c, 0, 62, 0
1, 138624, Note_off_c, 0, 53, 0
1, 138624, Note_off_c, 0, 50, 0
1, 138624, Note_off_c, 0, 74, 0
1, 138624, Note_off_c, 0, 65, 0
1, 138624, Note_off_c, 0, 62, 0
1, 138624, Note_on_c, 0, 69, 38
1, 138624, Note_on_c, 0, 72, 38
1, 138624, Note_on_c, 0, 81, 38
1, 138624, Note_on_c, 0, 57, 38
1, 138624, Note_on_c, 0, 60, 38
1, 138624, Note_on_c, 0, 69, 38
1, 139008, Note_off_c, 0, 69, 0
1, 139008, Note_off_c, 0, 60, 0
1, 139008, Note_off_c, 0, 57, 0
1, 139008, Note_off_c, 0, 81, 0
1, 139008, Note_off_c, 0, 72, 0
1, 139008, Note_off_c, 0, 69, 0
1, 139008, Note_on_c, 0, 64, 38
1, 139008, Note_on_c, 0, 68, 38
1, 139008, Note_on_c, 0, 76, 38
1, 139008, Note_on_c, 0, 52, 38
1, 139008, Note_on_c, 0, 56, 38
1, 139008, Note_on_c, 0, 64, 38
1, 139392, Note_off_c, 0, 64, 0
1, 139392, Note_off_c, 0, 56, 0
1, 139392, Note_off_c, 0, 52, 0
1, 139392, Note_off_c, 0, 76, 0
1, 139392, Note_off_c, 0, 68, 0
1, 139392, Note_off_c, 0, 64, 0
1, 139392, Note_on_c, 0, 72, 38
1, 139392, Note_on_c, 0, 75, 38
1, 139392, Note_on_c, 0, 84, 38
1, 139392, Note_on_c, 0, 60, 38
1, 139392, Note_on_c, 0, 63, 38
1, 139392, Note_on_c, 0, 72, 38
1, 139776, Note_off_c, 0, 72, 0
1, 139776, Note_off_c, 0, 63, 0
1, 139776, Note_off_c, 0, 60, 0
1, 139776, Note_off_c, 0, 84, 0
1, 139776, Note_off_c, 0, 75, 0
1, 139776, Note_off_c, 0, 72, 0
1, 139776, Note_on_c, 0, 71, 38
1, 139776, Note_on_c, 0, 74, 38
1, 139776, Note_on_c, 0, 83, 38
1, 139776, Note_on_c, 0, 59, 38
1, 139776, Note_on_c, 0, 62, 38
1, 139776, Note_on_c, 0, 71, 38
1, 140160, Note_off_c, 0, 71, 0
1, 140160, Note_off_c, 0, 62, 0
1, 140160, Note_off_c, 0, 59, 0
1, 140160, Note_off_c, 0, 83, 0
1, 140160, Note_off_c, 0, 74, 0
1, 140160, Note_off_c, 0, 71, 0
1, 140160, Note_on_c, 0, 68, 38
1, 140160, Note_on_c, 0, 71, 38
1, 140160, Note_on_c, 0, 80, 38
1, 140160, Note_on_c, 0, 56, 38
1, 140160, Note_on_c, 0, 59, 38
1, 140160, Note_on_c, 0, 68, 38
1, 140544, Note_off_c, 0, 68, 0
1, 140544, Note_off_c, 0, 59, 0
1, 140544, Note_off_c, 0, 56, 0
1, 140544, Note_off_c, 0, 80, 0
1, 140544, Note_off_c, 0, 71, 0
1, 140544, Note_off_c, 0, 68, 0
1, 140544, Note_on_c, 0, 69, 38
1, 140544, Note_on_c, 0, 72, 38
1, 140544, Note_on_c, 0, 81, 38
1, 140544, Note_on_c, 0, 57, 38
1, 140544, Note_on_c, 0, 60, 38
1, 140544, Note_on_c, 0, 69, 38
1, 140928, Note_off_c, 0, 69, 0
1, 140928, Note_off_c, 0, 60, 0
1, 140928, Note_off_c, 0, 57, 0
1, 140928, Note_off_c, 0, 81, 0
1, 140928, Note_off_c, 0, 72, 0
1, 140928, Note_off_c, 0, 69, 0
1, 141312, Note_on_c, 0, 62, 38
1, 141312, Note_on_c, 0, 65, 38
1, 141312, Note_on_c, 0, 74, 38
1, 141312, Note_on_c, 0, 50, 38
1, 141312, Note_on_c, 0, 53, 38
1, 141312, Note_on_c, 0, 62, 38
1, 141696, Note_off_c, 0, 62, 0
1, 141696, Note_off_c, 0, 53, 0
1, 141696, Note_off_c, 0, 50, 0
1, 141696, Note_off_c, 0, 74, 0
1, 141696, Note_off_c, 0, 65, 0
1, 141696, Note_off_c, 0, 62, 0
1, 141696, Note_on_c, 0, 69, 38
1, 141696, Note_on_c, 0, 72, 38
1, 141696, Note_on_c, 0, 81, 38
1, 141696, Note_on_c, 0, 57, 38
1, 141696, Note_on_c, 0, 60, 38
1, 141696, Note_on_c, 0, 69, 38
1, 142080, Note_off_c, 0, 69, 0
1, 142080, Note_off_c, 0, 60, 0
1, 142080, Note_off_c, 0, 57, 0
1, 142080, Note_off_c, 0, 81, 0
1, 142080, Note_off_c, 0, 72, 0
1, 142080, Note_off_c, 0, 69, 0
1, 142080, Note_on_c, 0, 68, 38
1, 142080, Note_on_c, 0, 71, 38
1, 142080, Note_on_c, 0, 80, 38
1, 142080, Note_on_c, 0, 56, 38
1, 142080, Note_on_c, 0, 59, 38
1, 142080, Note_on_c, 0, 68, 38
1, 142464, Note_off_c, 0, 68, 0
1, 142464, Note_off_c, 0, 59, 0
1, 142464, Note_off_c, 0, 56, 0
1, 142464, Note_off_c, 0, 80, 0
1, 142464, Note_off_c, 0, 71, 0
1, 142464, Note_off_c, 0, 68, 0
1, 142464, Note_on_c, 0, 64, 38
1, 142464, Note_on_c, 0, 68, 38
1, 142464, Note_on_c, 0, 76, 38
1, 142464, Note_on_c, 0, 52, 38
1, 142464, Note_on_c, 0, 56, 38
1, 142464, Note_on_c, 0, 64, 38
1, 142848, Note_off_c, 0, 64, 0
1, 142848, Note_off_c, 0, 56, 0
1, 142848, Note_off_c, 0, 52, 0
1, 142848, Note_off_c, 0, 76, 0
1, 142848, Note_off_c, 0, 68, 0
1, 142848, Note_off_c, 0, 64, 0
1, 142848, Note_on_c, 0, 67, 38
1, 142848, Note_on_c, 0, 70, 38
1, 142848, Note_on_c, 0, 79, 38
1, 142848, Note_on_c, 0, 55, 38
1, 142848, Note_on_c, 0, 58, 38
1, 142848, Note_on_c, 0, 67, 38
1, 143232, Note_off_c, 0, 67, 0
1, 143232, Note_off_c, 0, 58, 0
1, 143232, Note_off_c, 0, 55, 0
1, 143232, Note_off_c, 0, 79, 0
1, 143232, Note_off_c, 0, 70, 0
1, 143232, Note_off_c, 0, 67, 0
1, 143232, Note_on_c, 0, 65, 38
1, 143232, Note_on_c, 0, 69, 38
1, 143232, Note_on_c, 0, 77, 38
1, 143232, Note_on_c, 0, 53, 38
1, 143232, Note_on_c, 0, 57, 38
1, 143232, Note_on_c, 0, 65, 38
1, 143616, Note_off_c, 0, 65, 0
1, 143616, Note_off_c, 0, 57, 0
1, 143616, Note_off_c, 0, 53, 0
1, 143616, Note_off_c, 0, 77, 0
1, 143616, Note_off_c, 0, 69, 0
1, 143616, Note_off_c, 0, 65, 0
1, 143616, Note_on_c, 0, 64, 38
1, 143616, Note_on_c, 0, 67, 38
1, 143616, Note_on_c, 0, 76, 38
1, 143616, Note_on_c, 0, 52, 38
1, 143616, Note_on_c, 0, 55, 38
1, 143616, Note_on_c, 0, 64, 38
1, 144000, Note_off_c, 0, 64, 0
1, 144000, Note_off_c, 0, 55, 0
1, 144000, Note_off_c, 0, 52, 0
1, 144000, Note_off_c, 0, 76, 0
1, 144000, Note_off_c, 0, 67, 0
1, 144000, Note_off_c, 0, 64, 0
1, 144000, Note_on_c, 0, 61, 38
1, 144000, Note_on_c, 0, 64, 38
1, 144000, Note_on_c, 0, 73, 38
1, 144000, Note_on_c, 0, 49, 38
1, 144000, Note_on_c, 0, 52, 38
1, 144000, Note_on_c, 0, 61, 38
1, 144192, Note_off_c, 0, 61, 0
1, 144192, Note_off_c, 0, 52, 0
1, 144192, Note_off_c, 0, 49, 0
1, 144192, Note_off_c, 0, 73, 0
1, 144192, Note_off_c, 0, 64, 0
1, 144192, Note_off_c, 0, 61, 0
1, 144192, Note_on_c, 0, 61, 38
1, 144192, Note_on_c, 0, 64, 38
1, 144192, Note_on_c, 0, 73, 38
1, 144192, Note_on_c, 0, 49, 38
1, 144192, Note_on_c, 0, 52, 38
1, 144192, Note_on_c, 0, 61, 38
1, 144384, Note_off_c, 0, 61, 0
1, 144384, Note_off_c, 0, 52, 0
1, 144384, Note_off_c, 0, 49, 0
1, 144384, Note_off_c, 0, 73, 0
1, 144384, Note_off_c, 0, 64, 0
1, 144384, Note_off_c, 0, 61, 0
1, 144384, Note_on_c, 0, 62, 38
1, 144384, Note_on_c, 0, 65, 38
1, 144384, Note_on_c, 0, 74, 38
1, 144384, Note_on_c, 0, 50, 38
1, 144384, Note_on_c, 0, 53, 38
1, 144384, Note_on_c, 0, 62, 38
1, 144768, Note_off_c, 0, 62, 0
1, 144768, Note_off_c, 0, 53, 0
1, 144768, Note_off_c, 0, 50, 0
1, 144768, Note_off_c, 0, 74, 0
1, 144768, Note_off_c, 0, 65, 0
1, 144768, Note_off_c, 0, 62, 0
1, 144768, Note_on_c, 0, 69, 38
1, 144768, Note_on_c, 0, 72, 38
1, 144768, Note_on_c, 0, 81, 38
1, 144768, Note_on_c, 0, 57, 38
1, 144768, Note_on_c, 0, 60, 38
1, 144768, Note_on_c, 0, 69, 38
1, 145152, Note_off_c, 0, 69, 0
1, 145152, Note_off_c, 0, 60, 0
1, 145152, Note_off_c, 0, 57, 0
1, 145152, Note_off_c, 0, 81, 0
1, 145152, Note_off_c, 0, 72, 0
1, 145152, Note_off_c, 0, 69, 0
1, 145152, Note_on_c, 0, 64, 38
1, 145152, Note_on_c, 0, 68, 38
1, 145152, Note_on_c, 0, 76, 38
1, 145152, Note_on_c, 0, 52, 38
1, 145152, Note_on_c, 0, 56, 38
1, 145152, Note_on_c, 0, 64, 38
1, 145536, Note_off_c, 0, 64, 0
1, 145536, Note_off_c, 0, 56, 0
1, 145536, Note_off_c, 0, 52, 0
1, 145536, Note_off_c, 0, 76, 0
1, 145536, Note_off_c, 0, 68, 0
1, 145536, Note_off_c, 0, 64, 0
1, 145536, Note_on_c, 0, 72, 38
1, 145536, Note_on_c, 0, 75, 38
1, 145536, Note_on_c, 0, 84, 38
1, 145536, Note_on_c, 0, 60, 38
1, 145536, Note_on_c, 0, 63, 38
1, 145536, Note_on_c, 0, 72, 38
1, 145920, Note_off_c, 0, 72, 0
1, 145920, Note_off_c, 0, 63, 0
1, 145920, Note_off_c, 0, 60, 0
1, 145920, Note_off_c, 0, 84, 0
1, 145920, Note_off_c, 0, 75, 0
1, 145920, Note_off_c, 0, 72, 0
1, 145920, Note_on_c, 0, 71, 38
1, 145920, Note_on_c, 0, 74, 38
1, 145920, Note_on_c, 0, 83, 38
1, 145920, Note_on_c, 0, 59, 38
1, 145920, Note_on_c, 0, 62, 38
1, 145920, Note_on_c, 0, 71, 38
1, 146304, Note_off_c, 0, 71, 0
1, 146304, Note_off_c, 0, 62, 0
1, 146304, Note_off_c, 0, 59, 0
1, 146304, Note_off_c, 0, 83, 0
1, 146304, Note_off_c, 0, 74, 0
1, 146304, Note_off_c, 0, 71, 0
1, 146304, Note_on_c, 0, 68, 38
1, 146304, Note_on_c, 0, 71, 38
1, 146304, Note_on_c, 0, 80, 38
1, 146304, Note_on_c, 0, 56, 38
1, 146304, Note_on_c, 0, 59, 38
1, 146304, Note_on_c, 0, 68, 38
1, 146688, Note_off_c, 0, 68, 0
1, 146688, Note_off_c, 0, 59, 0
1, 146688, Note_off_c, 0, 56, 0
1, 146688, Note_off_c, 0, 80, 0
1, 146688, Note_off_c, 0, 71, 0
1, 146688, Note_off_c, 0, 68, 0
1, 146688, Note_on_c, 0, 69, 38
1, 146688, Note_on_c, 0, 72, 38
1, 146688, Note_on_c, 0, 81, 38
1, 146688, Note_on_c, 0, 57, 38
1, 146688, Note_on_c, 0, 60, 38
1, 146688, Note_on_c, 0, 69, 38
1, 147072, Note_off_c, 0, 69, 0
1, 147072, Note_off_c, 0, 60, 0
1, 147072, Note_off_c, 0, 57, 0
1, 147072, Note_off_c, 0, 81, 0
1, 147072, Note_off_c, 0, 72, 0
1, 147072, Note_off_c, 0, 69, 0
1, 147456, Note_on_c, 0, 62, 38
1, 147456, Note_on_c, 0, 65, 38
1, 147456, Note_on_c, 0, 74, 38
1, 147456, Note_on_c, 0, 50, 38
1, 147456, Note_on_c, 0, 53, 38
1, 147456, Note_on_c, 0, 62, 38
1, 147840, Note_off_c, 0, 62, 0
1, 147840, Note_off_c, 0, 53, 0
1, 147840, Note_off_c, 0, 50, 0
1, 147840, Note_off_c, 0, 74, 0
1, 147840, Note_off_c, 0, 65, 0
1, 147840, Note_off_c, 0, 62, 0
1, 147840, Note_on_c, 0, 69, 38
1, 147840, Note_on_c, 0, 72, 38
1, 147840, Note_on_c, 0, 81, 38
1, 147840, Note_on_c, 0, 57, 38
1, 147840, Note_on_c, 0, 60, 38
1, 147840, Note_on_c, 0, 69, 38
1, 148224, Note_off_c, 0, 69, 0
1, 148224, Note_off_c, 0, 60, 0
1, 148224, Note_off_c, 0, 57, 0
1, 148224, Note_off_c, 0, 81, 0
1, 148224, Note_off_c, 0, 72, 0
1, 148224, Note_off_c, 0, 69, 0
1, 148224, Note_on_c, 0, 68, 38
1, 148224, Note_on_c, 0, 71, 38
1, 148224, Note_on_c, 0, 80, 38
1, 148224, Note_on_c, 0, 56, 38
1, 148224, Note_on_c, 0, 59, 38
1, 148224, Note_on_c, 0, 68, 38
1, 148608, Note_off_c, 0, 68, 0
1, 148608, Note_off_c, 0, 59, 0
1, 148608, Note_off_c, 0, 56, 0
1, 148608, Note_off_c, 0, 80, 0
1, 148608, Note_off_c, 0, 71, 0
1, 148608, Note_off_c, 0, 68, 0
1, 148608, Note_on_c, 0, 64, 38
1, 148608, Note_on_c, 0, 68, 38
1, 148608, Note_on_c, 0, 76, 38
1, 148608, Note_on_c, 0, 52, 38
1, 148608, Note_on_c, 0, 56, 38
1, 148608, Note_on_c, 0, 64, 38
1, 148992, Note_off_c, 0, 64, 0
1, 148992, Note_off_c, 0, 56, 0
1, 148992, Note_off_c, 0, 52, 0
1, 148992, Note_off_c, 0, 76, 0
1, 148992, Note_off_c, 0, 68, 0
1, 148992, Note_off_c, 0, 64, 0
1, 148992, Note_on_c, 0, 67, 38
1, 148992, Note_on_c, 0, 70, 38
1, 148992, Note_on_c, 0, 79, 38
1, 148992, Note_on_c, 0, 55, 38
1, 148992, Note_on_c, 0, 58, 38
1, 148992, Note_on_c, 0, 67, 38
1, 149376, Note_off_c, 0, 67, 0
1, 149376, Note_off_c, 0, 58, 0
1, 149376, Note_off_c, 0, 55, 0
1, 149376, Note_off_c, 0, 79, 0
1, 149376, Note_off_c, 0, 70, 0
1, 149376, Note_off_c, 0, 67, 0
1, 149376, Note_on_c, 0, 65, 38
1, 149376, Note_on_c, 0, 69, 38
1, 149376, Note_on_c, 0, 77, 38
1, 149376, Note_on_c, 0, 53, 38
1, 149376, Note_on_c, 0, 57, 38
1, 149376, Note_on_c, 0, 65, 38
1, 149760, Note_off_c, 0, 65, 0
1, 149760, Note_off_c, 0, 57, 0
1, 149760, Note_off_c, 0, 53, 0
1, 149760, Note_off_c, 0, 77, 0
1, 149760, Note_off_c, 0, 69, 0
1, 149760, Note_off_c, 0, 65, 0
1, 149760, Note_on_c, 0, 64, 38
1, 149760, Note_on_c, 0, 67, 38
1, 149760, Note_on_c, 0, 76, 38
1, 149760, Note_on_c, 0, 52, 38
1, 149760, Note_on_c, 0, 55, 38
1, 149760, Note_on_c, 0, 64, 38
1, 150144, Note_off_c, 0, 64, 0
1, 150144, Note_off_c, 0, 55, 0
1, 150144, Note_off_c, 0, 52, 0
1, 150144, Note_off_c, 0, 76, 0
1, 150144, Note_off_c, 0, 67, 0
1, 150144, Note_off_c, 0, 64, 0
1, 150144, Note_on_c, 0, 61, 38
1, 150144, Note_on_c, 0, 64, 38
1, 150144, Note_on_c, 0, 73, 38
1, 150144, Note_on_c, 0, 49, 38
1, 150144, Note_on_c, 0, 52, 38
1, 150144, Note_on_c, 0, 61, 38
1, 150336, Note_off_c, 0, 61, 0
1, 150336, Note_off_c, 0, 52, 0
1, 150336, Note_off_c, 0, 49, 0
1, 150336, Note_off_c, 0, 73, 0
1, 150336, Note_off_c, 0, 64, 0
1, 150336, Note_off_c, 0, 61, 0
1, 150336, Note_on_c, 0, 61, 38
1, 150336, Note_on_c, 0, 64, 38
1, 150336, Note_on_c, 0, 73, 38
1, 150336, Note_on_c, 0, 49, 38
1, 150336, Note_on_c, 0, 52, 38
1, 150336, Note_on_c, 0, 61, 38
1, 150528, Note_off_c, 0, 61, 0
1, 150528, Note_off_c, 0, 52, 0
1, 150528, Note_off_c, 0, 49, 0
1, 150528, Note_off_c, 0, 73, 0
1, 150528, Note_off_c, 0, 64, 0
1, 150528, Note_off_c, 0, 61, 0
1, 150528, Note_on_c, 0, 62, 38
1, 150528, Note_on_c, 0, 65, 38
1, 150528, Note_on_c, 0, 74, 38
1, 150528, Note_on_c, 0, 50, 38
1, 150528, Note_on_c, 0, 53, 38
1, 150528, Note_on_c, 0, 62, 38
1, 150912, Note_off_c, 0, 62, 0
1, 150912, Note_off_c, 0, 53, 0
1, 150912, Note_off_c, 0, 50, 0
1, 150912, Note_off_c, 0, 74, 0
1, 150912, Note_off_c, 0, 65, 0
1, 150912, Note_off_c, 0, 62, 0
1, 150912, Note_on_c, 0, 69, 38
1, 150912, Note_on_c, 0, 72, 38
1, 150912, Note_on_c, 0, 81, 38
1, 150912, Note_on_c, 0, 57, 38
1, 150912, Note_on_c, 0, 60, 38
1, 150912, Note_on_c, 0, 69, 38
1, 151296, Note_off_c, 0, 69, 0
1, 151296, Note_off_c, 0, 60, 0
1, 151296, Note_off_c, 0, 57, 0
1, 151296, Note_off_c, 0, 81, 0
1, 151296, Note_off_c, 0, 72, 0
1, 151296, Note_off_c, 0, 69, 0
1, 151296, Note_on_c, 0, 64, 38
1, 151296, Note_on_c, 0, 68, 38
1, 151296, Note_on_c, 0, 76, 38
1, 151296, Note_on_c, 0, 52, 38
1, 151296, Note_on_c, 0, 56, 38
1, 151296, Note_on_c, 0, 64, 38
1, 151680, Note_off_c, 0, 64, 0
1, 151680, Note_off_c, 0, 56, 0
1, 151680, Note_off_c, 0, 52, 0
1, 151680, Note_off_c, 0, 76, 0
1, 151680, Note_off_c, 0, 68, 0
1, 151680, Note_off_c, 0, 64, 0
1, 151680, Note_on_c, 0, 72, 38
1, 151680, Note_on_c, 0, 75, 38
1, 151680, Note_on_c, 0, 84, 38
1, 151680, Note_on_c, 0, 60, 38
1, 151680, Note_on_c, 0, 63, 38
1, 151680, Note_on_c, 0, 72, 38
1, 152064, Note_off_c, 0, 72, 0
1, 152064, Note_off_c, 0, 63, 0
1, 152064, Note_off_c, 0, 60, 0
1, 152064, Note_off_c, 0, 84, 0
1, 152064, Note_off_c, 0, 75, 0
1, 152064, Note_off_c, 0, 72, 0
1, 152064, Note_on_c, 0, 71, 38
1, 152064, Note_on_c, 0, 74, 38
1, 152064, Note_on_c, 0, 83, 38
1, 152064, Note_on_c, 0, 59, 38
1, 152064, Note_on_c, 0, 62, 38
1, 152064, Note_on_c, 0, 71, 38
1, 152448, Note_off_c, 0, 71, 0
1, 152448, Note_off_c, 0, 62, 0
1, 152448, Note_off_c, 0, 59, 0
1, 152448, Note_off_c, 0, 83, 0
1, 152448, Note_off_c, 0, 74, 0
1, 152448, Note_off_c, 0, 71, 0
1, 152448, Note_on_c, 0, 68, 38
1, 152448, Note_on_c, 0, 71, 38
1, 152448, Note_on_c, 0, 80, 38
1, 152448, Note_on_c, 0, 56, 38
1, 152448, Note_on_c, 0, 59, 38
1, 152448, Note_on_c, 0, 68, 38
1, 152832, Note_off_c, 0, 68, 0
1, 152832, Note_off_c, 0, 59, 0
1, 152832, Note_off_c, 0, 56, 0
1, 152832, Note_off_c, 0, 80, 0
1, 152832, Note_off_c, 0, 71, 0
1, 152832, Note_off_c, 0, 68, 0
1, 152832, Note_on_c, 0, 69, 38
1, 152832, Note_on_c, 0, 72, 38
1, 152832, Note_on_c, 0, 81, 38
1, 152832, Note_on_c, 0, 57, 38
1, 152832, Note_on_c, 0, 60, 38
1, 152832, Note_on_c, 0, 69, 38
1, 153216, Note_off_c, 0, 69, 0
1, 153216, Note_off_c, 0, 60, 0
1, 153216, Note_off_c, 0, 57, 0
1, 153216, Note_off_c, 0, 81, 0
1, 153216, Note_off_c, 0, 72, 0
1, 153216, Note_off_c, 0, 69, 0
1, 153600, Note_on_c, 0, 62, 36
1, 153600, Note_on_c, 0, 50, 36
1, 153792, Note_off_c, 0, 50, 0
1, 153792, Note_off_c, 0, 62, 0
1, 153792, Note_on_c, 0, 67, 36
1, 153792, Note_on_c, 0, 55, 36
1, 153984, Note_off_c, 0, 55, 0
1, 153984, Note_off_c, 0, 67, 0
1, 153984, Note_on_c, 0, 69, 36
1, 153984, Note_on_c, 0, 57, 36
1, 154176, Note_off_c, 0, 57, 0
1, 154176, Note_off_c, 0, 69, 0
1, 154176, Note_on_c, 0, 74, 36
1, 154176, Note_on_c, 0, 62, 36
1, 154368, Note_off_c, 0, 62, 0
1, 154368, Note_off_c, 0, 74, 0
1, 154368, Note_on_c, 0, 63, 36
1, 154368, Note_on_c, 0, 51, 36
1, 154560, Note_off_c, 0, 51, 0
1, 154560, Note_off_c, 0, 63, 0
1, 154560, Note_on_c, 0, 67, 36
1, 154560, Note_on_c, 0, 55, 36
1, 154752, Note_off_c, 0, 55, 0
1, 154752, Note_off_c, 0, 67, 0
1, 154752, Note_on_c, 0, 69, 36
1, 154752, Note_on_c, 0, 57, 36
1, 154944, Note_off_c, 0, 57, 0
1, 154944, Note_off_c, 0, 69, 0
1, 154944, Note_on_c, 0, 74, 36
1, 154944, Note_on_c, 0, 62, 36
1, 155136, Note_off_c, 0, 62, 0
1, 155136, Note_off_c, 0, 74, 0
1, 155136, Note_on_c, 0, 64, 36
1, 155136, Note_on_c, 0, 52, 36
1, 155328, Note_off_c, 0, 52, 0
1, 155328, Note_off_c, 0, 64, 0
1, 155328, Note_on_c, 0, 67, 36
1, 155328, Note_on_c, 0, 55, 36
1, 155520, Note_off_c, 0, 55, 0
1, 155520, Note_off_c, 0, 67, 0
1, 155520, Note_on_c, 0, 69, 36
1, 155520, Note_on_c, 0, 57, 36
1, 155712, Note_off_c, 0, 57, 0
1, 155712, Note_off_c, 0, 69, 0
1, 155712, Note_on_c, 0, 74, 36
1, 155712, Note_on_c, 0, 62, 36
1, 155904, Note_off_c, 0, 62, 0
1, 155904, Note_off_c, 0, 74, 0
1, 155904, Note_on_c, 0, 63, 36
1, 155904, Note_on_c, 0, 51, 36
1, 156096, Note_off_c, 0, 51, 0
1, 156096, Note_off_c, 0, 63, 0
1, 156096, Note_on_c, 0, 67, 36
1, 156096, Note_on_c, 0, 55, 36
1, 156288, Note_off_c, 0, 55, 0
1, 156288, Note_off_c, 0, 67, 0
1, 156288, Note_on_c, 0, 69, 36
1, 156288, Note_on_c, 0, 57, 36
1, 156480, Note_off_c, 0, 57, 0
1, 156480, Note_off_c, 0, 69, 0
1, 156480, Note_on_c, 0, 74, 36
1, 156480, Note_on_c, 0, 62, 36
1, 156672, Note_off_c, 0, 62, 0
1, 156672, Note_off_c, 0, 74, 0
1, 156672, Note_on_c, 0, 62, 36
1, 156672, Note_on_c, 0, 50, 36
1, 156864, Note_off_c, 0, 50, 0
1, 156864, Note_off_c, 0, 62, 0
1, 156864, Note_on_c, 0, 67, 36
1, 156864, Note_on_c, 0, 55, 36
1, 157056, Note_off_c, 0, 55, 0
1, 157056, Note_off_c, 0, 67, 0
1, 157056, Note_on_c, 0, 69, 36
1, 157056, Note_on_c, 0, 57, 36
1, 157248, Note_off_c, 0, 57, 0
1, 157248, Note_off_c, 0, 69, 0
1, 157248, Note_on_c, 0, 74, 36
1, 157248, Note_on_c, 0, 62, 36
1, 157440, Note_off_c, 0, 62, 0
1, 157440, Note_off_c, 0, 74, 0
1, 157440, Note_on_c, 0, 63, 36
1, 157440, Note_on_c, 0, 51, 36
1, 157632, Note_off_c, 0, 51, 0
1, 157632, Note_off_c, 0, 63, 0
1, 157632, Note_on_c, 0, 67, 36
1, 157632, Note_on_c, 0, 55, 36
1, 157824, Note_off_c, 0, 55, 0
1, 157824, Note_off_c, 0, 67, 0
1, 157824, Note_on_c, 0, 69, 36
1, 157824, Note_on_c, 0, 57, 36
1, 158016, Note_off_c, 0, 57, 0
1, 158016, Note_off_c, 0, 69, 0
1, 158016, Note_on_c, 0, 74, 36
1, 158016, Note_on_c, 0, 62, 36
1, 158208, Note_off_c, 0, 62, 0
1, 158208, Note_off_c, 0, 74, 0
1, 158208, Note_on_c, 0, 64, 36
1, 158208, Note_on_c, 0, 52, 36
1, 158400, Note_off_c, 0, 52, 0
1, 158400, Note_off_c, 0, 64, 0
1, 158400, Note_on_c, 0, 67, 36
1, 158400, Note_on_c, 0, 55, 36
1, 158592, Note_off_c, 0, 55, 0
1, 158592, Note_off_c, 0, 67, 0
1, 158592, Note_on_c, 0, 69, 36
1, 158592, Note_on_c, 0, 57, 36
1, 158784, Note_off_c, 0, 57, 0
1, 158784, Note_off_c, 0, 69, 0
1, 158784, Note_on_c, 0, 74, 36
1, 158784, Note_on_c, 0, 62, 36
1, 158976, Note_off_c, 0, 62, 0
1, 158976, Note_off_c, 0, 74, 0
1, 158976, Note_on_c, 0, 63, 36
1, 158976, Note_on_c, 0, 51, 36
1, 159168, Note_off_c, 0, 51, 0
1, 159168, Note_off_c, 0, 63, 0
1, 159168, Note_on_c, 0, 67, 36
1, 159168, Note_on_c, 0, 55, 36
1, 159360, Note_off_c, 0, 55, 0
1, 159360, Note_off_c, 0, 67, 0
1, 159360, Note_on_c, 0, 69, 36
1, 159360, Note_on_c, 0, 57, 36
1, 159552, Note_off_c, 0, 57, 0
1, 159552, Note_off_c, 0, 69, 0
1, 159552, Note_on_c, 0, 74, 36
1, 159552, Note_on_c, 0, 62, 36
1, 159744, Note_off_c, 0, 62, 0
1, 159744, Note_off_c, 0, 74, 0
1, 159744, Note_on_c, 0, 62, 36
1, 159744, Note_on_c, 0, 50, 36
1, 159936, Note_off_c, 0, 50, 0
1, 159936, Note_off_c, 0, 62, 0
1, 159936, Note_on_c, 0, 67, 36
1, 159936, Note_on_c, 0, 55, 36
1, 160128, Note_off_c, 0, 55, 0
1, 160128, Note_off_c, 0, 67, 0
1, 160128, Note_on_c, 0, 69, 36
1, 160128, Note_on_c, 0, 57, 36
1, 160320, Note_off_c, 0, 57, 0
1, 160320, Note_off_c, 0, 69, 0
1, 160320, Note_on_c, 0, 74, 36
1, 160320, Note_on_c, 0, 62, 36
1, 160512, Note_off_c, 0, 62, 0
1, 160512, Note_off_c, 0, 74, 0
1, 160512, Note_on_c, 0, 63, 36
1, 160512, Note_on_c, 0, 51, 36
1, 160704, Note_off_c, 0, 51, 0
1, 160704, Note_off_c, 0, 63, 0
1, 160704, Note_on_c, 0, 67, 36
1, 160704, Note_on_c, 0, 55, 36
1, 160896, Note_off_c, 0, 55, 0
1, 160896, Note_off_c, 0, 67, 0
1, 160896, Note_on_c, 0, 69, 36
1, 160896, Note_on_c, 0, 57, 36
1, 161088, Note_off_c, 0, 57, 0
1, 161088, Note_off_c, 0, 69, 0
1, 161088, Note_on_c, 0, 74, 36
1, 161088, Note_on_c, 0, 62, 36
1, 161280, Note_off_c, 0, 62, 0
1, 161280, Note_off_c, 0, 74, 0
1, 161280, Note_on_c, 0, 64, 36
1, 161280, Note_on_c, 0, 52, 36
1, 161472, Note_off_c, 0, 52, 0
1, 161472, Note_off_c, 0, 64, 0
1, 161472, Note_on_c, 0, 67, 36
1, 161472, Note_on_c, 0, 55, 36
1, 161664, Note_off_c, 0, 55, 0
1, 161664, Note_off_c, 0, 67, 0
1, 161664, Note_on_c, 0, 69, 36
1, 161664, Note_on_c, 0, 57, 36
1, 161856, Note_off_c, 0, 57, 0
1, 161856, Note_off_c, 0, 69, 0
1, 161856, Note_on_c, 0, 74, 36
1, 161856, Note_on_c, 0, 62, 36
1, 162048, Note_off_c, 0, 62, 0
1, 162048, Note_off_c, 0, 74, 0
1, 162048, Note_on_c, 0, 63, 36
1, 162048, Note_on_c, 0, 51, 36
1, 162240, Note_off_c, 0, 51, 0
1, 162240, Note_off_c, 0, 63, 0
1, 162240, Note_on_c, 0, 67, 36
1, 162240, Note_on_c, 0, 55, 36
1, 162432, Note_off_c, 0, 55, 0
1, 162432, Note_off_c, 0, 67, 0
1, 162432, Note_on_c, 0, 69, 36
1, 162432, Note_on_c, 0, 57, 36
1, 162624, Note_off_c, 0, 57, 0
1, 162624, Note_off_c, 0, 69, 0
1, 162624, Note_on_c, 0, 74, 36
1, 162624, Note_on_c, 0, 62, 36
1, 162816, Note_off_c, 0, 62, 0
1, 162816, Note_off_c, 0, 74, 0
1, 162816, Note_on_c, 0, 62, 36
1, 162816, Note_on_c, 0, 50, 36
1, 163008, Note_off_c, 0, 50, 0
1, 163008, Note_off_c, 0, 62, 0
1, 163008, Note_on_c, 0, 67, 36
1, 163008, Note_on_c, 0, 55, 36
1, 163200, Note_off_c, 0, 55, 0
1, 163200, Note_off_c, 0, 67, 0
1, 163200, Note_on_c, 0, 69, 36
1, 163200, Note_on_c, 0, 57, 36
1, 163392, Note_off_c, 0, 57, 0
1, 163392, Note_off_c, 0, 69, 0
1, 163392, Note_on_c, 0, 74, 36
1, 163392, Note_on_c, 0, 62, 36
1, 163584, Note_off_c, 0, 62, 0
1, 163584, Note_off_c, 0, 74, 0
1, 163584, Note_on_c, 0, 63, 36
1, 163584, Note_on_c, 0, 51, 36
1, 163776, Note_off_c, 0, 51, 0
1, 163776, Note_off_c, 0, 63, 0
1, 163776, Note_on_c, 0, 67, 36
1, 163776, Note_on_c, 0, 55, 36
1, 163968, Note_off_c, 0, 55, 0
1, 163968, Note_off_c, 0, 67, 0
1, 163968, Note_on_c, 0, 69, 36
1, 163968, Note_on_c, 0, 57, 36
1, 164160, Note_off_c, 0, 57, 0
1, 164160, Note_off_c, 0, 69, 0
1, 164160, Note_on_c, 0, 74, 36
1, 164160, Note_on_c, 0, 62, 36
1, 164352, Note_off_c, 0, 62, 0
1, 164352, Note_off_c, 0, 74, 0
1, 164352, Note_on_c, 0, 64, 36
1, 164352, Note_on_c, 0, 52, 36
1, 164544, Note_off_c, 0, 52, 0
1, 164544, Note_off_c, 0, 64, 0
1, 164544, Note_on_c, 0, 67, 36
1, 164544, Note_on_c, 0, 55, 36
1, 164736, Note_off_c, 0, 55, 0
1, 164736, Note_off_c, 0, 67, 0
1, 164736, Note_on_c, 0, 69, 36
1, 164736, Note_on_c, 0, 57, 36
1, 164928, Note_off_c, 0, 57, 0
1, 164928, Note_off_c, 0, 69, 0
1, 164928, Note_on_c, 0, 74, 36
1, 164928, Note_on_c, 0, 62, 36
1, 165120, Note_off_c, 0, 50, 0
1, 165120, Note_off_c, 0, 62, 0
1, 165120, Note_off_c, 0, 74, 0
1, 165120, Note_on_c, 0, 63, 36
1, 165120, Note_on_c, 0, 50, 36
1, 165120, Note_on_c, 0, 51, 36
1, 165168, Note_off_c, 0, 48, 0
1, 165168, Note_on_c, 0, 48, 36
1, 165312, Note_off_c, 0, 51, 0
1, 165312, Note_off_c, 0, 63, 0
1, 165312, Note_on_c, 0, 67, 36
1, 165312, Note_on_c, 0, 55, 36
1, 165504, Note_off_c, 0, 55, 0
1, 165504, Note_off_c, 0, 67, 0
1, 165504, Note_on_c, 0, 69, 36
1, 165504, Note_on_c, 0, 57, 36
1, 165696, Note_off_c, 0, 57, 0
1, 165696, Note_off_c, 0, 69, 0
1, 165696, Note_on_c, 0, 74, 36
1, 165696, Note_on_c, 0, 62, 36
1, 165888, Note_off_c, 0, 62, 0
1, 165888, Note_off_c, 0, 74, 0
1, 165888, Note_on_c, 0, 62, 36
1, 165888, Note_on_c, 0, 50, 36
1, 166080, Note_off_c, 0, 50, 0
1, 166080, Note_off_c, 0, 62, 0
1, 166080, Note_on_c, 0, 67, 36
1, 166080, Note_on_c, 0, 55, 36
1, 166272, Note_off_c, 0, 55, 0
1, 166272, Note_off_c, 0, 67, 0
1, 166272, Note_on_c, 0, 69, 36
1, 166272, Note_on_c, 0, 57, 36
1, 166464, Note_off_c, 0, 57, 0
1, 166464, Note_off_c, 0, 69, 0
1, 166464, Note_on_c, 0, 74, 36
1, 166464, Note_on_c, 0, 62, 36
1, 166656, Note_off_c, 0, 62, 0
1, 166656, Note_off_c, 0, 74, 0
1, 166656, Note_on_c, 0, 63, 36
1, 166656, Note_on_c, 0, 51, 36
1, 166848, Note_off_c, 0, 51, 0
1, 166848, Note_off_c, 0, 63, 0
1, 166848, Note_on_c, 0, 67, 36
1, 166848, Note_on_c, 0, 55, 36
1, 167040, Note_off_c, 0, 55, 0
1, 167040, Note_off_c, 0, 67, 0
1, 167040, Note_on_c, 0, 69, 36
1, 167040, Note_on_c, 0, 57, 36
1, 167232, Note_off_c, 0, 57, 0
1, 167232, Note_off_c, 0, 69, 0
1, 167232, Note_on_c, 0, 74, 36
1, 167232, Note_on_c, 0, 62, 36
1, 167424, Note_off_c, 0, 62, 0
1, 167424, Note_off_c, 0, 74, 0
1, 167424, Note_on_c, 0, 64, 36
1, 167424, Note_on_c, 0, 52, 36
1, 167616, Note_off_c, 0, 52, 0
1, 167616, Note_off_c, 0, 64, 0
1, 167616, Note_on_c, 0, 67, 36
1, 167616, Note_on_c, 0, 55, 36
1, 167808, Note_off_c, 0, 55, 0
1, 167808, Note_off_c, 0, 67, 0
1, 167808, Note_on_c, 0, 69, 36
1, 167808, Note_on_c, 0, 57, 36
1, 168000, Note_off_c, 0, 57, 0
1, 168000, Note_off_c, 0, 69, 0
1, 168000, Note_on_c, 0, 74, 36
1, 168000, Note_on_c, 0, 62, 36
1, 168192, Note_off_c, 0, 62, 0
1, 168192, Note_off_c, 0, 74, 0
1, 168192, Note_on_c, 0, 63, 36
1, 168192, Note_on_c, 0, 51, 36
1, 168384, Note_off_c, 0, 51, 0
1, 168384, Note_off_c, 0, 63, 0
1, 168384, Note_on_c, 0, 67, 36
1, 168384, Note_on_c, 0, 55, 36
1, 168576, Note_off_c, 0, 55, 0
1, 168576, Note_off_c, 0, 67, 0
1, 168576, Note_on_c, 0, 69, 36
1, 168576, Note_on_c, 0, 57, 36
1, 168768, Note_off_c, 0, 57, 0
1, 168768, Note_off_c, 0, 69, 0
1, 168768, Note_on_c, 0, 74, 36
1, 168768, Note_on_c, 0, 62, 36
1, 168960, Note_off_c, 0, 62, 0
1, 168960, Note_off_c, 0, 74, 0
1, 168960, Note_on_c, 0, 62, 36
1, 168960, Note_on_c, 0, 50, 36
1, 169152, Note_off_c, 0, 50, 0
1, 169152, Note_off_c, 0, 62, 0
1, 169152, Note_on_c, 0, 67, 36
1, 169152, Note_on_c, 0, 55, 36
1, 169344, Note_off_c, 0, 55, 0
1, 169344, Note_off_c, 0, 67, 0
1, 169344, Note_on_c, 0, 69, 36
1, 169344, Note_on_c, 0, 57, 36
1, 169536, Note_off_c, 0, 57, 0
1, 169536, Note_off_c, 0, 69, 0
1, 169536, Note_on_c, 0, 74, 36
1, 169536, Note_on_c, 0, 62, 36
1, 169728, Note_off_c, 0, 62, 0
1, 169728, Note_off_c, 0, 74, 0
1, 169728, Note_on_c, 0, 63, 36
1, 169728, Note_on_c, 0, 51, 36
1, 169920, Note_off_c, 0, 51, 0
1, 169920, Note_off_c, 0, 63, 0
1, 169920, Note_on_c, 0, 67, 36
1, 169920, Note_on_c, 0, 55, 36
1, 170112, Note_off_c, 0, 55, 0
1, 170112, Note_off_c, 0, 67, 0
1, 170112, Note_on_c, 0, 69, 36
1, 170112, Note_on_c, 0, 57, 36
1, 170304, Note_off_c, 0, 57, 0
1, 170304, Note_off_c, 0, 69, 0
1, 170304, Note_on_c, 0, 74, 36
1, 170304, Note_on_c, 0, 62, 36
1, 170496, Note_off_c, 0, 62, 0
1, 170496, Note_off_c, 0, 74, 0
1, 170496, Note_on_c, 0, 64, 36
1, 170496, Note_on_c, 0, 52, 36
1, 170688, Note_off_c, 0, 52, 0
1, 170688, Note_off_c, 0, 64, 0
1, 170688, Note_on_c, 0, 67, 36
1, 170688, Note_on_c, 0, 55, 36
1, 170880, Note_off_c, 0, 55, 0
1, 170880, Note_off_c, 0, 67, 0
1, 170880, Note_on_c, 0, 69, 36
1, 170880, Note_on_c, 0, 57, 36
1, 171072, Note_off_c, 0, 57, 0
1, 171072, Note_off_c, 0, 69, 0
1, 171072, Note_on_c, 0, 74, 36
1, 171072, Note_on_c, 0, 62, 36
1, 171264, Note_off_c, 0, 62, 0
1, 171264, Note_off_c, 0, 74, 0
1, 171264, Note_on_c, 0, 63, 36
1, 171264, Note_on_c, 0, 51, 36
1, 171456, Note_off_c, 0, 51, 0
1, 171456, Note_off_c, 0, 63, 0
1, 171456, Note_on_c, 0, 67, 36
1, 171456, Note_on_c, 0, 55, 36
1, 171648, Note_off_c, 0, 55, 0
1, 171648, Note_off_c, 0, 67, 0
1, 171648, Note_on_c, 0, 69, 36
1, 171648, Note_on_c, 0, 57, 36
1, 171840, Note_off_c, 0, 57, 0
1, 171840, Note_off_c, 0, 69, 0
1, 171840, Note_on_c, 0, 74, 36
1, 171840, Note_on_c, 0, 62, 36
1, 172032, Note_off_c, 0, 62, 0
1, 172032, Note_off_c, 0, 74, 0
1, 172032, Note_on_c, 0, 62, 36
1, 172032, Note_on_c, 0, 50, 36
1, 172224, Note_off_c, 0, 50, 0
1, 172224, Note_off_c, 0, 62, 0
1, 172224, Note_on_c, 0, 67, 36
1, 172224, Note_on_c, 0, 55, 36
1, 172416, Note_off_c, 0, 55, 0
1, 172416, Note_off_c, 0, 67, 0
1, 172416, Note_on_c, 0, 69, 36
1, 172416, Note_on_c, 0, 57, 36
1, 172608, Note_off_c, 0, 57, 0
1, 172608, Note_off_c, 0, 69, 0
1, 172608, Note_on_c, 0, 74, 36
1, 172608, Note_on_c, 0, 62, 36
1, 172800, Note_off_c, 0, 62, 0
1, 172800, Note_off_c, 0, 74, 0
1, 172800, Note_on_c, 0, 63, 36
1, 172800, Note_on_c, 0, 51, 36
1, 172992, Note_off_c, 0, 51, 0
1, 172992, Note_off_c, 0, 63, 0
1, 172992, Note_on_c, 0, 67, 36
1, 172992, Note_on_c, 0, 55, 36
1, 173184, Note_off_c, 0, 55, 0
1, 173184, Note_off_c, 0, 67, 0
1, 173184, Note_on_c, 0, 69, 36
1, 173184, Note_on_c, 0, 57, 36
1, 173376, Note_off_c, 0, 57, 0
1, 173376, Note_off_c, 0, 69, 0
1, 173376, Note_on_c, 0, 74, 36
1, 173376, Note_on_c, 0, 62, 36
1, 173568, Note_off_c, 0, 62, 0
1, 173568, Note_off_c, 0, 74, 0
1, 173568, Note_on_c, 0, 64, 36
1, 173568, Note_on_c, 0, 52, 36
1, 173760, Note_off_c, 0, 52, 0
1, 173760, Note_off_c, 0, 64, 0
1, 173760, Note_on_c, 0, 67, 36
1, 173760, Note_on_c, 0, 55, 36
1, 173952, Note_off_c, 0, 55, 0
1, 173952, Note_off_c, 0, 67, 0
1, 173952, Note_on_c, 0, 69, 36
1, 173952, Note_on_c, 0, 57, 36
1, 174144, Note_off_c, 0, 57, 0
1, 174144, Note_off_c, 0, 69, 0
1, 174144, Note_on_c, 0, 74, 36
1, 174144, Note_on_c, 0, 62, 36
1, 174336, Note_off_c, 0, 62, 0
1, 174336, Note_off_c, 0, 74, 0
1, 174336, Note_on_c, 0, 63, 36
1, 174336, Note_on_c, 0, 51, 36
1, 174528, Note_off_c, 0, 51, 0
1, 174528, Note_off_c, 0, 63, 0
1, 174528, Note_on_c, 0, 67, 36
1, 174528, Note_on_c, 0, 55, 36
1, 174720, Note_off_c, 0, 55, 0
1, 174720, Note_off_c, 0, 67, 0
1, 174720, Note_on_c, 0, 69, 36
1, 174720, Note_on_c, 0, 57, 36
1, 174912, Note_off_c, 0, 57, 0
1, 174912, Note_off_c, 0, 69, 0
1, 174912, Note_on_c, 0, 74, 36
1, 174912, Note_on_c, 0, 62, 36
1, 175104, Note_off_c, 0, 62, 0
1, 175104, Note_off_c, 0, 74, 0
1, 175104, Note_on_c, 0, 62, 36
1, 175104, Note_on_c, 0, 50, 36
1, 175296, Note_off_c, 0, 50, 0
1, 175296, Note_off_c, 0, 62, 0
1, 175296, Note_on_c, 0, 67, 36
1, 175296, Note_on_c, 0, 55, 36
1, 175488, Note_off_c, 0, 55, 0
1, 175488, Note_off_c, 0, 67, 0
1, 175488, Note_on_c, 0, 69, 36
1, 175488, Note_on_c, 0, 57, 36
1, 175680, Note_off_c, 0, 57, 0
1, 175680, Note_off_c, 0, 69, 0
1, 175680, Note_on_c, 0, 74, 36
1, 175680, Note_on_c, 0, 62, 36
1, 175872, Note_off_c, 0, 62, 0
1, 175872, Note_off_c, 0, 74, 0
1, 175872, Note_on_c, 0, 63, 36
1, 175872, Note_on_c, 0, 51, 36
1, 176064, Note_off_c, 0, 51, 0
1, 176064, Note_off_c, 0, 63, 0
1, 176064, Note_on_c, 0, 67, 36
1, 176064, Note_on_c, 0, 55, 36
1, 176256, Note_off_c, 0, 55, 0
1, 176256, Note_off_c, 0, 67, 0
1, 176256, Note_on_c, 0, 69, 36
1, 176256, Note_on_c, 0, 57, 36
1, 176448, Note_off_c, 0, 57, 0
1, 176448, Note_off_c, 0, 69, 0
1, 176448, Note_on_c, 0, 74, 36
1, 176448, Note_on_c, 0, 62, 36
1, 176640, Note_off_c, 0, 62, 0
1, 176640, Note_off_c, 0, 74, 0
1, 176640, Note_on_c, 0, 64, 36
1, 176640, Note_on_c, 0, 52, 36
1, 176832, Note_off_c, 0, 52, 0
1, 176832, Note_off_c, 0, 64, 0
1, 176832, Note_on_c, 0, 67, 36
1, 176832, Note_on_c, 0, 55, 36
1, 177024, Note_off_c, 0, 55, 0
1, 177024, Note_off_c, 0, 67, 0
1, 177024, Note_on_c, 0, 69, 36
1, 177024, Note_on_c, 0, 57, 36
1, 177216, Note_off_c, 0, 57, 0
1, 177216, Note_off_c, 0, 69, 0
1, 177216, Note_on_c, 0, 74, 36
1, 177216, Note_on_c, 0, 62, 36
1, 177408, Note_off_c, 0, 62, 0
1, 177408, Note_off_c, 0, 74, 0
1, 177408, Note_on_c, 0, 63, 36
1, 177408, Note_on_c, 0, 51, 36
1, 177600, Note_off_c, 0, 51, 0
1, 177600, Note_off_c, 0, 63, 0
1, 177600, Note_on_c, 0, 67, 36
1, 177600, Note_on_c, 0, 55, 36
1, 177792, Note_off_c, 0, 55, 0
1, 177792, Note_off_c, 0, 67, 0
1, 177792, Note_on_c, 0, 69, 36
1, 177792, Note_on_c, 0, 57, 36
1, 177984, Note_off_c, 0, 57, 0
1, 177984, Note_off_c, 0, 69, 0
1, 177984, Note_on_c, 0, 74, 36
1, 177984, Note_on_c, 0, 62, 36
1, 178176, Note_off_c, 0, 62, 0
1, 178176, Note_off_c, 0, 74, 0
1, 178176, Note_on_c, 0, 62, 36
1, 178176, Note_on_c, 0, 50, 36
1, 178368, Note_off_c, 0, 50, 0
1, 178368, Note_off_c, 0, 62, 0
1, 178368, Note_on_c, 0, 67, 36
1, 178368, Note_on_c, 0, 55, 36
1, 178560, Note_off_c, 0, 55, 0
1, 178560, Note_off_c, 0, 67, 0
1, 178560, Note_on_c, 0, 69, 36
1, 178560, Note_on_c, 0, 57, 36
1, 178752, Note_off_c, 0, 57, 0
1, 178752, Note_off_c, 0, 69, 0
1, 178752, Note_on_c, 0, 74, 36
1, 178752, Note_on_c, 0, 62, 36
1, 178944, Note_off_c, 0, 62, 0
1, 178944, Note_off_c, 0, 74, 0
1, 178944, Note_on_c, 0, 63, 36
1, 178944, Note_on_c, 0, 51, 36
1, 179136, Note_off_c, 0, 51, 0
1, 179136, Note_off_c, 0, 63, 0
1, 179136, Note_on_c, 0, 67, 36
1, 179136, Note_on_c, 0, 55, 36
1, 179328, Note_off_c, 0, 55, 0
1, 179328, Note_off_c, 0, 67, 0
1, 179328, Note_on_c, 0, 69, 36
1, 179328, Note_on_c, 0, 57, 36
1, 179520, Note_off_c, 0, 57, 0
1, 179520, Note_off_c, 0, 69, 0
1, 179520, Note_on_c, 0, 74, 36
1, 179520, Note_on_c, 0, 62, 36
1, 179712, Note_off_c, 0, 62, 0
1, 179712, Note_off_c, 0, 74, 0
1, 179712, Note_on_c, 0, 64, 36
1, 179712, Note_on_c, 0, 52, 36
1, 179904, Note_off_c, 0, 52, 0
1, 179904, Note_off_c, 0, 64, 0
1, 179904, Note_on_c, 0, 67, 36
1, 179904, Note_on_c, 0, 55, 36
1, 180096, Note_off_c, 0, 55, 0
1, 180096, Note_off_c, 0, 67, 0
1, 180096, Note_on_c, 0, 69, 36
1, 180096, Note_on_c, 0, 57, 36
1, 180288, Note_off_c, 0, 57, 0
1, 180288, Note_off_c, 0, 69, 0
1, 180288, Note_on_c, 0, 74, 36
1, 180288, Note_on_c, 0, 62, 36
1, 180480, Note_off_c, 0, 62, 0
1, 180480, Note_off_c, 0, 74, 0
1, 180480, Note_on_c, 0, 63, 36
1, 180480, Note_on_c, 0, 51, 36
1, 180672, Note_off_c, 0, 51, 0
1, 180672, Note_off_c, 0, 63, 0
1, 180672, Note_on_c, 0, 67, 36
1, 180672, Note_on_c, 0, 55, 36
1, 180864, Note_off_c, 0, 55, 0
1, 180864, Note_off_c, 0, 67, 0
1, 180864, Note_on_c, 0, 69, 36
1, 180864, Note_on_c, 0, 57, 36
1, 181056, Note_off_c, 0, 57, 0
1, 181056, Note_off_c, 0, 69, 0
1, 181056, Note_on_c, 0, 74, 36
1, 181056, Note_on_c, 0, 62, 36
1, 181248, Note_off_c, 0, 62, 0
1, 181248, Note_off_c, 0, 74, 0
1, 181248, Note_on_c, 0, 62, 36
1, 181248, Note_on_c, 0, 50, 36
1, 181440, Note_off_c, 0, 50, 0
1, 181440, Note_off_c, 0, 62, 0
1, 181440, Note_on_c, 0, 67, 36
1, 181440, Note_on_c, 0, 55, 36
1, 181632, Note_off_c, 0, 55, 0
1, 181632, Note_off_c, 0, 67, 0
1, 181632, Note_on_c, 0, 69, 36
1, 181632, Note_on_c, 0, 57, 36
1, 181824, Note_off_c, 0, 57, 0
1, 181824, Note_off_c, 0, 69, 0
1, 181824, Note_on_c, 0, 74, 36
1, 181824, Note_on_c, 0, 62, 36
1, 182016, Note_off_c, 0, 62, 0
1, 182016, Note_off_c, 0, 74, 0
1, 182016, Note_on_c, 0, 63, 36
1, 182016, Note_on_c, 0, 51, 36
1, 182208, Note_off_c, 0, 51, 0
1, 182208, Note_off_c, 0, 63, 0
1, 182208, Note_on_c, 0, 67, 36
1, 182208, Note_on_c, 0, 55, 36
1, 182400, Note_off_c, 0, 55, 0
1, 182400, Note_off_c, 0, 67, 0
1, 182400, Note_on_c, 0, 69, 36
1, 182400, Note_on_c, 0, 57, 36
1, 182592, Note_off_c, 0, 57, 0
1, 182592, Note_off_c, 0, 69, 0
1, 182592, Note_on_c, 0, 74, 36
1, 182592, Note_on_c, 0, 62, 36
1, 182784, Note_off_c, 0, 62, 0
1, 182784, Note_off_c, 0, 74, 0
1, 182784, Note_on_c, 0, 64, 36
1, 182784, Note_on_c, 0, 52, 36
1, 182976, Note_off_c, 0, 52, 0
1, 182976, Note_off_c, 0, 64, 0
1, 182976, Note_on_c, 0, 67, 36
1, 182976, Note_on_c, 0, 55, 36
1, 183168, Note_off_c, 0, 55, 0
1, 183168, Note_off_c, 0, 67, 0
1, 183168, Note_on_c, 0, 69, 36
1, 183168, Note_on_c, 0, 57, 36
1, 183360, Note_off_c, 0, 57, 0
1, 183360, Note_off_c, 0, 69, 0
1, 183360, Note_on_c, 0, 74, 36
1, 183360, Note_on_c, 0, 62, 36
1, 183552, Note_off_c, 0, 62, 0
1, 183552, Note_off_c, 0, 74, 0
1, 183552, Note_on_c, 0, 63, 36
1, 183552, Note_on_c, 0, 51, 36
1, 183744, Note_off_c, 0, 51, 0
1, 183744, Note_off_c, 0, 63, 0
1, 183744, Note_on_c, 0, 67, 36
1, 183744, Note_on_c, 0, 55, 36
1, 183936, Note_off_c, 0, 55, 0
1, 183936, Note_off_c, 0, 67, 0
1, 183936, Note_on_c, 0, 69, 36
1, 183936, Note_on_c, 0, 57, 36
1, 184128, Note_off_c, 0, 57, 0
1, 184128, Note_off_c, 0, 69, 0
1, 184128, Note_on_c, 0, 74, 36
1, 184128, Note_on_c, 0, 62, 36
1, 184320, Note_off_c, 0, 62, 0
1, 184320, Note_off_c, 0, 74, 0
1, 184320, Note_on_c, 0, 62, 36
1, 184320, Note_on_c, 0, 50, 36
1, 184512, Note_off_c, 0, 50, 0
1, 184512, Note_off_c, 0, 62, 0
1, 184512, Note_on_c, 0, 67, 36
1, 184512, Note_on_c, 0, 55, 36
1, 184704, Note_off_c, 0, 55, 0
1, 184704, Note_off_c, 0, 67, 0
1, 184704, Note_on_c, 0, 69, 36
1, 184704, Note_on_c, 0, 57, 36
1, 184896, Note_off_c, 0, 57, 0
1, 184896, Note_off_c, 0, 69, 0
1, 184896, Note_on_c, 0, 74, 36
1, 184896, Note_on_c, 0, 62, 36
1, 185088, Note_off_c, 0, 62, 0
1, 185088, Note_off_c, 0, 74, 0
1, 185088, Note_on_c, 0, 63, 36
1, 185088, Note_on_c, 0, 51, 36
1, 185280, Note_off_c, 0, 51, 0
1, 185280, Note_off_c, 0, 63, 0
1, 185280, Note_on_c, 0, 67, 36
1, 185280, Note_on_c, 0, 55, 36
1, 185472, Note_off_c, 0, 55, 0
1, 185472, Note_off_c, 0, 67, 0
1, 185472, Note_on_c, 0, 69, 36
1, 185472, Note_on_c, 0, 57, 36
1, 185664, Note_off_c, 0, 57, 0
1, 185664, Note_off_c, 0, 69, 0
1, 185664, Note_on_c, 0, 74, 36
1, 185664, Note_on_c, 0, 62, 36
1, 185856, Note_off_c, 0, 62, 0
1, 185856, Note_off_c, 0, 74, 0
1, 185856, Note_on_c, 0, 64, 36
1, 185856, Note_on_c, 0, 52, 36
1, 186048, Note_off_c, 0, 52, 0
1, 186048, Note_off_c, 0, 64, 0
1, 186048, Note_on_c, 0, 67, 36
1, 186048, Note_on_c, 0, 55, 36
1, 186240, Note_off_c, 0, 55, 0
1, 186240, Note_off_c, 0, 67, 0
1, 186240, Note_on_c, 0, 69, 36
1, 186240, Note_on_c, 0, 57, 36
1, 186432, Note_off_c, 0, 57, 0
1, 186432, Note_off_c, 0, 69, 0
1, 186432, Note_on_c, 0, 74, 36
1, 186432, Note_on_c, 0, 62, 36
1, 186624, Note_off_c, 0, 62, 0
1, 186624, Note_off_c, 0, 74, 0
1, 186624, Note_on_c, 0, 63, 36
1, 186624, Note_on_c, 0, 51, 36
1, 186816, Note_off_c, 0, 51, 0
1, 186816, Note_off_c, 0, 63, 0
1, 186816, Note_on_c, 0, 67, 36
1, 186816, Note_on_c, 0, 55, 36
1, 187008, Note_off_c, 0, 55, 0
1, 187008, Note_off_c, 0, 67, 0
1, 187008, Note_on_c, 0, 69, 36
1, 187008, Note_on_c, 0, 57, 36
1, 187200, Note_off_c, 0, 57, 0
1, 187200, Note_off_c, 0, 69, 0
1, 187200, Note_on_c, 0, 74, 36
1, 187200, Note_on_c, 0, 62, 36
1, 187392, Note_off_c, 0, 62, 0
1, 187392, Note_off_c, 0, 74, 0
1, 187392, Note_on_c, 0, 62, 36
1, 187392, Note_on_c, 0, 50, 36
1, 187584, Note_off_c, 0, 50, 0
1, 187584, Note_off_c, 0, 62, 0
1, 187584, Note_on_c, 0, 67, 36
1, 187584, Note_on_c, 0, 55, 36
1, 187776, Note_off_c, 0, 55, 0
1, 187776, Note_off_c, 0, 67, 0
1, 187776, Note_on_c, 0, 69, 36
1, 187776, Note_on_c, 0, 57, 36
1, 187968, Note_off_c, 0, 57, 0
1, 187968, Note_off_c, 0, 69, 0
1, 187968, Note_on_c, 0, 74, 36
1, 187968, Note_on_c, 0, 62, 36
1, 188160, Note_off_c, 0, 62, 0
1, 188160, Note_off_c, 0, 74, 0
1, 188160, Note_on_c, 0, 63, 36
1, 188160, Note_on_c, 0, 51, 36
1, 188352, Note_off_c, 0, 51, 0
1, 188352, Note_off_c, 0, 63, 0
1, 188352, Note_on_c, 0, 67, 36
1, 188352, Note_on_c, 0, 55, 36
1, 188544, Note_off_c, 0, 55, 0
1, 188544, Note_off_c, 0, 67, 0
1, 188544, Note_on_c, 0, 69, 36
1, 188544, Note_on_c, 0, 57, 36
1, 188736, Note_off_c, 0, 57, 0
1, 188736, Note_off_c, 0, 69, 0
1, 188736, Note_on_c, 0, 74, 36
1, 188736, Note_on_c, 0, 62, 36
1, 188928, Note_off_c, 0, 62, 0
1, 188928, Note_off_c, 0, 74, 0
1, 188928, Note_on_c, 0, 64, 36
1, 188928, Note_on_c, 0, 52, 36
1, 189120, Note_off_c, 0, 52, 0
1, 189120, Note_off_c, 0, 64, 0
1, 189120, Note_on_c, 0, 67, 36
1, 189120, Note_on_c, 0, 55, 36
1, 189312, Note_off_c, 0, 55, 0
1, 189312, Note_off_c, 0, 67, 0
1, 189312, Note_on_c, 0, 69, 36
1, 189312, Note_on_c, 0, 57, 36
1, 189504, Note_off_c, 0, 57, 0
1, 189504, Note_off_c, 0, 69, 0
1, 189504, Note_on_c, 0, 74, 36
1, 189504, Note_on_c, 0, 62, 36
1, 189696, Note_off_c, 0, 50, 0
1, 189696, Note_off_c, 0, 62, 0
1, 189696, Note_off_c, 0, 74, 0
1, 189696, Note_on_c, 0, 63, 36
1, 189696, Note_on_c, 0, 50, 36
1, 189696, Note_on_c, 0, 51, 36
1, 189744, Note_off_c, 0, 48, 0
1, 189744, Note_on_c, 0, 48, 36
1, 189888, Note_off_c, 0, 51, 0
1, 189888, Note_off_c, 0, 63, 0
1, 189888, Note_on_c, 0, 67, 36
1, 189888, Note_on_c, 0, 55, 36
1, 190080, Note_off_c, 0, 55, 0
1, 190080, Note_off_c, 0, 67, 0
1, 190080, Note_on_c, 0, 69, 36
1, 190080, Note_on_c, 0, 57, 36
1, 190272, Note_off_c, 0, 57, 0
1, 190272, Note_off_c, 0, 69, 0
1, 190272, Note_on_c, 0, 74, 36
1, 190272, Note_on_c, 0, 62, 36
1, 190464, Note_off_c, 0, 62, 0
1, 190464, Note_off_c, 0, 74, 0
1, 190464, Note_on_c, 0, 62, 36
1, 190464, Note_on_c, 0, 50, 36
1, 190656, Note_off_c, 0, 50, 0
1, 190656, Note_off_c, 0, 62, 0
1, 190656, Note_on_c, 0, 67, 36
1, 190656, Note_on_c, 0, 55, 36
1, 190848, Note_off_c, 0, 55, 0
1, 190848, Note_off_c, 0, 67, 0
1, 190848, Note_on_c, 0, 69, 36
1, 190848, Note_on_c, 0, 57, 36
1, 191040, Note_off_c, 0, 57, 0
1, 191040, Note_off_c, 0, 69, 0
1, 191040, Note_on_c, 0, 74, 36
1, 191040, Note_on_c, 0, 62, 36
1, 191232, Note_off_c, 0, 62, 0
1, 191232, Note_off_c, 0, 74, 0
1, 191232, Note_on_c, 0, 63, 36
1, 191232, Note_on_c, 0, 51, 36
1, 191424, Note_off_c, 0, 51, 0
1, 191424, Note_off_c, 0, 63, 0
1, 191424, Note_on_c, 0, 67, 36
1, 191424, Note_on_c, 0, 55, 36
1, 191616, Note_off_c, 0, 55, 0
1, 191616, Note_off_c, 0, 67, 0
1, 191616, Note_on_c, 0, 69, 36
1, 191616, Note_on_c, 0, 57, 36
1, 191808, Note_off_c, 0, 57, 0
1, 191808, Note_off_c, 0, 69, 0
1, 191808, Note_on_c, 0, 74, 36
1, 191808, Note_on_c, 0, 62, 36
1, 192000, Note_off_c, 0, 62, 0
1, 192000, Note_off_c, 0, 74, 0
1, 192000, Note_on_c, 0, 64, 36
1, 192000, Note_on_c, 0, 52, 36
1, 192192, Note_off_c, 0, 52, 0
1, 192192, Note_off_c, 0, 64, 0
1, 192192, Note_on_c, 0, 67, 36
1, 192192, Note_on_c, 0, 55, 36
1, 192384, Note_off_c, 0, 55, 0
1, 192384, Note_off_c, 0, 67, 0
1, 192384, Note_on_c, 0, 69, 36
1, 192384, Note_on_c, 0, 57, 36
1, 192576, Note_off_c, 0, 57, 0
1, 192576, Note_off_c, 0, 69, 0
1, 192576, Note_on_c, 0, 74, 36
1, 192576, Note_on_c, 0, 62, 36
1, 192768, Note_off_c, 0, 62, 0
1, 192768, Note_off_c, 0, 74, 0
1, 192768, Note_on_c, 0, 63, 36
1, 192768, Note_on_c, 0, 51, 36
1, 192960, Note_off_c, 0, 51, 0
1, 192960, Note_off_c, 0, 63, 0
1, 192960, Note_on_c, 0, 67, 36
1, 192960, Note_on_c, 0, 55, 36
1, 193152, Note_off_c, 0, 55, 0
1, 193152, Note_off_c, 0, 67, 0
1, 193152, Note_on_c, 0, 69, 36
1, 193152, Note_on_c, 0, 57, 36
1, 193344, Note_off_c, 0, 57, 0
1, 193344, Note_off_c, 0, 69, 0
1, 193344, Note_on_c, 0, 74, 36
1, 193344, Note_on_c, 0, 62, 36
1, 193536, Note_off_c, 0, 62, 0
1, 193536, Note_off_c, 0, 74, 0
1, 193536, Note_on_c, 0, 62, 36
1, 193536, Note_on_c, 0, 50, 36
1, 193728, Note_off_c, 0, 50, 0
1, 193728, Note_off_c, 0, 62, 0
1, 193728, Note_on_c, 0, 67, 36
1, 193728, Note_on_c, 0, 55, 36
1, 193920, Note_off_c, 0, 55, 0
1, 193920, Note_off_c, 0, 67, 0
1, 193920, Note_on_c, 0, 69, 36
1, 193920, Note_on_c, 0, 57, 36
1, 194112, Note_off_c, 0, 57, 0
1, 194112, Note_off_c, 0, 69, 0
1, 194112, Note_on_c, 0, 74, 36
1, 194112, Note_on_c, 0, 62, 36
1, 194304, Note_off_c, 0, 62, 0
1, 194304, Note_off_c, 0, 74, 0
1, 194304, Note_on_c, 0, 63, 36
1, 194304, Note_on_c, 0, 51, 36
1, 194496, Note_off_c, 0, 51, 0
1, 194496, Note_off_c, 0, 63, 0
1, 194496, Note_on_c, 0, 67, 36
1, 194496, Note_on_c, 0, 55, 36
1, 194688, Note_off_c, 0, 55, 0
1, 194688, Note_off_c, 0, 67, 0
1, 194688, Note_on_c, 0, 69, 36
1, 194688, Note_on_c, 0, 57, 36
1, 194880, Note_off_c, 0, 57, 0
1, 194880, Note_off_c, 0, 69, 0
1, 194880, Note_on_c, 0, 74, 36
1, 194880, Note_on_c, 0, 62, 36
1, 195072, Note_off_c, 0, 62, 0
1, 195072, Note_off_c, 0, 74, 0
1, 195072, Note_on_c, 0, 64, 36
1, 195072, Note_on_c, 0, 52, 36
1, 195264, Note_off_c, 0, 52, 0
1, 195264, Note_off_c, 0, 64, 0
1, 195264, Note_on_c, 0, 67, 36
1, 195264, Note_on_c, 0, 55, 36
1, 195456, Note_off_c, 0, 55, 0
1, 195456, Note_off_c, 0, 67, 0
1, 195456, Note_on_c, 0, 69, 36
1, 195456, Note_on_c, 0, 57, 36
1, 195648, Note_off_c, 0, 57, 0
1, 195648, Note_off_c, 0, 69, 0
1, 195648, Note_on_c, 0, 74, 36
1, 195648, Note_on_c, 0, 62, 36
1, 195840, Note_off_c, 0, 62, 0
1, 195840, Note_off_c, 0, 74, 0
1, 195840, Note_on_c, 0, 63, 36
1, 195840, Note_on_c, 0, 51, 36
1, 196032, Note_off_c, 0, 51, 0
1, 196032, Note_off_c, 0, 63, 0
1, 196032, Note_on_c, 0, 67, 36
1, 196032, Note_on_c, 0, 55, 36
1, 196224, Note_off_c, 0, 55, 0
1, 196224, Note_off_c, 0, 67, 0
1, 196224, Note_on_c, 0, 69, 36
1, 196224, Note_on_c, 0, 57, 36
1, 196416, Note_off_c, 0, 57, 0
1, 196416, Note_off_c, 0, 69, 0
1, 196416, Note_on_c, 0, 74, 36
1, 196416, Note_on_c, 0, 62, 36
1, 196608, Note_off_c, 0, 62, 0
1, 196608, Note_off_c, 0, 74, 0
1, 196608, Note_on_c, 0, 62, 36
1, 196608, Note_on_c, 0, 50, 36
1, 196800, Note_off_c, 0, 50, 0
1, 196800, Note_off_c, 0, 62, 0
1, 196800, Note_on_c, 0, 67, 36
1, 196800, Note_on_c, 0, 55, 36
1, 196992, Note_off_c, 0, 55, 0
1, 196992, Note_off_c, 0, 67, 0
1, 196992, Note_on_c, 0, 69, 36
1, 196992, Note_on_c, 0, 57, 36
1, 197184, Note_off_c, 0, 57, 0
1, 197184, Note_off_c, 0, 69, 0
1, 197184, Note_on_c, 0, 74, 36
1, 197184, Note_on_c, 0, 62, 36
1, 197376, Note_off_c, 0, 62, 0
1, 197376, Note_off_c, 0, 74, 0
1, 197376, Note_on_c, 0, 63, 36
1, 197376, Note_on_c, 0, 51, 36
1, 197568, Note_off_c, 0, 51, 0
1, 197568, Note_off_c, 0, 63, 0
1, 197568, Note_on_c, 0, 67, 36
1, 197568, Note_on_c, 0, 55, 36
1, 197760, Note_off_c, 0, 55, 0
1, 197760, Note_off_c, 0, 67, 0
1, 197760, Note_on_c, 0, 69, 36
1, 197760, Note_on_c, 0, 50, 36
1, 197760, Note_on_c, 0, 57, 36
1, 197856, Note_off_c, 0, 50, 0
1, 197856, Note_on_c, 0, 50, 36
1, 197952, Note_off_c, 0, 50, 0
1, 197952, Note_off_c, 0, 57, 0
1, 197952, Note_off_c, 0, 69, 0
1, 197952, Note_on_c, 0, 74, 36
1, 197952, Note_on_c, 0, 50, 36
1, 197952, Note_on_c, 0, 62, 36
1, 198048, Note_off_c, 0, 50, 0
1, 198048, Note_on_c, 0, 50, 36
1, 198144, Note_off_c, 0, 50, 0
1, 198144, Note_off_c, 0, 62, 0
1, 198144, Note_off_c, 0, 74, 0
1, 198144, Note_on_c, 0, 64, 36
1, 198144, Note_on_c, 0, 52, 36
1, 198336, Note_off_c, 0, 52, 0
1, 198336, Note_off_c, 0, 64, 0
1, 198336, Note_on_c, 0, 67, 36
1, 198336, Note_on_c, 0, 55, 36
1, 198528, Note_off_c, 0, 55, 0
1, 198528, Note_off_c, 0, 67, 0
1, 198528, Note_on_c, 0, 69, 36
1, 198528, Note_on_c, 0, 57, 36
1, 198720, Note_off_c, 0, 57, 0
1, 198720, Note_off_c, 0, 69, 0
1, 198720, Note_on_c, 0, 74, 36
1, 198720, Note_on_c, 0, 62, 36
1, 198912, Note_off_c, 0, 62, 0
1, 198912, Note_off_c, 0, 74, 0
1, 198912, Note_on_c, 0, 63, 36
1, 198912, Note_on_c, 0, 51, 36
1, 199104, Note_off_c, 0, 51, 0
1, 199104, Note_off_c, 0, 63, 0
1, 199104, Note_on_c, 0, 67, 36
1, 199104, Note_on_c, 0, 55, 36
1, 199296, Note_off_c, 0, 55, 0
1, 199296, Note_off_c, 0, 67, 0
1, 199296, Note_on_c, 0, 69, 36
1, 199296, Note_on_c, 0, 50, 36
1, 199296, Note_on_c, 0, 57, 36
1, 199392, Note_off_c, 0, 50, 0
1, 199392, Note_on_c, 0, 50, 36
1, 199488, Note_off_c, 0, 50, 0
1, 199488, Note_off_c, 0, 57, 0
1, 199488, Note_off_c, 0, 69, 0
1, 199488, Note_on_c, 0, 74, 36
1, 199488, Note_on_c, 0, 50, 36
1, 199488, Note_on_c, 0, 62, 36
1, 199584, Note_off_c, 0, 50, 0
1, 199584, Note_on_c, 0, 50, 36
1, 199680, Note_off_c, 0, 50, 0
1, 199680, Note_off_c, 0, 62, 0
1, 199680, Note_off_c, 0, 74, 0
1, 199680, Note_on_c, 0, 62, 36
1, 199680, Note_on_c, 0, 50, 36
1, 199872, Note_off_c, 0, 50, 0
1, 199872, Note_off_c, 0, 62, 0
1, 199872, Note_on_c, 0, 67, 36
1, 199872, Note_on_c, 0, 55, 36
1, 200064, Note_off_c, 0, 55, 0
1, 200064, Note_off_c, 0, 67, 0
1, 200064, Note_on_c, 0, 69, 36
1, 200064, Note_on_c, 0, 50, 36
1, 200064, Note_on_c, 0, 57, 36
1, 200160, Note_off_c, 0, 50, 0
1, 200160, Note_on_c, 0, 50, 36
1, 200256, Note_off_c, 0, 50, 0
1, 200256, Note_off_c, 0, 57, 0
1, 200256, Note_off_c, 0, 69, 0
1, 200256, Note_on_c, 0, 74, 36
1, 200256, Note_on_c, 0, 50, 36
1, 200256, Note_on_c, 0, 62, 36
1, 200352, Note_off_c, 0, 50, 0
1, 200352, Note_on_c, 0, 50, 36
1, 200448, Note_off_c, 0, 50, 0
1, 200448, Note_off_c, 0, 62, 0
1, 200448, Note_off_c, 0, 74, 0
1, 200448, Note_on_c, 0, 63, 36
1, 200448, Note_on_c, 0, 51, 36
1, 200640, Note_off_c, 0, 51, 0
1, 200640, Note_off_c, 0, 63, 0
1, 200640, Note_on_c, 0, 67, 36
1, 200640, Note_on_c, 0, 55, 36
1, 200832, Note_off_c, 0, 55, 0
1, 200832, Note_off_c, 0, 67, 0
1, 200832, Note_on_c, 0, 69, 36
1, 200832, Note_on_c, 0, 50, 36
1, 200832, Note_on_c, 0, 57, 36
1, 200928, Note_off_c, 0, 50, 0
1, 200928, Note_on_c, 0, 50, 36
1, 201024, Note_off_c, 0, 50, 0
1, 201024, Note_off_c, 0, 57, 0
1, 201024, Note_off_c, 0, 69, 0
1, 201024, Note_on_c, 0, 74, 36
1, 201024, Note_on_c, 0, 50, 36
1, 201024, Note_on_c, 0, 62, 36
1, 201120, Note_off_c, 0, 50, 0
1, 201120, Note_on_c, 0, 50, 36
1, 201216, Note_off_c, 0, 50, 0
1, 201216, Note_off_c, 0, 62, 0
1, 201216, Note_off_c, 0, 74, 0
1, 201216, Note_on_c, 0, 64, 36
1, 201216, Note_on_c, 0, 50, 36
1, 201216, Note_on_c, 0, 52, 36
1, 201312, Note_off_c, 0, 50, 0
1, 201312, Note_on_c, 0, 50, 36
1, 201408, Note_off_c, 0, 50, 0
1, 201408, Note_off_c, 0, 52, 0
1, 201408, Note_off_c, 0, 64, 0
1, 201408, Note_on_c, 0, 67, 36
1, 201408, Note_on_c, 0, 50, 36
1, 201408, Note_on_c, 0, 55, 36
1, 201504, Note_off_c, 0, 50, 0
1, 201504, Note_on_c, 0, 50, 36
1, 201600, Note_off_c, 0, 50, 0
1, 201600, Note_off_c, 0, 55, 0
1, 201600, Note_off_c, 0, 67, 0
1, 201600, Note_on_c, 0, 69, 36
1, 201600, Note_on_c, 0, 50, 36
1, 201600, Note_on_c, 0, 57, 36
1, 201696, Note_off_c, 0, 50, 0
1, 201696, Note_on_c, 0, 50, 36
1, 201792, Note_off_c, 0, 50, 0
1, 201792, Note_off_c, 0, 57, 0
1, 201792, Note_off_c, 0, 69, 0
1, 201792, Note_on_c, 0, 74, 36
1, 201792, Note_on_c, 0, 50, 36
1, 201792, Note_on_c, 0, 62, 36
1, 201888, Note_off_c, 0, 50, 0
1, 201888, Note_on_c, 0, 50, 36
1, 201984, Note_off_c, 0, 50, 0
1, 201984, Note_off_c, 0, 62, 0
1, 201984, Note_off_c, 0, 74, 0
1, 201984, Note_on_c, 0, 63, 36
1, 201984, Note_on_c, 0, 50, 36
1, 201984, Note_on_c, 0, 51, 36
1, 202080, Note_off_c, 0, 50, 0
1, 202080, Note_on_c, 0, 50, 36
1, 202176, Note_off_c, 0, 50, 0
1, 202176, Note_off_c, 0, 51, 0
1, 202176, Note_off_c, 0, 63, 0
1, 202176, Note_on_c, 0, 67, 36
1, 202176, Note_on_c, 0, 50, 36
1, 202176, Note_on_c, 0, 55, 36
1, 202272, Note_off_c, 0, 50, 0
1, 202272, Note_on_c, 0, 50, 36
1, 202368, Note_off_c, 0, 50, 0
1, 202368, Note_off_c, 0, 55, 0
1, 202368, Note_off_c, 0, 67, 0
1, 202368, Note_on_c, 0, 69, 36
1, 202368, Note_on_c, 0, 50, 36
1, 202368, Note_on_c, 0, 57, 36
1, 202464, Note_off_c, 0, 50, 0
1, 202464, Note_on_c, 0, 50, 36
1, 202560, Note_off_c, 0, 50, 0
1, 202560, Note_off_c, 0, 57, 0
1, 202560, Note_off_c, 0, 69, 0
1, 202560, Note_on_c, 0, 74, 36
1, 202560, Note_on_c, 0, 50, 36
1, 202560, Note_on_c, 0, 62, 36
1, 202656, Note_off_c, 0, 50, 0
1, 202656, Note_on_c, 0, 50, 36
1, 202752, Note_off_c, 0, 74, 0
1, 202752, Note_off_c, 0, 86, 0
1, 202752, Note_off_c, 0, 50, 0
1, 202752, Note_off_c, 0, 62, 0
1, 202752, Note_off_c, 0, 74, 0
1, 202752, Note_on_c, 0, 86, 36
1, 202752, Note_on_c, 0, 46, 36
1, 202752, Note_on_c, 0, 74, 36
1, 202752, Note_on_c, 0, 34, 36
1, 202776, Note_off_c, 0, 84, 0
1, 202776, Note_on_c, 0, 84, 36
1, 202800, Note_off_c, 0, 83, 0
1, 202800, Note_on_c, 0, 83, 36
1, 202824, Note_off_c, 0, 81, 0
1, 202824, Note_on_c, 0, 81, 36
1, 202848, Note_off_c, 0, 79, 0
1, 202848, Note_on_c, 0, 79, 36
1, 202872, Note_off_c, 0, 77, 0
1, 202872, Note_on_c, 0, 77, 36
1, 202896, Note_off_c, 0, 76, 0
1, 202896, Note_on_c, 0, 76, 36
1, 202920, Note_off_c, 0, 74, 0
1, 202920, Note_on_c, 0, 74, 36
1, 203136, Note_off_c, 0, 34, 0
1, 203136, Note_off_c, 0, 46, 0
1, 203136, Note_on_c, 0, 65, 36
1, 203136, Note_on_c, 0, 53, 36
1, 203136, Note_on_c, 0, 53, 36
1, 203136, Note_on_c, 0, 41, 36
1, 203520, Note_off_c, 0, 41, 0
1, 203520, Note_off_c, 0, 53, 0
1, 203520, Note_off_c, 0, 53, 0
1, 203520, Note_off_c, 0, 65, 0
1, 203904, Note_on_c, 0, 65, 36
1, 203904, Note_on_c, 0, 53, 36
1, 203904, Note_on_c, 0, 53, 36
1, 203904, Note_on_c, 0, 41, 36
1, 204288, Note_off_c, 0, 41, 0
1, 204288, Note_off_c, 0, 53, 0
1, 204288, Note_off_c, 0, 53, 0
1, 204288, Note_off_c, 0, 65, 0
1, 204288, Note_on_c, 0, 48, 36
1, 204288, Note_on_c, 0, 36, 36
1, 204576, Note_off_c, 0, 36, 0
1, 204576, Note_off_c, 0, 48, 0
1, 204672, Note_on_c, 0, 64, 36
1, 204672, Note_on_c, 0, 67, 36
1, 204672, Note_on_c, 0, 55, 36
1, 204672, Note_on_c, 0, 52, 36
1, 204672, Note_on_c, 0, 55, 36
1, 204672, Note_on_c, 0, 43, 36
1, 204960, Note_off_c, 0, 43, 0
1, 204960, Note_off_c, 0, 55, 0
1, 204960, Note_off_c, 0, 52, 0
1, 204960, Note_off_c, 0, 55, 0
1, 204960, Note_off_c, 0, 67, 0
1, 204960, Note_off_c, 0, 64, 0
1, 205056, Note_on_c, 0, 48, 36
1, 205056, Note_on_c, 0, 36, 36
1, 205344, Note_off_c, 0, 36, 0
1, 205344, Note_off_c, 0, 48, 0
1, 205440, Note_on_c, 0, 64, 36
1, 205440, Note_on_c, 0, 67, 36
1, 205440, Note_on_c, 0, 55, 36
1, 205440, Note_on_c, 0, 52, 36
1, 205440, Note_on_c, 0, 55, 36
1, 205440, Note_on_c, 0, 43, 36
1, 205632, Note_off_c, 0, 55, 0
1, 205632, Note_off_c, 0, 52, 0
1, 205632, Note_off_c, 0, 67, 0
1, 205632, Note_off_c, 0, 64, 0
1, 205632, Note_on_c, 0, 65, 36
1, 205632, Note_on_c, 0, 53, 36
1, 205728, Note_off_c, 0, 43, 0
1, 205728, Note_off_c, 0, 55, 0
1, 205824, Note_off_c, 0, 53, 0
1, 205824, Note_off_c, 0, 65, 0
1, 205824, Note_on_c, 0, 62, 36
1, 205824, Note_on_c, 0, 65, 36
1, 205824, Note_on_c, 0, 50, 36
1, 205824, Note_on_c, 0, 57, 36
1, 205824, Note_on_c, 0, 50, 36
1, 205824, Note_on_c, 0, 53, 36
1, 205824, Note_on_c, 0, 38, 36
1, 205824, Note_on_c, 0, 45, 36
1, 206016, Note_off_c, 0, 53, 0
1, 206016, Note_off_c, 0, 50, 0
1, 206016, Note_off_c, 0, 65, 0
1, 206016, Note_off_c, 0, 62, 0
1, 206016, Note_on_c, 0, 62, 36
1, 206016, Note_on_c, 0, 50, 36
1, 206208, Note_off_c, 0, 50, 0
1, 206208, Note_off_c, 0, 62, 0
1, 206208, Note_on_c, 0, 64, 36
1, 206208, Note_on_c, 0, 52, 36
1, 206400, Note_off_c, 0, 52, 0
1, 206400, Note_off_c, 0, 64, 0
1, 206400, Note_on_c, 0, 65, 36
1, 206400, Note_on_c, 0, 53, 36
1, 206592, Note_off_c, 0, 53, 0
1, 206592, Note_off_c, 0, 65, 0
1, 206592, Note_on_c, 0, 62, 36
1, 206592, Note_on_c, 0, 50, 36
1, 206784, Note_off_c, 0, 50, 0
1, 206784, Note_off_c, 0, 62, 0
1, 206784, Note_on_c, 0, 64, 36
1, 206784, Note_on_c, 0, 52, 36
1, 206976, Note_off_c, 0, 52, 0
1, 206976, Note_off_c, 0, 64, 0
1, 206976, Note_on_c, 0, 65, 36
1, 206976, Note_on_c, 0, 53, 36
1, 207168, Note_off_c, 0, 53, 0
1, 207168, Note_off_c, 0, 65, 0
1, 207168, Note_on_c, 0, 62, 36
1, 207168, Note_on_c, 0, 50, 36
1, 207264, Note_off_c, 0, 45, 0
1, 207264, Note_off_c, 0, 38, 0
1, 207264, Note_off_c, 0, 57, 0
1, 207264, Note_off_c, 0, 50, 0
1, 207360, Note_off_c, 0, 50, 0
1, 207360, Note_off_c, 0, 62, 0
1, 207360, Note_on_c, 0, 65, 36
1, 207360, Note_on_c, 0, 69, 36
1, 207360, Note_on_c, 0, 50, 36
1, 207360, Note_on_c, 0, 53, 36
1, 207360, Note_on_c, 0, 57, 36
1, 207360, Note_on_c, 0, 38, 36
1, 207648, Note_off_c, 0, 57, 0
1, 207648, Note_off_c, 0, 53, 0
1, 207648, Note_off_c, 0, 69, 0
1, 207648, Note_off_c, 0, 65, 0
1, 207744, Note_on_c, 0, 72, 36
1, 207744, Note_on_c, 0, 60, 36
1, 208032, Note_off_c, 0, 60, 0
1, 208032, Note_off_c, 0, 72, 0
1, 208032, Note_off_c, 0, 38, 0
1, 208032, Note_off_c, 0, 50, 0
1, 208128, Note_on_c, 0, 69, 36
1, 208128, Note_on_c, 0, 74, 36
1, 208128, Note_on_c, 0, 52, 36
1, 208128, Note_on_c, 0, 57, 36
1, 208128, Note_on_c, 0, 62, 36
1, 208128, Note_on_c, 0, 40, 36
1, 208416, Note_off_c, 0, 62, 0
1, 208416, Note_off_c, 0, 57, 0
1, 208416, Note_off_c, 0, 74, 0
1, 208416, Note_off_c, 0, 69, 0
1, 208512, Note_on_c, 0, 76, 36
1, 208512, Note_on_c, 0, 64, 36
1, 208800, Note_off_c, 0, 64, 0
1, 208800, Note_off_c, 0, 76, 0
1, 208800, Note_off_c, 0, 40, 0
1, 208800, Note_off_c, 0, 52, 0
1, 208896, Note_on_c, 0, 70, 36
1, 208896, Note_on_c, 0, 77, 36
1, 208896, Note_on_c, 0, 53, 36
1, 208896, Note_on_c, 0, 58, 36
1, 208896, Note_on_c, 0, 65, 36
1, 208896, Note_on_c, 0, 41, 36
1, 209568, Note_off_c, 0, 65, 0
1, 209568, Note_off_c, 0, 58, 0
1, 209568, Note_off_c, 0, 77, 0
1, 209568, Note_off_c, 0, 70, 0
1, 209664, Note_on_c, 0, 77, 36
1, 209664, Note_on_c, 0, 65, 36
1, 209856, Note_off_c, 0, 65, 0
1, 209856, Note_off_c, 0, 77, 0
1, 209856, Note_on_c, 0, 76, 36
1, 209856, Note_on_c, 0, 64, 36
1, 210048, Note_off_c, 0, 64, 0
1, 210048, Note_off_c, 0, 76, 0
1, 210048, Note_on_c, 0, 72, 36
1, 210048, Note_on_c, 0, 60, 36
1, 210240, Note_off_c, 0, 60, 0
1, 210240, Note_off_c, 0, 72, 0
1, 210240, Note_on_c, 0, 69, 36
1, 210240, Note_on_c, 0, 57, 36
1, 210336, Note_off_c, 0, 41, 0
1, 210336, Note_off_c, 0, 53, 0
1, 210432, Note_off_c, 0, 57, 0
1, 210432, Note_off_c, 0, 69, 0
1, 210432, Note_on_c, 0, 65, 36
1, 210432, Note_on_c, 0, 69, 36
1, 210432, Note_on_c, 0, 55, 36
1, 210432, Note_on_c, 0, 53, 36
1, 210432, Note_on_c, 0, 57, 36
1, 210432, Note_on_c, 0, 43, 36
1, 210720, Note_off_c, 0, 57, 0
1, 210720, Note_off_c, 0, 53, 0
1, 210720, Note_off_c, 0, 69, 0
1, 210720, Note_off_c, 0, 65, 0
1, 210816, Note_on_c, 0, 72, 36
1, 210816, Note_on_c, 0, 60, 36
1, 210912, Note_off_c, 0, 60, 0
1, 210912, Note_off_c, 0, 72, 0
1, 210944, Note_on_c, 0, 69, 36
1, 210944, Note_on_c, 0, 57, 36
1, 211040, Note_off_c, 0, 57, 0
1, 211040, Note_off_c, 0, 69, 0
1, 211073, Note_on_c, 0, 72, 36
1, 211073, Note_on_c, 0, 60, 36
1, 211169, Note_off_c, 0, 60, 0
1, 211169, Note_off_c, 0, 72, 0
1, 211201, Note_on_c, 0, 69, 36
1, 211201, Note_on_c, 0, 57, 36
1, 211489, Note_off_c, 0, 57, 0
1, 211489, Note_off_c, 0, 69, 0
1, 211585, Note_on_c, 0, 65, 36
1, 211585, Note_on_c, 0, 53, 36
1, 211777, Note_off_c, 0, 53, 0
1, 211777, Note_off_c, 0, 65, 0
1, 211777, Note_on_c, 0, 64, 36
1, 211777, Note_on_c, 0, 52, 36
1, 211873, Note_off_c, 0, 43, 0
1, 211873, Note_off_c, 0, 55, 0
1, 211969, Note_off_c, 0, 52, 0
1, 211969, Note_off_c, 0, 64, 0
1, 211969, Note_on_c, 0, 62, 36
1, 211969, Note_on_c, 0, 67, 36
1, 211969, Note_on_c, 0, 50, 36
1, 211969, Note_on_c, 0, 50, 36
1, 211969, Note_on_c, 0, 55, 36
1, 211969, Note_on_c, 0, 38, 36
1, 212449, Note_off_c, 0, 55, 0
1, 212449, Note_off_c, 0, 50, 0
1, 212449, Note_off_c, 0, 67, 0
1, 212449, Note_off_c, 0, 62, 0
1, 212545, Note_on_c, 0, 69, 36
1, 212545, Note_on_c, 0, 57, 36
1, 212833, Note_off_c, 0, 57, 0
1, 212833, Note_off_c, 0, 69, 0
1, 212929, Note_on_c, 0, 62, 36
1, 212929, Note_on_c, 0, 50, 36
1, 213121, Note_off_c, 0, 50, 0
1, 213121, Note_off_c, 0, 62, 0
1, 213121, Note_on_c, 0, 64, 36
1, 213121, Note_on_c, 0, 52, 36
1, 213313, Note_off_c, 0, 52, 0
1, 213313, Note_off_c, 0, 64, 0
1, 213313, Note_on_c, 0, 65, 36
1, 213313, Note_on_c, 0, 53, 36
1, 213505, Note_off_c, 0, 53, 0
1, 213505, Note_off_c, 0, 65, 0
1, 213505, Note_on_c, 0, 57, 36
1, 213505, Note_on_c, 0, 62, 36
1, 213505, Note_on_c, 0, 45, 36
1, 213505, Note_on_c, 0, 50, 36
1, 213889, Note_off_c, 0, 50, 0
1, 213889, Note_off_c, 0, 45, 0
1, 213889, Note_off_c, 0, 62, 0
1, 213889, Note_off_c, 0, 57, 0
1, 213889, Note_on_c, 0, 60, 36
1, 213889, Note_on_c, 0, 48, 36
1, 214273, Note_off_c, 0, 48, 0
1, 214273, Note_off_c, 0, 60, 0
1, 214273, Note_on_c, 0, 57, 36
1, 214273, Note_on_c, 0, 45, 36
1, 214561, Note_off_c, 0, 45, 0
1, 214561, Note_off_c, 0, 57, 0
1, 214945, Note_off_c, 0, 38, 0
1, 214945, Note_off_c, 0, 50, 0
1, 215041, Note_on_c, 0, 46, 36
1, 215041, Note_on_c, 0, 34, 36
1, 215233, Note_off_c, 0, 34, 0
1, 215233, Note_off_c, 0, 46, 0
1, 215233, Note_on_c, 0, 48, 36
1, 215233, Note_on_c, 0, 36, 36
1, 215425, Note_off_c, 0, 36, 0
1, 215425, Note_off_c, 0, 48, 0
1, 215425, Note_on_c, 0, 74, 36
1, 215425, Note_on_c, 0, 77, 36
1, 215425, Note_on_c, 0, 50, 36
1, 215425, Note_on_c, 0, 62, 36
1, 215425, Note_on_c, 0, 65, 36
1, 215425, Note_on_c, 0, 38, 36
1, 215617, Note_off_c, 0, 38, 0
1, 215617, Note_off_c, 0, 50, 0
1, 215617, Note_on_c, 0, 53, 36
1, 215617, Note_on_c, 0, 41, 36
1, 215713, Note_off_c, 0, 65, 0
1, 215713, Note_off_c, 0, 62, 0
1, 215713, Note_off_c, 0, 77, 0
1, 215713, Note_off_c, 0, 74, 0
1, 215809, Note_off_c, 0, 41, 0
1, 215809, Note_off_c, 0, 53, 0
1, 215809, Note_on_c, 0, 46, 36
1, 215809, Note_on_c, 0, 34, 36
1, 216001, Note_off_c, 0, 34, 0
1, 216001, Note_off_c, 0, 46, 0
1, 216001, Note_on_c, 0, 48, 36
1, 216001, Note_on_c, 0, 36, 36
1, 216193, Note_off_c, 0, 36, 0
1, 216193, Note_off_c, 0, 48, 0
1, 216193, Note_on_c, 0, 74, 36
1, 216193, Note_on_c, 0, 77, 36
1, 216193, Note_on_c, 0, 50, 36
1, 216193, Note_on_c, 0, 62, 36
1, 216193, Note_on_c, 0, 65, 36
1, 216193, Note_on_c, 0, 38, 36
1, 216385, Note_off_c, 0, 38, 0
1, 216385, Note_off_c, 0, 50, 0
1, 216385, Note_on_c, 0, 53, 36
1, 216385, Note_on_c, 0, 41, 36
1, 216481, Note_off_c, 0, 65, 0
1, 216481, Note_off_c, 0, 62, 0
1, 216481, Note_off_c, 0, 77, 0
1, 216481, Note_off_c, 0, 74, 0
1, 216577, Note_off_c, 0, 41, 0
1, 216577, Note_off_c, 0, 53, 0
1, 216577, Note_on_c, 0, 48, 36
1, 216577, Note_on_c, 0, 36, 36
1, 216769, Note_off_c, 0, 36, 0
1, 216769, Note_off_c, 0, 48, 0
1, 216769, Note_on_c, 0, 50, 36
1, 216769, Note_on_c, 0, 38, 36
1, 216961, Note_off_c, 0, 38, 0
1, 216961, Note_off_c, 0, 50, 0
1, 216961, Note_on_c, 0, 76, 36
1, 216961, Note_on_c, 0, 79, 36
1, 216961, Note_on_c, 0, 52, 36
1, 216961, Note_on_c, 0, 64, 36
1, 216961, Note_on_c, 0, 67, 36
1, 216961, Note_on_c, 0, 40, 36
1, 217153, Note_off_c, 0, 40, 0
1, 217153, Note_off_c, 0, 52, 0
1, 217153, Note_on_c, 0, 55, 36
1, 217153, Note_on_c, 0, 43, 36
1, 217249, Note_off_c, 0, 67, 0
1, 217249, Note_off_c, 0, 64, 0
1, 217249, Note_off_c, 0, 79, 0
1, 217249, Note_off_c, 0, 76, 0
1, 217345, Note_off_c, 0, 43, 0
1, 217345, Note_off_c, 0, 55, 0
1, 217345, Note_on_c, 0, 48, 36
1, 217345, Note_on_c, 0, 36, 36
1, 217537, Note_off_c, 0, 36, 0
1, 217537, Note_off_c, 0, 48, 0
1, 217537, Note_on_c, 0, 50, 36
1, 217537, Note_on_c, 0, 38, 36
1, 217729, Note_off_c, 0, 38, 0
1, 217729, Note_off_c, 0, 50, 0
1, 217729, Note_on_c, 0, 76, 36
1, 217729, Note_on_c, 0, 79, 36
1, 217729, Note_on_c, 0, 52, 36
1, 217729, Note_on_c, 0, 64, 36
1, 217729, Note_on_c, 0, 67, 36
1, 217729, Note_on_c, 0, 40, 36
1, 217921, Note_off_c, 0, 40, 0
1, 217921, Note_off_c, 0, 67, 0
1, 217921, Note_off_c, 0, 64, 0
1, 217921, Note_off_c, 0, 52, 0
1, 217921, Note_off_c, 0, 79, 0
1, 217921, Note_off_c, 0, 76, 0
1, 217921, Note_on_c, 0, 77, 36
1, 217921, Note_on_c, 0, 55, 36
1, 217921, Note_on_c, 0, 65, 36
1, 217921, Note_on_c, 0, 43, 36
1, 218113, Note_off_c, 0, 43, 0
1, 218113, Note_off_c, 0, 65, 0
1, 218113, Note_off_c, 0, 55, 0
1, 218113, Note_off_c, 0, 77, 0
1, 218113, Note_on_c, 0, 74, 36
1, 218113, Note_on_c, 0, 77, 36
1, 218113, Note_on_c, 0, 50, 36
1, 218113, Note_on_c, 0, 62, 36
1, 218113, Note_on_c, 0, 65, 36
1, 218113, Note_on_c, 0, 38, 36
1, 218305, Note_off_c, 0, 38, 0
1, 218305, Note_off_c, 0, 65, 0
1, 218305, Note_off_c, 0, 62, 0
1, 218305, Note_off_c, 0, 50, 0
1, 218305, Note_off_c, 0, 77, 0
1, 218305, Note_off_c, 0, 74, 0
1, 218305, Note_on_c, 0, 74, 36
1, 218305, Note_on_c, 0, 52, 36
1, 218305, Note_on_c, 0, 62, 36
1, 218305, Note_on_c, 0, 40, 36
1, 218497, Note_off_c, 0, 40, 0
1, 218497, Note_off_c, 0, 62, 0
1, 218497, Note_off_c, 0, 52, 0
1, 218497, Note_off_c, 0, 74, 0
1, 218497, Note_on_c, 0, 76, 36
1, 218497, Note_on_c, 0, 53, 36
1, 218497, Note_on_c, 0, 64, 36
1, 218497, Note_on_c, 0, 41, 36
1, 218689, Note_off_c, 0, 41, 0
1, 218689, Note_off_c, 0, 64, 0
1, 218689, Note_off_c, 0, 53, 0
1, 218689, Note_off_c, 0, 76, 0
1, 218689, Note_on_c, 0, 77, 36
1, 218689, Note_on_c, 0, 57, 36
1, 218689, Note_on_c, 0, 65, 36
1, 218689, Note_on_c, 0, 45, 36
1, 218881, Note_off_c, 0, 45, 0
1, 218881, Note_off_c, 0, 65, 0
1, 218881, Note_off_c, 0, 57, 0
1, 218881, Note_off_c, 0, 77, 0
1, 218881, Note_on_c, 0, 74, 36
1, 218881, Note_on_c, 0, 50, 36
1, 218881, Note_on_c, 0, 62, 36
1, 218881, Note_on_c, 0, 38, 36
1, 219073, Note_off_c, 0, 38, 0
1, 219073, Note_off_c, 0, 62, 0
1, 219073, Note_off_c, 0, 50, 0
1, 219073, Note_off_c, 0, 74, 0
1, 219073, Note_on_c, 0, 76, 36
1, 219073, Note_on_c, 0, 52, 36
1, 219073, Note_on_c, 0, 64, 36
1, 219073, Note_on_c, 0, 40, 36
1, 219265, Note_off_c, 0, 40, 0
1, 219265, Note_off_c, 0, 64, 0
1, 219265, Note_off_c, 0, 52, 0
1, 219265, Note_off_c, 0, 76, 0
1, 219265, Note_on_c, 0, 77, 36
1, 219265, Note_on_c, 0, 53, 36
1, 219265, Note_on_c, 0, 65, 36
1, 219265, Note_on_c, 0, 41, 36
1, 219457, Note_off_c, 0, 41, 0
1, 219457, Note_off_c, 0, 65, 0
1, 219457, Note_off_c, 0, 53, 0
1, 219457, Note_off_c, 0, 77, 0
1, 219457, Note_on_c, 0, 74, 36
1, 219457, Note_on_c, 0, 57, 36
1, 219457, Note_on_c, 0, 62, 36
1, 219457, Note_on_c, 0, 45, 36
1, 219649, Note_off_c, 0, 45, 0
1, 219649, Note_off_c, 0, 62, 0
1, 219649, Note_off_c, 0, 57, 0
1, 219649, Note_off_c, 0, 74, 0
1, 219649, Note_on_c, 0, 77, 36
1, 219649, Note_on_c, 0, 81, 36
1, 219649, Note_on_c, 0, 50, 36
1, 219649, Note_on_c, 0, 65, 36
1, 219649, Note_on_c, 0, 69, 36
1, 219649, Note_on_c, 0, 38, 36
1, 219841, Note_off_c, 0, 38, 0
1, 219841, Note_off_c, 0, 50, 0
1, 219841, Note_on_c, 0, 52, 36
1, 219841, Note_on_c, 0, 40, 36
1, 219937, Note_off_c, 0, 69, 0
1, 219937, Note_off_c, 0, 65, 0
1, 219937, Note_off_c, 0, 81, 0
1, 219937, Note_off_c, 0, 77, 0
1, 220033, Note_off_c, 0, 40, 0
1, 220033, Note_off_c, 0, 52, 0
1, 220033, Note_on_c, 0, 84, 36
1, 220033, Note_on_c, 0, 53, 36
1, 220033, Note_on_c, 0, 72, 36
1, 220033, Note_on_c, 0, 41, 36
1, 220225, Note_off_c, 0, 41, 0
1, 220225, Note_off_c, 0, 53, 0
1, 220225, Note_on_c, 0, 57, 36
1, 220225, Note_on_c, 0, 45, 36
1, 220321, Note_off_c, 0, 72, 0
1, 220321, Note_off_c, 0, 84, 0
1, 220417, Note_off_c, 0, 45, 0
1, 220417, Note_off_c, 0, 57, 0
1, 220417, Note_on_c, 0, 81, 36
1, 220417, Note_on_c, 0, 86, 36
1, 220417, Note_on_c, 0, 50, 36
1, 220417, Note_on_c, 0, 69, 36
1, 220417, Note_on_c, 0, 74, 36
1, 220417, Note_on_c, 0, 38, 36
1, 220609, Note_off_c, 0, 38, 0
1, 220609, Note_off_c, 0, 50, 0
1, 220609, Note_on_c, 0, 52, 36
1, 220609, Note_on_c, 0, 40, 36
1, 220705, Note_off_c, 0, 74, 0
1, 220705, Note_off_c, 0, 69, 0
1, 220705, Note_off_c, 0, 86, 0
1, 220705, Note_off_c, 0, 81, 0
1, 220801, Note_off_c, 0, 40, 0
1, 220801, Note_off_c, 0, 52, 0
1, 220801, Note_on_c, 0, 88, 36
1, 220801, Note_on_c, 0, 53, 36
1, 220801, Note_on_c, 0, 76, 36
1, 220801, Note_on_c, 0, 41, 36
1, 220993, Note_off_c, 0, 41, 0
1, 220993, Note_off_c, 0, 53, 0
1, 220993, Note_on_c, 0, 57, 36
1, 220993, Note_on_c, 0, 45, 36
1, 221089, Note_off_c, 0, 76, 0
1, 221089, Note_off_c, 0, 88, 0
1, 221185, Note_off_c, 0, 45, 0
1, 221185, Note_off_c, 0, 57, 0
1, 221185, Note_on_c, 0, 82, 36
1, 221185, Note_on_c, 0, 89, 36
1, 221185, Note_on_c, 0, 46, 36
1, 221185, Note_on_c, 0, 70, 36
1, 221185, Note_on_c, 0, 77, 36
1, 221185, Note_on_c, 0, 34, 36
1, 221377, Note_off_c, 0, 34, 0
1, 221377, Note_off_c, 0, 46, 0
1, 221377, Note_on_c, 0, 48, 36
1, 221377, Note_on_c, 0, 36, 36
1, 221569, Note_off_c, 0, 36, 0
1, 221569, Note_off_c, 0, 48, 0
1, 221569, Note_on_c, 0, 50, 36
1, 221569, Note_on_c, 0, 38, 36
1, 221761, Note_off_c, 0, 38, 0
1, 221761, Note_off_c, 0, 50, 0
1, 221761, Note_on_c, 0, 53, 36
1, 221761, Note_on_c, 0, 41, 36
1, 221857, Note_off_c, 0, 77, 0
1, 221857, Note_off_c, 0, 70, 0
1, 221857, Note_off_c, 0, 89, 0
1, 221857, Note_off_c, 0, 82, 0
1, 221953, Note_off_c, 0, 41, 0
1, 221953, Note_off_c, 0, 53, 0
1, 221953, Note_on_c, 0, 89, 36
1, 221953, Note_on_c, 0, 46, 36
1, 221953, Note_on_c, 0, 77, 36
1, 221953, Note_on_c, 0, 34, 36
1, 222145, Note_off_c, 0, 34, 0
1, 222145, Note_off_c, 0, 77, 0
1, 222145, Note_off_c, 0, 46, 0
1, 222145, Note_off_c, 0, 89, 0
1, 222145, Note_on_c, 0, 88, 36
1, 222145, Note_on_c, 0, 48, 36
1, 222145, Note_on_c, 0, 76, 36
1, 222145, Note_on_c, 0, 36, 36
1, 222337, Note_off_c, 0, 36, 0
1, 222337, Note_off_c, 0, 76, 0
1, 222337, Note_off_c, 0, 48, 0
1, 222337, Note_off_c, 0, 88, 0
1, 222337, Note_on_c, 0, 84, 36
1, 222337, Note_on_c, 0, 50, 36
1, 222337, Note_on_c, 0, 72, 36
1, 222337, Note_on_c, 0, 38, 36
1, 222529, Note_off_c, 0, 38, 0
1, 222529, Note_off_c, 0, 72, 0
1, 222529, Note_off_c, 0, 50, 0
1, 222529, Note_off_c, 0, 84, 0
1, 222529, Note_on_c, 0, 81, 36
1, 222529, Note_on_c, 0, 53, 36
1, 222529, Note_on_c, 0, 69, 36
1, 222529, Note_on_c, 0, 41, 36
1, 222721, Note_off_c, 0, 41, 0
1, 222721, Note_off_c, 0, 69, 0
1, 222721, Note_off_c, 0, 53, 0
1, 222721, Note_off_c, 0, 81, 0
1, 222721, Note_on_c, 0, 77, 36
1, 222721, Note_on_c, 0, 81, 36
1, 222721, Note_on_c, 0, 48, 36
1, 222721, Note_on_c, 0, 65, 36
1, 222721, Note_on_c, 0, 69, 36
1, 222721, Note_on_c, 0, 36, 36
1, 222913, Note_off_c, 0, 36, 0
1, 222913, Note_off_c, 0, 48, 0
1, 222913, Note_on_c, 0, 50, 36
1, 222913, Note_on_c, 0, 38, 36
1, 223009, Note_off_c, 0, 69, 0
1, 223009, Note_off_c, 0, 65, 0
1, 223009, Note_off_c, 0, 81, 0
1, 223009, Note_off_c, 0, 77, 0
1, 223105, Note_off_c, 0, 38, 0
1, 223105, Note_off_c, 0, 50, 0
1, 223105, Note_on_c, 0, 84, 36
1, 223105, Note_on_c, 0, 52, 36
1, 223105, Note_on_c, 0, 72, 36
1, 223105, Note_on_c, 0, 40, 36
1, 223201, Note_off_c, 0, 72, 0
1, 223201, Note_off_c, 0, 84, 0
1, 223233, Note_on_c, 0, 81, 36
1, 223233, Note_on_c, 0, 69, 36
1, 223297, Note_off_c, 0, 40, 0
1, 223297, Note_off_c, 0, 52, 0
1, 223297, Note_on_c, 0, 55, 36
1, 223297, Note_on_c, 0, 43, 36
1, 223329, Note_off_c, 0, 69, 0
1, 223329, Note_off_c, 0, 81, 0
1, 223362, Note_on_c, 0, 84, 36
1, 223362, Note_on_c, 0, 72, 36
1, 223458, Note_off_c, 0, 72, 0
1, 223458, Note_off_c, 0, 84, 0
1, 223490, Note_off_c, 0, 43, 0
1, 223490, Note_off_c, 0, 55, 0
1, 223490, Note_on_c, 0, 81, 36
1, 223490, Note_on_c, 0, 48, 36
1, 223490, Note_on_c, 0, 69, 36
1, 223490, Note_on_c, 0, 36, 36
1, 223682, Note_off_c, 0, 36, 0
1, 223682, Note_off_c, 0, 48, 0
1, 223682, Note_on_c, 0, 50, 36
1, 223682, Note_on_c, 0, 38, 36
1, 223778, Note_off_c, 0, 69, 0
1, 223778, Note_off_c, 0, 81, 0
1, 223874, Note_off_c, 0, 38, 0
1, 223874, Note_off_c, 0, 50, 0
1, 223874, Note_on_c, 0, 77, 36
1, 223874, Note_on_c, 0, 52, 36
1, 223874, Note_on_c, 0, 65, 36
1, 223874, Note_on_c, 0, 40, 36
1, 224066, Note_off_c, 0, 40, 0
1, 224066, Note_off_c, 0, 65, 0
1, 224066, Note_off_c, 0, 52, 0
1, 224066, Note_off_c, 0, 77, 0
1, 224066, Note_on_c, 0, 76, 36
1, 224066, Note_on_c, 0, 55, 36
1, 224066, Note_on_c, 0, 64, 36
1, 224066, Note_on_c, 0, 43, 36
1, 224258, Note_off_c, 0, 43, 0
1, 224258, Note_off_c, 0, 64, 0
1, 224258, Note_off_c, 0, 55, 0
1, 224258, Note_off_c, 0, 76, 0
1, 224258, Note_on_c, 0, 74, 36
1, 224258, Note_on_c, 0, 79, 36
1, 224258, Note_on_c, 0, 50, 36
1, 224258, Note_on_c, 0, 62, 36
1, 224258, Note_on_c, 0, 67, 36
1, 224258, Note_on_c, 0, 38, 36
1, 224450, Note_off_c, 0, 38, 0
1, 224450, Note_off_c, 0, 50, 0
1, 224450, Note_on_c, 0, 52, 36
1, 224450, Note_on_c, 0, 40, 36
1, 224642, Note_off_c, 0, 40, 0
1, 224642, Note_off_c, 0, 52, 0
1, 224642, Note_on_c, 0, 53, 36
1, 224642, Note_on_c, 0, 41, 36
1, 224738, Note_off_c, 0, 67, 0
1, 224738, Note_off_c, 0, 62, 0
1, 224738, Note_off_c, 0, 79, 0
1, 224738, Note_off_c, 0, 74, 0
1, 224834, Note_off_c, 0, 41, 0
1, 224834, Note_off_c, 0, 53, 0
1, 224834, Note_on_c, 0, 81, 36
1, 224834, Note_on_c, 0, 57, 36
1, 224834, Note_on_c, 0, 69, 36
1, 224834, Note_on_c, 0, 45, 36
1, 225026, Note_off_c, 0, 45, 0
1, 225026, Note_off_c, 0, 57, 0
1, 225026, Note_on_c, 0, 50, 36
1, 225026, Note_on_c, 0, 38, 36
1, 225122, Note_off_c, 0, 69, 0
1, 225122, Note_off_c, 0, 81, 0
1, 225218, Note_off_c, 0, 38, 0
1, 225218, Note_off_c, 0, 50, 0
1, 225218, Note_on_c, 0, 74, 36
1, 225218, Note_on_c, 0, 52, 36
1, 225218, Note_on_c, 0, 62, 36
1, 225218, Note_on_c, 0, 40, 36
1, 225410, Note_off_c, 0, 40, 0
1, 225410, Note_off_c, 0, 62, 0
1, 225410, Note_off_c, 0, 52, 0
1, 225410, Note_off_c, 0, 74, 0
1, 225410, Note_on_c, 0, 76, 36
1, 225410, Note_on_c, 0, 53, 36
1, 225410, Note_on_c, 0, 64, 36
1, 225410, Note_on_c, 0, 41, 36
1, 225602, Note_off_c, 0, 41, 0
1, 225602, Note_off_c, 0, 64, 0
1, 225602, Note_off_c, 0, 53, 0
1, 225602, Note_off_c, 0, 76, 0
1, 225602, Note_on_c, 0, 77, 36
1, 225602, Note_on_c, 0, 57, 36
1, 225602, Note_on_c, 0, 65, 36
1, 225602, Note_on_c, 0, 45, 36
1, 225794, Note_off_c, 0, 45, 0
1, 225794, Note_off_c, 0, 65, 0
1, 225794, Note_off_c, 0, 57, 0
1, 225794, Note_off_c, 0, 77, 0
1, 225794, Note_on_c, 0, 69, 36
1, 225794, Note_on_c, 0, 74, 36
1, 225794, Note_on_c, 0, 50, 36
1, 225794, Note_on_c, 0, 57, 36
1, 225794, Note_on_c, 0, 62, 36
1, 225794, Note_on_c, 0, 38, 36
1, 225986, Note_off_c, 0, 38, 0
1, 225986, Note_off_c, 0, 50, 0
1, 225986, Note_on_c, 0, 52, 36
1, 225986, Note_on_c, 0, 40, 36
1, 226178, Note_off_c, 0, 40, 0
1, 226178, Note_off_c, 0, 52, 0
1, 226178, Note_off_c, 0, 62, 0
1, 226178, Note_off_c, 0, 57, 0
1, 226178, Note_off_c, 0, 74, 0
1, 226178, Note_off_c, 0, 69, 0
1, 226178, Note_on_c, 0, 72, 36
1, 226178, Note_on_c, 0, 53, 36
1, 226178, Note_on_c, 0, 60, 36
1, 226178, Note_on_c, 0, 41, 36
1, 226370, Note_off_c, 0, 41, 0
1, 226370, Note_off_c, 0, 53, 0
1, 226370, Note_on_c, 0, 57, 36
1, 226370, Note_on_c, 0, 45, 36
1, 226562, Note_off_c, 0, 45, 0
1, 226562, Note_off_c, 0, 57, 0
1, 226562, Note_off_c, 0, 60, 0
1, 226562, Note_off_c, 0, 72, 0
1, 226562, Note_on_c, 0, 69, 36
1, 226562, Note_on_c, 0, 50, 36
1, 226562, Note_on_c, 0, 57, 36
1, 226562, Note_on_c, 0, 38, 36
1, 226754, Note_off_c, 0, 38, 0
1, 226754, Note_off_c, 0, 50, 0
1, 226754, Note_on_c, 0, 52, 36
1, 226754, Note_on_c, 0, 40, 36
1, 226850, Note_off_c, 0, 57, 0
1, 226850, Note_off_c, 0, 69, 0
1, 226946, Note_off_c, 0, 40, 0
1, 226946, Note_off_c, 0, 52, 0
1, 226946, Note_on_c, 0, 53, 36
1, 226946, Note_on_c, 0, 41, 36
1, 227138, Note_off_c, 0, 41, 0
1, 227138, Note_off_c, 0, 53, 0
1, 227138, Note_on_c, 0, 57, 36
1, 227138, Note_on_c, 0, 45, 36
1, 227330, Note_off_c, 0, 45, 0
1, 227330, Note_off_c, 0, 57, 0
1, 227330, Note_on_c, 0, 46, 36
1, 227330, Note_on_c, 0, 34, 36
1, 227522, Note_off_c, 0, 34, 0
1, 227522, Note_off_c, 0, 46, 0
1, 227522, Note_on_c, 0, 48, 36
1, 227522, Note_on_c, 0, 36, 36
1, 227714, Note_off_c, 0, 36, 0
1, 227714, Note_off_c, 0, 48, 0
1, 227714, Note_on_c, 0, 74, 36
1, 227714, Note_on_c, 0, 77, 36
1, 227714, Note_on_c, 0, 50, 36
1, 227714, Note_on_c, 0, 62, 36
1, 227714, Note_on_c, 0, 65, 36
1, 227714, Note_on_c, 0, 38, 36
1, 227906, Note_off_c, 0, 38, 0
1, 227906, Note_off_c, 0, 50, 0
1, 227906, Note_on_c, 0, 53, 36
1, 227906, Note_on_c, 0, 41, 36
1, 228002, Note_off_c, 0, 65, 0
1, 228002, Note_off_c, 0, 62, 0
1, 228002, Note_off_c, 0, 77, 0
1, 228002, Note_off_c, 0, 74, 0
1, 228098, Note_off_c, 0, 41, 0
1, 228098, Note_off_c, 0, 53, 0
1, 228098, Note_on_c, 0, 46, 36
1, 228098, Note_on_c, 0, 34, 36
1, 228290, Note_off_c, 0, 34, 0
1, 228290, Note_off_c, 0, 46, 0
1, 228290, Note_on_c, 0, 48, 36
1, 228290, Note_on_c, 0, 36, 36
1, 228482, Note_off_c, 0, 36, 0
1, 228482, Note_off_c, 0, 48, 0
1, 228482, Note_on_c, 0, 74, 36
1, 228482, Note_on_c, 0, 77, 36
1, 228482, Note_on_c, 0, 50, 36
1, 228482, Note_on_c, 0, 62, 36
1, 228482, Note_on_c, 0, 65, 36
1, 228482, Note_on_c, 0, 38, 36
1, 228674, Note_off_c, 0, 38, 0
1, 228674, Note_off_c, 0, 50, 0
1, 228674, Note_on_c, 0, 53, 36
1, 228674, Note_on_c, 0, 41, 36
1, 228770, Note_off_c, 0, 65, 0
1, 228770, Note_off_c, 0, 62, 0
1, 228770, Note_off_c, 0, 77, 0
1, 228770, Note_off_c, 0, 74, 0
1, 228866, Note_off_c, 0, 41, 0
1, 228866, Note_off_c, 0, 53, 0
1, 228866, Note_on_c, 0, 48, 36
1, 228866, Note_on_c, 0, 36, 36
1, 229058, Note_off_c, 0, 36, 0
1, 229058, Note_off_c, 0, 48, 0
1, 229058, Note_on_c, 0, 50, 36
1, 229058, Note_on_c, 0, 38, 36
1, 229250, Note_off_c, 0, 38, 0
1, 229250, Note_off_c, 0, 50, 0
1, 229250, Note_on_c, 0, 76, 36
1, 229250, Note_on_c, 0, 79, 36
1, 229250, Note_on_c, 0, 52, 36
1, 229250, Note_on_c, 0, 64, 36
1, 229250, Note_on_c, 0, 67, 36
1, 229250, Note_on_c, 0, 40, 36
1, 229442, Note_off_c, 0, 40, 0
1, 229442, Note_off_c, 0, 52, 0
1, 229442, Note_on_c, 0, 55, 36
1, 229442, Note_on_c, 0, 43, 36
1, 229538, Note_off_c, 0, 67, 0
1, 229538, Note_off_c, 0, 64, 0
1, 229538, Note_off_c, 0, 79, 0
1, 229538, Note_off_c, 0, 76, 0
1, 229634, Note_off_c, 0, 43, 0
1, 229634, Note_off_c, 0, 55, 0
1, 229634, Note_on_c, 0, 48, 36
1, 229634, Note_on_c, 0, 36, 36
1, 229826, Note_off_c, 0, 36, 0
1, 229826, Note_off_c, 0, 48, 0
1, 229826, Note_on_c, 0, 50, 36
1, 229826, Note_on_c, 0, 38, 36
1, 230018, Note_off_c, 0, 38, 0
1, 230018, Note_off_c, 0, 50, 0
1, 230018, Note_on_c, 0, 76, 36
1, 230018, Note_on_c, 0, 79, 36
1, 230018, Note_on_c, 0, 52, 36
1, 230018, Note_on_c, 0, 64, 36
1, 230018, Note_on_c, 0, 67, 36
1, 230018, Note_on_c, 0, 40, 36
1, 230210, Note_off_c, 0, 40, 0
1, 230210, Note_off_c, 0, 67, 0
1, 230210, Note_off_c, 0, 64, 0
1, 230210, Note_off_c, 0, 52, 0
1, 230210, Note_off_c, 0, 79, 0
1, 230210, Note_off_c, 0, 76, 0
1, 230210, Note_on_c, 0, 77, 36
1, 230210, Note_on_c, 0, 55, 36
1, 230210, Note_on_c, 0, 65, 36
1, 230210, Note_on_c, 0, 43, 36
1, 230402, Note_off_c, 0, 43, 0
1, 230402, Note_off_c, 0, 65, 0
1, 230402, Note_off_c, 0, 55, 0
1, 230402, Note_off_c, 0, 77, 0
1, 230402, Note_on_c, 0, 74, 36
1, 230402, Note_on_c, 0, 77, 36
1, 230402, Note_on_c, 0, 50, 36
1, 230402, Note_on_c, 0, 62, 36
1, 230402, Note_on_c, 0, 65, 36
1, 230402, Note_on_c, 0, 38, 36
1, 230594, Note_off_c, 0, 38, 0
1, 230594, Note_off_c, 0, 65, 0
1, 230594, Note_off_c, 0, 62, 0
1, 230594, Note_off_c, 0, 50, 0
1, 230594, Note_off_c, 0, 77, 0
1, 230594, Note_off_c, 0, 74, 0
1, 230594, Note_on_c, 0, 74, 36
1, 230594, Note_on_c, 0, 52, 36
1, 230594, Note_on_c, 0, 62, 36
1, 230594, Note_on_c, 0, 40, 36
1, 230786, Note_off_c, 0, 40, 0
1, 230786, Note_off_c, 0, 62, 0
1, 230786, Note_off_c, 0, 52, 0
1, 230786, Note_off_c, 0, 74, 0
1, 230786, Note_on_c, 0, 76, 36
1, 230786, Note_on_c, 0, 53, 36
1, 230786, Note_on_c, 0, 64, 36
1, 230786, Note_on_c, 0, 41, 36
1, 230978, Note_off_c, 0, 41, 0
1, 230978, Note_off_c, 0, 64, 0
1, 230978, Note_off_c, 0, 53, 0
1, 230978, Note_off_c, 0, 76, 0
1, 230978, Note_on_c, 0, 77, 36
1, 230978, Note_on_c, 0, 57, 36
1, 230978, Note_on_c, 0, 65, 36
1, 230978, Note_on_c, 0, 45, 36
1, 231170, Note_off_c, 0, 45, 0
1, 231170, Note_off_c, 0, 65, 0
1, 231170, Note_off_c, 0, 57, 0
1, 231170, Note_off_c, 0, 77, 0
1, 231170, Note_on_c, 0, 74, 36
1, 231170, Note_on_c, 0, 50, 36
1, 231170, Note_on_c, 0, 62, 36
1, 231170, Note_on_c, 0, 38, 36
1, 231362, Note_off_c, 0, 38, 0
1, 231362, Note_off_c, 0, 62, 0
1, 231362, Note_off_c, 0, 50, 0
1, 231362, Note_off_c, 0, 74, 0
1, 231362, Note_on_c, 0, 76, 36
1, 231362, Note_on_c, 0, 52, 36
1, 231362, Note_on_c, 0, 64, 36
1, 231362, Note_on_c, 0, 40, 36
1, 231554, Note_off_c, 0, 40, 0
1, 231554, Note_off_c, 0, 64, 0
1, 231554, Note_off_c, 0, 52, 0
1, 231554, Note_off_c, 0, 76, 0
1, 231554, Note_on_c, 0, 77, 36
1, 231554, Note_on_c, 0, 53, 36
1, 231554, Note_on_c, 0, 65, 36
1, 231554, Note_on_c, 0, 41, 36
1, 231746, Note_off_c, 0, 41, 0
1, 231746, Note_off_c, 0, 65, 0
1, 231746, Note_off_c, 0, 53, 0
1, 231746, Note_off_c, 0, 77, 0
1, 231746, Note_on_c, 0, 74, 36
1, 231746, Note_on_c, 0, 57, 36
1, 231746, Note_on_c, 0, 62, 36
1, 231746, Note_on_c, 0, 45, 36
1, 231938, Note_off_c, 0, 45, 0
1, 231938, Note_off_c, 0, 62, 0
1, 231938, Note_off_c, 0, 57, 0
1, 231938, Note_off_c, 0, 74, 0
1, 231938, Note_on_c, 0, 77, 36
1, 231938, Note_on_c, 0, 81, 36
1, 231938, Note_on_c, 0, 50, 36
1, 231938, Note_on_c, 0, 65, 36
1, 231938, Note_on_c, 0, 69, 36
1, 231938, Note_on_c, 0, 38, 36
1, 232130, Note_off_c, 0, 38, 0
1, 232130, Note_off_c, 0, 50, 0
1, 232130, Note_on_c, 0, 52, 36
1, 232130, Note_on_c, 0, 40, 36
1, 232226, Note_off_c, 0, 69, 0
1, 232226, Note_off_c, 0, 65, 0
1, 232226, Note_off_c, 0, 81, 0
1, 232226, Note_off_c, 0, 77, 0
1, 232322, Note_off_c, 0, 40, 0
1, 232322, Note_off_c, 0, 52, 0
1, 232322, Note_on_c, 0, 84, 36
1, 232322, Note_on_c, 0, 53, 36
1, 232322, Note_on_c, 0, 72, 36
1, 232322, Note_on_c, 0, 41, 36
1, 232514, Note_off_c, 0, 41, 0
1, 232514, Note_off_c, 0, 53, 0
1, 232514, Note_on_c, 0, 57, 36
1, 232514, Note_on_c, 0, 45, 36
1, 232610, Note_off_c, 0, 72, 0
1, 232610, Note_off_c, 0, 84, 0
1, 232706, Note_off_c, 0, 45, 0
1, 232706, Note_off_c, 0, 57, 0
1, 232706, Note_on_c, 0, 81, 36
1, 232706, Note_on_c, 0, 86, 36
1, 232706, Note_on_c, 0, 50, 36
1, 232706, Note_on_c, 0, 69, 36
1, 232706, Note_on_c, 0, 74, 36
1, 232706, Note_on_c, 0, 38, 36
1, 232898, Note_off_c, 0, 38, 0
1, 232898, Note_off_c, 0, 50, 0
1, 232898, Note_on_c, 0, 52, 36
1, 232898, Note_on_c, 0, 40, 36
1, 232994, Note_off_c, 0, 74, 0
1, 232994, Note_off_c, 0, 69, 0
1, 232994, Note_off_c, 0, 86, 0
1, 232994, Note_off_c, 0, 81, 0
1, 233090, Note_off_c, 0, 40, 0
1, 233090, Note_off_c, 0, 52, 0
1, 233090, Note_on_c, 0, 88, 36
1, 233090, Note_on_c, 0, 53, 36
1, 233090, Note_on_c, 0, 76, 36
1, 233090, Note_on_c, 0, 41, 36
1, 233282, Note_off_c, 0, 41, 0
1, 233282, Note_off_c, 0, 53, 0
1, 233282, Note_on_c, 0, 57, 36
1, 233282, Note_on_c, 0, 45, 36
1, 233378, Note_off_c, 0, 76, 0
1, 233378, Note_off_c, 0, 88, 0
1, 233474, Note_off_c, 0, 45, 0
1, 233474, Note_off_c, 0, 57, 0
1, 233474, Note_on_c, 0, 82, 36
1, 233474, Note_on_c, 0, 89, 36
1, 233474, Note_on_c, 0, 46, 36
1, 233474, Note_on_c, 0, 70, 36
1, 233474, Note_on_c, 0, 77, 36
1, 233474, Note_on_c, 0, 34, 36
1, 233666, Note_off_c, 0, 34, 0
1, 233666, Note_off_c, 0, 46, 0
1, 233666, Note_on_c, 0, 48, 36
1, 233666, Note_on_c, 0, 36, 36
1, 233858, Note_off_c, 0, 36, 0
1, 233858, Note_off_c, 0, 48, 0
1, 233858, Note_on_c, 0, 50, 36
1, 233858, Note_on_c, 0, 38, 36
1, 234050, Note_off_c, 0, 38, 0
1, 234050, Note_off_c, 0, 50, 0
1, 234050, Note_on_c, 0, 53, 36
1, 234050, Note_on_c, 0, 41, 36
1, 234146, Note_off_c, 0, 77, 0
1, 234146, Note_off_c, 0, 70, 0
1, 234146, Note_off_c, 0, 89, 0
1, 234146, Note_off_c, 0, 82, 0
1, 234242, Note_off_c, 0, 41, 0
1, 234242, Note_off_c, 0, 53, 0
1, 234242, Note_on_c, 0, 89, 36
1, 234242, Note_on_c, 0, 46, 36
1, 234242, Note_on_c, 0, 77, 36
1, 234242, Note_on_c, 0, 34, 36
1, 234434, Note_off_c, 0, 34, 0
1, 234434, Note_off_c, 0, 77, 0
1, 234434, Note_off_c, 0, 46, 0
1, 234434, Note_off_c, 0, 89, 0
1, 234434, Note_on_c, 0, 88, 36
1, 234434, Note_on_c, 0, 48, 36
1, 234434, Note_on_c, 0, 76, 36
1, 234434, Note_on_c, 0, 36, 36
1, 234626, Note_off_c, 0, 36, 0
1, 234626, Note_off_c, 0, 76, 0
1, 234626, Note_off_c, 0, 48, 0
1, 234626, Note_off_c, 0, 88, 0
1, 234626, Note_on_c, 0, 84, 36
1, 234626, Note_on_c, 0, 50, 36
1, 234626, Note_on_c, 0, 72, 36
1, 234626, Note_on_c, 0, 38, 36
1, 234818, Note_off_c, 0, 38, 0
1, 234818, Note_off_c, 0, 72, 0
1, 234818, Note_off_c, 0, 50, 0
1, 234818, Note_off_c, 0, 84, 0
1, 234818, Note_on_c, 0, 81, 36
1, 234818, Note_on_c, 0, 53, 36
1, 234818, Note_on_c, 0, 69, 36
1, 234818, Note_on_c, 0, 41, 36
1, 235010, Note_off_c, 0, 41, 0
1, 235010, Note_off_c, 0, 69, 0
1, 235010, Note_off_c, 0, 53, 0
1, 235010, Note_off_c, 0, 81, 0
1, 235010, Note_on_c, 0, 77, 36
1, 235010, Note_on_c, 0, 81, 36
1, 235010, Note_on_c, 0, 48, 36
1, 235010, Note_on_c, 0, 65, 36
1, 235010, Note_on_c, 0, 69, 36
1, 235010, Note_on_c, 0, 36, 36
1, 235202, Note_off_c, 0, 36, 0
1, 235202, Note_off_c, 0, 48, 0
1, 235202, Note_on_c, 0, 50, 36
1, 235202, Note_on_c, 0, 38, 36
1, 235298, Note_off_c, 0, 69, 0
1, 235298, Note_off_c, 0, 65, 0
1, 235298, Note_off_c, 0, 81, 0
1, 235298, Note_off_c, 0, 77, 0
1, 235394, Note_off_c, 0, 38, 0
1, 235394, Note_off_c, 0, 50, 0
1, 235394, Note_on_c, 0, 84, 36
1, 235394, Note_on_c, 0, 52, 36
1, 235394, Note_on_c, 0, 72, 36
1, 235394, Note_on_c, 0, 40, 36
1, 235490, Note_off_c, 0, 72, 0
1, 235490, Note_off_c, 0, 84, 0
1, 235522, Note_on_c, 0, 81, 36
1, 235522, Note_on_c, 0, 69, 36
1, 235586, Note_off_c, 0, 40, 0
1, 235586, Note_off_c, 0, 52, 0
1, 235586, Note_on_c, 0, 55, 36
1, 235586, Note_on_c, 0, 43, 36
1, 235618, Note_off_c, 0, 69, 0
1, 235618, Note_off_c, 0, 81, 0
1, 235651, Note_on_c, 0, 84, 36
1, 235651, Note_on_c, 0, 72, 36
1, 235747, Note_off_c, 0, 72, 0
1, 235747, Note_off_c, 0, 84, 0
1, 235779, Note_off_c, 0, 43, 0
1, 235779, Note_off_c, 0, 55, 0
1, 235779, Note_on_c, 0, 81, 36
1, 235779, Note_on_c, 0, 48, 36
1, 235779, Note_on_c, 0, 69, 36
1, 235779, Note_on_c, 0, 36, 36
1, 235971, Note_off_c, 0, 36, 0
1, 235971, Note_off_c, 0, 48, 0
1, 235971, Note_on_c, 0, 50, 36
1, 235971, Note_on_c, 0, 38, 36
1, 236067, Note_off_c, 0, 69, 0
1, 236067, Note_off_c, 0, 81, 0
1, 236163, Note_off_c, 0, 38, 0
1, 236163, Note_off_c, 0, 50, 0
1, 236163, Note_on_c, 0, 77, 36
1, 236163, Note_on_c, 0, 52, 36
1, 236163, Note_on_c, 0, 65, 36
1, 236163, Note_on_c, 0, 40, 36
1, 236355, Note_off_c, 0, 40, 0
1, 236355, Note_off_c, 0, 65, 0
1, 236355, Note_off_c, 0, 52, 0
1, 236355, Note_off_c, 0, 77, 0
1, 236355, Note_on_c, 0, 76, 36
1, 236355, Note_on_c, 0, 55, 36
1, 236355, Note_on_c, 0, 64, 36
1, 236355, Note_on_c, 0, 43, 36
1, 236547, Note_off_c, 0, 43, 0
1, 236547, Note_off_c, 0, 64, 0
1, 236547, Note_off_c, 0, 55, 0
1, 236547, Note_off_c, 0, 76, 0
1, 236547, Note_on_c, 0, 74, 36
1, 236547, Note_on_c, 0, 79, 36
1, 236547, Note_on_c, 0, 50, 36
1, 236547, Note_on_c, 0, 62, 36
1, 236547, Note_on_c, 0, 67, 36
1, 236547, Note_on_c, 0, 38, 36
1, 236739, Note_off_c, 0, 38, 0
1, 236739, Note_off_c, 0, 50, 0
1, 236739, Note_on_c, 0, 52, 36
1, 236739, Note_on_c, 0, 40, 36
1, 236931, Note_off_c, 0, 40, 0
1, 236931, Note_off_c, 0, 52, 0
1, 236931, Note_on_c, 0, 53, 36
1, 236931, Note_on_c, 0, 41, 36
1, 237027, Note_off_c, 0, 67, 0
1, 237027, Note_off_c, 0, 62, 0
1, 237027, Note_off_c, 0, 79, 0
1, 237027, Note_off_c, 0, 74, 0
1, 237123, Note_off_c, 0, 41, 0
1, 237123, Note_off_c, 0, 53, 0
1, 237123, Note_on_c, 0, 81, 36
1, 237123, Note_on_c, 0, 57, 36
1, 237123, Note_on_c, 0, 69, 36
1, 237123, Note_on_c, 0, 45, 36
1, 237315, Note_off_c, 0, 45, 0
1, 237315, Note_off_c, 0, 57, 0
1, 237315, Note_on_c, 0, 50, 36
1, 237315, Note_on_c, 0, 38, 36
1, 237411, Note_off_c, 0, 69, 0
1, 237411, Note_off_c, 0, 81, 0
1, 237507, Note_off_c, 0, 38, 0
1, 237507, Note_off_c, 0, 50, 0
1, 237507, Note_on_c, 0, 74, 36
1, 237507, Note_on_c, 0, 52, 36
1, 237507, Note_on_c, 0, 62, 36
1, 237507, Note_on_c, 0, 40, 36
1, 237699, Note_off_c, 0, 40, 0
1, 237699, Note_off_c, 0, 62, 0
1, 237699, Note_off_c, 0, 52, 0
1, 237699, Note_off_c, 0, 74, 0
1, 237699, Note_on_c, 0, 76, 36
1, 237699, Note_on_c, 0, 53, 36
1, 237699, Note_on_c, 0, 64, 36
1, 237699, Note_on_c, 0, 41, 36
1, 237891, Note_off_c, 0, 41, 0
1, 237891, Note_off_c, 0, 64, 0
1, 237891, Note_off_c, 0, 53, 0
1, 237891, Note_off_c, 0, 76, 0
1, 237891, Note_on_c, 0, 77, 36
1, 237891, Note_on_c, 0, 57, 36
1, 237891, Note_on_c, 0, 65, 36
1, 237891, Note_on_c, 0, 45, 36
1, 238083, Note_off_c, 0, 45, 0
1, 238083, Note_off_c, 0, 65, 0
1, 238083, Note_off_c, 0, 57, 0
1, 238083, Note_off_c, 0, 77, 0
1, 238083, Note_on_c, 0, 69, 36
1, 238083, Note_on_c, 0, 74, 36
1, 238083, Note_on_c, 0, 50, 36
1, 238083, Note_on_c, 0, 57, 36
1, 238083, Note_on_c, 0, 62, 36
1, 238083, Note_on_c, 0, 38, 36
1, 238275, Note_off_c, 0, 38, 0
1, 238275, Note_off_c, 0, 50, 0
1, 238275, Note_on_c, 0, 52, 36
1, 238275, Note_on_c, 0, 40, 36
1, 238467, Note_off_c, 0, 40, 0
1, 238467, Note_off_c, 0, 52, 0
1, 238467, Note_off_c, 0, 62, 0
1, 238467, Note_off_c, 0, 57, 0
1, 238467, Note_off_c, 0, 74, 0
1, 238467, Note_off_c, 0, 69, 0
1, 238467, Note_on_c, 0, 72, 36
1, 238467, Note_on_c, 0, 53, 36
1, 238467, Note_on_c, 0, 60, 36
1, 238467, Note_on_c, 0, 41, 36
1, 238659, Note_off_c, 0, 41, 0
1, 238659, Note_off_c, 0, 53, 0
1, 238659, Note_on_c, 0, 57, 36
1, 238659, Note_on_c, 0, 45, 36
1, 238851, Note_off_c, 0, 45, 0
1, 238851, Note_off_c, 0, 57, 0
1, 238851, Note_off_c, 0, 60, 0
1, 238851, Note_off_c, 0, 72, 0
1, 238851, Note_on_c, 0, 69, 36
1, 238851, Note_on_c, 0, 50, 36
1, 238851, Note_on_c, 0, 57, 36
1, 238851, Note_on_c, 0, 38, 36
1, 239043, Note_off_c, 0, 38, 0
1, 239043, Note_off_c, 0, 57, 0
1, 239043, Note_off_c, 0, 50, 0
1, 239043, Note_off_c, 0, 69, 0
1, 239043, Note_on_c, 0, 52, 36
1, 239043, Note_on_c, 0, 40, 36
1, 239043, Note_on_c, 0, 69, 50
1, 239043, Note_on_c, 0, 57, 50
1, 239139, Note_off_c, 0, 57, 0
1, 239139, Note_off_c, 0, 69, 0
1, 239235, Note_off_c, 0, 40, 0
1, 239235, Note_off_c, 0, 52, 0
1, 239235, Note_on_c, 0, 53, 36
1, 239235, Note_on_c, 0, 41, 36
1, 239235, Note_on_c, 0, 69, 50
1, 239235, Note_on_c, 0, 57, 50
1, 239331, Note_off_c, 0, 57, 0
1, 239331, Note_off_c, 0, 69, 0
1, 239331, Note_on_c, 0, 69, 50
1, 239331, Note_on_c, 0, 57, 50
1, 239427, Note_off_c, 0, 57, 0
1, 239427, Note_off_c, 0, 69, 0
1, 239427, Note_off_c, 0, 41, 0
1, 239427, Note_off_c, 0, 53, 0
1, 239427, Note_on_c, 0, 45, 36
1, 239427, Note_on_c, 0, 69, 50
1, 239427, Note_on_c, 0, 57, 50
1, 239523, Note_off_c, 0, 57, 0
1, 239523, Note_off_c, 0, 69, 0
1, 239523, Note_on_c, 0, 69, 50
1, 239523, Note_on_c, 0, 57, 50
1, 239619, Note_off_c, 0, 57, 0
1, 239619, Note_off_c, 0, 69, 0
1, 239619, Note_off_c, 0, 45, 0
1, 239619, Note_on_c, 0, 74, 36
1, 239619, Note_on_c, 0, 50, 36
1, 239619, Note_on_c, 0, 38, 36
1, 239619, Note_on_c, 0, 62, 36
1, 239619, Note_on_c, 0, 38, 36
1, 239619, Note_on_c, 0, 26, 36
1, 239811, Note_off_c, 0, 38, 0
1, 239811, Note_off_c, 0, 50, 0
1, 239811, Note_on_c, 0, 52, 36
1, 239811, Note_on_c, 0, 40, 36
1, 239907, Note_off_c, 0, 62, 0
1, 239907, Note_off_c, 0, 74, 0
1, 240003, Note_off_c, 0, 40, 0
1, 240003, Note_off_c, 0, 52, 0
1, 240003, Note_on_c, 0, 72, 36
1, 240003, Note_on_c, 0, 53, 36
1, 240003, Note_on_c, 0, 60, 36
1, 240003, Note_on_c, 0, 41, 36
1, 240195, Note_off_c, 0, 41, 0
1, 240195, Note_off_c, 0, 53, 0
1, 240195, Note_on_c, 0, 57, 36
1, 240195, Note_on_c, 0, 45, 36
1, 240291, Note_off_c, 0, 60, 0
1, 240291, Note_off_c, 0, 72, 0
1, 240387, Note_off_c, 0, 45, 0
1, 240387, Note_off_c, 0, 57, 0
1, 240387, Note_on_c, 0, 69, 36
1, 240387, Note_on_c, 0, 50, 36
1, 240387, Note_on_c, 0, 57, 36
1, 240387, Note_on_c, 0, 38, 36
1, 240579, Note_off_c, 0, 38, 0
1, 240579, Note_off_c, 0, 57, 0
1, 240579, Note_off_c, 0, 50, 0
1, 240579, Note_off_c, 0, 69, 0
1, 240579, Note_on_c, 0, 52, 36
1, 240579, Note_on_c, 0, 40, 36
1, 240579, Note_on_c, 0, 69, 50
1, 240579, Note_on_c, 0, 57, 50
1, 240675, Note_off_c, 0, 57, 0
1, 240675, Note_off_c, 0, 69, 0
1, 240771, Note_off_c, 0, 40, 0
1, 240771, Note_off_c, 0, 52, 0
1, 240771, Note_on_c, 0, 53, 36
1, 240771, Note_on_c, 0, 41, 36
1, 240771, Note_on_c, 0, 69, 50
1, 240771, Note_on_c, 0, 57, 50
1, 240867, Note_off_c, 0, 57, 0
1, 240867, Note_off_c, 0, 69, 0
1, 240867, Note_on_c, 0, 69, 50
1, 240867, Note_on_c, 0, 57, 50
1, 240963, Note_off_c, 0, 57, 0
1, 240963, Note_off_c, 0, 69, 0
1, 240963, Note_off_c, 0, 41, 0
1, 240963, Note_off_c, 0, 53, 0
1, 240963, Note_on_c, 0, 45, 36
1, 240963, Note_on_c, 0, 69, 50
1, 240963, Note_on_c, 0, 57, 50
1, 241059, Note_off_c, 0, 57, 0
1, 241059, Note_off_c, 0, 69, 0
1, 241059, Note_off_c, 0, 26, 0
1, 241059, Note_off_c, 0, 38, 0
1, 241059, Note_on_c, 0, 69, 50
1, 241059, Note_on_c, 0, 57, 50
1, 241155, Note_off_c, 0, 57, 0
1, 241155, Note_off_c, 0, 69, 0
1, 241155, Note_off_c, 0, 45, 0
1, 241155, Note_on_c, 0, 74, 36
1, 241155, Note_on_c, 0, 50, 36
1, 241155, Note_on_c, 0, 38, 36
1, 241155, Note_on_c, 0, 62, 36
1, 241155, Note_on_c, 0, 38, 36
1, 241155, Note_on_c, 0, 26, 36
1, 241347, Note_off_c, 0, 38, 0
1, 241347, Note_off_c, 0, 50, 0
1, 241347, Note_on_c, 0, 52, 36
1, 241347, Note_on_c, 0, 40, 36
1, 241443, Note_off_c, 0, 62, 0
1, 241443, Note_off_c, 0, 74, 0
1, 241539, Note_off_c, 0, 40, 0
1, 241539, Note_off_c, 0, 52, 0
1, 241539, Note_on_c, 0, 72, 36
1, 241539, Note_on_c, 0, 53, 36
1, 241539, Note_on_c, 0, 60, 36
1, 241539, Note_on_c, 0, 41, 36
1, 241731, Note_off_c, 0, 41, 0
1, 241731, Note_off_c, 0, 53, 0
1, 241731, Note_on_c, 0, 57, 36
1, 241731, Note_on_c, 0, 45, 36
1, 241827, Note_off_c, 0, 60, 0
1, 241827, Note_off_c, 0, 72, 0
1, 241923, Note_off_c, 0, 45, 0
1, 241923, Note_off_c, 0, 57, 0
1, 241923, Note_on_c, 0, 50, 36
1, 241923, Note_on_c, 0, 38, 36
1, 241923, Note_on_c, 0, 69, 36
1, 241923, Note_on_c, 0, 57, 36
1, 242115, Note_off_c, 0, 57, 0
1, 242115, Note_off_c, 0, 69, 0
1, 242115, Note_off_c, 0, 38, 0
1, 242115, Note_off_c, 0, 50, 0
1, 242115, Note_on_c, 0, 52, 36
1, 242115, Note_on_c, 0, 40, 36
1, 242115, Note_on_c, 0, 69, 50
1, 242115, Note_on_c, 0, 57, 50
1, 242211, Note_off_c, 0, 57, 0
1, 242211, Note_off_c, 0, 69, 0
1, 242307, Note_off_c, 0, 40, 0
1, 242307, Note_off_c, 0, 52, 0
1, 242307, Note_on_c, 0, 53, 36
1, 242307, Note_on_c, 0, 41, 36
1, 242307, Note_on_c, 0, 69, 50
1, 242307, Note_on_c, 0, 57, 50
1, 242403, Note_off_c, 0, 57, 0
1, 242403, Note_off_c, 0, 69, 0
1, 242403, Note_on_c, 0, 69, 50
1, 242403, Note_on_c, 0, 57, 50
1, 242499, Note_off_c, 0, 57, 0
1, 242499, Note_off_c, 0, 69, 0
1, 242499, Note_off_c, 0, 41, 0
1, 242499, Note_off_c, 0, 53, 0
1, 242499, Note_on_c, 0, 45, 36
1, 242499, Note_on_c, 0, 69, 50
1, 242499, Note_on_c, 0, 57, 50
1, 242595, Note_off_c, 0, 57, 0
1, 242595, Note_off_c, 0, 69, 0
1, 242595, Note_off_c, 0, 26, 0
1, 242595, Note_off_c, 0, 38, 0
1, 242595, Note_on_c, 0, 69, 50
1, 242595, Note_on_c, 0, 57, 50
1, 242691, Note_off_c, 0, 57, 0
1, 242691, Note_off_c, 0, 69, 0
1, 242691, Note_off_c, 0, 45, 0
1, 242691, Note_on_c, 0, 74, 36
1, 242691, Note_on_c, 0, 50, 36
1, 242691, Note_on_c, 0, 38, 36
1, 242691, Note_on_c, 0, 62, 36
1, 242691, Note_on_c, 0, 38, 36
1, 242691, Note_on_c, 0, 26, 36
1, 242883, Note_off_c, 0, 38, 0
1, 242883, Note_off_c, 0, 50, 0
1, 242883, Note_on_c, 0, 52, 36
1, 242883, Note_on_c, 0, 40, 36
1, 242979, Note_off_c, 0, 62, 0
1, 242979, Note_off_c, 0, 74, 0
1, 243075, Note_off_c, 0, 40, 0
1, 243075, Note_off_c, 0, 52, 0
1, 243075, Note_on_c, 0, 72, 36
1, 243075, Note_on_c, 0, 53, 36
1, 243075, Note_on_c, 0, 60, 36
1, 243075, Note_on_c, 0, 41, 36
1, 243267, Note_off_c, 0, 41, 0
1, 243267, Note_off_c, 0, 53, 0
1, 243267, Note_on_c, 0, 57, 36
1, 243267, Note_on_c, 0, 45, 36
1, 243363, Note_off_c, 0, 60, 0
1, 243363, Note_off_c, 0, 72, 0
1, 243459, Note_off_c, 0, 45, 0
1, 243459, Note_off_c, 0, 57, 0
1, 243459, Note_on_c, 0, 50, 36
1, 243459, Note_on_c, 0, 38, 36
1, 243459, Note_on_c, 0, 69, 36
1, 243459, Note_on_c, 0, 57, 36
1, 243651, Note_off_c, 0, 57, 0
1, 243651, Note_off_c, 0, 69, 0
1, 243651, Note_off_c, 0, 38, 0
1, 243651, Note_off_c, 0, 50, 0
1, 243651, Note_on_c, 0, 52, 36
1, 243651, Note_on_c, 0, 40, 36
1, 243651, Note_on_c, 0, 69, 50
1, 243651, Note_on_c, 0, 57, 50
1, 243747, Note_off_c, 0, 57, 0
1, 243747, Note_off_c, 0, 69, 0
1, 243843, Note_off_c, 0, 40, 0
1, 243843, Note_off_c, 0, 52, 0
1, 243843, Note_on_c, 0, 53, 36
1, 243843, Note_on_c, 0, 41, 36
1, 243843, Note_on_c, 0, 69, 50
1, 243843, Note_on_c, 0, 57, 50
1, 243939, Note_off_c, 0, 57, 0
1, 243939, Note_off_c, 0, 69, 0
1, 243939, Note_on_c, 0, 69, 50
1, 243939, Note_on_c, 0, 57, 50
1, 244035, Note_off_c, 0, 57, 0
1, 244035, Note_off_c, 0, 69, 0
1, 244035, Note_off_c, 0, 41, 0
1, 244035, Note_off_c, 0, 53, 0
1, 244035, Note_on_c, 0, 45, 36
1, 244035, Note_on_c, 0, 69, 50
1, 244035, Note_on_c, 0, 57, 50
1, 244131, Note_off_c, 0, 57, 0
1, 244131, Note_off_c, 0, 69, 0
1, 244131, Note_off_c, 0, 26, 0
1, 244131, Note_off_c, 0, 38, 0
1, 244131, Note_on_c, 0, 69, 50
1, 244131, Note_on_c, 0, 57, 50
1, 244227, Note_off_c, 0, 57, 0
1, 244227, Note_off_c, 0, 69, 0
1, 244227, Note_off_c, 0, 45, 0
1, 244227, Note_on_c, 0, 74, 36
1, 244227, Note_on_c, 0, 50, 36
1, 244227, Note_on_c, 0, 38, 36
1, 244227, Note_on_c, 0, 62, 36
1, 244227, Note_on_c, 0, 38, 36
1, 244227, Note_on_c, 0, 26, 36
1, 244419, Note_off_c, 0, 38, 0
1, 244419, Note_off_c, 0, 50, 0
1, 244419, Note_on_c, 0, 52, 36
1, 244419, Note_on_c, 0, 40, 36
1, 244515, Note_off_c, 0, 62, 0
1, 244515, Note_off_c, 0, 74, 0
1, 244611, Note_off_c, 0, 40, 0
1, 244611, Note_off_c, 0, 52, 0
1, 244611, Note_on_c, 0, 72, 36
1, 244611, Note_on_c, 0, 53, 36
1, 244611, Note_on_c, 0, 60, 36
1, 244611, Note_on_c, 0, 41, 36
1, 244803, Note_off_c, 0, 41, 0
1, 244803, Note_off_c, 0, 53, 0
1, 244803, Note_on_c, 0, 57, 36
1, 244803, Note_on_c, 0, 45, 36
1, 244899, Note_off_c, 0, 60, 0
1, 244899, Note_off_c, 0, 72, 0
1, 244995, Note_off_c, 0, 45, 0
1, 244995, Note_off_c, 0, 57, 0
1, 244995, Note_on_c, 0, 50, 36
1, 244995, Note_on_c, 0, 38, 36
1, 244995, Note_on_c, 0, 69, 36
1, 244995, Note_on_c, 0, 57, 36
1, 245187, Note_off_c, 0, 57, 0
1, 245187, Note_off_c, 0, 69, 0
1, 245187, Note_off_c, 0, 38, 0
1, 245187, Note_off_c, 0, 50, 0
1, 245187, Note_on_c, 0, 52, 36
1, 245187, Note_on_c, 0, 40, 36
1, 245187, Note_on_c, 0, 69, 50
1, 245187, Note_on_c, 0, 57, 50
1, 245283, Note_off_c, 0, 57, 0
1, 245283, Note_off_c, 0, 69, 0
1, 245379, Note_off_c, 0, 40, 0
1, 245379, Note_off_c, 0, 52, 0
1, 245379, Note_on_c, 0, 53, 36
1, 245379, Note_on_c, 0, 41, 36
1, 245379, Note_on_c, 0, 69, 50
1, 245379, Note_on_c, 0, 57, 50
1, 245475, Note_off_c, 0, 57, 0
1, 245475, Note_off_c, 0, 69, 0
1, 245475, Note_on_c, 0, 69, 50
1, 245475, Note_on_c, 0, 57, 50
1, 245571, Note_off_c, 0, 57, 0
1, 245571, Note_off_c, 0, 69, 0
1, 245571, Note_off_c, 0, 41, 0
1, 245571, Note_off_c, 0, 53, 0
1, 245571, Note_on_c, 0, 45, 36
1, 245571, Note_on_c, 0, 69, 50
1, 245571, Note_on_c, 0, 57, 50
1, 245667, Note_off_c, 0, 57, 0
1, 245667, Note_off_c, 0, 69, 0
1, 245667, Note_off_c, 0, 26, 0
1, 245667, Note_off_c, 0, 38, 0
1, 245667, Note_on_c, 0, 69, 50
1, 245667, Note_on_c, 0, 57, 50
1, 245763, Note_off_c, 0, 57, 0
1, 245763, Note_off_c, 0, 69, 0
1, 245763, Note_off_c, 0, 45, 0
1, 245763, Note_on_c, 0, 74, 36
1, 245763, Note_on_c, 0, 50, 36
1, 245763, Note_on_c, 0, 38, 36
1, 245763, Note_on_c, 0, 62, 36
1, 245763, Note_on_c, 0, 38, 36
1, 245763, Note_on_c, 0, 26, 36
1, 245955, Note_off_c, 0, 38, 0
1, 245955, Note_off_c, 0, 50, 0
1, 245955, Note_on_c, 0, 52, 36
1, 245955, Note_on_c, 0, 40, 36
1, 246051, Note_off_c, 0, 62, 0
1, 246051, Note_off_c, 0, 74, 0
1, 246147, Note_off_c, 0, 40, 0
1, 246147, Note_off_c, 0, 52, 0
1, 246147, Note_on_c, 0, 72, 36
1, 246147, Note_on_c, 0, 53, 36
1, 246147, Note_on_c, 0, 60, 36
1, 246147, Note_on_c, 0, 41, 36
1, 246339, Note_off_c, 0, 41, 0
1, 246339, Note_off_c, 0, 53, 0
1, 246339, Note_on_c, 0, 57, 36
1, 246339, Note_on_c, 0, 45, 36
1, 246435, Note_off_c, 0, 60, 0
1, 246435, Note_off_c, 0, 72, 0
1, 246531, Note_off_c, 0, 45, 0
1, 246531, Note_off_c, 0, 57, 0
1, 246531, Note_on_c, 0, 50, 36
1, 246531, Note_on_c, 0, 38, 36
1, 246531, Note_on_c, 0, 69, 36
1, 246531, Note_on_c, 0, 57, 36
1, 246723, Note_off_c, 0, 57, 0
1, 246723, Note_off_c, 0, 69, 0
1, 246723, Note_off_c, 0, 38, 0
1, 246723, Note_off_c, 0, 50, 0
1, 246723, Note_on_c, 0, 52, 36
1, 246723, Note_on_c, 0, 40, 36
1, 246723, Note_on_c, 0, 69, 50
1, 246723, Note_on_c, 0, 57, 50
1, 246819, Note_off_c, 0, 57, 0
1, 246819, Note_off_c, 0, 69, 0
1, 246915, Note_off_c, 0, 40, 0
1, 246915, Note_off_c, 0, 52, 0
1, 246915, Note_on_c, 0, 53, 36
1, 246915, Note_on_c, 0, 41, 36
1, 246915, Note_on_c, 0, 69, 50
1, 246915, Note_on_c, 0, 57, 50
1, 247011, Note_off_c, 0, 57, 0
1, 247011, Note_off_c, 0, 69, 0
1, 247011, Note_on_c, 0, 69, 50
1, 247011, Note_on_c, 0, 57, 50
1, 247107, Note_off_c, 0, 57, 0
1, 247107, Note_off_c, 0, 69, 0
1, 247107, Note_off_c, 0, 41, 0
1, 247107, Note_off_c, 0, 53, 0
1, 247107, Note_on_c, 0, 45, 36
1, 247107, Note_on_c, 0, 69, 50
1, 247107, Note_on_c, 0, 57, 50
1, 247203, Note_off_c, 0, 57, 0
1, 247203, Note_off_c, 0, 69, 0
1, 247203, Note_off_c, 0, 26, 0
1, 247203, Note_off_c, 0, 38, 0
1, 247203, Note_on_c, 0, 69, 50
1, 247203, Note_on_c, 0, 57, 50
1, 247299, Note_off_c, 0, 57, 0
1, 247299, Note_off_c, 0, 69, 0
1, 247299, Note_off_c, 0, 45, 0
1, 247299, Note_on_c, 0, 74, 36
1, 247299, Note_on_c, 0, 50, 36
1, 247299, Note_on_c, 0, 38, 36
1, 247299, Note_on_c, 0, 62, 36
1, 247299, Note_on_c, 0, 38, 36
1, 247299, Note_on_c, 0, 26, 36
1, 247491, Note_off_c, 0, 38, 0
1, 247491, Note_off_c, 0, 50, 0
1, 247491, Note_on_c, 0, 52, 36
1, 247491, Note_on_c, 0, 40, 36
1, 247587, Note_off_c, 0, 62, 0
1, 247587, Note_off_c, 0, 74, 0
1, 247683, Note_off_c, 0, 40, 0
1, 247683, Note_off_c, 0, 52, 0
1, 247683, Note_on_c, 0, 72, 36
1, 247683, Note_on_c, 0, 53, 36
1, 247683, Note_on_c, 0, 60, 36
1, 247683, Note_on_c, 0, 41, 36
1, 247875, Note_off_c, 0, 41, 0
1, 247875, Note_off_c, 0, 53, 0
1, 247875, Note_on_c, 0, 57, 36
1, 247875, Note_on_c, 0, 45, 36
1, 247971, Note_off_c, 0, 60, 0
1, 247971, Note_off_c, 0, 72, 0
1, 248067, Note_off_c, 0, 45, 0
1, 248067, Note_off_c, 0, 57, 0
1, 248067, Note_on_c, 0, 50, 36
1, 248067, Note_on_c, 0, 38, 36
1, 248067, Note_on_c, 0, 69, 36
1, 248067, Note_on_c, 0, 57, 36
1, 248259, Note_off_c, 0, 57, 0
1, 248259, Note_off_c, 0, 69, 0
1, 248259, Note_off_c, 0, 38, 0
1, 248259, Note_off_c, 0, 50, 0
1, 248259, Note_on_c, 0, 52, 36
1, 248259, Note_on_c, 0, 40, 36
1, 248259, Note_on_c, 0, 69, 50
1, 248259, Note_on_c, 0, 57, 50
1, 248355, Note_off_c, 0, 57, 0
1, 248355, Note_off_c, 0, 69, 0
1, 248451, Note_off_c, 0, 40, 0
1, 248451, Note_off_c, 0, 52, 0
1, 248451, Note_on_c, 0, 53, 36
1, 248451, Note_on_c, 0, 41, 36
1, 248451, Note_on_c, 0, 69, 50
1, 248451, Note_on_c, 0, 57, 50
1, 248547, Note_off_c, 0, 57, 0
1, 248547, Note_off_c, 0, 69, 0
1, 248547, Note_on_c, 0, 69, 50
1, 248547, Note_on_c, 0, 57, 50
1, 248643, Note_off_c, 0, 57, 0
1, 248643, Note_off_c, 0, 69, 0
1, 248643, Note_off_c, 0, 41, 0
1, 248643, Note_off_c, 0, 53, 0
1, 248643, Note_on_c, 0, 57, 36
1, 248643, Note_on_c, 0, 45, 36
1, 248643, Note_on_c, 0, 69, 50
1, 248643, Note_on_c, 0, 57, 50
1, 248739, Note_off_c, 0, 57, 0
1, 248739, Note_off_c, 0, 69, 0
1, 248739, Note_off_c, 0, 26, 0
1, 248739, Note_off_c, 0, 38, 0
1, 248739, Note_on_c, 0, 69, 50
1, 248739, Note_on_c, 0, 57, 50
1, 248835, Note_off_c, 0, 57, 0
1, 248835, Note_off_c, 0, 69, 0
1, 248835, Note_off_c, 0, 45, 0
1, 248835, Note_off_c, 0, 57, 0
1, 248835, Note_on_c, 0, 74, 36
1, 248835, Note_on_c, 0, 50, 36
1, 248835, Note_on_c, 0, 38, 36
1, 248835, Note_on_c, 0, 62, 36
1, 248835, Note_on_c, 0, 38, 36
1, 248835, Note_on_c, 0, 26, 36
1, 249027, Note_off_c, 0, 38, 0
1, 249027, Note_off_c, 0, 50, 0
1, 249027, Note_on_c, 0, 52, 36
1, 249027, Note_on_c, 0, 40, 36
1, 249123, Note_off_c, 0, 62, 0
1, 249123, Note_off_c, 0, 74, 0
1, 249219, Note_off_c, 0, 40, 0
1, 249219, Note_off_c, 0, 52, 0
1, 249219, Note_on_c, 0, 72, 36
1, 249219, Note_on_c, 0, 53, 36
1, 249219, Note_on_c, 0, 60, 36
1, 249219, Note_on_c, 0, 41, 36
1, 249411, Note_off_c, 0, 41, 0
1, 249411, Note_off_c, 0, 53, 0
1, 249411, Note_on_c, 0, 57, 36
1, 249411, Note_on_c, 0, 45, 36
1, 249507, Note_off_c, 0, 60, 0
1, 249507, Note_off_c, 0, 72, 0
1, 249603, Note_off_c, 0, 45, 0
1, 249603, Note_off_c, 0, 57, 0
1, 249603, Note_on_c, 0, 50, 36
1, 249603, Note_on_c, 0, 38, 36
1, 249603, Note_on_c, 0, 69, 36
1, 249603, Note_on_c, 0, 57, 36
1, 249795, Note_off_c, 0, 57, 0
1, 249795, Note_off_c, 0, 69, 0
1, 249795, Note_off_c, 0, 38, 0
1, 249795, Note_off_c, 0, 50, 0
1, 249795, Note_on_c, 0, 52, 36
1, 249795, Note_on_c, 0, 40, 36
1, 249795, Note_on_c, 0, 69, 50
1, 249795, Note_on_c, 0, 57, 50
1, 249891, Note_off_c, 0, 57, 0
1, 249891, Note_off_c, 0, 69, 0
1, 249987, Note_off_c, 0, 40, 0
1, 249987, Note_off_c, 0, 52, 0
1, 249987, Note_on_c, 0, 53, 36
1, 249987, Note_on_c, 0, 41, 36
1, 249987, Note_on_c, 0, 69, 50
1, 249987, Note_on_c, 0, 57, 50
1, 250083, Note_off_c, 0, 57, 0
1, 250083, Note_off_c, 0, 69, 0
1, 250083, Note_on_c, 0, 69, 50
1, 250083, Note_on_c, 0, 57, 50
1, 250179, Note_off_c, 0, 57, 0
1, 250179, Note_off_c, 0, 69, 0
1, 250179, Note_off_c, 0, 41, 0
1, 250179, Note_off_c, 0, 53, 0
1, 250179, Note_on_c, 0, 45, 36
1, 250179, Note_on_c, 0, 69, 50
1, 250179, Note_on_c, 0, 57, 50
1, 250275, Note_off_c, 0, 57, 0
1, 250275, Note_off_c, 0, 69, 0
1, 250275, Note_off_c, 0, 26, 0
1, 250275, Note_off_c, 0, 38, 0
1, 250275, Note_on_c, 0, 69, 50
1, 250275, Note_on_c, 0, 57, 50
1, 250371, Note_off_c, 0, 57, 0
1, 250371, Note_off_c, 0, 69, 0
1, 250371, Note_off_c, 0, 45, 0
1, 250371, Note_on_c, 0, 74, 36
1, 250371, Note_on_c, 0, 50, 36
1, 250371, Note_on_c, 0, 38, 36
1, 250371, Note_on_c, 0, 62, 36
1, 250371, Note_on_c, 0, 38, 36
1, 250371, Note_on_c, 0, 26, 36
1, 250563, Note_off_c, 0, 38, 0
1, 250563, Note_off_c, 0, 50, 0
1, 250563, Note_on_c, 0, 52, 36
1, 250563, Note_on_c, 0, 40, 36
1, 250659, Note_off_c, 0, 62, 0
1, 250659, Note_off_c, 0, 74, 0
1, 250755, Note_off_c, 0, 40, 0
1, 250755, Note_off_c, 0, 52, 0
1, 250755, Note_on_c, 0, 72, 36
1, 250755, Note_on_c, 0, 53, 36
1, 250755, Note_on_c, 0, 60, 36
1, 250755, Note_on_c, 0, 41, 36
1, 250947, Note_off_c, 0, 41, 0
1, 250947, Note_off_c, 0, 53, 0
1, 250947, Note_on_c, 0, 57, 36
1, 250947, Note_on_c, 0, 45, 36
1, 251043, Note_off_c, 0, 60, 0
1, 251043, Note_off_c, 0, 72, 0
1, 251139, Note_off_c, 0, 45, 0
1, 251139, Note_off_c, 0, 57, 0
1, 251139, Note_on_c, 0, 50, 36
1, 251139, Note_on_c, 0, 38, 36
1, 251139, Note_on_c, 0, 69, 36
1, 251139, Note_on_c, 0, 57, 36
1, 251331, Note_off_c, 0, 57, 0
1, 251331, Note_off_c, 0, 69, 0
1, 251331, Note_off_c, 0, 38, 0
1, 251331, Note_off_c, 0, 50, 0
1, 251331, Note_on_c, 0, 52, 36
1, 251331, Note_on_c, 0, 40, 36
1, 251331, Note_on_c, 0, 69, 50
1, 251331, Note_on_c, 0, 57, 50
1, 251427, Note_off_c, 0, 57, 0
1, 251427, Note_off_c, 0, 69, 0
1, 251523, Note_off_c, 0, 40, 0
1, 251523, Note_off_c, 0, 52, 0
1, 251523, Note_on_c, 0, 53, 36
1, 251523, Note_on_c, 0, 41, 36
1, 251523, Note_on_c, 0, 69, 50
1, 251523, Note_on_c, 0, 57, 50
1, 251619, Note_off_c, 0, 57, 0
1, 251619, Note_off_c, 0, 69, 0
1, 251619, Note_on_c, 0, 69, 50
1, 251619, Note_on_c, 0, 57, 50
1, 251715, Note_off_c, 0, 57, 0
1, 251715, Note_off_c, 0, 69, 0
1, 251715, Note_off_c, 0, 41, 0
1, 251715, Note_off_c, 0, 53, 0
1, 251715, Note_on_c, 0, 45, 36
1, 251715, Note_on_c, 0, 69, 50
1, 251715, Note_on_c, 0, 57, 50
1, 251811, Note_off_c, 0, 57, 0
1, 251811, Note_off_c, 0, 69, 0
1, 251811, Note_off_c, 0, 26, 0
1, 251811, Note_off_c, 0, 38, 0
1, 251811, Note_on_c, 0, 69, 50
1, 251811, Note_on_c, 0, 57, 50
1, 251907, Note_off_c, 0, 57, 0
1, 251907, Note_off_c, 0, 69, 0
1, 251907, Note_off_c, 0, 45, 0
1, 251907, Note_on_c, 0, 74, 36
1, 251907, Note_on_c, 0, 50, 36
1, 251907, Note_on_c, 0, 38, 36
1, 251907, Note_on_c, 0, 62, 36
1, 251907, Note_on_c, 0, 38, 36
1, 251907, Note_on_c, 0, 26, 36
1, 252099, Note_off_c, 0, 38, 0
1, 252099, Note_off_c, 0, 50, 0
1, 252099, Note_on_c, 0, 52, 36
1, 252099, Note_on_c, 0, 40, 36
1, 252195, Note_off_c, 0, 62, 0
1, 252195, Note_off_c, 0, 74, 0
1, 252291, Note_off_c, 0, 40, 0
1, 252291, Note_off_c, 0, 52, 0
1, 252291, Note_on_c, 0, 72, 36
1, 252291, Note_on_c, 0, 53, 36
1, 252291, Note_on_c, 0, 60, 36
1, 252291, Note_on_c, 0, 41, 36
1, 252483, Note_off_c, 0, 41, 0
1, 252483, Note_off_c, 0, 53, 0
1, 252483, Note_on_c, 0, 57, 36
1, 252483, Note_on_c, 0, 45, 36
1, 252579, Note_off_c, 0, 60, 0
1, 252579, Note_off_c, 0, 72, 0
1, 252675, Note_off_c, 0, 45, 0
1, 252675, Note_off_c, 0, 57, 0
1, 252675, Note_on_c, 0, 50, 36
1, 252675, Note_on_c, 0, 38, 36
1, 252675, Note_on_c, 0, 69, 36
1, 252675, Note_on_c, 0, 57, 36
1, 252867, Note_off_c, 0, 57, 0
1, 252867, Note_off_c, 0, 69, 0
1, 252867, Note_off_c, 0, 38, 0
1, 252867, Note_off_c, 0, 50, 0
1, 252867, Note_on_c, 0, 52, 36
1, 252867, Note_on_c, 0, 40, 36
1, 252867, Note_on_c, 0, 69, 50
1, 252867, Note_on_c, 0, 57, 50
1, 252963, Note_off_c, 0, 57, 0
1, 252963, Note_off_c, 0, 69, 0
1, 253059, Note_off_c, 0, 40, 0
1, 253059, Note_off_c, 0, 52, 0
1, 253059, Note_on_c, 0, 53, 36
1, 253059, Note_on_c, 0, 41, 36
1, 253059, Note_on_c, 0, 69, 50
1, 253059, Note_on_c, 0, 57, 50
1, 253155, Note_off_c, 0, 57, 0
1, 253155, Note_off_c, 0, 69, 0
1, 253155, Note_on_c, 0, 69, 50
1, 253155, Note_on_c, 0, 57, 50
1, 253251, Note_off_c, 0, 57, 0
1, 253251, Note_off_c, 0, 69, 0
1, 253251, Note_off_c, 0, 41, 0
1, 253251, Note_off_c, 0, 53, 0
1, 253251, Note_on_c, 0, 45, 36
1, 253251, Note_on_c, 0, 69, 50
1, 253251, Note_on_c, 0, 57, 50
1, 253347, Note_off_c, 0, 57, 0
1, 253347, Note_off_c, 0, 69, 0
1, 253347, Note_off_c, 0, 26, 0
1, 253347, Note_off_c, 0, 38, 0
1, 253347, Note_on_c, 0, 69, 50
1, 253347, Note_on_c, 0, 57, 50
1, 253443, Note_off_c, 0, 57, 0
1, 253443, Note_off_c, 0, 69, 0
1, 253443, Note_off_c, 0, 45, 0
1, 253443, Note_on_c, 0, 74, 36
1, 253443, Note_on_c, 0, 50, 36
1, 253443, Note_on_c, 0, 38, 36
1, 253443, Note_on_c, 0, 62, 36
1, 253443, Note_on_c, 0, 38, 36
1, 253443, Note_on_c, 0, 26, 36
1, 253635, Note_off_c, 0, 38, 0
1, 253635, Note_off_c, 0, 50, 0
1, 253635, Note_on_c, 0, 52, 36
1, 253635, Note_on_c, 0, 40, 36
1, 253731, Note_off_c, 0, 62, 0
1, 253731, Note_off_c, 0, 74, 0
1, 253827, Note_off_c, 0, 40, 0
1, 253827, Note_off_c, 0, 52, 0
1, 253827, Note_on_c, 0, 72, 36
1, 253827, Note_on_c, 0, 53, 36
1, 253827, Note_on_c, 0, 60, 36
1, 253827, Note_on_c, 0, 41, 36
1, 254019, Note_off_c, 0, 41, 0
1, 254019, Note_off_c, 0, 53, 0
1, 254019, Note_on_c, 0, 57, 36
1, 254019, Note_on_c, 0, 45, 36
1, 254115, Note_off_c, 0, 60, 0
1, 254115, Note_off_c, 0, 72, 0
1, 254211, Note_off_c, 0, 45, 0
1, 254211, Note_off_c, 0, 57, 0
1, 254211, Note_on_c, 0, 50, 36
1, 254211, Note_on_c, 0, 38, 36
1, 254211, Note_on_c, 0, 69, 36
1, 254211, Note_on_c, 0, 57, 36
1, 254403, Note_off_c, 0, 57, 0
1, 254403, Note_off_c, 0, 69, 0
1, 254403, Note_off_c, 0, 38, 0
1, 254403, Note_off_c, 0, 50, 0
1, 254403, Note_on_c, 0, 52, 36
1, 254403, Note_on_c, 0, 40, 36
1, 254403, Note_on_c, 0, 69, 50
1, 254403, Note_on_c, 0, 57, 50
1, 254499, Note_off_c, 0, 57, 0
1, 254499, Note_off_c, 0, 69, 0
1, 254595, Note_off_c, 0, 40, 0
1, 254595, Note_off_c, 0, 52, 0
1, 254595, Note_on_c, 0, 53, 36
1, 254595, Note_on_c, 0, 41, 36
1, 254595, Note_on_c, 0, 69, 50
1, 254595, Note_on_c, 0, 57, 50
1, 254691, Note_off_c, 0, 57, 0
1, 254691, Note_off_c, 0, 69, 0
1, 254691, Note_on_c, 0, 69, 50
1, 254691, Note_on_c, 0, 57, 50
1, 254787, Note_off_c, 0, 57, 0
1, 254787, Note_off_c, 0, 69, 0
1, 254787, Note_off_c, 0, 41, 0
1, 254787, Note_off_c, 0, 53, 0
1, 254787, Note_on_c, 0, 45, 36
1, 254787, Note_on_c, 0, 69, 50
1, 254787, Note_on_c, 0, 57, 50
1, 254883, Note_off_c, 0, 57, 0
1, 254883, Note_off_c, 0, 69, 0
1, 254883, Note_off_c, 0, 26, 0
1, 254883, Note_off_c, 0, 38, 0
1, 254883, Note_on_c, 0, 69, 50
1, 254883, Note_on_c, 0, 57, 50
1, 254979, Note_off_c, 0, 57, 0
1, 254979, Note_off_c, 0, 69, 0
1, 254979, Note_off_c, 0, 45, 0
1, 254979, Note_on_c, 0, 74, 36
1, 254979, Note_on_c, 0, 50, 36
1, 254979, Note_on_c, 0, 38, 36
1, 254979, Note_on_c, 0, 62, 36
1, 254979, Note_on_c, 0, 38, 36
1, 254979, Note_on_c, 0, 26, 36
1, 255171, Note_off_c, 0, 38, 0
1, 255171, Note_off_c, 0, 50, 0
1, 255171, Note_on_c, 0, 52, 36
1, 255171, Note_on_c, 0, 40, 36
1, 255267, Note_off_c, 0, 62, 0
1, 255267, Note_off_c, 0, 74, 0
1, 255363, Note_off_c, 0, 40, 0
1, 255363, Note_off_c, 0, 52, 0
1, 255363, Note_on_c, 0, 72, 36
1, 255363, Note_on_c, 0, 53, 36
1, 255363, Note_on_c, 0, 60, 36
1, 255363, Note_on_c, 0, 41, 36
1, 255555, Note_off_c, 0, 41, 0
1, 255555, Note_off_c, 0, 53, 0
1, 255555, Note_on_c, 0, 57, 36
1, 255555, Note_on_c, 0, 45, 36
1, 255651, Note_off_c, 0, 60, 0
1, 255651, Note_off_c, 0, 72, 0
1, 255747, Note_off_c, 0, 45, 0
1, 255747, Note_off_c, 0, 57, 0
1, 255747, Note_on_c, 0, 50, 36
1, 255747, Note_on_c, 0, 38, 36
1, 255747, Note_on_c, 0, 69, 36
1, 255747, Note_on_c, 0, 57, 36
1, 255939, Note_off_c, 0, 57, 0
1, 255939, Note_off_c, 0, 69, 0
1, 255939, Note_off_c, 0, 38, 0
1, 255939, Note_off_c, 0, 50, 0
1, 255939, Note_on_c, 0, 52, 36
1, 255939, Note_on_c, 0, 40, 36
1, 255939, Note_on_c, 0, 69, 50
1, 255939, Note_on_c, 0, 57, 50
1, 256035, Note_off_c, 0, 57, 0
1, 256035, Note_off_c, 0, 69, 0
1, 256131, Note_off_c, 0, 40, 0
1, 256131, Note_off_c, 0, 52, 0
1, 256131, Note_on_c, 0, 53, 36
1, 256131, Note_on_c, 0, 41, 36
1, 256131, Note_on_c, 0, 69, 50
1, 256131, Note_on_c, 0, 57, 50
1, 256227, Note_off_c, 0, 57, 0
1, 256227, Note_off_c, 0, 69, 0
1, 256227, Note_on_c, 0, 69, 50
1, 256227, Note_on_c, 0, 57, 50
1, 256323, Note_off_c, 0, 57, 0
1, 256323, Note_off_c, 0, 69, 0
1, 256323, Note_off_c, 0, 41, 0
1, 256323, Note_off_c, 0, 53, 0
1, 256323, Note_on_c, 0, 45, 36
1, 256323, Note_on_c, 0, 69, 50
1, 256323, Note_on_c, 0, 57, 50
1, 256419, Note_off_c, 0, 57, 0
1, 256419, Note_off_c, 0, 69, 0
1, 256419, Note_off_c, 0, 26, 0
1, 256419, Note_off_c, 0, 38, 0
1, 256419, Note_on_c, 0, 69, 50
1, 256419, Note_on_c, 0, 57, 50
1, 256515, Note_off_c, 0, 57, 0
1, 256515, Note_off_c, 0, 69, 0
1, 256515, Note_off_c, 0, 45, 0
1, 256515, Note_on_c, 0, 74, 36
1, 256515, Note_on_c, 0, 50, 36
1, 256515, Note_on_c, 0, 38, 36
1, 256515, Note_on_c, 0, 62, 36
1, 256515, Note_on_c, 0, 38, 36
1, 256515, Note_on_c, 0, 26, 36
1, 256707, Note_off_c, 0, 38, 0
1, 256707, Note_off_c, 0, 50, 0
1, 256707, Note_on_c, 0, 52, 36
1, 256707, Note_on_c, 0, 40, 36
1, 256803, Note_off_c, 0, 62, 0
1, 256803, Note_off_c, 0, 74, 0
1, 256899, Note_off_c, 0, 40, 0
1, 256899, Note_off_c, 0, 52, 0
1, 256899, Note_on_c, 0, 72, 36
1, 256899, Note_on_c, 0, 53, 36
1, 256899, Note_on_c, 0, 60, 36
1, 256899, Note_on_c, 0, 41, 36
1, 257091, Note_off_c, 0, 41, 0
1, 257091, Note_off_c, 0, 53, 0
1, 257091, Note_on_c, 0, 57, 36
1, 257091, Note_on_c, 0, 45, 36
1, 257187, Note_off_c, 0, 60, 0
1, 257187, Note_off_c, 0, 72, 0
1, 257283, Note_off_c, 0, 45, 0
1, 257283, Note_off_c, 0, 57, 0
1, 257283, Note_on_c, 0, 50, 36
1, 257283, Note_on_c, 0, 38, 36
1, 257283, Note_on_c, 0, 69, 36
1, 257283, Note_on_c, 0, 57, 36
1, 257475, Note_off_c, 0, 57, 0
1, 257475, Note_off_c, 0, 69, 0
1, 257475, Note_off_c, 0, 38, 0
1, 257475, Note_off_c, 0, 50, 0
1, 257475, Note_on_c, 0, 52, 36
1, 257475, Note_on_c, 0, 40, 36
1, 257475, Note_on_c, 0, 69, 50
1, 257475, Note_on_c, 0, 57, 50
1, 257571, Note_off_c, 0, 57, 0
1, 257571, Note_off_c, 0, 69, 0
1, 257667, Note_off_c, 0, 40, 0
1, 257667, Note_off_c, 0, 52, 0
1, 257667, Note_on_c, 0, 53, 36
1, 257667, Note_on_c, 0, 41, 36
1, 257667, Note_on_c, 0, 69, 50
1, 257667, Note_on_c, 0, 57, 50
1, 257763, Note_off_c, 0, 57, 0
1, 257763, Note_off_c, 0, 69, 0
1, 257763, Note_on_c, 0, 69, 50
1, 257763, Note_on_c, 0, 57, 50
1, 257859, Note_off_c, 0, 57, 0
1, 257859, Note_off_c, 0, 69, 0
1, 257859, Note_off_c, 0, 41, 0
1, 257859, Note_off_c, 0, 53, 0
1, 257859, Note_on_c, 0, 45, 36
1, 257859, Note_on_c, 0, 69, 50
1, 257859, Note_on_c, 0, 57, 50
1, 257955, Note_off_c, 0, 57, 0
1, 257955, Note_off_c, 0, 69, 0
1, 257955, Note_off_c, 0, 26, 0
1, 257955, Note_off_c, 0, 38, 0
1, 257955, Note_on_c, 0, 69, 50
1, 257955, Note_on_c, 0, 57, 50
1, 258051, Note_off_c, 0, 57, 0
1, 258051, Note_off_c, 0, 69, 0
1, 258051, Note_off_c, 0, 45, 0
1, 258051, Note_on_c, 0, 74, 36
1, 258051, Note_on_c, 0, 50, 36
1, 258051, Note_on_c, 0, 38, 36
1, 258051, Note_on_c, 0, 62, 36
1, 258051, Note_on_c, 0, 38, 36
1, 258051, Note_on_c, 0, 26, 36
1, 258243, Note_off_c, 0, 38, 0
1, 258243, Note_off_c, 0, 50, 0
1, 258243, Note_on_c, 0, 52, 36
1, 258243, Note_on_c, 0, 40, 36
1, 258339, Note_off_c, 0, 62, 0
1, 258339, Note_off_c, 0, 74, 0
1, 258435, Note_off_c, 0, 40, 0
1, 258435, Note_off_c, 0, 52, 0
1, 258435, Note_on_c, 0, 72, 36
1, 258435, Note_on_c, 0, 53, 36
1, 258435, Note_on_c, 0, 60, 36
1, 258435, Note_on_c, 0, 41, 36
1, 258627, Note_off_c, 0, 41, 0
1, 258627, Note_off_c, 0, 53, 0
1, 258627, Note_on_c, 0, 57, 36
1, 258627, Note_on_c, 0, 45, 36
1, 258723, Note_off_c, 0, 60, 0
1, 258723, Note_off_c, 0, 72, 0
1, 258819, Note_off_c, 0, 45, 0
1, 258819, Note_off_c, 0, 57, 0
1, 258819, Note_on_c, 0, 50, 36
1, 258819, Note_on_c, 0, 38, 36
1, 258819, Note_on_c, 0, 69, 36
1, 258819, Note_on_c, 0, 57, 36
1, 259011, Note_off_c, 0, 57, 0
1, 259011, Note_off_c, 0, 69, 0
1, 259011, Note_off_c, 0, 38, 0
1, 259011, Note_off_c, 0, 50, 0
1, 259011, Note_on_c, 0, 52, 36
1, 259011, Note_on_c, 0, 40, 36
1, 259011, Note_on_c, 0, 69, 50
1, 259011, Note_on_c, 0, 57, 50
1, 259107, Note_off_c, 0, 57, 0
1, 259107, Note_off_c, 0, 69, 0
1, 259203, Note_off_c, 0, 40, 0
1, 259203, Note_off_c, 0, 52, 0
1, 259203, Note_on_c, 0, 53, 36
1, 259203, Note_on_c, 0, 41, 36
1, 259203, Note_on_c, 0, 69, 50
1, 259203, Note_on_c, 0, 57, 50
1, 259299, Note_off_c, 0, 57, 0
1, 259299, Note_off_c, 0, 69, 0
1, 259299, Note_on_c, 0, 69, 50
1, 259299, Note_on_c, 0, 57, 50
1, 259395, Note_off_c, 0, 57, 0
1, 259395, Note_off_c, 0, 69, 0
1, 259395, Note_off_c, 0, 41, 0
1, 259395, Note_off_c, 0, 53, 0
1, 259395, Note_on_c, 0, 45, 36
1, 259395, Note_on_c, 0, 69, 50
1, 259395, Note_on_c, 0, 57, 50
1, 259491, Note_off_c, 0, 57, 0
1, 259491, Note_off_c, 0, 69, 0
1, 259491, Note_off_c, 0, 26, 0
1, 259491, Note_off_c, 0, 38, 0
1, 259491, Note_on_c, 0, 69, 50
1, 259491, Note_on_c, 0, 57, 50
1, 259587, Note_off_c, 0, 57, 0
1, 259587, Note_off_c, 0, 69, 0
1, 259587, Note_off_c, 0, 45, 0
1, 259587, Note_on_c, 0, 74, 36
1, 259587, Note_on_c, 0, 50, 36
1, 259587, Note_on_c, 0, 38, 36
1, 259587, Note_on_c, 0, 62, 36
1, 259587, Note_on_c, 0, 38, 36
1, 259587, Note_on_c, 0, 26, 36
1, 259779, Note_off_c, 0, 38, 0
1, 259779, Note_off_c, 0, 50, 0
1, 259779, Note_on_c, 0, 52, 36
1, 259779, Note_on_c, 0, 40, 36
1, 259875, Note_off_c, 0, 62, 0
1, 259875, Note_off_c, 0, 74, 0
1, 259971, Note_off_c, 0, 40, 0
1, 259971, Note_off_c, 0, 52, 0
1, 259971, Note_on_c, 0, 72, 36
1, 259971, Note_on_c, 0, 53, 36
1, 259971, Note_on_c, 0, 60, 36
1, 259971, Note_on_c, 0, 41, 36
1, 260163, Note_off_c, 0, 41, 0
1, 260163, Note_off_c, 0, 53, 0
1, 260163, Note_on_c, 0, 57, 36
1, 260163, Note_on_c, 0, 45, 36
1, 260259, Note_off_c, 0, 60, 0
1, 260259, Note_off_c, 0, 72, 0
1, 260355, Note_off_c, 0, 45, 0
1, 260355, Note_off_c, 0, 57, 0
1, 260355, Note_on_c, 0, 50, 36
1, 260355, Note_on_c, 0, 38, 36
1, 260355, Note_on_c, 0, 69, 36
1, 260355, Note_on_c, 0, 57, 36
1, 260547, Note_off_c, 0, 57, 0
1, 260547, Note_off_c, 0, 69, 0
1, 260547, Note_off_c, 0, 38, 0
1, 260547, Note_off_c, 0, 50, 0
1, 260547, Note_on_c, 0, 52, 36
1, 260547, Note_on_c, 0, 40, 36
1, 260547, Note_on_c, 0, 69, 50
1, 260547, Note_on_c, 0, 57, 50
1, 260643, Note_off_c, 0, 57, 0
1, 260643, Note_off_c, 0, 69, 0
1, 260739, Note_off_c, 0, 40, 0
1, 260739, Note_off_c, 0, 52, 0
1, 260739, Note_on_c, 0, 53, 36
1, 260739, Note_on_c, 0, 41, 36
1, 260739, Note_on_c, 0, 69, 50
1, 260739, Note_on_c, 0, 57, 50
1, 260835, Note_off_c, 0, 57, 0
1, 260835, Note_off_c, 0, 69, 0
1, 260835, Note_on_c, 0, 69, 50
1, 260835, Note_on_c, 0, 57, 50
1, 260931, Note_off_c, 0, 57, 0
1, 260931, Note_off_c, 0, 69, 0
1, 260931, Note_off_c, 0, 41, 0
1, 260931, Note_off_c, 0, 53, 0
1, 260931, Note_on_c, 0, 45, 36
1, 260931, Note_on_c, 0, 69, 50
1, 260931, Note_on_c, 0, 57, 50
1, 261027, Note_off_c, 0, 57, 0
1, 261027, Note_off_c, 0, 69, 0
1, 261027, Note_off_c, 0, 26, 0
1, 261027, Note_off_c, 0, 38, 0
1, 261027, Note_on_c, 0, 69, 50
1, 261027, Note_on_c, 0, 57, 50
1, 261123, Note_off_c, 0, 57, 0
1, 261123, Note_off_c, 0, 69, 0
1, 261123, Note_off_c, 0, 45, 0
1, 261123, Note_on_c, 0, 74, 36
1, 261123, Note_on_c, 0, 50, 36
1, 261123, Note_on_c, 0, 38, 36
1, 261123, Note_on_c, 0, 62, 36
1, 261123, Note_on_c, 0, 38, 36
1, 261123, Note_on_c, 0, 26, 36
1, 261315, Note_off_c, 0, 38, 0
1, 261315, Note_off_c, 0, 50, 0
1, 261315, Note_on_c, 0, 52, 36
1, 261315, Note_on_c, 0, 40, 36
1, 261411, Note_off_c, 0, 62, 0
1, 261411, Note_off_c, 0, 74, 0
1, 261507, Note_off_c, 0, 40, 0
1, 261507, Note_off_c, 0, 52, 0
1, 261507, Note_on_c, 0, 72, 36
1, 261507, Note_on_c, 0, 53, 36
1, 261507, Note_on_c, 0, 60, 36
1, 261507, Note_on_c, 0, 41, 36
1, 261699, Note_off_c, 0, 41, 0
1, 261699, Note_off_c, 0, 53, 0
1, 261699, Note_on_c, 0, 57, 36
1, 261699, Note_on_c, 0, 45, 36
1, 261795, Note_off_c, 0, 60, 0
1, 261795, Note_off_c, 0, 72, 0
1, 261891, Note_off_c, 0, 45, 0
1, 261891, Note_off_c, 0, 57, 0
1, 261891, Note_on_c, 0, 50, 36
1, 261891, Note_on_c, 0, 38, 36
1, 261891, Note_on_c, 0, 69, 36
1, 261891, Note_on_c, 0, 57, 36
1, 262083, Note_off_c, 0, 57, 0
1, 262083, Note_off_c, 0, 69, 0
1, 262083, Note_off_c, 0, 38, 0
1, 262083, Note_off_c, 0, 50, 0
1, 262083, Note_on_c, 0, 52, 36
1, 262083, Note_on_c, 0, 40, 36
1, 262083, Note_on_c, 0, 69, 50
1, 262083, Note_on_c, 0, 57, 50
1, 262179, Note_off_c, 0, 57, 0
1, 262179, Note_off_c, 0, 69, 0
1, 262275, Note_off_c, 0, 40, 0
1, 262275, Note_off_c, 0, 52, 0
1, 262275, Note_on_c, 0, 53, 36
1, 262275, Note_on_c, 0, 41, 36
1, 262275, Note_on_c, 0, 69, 50
1, 262275, Note_on_c, 0, 57, 50
1, 262371, Note_off_c, 0, 57, 0
1, 262371, Note_off_c, 0, 69, 0
1, 262371, Note_on_c, 0, 69, 50
1, 262371, Note_on_c, 0, 57, 50
1, 262467, Note_off_c, 0, 57, 0
1, 262467, Note_off_c, 0, 69, 0
1, 262467, Note_off_c, 0, 41, 0
1, 262467, Note_off_c, 0, 53, 0
1, 262467, Note_on_c, 0, 45, 36
1, 262467, Note_on_c, 0, 69, 50
1, 262467, Note_on_c, 0, 57, 50
1, 262563, Note_off_c, 0, 57, 0
1, 262563, Note_off_c, 0, 69, 0
1, 262563, Note_off_c, 0, 26, 0
1, 262563, Note_off_c, 0, 38, 0
1, 262563, Note_on_c, 0, 69, 50
1, 262563, Note_on_c, 0, 57, 50
1, 262659, Note_off_c, 0, 57, 0
1, 262659, Note_off_c, 0, 69, 0
1, 262659, Note_off_c, 0, 45, 0
1, 262659, Note_on_c, 0, 74, 36
1, 262659, Note_on_c, 0, 50, 36
1, 262659, Note_on_c, 0, 38, 36
1, 262659, Note_on_c, 0, 62, 36
1, 262659, Note_on_c, 0, 38, 36
1, 262659, Note_on_c, 0, 26, 36
1, 262851, Note_off_c, 0, 38, 0
1, 262851, Note_off_c, 0, 50, 0
1, 262851, Note_on_c, 0, 52, 36
1, 262851, Note_on_c, 0, 40, 36
1, 262947, Note_off_c, 0, 62, 0
1, 262947, Note_off_c, 0, 74, 0
1, 263043, Note_off_c, 0, 40, 0
1, 263043, Note_off_c, 0, 52, 0
1, 263043, Note_on_c, 0, 72, 36
1, 263043, Note_on_c, 0, 53, 36
1, 263043, Note_on_c, 0, 60, 36
1, 263043, Note_on_c, 0, 41, 36
1, 263235, Note_off_c, 0, 41, 0
1, 263235, Note_off_c, 0, 53, 0
1, 263235, Note_on_c, 0, 57, 36
1, 263235, Note_on_c, 0, 45, 36
1, 263331, Note_off_c, 0, 60, 0
1, 263331, Note_off_c, 0, 72, 0
1, 263427, Note_off_c, 0, 45, 0
1, 263427, Note_off_c, 0, 57, 0
1, 263427, Note_on_c, 0, 50, 36
1, 263427, Note_on_c, 0, 38, 36
1, 263427, Note_on_c, 0, 69, 36
1, 263427, Note_on_c, 0, 57, 36
1, 263619, Note_off_c, 0, 57, 0
1, 263619, Note_off_c, 0, 69, 0
1, 263619, Note_off_c, 0, 38, 0
1, 263619, Note_off_c, 0, 50, 0
1, 263619, Note_on_c, 0, 52, 36
1, 263619, Note_on_c, 0, 40, 36
1, 263619, Note_on_c, 0, 69, 50
1, 263619, Note_on_c, 0, 57, 50
1, 263715, Note_off_c, 0, 57, 0
1, 263715, Note_off_c, 0, 69, 0
1, 263811, Note_off_c, 0, 40, 0
1, 263811, Note_off_c, 0, 52, 0
1, 263811, Note_on_c, 0, 53, 36
1, 263811, Note_on_c, 0, 41, 36
1, 263811, Note_on_c, 0, 69, 50
1, 263811, Note_on_c, 0, 57, 50
1, 263907, Note_off_c, 0, 57, 0
1, 263907, Note_off_c, 0, 69, 0
1, 263907, Note_on_c, 0, 69, 50
1, 263907, Note_on_c, 0, 57, 50
1, 264003, Note_off_c, 0, 57, 0
1, 264003, Note_off_c, 0, 69, 0
1, 264003, Note_off_c, 0, 41, 0
1, 264003, Note_off_c, 0, 53, 0
1, 264003, Note_on_c, 0, 45, 36
1, 264003, Note_on_c, 0, 69, 50
1, 264003, Note_on_c, 0, 57, 50
1, 264099, Note_off_c, 0, 57, 0
1, 264099, Note_off_c, 0, 69, 0
1, 264099, Note_off_c, 0, 26, 0
1, 264099, Note_off_c, 0, 38, 0
1, 264099, Note_on_c, 0, 69, 50
1, 264099, Note_on_c, 0, 57, 50
1, 264195, Note_off_c, 0, 57, 0
1, 264195, Note_off_c, 0, 69, 0
1, 264195, Note_off_c, 0, 45, 0
1, 264195, Note_on_c, 0, 74, 36
1, 264195, Note_on_c, 0, 50, 36
1, 264195, Note_on_c, 0, 38, 36
1, 264195, Note_on_c, 0, 62, 36
1, 264195, Note_on_c, 0, 38, 36
1, 264195, Note_on_c, 0, 26, 36
1, 264387, Note_off_c, 0, 38, 0
1, 264387, Note_off_c, 0, 50, 0
1, 264387, Note_on_c, 0, 52, 36
1, 264387, Note_on_c, 0, 40, 36
1, 264483, Note_off_c, 0, 62, 0
1, 264483, Note_off_c, 0, 74, 0
1, 264579, Note_off_c, 0, 40, 0
1, 264579, Note_off_c, 0, 52, 0
1, 264579, Note_on_c, 0, 72, 36
1, 264579, Note_on_c, 0, 53, 36
1, 264579, Note_on_c, 0, 60, 36
1, 264579, Note_on_c, 0, 41, 36
1, 264771, Note_off_c, 0, 41, 0
1, 264771, Note_off_c, 0, 53, 0
1, 264771, Note_on_c, 0, 57, 36
1, 264771, Note_on_c, 0, 45, 36
1, 264867, Note_off_c, 0, 60, 0
1, 264867, Note_off_c, 0, 72, 0
1, 264963, Note_off_c, 0, 45, 0
1, 264963, Note_off_c, 0, 57, 0
1, 264963, Note_on_c, 0, 50, 36
1, 264963, Note_on_c, 0, 38, 36
1, 264963, Note_on_c, 0, 69, 36
1, 264963, Note_on_c, 0, 57, 36
1, 265155, Note_off_c, 0, 57, 0
1, 265155, Note_off_c, 0, 69, 0
1, 265155, Note_off_c, 0, 38, 0
1, 265155, Note_off_c, 0, 50, 0
1, 265155, Note_on_c, 0, 52, 36
1, 265155, Note_on_c, 0, 40, 36
1, 265155, Note_on_c, 0, 69, 50
1, 265155, Note_on_c, 0, 57, 50
1, 265251, Note_off_c, 0, 57, 0
1, 265251, Note_off_c, 0, 69, 0
1, 265347, Note_off_c, 0, 40, 0
1, 265347, Note_off_c, 0, 52, 0
1, 265347, Note_on_c, 0, 53, 36
1, 265347, Note_on_c, 0, 41, 36
1, 265347, Note_on_c, 0, 69, 50
1, 265347, Note_on_c, 0, 57, 50
1, 265443, Note_off_c, 0, 57, 0
1, 265443, Note_off_c, 0, 69, 0
1, 265443, Note_on_c, 0, 69, 50
1, 265443, Note_on_c, 0, 57, 50
1, 265539, Note_off_c, 0, 57, 0
1, 265539, Note_off_c, 0, 69, 0
1, 265539, Note_off_c, 0, 41, 0
1, 265539, Note_off_c, 0, 53, 0
1, 265539, Note_on_c, 0, 45, 36
1, 265539, Note_on_c, 0, 69, 50
1, 265539, Note_on_c, 0, 57, 50
1, 265635, Note_off_c, 0, 57, 0
1, 265635, Note_off_c, 0, 69, 0
1, 265635, Note_off_c, 0, 26, 0
1, 265635, Note_off_c, 0, 38, 0
1, 265635, Note_on_c, 0, 69, 50
1, 265635, Note_on_c, 0, 57, 50
1, 265731, Note_off_c, 0, 57, 0
1, 265731, Note_off_c, 0, 69, 0
1, 265731, Note_off_c, 0, 45, 0
1, 265731, Note_on_c, 0, 74, 36
1, 265731, Note_on_c, 0, 50, 36
1, 265731, Note_on_c, 0, 38, 36
1, 265731, Note_on_c, 0, 62, 36
1, 265731, Note_on_c, 0, 38, 36
1, 265731, Note_on_c, 0, 26, 36
1, 265923, Note_off_c, 0, 38, 0
1, 265923, Note_off_c, 0, 50, 0
1, 265923, Note_on_c, 0, 52, 36
1, 265923, Note_on_c, 0, 40, 36
1, 266019, Note_off_c, 0, 62, 0
1, 266019, Note_off_c, 0, 74, 0
1, 266115, Note_off_c, 0, 40, 0
1, 266115, Note_off_c, 0, 52, 0
1, 266115, Note_on_c, 0, 72, 36
1, 266115, Note_on_c, 0, 53, 36
1, 266115, Note_on_c, 0, 60, 36
1, 266115, Note_on_c, 0, 41, 36
1, 266307, Note_off_c, 0, 41, 0
1, 266307, Note_off_c, 0, 53, 0
1, 266307, Note_on_c, 0, 57, 36
1, 266307, Note_on_c, 0, 45, 36
1, 266403, Note_off_c, 0, 60, 0
1, 266403, Note_off_c, 0, 72, 0
1, 266499, Note_off_c, 0, 45, 0
1, 266499, Note_off_c, 0, 57, 0
1, 266499, Note_on_c, 0, 50, 36
1, 266499, Note_on_c, 0, 38, 36
1, 266499, Note_on_c, 0, 69, 36
1, 266499, Note_on_c, 0, 57, 36
1, 266691, Note_off_c, 0, 57, 0
1, 266691, Note_off_c, 0, 69, 0
1, 266691, Note_off_c, 0, 38, 0
1, 266691, Note_off_c, 0, 50, 0
1, 266691, Note_on_c, 0, 52, 36
1, 266691, Note_on_c, 0, 40, 36
1, 266691, Note_on_c, 0, 69, 50
1, 266691, Note_on_c, 0, 57, 50
1, 266787, Note_off_c, 0, 57, 0
1, 266787, Note_off_c, 0, 69, 0
1, 266883, Note_off_c, 0, 40, 0
1, 266883, Note_off_c, 0, 52, 0
1, 266883, Note_on_c, 0, 53, 36
1, 266883, Note_on_c, 0, 41, 36
1, 266883, Note_on_c, 0, 69, 50
1, 266883, Note_on_c, 0, 57, 50
1, 266979, Note_off_c, 0, 57, 0
1, 266979, Note_off_c, 0, 69, 0
1, 266979, Note_on_c, 0, 69, 50
1, 266979, Note_on_c, 0, 57, 50
1, 267075, Note_off_c, 0, 57, 0
1, 267075, Note_off_c, 0, 69, 0
1, 267075, Note_off_c, 0, 41, 0
1, 267075, Note_off_c, 0, 53, 0
1, 267075, Note_on_c, 0, 45, 36
1, 267075, Note_on_c, 0, 69, 50
1, 267075, Note_on_c, 0, 57, 50
1, 267171, Note_off_c, 0, 57, 0
1, 267171, Note_off_c, 0, 69, 0
1, 267171, Note_off_c, 0, 26, 0
1, 267171, Note_off_c, 0, 38, 0
1, 267171, Note_on_c, 0, 69, 50
1, 267171, Note_on_c, 0, 57, 50
1, 267267, Note_off_c, 0, 57, 0
1, 267267, Note_off_c, 0, 69, 0
1, 267267, Note_off_c, 0, 45, 0
1, 267267, Note_on_c, 0, 74, 36
1, 267267, Note_on_c, 0, 50, 36
1, 267267, Note_on_c, 0, 38, 36
1, 267267, Note_on_c, 0, 62, 36
1, 267267, Note_on_c, 0, 38, 36
1, 267267, Note_on_c, 0, 26, 36
1, 267459, Note_off_c, 0, 38, 0
1, 267459, Note_off_c, 0, 50, 0
1, 267459, Note_on_c, 0, 52, 36
1, 267459, Note_on_c, 0, 40, 36
1, 267555, Note_off_c, 0, 62, 0
1, 267555, Note_off_c, 0, 74, 0
1, 267651, Note_off_c, 0, 40, 0
1, 267651, Note_off_c, 0, 52, 0
1, 267651, Note_on_c, 0, 72, 36
1, 267651, Note_on_c, 0, 53, 36
1, 267651, Note_on_c, 0, 60, 36
1, 267651, Note_on_c, 0, 41, 36
1, 267843, Note_off_c, 0, 41, 0
1, 267843, Note_off_c, 0, 53, 0
1, 267843, Note_on_c, 0, 57, 36
1, 267843, Note_on_c, 0, 45, 36
1, 267939, Note_off_c, 0, 60, 0
1, 267939, Note_off_c, 0, 72, 0
1, 268035, Note_off_c, 0, 45, 0
1, 268035, Note_off_c, 0, 57, 0
1, 268035, Note_on_c, 0, 50, 36
1, 268035, Note_on_c, 0, 38, 36
1, 268035, Note_on_c, 0, 69, 36
1, 268035, Note_on_c, 0, 57, 36
1, 268227, Note_off_c, 0, 57, 0
1, 268227, Note_off_c, 0, 69, 0
1, 268227, Note_off_c, 0, 38, 0
1, 268227, Note_off_c, 0, 50, 0
1, 268227, Note_on_c, 0, 52, 36
1, 268227, Note_on_c, 0, 40, 36
1, 268227, Note_on_c, 0, 69, 50
1, 268227, Note_on_c, 0, 57, 50
1, 268323, Note_off_c, 0, 57, 0
1, 268323, Note_off_c, 0, 69, 0
1, 268419, Note_off_c, 0, 40, 0
1, 268419, Note_off_c, 0, 52, 0
1, 268419, Note_on_c, 0, 53, 36
1, 268419, Note_on_c, 0, 41, 36
1, 268419, Note_on_c, 0, 69, 50
1, 268419, Note_on_c, 0, 57, 50
1, 268515, Note_off_c, 0, 57, 0
1, 268515, Note_off_c, 0, 69, 0
1, 268515, Note_on_c, 0, 69, 50
1, 268515, Note_on_c, 0, 57, 50
1, 268611, Note_off_c, 0, 57, 0
1, 268611, Note_off_c, 0, 69, 0
1, 268611, Note_off_c, 0, 41, 0
1, 268611, Note_off_c, 0, 53, 0
1, 268611, Note_on_c, 0, 45, 36
1, 268611, Note_on_c, 0, 69, 50
1, 268611, Note_on_c, 0, 57, 50
1, 268707, Note_off_c, 0, 57, 0
1, 268707, Note_off_c, 0, 69, 0
1, 268707, Note_off_c, 0, 26, 0
1, 268707, Note_off_c, 0, 38, 0
1, 268707, Note_on_c, 0, 69, 50
1, 268707, Note_on_c, 0, 57, 50
1, 268803, Note_off_c, 0, 57, 0
1, 268803, Note_off_c, 0, 69, 0
1, 268803, Note_off_c, 0, 45, 0
1, 268803, Note_on_c, 0, 74, 36
1, 268803, Note_on_c, 0, 50, 36
1, 268803, Note_on_c, 0, 38, 36
1, 268803, Note_on_c, 0, 62, 36
1, 268803, Note_on_c, 0, 38, 36
1, 268803, Note_on_c, 0, 26, 36
1, 268995, Note_off_c, 0, 38, 0
1, 268995, Note_off_c, 0, 50, 0
1, 268995, Note_on_c, 0, 52, 36
1, 268995, Note_on_c, 0, 40, 36
1, 269091, Note_off_c, 0, 62, 0
1, 269091, Note_off_c, 0, 74, 0
1, 269187, Note_off_c, 0, 40, 0
1, 269187, Note_off_c, 0, 52, 0
1, 269187, Note_on_c, 0, 72, 36
1, 269187, Note_on_c, 0, 53, 36
1, 269187, Note_on_c, 0, 60, 36
1, 269187, Note_on_c, 0, 41, 36
1, 269379, Note_off_c, 0, 41, 0
1, 269379, Note_off_c, 0, 53, 0
1, 269379, Note_on_c, 0, 57, 36
1, 269379, Note_on_c, 0, 45, 36
1, 269475, Note_off_c, 0, 60, 0
1, 269475, Note_off_c, 0, 72, 0
1, 269571, Note_off_c, 0, 45, 0
1, 269571, Note_off_c, 0, 57, 0
1, 269571, Note_on_c, 0, 50, 36
1, 269571, Note_on_c, 0, 38, 36
1, 269571, Note_on_c, 0, 69, 36
1, 269571, Note_on_c, 0, 57, 36
1, 269763, Note_off_c, 0, 57, 0
1, 269763, Note_off_c, 0, 69, 0
1, 269763, Note_off_c, 0, 38, 0
1, 269763, Note_off_c, 0, 50, 0
1, 269763, Note_on_c, 0, 52, 36
1, 269763, Note_on_c, 0, 40, 36
1, 269763, Note_on_c, 0, 69, 50
1, 269763, Note_on_c, 0, 57, 50
1, 269859, Note_off_c, 0, 57, 0
1, 269859, Note_off_c, 0, 69, 0
1, 269955, Note_off_c, 0, 40, 0
1, 269955, Note_off_c, 0, 52, 0
1, 269955, Note_on_c, 0, 53, 36
1, 269955, Note_on_c, 0, 41, 36
1, 269955, Note_on_c, 0, 69, 50
1, 269955, Note_on_c, 0, 57, 50
1, 270051, Note_off_c, 0, 57, 0
1, 270051, Note_off_c, 0, 69, 0
1, 270051, Note_on_c, 0, 69, 50
1, 270051, Note_on_c, 0, 57, 50
1, 270147, Note_off_c, 0, 57, 0
1, 270147, Note_off_c, 0, 69, 0
1, 270147, Note_off_c, 0, 41, 0
1, 270147, Note_off_c, 0, 53, 0
1, 270147, Note_on_c, 0, 45, 36
1, 270147, Note_on_c, 0, 69, 50
1, 270147, Note_on_c, 0, 57, 50
1, 270243, Note_off_c, 0, 57, 0
1, 270243, Note_off_c, 0, 69, 0
1, 270243, Note_off_c, 0, 26, 0
1, 270243, Note_off_c, 0, 38, 0
1, 270243, Note_on_c, 0, 69, 50
1, 270243, Note_on_c, 0, 57, 50
1, 270339, Note_off_c, 0, 57, 0
1, 270339, Note_off_c, 0, 69, 0
1, 270339, Note_off_c, 0, 45, 0
1, 270339, Note_on_c, 0, 74, 36
1, 270339, Note_on_c, 0, 50, 36
1, 270339, Note_on_c, 0, 38, 36
1, 270339, Note_on_c, 0, 62, 36
1, 270339, Note_on_c, 0, 38, 36
1, 270339, Note_on_c, 0, 26, 36
1, 270531, Note_off_c, 0, 38, 0
1, 270531, Note_off_c, 0, 50, 0
1, 270531, Note_on_c, 0, 52, 36
1, 270531, Note_on_c, 0, 40, 36
1, 270627, Note_off_c, 0, 62, 0
1, 270627, Note_off_c, 0, 74, 0
1, 270723, Note_off_c, 0, 40, 0
1, 270723, Note_off_c, 0, 52, 0
1, 270723, Note_on_c, 0, 72, 36
1, 270723, Note_on_c, 0, 53, 36
1, 270723, Note_on_c, 0, 60, 36
1, 270723, Note_on_c, 0, 41, 36
1, 270915, Note_off_c, 0, 41, 0
1, 270915, Note_off_c, 0, 53, 0
1, 270915, Note_on_c, 0, 57, 36
1, 270915, Note_on_c, 0, 45, 36
1, 271011, Note_off_c, 0, 60, 0
1, 271011, Note_off_c, 0, 72, 0
1, 271107, Note_off_c, 0, 45, 0
1, 271107, Note_off_c, 0, 57, 0
1, 271107, Note_on_c, 0, 50, 36
1, 271107, Note_on_c, 0, 38, 36
1, 271107, Note_on_c, 0, 69, 36
1, 271107, Note_on_c, 0, 57, 36
1, 271299, Note_off_c, 0, 57, 0
1, 271299, Note_off_c, 0, 69, 0
1, 271299, Note_off_c, 0, 38, 0
1, 271299, Note_off_c, 0, 50, 0
1, 271299, Note_on_c, 0, 52, 36
1, 271299, Note_on_c, 0, 40, 36
1, 271299, Note_on_c, 0, 69, 50
1, 271299, Note_on_c, 0, 57, 50
1, 271395, Note_off_c, 0, 57, 0
1, 271395, Note_off_c, 0, 69, 0
1, 271491, Note_off_c, 0, 40, 0
1, 271491, Note_off_c, 0, 52, 0
1, 271491, Note_on_c, 0, 53, 36
1, 271491, Note_on_c, 0, 41, 36
1, 271491, Note_on_c, 0, 69, 50
1, 271491, Note_on_c, 0, 57, 50
1, 271587, Note_off_c, 0, 57, 0
1, 271587, Note_off_c, 0, 69, 0
1, 271587, Note_on_c, 0, 69, 50
1, 271587, Note_on_c, 0, 57, 50
1, 271683, Note_off_c, 0, 57, 0
1, 271683, Note_off_c, 0, 69, 0
1, 271683, Note_off_c, 0, 41, 0
1, 271683, Note_off_c, 0, 53, 0
1, 271683, Note_on_c, 0, 45, 36
1, 271683, Note_on_c, 0, 69, 50
1, 271683, Note_on_c, 0, 57, 50
1, 271779, Note_off_c, 0, 57, 0
1, 271779, Note_off_c, 0, 69, 0
1, 271779, Note_off_c, 0, 26, 0
1, 271779, Note_off_c, 0, 38, 0
1, 271779, Note_on_c, 0, 69, 50
1, 271779, Note_on_c, 0, 57, 50
1, 271875, Note_off_c, 0, 57, 0
1, 271875, Note_off_c, 0, 69, 0
1, 271875, Note_off_c, 0, 45, 0
1, 271875, Note_on_c, 0, 74, 36
1, 271875, Note_on_c, 0, 50, 36
1, 271875, Note_on_c, 0, 38, 36
1, 271875, Note_on_c, 0, 62, 36
1, 271875, Note_on_c, 0, 38, 36
1, 271875, Note_on_c, 0, 26, 36
1, 272067, Note_off_c, 0, 38, 0
1, 272067, Note_off_c, 0, 50, 0
1, 272067, Note_on_c, 0, 52, 36
1, 272067, Note_on_c, 0, 40, 36
1, 272163, Note_off_c, 0, 62, 0
1, 272163, Note_off_c, 0, 74, 0
1, 272259, Note_off_c, 0, 40, 0
1, 272259, Note_off_c, 0, 52, 0
1, 272259, Note_on_c, 0, 72, 36
1, 272259, Note_on_c, 0, 53, 36
1, 272259, Note_on_c, 0, 60, 36
1, 272259, Note_on_c, 0, 41, 36
1, 272451, Note_off_c, 0, 41, 0
1, 272451, Note_off_c, 0, 53, 0
1, 272451, Note_on_c, 0, 57, 36
1, 272451, Note_on_c, 0, 45, 36
1, 272547, Note_off_c, 0, 60, 0
1, 272547, Note_off_c, 0, 72, 0
1, 272643, Note_off_c, 0, 45, 0
1, 272643, Note_off_c, 0, 57, 0
1, 272643, Note_on_c, 0, 50, 36
1, 272643, Note_on_c, 0, 38, 36
1, 272643, Note_on_c, 0, 69, 36
1, 272643, Note_on_c, 0, 57, 36
1, 272835, Note_off_c, 0, 57, 0
1, 272835, Note_off_c, 0, 69, 0
1, 272835, Note_off_c, 0, 38, 0
1, 272835, Note_off_c, 0, 50, 0
1, 272835, Note_on_c, 0, 52, 36
1, 272835, Note_on_c, 0, 40, 36
1, 272835, Note_on_c, 0, 69, 50
1, 272835, Note_on_c, 0, 57, 50
1, 272931, Note_off_c, 0, 57, 0
1, 272931, Note_off_c, 0, 69, 0
1, 273027, Note_off_c, 0, 40, 0
1, 273027, Note_off_c, 0, 52, 0
1, 273027, Note_on_c, 0, 53, 36
1, 273027, Note_on_c, 0, 41, 36
1, 273027, Note_on_c, 0, 69, 50
1, 273027, Note_on_c, 0, 57, 50
1, 273123, Note_off_c, 0, 57, 0
1, 273123, Note_off_c, 0, 69, 0
1, 273123, Note_on_c, 0, 69, 50
1, 273123, Note_on_c, 0, 57, 50
1, 273219, Note_off_c, 0, 57, 0
1, 273219, Note_off_c, 0, 69, 0
1, 273219, Note_off_c, 0, 41, 0
1, 273219, Note_off_c, 0, 53, 0
1, 273219, Note_on_c, 0, 45, 36
1, 273219, Note_on_c, 0, 69, 50
1, 273219, Note_on_c, 0, 57, 50
1, 273315, Note_off_c, 0, 57, 0
1, 273315, Note_off_c, 0, 69, 0
1, 273315, Note_off_c, 0, 26, 0
1, 273315, Note_off_c, 0, 38, 0
1, 273315, Note_on_c, 0, 69, 50
1, 273315, Note_on_c, 0, 57, 50
1, 273411, Note_off_c, 0, 57, 0
1, 273411, Note_off_c, 0, 69, 0
1, 273411, Note_off_c, 0, 45, 0
1, 273411, Note_on_c, 0, 74, 36
1, 273411, Note_on_c, 0, 50, 36
1, 273411, Note_on_c, 0, 38, 36
1, 273411, Note_on_c, 0, 62, 36
1, 273411, Note_on_c, 0, 38, 36
1, 273411, Note_on_c, 0, 26, 36
1, 273603, Note_off_c, 0, 38, 0
1, 273603, Note_off_c, 0, 50, 0
1, 273603, Note_on_c, 0, 52, 36
1, 273603, Note_on_c, 0, 40, 36
1, 273699, Note_off_c, 0, 62, 0
1, 273699, Note_off_c, 0, 74, 0
1, 273795, Note_off_c, 0, 40, 0
1, 273795, Note_off_c, 0, 52, 0
1, 273795, Note_on_c, 0, 72, 36
1, 273795, Note_on_c, 0, 53, 36
1, 273795, Note_on_c, 0, 60, 36
1, 273795, Note_on_c, 0, 41, 36
1, 273987, Note_off_c, 0, 41, 0
1, 273987, Note_off_c, 0, 53, 0
1, 273987, Note_on_c, 0, 57, 36
1, 273987, Note_on_c, 0, 45, 36
1, 274083, Note_off_c, 0, 60, 0
1, 274083, Note_off_c, 0, 72, 0
1, 274179, Note_off_c, 0, 45, 0
1, 274179, Note_off_c, 0, 57, 0
1, 274179, Note_on_c, 0, 50, 36
1, 274179, Note_on_c, 0, 38, 36
1, 274179, Note_on_c, 0, 69, 36
1, 274179, Note_on_c, 0, 57, 36
1, 274371, Note_off_c, 0, 57, 0
1, 274371, Note_off_c, 0, 69, 0
1, 274371, Note_off_c, 0, 38, 0
1, 274371, Note_off_c, 0, 50, 0
1, 274371, Note_on_c, 0, 52, 36
1, 274371, Note_on_c, 0, 40, 36
1, 274371, Note_on_c, 0, 69, 50
1, 274371, Note_on_c, 0, 57, 50
1, 274467, Note_off_c, 0, 57, 0
1, 274467, Note_off_c, 0, 69, 0
1, 274563, Note_off_c, 0, 40, 0
1, 274563, Note_off_c, 0, 52, 0
1, 274563, Note_on_c, 0, 53, 36
1, 274563, Note_on_c, 0, 41, 36
1, 274563, Note_on_c, 0, 69, 50
1, 274563, Note_on_c, 0, 57, 50
1, 274659, Note_off_c, 0, 57, 0
1, 274659, Note_off_c, 0, 69, 0
1, 274659, Note_on_c, 0, 69, 50
1, 274659, Note_on_c, 0, 57, 50
1, 274755, Note_off_c, 0, 57, 0
1, 274755, Note_off_c, 0, 69, 0
1, 274755, Note_off_c, 0, 41, 0
1, 274755, Note_off_c, 0, 53, 0
1, 274755, Note_on_c, 0, 45, 36
1, 274755, Note_on_c, 0, 69, 50
1, 274755, Note_on_c, 0, 57, 50
1, 274851, Note_off_c, 0, 57, 0
1, 274851, Note_off_c, 0, 69, 0
1, 274851, Note_off_c, 0, 26, 0
1, 274851, Note_off_c, 0, 38, 0
1, 274851, Note_on_c, 0, 69, 50
1, 274851, Note_on_c, 0, 57, 50
1, 274947, Note_off_c, 0, 57, 0
1, 274947, Note_off_c, 0, 69, 0
1, 274947, Note_off_c, 0, 45, 0
1, 274947, Note_on_c, 0, 74, 36
1, 274947, Note_on_c, 0, 50, 36
1, 274947, Note_on_c, 0, 38, 36
1, 274947, Note_on_c, 0, 62, 36
1, 274947, Note_on_c, 0, 38, 36
1, 274947, Note_on_c, 0, 26, 36
1, 275139, Note_off_c, 0, 38, 0
1, 275139, Note_off_c, 0, 50, 0
1, 275139, Note_on_c, 0, 52, 36
1, 275139, Note_on_c, 0, 40, 36
1, 275235, Note_off_c, 0, 62, 0
1, 275235, Note_off_c, 0, 74, 0
1, 275331, Note_off_c, 0, 40, 0
1, 275331, Note_off_c, 0, 52, 0
1, 275331, Note_on_c, 0, 72, 36
1, 275331, Note_on_c, 0, 53, 36
1, 275331, Note_on_c, 0, 60, 36
1, 275331, Note_on_c, 0, 41, 36
1, 275523, Note_off_c, 0, 41, 0
1, 275523, Note_off_c, 0, 53, 0
1, 275523, Note_on_c, 0, 57, 36
1, 275523, Note_on_c, 0, 45, 36
1, 275619, Note_off_c, 0, 60, 0
1, 275619, Note_off_c, 0, 72, 0
1, 275715, Note_off_c, 0, 45, 0
1, 275715, Note_off_c, 0, 57, 0
1, 275715, Note_on_c, 0, 50, 36
1, 275715, Note_on_c, 0, 38, 36
1, 275715, Note_on_c, 0, 69, 36
1, 275715, Note_on_c, 0, 57, 36
1, 275907, Note_off_c, 0, 57, 0
1, 275907, Note_off_c, 0, 69, 0
1, 275907, Note_off_c, 0, 38, 0
1, 275907, Note_off_c, 0, 50, 0
1, 275907, Note_on_c, 0, 52, 36
1, 275907, Note_on_c, 0, 40, 36
1, 275907, Note_on_c, 0, 69, 50
1, 275907, Note_on_c, 0, 57, 50
1, 276003, Note_off_c, 0, 57, 0
1, 276003, Note_off_c, 0, 69, 0
1, 276099, Note_off_c, 0, 40, 0
1, 276099, Note_off_c, 0, 52, 0
1, 276099, Note_on_c, 0, 53, 36
1, 276099, Note_on_c, 0, 41, 36
1, 276099, Note_on_c, 0, 69, 50
1, 276099, Note_on_c, 0, 57, 50
1, 276195, Note_off_c, 0, 57, 0
1, 276195, Note_off_c, 0, 69, 0
1, 276195, Note_on_c, 0, 69, 50
1, 276195, Note_on_c, 0, 57, 50
1, 276291, Note_off_c, 0, 57, 0
1, 276291, Note_off_c, 0, 69, 0
1, 276291, Note_off_c, 0, 41, 0
1, 276291, Note_off_c, 0, 53, 0
1, 276291, Note_on_c, 0, 45, 36
1, 276291, Note_on_c, 0, 69, 50
1, 276291, Note_on_c, 0, 57, 50
1, 276387, Note_off_c, 0, 57, 0
1, 276387, Note_off_c, 0, 69, 0
1, 276387, Note_off_c, 0, 26, 0
1, 276387, Note_off_c, 0, 38, 0
1, 276387, Note_on_c, 0, 69, 50
1, 276387, Note_on_c, 0, 57, 50
1, 276483, Note_off_c, 0, 57, 0
1, 276483, Note_off_c, 0, 69, 0
1, 276483, Note_off_c, 0, 45, 0
1, 276483, Note_on_c, 0, 38, 36
1, 276483, Note_on_c, 0, 50, 36
1, 276483, Note_on_c, 0, 26, 36
1, 276483, Note_on_c, 0, 38, 36
1, 276483, Note_on_c, 0, 74, 50
1, 276483, Note_on_c, 0, 62, 50
1, 276579, Note_off_c, 0, 62, 0
1, 276579, Note_off_c, 0, 74, 0
1, 276675, Note_off_c, 0, 38, 0
1, 276675, Note_off_c, 0, 26, 0
1, 276675, Note_off_c, 0, 50, 0
1, 276675, Note_off_c, 0, 38, 0
1, 276675, Note_on_c, 0, 38, 36
1, 276675, Note_on_c, 0, 50, 36
1, 276675, Note_on_c, 0, 26, 36
1, 276675, Note_on_c, 0, 38, 36
1, 276867, Note_off_c, 0, 38, 0
1, 276867, Note_off_c, 0, 26, 0
1, 276867, Note_off_c, 0, 50, 0
1, 276867, Note_off_c, 0, 38, 0
1, 276867, Note_on_c, 0, 38, 36
1, 276867, Note_on_c, 0, 50, 36
1, 276867, Note_on_c, 0, 26, 36
1, 276867, Note_on_c, 0, 38, 36
1, 276867, Note_on_c, 0, 74, 50
1, 276867, Note_on_c, 0, 62, 50
1, 276963, Note_off_c, 0, 62, 0
1, 276963, Note_off_c, 0, 74, 0
1, 277059, Note_off_c, 0, 38, 0
1, 277059, Note_off_c, 0, 26, 0
1, 277059, Note_off_c, 0, 50, 0
1, 277059, Note_off_c, 0, 38, 0
1, 277059, Note_on_c, 0, 38, 36
1, 277059, Note_on_c, 0, 50, 36
1, 277059, Note_on_c, 0, 26, 36
1, 277059, Note_on_c, 0, 38, 36
1, 277251, Note_off_c, 0, 38, 0
1, 277251, Note_off_c, 0, 26, 0
1, 277251, Note_off_c, 0, 50, 0
1, 277251, Note_off_c, 0, 38, 0
1, 277251, Note_on_c, 0, 38, 36
1, 277251, Note_on_c, 0, 50, 36
1, 277251, Note_on_c, 0, 26, 36
1, 277251, Note_on_c, 0, 38, 36
1, 277251, Note_on_c, 0, 74, 50
1, 277251, Note_on_c, 0, 62, 50
1, 277347, Note_off_c, 0, 62, 0
1, 277347, Note_off_c, 0, 74, 0
1, 277443, Note_off_c, 0, 38, 0
1, 277443, Note_off_c, 0, 26, 0
1, 277443, Note_off_c, 0, 50, 0
1, 277443, Note_off_c, 0, 38, 0
1, 277443, Note_on_c, 0, 38, 36
1, 277443, Note_on_c, 0, 50, 36
1, 277443, Note_on_c, 0, 26, 36
1, 277443, Note_on_c, 0, 38, 36
1, 277635, Note_off_c, 0, 38, 0
1, 277635, Note_off_c, 0, 26, 0
1, 277635, Note_off_c, 0, 50, 0
1, 277635, Note_off_c, 0, 38, 0
1, 277635, Note_on_c, 0, 38, 36
1, 277635, Note_on_c, 0, 50, 36
1, 277635, Note_on_c, 0, 26, 36
1, 277635, Note_on_c, 0, 38, 36
1, 277635, Note_on_c, 0, 74, 50
1, 277635, Note_on_c, 0, 62, 50
1, 277731, Note_off_c, 0, 62, 0
1, 277731, Note_off_c, 0, 74, 0
1, 277827, Note_off_c, 0, 38, 0
1, 277827, Note_off_c, 0, 26, 0
1, 277827, Note_off_c, 0, 50, 0
1, 277827, Note_off_c, 0, 38, 0
1, 277827, Note_on_c, 0, 38, 36
1, 277827, Note_on_c, 0, 50, 36
1, 277827, Note_on_c, 0, 26, 36
1, 277827, Note_on_c, 0, 38, 36
1, 278019, Note_off_c, 0, 38, 0
1, 278019, Note_off_c, 0, 26, 0
1, 278019, Note_off_c, 0, 50, 0
1, 278019, Note_off_c, 0, 38, 0
1, 278019, Note_on_c, 0, 38, 36
1, 278019, Note_on_c, 0, 50, 36
1, 278019, Note_on_c, 0, 26, 36
1, 278019, Note_on_c, 0, 38, 36
1, 278019, Note_on_c, 0, 62, 50
1, 278019, Note_on_c, 0, 74, 50
1, 278115, Note_off_c, 0, 74, 0
1, 278115, Note_off_c, 0, 62, 0
1, 278211, Note_off_c, 0, 38, 0
1, 278211, Note_off_c, 0, 26, 0
1, 278211, Note_off_c, 0, 50, 0
1, 278211, Note_off_c, 0, 38, 0
1, 278211, Note_on_c, 0, 38, 36
1, 278211, Note_on_c, 0, 50, 36
1, 278211, Note_on_c, 0, 26, 36
1, 278211, Note_on_c, 0, 38, 36
1, 278403, Note_off_c, 0, 38, 0
1, 278403, Note_off_c, 0, 26, 0
1, 278403, Note_off_c, 0, 50, 0
1, 278403, Note_off_c, 0, 38, 0
1, 278403, Note_on_c, 0, 38, 36
1, 278403, Note_on_c, 0, 50, 36
1, 278403, Note_on_c, 0, 26, 36
1, 278403, Note_on_c, 0, 38, 36
1, 278403, Note_on_c, 0, 74, 50
1, 278403, Note_on_c, 0, 62, 50
1, 278499, Note_off_c, 0, 62, 0
1, 278499, Note_off_c, 0, 74, 0
1, 278595, Note_off_c, 0, 38, 0
1, 278595, Note_off_c, 0, 26, 0
1, 278595, Note_off_c, 0, 50, 0
1, 278595, Note_off_c, 0, 38, 0
1, 278595, Note_on_c, 0, 38, 36
1, 278595, Note_on_c, 0, 50, 36
1, 278595, Note_on_c, 0, 26, 36
1, 278595, Note_on_c, 0, 38, 36
1, 278787, Note_off_c, 0, 38, 0
1, 278787, Note_off_c, 0, 26, 0
1, 278787, Note_off_c, 0, 50, 0
1, 278787, Note_off_c, 0, 38, 0
1, 278787, Note_on_c, 0, 38, 36
1, 278787, Note_on_c, 0, 50, 36
1, 278787, Note_on_c, 0, 26, 36
1, 278787, Note_on_c, 0, 38, 36
1, 278787, Note_on_c, 0, 62, 50
1, 278787, Note_on_c, 0, 74, 50
1, 278883, Note_off_c, 0, 74, 0
1, 278883, Note_off_c, 0, 62, 0
1, 278979, Note_off_c, 0, 38, 0
1, 278979, Note_off_c, 0, 26, 0
1, 278979, Note_off_c, 0, 50, 0
1, 278979, Note_off_c, 0, 38, 0
1, 278979, Note_on_c, 0, 38, 36
1, 278979, Note_on_c, 0, 50, 36
1, 278979, Note_on_c, 0, 26, 36
1, 278979, Note_on_c, 0, 38, 36
1, 279171, Note_off_c, 0, 38, 0
1, 279171, Note_off_c, 0, 26, 0
1, 279171, Note_off_c, 0, 50, 0
1, 279171, Note_off_c, 0, 38, 0
1, 279171, Note_on_c, 0, 38, 36
1, 279171, Note_on_c, 0, 50, 36
1, 279171, Note_on_c, 0, 26, 36
1, 279171, Note_on_c, 0, 38, 36
1, 279171, Note_on_c, 0, 62, 50
1, 279171, Note_on_c, 0, 74, 50
1, 279267, Note_off_c, 0, 74, 0
1, 279267, Note_off_c, 0, 62, 0
1, 279363, Note_off_c, 0, 38, 0
1, 279363, Note_off_c, 0, 26, 0
1, 279363, Note_off_c, 0, 50, 0
1, 279363, Note_off_c, 0, 38, 0
1, 279363, Note_on_c, 0, 38, 36
1, 279363, Note_on_c, 0, 50, 36
1, 279363, Note_on_c, 0, 26, 36
1, 279363, Note_on_c, 0, 38, 36
1, 279555, Note_off_c, 0, 38, 0
1, 279555, Note_off_c, 0, 26, 0
1, 279555, Note_off_c, 0, 50, 0
1, 279555, Note_off_c, 0, 38, 0
1, 279555, Note_on_c, 0, 38, 36
1, 279555, Note_on_c, 0, 50, 36
1, 279555, Note_on_c, 0, 26, 36
1, 279555, Note_on_c, 0, 38, 36
1, 279555, Note_on_c, 0, 74, 50
1, 279555, Note_on_c, 0, 62, 50
1, 279651, Note_off_c, 0, 62, 0
1, 279651, Note_off_c, 0, 74, 0
1, 279747, Note_off_c, 0, 38, 0
1, 279747, Note_off_c, 0, 26, 0
1, 279747, Note_off_c, 0, 50, 0
1, 279747, Note_off_c, 0, 38, 0
1, 279747, Note_on_c, 0, 38, 36
1, 279747, Note_on_c, 0, 50, 36
1, 279747, Note_on_c, 0, 26, 36
1, 279747, Note_on_c, 0, 38, 36
1, 279747, Note_on_c, 0, 74, 50
1, 279747, Note_on_c, 0, 62, 50
1, 279843, Note_off_c, 0, 62, 0
1, 279843, Note_off_c, 0, 74, 0
1, 279939, Note_off_c, 0, 38, 0
1, 279939, Note_off_c, 0, 26, 0
1, 279939, Note_off_c, 0, 50, 0
1, 279939, Note_off_c, 0, 38, 0
1, 279939, Note_on_c, 0, 38, 36
1, 279939, Note_on_c, 0, 50, 36
1, 279939, Note_on_c, 0, 26, 36
1, 279939, Note_on_c, 0, 38, 36
1, 279939, Note_on_c, 0, 74, 50
1, 279939, Note_on_c, 0, 62, 50
1, 280035, Note_off_c, 0, 62, 0
1, 280035, Note_off_c, 0, 74, 0
1, 280131, Note_off_c, 0, 38, 0
1, 280131, Note_off_c, 0, 26, 0
1, 280131, Note_off_c, 0, 50, 0
1, 280131, Note_off_c, 0, 38, 0
1, 280131, Note_on_c, 0, 38, 36
1, 280131, Note_on_c, 0, 50, 36
1, 280131, Note_on_c, 0, 26, 36
1, 280131, Note_on_c, 0, 38, 36
1, 280131, Note_on_c, 0, 74, 50
1, 280131, Note_on_c, 0, 62, 50
1, 280227, Note_off_c, 0, 62, 0
1, 280227, Note_off_c, 0, 74, 0
1, 280323, Note_off_c, 0, 38, 0
1, 280323, Note_off_c, 0, 26, 0
1, 280323, Note_off_c, 0, 50, 0
1, 280323, Note_off_c, 0, 38, 0
1, 280323, Note_on_c, 0, 38, 36
1, 280323, Note_on_c, 0, 50, 36
1, 280323, Note_on_c, 0, 26, 36
1, 280323, Note_on_c, 0, 38, 36
1, 280323, Note_on_c, 0, 74, 50
1, 280323, Note_on_c, 0, 62, 50
1, 280419, Note_off_c, 0, 62, 0
1, 280419, Note_off_c, 0, 74, 0
1, 280515, Note_off_c, 0, 38, 0
1, 280515, Note_off_c, 0, 26, 0
1, 280515, Note_off_c, 0, 50, 0
1, 280515, Note_off_c, 0, 38, 0
1, 280515, Note_on_c, 0, 38, 36
1, 280515, Note_on_c, 0, 50, 36
1, 280515, Note_on_c, 0, 26, 36
1, 280515, Note_on_c, 0, 38, 36
1, 280515, Note_on_c, 0, 74, 50
1, 280515, Note_on_c, 0, 62, 50
1, 280611, Note_off_c, 0, 62, 0
1, 280611, Note_off_c, 0, 74, 0
1, 280707, Note_off_c, 0, 38, 0
1, 280707, Note_off_c, 0, 26, 0
1, 280707, Note_off_c, 0, 50, 0
1, 280707, Note_off_c, 0, 38, 0
1, 280707, Note_on_c, 0, 38, 36
1, 280707, Note_on_c, 0, 50, 36
1, 280707, Note_on_c, 0, 26, 36
1, 280707, Note_on_c, 0, 38, 36
1, 280707, Note_on_c, 0, 74, 50
1, 280707, Note_on_c, 0, 62, 50
1, 280803, Note_off_c, 0, 62, 0
1, 280803, Note_off_c, 0, 74, 0
1, 280899, Note_off_c, 0, 38, 0
1, 280899, Note_off_c, 0, 26, 0
1, 280899, Note_off_c, 0, 50, 0
1, 280899, Note_off_c, 0, 38, 0
1, 280899, Note_on_c, 0, 38, 36
1, 280899, Note_on_c, 0, 50, 36
1, 280899, Note_on_c, 0, 26, 36
1, 280899, Note_on_c, 0, 38, 36
1, 280899, Note_on_c, 0, 74, 50
1, 280899, Note_on_c, 0, 62, 50
1, 280995, Note_off_c, 0, 62, 0
1, 280995, Note_off_c, 0, 74, 0
1, 281091, Note_off_c, 0, 38, 0
1, 281091, Note_off_c, 0, 26, 0
1, 281091, Note_off_c, 0, 50, 0
1, 281091, Note_off_c, 0, 38, 0
1, 281091, Note_on_c, 0, 38, 36
1, 281091, Note_on_c, 0, 50, 36
1, 281091, Note_on_c, 0, 26, 36
1, 281091, Note_on_c, 0, 38, 36
1, 281091, Note_on_c, 0, 74, 50
1, 281091, Note_on_c, 0, 62, 50
1, 281187, Note_off_c, 0, 62, 0
1, 281187, Note_off_c, 0, 74, 0
1, 281187, Note_on_c, 0, 74, 50
1, 281187, Note_on_c, 0, 62, 50
1, 281283, Note_off_c, 0, 62, 0
1, 281283, Note_off_c, 0, 74, 0
1, 281283, Note_off_c, 0, 38, 0
1, 281283, Note_off_c, 0, 26, 0
1, 281283, Note_off_c, 0, 50, 0
1, 281283, Note_off_c, 0, 38, 0
1, 281283, Note_on_c, 0, 38, 36
1, 281283, Note_on_c, 0, 50, 36
1, 281283, Note_on_c, 0, 26, 36
1, 281283, Note_on_c, 0, 38, 36
1, 281283, Note_on_c, 0, 74, 50
1, 281283, Note_on_c, 0, 62, 50
1, 281379, Note_off_c, 0, 62, 0
1, 281379, Note_off_c, 0, 74, 0
1, 281379, Note_on_c, 0, 74, 50
1, 281379, Note_on_c, 0, 62, 50
1, 281475, Note_off_c, 0, 62, 0
1, 281475, Note_off_c, 0, 74, 0
1, 281475, Note_off_c, 0, 38, 0
1, 281475, Note_off_c, 0, 26, 0
1, 281475, Note_off_c, 0, 50, 0
1, 281475, Note_off_c, 0, 38, 0
1, 281475, Note_on_c, 0, 38, 36
1, 281475, Note_on_c, 0, 50, 36
1, 281475, Note_on_c, 0, 26, 36
1, 281475, Note_on_c, 0, 38, 36
1, 281475, Note_on_c, 0, 74, 50
1, 281475, Note_on_c, 0, 62, 50
1, 281571, Note_off_c, 0, 62, 0
1, 281571, Note_off_c, 0, 74, 0
1, 281571, Note_on_c, 0, 74, 50
1, 281571, Note_on_c, 0, 62, 50
1, 281667, Note_off_c, 0, 62, 0
1, 281667, Note_off_c, 0, 74, 0
1, 281667, Note_off_c, 0, 38, 0
1, 281667, Note_off_c, 0, 26, 0
1, 281667, Note_off_c, 0, 50, 0
1, 281667, Note_off_c, 0, 38, 0
1, 281667, Note_on_c, 0, 38, 36
1, 281667, Note_on_c, 0, 50, 36
1, 281667, Note_on_c, 0, 26, 36
1, 281667, Note_on_c, 0, 38, 36
1, 281667, Note_on_c, 0, 74, 50
1, 281667, Note_on_c, 0, 62, 50
1, 281763, Note_off_c, 0, 62, 0
1, 281763, Note_off_c, 0, 74, 0
1, 281763, Note_on_c, 0, 74, 50
1, 281763, Note_on_c, 0, 62, 50
1, 281859, Note_off_c, 0, 62, 0
1, 281859, Note_off_c, 0, 74, 0
1, 281859, Note_off_c, 0, 38, 0
1, 281859, Note_off_c, 0, 26, 0
1, 281859, Note_off_c, 0, 50, 0
1, 281859, Note_off_c, 0, 38, 0
1, 281859, Note_on_c, 0, 38, 36
1, 281859, Note_on_c, 0, 50, 36
1, 281859, Note_on_c, 0, 26, 36
1, 281859, Note_on_c, 0, 38, 36
1, 281859, Note_on_c, 0, 74, 50
1, 281859, Note_on_c, 0, 62, 50
1, 281955, Note_off_c, 0, 62, 0
1, 281955, Note_off_c, 0, 74, 0
1, 281955, Note_on_c, 0, 74, 50
1, 281955, Note_on_c, 0, 62, 50
1, 282051, Note_off_c, 0, 62, 0
1, 282051, Note_off_c, 0, 74, 0
1, 282051, Note_off_c, 0, 38, 0
1, 282051, Note_off_c, 0, 26, 0
1, 282051, Note_off_c, 0, 50, 0
1, 282051, Note_off_c, 0, 38, 0
1, 282051, Note_on_c, 0, 38, 36
1, 282051, Note_on_c, 0, 50, 36
1, 282051, Note_on_c, 0, 26, 36
1, 282051, Note_on_c, 0, 38, 36
1, 282051, Note_on_c, 0, 74, 50
1, 282051, Note_on_c, 0, 62, 50
1, 282147, Note_off_c, 0, 62, 0
1, 282147, Note_off_c, 0, 74, 0
1, 282147, Note_on_c, 0, 74, 50
1, 282147, Note_on_c, 0, 62, 50
1, 282243, Note_off_c, 0, 62, 0
1, 282243, Note_off_c, 0, 74, 0
1, 282243, Note_off_c, 0, 38, 0
1, 282243, Note_off_c, 0, 26, 0
1, 282243, Note_off_c, 0, 50, 0
1, 282243, Note_off_c, 0, 38, 0
1, 282243, Note_on_c, 0, 38, 36
1, 282243, Note_on_c, 0, 50, 36
1, 282243, Note_on_c, 0, 26, 36
1, 282243, Note_on_c, 0, 38, 36
1, 282243, Note_on_c, 0, 74, 50
1, 282243, Note_on_c, 0, 62, 50
1, 282339, Note_off_c, 0, 62, 0
1, 282339, Note_off_c, 0, 74, 0
1, 282339, Note_on_c, 0, 74, 50
1, 282339, Note_on_c, 0, 62, 50
1, 282435, Note_off_c, 0, 62, 0
1, 282435, Note_off_c, 0, 74, 0
1, 282435, Note_off_c, 0, 38, 0
1, 282435, Note_off_c, 0, 26, 0
1, 282435, Note_off_c, 0, 50, 0
1, 282435, Note_off_c, 0, 38, 0
1, 282435, Note_on_c, 0, 38, 36
1, 282435, Note_on_c, 0, 50, 36
1, 282435, Note_on_c, 0, 26, 36
1, 282435, Note_on_c, 0, 38, 36
1, 282435, Note_on_c, 0, 74, 50
1, 282435, Note_on_c, 0, 62, 50
1, 282531, Note_off_c, 0, 62, 0
1, 282531, Note_off_c, 0, 74, 0
1, 282531, Note_on_c, 0, 74, 50
1, 282531, Note_on_c, 0, 62, 50
1, 282627, Note_off_c, 0, 62, 0
1, 282627, Note_off_c, 0, 74, 0
1, 282627, Note_off_c, 0, 38, 0
1, 282627, Note_off_c, 0, 26, 0
1, 282627, Note_off_c, 0, 50, 0
1, 282627, Note_off_c, 0, 38, 0
1, 282627, Note_on_c, 0, 38, 36
1, 282627, Note_on_c, 0, 50, 36
1, 282627, Note_on_c, 0, 26, 36
1, 282627, Note_on_c, 0, 38, 36
1, 284067, Note_off_c, 0, 26, 0
1, 284067, Note_off_c, 0, 38, 0
1, 284931, Note_off_c, 0, 38, 0
1, 284931, Note_off_c, 0, 50, 0
1, 287235, Note_on_c, 0, 73, 36
1, 287619, Note_off_c, 0, 73, 0
1, 287715, Note_on_c, 0, 73, 36
1, 288099, Note_off_c, 0, 73, 0
1, 288195, Note_on_c, 0, 73, 36
1, 288675, Note_off_c, 0, 73, 0
1, 288771, Note_on_c, 0, 71, 36
1, 288771, Note_on_c, 0, 35, 36
1, 288771, Note_on_c, 0, 47, 36
1, 288771, Note_on_c, 0, 78, 43
1, 288771, Note_on_c, 0, 85, 43
1, 288771, Note_on_c, 0, 59, 23
1, 288771, Note_on_c, 0, 59, 36
1, 288771, Note_on_c, 0, 24, 36
1, 288771, Note_on_c, 0, 35, 36
1, 288771, Note_on_c, 0, 66, 43
1, 288771, Note_on_c, 0, 73, 43
1, 288771, Note_on_c, 0, 47, 23
1, 288963, Note_off_c, 0, 59, 0
1, 288963, Note_off_c, 0, 71, 0
1, 288963, Note_on_c, 0, 71, 36
1, 288963, Note_on_c, 0, 59, 36
1, 289059, Note_off_c, 0, 47, 0
1, 289059, Note_off_c, 0, 35, 0
1, 289059, Note_off_c, 0, 24, 0
1, 289059, Note_off_c, 0, 59, 0
1, 289059, Note_off_c, 0, 47, 0
1, 289059, Note_off_c, 0, 35, 0
1, 289155, Note_off_c, 0, 59, 0
1, 289155, Note_off_c, 0, 71, 0
1, 289155, Note_on_c, 0, 71, 36
1, 289155, Note_on_c, 0, 35, 36
1, 289155, Note_on_c, 0, 47, 36
1, 289155, Note_on_c, 0, 66, 23
1, 289155, Note_on_c, 0, 59, 36
1, 289155, Note_on_c, 0, 24, 36
1, 289155, Note_on_c, 0, 35, 36
1, 289155, Note_on_c, 0, 54, 23
1, 289347, Note_off_c, 0, 54, 0
1, 289347, Note_off_c, 0, 59, 0
1, 289347, Note_off_c, 0, 66, 0
1, 289347, Note_off_c, 0, 71, 0
1, 289347, Note_on_c, 0, 71, 36
1, 289347, Note_on_c, 0, 71, 23
1, 289347, Note_on_c, 0, 59, 36
1, 289347, Note_on_c, 0, 59, 23
1, 289443, Note_off_c, 0, 35, 0
1, 289443, Note_off_c, 0, 24, 0
1, 289443, Note_off_c, 0, 47, 0
1, 289443, Note_off_c, 0, 35, 0
1, 289539, Note_off_c, 0, 59, 0
1, 289539, Note_off_c, 0, 59, 0
1, 289539, Note_off_c, 0, 71, 0
1, 289539, Note_off_c, 0, 71, 0
1, 289539, Note_on_c, 0, 71, 36
1, 289539, Note_on_c, 0, 35, 36
1, 289539, Note_on_c, 0, 47, 36
1, 289539, Note_on_c, 0, 59, 23
1, 289539, Note_on_c, 0, 59, 36
1, 289539, Note_on_c, 0, 24, 36
1, 289539, Note_on_c, 0, 35, 36
1, 289539, Note_on_c, 0, 47, 23
1, 289731, Note_off_c, 0, 59, 0
1, 289731, Note_off_c, 0, 71, 0
1, 289731, Note_on_c, 0, 71, 36
1, 289731, Note_on_c, 0, 59, 36
1, 289827, Note_off_c, 0, 47, 0
1, 289827, Note_off_c, 0, 35, 0
1, 289827, Note_off_c, 0, 24, 0
1, 289827, Note_off_c, 0, 59, 0
1, 289827, Note_off_c, 0, 47, 0
1, 289827, Note_off_c, 0, 35, 0
1, 289923, Note_off_c, 0, 59, 0
1, 289923, Note_off_c, 0, 71, 0
1, 289923, Note_on_c, 0, 71, 36
1, 289923, Note_on_c, 0, 35, 36
1, 289923, Note_on_c, 0, 47, 36
1, 289923, Note_on_c, 0, 66, 23
1, 289923, Note_on_c, 0, 59, 36
1, 289923, Note_on_c, 0, 24, 36
1, 289923, Note_on_c, 0, 35, 36
1, 289923, Note_on_c, 0, 54, 23
1, 290115, Note_off_c, 0, 54, 0
1, 290115, Note_off_c, 0, 59, 0
1, 290115, Note_off_c, 0, 66, 0
1, 290115, Note_off_c, 0, 71, 0
1, 290115, Note_on_c, 0, 71, 36
1, 290115, Note_on_c, 0, 71, 23
1, 290115, Note_on_c, 0, 59, 36
1, 290115, Note_on_c, 0, 59, 23
1, 290211, Note_off_c, 0, 35, 0
1, 290211, Note_off_c, 0, 24, 0
1, 290211, Note_off_c, 0, 47, 0
1, 290211, Note_off_c, 0, 35, 0
1, 290211, Note_off_c, 0, 73, 0
1, 290211, Note_off_c, 0, 66, 0
1, 290211, Note_off_c, 0, 85, 0
1, 290211, Note_off_c, 0, 78, 0
1, 290307, Note_off_c, 0, 59, 0
1, 290307, Note_off_c, 0, 59, 0
1, 290307, Note_off_c, 0, 71, 0
1, 290307, Note_off_c, 0, 71, 0
1, 290307, Note_on_c, 0, 71, 36
1, 290307, Note_on_c, 0, 35, 36
1, 290307, Note_on_c, 0, 47, 36
1, 290307, Note_on_c, 0, 85, 43
1, 290307, Note_on_c, 0, 78, 43
1, 290307, Note_on_c, 0, 59, 23
1, 290307, Note_on_c, 0, 59, 36
1, 290307, Note_on_c, 0, 24, 36
1, 290307, Note_on_c, 0, 35, 36
1, 290307, Note_on_c, 0, 73, 43
1, 290307, Note_on_c, 0, 66, 43
1, 290307, Note_on_c, 0, 47, 23
1, 290499, Note_off_c, 0, 59, 0
1, 290499, Note_off_c, 0, 71, 0
1, 290499, Note_on_c, 0, 71, 36
1, 290499, Note_on_c, 0, 59, 36
1, 290595, Note_off_c, 0, 47, 0
1, 290595, Note_off_c, 0, 35, 0
1, 290595, Note_off_c, 0, 24, 0
1, 290595, Note_off_c, 0, 59, 0
1, 290595, Note_off_c, 0, 47, 0
1, 290595, Note_off_c, 0, 35, 0
1, 290691, Note_off_c, 0, 59, 0
1, 290691, Note_off_c, 0, 71, 0
1, 290691, Note_on_c, 0, 71, 36
1, 290691, Note_on_c, 0, 35, 36
1, 290691, Note_on_c, 0, 47, 36
1, 290691, Note_on_c, 0, 66, 23
1, 290691, Note_on_c, 0, 59, 36
1, 290691, Note_on_c, 0, 24, 36
1, 290691, Note_on_c, 0, 35, 36
1, 290691, Note_on_c, 0, 54, 23
1, 290787, Note_off_c, 0, 73, 0
1, 290787, Note_off_c, 0, 85, 0
1, 290883, Note_off_c, 0, 54, 0
1, 290883, Note_off_c, 0, 59, 0
1, 290883, Note_off_c, 0, 66, 0
1, 290883, Note_off_c, 0, 71, 0
1, 290883, Note_on_c, 0, 71, 36
1, 290883, Note_on_c, 0, 83, 43
1, 290883, Note_on_c, 0, 71, 23
1, 290883, Note_on_c, 0, 59, 36
1, 290883, Note_on_c, 0, 71, 43
1, 290883, Note_on_c, 0, 59, 23
1, 290979, Note_off_c, 0, 35, 0
1, 290979, Note_off_c, 0, 24, 0
1, 290979, Note_off_c, 0, 47, 0
1, 290979, Note_off_c, 0, 35, 0
1, 291075, Note_off_c, 0, 59, 0
1, 291075, Note_off_c, 0, 59, 0
1, 291075, Note_off_c, 0, 71, 0
1, 291075, Note_off_c, 0, 71, 0
1, 291075, Note_on_c, 0, 71, 36
1, 291075, Note_on_c, 0, 35, 36
1, 291075, Note_on_c, 0, 47, 36
1, 291075, Note_on_c, 0, 59, 23
1, 291075, Note_on_c, 0, 59, 36
1, 291075, Note_on_c, 0, 24, 36
1, 291075, Note_on_c, 0, 35, 36
1, 291075, Note_on_c, 0, 47, 23
1, 291267, Note_off_c, 0, 59, 0
1, 291267, Note_off_c, 0, 71, 0
1, 291267, Note_on_c, 0, 71, 36
1, 291267, Note_on_c, 0, 59, 36
1, 291363, Note_off_c, 0, 47, 0
1, 291363, Note_off_c, 0, 35, 0
1, 291363, Note_off_c, 0, 24, 0
1, 291363, Note_off_c, 0, 59, 0
1, 291363, Note_off_c, 0, 47, 0
1, 291363, Note_off_c, 0, 35, 0
1, 291363, Note_off_c, 0, 71, 0
1, 291363, Note_off_c, 0, 83, 0
1, 291459, Note_off_c, 0, 59, 0
1, 291459, Note_off_c, 0, 71, 0
1, 291459, Note_on_c, 0, 71, 36
1, 291459, Note_on_c, 0, 35, 36
1, 291459, Note_on_c, 0, 47, 36
1, 291459, Note_on_c, 0, 90, 43
1, 291459, Note_on_c, 0, 66, 23
1, 291459, Note_on_c, 0, 59, 36
1, 291459, Note_on_c, 0, 24, 36
1, 291459, Note_on_c, 0, 35, 36
1, 291459, Note_on_c, 0, 78, 43
1, 291459, Note_on_c, 0, 54, 23
1, 291651, Note_off_c, 0, 54, 0
1, 291651, Note_off_c, 0, 35, 0
1, 291651, Note_off_c, 0, 24, 0
1, 291651, Note_off_c, 0, 59, 0
1, 291651, Note_off_c, 0, 66, 0
1, 291651, Note_off_c, 0, 47, 0
1, 291651, Note_off_c, 0, 35, 0
1, 291651, Note_off_c, 0, 71, 0
1, 291651, Note_on_c, 0, 71, 36
1, 291651, Note_on_c, 0, 35, 36
1, 291651, Note_on_c, 0, 47, 36
1, 291651, Note_on_c, 0, 71, 23
1, 291651, Note_on_c, 0, 59, 36
1, 291651, Note_on_c, 0, 24, 36
1, 291651, Note_on_c, 0, 35, 36
1, 291651, Note_on_c, 0, 59, 23
1, 291747, Note_off_c, 0, 78, 0
1, 291747, Note_off_c, 0, 90, 0
1, 291747, Note_off_c, 0, 66, 0
1, 291747, Note_off_c, 0, 78, 0
1, 291843, Note_off_c, 0, 59, 0
1, 291843, Note_off_c, 0, 35, 0
1, 291843, Note_off_c, 0, 24, 0
1, 291843, Note_off_c, 0, 59, 0
1, 291843, Note_off_c, 0, 71, 0
1, 291843, Note_off_c, 0, 47, 0
1, 291843, Note_off_c, 0, 35, 0
1, 291843, Note_off_c, 0, 71, 0
1, 291843, Note_on_c, 0, 71, 36
1, 291843, Note_on_c, 0, 33, 36
1, 291843, Note_on_c, 0, 45, 36
1, 291843, Note_on_c, 0, 78, 43
1, 291843, Note_on_c, 0, 85, 43
1, 291843, Note_on_c, 0, 57, 23
1, 291843, Note_on_c, 0, 59, 36
1, 291843, Note_on_c, 0, 31, 36
1, 291843, Note_on_c, 0, 33, 36
1, 291843, Note_on_c, 0, 66, 43
1, 291843, Note_on_c, 0, 73, 43
1, 291843, Note_on_c, 0, 45, 23
1, 292035, Note_off_c, 0, 59, 0
1, 292035, Note_off_c, 0, 71, 0
1, 292035, Note_on_c, 0, 71, 36
1, 292035, Note_on_c, 0, 59, 36
1, 292131, Note_off_c, 0, 45, 0
1, 292131, Note_off_c, 0, 33, 0
1, 292131, Note_off_c, 0, 31, 0
1, 292131, Note_off_c, 0, 57, 0
1, 292131, Note_off_c, 0, 45, 0
1, 292131, Note_off_c, 0, 33, 0
1, 292227, Note_off_c, 0, 59, 0
1, 292227, Note_off_c, 0, 71, 0
1, 292227, Note_on_c, 0, 71, 36
1, 292227, Note_on_c, 0, 33, 36
1, 292227, Note_on_c, 0, 45, 36
1, 292227, Note_on_c, 0, 64, 23
1, 292227, Note_on_c, 0, 59, 36
1, 292227, Note_on_c, 0, 31, 36
1, 292227, Note_on_c, 0, 33, 36
1, 292227, Note_on_c, 0, 52, 23
1, 292419, Note_off_c, 0, 52, 0
1, 292419, Note_off_c, 0, 59, 0
1, 292419, Note_off_c, 0, 64, 0
1, 292419, Note_off_c, 0, 71, 0
1, 292419, Note_on_c, 0, 71, 36
1, 292419, Note_on_c, 0, 69, 23
1, 292419, Note_on_c, 0, 59, 36
1, 292419, Note_on_c, 0, 57, 23
1, 292515, Note_off_c, 0, 33, 0
1, 292515, Note_off_c, 0, 31, 0
1, 292515, Note_off_c, 0, 45, 0
1, 292515, Note_off_c, 0, 33, 0
1, 292611, Note_off_c, 0, 57, 0
1, 292611, Note_off_c, 0, 59, 0
1, 292611, Note_off_c, 0, 69, 0
1, 292611, Note_off_c, 0, 71, 0
1, 292611, Note_on_c, 0, 71, 36
1, 292611, Note_on_c, 0, 33, 36
1, 292611, Note_on_c, 0, 45, 36
1, 292611, Note_on_c, 0, 57, 23
1, 292611, Note_on_c, 0, 59, 36
1, 292611, Note_on_c, 0, 31, 36
1, 292611, Note_on_c, 0, 33, 36
1, 292611, Note_on_c, 0, 45, 23
1, 292803, Note_off_c, 0, 59, 0
1, 292803, Note_off_c, 0, 71, 0
1, 292803, Note_on_c, 0, 71, 36
1, 292803, Note_on_c, 0, 59, 36
1, 292899, Note_off_c, 0, 45, 0
1, 292899, Note_off_c, 0, 33, 0
1, 292899, Note_off_c, 0, 31, 0
1, 292899, Note_off_c, 0, 57, 0
1, 292899, Note_off_c, 0, 45, 0
1, 292899, Note_off_c, 0, 33, 0
1, 292995, Note_off_c, 0, 59, 0
1, 292995, Note_off_c, 0, 71, 0
1, 292995, Note_on_c, 0, 71, 36
1, 292995, Note_on_c, 0, 33, 36
1, 292995, Note_on_c, 0, 45, 36
1, 292995, Note_on_c, 0, 64, 23
1, 292995, Note_on_c, 0, 59, 36
1, 292995, Note_on_c, 0, 31, 36
1, 292995, Note_on_c, 0, 33, 36
1, 292995, Note_on_c, 0, 52, 23
1, 293187, Note_off_c, 0, 52, 0
1, 293187, Note_off_c, 0, 59, 0
1, 293187, Note_off_c, 0, 64, 0
1, 293187, Note_off_c, 0, 71, 0
1, 293187, Note_on_c, 0, 71, 36
1, 293187, Note_on_c, 0, 69, 23
1, 293187, Note_on_c, 0, 59, 36
1, 293187, Note_on_c, 0, 57, 23
1, 293283, Note_off_c, 0, 33, 0
1, 293283, Note_off_c, 0, 31, 0
1, 293283, Note_off_c, 0, 45, 0
1, 293283, Note_off_c, 0, 33, 0
1, 293283, Note_off_c, 0, 73, 0
1, 293283, Note_off_c, 0, 66, 0
1, 293283, Note_off_c, 0, 85, 0
1, 293283, Note_off_c, 0, 78, 0
1, 293379, Note_off_c, 0, 57, 0
1, 293379, Note_off_c, 0, 59, 0
1, 293379, Note_off_c, 0, 69, 0
1, 293379, Note_off_c, 0, 71, 0
1, 293379, Note_on_c, 0, 71, 36
1, 293379, Note_on_c, 0, 33, 36
1, 293379, Note_on_c, 0, 45, 36
1, 293379, Note_on_c, 0, 85, 43
1, 293379, Note_on_c, 0, 78, 43
1, 293379, Note_on_c, 0, 57, 23
1, 293379, Note_on_c, 0, 59, 36
1, 293379, Note_on_c, 0, 31, 36
1, 293379, Note_on_c, 0, 33, 36
1, 293379, Note_on_c, 0, 73, 43
1, 293379, Note_on_c, 0, 66, 43
1, 293379, Note_on_c, 0, 45, 23
1, 293571, Note_off_c, 0, 59, 0
1, 293571, Note_off_c, 0, 71, 0
1, 293571, Note_on_c, 0, 71, 36
1, 293571, Note_on_c, 0, 59, 36
1, 293667, Note_off_c, 0, 45, 0
1, 293667, Note_off_c, 0, 33, 0
1, 293667, Note_off_c, 0, 31, 0
1, 293667, Note_off_c, 0, 57, 0
1, 293667, Note_off_c, 0, 45, 0
1, 293667, Note_off_c, 0, 33, 0
1, 293763, Note_off_c, 0, 59, 0
1, 293763, Note_off_c, 0, 71, 0
1, 293763, Note_on_c, 0, 71, 36
1, 293763, Note_on_c, 0, 33, 36
1, 293763, Note_on_c, 0, 45, 36
1, 293763, Note_on_c, 0, 64, 23
1, 293763, Note_on_c, 0, 59, 36
1, 293763, Note_on_c, 0, 31, 36
1, 293763, Note_on_c, 0, 33, 36
1, 293763, Note_on_c, 0, 52, 23
1, 293859, Note_off_c, 0, 73, 0
1, 293859, Note_off_c, 0, 85, 0
1, 293955, Note_off_c, 0, 52, 0
1, 293955, Note_off_c, 0, 59, 0
1, 293955, Note_off_c, 0, 64, 0
1, 293955, Note_off_c, 0, 71, 0
1, 293955, Note_on_c, 0, 71, 36
1, 293955, Note_on_c, 0, 83, 43
1, 293955, Note_on_c, 0, 69, 23
1, 293955, Note_on_c, 0, 59, 36
1, 293955, Note_on_c, 0, 71, 43
1, 293955, Note_on_c, 0, 57, 23
1, 294051, Note_off_c, 0, 33, 0
1, 294051, Note_off_c, 0, 31, 0
1, 294051, Note_off_c, 0, 45, 0
1, 294051, Note_off_c, 0, 33, 0
1, 294147, Note_off_c, 0, 57, 0
1, 294147, Note_off_c, 0, 59, 0
1, 294147, Note_off_c, 0, 69, 0
1, 294147, Note_off_c, 0, 71, 0
1, 294147, Note_on_c, 0, 71, 36
1, 294147, Note_on_c, 0, 33, 36
1, 294147, Note_on_c, 0, 45, 36
1, 294147, Note_on_c, 0, 57, 23
1, 294147, Note_on_c, 0, 59, 36
1, 294147, Note_on_c, 0, 31, 36
1, 294147, Note_on_c, 0, 33, 36
1, 294147, Note_on_c, 0, 45, 23
1, 294339, Note_off_c, 0, 59, 0
1, 294339, Note_off_c, 0, 71, 0
1, 294339, Note_on_c, 0, 71, 36
1, 294339, Note_on_c, 0, 59, 36
1, 294435, Note_off_c, 0, 45, 0
1, 294435, Note_off_c, 0, 33, 0
1, 294435, Note_off_c, 0, 31, 0
1, 294435, Note_off_c, 0, 57, 0
1, 294435, Note_off_c, 0, 45, 0
1, 294435, Note_off_c, 0, 33, 0
1, 294435, Note_off_c, 0, 71, 0
1, 294435, Note_off_c, 0, 83, 0
1, 294531, Note_off_c, 0, 59, 0
1, 294531, Note_off_c, 0, 71, 0
1, 294531, Note_on_c, 0, 71, 36
1, 294531, Note_on_c, 0, 33, 36
1, 294531, Note_on_c, 0, 45, 36
1, 294531, Note_on_c, 0, 90, 43
1, 294531, Note_on_c, 0, 64, 23
1, 294531, Note_on_c, 0, 59, 36
1, 294531, Note_on_c, 0, 31, 36
1, 294531, Note_on_c, 0, 33, 36
1, 294531, Note_on_c, 0, 78, 43
1, 294531, Note_on_c, 0, 52, 23
1, 294723, Note_off_c, 0, 52, 0
1, 294723, Note_off_c, 0, 33, 0
1, 294723, Note_off_c, 0, 31, 0
1, 294723, Note_off_c, 0, 59, 0
1, 294723, Note_off_c, 0, 64, 0
1, 294723, Note_off_c, 0, 45, 0
1, 294723, Note_off_c, 0, 33, 0
1, 294723, Note_off_c, 0, 71, 0
1, 294723, Note_on_c, 0, 71, 36
1, 294723, Note_on_c, 0, 33, 36
1, 294723, Note_on_c, 0, 45, 36
1, 294723, Note_on_c, 0, 69, 23
1, 294723, Note_on_c, 0, 59, 36
1, 294723, Note_on_c, 0, 31, 36
1, 294723, Note_on_c, 0, 33, 36
1, 294723, Note_on_c, 0, 57, 23
1, 294819, Note_off_c, 0, 78, 0
1, 294819, Note_off_c, 0, 90, 0
1, 294819, Note_off_c, 0, 66, 0
1, 294819, Note_off_c, 0, 78, 0
1, 294915, Note_off_c, 0, 57, 0
1, 294915, Note_off_c, 0, 33, 0
1, 294915, Note_off_c, 0, 31, 0
1, 294915, Note_off_c, 0, 59, 0
1, 294915, Note_off_c, 0, 69, 0
1, 294915, Note_off_c, 0, 45, 0
1, 294915, Note_off_c, 0, 33, 0
1, 294915, Note_off_c, 0, 71, 0
1, 294915, Note_on_c, 0, 71, 36
1, 294915, Note_on_c, 0, 32, 36
1, 294915, Note_on_c, 0, 44, 36
1, 294915, Note_on_c, 0, 78, 43
1, 294915, Note_on_c, 0, 85, 43
1, 294915, Note_on_c, 0, 56, 23
1, 294915, Note_on_c, 0, 59, 36
1, 294915, Note_on_c, 0, 30, 36
1, 294915, Note_on_c, 0, 32, 36
1, 294915, Note_on_c, 0, 66, 43
1, 294915, Note_on_c, 0, 73, 43
1, 294915, Note_on_c, 0, 44, 23
1, 295107, Note_off_c, 0, 59, 0
1, 295107, Note_off_c, 0, 71, 0
1, 295107, Note_on_c, 0, 71, 36
1, 295107, Note_on_c, 0, 59, 36
1, 295203, Note_off_c, 0, 44, 0
1, 295203, Note_off_c, 0, 32, 0
1, 295203, Note_off_c, 0, 30, 0
1, 295203, Note_off_c, 0, 56, 0
1, 295203, Note_off_c, 0, 44, 0
1, 295203, Note_off_c, 0, 32, 0
1, 295299, Note_off_c, 0, 59, 0
1, 295299, Note_off_c, 0, 71, 0
1, 295299, Note_on_c, 0, 71, 36
1, 295299, Note_on_c, 0, 32, 36
1, 295299, Note_on_c, 0, 44, 36
1, 295299, Note_on_c, 0, 64, 23
1, 295299, Note_on_c, 0, 59, 36
1, 295299, Note_on_c, 0, 30, 36
1, 295299, Note_on_c, 0, 32, 36
1, 295299, Note_on_c, 0, 52, 23
1, 295491, Note_off_c, 0, 52, 0
1, 295491, Note_off_c, 0, 59, 0
1, 295491, Note_off_c, 0, 64, 0
1, 295491, Note_off_c, 0, 71, 0
1, 295491, Note_on_c, 0, 71, 36
1, 295491, Note_on_c, 0, 68, 23
1, 295491, Note_on_c, 0, 59, 36
1, 295491, Note_on_c, 0, 56, 23
1, 295587, Note_off_c, 0, 32, 0
1, 295587, Note_off_c, 0, 30, 0
1, 295587, Note_off_c, 0, 44, 0
1, 295587, Note_off_c, 0, 32, 0
1, 295683, Note_off_c, 0, 56, 0
1, 295683, Note_off_c, 0, 59, 0
1, 295683, Note_off_c, 0, 68, 0
1, 295683, Note_off_c, 0, 71, 0
1, 295683, Note_on_c, 0, 71, 36
1, 295683, Note_on_c, 0, 32, 36
1, 295683, Note_on_c, 0, 44, 36
1, 295683, Note_on_c, 0, 56, 23
1, 295683, Note_on_c, 0, 59, 36
1, 295683, Note_on_c, 0, 30, 36
1, 295683, Note_on_c, 0, 32, 36
1, 295683, Note_on_c, 0, 44, 23
1, 295875, Note_off_c, 0, 59, 0
1, 295875, Note_off_c, 0, 71, 0
1, 295875, Note_on_c, 0, 71, 36
1, 295875, Note_on_c, 0, 59, 36
1, 295971, Note_off_c, 0, 44, 0
1, 295971, Note_off_c, 0, 32, 0
1, 295971, Note_off_c, 0, 30, 0
1, 295971, Note_off_c, 0, 56, 0
1, 295971, Note_off_c, 0, 44, 0
1, 295971, Note_off_c, 0, 32, 0
1, 296067, Note_off_c, 0, 59, 0
1, 296067, Note_off_c, 0, 71, 0
1, 296067, Note_on_c, 0, 71, 36
1, 296067, Note_on_c, 0, 32, 36
1, 296067, Note_on_c, 0, 44, 36
1, 296067, Note_on_c, 0, 64, 23
1, 296067, Note_on_c, 0, 59, 36
1, 296067, Note_on_c, 0, 30, 36
1, 296067, Note_on_c, 0, 32, 36
1, 296067, Note_on_c, 0, 52, 23
1, 296259, Note_off_c, 0, 52, 0
1, 296259, Note_off_c, 0, 59, 0
1, 296259, Note_off_c, 0, 64, 0
1, 296259, Note_off_c, 0, 71, 0
1, 296259, Note_on_c, 0, 71, 36
1, 296259, Note_on_c, 0, 68, 23
1, 296259, Note_on_c, 0, 59, 36
1, 296259, Note_on_c, 0, 56, 23
1, 296355, Note_off_c, 0, 32, 0
1, 296355, Note_off_c, 0, 30, 0
1, 296355, Note_off_c, 0, 44, 0
1, 296355, Note_off_c, 0, 32, 0
1, 296355, Note_off_c, 0, 73, 0
1, 296355, Note_off_c, 0, 66, 0
1, 296355, Note_off_c, 0, 85, 0
1, 296355, Note_off_c, 0, 78, 0
1, 296451, Note_off_c, 0, 56, 0
1, 296451, Note_off_c, 0, 59, 0
1, 296451, Note_off_c, 0, 68, 0
1, 296451, Note_off_c, 0, 71, 0
1, 296451, Note_on_c, 0, 71, 36
1, 296451, Note_on_c, 0, 32, 36
1, 296451, Note_on_c, 0, 44, 36
1, 296451, Note_on_c, 0, 85, 43
1, 296451, Note_on_c, 0, 78, 43
1, 296451, Note_on_c, 0, 56, 23
1, 296451, Note_on_c, 0, 59, 36
1, 296451, Note_on_c, 0, 30, 36
1, 296451, Note_on_c, 0, 32, 36
1, 296451, Note_on_c, 0, 73, 43
1, 296451, Note_on_c, 0, 66, 43
1, 296451, Note_on_c, 0, 44, 23
1, 296643, Note_off_c, 0, 59, 0
1, 296643, Note_off_c, 0, 71, 0
1, 296643, Note_on_c, 0, 71, 36
1, 296643, Note_on_c, 0, 59, 36
1, 296739, Note_off_c, 0, 44, 0
1, 296739, Note_off_c, 0, 32, 0
1, 296739, Note_off_c, 0, 30, 0
1, 296739, Note_off_c, 0, 56, 0
1, 296739, Note_off_c, 0, 44, 0
1, 296739, Note_off_c, 0, 32, 0
1, 296835, Note_off_c, 0, 59, 0
1, 296835, Note_off_c, 0, 71, 0
1, 296835, Note_on_c, 0, 71, 36
1, 296835, Note_on_c, 0, 32, 36
1, 296835, Note_on_c, 0, 44, 36
1, 296835, Note_on_c, 0, 64, 23
1, 296835, Note_on_c, 0, 59, 36
1, 296835, Note_on_c, 0, 30, 36
1, 296835, Note_on_c, 0, 32, 36
1, 296835, Note_on_c, 0, 52, 23
1, 296931, Note_off_c, 0, 73, 0
1, 296931, Note_off_c, 0, 85, 0
1, 297027, Note_off_c, 0, 52, 0
1, 297027, Note_off_c, 0, 59, 0
1, 297027, Note_off_c, 0, 64, 0
1, 297027, Note_off_c, 0, 71, 0
1, 297027, Note_on_c, 0, 71, 36
1, 297027, Note_on_c, 0, 83, 43
1, 297027, Note_on_c, 0, 68, 23
1, 297027, Note_on_c, 0, 59, 36
1, 297027, Note_on_c, 0, 71, 43
1, 297027, Note_on_c, 0, 56, 23
1, 297123, Note_off_c, 0, 32, 0
1, 297123, Note_off_c, 0, 30, 0
1, 297123, Note_off_c, 0, 44, 0
1, 297123, Note_off_c, 0, 32, 0
1, 297219, Note_off_c, 0, 56, 0
1, 297219, Note_off_c, 0, 59, 0
1, 297219, Note_off_c, 0, 68, 0
1, 297219, Note_off_c, 0, 71, 0
1, 297219, Note_on_c, 0, 71, 36
1, 297219, Note_on_c, 0, 32, 36
1, 297219, Note_on_c, 0, 44, 36
1, 297219, Note_on_c, 0, 56, 23
1, 297219, Note_on_c, 0, 59, 36
1, 297219, Note_on_c, 0, 30, 36
1, 297219, Note_on_c, 0, 32, 36
1, 297219, Note_on_c, 0, 44, 23
1, 297411, Note_off_c, 0, 59, 0
1, 297411, Note_off_c, 0, 71, 0
1, 297411, Note_on_c, 0, 71, 36
1, 297411, Note_on_c, 0, 59, 36
1, 297507, Note_off_c, 0, 44, 0
1, 297507, Note_off_c, 0, 32, 0
1, 297507, Note_off_c, 0, 30, 0
1, 297507, Note_off_c, 0, 56, 0
1, 297507, Note_off_c, 0, 44, 0
1, 297507, Note_off_c, 0, 32, 0
1, 297507, Note_off_c, 0, 71, 0
1, 297507, Note_off_c, 0, 83, 0
1, 297603, Note_off_c, 0, 59, 0
1, 297603, Note_off_c, 0, 71, 0
1, 297603, Note_on_c, 0, 71, 36
1, 297603, Note_on_c, 0, 32, 36
1, 297603, Note_on_c, 0, 44, 36
1, 297603, Note_on_c, 0, 90, 43
1, 297603, Note_on_c, 0, 64, 23
1, 297603, Note_on_c, 0, 59, 36
1, 297603, Note_on_c, 0, 30, 36
1, 297603, Note_on_c, 0, 32, 36
1, 297603, Note_on_c, 0, 78, 43
1, 297603, Note_on_c, 0, 52, 23
1, 297795, Note_off_c, 0, 52, 0
1, 297795, Note_off_c, 0, 32, 0
1, 297795, Note_off_c, 0, 30, 0
1, 297795, Note_off_c, 0, 59, 0
1, 297795, Note_off_c, 0, 64, 0
1, 297795, Note_off_c, 0, 44, 0
1, 297795, Note_off_c, 0, 32, 0
1, 297795, Note_off_c, 0, 71, 0
1, 297795, Note_on_c, 0, 71, 36
1, 297795, Note_on_c, 0, 32, 36
1, 297795, Note_on_c, 0, 44, 36
1, 297795, Note_on_c, 0, 68, 23
1, 297795, Note_on_c, 0, 59, 36
1, 297795, Note_on_c, 0, 30, 36
1, 297795, Note_on_c, 0, 32, 36
1, 297795, Note_on_c, 0, 56, 23
1, 297891, Note_off_c, 0, 78, 0
1, 297891, Note_off_c, 0, 90, 0
1, 297891, Note_off_c, 0, 66, 0
1, 297891, Note_off_c, 0, 78, 0
1, 297987, Note_off_c, 0, 56, 0
1, 297987, Note_off_c, 0, 32, 0
1, 297987, Note_off_c, 0, 30, 0
1, 297987, Note_off_c, 0, 59, 0
1, 297987, Note_off_c, 0, 68, 0
1, 297987, Note_off_c, 0, 44, 0
1, 297987, Note_off_c, 0, 32, 0
1, 297987, Note_off_c, 0, 71, 0
1, 297987, Note_on_c, 0, 71, 36
1, 297987, Note_on_c, 0, 31, 36
1, 297987, Note_on_c, 0, 43, 36
1, 297987, Note_on_c, 0, 85, 43
1, 297987, Note_on_c, 0, 55, 23
1, 297987, Note_on_c, 0, 59, 36
1, 297987, Note_on_c, 0, 29, 36
1, 297987, Note_on_c, 0, 31, 36
1, 297987, Note_on_c, 0, 73, 43
1, 297987, Note_on_c, 0, 43, 23
1, 298179, Note_off_c, 0, 59, 0
1, 298179, Note_off_c, 0, 71, 0
1, 298179, Note_on_c, 0, 71, 36
1, 298179, Note_on_c, 0, 59, 36
1, 298275, Note_off_c, 0, 43, 0
1, 298275, Note_off_c, 0, 31, 0
1, 298275, Note_off_c, 0, 29, 0
1, 298275, Note_off_c, 0, 55, 0
1, 298275, Note_off_c, 0, 43, 0
1, 298275, Note_off_c, 0, 31, 0
1, 298371, Note_off_c, 0, 59, 0
1, 298371, Note_off_c, 0, 71, 0
1, 298371, Note_on_c, 0, 71, 36
1, 298371, Note_on_c, 0, 31, 36
1, 298371, Note_on_c, 0, 43, 36
1, 298371, Note_on_c, 0, 62, 23
1, 298371, Note_on_c, 0, 59, 36
1, 298371, Note_on_c, 0, 29, 36
1, 298371, Note_on_c, 0, 31, 36
1, 298371, Note_on_c, 0, 50, 23
1, 298467, Note_off_c, 0, 73, 0
1, 298467, Note_off_c, 0, 85, 0
1, 298563, Note_off_c, 0, 50, 0
1, 298563, Note_off_c, 0, 31, 0
1, 298563, Note_off_c, 0, 29, 0
1, 298563, Note_off_c, 0, 59, 0
1, 298563, Note_off_c, 0, 62, 0
1, 298563, Note_off_c, 0, 43, 0
1, 298563, Note_off_c, 0, 31, 0
1, 298563, Note_off_c, 0, 71, 0
1, 298563, Note_on_c, 0, 71, 36
1, 298563, Note_on_c, 0, 31, 36
1, 298563, Note_on_c, 0, 43, 36
1, 298563, Note_on_c, 0, 83, 43
1, 298563, Note_on_c, 0, 67, 23
1, 298563, Note_on_c, 0, 59, 36
1, 298563, Note_on_c, 0, 29, 36
1, 298563, Note_on_c, 0, 31, 36
1, 298563, Note_on_c, 0, 71, 43
1, 298563, Note_on_c, 0, 55, 23
1, 298755, Note_off_c, 0, 55, 0
1, 298755, Note_off_c, 0, 59, 0
1, 298755, Note_off_c, 0, 67, 0
1, 298755, Note_off_c, 0, 71, 0
1, 298755, Note_on_c, 0, 71, 36
1, 298755, Note_on_c, 0, 55, 23
1, 298755, Note_on_c, 0, 59, 36
1, 298755, Note_on_c, 0, 43, 23
1, 298851, Note_off_c, 0, 31, 0
1, 298851, Note_off_c, 0, 29, 0
1, 298851, Note_off_c, 0, 43, 0
1, 298851, Note_off_c, 0, 31, 0
1, 298947, Note_off_c, 0, 59, 0
1, 298947, Note_off_c, 0, 71, 0
1, 298947, Note_on_c, 0, 71, 36
1, 298947, Note_on_c, 0, 31, 36
1, 298947, Note_on_c, 0, 43, 36
1, 298947, Note_on_c, 0, 59, 36
1, 298947, Note_on_c, 0, 29, 36
1, 298947, Note_on_c, 0, 31, 36
1, 299043, Note_off_c, 0, 43, 0
1, 299043, Note_off_c, 0, 55, 0
1, 299043, Note_off_c, 0, 71, 0
1, 299043, Note_off_c, 0, 83, 0
1, 299139, Note_off_c, 0, 31, 0
1, 299139, Note_off_c, 0, 29, 0
1, 299139, Note_off_c, 0, 59, 0
1, 299139, Note_off_c, 0, 43, 0
1, 299139, Note_off_c, 0, 31, 0
1, 299139, Note_off_c, 0, 71, 0
1, 299139, Note_on_c, 0, 71, 36
1, 299139, Note_on_c, 0, 31, 36
1, 299139, Note_on_c, 0, 43, 36
1, 299139, Note_on_c, 0, 85, 43
1, 299139, Note_on_c, 0, 62, 23
1, 299139, Note_on_c, 0, 59, 36
1, 299139, Note_on_c, 0, 29, 36
1, 299139, Note_on_c, 0, 31, 36
1, 299139, Note_on_c, 0, 73, 43
1, 299139, Note_on_c, 0, 50, 23
1, 299331, Note_off_c, 0, 50, 0
1, 299331, Note_off_c, 0, 59, 0
1, 299331, Note_off_c, 0, 62, 0
1, 299331, Note_off_c, 0, 71, 0
1, 299331, Note_on_c, 0, 71, 36
1, 299331, Note_on_c, 0, 67, 23
1, 299331, Note_on_c, 0, 59, 36
1, 299331, Note_on_c, 0, 55, 23
1, 299427, Note_off_c, 0, 73, 0
1, 299427, Note_off_c, 0, 31, 0
1, 299427, Note_off_c, 0, 29, 0
1, 299427, Note_off_c, 0, 85, 0
1, 299427, Note_off_c, 0, 43, 0
1, 299427, Note_off_c, 0, 31, 0
1, 299523, Note_off_c, 0, 55, 0
1, 299523, Note_off_c, 0, 59, 0
1, 299523, Note_off_c, 0, 67, 0
1, 299523, Note_off_c, 0, 71, 0
1, 299523, Note_on_c, 0, 71, 36
1, 299523, Note_on_c, 0, 33, 36
1, 299523, Note_on_c, 0, 45, 36
1, 299523, Note_on_c, 0, 86, 43
1, 299523, Note_on_c, 0, 57, 23
1, 299523, Note_on_c, 0, 59, 36
1, 299523, Note_on_c, 0, 31, 36
1, 299523, Note_on_c, 0, 33, 36
1, 299523, Note_on_c, 0, 74, 43
1, 299523, Note_on_c, 0, 45, 23
1, 299715, Note_off_c, 0, 33, 0
1, 299715, Note_off_c, 0, 31, 0
1, 299715, Note_off_c, 0, 59, 0
1, 299715, Note_off_c, 0, 45, 0
1, 299715, Note_off_c, 0, 33, 0
1, 299715, Note_off_c, 0, 71, 0
1, 299715, Note_on_c, 0, 71, 36
1, 299715, Note_on_c, 0, 33, 36
1, 299715, Note_on_c, 0, 45, 36
1, 299715, Note_on_c, 0, 59, 36
1, 299715, Note_on_c, 0, 31, 36
1, 299715, Note_on_c, 0, 33, 36
1, 299811, Note_off_c, 0, 45, 0
1, 299811, Note_off_c, 0, 74, 0
1, 299811, Note_off_c, 0, 57, 0
1, 299811, Note_off_c, 0, 86, 0
1, 299907, Note_off_c, 0, 33, 0
1, 299907, Note_off_c, 0, 31, 0
1, 299907, Note_off_c, 0, 59, 0
1, 299907, Note_off_c, 0, 45, 0
1, 299907, Note_off_c, 0, 33, 0
1, 299907, Note_off_c, 0, 71, 0
1, 299907, Note_on_c, 0, 71, 36
1, 299907, Note_on_c, 0, 33, 36
1, 299907, Note_on_c, 0, 45, 36
1, 299907, Note_on_c, 0, 85, 43
1, 299907, Note_on_c, 0, 64, 23
1, 299907, Note_on_c, 0, 59, 36
1, 299907, Note_on_c, 0, 31, 36
1, 299907, Note_on_c, 0, 33, 36
1, 299907, Note_on_c, 0, 73, 43
1, 299907, Note_on_c, 0, 52, 23
1, 300099, Note_off_c, 0, 52, 0
1, 300099, Note_off_c, 0, 59, 0
1, 300099, Note_off_c, 0, 64, 0
1, 300099, Note_off_c, 0, 71, 0
1, 300099, Note_on_c, 0, 71, 36
1, 300099, Note_on_c, 0, 69, 23
1, 300099, Note_on_c, 0, 59, 36
1, 300099, Note_on_c, 0, 57, 23
1, 300195, Note_off_c, 0, 73, 0
1, 300195, Note_off_c, 0, 33, 0
1, 300195, Note_off_c, 0, 31, 0
1, 300195, Note_off_c, 0, 85, 0
1, 300195, Note_off_c, 0, 45, 0
1, 300195, Note_off_c, 0, 33, 0
1, 300291, Note_off_c, 0, 57, 0
1, 300291, Note_off_c, 0, 59, 0
1, 300291, Note_off_c, 0, 69, 0
1, 300291, Note_off_c, 0, 71, 0
1, 300291, Note_on_c, 0, 71, 36
1, 300291, Note_on_c, 0, 33, 36
1, 300291, Note_on_c, 0, 45, 36
1, 300291, Note_on_c, 0, 86, 43
1, 300291, Note_on_c, 0, 57, 23
1, 300291, Note_on_c, 0, 59, 36
1, 300291, Note_on_c, 0, 31, 36
1, 300291, Note_on_c, 0, 33, 36
1, 300291, Note_on_c, 0, 74, 43
1, 300291, Note_on_c, 0, 45, 23
1, 300387, Note_off_c, 0, 33, 0
1, 300387, Note_off_c, 0, 31, 0
1, 300387, Note_off_c, 0, 45, 0
1, 300387, Note_off_c, 0, 33, 0
1, 300387, Note_on_c, 0, 33, 36
1, 300387, Note_on_c, 0, 45, 36
1, 300387, Note_on_c, 0, 31, 36
1, 300387, Note_on_c, 0, 33, 36
1, 300483, Note_off_c, 0, 33, 0
1, 300483, Note_off_c, 0, 31, 0
1, 300483, Note_off_c, 0, 45, 0
1, 300483, Note_off_c, 0, 33, 0
1, 300483, Note_off_c, 0, 59, 0
1, 300483, Note_off_c, 0, 71, 0
1, 300483, Note_on_c, 0, 71, 36
1, 300483, Note_on_c, 0, 33, 36
1, 300483, Note_on_c, 0, 45, 36
1, 300483, Note_on_c, 0, 59, 36
1, 300483, Note_on_c, 0, 31, 36
1, 300483, Note_on_c, 0, 33, 36
1, 300579, Note_off_c, 0, 33, 0
1, 300579, Note_off_c, 0, 31, 0
1, 300579, Note_off_c, 0, 45, 0
1, 300579, Note_off_c, 0, 33, 0
1, 300579, Note_off_c, 0, 45, 0
1, 300579, Note_off_c, 0, 74, 0
1, 300579, Note_off_c, 0, 57, 0
1, 300579, Note_off_c, 0, 86, 0
1, 300579, Note_on_c, 0, 33, 36
1, 300579, Note_on_c, 0, 45, 36
1, 300579, Note_on_c, 0, 31, 36
1, 300579, Note_on_c, 0, 33, 36
1, 300675, Note_off_c, 0, 33, 0
1, 300675, Note_off_c, 0, 31, 0
1, 300675, Note_off_c, 0, 45, 0
1, 300675, Note_off_c, 0, 33, 0
1, 300675, Note_off_c, 0, 59, 0
1, 300675, Note_off_c, 0, 71, 0
1, 300675, Note_on_c, 0, 71, 36
1, 300675, Note_on_c, 0, 33, 36
1, 300675, Note_on_c, 0, 45, 36
1, 300675, Note_on_c, 0, 85, 43
1, 300675, Note_on_c, 0, 64, 23
1, 300675, Note_on_c, 0, 59, 36
1, 300675, Note_on_c, 0, 31, 36
1, 300675, Note_on_c, 0, 33, 36
1, 300675, Note_on_c, 0, 73, 43
1, 300675, Note_on_c, 0, 52, 23
1, 300771, Note_off_c, 0, 33, 0
1, 300771, Note_off_c, 0, 31, 0
1, 300771, Note_off_c, 0, 45, 0
1, 300771, Note_off_c, 0, 33, 0
1, 300771, Note_on_c, 0, 33, 36
1, 300771, Note_on_c, 0, 45, 36
1, 300771, Note_on_c, 0, 31, 36
1, 300771, Note_on_c, 0, 33, 36
1, 300867, Note_off_c, 0, 33, 0
1, 300867, Note_off_c, 0, 31, 0
1, 300867, Note_off_c, 0, 45, 0
1, 300867, Note_off_c, 0, 33, 0
1, 300867, Note_off_c, 0, 52, 0
1, 300867, Note_off_c, 0, 59, 0
1, 300867, Note_off_c, 0, 64, 0
1, 300867, Note_off_c, 0, 71, 0
1, 300867, Note_on_c, 0, 71, 36
1, 300867, Note_on_c, 0, 33, 36
1, 300867, Note_on_c, 0, 45, 36
1, 300867, Note_on_c, 0, 69, 23
1, 300867, Note_on_c, 0, 59, 36
1, 300867, Note_on_c, 0, 31, 36
1, 300867, Note_on_c, 0, 33, 36
1, 300867, Note_on_c, 0, 57, 23
1, 300963, Note_off_c, 0, 33, 0
1, 300963, Note_off_c, 0, 31, 0
1, 300963, Note_off_c, 0, 45, 0
1, 300963, Note_off_c, 0, 33, 0
1, 300963, Note_off_c, 0, 73, 0
1, 300963, Note_off_c, 0, 85, 0
1, 300963, Note_on_c, 0, 33, 36
1, 300963, Note_on_c, 0, 45, 36
1, 300963, Note_on_c, 0, 31, 36
1, 300963, Note_on_c, 0, 33, 36
1, 301059, Note_off_c, 0, 33, 0
1, 301059, Note_off_c, 0, 31, 0
1, 301059, Note_off_c, 0, 45, 0
1, 301059, Note_off_c, 0, 33, 0
1, 301059, Note_off_c, 0, 57, 0
1, 301059, Note_off_c, 0, 59, 0
1, 301059, Note_off_c, 0, 69, 0
1, 301059, Note_off_c, 0, 71, 0
1, 301059, Note_on_c, 0, 71, 36
1, 301059, Note_on_c, 0, 35, 36
1, 301059, Note_on_c, 0, 47, 36
1, 301059, Note_on_c, 0, 78, 43
1, 301059, Note_on_c, 0, 85, 43
1, 301059, Note_on_c, 0, 59, 23
1, 301059, Note_on_c, 0, 59, 36
1, 301059, Note_on_c, 0, 24, 36
1, 301059, Note_on_c, 0, 35, 36
1, 301059, Note_on_c, 0, 66, 43
1, 301059, Note_on_c, 0, 73, 43
1, 301059, Note_on_c, 0, 47, 23
1, 301251, Note_off_c, 0, 59, 0
1, 301251, Note_off_c, 0, 71, 0
1, 301251, Note_on_c, 0, 71, 36
1, 301251, Note_on_c, 0, 59, 36
1, 301347, Note_off_c, 0, 47, 0
1, 301347, Note_off_c, 0, 35, 0
1, 301347, Note_off_c, 0, 24, 0
1, 301347, Note_off_c, 0, 59, 0
1, 301347, Note_off_c, 0, 47, 0
1, 301347, Note_off_c, 0, 35, 0
1, 301443, Note_off_c, 0, 59, 0
1, 301443, Note_off_c, 0, 71, 0
1, 301443, Note_on_c, 0, 71, 36
1, 301443, Note_on_c, 0, 35, 36
1, 301443, Note_on_c, 0, 47, 36
1, 301443, Note_on_c, 0, 66, 23
1, 301443, Note_on_c, 0, 59, 36
1, 301443, Note_on_c, 0, 24, 36
1, 301443, Note_on_c, 0, 35, 36
1, 301443, Note_on_c, 0, 54, 23
1, 301635, Note_off_c, 0, 54, 0
1, 301635, Note_off_c, 0, 59, 0
1, 301635, Note_off_c, 0, 66, 0
1, 301635, Note_off_c, 0, 71, 0
1, 301635, Note_on_c, 0, 71, 36
1, 301635, Note_on_c, 0, 71, 23
1, 301635, Note_on_c, 0, 59, 36
1, 301635, Note_on_c, 0, 59, 23
1, 301731, Note_off_c, 0, 35, 0
1, 301731, Note_off_c, 0, 24, 0
1, 301731, Note_off_c, 0, 47, 0
1, 301731, Note_off_c, 0, 35, 0
1, 301827, Note_off_c, 0, 59, 0
1, 301827, Note_off_c, 0, 59, 0
1, 301827, Note_off_c, 0, 71, 0
1, 301827, Note_off_c, 0, 71, 0
1, 301827, Note_on_c, 0, 71, 36
1, 301827, Note_on_c, 0, 35, 36
1, 301827, Note_on_c, 0, 47, 36
1, 301827, Note_on_c, 0, 59, 23
1, 301827, Note_on_c, 0, 59, 36
1, 301827, Note_on_c, 0, 24, 36
1, 301827, Note_on_c, 0, 35, 36
1, 301827, Note_on_c, 0, 47, 23
1, 302019, Note_off_c, 0, 59, 0
1, 302019, Note_off_c, 0, 71, 0
1, 302019, Note_on_c, 0, 71, 36
1, 302019, Note_on_c, 0, 59, 36
1, 302115, Note_off_c, 0, 47, 0
1, 302115, Note_off_c, 0, 35, 0
1, 302115, Note_off_c, 0, 24, 0
1, 302115, Note_off_c, 0, 59, 0
1, 302115, Note_off_c, 0, 47, 0
1, 302115, Note_off_c, 0, 35, 0
1, 302211, Note_off_c, 0, 59, 0
1, 302211, Note_off_c, 0, 71, 0
1, 302211, Note_on_c, 0, 71, 36
1, 302211, Note_on_c, 0, 35, 36
1, 302211, Note_on_c, 0, 47, 36
1, 302211, Note_on_c, 0, 66, 23
1, 302211, Note_on_c, 0, 59, 36
1, 302211, Note_on_c, 0, 24, 36
1, 302211, Note_on_c, 0, 35, 36
1, 302211, Note_on_c, 0, 54, 23
1, 302403, Note_off_c, 0, 54, 0
1, 302403, Note_off_c, 0, 59, 0
1, 302403, Note_off_c, 0, 66, 0
1, 302403, Note_off_c, 0, 71, 0
1, 302403, Note_on_c, 0, 71, 36
1, 302403, Note_on_c, 0, 71, 23
1, 302403, Note_on_c, 0, 59, 36
1, 302403, Note_on_c, 0, 59, 23
1, 302499, Note_off_c, 0, 35, 0
1, 302499, Note_off_c, 0, 24, 0
1, 302499, Note_off_c, 0, 47, 0
1, 302499, Note_off_c, 0, 35, 0
1, 302499, Note_off_c, 0, 73, 0
1, 302499, Note_off_c, 0, 66, 0
1, 302499, Note_off_c, 0, 85, 0
1, 302499, Note_off_c, 0, 78, 0
1, 302595, Note_off_c, 0, 59, 0
1, 302595, Note_off_c, 0, 59, 0
1, 302595, Note_off_c, 0, 71, 0
1, 302595, Note_off_c, 0, 71, 0
1, 302595, Note_on_c, 0, 71, 36
1, 302595, Note_on_c, 0, 35, 36
1, 302595, Note_on_c, 0, 47, 36
1, 302595, Note_on_c, 0, 85, 43
1, 302595, Note_on_c, 0, 78, 43
1, 302595, Note_on_c, 0, 59, 23
1, 302595, Note_on_c, 0, 59, 36
1, 302595, Note_on_c, 0, 24, 36
1, 302595, Note_on_c, 0, 35, 36
1, 302595, Note_on_c, 0, 73, 43
1, 302595, Note_on_c, 0, 66, 43
1, 302595, Note_on_c, 0, 47, 23
1, 302787, Note_off_c, 0, 59, 0
1, 302787, Note_off_c, 0, 71, 0
1, 302787, Note_on_c, 0, 71, 36
1, 302787, Note_on_c, 0, 59, 36
1, 302883, Note_off_c, 0, 47, 0
1, 302883, Note_off_c, 0, 35, 0
1, 302883, Note_off_c, 0, 24, 0
1, 302883, Note_off_c, 0, 59, 0
1, 302883, Note_off_c, 0, 47, 0
1, 302883, Note_off_c, 0, 35, 0
1, 302979, Note_off_c, 0, 59, 0
1, 302979, Note_off_c, 0, 71, 0
1, 302979, Note_on_c, 0, 71, 36
1, 302979, Note_on_c, 0, 35, 36
1, 302979, Note_on_c, 0, 47, 36
1, 302979, Note_on_c, 0, 66, 23
1, 302979, Note_on_c, 0, 59, 36
1, 302979, Note_on_c, 0, 24, 36
1, 302979, Note_on_c, 0, 35, 36
1, 302979, Note_on_c, 0, 54, 23
1, 303075, Note_off_c, 0, 73, 0
1, 303075, Note_off_c, 0, 85, 0
1, 303171, Note_off_c, 0, 54, 0
1, 303171, Note_off_c, 0, 59, 0
1, 303171, Note_off_c, 0, 66, 0
1, 303171, Note_off_c, 0, 71, 0
1, 303171, Note_on_c, 0, 71, 36
1, 303171, Note_on_c, 0, 83, 43
1, 303171, Note_on_c, 0, 71, 23
1, 303171, Note_on_c, 0, 59, 36
1, 303171, Note_on_c, 0, 71, 43
1, 303171, Note_on_c, 0, 59, 23
1, 303267, Note_off_c, 0, 35, 0
1, 303267, Note_off_c, 0, 24, 0
1, 303267, Note_off_c, 0, 47, 0
1, 303267, Note_off_c, 0, 35, 0
1, 303363, Note_off_c, 0, 59, 0
1, 303363, Note_off_c, 0, 59, 0
1, 303363, Note_off_c, 0, 71, 0
1, 303363, Note_off_c, 0, 71, 0
1, 303363, Note_on_c, 0, 71, 36
1, 303363, Note_on_c, 0, 35, 36
1, 303363, Note_on_c, 0, 47, 36
1, 303363, Note_on_c, 0, 59, 23
1, 303363, Note_on_c, 0, 59, 36
1, 303363, Note_on_c, 0, 24, 36
1, 303363, Note_on_c, 0, 35, 36
1, 303363, Note_on_c, 0, 47, 23
1, 303555, Note_off_c, 0, 59, 0
1, 303555, Note_off_c, 0, 71, 0
1, 303555, Note_on_c, 0, 71, 36
1, 303555, Note_on_c, 0, 59, 36
1, 303651, Note_off_c, 0, 47, 0
1, 303651, Note_off_c, 0, 35, 0
1, 303651, Note_off_c, 0, 24, 0
1, 303651, Note_off_c, 0, 59, 0
1, 303651, Note_off_c, 0, 47, 0
1, 303651, Note_off_c, 0, 35, 0
1, 303651, Note_off_c, 0, 71, 0
1, 303651, Note_off_c, 0, 83, 0
1, 303747, Note_off_c, 0, 59, 0
1, 303747, Note_off_c, 0, 71, 0
1, 303747, Note_on_c, 0, 71, 36
1, 303747, Note_on_c, 0, 35, 36
1, 303747, Note_on_c, 0, 47, 36
1, 303747, Note_on_c, 0, 90, 43
1, 303747, Note_on_c, 0, 66, 23
1, 303747, Note_on_c, 0, 59, 36
1, 303747, Note_on_c, 0, 24, 36
1, 303747, Note_on_c, 0, 35, 36
1, 303747, Note_on_c, 0, 78, 43
1, 303747, Note_on_c, 0, 54, 23
1, 303939, Note_off_c, 0, 54, 0
1, 303939, Note_off_c, 0, 35, 0
1, 303939, Note_off_c, 0, 24, 0
1, 303939, Note_off_c, 0, 59, 0
1, 303939, Note_off_c, 0, 66, 0
1, 303939, Note_off_c, 0, 47, 0
1, 303939, Note_off_c, 0, 35, 0
1, 303939, Note_off_c, 0, 71, 0
1, 303939, Note_on_c, 0, 71, 36
1, 303939, Note_on_c, 0, 35, 36
1, 303939, Note_on_c, 0, 47, 36
1, 303939, Note_on_c, 0, 71, 23
1, 303939, Note_on_c, 0, 59, 36
1, 303939, Note_on_c, 0, 24, 36
1, 303939, Note_on_c, 0, 35, 36
1, 303939, Note_on_c, 0, 59, 23
1, 304035, Note_off_c, 0, 78, 0
1, 304035, Note_off_c, 0, 90, 0
1, 304035, Note_off_c, 0, 66, 0
1, 304035, Note_off_c, 0, 78, 0
1, 304131, Note_off_c, 0, 59, 0
1, 304131, Note_off_c, 0, 35, 0
1, 304131, Note_off_c, 0, 24, 0
1, 304131, Note_off_c, 0, 59, 0
1, 304131, Note_off_c, 0, 71, 0
1, 304131, Note_off_c, 0, 47, 0
1, 304131, Note_off_c, 0, 35, 0
1, 304131, Note_off_c, 0, 71, 0
1, 304131, Note_on_c, 0, 71, 36
1, 304131, Note_on_c, 0, 33, 36
1, 304131, Note_on_c, 0, 45, 36
1, 304131, Note_on_c, 0, 78, 43
1, 304131, Note_on_c, 0, 85, 43
1, 304131, Note_on_c, 0, 57, 23
1, 304131, Note_on_c, 0, 59, 36
1, 304131, Note_on_c, 0, 31, 36
1, 304131, Note_on_c, 0, 33, 36
1, 304131, Note_on_c, 0, 66, 43
1, 304131, Note_on_c, 0, 73, 43
1, 304131, Note_on_c, 0, 45, 23
1, 304323, Note_off_c, 0, 59, 0
1, 304323, Note_off_c, 0, 71, 0
1, 304323, Note_on_c, 0, 71, 36
1, 304323, Note_on_c, 0, 59, 36
1, 304419, Note_off_c, 0, 45, 0
1, 304419, Note_off_c, 0, 33, 0
1, 304419, Note_off_c, 0, 31, 0
1, 304419, Note_off_c, 0, 57, 0
1, 304419, Note_off_c, 0, 45, 0
1, 304419, Note_off_c, 0, 33, 0
1, 304515, Note_off_c, 0, 59, 0
1, 304515, Note_off_c, 0, 71, 0
1, 304515, Note_on_c, 0, 71, 36
1, 304515, Note_on_c, 0, 33, 36
1, 304515, Note_on_c, 0, 45, 36
1, 304515, Note_on_c, 0, 64, 23
1, 304515, Note_on_c, 0, 59, 36
1, 304515, Note_on_c, 0, 31, 36
1, 304515, Note_on_c, 0, 33, 36
1, 304515, Note_on_c, 0, 52, 23
1, 304707, Note_off_c, 0, 52, 0
1, 304707, Note_off_c, 0, 59, 0
1, 304707, Note_off_c, 0, 64, 0
1, 304707, Note_off_c, 0, 71, 0
1, 304707, Note_on_c, 0, 71, 36
1, 304707, Note_on_c, 0, 69, 23
1, 304707, Note_on_c, 0, 59, 36
1, 304707, Note_on_c, 0, 57, 23
1, 304803, Note_off_c, 0, 33, 0
1, 304803, Note_off_c, 0, 31, 0
1, 304803, Note_off_c, 0, 45, 0
1, 304803, Note_off_c, 0, 33, 0
1, 304899, Note_off_c, 0, 57, 0
1, 304899, Note_off_c, 0, 59, 0
1, 304899, Note_off_c, 0, 69, 0
1, 304899, Note_off_c, 0, 71, 0
1, 304899, Note_on_c, 0, 71, 36
1, 304899, Note_on_c, 0, 33, 36
1, 304899, Note_on_c, 0, 45, 36
1, 304899, Note_on_c, 0, 57, 23
1, 304899, Note_on_c, 0, 59, 36
1, 304899, Note_on_c, 0, 31, 36
1, 304899, Note_on_c, 0, 33, 36
1, 304899, Note_on_c, 0, 45, 23
1, 305091, Note_off_c, 0, 59, 0
1, 305091, Note_off_c, 0, 71, 0
1, 305091, Note_on_c, 0, 71, 36
1, 305091, Note_on_c, 0, 59, 36
1, 305187, Note_off_c, 0, 45, 0
1, 305187, Note_off_c, 0, 33, 0
1, 305187, Note_off_c, 0, 31, 0
1, 305187, Note_off_c, 0, 57, 0
1, 305187, Note_off_c, 0, 45, 0
1, 305187, Note_off_c, 0, 33, 0
1, 305283, Note_off_c, 0, 59, 0
1, 305283, Note_off_c, 0, 71, 0
1, 305283, Note_on_c, 0, 71, 36
1, 305283, Note_on_c, 0, 33, 36
1, 305283, Note_on_c, 0, 45, 36
1, 305283, Note_on_c, 0, 64, 23
1, 305283, Note_on_c, 0, 59, 36
1, 305283, Note_on_c, 0, 31, 36
1, 305283, Note_on_c, 0, 33, 36
1, 305283, Note_on_c, 0, 52, 23
1, 305475, Note_off_c, 0, 52, 0
1, 305475, Note_off_c, 0, 59, 0
1, 305475, Note_off_c, 0, 64, 0
1, 305475, Note_off_c, 0, 71, 0
1, 305475, Note_on_c, 0, 71, 36
1, 305475, Note_on_c, 0, 69, 23
1, 305475, Note_on_c, 0, 59, 36
1, 305475, Note_on_c, 0, 57, 23
1, 305571, Note_off_c, 0, 33, 0
1, 305571, Note_off_c, 0, 31, 0
1, 305571, Note_off_c, 0, 45, 0
1, 305571, Note_off_c, 0, 33, 0
1, 305571, Note_off_c, 0, 73, 0
1, 305571, Note_off_c, 0, 66, 0
1, 305571, Note_off_c, 0, 85, 0
1, 305571, Note_off_c, 0, 78, 0
1, 305667, Note_off_c, 0, 57, 0
1, 305667, Note_off_c, 0, 59, 0
1, 305667, Note_off_c, 0, 69, 0
1, 305667, Note_off_c, 0, 71, 0
1, 305667, Note_on_c, 0, 71, 36
1, 305667, Note_on_c, 0, 33, 36
1, 305667, Note_on_c, 0, 45, 36
1, 305667, Note_on_c, 0, 85, 43
1, 305667, Note_on_c, 0, 78, 43
1, 305667, Note_on_c, 0, 57, 23
1, 305667, Note_on_c, 0, 59, 36
1, 305667, Note_on_c, 0, 31, 36
1, 305667, Note_on_c, 0, 33, 36
1, 305667, Note_on_c, 0, 73, 43
1, 305667, Note_on_c, 0, 66, 43
1, 305667, Note_on_c, 0, 45, 23
1, 305859, Note_off_c, 0, 59, 0
1, 305859, Note_off_c, 0, 71, 0
1, 305859, Note_on_c, 0, 71, 36
1, 305859, Note_on_c, 0, 59, 36
1, 305955, Note_off_c, 0, 45, 0
1, 305955, Note_off_c, 0, 33, 0
1, 305955, Note_off_c, 0, 31, 0
1, 305955, Note_off_c, 0, 57, 0
1, 305955, Note_off_c, 0, 45, 0
1, 305955, Note_off_c, 0, 33, 0
1, 306051, Note_off_c, 0, 59, 0
1, 306051, Note_off_c, 0, 71, 0
1, 306051, Note_on_c, 0, 71, 36
1, 306051, Note_on_c, 0, 33, 36
1, 306051, Note_on_c, 0, 45, 36
1, 306051, Note_on_c, 0, 64, 23
1, 306051, Note_on_c, 0, 59, 36
1, 306051, Note_on_c, 0, 31, 36
1, 306051, Note_on_c, 0, 33, 36
1, 306051, Note_on_c, 0, 52, 23
1, 306147, Note_off_c, 0, 73, 0
1, 306147, Note_off_c, 0, 85, 0
1, 306243, Note_off_c, 0, 52, 0
1, 306243, Note_off_c, 0, 59, 0
1, 306243, Note_off_c, 0, 64, 0
1, 306243, Note_off_c, 0, 71, 0
1, 306243, Note_on_c, 0, 71, 36
1, 306243, Note_on_c, 0, 83, 43
1, 306243, Note_on_c, 0, 69, 23
1, 306243, Note_on_c, 0, 59, 36
1, 306243, Note_on_c, 0, 71, 43
1, 306243, Note_on_c, 0, 57, 23
1, 306339, Note_off_c, 0, 33, 0
1, 306339, Note_off_c, 0, 31, 0
1, 306339, Note_off_c, 0, 45, 0
1, 306339, Note_off_c, 0, 33, 0
1, 306435, Note_off_c, 0, 57, 0
1, 306435, Note_off_c, 0, 59, 0
1, 306435, Note_off_c, 0, 69, 0
1, 306435, Note_off_c, 0, 71, 0
1, 306435, Note_on_c, 0, 71, 36
1, 306435, Note_on_c, 0, 33, 36
1, 306435, Note_on_c, 0, 45, 36
1, 306435, Note_on_c, 0, 57, 23
1, 306435, Note_on_c, 0, 59, 36
1, 306435, Note_on_c, 0, 31, 36
1, 306435, Note_on_c, 0, 33, 36
1, 306435, Note_on_c, 0, 45, 23
1, 306627, Note_off_c, 0, 59, 0
1, 306627, Note_off_c, 0, 71, 0
1, 306627, Note_on_c, 0, 71, 36
1, 306627, Note_on_c, 0, 59, 36
1, 306723, Note_off_c, 0, 45, 0
1, 306723, Note_off_c, 0, 33, 0
1, 306723, Note_off_c, 0, 31, 0
1, 306723, Note_off_c, 0, 57, 0
1, 306723, Note_off_c, 0, 45, 0
1, 306723, Note_off_c, 0, 33, 0
1, 306723, Note_off_c, 0, 71, 0
1, 306723, Note_off_c, 0, 83, 0
1, 306819, Note_off_c, 0, 59, 0
1, 306819, Note_off_c, 0, 71, 0
1, 306819, Note_on_c, 0, 71, 36
1, 306819, Note_on_c, 0, 33, 36
1, 306819, Note_on_c, 0, 45, 36
1, 306819, Note_on_c, 0, 90, 43
1, 306819, Note_on_c, 0, 64, 23
1, 306819, Note_on_c, 0, 59, 36
1, 306819, Note_on_c, 0, 31, 36
1, 306819, Note_on_c, 0, 33, 36
1, 306819, Note_on_c, 0, 78, 43
1, 306819, Note_on_c, 0, 52, 23
1, 307011, Note_off_c, 0, 52, 0
1, 307011, Note_off_c, 0, 33, 0
1, 307011, Note_off_c, 0, 31, 0
1, 307011, Note_off_c, 0, 59, 0
1, 307011, Note_off_c, 0, 64, 0
1, 307011, Note_off_c, 0, 45, 0
1, 307011, Note_off_c, 0, 33, 0
1, 307011, Note_off_c, 0, 71, 0
1, 307011, Note_on_c, 0, 71, 36
1, 307011, Note_on_c, 0, 33, 36
1, 307011, Note_on_c, 0, 45, 36
1, 307011, Note_on_c, 0, 69, 23
1, 307011, Note_on_c, 0, 59, 36
1, 307011, Note_on_c, 0, 31, 36
1, 307011, Note_on_c, 0, 33, 36
1, 307011, Note_on_c, 0, 57, 23
1, 307107, Note_off_c, 0, 78, 0
1, 307107, Note_off_c, 0, 90, 0
1, 307107, Note_off_c, 0, 66, 0
1, 307107, Note_off_c, 0, 78, 0
1, 307203, Note_off_c, 0, 57, 0
1, 307203, Note_off_c, 0, 33, 0
1, 307203, Note_off_c, 0, 31, 0
1, 307203, Note_off_c, 0, 59, 0
1, 307203, Note_off_c, 0, 69, 0
1, 307203, Note_off_c, 0, 45, 0
1, 307203, Note_off_c, 0, 33, 0
1, 307203, Note_off_c, 0, 71, 0
1, 307203, Note_on_c, 0, 71, 36
1, 307203, Note_on_c, 0, 32, 36
1, 307203, Note_on_c, 0, 44, 36
1, 307203, Note_on_c, 0, 85, 43
1, 307203, Note_on_c, 0, 78, 43
1, 307203, Note_on_c, 0, 56, 23
1, 307203, Note_on_c, 0, 59, 36
1, 307203, Note_on_c, 0, 30, 36
1, 307203, Note_on_c, 0, 32, 36
1, 307203, Note_on_c, 0, 73, 43
1, 307203, Note_on_c, 0, 66, 43
1, 307203, Note_on_c, 0, 44, 23
1, 307395, Note_off_c, 0, 59, 0
1, 307395, Note_off_c, 0, 71, 0
1, 307395, Note_on_c, 0, 71, 36
1, 307395, Note_on_c, 0, 59, 36
1, 307491, Note_off_c, 0, 44, 0
1, 307491, Note_off_c, 0, 32, 0
1, 307491, Note_off_c, 0, 30, 0
1, 307491, Note_off_c, 0, 56, 0
1, 307491, Note_off_c, 0, 44, 0
1, 307491, Note_off_c, 0, 32, 0
1, 307587, Note_off_c, 0, 59, 0
1, 307587, Note_off_c, 0, 71, 0
1, 307587, Note_on_c, 0, 71, 36
1, 307587, Note_on_c, 0, 32, 36
1, 307587, Note_on_c, 0, 44, 36
1, 307587, Note_on_c, 0, 64, 23
1, 307587, Note_on_c, 0, 59, 36
1, 307587, Note_on_c, 0, 30, 36
1, 307587, Note_on_c, 0, 32, 36
1, 307587, Note_on_c, 0, 52, 23
1, 307683, Note_off_c, 0, 73, 0
1, 307683, Note_off_c, 0, 85, 0
1, 307779, Note_off_c, 0, 52, 0
1, 307779, Note_off_c, 0, 59, 0
1, 307779, Note_off_c, 0, 64, 0
1, 307779, Note_off_c, 0, 71, 0
1, 307779, Note_on_c, 0, 71, 36
1, 307779, Note_on_c, 0, 90, 43
1, 307779, Note_on_c, 0, 68, 23
1, 307779, Note_on_c, 0, 59, 36
1, 307779, Note_on_c, 0, 78, 43
1, 307779, Note_on_c, 0, 56, 23
1, 307875, Note_off_c, 0, 32, 0
1, 307875, Note_off_c, 0, 30, 0
1, 307875, Note_off_c, 0, 44, 0
1, 307875, Note_off_c, 0, 32, 0
1, 307971, Note_off_c, 0, 56, 0
1, 307971, Note_off_c, 0, 59, 0
1, 307971, Note_off_c, 0, 68, 0
1, 307971, Note_off_c, 0, 71, 0
1, 307971, Note_on_c, 0, 71, 36
1, 307971, Note_on_c, 0, 32, 36
1, 307971, Note_on_c, 0, 44, 36
1, 307971, Note_on_c, 0, 56, 23
1, 307971, Note_on_c, 0, 59, 36
1, 307971, Note_on_c, 0, 30, 36
1, 307971, Note_on_c, 0, 32, 36
1, 307971, Note_on_c, 0, 44, 23
1, 308163, Note_off_c, 0, 59, 0
1, 308163, Note_off_c, 0, 71, 0
1, 308163, Note_on_c, 0, 71, 36
1, 308163, Note_on_c, 0, 59, 36
1, 308259, Note_off_c, 0, 44, 0
1, 308259, Note_off_c, 0, 32, 0
1, 308259, Note_off_c, 0, 30, 0
1, 308259, Note_off_c, 0, 56, 0
1, 308259, Note_off_c, 0, 44, 0
1, 308259, Note_off_c, 0, 32, 0
1, 308259, Note_off_c, 0, 78, 0
1, 308259, Note_off_c, 0, 90, 0
1, 308355, Note_off_c, 0, 59, 0
1, 308355, Note_off_c, 0, 71, 0
1, 308355, Note_on_c, 0, 71, 36
1, 308355, Note_on_c, 0, 32, 36
1, 308355, Note_on_c, 0, 44, 36
1, 308355, Note_on_c, 0, 90, 43
1, 308355, Note_on_c, 0, 64, 23
1, 308355, Note_on_c, 0, 59, 36
1, 308355, Note_on_c, 0, 30, 36
1, 308355, Note_on_c, 0, 32, 36
1, 308355, Note_on_c, 0, 78, 43
1, 308355, Note_on_c, 0, 52, 23
1, 308547, Note_off_c, 0, 52, 0
1, 308547, Note_off_c, 0, 59, 0
1, 308547, Note_off_c, 0, 64, 0
1, 308547, Note_off_c, 0, 71, 0
1, 308547, Note_on_c, 0, 71, 36
1, 308547, Note_on_c, 0, 68, 23
1, 308547, Note_on_c, 0, 59, 36
1, 308547, Note_on_c, 0, 56, 23
1, 308643, Note_off_c, 0, 78, 0
1, 308643, Note_off_c, 0, 32, 0
1, 308643, Note_off_c, 0, 30, 0
1, 308643, Note_off_c, 0, 90, 0
1, 308643, Note_off_c, 0, 44, 0
1, 308643, Note_off_c, 0, 32, 0
1, 308643, Note_off_c, 0, 66, 0
1, 308643, Note_off_c, 0, 78, 0
1, 308739, Note_off_c, 0, 56, 0
1, 308739, Note_off_c, 0, 59, 0
1, 308739, Note_off_c, 0, 68, 0
1, 308739, Note_off_c, 0, 71, 0
1, 308739, Note_on_c, 0, 71, 36
1, 308739, Note_on_c, 0, 32, 36
1, 308739, Note_on_c, 0, 44, 36
1, 308739, Note_on_c, 0, 90, 43
1, 308739, Note_on_c, 0, 56, 23
1, 308739, Note_on_c, 0, 59, 36
1, 308739, Note_on_c, 0, 30, 36
1, 308739, Note_on_c, 0, 32, 36
1, 308739, Note_on_c, 0, 78, 43
1, 308739, Note_on_c, 0, 44, 23
1, 308931, Note_off_c, 0, 59, 0
1, 308931, Note_off_c, 0, 71, 0
1, 308931, Note_on_c, 0, 71, 36
1, 308931, Note_on_c, 0, 59, 36
1, 309027, Note_off_c, 0, 44, 0
1, 309027, Note_off_c, 0, 78, 0
1, 309027, Note_off_c, 0, 32, 0
1, 309027, Note_off_c, 0, 30, 0
1, 309027, Note_off_c, 0, 56, 0
1, 309027, Note_off_c, 0, 90, 0
1, 309027, Note_off_c, 0, 44, 0
1, 309027, Note_off_c, 0, 32, 0
1, 309123, Note_off_c, 0, 59, 0
1, 309123, Note_off_c, 0, 71, 0
1, 309123, Note_on_c, 0, 71, 36
1, 309123, Note_on_c, 0, 32, 36
1, 309123, Note_on_c, 0, 44, 36
1, 309123, Note_on_c, 0, 86, 43
1, 309123, Note_on_c, 0, 64, 23
1, 309123, Note_on_c, 0, 59, 36
1, 309123, Note_on_c, 0, 30, 36
1, 309123, Note_on_c, 0, 32, 36
1, 309123, Note_on_c, 0, 74, 43
1, 309123, Note_on_c, 0, 52, 23
1, 309315, Note_off_c, 0, 52, 0
1, 309315, Note_off_c, 0, 74, 0
1, 309315, Note_off_c, 0, 59, 0
1, 309315, Note_off_c, 0, 64, 0
1, 309315, Note_off_c, 0, 86, 0
1, 309315, Note_off_c, 0, 71, 0
1, 309315, Note_on_c, 0, 71, 36
1, 309315, Note_on_c, 0, 85, 43
1, 309315, Note_on_c, 0, 68, 23
1, 309315, Note_on_c, 0, 59, 36
1, 309315, Note_on_c, 0, 73, 43
1, 309315, Note_on_c, 0, 56, 23
1, 309411, Note_off_c, 0, 32, 0
1, 309411, Note_off_c, 0, 30, 0
1, 309411, Note_off_c, 0, 44, 0
1, 309411, Note_off_c, 0, 32, 0
1, 309507, Note_off_c, 0, 56, 0
1, 309507, Note_off_c, 0, 73, 0
1, 309507, Note_off_c, 0, 59, 0
1, 309507, Note_off_c, 0, 68, 0
1, 309507, Note_off_c, 0, 85, 0
1, 309507, Note_off_c, 0, 71, 0
1, 309507, Note_on_c, 0, 71, 36
1, 309507, Note_on_c, 0, 32, 36
1, 309507, Note_on_c, 0, 44, 36
1, 309507, Note_on_c, 0, 83, 43
1, 309507, Note_on_c, 0, 56, 23
1, 309507, Note_on_c, 0, 59, 36
1, 309507, Note_on_c, 0, 30, 36
1, 309507, Note_on_c, 0, 32, 36
1, 309507, Note_on_c, 0, 71, 43
1, 309507, Note_on_c, 0, 44, 23
1, 309699, Note_off_c, 0, 59, 0
1, 309699, Note_off_c, 0, 71, 0
1, 309699, Note_on_c, 0, 71, 36
1, 309699, Note_on_c, 0, 59, 36
1, 309795, Note_off_c, 0, 44, 0
1, 309795, Note_off_c, 0, 32, 0
1, 309795, Note_off_c, 0, 30, 0
1, 309795, Note_off_c, 0, 56, 0
1, 309795, Note_off_c, 0, 44, 0
1, 309795, Note_off_c, 0, 32, 0
1, 309891, Note_off_c, 0, 59, 0
1, 309891, Note_off_c, 0, 71, 0
1, 309891, Note_on_c, 0, 71, 36
1, 309891, Note_on_c, 0, 32, 36
1, 309891, Note_on_c, 0, 44, 36
1, 309891, Note_on_c, 0, 64, 23
1, 309891, Note_on_c, 0, 59, 36
1, 309891, Note_on_c, 0, 30, 36
1, 309891, Note_on_c, 0, 32, 36
1, 309891, Note_on_c, 0, 52, 23
1, 310083, Note_off_c, 0, 52, 0
1, 310083, Note_off_c, 0, 32, 0
1, 310083, Note_off_c, 0, 30, 0
1, 310083, Note_off_c, 0, 59, 0
1, 310083, Note_off_c, 0, 64, 0
1, 310083, Note_off_c, 0, 44, 0
1, 310083, Note_off_c, 0, 32, 0
1, 310083, Note_off_c, 0, 71, 0
1, 310083, Note_on_c, 0, 71, 36
1, 310083, Note_on_c, 0, 32, 36
1, 310083, Note_on_c, 0, 44, 36
1, 310083, Note_on_c, 0, 68, 23
1, 310083, Note_on_c, 0, 59, 36
1, 310083, Note_on_c, 0, 30, 36
1, 310083, Note_on_c, 0, 32, 36
1, 310083, Note_on_c, 0, 56, 23
1, 310179, Note_off_c, 0, 71, 0
1, 310179, Note_off_c, 0, 83, 0
1, 310275, Note_off_c, 0, 56, 0
1, 310275, Note_off_c, 0, 32, 0
1, 310275, Note_off_c, 0, 30, 0
1, 310275, Note_off_c, 0, 59, 0
1, 310275, Note_off_c, 0, 68, 0
1, 310275, Note_off_c, 0, 44, 0
1, 310275, Note_off_c, 0, 32, 0
1, 310275, Note_off_c, 0, 71, 0
1, 310275, Note_on_c, 0, 71, 36
1, 310275, Note_on_c, 0, 31, 36
1, 310275, Note_on_c, 0, 43, 36
1, 310275, Note_on_c, 0, 85, 43
1, 310275, Note_on_c, 0, 55, 23
1, 310275, Note_on_c, 0, 59, 36
1, 310275, Note_on_c, 0, 29, 36
1, 310275, Note_on_c, 0, 31, 36
1, 310275, Note_on_c, 0, 73, 43
1, 310275, Note_on_c, 0, 43, 23
1, 310467, Note_off_c, 0, 59, 0
1, 310467, Note_off_c, 0, 71, 0
1, 310467, Note_on_c, 0, 71, 36
1, 310467, Note_on_c, 0, 59, 36
1, 310563, Note_off_c, 0, 43, 0
1, 310563, Note_off_c, 0, 31, 0
1, 310563, Note_off_c, 0, 29, 0
1, 310563, Note_off_c, 0, 55, 0
1, 310563, Note_off_c, 0, 43, 0
1, 310563, Note_off_c, 0, 31, 0
1, 310659, Note_off_c, 0, 59, 0
1, 310659, Note_off_c, 0, 71, 0
1, 310659, Note_on_c, 0, 71, 36
1, 310659, Note_on_c, 0, 31, 36
1, 310659, Note_on_c, 0, 43, 36
1, 310659, Note_on_c, 0, 62, 23
1, 310659, Note_on_c, 0, 59, 36
1, 310659, Note_on_c, 0, 29, 36
1, 310659, Note_on_c, 0, 31, 36
1, 310659, Note_on_c, 0, 50, 23
1, 310851, Note_off_c, 0, 50, 0
1, 310851, Note_off_c, 0, 31, 0
1, 310851, Note_off_c, 0, 29, 0
1, 310851, Note_off_c, 0, 59, 0
1, 310851, Note_off_c, 0, 62, 0
1, 310851, Note_off_c, 0, 43, 0
1, 310851, Note_off_c, 0, 31, 0
1, 310851, Note_off_c, 0, 71, 0
1, 310851, Note_on_c, 0, 71, 36
1, 310851, Note_on_c, 0, 31, 36
1, 310851, Note_on_c, 0, 43, 36
1, 310851, Note_on_c, 0, 67, 23
1, 310851, Note_on_c, 0, 59, 36
1, 310851, Note_on_c, 0, 29, 36
1, 310851, Note_on_c, 0, 31, 36
1, 310851, Note_on_c, 0, 55, 23
1, 311043, Note_off_c, 0, 55, 0
1, 311043, Note_off_c, 0, 59, 0
1, 311043, Note_off_c, 0, 67, 0
1, 311043, Note_off_c, 0, 71, 0
1, 311043, Note_on_c, 0, 71, 36
1, 311043, Note_on_c, 0, 55, 23
1, 311043, Note_on_c, 0, 59, 36
1, 311043, Note_on_c, 0, 43, 23
1, 311139, Note_off_c, 0, 31, 0
1, 311139, Note_off_c, 0, 29, 0
1, 311139, Note_off_c, 0, 43, 0
1, 311139, Note_off_c, 0, 31, 0
1, 311235, Note_off_c, 0, 59, 0
1, 311235, Note_off_c, 0, 71, 0
1, 311235, Note_on_c, 0, 71, 36
1, 311235, Note_on_c, 0, 31, 36
1, 311235, Note_on_c, 0, 43, 36
1, 311235, Note_on_c, 0, 59, 36
1, 311235, Note_on_c, 0, 29, 36
1, 311235, Note_on_c, 0, 31, 36
1, 311331, Note_off_c, 0, 43, 0
1, 311331, Note_off_c, 0, 55, 0
1, 311427, Note_off_c, 0, 31, 0
1, 311427, Note_off_c, 0, 29, 0
1, 311427, Note_off_c, 0, 59, 0
1, 311427, Note_off_c, 0, 43, 0
1, 311427, Note_off_c, 0, 31, 0
1, 311427, Note_off_c, 0, 71, 0
1, 311427, Note_on_c, 0, 71, 36
1, 311427, Note_on_c, 0, 31, 36
1, 311427, Note_on_c, 0, 43, 36
1, 311427, Note_on_c, 0, 62, 23
1, 311427, Note_on_c, 0, 59, 36
1, 311427, Note_on_c, 0, 29, 36
1, 311427, Note_on_c, 0, 31, 36
1, 311427, Note_on_c, 0, 50, 23
1, 311619, Note_off_c, 0, 50, 0
1, 311619, Note_off_c, 0, 59, 0
1, 311619, Note_off_c, 0, 62, 0
1, 311619, Note_off_c, 0, 71, 0
1, 311619, Note_on_c, 0, 71, 36
1, 311619, Note_on_c, 0, 67, 23
1, 311619, Note_on_c, 0, 59, 36
1, 311619, Note_on_c, 0, 55, 23
1, 311715, Note_off_c, 0, 31, 0
1, 311715, Note_off_c, 0, 29, 0
1, 311715, Note_off_c, 0, 43, 0
1, 311715, Note_off_c, 0, 31, 0
1, 311715, Note_off_c, 0, 73, 0
1, 311715, Note_off_c, 0, 85, 0
1, 311811, Note_off_c, 0, 55, 0
1, 311811, Note_off_c, 0, 59, 0
1, 311811, Note_off_c, 0, 67, 0
1, 311811, Note_off_c, 0, 71, 0
1, 311811, Note_on_c, 0, 71, 36
1, 311811, Note_on_c, 0, 33, 36
1, 311811, Note_on_c, 0, 45, 36
1, 311811, Note_on_c, 0, 86, 43
1, 311811, Note_on_c, 0, 57, 23
1, 311811, Note_on_c, 0, 59, 36
1, 311811, Note_on_c, 0, 31, 36
1, 311811, Note_on_c, 0, 33, 36
1, 311811, Note_on_c, 0, 74, 43
1, 311811, Note_on_c, 0, 45, 23
1, 312003, Note_off_c, 0, 33, 0
1, 312003, Note_off_c, 0, 31, 0
1, 312003, Note_off_c, 0, 59, 0
1, 312003, Note_off_c, 0, 45, 0
1, 312003, Note_off_c, 0, 33, 0
1, 312003, Note_off_c, 0, 71, 0
1, 312003, Note_on_c, 0, 71, 36
1, 312003, Note_on_c, 0, 33, 36
1, 312003, Note_on_c, 0, 45, 36
1, 312003, Note_on_c, 0, 59, 36
1, 312003, Note_on_c, 0, 31, 36
1, 312003, Note_on_c, 0, 33, 36
1, 312099, Note_off_c, 0, 45, 0
1, 312099, Note_off_c, 0, 57, 0
1, 312195, Note_off_c, 0, 33, 0
1, 312195, Note_off_c, 0, 31, 0
1, 312195, Note_off_c, 0, 59, 0
1, 312195, Note_off_c, 0, 45, 0
1, 312195, Note_off_c, 0, 33, 0
1, 312195, Note_off_c, 0, 71, 0
1, 312195, Note_on_c, 0, 71, 36
1, 312195, Note_on_c, 0, 33, 36
1, 312195, Note_on_c, 0, 45, 36
1, 312195, Note_on_c, 0, 64, 23
1, 312195, Note_on_c, 0, 59, 36
1, 312195, Note_on_c, 0, 31, 36
1, 312195, Note_on_c, 0, 33, 36
1, 312195, Note_on_c, 0, 52, 23
1, 312387, Note_off_c, 0, 52, 0
1, 312387, Note_off_c, 0, 59, 0
1, 312387, Note_off_c, 0, 64, 0
1, 312387, Note_off_c, 0, 71, 0
1, 312387, Note_on_c, 0, 71, 36
1, 312387, Note_on_c, 0, 69, 23
1, 312387, Note_on_c, 0, 59, 36
1, 312387, Note_on_c, 0, 57, 23
1, 312483, Note_off_c, 0, 33, 0
1, 312483, Note_off_c, 0, 31, 0
1, 312483, Note_off_c, 0, 45, 0
1, 312483, Note_off_c, 0, 33, 0
1, 312579, Note_off_c, 0, 57, 0
1, 312579, Note_off_c, 0, 59, 0
1, 312579, Note_off_c, 0, 69, 0
1, 312579, Note_off_c, 0, 71, 0
1, 312579, Note_on_c, 0, 71, 36
1, 312579, Note_on_c, 0, 33, 36
1, 312579, Note_on_c, 0, 45, 36
1, 312579, Note_on_c, 0, 57, 23
1, 312579, Note_on_c, 0, 59, 36
1, 312579, Note_on_c, 0, 31, 36
1, 312579, Note_on_c, 0, 33, 36
1, 312579, Note_on_c, 0, 45, 23
1, 312675, Note_off_c, 0, 33, 0
1, 312675, Note_off_c, 0, 31, 0
1, 312675, Note_off_c, 0, 45, 0
1, 312675, Note_off_c, 0, 33, 0
1, 312675, Note_on_c, 0, 33, 36
1, 312675, Note_on_c, 0, 45, 36
1, 312675, Note_on_c, 0, 31, 36
1, 312675, Note_on_c, 0, 33, 36
1, 312771, Note_off_c, 0, 33, 0
1, 312771, Note_off_c, 0, 31, 0
1, 312771, Note_off_c, 0, 45, 0
1, 312771, Note_off_c, 0, 33, 0
1, 312771, Note_off_c, 0, 59, 0
1, 312771, Note_off_c, 0, 71, 0
1, 312771, Note_on_c, 0, 71, 36
1, 312771, Note_on_c, 0, 33, 36
1, 312771, Note_on_c, 0, 45, 36
1, 312771, Note_on_c, 0, 59, 36
1, 312771, Note_on_c, 0, 31, 36
1, 312771, Note_on_c, 0, 33, 36
1, 312867, Note_off_c, 0, 33, 0
1, 312867, Note_off_c, 0, 31, 0
1, 312867, Note_off_c, 0, 45, 0
1, 312867, Note_off_c, 0, 33, 0
1, 312867, Note_off_c, 0, 45, 0
1, 312867, Note_off_c, 0, 57, 0
1, 312867, Note_on_c, 0, 33, 36
1, 312867, Note_on_c, 0, 45, 36
1, 312867, Note_on_c, 0, 31, 36
1, 312867, Note_on_c, 0, 33, 36
1, 312963, Note_off_c, 0, 33, 0
1, 312963, Note_off_c, 0, 31, 0
1, 312963, Note_off_c, 0, 45, 0
1, 312963, Note_off_c, 0, 33, 0
1, 312963, Note_off_c, 0, 59, 0
1, 312963, Note_off_c, 0, 71, 0
1, 312963, Note_on_c, 0, 71, 36
1, 312963, Note_on_c, 0, 33, 36
1, 312963, Note_on_c, 0, 45, 36
1, 312963, Note_on_c, 0, 64, 23
1, 312963, Note_on_c, 0, 59, 36
1, 312963, Note_on_c, 0, 31, 36
1, 312963, Note_on_c, 0, 33, 36
1, 312963, Note_on_c, 0, 52, 23
1, 313059, Note_off_c, 0, 33, 0
1, 313059, Note_off_c, 0, 31, 0
1, 313059, Note_off_c, 0, 45, 0
1, 313059, Note_off_c, 0, 33, 0
1, 313059, Note_on_c, 0, 33, 36
1, 313059, Note_on_c, 0, 45, 36
1, 313059, Note_on_c, 0, 31, 36
1, 313059, Note_on_c, 0, 33, 36
1, 313155, Note_off_c, 0, 33, 0
1, 313155, Note_off_c, 0, 31, 0
1, 313155, Note_off_c, 0, 45, 0
1, 313155, Note_off_c, 0, 33, 0
1, 313155, Note_off_c, 0, 52, 0
1, 313155, Note_off_c, 0, 59, 0
1, 313155, Note_off_c, 0, 64, 0
1, 313155, Note_off_c, 0, 71, 0
1, 313155, Note_on_c, 0, 71, 36
1, 313155, Note_on_c, 0, 33, 36
1, 313155, Note_on_c, 0, 45, 36
1, 313155, Note_on_c, 0, 69, 23
1, 313155, Note_on_c, 0, 59, 36
1, 313155, Note_on_c, 0, 31, 36
1, 313155, Note_on_c, 0, 33, 36
1, 313155, Note_on_c, 0, 57, 23
1, 313251, Note_off_c, 0, 33, 0
1, 313251, Note_off_c, 0, 31, 0
1, 313251, Note_off_c, 0, 45, 0
1, 313251, Note_off_c, 0, 33, 0
1, 313251, Note_off_c, 0, 74, 0
1, 313251, Note_off_c, 0, 86, 0
1, 313251, Note_on_c, 0, 33, 36
1, 313251, Note_on_c, 0, 45, 36
1, 313251, Note_on_c, 0, 31, 36
1, 313251, Note_on_c, 0, 33, 36
1, 313347, Note_off_c, 0, 33, 0
1, 313347, Note_off_c, 0, 31, 0
1, 313347, Note_off_c, 0, 45, 0
1, 313347, Note_off_c, 0, 33, 0
1, 313347, Note_off_c, 0, 57, 0
1, 313347, Note_off_c, 0, 59, 0
1, 313347, Note_off_c, 0, 69, 0
1, 313347, Note_off_c, 0, 71, 0
1, 313347, Note_on_c, 0, 35, 36
1, 313347, Note_on_c, 0, 47, 36
1, 313347, Note_on_c, 0, 78, 43
1, 313347, Note_on_c, 0, 85, 43
1, 313347, Note_on_c, 0, 59, 23
1, 313347, Note_on_c, 0, 24, 36
1, 313347, Note_on_c, 0, 35, 36
1, 313347, Note_on_c, 0, 66, 43
1, 313347, Note_on_c, 0, 73, 43
1, 313347, Note_on_c, 0, 47, 23
1, 313635, Note_off_c, 0, 47, 0
1, 313635, Note_off_c, 0, 35, 0
1, 313635, Note_off_c, 0, 24, 0
1, 313635, Note_off_c, 0, 59, 0
1, 313635, Note_off_c, 0, 47, 0
1, 313635, Note_off_c, 0, 35, 0
1, 313731, Note_on_c, 0, 35, 36
1, 313731, Note_on_c, 0, 47, 36
1, 313731, Note_on_c, 0, 66, 23
1, 313731, Note_on_c, 0, 24, 36
1, 313731, Note_on_c, 0, 35, 36
1, 313731, Note_on_c, 0, 54, 23
1, 313923, Note_off_c, 0, 54, 0
1, 313923, Note_off_c, 0, 66, 0
1, 313923, Note_on_c, 0, 71, 23
1, 313923, Note_on_c, 0, 59, 23
1, 314019, Note_off_c, 0, 35, 0
1, 314019, Note_off_c, 0, 24, 0
1, 314019, Note_off_c, 0, 47, 0
1, 314019, Note_off_c, 0, 35, 0
1, 314115, Note_off_c, 0, 59, 0
1, 314115, Note_off_c, 0, 71, 0
1, 314115, Note_on_c, 0, 35, 36
1, 314115, Note_on_c, 0, 47, 36
1, 314115, Note_on_c, 0, 59, 23
1, 314115, Note_on_c, 0, 24, 36
1, 314115, Note_on_c, 0, 35, 36
1, 314115, Note_on_c, 0, 47, 23
1, 314403, Note_off_c, 0, 47, 0
1, 314403, Note_off_c, 0, 35, 0
1, 314403, Note_off_c, 0, 24, 0
1, 314403, Note_off_c, 0, 59, 0
1, 314403, Note_off_c, 0, 47, 0
1, 314403, Note_off_c, 0, 35, 0
1, 314499, Note_on_c, 0, 35, 36
1, 314499, Note_on_c, 0, 47, 36
1, 314499, Note_on_c, 0, 66, 23
1, 314499, Note_on_c, 0, 24, 36
1, 314499, Note_on_c, 0, 35, 36
1, 314499, Note_on_c, 0, 54, 23
1, 314691, Note_off_c, 0, 54, 0
1, 314691, Note_off_c, 0, 66, 0
1, 314691, Note_on_c, 0, 71, 23
1, 314691, Note_on_c, 0, 59, 23
1, 314787, Note_off_c, 0, 35, 0
1, 314787, Note_off_c, 0, 24, 0
1, 314787, Note_off_c, 0, 47, 0
1, 314787, Note_off_c, 0, 35, 0
1, 314787, Note_off_c, 0, 73, 0
1, 314787, Note_off_c, 0, 66, 0
1, 314787, Note_off_c, 0, 85, 0
1, 314787, Note_off_c, 0, 78, 0
1, 314883, Note_off_c, 0, 59, 0
1, 314883, Note_off_c, 0, 71, 0
1, 314883, Note_on_c, 0, 35, 36
1, 314883, Note_on_c, 0, 47, 36
1, 314883, Note_on_c, 0, 85, 43
1, 314883, Note_on_c, 0, 78, 43
1, 314883, Note_on_c, 0, 59, 23
1, 314883, Note_on_c, 0, 24, 36
1, 314883, Note_on_c, 0, 35, 36
1, 314883, Note_on_c, 0, 73, 43
1, 314883, Note_on_c, 0, 66, 43
1, 314883, Note_on_c, 0, 47, 23
1, 315171, Note_off_c, 0, 47, 0
1, 315171, Note_off_c, 0, 35, 0
1, 315171, Note_off_c, 0, 24, 0
1, 315171, Note_off_c, 0, 59, 0
1, 315171, Note_off_c, 0, 47, 0
1, 315171, Note_off_c, 0, 35, 0
1, 315267, Note_on_c, 0, 35, 36
1, 315267, Note_on_c, 0, 47, 36
1, 315267, Note_on_c, 0, 66, 23
1, 315267, Note_on_c, 0, 24, 36
1, 315267, Note_on_c, 0, 35, 36
1, 315267, Note_on_c, 0, 54, 23
1, 315363, Note_off_c, 0, 73, 0
1, 315363, Note_off_c, 0, 85, 0
1, 315459, Note_off_c, 0, 54, 0
1, 315459, Note_off_c, 0, 66, 0
1, 315459, Note_on_c, 0, 83, 43
1, 315459, Note_on_c, 0, 71, 23
1, 315459, Note_on_c, 0, 71, 43
1, 315459, Note_on_c, 0, 59, 23
1, 315555, Note_off_c, 0, 35, 0
1, 315555, Note_off_c, 0, 24, 0
1, 315555, Note_off_c, 0, 47, 0
1, 315555, Note_off_c, 0, 35, 0
1, 315651, Note_off_c, 0, 59, 0
1, 315651, Note_off_c, 0, 71, 0
1, 315651, Note_on_c, 0, 35, 36
1, 315651, Note_on_c, 0, 47, 36
1, 315651, Note_on_c, 0, 59, 23
1, 315651, Note_on_c, 0, 24, 36
1, 315651, Note_on_c, 0, 35, 36
1, 315651, Note_on_c, 0, 47, 23
1, 315939, Note_off_c, 0, 47, 0
1, 315939, Note_off_c, 0, 35, 0
1, 315939, Note_off_c, 0, 24, 0
1, 315939, Note_off_c, 0, 59, 0
1, 315939, Note_off_c, 0, 47, 0
1, 315939, Note_off_c, 0, 35, 0
1, 315939, Note_off_c, 0, 71, 0
1, 315939, Note_off_c, 0, 83, 0
1, 316035, Note_on_c, 0, 35, 36
1, 316035, Note_on_c, 0, 47, 36
1, 316035, Note_on_c, 0, 90, 43
1, 316035, Note_on_c, 0, 66, 23
1, 316035, Note_on_c, 0, 24, 36
1, 316035, Note_on_c, 0, 35, 36
1, 316035, Note_on_c, 0, 78, 43
1, 316035, Note_on_c, 0, 54, 23
1, 316227, Note_off_c, 0, 54, 0
1, 316227, Note_off_c, 0, 35, 0
1, 316227, Note_off_c, 0, 24, 0
1, 316227, Note_off_c, 0, 66, 0
1, 316227, Note_off_c, 0, 47, 0
1, 316227, Note_off_c, 0, 35, 0
1, 316227, Note_on_c, 0, 35, 36
1, 316227, Note_on_c, 0, 47, 36
1, 316227, Note_on_c, 0, 71, 23
1, 316227, Note_on_c, 0, 24, 36
1, 316227, Note_on_c, 0, 35, 36
1, 316227, Note_on_c, 0, 59, 23
1, 316323, Note_off_c, 0, 78, 0
1, 316323, Note_off_c, 0, 90, 0
1, 316323, Note_off_c, 0, 66, 0
1, 316323, Note_off_c, 0, 78, 0
1, 316419, Note_off_c, 0, 59, 0
1, 316419, Note_off_c, 0, 35, 0
1, 316419, Note_off_c, 0, 24, 0
1, 316419, Note_off_c, 0, 71, 0
1, 316419, Note_off_c, 0, 47, 0
1, 316419, Note_off_c, 0, 35, 0
1, 316419, Note_on_c, 0, 33, 36
1, 316419, Note_on_c, 0, 45, 36
1, 316419, Note_on_c, 0, 78, 43
1, 316419, Note_on_c, 0, 85, 43
1, 316419, Note_on_c, 0, 57, 23
1, 316419, Note_on_c, 0, 31, 36
1, 316419, Note_on_c, 0, 33, 36
1, 316419, Note_on_c, 0, 66, 43
1, 316419, Note_on_c, 0, 73, 43
1, 316419, Note_on_c, 0, 45, 23
1, 316707, Note_off_c, 0, 45, 0
1, 316707, Note_off_c, 0, 33, 0
1, 316707, Note_off_c, 0, 31, 0
1, 316707, Note_off_c, 0, 57, 0
1, 316707, Note_off_c, 0, 45, 0
1, 316707, Note_off_c, 0, 33, 0
1, 316803, Note_on_c, 0, 33, 36
1, 316803, Note_on_c, 0, 45, 36
1, 316803, Note_on_c, 0, 64, 23
1, 316803, Note_on_c, 0, 31, 36
1, 316803, Note_on_c, 0, 33, 36
1, 316803, Note_on_c, 0, 52, 23
1, 316995, Note_off_c, 0, 52, 0
1, 316995, Note_off_c, 0, 64, 0
1, 316995, Note_on_c, 0, 69, 23
1, 316995, Note_on_c, 0, 57, 23
1, 317091, Note_off_c, 0, 33, 0
1, 317091, Note_off_c, 0, 31, 0
1, 317091, Note_off_c, 0, 45, 0
1, 317091, Note_off_c, 0, 33, 0
1, 317187, Note_off_c, 0, 57, 0
1, 317187, Note_off_c, 0, 69, 0
1, 317187, Note_on_c, 0, 33, 36
1, 317187, Note_on_c, 0, 45, 36
1, 317187, Note_on_c, 0, 57, 23
1, 317187, Note_on_c, 0, 31, 36
1, 317187, Note_on_c, 0, 33, 36
1, 317187, Note_on_c, 0, 45, 23
1, 317475, Note_off_c, 0, 45, 0
1, 317475, Note_off_c, 0, 33, 0
1, 317475, Note_off_c, 0, 31, 0
1, 317475, Note_off_c, 0, 57, 0
1, 317475, Note_off_c, 0, 45, 0
1, 317475, Note_off_c, 0, 33, 0
1, 317571, Note_on_c, 0, 33, 36
1, 317571, Note_on_c, 0, 45, 36
1, 317571, Note_on_c, 0, 64, 23
1, 317571, Note_on_c, 0, 31, 36
1, 317571, Note_on_c, 0, 33, 36
1, 317571, Note_on_c, 0, 52, 23
1, 317763, Note_off_c, 0, 52, 0
1, 317763, Note_off_c, 0, 64, 0
1, 317763, Note_on_c, 0, 69, 23
1, 317763, Note_on_c, 0, 57, 23
1, 317859, Note_off_c, 0, 33, 0
1, 317859, Note_off_c, 0, 31, 0
1, 317859, Note_off_c, 0, 45, 0
1, 317859, Note_off_c, 0, 33, 0
1, 317859, Note_off_c, 0, 73, 0
1, 317859, Note_off_c, 0, 66, 0
1, 317859, Note_off_c, 0, 85, 0
1, 317859, Note_off_c, 0, 78, 0
1, 317955, Note_off_c, 0, 57, 0
1, 317955, Note_off_c, 0, 69, 0
1, 317955, Note_on_c, 0, 33, 36
1, 317955, Note_on_c, 0, 45, 36
1, 317955, Note_on_c, 0, 85, 43
1, 317955, Note_on_c, 0, 78, 43
1, 317955, Note_on_c, 0, 57, 23
1, 317955, Note_on_c, 0, 31, 36
1, 317955, Note_on_c, 0, 33, 36
1, 317955, Note_on_c, 0, 73, 43
1, 317955, Note_on_c, 0, 66, 43
1, 317955, Note_on_c, 0, 45, 23
1, 318243, Note_off_c, 0, 45, 0
1, 318243, Note_off_c, 0, 33, 0
1, 318243, Note_off_c, 0, 31, 0
1, 318243, Note_off_c, 0, 57, 0
1, 318243, Note_off_c, 0, 45, 0
1, 318243, Note_off_c, 0, 33, 0
1, 318339, Note_on_c, 0, 33, 36
1, 318339, Note_on_c, 0, 45, 36
1, 318339, Note_on_c, 0, 64, 23
1, 318339, Note_on_c, 0, 31, 36
1, 318339, Note_on_c, 0, 33, 36
1, 318339, Note_on_c, 0, 52, 23
1, 318435, Note_off_c, 0, 73, 0
1, 318435, Note_off_c, 0, 85, 0
1, 318531, Note_off_c, 0, 52, 0
1, 318531, Note_off_c, 0, 64, 0
1, 318531, Note_on_c, 0, 83, 43
1, 318531, Note_on_c, 0, 69, 23
1, 318531, Note_on_c, 0, 71, 43
1, 318531, Note_on_c, 0, 57, 23
1, 318627, Note_off_c, 0, 33, 0
1, 318627, Note_off_c, 0, 31, 0
1, 318627, Note_off_c, 0, 45, 0
1, 318627, Note_off_c, 0, 33, 0
1, 318723, Note_off_c, 0, 57, 0
1, 318723, Note_off_c, 0, 69, 0
1, 318723, Note_on_c, 0, 33, 36
1, 318723, Note_on_c, 0, 45, 36
1, 318723, Note_on_c, 0, 57, 23
1, 318723, Note_on_c, 0, 31, 36
1, 318723, Note_on_c, 0, 33, 36
1, 318723, Note_on_c, 0, 45, 23
1, 319011, Note_off_c, 0, 45, 0
1, 319011, Note_off_c, 0, 33, 0
1, 319011, Note_off_c, 0, 31, 0
1, 319011, Note_off_c, 0, 57, 0
1, 319011, Note_off_c, 0, 45, 0
1, 319011, Note_off_c, 0, 33, 0
1, 319011, Note_off_c, 0, 71, 0
1, 319011, Note_off_c, 0, 83, 0
1, 319107, Note_on_c, 0, 33, 36
1, 319107, Note_on_c, 0, 45, 36
1, 319107, Note_on_c, 0, 90, 43
1, 319107, Note_on_c, 0, 64, 23
1, 319107, Note_on_c, 0, 31, 36
1, 319107, Note_on_c, 0, 33, 36
1, 319107, Note_on_c, 0, 78, 43
1, 319107, Note_on_c, 0, 52, 23
1, 319299, Note_off_c, 0, 52, 0
1, 319299, Note_off_c, 0, 33, 0
1, 319299, Note_off_c, 0, 31, 0
1, 319299, Note_off_c, 0, 64, 0
1, 319299, Note_off_c, 0, 45, 0
1, 319299, Note_off_c, 0, 33, 0
1, 319299, Note_on_c, 0, 33, 36
1, 319299, Note_on_c, 0, 45, 36
1, 319299, Note_on_c, 0, 69, 23
1, 319299, Note_on_c, 0, 31, 36
1, 319299, Note_on_c, 0, 33, 36
1, 319299, Note_on_c, 0, 57, 23
1, 319395, Note_off_c, 0, 78, 0
1, 319395, Note_off_c, 0, 90, 0
1, 319395, Note_off_c, 0, 66, 0
1, 319395, Note_off_c, 0, 78, 0
1, 319491, Note_off_c, 0, 57, 0
1, 319491, Note_off_c, 0, 33, 0
1, 319491, Note_off_c, 0, 31, 0
1, 319491, Note_off_c, 0, 69, 0
1, 319491, Note_off_c, 0, 45, 0
1, 319491, Note_off_c, 0, 33, 0
1, 319491, Note_on_c, 0, 32, 36
1, 319491, Note_on_c, 0, 44, 36
1, 319491, Note_on_c, 0, 78, 43
1, 319491, Note_on_c, 0, 85, 43
1, 319491, Note_on_c, 0, 56, 23
1, 319491, Note_on_c, 0, 30, 36
1, 319491, Note_on_c, 0, 32, 36
1, 319491, Note_on_c, 0, 66, 43
1, 319491, Note_on_c, 0, 73, 43
1, 319491, Note_on_c, 0, 44, 23
1, 319779, Note_off_c, 0, 44, 0
1, 319779, Note_off_c, 0, 32, 0
1, 319779, Note_off_c, 0, 30, 0
1, 319779, Note_off_c, 0, 56, 0
1, 319779, Note_off_c, 0, 44, 0
1, 319779, Note_off_c, 0, 32, 0
1, 319875, Note_on_c, 0, 32, 36
1, 319875, Note_on_c, 0, 44, 36
1, 319875, Note_on_c, 0, 64, 23
1, 319875, Note_on_c, 0, 30, 36
1, 319875, Note_on_c, 0, 32, 36
1, 319875, Note_on_c, 0, 52, 23
1, 320067, Note_off_c, 0, 52, 0
1, 320067, Note_off_c, 0, 64, 0
1, 320067, Note_on_c, 0, 68, 23
1, 320067, Note_on_c, 0, 56, 23
1, 320163, Note_off_c, 0, 32, 0
1, 320163, Note_off_c, 0, 30, 0
1, 320163, Note_off_c, 0, 44, 0
1, 320163, Note_off_c, 0, 32, 0
1, 320259, Note_off_c, 0, 56, 0
1, 320259, Note_off_c, 0, 68, 0
1, 320259, Note_on_c, 0, 32, 36
1, 320259, Note_on_c, 0, 44, 36
1, 320259, Note_on_c, 0, 56, 23
1, 320259, Note_on_c, 0, 30, 36
1, 320259, Note_on_c, 0, 32, 36
1, 320259, Note_on_c, 0, 44, 23
1, 320547, Note_off_c, 0, 44, 0
1, 320547, Note_off_c, 0, 32, 0
1, 320547, Note_off_c, 0, 30, 0
1, 320547, Note_off_c, 0, 56, 0
1, 320547, Note_off_c, 0, 44, 0
1, 320547, Note_off_c, 0, 32, 0
1, 320643, Note_on_c, 0, 32, 36
1, 320643, Note_on_c, 0, 44, 36
1, 320643, Note_on_c, 0, 64, 23
1, 320643, Note_on_c, 0, 30, 36
1, 320643, Note_on_c, 0, 32, 36
1, 320643, Note_on_c, 0, 52, 23
1, 320835, Note_off_c, 0, 52, 0
1, 320835, Note_off_c, 0, 64, 0
1, 320835, Note_on_c, 0, 68, 23
1, 320835, Note_on_c, 0, 56, 23
1, 320931, Note_off_c, 0, 32, 0
1, 320931, Note_off_c, 0, 30, 0
1, 320931, Note_off_c, 0, 44, 0
1, 320931, Note_off_c, 0, 32, 0
1, 320931, Note_off_c, 0, 73, 0
1, 320931, Note_off_c, 0, 66, 0
1, 320931, Note_off_c, 0, 85, 0
1, 320931, Note_off_c, 0, 78, 0
1, 321027, Note_off_c, 0, 56, 0
1, 321027, Note_off_c, 0, 68, 0
1, 321027, Note_on_c, 0, 32, 36
1, 321027, Note_on_c, 0, 44, 36
1, 321027, Note_on_c, 0, 85, 43
1, 321027, Note_on_c, 0, 78, 43
1, 321027, Note_on_c, 0, 56, 23
1, 321027, Note_on_c, 0, 30, 36
1, 321027, Note_on_c, 0, 32, 36
1, 321027, Note_on_c, 0, 73, 43
1, 321027, Note_on_c, 0, 66, 43
1, 321027, Note_on_c, 0, 44, 23
1, 321315, Note_off_c, 0, 44, 0
1, 321315, Note_off_c, 0, 32, 0
1, 321315, Note_off_c, 0, 30, 0
1, 321315, Note_off_c, 0, 56, 0
1, 321315, Note_off_c, 0, 44, 0
1, 321315, Note_off_c, 0, 32, 0
1, 321411, Note_on_c, 0, 32, 36
1, 321411, Note_on_c, 0, 44, 36
1, 321411, Note_on_c, 0, 64, 23
1, 321411, Note_on_c, 0, 30, 36
1, 321411, Note_on_c, 0, 32, 36
1, 321411, Note_on_c, 0, 52, 23
1, 321507, Note_off_c, 0, 73, 0
1, 321507, Note_off_c, 0, 85, 0
1, 321603, Note_off_c, 0, 52, 0
1, 321603, Note_off_c, 0, 64, 0
1, 321603, Note_on_c, 0, 83, 43
1, 321603, Note_on_c, 0, 68, 23
1, 321603, Note_on_c, 0, 71, 43
1, 321603, Note_on_c, 0, 56, 23
1, 321699, Note_off_c, 0, 32, 0
1, 321699, Note_off_c, 0, 30, 0
1, 321699, Note_off_c, 0, 44, 0
1, 321699, Note_off_c, 0, 32, 0
1, 321795, Note_off_c, 0, 56, 0
1, 321795, Note_off_c, 0, 68, 0
1, 321795, Note_on_c, 0, 32, 36
1, 321795, Note_on_c, 0, 44, 36
1, 321795, Note_on_c, 0, 56, 23
1, 321795, Note_on_c, 0, 30, 36
1, 321795, Note_on_c, 0, 32, 36
1, 321795, Note_on_c, 0, 44, 23
1, 322083, Note_off_c, 0, 44, 0
1, 322083, Note_off_c, 0, 32, 0
1, 322083, Note_off_c, 0, 30, 0
1, 322083, Note_off_c, 0, 56, 0
1, 322083, Note_off_c, 0, 44, 0
1, 322083, Note_off_c, 0, 32, 0
1, 322083, Note_off_c, 0, 71, 0
1, 322083, Note_off_c, 0, 83, 0
1, 322179, Note_on_c, 0, 32, 36
1, 322179, Note_on_c, 0, 44, 36
1, 322179, Note_on_c, 0, 90, 43
1, 322179, Note_on_c, 0, 64, 23
1, 322179, Note_on_c, 0, 30, 36
1, 322179, Note_on_c, 0, 32, 36
1, 322179, Note_on_c, 0, 78, 43
1, 322179, Note_on_c, 0, 52, 23
1, 322371, Note_off_c, 0, 52, 0
1, 322371, Note_off_c, 0, 32, 0
1, 322371, Note_off_c, 0, 30, 0
1, 322371, Note_off_c, 0, 64, 0
1, 322371, Note_off_c, 0, 44, 0
1, 322371, Note_off_c, 0, 32, 0
1, 322371, Note_on_c, 0, 32, 36
1, 322371, Note_on_c, 0, 44, 36
1, 322371, Note_on_c, 0, 68, 23
1, 322371, Note_on_c, 0, 30, 36
1, 322371, Note_on_c, 0, 32, 36
1, 322371, Note_on_c, 0, 56, 23
1, 322467, Note_off_c, 0, 78, 0
1, 322467, Note_off_c, 0, 90, 0
1, 322467, Note_off_c, 0, 66, 0
1, 322467, Note_off_c, 0, 78, 0
1, 322563, Note_off_c, 0, 56, 0
1, 322563, Note_off_c, 0, 32, 0
1, 322563, Note_off_c, 0, 30, 0
1, 322563, Note_off_c, 0, 68, 0
1, 322563, Note_off_c, 0, 44, 0
1, 322563, Note_off_c, 0, 32, 0
1, 322563, Note_on_c, 0, 31, 36
1, 322563, Note_on_c, 0, 43, 36
1, 322563, Note_on_c, 0, 85, 43
1, 322563, Note_on_c, 0, 55, 23
1, 322563, Note_on_c, 0, 29, 36
1, 322563, Note_on_c, 0, 31, 36
1, 322563, Note_on_c, 0, 73, 43
1, 322563, Note_on_c, 0, 43, 23
1, 322851, Note_off_c, 0, 43, 0
1, 322851, Note_off_c, 0, 31, 0
1, 322851, Note_off_c, 0, 29, 0
1, 322851, Note_off_c, 0, 55, 0
1, 322851, Note_off_c, 0, 43, 0
1, 322851, Note_off_c, 0, 31, 0
1, 322947, Note_on_c, 0, 31, 36
1, 322947, Note_on_c, 0, 43, 36
1, 322947, Note_on_c, 0, 62, 23
1, 322947, Note_on_c, 0, 29, 36
1, 322947, Note_on_c, 0, 31, 36
1, 322947, Note_on_c, 0, 50, 23
1, 323043, Note_off_c, 0, 73, 0
1, 323043, Note_off_c, 0, 85, 0
1, 323139, Note_off_c, 0, 50, 0
1, 323139, Note_off_c, 0, 31, 0
1, 323139, Note_off_c, 0, 29, 0
1, 323139, Note_off_c, 0, 62, 0
1, 323139, Note_off_c, 0, 43, 0
1, 323139, Note_off_c, 0, 31, 0
1, 323139, Note_on_c, 0, 31, 36
1, 323139, Note_on_c, 0, 43, 36
1, 323139, Note_on_c, 0, 83, 43
1, 323139, Note_on_c, 0, 67, 23
1, 323139, Note_on_c, 0, 29, 36
1, 323139, Note_on_c, 0, 31, 36
1, 323139, Note_on_c, 0, 71, 43
1, 323139, Note_on_c, 0, 55, 23
1, 323331, Note_off_c, 0, 55, 0
1, 323331, Note_off_c, 0, 67, 0
1, 323331, Note_on_c, 0, 55, 23
1, 323331, Note_on_c, 0, 43, 23
1, 323427, Note_off_c, 0, 31, 0
1, 323427, Note_off_c, 0, 29, 0
1, 323427, Note_off_c, 0, 43, 0
1, 323427, Note_off_c, 0, 31, 0
1, 323523, Note_on_c, 0, 31, 36
1, 323523, Note_on_c, 0, 43, 36
1, 323523, Note_on_c, 0, 29, 36
1, 323523, Note_on_c, 0, 31, 36
1, 323619, Note_off_c, 0, 43, 0
1, 323619, Note_off_c, 0, 55, 0
1, 323619, Note_off_c, 0, 71, 0
1, 323619, Note_off_c, 0, 83, 0
1, 323715, Note_off_c, 0, 31, 0
1, 323715, Note_off_c, 0, 29, 0
1, 323715, Note_off_c, 0, 43, 0
1, 323715, Note_off_c, 0, 31, 0
1, 323715, Note_on_c, 0, 31, 36
1, 323715, Note_on_c, 0, 43, 36
1, 323715, Note_on_c, 0, 85, 43
1, 323715, Note_on_c, 0, 62, 23
1, 323715, Note_on_c, 0, 29, 36
1, 323715, Note_on_c, 0, 31, 36
1, 323715, Note_on_c, 0, 73, 43
1, 323715, Note_on_c, 0, 50, 23
1, 323907, Note_off_c, 0, 50, 0
1, 323907, Note_off_c, 0, 62, 0
1, 323907, Note_on_c, 0, 67, 23
1, 323907, Note_on_c, 0, 55, 23
1, 324003, Note_off_c, 0, 73, 0
1, 324003, Note_off_c, 0, 31, 0
1, 324003, Note_off_c, 0, 29, 0
1, 324003, Note_off_c, 0, 85, 0
1, 324003, Note_off_c, 0, 43, 0
1, 324003, Note_off_c, 0, 31, 0
1, 324099, Note_off_c, 0, 55, 0
1, 324099, Note_off_c, 0, 67, 0
1, 324099, Note_on_c, 0, 33, 36
1, 324099, Note_on_c, 0, 45, 36
1, 324099, Note_on_c, 0, 86, 43
1, 324099, Note_on_c, 0, 57, 23
1, 324099, Note_on_c, 0, 31, 36
1, 324099, Note_on_c, 0, 33, 36
1, 324099, Note_on_c, 0, 74, 43
1, 324099, Note_on_c, 0, 45, 23
1, 324291, Note_off_c, 0, 33, 0
1, 324291, Note_off_c, 0, 31, 0
1, 324291, Note_off_c, 0, 45, 0
1, 324291, Note_off_c, 0, 33, 0
1, 324291, Note_on_c, 0, 33, 36
1, 324291, Note_on_c, 0, 45, 36
1, 324291, Note_on_c, 0, 31, 36
1, 324291, Note_on_c, 0, 33, 36
1, 324387, Note_off_c, 0, 45, 0
1, 324387, Note_off_c, 0, 74, 0
1, 324387, Note_off_c, 0, 57, 0
1, 324387, Note_off_c, 0, 86, 0
1, 324483, Note_off_c, 0, 33, 0
1, 324483, Note_off_c, 0, 31, 0
1, 324483, Note_off_c, 0, 45, 0
1, 324483, Note_off_c, 0, 33, 0
1, 324483, Note_on_c, 0, 33, 36
1, 324483, Note_on_c, 0, 45, 36
1, 324483, Note_on_c, 0, 85, 43
1, 324483, Note_on_c, 0, 64, 23
1, 324483, Note_on_c, 0, 31, 36
1, 324483, Note_on_c, 0, 33, 36
1, 324483, Note_on_c, 0, 73, 43
1, 324483, Note_on_c, 0, 52, 23
1, 324675, Note_off_c, 0, 52, 0
1, 324675, Note_off_c, 0, 64, 0
1, 324675, Note_on_c, 0, 69, 23
1, 324675, Note_on_c, 0, 57, 23
1, 324771, Note_off_c, 0, 73, 0
1, 324771, Note_off_c, 0, 33, 0
1, 324771, Note_off_c, 0, 31, 0
1, 324771, Note_off_c, 0, 85, 0
1, 324771, Note_off_c, 0, 45, 0
1, 324771, Note_off_c, 0, 33, 0
1, 324867, Note_off_c, 0, 57, 0
1, 324867, Note_off_c, 0, 69, 0
1, 324867, Note_on_c, 0, 33, 36
1, 324867, Note_on_c, 0, 45, 36
1, 324867, Note_on_c, 0, 86, 43
1, 324867, Note_on_c, 0, 57, 23
1, 324867, Note_on_c, 0, 31, 36
1, 324867, Note_on_c, 0, 33, 36
1, 324867, Note_on_c, 0, 74, 43
1, 324867, Note_on_c, 0, 45, 23
1, 324963, Note_off_c, 0, 33, 0
1, 324963, Note_off_c, 0, 31, 0
1, 324963, Note_off_c, 0, 45, 0
1, 324963, Note_off_c, 0, 33, 0
1, 324963, Note_on_c, 0, 33, 36
1, 324963, Note_on_c, 0, 45, 36
1, 324963, Note_on_c, 0, 31, 36
1, 324963, Note_on_c, 0, 33, 36
1, 325059, Note_off_c, 0, 33, 0
1, 325059, Note_off_c, 0, 31, 0
1, 325059, Note_off_c, 0, 45, 0
1, 325059, Note_off_c, 0, 33, 0
1, 325059, Note_on_c, 0, 33, 36
1, 325059, Note_on_c, 0, 45, 36
1, 325059, Note_on_c, 0, 31, 36
1, 325059, Note_on_c, 0, 33, 36
1, 325155, Note_off_c, 0, 33, 0
1, 325155, Note_off_c, 0, 31, 0
1, 325155, Note_off_c, 0, 45, 0
1, 325155, Note_off_c, 0, 33, 0
1, 325155, Note_off_c, 0, 45, 0
1, 325155, Note_off_c, 0, 74, 0
1, 325155, Note_off_c, 0, 57, 0
1, 325155, Note_off_c, 0, 86, 0
1, 325155, Note_on_c, 0, 33, 36
1, 325155, Note_on_c, 0, 45, 36
1, 325155, Note_on_c, 0, 31, 36
1, 325155, Note_on_c, 0, 33, 36
1, 325251, Note_off_c, 0, 33, 0
1, 325251, Note_off_c, 0, 31, 0
1, 325251, Note_off_c, 0, 45, 0
1, 325251, Note_off_c, 0, 33, 0
1, 325251, Note_on_c, 0, 33, 36
1, 325251, Note_on_c, 0, 45, 36
1, 325251, Note_on_c, 0, 85, 43
1, 325251, Note_on_c, 0, 64, 23
1, 325251, Note_on_c, 0, 31, 36
1, 325251, Note_on_c, 0, 33, 36
1, 325251, Note_on_c, 0, 73, 43
1, 325251, Note_on_c, 0, 52, 23
1, 325347, Note_off_c, 0, 33, 0
1, 325347, Note_off_c, 0, 31, 0
1, 325347, Note_off_c, 0, 45, 0
1, 325347, Note_off_c, 0, 33, 0
1, 325347, Note_on_c, 0, 33, 36
1, 325347, Note_on_c, 0, 45, 36
1, 325347, Note_on_c, 0, 31, 36
1, 325347, Note_on_c, 0, 33, 36
1, 325443, Note_off_c, 0, 33, 0
1, 325443, Note_off_c, 0, 31, 0
1, 325443, Note_off_c, 0, 45, 0
1, 325443, Note_off_c, 0, 33, 0
1, 325443, Note_off_c, 0, 52, 0
1, 325443, Note_off_c, 0, 64, 0
1, 325443, Note_on_c, 0, 33, 36
1, 325443, Note_on_c, 0, 45, 36
1, 325443, Note_on_c, 0, 69, 23
1, 325443, Note_on_c, 0, 31, 36
1, 325443, Note_on_c, 0, 33, 36
1, 325443, Note_on_c, 0, 57, 23
1, 325539, Note_off_c, 0, 33, 0
1, 325539, Note_off_c, 0, 31, 0
1, 325539, Note_off_c, 0, 45, 0
1, 325539, Note_off_c, 0, 33, 0
1, 325539, Note_off_c, 0, 73, 0
1, 325539, Note_off_c, 0, 85, 0
1, 325539, Note_on_c, 0, 33, 36
1, 325539, Note_on_c, 0, 45, 36
1, 325539, Note_on_c, 0, 31, 36
1, 325539, Note_on_c, 0, 33, 36
1, 325635, Note_off_c, 0, 33, 0
1, 325635, Note_off_c, 0, 31, 0
1, 325635, Note_off_c, 0, 45, 0
1, 325635, Note_off_c, 0, 33, 0
1, 325635, Note_off_c, 0, 57, 0
1, 325635, Note_off_c, 0, 69, 0
1, 325635, Note_on_c, 0, 35, 36
1, 325635, Note_on_c, 0, 47, 36
1, 325635, Note_on_c, 0, 78, 43
1, 325635, Note_on_c, 0, 85, 43
1, 325635, Note_on_c, 0, 59, 23
1, 325635, Note_on_c, 0, 24, 36
1, 325635, Note_on_c, 0, 35, 36
1, 325635, Note_on_c, 0, 66, 43
1, 325635, Note_on_c, 0, 73, 43
1, 325635, Note_on_c, 0, 47, 23
1, 325923, Note_off_c, 0, 47, 0
1, 325923, Note_off_c, 0, 35, 0
1, 325923, Note_off_c, 0, 24, 0
1, 325923, Note_off_c, 0, 59, 0
1, 325923, Note_off_c, 0, 47, 0
1, 325923, Note_off_c, 0, 35, 0
1, 326019, Note_on_c, 0, 35, 36
1, 326019, Note_on_c, 0, 47, 36
1, 326019, Note_on_c, 0, 66, 23
1, 326019, Note_on_c, 0, 24, 36
1, 326019, Note_on_c, 0, 35, 36
1, 326019, Note_on_c, 0, 54, 23
1, 326211, Note_off_c, 0, 54, 0
1, 326211, Note_off_c, 0, 66, 0
1, 326211, Note_on_c, 0, 71, 23
1, 326211, Note_on_c, 0, 59, 23
1, 326307, Note_off_c, 0, 35, 0
1, 326307, Note_off_c, 0, 24, 0
1, 326307, Note_off_c, 0, 47, 0
1, 326307, Note_off_c, 0, 35, 0
1, 326403, Note_off_c, 0, 59, 0
1, 326403, Note_off_c, 0, 71, 0
1, 326403, Note_on_c, 0, 35, 36
1, 326403, Note_on_c, 0, 47, 36
1, 326403, Note_on_c, 0, 59, 23
1, 326403, Note_on_c, 0, 24, 36
1, 326403, Note_on_c, 0, 35, 36
1, 326403, Note_on_c, 0, 47, 23
1, 326691, Note_off_c, 0, 47, 0
1, 326691, Note_off_c, 0, 35, 0
1, 326691, Note_off_c, 0, 24, 0
1, 326691, Note_off_c, 0, 59, 0
1, 326691, Note_off_c, 0, 47, 0
1, 326691, Note_off_c, 0, 35, 0
1, 326787, Note_on_c, 0, 35, 36
1, 326787, Note_on_c, 0, 47, 36
1, 326787, Note_on_c, 0, 66, 23
1, 326787, Note_on_c, 0, 24, 36
1, 326787, Note_on_c, 0, 35, 36
1, 326787, Note_on_c, 0, 54, 23
1, 326979, Note_off_c, 0, 54, 0
1, 326979, Note_off_c, 0, 66, 0
1, 326979, Note_on_c, 0, 71, 23
1, 326979, Note_on_c, 0, 59, 23
1, 327075, Note_off_c, 0, 35, 0
1, 327075, Note_off_c, 0, 24, 0
1, 327075, Note_off_c, 0, 47, 0
1, 327075, Note_off_c, 0, 35, 0
1, 327075, Note_off_c, 0, 73, 0
1, 327075, Note_off_c, 0, 66, 0
1, 327075, Note_off_c, 0, 85, 0
1, 327075, Note_off_c, 0, 78, 0
1, 327171, Note_off_c, 0, 59, 0
1, 327171, Note_off_c, 0, 71, 0
1, 327171, Note_on_c, 0, 35, 36
1, 327171, Note_on_c, 0, 47, 36
1, 327171, Note_on_c, 0, 85, 43
1, 327171, Note_on_c, 0, 78, 43
1, 327171, Note_on_c, 0, 59, 23
1, 327171, Note_on_c, 0, 24, 36
1, 327171, Note_on_c, 0, 35, 36
1, 327171, Note_on_c, 0, 73, 43
1, 327171, Note_on_c, 0, 66, 43
1, 327171, Note_on_c, 0, 47, 23
1, 327459, Note_off_c, 0, 47, 0
1, 327459, Note_off_c, 0, 35, 0
1, 327459, Note_off_c, 0, 24, 0
1, 327459, Note_off_c, 0, 59, 0
1, 327459, Note_off_c, 0, 47, 0
1, 327459, Note_off_c, 0, 35, 0
1, 327555, Note_on_c, 0, 35, 36
1, 327555, Note_on_c, 0, 47, 36
1, 327555, Note_on_c, 0, 66, 23
1, 327555, Note_on_c, 0, 24, 36
1, 327555, Note_on_c, 0, 35, 36
1, 327555, Note_on_c, 0, 54, 23
1, 327651, Note_off_c, 0, 73, 0
1, 327651, Note_off_c, 0, 85, 0
1, 327747, Note_off_c, 0, 54, 0
1, 327747, Note_off_c, 0, 66, 0
1, 327747, Note_on_c, 0, 83, 43
1, 327747, Note_on_c, 0, 71, 23
1, 327747, Note_on_c, 0, 71, 43
1, 327747, Note_on_c, 0, 59, 23
1, 327843, Note_off_c, 0, 35, 0
1, 327843, Note_off_c, 0, 24, 0
1, 327843, Note_off_c, 0, 47, 0
1, 327843, Note_off_c, 0, 35, 0
1, 327939, Note_off_c, 0, 59, 0
1, 327939, Note_off_c, 0, 71, 0
1, 327939, Note_on_c, 0, 35, 36
1, 327939, Note_on_c, 0, 47, 36
1, 327939, Note_on_c, 0, 59, 23
1, 327939, Note_on_c, 0, 24, 36
1, 327939, Note_on_c, 0, 35, 36
1, 327939, Note_on_c, 0, 47, 23
1, 328227, Note_off_c, 0, 47, 0
1, 328227, Note_off_c, 0, 35, 0
1, 328227, Note_off_c, 0, 24, 0
1, 328227, Note_off_c, 0, 59, 0
1, 328227, Note_off_c, 0, 47, 0
1, 328227, Note_off_c, 0, 35, 0
1, 328227, Note_off_c, 0, 71, 0
1, 328227, Note_off_c, 0, 83, 0
1, 328323, Note_on_c, 0, 35, 36
1, 328323, Note_on_c, 0, 47, 36
1, 328323, Note_on_c, 0, 90, 43
1, 328323, Note_on_c, 0, 66, 23
1, 328323, Note_on_c, 0, 24, 36
1, 328323, Note_on_c, 0, 35, 36
1, 328323, Note_on_c, 0, 78, 43
1, 328323, Note_on_c, 0, 54, 23
1, 328515, Note_off_c, 0, 54, 0
1, 328515, Note_off_c, 0, 35, 0
1, 328515, Note_off_c, 0, 24, 0
1, 328515, Note_off_c, 0, 66, 0
1, 328515, Note_off_c, 0, 47, 0
1, 328515, Note_off_c, 0, 35, 0
1, 328515, Note_on_c, 0, 35, 36
1, 328515, Note_on_c, 0, 47, 36
1, 328515, Note_on_c, 0, 71, 23
1, 328515, Note_on_c, 0, 24, 36
1, 328515, Note_on_c, 0, 35, 36
1, 328515, Note_on_c, 0, 59, 23
1, 328611, Note_off_c, 0, 78, 0
1, 328611, Note_off_c, 0, 90, 0
1, 328611, Note_off_c, 0, 66, 0
1, 328611, Note_off_c, 0, 78, 0
1, 328707, Note_off_c, 0, 59, 0
1, 328707, Note_off_c, 0, 35, 0
1, 328707, Note_off_c, 0, 24, 0
1, 328707, Note_off_c, 0, 71, 0
1, 328707, Note_off_c, 0, 47, 0
1, 328707, Note_off_c, 0, 35, 0
1, 328707, Note_on_c, 0, 33, 36
1, 328707, Note_on_c, 0, 45, 36
1, 328707, Note_on_c, 0, 78, 43
1, 328707, Note_on_c, 0, 85, 43
1, 328707, Note_on_c, 0, 57, 23
1, 328707, Note_on_c, 0, 31, 36
1, 328707, Note_on_c, 0, 33, 36
1, 328707, Note_on_c, 0, 66, 43
1, 328707, Note_on_c, 0, 73, 43
1, 328707, Note_on_c, 0, 45, 23
1, 328995, Note_off_c, 0, 45, 0
1, 328995, Note_off_c, 0, 33, 0
1, 328995, Note_off_c, 0, 31, 0
1, 328995, Note_off_c, 0, 57, 0
1, 328995, Note_off_c, 0, 45, 0
1, 328995, Note_off_c, 0, 33, 0
1, 329091, Note_on_c, 0, 33, 36
1, 329091, Note_on_c, 0, 45, 36
1, 329091, Note_on_c, 0, 64, 23
1, 329091, Note_on_c, 0, 31, 36
1, 329091, Note_on_c, 0, 33, 36
1, 329091, Note_on_c, 0, 52, 23
1, 329283, Note_off_c, 0, 52, 0
1, 329283, Note_off_c, 0, 64, 0
1, 329283, Note_on_c, 0, 69, 23
1, 329283, Note_on_c, 0, 57, 23
1, 329379, Note_off_c, 0, 33, 0
1, 329379, Note_off_c, 0, 31, 0
1, 329379, Note_off_c, 0, 45, 0
1, 329379, Note_off_c, 0, 33, 0
1, 329475, Note_off_c, 0, 57, 0
1, 329475, Note_off_c, 0, 69, 0
1, 329475, Note_on_c, 0, 33, 36
1, 329475, Note_on_c, 0, 45, 36
1, 329475, Note_on_c, 0, 57, 23
1, 329475, Note_on_c, 0, 31, 36
1, 329475, Note_on_c, 0, 33, 36
1, 329475, Note_on_c, 0, 45, 23
1, 329763, Note_off_c, 0, 45, 0
1, 329763, Note_off_c, 0, 33, 0
1, 329763, Note_off_c, 0, 31, 0
1, 329763, Note_off_c, 0, 57, 0
1, 329763, Note_off_c, 0, 45, 0
1, 329763, Note_off_c, 0, 33, 0
1, 329859, Note_on_c, 0, 33, 36
1, 329859, Note_on_c, 0, 45, 36
1, 329859, Note_on_c, 0, 64, 23
1, 329859, Note_on_c, 0, 31, 36
1, 329859, Note_on_c, 0, 33, 36
1, 329859, Note_on_c, 0, 52, 23
1, 330051, Note_off_c, 0, 52, 0
1, 330051, Note_off_c, 0, 64, 0
1, 330051, Note_on_c, 0, 69, 23
1, 330051, Note_on_c, 0, 57, 23
1, 330147, Note_off_c, 0, 33, 0
1, 330147, Note_off_c, 0, 31, 0
1, 330147, Note_off_c, 0, 45, 0
1, 330147, Note_off_c, 0, 33, 0
1, 330147, Note_off_c, 0, 73, 0
1, 330147, Note_off_c, 0, 66, 0
1, 330147, Note_off_c, 0, 85, 0
1, 330147, Note_off_c, 0, 78, 0
1, 330243, Note_off_c, 0, 57, 0
1, 330243, Note_off_c, 0, 69, 0
1, 330243, Note_on_c, 0, 33, 36
1, 330243, Note_on_c, 0, 45, 36
1, 330243, Note_on_c, 0, 85, 43
1, 330243, Note_on_c, 0, 78, 43
1, 330243, Note_on_c, 0, 57, 23
1, 330243, Note_on_c, 0, 31, 36
1, 330243, Note_on_c, 0, 33, 36
1, 330243, Note_on_c, 0, 73, 43
1, 330243, Note_on_c, 0, 66, 43
1, 330243, Note_on_c, 0, 45, 23
1, 330531, Note_off_c, 0, 45, 0
1, 330531, Note_off_c, 0, 33, 0
1, 330531, Note_off_c, 0, 31, 0
1, 330531, Note_off_c, 0, 57, 0
1, 330531, Note_off_c, 0, 45, 0
1, 330531, Note_off_c, 0, 33, 0
1, 330627, Note_on_c, 0, 33, 36
1, 330627, Note_on_c, 0, 45, 36
1, 330627, Note_on_c, 0, 64, 23
1, 330627, Note_on_c, 0, 31, 36
1, 330627, Note_on_c, 0, 33, 36
1, 330627, Note_on_c, 0, 52, 23
1, 330723, Note_off_c, 0, 73, 0
1, 330723, Note_off_c, 0, 85, 0
1, 330819, Note_off_c, 0, 52, 0
1, 330819, Note_off_c, 0, 64, 0
1, 330819, Note_on_c, 0, 83, 43
1, 330819, Note_on_c, 0, 69, 23
1, 330819, Note_on_c, 0, 71, 43
1, 330819, Note_on_c, 0, 57, 23
1, 330915, Note_off_c, 0, 33, 0
1, 330915, Note_off_c, 0, 31, 0
1, 330915, Note_off_c, 0, 45, 0
1, 330915, Note_off_c, 0, 33, 0
1, 331011, Note_off_c, 0, 57, 0
1, 331011, Note_off_c, 0, 69, 0
1, 331011, Note_on_c, 0, 33, 36
1, 331011, Note_on_c, 0, 45, 36
1, 331011, Note_on_c, 0, 57, 23
1, 331011, Note_on_c, 0, 31, 36
1, 331011, Note_on_c, 0, 33, 36
1, 331011, Note_on_c, 0, 45, 23
1, 331299, Note_off_c, 0, 45, 0
1, 331299, Note_off_c, 0, 33, 0
1, 331299, Note_off_c, 0, 31, 0
1, 331299, Note_off_c, 0, 57, 0
1, 331299, Note_off_c, 0, 45, 0
1, 331299, Note_off_c, 0, 33, 0
1, 331299, Note_off_c, 0, 71, 0
1, 331299, Note_off_c, 0, 83, 0
1, 331395, Note_on_c, 0, 33, 36
1, 331395, Note_on_c, 0, 45, 36
1, 331395, Note_on_c, 0, 90, 43
1, 331395, Note_on_c, 0, 64, 23
1, 331395, Note_on_c, 0, 31, 36
1, 331395, Note_on_c, 0, 33, 36
1, 331395, Note_on_c, 0, 78, 43
1, 331395, Note_on_c, 0, 52, 23
1, 331587, Note_off_c, 0, 52, 0
1, 331587, Note_off_c, 0, 33, 0
1, 331587, Note_off_c, 0, 31, 0
1, 331587, Note_off_c, 0, 64, 0
1, 331587, Note_off_c, 0, 45, 0
1, 331587, Note_off_c, 0, 33, 0
1, 331587, Note_on_c, 0, 33, 36
1, 331587, Note_on_c, 0, 45, 36
1, 331587, Note_on_c, 0, 69, 23
1, 331587, Note_on_c, 0, 31, 36
1, 331587, Note_on_c, 0, 33, 36
1, 331587, Note_on_c, 0, 57, 23
1, 331683, Note_off_c, 0, 78, 0
1, 331683, Note_off_c, 0, 90, 0
1, 331683, Note_off_c, 0, 66, 0
1, 331683, Note_off_c, 0, 78, 0
1, 331779, Note_off_c, 0, 57, 0
1, 331779, Note_off_c, 0, 33, 0
1, 331779, Note_off_c, 0, 31, 0
1, 331779, Note_off_c, 0, 69, 0
1, 331779, Note_off_c, 0, 45, 0
1, 331779, Note_off_c, 0, 33, 0
1, 331779, Note_on_c, 0, 32, 36
1, 331779, Note_on_c, 0, 44, 36
1, 331779, Note_on_c, 0, 78, 43
1, 331779, Note_on_c, 0, 85, 43
1, 331779, Note_on_c, 0, 56, 23
1, 331779, Note_on_c, 0, 30, 36
1, 331779, Note_on_c, 0, 32, 36
1, 331779, Note_on_c, 0, 66, 43
1, 331779, Note_on_c, 0, 73, 43
1, 331779, Note_on_c, 0, 44, 23
1, 332067, Note_off_c, 0, 44, 0
1, 332067, Note_off_c, 0, 32, 0
1, 332067, Note_off_c, 0, 30, 0
1, 332067, Note_off_c, 0, 56, 0
1, 332067, Note_off_c, 0, 44, 0
1, 332067, Note_off_c, 0, 32, 0
1, 332163, Note_on_c, 0, 32, 36
1, 332163, Note_on_c, 0, 44, 36
1, 332163, Note_on_c, 0, 64, 23
1, 332163, Note_on_c, 0, 30, 36
1, 332163, Note_on_c, 0, 32, 36
1, 332163, Note_on_c, 0, 52, 23
1, 332355, Note_off_c, 0, 52, 0
1, 332355, Note_off_c, 0, 64, 0
1, 332355, Note_on_c, 0, 68, 23
1, 332355, Note_on_c, 0, 56, 23
1, 332451, Note_off_c, 0, 32, 0
1, 332451, Note_off_c, 0, 30, 0
1, 332451, Note_off_c, 0, 44, 0
1, 332451, Note_off_c, 0, 32, 0
1, 332547, Note_off_c, 0, 56, 0
1, 332547, Note_off_c, 0, 68, 0
1, 332547, Note_on_c, 0, 32, 36
1, 332547, Note_on_c, 0, 44, 36
1, 332547, Note_on_c, 0, 56, 23
1, 332547, Note_on_c, 0, 30, 36
1, 332547, Note_on_c, 0, 32, 36
1, 332547, Note_on_c, 0, 44, 23
1, 332835, Note_off_c, 0, 44, 0
1, 332835, Note_off_c, 0, 32, 0
1, 332835, Note_off_c, 0, 30, 0
1, 332835, Note_off_c, 0, 56, 0
1, 332835, Note_off_c, 0, 44, 0
1, 332835, Note_off_c, 0, 32, 0
1, 332931, Note_on_c, 0, 32, 36
1, 332931, Note_on_c, 0, 44, 36
1, 332931, Note_on_c, 0, 64, 23
1, 332931, Note_on_c, 0, 30, 36
1, 332931, Note_on_c, 0, 32, 36
1, 332931, Note_on_c, 0, 52, 23
1, 333123, Note_off_c, 0, 52, 0
1, 333123, Note_off_c, 0, 64, 0
1, 333123, Note_on_c, 0, 68, 23
1, 333123, Note_on_c, 0, 56, 23
1, 333219, Note_off_c, 0, 32, 0
1, 333219, Note_off_c, 0, 30, 0
1, 333219, Note_off_c, 0, 44, 0
1, 333219, Note_off_c, 0, 32, 0
1, 333315, Note_off_c, 0, 56, 0
1, 333315, Note_off_c, 0, 68, 0
1, 333315, Note_on_c, 0, 32, 36
1, 333315, Note_on_c, 0, 44, 36
1, 333315, Note_on_c, 0, 56, 23
1, 333315, Note_on_c, 0, 30, 36
1, 333315, Note_on_c, 0, 32, 36
1, 333315, Note_on_c, 0, 44, 23
1, 333603, Note_off_c, 0, 44, 0
1, 333603, Note_off_c, 0, 32, 0
1, 333603, Note_off_c, 0, 30, 0
1, 333603, Note_off_c, 0, 56, 0
1, 333603, Note_off_c, 0, 44, 0
1, 333603, Note_off_c, 0, 32, 0
1, 333699, Note_on_c, 0, 32, 36
1, 333699, Note_on_c, 0, 44, 36
1, 333699, Note_on_c, 0, 64, 23
1, 333699, Note_on_c, 0, 30, 36
1, 333699, Note_on_c, 0, 32, 36
1, 333699, Note_on_c, 0, 52, 23
1, 333891, Note_off_c, 0, 52, 0
1, 333891, Note_off_c, 0, 64, 0
1, 333891, Note_on_c, 0, 68, 23
1, 333891, Note_on_c, 0, 56, 23
1, 333987, Note_off_c, 0, 32, 0
1, 333987, Note_off_c, 0, 30, 0
1, 333987, Note_off_c, 0, 44, 0
1, 333987, Note_off_c, 0, 32, 0
1, 334083, Note_off_c, 0, 56, 0
1, 334083, Note_off_c, 0, 68, 0
1, 334083, Note_on_c, 0, 32, 36
1, 334083, Note_on_c, 0, 44, 36
1, 334083, Note_on_c, 0, 56, 23
1, 334083, Note_on_c, 0, 30, 36
1, 334083, Note_on_c, 0, 32, 36
1, 334083, Note_on_c, 0, 44, 23
1, 334371, Note_off_c, 0, 44, 0
1, 334371, Note_off_c, 0, 32, 0
1, 334371, Note_off_c, 0, 30, 0
1, 334371, Note_off_c, 0, 56, 0
1, 334371, Note_off_c, 0, 44, 0
1, 334371, Note_off_c, 0, 32, 0
1, 334371, Note_off_c, 0, 73, 0
1, 334371, Note_off_c, 0, 66, 0
1, 334371, Note_off_c, 0, 85, 0
1, 334371, Note_off_c, 0, 78, 0
1, 334467, Note_on_c, 0, 32, 36
1, 334467, Note_on_c, 0, 44, 36
1, 334467, Note_on_c, 0, 83, 43
1, 334467, Note_on_c, 0, 64, 23
1, 334467, Note_on_c, 0, 30, 36
1, 334467, Note_on_c, 0, 32, 36
1, 334467, Note_on_c, 0, 71, 43
1, 334467, Note_on_c, 0, 52, 23
1, 334659, Note_off_c, 0, 52, 0
1, 334659, Note_off_c, 0, 32, 0
1, 334659, Note_off_c, 0, 30, 0
1, 334659, Note_off_c, 0, 64, 0
1, 334659, Note_off_c, 0, 44, 0
1, 334659, Note_off_c, 0, 32, 0
1, 334659, Note_on_c, 0, 32, 36
1, 334659, Note_on_c, 0, 44, 36
1, 334659, Note_on_c, 0, 68, 23
1, 334659, Note_on_c, 0, 30, 36
1, 334659, Note_on_c, 0, 32, 36
1, 334659, Note_on_c, 0, 56, 23
1, 334755, Note_off_c, 0, 71, 0
1, 334755, Note_off_c, 0, 83, 0
1, 334851, Note_off_c, 0, 56, 0
1, 334851, Note_off_c, 0, 32, 0
1, 334851, Note_off_c, 0, 30, 0
1, 334851, Note_off_c, 0, 68, 0
1, 334851, Note_off_c, 0, 44, 0
1, 334851, Note_off_c, 0, 32, 0
1, 334851, Note_on_c, 0, 31, 36
1, 334851, Note_on_c, 0, 43, 36
1, 334851, Note_on_c, 0, 83, 43
1, 334851, Note_on_c, 0, 55, 23
1, 334851, Note_on_c, 0, 29, 36
1, 334851, Note_on_c, 0, 31, 36
1, 334851, Note_on_c, 0, 71, 43
1, 334851, Note_on_c, 0, 43, 23
1, 335139, Note_off_c, 0, 43, 0
1, 335139, Note_off_c, 0, 71, 0
1, 335139, Note_off_c, 0, 31, 0
1, 335139, Note_off_c, 0, 29, 0
1, 335139, Note_off_c, 0, 55, 0
1, 335139, Note_off_c, 0, 83, 0
1, 335139, Note_off_c, 0, 43, 0
1, 335139, Note_off_c, 0, 31, 0
1, 335235, Note_on_c, 0, 31, 36
1, 335235, Note_on_c, 0, 43, 36
1, 335235, Note_on_c, 0, 85, 43
1, 335235, Note_on_c, 0, 62, 23
1, 335235, Note_on_c, 0, 29, 36
1, 335235, Note_on_c, 0, 31, 36
1, 335235, Note_on_c, 0, 73, 43
1, 335235, Note_on_c, 0, 50, 23
1, 335427, Note_off_c, 0, 50, 0
1, 335427, Note_off_c, 0, 31, 0
1, 335427, Note_off_c, 0, 29, 0
1, 335427, Note_off_c, 0, 62, 0
1, 335427, Note_off_c, 0, 43, 0
1, 335427, Note_off_c, 0, 31, 0
1, 335427, Note_on_c, 0, 31, 36
1, 335427, Note_on_c, 0, 43, 36
1, 335427, Note_on_c, 0, 67, 23
1, 335427, Note_on_c, 0, 29, 36
1, 335427, Note_on_c, 0, 31, 36
1, 335427, Note_on_c, 0, 55, 23
1, 335523, Note_off_c, 0, 73, 0
1, 335523, Note_off_c, 0, 85, 0
1, 335619, Note_off_c, 0, 55, 0
1, 335619, Note_off_c, 0, 67, 0
1, 335619, Note_on_c, 0, 86, 43
1, 335619, Note_on_c, 0, 55, 23
1, 335619, Note_on_c, 0, 74, 43
1, 335619, Note_on_c, 0, 43, 23
1, 335715, Note_off_c, 0, 31, 0
1, 335715, Note_off_c, 0, 29, 0
1, 335715, Note_off_c, 0, 43, 0
1, 335715, Note_off_c, 0, 31, 0
1, 335811, Note_on_c, 0, 31, 36
1, 335811, Note_on_c, 0, 43, 36
1, 335811, Note_on_c, 0, 29, 36
1, 335811, Note_on_c, 0, 31, 36
1, 335907, Note_off_c, 0, 43, 0
1, 335907, Note_off_c, 0, 74, 0
1, 335907, Note_off_c, 0, 55, 0
1, 335907, Note_off_c, 0, 86, 0
1, 336003, Note_off_c, 0, 31, 0
1, 336003, Note_off_c, 0, 29, 0
1, 336003, Note_off_c, 0, 43, 0
1, 336003, Note_off_c, 0, 31, 0
1, 336003, Note_on_c, 0, 31, 36
1, 336003, Note_on_c, 0, 43, 36
1, 336003, Note_on_c, 0, 90, 43
1, 336003, Note_on_c, 0, 62, 23
1, 336003, Note_on_c, 0, 29, 36
1, 336003, Note_on_c, 0, 31, 36
1, 336003, Note_on_c, 0, 78, 43
1, 336003, Note_on_c, 0, 50, 23
1, 336195, Note_off_c, 0, 50, 0
1, 336195, Note_off_c, 0, 62, 0
1, 336195, Note_on_c, 0, 67, 23
1, 336195, Note_on_c, 0, 55, 23
1, 336291, Note_off_c, 0, 78, 0
1, 336291, Note_off_c, 0, 31, 0
1, 336291, Note_off_c, 0, 29, 0
1, 336291, Note_off_c, 0, 90, 0
1, 336291, Note_off_c, 0, 43, 0
1, 336291, Note_off_c, 0, 31, 0
1, 336387, Note_off_c, 0, 55, 0
1, 336387, Note_off_c, 0, 67, 0
1, 336387, Note_on_c, 0, 71, 36
1, 336387, Note_on_c, 0, 33, 36
1, 336387, Note_on_c, 0, 45, 36
1, 336387, Note_on_c, 0, 81, 43
1, 336387, Note_on_c, 0, 57, 23
1, 336387, Note_on_c, 0, 59, 36
1, 336387, Note_on_c, 0, 31, 36
1, 336387, Note_on_c, 0, 33, 36
1, 336387, Note_on_c, 0, 69, 43
1, 336387, Note_on_c, 0, 45, 23
1, 336579, Note_off_c, 0, 33, 0
1, 336579, Note_off_c, 0, 31, 0
1, 336579, Note_off_c, 0, 45, 0
1, 336579, Note_off_c, 0, 33, 0
1, 336579, Note_on_c, 0, 33, 36
1, 336579, Note_on_c, 0, 45, 36
1, 336579, Note_on_c, 0, 31, 36
1, 336579, Note_on_c, 0, 33, 36
1, 336675, Note_off_c, 0, 45, 0
1, 336675, Note_off_c, 0, 69, 0
1, 336675, Note_off_c, 0, 57, 0
1, 336675, Note_off_c, 0, 81, 0
1, 336771, Note_off_c, 0, 33, 0
1, 336771, Note_off_c, 0, 31, 0
1, 336771, Note_off_c, 0, 45, 0
1, 336771, Note_off_c, 0, 33, 0
1, 336771, Note_on_c, 0, 33, 36
1, 336771, Note_on_c, 0, 45, 36
1, 336771, Note_on_c, 0, 76, 43
1, 336771, Note_on_c, 0, 64, 23
1, 336771, Note_on_c, 0, 31, 36
1, 336771, Note_on_c, 0, 33, 36
1, 336771, Note_on_c, 0, 64, 43
1, 336771, Note_on_c, 0, 52, 23
1, 336867, Note_off_c, 0, 59, 0
1, 336867, Note_off_c, 0, 71, 0
1, 336963, Note_off_c, 0, 52, 0
1, 336963, Note_off_c, 0, 64, 0
1, 336963, Note_on_c, 0, 71, 36
1, 336963, Note_on_c, 0, 69, 23
1, 336963, Note_on_c, 0, 59, 36
1, 336963, Note_on_c, 0, 57, 23
1, 337059, Note_off_c, 0, 64, 0
1, 337059, Note_off_c, 0, 33, 0
1, 337059, Note_off_c, 0, 31, 0
1, 337059, Note_off_c, 0, 76, 0
1, 337059, Note_off_c, 0, 45, 0
1, 337059, Note_off_c, 0, 33, 0
1, 337155, Note_off_c, 0, 57, 0
1, 337155, Note_off_c, 0, 69, 0
1, 337155, Note_on_c, 0, 33, 36
1, 337155, Note_on_c, 0, 45, 36
1, 337155, Note_on_c, 0, 78, 43
1, 337155, Note_on_c, 0, 57, 23
1, 337155, Note_on_c, 0, 31, 36
1, 337155, Note_on_c, 0, 33, 36
1, 337155, Note_on_c, 0, 66, 43
1, 337155, Note_on_c, 0, 45, 23
1, 337251, Note_off_c, 0, 33, 0
1, 337251, Note_off_c, 0, 31, 0
1, 337251, Note_off_c, 0, 45, 0
1, 337251, Note_off_c, 0, 33, 0
1, 337251, Note_on_c, 0, 33, 36
1, 337251, Note_on_c, 0, 45, 36
1, 337251, Note_on_c, 0, 31, 36
1, 337251, Note_on_c, 0, 33, 36
1, 337347, Note_off_c, 0, 33, 0
1, 337347, Note_off_c, 0, 31, 0
1, 337347, Note_off_c, 0, 45, 0
1, 337347, Note_off_c, 0, 33, 0
1, 337347, Note_on_c, 0, 33, 36
1, 337347, Note_on_c, 0, 45, 36
1, 337347, Note_on_c, 0, 31, 36
1, 337347, Note_on_c, 0, 33, 36
1, 337443, Note_off_c, 0, 33, 0
1, 337443, Note_off_c, 0, 31, 0
1, 337443, Note_off_c, 0, 45, 0
1, 337443, Note_off_c, 0, 33, 0
1, 337443, Note_off_c, 0, 45, 0
1, 337443, Note_off_c, 0, 66, 0
1, 337443, Note_off_c, 0, 57, 0
1, 337443, Note_off_c, 0, 78, 0
1, 337443, Note_off_c, 0, 59, 0
1, 337443, Note_off_c, 0, 71, 0
1, 337443, Note_on_c, 0, 33, 36
1, 337443, Note_on_c, 0, 45, 36
1, 337443, Note_on_c, 0, 31, 36
1, 337443, Note_on_c, 0, 33, 36
1, 337539, Note_off_c, 0, 33, 0
1, 337539, Note_off_c, 0, 31, 0
1, 337539, Note_off_c, 0, 45, 0
1, 337539, Note_off_c, 0, 33, 0
1, 337539, Note_on_c, 0, 71, 36
1, 337539, Note_on_c, 0, 33, 36
1, 337539, Note_on_c, 0, 45, 36
1, 337539, Note_on_c, 0, 83, 43
1, 337539, Note_on_c, 0, 64, 23
1, 337539, Note_on_c, 0, 59, 36
1, 337539, Note_on_c, 0, 31, 36
1, 337539, Note_on_c, 0, 33, 36
1, 337539, Note_on_c, 0, 71, 43
1, 337539, Note_on_c, 0, 52, 23
1, 337635, Note_off_c, 0, 33, 0
1, 337635, Note_off_c, 0, 31, 0
1, 337635, Note_off_c, 0, 45, 0
1, 337635, Note_off_c, 0, 33, 0
1, 337635, Note_on_c, 0, 33, 36
1, 337635, Note_on_c, 0, 45, 36
1, 337635, Note_on_c, 0, 31, 36
1, 337635, Note_on_c, 0, 33, 36
1, 337731, Note_off_c, 0, 33, 0
1, 337731, Note_off_c, 0, 31, 0
1, 337731, Note_off_c, 0, 45, 0
1, 337731, Note_off_c, 0, 33, 0
1, 337731, Note_off_c, 0, 52, 0
1, 337731, Note_off_c, 0, 64, 0
1, 337731, Note_on_c, 0, 33, 36
1, 337731, Note_on_c, 0, 45, 36
1, 337731, Note_on_c, 0, 69, 23
1, 337731, Note_on_c, 0, 31, 36
1, 337731, Note_on_c, 0, 33, 36
1, 337731, Note_on_c, 0, 57, 23
1, 337827, Note_off_c, 0, 33, 0
1, 337827, Note_off_c, 0, 31, 0
1, 337827, Note_off_c, 0, 45, 0
1, 337827, Note_off_c, 0, 33, 0
1, 337827, Note_off_c, 0, 71, 0
1, 337827, Note_off_c, 0, 59, 0
1, 337827, Note_off_c, 0, 83, 0
1, 337827, Note_off_c, 0, 71, 0
1, 337827, Note_on_c, 0, 33, 36
1, 337827, Note_on_c, 0, 45, 36
1, 337827, Note_on_c, 0, 31, 36
1, 337827, Note_on_c, 0, 33, 36
1, 337923, Note_off_c, 0, 33, 0
1, 337923, Note_off_c, 0, 31, 0
1, 337923, Note_off_c, 0, 45, 0
1, 337923, Note_off_c, 0, 33, 0
1, 337923, Note_off_c, 0, 57, 0
1, 337923, Note_off_c, 0, 69, 0
1, 337923, Note_on_c, 0, 71, 36
1, 337923, Note_on_c, 0, 35, 36
1, 337923, Note_on_c, 0, 47, 36
1, 337923, Note_on_c, 0, 78, 43
1, 337923, Note_on_c, 0, 85, 43
1, 337923, Note_on_c, 0, 59, 23
1, 337923, Note_on_c, 0, 59, 36
1, 337923, Note_on_c, 0, 24, 36
1, 337923, Note_on_c, 0, 35, 36
1, 337923, Note_on_c, 0, 66, 43
1, 337923, Note_on_c, 0, 73, 43
1, 337923, Note_on_c, 0, 47, 23
1, 338115, Note_off_c, 0, 35, 0
1, 338115, Note_off_c, 0, 24, 0
1, 338115, Note_off_c, 0, 59, 0
1, 338115, Note_off_c, 0, 47, 0
1, 338115, Note_off_c, 0, 35, 0
1, 338115, Note_off_c, 0, 71, 0
1, 338115, Note_on_c, 0, 71, 36
1, 338115, Note_on_c, 0, 35, 36
1, 338115, Note_on_c, 0, 47, 36
1, 338115, Note_on_c, 0, 59, 36
1, 338115, Note_on_c, 0, 24, 36
1, 338115, Note_on_c, 0, 35, 36
1, 338211, Note_off_c, 0, 47, 0
1, 338211, Note_off_c, 0, 59, 0
1, 338307, Note_off_c, 0, 35, 0
1, 338307, Note_off_c, 0, 24, 0
1, 338307, Note_off_c, 0, 59, 0
1, 338307, Note_off_c, 0, 47, 0
1, 338307, Note_off_c, 0, 35, 0
1, 338307, Note_off_c, 0, 71, 0
1, 338307, Note_on_c, 0, 71, 36
1, 338307, Note_on_c, 0, 35, 36
1, 338307, Note_on_c, 0, 47, 36
1, 338307, Note_on_c, 0, 66, 23
1, 338307, Note_on_c, 0, 59, 36
1, 338307, Note_on_c, 0, 24, 36
1, 338307, Note_on_c, 0, 35, 36
1, 338307, Note_on_c, 0, 54, 23
1, 338499, Note_off_c, 0, 54, 0
1, 338499, Note_off_c, 0, 35, 0
1, 338499, Note_off_c, 0, 24, 0
1, 338499, Note_off_c, 0, 59, 0
1, 338499, Note_off_c, 0, 66, 0
1, 338499, Note_off_c, 0, 47, 0
1, 338499, Note_off_c, 0, 35, 0
1, 338499, Note_off_c, 0, 71, 0
1, 338499, Note_on_c, 0, 71, 36
1, 338499, Note_on_c, 0, 35, 36
1, 338499, Note_on_c, 0, 47, 36
1, 338499, Note_on_c, 0, 71, 23
1, 338499, Note_on_c, 0, 59, 36
1, 338499, Note_on_c, 0, 24, 36
1, 338499, Note_on_c, 0, 35, 36
1, 338499, Note_on_c, 0, 59, 23
1, 338691, Note_off_c, 0, 59, 0
1, 338691, Note_off_c, 0, 35, 0
1, 338691, Note_off_c, 0, 24, 0
1, 338691, Note_off_c, 0, 59, 0
1, 338691, Note_off_c, 0, 71, 0
1, 338691, Note_off_c, 0, 47, 0
1, 338691, Note_off_c, 0, 35, 0
1, 338691, Note_off_c, 0, 71, 0
1, 338691, Note_on_c, 0, 71, 36
1, 338691, Note_on_c, 0, 35, 36
1, 338691, Note_on_c, 0, 47, 36
1, 338691, Note_on_c, 0, 59, 23
1, 338691, Note_on_c, 0, 59, 36
1, 338691, Note_on_c, 0, 24, 36
1, 338691, Note_on_c, 0, 35, 36
1, 338691, Note_on_c, 0, 47, 23
1, 338883, Note_off_c, 0, 35, 0
1, 338883, Note_off_c, 0, 24, 0
1, 338883, Note_off_c, 0, 59, 0
1, 338883, Note_off_c, 0, 47, 0
1, 338883, Note_off_c, 0, 35, 0
1, 338883, Note_off_c, 0, 71, 0
1, 338883, Note_on_c, 0, 71, 36
1, 338883, Note_on_c, 0, 35, 36
1, 338883, Note_on_c, 0, 47, 36
1, 338883, Note_on_c, 0, 59, 36
1, 338883, Note_on_c, 0, 24, 36
1, 338883, Note_on_c, 0, 35, 36
1, 338979, Note_off_c, 0, 47, 0
1, 338979, Note_off_c, 0, 59, 0
1, 339075, Note_off_c, 0, 35, 0
1, 339075, Note_off_c, 0, 24, 0
1, 339075, Note_off_c, 0, 59, 0
1, 339075, Note_off_c, 0, 47, 0
1, 339075, Note_off_c, 0, 35, 0
1, 339075, Note_off_c, 0, 71, 0
1, 339075, Note_on_c, 0, 71, 36
1, 339075, Note_on_c, 0, 35, 36
1, 339075, Note_on_c, 0, 47, 36
1, 339075, Note_on_c, 0, 66, 23
1, 339075, Note_on_c, 0, 59, 36
1, 339075, Note_on_c, 0, 24, 36
1, 339075, Note_on_c, 0, 35, 36
1, 339075, Note_on_c, 0, 54, 23
1, 339267, Note_off_c, 0, 54, 0
1, 339267, Note_off_c, 0, 35, 0
1, 339267, Note_off_c, 0, 24, 0
1, 339267, Note_off_c, 0, 59, 0
1, 339267, Note_off_c, 0, 66, 0
1, 339267, Note_off_c, 0, 47, 0
1, 339267, Note_off_c, 0, 35, 0
1, 339267, Note_off_c, 0, 71, 0
1, 339267, Note_on_c, 0, 71, 36
1, 339267, Note_on_c, 0, 35, 36
1, 339267, Note_on_c, 0, 47, 36
1, 339267, Note_on_c, 0, 71, 23
1, 339267, Note_on_c, 0, 59, 36
1, 339267, Note_on_c, 0, 24, 36
1, 339267, Note_on_c, 0, 35, 36
1, 339267, Note_on_c, 0, 59, 23
1, 339363, Note_off_c, 0, 73, 0
1, 339363, Note_off_c, 0, 66, 0
1, 339363, Note_off_c, 0, 85, 0
1, 339363, Note_off_c, 0, 78, 0
1, 339459, Note_off_c, 0, 59, 0
1, 339459, Note_off_c, 0, 35, 0
1, 339459, Note_off_c, 0, 24, 0
1, 339459, Note_off_c, 0, 59, 0
1, 339459, Note_off_c, 0, 71, 0
1, 339459, Note_off_c, 0, 47, 0
1, 339459, Note_off_c, 0, 35, 0
1, 339459, Note_off_c, 0, 71, 0
1, 339459, Note_on_c, 0, 71, 36
1, 339459, Note_on_c, 0, 35, 36
1, 339459, Note_on_c, 0, 47, 36
1, 339459, Note_on_c, 0, 85, 43
1, 339459, Note_on_c, 0, 78, 43
1, 339459, Note_on_c, 0, 59, 23
1, 339459, Note_on_c, 0, 59, 36
1, 339459, Note_on_c, 0, 24, 36
1, 339459, Note_on_c, 0, 35, 36
1, 339459, Note_on_c, 0, 73, 43
1, 339459, Note_on_c, 0, 66, 43
1, 339459, Note_on_c, 0, 47, 23
1, 339651, Note_off_c, 0, 35, 0
1, 339651, Note_off_c, 0, 24, 0
1, 339651, Note_off_c, 0, 59, 0
1, 339651, Note_off_c, 0, 47, 0
1, 339651, Note_off_c, 0, 35, 0
1, 339651, Note_off_c, 0, 71, 0
1, 339651, Note_on_c, 0, 71, 36
1, 339651, Note_on_c, 0, 35, 36
1, 339651, Note_on_c, 0, 47, 36
1, 339651, Note_on_c, 0, 59, 36
1, 339651, Note_on_c, 0, 24, 36
1, 339651, Note_on_c, 0, 35, 36
1, 339747, Note_off_c, 0, 47, 0
1, 339747, Note_off_c, 0, 59, 0
1, 339843, Note_off_c, 0, 35, 0
1, 339843, Note_off_c, 0, 24, 0
1, 339843, Note_off_c, 0, 59, 0
1, 339843, Note_off_c, 0, 47, 0
1, 339843, Note_off_c, 0, 35, 0
1, 339843, Note_off_c, 0, 71, 0
1, 339843, Note_on_c, 0, 71, 36
1, 339843, Note_on_c, 0, 35, 36
1, 339843, Note_on_c, 0, 47, 36
1, 339843, Note_on_c, 0, 66, 23
1, 339843, Note_on_c, 0, 59, 36
1, 339843, Note_on_c, 0, 24, 36
1, 339843, Note_on_c, 0, 35, 36
1, 339843, Note_on_c, 0, 54, 23
1, 339939, Note_off_c, 0, 73, 0
1, 339939, Note_off_c, 0, 85, 0
1, 340035, Note_off_c, 0, 54, 0
1, 340035, Note_off_c, 0, 35, 0
1, 340035, Note_off_c, 0, 24, 0
1, 340035, Note_off_c, 0, 59, 0
1, 340035, Note_off_c, 0, 66, 0
1, 340035, Note_off_c, 0, 47, 0
1, 340035, Note_off_c, 0, 35, 0
1, 340035, Note_off_c, 0, 71, 0
1, 340035, Note_on_c, 0, 71, 36
1, 340035, Note_on_c, 0, 35, 36
1, 340035, Note_on_c, 0, 47, 36
1, 340035, Note_on_c, 0, 83, 43
1, 340035, Note_on_c, 0, 71, 23
1, 340035, Note_on_c, 0, 59, 36
1, 340035, Note_on_c, 0, 24, 36
1, 340035, Note_on_c, 0, 35, 36
1, 340035, Note_on_c, 0, 71, 43
1, 340035, Note_on_c, 0, 59, 23
1, 340227, Note_off_c, 0, 59, 0
1, 340227, Note_off_c, 0, 35, 0
1, 340227, Note_off_c, 0, 24, 0
1, 340227, Note_off_c, 0, 59, 0
1, 340227, Note_off_c, 0, 71, 0
1, 340227, Note_off_c, 0, 47, 0
1, 340227, Note_off_c, 0, 35, 0
1, 340227, Note_off_c, 0, 71, 0
1, 340227, Note_on_c, 0, 71, 36
1, 340227, Note_on_c, 0, 35, 36
1, 340227, Note_on_c, 0, 47, 36
1, 340227, Note_on_c, 0, 59, 23
1, 340227, Note_on_c, 0, 59, 36
1, 340227, Note_on_c, 0, 24, 36
1, 340227, Note_on_c, 0, 35, 36
1, 340227, Note_on_c, 0, 47, 23
1, 340419, Note_off_c, 0, 35, 0
1, 340419, Note_off_c, 0, 24, 0
1, 340419, Note_off_c, 0, 59, 0
1, 340419, Note_off_c, 0, 47, 0
1, 340419, Note_off_c, 0, 35, 0
1, 340419, Note_off_c, 0, 71, 0
1, 340419, Note_on_c, 0, 71, 36
1, 340419, Note_on_c, 0, 35, 36
1, 340419, Note_on_c, 0, 47, 36
1, 340419, Note_on_c, 0, 59, 36
1, 340419, Note_on_c, 0, 24, 36
1, 340419, Note_on_c, 0, 35, 36
1, 340515, Note_off_c, 0, 47, 0
1, 340515, Note_off_c, 0, 59, 0
1, 340515, Note_off_c, 0, 71, 0
1, 340515, Note_off_c, 0, 83, 0
1, 340611, Note_off_c, 0, 35, 0
1, 340611, Note_off_c, 0, 24, 0
1, 340611, Note_off_c, 0, 59, 0
1, 340611, Note_off_c, 0, 47, 0
1, 340611, Note_off_c, 0, 35, 0
1, 340611, Note_off_c, 0, 71, 0
1, 340611, Note_on_c, 0, 71, 36
1, 340611, Note_on_c, 0, 35, 36
1, 340611, Note_on_c, 0, 47, 36
1, 340611, Note_on_c, 0, 90, 43
1, 340611, Note_on_c, 0, 66, 23
1, 340611, Note_on_c, 0, 59, 36
1, 340611, Note_on_c, 0, 24, 36
1, 340611, Note_on_c, 0, 35, 36
1, 340611, Note_on_c, 0, 78, 43
1, 340611, Note_on_c, 0, 54, 23
1, 340803, Note_off_c, 0, 54, 0
1, 340803, Note_off_c, 0, 35, 0
1, 340803, Note_off_c, 0, 24, 0
1, 340803, Note_off_c, 0, 59, 0
1, 340803, Note_off_c, 0, 66, 0
1, 340803, Note_off_c, 0, 47, 0
1, 340803, Note_off_c, 0, 35, 0
1, 340803, Note_off_c, 0, 71, 0
1, 340803, Note_on_c, 0, 71, 36
1, 340803, Note_on_c, 0, 35, 36
1, 340803, Note_on_c, 0, 47, 36
1, 340803, Note_on_c, 0, 71, 23
1, 340803, Note_on_c, 0, 59, 36
1, 340803, Note_on_c, 0, 24, 36
1, 340803, Note_on_c, 0, 35, 36
1, 340803, Note_on_c, 0, 59, 23
1, 340899, Note_off_c, 0, 78, 0
1, 340899, Note_off_c, 0, 90, 0
1, 340899, Note_off_c, 0, 66, 0
1, 340899, Note_off_c, 0, 78, 0
1, 340995, Note_off_c, 0, 59, 0
1, 340995, Note_off_c, 0, 35, 0
1, 340995, Note_off_c, 0, 24, 0
1, 340995, Note_off_c, 0, 59, 0
1, 340995, Note_off_c, 0, 71, 0
1, 340995, Note_off_c, 0, 47, 0
1, 340995, Note_off_c, 0, 35, 0
1, 340995, Note_off_c, 0, 71, 0
1, 340995, Note_on_c, 0, 71, 36
1, 340995, Note_on_c, 0, 33, 36
1, 340995, Note_on_c, 0, 45, 36
1, 340995, Note_on_c, 0, 78, 43
1, 340995, Note_on_c, 0, 85, 43
1, 340995, Note_on_c, 0, 57, 23
1, 340995, Note_on_c, 0, 59, 36
1, 340995, Note_on_c, 0, 31, 36
1, 340995, Note_on_c, 0, 33, 36
1, 340995, Note_on_c, 0, 66, 43
1, 340995, Note_on_c, 0, 73, 43
1, 340995, Note_on_c, 0, 45, 23
1, 341187, Note_off_c, 0, 33, 0
1, 341187, Note_off_c, 0, 31, 0
1, 341187, Note_off_c, 0, 59, 0
1, 341187, Note_off_c, 0, 45, 0
1, 341187, Note_off_c, 0, 33, 0
1, 341187, Note_off_c, 0, 71, 0
1, 341187, Note_on_c, 0, 71, 36
1, 341187, Note_on_c, 0, 33, 36
1, 341187, Note_on_c, 0, 45, 36
1, 341187, Note_on_c, 0, 59, 36
1, 341187, Note_on_c, 0, 31, 36
1, 341187, Note_on_c, 0, 33, 36
1, 341283, Note_off_c, 0, 45, 0
1, 341283, Note_off_c, 0, 57, 0
1, 341379, Note_off_c, 0, 33, 0
1, 341379, Note_off_c, 0, 31, 0
1, 341379, Note_off_c, 0, 59, 0
1, 341379, Note_off_c, 0, 45, 0
1, 341379, Note_off_c, 0, 33, 0
1, 341379, Note_off_c, 0, 71, 0
1, 341379, Note_on_c, 0, 71, 36
1, 341379, Note_on_c, 0, 33, 36
1, 341379, Note_on_c, 0, 45, 36
1, 341379, Note_on_c, 0, 64, 23
1, 341379, Note_on_c, 0, 59, 36
1, 341379, Note_on_c, 0, 31, 36
1, 341379, Note_on_c, 0, 33, 36
1, 341379, Note_on_c, 0, 52, 23
1, 341571, Note_off_c, 0, 52, 0
1, 341571, Note_off_c, 0, 33, 0
1, 341571, Note_off_c, 0, 31, 0
1, 341571, Note_off_c, 0, 59, 0
1, 341571, Note_off_c, 0, 64, 0
1, 341571, Note_off_c, 0, 45, 0
1, 341571, Note_off_c, 0, 33, 0
1, 341571, Note_off_c, 0, 71, 0
1, 341571, Note_on_c, 0, 71, 36
1, 341571, Note_on_c, 0, 33, 36
1, 341571, Note_on_c, 0, 45, 36
1, 341571, Note_on_c, 0, 69, 23
1, 341571, Note_on_c, 0, 59, 36
1, 341571, Note_on_c, 0, 31, 36
1, 341571, Note_on_c, 0, 33, 36
1, 341571, Note_on_c, 0, 57, 23
1, 341763, Note_off_c, 0, 57, 0
1, 341763, Note_off_c, 0, 33, 0
1, 341763, Note_off_c, 0, 31, 0
1, 341763, Note_off_c, 0, 59, 0
1, 341763, Note_off_c, 0, 69, 0
1, 341763, Note_off_c, 0, 45, 0
1, 341763, Note_off_c, 0, 33, 0
1, 341763, Note_off_c, 0, 71, 0
1, 341763, Note_on_c, 0, 71, 36
1, 341763, Note_on_c, 0, 33, 36
1, 341763, Note_on_c, 0, 45, 36
1, 341763, Note_on_c, 0, 57, 23
1, 341763, Note_on_c, 0, 59, 36
1, 341763, Note_on_c, 0, 31, 36
1, 341763, Note_on_c, 0, 33, 36
1, 341763, Note_on_c, 0, 45, 23
1, 341955, Note_off_c, 0, 33, 0
1, 341955, Note_off_c, 0, 31, 0
1, 341955, Note_off_c, 0, 59, 0
1, 341955, Note_off_c, 0, 45, 0
1, 341955, Note_off_c, 0, 33, 0
1, 341955, Note_off_c, 0, 71, 0
1, 341955, Note_on_c, 0, 71, 36
1, 341955, Note_on_c, 0, 33, 36
1, 341955, Note_on_c, 0, 45, 36
1, 341955, Note_on_c, 0, 59, 36
1, 341955, Note_on_c, 0, 31, 36
1, 341955, Note_on_c, 0, 33, 36
1, 342051, Note_off_c, 0, 45, 0
1, 342051, Note_off_c, 0, 57, 0
1, 342147, Note_off_c, 0, 33, 0
1, 342147, Note_off_c, 0, 31, 0
1, 342147, Note_off_c, 0, 59, 0
1, 342147, Note_off_c, 0, 45, 0
1, 342147, Note_off_c, 0, 33, 0
1, 342147, Note_off_c, 0, 71, 0
1, 342147, Note_on_c, 0, 71, 36
1, 342147, Note_on_c, 0, 33, 36
1, 342147, Note_on_c, 0, 45, 36
1, 342147, Note_on_c, 0, 64, 23
1, 342147, Note_on_c, 0, 59, 36
1, 342147, Note_on_c, 0, 31, 36
1, 342147, Note_on_c, 0, 33, 36
1, 342147, Note_on_c, 0, 52, 23
1, 342339, Note_off_c, 0, 52, 0
1, 342339, Note_off_c, 0, 33, 0
1, 342339, Note_off_c, 0, 31, 0
1, 342339, Note_off_c, 0, 59, 0
1, 342339, Note_off_c, 0, 64, 0
1, 342339, Note_off_c, 0, 45, 0
1, 342339, Note_off_c, 0, 33, 0
1, 342339, Note_off_c, 0, 71, 0
1, 342339, Note_on_c, 0, 71, 36
1, 342339, Note_on_c, 0, 33, 36
1, 342339, Note_on_c, 0, 45, 36
1, 342339, Note_on_c, 0, 69, 23
1, 342339, Note_on_c, 0, 59, 36
1, 342339, Note_on_c, 0, 31, 36
1, 342339, Note_on_c, 0, 33, 36
1, 342339, Note_on_c, 0, 57, 23
1, 342435, Note_off_c, 0, 73, 0
1, 342435, Note_off_c, 0, 66, 0
1, 342435, Note_off_c, 0, 85, 0
1, 342435, Note_off_c, 0, 78, 0
1, 342531, Note_off_c, 0, 57, 0
1, 342531, Note_off_c, 0, 33, 0
1, 342531, Note_off_c, 0, 31, 0
1, 342531, Note_off_c, 0, 59, 0
1, 342531, Note_off_c, 0, 69, 0
1, 342531, Note_off_c, 0, 45, 0
1, 342531, Note_off_c, 0, 33, 0
1, 342531, Note_off_c, 0, 71, 0
1, 342531, Note_on_c, 0, 71, 36
1, 342531, Note_on_c, 0, 33, 36
1, 342531, Note_on_c, 0, 45, 36
1, 342531, Note_on_c, 0, 85, 43
1, 342531, Note_on_c, 0, 78, 43
1, 342531, Note_on_c, 0, 57, 23
1, 342531, Note_on_c, 0, 59, 36
1, 342531, Note_on_c, 0, 31, 36
1, 342531, Note_on_c, 0, 33, 36
1, 342531, Note_on_c, 0, 73, 43
1, 342531, Note_on_c, 0, 66, 43
1, 342531, Note_on_c, 0, 45, 23
1, 342723, Note_off_c, 0, 33, 0
1, 342723, Note_off_c, 0, 31, 0
1, 342723, Note_off_c, 0, 59, 0
1, 342723, Note_off_c, 0, 45, 0
1, 342723, Note_off_c, 0, 33, 0
1, 342723, Note_off_c, 0, 71, 0
1, 342723, Note_on_c, 0, 71, 36
1, 342723, Note_on_c, 0, 33, 36
1, 342723, Note_on_c, 0, 45, 36
1, 342723, Note_on_c, 0, 59, 36
1, 342723, Note_on_c, 0, 31, 36
1, 342723, Note_on_c, 0, 33, 36
1, 342819, Note_off_c, 0, 45, 0
1, 342819, Note_off_c, 0, 57, 0
1, 342915, Note_off_c, 0, 33, 0
1, 342915, Note_off_c, 0, 31, 0
1, 342915, Note_off_c, 0, 59, 0
1, 342915, Note_off_c, 0, 45, 0
1, 342915, Note_off_c, 0, 33, 0
1, 342915, Note_off_c, 0, 71, 0
1, 342915, Note_on_c, 0, 71, 36
1, 342915, Note_on_c, 0, 33, 36
1, 342915, Note_on_c, 0, 45, 36
1, 342915, Note_on_c, 0, 64, 23
1, 342915, Note_on_c, 0, 59, 36
1, 342915, Note_on_c, 0, 31, 36
1, 342915, Note_on_c, 0, 33, 36
1, 342915, Note_on_c, 0, 52, 23
1, 343011, Note_off_c, 0, 73, 0
1, 343011, Note_off_c, 0, 85, 0
1, 343107, Note_off_c, 0, 52, 0
1, 343107, Note_off_c, 0, 33, 0
1, 343107, Note_off_c, 0, 31, 0
1, 343107, Note_off_c, 0, 59, 0
1, 343107, Note_off_c, 0, 64, 0
1, 343107, Note_off_c, 0, 45, 0
1, 343107, Note_off_c, 0, 33, 0
1, 343107, Note_off_c, 0, 71, 0
1, 343107, Note_on_c, 0, 71, 36
1, 343107, Note_on_c, 0, 33, 36
1, 343107, Note_on_c, 0, 45, 36
1, 343107, Note_on_c, 0, 83, 43
1, 343107, Note_on_c, 0, 69, 23
1, 343107, Note_on_c, 0, 59, 36
1, 343107, Note_on_c, 0, 31, 36
1, 343107, Note_on_c, 0, 33, 36
1, 343107, Note_on_c, 0, 71, 43
1, 343107, Note_on_c, 0, 57, 23
1, 343299, Note_off_c, 0, 57, 0
1, 343299, Note_off_c, 0, 33, 0
1, 343299, Note_off_c, 0, 31, 0
1, 343299, Note_off_c, 0, 59, 0
1, 343299, Note_off_c, 0, 69, 0
1, 343299, Note_off_c, 0, 45, 0
1, 343299, Note_off_c, 0, 33, 0
1, 343299, Note_off_c, 0, 71, 0
1, 343299, Note_on_c, 0, 71, 36
1, 343299, Note_on_c, 0, 33, 36
1, 343299, Note_on_c, 0, 45, 36
1, 343299, Note_on_c, 0, 57, 23
1, 343299, Note_on_c, 0, 59, 36
1, 343299, Note_on_c, 0, 31, 36
1, 343299, Note_on_c, 0, 33, 36
1, 343299, Note_on_c, 0, 45, 23
1, 343395, Note_off_c, 0, 33, 0
1, 343395, Note_off_c, 0, 31, 0
1, 343395, Note_off_c, 0, 45, 0
1, 343395, Note_off_c, 0, 33, 0
1, 343395, Note_on_c, 0, 33, 36
1, 343395, Note_on_c, 0, 45, 36
1, 343395, Note_on_c, 0, 31, 36
1, 343395, Note_on_c, 0, 33, 36
1, 343491, Note_off_c, 0, 33, 0
1, 343491, Note_off_c, 0, 31, 0
1, 343491, Note_off_c, 0, 45, 0
1, 343491, Note_off_c, 0, 33, 0
1, 343491, Note_off_c, 0, 59, 0
1, 343491, Note_off_c, 0, 71, 0
1, 343491, Note_on_c, 0, 71, 36
1, 343491, Note_on_c, 0, 33, 36
1, 343491, Note_on_c, 0, 45, 36
1, 343491, Note_on_c, 0, 59, 36
1, 343491, Note_on_c, 0, 31, 36
1, 343491, Note_on_c, 0, 33, 36
1, 343587, Note_off_c, 0, 33, 0
1, 343587, Note_off_c, 0, 31, 0
1, 343587, Note_off_c, 0, 45, 0
1, 343587, Note_off_c, 0, 33, 0
1, 343587, Note_off_c, 0, 45, 0
1, 343587, Note_off_c, 0, 57, 0
1, 343587, Note_off_c, 0, 71, 0
1, 343587, Note_off_c, 0, 83, 0
1, 343587, Note_on_c, 0, 33, 36
1, 343587, Note_on_c, 0, 45, 36
1, 343587, Note_on_c, 0, 31, 36
1, 343587, Note_on_c, 0, 33, 36
1, 343683, Note_off_c, 0, 33, 0
1, 343683, Note_off_c, 0, 31, 0
1, 343683, Note_off_c, 0, 45, 0
1, 343683, Note_off_c, 0, 33, 0
1, 343683, Note_off_c, 0, 59, 0
1, 343683, Note_off_c, 0, 71, 0
1, 343683, Note_on_c, 0, 71, 36
1, 343683, Note_on_c, 0, 33, 36
1, 343683, Note_on_c, 0, 45, 36
1, 343683, Note_on_c, 0, 90, 43
1, 343683, Note_on_c, 0, 64, 23
1, 343683, Note_on_c, 0, 59, 36
1, 343683, Note_on_c, 0, 31, 36
1, 343683, Note_on_c, 0, 33, 36
1, 343683, Note_on_c, 0, 78, 43
1, 343683, Note_on_c, 0, 52, 23
1, 343779, Note_off_c, 0, 33, 0
1, 343779, Note_off_c, 0, 31, 0
1, 343779, Note_off_c, 0, 45, 0
1, 343779, Note_off_c, 0, 33, 0
1, 343779, Note_on_c, 0, 33, 36
1, 343779, Note_on_c, 0, 45, 36
1, 343779, Note_on_c, 0, 31, 36
1, 343779, Note_on_c, 0, 33, 36
1, 343875, Note_off_c, 0, 33, 0
1, 343875, Note_off_c, 0, 31, 0
1, 343875, Note_off_c, 0, 45, 0
1, 343875, Note_off_c, 0, 33, 0
1, 343875, Note_off_c, 0, 52, 0
1, 343875, Note_off_c, 0, 59, 0
1, 343875, Note_off_c, 0, 64, 0
1, 343875, Note_off_c, 0, 71, 0
1, 343875, Note_on_c, 0, 71, 36
1, 343875, Note_on_c, 0, 33, 36
1, 343875, Note_on_c, 0, 45, 36
1, 343875, Note_on_c, 0, 69, 23
1, 343875, Note_on_c, 0, 59, 36
1, 343875, Note_on_c, 0, 31, 36
1, 343875, Note_on_c, 0, 33, 36
1, 343875, Note_on_c, 0, 57, 23
1, 343971, Note_off_c, 0, 33, 0
1, 343971, Note_off_c, 0, 31, 0
1, 343971, Note_off_c, 0, 45, 0
1, 343971, Note_off_c, 0, 33, 0
1, 343971, Note_off_c, 0, 78, 0
1, 343971, Note_off_c, 0, 90, 0
1, 343971, Note_off_c, 0, 66, 0
1, 343971, Note_off_c, 0, 78, 0
1, 343971, Note_on_c, 0, 33, 36
1, 343971, Note_on_c, 0, 45, 36
1, 343971, Note_on_c, 0, 31, 36
1, 343971, Note_on_c, 0, 33, 36
1, 344067, Note_off_c, 0, 33, 0
1, 344067, Note_off_c, 0, 31, 0
1, 344067, Note_off_c, 0, 45, 0
1, 344067, Note_off_c, 0, 33, 0
1, 344067, Note_off_c, 0, 57, 0
1, 344067, Note_off_c, 0, 59, 0
1, 344067, Note_off_c, 0, 69, 0
1, 344067, Note_off_c, 0, 71, 0
1, 344067, Note_on_c, 0, 71, 36
1, 344067, Note_on_c, 0, 32, 36
1, 344067, Note_on_c, 0, 44, 36
1, 344067, Note_on_c, 0, 78, 43
1, 344067, Note_on_c, 0, 85, 43
1, 344067, Note_on_c, 0, 56, 23
1, 344067, Note_on_c, 0, 59, 36
1, 344067, Note_on_c, 0, 30, 36
1, 344067, Note_on_c, 0, 32, 36
1, 344067, Note_on_c, 0, 66, 43
1, 344067, Note_on_c, 0, 73, 43
1, 344067, Note_on_c, 0, 44, 23
1, 344259, Note_off_c, 0, 32, 0
1, 344259, Note_off_c, 0, 30, 0
1, 344259, Note_off_c, 0, 59, 0
1, 344259, Note_off_c, 0, 44, 0
1, 344259, Note_off_c, 0, 32, 0
1, 344259, Note_off_c, 0, 71, 0
1, 344259, Note_on_c, 0, 71, 36
1, 344259, Note_on_c, 0, 32, 36
1, 344259, Note_on_c, 0, 44, 36
1, 344259, Note_on_c, 0, 59, 36
1, 344259, Note_on_c, 0, 30, 36
1, 344259, Note_on_c, 0, 32, 36
1, 344355, Note_off_c, 0, 44, 0
1, 344355, Note_off_c, 0, 56, 0
1, 344451, Note_off_c, 0, 32, 0
1, 344451, Note_off_c, 0, 30, 0
1, 344451, Note_off_c, 0, 59, 0
1, 344451, Note_off_c, 0, 44, 0
1, 344451, Note_off_c, 0, 32, 0
1, 344451, Note_off_c, 0, 71, 0
1, 344451, Note_on_c, 0, 71, 36
1, 344451, Note_on_c, 0, 32, 36
1, 344451, Note_on_c, 0, 44, 36
1, 344451, Note_on_c, 0, 64, 23
1, 344451, Note_on_c, 0, 59, 36
1, 344451, Note_on_c, 0, 30, 36
1, 344451, Note_on_c, 0, 32, 36
1, 344451, Note_on_c, 0, 52, 23
1, 344643, Note_off_c, 0, 52, 0
1, 344643, Note_off_c, 0, 32, 0
1, 344643, Note_off_c, 0, 30, 0
1, 344643, Note_off_c, 0, 59, 0
1, 344643, Note_off_c, 0, 64, 0
1, 344643, Note_off_c, 0, 44, 0
1, 344643, Note_off_c, 0, 32, 0
1, 344643, Note_off_c, 0, 71, 0
1, 344643, Note_on_c, 0, 71, 36
1, 344643, Note_on_c, 0, 32, 36
1, 344643, Note_on_c, 0, 44, 36
1, 344643, Note_on_c, 0, 68, 23
1, 344643, Note_on_c, 0, 59, 36
1, 344643, Note_on_c, 0, 30, 36
1, 344643, Note_on_c, 0, 32, 36
1, 344643, Note_on_c, 0, 56, 23
1, 344835, Note_off_c, 0, 56, 0
1, 344835, Note_off_c, 0, 32, 0
1, 344835, Note_off_c, 0, 30, 0
1, 344835, Note_off_c, 0, 59, 0
1, 344835, Note_off_c, 0, 68, 0
1, 344835, Note_off_c, 0, 44, 0
1, 344835, Note_off_c, 0, 32, 0
1, 344835, Note_off_c, 0, 71, 0
1, 344835, Note_on_c, 0, 71, 36
1, 344835, Note_on_c, 0, 32, 36
1, 344835, Note_on_c, 0, 44, 36
1, 344835, Note_on_c, 0, 56, 23
1, 344835, Note_on_c, 0, 59, 36
1, 344835, Note_on_c, 0, 30, 36
1, 344835, Note_on_c, 0, 32, 36
1, 344835, Note_on_c, 0, 44, 23
1, 345027, Note_off_c, 0, 32, 0
1, 345027, Note_off_c, 0, 30, 0
1, 345027, Note_off_c, 0, 59, 0
1, 345027, Note_off_c, 0, 44, 0
1, 345027, Note_off_c, 0, 32, 0
1, 345027, Note_off_c, 0, 71, 0
1, 345027, Note_on_c, 0, 71, 36
1, 345027, Note_on_c, 0, 32, 36
1, 345027, Note_on_c, 0, 44, 36
1, 345027, Note_on_c, 0, 59, 36
1, 345027, Note_on_c, 0, 30, 36
1, 345027, Note_on_c, 0, 32, 36
1, 345123, Note_off_c, 0, 44, 0
1, 345123, Note_off_c, 0, 56, 0
1, 345219, Note_off_c, 0, 32, 0
1, 345219, Note_off_c, 0, 30, 0
1, 345219, Note_off_c, 0, 59, 0
1, 345219, Note_off_c, 0, 44, 0
1, 345219, Note_off_c, 0, 32, 0
1, 345219, Note_off_c, 0, 71, 0
1, 345219, Note_on_c, 0, 71, 36
1, 345219, Note_on_c, 0, 32, 36
1, 345219, Note_on_c, 0, 44, 36
1, 345219, Note_on_c, 0, 64, 23
1, 345219, Note_on_c, 0, 59, 36
1, 345219, Note_on_c, 0, 30, 36
1, 345219, Note_on_c, 0, 32, 36
1, 345219, Note_on_c, 0, 52, 23
1, 345411, Note_off_c, 0, 52, 0
1, 345411, Note_off_c, 0, 32, 0
1, 345411, Note_off_c, 0, 30, 0
1, 345411, Note_off_c, 0, 59, 0
1, 345411, Note_off_c, 0, 64, 0
1, 345411, Note_off_c, 0, 44, 0
1, 345411, Note_off_c, 0, 32, 0
1, 345411, Note_off_c, 0, 71, 0
1, 345411, Note_on_c, 0, 71, 36
1, 345411, Note_on_c, 0, 32, 36
1, 345411, Note_on_c, 0, 44, 36
1, 345411, Note_on_c, 0, 68, 23
1, 345411, Note_on_c, 0, 59, 36
1, 345411, Note_on_c, 0, 30, 36
1, 345411, Note_on_c, 0, 32, 36
1, 345411, Note_on_c, 0, 56, 23
1, 345507, Note_off_c, 0, 73, 0
1, 345507, Note_off_c, 0, 66, 0
1, 345507, Note_off_c, 0, 85, 0
1, 345507, Note_off_c, 0, 78, 0
1, 345603, Note_off_c, 0, 56, 0
1, 345603, Note_off_c, 0, 32, 0
1, 345603, Note_off_c, 0, 30, 0
1, 345603, Note_off_c, 0, 59, 0
1, 345603, Note_off_c, 0, 68, 0
1, 345603, Note_off_c, 0, 44, 0
1, 345603, Note_off_c, 0, 32, 0
1, 345603, Note_off_c, 0, 71, 0
1, 345603, Note_on_c, 0, 71, 36
1, 345603, Note_on_c, 0, 32, 36
1, 345603, Note_on_c, 0, 44, 36
1, 345603, Note_on_c, 0, 85, 43
1, 345603, Note_on_c, 0, 78, 43
1, 345603, Note_on_c, 0, 56, 23
1, 345603, Note_on_c, 0, 59, 36
1, 345603, Note_on_c, 0, 30, 36
1, 345603, Note_on_c, 0, 32, 36
1, 345603, Note_on_c, 0, 73, 43
1, 345603, Note_on_c, 0, 66, 43
1, 345603, Note_on_c, 0, 44, 23
1, 345795, Note_off_c, 0, 32, 0
1, 345795, Note_off_c, 0, 30, 0
1, 345795, Note_off_c, 0, 59, 0
1, 345795, Note_off_c, 0, 44, 0
1, 345795, Note_off_c, 0, 32, 0
1, 345795, Note_off_c, 0, 71, 0
1, 345795, Note_on_c, 0, 71, 36
1, 345795, Note_on_c, 0, 32, 36
1, 345795, Note_on_c, 0, 44, 36
1, 345795, Note_on_c, 0, 59, 36
1, 345795, Note_on_c, 0, 30, 36
1, 345795, Note_on_c, 0, 32, 36
1, 345891, Note_off_c, 0, 44, 0
1, 345891, Note_off_c, 0, 56, 0
1, 345987, Note_off_c, 0, 32, 0
1, 345987, Note_off_c, 0, 30, 0
1, 345987, Note_off_c, 0, 59, 0
1, 345987, Note_off_c, 0, 44, 0
1, 345987, Note_off_c, 0, 32, 0
1, 345987, Note_off_c, 0, 71, 0
1, 345987, Note_on_c, 0, 71, 36
1, 345987, Note_on_c, 0, 32, 36
1, 345987, Note_on_c, 0, 44, 36
1, 345987, Note_on_c, 0, 64, 23
1, 345987, Note_on_c, 0, 59, 36
1, 345987, Note_on_c, 0, 30, 36
1, 345987, Note_on_c, 0, 32, 36
1, 345987, Note_on_c, 0, 52, 23
1, 346083, Note_off_c, 0, 73, 0
1, 346083, Note_off_c, 0, 85, 0
1, 346179, Note_off_c, 0, 52, 0
1, 346179, Note_off_c, 0, 32, 0
1, 346179, Note_off_c, 0, 30, 0
1, 346179, Note_off_c, 0, 59, 0
1, 346179, Note_off_c, 0, 64, 0
1, 346179, Note_off_c, 0, 44, 0
1, 346179, Note_off_c, 0, 32, 0
1, 346179, Note_off_c, 0, 71, 0
1, 346179, Note_on_c, 0, 71, 36
1, 346179, Note_on_c, 0, 32, 36
1, 346179, Note_on_c, 0, 44, 36
1, 346179, Note_on_c, 0, 83, 43
1, 346179, Note_on_c, 0, 68, 23
1, 346179, Note_on_c, 0, 59, 36
1, 346179, Note_on_c, 0, 30, 36
1, 346179, Note_on_c, 0, 32, 36
1, 346179, Note_on_c, 0, 71, 43
1, 346179, Note_on_c, 0, 56, 23
1, 346371, Note_off_c, 0, 56, 0
1, 346371, Note_off_c, 0, 32, 0
1, 346371, Note_off_c, 0, 30, 0
1, 346371, Note_off_c, 0, 59, 0
1, 346371, Note_off_c, 0, 68, 0
1, 346371, Note_off_c, 0, 44, 0
1, 346371, Note_off_c, 0, 32, 0
1, 346371, Note_off_c, 0, 71, 0
1, 346371, Note_on_c, 0, 71, 36
1, 346371, Note_on_c, 0, 32, 36
1, 346371, Note_on_c, 0, 44, 36
1, 346371, Note_on_c, 0, 56, 23
1, 346371, Note_on_c, 0, 59, 36
1, 346371, Note_on_c, 0, 30, 36
1, 346371, Note_on_c, 0, 32, 36
1, 346371, Note_on_c, 0, 44, 23
1, 346467, Note_off_c, 0, 32, 0
1, 346467, Note_off_c, 0, 30, 0
1, 346467, Note_off_c, 0, 44, 0
1, 346467, Note_off_c, 0, 32, 0
1, 346467, Note_on_c, 0, 32, 36
1, 346467, Note_on_c, 0, 44, 36
1, 346467, Note_on_c, 0, 30, 36
1, 346467, Note_on_c, 0, 32, 36
1, 346563, Note_off_c, 0, 32, 0
1, 346563, Note_off_c, 0, 30, 0
1, 346563, Note_off_c, 0, 44, 0
1, 346563, Note_off_c, 0, 32, 0
1, 346563, Note_off_c, 0, 59, 0
1, 346563, Note_off_c, 0, 71, 0
1, 346563, Note_on_c, 0, 71, 36
1, 346563, Note_on_c, 0, 32, 36
1, 346563, Note_on_c, 0, 44, 36
1, 346563, Note_on_c, 0, 59, 36
1, 346563, Note_on_c, 0, 30, 36
1, 346563, Note_on_c, 0, 32, 36
1, 346659, Note_off_c, 0, 32, 0
1, 346659, Note_off_c, 0, 30, 0
1, 346659, Note_off_c, 0, 44, 0
1, 346659, Note_off_c, 0, 32, 0
1, 346659, Note_off_c, 0, 44, 0
1, 346659, Note_off_c, 0, 56, 0
1, 346659, Note_off_c, 0, 71, 0
1, 346659, Note_off_c, 0, 83, 0
1, 346659, Note_on_c, 0, 32, 36
1, 346659, Note_on_c, 0, 44, 36
1, 346659, Note_on_c, 0, 30, 36
1, 346659, Note_on_c, 0, 32, 36
1, 346755, Note_off_c, 0, 32, 0
1, 346755, Note_off_c, 0, 30, 0
1, 346755, Note_off_c, 0, 44, 0
1, 346755, Note_off_c, 0, 32, 0
1, 346755, Note_off_c, 0, 59, 0
1, 346755, Note_off_c, 0, 71, 0
1, 346755, Note_on_c, 0, 71, 36
1, 346755, Note_on_c, 0, 32, 36
1, 346755, Note_on_c, 0, 44, 36
1, 346755, Note_on_c, 0, 90, 43
1, 346755, Note_on_c, 0, 64, 23
1, 346755, Note_on_c, 0, 59, 36
1, 346755, Note_on_c, 0, 30, 36
1, 346755, Note_on_c, 0, 32, 36
1, 346755, Note_on_c, 0, 78, 43
1, 346755, Note_on_c, 0, 52, 23
1, 346851, Note_off_c, 0, 32, 0
1, 346851, Note_off_c, 0, 30, 0
1, 346851, Note_off_c, 0, 44, 0
1, 346851, Note_off_c, 0, 32, 0
1, 346851, Note_on_c, 0, 32, 36
1, 346851, Note_on_c, 0, 44, 36
1, 346851, Note_on_c, 0, 30, 36
1, 346851, Note_on_c, 0, 32, 36
1, 346947, Note_off_c, 0, 32, 0
1, 346947, Note_off_c, 0, 30, 0
1, 346947, Note_off_c, 0, 44, 0
1, 346947, Note_off_c, 0, 32, 0
1, 346947, Note_off_c, 0, 52, 0
1, 346947, Note_off_c, 0, 59, 0
1, 346947, Note_off_c, 0, 64, 0
1, 346947, Note_off_c, 0, 71, 0
1, 346947, Note_on_c, 0, 71, 36
1, 346947, Note_on_c, 0, 32, 36
1, 346947, Note_on_c, 0, 44, 36
1, 346947, Note_on_c, 0, 68, 23
1, 346947, Note_on_c, 0, 59, 36
1, 346947, Note_on_c, 0, 30, 36
1, 346947, Note_on_c, 0, 32, 36
1, 346947, Note_on_c, 0, 56, 23
1, 347043, Note_off_c, 0, 32, 0
1, 347043, Note_off_c, 0, 30, 0
1, 347043, Note_off_c, 0, 44, 0
1, 347043, Note_off_c, 0, 32, 0
1, 347043, Note_off_c, 0, 78, 0
1, 347043, Note_off_c, 0, 90, 0
1, 347043, Note_off_c, 0, 66, 0
1, 347043, Note_off_c, 0, 78, 0
1, 347043, Note_on_c, 0, 32, 36
1, 347043, Note_on_c, 0, 44, 36
1, 347043, Note_on_c, 0, 30, 36
1, 347043, Note_on_c, 0, 32, 36
1, 347139, Note_off_c, 0, 32, 0
1, 347139, Note_off_c, 0, 30, 0
1, 347139, Note_off_c, 0, 44, 0
1, 347139, Note_off_c, 0, 32, 0
1, 347139, Note_off_c, 0, 56, 0
1, 347139, Note_off_c, 0, 59, 0
1, 347139, Note_off_c, 0, 68, 0
1, 347139, Note_off_c, 0, 71, 0
1, 347139, Note_on_c, 0, 71, 36
1, 347139, Note_on_c, 0, 31, 36
1, 347139, Note_on_c, 0, 43, 36
1, 347139, Note_on_c, 0, 85, 43
1, 347139, Note_on_c, 0, 55, 23
1, 347139, Note_on_c, 0, 59, 36
1, 347139, Note_on_c, 0, 29, 36
1, 347139, Note_on_c, 0, 31, 36
1, 347139, Note_on_c, 0, 73, 43
1, 347139, Note_on_c, 0, 43, 23
1, 347235, Note_off_c, 0, 31, 0
1, 347235, Note_off_c, 0, 29, 0
1, 347235, Note_off_c, 0, 43, 0
1, 347235, Note_off_c, 0, 31, 0
1, 347235, Note_on_c, 0, 31, 36
1, 347235, Note_on_c, 0, 43, 36
1, 347235, Note_on_c, 0, 29, 36
1, 347235, Note_on_c, 0, 31, 36
1, 347331, Note_off_c, 0, 31, 0
1, 347331, Note_off_c, 0, 29, 0
1, 347331, Note_off_c, 0, 43, 0
1, 347331, Note_off_c, 0, 31, 0
1, 347331, Note_off_c, 0, 59, 0
1, 347331, Note_off_c, 0, 71, 0
1, 347331, Note_on_c, 0, 71, 36
1, 347331, Note_on_c, 0, 31, 36
1, 347331, Note_on_c, 0, 43, 36
1, 347331, Note_on_c, 0, 59, 36
1, 347331, Note_on_c, 0, 29, 36
1, 347331, Note_on_c, 0, 31, 36
1, 347427, Note_off_c, 0, 31, 0
1, 347427, Note_off_c, 0, 29, 0
1, 347427, Note_off_c, 0, 43, 0
1, 347427, Note_off_c, 0, 31, 0
1, 347427, Note_off_c, 0, 43, 0
1, 347427, Note_off_c, 0, 55, 0
1, 347427, Note_on_c, 0, 31, 36
1, 347427, Note_on_c, 0, 43, 36
1, 347427, Note_on_c, 0, 29, 36
1, 347427, Note_on_c, 0, 31, 36
1, 347523, Note_off_c, 0, 31, 0
1, 347523, Note_off_c, 0, 29, 0
1, 347523, Note_off_c, 0, 43, 0
1, 347523, Note_off_c, 0, 31, 0
1, 347523, Note_off_c, 0, 59, 0
1, 347523, Note_off_c, 0, 71, 0
1, 347523, Note_on_c, 0, 71, 36
1, 347523, Note_on_c, 0, 31, 36
1, 347523, Note_on_c, 0, 43, 36
1, 347523, Note_on_c, 0, 62, 23
1, 347523, Note_on_c, 0, 59, 36
1, 347523, Note_on_c, 0, 29, 36
1, 347523, Note_on_c, 0, 31, 36
1, 347523, Note_on_c, 0, 50, 23
1, 347619, Note_off_c, 0, 73, 0
1, 347619, Note_off_c, 0, 85, 0
1, 347715, Note_off_c, 0, 50, 0
1, 347715, Note_off_c, 0, 31, 0
1, 347715, Note_off_c, 0, 29, 0
1, 347715, Note_off_c, 0, 59, 0
1, 347715, Note_off_c, 0, 62, 0
1, 347715, Note_off_c, 0, 43, 0
1, 347715, Note_off_c, 0, 31, 0
1, 347715, Note_off_c, 0, 71, 0
1, 347715, Note_on_c, 0, 71, 36
1, 347715, Note_on_c, 0, 31, 36
1, 347715, Note_on_c, 0, 43, 36
1, 347715, Note_on_c, 0, 83, 43
1, 347715, Note_on_c, 0, 67, 23
1, 347715, Note_on_c, 0, 59, 36
1, 347715, Note_on_c, 0, 29, 36
1, 347715, Note_on_c, 0, 31, 36
1, 347715, Note_on_c, 0, 71, 43
1, 347715, Note_on_c, 0, 55, 23
1, 347907, Note_off_c, 0, 55, 0
1, 347907, Note_off_c, 0, 31, 0
1, 347907, Note_off_c, 0, 29, 0
1, 347907, Note_off_c, 0, 59, 0
1, 347907, Note_off_c, 0, 67, 0
1, 347907, Note_off_c, 0, 43, 0
1, 347907, Note_off_c, 0, 31, 0
1, 347907, Note_off_c, 0, 71, 0
1, 347907, Note_on_c, 0, 71, 36
1, 347907, Note_on_c, 0, 31, 36
1, 347907, Note_on_c, 0, 43, 36
1, 347907, Note_on_c, 0, 55, 23
1, 347907, Note_on_c, 0, 59, 36
1, 347907, Note_on_c, 0, 29, 36
1, 347907, Note_on_c, 0, 31, 36
1, 347907, Note_on_c, 0, 43, 23
1, 348003, Note_off_c, 0, 31, 0
1, 348003, Note_off_c, 0, 29, 0
1, 348003, Note_off_c, 0, 43, 0
1, 348003, Note_off_c, 0, 31, 0
1, 348003, Note_on_c, 0, 31, 36
1, 348003, Note_on_c, 0, 43, 36
1, 348003, Note_on_c, 0, 29, 36
1, 348003, Note_on_c, 0, 31, 36
1, 348099, Note_off_c, 0, 31, 0
1, 348099, Note_off_c, 0, 29, 0
1, 348099, Note_off_c, 0, 43, 0
1, 348099, Note_off_c, 0, 31, 0
1, 348099, Note_off_c, 0, 59, 0
1, 348099, Note_off_c, 0, 71, 0
1, 348099, Note_on_c, 0, 71, 36
1, 348099, Note_on_c, 0, 31, 36
1, 348099, Note_on_c, 0, 43, 36
1, 348099, Note_on_c, 0, 59, 36
1, 348099, Note_on_c, 0, 29, 36
1, 348099, Note_on_c, 0, 31, 36
1, 348195, Note_off_c, 0, 31, 0
1, 348195, Note_off_c, 0, 29, 0
1, 348195, Note_off_c, 0, 43, 0
1, 348195, Note_off_c, 0, 31, 0
1, 348195, Note_off_c, 0, 43, 0
1, 348195, Note_off_c, 0, 55, 0
1, 348195, Note_off_c, 0, 71, 0
1, 348195, Note_off_c, 0, 83, 0
1, 348195, Note_on_c, 0, 31, 36
1, 348195, Note_on_c, 0, 43, 36
1, 348195, Note_on_c, 0, 29, 36
1, 348195, Note_on_c, 0, 31, 36
1, 348291, Note_off_c, 0, 31, 0
1, 348291, Note_off_c, 0, 29, 0
1, 348291, Note_off_c, 0, 43, 0
1, 348291, Note_off_c, 0, 31, 0
1, 348291, Note_off_c, 0, 59, 0
1, 348291, Note_off_c, 0, 71, 0
1, 348291, Note_on_c, 0, 71, 36
1, 348291, Note_on_c, 0, 31, 36
1, 348291, Note_on_c, 0, 43, 36
1, 348291, Note_on_c, 0, 85, 43
1, 348291, Note_on_c, 0, 62, 23
1, 348291, Note_on_c, 0, 59, 36
1, 348291, Note_on_c, 0, 29, 36
1, 348291, Note_on_c, 0, 31, 36
1, 348291, Note_on_c, 0, 73, 43
1, 348291, Note_on_c, 0, 50, 23
1, 348483, Note_off_c, 0, 50, 0
1, 348483, Note_off_c, 0, 31, 0
1, 348483, Note_off_c, 0, 29, 0
1, 348483, Note_off_c, 0, 59, 0
1, 348483, Note_off_c, 0, 62, 0
1, 348483, Note_off_c, 0, 43, 0
1, 348483, Note_off_c, 0, 31, 0
1, 348483, Note_off_c, 0, 71, 0
1, 348483, Note_on_c, 0, 71, 36
1, 348483, Note_on_c, 0, 31, 36
1, 348483, Note_on_c, 0, 43, 36
1, 348483, Note_on_c, 0, 67, 23
1, 348483, Note_on_c, 0, 59, 36
1, 348483, Note_on_c, 0, 29, 36
1, 348483, Note_on_c, 0, 31, 36
1, 348483, Note_on_c, 0, 55, 23
1, 348579, Note_off_c, 0, 73, 0
1, 348579, Note_off_c, 0, 85, 0
1, 348675, Note_off_c, 0, 55, 0
1, 348675, Note_off_c, 0, 31, 0
1, 348675, Note_off_c, 0, 29, 0
1, 348675, Note_off_c, 0, 59, 0
1, 348675, Note_off_c, 0, 67, 0
1, 348675, Note_off_c, 0, 43, 0
1, 348675, Note_off_c, 0, 31, 0
1, 348675, Note_off_c, 0, 71, 0
1, 348675, Note_on_c, 0, 71, 36
1, 348675, Note_on_c, 0, 33, 36
1, 348675, Note_on_c, 0, 45, 36
1, 348675, Note_on_c, 0, 86, 43
1, 348675, Note_on_c, 0, 57, 23
1, 348675, Note_on_c, 0, 59, 36
1, 348675, Note_on_c, 0, 31, 36
1, 348675, Note_on_c, 0, 33, 36
1, 348675, Note_on_c, 0, 74, 43
1, 348675, Note_on_c, 0, 45, 23
1, 348771, Note_off_c, 0, 33, 0
1, 348771, Note_off_c, 0, 31, 0
1, 348771, Note_off_c, 0, 45, 0
1, 348771, Note_off_c, 0, 33, 0
1, 348771, Note_on_c, 0, 33, 36
1, 348771, Note_on_c, 0, 45, 36
1, 348771, Note_on_c, 0, 31, 36
1, 348771, Note_on_c, 0, 33, 36
1, 348867, Note_off_c, 0, 33, 0
1, 348867, Note_off_c, 0, 31, 0
1, 348867, Note_off_c, 0, 45, 0
1, 348867, Note_off_c, 0, 33, 0
1, 348867, Note_off_c, 0, 59, 0
1, 348867, Note_off_c, 0, 71, 0
1, 348867, Note_on_c, 0, 71, 36
1, 348867, Note_on_c, 0, 33, 36
1, 348867, Note_on_c, 0, 45, 36
1, 348867, Note_on_c, 0, 59, 36
1, 348867, Note_on_c, 0, 31, 36
1, 348867, Note_on_c, 0, 33, 36
1, 348963, Note_off_c, 0, 33, 0
1, 348963, Note_off_c, 0, 31, 0
1, 348963, Note_off_c, 0, 45, 0
1, 348963, Note_off_c, 0, 33, 0
1, 348963, Note_off_c, 0, 45, 0
1, 348963, Note_off_c, 0, 74, 0
1, 348963, Note_off_c, 0, 57, 0
1, 348963, Note_off_c, 0, 86, 0
1, 348963, Note_on_c, 0, 33, 36
1, 348963, Note_on_c, 0, 45, 36
1, 348963, Note_on_c, 0, 31, 36
1, 348963, Note_on_c, 0, 33, 36
1, 349059, Note_off_c, 0, 33, 0
1, 349059, Note_off_c, 0, 31, 0
1, 349059, Note_off_c, 0, 45, 0
1, 349059, Note_off_c, 0, 33, 0
1, 349059, Note_off_c, 0, 59, 0
1, 349059, Note_off_c, 0, 71, 0
1, 349059, Note_on_c, 0, 71, 36
1, 349059, Note_on_c, 0, 33, 36
1, 349059, Note_on_c, 0, 45, 36
1, 349059, Note_on_c, 0, 85, 43
1, 349059, Note_on_c, 0, 64, 23
1, 349059, Note_on_c, 0, 59, 36
1, 349059, Note_on_c, 0, 31, 36
1, 349059, Note_on_c, 0, 33, 36
1, 349059, Note_on_c, 0, 73, 43
1, 349059, Note_on_c, 0, 52, 23
1, 349251, Note_off_c, 0, 52, 0
1, 349251, Note_off_c, 0, 33, 0
1, 349251, Note_off_c, 0, 31, 0
1, 349251, Note_off_c, 0, 59, 0
1, 349251, Note_off_c, 0, 64, 0
1, 349251, Note_off_c, 0, 45, 0
1, 349251, Note_off_c, 0, 33, 0
1, 349251, Note_off_c, 0, 71, 0
1, 349251, Note_on_c, 0, 71, 36
1, 349251, Note_on_c, 0, 33, 36
1, 349251, Note_on_c, 0, 45, 36
1, 349251, Note_on_c, 0, 69, 23
1, 349251, Note_on_c, 0, 59, 36
1, 349251, Note_on_c, 0, 31, 36
1, 349251, Note_on_c, 0, 33, 36
1, 349251, Note_on_c, 0, 57, 23
1, 349347, Note_off_c, 0, 73, 0
1, 349347, Note_off_c, 0, 85, 0
1, 349443, Note_off_c, 0, 57, 0
1, 349443, Note_off_c, 0, 33, 0
1, 349443, Note_off_c, 0, 31, 0
1, 349443, Note_off_c, 0, 59, 0
1, 349443, Note_off_c, 0, 69, 0
1, 349443, Note_off_c, 0, 45, 0
1, 349443, Note_off_c, 0, 33, 0
1, 349443, Note_off_c, 0, 71, 0
1, 349443, Note_on_c, 0, 71, 36
1, 349443, Note_on_c, 0, 33, 36
1, 349443, Note_on_c, 0, 45, 36
1, 349443, Note_on_c, 0, 86, 43
1, 349443, Note_on_c, 0, 57, 23
1, 349443, Note_on_c, 0, 59, 36
1, 349443, Note_on_c, 0, 31, 36
1, 349443, Note_on_c, 0, 33, 36
1, 349443, Note_on_c, 0, 74, 43
1, 349443, Note_on_c, 0, 45, 23
1, 349539, Note_off_c, 0, 33, 0
1, 349539, Note_off_c, 0, 31, 0
1, 349539, Note_off_c, 0, 45, 0
1, 349539, Note_off_c, 0, 33, 0
1, 349539, Note_on_c, 0, 33, 36
1, 349539, Note_on_c, 0, 45, 36
1, 349539, Note_on_c, 0, 31, 36
1, 349539, Note_on_c, 0, 33, 36
1, 349635, Note_off_c, 0, 33, 0
1, 349635, Note_off_c, 0, 31, 0
1, 349635, Note_off_c, 0, 45, 0
1, 349635, Note_off_c, 0, 33, 0
1, 349635, Note_off_c, 0, 59, 0
1, 349635, Note_off_c, 0, 71, 0
1, 349635, Note_on_c, 0, 71, 36
1, 349635, Note_on_c, 0, 33, 36
1, 349635, Note_on_c, 0, 45, 36
1, 349635, Note_on_c, 0, 59, 36
1, 349635, Note_on_c, 0, 31, 36
1, 349635, Note_on_c, 0, 33, 36
1, 349731, Note_off_c, 0, 33, 0
1, 349731, Note_off_c, 0, 31, 0
1, 349731, Note_off_c, 0, 45, 0
1, 349731, Note_off_c, 0, 33, 0
1, 349731, Note_off_c, 0, 45, 0
1, 349731, Note_off_c, 0, 74, 0
1, 349731, Note_off_c, 0, 57, 0
1, 349731, Note_off_c, 0, 86, 0
1, 349731, Note_on_c, 0, 33, 36
1, 349731, Note_on_c, 0, 45, 36
1, 349731, Note_on_c, 0, 31, 36
1, 349731, Note_on_c, 0, 33, 36
1, 349827, Note_off_c, 0, 33, 0
1, 349827, Note_off_c, 0, 31, 0
1, 349827, Note_off_c, 0, 45, 0
1, 349827, Note_off_c, 0, 33, 0
1, 349827, Note_off_c, 0, 59, 0
1, 349827, Note_off_c, 0, 71, 0
1, 349827, Note_on_c, 0, 71, 36
1, 349827, Note_on_c, 0, 33, 36
1, 349827, Note_on_c, 0, 45, 36
1, 349827, Note_on_c, 0, 85, 43
1, 349827, Note_on_c, 0, 64, 23
1, 349827, Note_on_c, 0, 59, 36
1, 349827, Note_on_c, 0, 31, 36
1, 349827, Note_on_c, 0, 33, 36
1, 349827, Note_on_c, 0, 73, 43
1, 349827, Note_on_c, 0, 52, 23
1, 350019, Note_off_c, 0, 52, 0
1, 350019, Note_off_c, 0, 33, 0
1, 350019, Note_off_c, 0, 31, 0
1, 350019, Note_off_c, 0, 59, 0
1, 350019, Note_off_c, 0, 64, 0
1, 350019, Note_off_c, 0, 45, 0
1, 350019, Note_off_c, 0, 33, 0
1, 350019, Note_off_c, 0, 71, 0
1, 350019, Note_on_c, 0, 71, 36
1, 350019, Note_on_c, 0, 33, 36
1, 350019, Note_on_c, 0, 45, 36
1, 350019, Note_on_c, 0, 69, 23
1, 350019, Note_on_c, 0, 59, 36
1, 350019, Note_on_c, 0, 31, 36
1, 350019, Note_on_c, 0, 33, 36
1, 350019, Note_on_c, 0, 57, 23
1, 350115, Note_off_c, 0, 73, 0
1, 350115, Note_off_c, 0, 85, 0
1, 350211, Note_off_c, 0, 57, 0
1, 350211, Note_off_c, 0, 33, 0
1, 350211, Note_off_c, 0, 31, 0
1, 350211, Note_off_c, 0, 59, 0
1, 350211, Note_off_c, 0, 69, 0
1, 350211, Note_off_c, 0, 45, 0
1, 350211, Note_off_c, 0, 33, 0
1, 350211, Note_off_c, 0, 71, 0
1, 350211, Note_on_c, 0, 71, 36
1, 350211, Note_on_c, 0, 35, 36
1, 350211, Note_on_c, 0, 47, 36
1, 350211, Note_on_c, 0, 78, 43
1, 350211, Note_on_c, 0, 85, 43
1, 350211, Note_on_c, 0, 59, 23
1, 350211, Note_on_c, 0, 59, 36
1, 350211, Note_on_c, 0, 24, 36
1, 350211, Note_on_c, 0, 35, 36
1, 350211, Note_on_c, 0, 66, 43
1, 350211, Note_on_c, 0, 73, 43
1, 350211, Note_on_c, 0, 47, 23
1, 350403, Note_off_c, 0, 35, 0
1, 350403, Note_off_c, 0, 24, 0
1, 350403, Note_off_c, 0, 59, 0
1, 350403, Note_off_c, 0, 47, 0
1, 350403, Note_off_c, 0, 35, 0
1, 350403, Note_off_c, 0, 71, 0
1, 350403, Note_on_c, 0, 71, 36
1, 350403, Note_on_c, 0, 35, 36
1, 350403, Note_on_c, 0, 47, 36
1, 350403, Note_on_c, 0, 59, 36
1, 350403, Note_on_c, 0, 24, 36
1, 350403, Note_on_c, 0, 35, 36
1, 350499, Note_off_c, 0, 47, 0
1, 350499, Note_off_c, 0, 59, 0
1, 350595, Note_off_c, 0, 35, 0
1, 350595, Note_off_c, 0, 24, 0
1, 350595, Note_off_c, 0, 59, 0
1, 350595, Note_off_c, 0, 47, 0
1, 350595, Note_off_c, 0, 35, 0
1, 350595, Note_off_c, 0, 71, 0
1, 350595, Note_on_c, 0, 71, 36
1, 350595, Note_on_c, 0, 35, 36
1, 350595, Note_on_c, 0, 47, 36
1, 350595, Note_on_c, 0, 66, 23
1, 350595, Note_on_c, 0, 59, 36
1, 350595, Note_on_c, 0, 24, 36
1, 350595, Note_on_c, 0, 35, 36
1, 350595, Note_on_c, 0, 54, 23
1, 350787, Note_off_c, 0, 54, 0
1, 350787, Note_off_c, 0, 35, 0
1, 350787, Note_off_c, 0, 24, 0
1, 350787, Note_off_c, 0, 59, 0
1, 350787, Note_off_c, 0, 66, 0
1, 350787, Note_off_c, 0, 47, 0
1, 350787, Note_off_c, 0, 35, 0
1, 350787, Note_off_c, 0, 71, 0
1, 350787, Note_on_c, 0, 71, 36
1, 350787, Note_on_c, 0, 35, 36
1, 350787, Note_on_c, 0, 47, 36
1, 350787, Note_on_c, 0, 71, 23
1, 350787, Note_on_c, 0, 59, 36
1, 350787, Note_on_c, 0, 24, 36
1, 350787, Note_on_c, 0, 35, 36
1, 350787, Note_on_c, 0, 59, 23
1, 350979, Note_off_c, 0, 59, 0
1, 350979, Note_off_c, 0, 35, 0
1, 350979, Note_off_c, 0, 24, 0
1, 350979, Note_off_c, 0, 59, 0
1, 350979, Note_off_c, 0, 71, 0
1, 350979, Note_off_c, 0, 47, 0
1, 350979, Note_off_c, 0, 35, 0
1, 350979, Note_off_c, 0, 71, 0
1, 350979, Note_on_c, 0, 71, 36
1, 350979, Note_on_c, 0, 35, 36
1, 350979, Note_on_c, 0, 47, 36
1, 350979, Note_on_c, 0, 59, 23
1, 350979, Note_on_c, 0, 59, 36
1, 350979, Note_on_c, 0, 24, 36
1, 350979, Note_on_c, 0, 35, 36
1, 350979, Note_on_c, 0, 47, 23
1, 351171, Note_off_c, 0, 35, 0
1, 351171, Note_off_c, 0, 24, 0
1, 351171, Note_off_c, 0, 59, 0
1, 351171, Note_off_c, 0, 47, 0
1, 351171, Note_off_c, 0, 35, 0
1, 351171, Note_off_c, 0, 71, 0
1, 351171, Note_on_c, 0, 71, 36
1, 351171, Note_on_c, 0, 35, 36
1, 351171, Note_on_c, 0, 47, 36
1, 351171, Note_on_c, 0, 59, 36
1, 351171, Note_on_c, 0, 24, 36
1, 351171, Note_on_c, 0, 35, 36
1, 351267, Note_off_c, 0, 47, 0
1, 351267, Note_off_c, 0, 59, 0
1, 351363, Note_off_c, 0, 35, 0
1, 351363, Note_off_c, 0, 24, 0
1, 351363, Note_off_c, 0, 59, 0
1, 351363, Note_off_c, 0, 47, 0
1, 351363, Note_off_c, 0, 35, 0
1, 351363, Note_off_c, 0, 71, 0
1, 351363, Note_on_c, 0, 71, 36
1, 351363, Note_on_c, 0, 35, 36
1, 351363, Note_on_c, 0, 47, 36
1, 351363, Note_on_c, 0, 66, 23
1, 351363, Note_on_c, 0, 59, 36
1, 351363, Note_on_c, 0, 24, 36
1, 351363, Note_on_c, 0, 35, 36
1, 351363, Note_on_c, 0, 54, 23
1, 351555, Note_off_c, 0, 54, 0
1, 351555, Note_off_c, 0, 35, 0
1, 351555, Note_off_c, 0, 24, 0
1, 351555, Note_off_c, 0, 59, 0
1, 351555, Note_off_c, 0, 66, 0
1, 351555, Note_off_c, 0, 47, 0
1, 351555, Note_off_c, 0, 35, 0
1, 351555, Note_off_c, 0, 71, 0
1, 351555, Note_on_c, 0, 71, 36
1, 351555, Note_on_c, 0, 35, 36
1, 351555, Note_on_c, 0, 47, 36
1, 351555, Note_on_c, 0, 71, 23
1, 351555, Note_on_c, 0, 59, 36
1, 351555, Note_on_c, 0, 24, 36
1, 351555, Note_on_c, 0, 35, 36
1, 351555, Note_on_c, 0, 59, 23
1, 351651, Note_off_c, 0, 73, 0
1, 351651, Note_off_c, 0, 66, 0
1, 351651, Note_off_c, 0, 85, 0
1, 351651, Note_off_c, 0, 78, 0
1, 351747, Note_off_c, 0, 59, 0
1, 351747, Note_off_c, 0, 35, 0
1, 351747, Note_off_c, 0, 24, 0
1, 351747, Note_off_c, 0, 59, 0
1, 351747, Note_off_c, 0, 71, 0
1, 351747, Note_off_c, 0, 47, 0
1, 351747, Note_off_c, 0, 35, 0
1, 351747, Note_off_c, 0, 71, 0
1, 351747, Note_on_c, 0, 71, 36
1, 351747, Note_on_c, 0, 35, 36
1, 351747, Note_on_c, 0, 47, 36
1, 351747, Note_on_c, 0, 85, 43
1, 351747, Note_on_c, 0, 78, 43
1, 351747, Note_on_c, 0, 59, 23
1, 351747, Note_on_c, 0, 59, 36
1, 351747, Note_on_c, 0, 24, 36
1, 351747, Note_on_c, 0, 35, 36
1, 351747, Note_on_c, 0, 73, 43
1, 351747, Note_on_c, 0, 66, 43
1, 351747, Note_on_c, 0, 47, 23
1, 351939, Note_off_c, 0, 35, 0
1, 351939, Note_off_c, 0, 24, 0
1, 351939, Note_off_c, 0, 59, 0
1, 351939, Note_off_c, 0, 47, 0
1, 351939, Note_off_c, 0, 35, 0
1, 351939, Note_off_c, 0, 71, 0
1, 351939, Note_on_c, 0, 71, 36
1, 351939, Note_on_c, 0, 35, 36
1, 351939, Note_on_c, 0, 47, 36
1, 351939, Note_on_c, 0, 59, 36
1, 351939, Note_on_c, 0, 24, 36
1, 351939, Note_on_c, 0, 35, 36
1, 352035, Note_off_c, 0, 47, 0
1, 352035, Note_off_c, 0, 59, 0
1, 352131, Note_off_c, 0, 35, 0
1, 352131, Note_off_c, 0, 24, 0
1, 352131, Note_off_c, 0, 59, 0
1, 352131, Note_off_c, 0, 47, 0
1, 352131, Note_off_c, 0, 35, 0
1, 352131, Note_off_c, 0, 71, 0
1, 352131, Note_on_c, 0, 71, 36
1, 352131, Note_on_c, 0, 35, 36
1, 352131, Note_on_c, 0, 47, 36
1, 352131, Note_on_c, 0, 66, 23
1, 352131, Note_on_c, 0, 59, 36
1, 352131, Note_on_c, 0, 24, 36
1, 352131, Note_on_c, 0, 35, 36
1, 352131, Note_on_c, 0, 54, 23
1, 352227, Note_off_c, 0, 73, 0
1, 352227, Note_off_c, 0, 85, 0
1, 352323, Note_off_c, 0, 54, 0
1, 352323, Note_off_c, 0, 35, 0
1, 352323, Note_off_c, 0, 24, 0
1, 352323, Note_off_c, 0, 59, 0
1, 352323, Note_off_c, 0, 66, 0
1, 352323, Note_off_c, 0, 47, 0
1, 352323, Note_off_c, 0, 35, 0
1, 352323, Note_off_c, 0, 71, 0
1, 352323, Note_on_c, 0, 71, 36
1, 352323, Note_on_c, 0, 35, 36
1, 352323, Note_on_c, 0, 47, 36
1, 352323, Note_on_c, 0, 83, 43
1, 352323, Note_on_c, 0, 71, 23
1, 352323, Note_on_c, 0, 59, 36
1, 352323, Note_on_c, 0, 24, 36
1, 352323, Note_on_c, 0, 35, 36
1, 352323, Note_on_c, 0, 71, 43
1, 352323, Note_on_c, 0, 59, 23
1, 352515, Note_off_c, 0, 59, 0
1, 352515, Note_off_c, 0, 35, 0
1, 352515, Note_off_c, 0, 24, 0
1, 352515, Note_off_c, 0, 59, 0
1, 352515, Note_off_c, 0, 71, 0
1, 352515, Note_off_c, 0, 47, 0
1, 352515, Note_off_c, 0, 35, 0
1, 352515, Note_off_c, 0, 71, 0
1, 352515, Note_on_c, 0, 71, 36
1, 352515, Note_on_c, 0, 35, 36
1, 352515, Note_on_c, 0, 47, 36
1, 352515, Note_on_c, 0, 59, 23
1, 352515, Note_on_c, 0, 59, 36
1, 352515, Note_on_c, 0, 24, 36
1, 352515, Note_on_c, 0, 35, 36
1, 352515, Note_on_c, 0, 47, 23
1, 352707, Note_off_c, 0, 35, 0
1, 352707, Note_off_c, 0, 24, 0
1, 352707, Note_off_c, 0, 59, 0
1, 352707, Note_off_c, 0, 47, 0
1, 352707, Note_off_c, 0, 35, 0
1, 352707, Note_off_c, 0, 71, 0
1, 352707, Note_on_c, 0, 71, 36
1, 352707, Note_on_c, 0, 35, 36
1, 352707, Note_on_c, 0, 47, 36
1, 352707, Note_on_c, 0, 59, 36
1, 352707, Note_on_c, 0, 24, 36
1, 352707, Note_on_c, 0, 35, 36
1, 352803, Note_off_c, 0, 47, 0
1, 352803, Note_off_c, 0, 59, 0
1, 352803, Note_off_c, 0, 71, 0
1, 352803, Note_off_c, 0, 83, 0
1, 352899, Note_off_c, 0, 35, 0
1, 352899, Note_off_c, 0, 24, 0
1, 352899, Note_off_c, 0, 59, 0
1, 352899, Note_off_c, 0, 47, 0
1, 352899, Note_off_c, 0, 35, 0
1, 352899, Note_off_c, 0, 71, 0
1, 352899, Note_on_c, 0, 71, 36
1, 352899, Note_on_c, 0, 35, 36
1, 352899, Note_on_c, 0, 47, 36
1, 352899, Note_on_c, 0, 90, 43
1, 352899, Note_on_c, 0, 66, 23
1, 352899, Note_on_c, 0, 59, 36
1, 352899, Note_on_c, 0, 24, 36
1, 352899, Note_on_c, 0, 35, 36
1, 352899, Note_on_c, 0, 78, 43
1, 352899, Note_on_c, 0, 54, 23
1, 353091, Note_off_c, 0, 54, 0
1, 353091, Note_off_c, 0, 35, 0
1, 353091, Note_off_c, 0, 24, 0
1, 353091, Note_off_c, 0, 59, 0
1, 353091, Note_off_c, 0, 66, 0
1, 353091, Note_off_c, 0, 47, 0
1, 353091, Note_off_c, 0, 35, 0
1, 353091, Note_off_c, 0, 71, 0
1, 353091, Note_on_c, 0, 71, 36
1, 353091, Note_on_c, 0, 35, 36
1, 353091, Note_on_c, 0, 47, 36
1, 353091, Note_on_c, 0, 71, 23
1, 353091, Note_on_c, 0, 59, 36
1, 353091, Note_on_c, 0, 24, 36
1, 353091, Note_on_c, 0, 35, 36
1, 353091, Note_on_c, 0, 59, 23
1, 353187, Note_off_c, 0, 78, 0
1, 353187, Note_off_c, 0, 90, 0
1, 353187, Note_off_c, 0, 66, 0
1, 353187, Note_off_c, 0, 78, 0
1, 353283, Note_off_c, 0, 59, 0
1, 353283, Note_off_c, 0, 35, 0
1, 353283, Note_off_c, 0, 24, 0
1, 353283, Note_off_c, 0, 59, 0
1, 353283, Note_off_c, 0, 71, 0
1, 353283, Note_off_c, 0, 47, 0
1, 353283, Note_off_c, 0, 35, 0
1, 353283, Note_off_c, 0, 71, 0
1, 353283, Note_on_c, 0, 71, 36
1, 353283, Note_on_c, 0, 33, 36
1, 353283, Note_on_c, 0, 45, 36
1, 353283, Note_on_c, 0, 78, 43
1, 353283, Note_on_c, 0, 85, 43
1, 353283, Note_on_c, 0, 57, 23
1, 353283, Note_on_c, 0, 59, 36
1, 353283, Note_on_c, 0, 31, 36
1, 353283, Note_on_c, 0, 33, 36
1, 353283, Note_on_c, 0, 66, 43
1, 353283, Note_on_c, 0, 73, 43
1, 353283, Note_on_c, 0, 45, 23
1, 353475, Note_off_c, 0, 33, 0
1, 353475, Note_off_c, 0, 31, 0
1, 353475, Note_off_c, 0, 59, 0
1, 353475, Note_off_c, 0, 45, 0
1, 353475, Note_off_c, 0, 33, 0
1, 353475, Note_off_c, 0, 71, 0
1, 353475, Note_on_c, 0, 71, 36
1, 353475, Note_on_c, 0, 33, 36
1, 353475, Note_on_c, 0, 45, 36
1, 353475, Note_on_c, 0, 59, 36
1, 353475, Note_on_c, 0, 31, 36
1, 353475, Note_on_c, 0, 33, 36
1, 353571, Note_off_c, 0, 45, 0
1, 353571, Note_off_c, 0, 57, 0
1, 353667, Note_off_c, 0, 33, 0
1, 353667, Note_off_c, 0, 31, 0
1, 353667, Note_off_c, 0, 59, 0
1, 353667, Note_off_c, 0, 45, 0
1, 353667, Note_off_c, 0, 33, 0
1, 353667, Note_off_c, 0, 71, 0
1, 353667, Note_on_c, 0, 71, 36
1, 353667, Note_on_c, 0, 33, 36
1, 353667, Note_on_c, 0, 45, 36
1, 353667, Note_on_c, 0, 64, 23
1, 353667, Note_on_c, 0, 59, 36
1, 353667, Note_on_c, 0, 31, 36
1, 353667, Note_on_c, 0, 33, 36
1, 353667, Note_on_c, 0, 52, 23
1, 353859, Note_off_c, 0, 52, 0
1, 353859, Note_off_c, 0, 33, 0
1, 353859, Note_off_c, 0, 31, 0
1, 353859, Note_off_c, 0, 59, 0
1, 353859, Note_off_c, 0, 64, 0
1, 353859, Note_off_c, 0, 45, 0
1, 353859, Note_off_c, 0, 33, 0
1, 353859, Note_off_c, 0, 71, 0
1, 353859, Note_on_c, 0, 71, 36
1, 353859, Note_on_c, 0, 33, 36
1, 353859, Note_on_c, 0, 45, 36
1, 353859, Note_on_c, 0, 69, 23
1, 353859, Note_on_c, 0, 59, 36
1, 353859, Note_on_c, 0, 31, 36
1, 353859, Note_on_c, 0, 33, 36
1, 353859, Note_on_c, 0, 57, 23
1, 354051, Note_off_c, 0, 57, 0
1, 354051, Note_off_c, 0, 33, 0
1, 354051, Note_off_c, 0, 31, 0
1, 354051, Note_off_c, 0, 59, 0
1, 354051, Note_off_c, 0, 69, 0
1, 354051, Note_off_c, 0, 45, 0
1, 354051, Note_off_c, 0, 33, 0
1, 354051, Note_off_c, 0, 71, 0
1, 354051, Note_on_c, 0, 71, 36
1, 354051, Note_on_c, 0, 33, 36
1, 354051, Note_on_c, 0, 45, 36
1, 354051, Note_on_c, 0, 57, 23
1, 354051, Note_on_c, 0, 59, 36
1, 354051, Note_on_c, 0, 31, 36
1, 354051, Note_on_c, 0, 33, 36
1, 354051, Note_on_c, 0, 45, 23
1, 354243, Note_off_c, 0, 33, 0
1, 354243, Note_off_c, 0, 31, 0
1, 354243, Note_off_c, 0, 59, 0
1, 354243, Note_off_c, 0, 45, 0
1, 354243, Note_off_c, 0, 33, 0
1, 354243, Note_off_c, 0, 71, 0
1, 354243, Note_on_c, 0, 71, 36
1, 354243, Note_on_c, 0, 33, 36
1, 354243, Note_on_c, 0, 45, 36
1, 354243, Note_on_c, 0, 59, 36
1, 354243, Note_on_c, 0, 31, 36
1, 354243, Note_on_c, 0, 33, 36
1, 354339, Note_off_c, 0, 45, 0
1, 354339, Note_off_c, 0, 57, 0
1, 354435, Note_off_c, 0, 33, 0
1, 354435, Note_off_c, 0, 31, 0
1, 354435, Note_off_c, 0, 59, 0
1, 354435, Note_off_c, 0, 45, 0
1, 354435, Note_off_c, 0, 33, 0
1, 354435, Note_off_c, 0, 71, 0
1, 354435, Note_on_c, 0, 71, 36
1, 354435, Note_on_c, 0, 33, 36
1, 354435, Note_on_c, 0, 45, 36
1, 354435, Note_on_c, 0, 64, 23
1, 354435, Note_on_c, 0, 59, 36
1, 354435, Note_on_c, 0, 31, 36
1, 354435, Note_on_c, 0, 33, 36
1, 354435, Note_on_c, 0, 52, 23
1, 354627, Note_off_c, 0, 52, 0
1, 354627, Note_off_c, 0, 33, 0
1, 354627, Note_off_c, 0, 31, 0
1, 354627, Note_off_c, 0, 59, 0
1, 354627, Note_off_c, 0, 64, 0
1, 354627, Note_off_c, 0, 45, 0
1, 354627, Note_off_c, 0, 33, 0
1, 354627, Note_off_c, 0, 71, 0
1, 354627, Note_on_c, 0, 71, 36
1, 354627, Note_on_c, 0, 33, 36
1, 354627, Note_on_c, 0, 45, 36
1, 354627, Note_on_c, 0, 69, 23
1, 354627, Note_on_c, 0, 59, 36
1, 354627, Note_on_c, 0, 31, 36
1, 354627, Note_on_c, 0, 33, 36
1, 354627, Note_on_c, 0, 57, 23
1, 354723, Note_off_c, 0, 73, 0
1, 354723, Note_off_c, 0, 66, 0
1, 354723, Note_off_c, 0, 85, 0
1, 354723, Note_off_c, 0, 78, 0
1, 354819, Note_off_c, 0, 57, 0
1, 354819, Note_off_c, 0, 33, 0
1, 354819, Note_off_c, 0, 31, 0
1, 354819, Note_off_c, 0, 59, 0
1, 354819, Note_off_c, 0, 69, 0
1, 354819, Note_off_c, 0, 45, 0
1, 354819, Note_off_c, 0, 33, 0
1, 354819, Note_off_c, 0, 71, 0
1, 354819, Note_on_c, 0, 71, 36
1, 354819, Note_on_c, 0, 33, 36
1, 354819, Note_on_c, 0, 45, 36
1, 354819, Note_on_c, 0, 85, 43
1, 354819, Note_on_c, 0, 78, 43
1, 354819, Note_on_c, 0, 57, 23
1, 354819, Note_on_c, 0, 59, 36
1, 354819, Note_on_c, 0, 31, 36
1, 354819, Note_on_c, 0, 33, 36
1, 354819, Note_on_c, 0, 73, 43
1, 354819, Note_on_c, 0, 66, 43
1, 354819, Note_on_c, 0, 45, 23
1, 355011, Note_off_c, 0, 33, 0
1, 355011, Note_off_c, 0, 31, 0
1, 355011, Note_off_c, 0, 59, 0
1, 355011, Note_off_c, 0, 45, 0
1, 355011, Note_off_c, 0, 33, 0
1, 355011, Note_off_c, 0, 71, 0
1, 355011, Note_on_c, 0, 71, 36
1, 355011, Note_on_c, 0, 33, 36
1, 355011, Note_on_c, 0, 45, 36
1, 355011, Note_on_c, 0, 59, 36
1, 355011, Note_on_c, 0, 31, 36
1, 355011, Note_on_c, 0, 33, 36
1, 355107, Note_off_c, 0, 45, 0
1, 355107, Note_off_c, 0, 57, 0
1, 355203, Note_off_c, 0, 33, 0
1, 355203, Note_off_c, 0, 31, 0
1, 355203, Note_off_c, 0, 59, 0
1, 355203, Note_off_c, 0, 45, 0
1, 355203, Note_off_c, 0, 33, 0
1, 355203, Note_off_c, 0, 71, 0
1, 355203, Note_on_c, 0, 71, 36
1, 355203, Note_on_c, 0, 33, 36
1, 355203, Note_on_c, 0, 45, 36
1, 355203, Note_on_c, 0, 64, 23
1, 355203, Note_on_c, 0, 59, 36
1, 355203, Note_on_c, 0, 31, 36
1, 355203, Note_on_c, 0, 33, 36
1, 355203, Note_on_c, 0, 52, 23
1, 355299, Note_off_c, 0, 73, 0
1, 355299, Note_off_c, 0, 85, 0
1, 355395, Note_off_c, 0, 52, 0
1, 355395, Note_off_c, 0, 33, 0
1, 355395, Note_off_c, 0, 31, 0
1, 355395, Note_off_c, 0, 59, 0
1, 355395, Note_off_c, 0, 64, 0
1, 355395, Note_off_c, 0, 45, 0
1, 355395, Note_off_c, 0, 33, 0
1, 355395, Note_off_c, 0, 71, 0
1, 355395, Note_on_c, 0, 71, 36
1, 355395, Note_on_c, 0, 33, 36
1, 355395, Note_on_c, 0, 45, 36
1, 355395, Note_on_c, 0, 83, 43
1, 355395, Note_on_c, 0, 69, 23
1, 355395, Note_on_c, 0, 59, 36
1, 355395, Note_on_c, 0, 31, 36
1, 355395, Note_on_c, 0, 33, 36
1, 355395, Note_on_c, 0, 71, 43
1, 355395, Note_on_c, 0, 57, 23
1, 355587, Note_off_c, 0, 57, 0
1, 355587, Note_off_c, 0, 33, 0
1, 355587, Note_off_c, 0, 31, 0
1, 355587, Note_off_c, 0, 59, 0
1, 355587, Note_off_c, 0, 69, 0
1, 355587, Note_off_c, 0, 45, 0
1, 355587, Note_off_c, 0, 33, 0
1, 355587, Note_off_c, 0, 71, 0
1, 355587, Note_on_c, 0, 71, 36
1, 355587, Note_on_c, 0, 33, 36
1, 355587, Note_on_c, 0, 45, 36
1, 355587, Note_on_c, 0, 57, 23
1, 355587, Note_on_c, 0, 59, 36
1, 355587, Note_on_c, 0, 31, 36
1, 355587, Note_on_c, 0, 33, 36
1, 355587, Note_on_c, 0, 45, 23
1, 355779, Note_off_c, 0, 33, 0
1, 355779, Note_off_c, 0, 31, 0
1, 355779, Note_off_c, 0, 59, 0
1, 355779, Note_off_c, 0, 45, 0
1, 355779, Note_off_c, 0, 33, 0
1, 355779, Note_off_c, 0, 71, 0
1, 355779, Note_on_c, 0, 71, 36
1, 355779, Note_on_c, 0, 33, 36
1, 355779, Note_on_c, 0, 45, 36
1, 355779, Note_on_c, 0, 59, 36
1, 355779, Note_on_c, 0, 31, 36
1, 355779, Note_on_c, 0, 33, 36
1, 355875, Note_off_c, 0, 45, 0
1, 355875, Note_off_c, 0, 57, 0
1, 355875, Note_off_c, 0, 71, 0
1, 355875, Note_off_c, 0, 83, 0
1, 355971, Note_off_c, 0, 33, 0
1, 355971, Note_off_c, 0, 31, 0
1, 355971, Note_off_c, 0, 59, 0
1, 355971, Note_off_c, 0, 45, 0
1, 355971, Note_off_c, 0, 33, 0
1, 355971, Note_off_c, 0, 71, 0
1, 355971, Note_on_c, 0, 71, 36
1, 355971, Note_on_c, 0, 33, 36
1, 355971, Note_on_c, 0, 45, 36
1, 355971, Note_on_c, 0, 90, 43
1, 355971, Note_on_c, 0, 64, 23
1, 355971, Note_on_c, 0, 59, 36
1, 355971, Note_on_c, 0, 31, 36
1, 355971, Note_on_c, 0, 33, 36
1, 355971, Note_on_c, 0, 78, 43
1, 355971, Note_on_c, 0, 52, 23
1, 356163, Note_off_c, 0, 52, 0
1, 356163, Note_off_c, 0, 33, 0
1, 356163, Note_off_c, 0, 31, 0
1, 356163, Note_off_c, 0, 59, 0
1, 356163, Note_off_c, 0, 64, 0
1, 356163, Note_off_c, 0, 45, 0
1, 356163, Note_off_c, 0, 33, 0
1, 356163, Note_off_c, 0, 71, 0
1, 356163, Note_on_c, 0, 71, 36
1, 356163, Note_on_c, 0, 33, 36
1, 356163, Note_on_c, 0, 45, 36
1, 356163, Note_on_c, 0, 69, 23
1, 356163, Note_on_c, 0, 59, 36
1, 356163, Note_on_c, 0, 31, 36
1, 356163, Note_on_c, 0, 33, 36
1, 356163, Note_on_c, 0, 57, 23
1, 356259, Note_off_c, 0, 78, 0
1, 356259, Note_off_c, 0, 90, 0
1, 356259, Note_off_c, 0, 66, 0
1, 356259, Note_off_c, 0, 78, 0
1, 356355, Note_off_c, 0, 57, 0
1, 356355, Note_off_c, 0, 33, 0
1, 356355, Note_off_c, 0, 31, 0
1, 356355, Note_off_c, 0, 59, 0
1, 356355, Note_off_c, 0, 69, 0
1, 356355, Note_off_c, 0, 45, 0
1, 356355, Note_off_c, 0, 33, 0
1, 356355, Note_off_c, 0, 71, 0
1, 356355, Note_on_c, 0, 71, 36
1, 356355, Note_on_c, 0, 32, 36
1, 356355, Note_on_c, 0, 44, 36
1, 356355, Note_on_c, 0, 85, 43
1, 356355, Note_on_c, 0, 78, 43
1, 356355, Note_on_c, 0, 56, 23
1, 356355, Note_on_c, 0, 59, 36
1, 356355, Note_on_c, 0, 30, 36
1, 356355, Note_on_c, 0, 32, 36
1, 356355, Note_on_c, 0, 73, 43
1, 356355, Note_on_c, 0, 66, 43
1, 356355, Note_on_c, 0, 44, 23
1, 356547, Note_off_c, 0, 32, 0
1, 356547, Note_off_c, 0, 30, 0
1, 356547, Note_off_c, 0, 59, 0
1, 356547, Note_off_c, 0, 44, 0
1, 356547, Note_off_c, 0, 32, 0
1, 356547, Note_off_c, 0, 71, 0
1, 356547, Note_on_c, 0, 71, 36
1, 356547, Note_on_c, 0, 32, 36
1, 356547, Note_on_c, 0, 44, 36
1, 356547, Note_on_c, 0, 59, 36
1, 356547, Note_on_c, 0, 30, 36
1, 356547, Note_on_c, 0, 32, 36
1, 356643, Note_off_c, 0, 44, 0
1, 356643, Note_off_c, 0, 56, 0
1, 356739, Note_off_c, 0, 32, 0
1, 356739, Note_off_c, 0, 30, 0
1, 356739, Note_off_c, 0, 59, 0
1, 356739, Note_off_c, 0, 44, 0
1, 356739, Note_off_c, 0, 32, 0
1, 356739, Note_off_c, 0, 71, 0
1, 356739, Note_on_c, 0, 71, 36
1, 356739, Note_on_c, 0, 32, 36
1, 356739, Note_on_c, 0, 44, 36
1, 356739, Note_on_c, 0, 64, 23
1, 356739, Note_on_c, 0, 59, 36
1, 356739, Note_on_c, 0, 30, 36
1, 356739, Note_on_c, 0, 32, 36
1, 356739, Note_on_c, 0, 52, 23
1, 356835, Note_off_c, 0, 73, 0
1, 356835, Note_off_c, 0, 85, 0
1, 356931, Note_off_c, 0, 52, 0
1, 356931, Note_off_c, 0, 32, 0
1, 356931, Note_off_c, 0, 30, 0
1, 356931, Note_off_c, 0, 59, 0
1, 356931, Note_off_c, 0, 64, 0
1, 356931, Note_off_c, 0, 44, 0
1, 356931, Note_off_c, 0, 32, 0
1, 356931, Note_off_c, 0, 71, 0
1, 356931, Note_on_c, 0, 71, 36
1, 356931, Note_on_c, 0, 32, 36
1, 356931, Note_on_c, 0, 44, 36
1, 356931, Note_on_c, 0, 90, 43
1, 356931, Note_on_c, 0, 68, 23
1, 356931, Note_on_c, 0, 59, 36
1, 356931, Note_on_c, 0, 30, 36
1, 356931, Note_on_c, 0, 32, 36
1, 356931, Note_on_c, 0, 78, 43
1, 356931, Note_on_c, 0, 56, 23
1, 357123, Note_off_c, 0, 56, 0
1, 357123, Note_off_c, 0, 32, 0
1, 357123, Note_off_c, 0, 30, 0
1, 357123, Note_off_c, 0, 59, 0
1, 357123, Note_off_c, 0, 68, 0
1, 357123, Note_off_c, 0, 44, 0
1, 357123, Note_off_c, 0, 32, 0
1, 357123, Note_off_c, 0, 71, 0
1, 357123, Note_on_c, 0, 71, 36
1, 357123, Note_on_c, 0, 32, 36
1, 357123, Note_on_c, 0, 44, 36
1, 357123, Note_on_c, 0, 56, 23
1, 357123, Note_on_c, 0, 59, 36
1, 357123, Note_on_c, 0, 30, 36
1, 357123, Note_on_c, 0, 32, 36
1, 357123, Note_on_c, 0, 44, 23
1, 357315, Note_off_c, 0, 32, 0
1, 357315, Note_off_c, 0, 30, 0
1, 357315, Note_off_c, 0, 59, 0
1, 357315, Note_off_c, 0, 44, 0
1, 357315, Note_off_c, 0, 32, 0
1, 357315, Note_off_c, 0, 71, 0
1, 357315, Note_on_c, 0, 71, 36
1, 357315, Note_on_c, 0, 32, 36
1, 357315, Note_on_c, 0, 44, 36
1, 357315, Note_on_c, 0, 59, 36
1, 357315, Note_on_c, 0, 30, 36
1, 357315, Note_on_c, 0, 32, 36
1, 357411, Note_off_c, 0, 44, 0
1, 357411, Note_off_c, 0, 56, 0
1, 357411, Note_off_c, 0, 78, 0
1, 357411, Note_off_c, 0, 90, 0
1, 357507, Note_off_c, 0, 32, 0
1, 357507, Note_off_c, 0, 30, 0
1, 357507, Note_off_c, 0, 59, 0
1, 357507, Note_off_c, 0, 44, 0
1, 357507, Note_off_c, 0, 32, 0
1, 357507, Note_off_c, 0, 71, 0
1, 357507, Note_on_c, 0, 71, 36
1, 357507, Note_on_c, 0, 32, 36
1, 357507, Note_on_c, 0, 44, 36
1, 357507, Note_on_c, 0, 90, 43
1, 357507, Note_on_c, 0, 64, 23
1, 357507, Note_on_c, 0, 59, 36
1, 357507, Note_on_c, 0, 30, 36
1, 357507, Note_on_c, 0, 32, 36
1, 357507, Note_on_c, 0, 78, 43
1, 357507, Note_on_c, 0, 52, 23
1, 357699, Note_off_c, 0, 52, 0
1, 357699, Note_off_c, 0, 32, 0
1, 357699, Note_off_c, 0, 30, 0
1, 357699, Note_off_c, 0, 59, 0
1, 357699, Note_off_c, 0, 64, 0
1, 357699, Note_off_c, 0, 44, 0
1, 357699, Note_off_c, 0, 32, 0
1, 357699, Note_off_c, 0, 71, 0
1, 357699, Note_on_c, 0, 71, 36
1, 357699, Note_on_c, 0, 32, 36
1, 357699, Note_on_c, 0, 44, 36
1, 357699, Note_on_c, 0, 68, 23
1, 357699, Note_on_c, 0, 59, 36
1, 357699, Note_on_c, 0, 30, 36
1, 357699, Note_on_c, 0, 32, 36
1, 357699, Note_on_c, 0, 56, 23
1, 357795, Note_off_c, 0, 78, 0
1, 357795, Note_off_c, 0, 90, 0
1, 357795, Note_off_c, 0, 66, 0
1, 357795, Note_off_c, 0, 78, 0
1, 357891, Note_off_c, 0, 56, 0
1, 357891, Note_off_c, 0, 32, 0
1, 357891, Note_off_c, 0, 30, 0
1, 357891, Note_off_c, 0, 59, 0
1, 357891, Note_off_c, 0, 68, 0
1, 357891, Note_off_c, 0, 44, 0
1, 357891, Note_off_c, 0, 32, 0
1, 357891, Note_off_c, 0, 71, 0
1, 357891, Note_on_c, 0, 71, 36
1, 357891, Note_on_c, 0, 32, 36
1, 357891, Note_on_c, 0, 44, 36
1, 357891, Note_on_c, 0, 90, 43
1, 357891, Note_on_c, 0, 56, 23
1, 357891, Note_on_c, 0, 59, 36
1, 357891, Note_on_c, 0, 30, 36
1, 357891, Note_on_c, 0, 32, 36
1, 357891, Note_on_c, 0, 78, 43
1, 357891, Note_on_c, 0, 44, 23
1, 358083, Note_off_c, 0, 78, 0
1, 358083, Note_off_c, 0, 32, 0
1, 358083, Note_off_c, 0, 30, 0
1, 358083, Note_off_c, 0, 59, 0
1, 358083, Note_off_c, 0, 44, 0
1, 358083, Note_off_c, 0, 32, 0
1, 358083, Note_off_c, 0, 71, 0
1, 358083, Note_on_c, 0, 71, 36
1, 358083, Note_on_c, 0, 32, 36
1, 358083, Note_on_c, 0, 44, 36
1, 358083, Note_on_c, 0, 59, 36
1, 358083, Note_on_c, 0, 30, 36
1, 358083, Note_on_c, 0, 32, 36
1, 358179, Note_off_c, 0, 44, 0
1, 358179, Note_off_c, 0, 56, 0
1, 358179, Note_off_c, 0, 90, 0
1, 358179, Note_on_c, 0, 88, 43
1, 358179, Note_on_c, 0, 76, 50
1, 358275, Note_off_c, 0, 76, 0
1, 358275, Note_off_c, 0, 88, 0
1, 358275, Note_off_c, 0, 32, 0
1, 358275, Note_off_c, 0, 30, 0
1, 358275, Note_off_c, 0, 59, 0
1, 358275, Note_off_c, 0, 44, 0
1, 358275, Note_off_c, 0, 32, 0
1, 358275, Note_off_c, 0, 71, 0
1, 358275, Note_on_c, 0, 71, 36
1, 358275, Note_on_c, 0, 32, 36
1, 358275, Note_on_c, 0, 44, 36
1, 358275, Note_on_c, 0, 64, 23
1, 358275, Note_on_c, 0, 59, 36
1, 358275, Note_on_c, 0, 30, 36
1, 358275, Note_on_c, 0, 32, 36
1, 358275, Note_on_c, 0, 52, 23
1, 358275, Note_on_c, 0, 86, 50
1, 358275, Note_on_c, 0, 74, 50
1, 358371, Note_off_c, 0, 74, 0
1, 358371, Note_off_c, 0, 86, 0
1, 358467, Note_off_c, 0, 52, 0
1, 358467, Note_off_c, 0, 32, 0
1, 358467, Note_off_c, 0, 30, 0
1, 358467, Note_off_c, 0, 59, 0
1, 358467, Note_off_c, 0, 64, 0
1, 358467, Note_off_c, 0, 44, 0
1, 358467, Note_off_c, 0, 32, 0
1, 358467, Note_off_c, 0, 71, 0
1, 358467, Note_on_c, 0, 71, 36
1, 358467, Note_on_c, 0, 32, 36
1, 358467, Note_on_c, 0, 44, 36
1, 358467, Note_on_c, 0, 68, 23
1, 358467, Note_on_c, 0, 59, 36
1, 358467, Note_on_c, 0, 30, 36
1, 358467, Note_on_c, 0, 32, 36
1, 358467, Note_on_c, 0, 73, 43
1, 358467, Note_on_c, 0, 56, 23
1, 358467, Note_on_c, 0, 85, 43
1, 358659, Note_off_c, 0, 85, 0
1, 358659, Note_off_c, 0, 56, 0
1, 358659, Note_off_c, 0, 73, 0
1, 358659, Note_off_c, 0, 32, 0
1, 358659, Note_off_c, 0, 30, 0
1, 358659, Note_off_c, 0, 59, 0
1, 358659, Note_off_c, 0, 68, 0
1, 358659, Note_off_c, 0, 44, 0
1, 358659, Note_off_c, 0, 32, 0
1, 358659, Note_off_c, 0, 71, 0
1, 358659, Note_on_c, 0, 71, 36
1, 358659, Note_on_c, 0, 32, 36
1, 358659, Note_on_c, 0, 44, 36
1, 358659, Note_on_c, 0, 83, 43
1, 358659, Note_on_c, 0, 56, 23
1, 358659, Note_on_c, 0, 59, 36
1, 358659, Note_on_c, 0, 30, 36
1, 358659, Note_on_c, 0, 32, 36
1, 358659, Note_on_c, 0, 71, 43
1, 358659, Note_on_c, 0, 44, 23
1, 358851, Note_off_c, 0, 32, 0
1, 358851, Note_off_c, 0, 30, 0
1, 358851, Note_off_c, 0, 59, 0
1, 358851, Note_off_c, 0, 44, 0
1, 358851, Note_off_c, 0, 32, 0
1, 358851, Note_off_c, 0, 71, 0
1, 358851, Note_on_c, 0, 71, 36
1, 358851, Note_on_c, 0, 32, 36
1, 358851, Note_on_c, 0, 44, 36
1, 358851, Note_on_c, 0, 59, 36
1, 358851, Note_on_c, 0, 30, 36
1, 358851, Note_on_c, 0, 32, 36
1, 358947, Note_off_c, 0, 44, 0
1, 358947, Note_off_c, 0, 56, 0
1, 359043, Note_off_c, 0, 32, 0
1, 359043, Note_off_c, 0, 30, 0
1, 359043, Note_off_c, 0, 59, 0
1, 359043, Note_off_c, 0, 44, 0
1, 359043, Note_off_c, 0, 32, 0
1, 359043, Note_off_c, 0, 71, 0
1, 359043, Note_on_c, 0, 71, 36
1, 359043, Note_on_c, 0, 32, 36
1, 359043, Note_on_c, 0, 44, 36
1, 359043, Note_on_c, 0, 64, 23
1, 359043, Note_on_c, 0, 59, 36
1, 359043, Note_on_c, 0, 30, 36
1, 359043, Note_on_c, 0, 32, 36
1, 359043, Note_on_c, 0, 52, 23
1, 359235, Note_off_c, 0, 52, 0
1, 359235, Note_off_c, 0, 32, 0
1, 359235, Note_off_c, 0, 30, 0
1, 359235, Note_off_c, 0, 59, 0
1, 359235, Note_off_c, 0, 64, 0
1, 359235, Note_off_c, 0, 44, 0
1, 359235, Note_off_c, 0, 32, 0
1, 359235, Note_off_c, 0, 71, 0
1, 359235, Note_on_c, 0, 71, 36
1, 359235, Note_on_c, 0, 32, 36
1, 359235, Note_on_c, 0, 44, 36
1, 359235, Note_on_c, 0, 68, 23
1, 359235, Note_on_c, 0, 59, 36
1, 359235, Note_on_c, 0, 30, 36
1, 359235, Note_on_c, 0, 32, 36
1, 359235, Note_on_c, 0, 56, 23
1, 359331, Note_off_c, 0, 71, 0
1, 359331, Note_off_c, 0, 83, 0
1, 359427, Note_off_c, 0, 56, 0
1, 359427, Note_off_c, 0, 32, 0
1, 359427, Note_off_c, 0, 30, 0
1, 359427, Note_off_c, 0, 59, 0
1, 359427, Note_off_c, 0, 68, 0
1, 359427, Note_off_c, 0, 44, 0
1, 359427, Note_off_c, 0, 32, 0
1, 359427, Note_off_c, 0, 71, 0
1, 359427, Note_on_c, 0, 71, 36
1, 359427, Note_on_c, 0, 31, 36
1, 359427, Note_on_c, 0, 43, 36
1, 359427, Note_on_c, 0, 85, 43
1, 359427, Note_on_c, 0, 55, 23
1, 359427, Note_on_c, 0, 59, 36
1, 359427, Note_on_c, 0, 29, 36
1, 359427, Note_on_c, 0, 31, 36
1, 359427, Note_on_c, 0, 73, 43
1, 359427, Note_on_c, 0, 43, 23
1, 359619, Note_off_c, 0, 31, 0
1, 359619, Note_off_c, 0, 29, 0
1, 359619, Note_off_c, 0, 59, 0
1, 359619, Note_off_c, 0, 43, 0
1, 359619, Note_off_c, 0, 31, 0
1, 359619, Note_off_c, 0, 71, 0
1, 359619, Note_on_c, 0, 71, 36
1, 359619, Note_on_c, 0, 31, 36
1, 359619, Note_on_c, 0, 43, 36
1, 359619, Note_on_c, 0, 59, 36
1, 359619, Note_on_c, 0, 29, 36
1, 359619, Note_on_c, 0, 31, 36
1, 359715, Note_off_c, 0, 43, 0
1, 359715, Note_off_c, 0, 55, 0
1, 359811, Note_off_c, 0, 31, 0
1, 359811, Note_off_c, 0, 29, 0
1, 359811, Note_off_c, 0, 59, 0
1, 359811, Note_off_c, 0, 43, 0
1, 359811, Note_off_c, 0, 31, 0
1, 359811, Note_off_c, 0, 71, 0
1, 359811, Note_on_c, 0, 71, 36
1, 359811, Note_on_c, 0, 31, 36
1, 359811, Note_on_c, 0, 43, 36
1, 359811, Note_on_c, 0, 62, 23
1, 359811, Note_on_c, 0, 59, 36
1, 359811, Note_on_c, 0, 29, 36
1, 359811, Note_on_c, 0, 31, 36
1, 359811, Note_on_c, 0, 50, 23
1, 360003, Note_off_c, 0, 50, 0
1, 360003, Note_off_c, 0, 31, 0
1, 360003, Note_off_c, 0, 29, 0
1, 360003, Note_off_c, 0, 59, 0
1, 360003, Note_off_c, 0, 62, 0
1, 360003, Note_off_c, 0, 43, 0
1, 360003, Note_off_c, 0, 31, 0
1, 360003, Note_off_c, 0, 71, 0
1, 360003, Note_on_c, 0, 71, 36
1, 360003, Note_on_c, 0, 31, 36
1, 360003, Note_on_c, 0, 43, 36
1, 360003, Note_on_c, 0, 67, 23
1, 360003, Note_on_c, 0, 59, 36
1, 360003, Note_on_c, 0, 29, 36
1, 360003, Note_on_c, 0, 31, 36
1, 360003, Note_on_c, 0, 55, 23
1, 360195, Note_off_c, 0, 55, 0
1, 360195, Note_off_c, 0, 31, 0
1, 360195, Note_off_c, 0, 29, 0
1, 360195, Note_off_c, 0, 59, 0
1, 360195, Note_off_c, 0, 67, 0
1, 360195, Note_off_c, 0, 43, 0
1, 360195, Note_off_c, 0, 31, 0
1, 360195, Note_off_c, 0, 71, 0
1, 360195, Note_on_c, 0, 71, 36
1, 360195, Note_on_c, 0, 31, 36
1, 360195, Note_on_c, 0, 43, 36
1, 360195, Note_on_c, 0, 55, 23
1, 360195, Note_on_c, 0, 59, 36
1, 360195, Note_on_c, 0, 29, 36
1, 360195, Note_on_c, 0, 31, 36
1, 360195, Note_on_c, 0, 43, 23
1, 360387, Note_off_c, 0, 31, 0
1, 360387, Note_off_c, 0, 29, 0
1, 360387, Note_off_c, 0, 59, 0
1, 360387, Note_off_c, 0, 43, 0
1, 360387, Note_off_c, 0, 31, 0
1, 360387, Note_off_c, 0, 71, 0
1, 360387, Note_on_c, 0, 71, 36
1, 360387, Note_on_c, 0, 31, 36
1, 360387, Note_on_c, 0, 43, 36
1, 360387, Note_on_c, 0, 59, 36
1, 360387, Note_on_c, 0, 29, 36
1, 360387, Note_on_c, 0, 31, 36
1, 360483, Note_off_c, 0, 43, 0
1, 360483, Note_off_c, 0, 55, 0
1, 360579, Note_off_c, 0, 31, 0
1, 360579, Note_off_c, 0, 29, 0
1, 360579, Note_off_c, 0, 59, 0
1, 360579, Note_off_c, 0, 43, 0
1, 360579, Note_off_c, 0, 31, 0
1, 360579, Note_off_c, 0, 71, 0
1, 360579, Note_on_c, 0, 71, 36
1, 360579, Note_on_c, 0, 31, 36
1, 360579, Note_on_c, 0, 43, 36
1, 360579, Note_on_c, 0, 62, 23
1, 360579, Note_on_c, 0, 59, 36
1, 360579, Note_on_c, 0, 29, 36
1, 360579, Note_on_c, 0, 31, 36
1, 360579, Note_on_c, 0, 50, 23
1, 360771, Note_off_c, 0, 50, 0
1, 360771, Note_off_c, 0, 31, 0
1, 360771, Note_off_c, 0, 29, 0
1, 360771, Note_off_c, 0, 59, 0
1, 360771, Note_off_c, 0, 62, 0
1, 360771, Note_off_c, 0, 43, 0
1, 360771, Note_off_c, 0, 31, 0
1, 360771, Note_off_c, 0, 71, 0
1, 360771, Note_on_c, 0, 71, 36
1, 360771, Note_on_c, 0, 31, 36
1, 360771, Note_on_c, 0, 43, 36
1, 360771, Note_on_c, 0, 67, 23
1, 360771, Note_on_c, 0, 59, 36
1, 360771, Note_on_c, 0, 29, 36
1, 360771, Note_on_c, 0, 31, 36
1, 360771, Note_on_c, 0, 55, 23
1, 360867, Note_off_c, 0, 73, 0
1, 360867, Note_off_c, 0, 85, 0
1, 360963, Note_off_c, 0, 55, 0
1, 360963, Note_off_c, 0, 31, 0
1, 360963, Note_off_c, 0, 29, 0
1, 360963, Note_off_c, 0, 59, 0
1, 360963, Note_off_c, 0, 67, 0
1, 360963, Note_off_c, 0, 43, 0
1, 360963, Note_off_c, 0, 31, 0
1, 360963, Note_off_c, 0, 71, 0
1, 360963, Note_on_c, 0, 71, 36
1, 360963, Note_on_c, 0, 33, 36
1, 360963, Note_on_c, 0, 45, 36
1, 360963, Note_on_c, 0, 86, 43
1, 360963, Note_on_c, 0, 57, 23
1, 360963, Note_on_c, 0, 59, 36
1, 360963, Note_on_c, 0, 31, 36
1, 360963, Note_on_c, 0, 33, 36
1, 360963, Note_on_c, 0, 74, 43
1, 360963, Note_on_c, 0, 45, 23
1, 361059, Note_off_c, 0, 33, 0
1, 361059, Note_off_c, 0, 31, 0
1, 361059, Note_off_c, 0, 45, 0
1, 361059, Note_off_c, 0, 33, 0
1, 361059, Note_on_c, 0, 33, 36
1, 361059, Note_on_c, 0, 45, 36
1, 361059, Note_on_c, 0, 31, 36
1, 361059, Note_on_c, 0, 33, 36
1, 361155, Note_off_c, 0, 33, 0
1, 361155, Note_off_c, 0, 31, 0
1, 361155, Note_off_c, 0, 45, 0
1, 361155, Note_off_c, 0, 33, 0
1, 361155, Note_off_c, 0, 59, 0
1, 361155, Note_off_c, 0, 71, 0
1, 361155, Note_on_c, 0, 71, 36
1, 361155, Note_on_c, 0, 33, 36
1, 361155, Note_on_c, 0, 45, 36
1, 361155, Note_on_c, 0, 59, 36
1, 361155, Note_on_c, 0, 31, 36
1, 361155, Note_on_c, 0, 33, 36
1, 361251, Note_off_c, 0, 33, 0
1, 361251, Note_off_c, 0, 31, 0
1, 361251, Note_off_c, 0, 45, 0
1, 361251, Note_off_c, 0, 33, 0
1, 361251, Note_off_c, 0, 45, 0
1, 361251, Note_off_c, 0, 57, 0
1, 361251, Note_on_c, 0, 33, 36
1, 361251, Note_on_c, 0, 45, 36
1, 361251, Note_on_c, 0, 31, 36
1, 361251, Note_on_c, 0, 33, 36
1, 361347, Note_off_c, 0, 33, 0
1, 361347, Note_off_c, 0, 31, 0
1, 361347, Note_off_c, 0, 45, 0
1, 361347, Note_off_c, 0, 33, 0
1, 361347, Note_off_c, 0, 59, 0
1, 361347, Note_off_c, 0, 71, 0
1, 361347, Note_on_c, 0, 71, 36
1, 361347, Note_on_c, 0, 33, 36
1, 361347, Note_on_c, 0, 45, 36
1, 361347, Note_on_c, 0, 64, 23
1, 361347, Note_on_c, 0, 59, 36
1, 361347, Note_on_c, 0, 31, 36
1, 361347, Note_on_c, 0, 33, 36
1, 361347, Note_on_c, 0, 52, 23
1, 361443, Note_off_c, 0, 33, 0
1, 361443, Note_off_c, 0, 31, 0
1, 361443, Note_off_c, 0, 45, 0
1, 361443, Note_off_c, 0, 33, 0
1, 361443, Note_on_c, 0, 33, 36
1, 361443, Note_on_c, 0, 45, 36
1, 361443, Note_on_c, 0, 31, 36
1, 361443, Note_on_c, 0, 33, 36
1, 361539, Note_off_c, 0, 33, 0
1, 361539, Note_off_c, 0, 31, 0
1, 361539, Note_off_c, 0, 45, 0
1, 361539, Note_off_c, 0, 33, 0
1, 361539, Note_off_c, 0, 52, 0
1, 361539, Note_off_c, 0, 59, 0
1, 361539, Note_off_c, 0, 64, 0
1, 361539, Note_off_c, 0, 71, 0
1, 361539, Note_on_c, 0, 71, 36
1, 361539, Note_on_c, 0, 33, 36
1, 361539, Note_on_c, 0, 45, 36
1, 361539, Note_on_c, 0, 69, 23
1, 361539, Note_on_c, 0, 59, 36
1, 361539, Note_on_c, 0, 31, 36
1, 361539, Note_on_c, 0, 33, 36
1, 361539, Note_on_c, 0, 57, 23
1, 361635, Note_off_c, 0, 33, 0
1, 361635, Note_off_c, 0, 31, 0
1, 361635, Note_off_c, 0, 45, 0
1, 361635, Note_off_c, 0, 33, 0
1, 361635, Note_on_c, 0, 33, 36
1, 361635, Note_on_c, 0, 45, 36
1, 361635, Note_on_c, 0, 31, 36
1, 361635, Note_on_c, 0, 33, 36
1, 361731, Note_off_c, 0, 33, 0
1, 361731, Note_off_c, 0, 31, 0
1, 361731, Note_off_c, 0, 45, 0
1, 361731, Note_off_c, 0, 33, 0
1, 361731, Note_off_c, 0, 57, 0
1, 361731, Note_off_c, 0, 59, 0
1, 361731, Note_off_c, 0, 69, 0
1, 361731, Note_off_c, 0, 71, 0
1, 361731, Note_on_c, 0, 71, 36
1, 361731, Note_on_c, 0, 33, 36
1, 361731, Note_on_c, 0, 45, 36
1, 361731, Note_on_c, 0, 57, 23
1, 361731, Note_on_c, 0, 59, 36
1, 361731, Note_on_c, 0, 31, 36
1, 361731, Note_on_c, 0, 33, 36
1, 361731, Note_on_c, 0, 45, 23
1, 361827, Note_off_c, 0, 33, 0
1, 361827, Note_off_c, 0, 31, 0
1, 361827, Note_off_c, 0, 45, 0
1, 361827, Note_off_c, 0, 33, 0
1, 361827, Note_on_c, 0, 33, 36
1, 361827, Note_on_c, 0, 45, 36
1, 361827, Note_on_c, 0, 31, 36
1, 361827, Note_on_c, 0, 33, 36
1, 361923, Note_off_c, 0, 33, 0
1, 361923, Note_off_c, 0, 31, 0
1, 361923, Note_off_c, 0, 45, 0
1, 361923, Note_off_c, 0, 33, 0
1, 361923, Note_off_c, 0, 59, 0
1, 361923, Note_off_c, 0, 71, 0
1, 361923, Note_on_c, 0, 71, 36
1, 361923, Note_on_c, 0, 33, 36
1, 361923, Note_on_c, 0, 45, 36
1, 361923, Note_on_c, 0, 59, 36
1, 361923, Note_on_c, 0, 31, 36
1, 361923, Note_on_c, 0, 33, 36
1, 362019, Note_off_c, 0, 33, 0
1, 362019, Note_off_c, 0, 31, 0
1, 362019, Note_off_c, 0, 45, 0
1, 362019, Note_off_c, 0, 33, 0
1, 362019, Note_off_c, 0, 45, 0
1, 362019, Note_off_c, 0, 57, 0
1, 362019, Note_on_c, 0, 33, 36
1, 362019, Note_on_c, 0, 45, 36
1, 362019, Note_on_c, 0, 31, 36
1, 362019, Note_on_c, 0, 33, 36
1, 362115, Note_off_c, 0, 33, 0
1, 362115, Note_off_c, 0, 31, 0
1, 362115, Note_off_c, 0, 45, 0
1, 362115, Note_off_c, 0, 33, 0
1, 362115, Note_off_c, 0, 59, 0
1, 362115, Note_off_c, 0, 71, 0
1, 362115, Note_on_c, 0, 71, 36
1, 362115, Note_on_c, 0, 33, 36
1, 362115, Note_on_c, 0, 45, 36
1, 362115, Note_on_c, 0, 64, 23
1, 362115, Note_on_c, 0, 59, 36
1, 362115, Note_on_c, 0, 31, 36
1, 362115, Note_on_c, 0, 33, 36
1, 362115, Note_on_c, 0, 52, 23
1, 362211, Note_off_c, 0, 33, 0
1, 362211, Note_off_c, 0, 31, 0
1, 362211, Note_off_c, 0, 45, 0
1, 362211, Note_off_c, 0, 33, 0
1, 362211, Note_on_c, 0, 33, 36
1, 362211, Note_on_c, 0, 45, 36
1, 362211, Note_on_c, 0, 31, 36
1, 362211, Note_on_c, 0, 33, 36
1, 362307, Note_off_c, 0, 33, 0
1, 362307, Note_off_c, 0, 31, 0
1, 362307, Note_off_c, 0, 45, 0
1, 362307, Note_off_c, 0, 33, 0
1, 362307, Note_off_c, 0, 52, 0
1, 362307, Note_off_c, 0, 59, 0
1, 362307, Note_off_c, 0, 64, 0
1, 362307, Note_off_c, 0, 71, 0
1, 362307, Note_on_c, 0, 71, 36
1, 362307, Note_on_c, 0, 33, 36
1, 362307, Note_on_c, 0, 45, 36
1, 362307, Note_on_c, 0, 69, 23
1, 362307, Note_on_c, 0, 59, 36
1, 362307, Note_on_c, 0, 31, 36
1, 362307, Note_on_c, 0, 33, 36
1, 362307, Note_on_c, 0, 57, 23
1, 362403, Note_off_c, 0, 33, 0
1, 362403, Note_off_c, 0, 31, 0
1, 362403, Note_off_c, 0, 45, 0
1, 362403, Note_off_c, 0, 33, 0
1, 362403, Note_off_c, 0, 74, 0
1, 362403, Note_off_c, 0, 86, 0
1, 362403, Note_on_c, 0, 33, 36
1, 362403, Note_on_c, 0, 45, 36
1, 362403, Note_on_c, 0, 31, 36
1, 362403, Note_on_c, 0, 33, 36
1, 362499, Note_off_c, 0, 33, 0
1, 362499, Note_off_c, 0, 31, 0
1, 362499, Note_off_c, 0, 45, 0
1, 362499, Note_off_c, 0, 33, 0
1, 362499, Note_off_c, 0, 57, 0
1, 362499, Note_off_c, 0, 59, 0
1, 362499, Note_off_c, 0, 69, 0
1, 362499, Note_off_c, 0, 71, 0
1, 362499, Note_on_c, 0, 35, 36
1, 362499, Note_on_c, 0, 47, 36
1, 362499, Note_on_c, 0, 78, 43
1, 362499, Note_on_c, 0, 85, 43
1, 362499, Note_on_c, 0, 59, 23
1, 362499, Note_on_c, 0, 24, 36
1, 362499, Note_on_c, 0, 35, 36
1, 362499, Note_on_c, 0, 66, 43
1, 362499, Note_on_c, 0, 73, 43
1, 362499, Note_on_c, 0, 47, 23
1, 362691, Note_off_c, 0, 35, 0
1, 362691, Note_off_c, 0, 24, 0
1, 362691, Note_off_c, 0, 47, 0
1, 362691, Note_off_c, 0, 35, 0
1, 362691, Note_on_c, 0, 35, 36
1, 362691, Note_on_c, 0, 47, 36
1, 362691, Note_on_c, 0, 24, 36
1, 362691, Note_on_c, 0, 35, 36
1, 362787, Note_off_c, 0, 47, 0
1, 362787, Note_off_c, 0, 59, 0
1, 362883, Note_off_c, 0, 35, 0
1, 362883, Note_off_c, 0, 24, 0
1, 362883, Note_off_c, 0, 47, 0
1, 362883, Note_off_c, 0, 35, 0
1, 362883, Note_on_c, 0, 35, 36
1, 362883, Note_on_c, 0, 47, 36
1, 362883, Note_on_c, 0, 66, 23
1, 362883, Note_on_c, 0, 24, 36
1, 362883, Note_on_c, 0, 35, 36
1, 362883, Note_on_c, 0, 54, 23
1, 363075, Note_off_c, 0, 54, 0
1, 363075, Note_off_c, 0, 35, 0
1, 363075, Note_off_c, 0, 24, 0
1, 363075, Note_off_c, 0, 66, 0
1, 363075, Note_off_c, 0, 47, 0
1, 363075, Note_off_c, 0, 35, 0
1, 363075, Note_on_c, 0, 35, 36
1, 363075, Note_on_c, 0, 47, 36
1, 363075, Note_on_c, 0, 71, 23
1, 363075, Note_on_c, 0, 24, 36
1, 363075, Note_on_c, 0, 35, 36
1, 363075, Note_on_c, 0, 59, 23
1, 363267, Note_off_c, 0, 59, 0
1, 363267, Note_off_c, 0, 35, 0
1, 363267, Note_off_c, 0, 24, 0
1, 363267, Note_off_c, 0, 71, 0
1, 363267, Note_off_c, 0, 47, 0
1, 363267, Note_off_c, 0, 35, 0
1, 363267, Note_on_c, 0, 35, 36
1, 363267, Note_on_c, 0, 47, 36
1, 363267, Note_on_c, 0, 59, 23
1, 363267, Note_on_c, 0, 24, 36
1, 363267, Note_on_c, 0, 35, 36
1, 363267, Note_on_c, 0, 47, 23
1, 363459, Note_off_c, 0, 35, 0
1, 363459, Note_off_c, 0, 24, 0
1, 363459, Note_off_c, 0, 47, 0
1, 363459, Note_off_c, 0, 35, 0
1, 363459, Note_on_c, 0, 35, 36
1, 363459, Note_on_c, 0, 47, 36
1, 363459, Note_on_c, 0, 24, 36
1, 363459, Note_on_c, 0, 35, 36
1, 363555, Note_off_c, 0, 47, 0
1, 363555, Note_off_c, 0, 59, 0
1, 363651, Note_off_c, 0, 35, 0
1, 363651, Note_off_c, 0, 24, 0
1, 363651, Note_off_c, 0, 47, 0
1, 363651, Note_off_c, 0, 35, 0
1, 363651, Note_on_c, 0, 35, 36
1, 363651, Note_on_c, 0, 47, 36
1, 363651, Note_on_c, 0, 66, 23
1, 363651, Note_on_c, 0, 24, 36
1, 363651, Note_on_c, 0, 35, 36
1, 363651, Note_on_c, 0, 54, 23
1, 363843, Note_off_c, 0, 54, 0
1, 363843, Note_off_c, 0, 35, 0
1, 363843, Note_off_c, 0, 24, 0
1, 363843, Note_off_c, 0, 66, 0
1, 363843, Note_off_c, 0, 47, 0
1, 363843, Note_off_c, 0, 35, 0
1, 363843, Note_on_c, 0, 35, 36
1, 363843, Note_on_c, 0, 47, 36
1, 363843, Note_on_c, 0, 71, 23
1, 363843, Note_on_c, 0, 24, 36
1, 363843, Note_on_c, 0, 35, 36
1, 363843, Note_on_c, 0, 59, 23
1, 363939, Note_off_c, 0, 73, 0
1, 363939, Note_off_c, 0, 66, 0
1, 363939, Note_off_c, 0, 85, 0
1, 363939, Note_off_c, 0, 78, 0
1, 364035, Note_off_c, 0, 59, 0
1, 364035, Note_off_c, 0, 35, 0
1, 364035, Note_off_c, 0, 24, 0
1, 364035, Note_off_c, 0, 71, 0
1, 364035, Note_off_c, 0, 47, 0
1, 364035, Note_off_c, 0, 35, 0
1, 364035, Note_on_c, 0, 35, 36
1, 364035, Note_on_c, 0, 47, 36
1, 364035, Note_on_c, 0, 85, 43
1, 364035, Note_on_c, 0, 78, 43
1, 364035, Note_on_c, 0, 59, 23
1, 364035, Note_on_c, 0, 24, 36
1, 364035, Note_on_c, 0, 35, 36
1, 364035, Note_on_c, 0, 73, 43
1, 364035, Note_on_c, 0, 66, 43
1, 364035, Note_on_c, 0, 47, 23
1, 364227, Note_off_c, 0, 35, 0
1, 364227, Note_off_c, 0, 24, 0
1, 364227, Note_off_c, 0, 47, 0
1, 364227, Note_off_c, 0, 35, 0
1, 364227, Note_on_c, 0, 35, 36
1, 364227, Note_on_c, 0, 47, 36
1, 364227, Note_on_c, 0, 24, 36
1, 364227, Note_on_c, 0, 35, 36
1, 364323, Note_off_c, 0, 47, 0
1, 364323, Note_off_c, 0, 59, 0
1, 364419, Note_off_c, 0, 35, 0
1, 364419, Note_off_c, 0, 24, 0
1, 364419, Note_off_c, 0, 47, 0
1, 364419, Note_off_c, 0, 35, 0
1, 364419, Note_on_c, 0, 35, 36
1, 364419, Note_on_c, 0, 47, 36
1, 364419, Note_on_c, 0, 66, 23
1, 364419, Note_on_c, 0, 24, 36
1, 364419, Note_on_c, 0, 35, 36
1, 364419, Note_on_c, 0, 54, 23
1, 364515, Note_off_c, 0, 73, 0
1, 364515, Note_off_c, 0, 85, 0
1, 364611, Note_off_c, 0, 54, 0
1, 364611, Note_off_c, 0, 35, 0
1, 364611, Note_off_c, 0, 24, 0
1, 364611, Note_off_c, 0, 66, 0
1, 364611, Note_off_c, 0, 47, 0
1, 364611, Note_off_c, 0, 35, 0
1, 364611, Note_on_c, 0, 35, 36
1, 364611, Note_on_c, 0, 47, 36
1, 364611, Note_on_c, 0, 83, 43
1, 364611, Note_on_c, 0, 71, 23
1, 364611, Note_on_c, 0, 24, 36
1, 364611, Note_on_c, 0, 35, 36
1, 364611, Note_on_c, 0, 71, 43
1, 364611, Note_on_c, 0, 59, 23
1, 364803, Note_off_c, 0, 59, 0
1, 364803, Note_off_c, 0, 35, 0
1, 364803, Note_off_c, 0, 24, 0
1, 364803, Note_off_c, 0, 71, 0
1, 364803, Note_off_c, 0, 47, 0
1, 364803, Note_off_c, 0, 35, 0
1, 364803, Note_on_c, 0, 35, 36
1, 364803, Note_on_c, 0, 47, 36
1, 364803, Note_on_c, 0, 59, 23
1, 364803, Note_on_c, 0, 24, 36
1, 364803, Note_on_c, 0, 35, 36
1, 364803, Note_on_c, 0, 47, 23
1, 364995, Note_off_c, 0, 35, 0
1, 364995, Note_off_c, 0, 24, 0
1, 364995, Note_off_c, 0, 47, 0
1, 364995, Note_off_c, 0, 35, 0
1, 364995, Note_on_c, 0, 35, 36
1, 364995, Note_on_c, 0, 47, 36
1, 364995, Note_on_c, 0, 24, 36
1, 364995, Note_on_c, 0, 35, 36
1, 365091, Note_off_c, 0, 47, 0
1, 365091, Note_off_c, 0, 59, 0
1, 365091, Note_off_c, 0, 71, 0
1, 365091, Note_off_c, 0, 83, 0
1, 365187, Note_off_c, 0, 35, 0
1, 365187, Note_off_c, 0, 24, 0
1, 365187, Note_off_c, 0, 47, 0
1, 365187, Note_off_c, 0, 35, 0
1, 365187, Note_on_c, 0, 35, 36
1, 365187, Note_on_c, 0, 47, 36
1, 365187, Note_on_c, 0, 90, 43
1, 365187, Note_on_c, 0, 66, 23
1, 365187, Note_on_c, 0, 24, 36
1, 365187, Note_on_c, 0, 35, 36
1, 365187, Note_on_c, 0, 78, 43
1, 365187, Note_on_c, 0, 54, 23
1, 365379, Note_off_c, 0, 54, 0
1, 365379, Note_off_c, 0, 35, 0
1, 365379, Note_off_c, 0, 24, 0
1, 365379, Note_off_c, 0, 66, 0
1, 365379, Note_off_c, 0, 47, 0
1, 365379, Note_off_c, 0, 35, 0
1, 365379, Note_on_c, 0, 35, 36
1, 365379, Note_on_c, 0, 47, 36
1, 365379, Note_on_c, 0, 71, 23
1, 365379, Note_on_c, 0, 24, 36
1, 365379, Note_on_c, 0, 35, 36
1, 365379, Note_on_c, 0, 59, 23
1, 365475, Note_off_c, 0, 78, 0
1, 365475, Note_off_c, 0, 90, 0
1, 365475, Note_off_c, 0, 66, 0
1, 365475, Note_off_c, 0, 78, 0
1, 365571, Note_off_c, 0, 59, 0
1, 365571, Note_off_c, 0, 35, 0
1, 365571, Note_off_c, 0, 24, 0
1, 365571, Note_off_c, 0, 71, 0
1, 365571, Note_off_c, 0, 47, 0
1, 365571, Note_off_c, 0, 35, 0
1, 365571, Note_on_c, 0, 33, 36
1, 365571, Note_on_c, 0, 45, 36
1, 365571, Note_on_c, 0, 78, 43
1, 365571, Note_on_c, 0, 85, 43
1, 365571, Note_on_c, 0, 57, 23
1, 365571, Note_on_c, 0, 31, 36
1, 365571, Note_on_c, 0, 33, 36
1, 365571, Note_on_c, 0, 66, 43
1, 365571, Note_on_c, 0, 73, 43
1, 365571, Note_on_c, 0, 45, 23
1, 365763, Note_off_c, 0, 33, 0
1, 365763, Note_off_c, 0, 31, 0
1, 365763, Note_off_c, 0, 45, 0
1, 365763, Note_off_c, 0, 33, 0
1, 365763, Note_on_c, 0, 33, 36
1, 365763, Note_on_c, 0, 45, 36
1, 365763, Note_on_c, 0, 31, 36
1, 365763, Note_on_c, 0, 33, 36
1, 365859, Note_off_c, 0, 45, 0
1, 365859, Note_off_c, 0, 57, 0
1, 365955, Note_off_c, 0, 33, 0
1, 365955, Note_off_c, 0, 31, 0
1, 365955, Note_off_c, 0, 45, 0
1, 365955, Note_off_c, 0, 33, 0
1, 365955, Note_on_c, 0, 33, 36
1, 365955, Note_on_c, 0, 45, 36
1, 365955, Note_on_c, 0, 64, 23
1, 365955, Note_on_c, 0, 31, 36
1, 365955, Note_on_c, 0, 33, 36
1, 365955, Note_on_c, 0, 52, 23
1, 366147, Note_off_c, 0, 52, 0
1, 366147, Note_off_c, 0, 33, 0
1, 366147, Note_off_c, 0, 31, 0
1, 366147, Note_off_c, 0, 64, 0
1, 366147, Note_off_c, 0, 45, 0
1, 366147, Note_off_c, 0, 33, 0
1, 366147, Note_on_c, 0, 33, 36
1, 366147, Note_on_c, 0, 45, 36
1, 366147, Note_on_c, 0, 69, 23
1, 366147, Note_on_c, 0, 31, 36
1, 366147, Note_on_c, 0, 33, 36
1, 366147, Note_on_c, 0, 57, 23
1, 366339, Note_off_c, 0, 57, 0
1, 366339, Note_off_c, 0, 33, 0
1, 366339, Note_off_c, 0, 31, 0
1, 366339, Note_off_c, 0, 69, 0
1, 366339, Note_off_c, 0, 45, 0
1, 366339, Note_off_c, 0, 33, 0
1, 366339, Note_on_c, 0, 33, 36
1, 366339, Note_on_c, 0, 45, 36
1, 366339, Note_on_c, 0, 57, 23
1, 366339, Note_on_c, 0, 31, 36
1, 366339, Note_on_c, 0, 33, 36
1, 366339, Note_on_c, 0, 45, 23
1, 366531, Note_off_c, 0, 33, 0
1, 366531, Note_off_c, 0, 31, 0
1, 366531, Note_off_c, 0, 45, 0
1, 366531, Note_off_c, 0, 33, 0
1, 366531, Note_on_c, 0, 33, 36
1, 366531, Note_on_c, 0, 45, 36
1, 366531, Note_on_c, 0, 31, 36
1, 366531, Note_on_c, 0, 33, 36
1, 366627, Note_off_c, 0, 45, 0
1, 366627, Note_off_c, 0, 57, 0
1, 366723, Note_off_c, 0, 33, 0
1, 366723, Note_off_c, 0, 31, 0
1, 366723, Note_off_c, 0, 45, 0
1, 366723, Note_off_c, 0, 33, 0
1, 366723, Note_on_c, 0, 33, 36
1, 366723, Note_on_c, 0, 45, 36
1, 366723, Note_on_c, 0, 64, 23
1, 366723, Note_on_c, 0, 31, 36
1, 366723, Note_on_c, 0, 33, 36
1, 366723, Note_on_c, 0, 52, 23
1, 366915, Note_off_c, 0, 52, 0
1, 366915, Note_off_c, 0, 33, 0
1, 366915, Note_off_c, 0, 31, 0
1, 366915, Note_off_c, 0, 64, 0
1, 366915, Note_off_c, 0, 45, 0
1, 366915, Note_off_c, 0, 33, 0
1, 366915, Note_on_c, 0, 33, 36
1, 366915, Note_on_c, 0, 45, 36
1, 366915, Note_on_c, 0, 69, 23
1, 366915, Note_on_c, 0, 31, 36
1, 366915, Note_on_c, 0, 33, 36
1, 366915, Note_on_c, 0, 57, 23
1, 367011, Note_off_c, 0, 73, 0
1, 367011, Note_off_c, 0, 66, 0
1, 367011, Note_off_c, 0, 85, 0
1, 367011, Note_off_c, 0, 78, 0
1, 367107, Note_off_c, 0, 57, 0
1, 367107, Note_off_c, 0, 33, 0
1, 367107, Note_off_c, 0, 31, 0
1, 367107, Note_off_c, 0, 69, 0
1, 367107, Note_off_c, 0, 45, 0
1, 367107, Note_off_c, 0, 33, 0
1, 367107, Note_on_c, 0, 33, 36
1, 367107, Note_on_c, 0, 45, 36
1, 367107, Note_on_c, 0, 85, 43
1, 367107, Note_on_c, 0, 78, 43
1, 367107, Note_on_c, 0, 57, 23
1, 367107, Note_on_c, 0, 31, 36
1, 367107, Note_on_c, 0, 33, 36
1, 367107, Note_on_c, 0, 73, 43
1, 367107, Note_on_c, 0, 66, 43
1, 367107, Note_on_c, 0, 45, 23
1, 367299, Note_off_c, 0, 33, 0
1, 367299, Note_off_c, 0, 31, 0
1, 367299, Note_off_c, 0, 45, 0
1, 367299, Note_off_c, 0, 33, 0
1, 367299, Note_on_c, 0, 33, 36
1, 367299, Note_on_c, 0, 45, 36
1, 367299, Note_on_c, 0, 31, 36
1, 367299, Note_on_c, 0, 33, 36
1, 367395, Note_off_c, 0, 45, 0
1, 367395, Note_off_c, 0, 57, 0
1, 367491, Note_off_c, 0, 33, 0
1, 367491, Note_off_c, 0, 31, 0
1, 367491, Note_off_c, 0, 45, 0
1, 367491, Note_off_c, 0, 33, 0
1, 367491, Note_on_c, 0, 33, 36
1, 367491, Note_on_c, 0, 45, 36
1, 367491, Note_on_c, 0, 64, 23
1, 367491, Note_on_c, 0, 31, 36
1, 367491, Note_on_c, 0, 33, 36
1, 367491, Note_on_c, 0, 52, 23
1, 367587, Note_off_c, 0, 73, 0
1, 367587, Note_off_c, 0, 85, 0
1, 367683, Note_off_c, 0, 52, 0
1, 367683, Note_off_c, 0, 33, 0
1, 367683, Note_off_c, 0, 31, 0
1, 367683, Note_off_c, 0, 64, 0
1, 367683, Note_off_c, 0, 45, 0
1, 367683, Note_off_c, 0, 33, 0
1, 367683, Note_on_c, 0, 33, 36
1, 367683, Note_on_c, 0, 45, 36
1, 367683, Note_on_c, 0, 83, 43
1, 367683, Note_on_c, 0, 69, 23
1, 367683, Note_on_c, 0, 31, 36
1, 367683, Note_on_c, 0, 33, 36
1, 367683, Note_on_c, 0, 71, 43
1, 367683, Note_on_c, 0, 57, 23
1, 367875, Note_off_c, 0, 57, 0
1, 367875, Note_off_c, 0, 33, 0
1, 367875, Note_off_c, 0, 31, 0
1, 367875, Note_off_c, 0, 69, 0
1, 367875, Note_off_c, 0, 45, 0
1, 367875, Note_off_c, 0, 33, 0
1, 367875, Note_on_c, 0, 33, 36
1, 367875, Note_on_c, 0, 45, 36
1, 367875, Note_on_c, 0, 57, 23
1, 367875, Note_on_c, 0, 31, 36
1, 367875, Note_on_c, 0, 33, 36
1, 367875, Note_on_c, 0, 45, 23
1, 368067, Note_off_c, 0, 33, 0
1, 368067, Note_off_c, 0, 31, 0
1, 368067, Note_off_c, 0, 45, 0
1, 368067, Note_off_c, 0, 33, 0
1, 368067, Note_on_c, 0, 33, 36
1, 368067, Note_on_c, 0, 45, 36
1, 368067, Note_on_c, 0, 31, 36
1, 368067, Note_on_c, 0, 33, 36
1, 368163, Note_off_c, 0, 45, 0
1, 368163, Note_off_c, 0, 57, 0
1, 368163, Note_off_c, 0, 71, 0
1, 368163, Note_off_c, 0, 83, 0
1, 368259, Note_off_c, 0, 33, 0
1, 368259, Note_off_c, 0, 31, 0
1, 368259, Note_off_c, 0, 45, 0
1, 368259, Note_off_c, 0, 33, 0
1, 368259, Note_on_c, 0, 33, 36
1, 368259, Note_on_c, 0, 45, 36
1, 368259, Note_on_c, 0, 90, 43
1, 368259, Note_on_c, 0, 64, 23
1, 368259, Note_on_c, 0, 31, 36
1, 368259, Note_on_c, 0, 33, 36
1, 368259, Note_on_c, 0, 78, 43
1, 368259, Note_on_c, 0, 52, 23
1, 368451, Note_off_c, 0, 52, 0
1, 368451, Note_off_c, 0, 33, 0
1, 368451, Note_off_c, 0, 31, 0
1, 368451, Note_off_c, 0, 64, 0
1, 368451, Note_off_c, 0, 45, 0
1, 368451, Note_off_c, 0, 33, 0
1, 368451, Note_on_c, 0, 33, 36
1, 368451, Note_on_c, 0, 45, 36
1, 368451, Note_on_c, 0, 69, 23
1, 368451, Note_on_c, 0, 31, 36
1, 368451, Note_on_c, 0, 33, 36
1, 368451, Note_on_c, 0, 57, 23
1, 368547, Note_off_c, 0, 78, 0
1, 368547, Note_off_c, 0, 90, 0
1, 368547, Note_off_c, 0, 66, 0
1, 368547, Note_off_c, 0, 78, 0
1, 368643, Note_off_c, 0, 57, 0
1, 368643, Note_off_c, 0, 33, 0
1, 368643, Note_off_c, 0, 31, 0
1, 368643, Note_off_c, 0, 69, 0
1, 368643, Note_off_c, 0, 45, 0
1, 368643, Note_off_c, 0, 33, 0
1, 368643, Note_on_c, 0, 32, 36
1, 368643, Note_on_c, 0, 44, 36
1, 368643, Note_on_c, 0, 78, 43
1, 368643, Note_on_c, 0, 85, 43
1, 368643, Note_on_c, 0, 56, 23
1, 368643, Note_on_c, 0, 30, 36
1, 368643, Note_on_c, 0, 32, 36
1, 368643, Note_on_c, 0, 66, 43
1, 368643, Note_on_c, 0, 73, 43
1, 368643, Note_on_c, 0, 44, 23
1, 368835, Note_off_c, 0, 32, 0
1, 368835, Note_off_c, 0, 30, 0
1, 368835, Note_off_c, 0, 44, 0
1, 368835, Note_off_c, 0, 32, 0
1, 368835, Note_on_c, 0, 32, 36
1, 368835, Note_on_c, 0, 44, 36
1, 368835, Note_on_c, 0, 30, 36
1, 368835, Note_on_c, 0, 32, 36
1, 368931, Note_off_c, 0, 44, 0
1, 368931, Note_off_c, 0, 56, 0
1, 369027, Note_off_c, 0, 32, 0
1, 369027, Note_off_c, 0, 30, 0
1, 369027, Note_off_c, 0, 44, 0
1, 369027, Note_off_c, 0, 32, 0
1, 369027, Note_on_c, 0, 32, 36
1, 369027, Note_on_c, 0, 44, 36
1, 369027, Note_on_c, 0, 64, 23
1, 369027, Note_on_c, 0, 30, 36
1, 369027, Note_on_c, 0, 32, 36
1, 369027, Note_on_c, 0, 52, 23
1, 369219, Note_off_c, 0, 52, 0
1, 369219, Note_off_c, 0, 32, 0
1, 369219, Note_off_c, 0, 30, 0
1, 369219, Note_off_c, 0, 64, 0
1, 369219, Note_off_c, 0, 44, 0
1, 369219, Note_off_c, 0, 32, 0
1, 369219, Note_on_c, 0, 32, 36
1, 369219, Note_on_c, 0, 44, 36
1, 369219, Note_on_c, 0, 68, 23
1, 369219, Note_on_c, 0, 30, 36
1, 369219, Note_on_c, 0, 32, 36
1, 369219, Note_on_c, 0, 56, 23
1, 369411, Note_off_c, 0, 56, 0
1, 369411, Note_off_c, 0, 32, 0
1, 369411, Note_off_c, 0, 30, 0
1, 369411, Note_off_c, 0, 68, 0
1, 369411, Note_off_c, 0, 44, 0
1, 369411, Note_off_c, 0, 32, 0
1, 369411, Note_on_c, 0, 32, 36
1, 369411, Note_on_c, 0, 44, 36
1, 369411, Note_on_c, 0, 56, 23
1, 369411, Note_on_c, 0, 30, 36
1, 369411, Note_on_c, 0, 32, 36
1, 369411, Note_on_c, 0, 44, 23
1, 369603, Note_off_c, 0, 32, 0
1, 369603, Note_off_c, 0, 30, 0
1, 369603, Note_off_c, 0, 44, 0
1, 369603, Note_off_c, 0, 32, 0
1, 369603, Note_on_c, 0, 32, 36
1, 369603, Note_on_c, 0, 44, 36
1, 369603, Note_on_c, 0, 30, 36
1, 369603, Note_on_c, 0, 32, 36
1, 369699, Note_off_c, 0, 44, 0
1, 369699, Note_off_c, 0, 56, 0
1, 369795, Note_off_c, 0, 32, 0
1, 369795, Note_off_c, 0, 30, 0
1, 369795, Note_off_c, 0, 44, 0
1, 369795, Note_off_c, 0, 32, 0
1, 369795, Note_on_c, 0, 32, 36
1, 369795, Note_on_c, 0, 44, 36
1, 369795, Note_on_c, 0, 64, 23
1, 369795, Note_on_c, 0, 30, 36
1, 369795, Note_on_c, 0, 32, 36
1, 369795, Note_on_c, 0, 52, 23
1, 369987, Note_off_c, 0, 52, 0
1, 369987, Note_off_c, 0, 32, 0
1, 369987, Note_off_c, 0, 30, 0
1, 369987, Note_off_c, 0, 64, 0
1, 369987, Note_off_c, 0, 44, 0
1, 369987, Note_off_c, 0, 32, 0
1, 369987, Note_on_c, 0, 32, 36
1, 369987, Note_on_c, 0, 44, 36
1, 369987, Note_on_c, 0, 68, 23
1, 369987, Note_on_c, 0, 30, 36
1, 369987, Note_on_c, 0, 32, 36
1, 369987, Note_on_c, 0, 56, 23
1, 370083, Note_off_c, 0, 73, 0
1, 370083, Note_off_c, 0, 66, 0
1, 370083, Note_off_c, 0, 85, 0
1, 370083, Note_off_c, 0, 78, 0
1, 370179, Note_off_c, 0, 56, 0
1, 370179, Note_off_c, 0, 32, 0
1, 370179, Note_off_c, 0, 30, 0
1, 370179, Note_off_c, 0, 68, 0
1, 370179, Note_off_c, 0, 44, 0
1, 370179, Note_off_c, 0, 32, 0
1, 370179, Note_on_c, 0, 32, 36
1, 370179, Note_on_c, 0, 44, 36
1, 370179, Note_on_c, 0, 85, 43
1, 370179, Note_on_c, 0, 78, 43
1, 370179, Note_on_c, 0, 56, 23
1, 370179, Note_on_c, 0, 30, 36
1, 370179, Note_on_c, 0, 32, 36
1, 370179, Note_on_c, 0, 73, 43
1, 370179, Note_on_c, 0, 66, 43
1, 370179, Note_on_c, 0, 44, 23
1, 370371, Note_off_c, 0, 32, 0
1, 370371, Note_off_c, 0, 30, 0
1, 370371, Note_off_c, 0, 44, 0
1, 370371, Note_off_c, 0, 32, 0
1, 370371, Note_on_c, 0, 32, 36
1, 370371, Note_on_c, 0, 44, 36
1, 370371, Note_on_c, 0, 30, 36
1, 370371, Note_on_c, 0, 32, 36
1, 370467, Note_off_c, 0, 44, 0
1, 370467, Note_off_c, 0, 56, 0
1, 370563, Note_off_c, 0, 32, 0
1, 370563, Note_off_c, 0, 30, 0
1, 370563, Note_off_c, 0, 44, 0
1, 370563, Note_off_c, 0, 32, 0
1, 370563, Note_on_c, 0, 32, 36
1, 370563, Note_on_c, 0, 44, 36
1, 370563, Note_on_c, 0, 64, 23
1, 370563, Note_on_c, 0, 30, 36
1, 370563, Note_on_c, 0, 32, 36
1, 370563, Note_on_c, 0, 52, 23
1, 370659, Note_off_c, 0, 73, 0
1, 370659, Note_off_c, 0, 85, 0
1, 370755, Note_off_c, 0, 52, 0
1, 370755, Note_off_c, 0, 32, 0
1, 370755, Note_off_c, 0, 30, 0
1, 370755, Note_off_c, 0, 64, 0
1, 370755, Note_off_c, 0, 44, 0
1, 370755, Note_off_c, 0, 32, 0
1, 370755, Note_on_c, 0, 32, 36
1, 370755, Note_on_c, 0, 44, 36
1, 370755, Note_on_c, 0, 83, 43
1, 370755, Note_on_c, 0, 68, 23
1, 370755, Note_on_c, 0, 30, 36
1, 370755, Note_on_c, 0, 32, 36
1, 370755, Note_on_c, 0, 71, 43
1, 370755, Note_on_c, 0, 56, 23
1, 370947, Note_off_c, 0, 56, 0
1, 370947, Note_off_c, 0, 32, 0
1, 370947, Note_off_c, 0, 30, 0
1, 370947, Note_off_c, 0, 68, 0
1, 370947, Note_off_c, 0, 44, 0
1, 370947, Note_off_c, 0, 32, 0
1, 370947, Note_on_c, 0, 32, 36
1, 370947, Note_on_c, 0, 44, 36
1, 370947, Note_on_c, 0, 56, 23
1, 370947, Note_on_c, 0, 30, 36
1, 370947, Note_on_c, 0, 32, 36
1, 370947, Note_on_c, 0, 44, 23
1, 371139, Note_off_c, 0, 32, 0
1, 371139, Note_off_c, 0, 30, 0
1, 371139, Note_off_c, 0, 44, 0
1, 371139, Note_off_c, 0, 32, 0
1, 371139, Note_on_c, 0, 32, 36
1, 371139, Note_on_c, 0, 44, 36
1, 371139, Note_on_c, 0, 30, 36
1, 371139, Note_on_c, 0, 32, 36
1, 371235, Note_off_c, 0, 44, 0
1, 371235, Note_off_c, 0, 56, 0
1, 371235, Note_off_c, 0, 71, 0
1, 371235, Note_off_c, 0, 83, 0
1, 371331, Note_off_c, 0, 32, 0
1, 371331, Note_off_c, 0, 30, 0
1, 371331, Note_off_c, 0, 44, 0
1, 371331, Note_off_c, 0, 32, 0
1, 371331, Note_on_c, 0, 32, 36
1, 371331, Note_on_c, 0, 44, 36
1, 371331, Note_on_c, 0, 90, 43
1, 371331, Note_on_c, 0, 64, 23
1, 371331, Note_on_c, 0, 30, 36
1, 371331, Note_on_c, 0, 32, 36
1, 371331, Note_on_c, 0, 78, 43
1, 371331, Note_on_c, 0, 52, 23
1, 371523, Note_off_c, 0, 52, 0
1, 371523, Note_off_c, 0, 32, 0
1, 371523, Note_off_c, 0, 30, 0
1, 371523, Note_off_c, 0, 64, 0
1, 371523, Note_off_c, 0, 44, 0
1, 371523, Note_off_c, 0, 32, 0
1, 371523, Note_on_c, 0, 32, 36
1, 371523, Note_on_c, 0, 44, 36
1, 371523, Note_on_c, 0, 68, 23
1, 371523, Note_on_c, 0, 30, 36
1, 371523, Note_on_c, 0, 32, 36
1, 371523, Note_on_c, 0, 56, 23
1, 371619, Note_off_c, 0, 78, 0
1, 371619, Note_off_c, 0, 90, 0
1, 371619, Note_off_c, 0, 66, 0
1, 371619, Note_off_c, 0, 78, 0
1, 371715, Note_off_c, 0, 56, 0
1, 371715, Note_off_c, 0, 32, 0
1, 371715, Note_off_c, 0, 30, 0
1, 371715, Note_off_c, 0, 68, 0
1, 371715, Note_off_c, 0, 44, 0
1, 371715, Note_off_c, 0, 32, 0
1, 371715, Note_on_c, 0, 31, 36
1, 371715, Note_on_c, 0, 43, 36
1, 371715, Note_on_c, 0, 85, 43
1, 371715, Note_on_c, 0, 55, 23
1, 371715, Note_on_c, 0, 29, 36
1, 371715, Note_on_c, 0, 31, 36
1, 371715, Note_on_c, 0, 73, 43
1, 371715, Note_on_c, 0, 43, 23
1, 371811, Note_off_c, 0, 31, 0
1, 371811, Note_off_c, 0, 29, 0
1, 371811, Note_off_c, 0, 43, 0
1, 371811, Note_off_c, 0, 31, 0
1, 371811, Note_on_c, 0, 31, 36
1, 371811, Note_on_c, 0, 43, 36
1, 371811, Note_on_c, 0, 29, 36
1, 371811, Note_on_c, 0, 31, 36
1, 371907, Note_off_c, 0, 31, 0
1, 371907, Note_off_c, 0, 29, 0
1, 371907, Note_off_c, 0, 43, 0
1, 371907, Note_off_c, 0, 31, 0
1, 371907, Note_on_c, 0, 31, 36
1, 371907, Note_on_c, 0, 43, 36
1, 371907, Note_on_c, 0, 29, 36
1, 371907, Note_on_c, 0, 31, 36
1, 372003, Note_off_c, 0, 31, 0
1, 372003, Note_off_c, 0, 29, 0
1, 372003, Note_off_c, 0, 43, 0
1, 372003, Note_off_c, 0, 31, 0
1, 372003, Note_off_c, 0, 43, 0
1, 372003, Note_off_c, 0, 55, 0
1, 372003, Note_on_c, 0, 31, 36
1, 372003, Note_on_c, 0, 43, 36
1, 372003, Note_on_c, 0, 29, 36
1, 372003, Note_on_c, 0, 31, 36
1, 372099, Note_off_c, 0, 31, 0
1, 372099, Note_off_c, 0, 29, 0
1, 372099, Note_off_c, 0, 43, 0
1, 372099, Note_off_c, 0, 31, 0
1, 372099, Note_on_c, 0, 31, 36
1, 372099, Note_on_c, 0, 43, 36
1, 372099, Note_on_c, 0, 62, 23
1, 372099, Note_on_c, 0, 29, 36
1, 372099, Note_on_c, 0, 31, 36
1, 372099, Note_on_c, 0, 50, 23
1, 372195, Note_off_c, 0, 73, 0
1, 372195, Note_off_c, 0, 85, 0
1, 372291, Note_off_c, 0, 50, 0
1, 372291, Note_off_c, 0, 31, 0
1, 372291, Note_off_c, 0, 29, 0
1, 372291, Note_off_c, 0, 62, 0
1, 372291, Note_off_c, 0, 43, 0
1, 372291, Note_off_c, 0, 31, 0
1, 372291, Note_on_c, 0, 31, 36
1, 372291, Note_on_c, 0, 43, 36
1, 372291, Note_on_c, 0, 83, 43
1, 372291, Note_on_c, 0, 67, 23
1, 372291, Note_on_c, 0, 29, 36
1, 372291, Note_on_c, 0, 31, 36
1, 372291, Note_on_c, 0, 71, 43
1, 372291, Note_on_c, 0, 55, 23
1, 372483, Note_off_c, 0, 55, 0
1, 372483, Note_off_c, 0, 31, 0
1, 372483, Note_off_c, 0, 29, 0
1, 372483, Note_off_c, 0, 67, 0
1, 372483, Note_off_c, 0, 43, 0
1, 372483, Note_off_c, 0, 31, 0
1, 372483, Note_on_c, 0, 31, 36
1, 372483, Note_on_c, 0, 43, 36
1, 372483, Note_on_c, 0, 55, 23
1, 372483, Note_on_c, 0, 29, 36
1, 372483, Note_on_c, 0, 31, 36
1, 372483, Note_on_c, 0, 43, 23
1, 372579, Note_off_c, 0, 31, 0
1, 372579, Note_off_c, 0, 29, 0
1, 372579, Note_off_c, 0, 43, 0
1, 372579, Note_off_c, 0, 31, 0
1, 372579, Note_on_c, 0, 31, 36
1, 372579, Note_on_c, 0, 43, 36
1, 372579, Note_on_c, 0, 29, 36
1, 372579, Note_on_c, 0, 31, 36
1, 372675, Note_off_c, 0, 31, 0
1, 372675, Note_off_c, 0, 29, 0
1, 372675, Note_off_c, 0, 43, 0
1, 372675, Note_off_c, 0, 31, 0
1, 372675, Note_on_c, 0, 31, 36
1, 372675, Note_on_c, 0, 43, 36
1, 372675, Note_on_c, 0, 29, 36
1, 372675, Note_on_c, 0, 31, 36
1, 372771, Note_off_c, 0, 31, 0
1, 372771, Note_off_c, 0, 29, 0
1, 372771, Note_off_c, 0, 43, 0
1, 372771, Note_off_c, 0, 31, 0
1, 372771, Note_off_c, 0, 43, 0
1, 372771, Note_off_c, 0, 55, 0
1, 372771, Note_off_c, 0, 71, 0
1, 372771, Note_off_c, 0, 83, 0
1, 372771, Note_on_c, 0, 31, 36
1, 372771, Note_on_c, 0, 43, 36
1, 372771, Note_on_c, 0, 29, 36
1, 372771, Note_on_c, 0, 31, 36
1, 372867, Note_off_c, 0, 31, 0
1, 372867, Note_off_c, 0, 29, 0
1, 372867, Note_off_c, 0, 43, 0
1, 372867, Note_off_c, 0, 31, 0
1, 372867, Note_on_c, 0, 31, 36
1, 372867, Note_on_c, 0, 43, 36
1, 372867, Note_on_c, 0, 85, 43
1, 372867, Note_on_c, 0, 62, 23
1, 372867, Note_on_c, 0, 29, 36
1, 372867, Note_on_c, 0, 31, 36
1, 372867, Note_on_c, 0, 73, 43
1, 372867, Note_on_c, 0, 50, 23
1, 373059, Note_off_c, 0, 50, 0
1, 373059, Note_off_c, 0, 31, 0
1, 373059, Note_off_c, 0, 29, 0
1, 373059, Note_off_c, 0, 62, 0
1, 373059, Note_off_c, 0, 43, 0
1, 373059, Note_off_c, 0, 31, 0
1, 373059, Note_on_c, 0, 31, 36
1, 373059, Note_on_c, 0, 43, 36
1, 373059, Note_on_c, 0, 67, 23
1, 373059, Note_on_c, 0, 29, 36
1, 373059, Note_on_c, 0, 31, 36
1, 373059, Note_on_c, 0, 55, 23
1, 373155, Note_off_c, 0, 73, 0
1, 373155, Note_off_c, 0, 85, 0
1, 373251, Note_off_c, 0, 55, 0
1, 373251, Note_off_c, 0, 31, 0
1, 373251, Note_off_c, 0, 29, 0
1, 373251, Note_off_c, 0, 67, 0
1, 373251, Note_off_c, 0, 43, 0
1, 373251, Note_off_c, 0, 31, 0
1, 373251, Note_on_c, 0, 33, 36
1, 373251, Note_on_c, 0, 45, 36
1, 373251, Note_on_c, 0, 86, 43
1, 373251, Note_on_c, 0, 57, 23
1, 373251, Note_on_c, 0, 31, 36
1, 373251, Note_on_c, 0, 33, 36
1, 373251, Note_on_c, 0, 74, 43
1, 373251, Note_on_c, 0, 45, 23
1, 373347, Note_off_c, 0, 33, 0
1, 373347, Note_off_c, 0, 31, 0
1, 373347, Note_off_c, 0, 45, 0
1, 373347, Note_off_c, 0, 33, 0
1, 373347, Note_on_c, 0, 33, 36
1, 373347, Note_on_c, 0, 45, 36
1, 373347, Note_on_c, 0, 31, 36
1, 373347, Note_on_c, 0, 33, 36
1, 373443, Note_off_c, 0, 33, 0
1, 373443, Note_off_c, 0, 31, 0
1, 373443, Note_off_c, 0, 45, 0
1, 373443, Note_off_c, 0, 33, 0
1, 373443, Note_on_c, 0, 33, 36
1, 373443, Note_on_c, 0, 45, 36
1, 373443, Note_on_c, 0, 31, 36
1, 373443, Note_on_c, 0, 33, 36
1, 373539, Note_off_c, 0, 33, 0
1, 373539, Note_off_c, 0, 31, 0
1, 373539, Note_off_c, 0, 45, 0
1, 373539, Note_off_c, 0, 33, 0
1, 373539, Note_off_c, 0, 45, 0
1, 373539, Note_off_c, 0, 74, 0
1, 373539, Note_off_c, 0, 57, 0
1, 373539, Note_off_c, 0, 86, 0
1, 373539, Note_on_c, 0, 33, 36
1, 373539, Note_on_c, 0, 45, 36
1, 373539, Note_on_c, 0, 31, 36
1, 373539, Note_on_c, 0, 33, 36
1, 373635, Note_off_c, 0, 33, 0
1, 373635, Note_off_c, 0, 31, 0
1, 373635, Note_off_c, 0, 45, 0
1, 373635, Note_off_c, 0, 33, 0
1, 373635, Note_on_c, 0, 33, 36
1, 373635, Note_on_c, 0, 45, 36
1, 373635, Note_on_c, 0, 85, 43
1, 373635, Note_on_c, 0, 64, 23
1, 373635, Note_on_c, 0, 31, 36
1, 373635, Note_on_c, 0, 33, 36
1, 373635, Note_on_c, 0, 73, 43
1, 373635, Note_on_c, 0, 52, 23
1, 373827, Note_off_c, 0, 52, 0
1, 373827, Note_off_c, 0, 33, 0
1, 373827, Note_off_c, 0, 31, 0
1, 373827, Note_off_c, 0, 64, 0
1, 373827, Note_off_c, 0, 45, 0
1, 373827, Note_off_c, 0, 33, 0
1, 373827, Note_on_c, 0, 33, 36
1, 373827, Note_on_c, 0, 45, 36
1, 373827, Note_on_c, 0, 69, 23
1, 373827, Note_on_c, 0, 31, 36
1, 373827, Note_on_c, 0, 33, 36
1, 373827, Note_on_c, 0, 57, 23
1, 373923, Note_off_c, 0, 73, 0
1, 373923, Note_off_c, 0, 85, 0
1, 374019, Note_off_c, 0, 57, 0
1, 374019, Note_off_c, 0, 33, 0
1, 374019, Note_off_c, 0, 31, 0
1, 374019, Note_off_c, 0, 69, 0
1, 374019, Note_off_c, 0, 45, 0
1, 374019, Note_off_c, 0, 33, 0
1, 374019, Note_on_c, 0, 33, 36
1, 374019, Note_on_c, 0, 45, 36
1, 374019, Note_on_c, 0, 86, 43
1, 374019, Note_on_c, 0, 57, 23
1, 374019, Note_on_c, 0, 31, 36
1, 374019, Note_on_c, 0, 33, 36
1, 374019, Note_on_c, 0, 74, 43
1, 374019, Note_on_c, 0, 45, 23
1, 374115, Note_off_c, 0, 33, 0
1, 374115, Note_off_c, 0, 31, 0
1, 374115, Note_off_c, 0, 45, 0
1, 374115, Note_off_c, 0, 33, 0
1, 374115, Note_on_c, 0, 33, 36
1, 374115, Note_on_c, 0, 45, 36
1, 374115, Note_on_c, 0, 31, 36
1, 374115, Note_on_c, 0, 33, 36
1, 374211, Note_off_c, 0, 33, 0
1, 374211, Note_off_c, 0, 31, 0
1, 374211, Note_off_c, 0, 45, 0
1, 374211, Note_off_c, 0, 33, 0
1, 374211, Note_on_c, 0, 33, 36
1, 374211, Note_on_c, 0, 45, 36
1, 374211, Note_on_c, 0, 31, 36
1, 374211, Note_on_c, 0, 33, 36
1, 374307, Note_off_c, 0, 33, 0
1, 374307, Note_off_c, 0, 31, 0
1, 374307, Note_off_c, 0, 45, 0
1, 374307, Note_off_c, 0, 33, 0
1, 374307, Note_off_c, 0, 45, 0
1, 374307, Note_off_c, 0, 74, 0
1, 374307, Note_off_c, 0, 57, 0
1, 374307, Note_off_c, 0, 86, 0
1, 374307, Note_on_c, 0, 33, 36
1, 374307, Note_on_c, 0, 45, 36
1, 374307, Note_on_c, 0, 31, 36
1, 374307, Note_on_c, 0, 33, 36
1, 374403, Note_off_c, 0, 33, 0
1, 374403, Note_off_c, 0, 31, 0
1, 374403, Note_off_c, 0, 45, 0
1, 374403, Note_off_c, 0, 33, 0
1, 374403, Note_on_c, 0, 33, 36
1, 374403, Note_on_c, 0, 45, 36
1, 374403, Note_on_c, 0, 85, 43
1, 374403, Note_on_c, 0, 64, 23
1, 374403, Note_on_c, 0, 31, 36
1, 374403, Note_on_c, 0, 33, 36
1, 374403, Note_on_c, 0, 73, 43
1, 374403, Note_on_c, 0, 52, 23
1, 374595, Note_off_c, 0, 52, 0
1, 374595, Note_off_c, 0, 33, 0
1, 374595, Note_off_c, 0, 31, 0
1, 374595, Note_off_c, 0, 64, 0
1, 374595, Note_off_c, 0, 45, 0
1, 374595, Note_off_c, 0, 33, 0
1, 374595, Note_on_c, 0, 33, 36
1, 374595, Note_on_c, 0, 45, 36
1, 374595, Note_on_c, 0, 69, 23
1, 374595, Note_on_c, 0, 31, 36
1, 374595, Note_on_c, 0, 33, 36
1, 374595, Note_on_c, 0, 57, 23
1, 374691, Note_off_c, 0, 73, 0
1, 374691, Note_off_c, 0, 85, 0
1, 374787, Note_off_c, 0, 57, 0
1, 374787, Note_off_c, 0, 33, 0
1, 374787, Note_off_c, 0, 31, 0
1, 374787, Note_off_c, 0, 69, 0
1, 374787, Note_off_c, 0, 45, 0
1, 374787, Note_off_c, 0, 33, 0
1, 374787, Note_on_c, 0, 35, 36
1, 374787, Note_on_c, 0, 47, 36
1, 374787, Note_on_c, 0, 78, 43
1, 374787, Note_on_c, 0, 85, 43
1, 374787, Note_on_c, 0, 59, 23
1, 374787, Note_on_c, 0, 24, 36
1, 374787, Note_on_c, 0, 35, 36
1, 374787, Note_on_c, 0, 66, 43
1, 374787, Note_on_c, 0, 73, 43
1, 374787, Note_on_c, 0, 47, 23
1, 374979, Note_off_c, 0, 35, 0
1, 374979, Note_off_c, 0, 24, 0
1, 374979, Note_off_c, 0, 47, 0
1, 374979, Note_off_c, 0, 35, 0
1, 374979, Note_on_c, 0, 35, 36
1, 374979, Note_on_c, 0, 47, 36
1, 374979, Note_on_c, 0, 24, 36
1, 374979, Note_on_c, 0, 35, 36
1, 375075, Note_off_c, 0, 47, 0
1, 375075, Note_off_c, 0, 59, 0
1, 375171, Note_off_c, 0, 35, 0
1, 375171, Note_off_c, 0, 24, 0
1, 375171, Note_off_c, 0, 47, 0
1, 375171, Note_off_c, 0, 35, 0
1, 375171, Note_on_c, 0, 35, 36
1, 375171, Note_on_c, 0, 47, 36
1, 375171, Note_on_c, 0, 66, 23
1, 375171, Note_on_c, 0, 24, 36
1, 375171, Note_on_c, 0, 35, 36
1, 375171, Note_on_c, 0, 54, 23
1, 375363, Note_off_c, 0, 54, 0
1, 375363, Note_off_c, 0, 35, 0
1, 375363, Note_off_c, 0, 24, 0
1, 375363, Note_off_c, 0, 66, 0
1, 375363, Note_off_c, 0, 47, 0
1, 375363, Note_off_c, 0, 35, 0
1, 375363, Note_on_c, 0, 35, 36
1, 375363, Note_on_c, 0, 47, 36
1, 375363, Note_on_c, 0, 71, 23
1, 375363, Note_on_c, 0, 24, 36
1, 375363, Note_on_c, 0, 35, 36
1, 375363, Note_on_c, 0, 59, 23
1, 375555, Note_off_c, 0, 59, 0
1, 375555, Note_off_c, 0, 35, 0
1, 375555, Note_off_c, 0, 24, 0
1, 375555, Note_off_c, 0, 71, 0
1, 375555, Note_off_c, 0, 47, 0
1, 375555, Note_off_c, 0, 35, 0
1, 375555, Note_on_c, 0, 35, 36
1, 375555, Note_on_c, 0, 47, 36
1, 375555, Note_on_c, 0, 59, 23
1, 375555, Note_on_c, 0, 24, 36
1, 375555, Note_on_c, 0, 35, 36
1, 375555, Note_on_c, 0, 47, 23
1, 375747, Note_off_c, 0, 35, 0
1, 375747, Note_off_c, 0, 24, 0
1, 375747, Note_off_c, 0, 47, 0
1, 375747, Note_off_c, 0, 35, 0
1, 375747, Note_on_c, 0, 35, 36
1, 375747, Note_on_c, 0, 47, 36
1, 375747, Note_on_c, 0, 24, 36
1, 375747, Note_on_c, 0, 35, 36
1, 375843, Note_off_c, 0, 47, 0
1, 375843, Note_off_c, 0, 59, 0
1, 375939, Note_off_c, 0, 35, 0
1, 375939, Note_off_c, 0, 24, 0
1, 375939, Note_off_c, 0, 47, 0
1, 375939, Note_off_c, 0, 35, 0
1, 375939, Note_on_c, 0, 35, 36
1, 375939, Note_on_c, 0, 47, 36
1, 375939, Note_on_c, 0, 66, 23
1, 375939, Note_on_c, 0, 24, 36
1, 375939, Note_on_c, 0, 35, 36
1, 375939, Note_on_c, 0, 54, 23
1, 376131, Note_off_c, 0, 54, 0
1, 376131, Note_off_c, 0, 35, 0
1, 376131, Note_off_c, 0, 24, 0
1, 376131, Note_off_c, 0, 66, 0
1, 376131, Note_off_c, 0, 47, 0
1, 376131, Note_off_c, 0, 35, 0
1, 376131, Note_on_c, 0, 35, 36
1, 376131, Note_on_c, 0, 47, 36
1, 376131, Note_on_c, 0, 71, 23
1, 376131, Note_on_c, 0, 24, 36
1, 376131, Note_on_c, 0, 35, 36
1, 376131, Note_on_c, 0, 59, 23
1, 376227, Note_off_c, 0, 73, 0
1, 376227, Note_off_c, 0, 66, 0
1, 376227, Note_off_c, 0, 85, 0
1, 376227, Note_off_c, 0, 78, 0
1, 376323, Note_off_c, 0, 59, 0
1, 376323, Note_off_c, 0, 35, 0
1, 376323, Note_off_c, 0, 24, 0
1, 376323, Note_off_c, 0, 71, 0
1, 376323, Note_off_c, 0, 47, 0
1, 376323, Note_off_c, 0, 35, 0
1, 376323, Note_on_c, 0, 35, 36
1, 376323, Note_on_c, 0, 47, 36
1, 376323, Note_on_c, 0, 85, 43
1, 376323, Note_on_c, 0, 78, 43
1, 376323, Note_on_c, 0, 59, 23
1, 376323, Note_on_c, 0, 24, 36
1, 376323, Note_on_c, 0, 35, 36
1, 376323, Note_on_c, 0, 73, 43
1, 376323, Note_on_c, 0, 66, 43
1, 376323, Note_on_c, 0, 47, 23
1, 376515, Note_off_c, 0, 35, 0
1, 376515, Note_off_c, 0, 24, 0
1, 376515, Note_off_c, 0, 47, 0
1, 376515, Note_off_c, 0, 35, 0
1, 376515, Note_on_c, 0, 35, 36
1, 376515, Note_on_c, 0, 47, 36
1, 376515, Note_on_c, 0, 24, 36
1, 376515, Note_on_c, 0, 35, 36
1, 376611, Note_off_c, 0, 47, 0
1, 376611, Note_off_c, 0, 59, 0
1, 376707, Note_off_c, 0, 35, 0
1, 376707, Note_off_c, 0, 24, 0
1, 376707, Note_off_c, 0, 47, 0
1, 376707, Note_off_c, 0, 35, 0
1, 376707, Note_on_c, 0, 35, 36
1, 376707, Note_on_c, 0, 47, 36
1, 376707, Note_on_c, 0, 66, 23
1, 376707, Note_on_c, 0, 24, 36
1, 376707, Note_on_c, 0, 35, 36
1, 376707, Note_on_c, 0, 54, 23
1, 376803, Note_off_c, 0, 73, 0
1, 376803, Note_off_c, 0, 85, 0
1, 376899, Note_off_c, 0, 54, 0
1, 376899, Note_off_c, 0, 35, 0
1, 376899, Note_off_c, 0, 24, 0
1, 376899, Note_off_c, 0, 66, 0
1, 376899, Note_off_c, 0, 47, 0
1, 376899, Note_off_c, 0, 35, 0
1, 376899, Note_on_c, 0, 35, 36
1, 376899, Note_on_c, 0, 47, 36
1, 376899, Note_on_c, 0, 83, 43
1, 376899, Note_on_c, 0, 71, 23
1, 376899, Note_on_c, 0, 24, 36
1, 376899, Note_on_c, 0, 35, 36
1, 376899, Note_on_c, 0, 71, 43
1, 376899, Note_on_c, 0, 59, 23
1, 377091, Note_off_c, 0, 59, 0
1, 377091, Note_off_c, 0, 35, 0
1, 377091, Note_off_c, 0, 24, 0
1, 377091, Note_off_c, 0, 71, 0
1, 377091, Note_off_c, 0, 47, 0
1, 377091, Note_off_c, 0, 35, 0
1, 377091, Note_on_c, 0, 35, 36
1, 377091, Note_on_c, 0, 47, 36
1, 377091, Note_on_c, 0, 59, 23
1, 377091, Note_on_c, 0, 24, 36
1, 377091, Note_on_c, 0, 35, 36
1, 377091, Note_on_c, 0, 47, 23
1, 377283, Note_off_c, 0, 35, 0
1, 377283, Note_off_c, 0, 24, 0
1, 377283, Note_off_c, 0, 47, 0
1, 377283, Note_off_c, 0, 35, 0
1, 377283, Note_on_c, 0, 35, 36
1, 377283, Note_on_c, 0, 47, 36
1, 377283, Note_on_c, 0, 24, 36
1, 377283, Note_on_c, 0, 35, 36
1, 377379, Note_off_c, 0, 47, 0
1, 377379, Note_off_c, 0, 59, 0
1, 377379, Note_off_c, 0, 71, 0
1, 377379, Note_off_c, 0, 83, 0
1, 377475, Note_off_c, 0, 35, 0
1, 377475, Note_off_c, 0, 24, 0
1, 377475, Note_off_c, 0, 47, 0
1, 377475, Note_off_c, 0, 35, 0
1, 377475, Note_on_c, 0, 35, 36
1, 377475, Note_on_c, 0, 47, 36
1, 377475, Note_on_c, 0, 90, 43
1, 377475, Note_on_c, 0, 66, 23
1, 377475, Note_on_c, 0, 24, 36
1, 377475, Note_on_c, 0, 35, 36
1, 377475, Note_on_c, 0, 78, 43
1, 377475, Note_on_c, 0, 54, 23
1, 377667, Note_off_c, 0, 54, 0
1, 377667, Note_off_c, 0, 35, 0
1, 377667, Note_off_c, 0, 24, 0
1, 377667, Note_off_c, 0, 66, 0
1, 377667, Note_off_c, 0, 47, 0
1, 377667, Note_off_c, 0, 35, 0
1, 377667, Note_on_c, 0, 35, 36
1, 377667, Note_on_c, 0, 47, 36
1, 377667, Note_on_c, 0, 71, 23
1, 377667, Note_on_c, 0, 24, 36
1, 377667, Note_on_c, 0, 35, 36
1, 377667, Note_on_c, 0, 59, 23
1, 377763, Note_off_c, 0, 78, 0
1, 377763, Note_off_c, 0, 90, 0
1, 377763, Note_off_c, 0, 66, 0
1, 377763, Note_off_c, 0, 78, 0
1, 377859, Note_off_c, 0, 59, 0
1, 377859, Note_off_c, 0, 35, 0
1, 377859, Note_off_c, 0, 24, 0
1, 377859, Note_off_c, 0, 71, 0
1, 377859, Note_off_c, 0, 47, 0
1, 377859, Note_off_c, 0, 35, 0
1, 377859, Note_on_c, 0, 33, 36
1, 377859, Note_on_c, 0, 45, 36
1, 377859, Note_on_c, 0, 78, 43
1, 377859, Note_on_c, 0, 85, 43
1, 377859, Note_on_c, 0, 57, 23
1, 377859, Note_on_c, 0, 31, 36
1, 377859, Note_on_c, 0, 33, 36
1, 377859, Note_on_c, 0, 66, 43
1, 377859, Note_on_c, 0, 73, 43
1, 377859, Note_on_c, 0, 45, 23
1, 378051, Note_off_c, 0, 33, 0
1, 378051, Note_off_c, 0, 31, 0
1, 378051, Note_off_c, 0, 45, 0
1, 378051, Note_off_c, 0, 33, 0
1, 378051, Note_on_c, 0, 33, 36
1, 378051, Note_on_c, 0, 45, 36
1, 378051, Note_on_c, 0, 31, 36
1, 378051, Note_on_c, 0, 33, 36
1, 378147, Note_off_c, 0, 45, 0
1, 378147, Note_off_c, 0, 57, 0
1, 378243, Note_off_c, 0, 33, 0
1, 378243, Note_off_c, 0, 31, 0
1, 378243, Note_off_c, 0, 45, 0
1, 378243, Note_off_c, 0, 33, 0
1, 378243, Note_on_c, 0, 33, 36
1, 378243, Note_on_c, 0, 45, 36
1, 378243, Note_on_c, 0, 64, 23
1, 378243, Note_on_c, 0, 31, 36
1, 378243, Note_on_c, 0, 33, 36
1, 378243, Note_on_c, 0, 52, 23
1, 378435, Note_off_c, 0, 52, 0
1, 378435, Note_off_c, 0, 33, 0
1, 378435, Note_off_c, 0, 31, 0
1, 378435, Note_off_c, 0, 64, 0
1, 378435, Note_off_c, 0, 45, 0
1, 378435, Note_off_c, 0, 33, 0
1, 378435, Note_on_c, 0, 33, 36
1, 378435, Note_on_c, 0, 45, 36
1, 378435, Note_on_c, 0, 69, 23
1, 378435, Note_on_c, 0, 31, 36
1, 378435, Note_on_c, 0, 33, 36
1, 378435, Note_on_c, 0, 57, 23
1, 378627, Note_off_c, 0, 57, 0
1, 378627, Note_off_c, 0, 33, 0
1, 378627, Note_off_c, 0, 31, 0
1, 378627, Note_off_c, 0, 69, 0
1, 378627, Note_off_c, 0, 45, 0
1, 378627, Note_off_c, 0, 33, 0
1, 378627, Note_on_c, 0, 33, 36
1, 378627, Note_on_c, 0, 45, 36
1, 378627, Note_on_c, 0, 57, 23
1, 378627, Note_on_c, 0, 31, 36
1, 378627, Note_on_c, 0, 33, 36
1, 378627, Note_on_c, 0, 45, 23
1, 378819, Note_off_c, 0, 33, 0
1, 378819, Note_off_c, 0, 31, 0
1, 378819, Note_off_c, 0, 45, 0
1, 378819, Note_off_c, 0, 33, 0
1, 378819, Note_on_c, 0, 33, 36
1, 378819, Note_on_c, 0, 45, 36
1, 378819, Note_on_c, 0, 31, 36
1, 378819, Note_on_c, 0, 33, 36
1, 378915, Note_off_c, 0, 45, 0
1, 378915, Note_off_c, 0, 57, 0
1, 379011, Note_off_c, 0, 33, 0
1, 379011, Note_off_c, 0, 31, 0
1, 379011, Note_off_c, 0, 45, 0
1, 379011, Note_off_c, 0, 33, 0
1, 379011, Note_on_c, 0, 33, 36
1, 379011, Note_on_c, 0, 45, 36
1, 379011, Note_on_c, 0, 64, 23
1, 379011, Note_on_c, 0, 31, 36
1, 379011, Note_on_c, 0, 33, 36
1, 379011, Note_on_c, 0, 52, 23
1, 379203, Note_off_c, 0, 52, 0
1, 379203, Note_off_c, 0, 33, 0
1, 379203, Note_off_c, 0, 31, 0
1, 379203, Note_off_c, 0, 64, 0
1, 379203, Note_off_c, 0, 45, 0
1, 379203, Note_off_c, 0, 33, 0
1, 379203, Note_on_c, 0, 33, 36
1, 379203, Note_on_c, 0, 45, 36
1, 379203, Note_on_c, 0, 69, 23
1, 379203, Note_on_c, 0, 31, 36
1, 379203, Note_on_c, 0, 33, 36
1, 379203, Note_on_c, 0, 57, 23
1, 379299, Note_off_c, 0, 73, 0
1, 379299, Note_off_c, 0, 66, 0
1, 379299, Note_off_c, 0, 85, 0
1, 379299, Note_off_c, 0, 78, 0
1, 379395, Note_off_c, 0, 57, 0
1, 379395, Note_off_c, 0, 33, 0
1, 379395, Note_off_c, 0, 31, 0
1, 379395, Note_off_c, 0, 69, 0
1, 379395, Note_off_c, 0, 45, 0
1, 379395, Note_off_c, 0, 33, 0
1, 379395, Note_on_c, 0, 33, 36
1, 379395, Note_on_c, 0, 45, 36
1, 379395, Note_on_c, 0, 85, 43
1, 379395, Note_on_c, 0, 78, 43
1, 379395, Note_on_c, 0, 57, 23
1, 379395, Note_on_c, 0, 31, 36
1, 379395, Note_on_c, 0, 33, 36
1, 379395, Note_on_c, 0, 73, 43
1, 379395, Note_on_c, 0, 66, 43
1, 379395, Note_on_c, 0, 45, 23
1, 379587, Note_off_c, 0, 33, 0
1, 379587, Note_off_c, 0, 31, 0
1, 379587, Note_off_c, 0, 45, 0
1, 379587, Note_off_c, 0, 33, 0
1, 379587, Note_on_c, 0, 33, 36
1, 379587, Note_on_c, 0, 45, 36
1, 379587, Note_on_c, 0, 31, 36
1, 379587, Note_on_c, 0, 33, 36
1, 379683, Note_off_c, 0, 45, 0
1, 379683, Note_off_c, 0, 57, 0
1, 379779, Note_off_c, 0, 33, 0
1, 379779, Note_off_c, 0, 31, 0
1, 379779, Note_off_c, 0, 45, 0
1, 379779, Note_off_c, 0, 33, 0
1, 379779, Note_on_c, 0, 33, 36
1, 379779, Note_on_c, 0, 45, 36
1, 379779, Note_on_c, 0, 64, 23
1, 379779, Note_on_c, 0, 31, 36
1, 379779, Note_on_c, 0, 33, 36
1, 379779, Note_on_c, 0, 52, 23
1, 379875, Note_off_c, 0, 73, 0
1, 379875, Note_off_c, 0, 85, 0
1, 379971, Note_off_c, 0, 52, 0
1, 379971, Note_off_c, 0, 33, 0
1, 379971, Note_off_c, 0, 31, 0
1, 379971, Note_off_c, 0, 64, 0
1, 379971, Note_off_c, 0, 45, 0
1, 379971, Note_off_c, 0, 33, 0
1, 379971, Note_on_c, 0, 33, 36
1, 379971, Note_on_c, 0, 45, 36
1, 379971, Note_on_c, 0, 83, 43
1, 379971, Note_on_c, 0, 69, 23
1, 379971, Note_on_c, 0, 31, 36
1, 379971, Note_on_c, 0, 33, 36
1, 379971, Note_on_c, 0, 71, 43
1, 379971, Note_on_c, 0, 57, 23
1, 380163, Note_off_c, 0, 57, 0
1, 380163, Note_off_c, 0, 33, 0
1, 380163, Note_off_c, 0, 31, 0
1, 380163, Note_off_c, 0, 69, 0
1, 380163, Note_off_c, 0, 45, 0
1, 380163, Note_off_c, 0, 33, 0
1, 380163, Note_on_c, 0, 33, 36
1, 380163, Note_on_c, 0, 45, 36
1, 380163, Note_on_c, 0, 57, 23
1, 380163, Note_on_c, 0, 31, 36
1, 380163, Note_on_c, 0, 33, 36
1, 380163, Note_on_c, 0, 45, 23
1, 380355, Note_off_c, 0, 33, 0
1, 380355, Note_off_c, 0, 31, 0
1, 380355, Note_off_c, 0, 45, 0
1, 380355, Note_off_c, 0, 33, 0
1, 380355, Note_on_c, 0, 33, 36
1, 380355, Note_on_c, 0, 45, 36
1, 380355, Note_on_c, 0, 31, 36
1, 380355, Note_on_c, 0, 33, 36
1, 380451, Note_off_c, 0, 45, 0
1, 380451, Note_off_c, 0, 57, 0
1, 380451, Note_off_c, 0, 71, 0
1, 380451, Note_off_c, 0, 83, 0
1, 380547, Note_off_c, 0, 33, 0
1, 380547, Note_off_c, 0, 31, 0
1, 380547, Note_off_c, 0, 45, 0
1, 380547, Note_off_c, 0, 33, 0
1, 380547, Note_on_c, 0, 33, 36
1, 380547, Note_on_c, 0, 45, 36
1, 380547, Note_on_c, 0, 90, 43
1, 380547, Note_on_c, 0, 64, 23
1, 380547, Note_on_c, 0, 31, 36
1, 380547, Note_on_c, 0, 33, 36
1, 380547, Note_on_c, 0, 78, 43
1, 380547, Note_on_c, 0, 52, 23
1, 380739, Note_off_c, 0, 52, 0
1, 380739, Note_off_c, 0, 33, 0
1, 380739, Note_off_c, 0, 31, 0
1, 380739, Note_off_c, 0, 64, 0
1, 380739, Note_off_c, 0, 45, 0
1, 380739, Note_off_c, 0, 33, 0
1, 380739, Note_on_c, 0, 33, 36
1, 380739, Note_on_c, 0, 45, 36
1, 380739, Note_on_c, 0, 69, 23
1, 380739, Note_on_c, 0, 31, 36
1, 380739, Note_on_c, 0, 33, 36
1, 380739, Note_on_c, 0, 57, 23
1, 380835, Note_off_c, 0, 78, 0
1, 380835, Note_off_c, 0, 90, 0
1, 380835, Note_off_c, 0, 66, 0
1, 380835, Note_off_c, 0, 78, 0
1, 380931, Note_off_c, 0, 57, 0
1, 380931, Note_off_c, 0, 33, 0
1, 380931, Note_off_c, 0, 31, 0
1, 380931, Note_off_c, 0, 69, 0
1, 380931, Note_off_c, 0, 45, 0
1, 380931, Note_off_c, 0, 33, 0
1, 380931, Note_on_c, 0, 32, 36
1, 380931, Note_on_c, 0, 44, 36
1, 380931, Note_on_c, 0, 78, 43
1, 380931, Note_on_c, 0, 85, 43
1, 380931, Note_on_c, 0, 56, 23
1, 380931, Note_on_c, 0, 30, 36
1, 380931, Note_on_c, 0, 32, 36
1, 380931, Note_on_c, 0, 66, 43
1, 380931, Note_on_c, 0, 73, 43
1, 380931, Note_on_c, 0, 44, 23
1, 381027, Note_off_c, 0, 32, 0
1, 381027, Note_off_c, 0, 30, 0
1, 381027, Note_off_c, 0, 44, 0
1, 381027, Note_off_c, 0, 32, 0
1, 381027, Note_on_c, 0, 32, 36
1, 381027, Note_on_c, 0, 44, 36
1, 381027, Note_on_c, 0, 30, 36
1, 381027, Note_on_c, 0, 32, 36
1, 381123, Note_off_c, 0, 32, 0
1, 381123, Note_off_c, 0, 30, 0
1, 381123, Note_off_c, 0, 44, 0
1, 381123, Note_off_c, 0, 32, 0
1, 381123, Note_on_c, 0, 32, 36
1, 381123, Note_on_c, 0, 44, 36
1, 381123, Note_on_c, 0, 30, 36
1, 381123, Note_on_c, 0, 32, 36
1, 381219, Note_off_c, 0, 32, 0
1, 381219, Note_off_c, 0, 30, 0
1, 381219, Note_off_c, 0, 44, 0
1, 381219, Note_off_c, 0, 32, 0
1, 381219, Note_off_c, 0, 44, 0
1, 381219, Note_off_c, 0, 56, 0
1, 381219, Note_on_c, 0, 32, 36
1, 381219, Note_on_c, 0, 44, 36
1, 381219, Note_on_c, 0, 30, 36
1, 381219, Note_on_c, 0, 32, 36
1, 381315, Note_off_c, 0, 32, 0
1, 381315, Note_off_c, 0, 30, 0
1, 381315, Note_off_c, 0, 44, 0
1, 381315, Note_off_c, 0, 32, 0
1, 381315, Note_on_c, 0, 32, 36
1, 381315, Note_on_c, 0, 44, 36
1, 381315, Note_on_c, 0, 64, 23
1, 381315, Note_on_c, 0, 30, 36
1, 381315, Note_on_c, 0, 32, 36
1, 381315, Note_on_c, 0, 52, 23
1, 381411, Note_off_c, 0, 32, 0
1, 381411, Note_off_c, 0, 30, 0
1, 381411, Note_off_c, 0, 44, 0
1, 381411, Note_off_c, 0, 32, 0
1, 381411, Note_on_c, 0, 32, 36
1, 381411, Note_on_c, 0, 44, 36
1, 381411, Note_on_c, 0, 30, 36
1, 381411, Note_on_c, 0, 32, 36
1, 381507, Note_off_c, 0, 32, 0
1, 381507, Note_off_c, 0, 30, 0
1, 381507, Note_off_c, 0, 44, 0
1, 381507, Note_off_c, 0, 32, 0
1, 381507, Note_off_c, 0, 52, 0
1, 381507, Note_off_c, 0, 64, 0
1, 381507, Note_on_c, 0, 32, 36
1, 381507, Note_on_c, 0, 44, 36
1, 381507, Note_on_c, 0, 68, 23
1, 381507, Note_on_c, 0, 30, 36
1, 381507, Note_on_c, 0, 32, 36
1, 381507, Note_on_c, 0, 56, 23
1, 381603, Note_off_c, 0, 32, 0
1, 381603, Note_off_c, 0, 30, 0
1, 381603, Note_off_c, 0, 44, 0
1, 381603, Note_off_c, 0, 32, 0
1, 381603, Note_on_c, 0, 32, 36
1, 381603, Note_on_c, 0, 44, 36
1, 381603, Note_on_c, 0, 30, 36
1, 381603, Note_on_c, 0, 32, 36
1, 381699, Note_off_c, 0, 32, 0
1, 381699, Note_off_c, 0, 30, 0
1, 381699, Note_off_c, 0, 44, 0
1, 381699, Note_off_c, 0, 32, 0
1, 381699, Note_off_c, 0, 56, 0
1, 381699, Note_off_c, 0, 68, 0
1, 381699, Note_on_c, 0, 32, 36
1, 381699, Note_on_c, 0, 44, 36
1, 381699, Note_on_c, 0, 56, 23
1, 381699, Note_on_c, 0, 30, 36
1, 381699, Note_on_c, 0, 32, 36
1, 381699, Note_on_c, 0, 44, 23
1, 381795, Note_off_c, 0, 32, 0
1, 381795, Note_off_c, 0, 30, 0
1, 381795, Note_off_c, 0, 44, 0
1, 381795, Note_off_c, 0, 32, 0
1, 381795, Note_on_c, 0, 32, 36
1, 381795, Note_on_c, 0, 44, 36
1, 381795, Note_on_c, 0, 30, 36
1, 381795, Note_on_c, 0, 32, 36
1, 381891, Note_off_c, 0, 32, 0
1, 381891, Note_off_c, 0, 30, 0
1, 381891, Note_off_c, 0, 44, 0
1, 381891, Note_off_c, 0, 32, 0
1, 381891, Note_on_c, 0, 32, 36
1, 381891, Note_on_c, 0, 44, 36
1, 381891, Note_on_c, 0, 30, 36
1, 381891, Note_on_c, 0, 32, 36
1, 381987, Note_off_c, 0, 32, 0
1, 381987, Note_off_c, 0, 30, 0
1, 381987, Note_off_c, 0, 44, 0
1, 381987, Note_off_c, 0, 32, 0
1, 381987, Note_off_c, 0, 44, 0
1, 381987, Note_off_c, 0, 56, 0
1, 381987, Note_on_c, 0, 32, 36
1, 381987, Note_on_c, 0, 44, 36
1, 381987, Note_on_c, 0, 30, 36
1, 381987, Note_on_c, 0, 32, 36
1, 382083, Note_off_c, 0, 32, 0
1, 382083, Note_off_c, 0, 30, 0
1, 382083, Note_off_c, 0, 44, 0
1, 382083, Note_off_c, 0, 32, 0
1, 382083, Note_on_c, 0, 32, 36
1, 382083, Note_on_c, 0, 44, 36
1, 382083, Note_on_c, 0, 64, 23
1, 382083, Note_on_c, 0, 30, 36
1, 382083, Note_on_c, 0, 32, 36
1, 382083, Note_on_c, 0, 52, 23
1, 382179, Note_off_c, 0, 32, 0
1, 382179, Note_off_c, 0, 30, 0
1, 382179, Note_off_c, 0, 44, 0
1, 382179, Note_off_c, 0, 32, 0
1, 382179, Note_on_c, 0, 32, 36
1, 382179, Note_on_c, 0, 44, 36
1, 382179, Note_on_c, 0, 30, 36
1, 382179, Note_on_c, 0, 32, 36
1, 382275, Note_off_c, 0, 32, 0
1, 382275, Note_off_c, 0, 30, 0
1, 382275, Note_off_c, 0, 44, 0
1, 382275, Note_off_c, 0, 32, 0
1, 382275, Note_off_c, 0, 52, 0
1, 382275, Note_off_c, 0, 64, 0
1, 382275, Note_on_c, 0, 32, 36
1, 382275, Note_on_c, 0, 44, 36
1, 382275, Note_on_c, 0, 68, 23
1, 382275, Note_on_c, 0, 30, 36
1, 382275, Note_on_c, 0, 32, 36
1, 382275, Note_on_c, 0, 56, 23
1, 382371, Note_off_c, 0, 32, 0
1, 382371, Note_off_c, 0, 30, 0
1, 382371, Note_off_c, 0, 44, 0
1, 382371, Note_off_c, 0, 32, 0
1, 382371, Note_on_c, 0, 32, 36
1, 382371, Note_on_c, 0, 44, 36
1, 382371, Note_on_c, 0, 30, 36
1, 382371, Note_on_c, 0, 32, 36
1, 382467, Note_off_c, 0, 32, 0
1, 382467, Note_off_c, 0, 30, 0
1, 382467, Note_off_c, 0, 44, 0
1, 382467, Note_off_c, 0, 32, 0
1, 382467, Note_off_c, 0, 56, 0
1, 382467, Note_off_c, 0, 68, 0
1, 382467, Note_on_c, 0, 32, 36
1, 382467, Note_on_c, 0, 44, 36
1, 382467, Note_on_c, 0, 56, 23
1, 382467, Note_on_c, 0, 30, 36
1, 382467, Note_on_c, 0, 32, 36
1, 382467, Note_on_c, 0, 44, 23
1, 382563, Note_off_c, 0, 32, 0
1, 382563, Note_off_c, 0, 30, 0
1, 382563, Note_off_c, 0, 44, 0
1, 382563, Note_off_c, 0, 32, 0
1, 382563, Note_on_c, 0, 32, 36
1, 382563, Note_on_c, 0, 44, 36
1, 382563, Note_on_c, 0, 30, 36
1, 382563, Note_on_c, 0, 32, 36
1, 382659, Note_off_c, 0, 32, 0
1, 382659, Note_off_c, 0, 30, 0
1, 382659, Note_off_c, 0, 44, 0
1, 382659, Note_off_c, 0, 32, 0
1, 382659, Note_on_c, 0, 32, 36
1, 382659, Note_on_c, 0, 44, 36
1, 382659, Note_on_c, 0, 30, 36
1, 382659, Note_on_c, 0, 32, 36
1, 382755, Note_off_c, 0, 32, 0
1, 382755, Note_off_c, 0, 30, 0
1, 382755, Note_off_c, 0, 44, 0
1, 382755, Note_off_c, 0, 32, 0
1, 382755, Note_off_c, 0, 44, 0
1, 382755, Note_off_c, 0, 56, 0
1, 382755, Note_on_c, 0, 32, 36
1, 382755, Note_on_c, 0, 44, 36
1, 382755, Note_on_c, 0, 30, 36
1, 382755, Note_on_c, 0, 32, 36
1, 382851, Note_off_c, 0, 32, 0
1, 382851, Note_off_c, 0, 30, 0
1, 382851, Note_off_c, 0, 44, 0
1, 382851, Note_off_c, 0, 32, 0
1, 382851, Note_on_c, 0, 32, 36
1, 382851, Note_on_c, 0, 44, 36
1, 382851, Note_on_c, 0, 64, 23
1, 382851, Note_on_c, 0, 30, 36
1, 382851, Note_on_c, 0, 32, 36
1, 382851, Note_on_c, 0, 52, 23
1, 382947, Note_off_c, 0, 32, 0
1, 382947, Note_off_c, 0, 30, 0
1, 382947, Note_off_c, 0, 44, 0
1, 382947, Note_off_c, 0, 32, 0
1, 382947, Note_on_c, 0, 32, 36
1, 382947, Note_on_c, 0, 44, 36
1, 382947, Note_on_c, 0, 30, 36
1, 382947, Note_on_c, 0, 32, 36
1, 383043, Note_off_c, 0, 32, 0
1, 383043, Note_off_c, 0, 30, 0
1, 383043, Note_off_c, 0, 44, 0
1, 383043, Note_off_c, 0, 32, 0
1, 383043, Note_off_c, 0, 52, 0
1, 383043, Note_off_c, 0, 64, 0
1, 383043, Note_on_c, 0, 32, 36
1, 383043, Note_on_c, 0, 44, 36
1, 383043, Note_on_c, 0, 68, 23
1, 383043, Note_on_c, 0, 30, 36
1, 383043, Note_on_c, 0, 32, 36
1, 383043, Note_on_c, 0, 56, 23
1, 383139, Note_off_c, 0, 32, 0
1, 383139, Note_off_c, 0, 30, 0
1, 383139, Note_off_c, 0, 44, 0
1, 383139, Note_off_c, 0, 32, 0
1, 383139, Note_on_c, 0, 32, 36
1, 383139, Note_on_c, 0, 44, 36
1, 383139, Note_on_c, 0, 30, 36
1, 383139, Note_on_c, 0, 32, 36
1, 383235, Note_off_c, 0, 32, 0
1, 383235, Note_off_c, 0, 30, 0
1, 383235, Note_off_c, 0, 44, 0
1, 383235, Note_off_c, 0, 32, 0
1, 383235, Note_off_c, 0, 56, 0
1, 383235, Note_off_c, 0, 68, 0
1, 383235, Note_on_c, 0, 32, 36
1, 383235, Note_on_c, 0, 44, 36
1, 383235, Note_on_c, 0, 56, 23
1, 383235, Note_on_c, 0, 30, 36
1, 383235, Note_on_c, 0, 32, 36
1, 383235, Note_on_c, 0, 44, 23
1, 383331, Note_off_c, 0, 32, 0
1, 383331, Note_off_c, 0, 30, 0
1, 383331, Note_off_c, 0, 44, 0
1, 383331, Note_off_c, 0, 32, 0
1, 383331, Note_on_c, 0, 32, 36
1, 383331, Note_on_c, 0, 44, 36
1, 383331, Note_on_c, 0, 30, 36
1, 383331, Note_on_c, 0, 32, 36
1, 383427, Note_off_c, 0, 32, 0
1, 383427, Note_off_c, 0, 30, 0
1, 383427, Note_off_c, 0, 44, 0
1, 383427, Note_off_c, 0, 32, 0
1, 383427, Note_on_c, 0, 32, 36
1, 383427, Note_on_c, 0, 44, 36
1, 383427, Note_on_c, 0, 30, 36
1, 383427, Note_on_c, 0, 32, 36
1, 383523, Note_off_c, 0, 32, 0
1, 383523, Note_off_c, 0, 30, 0
1, 383523, Note_off_c, 0, 44, 0
1, 383523, Note_off_c, 0, 32, 0
1, 383523, Note_off_c, 0, 44, 0
1, 383523, Note_off_c, 0, 56, 0
1, 383523, Note_off_c, 0, 73, 0
1, 383523, Note_off_c, 0, 66, 0
1, 383523, Note_off_c, 0, 85, 0
1, 383523, Note_off_c, 0, 78, 0
1, 383523, Note_on_c, 0, 32, 36
1, 383523, Note_on_c, 0, 44, 36
1, 383523, Note_on_c, 0, 30, 36
1, 383523, Note_on_c, 0, 32, 36
1, 383619, Note_off_c, 0, 32, 0
1, 383619, Note_off_c, 0, 30, 0
1, 383619, Note_off_c, 0, 44, 0
1, 383619, Note_off_c, 0, 32, 0
1, 383619, Note_on_c, 0, 32, 36
1, 383619, Note_on_c, 0, 44, 36
1, 383619, Note_on_c, 0, 83, 43
1, 383619, Note_on_c, 0, 64, 23
1, 383619, Note_on_c, 0, 30, 36
1, 383619, Note_on_c, 0, 32, 36
1, 383619, Note_on_c, 0, 71, 43
1, 383619, Note_on_c, 0, 52, 23
1, 383715, Note_off_c, 0, 32, 0
1, 383715, Note_off_c, 0, 30, 0
1, 383715, Note_off_c, 0, 44, 0
1, 383715, Note_off_c, 0, 32, 0
1, 383715, Note_on_c, 0, 32, 36
1, 383715, Note_on_c, 0, 44, 36
1, 383715, Note_on_c, 0, 30, 36
1, 383715, Note_on_c, 0, 32, 36
1, 383811, Note_off_c, 0, 32, 0
1, 383811, Note_off_c, 0, 30, 0
1, 383811, Note_off_c, 0, 44, 0
1, 383811, Note_off_c, 0, 32, 0
1, 383811, Note_off_c, 0, 52, 0
1, 383811, Note_off_c, 0, 64, 0
1, 383811, Note_on_c, 0, 32, 36
1, 383811, Note_on_c, 0, 44, 36
1, 383811, Note_on_c, 0, 68, 23
1, 383811, Note_on_c, 0, 30, 36
1, 383811, Note_on_c, 0, 32, 36
1, 383811, Note_on_c, 0, 56, 23
1, 383907, Note_off_c, 0, 32, 0
1, 383907, Note_off_c, 0, 30, 0
1, 383907, Note_off_c, 0, 44, 0
1, 383907, Note_off_c, 0, 32, 0
1, 383907, Note_off_c, 0, 71, 0
1, 383907, Note_off_c, 0, 83, 0
1, 383907, Note_on_c, 0, 32, 36
1, 383907, Note_on_c, 0, 44, 36
1, 383907, Note_on_c, 0, 30, 36
1, 383907, Note_on_c, 0, 32, 36
1, 384003, Note_off_c, 0, 32, 0
1, 384003, Note_off_c, 0, 30, 0
1, 384003, Note_off_c, 0, 44, 0
1, 384003, Note_off_c, 0, 32, 0
1, 384003, Note_off_c, 0, 56, 0
1, 384003, Note_off_c, 0, 68, 0
1, 384003, Note_on_c, 0, 31, 36
1, 384003, Note_on_c, 0, 43, 36
1, 384003, Note_on_c, 0, 55, 23
1, 384003, Note_on_c, 0, 29, 36
1, 384003, Note_on_c, 0, 31, 36
1, 384003, Note_on_c, 0, 43, 23
1, 384099, Note_off_c, 0, 31, 0
1, 384099, Note_off_c, 0, 29, 0
1, 384099, Note_off_c, 0, 43, 0
1, 384099, Note_off_c, 0, 31, 0
1, 384099, Note_on_c, 0, 31, 36
1, 384099, Note_on_c, 0, 43, 36
1, 384099, Note_on_c, 0, 29, 36
1, 384099, Note_on_c, 0, 31, 36
1, 384195, Note_off_c, 0, 31, 0
1, 384195, Note_off_c, 0, 29, 0
1, 384195, Note_off_c, 0, 43, 0
1, 384195, Note_off_c, 0, 31, 0
1, 384195, Note_on_c, 0, 31, 36
1, 384195, Note_on_c, 0, 43, 36
1, 384195, Note_on_c, 0, 29, 36
1, 384195, Note_on_c, 0, 31, 36
1, 384291, Note_off_c, 0, 31, 0
1, 384291, Note_off_c, 0, 29, 0
1, 384291, Note_off_c, 0, 43, 0
1, 384291, Note_off_c, 0, 31, 0
1, 384291, Note_off_c, 0, 43, 0
1, 384291, Note_off_c, 0, 55, 0
1, 384291, Note_on_c, 0, 31, 36
1, 384291, Note_on_c, 0, 43, 36
1, 384291, Note_on_c, 0, 29, 36
1, 384291, Note_on_c, 0, 31, 36
1, 384387, Note_off_c, 0, 31, 0
1, 384387, Note_off_c, 0, 29, 0
1, 384387, Note_off_c, 0, 43, 0
1, 384387, Note_off_c, 0, 31, 0
1, 384387, Note_on_c, 0, 31, 36
1, 384387, Note_on_c, 0, 43, 36
1, 384387, Note_on_c, 0, 85, 43
1, 384387, Note_on_c, 0, 62, 23
1, 384387, Note_on_c, 0, 29, 36
1, 384387, Note_on_c, 0, 31, 36
1, 384387, Note_on_c, 0, 73, 43
1, 384387, Note_on_c, 0, 50, 23
1, 384483, Note_off_c, 0, 31, 0
1, 384483, Note_off_c, 0, 29, 0
1, 384483, Note_off_c, 0, 43, 0
1, 384483, Note_off_c, 0, 31, 0
1, 384483, Note_on_c, 0, 31, 36
1, 384483, Note_on_c, 0, 43, 36
1, 384483, Note_on_c, 0, 29, 36
1, 384483, Note_on_c, 0, 31, 36
1, 384579, Note_off_c, 0, 31, 0
1, 384579, Note_off_c, 0, 29, 0
1, 384579, Note_off_c, 0, 43, 0
1, 384579, Note_off_c, 0, 31, 0
1, 384579, Note_off_c, 0, 50, 0
1, 384579, Note_off_c, 0, 62, 0
1, 384579, Note_on_c, 0, 31, 36
1, 384579, Note_on_c, 0, 43, 36
1, 384579, Note_on_c, 0, 67, 23
1, 384579, Note_on_c, 0, 29, 36
1, 384579, Note_on_c, 0, 31, 36
1, 384579, Note_on_c, 0, 55, 23
1, 384675, Note_off_c, 0, 31, 0
1, 384675, Note_off_c, 0, 29, 0
1, 384675, Note_off_c, 0, 43, 0
1, 384675, Note_off_c, 0, 31, 0
1, 384675, Note_off_c, 0, 73, 0
1, 384675, Note_off_c, 0, 85, 0
1, 384675, Note_on_c, 0, 31, 36
1, 384675, Note_on_c, 0, 43, 36
1, 384675, Note_on_c, 0, 29, 36
1, 384675, Note_on_c, 0, 31, 36
1, 384771, Note_off_c, 0, 31, 0
1, 384771, Note_off_c, 0, 29, 0
1, 384771, Note_off_c, 0, 43, 0
1, 384771, Note_off_c, 0, 31, 0
1, 384771, Note_off_c, 0, 55, 0
1, 384771, Note_off_c, 0, 67, 0
1, 384771, Note_on_c, 0, 31, 36
1, 384771, Note_on_c, 0, 43, 36
1, 384771, Note_on_c, 0, 86, 43
1, 384771, Note_on_c, 0, 55, 23
1, 384771, Note_on_c, 0, 29, 36
1, 384771, Note_on_c, 0, 31, 36
1, 384771, Note_on_c, 0, 74, 43
1, 384771, Note_on_c, 0, 43, 23
1, 384867, Note_off_c, 0, 31, 0
1, 384867, Note_off_c, 0, 29, 0
1, 384867, Note_off_c, 0, 43, 0
1, 384867, Note_off_c, 0, 31, 0
1, 384867, Note_on_c, 0, 31, 36
1, 384867, Note_on_c, 0, 43, 36
1, 384867, Note_on_c, 0, 29, 36
1, 384867, Note_on_c, 0, 31, 36
1, 384963, Note_off_c, 0, 31, 0
1, 384963, Note_off_c, 0, 29, 0
1, 384963, Note_off_c, 0, 43, 0
1, 384963, Note_off_c, 0, 31, 0
1, 384963, Note_on_c, 0, 31, 36
1, 384963, Note_on_c, 0, 43, 36
1, 384963, Note_on_c, 0, 29, 36
1, 384963, Note_on_c, 0, 31, 36
1, 385059, Note_off_c, 0, 31, 0
1, 385059, Note_off_c, 0, 29, 0
1, 385059, Note_off_c, 0, 43, 0
1, 385059, Note_off_c, 0, 31, 0
1, 385059, Note_off_c, 0, 43, 0
1, 385059, Note_off_c, 0, 74, 0
1, 385059, Note_off_c, 0, 55, 0
1, 385059, Note_off_c, 0, 86, 0
1, 385059, Note_on_c, 0, 31, 36
1, 385059, Note_on_c, 0, 43, 36
1, 385059, Note_on_c, 0, 29, 36
1, 385059, Note_on_c, 0, 31, 36
1, 385155, Note_off_c, 0, 31, 0
1, 385155, Note_off_c, 0, 29, 0
1, 385155, Note_off_c, 0, 43, 0
1, 385155, Note_off_c, 0, 31, 0
1, 385155, Note_on_c, 0, 31, 36
1, 385155, Note_on_c, 0, 43, 36
1, 385155, Note_on_c, 0, 90, 43
1, 385155, Note_on_c, 0, 62, 23
1, 385155, Note_on_c, 0, 29, 36
1, 385155, Note_on_c, 0, 31, 36
1, 385155, Note_on_c, 0, 78, 43
1, 385155, Note_on_c, 0, 50, 23
1, 385251, Note_off_c, 0, 31, 0
1, 385251, Note_off_c, 0, 29, 0
1, 385251, Note_off_c, 0, 43, 0
1, 385251, Note_off_c, 0, 31, 0
1, 385251, Note_on_c, 0, 31, 36
1, 385251, Note_on_c, 0, 43, 36
1, 385251, Note_on_c, 0, 29, 36
1, 385251, Note_on_c, 0, 31, 36
1, 385347, Note_off_c, 0, 31, 0
1, 385347, Note_off_c, 0, 29, 0
1, 385347, Note_off_c, 0, 43, 0
1, 385347, Note_off_c, 0, 31, 0
1, 385347, Note_off_c, 0, 50, 0
1, 385347, Note_off_c, 0, 62, 0
1, 385347, Note_on_c, 0, 31, 36
1, 385347, Note_on_c, 0, 43, 36
1, 385347, Note_on_c, 0, 67, 23
1, 385347, Note_on_c, 0, 29, 36
1, 385347, Note_on_c, 0, 31, 36
1, 385347, Note_on_c, 0, 55, 23
1, 385443, Note_off_c, 0, 31, 0
1, 385443, Note_off_c, 0, 29, 0
1, 385443, Note_off_c, 0, 43, 0
1, 385443, Note_off_c, 0, 31, 0
1, 385443, Note_off_c, 0, 78, 0
1, 385443, Note_off_c, 0, 90, 0
1, 385443, Note_on_c, 0, 31, 36
1, 385443, Note_on_c, 0, 43, 36
1, 385443, Note_on_c, 0, 29, 36
1, 385443, Note_on_c, 0, 31, 36
1, 385539, Note_off_c, 0, 33, 0
1, 385539, Note_off_c, 0, 31, 0
1, 385539, Note_off_c, 0, 45, 0
1, 385539, Note_off_c, 0, 33, 0
1, 385539, Note_off_c, 0, 31, 0
1, 385539, Note_off_c, 0, 29, 0
1, 385539, Note_off_c, 0, 43, 0
1, 385539, Note_off_c, 0, 31, 0
1, 385539, Note_off_c, 0, 55, 0
1, 385539, Note_off_c, 0, 67, 0
1, 385539, Note_on_c, 0, 33, 36
1, 385539, Note_on_c, 0, 45, 36
1, 385539, Note_on_c, 0, 81, 43
1, 385539, Note_on_c, 0, 57, 23
1, 385539, Note_on_c, 0, 31, 36
1, 385539, Note_on_c, 0, 33, 36
1, 385539, Note_on_c, 0, 69, 43
1, 385539, Note_on_c, 0, 45, 23
1, 385587, Note_off_c, 0, 33, 0
1, 385587, Note_off_c, 0, 31, 0
1, 385587, Note_off_c, 0, 45, 0
1, 385587, Note_off_c, 0, 33, 0
1, 385587, Note_on_c, 0, 33, 36
1, 385587, Note_on_c, 0, 45, 36
1, 385587, Note_on_c, 0, 31, 36
1, 385587, Note_on_c, 0, 33, 36
1, 385635, Note_off_c, 0, 33, 0
1, 385635, Note_off_c, 0, 31, 0
1, 385635, Note_off_c, 0, 45, 0
1, 385635, Note_off_c, 0, 33, 0
1, 385635, Note_on_c, 0, 33, 36
1, 385635, Note_on_c, 0, 45, 36
1, 385635, Note_on_c, 0, 31, 36
1, 385635, Note_on_c, 0, 33, 36
1, 385683, Note_off_c, 0, 33, 0
1, 385683, Note_off_c, 0, 31, 0
1, 385683, Note_off_c, 0, 45, 0
1, 385683, Note_off_c, 0, 33, 0
1, 385683, Note_on_c, 0, 33, 36
1, 385683, Note_on_c, 0, 45, 36
1, 385683, Note_on_c, 0, 31, 36
1, 385683, Note_on_c, 0, 33, 36
1, 385731, Note_off_c, 0, 33, 0
1, 385731, Note_off_c, 0, 31, 0
1, 385731, Note_off_c, 0, 45, 0
1, 385731, Note_off_c, 0, 33, 0
1, 385731, Note_on_c, 0, 33, 36
1, 385731, Note_on_c, 0, 45, 36
1, 385731, Note_on_c, 0, 31, 36
1, 385731, Note_on_c, 0, 33, 36
1, 385779, Note_off_c, 0, 33, 0
1, 385779, Note_off_c, 0, 31, 0
1, 385779, Note_off_c, 0, 45, 0
1, 385779, Note_off_c, 0, 33, 0
1, 385779, Note_on_c, 0, 33, 36
1, 385779, Note_on_c, 0, 45, 36
1, 385779, Note_on_c, 0, 31, 36
1, 385779, Note_on_c, 0, 33, 36
1, 385827, Note_off_c, 0, 33, 0
1, 385827, Note_off_c, 0, 31, 0
1, 385827, Note_off_c, 0, 45, 0
1, 385827, Note_off_c, 0, 33, 0
1, 385827, Note_off_c, 0, 45, 0
1, 385827, Note_off_c, 0, 69, 0
1, 385827, Note_off_c, 0, 57, 0
1, 385827, Note_off_c, 0, 81, 0
1, 385827, Note_on_c, 0, 33, 36
1, 385827, Note_on_c, 0, 45, 36
1, 385827, Note_on_c, 0, 31, 36
1, 385827, Note_on_c, 0, 33, 36
1, 385875, Note_off_c, 0, 33, 0
1, 385875, Note_off_c, 0, 31, 0
1, 385875, Note_off_c, 0, 45, 0
1, 385875, Note_off_c, 0, 33, 0
1, 385875, Note_on_c, 0, 33, 36
1, 385875, Note_on_c, 0, 45, 36
1, 385875, Note_on_c, 0, 31, 36
1, 385875, Note_on_c, 0, 33, 36
1, 385923, Note_off_c, 0, 33, 0
1, 385923, Note_off_c, 0, 31, 0
1, 385923, Note_off_c, 0, 45, 0
1, 385923, Note_off_c, 0, 33, 0
1, 385923, Note_on_c, 0, 33, 36
1, 385923, Note_on_c, 0, 45, 36
1, 385923, Note_on_c, 0, 76, 43
1, 385923, Note_on_c, 0, 64, 23
1, 385923, Note_on_c, 0, 31, 36
1, 385923, Note_on_c, 0, 33, 36
1, 385923, Note_on_c, 0, 64, 43
1, 385923, Note_on_c, 0, 52, 23
1, 385971, Note_off_c, 0, 33, 0
1, 385971, Note_off_c, 0, 31, 0
1, 385971, Note_off_c, 0, 45, 0
1, 385971, Note_off_c, 0, 33, 0
1, 385971, Note_on_c, 0, 33, 36
1, 385971, Note_on_c, 0, 45, 36
1, 385971, Note_on_c, 0, 31, 36
1, 385971, Note_on_c, 0, 33, 36
1, 386019, Note_off_c, 0, 33, 0
1, 386019, Note_off_c, 0, 31, 0
1, 386019, Note_off_c, 0, 45, 0
1, 386019, Note_off_c, 0, 33, 0
1, 386019, Note_on_c, 0, 33, 36
1, 386019, Note_on_c, 0, 45, 36
1, 386019, Note_on_c, 0, 31, 36
1, 386019, Note_on_c, 0, 33, 36
1, 386067, Note_off_c, 0, 33, 0
1, 386067, Note_off_c, 0, 31, 0
1, 386067, Note_off_c, 0, 45, 0
1, 386067, Note_off_c, 0, 33, 0
1, 386067, Note_on_c, 0, 33, 36
1, 386067, Note_on_c, 0, 45, 36
1, 386067, Note_on_c, 0, 31, 36
1, 386067, Note_on_c, 0, 33, 36
1, 386115, Note_off_c, 0, 33, 0
1, 386115, Note_off_c, 0, 31, 0
1, 386115, Note_off_c, 0, 45, 0
1, 386115, Note_off_c, 0, 33, 0
1, 386115, Note_off_c, 0, 52, 0
1, 386115, Note_off_c, 0, 64, 0
1, 386115, Note_on_c, 0, 33, 36
1, 386115, Note_on_c, 0, 45, 36
1, 386115, Note_on_c, 0, 69, 23
1, 386115, Note_on_c, 0, 31, 36
1, 386115, Note_on_c, 0, 33, 36
1, 386115, Note_on_c, 0, 57, 23
1, 386163, Note_off_c, 0, 33, 0
1, 386163, Note_off_c, 0, 31, 0
1, 386163, Note_off_c, 0, 45, 0
1, 386163, Note_off_c, 0, 33, 0
1, 386163, Note_on_c, 0, 33, 36
1, 386163, Note_on_c, 0, 45, 36
1, 386163, Note_on_c, 0, 31, 36
1, 386163, Note_on_c, 0, 33, 36
1, 386211, Note_off_c, 0, 33, 0
1, 386211, Note_off_c, 0, 31, 0
1, 386211, Note_off_c, 0, 45, 0
1, 386211, Note_off_c, 0, 33, 0
1, 386211, Note_off_c, 0, 64, 0
1, 386211, Note_off_c, 0, 76, 0
1, 386211, Note_on_c, 0, 33, 36
1, 386211, Note_on_c, 0, 45, 36
1, 386211, Note_on_c, 0, 31, 36
1, 386211, Note_on_c, 0, 33, 36
1, 386259, Note_off_c, 0, 33, 0
1, 386259, Note_off_c, 0, 31, 0
1, 386259, Note_off_c, 0, 45, 0
1, 386259, Note_off_c, 0, 33, 0
1, 386259, Note_on_c, 0, 33, 36
1, 386259, Note_on_c, 0, 45, 36
1, 386259, Note_on_c, 0, 31, 36
1, 386259, Note_on_c, 0, 33, 36
1, 386307, Note_off_c, 0, 33, 0
1, 386307, Note_off_c, 0, 31, 0
1, 386307, Note_off_c, 0, 45, 0
1, 386307, Note_off_c, 0, 33, 0
1, 386307, Note_off_c, 0, 57, 0
1, 386307, Note_off_c, 0, 69, 0
1, 386307, Note_on_c, 0, 33, 36
1, 386307, Note_on_c, 0, 45, 36
1, 386307, Note_on_c, 0, 78, 43
1, 386307, Note_on_c, 0, 57, 23
1, 386307, Note_on_c, 0, 31, 36
1, 386307, Note_on_c, 0, 33, 36
1, 386307, Note_on_c, 0, 66, 43
1, 386307, Note_on_c, 0, 45, 23
1, 386355, Note_off_c, 0, 33, 0
1, 386355, Note_off_c, 0, 31, 0
1, 386355, Note_off_c, 0, 45, 0
1, 386355, Note_off_c, 0, 33, 0
1, 386355, Note_on_c, 0, 33, 36
1, 386355, Note_on_c, 0, 45, 36
1, 386355, Note_on_c, 0, 31, 36
1, 386355, Note_on_c, 0, 33, 36
1, 386403, Note_off_c, 0, 33, 0
1, 386403, Note_off_c, 0, 31, 0
1, 386403, Note_off_c, 0, 45, 0
1, 386403, Note_off_c, 0, 33, 0
1, 386403, Note_on_c, 0, 33, 36
1, 386403, Note_on_c, 0, 45, 36
1, 386403, Note_on_c, 0, 31, 36
1, 386403, Note_on_c, 0, 33, 36
1, 386451, Note_off_c, 0, 33, 0
1, 386451, Note_off_c, 0, 31, 0
1, 386451, Note_off_c, 0, 45, 0
1, 386451, Note_off_c, 0, 33, 0
1, 386451, Note_on_c, 0, 33, 36
1, 386451, Note_on_c, 0, 45, 36
1, 386451, Note_on_c, 0, 31, 36
1, 386451, Note_on_c, 0, 33, 36
1, 386499, Note_off_c, 0, 33, 0
1, 386499, Note_off_c, 0, 31, 0
1, 386499, Note_off_c, 0, 45, 0
1, 386499, Note_off_c, 0, 33, 0
1, 386499, Note_on_c, 0, 33, 36
1, 386499, Note_on_c, 0, 45, 36
1, 386499, Note_on_c, 0, 31, 36
1, 386499, Note_on_c, 0, 33, 36
1, 386547, Note_off_c, 0, 33, 0
1, 386547, Note_off_c, 0, 31, 0
1, 386547, Note_off_c, 0, 45, 0
1, 386547, Note_off_c, 0, 33, 0
1, 386547, Note_on_c, 0, 33, 36
1, 386547, Note_on_c, 0, 45, 36
1, 386547, Note_on_c, 0, 31, 36
1, 386547, Note_on_c, 0, 33, 36
1, 386595, Note_off_c, 0, 33, 0
1, 386595, Note_off_c, 0, 31, 0
1, 386595, Note_off_c, 0, 45, 0
1, 386595, Note_off_c, 0, 33, 0
1, 386595, Note_off_c, 0, 45, 0
1, 386595, Note_off_c, 0, 66, 0
1, 386595, Note_off_c, 0, 57, 0
1, 386595, Note_off_c, 0, 78, 0
1, 386595, Note_on_c, 0, 33, 36
1, 386595, Note_on_c, 0, 45, 36
1, 386595, Note_on_c, 0, 31, 36
1, 386595, Note_on_c, 0, 33, 36
1, 386643, Note_off_c, 0, 33, 0
1, 386643, Note_off_c, 0, 31, 0
1, 386643, Note_off_c, 0, 45, 0
1, 386643, Note_off_c, 0, 33, 0
1, 386643, Note_on_c, 0, 33, 36
1, 386643, Note_on_c, 0, 45, 36
1, 386643, Note_on_c, 0, 31, 36
1, 386643, Note_on_c, 0, 33, 36
1, 386691, Note_off_c, 0, 33, 0
1, 386691, Note_off_c, 0, 31, 0
1, 386691, Note_off_c, 0, 45, 0
1, 386691, Note_off_c, 0, 33, 0
1, 386691, Note_on_c, 0, 33, 36
1, 386691, Note_on_c, 0, 45, 36
1, 386691, Note_on_c, 0, 83, 43
1, 386691, Note_on_c, 0, 64, 23
1, 386691, Note_on_c, 0, 31, 36
1, 386691, Note_on_c, 0, 33, 36
1, 386691, Note_on_c, 0, 71, 43
1, 386691, Note_on_c, 0, 52, 23
1, 386739, Note_off_c, 0, 33, 0
1, 386739, Note_off_c, 0, 31, 0
1, 386739, Note_off_c, 0, 45, 0
1, 386739, Note_off_c, 0, 33, 0
1, 386739, Note_on_c, 0, 33, 36
1, 386739, Note_on_c, 0, 45, 36
1, 386739, Note_on_c, 0, 31, 36
1, 386739, Note_on_c, 0, 33, 36
1, 386787, Note_off_c, 0, 33, 0
1, 386787, Note_off_c, 0, 31, 0
1, 386787, Note_off_c, 0, 45, 0
1, 386787, Note_off_c, 0, 33, 0
1, 386787, Note_on_c, 0, 33, 36
1, 386787, Note_on_c, 0, 45, 36
1, 386787, Note_on_c, 0, 31, 36
1, 386787, Note_on_c, 0, 33, 36
1, 386835, Note_off_c, 0, 33, 0
1, 386835, Note_off_c, 0, 31, 0
1, 386835, Note_off_c, 0, 45, 0
1, 386835, Note_off_c, 0, 33, 0
1, 386835, Note_on_c, 0, 33, 36
1, 386835, Note_on_c, 0, 45, 36
1, 386835, Note_on_c, 0, 31, 36
1, 386835, Note_on_c, 0, 33, 36
1, 386883, Note_off_c, 0, 33, 0
1, 386883, Note_off_c, 0, 31, 0
1, 386883, Note_off_c, 0, 45, 0
1, 386883, Note_off_c, 0, 33, 0
1, 386883, Note_off_c, 0, 52, 0
1, 386883, Note_off_c, 0, 64, 0
1, 386883, Note_on_c, 0, 33, 36
1, 386883, Note_on_c, 0, 45, 36
1, 386883, Note_on_c, 0, 69, 23
1, 386883, Note_on_c, 0, 31, 36
1, 386883, Note_on_c, 0, 33, 36
1, 386883, Note_on_c, 0, 57, 23
1, 386931, Note_off_c, 0, 33, 0
1, 386931, Note_off_c, 0, 31, 0
1, 386931, Note_off_c, 0, 45, 0
1, 386931, Note_off_c, 0, 33, 0
1, 386931, Note_on_c, 0, 33, 36
1, 386931, Note_on_c, 0, 45, 36
1, 386931, Note_on_c, 0, 31, 36
1, 386931, Note_on_c, 0, 33, 36
1, 386979, Note_off_c, 0, 33, 0
1, 386979, Note_off_c, 0, 31, 0
1, 386979, Note_off_c, 0, 45, 0
1, 386979, Note_off_c, 0, 33, 0
1, 386979, Note_off_c, 0, 71, 0
1, 386979, Note_off_c, 0, 83, 0
1, 386979, Note_on_c, 0, 33, 36
1, 386979, Note_on_c, 0, 45, 36
1, 386979, Note_on_c, 0, 31, 36
1, 386979, Note_on_c, 0, 33, 36
1, 387027, Note_off_c, 0, 33, 0
1, 387027, Note_off_c, 0, 31, 0
1, 387027, Note_off_c, 0, 45, 0
1, 387027, Note_off_c, 0, 33, 0
1, 387027, Note_on_c, 0, 33, 36
1, 387027, Note_on_c, 0, 45, 36
1, 387027, Note_on_c, 0, 31, 36
1, 387027, Note_on_c, 0, 33, 36
1, 387075, Note_off_c, 0, 57, 0
1, 387075, Note_off_c, 0, 69, 0
1, 387075, Note_on_c, 0, 74, 36
1, 387075, Note_on_c, 0, 26, 36
1, 387075, Note_on_c, 0, 38, 36
1, 387075, Note_on_c, 0, 62, 36
1, 387075, Note_on_c, 0, 24, 36
1, 387075, Note_on_c, 0, 26, 36
1, 387267, Note_off_c, 0, 62, 0
1, 387267, Note_off_c, 0, 74, 0
1, 387267, Note_on_c, 0, 79, 36
1, 387267, Note_on_c, 0, 67, 36
1, 387459, Note_off_c, 0, 67, 0
1, 387459, Note_off_c, 0, 79, 0
1, 387459, Note_on_c, 0, 81, 36
1, 387459, Note_on_c, 0, 69, 36
1, 387651, Note_off_c, 0, 69, 0
1, 387651, Note_off_c, 0, 81, 0
1, 387651, Note_on_c, 0, 86, 36
1, 387651, Note_on_c, 0, 74, 36
1, 387843, Note_off_c, 0, 74, 0
1, 387843, Note_off_c, 0, 86, 0
1, 387843, Note_on_c, 0, 75, 36
1, 387843, Note_on_c, 0, 63, 36
1, 388035, Note_off_c, 0, 63, 0
1, 388035, Note_off_c, 0, 75, 0
1, 388035, Note_on_c, 0, 79, 36
1, 388035, Note_on_c, 0, 67, 36
1, 388227, Note_off_c, 0, 67, 0
1, 388227, Note_off_c, 0, 79, 0
1, 388227, Note_on_c, 0, 81, 36
1, 388227, Note_on_c, 0, 69, 36
1, 388419, Note_off_c, 0, 69, 0
1, 388419, Note_off_c, 0, 81, 0
1, 388419, Note_on_c, 0, 86, 36
1, 388419, Note_on_c, 0, 74, 36
1, 388515, Note_off_c, 0, 26, 0
1, 388515, Note_off_c, 0, 24, 0
1, 388515, Note_off_c, 0, 38, 0
1, 388515, Note_off_c, 0, 26, 0
1, 388611, Note_off_c, 0, 74, 0
1, 388611, Note_off_c, 0, 86, 0
1, 388611, Note_on_c, 0, 76, 36
1, 388611, Note_on_c, 0, 64, 36
1, 388803, Note_off_c, 0, 64, 0
1, 388803, Note_off_c, 0, 76, 0
1, 388803, Note_on_c, 0, 79, 36
1, 388803, Note_on_c, 0, 67, 36
1, 388995, Note_off_c, 0, 67, 0
1, 388995, Note_off_c, 0, 79, 0
1, 388995, Note_on_c, 0, 81, 36
1, 388995, Note_on_c, 0, 69, 36
1, 389187, Note_off_c, 0, 69, 0
1, 389187, Note_off_c, 0, 81, 0
1, 389187, Note_on_c, 0, 86, 36
1, 389187, Note_on_c, 0, 74, 36
1, 389379, Note_off_c, 0, 74, 0
1, 389379, Note_off_c, 0, 86, 0
1, 389379, Note_on_c, 0, 75, 36
1, 389379, Note_on_c, 0, 63, 36
1, 389571, Note_off_c, 0, 63, 0
1, 389571, Note_off_c, 0, 75, 0
1, 389571, Note_on_c, 0, 79, 36
1, 389571, Note_on_c, 0, 26, 36
1, 389571, Note_on_c, 0, 38, 36
1, 389571, Note_on_c, 0, 67, 36
1, 389571, Note_on_c, 0, 24, 36
1, 389571, Note_on_c, 0, 26, 36
1, 389763, Note_off_c, 0, 26, 0
1, 389763, Note_off_c, 0, 24, 0
1, 389763, Note_off_c, 0, 67, 0
1, 389763, Note_off_c, 0, 38, 0
1, 389763, Note_off_c, 0, 26, 0
1, 389763, Note_off_c, 0, 79, 0
1, 389763, Note_on_c, 0, 81, 36
1, 389763, Note_on_c, 0, 69, 36
1, 389955, Note_off_c, 0, 69, 0
1, 389955, Note_off_c, 0, 81, 0
1, 389955, Note_on_c, 0, 86, 36
1, 389955, Note_on_c, 0, 26, 36
1, 389955, Note_on_c, 0, 38, 36
1, 389955, Note_on_c, 0, 74, 36
1, 389955, Note_on_c, 0, 24, 36
1, 389955, Note_on_c, 0, 26, 36
1, 390147, Note_off_c, 0, 26, 0
1, 390147, Note_off_c, 0, 24, 0
1, 390147, Note_off_c, 0, 74, 0
1, 390147, Note_off_c, 0, 38, 0
1, 390147, Note_off_c, 0, 26, 0
1, 390147, Note_off_c, 0, 86, 0
1, 390147, Note_on_c, 0, 74, 36
1, 390147, Note_on_c, 0, 26, 36
1, 390147, Note_on_c, 0, 38, 36
1, 390147, Note_on_c, 0, 62, 36
1, 390147, Note_on_c, 0, 24, 36
1, 390147, Note_on_c, 0, 26, 36
1, 390339, Note_off_c, 0, 62, 0
1, 390339, Note_off_c, 0, 74, 0
1, 390339, Note_on_c, 0, 79, 36
1, 390339, Note_on_c, 0, 67, 36
1, 390531, Note_off_c, 0, 67, 0
1, 390531, Note_off_c, 0, 79, 0
1, 390531, Note_on_c, 0, 81, 36
1, 390531, Note_on_c, 0, 69, 36
1, 390723, Note_off_c, 0, 69, 0
1, 390723, Note_off_c, 0, 81, 0
1, 390723, Note_on_c, 0, 86, 36
1, 390723, Note_on_c, 0, 74, 36
1, 390915, Note_off_c, 0, 74, 0
1, 390915, Note_off_c, 0, 86, 0
1, 390915, Note_on_c, 0, 75, 36
1, 390915, Note_on_c, 0, 63, 36
1, 391107, Note_off_c, 0, 63, 0
1, 391107, Note_off_c, 0, 75, 0
1, 391107, Note_on_c, 0, 79, 36
1, 391107, Note_on_c, 0, 67, 36
1, 391299, Note_off_c, 0, 67, 0
1, 391299, Note_off_c, 0, 79, 0
1, 391299, Note_on_c, 0, 81, 36
1, 391299, Note_on_c, 0, 69, 36
1, 391491, Note_off_c, 0, 69, 0
1, 391491, Note_off_c, 0, 81, 0
1, 391491, Note_on_c, 0, 86, 36
1, 391491, Note_on_c, 0, 74, 36
1, 391587, Note_off_c, 0, 26, 0
1, 391587, Note_off_c, 0, 24, 0
1, 391587, Note_off_c, 0, 38, 0
1, 391587, Note_off_c, 0, 26, 0
1, 391683, Note_off_c, 0, 74, 0
1, 391683, Note_off_c, 0, 86, 0
1, 391683, Note_on_c, 0, 76, 36
1, 391683, Note_on_c, 0, 64, 36
1, 391875, Note_off_c, 0, 64, 0
1, 391875, Note_off_c, 0, 76, 0
1, 391875, Note_on_c, 0, 79, 36
1, 391875, Note_on_c, 0, 67, 36
1, 392067, Note_off_c, 0, 67, 0
1, 392067, Note_off_c, 0, 79, 0
1, 392067, Note_on_c, 0, 81, 36
1, 392067, Note_on_c, 0, 69, 36
1, 392259, Note_off_c, 0, 69, 0
1, 392259, Note_off_c, 0, 81, 0
1, 392259, Note_on_c, 0, 86, 36
1, 392259, Note_on_c, 0, 74, 36
1, 392451, Note_off_c, 0, 74, 0
1, 392451, Note_off_c, 0, 86, 0
1, 392451, Note_on_c, 0, 75, 36
1, 392451, Note_on_c, 0, 63, 36
1, 392643, Note_off_c, 0, 63, 0
1, 392643, Note_off_c, 0, 75, 0
1, 392643, Note_on_c, 0, 79, 36
1, 392643, Note_on_c, 0, 67, 36
1, 392835, Note_off_c, 0, 67, 0
1, 392835, Note_off_c, 0, 79, 0
1, 392835, Note_on_c, 0, 81, 36
1, 392835, Note_on_c, 0, 69, 36
1, 393027, Note_off_c, 0, 69, 0
1, 393027, Note_off_c, 0, 81, 0
1, 393027, Note_on_c, 0, 86, 36
1, 393027, Note_on_c, 0, 74, 36
1, 393219, Note_off_c, 0, 74, 0
1, 393219, Note_off_c, 0, 86, 0
1, 393219, Note_on_c, 0, 74, 36
1, 393219, Note_on_c, 0, 26, 36
1, 393219, Note_on_c, 0, 38, 36
1, 393219, Note_on_c, 0, 62, 36
1, 393219, Note_on_c, 0, 24, 36
1, 393219, Note_on_c, 0, 26, 36
1, 393411, Note_off_c, 0, 62, 0
1, 393411, Note_off_c, 0, 74, 0
1, 393411, Note_on_c, 0, 79, 36
1, 393411, Note_on_c, 0, 67, 36
1, 393603, Note_off_c, 0, 67, 0
1, 393603, Note_off_c, 0, 79, 0
1, 393603, Note_on_c, 0, 81, 36
1, 393603, Note_on_c, 0, 69, 36
1, 393795, Note_off_c, 0, 69, 0
1, 393795, Note_off_c, 0, 81, 0
1, 393795, Note_on_c, 0, 86, 36
1, 393795, Note_on_c, 0, 74, 36
1, 393987, Note_off_c, 0, 74, 0
1, 393987, Note_off_c, 0, 86, 0
1, 393987, Note_on_c, 0, 75, 36
1, 393987, Note_on_c, 0, 63, 36
1, 394179, Note_off_c, 0, 63, 0
1, 394179, Note_off_c, 0, 75, 0
1, 394179, Note_on_c, 0, 79, 36
1, 394179, Note_on_c, 0, 67, 36
1, 394371, Note_off_c, 0, 67, 0
1, 394371, Note_off_c, 0, 79, 0
1, 394371, Note_on_c, 0, 81, 36
1, 394371, Note_on_c, 0, 69, 36
1, 394563, Note_off_c, 0, 69, 0
1, 394563, Note_off_c, 0, 81, 0
1, 394563, Note_on_c, 0, 86, 36
1, 394563, Note_on_c, 0, 74, 36
1, 394659, Note_off_c, 0, 26, 0
1, 394659, Note_off_c, 0, 24, 0
1, 394659, Note_off_c, 0, 38, 0
1, 394659, Note_off_c, 0, 26, 0
1, 394755, Note_off_c, 0, 74, 0
1, 394755, Note_off_c, 0, 86, 0
1, 394755, Note_on_c, 0, 76, 36
1, 394755, Note_on_c, 0, 64, 36
1, 394947, Note_off_c, 0, 64, 0
1, 394947, Note_off_c, 0, 76, 0
1, 394947, Note_on_c, 0, 79, 36
1, 394947, Note_on_c, 0, 67, 36
1, 395139, Note_off_c, 0, 67, 0
1, 395139, Note_off_c, 0, 79, 0
1, 395139, Note_on_c, 0, 81, 36
1, 395139, Note_on_c, 0, 69, 36
1, 395331, Note_off_c, 0, 69, 0
1, 395331, Note_off_c, 0, 81, 0
1, 395331, Note_on_c, 0, 86, 36
1, 395331, Note_on_c, 0, 74, 36
1, 395523, Note_off_c, 0, 74, 0
1, 395523, Note_off_c, 0, 86, 0
1, 395523, Note_on_c, 0, 75, 36
1, 395523, Note_on_c, 0, 63, 36
1, 395715, Note_off_c, 0, 63, 0
1, 395715, Note_off_c, 0, 75, 0
1, 395715, Note_on_c, 0, 79, 36
1, 395715, Note_on_c, 0, 26, 36
1, 395715, Note_on_c, 0, 38, 36
1, 395715, Note_on_c, 0, 67, 36
1, 395715, Note_on_c, 0, 24, 36
1, 395715, Note_on_c, 0, 26, 36
1, 395907, Note_off_c, 0, 26, 0
1, 395907, Note_off_c, 0, 24, 0
1, 395907, Note_off_c, 0, 67, 0
1, 395907, Note_off_c, 0, 38, 0
1, 395907, Note_off_c, 0, 26, 0
1, 395907, Note_off_c, 0, 79, 0
1, 395907, Note_on_c, 0, 81, 36
1, 395907, Note_on_c, 0, 69, 36
1, 396099, Note_off_c, 0, 69, 0
1, 396099, Note_off_c, 0, 81, 0
1, 396099, Note_on_c, 0, 86, 36
1, 396099, Note_on_c, 0, 26, 36
1, 396099, Note_on_c, 0, 38, 36
1, 396099, Note_on_c, 0, 74, 36
1, 396099, Note_on_c, 0, 24, 36
1, 396099, Note_on_c, 0, 26, 36
1, 396291, Note_off_c, 0, 26, 0
1, 396291, Note_off_c, 0, 24, 0
1, 396291, Note_off_c, 0, 74, 0
1, 396291, Note_off_c, 0, 38, 0
1, 396291, Note_off_c, 0, 26, 0
1, 396291, Note_off_c, 0, 86, 0
1, 396291, Note_on_c, 0, 74, 36
1, 396291, Note_on_c, 0, 26, 36
1, 396291, Note_on_c, 0, 38, 36
1, 396291, Note_on_c, 0, 62, 36
1, 396291, Note_on_c, 0, 24, 36
1, 396291, Note_on_c, 0, 26, 36
1, 396483, Note_off_c, 0, 62, 0
1, 396483, Note_off_c, 0, 74, 0
1, 396483, Note_on_c, 0, 79, 36
1, 396483, Note_on_c, 0, 67, 36
1, 396675, Note_off_c, 0, 67, 0
1, 396675, Note_off_c, 0, 79, 0
1, 396675, Note_on_c, 0, 81, 36
1, 396675, Note_on_c, 0, 69, 36
1, 396867, Note_off_c, 0, 69, 0
1, 396867, Note_off_c, 0, 81, 0
1, 396867, Note_on_c, 0, 86, 36
1, 396867, Note_on_c, 0, 74, 36
1, 397059, Note_off_c, 0, 74, 0
1, 397059, Note_off_c, 0, 86, 0
1, 397059, Note_on_c, 0, 75, 36
1, 397059, Note_on_c, 0, 63, 36
1, 397251, Note_off_c, 0, 63, 0
1, 397251, Note_off_c, 0, 75, 0
1, 397251, Note_on_c, 0, 79, 36
1, 397251, Note_on_c, 0, 67, 36
1, 397443, Note_off_c, 0, 67, 0
1, 397443, Note_off_c, 0, 79, 0
1, 397443, Note_on_c, 0, 81, 36
1, 397443, Note_on_c, 0, 69, 36
1, 397635, Note_off_c, 0, 69, 0
1, 397635, Note_off_c, 0, 81, 0
1, 397635, Note_on_c, 0, 86, 36
1, 397635, Note_on_c, 0, 74, 36
1, 397731, Note_off_c, 0, 26, 0
1, 397731, Note_off_c, 0, 24, 0
1, 397731, Note_off_c, 0, 38, 0
1, 397731, Note_off_c, 0, 26, 0
1, 397827, Note_off_c, 0, 74, 0
1, 397827, Note_off_c, 0, 86, 0
1, 397827, Note_on_c, 0, 76, 36
1, 397827, Note_on_c, 0, 26, 36
1, 397827, Note_on_c, 0, 38, 36
1, 397827, Note_on_c, 0, 64, 36
1, 397827, Note_on_c, 0, 24, 36
1, 397827, Note_on_c, 0, 26, 36
1, 398019, Note_off_c, 0, 26, 0
1, 398019, Note_off_c, 0, 24, 0
1, 398019, Note_off_c, 0, 64, 0
1, 398019, Note_off_c, 0, 38, 0
1, 398019, Note_off_c, 0, 26, 0
1, 398019, Note_off_c, 0, 76, 0
1, 398019, Note_on_c, 0, 79, 36
1, 398019, Note_on_c, 0, 26, 36
1, 398019, Note_on_c, 0, 38, 36
1, 398019, Note_on_c, 0, 67, 36
1, 398019, Note_on_c, 0, 24, 36
1, 398019, Note_on_c, 0, 26, 36
1, 398211, Note_off_c, 0, 26, 0
1, 398211, Note_off_c, 0, 24, 0
1, 398211, Note_off_c, 0, 67, 0
1, 398211, Note_off_c, 0, 38, 0
1, 398211, Note_off_c, 0, 26, 0
1, 398211, Note_off_c, 0, 79, 0
1, 398211, Note_on_c, 0, 81, 36
1, 398211, Note_on_c, 0, 26, 36
1, 398211, Note_on_c, 0, 38, 36
1, 398211, Note_on_c, 0, 69, 36
1, 398211, Note_on_c, 0, 24, 36
1, 398211, Note_on_c, 0, 26, 36
1, 398403, Note_off_c, 0, 26, 0
1, 398403, Note_off_c, 0, 24, 0
1, 398403, Note_off_c, 0, 69, 0
1, 398403, Note_off_c, 0, 38, 0
1, 398403, Note_off_c, 0, 26, 0
1, 398403, Note_off_c, 0, 81, 0
1, 398403, Note_on_c, 0, 86, 36
1, 398403, Note_on_c, 0, 26, 36
1, 398403, Note_on_c, 0, 38, 36
1, 398403, Note_on_c, 0, 74, 36
1, 398403, Note_on_c, 0, 24, 36
1, 398403, Note_on_c, 0, 26, 36
1, 398595, Note_off_c, 0, 26, 0
1, 398595, Note_off_c, 0, 24, 0
1, 398595, Note_off_c, 0, 74, 0
1, 398595, Note_off_c, 0, 38, 0
1, 398595, Note_off_c, 0, 26, 0
1, 398595, Note_off_c, 0, 86, 0
1, 398595, Note_on_c, 0, 75, 36
1, 398595, Note_on_c, 0, 26, 36
1, 398595, Note_on_c, 0, 38, 36
1, 398595, Note_on_c, 0, 63, 36
1, 398595, Note_on_c, 0, 24, 36
1, 398595, Note_on_c, 0, 26, 36
1, 398691, Note_off_c, 0, 26, 0
1, 398691, Note_off_c, 0, 24, 0
1, 398691, Note_off_c, 0, 38, 0
1, 398691, Note_off_c, 0, 26, 0
1, 398691, Note_on_c, 0, 26, 36
1, 398691, Note_on_c, 0, 38, 36
1, 398691, Note_on_c, 0, 24, 36
1, 398691, Note_on_c, 0, 26, 36
1, 398787, Note_off_c, 0, 26, 0
1, 398787, Note_off_c, 0, 24, 0
1, 398787, Note_off_c, 0, 38, 0
1, 398787, Note_off_c, 0, 26, 0
1, 398787, Note_off_c, 0, 63, 0
1, 398787, Note_off_c, 0, 75, 0
1, 398787, Note_on_c, 0, 79, 36
1, 398787, Note_on_c, 0, 26, 36
1, 398787, Note_on_c, 0, 38, 36
1, 398787, Note_on_c, 0, 67, 36
1, 398787, Note_on_c, 0, 24, 36
1, 398787, Note_on_c, 0, 26, 36
1, 398883, Note_off_c, 0, 26, 0
1, 398883, Note_off_c, 0, 24, 0
1, 398883, Note_off_c, 0, 38, 0
1, 398883, Note_off_c, 0, 26, 0
1, 398883, Note_on_c, 0, 26, 36
1, 398883, Note_on_c, 0, 38, 36
1, 398883, Note_on_c, 0, 24, 36
1, 398883, Note_on_c, 0, 26, 36
1, 398979, Note_off_c, 0, 26, 0
1, 398979, Note_off_c, 0, 24, 0
1, 398979, Note_off_c, 0, 38, 0
1, 398979, Note_off_c, 0, 26, 0
1, 398979, Note_off_c, 0, 67, 0
1, 398979, Note_off_c, 0, 79, 0
1, 398979, Note_on_c, 0, 81, 36
1, 398979, Note_on_c, 0, 26, 36
1, 398979, Note_on_c, 0, 38, 36
1, 398979, Note_on_c, 0, 69, 36
1, 398979, Note_on_c, 0, 24, 36
1, 398979, Note_on_c, 0, 26, 36
1, 399075, Note_off_c, 0, 26, 0
1, 399075, Note_off_c, 0, 24, 0
1, 399075, Note_off_c, 0, 38, 0
1, 399075, Note_off_c, 0, 26, 0
1, 399075, Note_on_c, 0, 26, 36
1, 399075, Note_on_c, 0, 38, 36
1, 399075, Note_on_c, 0, 24, 36
1, 399075, Note_on_c, 0, 26, 36
1, 399171, Note_off_c, 0, 26, 0
1, 399171, Note_off_c, 0, 24, 0
1, 399171, Note_off_c, 0, 38, 0
1, 399171, Note_off_c, 0, 26, 0
1, 399171, Note_off_c, 0, 69, 0
1, 399171, Note_off_c, 0, 81, 0
1, 399171, Note_on_c, 0, 86, 36
1, 399171, Note_on_c, 0, 26, 36
1, 399171, Note_on_c, 0, 38, 36
1, 399171, Note_on_c, 0, 74, 36
1, 399171, Note_on_c, 0, 24, 36
1, 399171, Note_on_c, 0, 26, 36
1, 399267, Note_off_c, 0, 26, 0
1, 399267, Note_off_c, 0, 24, 0
1, 399267, Note_off_c, 0, 38, 0
1, 399267, Note_off_c, 0, 26, 0
1, 399267, Note_on_c, 0, 26, 36
1, 399267, Note_on_c, 0, 38, 36
1, 399267, Note_on_c, 0, 24, 36
1, 399267, Note_on_c, 0, 26, 36
1, 399363, Note_off_c, 0, 26, 0
1, 399363, Note_off_c, 0, 24, 0
1, 399363, Note_off_c, 0, 38, 0
1, 399363, Note_off_c, 0, 26, 0
1, 399363, Note_off_c, 0, 74, 0
1, 399363, Note_off_c, 0, 86, 0
1, 399363, Note_on_c, 0, 74, 36
1, 399363, Note_on_c, 0, 26, 36
1, 399363, Note_on_c, 0, 38, 36
1, 399363, Note_on_c, 0, 62, 36
1, 399363, Note_on_c, 0, 24, 36
1, 399363, Note_on_c, 0, 26, 36
1, 399555, Note_off_c, 0, 62, 0
1, 399555, Note_off_c, 0, 74, 0
1, 399555, Note_on_c, 0, 79, 36
1, 399555, Note_on_c, 0, 67, 36
1, 399747, Note_off_c, 0, 67, 0
1, 399747, Note_off_c, 0, 79, 0
1, 399747, Note_on_c, 0, 81, 36
1, 399747, Note_on_c, 0, 69, 36
1, 399939, Note_off_c, 0, 69, 0
1, 399939, Note_off_c, 0, 81, 0
1, 399939, Note_on_c, 0, 86, 36
1, 399939, Note_on_c, 0, 74, 36
1, 400131, Note_off_c, 0, 74, 0
1, 400131, Note_off_c, 0, 86, 0
1, 400131, Note_on_c, 0, 75, 36
1, 400131, Note_on_c, 0, 63, 36
1, 400323, Note_off_c, 0, 63, 0
1, 400323, Note_off_c, 0, 75, 0
1, 400323, Note_on_c, 0, 79, 36
1, 400323, Note_on_c, 0, 67, 36
1, 400515, Note_off_c, 0, 67, 0
1, 400515, Note_off_c, 0, 79, 0
1, 400515, Note_on_c, 0, 81, 36
1, 400515, Note_on_c, 0, 69, 36
1, 400707, Note_off_c, 0, 69, 0
1, 400707, Note_off_c, 0, 81, 0
1, 400707, Note_on_c, 0, 86, 36
1, 400707, Note_on_c, 0, 74, 36
1, 400803, Note_off_c, 0, 26, 0
1, 400803, Note_off_c, 0, 24, 0
1, 400803, Note_off_c, 0, 38, 0
1, 400803, Note_off_c, 0, 26, 0
1, 400899, Note_off_c, 0, 74, 0
1, 400899, Note_off_c, 0, 86, 0
1, 400899, Note_on_c, 0, 76, 36
1, 400899, Note_on_c, 0, 64, 36
1, 401091, Note_off_c, 0, 64, 0
1, 401091, Note_off_c, 0, 76, 0
1, 401091, Note_on_c, 0, 79, 36
1, 401091, Note_on_c, 0, 67, 36
1, 401283, Note_off_c, 0, 67, 0
1, 401283, Note_off_c, 0, 79, 0
1, 401283, Note_on_c, 0, 81, 36
1, 401283, Note_on_c, 0, 69, 36
1, 401475, Note_off_c, 0, 69, 0
1, 401475, Note_off_c, 0, 81, 0
1, 401475, Note_on_c, 0, 86, 36
1, 401475, Note_on_c, 0, 74, 36
1, 401667, Note_off_c, 0, 74, 0
1, 401667, Note_off_c, 0, 86, 0
1, 401667, Note_on_c, 0, 75, 36
1, 401667, Note_on_c, 0, 63, 36
1, 401859, Note_off_c, 0, 63, 0
1, 401859, Note_off_c, 0, 75, 0
1, 401859, Note_on_c, 0, 79, 36
1, 401859, Note_on_c, 0, 26, 36
1, 401859, Note_on_c, 0, 38, 36
1, 401859, Note_on_c, 0, 67, 36
1, 401859, Note_on_c, 0, 24, 36
1, 401859, Note_on_c, 0, 26, 36
1, 402051, Note_off_c, 0, 26, 0
1, 402051, Note_off_c, 0, 24, 0
1, 402051, Note_off_c, 0, 67, 0
1, 402051, Note_off_c, 0, 38, 0
1, 402051, Note_off_c, 0, 26, 0
1, 402051, Note_off_c, 0, 79, 0
1, 402051, Note_on_c, 0, 81, 36
1, 402051, Note_on_c, 0, 69, 36
1, 402243, Note_off_c, 0, 69, 0
1, 402243, Note_off_c, 0, 81, 0
1, 402243, Note_on_c, 0, 86, 36
1, 402243, Note_on_c, 0, 26, 36
1, 402243, Note_on_c, 0, 38, 36
1, 402243, Note_on_c, 0, 74, 36
1, 402243, Note_on_c, 0, 24, 36
1, 402243, Note_on_c, 0, 26, 36
1, 402435, Note_off_c, 0, 26, 0
1, 402435, Note_off_c, 0, 24, 0
1, 402435, Note_off_c, 0, 74, 0
1, 402435, Note_off_c, 0, 38, 0
1, 402435, Note_off_c, 0, 26, 0
1, 402435, Note_off_c, 0, 86, 0
1, 402435, Note_on_c, 0, 74, 36
1, 402435, Note_on_c, 0, 26, 36
1, 402435, Note_on_c, 0, 38, 36
1, 402435, Note_on_c, 0, 62, 36
1, 402435, Note_on_c, 0, 24, 36
1, 402435, Note_on_c, 0, 26, 36
1, 402627, Note_off_c, 0, 62, 0
1, 402627, Note_off_c, 0, 74, 0
1, 402627, Note_on_c, 0, 79, 36
1, 402627, Note_on_c, 0, 67, 36
1, 402819, Note_off_c, 0, 67, 0
1, 402819, Note_off_c, 0, 79, 0
1, 402819, Note_on_c, 0, 81, 36
1, 402819, Note_on_c, 0, 69, 36
1, 403011, Note_off_c, 0, 69, 0
1, 403011, Note_off_c, 0, 81, 0
1, 403011, Note_on_c, 0, 86, 36
1, 403011, Note_on_c, 0, 74, 36
1, 403203, Note_off_c, 0, 74, 0
1, 403203, Note_off_c, 0, 86, 0
1, 403203, Note_on_c, 0, 75, 36
1, 403203, Note_on_c, 0, 63, 36
1, 403395, Note_off_c, 0, 63, 0
1, 403395, Note_off_c, 0, 75, 0
1, 403395, Note_on_c, 0, 79, 36
1, 403395, Note_on_c, 0, 67, 36
1, 403587, Note_off_c, 0, 67, 0
1, 403587, Note_off_c, 0, 79, 0
1, 403587, Note_on_c, 0, 81, 36
1, 403587, Note_on_c, 0, 69, 36
1, 403779, Note_off_c, 0, 69, 0
1, 403779, Note_off_c, 0, 81, 0
1, 403779, Note_on_c, 0, 86, 36
1, 403779, Note_on_c, 0, 74, 36
1, 403875, Note_off_c, 0, 26, 0
1, 403875, Note_off_c, 0, 24, 0
1, 403875, Note_off_c, 0, 38, 0
1, 403875, Note_off_c, 0, 26, 0
1, 403971, Note_off_c, 0, 74, 0
1, 403971, Note_off_c, 0, 86, 0
1, 403971, Note_on_c, 0, 76, 36
1, 403971, Note_on_c, 0, 64, 36
1, 404163, Note_off_c, 0, 64, 0
1, 404163, Note_off_c, 0, 76, 0
1, 404163, Note_on_c, 0, 79, 36
1, 404163, Note_on_c, 0, 67, 36
1, 404355, Note_off_c, 0, 67, 0
1, 404355, Note_off_c, 0, 79, 0
1, 404355, Note_on_c, 0, 81, 36
1, 404355, Note_on_c, 0, 69, 36
1, 404547, Note_off_c, 0, 69, 0
1, 404547, Note_off_c, 0, 81, 0
1, 404547, Note_on_c, 0, 86, 36
1, 404547, Note_on_c, 0, 74, 36
1, 404739, Note_off_c, 0, 74, 0
1, 404739, Note_off_c, 0, 86, 0
1, 404739, Note_on_c, 0, 75, 36
1, 404739, Note_on_c, 0, 63, 36
1, 404931, Note_off_c, 0, 63, 0
1, 404931, Note_off_c, 0, 75, 0
1, 404931, Note_on_c, 0, 79, 36
1, 404931, Note_on_c, 0, 67, 36
1, 405123, Note_off_c, 0, 67, 0
1, 405123, Note_off_c, 0, 79, 0
1, 405123, Note_on_c, 0, 81, 36
1, 405123, Note_on_c, 0, 69, 36
1, 405315, Note_off_c, 0, 69, 0
1, 405315, Note_off_c, 0, 81, 0
1, 405315, Note_on_c, 0, 86, 36
1, 405315, Note_on_c, 0, 74, 36
1, 405507, Note_off_c, 0, 74, 0
1, 405507, Note_off_c, 0, 86, 0
1, 405507, Note_on_c, 0, 74, 36
1, 405507, Note_on_c, 0, 26, 36
1, 405507, Note_on_c, 0, 38, 36
1, 405507, Note_on_c, 0, 62, 36
1, 405507, Note_on_c, 0, 24, 36
1, 405507, Note_on_c, 0, 26, 36
1, 405699, Note_off_c, 0, 62, 0
1, 405699, Note_off_c, 0, 74, 0
1, 405699, Note_on_c, 0, 79, 36
1, 405699, Note_on_c, 0, 67, 36
1, 405891, Note_off_c, 0, 67, 0
1, 405891, Note_off_c, 0, 79, 0
1, 405891, Note_on_c, 0, 81, 36
1, 405891, Note_on_c, 0, 69, 36
1, 406083, Note_off_c, 0, 69, 0
1, 406083, Note_off_c, 0, 81, 0
1, 406083, Note_on_c, 0, 86, 36
1, 406083, Note_on_c, 0, 74, 36
1, 406275, Note_off_c, 0, 74, 0
1, 406275, Note_off_c, 0, 86, 0
1, 406275, Note_on_c, 0, 75, 36
1, 406275, Note_on_c, 0, 63, 36
1, 406467, Note_off_c, 0, 63, 0
1, 406467, Note_off_c, 0, 75, 0
1, 406467, Note_on_c, 0, 79, 36
1, 406467, Note_on_c, 0, 67, 36
1, 406659, Note_off_c, 0, 67, 0
1, 406659, Note_off_c, 0, 79, 0
1, 406659, Note_on_c, 0, 81, 36
1, 406659, Note_on_c, 0, 69, 36
1, 406851, Note_off_c, 0, 69, 0
1, 406851, Note_off_c, 0, 81, 0
1, 406851, Note_on_c, 0, 86, 36
1, 406851, Note_on_c, 0, 74, 36
1, 406947, Note_off_c, 0, 26, 0
1, 406947, Note_off_c, 0, 24, 0
1, 406947, Note_off_c, 0, 38, 0
1, 406947, Note_off_c, 0, 26, 0
1, 407043, Note_off_c, 0, 74, 0
1, 407043, Note_off_c, 0, 86, 0
1, 407043, Note_on_c, 0, 76, 36
1, 407043, Note_on_c, 0, 64, 36
1, 407235, Note_off_c, 0, 64, 0
1, 407235, Note_off_c, 0, 76, 0
1, 407235, Note_on_c, 0, 79, 36
1, 407235, Note_on_c, 0, 67, 36
1, 407427, Note_off_c, 0, 67, 0
1, 407427, Note_off_c, 0, 79, 0
1, 407427, Note_on_c, 0, 81, 36
1, 407427, Note_on_c, 0, 69, 36
1, 407619, Note_off_c, 0, 69, 0
1, 407619, Note_off_c, 0, 81, 0
1, 407619, Note_on_c, 0, 86, 36
1, 407619, Note_on_c, 0, 74, 36
1, 407811, Note_off_c, 0, 74, 0
1, 407811, Note_off_c, 0, 86, 0
1, 407811, Note_on_c, 0, 75, 36
1, 407811, Note_on_c, 0, 63, 36
1, 408003, Note_off_c, 0, 63, 0
1, 408003, Note_off_c, 0, 75, 0
1, 408003, Note_on_c, 0, 79, 36
1, 408003, Note_on_c, 0, 26, 36
1, 408003, Note_on_c, 0, 38, 36
1, 408003, Note_on_c, 0, 67, 36
1, 408003, Note_on_c, 0, 24, 36
1, 408003, Note_on_c, 0, 26, 36
1, 408195, Note_off_c, 0, 26, 0
1, 408195, Note_off_c, 0, 24, 0
1, 408195, Note_off_c, 0, 67, 0
1, 408195, Note_off_c, 0, 38, 0
1, 408195, Note_off_c, 0, 26, 0
1, 408195, Note_off_c, 0, 79, 0
1, 408195, Note_on_c, 0, 81, 36
1, 408195, Note_on_c, 0, 69, 36
1, 408387, Note_off_c, 0, 69, 0
1, 408387, Note_off_c, 0, 81, 0
1, 408387, Note_on_c, 0, 86, 36
1, 408387, Note_on_c, 0, 26, 36
1, 408387, Note_on_c, 0, 38, 36
1, 408387, Note_on_c, 0, 74, 36
1, 408387, Note_on_c, 0, 24, 36
1, 408387, Note_on_c, 0, 26, 36
1, 408579, Note_off_c, 0, 26, 0
1, 408579, Note_off_c, 0, 24, 0
1, 408579, Note_off_c, 0, 74, 0
1, 408579, Note_off_c, 0, 38, 0
1, 408579, Note_off_c, 0, 26, 0
1, 408579, Note_off_c, 0, 86, 0
1, 408579, Note_on_c, 0, 74, 36
1, 408579, Note_on_c, 0, 26, 36
1, 408579, Note_on_c, 0, 38, 36
1, 408579, Note_on_c, 0, 62, 36
1, 408579, Note_on_c, 0, 24, 36
1, 408579, Note_on_c, 0, 26, 36
1, 408771, Note_off_c, 0, 62, 0
1, 408771, Note_off_c, 0, 74, 0
1, 408771, Note_on_c, 0, 79, 36
1, 408771, Note_on_c, 0, 67, 36
1, 408963, Note_off_c, 0, 67, 0
1, 408963, Note_off_c, 0, 79, 0
1, 408963, Note_on_c, 0, 81, 36
1, 408963, Note_on_c, 0, 69, 36
1, 409155, Note_off_c, 0, 69, 0
1, 409155, Note_off_c, 0, 81, 0
1, 409155, Note_on_c, 0, 86, 36
1, 409155, Note_on_c, 0, 74, 36
1, 409347, Note_off_c, 0, 74, 0
1, 409347, Note_off_c, 0, 86, 0
1, 409347, Note_on_c, 0, 75, 36
1, 409347, Note_on_c, 0, 63, 36
1, 409539, Note_off_c, 0, 63, 0
1, 409539, Note_off_c, 0, 75, 0
1, 409539, Note_on_c, 0, 79, 36
1, 409539, Note_on_c, 0, 67, 36
1, 409731, Note_off_c, 0, 67, 0
1, 409731, Note_off_c, 0, 79, 0
1, 409731, Note_on_c, 0, 81, 36
1, 409731, Note_on_c, 0, 69, 36
1, 409923, Note_off_c, 0, 69, 0
1, 409923, Note_off_c, 0, 81, 0
1, 409923, Note_on_c, 0, 86, 36
1, 409923, Note_on_c, 0, 74, 36
1, 410019, Note_off_c, 0, 26, 0
1, 410019, Note_off_c, 0, 24, 0
1, 410019, Note_off_c, 0, 38, 0
1, 410019, Note_off_c, 0, 26, 0
1, 410115, Note_off_c, 0, 74, 0
1, 410115, Note_off_c, 0, 86, 0
1, 410115, Note_on_c, 0, 76, 36
1, 410115, Note_on_c, 0, 26, 36
1, 410115, Note_on_c, 0, 38, 36
1, 410115, Note_on_c, 0, 64, 36
1, 410115, Note_on_c, 0, 24, 36
1, 410115, Note_on_c, 0, 26, 36
1, 410307, Note_off_c, 0, 26, 0
1, 410307, Note_off_c, 0, 24, 0
1, 410307, Note_off_c, 0, 64, 0
1, 410307, Note_off_c, 0, 38, 0
1, 410307, Note_off_c, 0, 26, 0
1, 410307, Note_off_c, 0, 76, 0
1, 410307, Note_on_c, 0, 79, 36
1, 410307, Note_on_c, 0, 26, 36
1, 410307, Note_on_c, 0, 38, 36
1, 410307, Note_on_c, 0, 67, 36
1, 410307, Note_on_c, 0, 24, 36
1, 410307, Note_on_c, 0, 26, 36
1, 410499, Note_off_c, 0, 26, 0
1, 410499, Note_off_c, 0, 24, 0
1, 410499, Note_off_c, 0, 67, 0
1, 410499, Note_off_c, 0, 38, 0
1, 410499, Note_off_c, 0, 26, 0
1, 410499, Note_off_c, 0, 79, 0
1, 410499, Note_on_c, 0, 81, 36
1, 410499, Note_on_c, 0, 26, 36
1, 410499, Note_on_c, 0, 38, 36
1, 410499, Note_on_c, 0, 69, 36
1, 410499, Note_on_c, 0, 24, 36
1, 410499, Note_on_c, 0, 26, 36
1, 410691, Note_off_c, 0, 26, 0
1, 410691, Note_off_c, 0, 24, 0
1, 410691, Note_off_c, 0, 69, 0
1, 410691, Note_off_c, 0, 38, 0
1, 410691, Note_off_c, 0, 26, 0
1, 410691, Note_off_c, 0, 81, 0
1, 410691, Note_on_c, 0, 86, 36
1, 410691, Note_on_c, 0, 26, 36
1, 410691, Note_on_c, 0, 38, 36
1, 410691, Note_on_c, 0, 74, 36
1, 410691, Note_on_c, 0, 24, 36
1, 410691, Note_on_c, 0, 26, 36
1, 410883, Note_off_c, 0, 26, 0
1, 410883, Note_off_c, 0, 24, 0
1, 410883, Note_off_c, 0, 74, 0
1, 410883, Note_off_c, 0, 38, 0
1, 410883, Note_off_c, 0, 26, 0
1, 410883, Note_off_c, 0, 86, 0
1, 410883, Note_on_c, 0, 75, 36
1, 410883, Note_on_c, 0, 26, 36
1, 410883, Note_on_c, 0, 38, 36
1, 410883, Note_on_c, 0, 63, 36
1, 410883, Note_on_c, 0, 24, 36
1, 410883, Note_on_c, 0, 26, 36
1, 410979, Note_off_c, 0, 26, 0
1, 410979, Note_off_c, 0, 24, 0
1, 410979, Note_off_c, 0, 38, 0
1, 410979, Note_off_c, 0, 26, 0
1, 410979, Note_on_c, 0, 26, 36
1, 410979, Note_on_c, 0, 38, 36
1, 410979, Note_on_c, 0, 24, 36
1, 410979, Note_on_c, 0, 26, 36
1, 411075, Note_off_c, 0, 26, 0
1, 411075, Note_off_c, 0, 24, 0
1, 411075, Note_off_c, 0, 38, 0
1, 411075, Note_off_c, 0, 26, 0
1, 411075, Note_off_c, 0, 63, 0
1, 411075, Note_off_c, 0, 75, 0
1, 411075, Note_on_c, 0, 79, 36
1, 411075, Note_on_c, 0, 26, 36
1, 411075, Note_on_c, 0, 38, 36
1, 411075, Note_on_c, 0, 67, 36
1, 411075, Note_on_c, 0, 24, 36
1, 411075, Note_on_c, 0, 26, 36
1, 411171, Note_off_c, 0, 26, 0
1, 411171, Note_off_c, 0, 24, 0
1, 411171, Note_off_c, 0, 38, 0
1, 411171, Note_off_c, 0, 26, 0
1, 411171, Note_on_c, 0, 26, 36
1, 411171, Note_on_c, 0, 38, 36
1, 411171, Note_on_c, 0, 24, 36
1, 411171, Note_on_c, 0, 26, 36
1, 411267, Note_off_c, 0, 26, 0
1, 411267, Note_off_c, 0, 24, 0
1, 411267, Note_off_c, 0, 38, 0
1, 411267, Note_off_c, 0, 26, 0
1, 411267, Note_off_c, 0, 67, 0
1, 411267, Note_off_c, 0, 79, 0
1, 411267, Note_on_c, 0, 81, 36
1, 411267, Note_on_c, 0, 26, 36
1, 411267, Note_on_c, 0, 38, 36
1, 411267, Note_on_c, 0, 69, 36
1, 411267, Note_on_c, 0, 24, 36
1, 411267, Note_on_c, 0, 26, 36
1, 411363, Note_off_c, 0, 26, 0
1, 411363, Note_off_c, 0, 24, 0
1, 411363, Note_off_c, 0, 38, 0
1, 411363, Note_off_c, 0, 26, 0
1, 411363, Note_on_c, 0, 26, 36
1, 411363, Note_on_c, 0, 38, 36
1, 411363, Note_on_c, 0, 24, 36
1, 411363, Note_on_c, 0, 26, 36
1, 411459, Note_off_c, 0, 26, 0
1, 411459, Note_off_c, 0, 24, 0
1, 411459, Note_off_c, 0, 38, 0
1, 411459, Note_off_c, 0, 26, 0
1, 411459, Note_off_c, 0, 69, 0
1, 411459, Note_off_c, 0, 81, 0
1, 411459, Note_on_c, 0, 86, 36
1, 411459, Note_on_c, 0, 26, 36
1, 411459, Note_on_c, 0, 38, 36
1, 411459, Note_on_c, 0, 74, 36
1, 411459, Note_on_c, 0, 24, 36
1, 411459, Note_on_c, 0, 26, 36
1, 411555, Note_off_c, 0, 26, 0
1, 411555, Note_off_c, 0, 24, 0
1, 411555, Note_off_c, 0, 38, 0
1, 411555, Note_off_c, 0, 26, 0
1, 411555, Note_on_c, 0, 26, 36
1, 411555, Note_on_c, 0, 38, 36
1, 411555, Note_on_c, 0, 24, 36
1, 411555, Note_on_c, 0, 26, 36
1, 411651, Note_off_c, 0, 26, 0
1, 411651, Note_off_c, 0, 24, 0
1, 411651, Note_off_c, 0, 38, 0
1, 411651, Note_off_c, 0, 26, 0
1, 411651, Note_off_c, 0, 74, 0
1, 411651, Note_off_c, 0, 86, 0
1, 411651, Note_on_c, 0, 62, 38
1, 411651, Note_on_c, 0, 26, 38
1, 411651, Note_on_c, 0, 38, 38
1, 411651, Note_on_c, 0, 50, 38
1, 411651, Note_on_c, 0, 24, 38
1, 411651, Note_on_c, 0, 26, 38
1, 412035, Note_off_c, 0, 26, 0
1, 412035, Note_off_c, 0, 24, 0
1, 412035, Note_off_c, 0, 50, 0
1, 412035, Note_off_c, 0, 38, 0
1, 412035, Note_off_c, 0, 26, 0
1, 412035, Note_off_c, 0, 62, 0
1, 412035, Note_on_c, 0, 69, 38
1, 412035, Note_on_c, 0, 26, 38
1, 412035, Note_on_c, 0, 38, 38
1, 412035, Note_on_c, 0, 57, 38
1, 412035, Note_on_c, 0, 24, 38
1, 412035, Note_on_c, 0, 26, 38
1, 412419, Note_off_c, 0, 26, 0
1, 412419, Note_off_c, 0, 24, 0
1, 412419, Note_off_c, 0, 57, 0
1, 412419, Note_off_c, 0, 38, 0
1, 412419, Note_off_c, 0, 26, 0
1, 412419, Note_off_c, 0, 69, 0
1, 412419, Note_on_c, 0, 68, 38
1, 412419, Note_on_c, 0, 26, 38
1, 412419, Note_on_c, 0, 38, 38
1, 412419, Note_on_c, 0, 56, 38
1, 412419, Note_on_c, 0, 24, 38
1, 412419, Note_on_c, 0, 26, 38
1, 412803, Note_off_c, 0, 26, 0
1, 412803, Note_off_c, 0, 24, 0
1, 412803, Note_off_c, 0, 56, 0
1, 412803, Note_off_c, 0, 38, 0
1, 412803, Note_off_c, 0, 26, 0
1, 412803, Note_off_c, 0, 68, 0
1, 412803, Note_on_c, 0, 64, 38
1, 412803, Note_on_c, 0, 26, 38
1, 412803, Note_on_c, 0, 38, 38
1, 412803, Note_on_c, 0, 52, 38
1, 412803, Note_on_c, 0, 24, 38
1, 412803, Note_on_c, 0, 26, 38
1, 413187, Note_off_c, 0, 26, 0
1, 413187, Note_off_c, 0, 24, 0
1, 413187, Note_off_c, 0, 52, 0
1, 413187, Note_off_c, 0, 38, 0
1, 413187, Note_off_c, 0, 26, 0
1, 413187, Note_off_c, 0, 64, 0
1, 413187, Note_on_c, 0, 67, 38
1, 413187, Note_on_c, 0, 26, 38
1, 413187, Note_on_c, 0, 38, 38
1, 413187, Note_on_c, 0, 55, 38
1, 413187, Note_on_c, 0, 24, 38
1, 413187, Note_on_c, 0, 26, 38
1, 413571, Note_off_c, 0, 26, 0
1, 413571, Note_off_c, 0, 24, 0
1, 413571, Note_off_c, 0, 55, 0
1, 413571, Note_off_c, 0, 38, 0
1, 413571, Note_off_c, 0, 26, 0
1, 413571, Note_off_c, 0, 67, 0
1, 413571, Note_on_c, 0, 65, 38
1, 413571, Note_on_c, 0, 26, 38
1, 413571, Note_on_c, 0, 38, 38
1, 413571, Note_on_c, 0, 53, 38
1, 413571, Note_on_c, 0, 24, 38
1, 413571, Note_on_c, 0, 26, 38
1, 413955, Note_off_c, 0, 26, 0
1, 413955, Note_off_c, 0, 24, 0
1, 413955, Note_off_c, 0, 53, 0
1, 413955, Note_off_c, 0, 38, 0
1, 413955, Note_off_c, 0, 26, 0
1, 413955, Note_off_c, 0, 65, 0
1, 413955, Note_on_c, 0, 64, 38
1, 413955, Note_on_c, 0, 26, 38
1, 413955, Note_on_c, 0, 38, 38
1, 413955, Note_on_c, 0, 52, 38
1, 413955, Note_on_c, 0, 24, 38
1, 413955, Note_on_c, 0, 26, 38
1, 414339, Note_off_c, 0, 26, 0
1, 414339, Note_off_c, 0, 24, 0
1, 414339, Note_off_c, 0, 52, 0
1, 414339, Note_off_c, 0, 38, 0
1, 414339, Note_off_c, 0, 26, 0
1, 414339, Note_off_c, 0, 64, 0
1, 414339, Note_on_c, 0, 61, 38
1, 414339, Note_on_c, 0, 26, 38
1, 414339, Note_on_c, 0, 38, 38
1, 414339, Note_on_c, 0, 49, 38
1, 414339, Note_on_c, 0, 24, 38
1, 414339, Note_on_c, 0, 26, 38
1, 414723, Note_off_c, 0, 26, 0
1, 414723, Note_off_c, 0, 24, 0
1, 414723, Note_off_c, 0, 49, 0
1, 414723, Note_off_c, 0, 38, 0
1, 414723, Note_off_c, 0, 26, 0
1, 414723, Note_off_c, 0, 61, 0
1, 414723, Note_on_c, 0, 62, 38
1, 414723, Note_on_c, 0, 26, 38
1, 414723, Note_on_c, 0, 38, 38
1, 414723, Note_on_c, 0, 50, 38
1, 414723, Note_on_c, 0, 24, 38
1, 414723, Note_on_c, 0, 26, 38
1, 415107, Note_off_c, 0, 26, 0
1, 415107, Note_off_c, 0, 24, 0
1, 415107, Note_off_c, 0, 50, 0
1, 415107, Note_off_c, 0, 38, 0
1, 415107, Note_off_c, 0, 26, 0
1, 415107, Note_off_c, 0, 62, 0
1, 415107, Note_on_c, 0, 69, 38
1, 415107, Note_on_c, 0, 26, 38
1, 415107, Note_on_c, 0, 38, 38
1, 415107, Note_on_c, 0, 57, 38
1, 415107, Note_on_c, 0, 24, 38
1, 415107, Note_on_c, 0, 26, 38
1, 415491, Note_off_c, 0, 26, 0
1, 415491, Note_off_c, 0, 24, 0
1, 415491, Note_off_c, 0, 57, 0
1, 415491, Note_off_c, 0, 38, 0
1, 415491, Note_off_c, 0, 26, 0
1, 415491, Note_off_c, 0, 69, 0
1, 415491, Note_on_c, 0, 64, 38
1, 415491, Note_on_c, 0, 26, 38
1, 415491, Note_on_c, 0, 38, 38
1, 415491, Note_on_c, 0, 52, 38
1, 415491, Note_on_c, 0, 24, 38
1, 415491, Note_on_c, 0, 26, 38
1, 415875, Note_off_c, 0, 26, 0
1, 415875, Note_off_c, 0, 24, 0
1, 415875, Note_off_c, 0, 52, 0
1, 415875, Note_off_c, 0, 38, 0
1, 415875, Note_off_c, 0, 26, 0
1, 415875, Note_off_c, 0, 64, 0
1, 415875, Note_on_c, 0, 72, 38
1, 415875, Note_on_c, 0, 26, 38
1, 415875, Note_on_c, 0, 38, 38
1, 415875, Note_on_c, 0, 60, 38
1, 415875, Note_on_c, 0, 24, 38
1, 415875, Note_on_c, 0, 26, 38
1, 416259, Note_off_c, 0, 26, 0
1, 416259, Note_off_c, 0, 24, 0
1, 416259, Note_off_c, 0, 60, 0
1, 416259, Note_off_c, 0, 38, 0
1, 416259, Note_off_c, 0, 26, 0
1, 416259, Note_off_c, 0, 72, 0
1, 416259, Note_on_c, 0, 71, 38
1, 416259, Note_on_c, 0, 26, 38
1, 416259, Note_on_c, 0, 38, 38
1, 416259, Note_on_c, 0, 59, 38
1, 416259, Note_on_c, 0, 24, 38
1, 416259, Note_on_c, 0, 26, 38
1, 416643, Note_off_c, 0, 26, 0
1, 416643, Note_off_c, 0, 24, 0
1, 416643, Note_off_c, 0, 59, 0
1, 416643, Note_off_c, 0, 38, 0
1, 416643, Note_off_c, 0, 26, 0
1, 416643, Note_off_c, 0, 71, 0
1, 416643, Note_on_c, 0, 68, 38
1, 416643, Note_on_c, 0, 26, 38
1, 416643, Note_on_c, 0, 38, 38
1, 416643, Note_on_c, 0, 56, 38
1, 416643, Note_on_c, 0, 24, 38
1, 416643, Note_on_c, 0, 26, 38
1, 417027, Note_off_c, 0, 26, 0
1, 417027, Note_off_c, 0, 24, 0
1, 417027, Note_off_c, 0, 56, 0
1, 417027, Note_off_c, 0, 38, 0
1, 417027, Note_off_c, 0, 26, 0
1, 417027, Note_off_c, 0, 68, 0
1, 417027, Note_on_c, 0, 69, 38
1, 417027, Note_on_c, 0, 26, 38
1, 417027, Note_on_c, 0, 38, 38
1, 417027, Note_on_c, 0, 57, 38
1, 417027, Note_on_c, 0, 24, 38
1, 417027, Note_on_c, 0, 26, 38
1, 417411, Note_off_c, 0, 26, 0
1, 417411, Note_off_c, 0, 24, 0
1, 417411, Note_off_c, 0, 57, 0
1, 417411, Note_off_c, 0, 38, 0
1, 417411, Note_off_c, 0, 26, 0
1, 417411, Note_off_c, 0, 69, 0
1, 417411, Note_on_c, 0, 26, 36
1, 417411, Note_on_c, 0, 38, 36
1, 417411, Note_on_c, 0, 24, 36
1, 417411, Note_on_c, 0, 26, 36
1, 417507, Note_off_c, 0, 26, 0
1, 417507, Note_off_c, 0, 24, 0
1, 417507, Note_off_c, 0, 38, 0
1, 417507, Note_off_c, 0, 26, 0
1, 417507, Note_on_c, 0, 26, 36
1, 417507, Note_on_c, 0, 38, 36
1, 417507, Note_on_c, 0, 24, 36
1, 417507, Note_on_c, 0, 26, 36
1, 417603, Note_off_c, 0, 26, 0
1, 417603, Note_off_c, 0, 24, 0
1, 417603, Note_off_c, 0, 38, 0
1, 417603, Note_off_c, 0, 26, 0
1, 417603, Note_on_c, 0, 26, 36
1, 417603, Note_on_c, 0, 38, 36
1, 417603, Note_on_c, 0, 24, 36
1, 417603, Note_on_c, 0, 26, 36
1, 417699, Note_off_c, 0, 26, 0
1, 417699, Note_off_c, 0, 24, 0
1, 417699, Note_off_c, 0, 38, 0
1, 417699, Note_off_c, 0, 26, 0
1, 417699, Note_on_c, 0, 26, 36
1, 417699, Note_on_c, 0, 38, 36
1, 417699, Note_on_c, 0, 24, 36
1, 417699, Note_on_c, 0, 26, 36
1, 417795, Note_off_c, 0, 26, 0
1, 417795, Note_off_c, 0, 24, 0
1, 417795, Note_off_c, 0, 38, 0
1, 417795, Note_off_c, 0, 26, 0
1, 417795, Note_on_c, 0, 62, 38
1, 417795, Note_on_c, 0, 26, 38
1, 417795, Note_on_c, 0, 38, 38
1, 417795, Note_on_c, 0, 50, 38
1, 417795, Note_on_c, 0, 24, 38
1, 417795, Note_on_c, 0, 26, 38
1, 418179, Note_off_c, 0, 26, 0
1, 418179, Note_off_c, 0, 24, 0
1, 418179, Note_off_c, 0, 50, 0
1, 418179, Note_off_c, 0, 38, 0
1, 418179, Note_off_c, 0, 26, 0
1, 418179, Note_off_c, 0, 62, 0
1, 418179, Note_on_c, 0, 69, 38
1, 418179, Note_on_c, 0, 26, 38
1, 418179, Note_on_c, 0, 38, 38
1, 418179, Note_on_c, 0, 57, 38
1, 418179, Note_on_c, 0, 24, 38
1, 418179, Note_on_c, 0, 26, 38
1, 418563, Note_off_c, 0, 26, 0
1, 418563, Note_off_c, 0, 24, 0
1, 418563, Note_off_c, 0, 57, 0
1, 418563, Note_off_c, 0, 38, 0
1, 418563, Note_off_c, 0, 26, 0
1, 418563, Note_off_c, 0, 69, 0
1, 418563, Note_on_c, 0, 68, 38
1, 418563, Note_on_c, 0, 26, 38
1, 418563, Note_on_c, 0, 38, 38
1, 418563, Note_on_c, 0, 56, 38
1, 418563, Note_on_c, 0, 24, 38
1, 418563, Note_on_c, 0, 26, 38
1, 418947, Note_off_c, 0, 26, 0
1, 418947, Note_off_c, 0, 24, 0
1, 418947, Note_off_c, 0, 56, 0
1, 418947, Note_off_c, 0, 38, 0
1, 418947, Note_off_c, 0, 26, 0
1, 418947, Note_off_c, 0, 68, 0
1, 418947, Note_on_c, 0, 64, 38
1, 418947, Note_on_c, 0, 26, 38
1, 418947, Note_on_c, 0, 38, 38
1, 418947, Note_on_c, 0, 52, 38
1, 418947, Note_on_c, 0, 24, 38
1, 418947, Note_on_c, 0, 26, 38
1, 419331, Note_off_c, 0, 26, 0
1, 419331, Note_off_c, 0, 24, 0
1, 419331, Note_off_c, 0, 52, 0
1, 419331, Note_off_c, 0, 38, 0
1, 419331, Note_off_c, 0, 26, 0
1, 419331, Note_off_c, 0, 64, 0
1, 419331, Note_on_c, 0, 67, 38
1, 419331, Note_on_c, 0, 26, 38
1, 419331, Note_on_c, 0, 38, 38
1, 419331, Note_on_c, 0, 55, 38
1, 419331, Note_on_c, 0, 24, 38
1, 419331, Note_on_c, 0, 26, 38
1, 419715, Note_off_c, 0, 26, 0
1, 419715, Note_off_c, 0, 24, 0
1, 419715, Note_off_c, 0, 55, 0
1, 419715, Note_off_c, 0, 38, 0
1, 419715, Note_off_c, 0, 26, 0
1, 419715, Note_off_c, 0, 67, 0
1, 419715, Note_on_c, 0, 65, 38
1, 419715, Note_on_c, 0, 26, 38
1, 419715, Note_on_c, 0, 38, 38
1, 419715, Note_on_c, 0, 53, 38
1, 419715, Note_on_c, 0, 24, 38
1, 419715, Note_on_c, 0, 26, 38
1, 420099, Note_off_c, 0, 26, 0
1, 420099, Note_off_c, 0, 24, 0
1, 420099, Note_off_c, 0, 53, 0
1, 420099, Note_off_c, 0, 38, 0
1, 420099, Note_off_c, 0, 26, 0
1, 420099, Note_off_c, 0, 65, 0
1, 420099, Note_on_c, 0, 64, 38
1, 420099, Note_on_c, 0, 26, 38
1, 420099, Note_on_c, 0, 38, 38
1, 420099, Note_on_c, 0, 52, 38
1, 420099, Note_on_c, 0, 24, 38
1, 420099, Note_on_c, 0, 26, 38
1, 420483, Note_off_c, 0, 26, 0
1, 420483, Note_off_c, 0, 24, 0
1, 420483, Note_off_c, 0, 52, 0
1, 420483, Note_off_c, 0, 38, 0
1, 420483, Note_off_c, 0, 26, 0
1, 420483, Note_off_c, 0, 64, 0
1, 420483, Note_on_c, 0, 61, 38
1, 420483, Note_on_c, 0, 26, 38
1, 420483, Note_on_c, 0, 38, 38
1, 420483, Note_on_c, 0, 49, 38
1, 420483, Note_on_c, 0, 24, 38
1, 420483, Note_on_c, 0, 26, 38
1, 420867, Note_off_c, 0, 26, 0
1, 420867, Note_off_c, 0, 24, 0
1, 420867, Note_off_c, 0, 49, 0
1, 420867, Note_off_c, 0, 38, 0
1, 420867, Note_off_c, 0, 26, 0
1, 420867, Note_off_c, 0, 61, 0
1, 420867, Note_on_c, 0, 62, 38
1, 420867, Note_on_c, 0, 26, 38
1, 420867, Note_on_c, 0, 38, 38
1, 420867, Note_on_c, 0, 50, 38
1, 420867, Note_on_c, 0, 24, 38
1, 420867, Note_on_c, 0, 26, 38
1, 421251, Note_off_c, 0, 26, 0
1, 421251, Note_off_c, 0, 24, 0
1, 421251, Note_off_c, 0, 50, 0
1, 421251, Note_off_c, 0, 38, 0
1, 421251, Note_off_c, 0, 26, 0
1, 421251, Note_off_c, 0, 62, 0
1, 421251, Note_on_c, 0, 69, 38
1, 421251, Note_on_c, 0, 26, 38
1, 421251, Note_on_c, 0, 38, 38
1, 421251, Note_on_c, 0, 57, 38
1, 421251, Note_on_c, 0, 24, 38
1, 421251, Note_on_c, 0, 26, 38
1, 421635, Note_off_c, 0, 26, 0
1, 421635, Note_off_c, 0, 24, 0
1, 421635, Note_off_c, 0, 57, 0
1, 421635, Note_off_c, 0, 38, 0
1, 421635, Note_off_c, 0, 26, 0
1, 421635, Note_off_c, 0, 69, 0
1, 421635, Note_on_c, 0, 64, 38
1, 421635, Note_on_c, 0, 26, 38
1, 421635, Note_on_c, 0, 38, 38
1, 421635, Note_on_c, 0, 52, 38
1, 421635, Note_on_c, 0, 24, 38
1, 421635, Note_on_c, 0, 26, 38
1, 422019, Note_off_c, 0, 26, 0
1, 422019, Note_off_c, 0, 24, 0
1, 422019, Note_off_c, 0, 52, 0
1, 422019, Note_off_c, 0, 38, 0
1, 422019, Note_off_c, 0, 26, 0
1, 422019, Note_off_c, 0, 64, 0
1, 422019, Note_on_c, 0, 72, 38
1, 422019, Note_on_c, 0, 26, 38
1, 422019, Note_on_c, 0, 38, 38
1, 422019, Note_on_c, 0, 60, 38
1, 422019, Note_on_c, 0, 24, 38
1, 422019, Note_on_c, 0, 26, 38
1, 422403, Note_off_c, 0, 26, 0
1, 422403, Note_off_c, 0, 24, 0
1, 422403, Note_off_c, 0, 60, 0
1, 422403, Note_off_c, 0, 38, 0
1, 422403, Note_off_c, 0, 26, 0
1, 422403, Note_off_c, 0, 72, 0
1, 422403, Note_on_c, 0, 71, 38
1, 422403, Note_on_c, 0, 26, 38
1, 422403, Note_on_c, 0, 38, 38
1, 422403, Note_on_c, 0, 59, 38
1, 422403, Note_on_c, 0, 24, 38
1, 422403, Note_on_c, 0, 26, 38
1, 422787, Note_off_c, 0, 26, 0
1, 422787, Note_off_c, 0, 24, 0
1, 422787, Note_off_c, 0, 59, 0
1, 422787, Note_off_c, 0, 38, 0
1, 422787, Note_off_c, 0, 26, 0
1, 422787, Note_off_c, 0, 71, 0
1, 422787, Note_on_c, 0, 68, 38
1, 422787, Note_on_c, 0, 26, 38
1, 422787, Note_on_c, 0, 38, 38
1, 422787, Note_on_c, 0, 56, 38
1, 422787, Note_on_c, 0, 24, 38
1, 422787, Note_on_c, 0, 26, 38
1, 423171, Note_off_c, 0, 26, 0
1, 423171, Note_off_c, 0, 24, 0
1, 423171, Note_off_c, 0, 56, 0
1, 423171, Note_off_c, 0, 38, 0
1, 423171, Note_off_c, 0, 26, 0
1, 423171, Note_off_c, 0, 68, 0
1, 423171, Note_on_c, 0, 69, 38
1, 423171, Note_on_c, 0, 26, 38
1, 423171, Note_on_c, 0, 38, 38
1, 423171, Note_on_c, 0, 57, 38
1, 423171, Note_on_c, 0, 24, 38
1, 423171, Note_on_c, 0, 26, 38
1, 423555, Note_off_c, 0, 26, 0
1, 423555, Note_off_c, 0, 24, 0
1, 423555, Note_off_c, 0, 57, 0
1, 423555, Note_off_c, 0, 38, 0
1, 423555, Note_off_c, 0, 26, 0
1, 423555, Note_off_c, 0, 69, 0
1, 423555, Note_on_c, 0, 26, 36
1, 423555, Note_on_c, 0, 38, 36
1, 423555, Note_on_c, 0, 24, 36
1, 423555, Note_on_c, 0, 26, 36
1, 423651, Note_off_c, 0, 26, 0
1, 423651, Note_off_c, 0, 24, 0
1, 423651, Note_off_c, 0, 38, 0
1, 423651, Note_off_c, 0, 26, 0
1, 423651, Note_on_c, 0, 26, 36
1, 423651, Note_on_c, 0, 38, 36
1, 423651, Note_on_c, 0, 24, 36
1, 423651, Note_on_c, 0, 26, 36
1, 423747, Note_off_c, 0, 26, 0
1, 423747, Note_off_c, 0, 24, 0
1, 423747, Note_off_c, 0, 38, 0
1, 423747, Note_off_c, 0, 26, 0
1, 423747, Note_on_c, 0, 26, 36
1, 423747, Note_on_c, 0, 38, 36
1, 423747, Note_on_c, 0, 24, 36
1, 423747, Note_on_c, 0, 26, 36
1, 423843, Note_off_c, 0, 26, 0
1, 423843, Note_off_c, 0, 24, 0
1, 423843, Note_off_c, 0, 38, 0
1, 423843, Note_off_c, 0, 26, 0
1, 423843, Note_on_c, 0, 26, 36
1, 423843, Note_on_c, 0, 38, 36
1, 423843, Note_on_c, 0, 24, 36
1, 423843, Note_on_c, 0, 26, 36
1, 423939, Note_off_c, 0, 26, 0
1, 423939, Note_off_c, 0, 24, 0
1, 423939, Note_off_c, 0, 38, 0
1, 423939, Note_off_c, 0, 26, 0
1, 423939, Note_on_c, 0, 62, 38
1, 423939, Note_on_c, 0, 26, 38
1, 423939, Note_on_c, 0, 38, 38
1, 423939, Note_on_c, 0, 50, 38
1, 423939, Note_on_c, 0, 24, 38
1, 423939, Note_on_c, 0, 26, 38
1, 424323, Note_off_c, 0, 26, 0
1, 424323, Note_off_c, 0, 24, 0
1, 424323, Note_off_c, 0, 50, 0
1, 424323, Note_off_c, 0, 38, 0
1, 424323, Note_off_c, 0, 26, 0
1, 424323, Note_off_c, 0, 62, 0
1, 424323, Note_on_c, 0, 69, 38
1, 424323, Note_on_c, 0, 26, 38
1, 424323, Note_on_c, 0, 38, 38
1, 424323, Note_on_c, 0, 57, 38
1, 424323, Note_on_c, 0, 24, 38
1, 424323, Note_on_c, 0, 26, 38
1, 424707, Note_off_c, 0, 26, 0
1, 424707, Note_off_c, 0, 24, 0
1, 424707, Note_off_c, 0, 57, 0
1, 424707, Note_off_c, 0, 38, 0
1, 424707, Note_off_c, 0, 26, 0
1, 424707, Note_off_c, 0, 69, 0
1, 424707, Note_on_c, 0, 68, 38
1, 424707, Note_on_c, 0, 26, 38
1, 424707, Note_on_c, 0, 38, 38
1, 424707, Note_on_c, 0, 56, 38
1, 424707, Note_on_c, 0, 24, 38
1, 424707, Note_on_c, 0, 26, 38
1, 425091, Note_off_c, 0, 26, 0
1, 425091, Note_off_c, 0, 24, 0
1, 425091, Note_off_c, 0, 56, 0
1, 425091, Note_off_c, 0, 38, 0
1, 425091, Note_off_c, 0, 26, 0
1, 425091, Note_off_c, 0, 68, 0
1, 425091, Note_on_c, 0, 64, 38
1, 425091, Note_on_c, 0, 26, 38
1, 425091, Note_on_c, 0, 38, 38
1, 425091, Note_on_c, 0, 52, 38
1, 425091, Note_on_c, 0, 24, 38
1, 425091, Note_on_c, 0, 26, 38
1, 425475, Note_off_c, 0, 26, 0
1, 425475, Note_off_c, 0, 24, 0
1, 425475, Note_off_c, 0, 52, 0
1, 425475, Note_off_c, 0, 38, 0
1, 425475, Note_off_c, 0, 26, 0
1, 425475, Note_off_c, 0, 64, 0
1, 425475, Note_on_c, 0, 67, 38
1, 425475, Note_on_c, 0, 26, 38
1, 425475, Note_on_c, 0, 38, 38
1, 425475, Note_on_c, 0, 55, 38
1, 425475, Note_on_c, 0, 24, 38
1, 425475, Note_on_c, 0, 26, 38
1, 425859, Note_off_c, 0, 26, 0
1, 425859, Note_off_c, 0, 24, 0
1, 425859, Note_off_c, 0, 55, 0
1, 425859, Note_off_c, 0, 38, 0
1, 425859, Note_off_c, 0, 26, 0
1, 425859, Note_off_c, 0, 67, 0
1, 425859, Note_on_c, 0, 65, 38
1, 425859, Note_on_c, 0, 26, 38
1, 425859, Note_on_c, 0, 38, 38
1, 425859, Note_on_c, 0, 53, 38
1, 425859, Note_on_c, 0, 24, 38
1, 425859, Note_on_c, 0, 26, 38
1, 426243, Note_off_c, 0, 26, 0
1, 426243, Note_off_c, 0, 24, 0
1, 426243, Note_off_c, 0, 53, 0
1, 426243, Note_off_c, 0, 38, 0
1, 426243, Note_off_c, 0, 26, 0
1, 426243, Note_off_c, 0, 65, 0
1, 426243, Note_on_c, 0, 64, 38
1, 426243, Note_on_c, 0, 26, 38
1, 426243, Note_on_c, 0, 38, 38
1, 426243, Note_on_c, 0, 52, 38
1, 426243, Note_on_c, 0, 24, 38
1, 426243, Note_on_c, 0, 26, 38
1, 426627, Note_off_c, 0, 26, 0
1, 426627, Note_off_c, 0, 24, 0
1, 426627, Note_off_c, 0, 52, 0
1, 426627, Note_off_c, 0, 38, 0
1, 426627, Note_off_c, 0, 26, 0
1, 426627, Note_off_c, 0, 64, 0
1, 426627, Note_on_c, 0, 61, 38
1, 426627, Note_on_c, 0, 26, 38
1, 426627, Note_on_c, 0, 38, 38
1, 426627, Note_on_c, 0, 49, 38
1, 426627, Note_on_c, 0, 24, 38
1, 426627, Note_on_c, 0, 26, 38
1, 427011, Note_off_c, 0, 26, 0
1, 427011, Note_off_c, 0, 24, 0
1, 427011, Note_off_c, 0, 49, 0
1, 427011, Note_off_c, 0, 38, 0
1, 427011, Note_off_c, 0, 26, 0
1, 427011, Note_off_c, 0, 61, 0
1, 427011, Note_on_c, 0, 62, 38
1, 427011, Note_on_c, 0, 26, 38
1, 427011, Note_on_c, 0, 38, 38
1, 427011, Note_on_c, 0, 50, 38
1, 427011, Note_on_c, 0, 24, 38
1, 427011, Note_on_c, 0, 26, 38
1, 427395, Note_off_c, 0, 26, 0
1, 427395, Note_off_c, 0, 24, 0
1, 427395, Note_off_c, 0, 50, 0
1, 427395, Note_off_c, 0, 38, 0
1, 427395, Note_off_c, 0, 26, 0
1, 427395, Note_off_c, 0, 62, 0
1, 427395, Note_on_c, 0, 69, 38
1, 427395, Note_on_c, 0, 26, 38
1, 427395, Note_on_c, 0, 38, 38
1, 427395, Note_on_c, 0, 57, 38
1, 427395, Note_on_c, 0, 24, 38
1, 427395, Note_on_c, 0, 26, 38
1, 427779, Note_off_c, 0, 26, 0
1, 427779, Note_off_c, 0, 24, 0
1, 427779, Note_off_c, 0, 57, 0
1, 427779, Note_off_c, 0, 38, 0
1, 427779, Note_off_c, 0, 26, 0
1, 427779, Note_off_c, 0, 69, 0
1, 427779, Note_on_c, 0, 64, 38
1, 427779, Note_on_c, 0, 26, 38
1, 427779, Note_on_c, 0, 38, 38
1, 427779, Note_on_c, 0, 52, 38
1, 427779, Note_on_c, 0, 24, 38
1, 427779, Note_on_c, 0, 26, 38
1, 428163, Note_off_c, 0, 26, 0
1, 428163, Note_off_c, 0, 24, 0
1, 428163, Note_off_c, 0, 52, 0
1, 428163, Note_off_c, 0, 38, 0
1, 428163, Note_off_c, 0, 26, 0
1, 428163, Note_off_c, 0, 64, 0
1, 428163, Note_on_c, 0, 72, 38
1, 428163, Note_on_c, 0, 26, 38
1, 428163, Note_on_c, 0, 38, 38
1, 428163, Note_on_c, 0, 60, 38
1, 428163, Note_on_c, 0, 24, 38
1, 428163, Note_on_c, 0, 26, 38
1, 428547, Note_off_c, 0, 26, 0
1, 428547, Note_off_c, 0, 24, 0
1, 428547, Note_off_c, 0, 60, 0
1, 428547, Note_off_c, 0, 38, 0
1, 428547, Note_off_c, 0, 26, 0
1, 428547, Note_off_c, 0, 72, 0
1, 428547, Note_on_c, 0, 71, 38
1, 428547, Note_on_c, 0, 26, 38
1, 428547, Note_on_c, 0, 38, 38
1, 428547, Note_on_c, 0, 59, 38
1, 428547, Note_on_c, 0, 24, 38
1, 428547, Note_on_c, 0, 26, 38
1, 428931, Note_off_c, 0, 26, 0
1, 428931, Note_off_c, 0, 24, 0
1, 428931, Note_off_c, 0, 59, 0
1, 428931, Note_off_c, 0, 38, 0
1, 428931, Note_off_c, 0, 26, 0
1, 428931, Note_off_c, 0, 71, 0
1, 428931, Note_on_c, 0, 68, 38
1, 428931, Note_on_c, 0, 26, 38
1, 428931, Note_on_c, 0, 38, 38
1, 428931, Note_on_c, 0, 56, 38
1, 428931, Note_on_c, 0, 24, 38
1, 428931, Note_on_c, 0, 26, 38
1, 429315, Note_off_c, 0, 26, 0
1, 429315, Note_off_c, 0, 24, 0
1, 429315, Note_off_c, 0, 56, 0
1, 429315, Note_off_c, 0, 38, 0
1, 429315, Note_off_c, 0, 26, 0
1, 429315, Note_off_c, 0, 68, 0
1, 429315, Note_on_c, 0, 69, 38
1, 429315, Note_on_c, 0, 26, 38
1, 429315, Note_on_c, 0, 38, 38
1, 429315, Note_on_c, 0, 57, 38
1, 429315, Note_on_c, 0, 24, 38
1, 429315, Note_on_c, 0, 26, 38
1, 429699, Note_off_c, 0, 26, 0
1, 429699, Note_off_c, 0, 24, 0
1, 429699, Note_off_c, 0, 57, 0
1, 429699, Note_off_c, 0, 38, 0
1, 429699, Note_off_c, 0, 26, 0
1, 429699, Note_off_c, 0, 69, 0
1, 429699, Note_on_c, 0, 26, 36
1, 429699, Note_on_c, 0, 38, 36
1, 429699, Note_on_c, 0, 24, 36
1, 429699, Note_on_c, 0, 26, 36
1, 429795, Note_off_c, 0, 26, 0
1, 429795, Note_off_c, 0, 24, 0
1, 429795, Note_off_c, 0, 38, 0
1, 429795, Note_off_c, 0, 26, 0
1, 429795, Note_on_c, 0, 26, 36
1, 429795, Note_on_c, 0, 38, 36
1, 429795, Note_on_c, 0, 24, 36
1, 429795, Note_on_c, 0, 26, 36
1, 429891, Note_off_c, 0, 26, 0
1, 429891, Note_off_c, 0, 24, 0
1, 429891, Note_off_c, 0, 38, 0
1, 429891, Note_off_c, 0, 26, 0
1, 429891, Note_on_c, 0, 26, 36
1, 429891, Note_on_c, 0, 38, 36
1, 429891, Note_on_c, 0, 24, 36
1, 429891, Note_on_c, 0, 26, 36
1, 429987, Note_off_c, 0, 26, 0
1, 429987, Note_off_c, 0, 24, 0
1, 429987, Note_off_c, 0, 38, 0
1, 429987, Note_off_c, 0, 26, 0
1, 429987, Note_on_c, 0, 26, 36
1, 429987, Note_on_c, 0, 38, 36
1, 429987, Note_on_c, 0, 24, 36
1, 429987, Note_on_c, 0, 26, 36
1, 430083, Note_off_c, 0, 26, 0
1, 430083, Note_off_c, 0, 24, 0
1, 430083, Note_off_c, 0, 38, 0
1, 430083, Note_off_c, 0, 26, 0
1, 430083, Note_on_c, 0, 62, 38
1, 430083, Note_on_c, 0, 26, 38
1, 430083, Note_on_c, 0, 38, 38
1, 430083, Note_on_c, 0, 50, 38
1, 430083, Note_on_c, 0, 24, 38
1, 430083, Note_on_c, 0, 26, 38
1, 430467, Note_off_c, 0, 26, 0
1, 430467, Note_off_c, 0, 24, 0
1, 430467, Note_off_c, 0, 50, 0
1, 430467, Note_off_c, 0, 38, 0
1, 430467, Note_off_c, 0, 26, 0
1, 430467, Note_off_c, 0, 62, 0
1, 430467, Note_on_c, 0, 69, 38
1, 430467, Note_on_c, 0, 26, 38
1, 430467, Note_on_c, 0, 38, 38
1, 430467, Note_on_c, 0, 57, 38
1, 430467, Note_on_c, 0, 24, 38
1, 430467, Note_on_c, 0, 26, 38
1, 430851, Note_off_c, 0, 26, 0
1, 430851, Note_off_c, 0, 24, 0
1, 430851, Note_off_c, 0, 57, 0
1, 430851, Note_off_c, 0, 38, 0
1, 430851, Note_off_c, 0, 26, 0
1, 430851, Note_off_c, 0, 69, 0
1, 430851, Note_on_c, 0, 68, 38
1, 430851, Note_on_c, 0, 26, 38
1, 430851, Note_on_c, 0, 38, 38
1, 430851, Note_on_c, 0, 56, 38
1, 430851, Note_on_c, 0, 24, 38
1, 430851, Note_on_c, 0, 26, 38
1, 431235, Note_off_c, 0, 26, 0
1, 431235, Note_off_c, 0, 24, 0
1, 431235, Note_off_c, 0, 56, 0
1, 431235, Note_off_c, 0, 38, 0
1, 431235, Note_off_c, 0, 26, 0
1, 431235, Note_off_c, 0, 68, 0
1, 431235, Note_on_c, 0, 64, 38
1, 431235, Note_on_c, 0, 26, 38
1, 431235, Note_on_c, 0, 38, 38
1, 431235, Note_on_c, 0, 52, 38
1, 431235, Note_on_c, 0, 24, 38
1, 431235, Note_on_c, 0, 26, 38
1, 431619, Note_off_c, 0, 26, 0
1, 431619, Note_off_c, 0, 24, 0
1, 431619, Note_off_c, 0, 52, 0
1, 431619, Note_off_c, 0, 38, 0
1, 431619, Note_off_c, 0, 26, 0
1, 431619, Note_off_c, 0, 64, 0
1, 431619, Note_on_c, 0, 67, 38
1, 431619, Note_on_c, 0, 26, 38
1, 431619, Note_on_c, 0, 38, 38
1, 431619, Note_on_c, 0, 55, 38
1, 431619, Note_on_c, 0, 24, 38
1, 431619, Note_on_c, 0, 26, 38
1, 432003, Note_off_c, 0, 26, 0
1, 432003, Note_off_c, 0, 24, 0
1, 432003, Note_off_c, 0, 55, 0
1, 432003, Note_off_c, 0, 38, 0
1, 432003, Note_off_c, 0, 26, 0
1, 432003, Note_off_c, 0, 67, 0
1, 432003, Note_on_c, 0, 65, 38
1, 432003, Note_on_c, 0, 26, 38
1, 432003, Note_on_c, 0, 38, 38
1, 432003, Note_on_c, 0, 53, 38
1, 432003, Note_on_c, 0, 24, 38
1, 432003, Note_on_c, 0, 26, 38
1, 432387, Note_off_c, 0, 26, 0
1, 432387, Note_off_c, 0, 24, 0
1, 432387, Note_off_c, 0, 53, 0
1, 432387, Note_off_c, 0, 38, 0
1, 432387, Note_off_c, 0, 26, 0
1, 432387, Note_off_c, 0, 65, 0
1, 432387, Note_on_c, 0, 64, 38
1, 432387, Note_on_c, 0, 26, 38
1, 432387, Note_on_c, 0, 38, 38
1, 432387, Note_on_c, 0, 52, 38
1, 432387, Note_on_c, 0, 24, 38
1, 432387, Note_on_c, 0, 26, 38
1, 432771, Note_off_c, 0, 26, 0
1, 432771, Note_off_c, 0, 24, 0
1, 432771, Note_off_c, 0, 52, 0
1, 432771, Note_off_c, 0, 38, 0
1, 432771, Note_off_c, 0, 26, 0
1, 432771, Note_off_c, 0, 64, 0
1, 432771, Note_on_c, 0, 61, 38
1, 432771, Note_on_c, 0, 26, 38
1, 432771, Note_on_c, 0, 38, 38
1, 432771, Note_on_c, 0, 49, 38
1, 432771, Note_on_c, 0, 24, 38
1, 432771, Note_on_c, 0, 26, 38
1, 433155, Note_off_c, 0, 26, 0
1, 433155, Note_off_c, 0, 24, 0
1, 433155, Note_off_c, 0, 49, 0
1, 433155, Note_off_c, 0, 38, 0
1, 433155, Note_off_c, 0, 26, 0
1, 433155, Note_off_c, 0, 61, 0
1, 433155, Note_on_c, 0, 62, 38
1, 433155, Note_on_c, 0, 26, 38
1, 433155, Note_on_c, 0, 38, 38
1, 433155, Note_on_c, 0, 50, 38
1, 433155, Note_on_c, 0, 24, 38
1, 433155, Note_on_c, 0, 26, 38
1, 433539, Note_off_c, 0, 26, 0
1, 433539, Note_off_c, 0, 24, 0
1, 433539, Note_off_c, 0, 50, 0
1, 433539, Note_off_c, 0, 38, 0
1, 433539, Note_off_c, 0, 26, 0
1, 433539, Note_off_c, 0, 62, 0
1, 433539, Note_on_c, 0, 69, 38
1, 433539, Note_on_c, 0, 26, 38
1, 433539, Note_on_c, 0, 38, 38
1, 433539, Note_on_c, 0, 57, 38
1, 433539, Note_on_c, 0, 24, 38
1, 433539, Note_on_c, 0, 26, 38
1, 433923, Note_off_c, 0, 26, 0
1, 433923, Note_off_c, 0, 24, 0
1, 433923, Note_off_c, 0, 57, 0
1, 433923, Note_off_c, 0, 38, 0
1, 433923, Note_off_c, 0, 26, 0
1, 433923, Note_off_c, 0, 69, 0
1, 433923, Note_on_c, 0, 64, 38
1, 433923, Note_on_c, 0, 26, 38
1, 433923, Note_on_c, 0, 38, 38
1, 433923, Note_on_c, 0, 52, 38
1, 433923, Note_on_c, 0, 24, 38
1, 433923, Note_on_c, 0, 26, 38
1, 434307, Note_off_c, 0, 26, 0
1, 434307, Note_off_c, 0, 24, 0
1, 434307, Note_off_c, 0, 52, 0
1, 434307, Note_off_c, 0, 38, 0
1, 434307, Note_off_c, 0, 26, 0
1, 434307, Note_off_c, 0, 64, 0
1, 434307, Note_on_c, 0, 72, 38
1, 434307, Note_on_c, 0, 26, 38
1, 434307, Note_on_c, 0, 38, 38
1, 434307, Note_on_c, 0, 60, 38
1, 434307, Note_on_c, 0, 24, 38
1, 434307, Note_on_c, 0, 26, 38
1, 434691, Note_off_c, 0, 26, 0
1, 434691, Note_off_c, 0, 24, 0
1, 434691, Note_off_c, 0, 60, 0
1, 434691, Note_off_c, 0, 38, 0
1, 434691, Note_off_c, 0, 26, 0
1, 434691, Note_off_c, 0, 72, 0
1, 434691, Note_on_c, 0, 71, 38
1, 434691, Note_on_c, 0, 26, 38
1, 434691, Note_on_c, 0, 38, 38
1, 434691, Note_on_c, 0, 59, 38
1, 434691, Note_on_c, 0, 24, 38
1, 434691, Note_on_c, 0, 26, 38
1, 435075, Note_off_c, 0, 26, 0
1, 435075, Note_off_c, 0, 24, 0
1, 435075, Note_off_c, 0, 59, 0
1, 435075, Note_off_c, 0, 38, 0
1, 435075, Note_off_c, 0, 26, 0
1, 435075, Note_off_c, 0, 71, 0
1, 435075, Note_on_c, 0, 68, 38
1, 435075, Note_on_c, 0, 26, 38
1, 435075, Note_on_c, 0, 38, 38
1, 435075, Note_on_c, 0, 56, 38
1, 435075, Note_on_c, 0, 24, 38
1, 435075, Note_on_c, 0, 26, 38
1, 435459, Note_off_c, 0, 26, 0
1, 435459, Note_off_c, 0, 24, 0
1, 435459, Note_off_c, 0, 56, 0
1, 435459, Note_off_c, 0, 38, 0
1, 435459, Note_off_c, 0, 26, 0
1, 435459, Note_off_c, 0, 68, 0
1, 435459, Note_on_c, 0, 69, 38
1, 435459, Note_on_c, 0, 26, 38
1, 435459, Note_on_c, 0, 38, 38
1, 435459, Note_on_c, 0, 57, 38
1, 435459, Note_on_c, 0, 24, 38
1, 435459, Note_on_c, 0, 26, 38
1, 435843, Note_off_c, 0, 26, 0
1, 435843, Note_off_c, 0, 24, 0
1, 435843, Note_off_c, 0, 57, 0
1, 435843, Note_off_c, 0, 38, 0
1, 435843, Note_off_c, 0, 26, 0
1, 435843, Note_off_c, 0, 69, 0
1, 435843, Note_on_c, 0, 26, 36
1, 435843, Note_on_c, 0, 38, 36
1, 435843, Note_on_c, 0, 24, 36
1, 435843, Note_on_c, 0, 26, 36
1, 435939, Note_off_c, 0, 26, 0
1, 435939, Note_off_c, 0, 24, 0
1, 435939, Note_off_c, 0, 38, 0
1, 435939, Note_off_c, 0, 26, 0
1, 435939, Note_on_c, 0, 26, 36
1, 435939, Note_on_c, 0, 38, 36
1, 435939, Note_on_c, 0, 24, 36
1, 435939, Note_on_c, 0, 26, 36
1, 436035, Note_off_c, 0, 26, 0
1, 436035, Note_off_c, 0, 24, 0
1, 436035, Note_off_c, 0, 38, 0
1, 436035, Note_off_c, 0, 26, 0
1, 436035, Note_on_c, 0, 26, 36
1, 436035, Note_on_c, 0, 38, 36
1, 436035, Note_on_c, 0, 24, 36
1, 436035, Note_on_c, 0, 26, 36
1, 436131, Note_off_c, 0, 26, 0
1, 436131, Note_off_c, 0, 24, 0
1, 436131, Note_off_c, 0, 38, 0
1, 436131, Note_off_c, 0, 26, 0
1, 436131, Note_on_c, 0, 26, 36
1, 436131, Note_on_c, 0, 38, 36
1, 436131, Note_on_c, 0, 24, 36
1, 436131, Note_on_c, 0, 26, 36
1, 436227, Note_off_c, 0, 26, 0
1, 436227, Note_off_c, 0, 24, 0
1, 436227, Note_off_c, 0, 38, 0
1, 436227, Note_off_c, 0, 26, 0
1, 436227, Note_on_c, 0, 62, 38
1, 436227, Note_on_c, 0, 65, 38
1, 436227, Note_on_c, 0, 74, 38
1, 436227, Note_on_c, 0, 26, 38
1, 436227, Note_on_c, 0, 38, 38
1, 436227, Note_on_c, 0, 50, 38
1, 436227, Note_on_c, 0, 53, 38
1, 436227, Note_on_c, 0, 62, 38
1, 436227, Note_on_c, 0, 24, 38
1, 436227, Note_on_c, 0, 26, 38
1, 436611, Note_off_c, 0, 26, 0
1, 436611, Note_off_c, 0, 24, 0
1, 436611, Note_off_c, 0, 62, 0
1, 436611, Note_off_c, 0, 53, 0
1, 436611, Note_off_c, 0, 50, 0
1, 436611, Note_off_c, 0, 38, 0
1, 436611, Note_off_c, 0, 26, 0
1, 436611, Note_off_c, 0, 74, 0
1, 436611, Note_off_c, 0, 65, 0
1, 436611, Note_off_c, 0, 62, 0
1, 436611, Note_on_c, 0, 69, 38
1, 436611, Note_on_c, 0, 72, 38
1, 436611, Note_on_c, 0, 81, 38
1, 436611, Note_on_c, 0, 26, 38
1, 436611, Note_on_c, 0, 38, 38
1, 436611, Note_on_c, 0, 57, 38
1, 436611, Note_on_c, 0, 60, 38
1, 436611, Note_on_c, 0, 69, 38
1, 436611, Note_on_c, 0, 24, 38
1, 436611, Note_on_c, 0, 26, 38
1, 436995, Note_off_c, 0, 26, 0
1, 436995, Note_off_c, 0, 24, 0
1, 436995, Note_off_c, 0, 69, 0
1, 436995, Note_off_c, 0, 60, 0
1, 436995, Note_off_c, 0, 57, 0
1, 436995, Note_off_c, 0, 38, 0
1, 436995, Note_off_c, 0, 26, 0
1, 436995, Note_off_c, 0, 81, 0
1, 436995, Note_off_c, 0, 72, 0
1, 436995, Note_off_c, 0, 69, 0
1, 436995, Note_on_c, 0, 68, 38
1, 436995, Note_on_c, 0, 71, 38
1, 436995, Note_on_c, 0, 80, 38
1, 436995, Note_on_c, 0, 26, 38
1, 436995, Note_on_c, 0, 38, 38
1, 436995, Note_on_c, 0, 56, 38
1, 436995, Note_on_c, 0, 59, 38
1, 436995, Note_on_c, 0, 68, 38
1, 436995, Note_on_c, 0, 24, 38
1, 436995, Note_on_c, 0, 26, 38
1, 437379, Note_off_c, 0, 26, 0
1, 437379, Note_off_c, 0, 24, 0
1, 437379, Note_off_c, 0, 68, 0
1, 437379, Note_off_c, 0, 59, 0
1, 437379, Note_off_c, 0, 56, 0
1, 437379, Note_off_c, 0, 38, 0
1, 437379, Note_off_c, 0, 26, 0
1, 437379, Note_off_c, 0, 80, 0
1, 437379, Note_off_c, 0, 71, 0
1, 437379, Note_off_c, 0, 68, 0
1, 437379, Note_on_c, 0, 64, 38
1, 437379, Note_on_c, 0, 68, 38
1, 437379, Note_on_c, 0, 76, 38
1, 437379, Note_on_c, 0, 26, 38
1, 437379, Note_on_c, 0, 38, 38
1, 437379, Note_on_c, 0, 52, 38
1, 437379, Note_on_c, 0, 56, 38
1, 437379, Note_on_c, 0, 64, 38
1, 437379, Note_on_c, 0, 24, 38
1, 437379, Note_on_c, 0, 26, 38
1, 437763, Note_off_c, 0, 26, 0
1, 437763, Note_off_c, 0, 24, 0
1, 437763, Note_off_c, 0, 64, 0
1, 437763, Note_off_c, 0, 56, 0
1, 437763, Note_off_c, 0, 52, 0
1, 437763, Note_off_c, 0, 38, 0
1, 437763, Note_off_c, 0, 26, 0
1, 437763, Note_off_c, 0, 76, 0
1, 437763, Note_off_c, 0, 68, 0
1, 437763, Note_off_c, 0, 64, 0
1, 437763, Note_on_c, 0, 67, 38
1, 437763, Note_on_c, 0, 70, 38
1, 437763, Note_on_c, 0, 79, 38
1, 437763, Note_on_c, 0, 26, 38
1, 437763, Note_on_c, 0, 38, 38
1, 437763, Note_on_c, 0, 55, 38
1, 437763, Note_on_c, 0, 58, 38
1, 437763, Note_on_c, 0, 67, 38
1, 437763, Note_on_c, 0, 24, 38
1, 437763, Note_on_c, 0, 26, 38
1, 438147, Note_off_c, 0, 26, 0
1, 438147, Note_off_c, 0, 24, 0
1, 438147, Note_off_c, 0, 67, 0
1, 438147, Note_off_c, 0, 58, 0
1, 438147, Note_off_c, 0, 55, 0
1, 438147, Note_off_c, 0, 38, 0
1, 438147, Note_off_c, 0, 26, 0
1, 438147, Note_off_c, 0, 79, 0
1, 438147, Note_off_c, 0, 70, 0
1, 438147, Note_off_c, 0, 67, 0
1, 438147, Note_on_c, 0, 65, 38
1, 438147, Note_on_c, 0, 69, 38
1, 438147, Note_on_c, 0, 77, 38
1, 438147, Note_on_c, 0, 26, 38
1, 438147, Note_on_c, 0, 38, 38
1, 438147, Note_on_c, 0, 53, 38
1, 438147, Note_on_c, 0, 57, 38
1, 438147, Note_on_c, 0, 65, 38
1, 438147, Note_on_c, 0, 24, 38
1, 438147, Note_on_c, 0, 26, 38
1, 438531, Note_off_c, 0, 26, 0
1, 438531, Note_off_c, 0, 24, 0
1, 438531, Note_off_c, 0, 65, 0
1, 438531, Note_off_c, 0, 57, 0
1, 438531, Note_off_c, 0, 53, 0
1, 438531, Note_off_c, 0, 38, 0
1, 438531, Note_off_c, 0, 26, 0
1, 438531, Note_off_c, 0, 77, 0
1, 438531, Note_off_c, 0, 69, 0
1, 438531, Note_off_c, 0, 65, 0
1, 438531, Note_on_c, 0, 64, 38
1, 438531, Note_on_c, 0, 67, 38
1, 438531, Note_on_c, 0, 76, 38
1, 438531, Note_on_c, 0, 26, 38
1, 438531, Note_on_c, 0, 38, 38
1, 438531, Note_on_c, 0, 52, 38
1, 438531, Note_on_c, 0, 55, 38
1, 438531, Note_on_c, 0, 64, 38
1, 438531, Note_on_c, 0, 24, 38
1, 438531, Note_on_c, 0, 26, 38
1, 438915, Note_off_c, 0, 26, 0
1, 438915, Note_off_c, 0, 24, 0
1, 438915, Note_off_c, 0, 64, 0
1, 438915, Note_off_c, 0, 55, 0
1, 438915, Note_off_c, 0, 52, 0
1, 438915, Note_off_c, 0, 38, 0
1, 438915, Note_off_c, 0, 26, 0
1, 438915, Note_off_c, 0, 76, 0
1, 438915, Note_off_c, 0, 67, 0
1, 438915, Note_off_c, 0, 64, 0
1, 438915, Note_on_c, 0, 61, 38
1, 438915, Note_on_c, 0, 64, 38
1, 438915, Note_on_c, 0, 73, 38
1, 438915, Note_on_c, 0, 26, 38
1, 438915, Note_on_c, 0, 38, 38
1, 438915, Note_on_c, 0, 49, 38
1, 438915, Note_on_c, 0, 52, 38
1, 438915, Note_on_c, 0, 61, 38
1, 438915, Note_on_c, 0, 24, 38
1, 438915, Note_on_c, 0, 26, 38
1, 439299, Note_off_c, 0, 26, 0
1, 439299, Note_off_c, 0, 24, 0
1, 439299, Note_off_c, 0, 61, 0
1, 439299, Note_off_c, 0, 52, 0
1, 439299, Note_off_c, 0, 49, 0
1, 439299, Note_off_c, 0, 38, 0
1, 439299, Note_off_c, 0, 26, 0
1, 439299, Note_off_c, 0, 73, 0
1, 439299, Note_off_c, 0, 64, 0
1, 439299, Note_off_c, 0, 61, 0
1, 439299, Note_on_c, 0, 62, 38
1, 439299, Note_on_c, 0, 65, 38
1, 439299, Note_on_c, 0, 74, 38
1, 439299, Note_on_c, 0, 26, 38
1, 439299, Note_on_c, 0, 38, 38
1, 439299, Note_on_c, 0, 50, 38
1, 439299, Note_on_c, 0, 53, 38
1, 439299, Note_on_c, 0, 62, 38
1, 439299, Note_on_c, 0, 24, 38
1, 439299, Note_on_c, 0, 26, 38
1, 439683, Note_off_c, 0, 26, 0
1, 439683, Note_off_c, 0, 24, 0
1, 439683, Note_off_c, 0, 62, 0
1, 439683, Note_off_c, 0, 53, 0
1, 439683, Note_off_c, 0, 50, 0
1, 439683, Note_off_c, 0, 38, 0
1, 439683, Note_off_c, 0, 26, 0
1, 439683, Note_off_c, 0, 74, 0
1, 439683, Note_off_c, 0, 65, 0
1, 439683, Note_off_c, 0, 62, 0
1, 439683, Note_on_c, 0, 69, 38
1, 439683, Note_on_c, 0, 72, 38
1, 439683, Note_on_c, 0, 81, 38
1, 439683, Note_on_c, 0, 26, 38
1, 439683, Note_on_c, 0, 38, 38
1, 439683, Note_on_c, 0, 57, 38
1, 439683, Note_on_c, 0, 60, 38
1, 439683, Note_on_c, 0, 69, 38
1, 439683, Note_on_c, 0, 24, 38
1, 439683, Note_on_c, 0, 26, 38
1, 440067, Note_off_c, 0, 26, 0
1, 440067, Note_off_c, 0, 24, 0
1, 440067, Note_off_c, 0, 69, 0
1, 440067, Note_off_c, 0, 60, 0
1, 440067, Note_off_c, 0, 57, 0
1, 440067, Note_off_c, 0, 38, 0
1, 440067, Note_off_c, 0, 26, 0
1, 440067, Note_off_c, 0, 81, 0
1, 440067, Note_off_c, 0, 72, 0
1, 440067, Note_off_c, 0, 69, 0
1, 440067, Note_on_c, 0, 64, 38
1, 440067, Note_on_c, 0, 68, 38
1, 440067, Note_on_c, 0, 76, 38
1, 440067, Note_on_c, 0, 26, 38
1, 440067, Note_on_c, 0, 38, 38
1, 440067, Note_on_c, 0, 52, 38
1, 440067, Note_on_c, 0, 56, 38
1, 440067, Note_on_c, 0, 64, 38
1, 440067, Note_on_c, 0, 24, 38
1, 440067, Note_on_c, 0, 26, 38
1, 440451, Note_off_c, 0, 26, 0
1, 440451, Note_off_c, 0, 24, 0
1, 440451, Note_off_c, 0, 64, 0
1, 440451, Note_off_c, 0, 56, 0
1, 440451, Note_off_c, 0, 52, 0
1, 440451, Note_off_c, 0, 38, 0
1, 440451, Note_off_c, 0, 26, 0
1, 440451, Note_off_c, 0, 76, 0
1, 440451, Note_off_c, 0, 68, 0
1, 440451, Note_off_c, 0, 64, 0
1, 440451, Note_on_c, 0, 72, 38
1, 440451, Note_on_c, 0, 75, 38
1, 440451, Note_on_c, 0, 84, 38
1, 440451, Note_on_c, 0, 26, 38
1, 440451, Note_on_c, 0, 38, 38
1, 440451, Note_on_c, 0, 60, 38
1, 440451, Note_on_c, 0, 63, 38
1, 440451, Note_on_c, 0, 72, 38
1, 440451, Note_on_c, 0, 24, 38
1, 440451, Note_on_c, 0, 26, 38
1, 440835, Note_off_c, 0, 26, 0
1, 440835, Note_off_c, 0, 24, 0
1, 440835, Note_off_c, 0, 72, 0
1, 440835, Note_off_c, 0, 63, 0
1, 440835, Note_off_c, 0, 60, 0
1, 440835, Note_off_c, 0, 38, 0
1, 440835, Note_off_c, 0, 26, 0
1, 440835, Note_off_c, 0, 84, 0
1, 440835, Note_off_c, 0, 75, 0
1, 440835, Note_off_c, 0, 72, 0
1, 440835, Note_on_c, 0, 71, 38
1, 440835, Note_on_c, 0, 74, 38
1, 440835, Note_on_c, 0, 83, 38
1, 440835, Note_on_c, 0, 26, 38
1, 440835, Note_on_c, 0, 38, 38
1, 440835, Note_on_c, 0, 59, 38
1, 440835, Note_on_c, 0, 62, 38
1, 440835, Note_on_c, 0, 71, 38
1, 440835, Note_on_c, 0, 24, 38
1, 440835, Note_on_c, 0, 26, 38
1, 441219, Note_off_c, 0, 26, 0
1, 441219, Note_off_c, 0, 24, 0
1, 441219, Note_off_c, 0, 71, 0
1, 441219, Note_off_c, 0, 62, 0
1, 441219, Note_off_c, 0, 59, 0
1, 441219, Note_off_c, 0, 38, 0
1, 441219, Note_off_c, 0, 26, 0
1, 441219, Note_off_c, 0, 83, 0
1, 441219, Note_off_c, 0, 74, 0
1, 441219, Note_off_c, 0, 71, 0
1, 441219, Note_on_c, 0, 68, 38
1, 441219, Note_on_c, 0, 71, 38
1, 441219, Note_on_c, 0, 80, 38
1, 441219, Note_on_c, 0, 26, 38
1, 441219, Note_on_c, 0, 38, 38
1, 441219, Note_on_c, 0, 56, 38
1, 441219, Note_on_c, 0, 59, 38
1, 441219, Note_on_c, 0, 68, 38
1, 441219, Note_on_c, 0, 24, 38
1, 441219, Note_on_c, 0, 26, 38
1, 441603, Note_off_c, 0, 26, 0
1, 441603, Note_off_c, 0, 24, 0
1, 441603, Note_off_c, 0, 68, 0
1, 441603, Note_off_c, 0, 59, 0
1, 441603, Note_off_c, 0, 56, 0
1, 441603, Note_off_c, 0, 38, 0
1, 441603, Note_off_c, 0, 26, 0
1, 441603, Note_off_c, 0, 80, 0
1, 441603, Note_off_c, 0, 71, 0
1, 441603, Note_off_c, 0, 68, 0
1, 441603, Note_on_c, 0, 69, 38
1, 441603, Note_on_c, 0, 72, 38
1, 441603, Note_on_c, 0, 81, 38
1, 441603, Note_on_c, 0, 26, 38
1, 441603, Note_on_c, 0, 38, 38
1, 441603, Note_on_c, 0, 57, 38
1, 441603, Note_on_c, 0, 60, 38
1, 441603, Note_on_c, 0, 69, 38
1, 441603, Note_on_c, 0, 24, 38
1, 441603, Note_on_c, 0, 26, 38
1, 441987, Note_off_c, 0, 26, 0
1, 441987, Note_off_c, 0, 24, 0
1, 441987, Note_off_c, 0, 69, 0
1, 441987, Note_off_c, 0, 60, 0
1, 441987, Note_off_c, 0, 57, 0
1, 441987, Note_off_c, 0, 38, 0
1, 441987, Note_off_c, 0, 26, 0
1, 441987, Note_off_c, 0, 81, 0
1, 441987, Note_off_c, 0, 72, 0
1, 441987, Note_off_c, 0, 69, 0
1, 441987, Note_on_c, 0, 26, 36
1, 441987, Note_on_c, 0, 38, 36
1, 441987, Note_on_c, 0, 24, 36
1, 441987, Note_on_c, 0, 26, 36
1, 442083, Note_off_c, 0, 26, 0
1, 442083, Note_off_c, 0, 24, 0
1, 442083, Note_off_c, 0, 38, 0
1, 442083, Note_off_c, 0, 26, 0
1, 442083, Note_on_c, 0, 26, 36
1, 442083, Note_on_c, 0, 38, 36
1, 442083, Note_on_c, 0, 24, 36
1, 442083, Note_on_c, 0, 26, 36
1, 442179, Note_off_c, 0, 26, 0
1, 442179, Note_off_c, 0, 24, 0
1, 442179, Note_off_c, 0, 38, 0
1, 442179, Note_off_c, 0, 26, 0
1, 442179, Note_on_c, 0, 26, 36
1, 442179, Note_on_c, 0, 38, 36
1, 442179, Note_on_c, 0, 24, 36
1, 442179, Note_on_c, 0, 26, 36
1, 442275, Note_off_c, 0, 26, 0
1, 442275, Note_off_c, 0, 24, 0
1, 442275, Note_off_c, 0, 38, 0
1, 442275, Note_off_c, 0, 26, 0
1, 442275, Note_on_c, 0, 26, 36
1, 442275, Note_on_c, 0, 38, 36
1, 442275, Note_on_c, 0, 24, 36
1, 442275, Note_on_c, 0, 26, 36
1, 442371, Note_off_c, 0, 26, 0
1, 442371, Note_off_c, 0, 24, 0
1, 442371, Note_off_c, 0, 38, 0
1, 442371, Note_off_c, 0, 26, 0
1, 442371, Note_on_c, 0, 62, 38
1, 442371, Note_on_c, 0, 65, 38
1, 442371, Note_on_c, 0, 74, 38
1, 442371, Note_on_c, 0, 26, 38
1, 442371, Note_on_c, 0, 38, 38
1, 442371, Note_on_c, 0, 50, 38
1, 442371, Note_on_c, 0, 53, 38
1, 442371, Note_on_c, 0, 62, 38
1, 442371, Note_on_c, 0, 24, 38
1, 442371, Note_on_c, 0, 26, 38
1, 442755, Note_off_c, 0, 26, 0
1, 442755, Note_off_c, 0, 24, 0
1, 442755, Note_off_c, 0, 62, 0
1, 442755, Note_off_c, 0, 53, 0
1, 442755, Note_off_c, 0, 50, 0
1, 442755, Note_off_c, 0, 38, 0
1, 442755, Note_off_c, 0, 26, 0
1, 442755, Note_off_c, 0, 74, 0
1, 442755, Note_off_c, 0, 65, 0
1, 442755, Note_off_c, 0, 62, 0
1, 442755, Note_on_c, 0, 69, 38
1, 442755, Note_on_c, 0, 72, 38
1, 442755, Note_on_c, 0, 81, 38
1, 442755, Note_on_c, 0, 26, 38
1, 442755, Note_on_c, 0, 38, 38
1, 442755, Note_on_c, 0, 57, 38
1, 442755, Note_on_c, 0, 60, 38
1, 442755, Note_on_c, 0, 69, 38
1, 442755, Note_on_c, 0, 24, 38
1, 442755, Note_on_c, 0, 26, 38
1, 443139, Note_off_c, 0, 26, 0
1, 443139, Note_off_c, 0, 24, 0
1, 443139, Note_off_c, 0, 69, 0
1, 443139, Note_off_c, 0, 60, 0
1, 443139, Note_off_c, 0, 57, 0
1, 443139, Note_off_c, 0, 38, 0
1, 443139, Note_off_c, 0, 26, 0
1, 443139, Note_off_c, 0, 81, 0
1, 443139, Note_off_c, 0, 72, 0
1, 443139, Note_off_c, 0, 69, 0
1, 443139, Note_on_c, 0, 68, 38
1, 443139, Note_on_c, 0, 71, 38
1, 443139, Note_on_c, 0, 80, 38
1, 443139, Note_on_c, 0, 26, 38
1, 443139, Note_on_c, 0, 38, 38
1, 443139, Note_on_c, 0, 56, 38
1, 443139, Note_on_c, 0, 59, 38
1, 443139, Note_on_c, 0, 68, 38
1, 443139, Note_on_c, 0, 24, 38
1, 443139, Note_on_c, 0, 26, 38
1, 443523, Note_off_c, 0, 26, 0
1, 443523, Note_off_c, 0, 24, 0
1, 443523, Note_off_c, 0, 68, 0
1, 443523, Note_off_c, 0, 59, 0
1, 443523, Note_off_c, 0, 56, 0
1, 443523, Note_off_c, 0, 38, 0
1, 443523, Note_off_c, 0, 26, 0
1, 443523, Note_off_c, 0, 80, 0
1, 443523, Note_off_c, 0, 71, 0
1, 443523, Note_off_c, 0, 68, 0
1, 443523, Note_on_c, 0, 64, 38
1, 443523, Note_on_c, 0, 68, 38
1, 443523, Note_on_c, 0, 76, 38
1, 443523, Note_on_c, 0, 26, 38
1, 443523, Note_on_c, 0, 38, 38
1, 443523, Note_on_c, 0, 52, 38
1, 443523, Note_on_c, 0, 56, 38
1, 443523, Note_on_c, 0, 64, 38
1, 443523, Note_on_c, 0, 24, 38
1, 443523, Note_on_c, 0, 26, 38
1, 443907, Note_off_c, 0, 26, 0
1, 443907, Note_off_c, 0, 24, 0
1, 443907, Note_off_c, 0, 64, 0
1, 443907, Note_off_c, 0, 56, 0
1, 443907, Note_off_c, 0, 52, 0
1, 443907, Note_off_c, 0, 38, 0
1, 443907, Note_off_c, 0, 26, 0
1, 443907, Note_off_c, 0, 76, 0
1, 443907, Note_off_c, 0, 68, 0
1, 443907, Note_off_c, 0, 64, 0
1, 443907, Note_on_c, 0, 67, 38
1, 443907, Note_on_c, 0, 70, 38
1, 443907, Note_on_c, 0, 79, 38
1, 443907, Note_on_c, 0, 26, 38
1, 443907, Note_on_c, 0, 38, 38
1, 443907, Note_on_c, 0, 55, 38
1, 443907, Note_on_c, 0, 58, 38
1, 443907, Note_on_c, 0, 67, 38
1, 443907, Note_on_c, 0, 24, 38
1, 443907, Note_on_c, 0, 26, 38
1, 444291, Note_off_c, 0, 26, 0
1, 444291, Note_off_c, 0, 24, 0
1, 444291, Note_off_c, 0, 67, 0
1, 444291, Note_off_c, 0, 58, 0
1, 444291, Note_off_c, 0, 55, 0
1, 444291, Note_off_c, 0, 38, 0
1, 444291, Note_off_c, 0, 26, 0
1, 444291, Note_off_c, 0, 79, 0
1, 444291, Note_off_c, 0, 70, 0
1, 444291, Note_off_c, 0, 67, 0
1, 444291, Note_on_c, 0, 65, 38
1, 444291, Note_on_c, 0, 69, 38
1, 444291, Note_on_c, 0, 77, 38
1, 444291, Note_on_c, 0, 26, 38
1, 444291, Note_on_c, 0, 38, 38
1, 444291, Note_on_c, 0, 53, 38
1, 444291, Note_on_c, 0, 57, 38
1, 444291, Note_on_c, 0, 65, 38
1, 444291, Note_on_c, 0, 24, 38
1, 444291, Note_on_c, 0, 26, 38
1, 444675, Note_off_c, 0, 26, 0
1, 444675, Note_off_c, 0, 24, 0
1, 444675, Note_off_c, 0, 65, 0
1, 444675, Note_off_c, 0, 57, 0
1, 444675, Note_off_c, 0, 53, 0
1, 444675, Note_off_c, 0, 38, 0
1, 444675, Note_off_c, 0, 26, 0
1, 444675, Note_off_c, 0, 77, 0
1, 444675, Note_off_c, 0, 69, 0
1, 444675, Note_off_c, 0, 65, 0
1, 444675, Note_on_c, 0, 64, 38
1, 444675, Note_on_c, 0, 67, 38
1, 444675, Note_on_c, 0, 76, 38
1, 444675, Note_on_c, 0, 26, 38
1, 444675, Note_on_c, 0, 38, 38
1, 444675, Note_on_c, 0, 52, 38
1, 444675, Note_on_c, 0, 55, 38
1, 444675, Note_on_c, 0, 64, 38
1, 444675, Note_on_c, 0, 24, 38
1, 444675, Note_on_c, 0, 26, 38
1, 445059, Note_off_c, 0, 26, 0
1, 445059, Note_off_c, 0, 24, 0
1, 445059, Note_off_c, 0, 64, 0
1, 445059, Note_off_c, 0, 55, 0
1, 445059, Note_off_c, 0, 52, 0
1, 445059, Note_off_c, 0, 38, 0
1, 445059, Note_off_c, 0, 26, 0
1, 445059, Note_off_c, 0, 76, 0
1, 445059, Note_off_c, 0, 67, 0
1, 445059, Note_off_c, 0, 64, 0
1, 445059, Note_on_c, 0, 61, 38
1, 445059, Note_on_c, 0, 64, 38
1, 445059, Note_on_c, 0, 73, 38
1, 445059, Note_on_c, 0, 26, 38
1, 445059, Note_on_c, 0, 38, 38
1, 445059, Note_on_c, 0, 49, 38
1, 445059, Note_on_c, 0, 52, 38
1, 445059, Note_on_c, 0, 61, 38
1, 445059, Note_on_c, 0, 24, 38
1, 445059, Note_on_c, 0, 26, 38
1, 445443, Note_off_c, 0, 26, 0
1, 445443, Note_off_c, 0, 24, 0
1, 445443, Note_off_c, 0, 61, 0
1, 445443, Note_off_c, 0, 52, 0
1, 445443, Note_off_c, 0, 49, 0
1, 445443, Note_off_c, 0, 38, 0
1, 445443, Note_off_c, 0, 26, 0
1, 445443, Note_off_c, 0, 73, 0
1, 445443, Note_off_c, 0, 64, 0
1, 445443, Note_off_c, 0, 61, 0
1, 445443, Note_on_c, 0, 62, 38
1, 445443, Note_on_c, 0, 65, 38
1, 445443, Note_on_c, 0, 74, 38
1, 445443, Note_on_c, 0, 26, 38
1, 445443, Note_on_c, 0, 38, 38
1, 445443, Note_on_c, 0, 50, 38
1, 445443, Note_on_c, 0, 53, 38
1, 445443, Note_on_c, 0, 62, 38
1, 445443, Note_on_c, 0, 24, 38
1, 445443, Note_on_c, 0, 26, 38
1, 445827, Note_off_c, 0, 26, 0
1, 445827, Note_off_c, 0, 24, 0
1, 445827, Note_off_c, 0, 62, 0
1, 445827, Note_off_c, 0, 53, 0
1, 445827, Note_off_c, 0, 50, 0
1, 445827, Note_off_c, 0, 38, 0
1, 445827, Note_off_c, 0, 26, 0
1, 445827, Note_off_c, 0, 74, 0
1, 445827, Note_off_c, 0, 65, 0
1, 445827, Note_off_c, 0, 62, 0
1, 445827, Note_on_c, 0, 69, 38
1, 445827, Note_on_c, 0, 72, 38
1, 445827, Note_on_c, 0, 81, 38
1, 445827, Note_on_c, 0, 26, 38
1, 445827, Note_on_c, 0, 38, 38
1, 445827, Note_on_c, 0, 57, 38
1, 445827, Note_on_c, 0, 60, 38
1, 445827, Note_on_c, 0, 69, 38
1, 445827, Note_on_c, 0, 24, 38
1, 445827, Note_on_c, 0, 26, 38
1, 446211, Note_off_c, 0, 26, 0
1, 446211, Note_off_c, 0, 24, 0
1, 446211, Note_off_c, 0, 69, 0
1, 446211, Note_off_c, 0, 60, 0
1, 446211, Note_off_c, 0, 57, 0
1, 446211, Note_off_c, 0, 38, 0
1, 446211, Note_off_c, 0, 26, 0
1, 446211, Note_off_c, 0, 81, 0
1, 446211, Note_off_c, 0, 72, 0
1, 446211, Note_off_c, 0, 69, 0
1, 446211, Note_on_c, 0, 64, 38
1, 446211, Note_on_c, 0, 68, 38
1, 446211, Note_on_c, 0, 76, 38
1, 446211, Note_on_c, 0, 26, 38
1, 446211, Note_on_c, 0, 38, 38
1, 446211, Note_on_c, 0, 52, 38
1, 446211, Note_on_c, 0, 56, 38
1, 446211, Note_on_c, 0, 64, 38
1, 446211, Note_on_c, 0, 24, 38
1, 446211, Note_on_c, 0, 26, 38
1, 446595, Note_off_c, 0, 26, 0
1, 446595, Note_off_c, 0, 24, 0
1, 446595, Note_off_c, 0, 64, 0
1, 446595, Note_off_c, 0, 56, 0
1, 446595, Note_off_c, 0, 52, 0
1, 446595, Note_off_c, 0, 38, 0
1, 446595, Note_off_c, 0, 26, 0
1, 446595, Note_off_c, 0, 76, 0
1, 446595, Note_off_c, 0, 68, 0
1, 446595, Note_off_c, 0, 64, 0
1, 446595, Note_on_c, 0, 72, 38
1, 446595, Note_on_c, 0, 75, 38
1, 446595, Note_on_c, 0, 84, 38
1, 446595, Note_on_c, 0, 26, 38
1, 446595, Note_on_c, 0, 38, 38
1, 446595, Note_on_c, 0, 60, 38
1, 446595, Note_on_c, 0, 63, 38
1, 446595, Note_on_c, 0, 72, 38
1, 446595, Note_on_c, 0, 24, 38
1, 446595, Note_on_c, 0, 26, 38
1, 446979, Note_off_c, 0, 26, 0
1, 446979, Note_off_c, 0, 24, 0
1, 446979, Note_off_c, 0, 72, 0
1, 446979, Note_off_c, 0, 63, 0
1, 446979, Note_off_c, 0, 60, 0
1, 446979, Note_off_c, 0, 38, 0
1, 446979, Note_off_c, 0, 26, 0
1, 446979, Note_off_c, 0, 84, 0
1, 446979, Note_off_c, 0, 75, 0
1, 446979, Note_off_c, 0, 72, 0
1, 446979, Note_on_c, 0, 71, 38
1, 446979, Note_on_c, 0, 74, 38
1, 446979, Note_on_c, 0, 83, 38
1, 446979, Note_on_c, 0, 26, 38
1, 446979, Note_on_c, 0, 38, 38
1, 446979, Note_on_c, 0, 59, 38
1, 446979, Note_on_c, 0, 62, 38
1, 446979, Note_on_c, 0, 71, 38
1, 446979, Note_on_c, 0, 24, 38
1, 446979, Note_on_c, 0, 26, 38
1, 447363, Note_off_c, 0, 26, 0
1, 447363, Note_off_c, 0, 24, 0
1, 447363, Note_off_c, 0, 71, 0
1, 447363, Note_off_c, 0, 62, 0
1, 447363, Note_off_c, 0, 59, 0
1, 447363, Note_off_c, 0, 38, 0
1, 447363, Note_off_c, 0, 26, 0
1, 447363, Note_off_c, 0, 83, 0
1, 447363, Note_off_c, 0, 74, 0
1, 447363, Note_off_c, 0, 71, 0
1, 447363, Note_on_c, 0, 68, 38
1, 447363, Note_on_c, 0, 71, 38
1, 447363, Note_on_c, 0, 80, 38
1, 447363, Note_on_c, 0, 26, 38
1, 447363, Note_on_c, 0, 38, 38
1, 447363, Note_on_c, 0, 56, 38
1, 447363, Note_on_c, 0, 59, 38
1, 447363, Note_on_c, 0, 68, 38
1, 447363, Note_on_c, 0, 24, 38
1, 447363, Note_on_c, 0, 26, 38
1, 447747, Note_off_c, 0, 26, 0
1, 447747, Note_off_c, 0, 24, 0
1, 447747, Note_off_c, 0, 68, 0
1, 447747, Note_off_c, 0, 59, 0
1, 447747, Note_off_c, 0, 56, 0
1, 447747, Note_off_c, 0, 38, 0
1, 447747, Note_off_c, 0, 26, 0
1, 447747, Note_off_c, 0, 80, 0
1, 447747, Note_off_c, 0, 71, 0
1, 447747, Note_off_c, 0, 68, 0
1, 447747, Note_on_c, 0, 69, 38
1, 447747, Note_on_c, 0, 72, 38
1, 447747, Note_on_c, 0, 81, 38
1, 447747, Note_on_c, 0, 26, 38
1, 447747, Note_on_c, 0, 38, 38
1, 447747, Note_on_c, 0, 57, 38
1, 447747, Note_on_c, 0, 60, 38
1, 447747, Note_on_c, 0, 69, 38
1, 447747, Note_on_c, 0, 24, 38
1, 447747, Note_on_c, 0, 26, 38
1, 448131, Note_off_c, 0, 26, 0
1, 448131, Note_off_c, 0, 24, 0
1, 448131, Note_off_c, 0, 69, 0
1, 448131, Note_off_c, 0, 60, 0
1, 448131, Note_off_c, 0, 57, 0
1, 448131, Note_off_c, 0, 38, 0
1, 448131, Note_off_c, 0, 26, 0
1, 448131, Note_off_c, 0, 81, 0
1, 448131, Note_off_c, 0, 72, 0
1, 448131, Note_off_c, 0, 69, 0
1, 448131, Note_on_c, 0, 26, 36
1, 448131, Note_on_c, 0, 38, 36
1, 448131, Note_on_c, 0, 24, 36
1, 448131, Note_on_c, 0, 26, 36
1, 448227, Note_off_c, 0, 26, 0
1, 448227, Note_off_c, 0, 24, 0
1, 448227, Note_off_c, 0, 38, 0
1, 448227, Note_off_c, 0, 26, 0
1, 448227, Note_on_c, 0, 26, 36
1, 448227, Note_on_c, 0, 38, 36
1, 448227, Note_on_c, 0, 24, 36
1, 448227, Note_on_c, 0, 26, 36
1, 448323, Note_off_c, 0, 26, 0
1, 448323, Note_off_c, 0, 24, 0
1, 448323, Note_off_c, 0, 38, 0
1, 448323, Note_off_c, 0, 26, 0
1, 448323, Note_on_c, 0, 26, 36
1, 448323, Note_on_c, 0, 38, 36
1, 448323, Note_on_c, 0, 24, 36
1, 448323, Note_on_c, 0, 26, 36
1, 448419, Note_off_c, 0, 26, 0
1, 448419, Note_off_c, 0, 24, 0
1, 448419, Note_off_c, 0, 38, 0
1, 448419, Note_off_c, 0, 26, 0
1, 448419, Note_on_c, 0, 26, 36
1, 448419, Note_on_c, 0, 38, 36
1, 448419, Note_on_c, 0, 24, 36
1, 448419, Note_on_c, 0, 26, 36
1, 448515, Note_off_c, 0, 26, 0
1, 448515, Note_off_c, 0, 24, 0
1, 448515, Note_off_c, 0, 38, 0
1, 448515, Note_off_c, 0, 26, 0
1, 448515, Note_on_c, 0, 62, 38
1, 448515, Note_on_c, 0, 65, 38
1, 448515, Note_on_c, 0, 74, 38
1, 448515, Note_on_c, 0, 26, 38
1, 448515, Note_on_c, 0, 38, 38
1, 448515, Note_on_c, 0, 50, 38
1, 448515, Note_on_c, 0, 53, 38
1, 448515, Note_on_c, 0, 62, 38
1, 448515, Note_on_c, 0, 24, 38
1, 448515, Note_on_c, 0, 26, 38
1, 448899, Note_off_c, 0, 26, 0
1, 448899, Note_off_c, 0, 24, 0
1, 448899, Note_off_c, 0, 62, 0
1, 448899, Note_off_c, 0, 53, 0
1, 448899, Note_off_c, 0, 50, 0
1, 448899, Note_off_c, 0, 38, 0
1, 448899, Note_off_c, 0, 26, 0
1, 448899, Note_off_c, 0, 74, 0
1, 448899, Note_off_c, 0, 65, 0
1, 448899, Note_off_c, 0, 62, 0
1, 448899, Note_on_c, 0, 69, 38
1, 448899, Note_on_c, 0, 72, 38
1, 448899, Note_on_c, 0, 81, 38
1, 448899, Note_on_c, 0, 26, 38
1, 448899, Note_on_c, 0, 38, 38
1, 448899, Note_on_c, 0, 57, 38
1, 448899, Note_on_c, 0, 60, 38
1, 448899, Note_on_c, 0, 69, 38
1, 448899, Note_on_c, 0, 24, 38
1, 448899, Note_on_c, 0, 26, 38
1, 449283, Note_off_c, 0, 26, 0
1, 449283, Note_off_c, 0, 24, 0
1, 449283, Note_off_c, 0, 69, 0
1, 449283, Note_off_c, 0, 60, 0
1, 449283, Note_off_c, 0, 57, 0
1, 449283, Note_off_c, 0, 38, 0
1, 449283, Note_off_c, 0, 26, 0
1, 449283, Note_off_c, 0, 81, 0
1, 449283, Note_off_c, 0, 72, 0
1, 449283, Note_off_c, 0, 69, 0
1, 449283, Note_on_c, 0, 68, 38
1, 449283, Note_on_c, 0, 71, 38
1, 449283, Note_on_c, 0, 80, 38
1, 449283, Note_on_c, 0, 26, 38
1, 449283, Note_on_c, 0, 38, 38
1, 449283, Note_on_c, 0, 56, 38
1, 449283, Note_on_c, 0, 59, 38
1, 449283, Note_on_c, 0, 68, 38
1, 449283, Note_on_c, 0, 24, 38
1, 449283, Note_on_c, 0, 26, 38
1, 449667, Note_off_c, 0, 26, 0
1, 449667, Note_off_c, 0, 24, 0
1, 449667, Note_off_c, 0, 68, 0
1, 449667, Note_off_c, 0, 59, 0
1, 449667, Note_off_c, 0, 56, 0
1, 449667, Note_off_c, 0, 38, 0
1, 449667, Note_off_c, 0, 26, 0
1, 449667, Note_off_c, 0, 80, 0
1, 449667, Note_off_c, 0, 71, 0
1, 449667, Note_off_c, 0, 68, 0
1, 449667, Note_on_c, 0, 64, 38
1, 449667, Note_on_c, 0, 68, 38
1, 449667, Note_on_c, 0, 76, 38
1, 449667, Note_on_c, 0, 26, 38
1, 449667, Note_on_c, 0, 38, 38
1, 449667, Note_on_c, 0, 52, 38
1, 449667, Note_on_c, 0, 56, 38
1, 449667, Note_on_c, 0, 64, 38
1, 449667, Note_on_c, 0, 24, 38
1, 449667, Note_on_c, 0, 26, 38
1, 450051, Note_off_c, 0, 26, 0
1, 450051, Note_off_c, 0, 24, 0
1, 450051, Note_off_c, 0, 64, 0
1, 450051, Note_off_c, 0, 56, 0
1, 450051, Note_off_c, 0, 52, 0
1, 450051, Note_off_c, 0, 38, 0
1, 450051, Note_off_c, 0, 26, 0
1, 450051, Note_off_c, 0, 76, 0
1, 450051, Note_off_c, 0, 68, 0
1, 450051, Note_off_c, 0, 64, 0
1, 450051, Note_on_c, 0, 67, 38
1, 450051, Note_on_c, 0, 70, 38
1, 450051, Note_on_c, 0, 79, 38
1, 450051, Note_on_c, 0, 26, 38
1, 450051, Note_on_c, 0, 38, 38
1, 450051, Note_on_c, 0, 55, 38
1, 450051, Note_on_c, 0, 58, 38
1, 450051, Note_on_c, 0, 67, 38
1, 450051, Note_on_c, 0, 24, 38
1, 450051, Note_on_c, 0, 26, 38
1, 450435, Note_off_c, 0, 26, 0
1, 450435, Note_off_c, 0, 24, 0
1, 450435, Note_off_c, 0, 67, 0
1, 450435, Note_off_c, 0, 58, 0
1, 450435, Note_off_c, 0, 55, 0
1, 450435, Note_off_c, 0, 38, 0
1, 450435, Note_off_c, 0, 26, 0
1, 450435, Note_off_c, 0, 79, 0
1, 450435, Note_off_c, 0, 70, 0
1, 450435, Note_off_c, 0, 67, 0
1, 450435, Note_on_c, 0, 65, 38
1, 450435, Note_on_c, 0, 69, 38
1, 450435, Note_on_c, 0, 77, 38
1, 450435, Note_on_c, 0, 26, 38
1, 450435, Note_on_c, 0, 38, 38
1, 450435, Note_on_c, 0, 53, 38
1, 450435, Note_on_c, 0, 57, 38
1, 450435, Note_on_c, 0, 65, 38
1, 450435, Note_on_c, 0, 24, 38
1, 450435, Note_on_c, 0, 26, 38
1, 450819, Note_off_c, 0, 26, 0
1, 450819, Note_off_c, 0, 24, 0
1, 450819, Note_off_c, 0, 65, 0
1, 450819, Note_off_c, 0, 57, 0
1, 450819, Note_off_c, 0, 53, 0
1, 450819, Note_off_c, 0, 38, 0
1, 450819, Note_off_c, 0, 26, 0
1, 450819, Note_off_c, 0, 77, 0
1, 450819, Note_off_c, 0, 69, 0
1, 450819, Note_off_c, 0, 65, 0
1, 450819, Note_on_c, 0, 64, 38
1, 450819, Note_on_c, 0, 67, 38
1, 450819, Note_on_c, 0, 76, 38
1, 450819, Note_on_c, 0, 26, 38
1, 450819, Note_on_c, 0, 38, 38
1, 450819, Note_on_c, 0, 52, 38
1, 450819, Note_on_c, 0, 55, 38
1, 450819, Note_on_c, 0, 64, 38
1, 450819, Note_on_c, 0, 24, 38
1, 450819, Note_on_c, 0, 26, 38
1, 451203, Note_off_c, 0, 26, 0
1, 451203, Note_off_c, 0, 24, 0
1, 451203, Note_off_c, 0, 64, 0
1, 451203, Note_off_c, 0, 55, 0
1, 451203, Note_off_c, 0, 52, 0
1, 451203, Note_off_c, 0, 38, 0
1, 451203, Note_off_c, 0, 26, 0
1, 451203, Note_off_c, 0, 76, 0
1, 451203, Note_off_c, 0, 67, 0
1, 451203, Note_off_c, 0, 64, 0
1, 451203, Note_on_c, 0, 61, 38
1, 451203, Note_on_c, 0, 64, 38
1, 451203, Note_on_c, 0, 73, 38
1, 451203, Note_on_c, 0, 26, 38
1, 451203, Note_on_c, 0, 38, 38
1, 451203, Note_on_c, 0, 49, 38
1, 451203, Note_on_c, 0, 52, 38
1, 451203, Note_on_c, 0, 61, 38
1, 451203, Note_on_c, 0, 24, 38
1, 451203, Note_on_c, 0, 26, 38
1, 451587, Note_off_c, 0, 26, 0
1, 451587, Note_off_c, 0, 24, 0
1, 451587, Note_off_c, 0, 61, 0
1, 451587, Note_off_c, 0, 52, 0
1, 451587, Note_off_c, 0, 49, 0
1, 451587, Note_off_c, 0, 38, 0
1, 451587, Note_off_c, 0, 26, 0
1, 451587, Note_off_c, 0, 73, 0
1, 451587, Note_off_c, 0, 64, 0
1, 451587, Note_off_c, 0, 61, 0
1, 451587, Note_on_c, 0, 62, 38
1, 451587, Note_on_c, 0, 65, 38
1, 451587, Note_on_c, 0, 74, 38
1, 451587, Note_on_c, 0, 26, 38
1, 451587, Note_on_c, 0, 38, 38
1, 451587, Note_on_c, 0, 50, 38
1, 451587, Note_on_c, 0, 53, 38
1, 451587, Note_on_c, 0, 62, 38
1, 451587, Note_on_c, 0, 24, 38
1, 451587, Note_on_c, 0, 26, 38
1, 451971, Note_off_c, 0, 26, 0
1, 451971, Note_off_c, 0, 24, 0
1, 451971, Note_off_c, 0, 62, 0
1, 451971, Note_off_c, 0, 53, 0
1, 451971, Note_off_c, 0, 50, 0
1, 451971, Note_off_c, 0, 38, 0
1, 451971, Note_off_c, 0, 26, 0
1, 451971, Note_off_c, 0, 74, 0
1, 451971, Note_off_c, 0, 65, 0
1, 451971, Note_off_c, 0, 62, 0
1, 451971, Note_on_c, 0, 69, 38
1, 451971, Note_on_c, 0, 72, 38
1, 451971, Note_on_c, 0, 81, 38
1, 451971, Note_on_c, 0, 26, 38
1, 451971, Note_on_c, 0, 38, 38
1, 451971, Note_on_c, 0, 57, 38
1, 451971, Note_on_c, 0, 60, 38
1, 451971, Note_on_c, 0, 69, 38
1, 451971, Note_on_c, 0, 24, 38
1, 451971, Note_on_c, 0, 26, 38
1, 452355, Note_off_c, 0, 26, 0
1, 452355, Note_off_c, 0, 24, 0
1, 452355, Note_off_c, 0, 69, 0
1, 452355, Note_off_c, 0, 60, 0
1, 452355, Note_off_c, 0, 57, 0
1, 452355, Note_off_c, 0, 38, 0
1, 452355, Note_off_c, 0, 26, 0
1, 452355, Note_off_c, 0, 81, 0
1, 452355, Note_off_c, 0, 72, 0
1, 452355, Note_off_c, 0, 69, 0
1, 452355, Note_on_c, 0, 64, 38
1, 452355, Note_on_c, 0, 68, 38
1, 452355, Note_on_c, 0, 76, 38
1, 452355, Note_on_c, 0, 26, 38
1, 452355, Note_on_c, 0, 38, 38
1, 452355, Note_on_c, 0, 52, 38
1, 452355, Note_on_c, 0, 56, 38
1, 452355, Note_on_c, 0, 64, 38
1, 452355, Note_on_c, 0, 24, 38
1, 452355, Note_on_c, 0, 26, 38
1, 452739, Note_off_c, 0, 26, 0
1, 452739, Note_off_c, 0, 24, 0
1, 452739, Note_off_c, 0, 64, 0
1, 452739, Note_off_c, 0, 56, 0
1, 452739, Note_off_c, 0, 52, 0
1, 452739, Note_off_c, 0, 38, 0
1, 452739, Note_off_c, 0, 26, 0
1, 452739, Note_off_c, 0, 76, 0
1, 452739, Note_off_c, 0, 68, 0
1, 452739, Note_off_c, 0, 64, 0
1, 452739, Note_on_c, 0, 72, 38
1, 452739, Note_on_c, 0, 75, 38
1, 452739, Note_on_c, 0, 84, 38
1, 452739, Note_on_c, 0, 26, 38
1, 452739, Note_on_c, 0, 38, 38
1, 452739, Note_on_c, 0, 60, 38
1, 452739, Note_on_c, 0, 63, 38
1, 452739, Note_on_c, 0, 72, 38
1, 452739, Note_on_c, 0, 24, 38
1, 452739, Note_on_c, 0, 26, 38
1, 453123, Note_off_c, 0, 26, 0
1, 453123, Note_off_c, 0, 24, 0
1, 453123, Note_off_c, 0, 72, 0
1, 453123, Note_off_c, 0, 63, 0
1, 453123, Note_off_c, 0, 60, 0
1, 453123, Note_off_c, 0, 38, 0
1, 453123, Note_off_c, 0, 26, 0
1, 453123, Note_off_c, 0, 84, 0
1, 453123, Note_off_c, 0, 75, 0
1, 453123, Note_off_c, 0, 72, 0
1, 453123, Note_on_c, 0, 71, 38
1, 453123, Note_on_c, 0, 74, 38
1, 453123, Note_on_c, 0, 83, 38
1, 453123, Note_on_c, 0, 26, 38
1, 453123, Note_on_c, 0, 38, 38
1, 453123, Note_on_c, 0, 59, 38
1, 453123, Note_on_c, 0, 62, 38
1, 453123, Note_on_c, 0, 71, 38
1, 453123, Note_on_c, 0, 24, 38
1, 453123, Note_on_c, 0, 26, 38
1, 453507, Note_off_c, 0, 26, 0
1, 453507, Note_off_c, 0, 24, 0
1, 453507, Note_off_c, 0, 71, 0
1, 453507, Note_off_c, 0, 62, 0
1, 453507, Note_off_c, 0, 59, 0
1, 453507, Note_off_c, 0, 38, 0
1, 453507, Note_off_c, 0, 26, 0
1, 453507, Note_off_c, 0, 83, 0
1, 453507, Note_off_c, 0, 74, 0
1, 453507, Note_off_c, 0, 71, 0
1, 453507, Note_on_c, 0, 68, 38
1, 453507, Note_on_c, 0, 71, 38
1, 453507, Note_on_c, 0, 80, 38
1, 453507, Note_on_c, 0, 26, 38
1, 453507, Note_on_c, 0, 38, 38
1, 453507, Note_on_c, 0, 56, 38
1, 453507, Note_on_c, 0, 59, 38
1, 453507, Note_on_c, 0, 68, 38
1, 453507, Note_on_c, 0, 24, 38
1, 453507, Note_on_c, 0, 26, 38
1, 453891, Note_off_c, 0, 26, 0
1, 453891, Note_off_c, 0, 24, 0
1, 453891, Note_off_c, 0, 68, 0
1, 453891, Note_off_c, 0, 59, 0
1, 453891, Note_off_c, 0, 56, 0
1, 453891, Note_off_c, 0, 38, 0
1, 453891, Note_off_c, 0, 26, 0
1, 453891, Note_off_c, 0, 80, 0
1, 453891, Note_off_c, 0, 71, 0
1, 453891, Note_off_c, 0, 68, 0
1, 453891, Note_on_c, 0, 69, 38
1, 453891, Note_on_c, 0, 72, 38
1, 453891, Note_on_c, 0, 81, 38
1, 453891, Note_on_c, 0, 26, 38
1, 453891, Note_on_c, 0, 38, 38
1, 453891, Note_on_c, 0, 57, 38
1, 453891, Note_on_c, 0, 60, 38
1, 453891, Note_on_c, 0, 69, 38
1, 453891, Note_on_c, 0, 24, 38
1, 453891, Note_on_c, 0, 26, 38
1, 454275, Note_off_c, 0, 26, 0
1, 454275, Note_off_c, 0, 24, 0
1, 454275, Note_off_c, 0, 69, 0
1, 454275, Note_off_c, 0, 60, 0
1, 454275, Note_off_c, 0, 57, 0
1, 454275, Note_off_c, 0, 38, 0
1, 454275, Note_off_c, 0, 26, 0
1, 454275, Note_off_c, 0, 81, 0
1, 454275, Note_off_c, 0, 72, 0
1, 454275, Note_off_c, 0, 69, 0
1, 454275, Note_on_c, 0, 26, 36
1, 454275, Note_on_c, 0, 38, 36
1, 454275, Note_on_c, 0, 24, 36
1, 454275, Note_on_c, 0, 26, 36
1, 454371, Note_off_c, 0, 26, 0
1, 454371, Note_off_c, 0, 24, 0
1, 454371, Note_off_c, 0, 38, 0
1, 454371, Note_off_c, 0, 26, 0
1, 454371, Note_on_c, 0, 26, 36
1, 454371, Note_on_c, 0, 38, 36
1, 454371, Note_on_c, 0, 24, 36
1, 454371, Note_on_c, 0, 26, 36
1, 454467, Note_off_c, 0, 26, 0
1, 454467, Note_off_c, 0, 24, 0
1, 454467, Note_off_c, 0, 38, 0
1, 454467, Note_off_c, 0, 26, 0
1, 454467, Note_on_c, 0, 26, 36
1, 454467, Note_on_c, 0, 38, 36
1, 454467, Note_on_c, 0, 24, 36
1, 454467, Note_on_c, 0, 26, 36
1, 454563, Note_off_c, 0, 26, 0
1, 454563, Note_off_c, 0, 24, 0
1, 454563, Note_off_c, 0, 38, 0
1, 454563, Note_off_c, 0, 26, 0
1, 454563, Note_on_c, 0, 26, 36
1, 454563, Note_on_c, 0, 38, 36
1, 454563, Note_on_c, 0, 24, 36
1, 454563, Note_on_c, 0, 26, 36
1, 454659, Note_off_c, 0, 26, 0
1, 454659, Note_off_c, 0, 24, 0
1, 454659, Note_off_c, 0, 38, 0
1, 454659, Note_off_c, 0, 26, 0
1, 454659, Note_on_c, 0, 62, 38
1, 454659, Note_on_c, 0, 65, 38
1, 454659, Note_on_c, 0, 74, 38
1, 454659, Note_on_c, 0, 26, 36
1, 454659, Note_on_c, 0, 38, 36
1, 454659, Note_on_c, 0, 50, 38
1, 454659, Note_on_c, 0, 53, 38
1, 454659, Note_on_c, 0, 62, 38
1, 454659, Note_on_c, 0, 24, 36
1, 454659, Note_on_c, 0, 26, 36
1, 454851, Note_off_c, 0, 26, 0
1, 454851, Note_off_c, 0, 24, 0
1, 454851, Note_off_c, 0, 38, 0
1, 454851, Note_off_c, 0, 26, 0
1, 454851, Note_on_c, 0, 26, 36
1, 454851, Note_on_c, 0, 38, 36
1, 454851, Note_on_c, 0, 24, 36
1, 454851, Note_on_c, 0, 26, 36
1, 455043, Note_off_c, 0, 26, 0
1, 455043, Note_off_c, 0, 24, 0
1, 455043, Note_off_c, 0, 38, 0
1, 455043, Note_off_c, 0, 26, 0
1, 455043, Note_off_c, 0, 62, 0
1, 455043, Note_off_c, 0, 53, 0
1, 455043, Note_off_c, 0, 50, 0
1, 455043, Note_off_c, 0, 74, 0
1, 455043, Note_off_c, 0, 65, 0
1, 455043, Note_off_c, 0, 62, 0
1, 455043, Note_on_c, 0, 69, 38
1, 455043, Note_on_c, 0, 72, 38
1, 455043, Note_on_c, 0, 81, 38
1, 455043, Note_on_c, 0, 26, 36
1, 455043, Note_on_c, 0, 38, 36
1, 455043, Note_on_c, 0, 57, 38
1, 455043, Note_on_c, 0, 60, 38
1, 455043, Note_on_c, 0, 69, 38
1, 455043, Note_on_c, 0, 24, 36
1, 455043, Note_on_c, 0, 26, 36
1, 455235, Note_off_c, 0, 26, 0
1, 455235, Note_off_c, 0, 24, 0
1, 455235, Note_off_c, 0, 38, 0
1, 455235, Note_off_c, 0, 26, 0
1, 455235, Note_on_c, 0, 26, 36
1, 455235, Note_on_c, 0, 38, 36
1, 455235, Note_on_c, 0, 24, 36
1, 455235, Note_on_c, 0, 26, 36
1, 455427, Note_off_c, 0, 26, 0
1, 455427, Note_off_c, 0, 24, 0
1, 455427, Note_off_c, 0, 38, 0
1, 455427, Note_off_c, 0, 26, 0
1, 455427, Note_off_c, 0, 69, 0
1, 455427, Note_off_c, 0, 60, 0
1, 455427, Note_off_c, 0, 57, 0
1, 455427, Note_off_c, 0, 81, 0
1, 455427, Note_off_c, 0, 72, 0
1, 455427, Note_off_c, 0, 69, 0
1, 455427, Note_on_c, 0, 68, 38
1, 455427, Note_on_c, 0, 71, 38
1, 455427, Note_on_c, 0, 80, 38
1, 455427, Note_on_c, 0, 26, 36
1, 455427, Note_on_c, 0, 38, 36
1, 455427, Note_on_c, 0, 56, 38
1, 455427, Note_on_c, 0, 59, 38
1, 455427, Note_on_c, 0, 68, 38
1, 455427, Note_on_c, 0, 24, 36
1, 455427, Note_on_c, 0, 26, 36
1, 455619, Note_off_c, 0, 26, 0
1, 455619, Note_off_c, 0, 24, 0
1, 455619, Note_off_c, 0, 38, 0
1, 455619, Note_off_c, 0, 26, 0
1, 455619, Note_on_c, 0, 26, 36
1, 455619, Note_on_c, 0, 38, 36
1, 455619, Note_on_c, 0, 24, 36
1, 455619, Note_on_c, 0, 26, 36
1, 455811, Note_off_c, 0, 26, 0
1, 455811, Note_off_c, 0, 24, 0
1, 455811, Note_off_c, 0, 38, 0
1, 455811, Note_off_c, 0, 26, 0
1, 455811, Note_off_c, 0, 68, 0
1, 455811, Note_off_c, 0, 59, 0
1, 455811, Note_off_c, 0, 56, 0
1, 455811, Note_off_c, 0, 80, 0
1, 455811, Note_off_c, 0, 71, 0
1, 455811, Note_off_c, 0, 68, 0
1, 455811, Note_on_c, 0, 64, 38
1, 455811, Note_on_c, 0, 68, 38
1, 455811, Note_on_c, 0, 76, 38
1, 455811, Note_on_c, 0, 26, 36
1, 455811, Note_on_c, 0, 38, 36
1, 455811, Note_on_c, 0, 52, 38
1, 455811, Note_on_c, 0, 56, 38
1, 455811, Note_on_c, 0, 64, 38
1, 455811, Note_on_c, 0, 24, 36
1, 455811, Note_on_c, 0, 26, 36
1, 456003, Note_off_c, 0, 26, 0
1, 456003, Note_off_c, 0, 24, 0
1, 456003, Note_off_c, 0, 38, 0
1, 456003, Note_off_c, 0, 26, 0
1, 456003, Note_on_c, 0, 26, 36
1, 456003, Note_on_c, 0, 38, 36
1, 456003, Note_on_c, 0, 24, 36
1, 456003, Note_on_c, 0, 26, 36
1, 456195, Note_off_c, 0, 26, 0
1, 456195, Note_off_c, 0, 24, 0
1, 456195, Note_off_c, 0, 38, 0
1, 456195, Note_off_c, 0, 26, 0
1, 456195, Note_off_c, 0, 64, 0
1, 456195, Note_off_c, 0, 56, 0
1, 456195, Note_off_c, 0, 52, 0
1, 456195, Note_off_c, 0, 76, 0
1, 456195, Note_off_c, 0, 68, 0
1, 456195, Note_off_c, 0, 64, 0
1, 456195, Note_on_c, 0, 67, 38
1, 456195, Note_on_c, 0, 70, 38
1, 456195, Note_on_c, 0, 79, 38
1, 456195, Note_on_c, 0, 26, 36
1, 456195, Note_on_c, 0, 38, 36
1, 456195, Note_on_c, 0, 55, 38
1, 456195, Note_on_c, 0, 58, 38
1, 456195, Note_on_c, 0, 67, 38
1, 456195, Note_on_c, 0, 24, 36
1, 456195, Note_on_c, 0, 26, 36
1, 456387, Note_off_c, 0, 26, 0
1, 456387, Note_off_c, 0, 24, 0
1, 456387, Note_off_c, 0, 38, 0
1, 456387, Note_off_c, 0, 26, 0
1, 456387, Note_on_c, 0, 26, 36
1, 456387, Note_on_c, 0, 38, 36
1, 456387, Note_on_c, 0, 24, 36
1, 456387, Note_on_c, 0, 26, 36
1, 456579, Note_off_c, 0, 26, 0
1, 456579, Note_off_c, 0, 24, 0
1, 456579, Note_off_c, 0, 38, 0
1, 456579, Note_off_c, 0, 26, 0
1, 456579, Note_off_c, 0, 67, 0
1, 456579, Note_off_c, 0, 58, 0
1, 456579, Note_off_c, 0, 55, 0
1, 456579, Note_off_c, 0, 79, 0
1, 456579, Note_off_c, 0, 70, 0
1, 456579, Note_off_c, 0, 67, 0
1, 456579, Note_on_c, 0, 65, 38
1, 456579, Note_on_c, 0, 69, 38
1, 456579, Note_on_c, 0, 77, 38
1, 456579, Note_on_c, 0, 26, 36
1, 456579, Note_on_c, 0, 38, 36
1, 456579, Note_on_c, 0, 53, 38
1, 456579, Note_on_c, 0, 57, 38
1, 456579, Note_on_c, 0, 65, 38
1, 456579, Note_on_c, 0, 24, 36
1, 456579, Note_on_c, 0, 26, 36
1, 456771, Note_off_c, 0, 26, 0
1, 456771, Note_off_c, 0, 24, 0
1, 456771, Note_off_c, 0, 38, 0
1, 456771, Note_off_c, 0, 26, 0
1, 456771, Note_on_c, 0, 26, 36
1, 456771, Note_on_c, 0, 38, 36
1, 456771, Note_on_c, 0, 24, 36
1, 456771, Note_on_c, 0, 26, 36
1, 456963, Note_off_c, 0, 26, 0
1, 456963, Note_off_c, 0, 24, 0
1, 456963, Note_off_c, 0, 38, 0
1, 456963, Note_off_c, 0, 26, 0
1, 456963, Note_off_c, 0, 65, 0
1, 456963, Note_off_c, 0, 57, 0
1, 456963, Note_off_c, 0, 53, 0
1, 456963, Note_off_c, 0, 77, 0
1, 456963, Note_off_c, 0, 69, 0
1, 456963, Note_off_c, 0, 65, 0
1, 456963, Note_on_c, 0, 64, 38
1, 456963, Note_on_c, 0, 67, 38
1, 456963, Note_on_c, 0, 76, 38
1, 456963, Note_on_c, 0, 26, 36
1, 456963, Note_on_c, 0, 38, 36
1, 456963, Note_on_c, 0, 52, 38
1, 456963, Note_on_c, 0, 55, 38
1, 456963, Note_on_c, 0, 64, 38
1, 456963, Note_on_c, 0, 24, 36
1, 456963, Note_on_c, 0, 26, 36
1, 457155, Note_off_c, 0, 26, 0
1, 457155, Note_off_c, 0, 24, 0
1, 457155, Note_off_c, 0, 38, 0
1, 457155, Note_off_c, 0, 26, 0
1, 457155, Note_on_c, 0, 26, 36
1, 457155, Note_on_c, 0, 38, 36
1, 457155, Note_on_c, 0, 24, 36
1, 457155, Note_on_c, 0, 26, 36
1, 457347, Note_off_c, 0, 26, 0
1, 457347, Note_off_c, 0, 24, 0
1, 457347, Note_off_c, 0, 38, 0
1, 457347, Note_off_c, 0, 26, 0
1, 457347, Note_off_c, 0, 64, 0
1, 457347, Note_off_c, 0, 55, 0
1, 457347, Note_off_c, 0, 52, 0
1, 457347, Note_off_c, 0, 76, 0
1, 457347, Note_off_c, 0, 67, 0
1, 457347, Note_off_c, 0, 64, 0
1, 457347, Note_on_c, 0, 61, 38
1, 457347, Note_on_c, 0, 64, 38
1, 457347, Note_on_c, 0, 73, 38
1, 457347, Note_on_c, 0, 26, 36
1, 457347, Note_on_c, 0, 38, 36
1, 457347, Note_on_c, 0, 49, 38
1, 457347, Note_on_c, 0, 52, 38
1, 457347, Note_on_c, 0, 61, 38
1, 457347, Note_on_c, 0, 24, 36
1, 457347, Note_on_c, 0, 26, 36
1, 457539, Note_off_c, 0, 26, 0
1, 457539, Note_off_c, 0, 24, 0
1, 457539, Note_off_c, 0, 38, 0
1, 457539, Note_off_c, 0, 26, 0
1, 457539, Note_on_c, 0, 26, 36
1, 457539, Note_on_c, 0, 38, 36
1, 457539, Note_on_c, 0, 24, 36
1, 457539, Note_on_c, 0, 26, 36
1, 457731, Note_off_c, 0, 26, 0
1, 457731, Note_off_c, 0, 24, 0
1, 457731, Note_off_c, 0, 38, 0
1, 457731, Note_off_c, 0, 26, 0
1, 457731, Note_off_c, 0, 61, 0
1, 457731, Note_off_c, 0, 52, 0
1, 457731, Note_off_c, 0, 49, 0
1, 457731, Note_off_c, 0, 73, 0
1, 457731, Note_off_c, 0, 64, 0
1, 457731, Note_off_c, 0, 61, 0
1, 457731, Note_on_c, 0, 62, 38
1, 457731, Note_on_c, 0, 65, 38
1, 457731, Note_on_c, 0, 74, 38
1, 457731, Note_on_c, 0, 26, 36
1, 457731, Note_on_c, 0, 38, 36
1, 457731, Note_on_c, 0, 50, 38
1, 457731, Note_on_c, 0, 53, 38
1, 457731, Note_on_c, 0, 62, 38
1, 457731, Note_on_c, 0, 24, 36
1, 457731, Note_on_c, 0, 26, 36
1, 457827, Note_off_c, 0, 26, 0
1, 457827, Note_off_c, 0, 24, 0
1, 457827, Note_off_c, 0, 38, 0
1, 457827, Note_off_c, 0, 26, 0
1, 457827, Note_on_c, 0, 26, 36
1, 457827, Note_on_c, 0, 38, 36
1, 457827, Note_on_c, 0, 24, 36
1, 457827, Note_on_c, 0, 26, 36
1, 457923, Note_off_c, 0, 26, 0
1, 457923, Note_off_c, 0, 24, 0
1, 457923, Note_off_c, 0, 38, 0
1, 457923, Note_off_c, 0, 26, 0
1, 457923, Note_on_c, 0, 26, 36
1, 457923, Note_on_c, 0, 38, 36
1, 457923, Note_on_c, 0, 24, 36
1, 457923, Note_on_c, 0, 26, 36
1, 458019, Note_off_c, 0, 26, 0
1, 458019, Note_off_c, 0, 24, 0
1, 458019, Note_off_c, 0, 38, 0
1, 458019, Note_off_c, 0, 26, 0
1, 458019, Note_on_c, 0, 26, 36
1, 458019, Note_on_c, 0, 38, 36
1, 458019, Note_on_c, 0, 24, 36
1, 458019, Note_on_c, 0, 26, 36
1, 458115, Note_off_c, 0, 26, 0
1, 458115, Note_off_c, 0, 24, 0
1, 458115, Note_off_c, 0, 38, 0
1, 458115, Note_off_c, 0, 26, 0
1, 458115, Note_off_c, 0, 62, 0
1, 458115, Note_off_c, 0, 53, 0
1, 458115, Note_off_c, 0, 50, 0
1, 458115, Note_off_c, 0, 74, 0
1, 458115, Note_off_c, 0, 65, 0
1, 458115, Note_off_c, 0, 62, 0
1, 458115, Note_on_c, 0, 69, 38
1, 458115, Note_on_c, 0, 72, 38
1, 458115, Note_on_c, 0, 81, 38
1, 458115, Note_on_c, 0, 26, 36
1, 458115, Note_on_c, 0, 38, 36
1, 458115, Note_on_c, 0, 57, 38
1, 458115, Note_on_c, 0, 60, 38
1, 458115, Note_on_c, 0, 69, 38
1, 458115, Note_on_c, 0, 24, 36
1, 458115, Note_on_c, 0, 26, 36
1, 458211, Note_off_c, 0, 26, 0
1, 458211, Note_off_c, 0, 24, 0
1, 458211, Note_off_c, 0, 38, 0
1, 458211, Note_off_c, 0, 26, 0
1, 458211, Note_on_c, 0, 26, 36
1, 458211, Note_on_c, 0, 38, 36
1, 458211, Note_on_c, 0, 24, 36
1, 458211, Note_on_c, 0, 26, 36
1, 458307, Note_off_c, 0, 26, 0
1, 458307, Note_off_c, 0, 24, 0
1, 458307, Note_off_c, 0, 38, 0
1, 458307, Note_off_c, 0, 26, 0
1, 458307, Note_on_c, 0, 26, 36
1, 458307, Note_on_c, 0, 38, 36
1, 458307, Note_on_c, 0, 24, 36
1, 458307, Note_on_c, 0, 26, 36
1, 458403, Note_off_c, 0, 26, 0
1, 458403, Note_off_c, 0, 24, 0
1, 458403, Note_off_c, 0, 38, 0
1, 458403, Note_off_c, 0, 26, 0
1, 458403, Note_on_c, 0, 26, 36
1, 458403, Note_on_c, 0, 38, 36
1, 458403, Note_on_c, 0, 24, 36
1, 458403, Note_on_c, 0, 26, 36
1, 458499, Note_off_c, 0, 26, 0
1, 458499, Note_off_c, 0, 24, 0
1, 458499, Note_off_c, 0, 38, 0
1, 458499, Note_off_c, 0, 26, 0
1, 458499, Note_off_c, 0, 69, 0
1, 458499, Note_off_c, 0, 60, 0
1, 458499, Note_off_c, 0, 57, 0
1, 458499, Note_off_c, 0, 81, 0
1, 458499, Note_off_c, 0, 72, 0
1, 458499, Note_off_c, 0, 69, 0
1, 458499, Note_on_c, 0, 64, 38
1, 458499, Note_on_c, 0, 68, 38
1, 458499, Note_on_c, 0, 76, 38
1, 458499, Note_on_c, 0, 26, 36
1, 458499, Note_on_c, 0, 38, 36
1, 458499, Note_on_c, 0, 52, 38
1, 458499, Note_on_c, 0, 56, 38
1, 458499, Note_on_c, 0, 64, 38
1, 458499, Note_on_c, 0, 24, 36
1, 458499, Note_on_c, 0, 26, 36
1, 458595, Note_off_c, 0, 26, 0
1, 458595, Note_off_c, 0, 24, 0
1, 458595, Note_off_c, 0, 38, 0
1, 458595, Note_off_c, 0, 26, 0
1, 458595, Note_on_c, 0, 26, 36
1, 458595, Note_on_c, 0, 38, 36
1, 458595, Note_on_c, 0, 24, 36
1, 458595, Note_on_c, 0, 26, 36
1, 458691, Note_off_c, 0, 26, 0
1, 458691, Note_off_c, 0, 24, 0
1, 458691, Note_off_c, 0, 38, 0
1, 458691, Note_off_c, 0, 26, 0
1, 458691, Note_on_c, 0, 26, 36
1, 458691, Note_on_c, 0, 38, 36
1, 458691, Note_on_c, 0, 24, 36
1, 458691, Note_on_c, 0, 26, 36
1, 458787, Note_off_c, 0, 26, 0
1, 458787, Note_off_c, 0, 24, 0
1, 458787, Note_off_c, 0, 38, 0
1, 458787, Note_off_c, 0, 26, 0
1, 458787, Note_on_c, 0, 26, 36
1, 458787, Note_on_c, 0, 38, 36
1, 458787, Note_on_c, 0, 24, 36
1, 458787, Note_on_c, 0, 26, 36
1, 458883, Note_off_c, 0, 26, 0
1, 458883, Note_off_c, 0, 24, 0
1, 458883, Note_off_c, 0, 38, 0
1, 458883, Note_off_c, 0, 26, 0
1, 458883, Note_off_c, 0, 64, 0
1, 458883, Note_off_c, 0, 56, 0
1, 458883, Note_off_c, 0, 52, 0
1, 458883, Note_off_c, 0, 76, 0
1, 458883, Note_off_c, 0, 68, 0
1, 458883, Note_off_c, 0, 64, 0
1, 458883, Note_on_c, 0, 72, 38
1, 458883, Note_on_c, 0, 75, 38
1, 458883, Note_on_c, 0, 84, 38
1, 458883, Note_on_c, 0, 26, 36
1, 458883, Note_on_c, 0, 38, 36
1, 458883, Note_on_c, 0, 60, 38
1, 458883, Note_on_c, 0, 63, 38
1, 458883, Note_on_c, 0, 72, 38
1, 458883, Note_on_c, 0, 24, 36
1, 458883, Note_on_c, 0, 26, 36
1, 458979, Note_off_c, 0, 26, 0
1, 458979, Note_off_c, 0, 24, 0
1, 458979, Note_off_c, 0, 38, 0
1, 458979, Note_off_c, 0, 26, 0
1, 458979, Note_on_c, 0, 26, 36
1, 458979, Note_on_c, 0, 38, 36
1, 458979, Note_on_c, 0, 24, 36
1, 458979, Note_on_c, 0, 26, 36
1, 459075, Note_off_c, 0, 26, 0
1, 459075, Note_off_c, 0, 24, 0
1, 459075, Note_off_c, 0, 38, 0
1, 459075, Note_off_c, 0, 26, 0
1, 459075, Note_on_c, 0, 26, 36
1, 459075, Note_on_c, 0, 38, 36
1, 459075, Note_on_c, 0, 24, 36
1, 459075, Note_on_c, 0, 26, 36
1, 459171, Note_off_c, 0, 26, 0
1, 459171, Note_off_c, 0, 24, 0
1, 459171, Note_off_c, 0, 38, 0
1, 459171, Note_off_c, 0, 26, 0
1, 459171, Note_on_c, 0, 26, 36
1, 459171, Note_on_c, 0, 38, 36
1, 459171, Note_on_c, 0, 24, 36
1, 459171, Note_on_c, 0, 26, 36
1, 459267, Note_off_c, 0, 26, 0
1, 459267, Note_off_c, 0, 38, 0
1, 459267, Note_off_c, 0, 26, 0
1, 459267, Note_off_c, 0, 24, 0
1, 459267, Note_off_c, 0, 38, 0
1, 459267, Note_off_c, 0, 26, 0
1, 459267, Note_off_c, 0, 72, 0
1, 459267, Note_off_c, 0, 63, 0
1, 459267, Note_off_c, 0, 60, 0
1, 459267, Note_off_c, 0, 84, 0
1, 459267, Note_off_c, 0, 75, 0
1, 459267, Note_off_c, 0, 72, 0
1, 459267, Note_on_c, 0, 71, 38
1, 459267, Note_on_c, 0, 74, 38
1, 459267, Note_on_c, 0, 83, 38
1, 459267, Note_on_c, 0, 38, 36
1, 459267, Note_on_c, 0, 59, 38
1, 459267, Note_on_c, 0, 62, 38
1, 459267, Note_on_c, 0, 71, 38
1, 459267, Note_on_c, 0, 26, 36
1, 459315, Note_off_c, 0, 28, 0
1, 459315, Note_off_c, 0, 40, 0
1, 459315, Note_on_c, 0, 40, 36
1, 459315, Note_on_c, 0, 28, 36
1, 459363, Note_off_c, 0, 29, 0
1, 459363, Note_off_c, 0, 41, 0
1, 459363, Note_on_c, 0, 41, 36
1, 459363, Note_on_c, 0, 29, 36
1, 459411, Note_off_c, 0, 31, 0
1, 459411, Note_off_c, 0, 43, 0
1, 459411, Note_on_c, 0, 43, 36
1, 459411, Note_on_c, 0, 31, 36
1, 459459, Note_off_c, 0, 33, 0
1, 459459, Note_off_c, 0, 45, 0
1, 459459, Note_on_c, 0, 45, 36
1, 459459, Note_on_c, 0, 33, 36
1, 459507, Note_off_c, 0, 35, 0
1, 459507, Note_off_c, 0, 47, 0
1, 459507, Note_on_c, 0, 47, 36
1, 459507, Note_on_c, 0, 35, 36
1, 459555, Note_off_c, 0, 36, 0
1, 459555, Note_off_c, 0, 48, 0
1, 459555, Note_on_c, 0, 48, 36
1, 459555, Note_on_c, 0, 36, 36
1, 459603, Note_off_c, 0, 38, 0
1, 459603, Note_off_c, 0, 50, 0
1, 459603, Note_on_c, 0, 50, 36
1, 459603, Note_on_c, 0, 38, 36
1, 459651, Note_off_c, 0, 40, 0
1, 459651, Note_off_c, 0, 52, 0
1, 459651, Note_off_c, 0, 71, 0
1, 459651, Note_off_c, 0, 62, 0
1, 459651, Note_off_c, 0, 59, 0
1, 459651, Note_off_c, 0, 83, 0
1, 459651, Note_off_c, 0, 74, 0
1, 459651, Note_off_c, 0, 71, 0
1, 459651, Note_on_c, 0, 68, 38
1, 459651, Note_on_c, 0, 71, 38
1, 459651, Note_on_c, 0, 80, 38
1, 459651, Note_on_c, 0, 52, 36
1, 459651, Note_on_c, 0, 56, 38
1, 459651, Note_on_c, 0, 59, 38
1, 459651, Note_on_c, 0, 68, 38
1, 459651, Note_on_c, 0, 40, 36
1, 459699, Note_off_c, 0, 41, 0
1, 459699, Note_off_c, 0, 53, 0
1, 459699, Note_on_c, 0, 53, 36
1, 459699, Note_on_c, 0, 41, 36
1, 459747, Note_off_c, 0, 43, 0
1, 459747, Note_off_c, 0, 55, 0
1, 459747, Note_on_c, 0, 55, 36
1, 459747, Note_on_c, 0, 43, 36
1, 459795, Note_off_c, 0, 45, 0
1, 459795, Note_off_c, 0, 57, 0
1, 459795, Note_on_c, 0, 57, 36
1, 459795, Note_on_c, 0, 45, 36
1, 459843, Note_off_c, 0, 47, 0
1, 459843, Note_off_c, 0, 59, 0
1, 459843, Note_on_c, 0, 59, 36
1, 459843, Note_on_c, 0, 47, 36
1, 459891, Note_off_c, 0, 48, 0
1, 459891, Note_off_c, 0, 60, 0
1, 459891, Note_on_c, 0, 60, 36
1, 459891, Note_on_c, 0, 48, 36
1, 459939, Note_off_c, 0, 50, 0
1, 459939, Note_off_c, 0, 62, 0
1, 459939, Note_on_c, 0, 62, 36
1, 459939, Note_on_c, 0, 50, 36
1, 460035, Note_off_c, 0, 48, 0
1, 460035, Note_off_c, 0, 60, 0
1, 460035, Note_off_c, 0, 68, 0
1, 460035, Note_off_c, 0, 59, 0
1, 460035, Note_off_c, 0, 56, 0
1, 460035, Note_off_c, 0, 80, 0
1, 460035, Note_off_c, 0, 71, 0
1, 460035, Note_off_c, 0, 68, 0
1, 460035, Note_on_c, 0, 69, 38
1, 460035, Note_on_c, 0, 72, 38
1, 460035, Note_on_c, 0, 81, 38
1, 460035, Note_on_c, 0, 60, 36
1, 460035, Note_on_c, 0, 57, 38
1, 460035, Note_on_c, 0, 60, 38
1, 460035, Note_on_c, 0, 69, 38
1, 460035, Note_on_c, 0, 48, 36
1, 460083, Note_off_c, 0, 47, 0
1, 460083, Note_off_c, 0, 59, 0
1, 460083, Note_on_c, 0, 59, 36
1, 460083, Note_on_c, 0, 47, 36
1, 460131, Note_off_c, 0, 45, 0
1, 460131, Note_off_c, 0, 57, 0
1, 460131, Note_on_c, 0, 57, 36
1, 460131, Note_on_c, 0, 45, 36
1, 460179, Note_off_c, 0, 43, 0
1, 460179, Note_off_c, 0, 55, 0
1, 460179, Note_on_c, 0, 55, 36
1, 460179, Note_on_c, 0, 43, 36
1, 460227, Note_off_c, 0, 41, 0
1, 460227, Note_off_c, 0, 53, 0
1, 460227, Note_on_c, 0, 53, 36
1, 460227, Note_on_c, 0, 41, 36
1, 460275, Note_off_c, 0, 40, 0
1, 460275, Note_off_c, 0, 52, 0
1, 460275, Note_on_c, 0, 52, 36
1, 460275, Note_on_c, 0, 40, 36
1, 460323, Note_off_c, 0, 38, 0
1, 460323, Note_off_c, 0, 50, 0
1, 460323, Note_on_c, 0, 50, 36
1, 460323, Note_on_c, 0, 38, 36
1, 460371, Note_off_c, 0, 36, 0
1, 460371, Note_off_c, 0, 48, 0
1, 460371, Note_on_c, 0, 48, 36
1, 460371, Note_on_c, 0, 36, 36
1, 460419, Note_off_c, 0, 35, 0
1, 460419, Note_off_c, 0, 47, 0
1, 460419, Note_off_c, 0, 69, 0
1, 460419, Note_off_c, 0, 60, 0
1, 460419, Note_off_c, 0, 57, 0
1, 460419, Note_off_c, 0, 81, 0
1, 460419, Note_off_c, 0, 72, 0
1, 460419, Note_off_c, 0, 69, 0
1, 460419, Note_on_c, 0, 47, 36
1, 460419, Note_on_c, 0, 35, 36
1, 460467, Note_off_c, 0, 33, 0
1, 460467, Note_off_c, 0, 45, 0
1, 460467, Note_on_c, 0, 45, 36
1, 460467, Note_on_c, 0, 33, 36
1, 460515, Note_off_c, 0, 31, 0
1, 460515, Note_off_c, 0, 43, 0
1, 460515, Note_on_c, 0, 43, 36
1, 460515, Note_on_c, 0, 31, 36
1, 460563, Note_off_c, 0, 29, 0
1, 460563, Note_off_c, 0, 41, 0
1, 460563, Note_on_c, 0, 41, 36
1, 460563, Note_on_c, 0, 29, 36
1, 460611, Note_off_c, 0, 28, 0
1, 460611, Note_off_c, 0, 40, 0
1, 460611, Note_on_c, 0, 40, 36
1, 460611, Note_on_c, 0, 28, 36
1, 460659, Note_off_c, 0, 26, 0
1, 460659, Note_off_c, 0, 38, 0
1, 460659, Note_on_c, 0, 38, 36
1, 460659, Note_on_c, 0, 26, 36
1, 460803, Note_on_c, 0, 46, 36
1, 460803, Note_on_c, 0, 34, 36
1, 461091, Note_off_c, 0, 34, 0
1, 461091, Note_off_c, 0, 46, 0
1, 461187, Note_on_c, 0, 62, 36
1, 461187, Note_on_c, 0, 65, 36
1, 461187, Note_on_c, 0, 53, 36
1, 461187, Note_on_c, 0, 50, 36
1, 461187, Note_on_c, 0, 53, 36
1, 461187, Note_on_c, 0, 41, 36
1, 461475, Note_off_c, 0, 41, 0
1, 461475, Note_off_c, 0, 53, 0
1, 461475, Note_off_c, 0, 50, 0
1, 461475, Note_off_c, 0, 53, 0
1, 461475, Note_off_c, 0, 65, 0
1, 461475, Note_off_c, 0, 62, 0
1, 461571, Note_on_c, 0, 46, 36
1, 461571, Note_on_c, 0, 34, 36
1, 461859, Note_off_c, 0, 34, 0
1, 461859, Note_off_c, 0, 46, 0
1, 461955, Note_on_c, 0, 62, 36
1, 461955, Note_on_c, 0, 65, 36
1, 461955, Note_on_c, 0, 53, 36
1, 461955, Note_on_c, 0, 50, 36
1, 461955, Note_on_c, 0, 53, 36
1, 461955, Note_on_c, 0, 41, 36
1, 462243, Note_off_c, 0, 41, 0
1, 462243, Note_off_c, 0, 53, 0
1, 462243, Note_off_c, 0, 50, 0
1, 462243, Note_off_c, 0, 53, 0
1, 462243, Note_off_c, 0, 65, 0
1, 462243, Note_off_c, 0, 62, 0
1, 462339, Note_on_c, 0, 48, 36
1, 462339, Note_on_c, 0, 36, 36
1, 462627, Note_off_c, 0, 36, 0
1, 462627, Note_off_c, 0, 48, 0
1, 462723, Note_on_c, 0, 64, 36
1, 462723, Note_on_c, 0, 67, 36
1, 462723, Note_on_c, 0, 55, 36
1, 462723, Note_on_c, 0, 52, 36
1, 462723, Note_on_c, 0, 55, 36
1, 462723, Note_on_c, 0, 43, 36
1, 463011, Note_off_c, 0, 43, 0
1, 463011, Note_off_c, 0, 55, 0
1, 463011, Note_off_c, 0, 52, 0
1, 463011, Note_off_c, 0, 55, 0
1, 463011, Note_off_c, 0, 67, 0
1, 463011, Note_off_c, 0, 64, 0
1, 463107, Note_on_c, 0, 48, 36
1, 463107, Note_on_c, 0, 36, 36
1, 463395, Note_off_c, 0, 36, 0
1, 463395, Note_off_c, 0, 48, 0
1, 463491, Note_on_c, 0, 64, 36
1, 463491, Note_on_c, 0, 67, 36
1, 463491, Note_on_c, 0, 55, 36
1, 463491, Note_on_c, 0, 52, 36
1, 463491, Note_on_c, 0, 55, 36
1, 463491, Note_on_c, 0, 43, 36
1, 463683, Note_off_c, 0, 55, 0
1, 463683, Note_off_c, 0, 52, 0
1, 463683, Note_off_c, 0, 67, 0
1, 463683, Note_off_c, 0, 64, 0
1, 463683, Note_on_c, 0, 65, 36
1, 463683, Note_on_c, 0, 53, 36
1, 463779, Note_off_c, 0, 43, 0
1, 463779, Note_off_c, 0, 55, 0
1, 463875, Note_off_c, 0, 53, 0
1, 463875, Note_off_c, 0, 65, 0
1, 463875, Note_on_c, 0, 62, 36
1, 463875, Note_on_c, 0, 65, 36
1, 463875, Note_on_c, 0, 50, 36
1, 463875, Note_on_c, 0, 57, 36
1, 463875, Note_on_c, 0, 50, 36
1, 463875, Note_on_c, 0, 53, 36
1, 463875, Note_on_c, 0, 38, 36
1, 463875, Note_on_c, 0, 45, 36
1, 464067, Note_off_c, 0, 53, 0
1, 464067, Note_off_c, 0, 50, 0
1, 464067, Note_off_c, 0, 65, 0
1, 464067, Note_off_c, 0, 62, 0
1, 464067, Note_on_c, 0, 62, 36
1, 464067, Note_on_c, 0, 50, 36
1, 464259, Note_off_c, 0, 50, 0
1, 464259, Note_off_c, 0, 62, 0
1, 464259, Note_on_c, 0, 64, 36
1, 464259, Note_on_c, 0, 52, 36
1, 464451, Note_off_c, 0, 52, 0
1, 464451, Note_off_c, 0, 64, 0
1, 464451, Note_on_c, 0, 65, 36
1, 464451, Note_on_c, 0, 53, 36
1, 464643, Note_off_c, 0, 53, 0
1, 464643, Note_off_c, 0, 65, 0
1, 464643, Note_on_c, 0, 62, 36
1, 464643, Note_on_c, 0, 50, 36
1, 464835, Note_off_c, 0, 50, 0
1, 464835, Note_off_c, 0, 62, 0
1, 464835, Note_on_c, 0, 64, 36
1, 464835, Note_on_c, 0, 52, 36
1, 465027, Note_off_c, 0, 52, 0
1, 465027, Note_off_c, 0, 64, 0
1, 465027, Note_on_c, 0, 65, 36
1, 465027, Note_on_c, 0, 53, 36
1, 465219, Note_off_c, 0, 53, 0
1, 465219, Note_off_c, 0, 65, 0
1, 465219, Note_on_c, 0, 62, 36
1, 465219, Note_on_c, 0, 50, 36
1, 465315, Note_off_c, 0, 45, 0
1, 465315, Note_off_c, 0, 38, 0
1, 465315, Note_off_c, 0, 57, 0
1, 465315, Note_off_c, 0, 50, 0
1, 465411, Note_off_c, 0, 50, 0
1, 465411, Note_off_c, 0, 62, 0
1, 465411, Note_on_c, 0, 65, 36
1, 465411, Note_on_c, 0, 69, 36
1, 465411, Note_on_c, 0, 50, 36
1, 465411, Note_on_c, 0, 53, 36
1, 465411, Note_on_c, 0, 57, 36
1, 465411, Note_on_c, 0, 38, 36
1, 465699, Note_off_c, 0, 57, 0
1, 465699, Note_off_c, 0, 53, 0
1, 465699, Note_off_c, 0, 69, 0
1, 465699, Note_off_c, 0, 65, 0
1, 465795, Note_on_c, 0, 72, 36
1, 465795, Note_on_c, 0, 60, 36
1, 466083, Note_off_c, 0, 60, 0
1, 466083, Note_off_c, 0, 72, 0
1, 466083, Note_off_c, 0, 38, 0
1, 466083, Note_off_c, 0, 50, 0
1, 466179, Note_on_c, 0, 69, 36
1, 466179, Note_on_c, 0, 74, 36
1, 466179, Note_on_c, 0, 52, 36
1, 466179, Note_on_c, 0, 57, 36
1, 466179, Note_on_c, 0, 62, 36
1, 466179, Note_on_c, 0, 40, 36
1, 466467, Note_off_c, 0, 62, 0
1, 466467, Note_off_c, 0, 57, 0
1, 466467, Note_off_c, 0, 74, 0
1, 466467, Note_off_c, 0, 69, 0
1, 466563, Note_on_c, 0, 76, 36
1, 466563, Note_on_c, 0, 64, 36
1, 466851, Note_off_c, 0, 64, 0
1, 466851, Note_off_c, 0, 76, 0
1, 466851, Note_off_c, 0, 40, 0
1, 466851, Note_off_c, 0, 52, 0
1, 466947, Note_on_c, 0, 70, 36
1, 466947, Note_on_c, 0, 77, 36
1, 466947, Note_on_c, 0, 53, 36
1, 466947, Note_on_c, 0, 58, 36
1, 466947, Note_on_c, 0, 65, 36
1, 466947, Note_on_c, 0, 41, 36
1, 467619, Note_off_c, 0, 65, 0
1, 467619, Note_off_c, 0, 58, 0
1, 467619, Note_off_c, 0, 77, 0
1, 467619, Note_off_c, 0, 70, 0
1, 467715, Note_on_c, 0, 77, 36
1, 467715, Note_on_c, 0, 65, 36
1, 467907, Note_off_c, 0, 65, 0
1, 467907, Note_off_c, 0, 77, 0
1, 467907, Note_on_c, 0, 76, 36
1, 467907, Note_on_c, 0, 64, 36
1, 468099, Note_off_c, 0, 64, 0
1, 468099, Note_off_c, 0, 76, 0
1, 468099, Note_on_c, 0, 72, 36
1, 468099, Note_on_c, 0, 60, 36
1, 468291, Note_off_c, 0, 60, 0
1, 468291, Note_off_c, 0, 72, 0
1, 468291, Note_on_c, 0, 69, 36
1, 468291, Note_on_c, 0, 57, 36
1, 468387, Note_off_c, 0, 41, 0
1, 468387, Note_off_c, 0, 53, 0
1, 468483, Note_off_c, 0, 57, 0
1, 468483, Note_off_c, 0, 69, 0
1, 468483, Note_on_c, 0, 65, 36
1, 468483, Note_on_c, 0, 69, 36
1, 468483, Note_on_c, 0, 55, 36
1, 468483, Note_on_c, 0, 53, 36
1, 468483, Note_on_c, 0, 57, 36
1, 468483, Note_on_c, 0, 43, 36
1, 468771, Note_off_c, 0, 57, 0
1, 468771, Note_off_c, 0, 53, 0
1, 468771, Note_off_c, 0, 69, 0
1, 468771, Note_off_c, 0, 65, 0
1, 468867, Note_on_c, 0, 72, 36
1, 468867, Note_on_c, 0, 60, 36
1, 468963, Note_off_c, 0, 60, 0
1, 468963, Note_off_c, 0, 72, 0
1, 468995, Note_on_c, 0, 69, 36
1, 468995, Note_on_c, 0, 57, 36
1, 469091, Note_off_c, 0, 57, 0
1, 469091, Note_off_c, 0, 69, 0
1, 469124, Note_on_c, 0, 72, 36
1, 469124, Note_on_c, 0, 60, 36
1, 469220, Note_off_c, 0, 60, 0
1, 469220, Note_off_c, 0, 72, 0
1, 469252, Note_on_c, 0, 69, 36
1, 469252, Note_on_c, 0, 57, 36
1, 469540, Note_off_c, 0, 57, 0
1, 469540, Note_off_c, 0, 69, 0
1, 469636, Note_on_c, 0, 65, 36
1, 469636, Note_on_c, 0, 53, 36
1, 469828, Note_off_c, 0, 53, 0
1, 469828, Note_off_c, 0, 65, 0
1, 469828, Note_on_c, 0, 64, 36
1, 469828, Note_on_c, 0, 52, 36
1, 469924, Note_off_c, 0, 43, 0
1, 469924, Note_off_c, 0, 55, 0
1, 470020, Note_off_c, 0, 52, 0
1, 470020, Note_off_c, 0, 64, 0
1, 470020, Note_on_c, 0, 62, 36
1, 470020, Note_on_c, 0, 67, 36
1, 470020, Note_on_c, 0, 50, 36
1, 470020, Note_on_c, 0, 50, 36
1, 470020, Note_on_c, 0, 55, 36
1, 470020, Note_on_c, 0, 38, 36
1, 470500, Note_off_c, 0, 55, 0
1, 470500, Note_off_c, 0, 50, 0
1, 470500, Note_off_c, 0, 67, 0
1, 470500, Note_off_c, 0, 62, 0
1, 470596, Note_on_c, 0, 69, 36
1, 470596, Note_on_c, 0, 57, 36
1, 470884, Note_off_c, 0, 57, 0
1, 470884, Note_off_c, 0, 69, 0
1, 470980, Note_on_c, 0, 62, 36
1, 470980, Note_on_c, 0, 50, 36
1, 471172, Note_off_c, 0, 50, 0
1, 471172, Note_off_c, 0, 62, 0
1, 471172, Note_on_c, 0, 64, 36
1, 471172, Note_on_c, 0, 52, 36
1, 471364, Note_off_c, 0, 52, 0
1, 471364, Note_off_c, 0, 64, 0
1, 471364, Note_on_c, 0, 65, 36
1, 471364, Note_on_c, 0, 53, 36
1, 471556, Note_off_c, 0, 53, 0
1, 471556, Note_off_c, 0, 65, 0
1, 471556, Note_on_c, 0, 57, 36
1, 471556, Note_on_c, 0, 62, 36
1, 471556, Note_on_c, 0, 45, 36
1, 471556, Note_on_c, 0, 50, 36
1, 471940, Note_off_c, 0, 50, 0
1, 471940, Note_off_c, 0, 45, 0
1, 471940, Note_off_c, 0, 62, 0
1, 471940, Note_off_c, 0, 57, 0
1, 471940, Note_on_c, 0, 60, 36
1, 471940, Note_on_c, 0, 48, 36
1, 472324, Note_off_c, 0, 48, 0
1, 472324, Note_off_c, 0, 60, 0
1, 472324, Note_on_c, 0, 57, 36
1, 472324, Note_on_c, 0, 45, 36
1, 472612, Note_off_c, 0, 45, 0
1, 472612, Note_off_c, 0, 57, 0
1, 472996, Note_off_c, 0, 38, 0
1, 472996, Note_off_c, 0, 50, 0
1, 473092, Note_on_c, 0, 46, 36
1, 473092, Note_on_c, 0, 70, 43
1, 473092, Note_on_c, 0, 34, 23
1, 473092, Note_on_c, 0, 46, 23
1, 473092, Note_on_c, 0, 34, 36
1, 473092, Note_on_c, 0, 58, 43
1, 473092, Note_on_c, 0, 24, 23
1, 473092, Note_on_c, 0, 34, 23
1, 473284, Note_off_c, 0, 58, 0
1, 473284, Note_off_c, 0, 70, 0
1, 473284, Note_on_c, 0, 70, 43
1, 473284, Note_on_c, 0, 58, 43
1, 473380, Note_off_c, 0, 34, 0
1, 473380, Note_off_c, 0, 24, 0
1, 473380, Note_off_c, 0, 34, 0
1, 473380, Note_off_c, 0, 46, 0
1, 473380, Note_off_c, 0, 34, 0
1, 473380, Note_off_c, 0, 46, 0
1, 473476, Note_off_c, 0, 58, 0
1, 473476, Note_off_c, 0, 70, 0
1, 473476, Note_on_c, 0, 62, 36
1, 473476, Note_on_c, 0, 65, 36
1, 473476, Note_on_c, 0, 53, 36
1, 473476, Note_on_c, 0, 70, 43
1, 473476, Note_on_c, 0, 34, 23
1, 473476, Note_on_c, 0, 46, 23
1, 473476, Note_on_c, 0, 50, 36
1, 473476, Note_on_c, 0, 53, 36
1, 473476, Note_on_c, 0, 41, 36
1, 473476, Note_on_c, 0, 58, 43
1, 473476, Note_on_c, 0, 24, 23
1, 473476, Note_on_c, 0, 34, 23
1, 473668, Note_off_c, 0, 58, 0
1, 473668, Note_off_c, 0, 70, 0
1, 473668, Note_on_c, 0, 82, 43
1, 473668, Note_on_c, 0, 70, 43
1, 473764, Note_off_c, 0, 34, 0
1, 473764, Note_off_c, 0, 24, 0
1, 473764, Note_off_c, 0, 41, 0
1, 473764, Note_off_c, 0, 53, 0
1, 473764, Note_off_c, 0, 50, 0
1, 473764, Note_off_c, 0, 46, 0
1, 473764, Note_off_c, 0, 34, 0
1, 473764, Note_off_c, 0, 53, 0
1, 473764, Note_off_c, 0, 65, 0
1, 473764, Note_off_c, 0, 62, 0
1, 473860, Note_off_c, 0, 70, 0
1, 473860, Note_off_c, 0, 82, 0
1, 473860, Note_on_c, 0, 46, 36
1, 473860, Note_on_c, 0, 70, 43
1, 473860, Note_on_c, 0, 34, 23
1, 473860, Note_on_c, 0, 46, 23
1, 473860, Note_on_c, 0, 34, 36
1, 473860, Note_on_c, 0, 58, 43
1, 473860, Note_on_c, 0, 24, 23
1, 473860, Note_on_c, 0, 34, 23
1, 473956, Note_off_c, 0, 58, 0
1, 473956, Note_off_c, 0, 70, 0
1, 473956, Note_on_c, 0, 70, 43
1, 473956, Note_on_c, 0, 58, 43
1, 474052, Note_off_c, 0, 58, 0
1, 474052, Note_off_c, 0, 70, 0
1, 474052, Note_on_c, 0, 70, 43
1, 474052, Note_on_c, 0, 58, 43
1, 474148, Note_off_c, 0, 34, 0
1, 474148, Note_off_c, 0, 24, 0
1, 474148, Note_off_c, 0, 34, 0
1, 474148, Note_off_c, 0, 46, 0
1, 474148, Note_off_c, 0, 34, 0
1, 474148, Note_off_c, 0, 46, 0
1, 474244, Note_off_c, 0, 58, 0
1, 474244, Note_off_c, 0, 70, 0
1, 474244, Note_on_c, 0, 62, 36
1, 474244, Note_on_c, 0, 65, 36
1, 474244, Note_on_c, 0, 53, 36
1, 474244, Note_on_c, 0, 82, 43
1, 474244, Note_on_c, 0, 34, 23
1, 474244, Note_on_c, 0, 46, 23
1, 474244, Note_on_c, 0, 50, 36
1, 474244, Note_on_c, 0, 53, 36
1, 474244, Note_on_c, 0, 41, 36
1, 474244, Note_on_c, 0, 70, 43
1, 474244, Note_on_c, 0, 24, 23
1, 474244, Note_on_c, 0, 34, 23
1, 474436, Note_off_c, 0, 70, 0
1, 474436, Note_off_c, 0, 82, 0
1, 474436, Note_on_c, 0, 70, 43
1, 474436, Note_on_c, 0, 58, 43
1, 474532, Note_off_c, 0, 58, 0
1, 474532, Note_off_c, 0, 70, 0
1, 474532, Note_off_c, 0, 34, 0
1, 474532, Note_off_c, 0, 24, 0
1, 474532, Note_off_c, 0, 41, 0
1, 474532, Note_off_c, 0, 53, 0
1, 474532, Note_off_c, 0, 50, 0
1, 474532, Note_off_c, 0, 46, 0
1, 474532, Note_off_c, 0, 34, 0
1, 474532, Note_off_c, 0, 53, 0
1, 474532, Note_off_c, 0, 65, 0
1, 474532, Note_off_c, 0, 62, 0
1, 474532, Note_on_c, 0, 70, 43
1, 474532, Note_on_c, 0, 58, 43
1, 474628, Note_off_c, 0, 58, 0
1, 474628, Note_off_c, 0, 70, 0
1, 474628, Note_on_c, 0, 48, 36
1, 474628, Note_on_c, 0, 72, 43
1, 474628, Note_on_c, 0, 36, 23
1, 474628, Note_on_c, 0, 48, 23
1, 474628, Note_on_c, 0, 36, 36
1, 474628, Note_on_c, 0, 60, 43
1, 474628, Note_on_c, 0, 24, 23
1, 474628, Note_on_c, 0, 36, 23
1, 474724, Note_off_c, 0, 60, 0
1, 474724, Note_off_c, 0, 72, 0
1, 474724, Note_on_c, 0, 72, 43
1, 474724, Note_on_c, 0, 60, 43
1, 474820, Note_off_c, 0, 60, 0
1, 474820, Note_off_c, 0, 72, 0
1, 474820, Note_on_c, 0, 72, 43
1, 474820, Note_on_c, 0, 60, 43
1, 474916, Note_off_c, 0, 36, 0
1, 474916, Note_off_c, 0, 24, 0
1, 474916, Note_off_c, 0, 36, 0
1, 474916, Note_off_c, 0, 48, 0
1, 474916, Note_off_c, 0, 36, 0
1, 474916, Note_off_c, 0, 48, 0
1, 475012, Note_off_c, 0, 60, 0
1, 475012, Note_off_c, 0, 72, 0
1, 475012, Note_on_c, 0, 64, 36
1, 475012, Note_on_c, 0, 67, 36
1, 475012, Note_on_c, 0, 55, 36
1, 475012, Note_on_c, 0, 72, 43
1, 475012, Note_on_c, 0, 36, 23
1, 475012, Note_on_c, 0, 48, 23
1, 475012, Note_on_c, 0, 52, 36
1, 475012, Note_on_c, 0, 55, 36
1, 475012, Note_on_c, 0, 43, 36
1, 475012, Note_on_c, 0, 60, 43
1, 475012, Note_on_c, 0, 24, 23
1, 475012, Note_on_c, 0, 36, 23
1, 475204, Note_off_c, 0, 60, 0
1, 475204, Note_off_c, 0, 72, 0
1, 475204, Note_on_c, 0, 84, 43
1, 475204, Note_on_c, 0, 72, 43
1, 475300, Note_off_c, 0, 36, 0
1, 475300, Note_off_c, 0, 24, 0
1, 475300, Note_off_c, 0, 43, 0
1, 475300, Note_off_c, 0, 55, 0
1, 475300, Note_off_c, 0, 52, 0
1, 475300, Note_off_c, 0, 48, 0
1, 475300, Note_off_c, 0, 36, 0
1, 475300, Note_off_c, 0, 55, 0
1, 475300, Note_off_c, 0, 67, 0
1, 475300, Note_off_c, 0, 64, 0
1, 475396, Note_off_c, 0, 72, 0
1, 475396, Note_off_c, 0, 84, 0
1, 475396, Note_on_c, 0, 48, 36
1, 475396, Note_on_c, 0, 72, 43
1, 475396, Note_on_c, 0, 36, 23
1, 475396, Note_on_c, 0, 48, 23
1, 475396, Note_on_c, 0, 36, 36
1, 475396, Note_on_c, 0, 60, 43
1, 475396, Note_on_c, 0, 24, 23
1, 475396, Note_on_c, 0, 36, 23
1, 475588, Note_off_c, 0, 60, 0
1, 475588, Note_off_c, 0, 72, 0
1, 475588, Note_on_c, 0, 72, 43
1, 475588, Note_on_c, 0, 60, 43
1, 475684, Note_off_c, 0, 60, 0
1, 475684, Note_off_c, 0, 72, 0
1, 475684, Note_off_c, 0, 36, 0
1, 475684, Note_off_c, 0, 24, 0
1, 475684, Note_off_c, 0, 36, 0
1, 475684, Note_off_c, 0, 48, 0
1, 475684, Note_off_c, 0, 36, 0
1, 475684, Note_off_c, 0, 48, 0
1, 475684, Note_on_c, 0, 72, 43
1, 475684, Note_on_c, 0, 60, 43
1, 475780, Note_off_c, 0, 60, 0
1, 475780, Note_off_c, 0, 72, 0
1, 475780, Note_on_c, 0, 64, 36
1, 475780, Note_on_c, 0, 67, 36
1, 475780, Note_on_c, 0, 55, 36
1, 475780, Note_on_c, 0, 84, 43
1, 475780, Note_on_c, 0, 36, 23
1, 475780, Note_on_c, 0, 48, 23
1, 475780, Note_on_c, 0, 52, 36
1, 475780, Note_on_c, 0, 55, 36
1, 475780, Note_on_c, 0, 43, 36
1, 475780, Note_on_c, 0, 72, 43
1, 475780, Note_on_c, 0, 24, 23
1, 475780, Note_on_c, 0, 36, 23
1, 475972, Note_off_c, 0, 72, 0
1, 475972, Note_off_c, 0, 55, 0
1, 475972, Note_off_c, 0, 52, 0
1, 475972, Note_off_c, 0, 84, 0
1, 475972, Note_off_c, 0, 67, 0
1, 475972, Note_off_c, 0, 64, 0
1, 475972, Note_on_c, 0, 65, 36
1, 475972, Note_on_c, 0, 72, 43
1, 475972, Note_on_c, 0, 53, 36
1, 475972, Note_on_c, 0, 60, 43
1, 476068, Note_off_c, 0, 60, 0
1, 476068, Note_off_c, 0, 72, 0
1, 476068, Note_off_c, 0, 36, 0
1, 476068, Note_off_c, 0, 24, 0
1, 476068, Note_off_c, 0, 43, 0
1, 476068, Note_off_c, 0, 48, 0
1, 476068, Note_off_c, 0, 36, 0
1, 476068, Note_off_c, 0, 55, 0
1, 476068, Note_on_c, 0, 72, 43
1, 476068, Note_on_c, 0, 60, 43
1, 476164, Note_off_c, 0, 60, 0
1, 476164, Note_off_c, 0, 72, 0
1, 476164, Note_off_c, 0, 53, 0
1, 476164, Note_off_c, 0, 65, 0
1, 476164, Note_on_c, 0, 62, 36
1, 476164, Note_on_c, 0, 65, 36
1, 476164, Note_on_c, 0, 50, 36
1, 476164, Note_on_c, 0, 57, 36
1, 476164, Note_on_c, 0, 74, 43
1, 476164, Note_on_c, 0, 38, 23
1, 476164, Note_on_c, 0, 50, 23
1, 476164, Note_on_c, 0, 50, 36
1, 476164, Note_on_c, 0, 53, 36
1, 476164, Note_on_c, 0, 38, 36
1, 476164, Note_on_c, 0, 45, 36
1, 476164, Note_on_c, 0, 62, 43
1, 476164, Note_on_c, 0, 26, 23
1, 476164, Note_on_c, 0, 38, 23
1, 476260, Note_off_c, 0, 62, 0
1, 476260, Note_off_c, 0, 74, 0
1, 476260, Note_on_c, 0, 74, 43
1, 476260, Note_on_c, 0, 62, 43
1, 476356, Note_off_c, 0, 62, 0
1, 476356, Note_off_c, 0, 74, 0
1, 476356, Note_off_c, 0, 53, 0
1, 476356, Note_off_c, 0, 50, 0
1, 476356, Note_off_c, 0, 65, 0
1, 476356, Note_off_c, 0, 62, 0
1, 476356, Note_on_c, 0, 62, 36
1, 476356, Note_on_c, 0, 74, 43
1, 476356, Note_on_c, 0, 50, 36
1, 476356, Note_on_c, 0, 62, 43
1, 476452, Note_off_c, 0, 38, 0
1, 476452, Note_off_c, 0, 26, 0
1, 476452, Note_off_c, 0, 50, 0
1, 476452, Note_off_c, 0, 38, 0
1, 476548, Note_off_c, 0, 62, 0
1, 476548, Note_off_c, 0, 50, 0
1, 476548, Note_off_c, 0, 74, 0
1, 476548, Note_off_c, 0, 62, 0
1, 476548, Note_on_c, 0, 64, 36
1, 476548, Note_on_c, 0, 74, 43
1, 476548, Note_on_c, 0, 38, 23
1, 476548, Note_on_c, 0, 50, 23
1, 476548, Note_on_c, 0, 52, 36
1, 476548, Note_on_c, 0, 62, 43
1, 476548, Note_on_c, 0, 26, 23
1, 476548, Note_on_c, 0, 38, 23
1, 476740, Note_off_c, 0, 62, 0
1, 476740, Note_off_c, 0, 52, 0
1, 476740, Note_off_c, 0, 74, 0
1, 476740, Note_off_c, 0, 64, 0
1, 476740, Note_on_c, 0, 65, 36
1, 476740, Note_on_c, 0, 86, 43
1, 476740, Note_on_c, 0, 53, 36
1, 476740, Note_on_c, 0, 74, 43
1, 476836, Note_off_c, 0, 38, 0
1, 476836, Note_off_c, 0, 26, 0
1, 476836, Note_off_c, 0, 50, 0
1, 476836, Note_off_c, 0, 38, 0
1, 476932, Note_off_c, 0, 74, 0
1, 476932, Note_off_c, 0, 53, 0
1, 476932, Note_off_c, 0, 86, 0
1, 476932, Note_off_c, 0, 65, 0
1, 476932, Note_on_c, 0, 62, 36
1, 476932, Note_on_c, 0, 74, 43
1, 476932, Note_on_c, 0, 38, 23
1, 476932, Note_on_c, 0, 50, 23
1, 476932, Note_on_c, 0, 50, 36
1, 476932, Note_on_c, 0, 62, 43
1, 476932, Note_on_c, 0, 26, 23
1, 476932, Note_on_c, 0, 38, 23
1, 477124, Note_off_c, 0, 62, 0
1, 477124, Note_off_c, 0, 50, 0
1, 477124, Note_off_c, 0, 74, 0
1, 477124, Note_off_c, 0, 62, 0
1, 477124, Note_on_c, 0, 64, 36
1, 477124, Note_on_c, 0, 74, 43
1, 477124, Note_on_c, 0, 52, 36
1, 477124, Note_on_c, 0, 62, 43
1, 477220, Note_off_c, 0, 62, 0
1, 477220, Note_off_c, 0, 74, 0
1, 477220, Note_off_c, 0, 38, 0
1, 477220, Note_off_c, 0, 26, 0
1, 477220, Note_off_c, 0, 50, 0
1, 477220, Note_off_c, 0, 38, 0
1, 477220, Note_on_c, 0, 74, 43
1, 477220, Note_on_c, 0, 62, 43
1, 477316, Note_off_c, 0, 62, 0
1, 477316, Note_off_c, 0, 74, 0
1, 477316, Note_off_c, 0, 52, 0
1, 477316, Note_off_c, 0, 64, 0
1, 477316, Note_on_c, 0, 65, 36
1, 477316, Note_on_c, 0, 86, 43
1, 477316, Note_on_c, 0, 38, 23
1, 477316, Note_on_c, 0, 50, 23
1, 477316, Note_on_c, 0, 53, 36
1, 477316, Note_on_c, 0, 74, 43
1, 477316, Note_on_c, 0, 26, 23
1, 477316, Note_on_c, 0, 38, 23
1, 477508, Note_off_c, 0, 74, 0
1, 477508, Note_off_c, 0, 53, 0
1, 477508, Note_off_c, 0, 86, 0
1, 477508, Note_off_c, 0, 65, 0
1, 477508, Note_on_c, 0, 62, 36
1, 477508, Note_on_c, 0, 74, 43
1, 477508, Note_on_c, 0, 50, 36
1, 477508, Note_on_c, 0, 62, 43
1, 477604, Note_off_c, 0, 62, 0
1, 477604, Note_off_c, 0, 74, 0
1, 477604, Note_off_c, 0, 38, 0
1, 477604, Note_off_c, 0, 26, 0
1, 477604, Note_off_c, 0, 50, 0
1, 477604, Note_off_c, 0, 38, 0
1, 477604, Note_off_c, 0, 45, 0
1, 477604, Note_off_c, 0, 38, 0
1, 477604, Note_off_c, 0, 57, 0
1, 477604, Note_off_c, 0, 50, 0
1, 477604, Note_on_c, 0, 74, 43
1, 477604, Note_on_c, 0, 62, 43
1, 477700, Note_off_c, 0, 62, 0
1, 477700, Note_off_c, 0, 74, 0
1, 477700, Note_off_c, 0, 50, 0
1, 477700, Note_off_c, 0, 62, 0
1, 477700, Note_on_c, 0, 65, 36
1, 477700, Note_on_c, 0, 69, 36
1, 477700, Note_on_c, 0, 50, 36
1, 477700, Note_on_c, 0, 74, 43
1, 477700, Note_on_c, 0, 36, 23
1, 477700, Note_on_c, 0, 48, 23
1, 477700, Note_on_c, 0, 53, 36
1, 477700, Note_on_c, 0, 57, 36
1, 477700, Note_on_c, 0, 38, 36
1, 477700, Note_on_c, 0, 62, 43
1, 477700, Note_on_c, 0, 24, 23
1, 477700, Note_on_c, 0, 36, 23
1, 477796, Note_off_c, 0, 62, 0
1, 477796, Note_off_c, 0, 74, 0
1, 477796, Note_on_c, 0, 74, 43
1, 477796, Note_on_c, 0, 62, 43
1, 477892, Note_off_c, 0, 62, 0
1, 477892, Note_off_c, 0, 74, 0
1, 477892, Note_on_c, 0, 74, 43
1, 477892, Note_on_c, 0, 62, 43
1, 477988, Note_off_c, 0, 36, 0
1, 477988, Note_off_c, 0, 24, 0
1, 477988, Note_off_c, 0, 57, 0
1, 477988, Note_off_c, 0, 53, 0
1, 477988, Note_off_c, 0, 48, 0
1, 477988, Note_off_c, 0, 36, 0
1, 477988, Note_off_c, 0, 69, 0
1, 477988, Note_off_c, 0, 65, 0
1, 478084, Note_off_c, 0, 62, 0
1, 478084, Note_off_c, 0, 74, 0
1, 478084, Note_on_c, 0, 72, 36
1, 478084, Note_on_c, 0, 74, 43
1, 478084, Note_on_c, 0, 36, 23
1, 478084, Note_on_c, 0, 48, 23
1, 478084, Note_on_c, 0, 60, 36
1, 478084, Note_on_c, 0, 62, 43
1, 478084, Note_on_c, 0, 24, 23
1, 478084, Note_on_c, 0, 36, 23
1, 478276, Note_off_c, 0, 62, 0
1, 478276, Note_off_c, 0, 74, 0
1, 478276, Note_on_c, 0, 86, 43
1, 478276, Note_on_c, 0, 74, 43
1, 478372, Note_off_c, 0, 36, 0
1, 478372, Note_off_c, 0, 24, 0
1, 478372, Note_off_c, 0, 60, 0
1, 478372, Note_off_c, 0, 48, 0
1, 478372, Note_off_c, 0, 36, 0
1, 478372, Note_off_c, 0, 72, 0
1, 478372, Note_off_c, 0, 38, 0
1, 478372, Note_off_c, 0, 50, 0
1, 478468, Note_off_c, 0, 74, 0
1, 478468, Note_off_c, 0, 86, 0
1, 478468, Note_on_c, 0, 69, 36
1, 478468, Note_on_c, 0, 74, 36
1, 478468, Note_on_c, 0, 52, 36
1, 478468, Note_on_c, 0, 76, 43
1, 478468, Note_on_c, 0, 38, 23
1, 478468, Note_on_c, 0, 50, 23
1, 478468, Note_on_c, 0, 57, 36
1, 478468, Note_on_c, 0, 62, 36
1, 478468, Note_on_c, 0, 40, 36
1, 478468, Note_on_c, 0, 64, 43
1, 478468, Note_on_c, 0, 26, 23
1, 478468, Note_on_c, 0, 38, 23
1, 478564, Note_off_c, 0, 64, 0
1, 478564, Note_off_c, 0, 76, 0
1, 478564, Note_on_c, 0, 76, 43
1, 478564, Note_on_c, 0, 64, 43
1, 478660, Note_off_c, 0, 64, 0
1, 478660, Note_off_c, 0, 76, 0
1, 478660, Note_on_c, 0, 76, 43
1, 478660, Note_on_c, 0, 64, 43
1, 478756, Note_off_c, 0, 38, 0
1, 478756, Note_off_c, 0, 26, 0
1, 478756, Note_off_c, 0, 62, 0
1, 478756, Note_off_c, 0, 57, 0
1, 478756, Note_off_c, 0, 50, 0
1, 478756, Note_off_c, 0, 38, 0
1, 478756, Note_off_c, 0, 74, 0
1, 478756, Note_off_c, 0, 69, 0
1, 478852, Note_off_c, 0, 64, 0
1, 478852, Note_off_c, 0, 76, 0
1, 478852, Note_on_c, 0, 76, 36
1, 478852, Note_on_c, 0, 76, 43
1, 478852, Note_on_c, 0, 38, 23
1, 478852, Note_on_c, 0, 50, 23
1, 478852, Note_on_c, 0, 64, 36
1, 478852, Note_on_c, 0, 64, 43
1, 478852, Note_on_c, 0, 26, 23
1, 478852, Note_on_c, 0, 38, 23
1, 479044, Note_off_c, 0, 64, 0
1, 479044, Note_off_c, 0, 76, 0
1, 479044, Note_on_c, 0, 88, 43
1, 479044, Note_on_c, 0, 76, 43
1, 479140, Note_off_c, 0, 38, 0
1, 479140, Note_off_c, 0, 26, 0
1, 479140, Note_off_c, 0, 64, 0
1, 479140, Note_off_c, 0, 50, 0
1, 479140, Note_off_c, 0, 38, 0
1, 479140, Note_off_c, 0, 76, 0
1, 479140, Note_off_c, 0, 40, 0
1, 479140, Note_off_c, 0, 52, 0
1, 479236, Note_off_c, 0, 76, 0
1, 479236, Note_off_c, 0, 88, 0
1, 479236, Note_on_c, 0, 70, 36
1, 479236, Note_on_c, 0, 77, 36
1, 479236, Note_on_c, 0, 53, 36
1, 479236, Note_on_c, 0, 77, 43
1, 479236, Note_on_c, 0, 41, 23
1, 479236, Note_on_c, 0, 53, 23
1, 479236, Note_on_c, 0, 58, 36
1, 479236, Note_on_c, 0, 65, 36
1, 479236, Note_on_c, 0, 41, 36
1, 479236, Note_on_c, 0, 65, 43
1, 479236, Note_on_c, 0, 29, 23
1, 479236, Note_on_c, 0, 41, 23
1, 479332, Note_off_c, 0, 65, 0
1, 479332, Note_off_c, 0, 77, 0
1, 479332, Note_on_c, 0, 77, 43
1, 479332, Note_on_c, 0, 65, 43
1, 479428, Note_off_c, 0, 65, 0
1, 479428, Note_off_c, 0, 77, 0
1, 479428, Note_off_c, 0, 41, 0
1, 479428, Note_off_c, 0, 29, 0
1, 479428, Note_off_c, 0, 53, 0
1, 479428, Note_off_c, 0, 41, 0
1, 479428, Note_on_c, 0, 77, 43
1, 479428, Note_on_c, 0, 41, 23
1, 479428, Note_on_c, 0, 53, 23
1, 479428, Note_on_c, 0, 65, 43
1, 479428, Note_on_c, 0, 29, 23
1, 479428, Note_on_c, 0, 41, 23
1, 479620, Note_off_c, 0, 41, 0
1, 479620, Note_off_c, 0, 29, 0
1, 479620, Note_off_c, 0, 65, 0
1, 479620, Note_off_c, 0, 53, 0
1, 479620, Note_off_c, 0, 41, 0
1, 479620, Note_off_c, 0, 77, 0
1, 479620, Note_on_c, 0, 77, 43
1, 479620, Note_on_c, 0, 41, 23
1, 479620, Note_on_c, 0, 53, 23
1, 479620, Note_on_c, 0, 65, 43
1, 479620, Note_on_c, 0, 29, 23
1, 479620, Note_on_c, 0, 41, 23
1, 479812, Note_off_c, 0, 41, 0
1, 479812, Note_off_c, 0, 29, 0
1, 479812, Note_off_c, 0, 65, 0
1, 479812, Note_off_c, 0, 53, 0
1, 479812, Note_off_c, 0, 41, 0
1, 479812, Note_off_c, 0, 77, 0
1, 479812, Note_on_c, 0, 89, 43
1, 479812, Note_on_c, 0, 41, 23
1, 479812, Note_on_c, 0, 53, 23
1, 479812, Note_on_c, 0, 77, 43
1, 479812, Note_on_c, 0, 29, 23
1, 479812, Note_on_c, 0, 41, 23
1, 479908, Note_off_c, 0, 65, 0
1, 479908, Note_off_c, 0, 58, 0
1, 479908, Note_off_c, 0, 77, 0
1, 479908, Note_off_c, 0, 70, 0
1, 480004, Note_off_c, 0, 41, 0
1, 480004, Note_off_c, 0, 29, 0
1, 480004, Note_off_c, 0, 77, 0
1, 480004, Note_off_c, 0, 53, 0
1, 480004, Note_off_c, 0, 41, 0
1, 480004, Note_off_c, 0, 89, 0
1, 480004, Note_on_c, 0, 77, 36
1, 480004, Note_on_c, 0, 77, 43
1, 480004, Note_on_c, 0, 41, 23
1, 480004, Note_on_c, 0, 53, 23
1, 480004, Note_on_c, 0, 65, 36
1, 480004, Note_on_c, 0, 65, 43
1, 480004, Note_on_c, 0, 29, 23
1, 480004, Note_on_c, 0, 41, 23
1, 480196, Note_off_c, 0, 41, 0
1, 480196, Note_off_c, 0, 29, 0
1, 480196, Note_off_c, 0, 65, 0
1, 480196, Note_off_c, 0, 65, 0
1, 480196, Note_off_c, 0, 53, 0
1, 480196, Note_off_c, 0, 41, 0
1, 480196, Note_off_c, 0, 77, 0
1, 480196, Note_off_c, 0, 77, 0
1, 480196, Note_on_c, 0, 76, 36
1, 480196, Note_on_c, 0, 77, 43
1, 480196, Note_on_c, 0, 41, 23
1, 480196, Note_on_c, 0, 53, 23
1, 480196, Note_on_c, 0, 64, 36
1, 480196, Note_on_c, 0, 65, 43
1, 480196, Note_on_c, 0, 29, 23
1, 480196, Note_on_c, 0, 41, 23
1, 480292, Note_off_c, 0, 65, 0
1, 480292, Note_off_c, 0, 77, 0
1, 480292, Note_on_c, 0, 77, 43
1, 480292, Note_on_c, 0, 65, 43
1, 480388, Note_off_c, 0, 65, 0
1, 480388, Note_off_c, 0, 77, 0
1, 480388, Note_off_c, 0, 41, 0
1, 480388, Note_off_c, 0, 29, 0
1, 480388, Note_off_c, 0, 64, 0
1, 480388, Note_off_c, 0, 53, 0
1, 480388, Note_off_c, 0, 41, 0
1, 480388, Note_off_c, 0, 76, 0
1, 480388, Note_on_c, 0, 72, 36
1, 480388, Note_on_c, 0, 89, 43
1, 480388, Note_on_c, 0, 41, 23
1, 480388, Note_on_c, 0, 53, 23
1, 480388, Note_on_c, 0, 60, 36
1, 480388, Note_on_c, 0, 77, 43
1, 480388, Note_on_c, 0, 29, 23
1, 480388, Note_on_c, 0, 41, 23
1, 480580, Note_off_c, 0, 41, 0
1, 480580, Note_off_c, 0, 29, 0
1, 480580, Note_off_c, 0, 77, 0
1, 480580, Note_off_c, 0, 60, 0
1, 480580, Note_off_c, 0, 53, 0
1, 480580, Note_off_c, 0, 41, 0
1, 480580, Note_off_c, 0, 89, 0
1, 480580, Note_off_c, 0, 72, 0
1, 480580, Note_on_c, 0, 69, 36
1, 480580, Note_on_c, 0, 77, 43
1, 480580, Note_on_c, 0, 41, 23
1, 480580, Note_on_c, 0, 53, 23
1, 480580, Note_on_c, 0, 57, 36
1, 480580, Note_on_c, 0, 65, 43
1, 480580, Note_on_c, 0, 29, 23
1, 480580, Note_on_c, 0, 41, 23
1, 480676, Note_off_c, 0, 65, 0
1, 480676, Note_off_c, 0, 77, 0
1, 480676, Note_off_c, 0, 41, 0
1, 480676, Note_off_c, 0, 53, 0
1, 480676, Note_on_c, 0, 77, 43
1, 480676, Note_on_c, 0, 65, 43
1, 480772, Note_off_c, 0, 65, 0
1, 480772, Note_off_c, 0, 77, 0
1, 480772, Note_off_c, 0, 41, 0
1, 480772, Note_off_c, 0, 29, 0
1, 480772, Note_off_c, 0, 57, 0
1, 480772, Note_off_c, 0, 53, 0
1, 480772, Note_off_c, 0, 41, 0
1, 480772, Note_off_c, 0, 69, 0
1, 480772, Note_on_c, 0, 65, 36
1, 480772, Note_on_c, 0, 69, 36
1, 480772, Note_on_c, 0, 55, 36
1, 480772, Note_on_c, 0, 79, 43
1, 480772, Note_on_c, 0, 43, 23
1, 480772, Note_on_c, 0, 55, 23
1, 480772, Note_on_c, 0, 53, 36
1, 480772, Note_on_c, 0, 57, 36
1, 480772, Note_on_c, 0, 43, 36
1, 480772, Note_on_c, 0, 67, 43
1, 480772, Note_on_c, 0, 31, 23
1, 480772, Note_on_c, 0, 43, 23
1, 480868, Note_off_c, 0, 67, 0
1, 480868, Note_off_c, 0, 79, 0
1, 480868, Note_on_c, 0, 79, 43
1, 480868, Note_on_c, 0, 67, 43
1, 480964, Note_off_c, 0, 67, 0
1, 480964, Note_off_c, 0, 79, 0
1, 480964, Note_off_c, 0, 43, 0
1, 480964, Note_off_c, 0, 31, 0
1, 480964, Note_off_c, 0, 55, 0
1, 480964, Note_off_c, 0, 43, 0
1, 480964, Note_on_c, 0, 79, 43
1, 480964, Note_on_c, 0, 43, 23
1, 480964, Note_on_c, 0, 55, 23
1, 480964, Note_on_c, 0, 67, 43
1, 480964, Note_on_c, 0, 31, 23
1, 480964, Note_on_c, 0, 43, 23
1, 481060, Note_off_c, 0, 57, 0
1, 481060, Note_off_c, 0, 53, 0
1, 481060, Note_off_c, 0, 69, 0
1, 481060, Note_off_c, 0, 65, 0
1, 481156, Note_off_c, 0, 43, 0
1, 481156, Note_off_c, 0, 31, 0
1, 481156, Note_off_c, 0, 67, 0
1, 481156, Note_off_c, 0, 55, 0
1, 481156, Note_off_c, 0, 43, 0
1, 481156, Note_off_c, 0, 79, 0
1, 481156, Note_on_c, 0, 72, 36
1, 481156, Note_on_c, 0, 79, 43
1, 481156, Note_on_c, 0, 43, 23
1, 481156, Note_on_c, 0, 55, 23
1, 481156, Note_on_c, 0, 60, 36
1, 481156, Note_on_c, 0, 67, 43
1, 481156, Note_on_c, 0, 31, 23
1, 481156, Note_on_c, 0, 43, 23
1, 481252, Note_off_c, 0, 60, 0
1, 481252, Note_off_c, 0, 72, 0
1, 481284, Note_on_c, 0, 69, 36
1, 481284, Note_on_c, 0, 57, 36
1, 481348, Note_off_c, 0, 43, 0
1, 481348, Note_off_c, 0, 31, 0
1, 481348, Note_off_c, 0, 67, 0
1, 481348, Note_off_c, 0, 55, 0
1, 481348, Note_off_c, 0, 43, 0
1, 481348, Note_off_c, 0, 79, 0
1, 481348, Note_on_c, 0, 91, 43
1, 481348, Note_on_c, 0, 43, 23
1, 481348, Note_on_c, 0, 55, 23
1, 481348, Note_on_c, 0, 79, 43
1, 481348, Note_on_c, 0, 31, 23
1, 481348, Note_on_c, 0, 43, 23
1, 481380, Note_off_c, 0, 57, 0
1, 481380, Note_off_c, 0, 69, 0
1, 481413, Note_on_c, 0, 72, 36
1, 481413, Note_on_c, 0, 60, 36
1, 481509, Note_off_c, 0, 60, 0
1, 481509, Note_off_c, 0, 72, 0
1, 481541, Note_off_c, 0, 43, 0
1, 481541, Note_off_c, 0, 31, 0
1, 481541, Note_off_c, 0, 79, 0
1, 481541, Note_off_c, 0, 55, 0
1, 481541, Note_off_c, 0, 43, 0
1, 481541, Note_off_c, 0, 91, 0
1, 481541, Note_on_c, 0, 69, 36
1, 481541, Note_on_c, 0, 79, 43
1, 481541, Note_on_c, 0, 43, 23
1, 481541, Note_on_c, 0, 55, 23
1, 481541, Note_on_c, 0, 57, 36
1, 481541, Note_on_c, 0, 67, 43
1, 481541, Note_on_c, 0, 31, 23
1, 481541, Note_on_c, 0, 43, 23
1, 481733, Note_off_c, 0, 43, 0
1, 481733, Note_off_c, 0, 31, 0
1, 481733, Note_off_c, 0, 67, 0
1, 481733, Note_off_c, 0, 55, 0
1, 481733, Note_off_c, 0, 43, 0
1, 481733, Note_off_c, 0, 79, 0
1, 481733, Note_on_c, 0, 79, 43
1, 481733, Note_on_c, 0, 43, 23
1, 481733, Note_on_c, 0, 55, 23
1, 481733, Note_on_c, 0, 67, 43
1, 481733, Note_on_c, 0, 31, 23
1, 481733, Note_on_c, 0, 43, 23
1, 481829, Note_off_c, 0, 67, 0
1, 481829, Note_off_c, 0, 79, 0
1, 481829, Note_off_c, 0, 57, 0
1, 481829, Note_off_c, 0, 69, 0
1, 481829, Note_on_c, 0, 79, 43
1, 481829, Note_on_c, 0, 67, 43
1, 481925, Note_off_c, 0, 67, 0
1, 481925, Note_off_c, 0, 79, 0
1, 481925, Note_off_c, 0, 43, 0
1, 481925, Note_off_c, 0, 31, 0
1, 481925, Note_off_c, 0, 55, 0
1, 481925, Note_off_c, 0, 43, 0
1, 481925, Note_on_c, 0, 65, 36
1, 481925, Note_on_c, 0, 91, 43
1, 481925, Note_on_c, 0, 43, 23
1, 481925, Note_on_c, 0, 55, 23
1, 481925, Note_on_c, 0, 53, 36
1, 481925, Note_on_c, 0, 79, 43
1, 481925, Note_on_c, 0, 31, 23
1, 481925, Note_on_c, 0, 43, 23
1, 482117, Note_off_c, 0, 43, 0
1, 482117, Note_off_c, 0, 31, 0
1, 482117, Note_off_c, 0, 79, 0
1, 482117, Note_off_c, 0, 53, 0
1, 482117, Note_off_c, 0, 55, 0
1, 482117, Note_off_c, 0, 43, 0
1, 482117, Note_off_c, 0, 91, 0
1, 482117, Note_off_c, 0, 65, 0
1, 482117, Note_on_c, 0, 64, 36
1, 482117, Note_on_c, 0, 79, 43
1, 482117, Note_on_c, 0, 43, 23
1, 482117, Note_on_c, 0, 55, 23
1, 482117, Note_on_c, 0, 52, 36
1, 482117, Note_on_c, 0, 67, 43
1, 482117, Note_on_c, 0, 31, 23
1, 482117, Note_on_c, 0, 43, 23
1, 482213, Note_off_c, 0, 67, 0
1, 482213, Note_off_c, 0, 79, 0
1, 482213, Note_off_c, 0, 43, 0
1, 482213, Note_off_c, 0, 55, 0
1, 482213, Note_on_c, 0, 79, 43
1, 482213, Note_on_c, 0, 67, 43
1, 482309, Note_off_c, 0, 67, 0
1, 482309, Note_off_c, 0, 79, 0
1, 482309, Note_off_c, 0, 43, 0
1, 482309, Note_off_c, 0, 31, 0
1, 482309, Note_off_c, 0, 52, 0
1, 482309, Note_off_c, 0, 55, 0
1, 482309, Note_off_c, 0, 43, 0
1, 482309, Note_off_c, 0, 64, 0
1, 482309, Note_on_c, 0, 62, 36
1, 482309, Note_on_c, 0, 67, 36
1, 482309, Note_on_c, 0, 50, 36
1, 482309, Note_on_c, 0, 74, 43
1, 482309, Note_on_c, 0, 38, 23
1, 482309, Note_on_c, 0, 50, 23
1, 482309, Note_on_c, 0, 50, 36
1, 482309, Note_on_c, 0, 55, 36
1, 482309, Note_on_c, 0, 38, 36
1, 482309, Note_on_c, 0, 62, 43
1, 482309, Note_on_c, 0, 26, 23
1, 482309, Note_on_c, 0, 38, 23
1, 482405, Note_off_c, 0, 38, 0
1, 482405, Note_off_c, 0, 26, 0
1, 482405, Note_off_c, 0, 62, 0
1, 482405, Note_off_c, 0, 50, 0
1, 482405, Note_off_c, 0, 38, 0
1, 482405, Note_off_c, 0, 74, 0
1, 482405, Note_on_c, 0, 74, 43
1, 482405, Note_on_c, 0, 38, 23
1, 482405, Note_on_c, 0, 50, 23
1, 482405, Note_on_c, 0, 62, 43
1, 482405, Note_on_c, 0, 26, 23
1, 482405, Note_on_c, 0, 38, 23
1, 482501, Note_off_c, 0, 38, 0
1, 482501, Note_off_c, 0, 26, 0
1, 482501, Note_off_c, 0, 62, 0
1, 482501, Note_off_c, 0, 50, 0
1, 482501, Note_off_c, 0, 38, 0
1, 482501, Note_off_c, 0, 74, 0
1, 482501, Note_on_c, 0, 74, 43
1, 482501, Note_on_c, 0, 38, 23
1, 482501, Note_on_c, 0, 50, 23
1, 482501, Note_on_c, 0, 62, 43
1, 482501, Note_on_c, 0, 26, 23
1, 482501, Note_on_c, 0, 38, 23
1, 482597, Note_off_c, 0, 38, 0
1, 482597, Note_off_c, 0, 26, 0
1, 482597, Note_off_c, 0, 50, 0
1, 482597, Note_off_c, 0, 38, 0
1, 482597, Note_on_c, 0, 38, 23
1, 482597, Note_on_c, 0, 50, 23
1, 482597, Note_on_c, 0, 26, 23
1, 482597, Note_on_c, 0, 38, 23
1, 482693, Note_off_c, 0, 38, 0
1, 482693, Note_off_c, 0, 26, 0
1, 482693, Note_off_c, 0, 50, 0
1, 482693, Note_off_c, 0, 38, 0
1, 482693, Note_off_c, 0, 62, 0
1, 482693, Note_off_c, 0, 74, 0
1, 482693, Note_on_c, 0, 74, 43
1, 482693, Note_on_c, 0, 38, 23
1, 482693, Note_on_c, 0, 50, 23
1, 482693, Note_on_c, 0, 62, 43
1, 482693, Note_on_c, 0, 26, 23
1, 482693, Note_on_c, 0, 38, 23
1, 482789, Note_off_c, 0, 38, 0
1, 482789, Note_off_c, 0, 26, 0
1, 482789, Note_off_c, 0, 50, 0
1, 482789, Note_off_c, 0, 38, 0
1, 482789, Note_off_c, 0, 55, 0
1, 482789, Note_off_c, 0, 50, 0
1, 482789, Note_off_c, 0, 67, 0
1, 482789, Note_off_c, 0, 62, 0
1, 482789, Note_on_c, 0, 38, 23
1, 482789, Note_on_c, 0, 50, 23
1, 482789, Note_on_c, 0, 26, 23
1, 482789, Note_on_c, 0, 38, 23
1, 482885, Note_off_c, 0, 38, 0
1, 482885, Note_off_c, 0, 26, 0
1, 482885, Note_off_c, 0, 50, 0
1, 482885, Note_off_c, 0, 38, 0
1, 482885, Note_off_c, 0, 62, 0
1, 482885, Note_off_c, 0, 74, 0
1, 482885, Note_on_c, 0, 69, 36
1, 482885, Note_on_c, 0, 86, 43
1, 482885, Note_on_c, 0, 38, 23
1, 482885, Note_on_c, 0, 50, 23
1, 482885, Note_on_c, 0, 57, 36
1, 482885, Note_on_c, 0, 74, 43
1, 482885, Note_on_c, 0, 26, 23
1, 482885, Note_on_c, 0, 38, 23
1, 482981, Note_off_c, 0, 38, 0
1, 482981, Note_off_c, 0, 26, 0
1, 482981, Note_off_c, 0, 50, 0
1, 482981, Note_off_c, 0, 38, 0
1, 482981, Note_on_c, 0, 38, 23
1, 482981, Note_on_c, 0, 50, 23
1, 482981, Note_on_c, 0, 26, 23
1, 482981, Note_on_c, 0, 38, 23
1, 483077, Note_off_c, 0, 38, 0
1, 483077, Note_off_c, 0, 26, 0
1, 483077, Note_off_c, 0, 50, 0
1, 483077, Note_off_c, 0, 38, 0
1, 483077, Note_off_c, 0, 74, 0
1, 483077, Note_off_c, 0, 86, 0
1, 483077, Note_on_c, 0, 74, 43
1, 483077, Note_on_c, 0, 38, 23
1, 483077, Note_on_c, 0, 50, 23
1, 483077, Note_on_c, 0, 62, 43
1, 483077, Note_on_c, 0, 26, 23
1, 483077, Note_on_c, 0, 38, 23
1, 483173, Note_off_c, 0, 38, 0
1, 483173, Note_off_c, 0, 26, 0
1, 483173, Note_off_c, 0, 50, 0
1, 483173, Note_off_c, 0, 38, 0
1, 483173, Note_off_c, 0, 57, 0
1, 483173, Note_off_c, 0, 69, 0
1, 483173, Note_on_c, 0, 38, 23
1, 483173, Note_on_c, 0, 50, 23
1, 483173, Note_on_c, 0, 26, 23
1, 483173, Note_on_c, 0, 38, 23
1, 483269, Note_off_c, 0, 38, 0
1, 483269, Note_off_c, 0, 26, 0
1, 483269, Note_off_c, 0, 50, 0
1, 483269, Note_off_c, 0, 38, 0
1, 483269, Note_off_c, 0, 62, 0
1, 483269, Note_off_c, 0, 74, 0
1, 483269, Note_on_c, 0, 62, 36
1, 483269, Note_on_c, 0, 74, 43
1, 483269, Note_on_c, 0, 38, 23
1, 483269, Note_on_c, 0, 50, 23
1, 483269, Note_on_c, 0, 50, 36
1, 483269, Note_on_c, 0, 62, 43
1, 483269, Note_on_c, 0, 26, 23
1, 483269, Note_on_c, 0, 38, 23
1, 483365, Note_off_c, 0, 38, 0
1, 483365, Note_off_c, 0, 26, 0
1, 483365, Note_off_c, 0, 62, 0
1, 483365, Note_off_c, 0, 50, 0
1, 483365, Note_off_c, 0, 38, 0
1, 483365, Note_off_c, 0, 74, 0
1, 483365, Note_on_c, 0, 74, 43
1, 483365, Note_on_c, 0, 38, 23
1, 483365, Note_on_c, 0, 50, 23
1, 483365, Note_on_c, 0, 62, 43
1, 483365, Note_on_c, 0, 26, 23
1, 483365, Note_on_c, 0, 38, 23
1, 483461, Note_off_c, 0, 38, 0
1, 483461, Note_off_c, 0, 26, 0
1, 483461, Note_off_c, 0, 62, 0
1, 483461, Note_off_c, 0, 50, 0
1, 483461, Note_off_c, 0, 38, 0
1, 483461, Note_off_c, 0, 74, 0
1, 483461, Note_off_c, 0, 50, 0
1, 483461, Note_off_c, 0, 62, 0
1, 483461, Note_on_c, 0, 64, 36
1, 483461, Note_on_c, 0, 86, 43
1, 483461, Note_on_c, 0, 38, 23
1, 483461, Note_on_c, 0, 50, 23
1, 483461, Note_on_c, 0, 52, 36
1, 483461, Note_on_c, 0, 74, 43
1, 483461, Note_on_c, 0, 26, 23
1, 483461, Note_on_c, 0, 38, 23
1, 483557, Note_off_c, 0, 38, 0
1, 483557, Note_off_c, 0, 26, 0
1, 483557, Note_off_c, 0, 50, 0
1, 483557, Note_off_c, 0, 38, 0
1, 483557, Note_on_c, 0, 38, 23
1, 483557, Note_on_c, 0, 50, 23
1, 483557, Note_on_c, 0, 26, 23
1, 483557, Note_on_c, 0, 38, 23
1, 483653, Note_off_c, 0, 38, 0
1, 483653, Note_off_c, 0, 26, 0
1, 483653, Note_off_c, 0, 50, 0
1, 483653, Note_off_c, 0, 38, 0
1, 483653, Note_off_c, 0, 74, 0
1, 483653, Note_off_c, 0, 52, 0
1, 483653, Note_off_c, 0, 86, 0
1, 483653, Note_off_c, 0, 64, 0
1, 483653, Note_on_c, 0, 65, 36
1, 483653, Note_on_c, 0, 74, 43
1, 483653, Note_on_c, 0, 38, 23
1, 483653, Note_on_c, 0, 50, 23
1, 483653, Note_on_c, 0, 53, 36
1, 483653, Note_on_c, 0, 62, 43
1, 483653, Note_on_c, 0, 26, 23
1, 483653, Note_on_c, 0, 38, 23
1, 483749, Note_off_c, 0, 38, 0
1, 483749, Note_off_c, 0, 26, 0
1, 483749, Note_off_c, 0, 62, 0
1, 483749, Note_off_c, 0, 50, 0
1, 483749, Note_off_c, 0, 38, 0
1, 483749, Note_off_c, 0, 74, 0
1, 483749, Note_on_c, 0, 74, 43
1, 483749, Note_on_c, 0, 38, 23
1, 483749, Note_on_c, 0, 50, 23
1, 483749, Note_on_c, 0, 62, 43
1, 483749, Note_on_c, 0, 26, 23
1, 483749, Note_on_c, 0, 38, 23
1, 483845, Note_off_c, 0, 38, 0
1, 483845, Note_off_c, 0, 26, 0
1, 483845, Note_off_c, 0, 62, 0
1, 483845, Note_off_c, 0, 50, 0
1, 483845, Note_off_c, 0, 38, 0
1, 483845, Note_off_c, 0, 74, 0
1, 483845, Note_off_c, 0, 53, 0
1, 483845, Note_off_c, 0, 65, 0
1, 483845, Note_on_c, 0, 57, 36
1, 483845, Note_on_c, 0, 62, 36
1, 483845, Note_on_c, 0, 62, 43
1, 483845, Note_on_c, 0, 74, 43
1, 483845, Note_on_c, 0, 38, 23
1, 483845, Note_on_c, 0, 50, 23
1, 483845, Note_on_c, 0, 45, 36
1, 483845, Note_on_c, 0, 50, 36
1, 483845, Note_on_c, 0, 50, 43
1, 483845, Note_on_c, 0, 62, 43
1, 483845, Note_on_c, 0, 26, 23
1, 483845, Note_on_c, 0, 38, 23
1, 484133, Note_off_c, 0, 38, 0
1, 484133, Note_off_c, 0, 26, 0
1, 484133, Note_off_c, 0, 62, 0
1, 484133, Note_off_c, 0, 50, 0
1, 484133, Note_off_c, 0, 50, 0
1, 484133, Note_off_c, 0, 38, 0
1, 484133, Note_off_c, 0, 74, 0
1, 484133, Note_off_c, 0, 62, 0
1, 484133, Note_on_c, 0, 62, 43
1, 484133, Note_on_c, 0, 74, 43
1, 484133, Note_on_c, 0, 38, 23
1, 484133, Note_on_c, 0, 50, 23
1, 484133, Note_on_c, 0, 50, 43
1, 484133, Note_on_c, 0, 62, 43
1, 484133, Note_on_c, 0, 26, 23
1, 484133, Note_on_c, 0, 38, 23
1, 484229, Note_off_c, 0, 50, 0
1, 484229, Note_off_c, 0, 45, 0
1, 484229, Note_off_c, 0, 62, 0
1, 484229, Note_off_c, 0, 57, 0
1, 484229, Note_on_c, 0, 60, 36
1, 484229, Note_on_c, 0, 48, 36
1, 484421, Note_off_c, 0, 38, 0
1, 484421, Note_off_c, 0, 26, 0
1, 484421, Note_off_c, 0, 62, 0
1, 484421, Note_off_c, 0, 50, 0
1, 484421, Note_off_c, 0, 50, 0
1, 484421, Note_off_c, 0, 38, 0
1, 484421, Note_off_c, 0, 74, 0
1, 484421, Note_off_c, 0, 62, 0
1, 484421, Note_on_c, 0, 62, 43
1, 484421, Note_on_c, 0, 74, 43
1, 484421, Note_on_c, 0, 38, 23
1, 484421, Note_on_c, 0, 50, 23
1, 484421, Note_on_c, 0, 50, 43
1, 484421, Note_on_c, 0, 62, 43
1, 484421, Note_on_c, 0, 26, 23
1, 484421, Note_on_c, 0, 38, 23
1, 484613, Note_off_c, 0, 48, 0
1, 484613, Note_off_c, 0, 60, 0
1, 484613, Note_on_c, 0, 57, 36
1, 484613, Note_on_c, 0, 45, 36
1, 484709, Note_off_c, 0, 38, 0
1, 484709, Note_off_c, 0, 26, 0
1, 484709, Note_off_c, 0, 62, 0
1, 484709, Note_off_c, 0, 50, 0
1, 484709, Note_off_c, 0, 50, 0
1, 484709, Note_off_c, 0, 38, 0
1, 484709, Note_off_c, 0, 74, 0
1, 484709, Note_off_c, 0, 62, 0
1, 484709, Note_on_c, 0, 62, 43
1, 484709, Note_on_c, 0, 74, 43
1, 484709, Note_on_c, 0, 38, 23
1, 484709, Note_on_c, 0, 50, 23
1, 484709, Note_on_c, 0, 50, 43
1, 484709, Note_on_c, 0, 62, 43
1, 484709, Note_on_c, 0, 26, 23
1, 484709, Note_on_c, 0, 38, 23
1, 484901, Note_off_c, 0, 45, 0
1, 484901, Note_off_c, 0, 57, 0
1, 484997, Note_off_c, 0, 38, 0
1, 484997, Note_off_c, 0, 26, 0
1, 484997, Note_off_c, 0, 62, 0
1, 484997, Note_off_c, 0, 50, 0
1, 484997, Note_off_c, 0, 50, 0
1, 484997, Note_off_c, 0, 38, 0
1, 484997, Note_off_c, 0, 74, 0
1, 484997, Note_off_c, 0, 62, 0
1, 484997, Note_on_c, 0, 62, 43
1, 484997, Note_on_c, 0, 74, 43
1, 484997, Note_on_c, 0, 38, 23
1, 484997, Note_on_c, 0, 50, 23
1, 484997, Note_on_c, 0, 50, 43
1, 484997, Note_on_c, 0, 62, 43
1, 484997, Note_on_c, 0, 26, 23
1, 484997, Note_on_c, 0, 38, 23
1, 485189, Note_off_c, 0, 62, 0
1, 485189, Note_off_c, 0, 74, 0
1, 485189, Note_off_c, 0, 62, 0
1, 485189, Note_on_c, 0, 62, 43
1, 485189, Note_on_c, 0, 74, 43
1, 485189, Note_on_c, 0, 62, 43
1, 485285, Note_off_c, 0, 38, 0
1, 485285, Note_off_c, 0, 26, 0
1, 485285, Note_off_c, 0, 50, 0
1, 485285, Note_off_c, 0, 50, 0
1, 485285, Note_off_c, 0, 38, 0
1, 485285, Note_off_c, 0, 38, 0
1, 485285, Note_off_c, 0, 50, 0
1, 485381, Note_off_c, 0, 62, 0
1, 485381, Note_off_c, 0, 74, 0
1, 485381, Note_off_c, 0, 62, 0
1, 485381, Note_on_c, 0, 62, 43
1, 485381, Note_on_c, 0, 38, 23
1, 485381, Note_on_c, 0, 50, 23
1, 485381, Note_on_c, 0, 74, 43
1, 485381, Note_on_c, 0, 26, 23
1, 487685, Note_off_c, 0, 26, 0
1, 487685, Note_off_c, 0, 74, 0
1, 487685, Note_off_c, 0, 50, 0
1, 487685, Note_off_c, 0, 38, 0
1, 487685, Note_off_c, 0, 62, 0
1, 488453, Note_on_c, 0, 71, 36
1, 488453, Note_on_c, 0, 59, 36
1, 488837, Note_off_c, 0, 59, 0
1, 488837, Note_off_c, 0, 71, 0
1, 488933, Note_on_c, 0, 71, 36
1, 488933, Note_on_c, 0, 59, 36
1, 489317, Note_off_c, 0, 59, 0
1, 489317, Note_off_c, 0, 71, 0
1, 489509, Note_on_c, 0, 71, 36
1, 489509, Note_on_c, 0, 59, 36
1, 489893, Note_off_c, 0, 59, 0
1, 489893, Note_off_c, 0, 71, 0
1, 489989, Note_on_c, 0, 71, 36
1, 489989, Note_on_c, 0, 35, 36
1, 489989, Note_on_c, 0, 47, 36
1, 489989, Note_on_c, 0, 78, 43
1, 489989, Note_on_c, 0, 85, 43
1, 489989, Note_on_c, 0, 59, 23
1, 489989, Note_on_c, 0, 59, 36
1, 489989, Note_on_c, 0, 24, 36
1, 489989, Note_on_c, 0, 35, 36
1, 489989, Note_on_c, 0, 66, 43
1, 489989, Note_on_c, 0, 73, 43
1, 489989, Note_on_c, 0, 47, 23
1, 490181, Note_off_c, 0, 59, 0
1, 490181, Note_off_c, 0, 71, 0
1, 490181, Note_on_c, 0, 71, 36
1, 490181, Note_on_c, 0, 59, 36
1, 490277, Note_off_c, 0, 47, 0
1, 490277, Note_off_c, 0, 35, 0
1, 490277, Note_off_c, 0, 24, 0
1, 490277, Note_off_c, 0, 59, 0
1, 490277, Note_off_c, 0, 47, 0
1, 490277, Note_off_c, 0, 35, 0
1, 490373, Note_off_c, 0, 59, 0
1, 490373, Note_off_c, 0, 71, 0
1, 490373, Note_on_c, 0, 71, 36
1, 490373, Note_on_c, 0, 35, 36
1, 490373, Note_on_c, 0, 47, 36
1, 490373, Note_on_c, 0, 66, 23
1, 490373, Note_on_c, 0, 59, 36
1, 490373, Note_on_c, 0, 24, 36
1, 490373, Note_on_c, 0, 35, 36
1, 490373, Note_on_c, 0, 54, 23
1, 490565, Note_off_c, 0, 54, 0
1, 490565, Note_off_c, 0, 59, 0
1, 490565, Note_off_c, 0, 66, 0
1, 490565, Note_off_c, 0, 71, 0
1, 490565, Note_on_c, 0, 71, 36
1, 490565, Note_on_c, 0, 71, 23
1, 490565, Note_on_c, 0, 59, 36
1, 490565, Note_on_c, 0, 59, 23
1, 490661, Note_off_c, 0, 35, 0
1, 490661, Note_off_c, 0, 24, 0
1, 490661, Note_off_c, 0, 47, 0
1, 490661, Note_off_c, 0, 35, 0
1, 490757, Note_off_c, 0, 59, 0
1, 490757, Note_off_c, 0, 59, 0
1, 490757, Note_off_c, 0, 71, 0
1, 490757, Note_off_c, 0, 71, 0
1, 490757, Note_on_c, 0, 71, 36
1, 490757, Note_on_c, 0, 35, 36
1, 490757, Note_on_c, 0, 47, 36
1, 490757, Note_on_c, 0, 59, 23
1, 490757, Note_on_c, 0, 59, 36
1, 490757, Note_on_c, 0, 24, 36
1, 490757, Note_on_c, 0, 35, 36
1, 490757, Note_on_c, 0, 47, 23
1, 490949, Note_off_c, 0, 59, 0
1, 490949, Note_off_c, 0, 71, 0
1, 490949, Note_on_c, 0, 71, 36
1, 490949, Note_on_c, 0, 59, 36
1, 491045, Note_off_c, 0, 47, 0
1, 491045, Note_off_c, 0, 35, 0
1, 491045, Note_off_c, 0, 24, 0
1, 491045, Note_off_c, 0, 59, 0
1, 491045, Note_off_c, 0, 47, 0
1, 491045, Note_off_c, 0, 35, 0
1, 491141, Note_off_c, 0, 59, 0
1, 491141, Note_off_c, 0, 71, 0
1, 491141, Note_on_c, 0, 71, 36
1, 491141, Note_on_c, 0, 35, 36
1, 491141, Note_on_c, 0, 47, 36
1, 491141, Note_on_c, 0, 66, 23
1, 491141, Note_on_c, 0, 59, 36
1, 491141, Note_on_c, 0, 24, 36
1, 491141, Note_on_c, 0, 35, 36
1, 491141, Note_on_c, 0, 54, 23
1, 491333, Note_off_c, 0, 54, 0
1, 491333, Note_off_c, 0, 59, 0
1, 491333, Note_off_c, 0, 66, 0
1, 491333, Note_off_c, 0, 71, 0
1, 491333, Note_on_c, 0, 71, 36
1, 491333, Note_on_c, 0, 71, 23
1, 491333, Note_on_c, 0, 59, 36
1, 491333, Note_on_c, 0, 59, 23
1, 491429, Note_off_c, 0, 35, 0
1, 491429, Note_off_c, 0, 24, 0
1, 491429, Note_off_c, 0, 47, 0
1, 491429, Note_off_c, 0, 35, 0
1, 491429, Note_off_c, 0, 73, 0
1, 491429, Note_off_c, 0, 66, 0
1, 491429, Note_off_c, 0, 85, 0
1, 491429, Note_off_c, 0, 78, 0
1, 491525, Note_off_c, 0, 59, 0
1, 491525, Note_off_c, 0, 59, 0
1, 491525, Note_off_c, 0, 71, 0
1, 491525, Note_off_c, 0, 71, 0
1, 491525, Note_on_c, 0, 71, 36
1, 491525, Note_on_c, 0, 35, 36
1, 491525, Note_on_c, 0, 47, 36
1, 491525, Note_on_c, 0, 85, 43
1, 491525, Note_on_c, 0, 78, 43
1, 491525, Note_on_c, 0, 59, 23
1, 491525, Note_on_c, 0, 59, 36
1, 491525, Note_on_c, 0, 24, 36
1, 491525, Note_on_c, 0, 35, 36
1, 491525, Note_on_c, 0, 73, 43
1, 491525, Note_on_c, 0, 66, 43
1, 491525, Note_on_c, 0, 47, 23
1, 491717, Note_off_c, 0, 59, 0
1, 491717, Note_off_c, 0, 71, 0
1, 491717, Note_on_c, 0, 71, 36
1, 491717, Note_on_c, 0, 59, 36
1, 491813, Note_off_c, 0, 47, 0
1, 491813, Note_off_c, 0, 35, 0
1, 491813, Note_off_c, 0, 24, 0
1, 491813, Note_off_c, 0, 59, 0
1, 491813, Note_off_c, 0, 47, 0
1, 491813, Note_off_c, 0, 35, 0
1, 491909, Note_off_c, 0, 59, 0
1, 491909, Note_off_c, 0, 71, 0
1, 491909, Note_on_c, 0, 71, 36
1, 491909, Note_on_c, 0, 35, 36
1, 491909, Note_on_c, 0, 47, 36
1, 491909, Note_on_c, 0, 66, 23
1, 491909, Note_on_c, 0, 59, 36
1, 491909, Note_on_c, 0, 24, 36
1, 491909, Note_on_c, 0, 35, 36
1, 491909, Note_on_c, 0, 54, 23
1, 492005, Note_off_c, 0, 73, 0
1, 492005, Note_off_c, 0, 85, 0
1, 492101, Note_off_c, 0, 54, 0
1, 492101, Note_off_c, 0, 59, 0
1, 492101, Note_off_c, 0, 66, 0
1, 492101, Note_off_c, 0, 71, 0
1, 492101, Note_on_c, 0, 71, 36
1, 492101, Note_on_c, 0, 83, 43
1, 492101, Note_on_c, 0, 71, 23
1, 492101, Note_on_c, 0, 59, 36
1, 492101, Note_on_c, 0, 71, 43
1, 492101, Note_on_c, 0, 59, 23
1, 492197, Note_off_c, 0, 35, 0
1, 492197, Note_off_c, 0, 24, 0
1, 492197, Note_off_c, 0, 47, 0
1, 492197, Note_off_c, 0, 35, 0
1, 492293, Note_off_c, 0, 59, 0
1, 492293, Note_off_c, 0, 59, 0
1, 492293, Note_off_c, 0, 71, 0
1, 492293, Note_off_c, 0, 71, 0
1, 492293, Note_on_c, 0, 71, 36
1, 492293, Note_on_c, 0, 35, 36
1, 492293, Note_on_c, 0, 47, 36
1, 492293, Note_on_c, 0, 59, 23
1, 492293, Note_on_c, 0, 59, 36
1, 492293, Note_on_c, 0, 24, 36
1, 492293, Note_on_c, 0, 35, 36
1, 492293, Note_on_c, 0, 47, 23
1, 492485, Note_off_c, 0, 59, 0
1, 492485, Note_off_c, 0, 71, 0
1, 492485, Note_on_c, 0, 71, 36
1, 492485, Note_on_c, 0, 59, 36
1, 492581, Note_off_c, 0, 47, 0
1, 492581, Note_off_c, 0, 35, 0
1, 492581, Note_off_c, 0, 24, 0
1, 492581, Note_off_c, 0, 59, 0
1, 492581, Note_off_c, 0, 47, 0
1, 492581, Note_off_c, 0, 35, 0
1, 492581, Note_off_c, 0, 71, 0
1, 492581, Note_off_c, 0, 83, 0
1, 492677, Note_off_c, 0, 59, 0
1, 492677, Note_off_c, 0, 71, 0
1, 492677, Note_on_c, 0, 71, 36
1, 492677, Note_on_c, 0, 35, 36
1, 492677, Note_on_c, 0, 47, 36
1, 492677, Note_on_c, 0, 90, 43
1, 492677, Note_on_c, 0, 66, 23
1, 492677, Note_on_c, 0, 59, 36
1, 492677, Note_on_c, 0, 24, 36
1, 492677, Note_on_c, 0, 35, 36
1, 492677, Note_on_c, 0, 54, 23
1, 492677, Note_on_c, 0, 78, 43
1, 492869, Note_off_c, 0, 54, 0
1, 492869, Note_off_c, 0, 35, 0
1, 492869, Note_off_c, 0, 24, 0
1, 492869, Note_off_c, 0, 59, 0
1, 492869, Note_off_c, 0, 66, 0
1, 492869, Note_off_c, 0, 47, 0
1, 492869, Note_off_c, 0, 35, 0
1, 492869, Note_off_c, 0, 71, 0
1, 492869, Note_on_c, 0, 71, 36
1, 492869, Note_on_c, 0, 35, 36
1, 492869, Note_on_c, 0, 47, 36
1, 492869, Note_on_c, 0, 71, 23
1, 492869, Note_on_c, 0, 59, 36
1, 492869, Note_on_c, 0, 24, 36
1, 492869, Note_on_c, 0, 35, 36
1, 492869, Note_on_c, 0, 59, 23
1, 492965, Note_off_c, 0, 78, 0
1, 492965, Note_off_c, 0, 90, 0
1, 492965, Note_off_c, 0, 66, 0
1, 492965, Note_off_c, 0, 78, 0
1, 493061, Note_off_c, 0, 59, 0
1, 493061, Note_off_c, 0, 35, 0
1, 493061, Note_off_c, 0, 24, 0
1, 493061, Note_off_c, 0, 59, 0
1, 493061, Note_off_c, 0, 71, 0
1, 493061, Note_off_c, 0, 47, 0
1, 493061, Note_off_c, 0, 35, 0
1, 493061, Note_off_c, 0, 71, 0
1, 493061, Note_on_c, 0, 71, 36
1, 493061, Note_on_c, 0, 33, 36
1, 493061, Note_on_c, 0, 45, 36
1, 493061, Note_on_c, 0, 78, 43
1, 493061, Note_on_c, 0, 85, 43
1, 493061, Note_on_c, 0, 57, 23
1, 493061, Note_on_c, 0, 59, 36
1, 493061, Note_on_c, 0, 31, 36
1, 493061, Note_on_c, 0, 33, 36
1, 493061, Note_on_c, 0, 66, 43
1, 493061, Note_on_c, 0, 73, 43
1, 493061, Note_on_c, 0, 45, 23
1, 493253, Note_off_c, 0, 59, 0
1, 493253, Note_off_c, 0, 71, 0
1, 493253, Note_on_c, 0, 71, 36
1, 493253, Note_on_c, 0, 59, 36
1, 493349, Note_off_c, 0, 45, 0
1, 493349, Note_off_c, 0, 33, 0
1, 493349, Note_off_c, 0, 31, 0
1, 493349, Note_off_c, 0, 57, 0
1, 493349, Note_off_c, 0, 45, 0
1, 493349, Note_off_c, 0, 33, 0
1, 493445, Note_off_c, 0, 59, 0
1, 493445, Note_off_c, 0, 71, 0
1, 493445, Note_on_c, 0, 71, 36
1, 493445, Note_on_c, 0, 33, 36
1, 493445, Note_on_c, 0, 45, 36
1, 493445, Note_on_c, 0, 64, 23
1, 493445, Note_on_c, 0, 59, 36
1, 493445, Note_on_c, 0, 31, 36
1, 493445, Note_on_c, 0, 33, 36
1, 493445, Note_on_c, 0, 52, 23
1, 493637, Note_off_c, 0, 52, 0
1, 493637, Note_off_c, 0, 59, 0
1, 493637, Note_off_c, 0, 64, 0
1, 493637, Note_off_c, 0, 71, 0
1, 493637, Note_on_c, 0, 71, 36
1, 493637, Note_on_c, 0, 69, 23
1, 493637, Note_on_c, 0, 59, 36
1, 493637, Note_on_c, 0, 57, 23
1, 493733, Note_off_c, 0, 33, 0
1, 493733, Note_off_c, 0, 31, 0
1, 493733, Note_off_c, 0, 45, 0
1, 493733, Note_off_c, 0, 33, 0
1, 493829, Note_off_c, 0, 57, 0
1, 493829, Note_off_c, 0, 59, 0
1, 493829, Note_off_c, 0, 69, 0
1, 493829, Note_off_c, 0, 71, 0
1, 493829, Note_on_c, 0, 71, 36
1, 493829, Note_on_c, 0, 33, 36
1, 493829, Note_on_c, 0, 45, 36
1, 493829, Note_on_c, 0, 57, 23
1, 493829, Note_on_c, 0, 59, 36
1, 493829, Note_on_c, 0, 31, 36
1, 493829, Note_on_c, 0, 33, 36
1, 493829, Note_on_c, 0, 45, 23
1, 494021, Note_off_c, 0, 59, 0
1, 494021, Note_off_c, 0, 71, 0
1, 494021, Note_on_c, 0, 71, 36
1, 494021, Note_on_c, 0, 59, 36
1, 494117, Note_off_c, 0, 45, 0
1, 494117, Note_off_c, 0, 33, 0
1, 494117, Note_off_c, 0, 31, 0
1, 494117, Note_off_c, 0, 57, 0
1, 494117, Note_off_c, 0, 45, 0
1, 494117, Note_off_c, 0, 33, 0
1, 494213, Note_off_c, 0, 59, 0
1, 494213, Note_off_c, 0, 71, 0
1, 494213, Note_on_c, 0, 71, 36
1, 494213, Note_on_c, 0, 33, 36
1, 494213, Note_on_c, 0, 45, 36
1, 494213, Note_on_c, 0, 64, 23
1, 494213, Note_on_c, 0, 59, 36
1, 494213, Note_on_c, 0, 31, 36
1, 494213, Note_on_c, 0, 33, 36
1, 494213, Note_on_c, 0, 52, 23
1, 494405, Note_off_c, 0, 52, 0
1, 494405, Note_off_c, 0, 59, 0
1, 494405, Note_off_c, 0, 64, 0
1, 494405, Note_off_c, 0, 71, 0
1, 494405, Note_on_c, 0, 71, 36
1, 494405, Note_on_c, 0, 69, 23
1, 494405, Note_on_c, 0, 59, 36
1, 494405, Note_on_c, 0, 57, 23
1, 494501, Note_off_c, 0, 33, 0
1, 494501, Note_off_c, 0, 31, 0
1, 494501, Note_off_c, 0, 45, 0
1, 494501, Note_off_c, 0, 33, 0
1, 494501, Note_off_c, 0, 73, 0
1, 494501, Note_off_c, 0, 66, 0
1, 494501, Note_off_c, 0, 85, 0
1, 494501, Note_off_c, 0, 78, 0
1, 494597, Note_off_c, 0, 57, 0
1, 494597, Note_off_c, 0, 59, 0
1, 494597, Note_off_c, 0, 69, 0
1, 494597, Note_off_c, 0, 71, 0
1, 494597, Note_on_c, 0, 71, 36
1, 494597, Note_on_c, 0, 33, 36
1, 494597, Note_on_c, 0, 45, 36
1, 494597, Note_on_c, 0, 85, 43
1, 494597, Note_on_c, 0, 78, 43
1, 494597, Note_on_c, 0, 57, 23
1, 494597, Note_on_c, 0, 59, 36
1, 494597, Note_on_c, 0, 31, 36
1, 494597, Note_on_c, 0, 33, 36
1, 494597, Note_on_c, 0, 73, 43
1, 494597, Note_on_c, 0, 66, 43
1, 494597, Note_on_c, 0, 45, 23
1, 494789, Note_off_c, 0, 59, 0
1, 494789, Note_off_c, 0, 71, 0
1, 494789, Note_on_c, 0, 71, 36
1, 494789, Note_on_c, 0, 59, 36
1, 494885, Note_off_c, 0, 45, 0
1, 494885, Note_off_c, 0, 33, 0
1, 494885, Note_off_c, 0, 31, 0
1, 494885, Note_off_c, 0, 57, 0
1, 494885, Note_off_c, 0, 45, 0
1, 494885, Note_off_c, 0, 33, 0
1, 494981, Note_off_c, 0, 59, 0
1, 494981, Note_off_c, 0, 71, 0
1, 494981, Note_on_c, 0, 71, 36
1, 494981, Note_on_c, 0, 33, 36
1, 494981, Note_on_c, 0, 45, 36
1, 494981, Note_on_c, 0, 64, 23
1, 494981, Note_on_c, 0, 59, 36
1, 494981, Note_on_c, 0, 31, 36
1, 494981, Note_on_c, 0, 33, 36
1, 494981, Note_on_c, 0, 52, 23
1, 495077, Note_off_c, 0, 73, 0
1, 495077, Note_off_c, 0, 85, 0
1, 495173, Note_off_c, 0, 52, 0
1, 495173, Note_off_c, 0, 59, 0
1, 495173, Note_off_c, 0, 64, 0
1, 495173, Note_off_c, 0, 71, 0
1, 495173, Note_on_c, 0, 71, 36
1, 495173, Note_on_c, 0, 83, 43
1, 495173, Note_on_c, 0, 69, 23
1, 495173, Note_on_c, 0, 59, 36
1, 495173, Note_on_c, 0, 71, 43
1, 495173, Note_on_c, 0, 57, 23
1, 495269, Note_off_c, 0, 33, 0
1, 495269, Note_off_c, 0, 31, 0
1, 495269, Note_off_c, 0, 45, 0
1, 495269, Note_off_c, 0, 33, 0
1, 495365, Note_off_c, 0, 57, 0
1, 495365, Note_off_c, 0, 59, 0
1, 495365, Note_off_c, 0, 69, 0
1, 495365, Note_off_c, 0, 71, 0
1, 495365, Note_on_c, 0, 71, 36
1, 495365, Note_on_c, 0, 33, 36
1, 495365, Note_on_c, 0, 45, 36
1, 495365, Note_on_c, 0, 57, 23
1, 495365, Note_on_c, 0, 59, 36
1, 495365, Note_on_c, 0, 31, 36
1, 495365, Note_on_c, 0, 33, 36
1, 495365, Note_on_c, 0, 45, 23
1, 495557, Note_off_c, 0, 59, 0
1, 495557, Note_off_c, 0, 71, 0
1, 495557, Note_on_c, 0, 71, 36
1, 495557, Note_on_c, 0, 59, 36
1, 495653, Note_off_c, 0, 45, 0
1, 495653, Note_off_c, 0, 33, 0
1, 495653, Note_off_c, 0, 31, 0
1, 495653, Note_off_c, 0, 57, 0
1, 495653, Note_off_c, 0, 45, 0
1, 495653, Note_off_c, 0, 33, 0
1, 495653, Note_off_c, 0, 71, 0
1, 495653, Note_off_c, 0, 83, 0
1, 495749, Note_off_c, 0, 59, 0
1, 495749, Note_off_c, 0, 71, 0
1, 495749, Note_on_c, 0, 71, 36
1, 495749, Note_on_c, 0, 33, 36
1, 495749, Note_on_c, 0, 45, 36
1, 495749, Note_on_c, 0, 90, 43
1, 495749, Note_on_c, 0, 64, 23
1, 495749, Note_on_c, 0, 59, 36
1, 495749, Note_on_c, 0, 31, 36
1, 495749, Note_on_c, 0, 33, 36
1, 495749, Note_on_c, 0, 78, 43
1, 495749, Note_on_c, 0, 52, 23
1, 495941, Note_off_c, 0, 52, 0
1, 495941, Note_off_c, 0, 33, 0
1, 495941, Note_off_c, 0, 31, 0
1, 495941, Note_off_c, 0, 59, 0
1, 495941, Note_off_c, 0, 64, 0
1, 495941, Note_off_c, 0, 45, 0
1, 495941, Note_off_c, 0, 33, 0
1, 495941, Note_off_c, 0, 71, 0
1, 495941, Note_on_c, 0, 71, 36
1, 495941, Note_on_c, 0, 33, 36
1, 495941, Note_on_c, 0, 45, 36
1, 495941, Note_on_c, 0, 69, 23
1, 495941, Note_on_c, 0, 59, 36
1, 495941, Note_on_c, 0, 31, 36
1, 495941, Note_on_c, 0, 33, 36
1, 495941, Note_on_c, 0, 57, 23
1, 496037, Note_off_c, 0, 78, 0
1, 496037, Note_off_c, 0, 90, 0
1, 496037, Note_off_c, 0, 66, 0
1, 496037, Note_off_c, 0, 78, 0
1, 496133, Note_off_c, 0, 57, 0
1, 496133, Note_off_c, 0, 33, 0
1, 496133, Note_off_c, 0, 31, 0
1, 496133, Note_off_c, 0, 59, 0
1, 496133, Note_off_c, 0, 69, 0
1, 496133, Note_off_c, 0, 45, 0
1, 496133, Note_off_c, 0, 33, 0
1, 496133, Note_off_c, 0, 71, 0
1, 496133, Note_on_c, 0, 71, 36
1, 496133, Note_on_c, 0, 32, 36
1, 496133, Note_on_c, 0, 44, 36
1, 496133, Note_on_c, 0, 78, 43
1, 496133, Note_on_c, 0, 85, 43
1, 496133, Note_on_c, 0, 56, 23
1, 496133, Note_on_c, 0, 59, 36
1, 496133, Note_on_c, 0, 30, 36
1, 496133, Note_on_c, 0, 32, 36
1, 496133, Note_on_c, 0, 66, 43
1, 496133, Note_on_c, 0, 73, 43
1, 496133, Note_on_c, 0, 44, 23
1, 496325, Note_off_c, 0, 59, 0
1, 496325, Note_off_c, 0, 71, 0
1, 496325, Note_on_c, 0, 71, 36
1, 496325, Note_on_c, 0, 59, 36
1, 496421, Note_off_c, 0, 44, 0
1, 496421, Note_off_c, 0, 32, 0
1, 496421, Note_off_c, 0, 30, 0
1, 496421, Note_off_c, 0, 56, 0
1, 496421, Note_off_c, 0, 44, 0
1, 496421, Note_off_c, 0, 32, 0
1, 496517, Note_off_c, 0, 59, 0
1, 496517, Note_off_c, 0, 71, 0
1, 496517, Note_on_c, 0, 71, 36
1, 496517, Note_on_c, 0, 32, 36
1, 496517, Note_on_c, 0, 44, 36
1, 496517, Note_on_c, 0, 64, 23
1, 496517, Note_on_c, 0, 59, 36
1, 496517, Note_on_c, 0, 30, 36
1, 496517, Note_on_c, 0, 32, 36
1, 496517, Note_on_c, 0, 52, 23
1, 496709, Note_off_c, 0, 52, 0
1, 496709, Note_off_c, 0, 59, 0
1, 496709, Note_off_c, 0, 64, 0
1, 496709, Note_off_c, 0, 71, 0
1, 496709, Note_on_c, 0, 71, 36
1, 496709, Note_on_c, 0, 68, 23
1, 496709, Note_on_c, 0, 59, 36
1, 496709, Note_on_c, 0, 56, 23
1, 496805, Note_off_c, 0, 32, 0
1, 496805, Note_off_c, 0, 30, 0
1, 496805, Note_off_c, 0, 44, 0
1, 496805, Note_off_c, 0, 32, 0
1, 496901, Note_off_c, 0, 56, 0
1, 496901, Note_off_c, 0, 59, 0
1, 496901, Note_off_c, 0, 68, 0
1, 496901, Note_off_c, 0, 71, 0
1, 496901, Note_on_c, 0, 71, 36
1, 496901, Note_on_c, 0, 32, 36
1, 496901, Note_on_c, 0, 44, 36
1, 496901, Note_on_c, 0, 56, 23
1, 496901, Note_on_c, 0, 59, 36
1, 496901, Note_on_c, 0, 30, 36
1, 496901, Note_on_c, 0, 32, 36
1, 496901, Note_on_c, 0, 44, 23
1, 497093, Note_off_c, 0, 59, 0
1, 497093, Note_off_c, 0, 71, 0
1, 497093, Note_on_c, 0, 71, 36
1, 497093, Note_on_c, 0, 59, 36
1, 497189, Note_off_c, 0, 44, 0
1, 497189, Note_off_c, 0, 32, 0
1, 497189, Note_off_c, 0, 30, 0
1, 497189, Note_off_c, 0, 56, 0
1, 497189, Note_off_c, 0, 44, 0
1, 497189, Note_off_c, 0, 32, 0
1, 497285, Note_off_c, 0, 59, 0
1, 497285, Note_off_c, 0, 71, 0
1, 497285, Note_on_c, 0, 71, 36
1, 497285, Note_on_c, 0, 32, 36
1, 497285, Note_on_c, 0, 44, 36
1, 497285, Note_on_c, 0, 64, 23
1, 497285, Note_on_c, 0, 59, 36
1, 497285, Note_on_c, 0, 30, 36
1, 497285, Note_on_c, 0, 32, 36
1, 497285, Note_on_c, 0, 52, 23
1, 497477, Note_off_c, 0, 52, 0
1, 497477, Note_off_c, 0, 59, 0
1, 497477, Note_off_c, 0, 64, 0
1, 497477, Note_off_c, 0, 71, 0
1, 497477, Note_on_c, 0, 71, 36
1, 497477, Note_on_c, 0, 68, 23
1, 497477, Note_on_c, 0, 59, 36
1, 497477, Note_on_c, 0, 56, 23
1, 497573, Note_off_c, 0, 32, 0
1, 497573, Note_off_c, 0, 30, 0
1, 497573, Note_off_c, 0, 44, 0
1, 497573, Note_off_c, 0, 32, 0
1, 497573, Note_off_c, 0, 73, 0
1, 497573, Note_off_c, 0, 66, 0
1, 497573, Note_off_c, 0, 85, 0
1, 497573, Note_off_c, 0, 78, 0
1, 497669, Note_off_c, 0, 56, 0
1, 497669, Note_off_c, 0, 59, 0
1, 497669, Note_off_c, 0, 68, 0
1, 497669, Note_off_c, 0, 71, 0
1, 497669, Note_on_c, 0, 71, 36
1, 497669, Note_on_c, 0, 32, 36
1, 497669, Note_on_c, 0, 44, 36
1, 497669, Note_on_c, 0, 85, 43
1, 497669, Note_on_c, 0, 78, 43
1, 497669, Note_on_c, 0, 56, 23
1, 497669, Note_on_c, 0, 59, 36
1, 497669, Note_on_c, 0, 30, 36
1, 497669, Note_on_c, 0, 32, 36
1, 497669, Note_on_c, 0, 73, 43
1, 497669, Note_on_c, 0, 66, 43
1, 497669, Note_on_c, 0, 44, 23
1, 497861, Note_off_c, 0, 59, 0
1, 497861, Note_off_c, 0, 71, 0
1, 497861, Note_on_c, 0, 71, 36
1, 497861, Note_on_c, 0, 59, 36
1, 497957, Note_off_c, 0, 44, 0
1, 497957, Note_off_c, 0, 32, 0
1, 497957, Note_off_c, 0, 30, 0
1, 497957, Note_off_c, 0, 56, 0
1, 497957, Note_off_c, 0, 44, 0
1, 497957, Note_off_c, 0, 32, 0
1, 498053, Note_off_c, 0, 59, 0
1, 498053, Note_off_c, 0, 71, 0
1, 498053, Note_on_c, 0, 71, 36
1, 498053, Note_on_c, 0, 32, 36
1, 498053, Note_on_c, 0, 44, 36
1, 498053, Note_on_c, 0, 64, 23
1, 498053, Note_on_c, 0, 59, 36
1, 498053, Note_on_c, 0, 30, 36
1, 498053, Note_on_c, 0, 32, 36
1, 498053, Note_on_c, 0, 52, 23
1, 498149, Note_off_c, 0, 73, 0
1, 498149, Note_off_c, 0, 85, 0
1, 498245, Note_off_c, 0, 52, 0
1, 498245, Note_off_c, 0, 59, 0
1, 498245, Note_off_c, 0, 64, 0
1, 498245, Note_off_c, 0, 71, 0
1, 498245, Note_on_c, 0, 71, 36
1, 498245, Note_on_c, 0, 83, 43
1, 498245, Note_on_c, 0, 68, 23
1, 498245, Note_on_c, 0, 59, 36
1, 498245, Note_on_c, 0, 71, 43
1, 498245, Note_on_c, 0, 56, 23
1, 498341, Note_off_c, 0, 32, 0
1, 498341, Note_off_c, 0, 30, 0
1, 498341, Note_off_c, 0, 44, 0
1, 498341, Note_off_c, 0, 32, 0
1, 498437, Note_off_c, 0, 56, 0
1, 498437, Note_off_c, 0, 59, 0
1, 498437, Note_off_c, 0, 68, 0
1, 498437, Note_off_c, 0, 71, 0
1, 498437, Note_on_c, 0, 71, 36
1, 498437, Note_on_c, 0, 32, 36
1, 498437, Note_on_c, 0, 44, 36
1, 498437, Note_on_c, 0, 56, 23
1, 498437, Note_on_c, 0, 59, 36
1, 498437, Note_on_c, 0, 30, 36
1, 498437, Note_on_c, 0, 32, 36
1, 498437, Note_on_c, 0, 44, 23
1, 498629, Note_off_c, 0, 59, 0
1, 498629, Note_off_c, 0, 71, 0
1, 498629, Note_on_c, 0, 71, 36
1, 498629, Note_on_c, 0, 59, 36
1, 498725, Note_off_c, 0, 44, 0
1, 498725, Note_off_c, 0, 32, 0
1, 498725, Note_off_c, 0, 30, 0
1, 498725, Note_off_c, 0, 56, 0
1, 498725, Note_off_c, 0, 44, 0
1, 498725, Note_off_c, 0, 32, 0
1, 498725, Note_off_c, 0, 71, 0
1, 498725, Note_off_c, 0, 83, 0
1, 498821, Note_off_c, 0, 59, 0
1, 498821, Note_off_c, 0, 71, 0
1, 498821, Note_on_c, 0, 71, 36
1, 498821, Note_on_c, 0, 32, 36
1, 498821, Note_on_c, 0, 44, 36
1, 498821, Note_on_c, 0, 90, 43
1, 498821, Note_on_c, 0, 64, 23
1, 498821, Note_on_c, 0, 59, 36
1, 498821, Note_on_c, 0, 30, 36
1, 498821, Note_on_c, 0, 32, 36
1, 498821, Note_on_c, 0, 78, 43
1, 498821, Note_on_c, 0, 52, 23
1, 499013, Note_off_c, 0, 52, 0
1, 499013, Note_off_c, 0, 32, 0
1, 499013, Note_off_c, 0, 30, 0
1, 499013, Note_off_c, 0, 59, 0
1, 499013, Note_off_c, 0, 64, 0
1, 499013, Note_off_c, 0, 44, 0
1, 499013, Note_off_c, 0, 32, 0
1, 499013, Note_off_c, 0, 71, 0
1, 499013, Note_on_c, 0, 71, 36
1, 499013, Note_on_c, 0, 32, 36
1, 499013, Note_on_c, 0, 44, 36
1, 499013, Note_on_c, 0, 68, 23
1, 499013, Note_on_c, 0, 59, 36
1, 499013, Note_on_c, 0, 30, 36
1, 499013, Note_on_c, 0, 32, 36
1, 499013, Note_on_c, 0, 56, 23
1, 499109, Note_off_c, 0, 78, 0
1, 499109, Note_off_c, 0, 90, 0
1, 499109, Note_off_c, 0, 66, 0
1, 499109, Note_off_c, 0, 78, 0
1, 499205, Note_off_c, 0, 56, 0
1, 499205, Note_off_c, 0, 32, 0
1, 499205, Note_off_c, 0, 30, 0
1, 499205, Note_off_c, 0, 59, 0
1, 499205, Note_off_c, 0, 68, 0
1, 499205, Note_off_c, 0, 44, 0
1, 499205, Note_off_c, 0, 32, 0
1, 499205, Note_off_c, 0, 71, 0
1, 499205, Note_on_c, 0, 71, 36
1, 499205, Note_on_c, 0, 31, 36
1, 499205, Note_on_c, 0, 43, 36
1, 499205, Note_on_c, 0, 85, 43
1, 499205, Note_on_c, 0, 55, 23
1, 499205, Note_on_c, 0, 59, 36
1, 499205, Note_on_c, 0, 29, 36
1, 499205, Note_on_c, 0, 31, 36
1, 499205, Note_on_c, 0, 73, 43
1, 499205, Note_on_c, 0, 43, 23
1, 499397, Note_off_c, 0, 59, 0
1, 499397, Note_off_c, 0, 71, 0
1, 499397, Note_on_c, 0, 71, 36
1, 499397, Note_on_c, 0, 59, 36
1, 499493, Note_off_c, 0, 43, 0
1, 499493, Note_off_c, 0, 31, 0
1, 499493, Note_off_c, 0, 29, 0
1, 499493, Note_off_c, 0, 55, 0
1, 499493, Note_off_c, 0, 43, 0
1, 499493, Note_off_c, 0, 31, 0
1, 499589, Note_off_c, 0, 59, 0
1, 499589, Note_off_c, 0, 71, 0
1, 499589, Note_on_c, 0, 71, 36
1, 499589, Note_on_c, 0, 31, 36
1, 499589, Note_on_c, 0, 43, 36
1, 499589, Note_on_c, 0, 62, 23
1, 499589, Note_on_c, 0, 59, 36
1, 499589, Note_on_c, 0, 29, 36
1, 499589, Note_on_c, 0, 31, 36
1, 499589, Note_on_c, 0, 50, 23
1, 499685, Note_off_c, 0, 73, 0
1, 499685, Note_off_c, 0, 85, 0
1, 499781, Note_off_c, 0, 50, 0
1, 499781, Note_off_c, 0, 31, 0
1, 499781, Note_off_c, 0, 29, 0
1, 499781, Note_off_c, 0, 59, 0
1, 499781, Note_off_c, 0, 62, 0
1, 499781, Note_off_c, 0, 43, 0
1, 499781, Note_off_c, 0, 31, 0
1, 499781, Note_off_c, 0, 71, 0
1, 499781, Note_on_c, 0, 71, 36
1, 499781, Note_on_c, 0, 31, 36
1, 499781, Note_on_c, 0, 43, 36
1, 499781, Note_on_c, 0, 83, 43
1, 499781, Note_on_c, 0, 67, 23
1, 499781, Note_on_c, 0, 59, 36
1, 499781, Note_on_c, 0, 29, 36
1, 499781, Note_on_c, 0, 31, 36
1, 499781, Note_on_c, 0, 71, 43
1, 499781, Note_on_c, 0, 55, 23
1, 499973, Note_off_c, 0, 55, 0
1, 499973, Note_off_c, 0, 59, 0
1, 499973, Note_off_c, 0, 67, 0
1, 499973, Note_off_c, 0, 71, 0
1, 499973, Note_on_c, 0, 71, 36
1, 499973, Note_on_c, 0, 55, 23
1, 499973, Note_on_c, 0, 59, 36
1, 499973, Note_on_c, 0, 43, 23
1, 500069, Note_off_c, 0, 31, 0
1, 500069, Note_off_c, 0, 29, 0
1, 500069, Note_off_c, 0, 43, 0
1, 500069, Note_off_c, 0, 31, 0
1, 500165, Note_off_c, 0, 59, 0
1, 500165, Note_off_c, 0, 71, 0
1, 500165, Note_on_c, 0, 71, 36
1, 500165, Note_on_c, 0, 31, 36
1, 500165, Note_on_c, 0, 43, 36
1, 500165, Note_on_c, 0, 59, 36
1, 500165, Note_on_c, 0, 29, 36
1, 500165, Note_on_c, 0, 31, 36
1, 500261, Note_off_c, 0, 43, 0
1, 500261, Note_off_c, 0, 55, 0
1, 500261, Note_off_c, 0, 71, 0
1, 500261, Note_off_c, 0, 83, 0
1, 500357, Note_off_c, 0, 31, 0
1, 500357, Note_off_c, 0, 29, 0
1, 500357, Note_off_c, 0, 59, 0
1, 500357, Note_off_c, 0, 43, 0
1, 500357, Note_off_c, 0, 31, 0
1, 500357, Note_off_c, 0, 71, 0
1, 500357, Note_on_c, 0, 71, 36
1, 500357, Note_on_c, 0, 31, 36
1, 500357, Note_on_c, 0, 43, 36
1, 500357, Note_on_c, 0, 85, 43
1, 500357, Note_on_c, 0, 62, 23
1, 500357, Note_on_c, 0, 59, 36
1, 500357, Note_on_c, 0, 29, 36
1, 500357, Note_on_c, 0, 31, 36
1, 500357, Note_on_c, 0, 73, 43
1, 500357, Note_on_c, 0, 50, 23
1, 500549, Note_off_c, 0, 50, 0
1, 500549, Note_off_c, 0, 59, 0
1, 500549, Note_off_c, 0, 62, 0
1, 500549, Note_off_c, 0, 71, 0
1, 500549, Note_on_c, 0, 71, 36
1, 500549, Note_on_c, 0, 67, 23
1, 500549, Note_on_c, 0, 59, 36
1, 500549, Note_on_c, 0, 55, 23
1, 500645, Note_off_c, 0, 73, 0
1, 500645, Note_off_c, 0, 31, 0
1, 500645, Note_off_c, 0, 29, 0
1, 500645, Note_off_c, 0, 85, 0
1, 500645, Note_off_c, 0, 43, 0
1, 500645, Note_off_c, 0, 31, 0
1, 500741, Note_off_c, 0, 55, 0
1, 500741, Note_off_c, 0, 59, 0
1, 500741, Note_off_c, 0, 67, 0
1, 500741, Note_off_c, 0, 71, 0
1, 500741, Note_on_c, 0, 71, 36
1, 500741, Note_on_c, 0, 33, 36
1, 500741, Note_on_c, 0, 45, 36
1, 500741, Note_on_c, 0, 86, 43
1, 500741, Note_on_c, 0, 57, 23
1, 500741, Note_on_c, 0, 59, 36
1, 500741, Note_on_c, 0, 31, 36
1, 500741, Note_on_c, 0, 33, 36
1, 500741, Note_on_c, 0, 74, 43
1, 500741, Note_on_c, 0, 45, 23
1, 500933, Note_off_c, 0, 33, 0
1, 500933, Note_off_c, 0, 31, 0
1, 500933, Note_off_c, 0, 59, 0
1, 500933, Note_off_c, 0, 45, 0
1, 500933, Note_off_c, 0, 33, 0
1, 500933, Note_off_c, 0, 71, 0
1, 500933, Note_on_c, 0, 71, 36
1, 500933, Note_on_c, 0, 33, 36
1, 500933, Note_on_c, 0, 45, 36
1, 500933, Note_on_c, 0, 59, 36
1, 500933, Note_on_c, 0, 31, 36
1, 500933, Note_on_c, 0, 33, 36
1, 501029, Note_off_c, 0, 45, 0
1, 501029, Note_off_c, 0, 74, 0
1, 501029, Note_off_c, 0, 57, 0
1, 501029, Note_off_c, 0, 86, 0
1, 501125, Note_off_c, 0, 33, 0
1, 501125, Note_off_c, 0, 31, 0
1, 501125, Note_off_c, 0, 59, 0
1, 501125, Note_off_c, 0, 45, 0
1, 501125, Note_off_c, 0, 33, 0
1, 501125, Note_off_c, 0, 71, 0
1, 501125, Note_on_c, 0, 71, 36
1, 501125, Note_on_c, 0, 33, 36
1, 501125, Note_on_c, 0, 45, 36
1, 501125, Note_on_c, 0, 85, 43
1, 501125, Note_on_c, 0, 64, 23
1, 501125, Note_on_c, 0, 59, 36
1, 501125, Note_on_c, 0, 31, 36
1, 501125, Note_on_c, 0, 33, 36
1, 501125, Note_on_c, 0, 73, 43
1, 501125, Note_on_c, 0, 52, 23
1, 501317, Note_off_c, 0, 52, 0
1, 501317, Note_off_c, 0, 59, 0
1, 501317, Note_off_c, 0, 64, 0
1, 501317, Note_off_c, 0, 71, 0
1, 501317, Note_on_c, 0, 71, 36
1, 501317, Note_on_c, 0, 69, 23
1, 501317, Note_on_c, 0, 59, 36
1, 501317, Note_on_c, 0, 57, 23
1, 501413, Note_off_c, 0, 73, 0
1, 501413, Note_off_c, 0, 33, 0
1, 501413, Note_off_c, 0, 31, 0
1, 501413, Note_off_c, 0, 85, 0
1, 501413, Note_off_c, 0, 45, 0
1, 501413, Note_off_c, 0, 33, 0
1, 501509, Note_off_c, 0, 57, 0
1, 501509, Note_off_c, 0, 59, 0
1, 501509, Note_off_c, 0, 69, 0
1, 501509, Note_off_c, 0, 71, 0
1, 501509, Note_on_c, 0, 71, 36
1, 501509, Note_on_c, 0, 33, 36
1, 501509, Note_on_c, 0, 45, 36
1, 501509, Note_on_c, 0, 86, 43
1, 501509, Note_on_c, 0, 57, 23
1, 501509, Note_on_c, 0, 59, 36
1, 501509, Note_on_c, 0, 31, 36
1, 501509, Note_on_c, 0, 33, 36
1, 501509, Note_on_c, 0, 74, 43
1, 501509, Note_on_c, 0, 45, 23
1, 501605, Note_off_c, 0, 33, 0
1, 501605, Note_off_c, 0, 31, 0
1, 501605, Note_off_c, 0, 45, 0
1, 501605, Note_off_c, 0, 33, 0
1, 501605, Note_on_c, 0, 33, 36
1, 501605, Note_on_c, 0, 45, 36
1, 501605, Note_on_c, 0, 31, 36
1, 501605, Note_on_c, 0, 33, 36
1, 501701, Note_off_c, 0, 33, 0
1, 501701, Note_off_c, 0, 31, 0
1, 501701, Note_off_c, 0, 45, 0
1, 501701, Note_off_c, 0, 33, 0
1, 501701, Note_off_c, 0, 59, 0
1, 501701, Note_off_c, 0, 71, 0
1, 501701, Note_on_c, 0, 71, 36
1, 501701, Note_on_c, 0, 33, 36
1, 501701, Note_on_c, 0, 45, 36
1, 501701, Note_on_c, 0, 59, 36
1, 501701, Note_on_c, 0, 31, 36
1, 501701, Note_on_c, 0, 33, 36
1, 501797, Note_off_c, 0, 33, 0
1, 501797, Note_off_c, 0, 31, 0
1, 501797, Note_off_c, 0, 45, 0
1, 501797, Note_off_c, 0, 33, 0
1, 501797, Note_off_c, 0, 45, 0
1, 501797, Note_off_c, 0, 74, 0
1, 501797, Note_off_c, 0, 57, 0
1, 501797, Note_off_c, 0, 86, 0
1, 501797, Note_on_c, 0, 33, 36
1, 501797, Note_on_c, 0, 45, 36
1, 501797, Note_on_c, 0, 31, 36
1, 501797, Note_on_c, 0, 33, 36
1, 501893, Note_off_c, 0, 33, 0
1, 501893, Note_off_c, 0, 31, 0
1, 501893, Note_off_c, 0, 45, 0
1, 501893, Note_off_c, 0, 33, 0
1, 501893, Note_off_c, 0, 59, 0
1, 501893, Note_off_c, 0, 71, 0
1, 501893, Note_on_c, 0, 71, 36
1, 501893, Note_on_c, 0, 33, 36
1, 501893, Note_on_c, 0, 45, 36
1, 501893, Note_on_c, 0, 85, 43
1, 501893, Note_on_c, 0, 64, 23
1, 501893, Note_on_c, 0, 59, 36
1, 501893, Note_on_c, 0, 31, 36
1, 501893, Note_on_c, 0, 33, 36
1, 501893, Note_on_c, 0, 73, 43
1, 501893, Note_on_c, 0, 52, 23
1, 501989, Note_off_c, 0, 33, 0
1, 501989, Note_off_c, 0, 31, 0
1, 501989, Note_off_c, 0, 45, 0
1, 501989, Note_off_c, 0, 33, 0
1, 501989, Note_on_c, 0, 33, 36
1, 501989, Note_on_c, 0, 45, 36
1, 501989, Note_on_c, 0, 31, 36
1, 501989, Note_on_c, 0, 33, 36
1, 502085, Note_off_c, 0, 33, 0
1, 502085, Note_off_c, 0, 31, 0
1, 502085, Note_off_c, 0, 45, 0
1, 502085, Note_off_c, 0, 33, 0
1, 502085, Note_off_c, 0, 52, 0
1, 502085, Note_off_c, 0, 59, 0
1, 502085, Note_off_c, 0, 64, 0
1, 502085, Note_off_c, 0, 71, 0
1, 502085, Note_on_c, 0, 71, 36
1, 502085, Note_on_c, 0, 33, 36
1, 502085, Note_on_c, 0, 45, 36
1, 502085, Note_on_c, 0, 69, 23
1, 502085, Note_on_c, 0, 59, 36
1, 502085, Note_on_c, 0, 31, 36
1, 502085, Note_on_c, 0, 33, 36
1, 502085, Note_on_c, 0, 57, 23
1, 502181, Note_off_c, 0, 33, 0
1, 502181, Note_off_c, 0, 31, 0
1, 502181, Note_off_c, 0, 45, 0
1, 502181, Note_off_c, 0, 33, 0
1, 502181, Note_off_c, 0, 73, 0
1, 502181, Note_off_c, 0, 85, 0
1, 502181, Note_on_c, 0, 33, 36
1, 502181, Note_on_c, 0, 45, 36
1, 502181, Note_on_c, 0, 31, 36
1, 502181, Note_on_c, 0, 33, 36
1, 502277, Note_off_c, 0, 33, 0
1, 502277, Note_off_c, 0, 31, 0
1, 502277, Note_off_c, 0, 45, 0
1, 502277, Note_off_c, 0, 33, 0
1, 502277, Note_off_c, 0, 57, 0
1, 502277, Note_off_c, 0, 59, 0
1, 502277, Note_off_c, 0, 69, 0
1, 502277, Note_off_c, 0, 71, 0
1, 502277, Note_on_c, 0, 71, 36
1, 502277, Note_on_c, 0, 35, 36
1, 502277, Note_on_c, 0, 47, 36
1, 502277, Note_on_c, 0, 78, 43
1, 502277, Note_on_c, 0, 85, 43
1, 502277, Note_on_c, 0, 59, 23
1, 502277, Note_on_c, 0, 59, 36
1, 502277, Note_on_c, 0, 24, 36
1, 502277, Note_on_c, 0, 35, 36
1, 502277, Note_on_c, 0, 66, 43
1, 502277, Note_on_c, 0, 73, 43
1, 502277, Note_on_c, 0, 47, 23
1, 502469, Note_off_c, 0, 59, 0
1, 502469, Note_off_c, 0, 71, 0
1, 502469, Note_on_c, 0, 71, 36
1, 502469, Note_on_c, 0, 59, 36
1, 502565, Note_off_c, 0, 47, 0
1, 502565, Note_off_c, 0, 35, 0
1, 502565, Note_off_c, 0, 24, 0
1, 502565, Note_off_c, 0, 59, 0
1, 502565, Note_off_c, 0, 47, 0
1, 502565, Note_off_c, 0, 35, 0
1, 502661, Note_off_c, 0, 59, 0
1, 502661, Note_off_c, 0, 71, 0
1, 502661, Note_on_c, 0, 71, 36
1, 502661, Note_on_c, 0, 35, 36
1, 502661, Note_on_c, 0, 47, 36
1, 502661, Note_on_c, 0, 66, 23
1, 502661, Note_on_c, 0, 59, 36
1, 502661, Note_on_c, 0, 24, 36
1, 502661, Note_on_c, 0, 35, 36
1, 502661, Note_on_c, 0, 54, 23
1, 502853, Note_off_c, 0, 54, 0
1, 502853, Note_off_c, 0, 59, 0
1, 502853, Note_off_c, 0, 66, 0
1, 502853, Note_off_c, 0, 71, 0
1, 502853, Note_on_c, 0, 71, 36
1, 502853, Note_on_c, 0, 71, 23
1, 502853, Note_on_c, 0, 59, 36
1, 502853, Note_on_c, 0, 59, 23
1, 502949, Note_off_c, 0, 35, 0
1, 502949, Note_off_c, 0, 24, 0
1, 502949, Note_off_c, 0, 47, 0
1, 502949, Note_off_c, 0, 35, 0
1, 503045, Note_off_c, 0, 59, 0
1, 503045, Note_off_c, 0, 59, 0
1, 503045, Note_off_c, 0, 71, 0
1, 503045, Note_off_c, 0, 71, 0
1, 503045, Note_on_c, 0, 71, 36
1, 503045, Note_on_c, 0, 35, 36
1, 503045, Note_on_c, 0, 47, 36
1, 503045, Note_on_c, 0, 59, 23
1, 503045, Note_on_c, 0, 59, 36
1, 503045, Note_on_c, 0, 24, 36
1, 503045, Note_on_c, 0, 35, 36
1, 503045, Note_on_c, 0, 47, 23
1, 503237, Note_off_c, 0, 59, 0
1, 503237, Note_off_c, 0, 71, 0
1, 503237, Note_on_c, 0, 71, 36
1, 503237, Note_on_c, 0, 59, 36
1, 503333, Note_off_c, 0, 47, 0
1, 503333, Note_off_c, 0, 35, 0
1, 503333, Note_off_c, 0, 24, 0
1, 503333, Note_off_c, 0, 59, 0
1, 503333, Note_off_c, 0, 47, 0
1, 503333, Note_off_c, 0, 35, 0
1, 503429, Note_off_c, 0, 59, 0
1, 503429, Note_off_c, 0, 71, 0
1, 503429, Note_on_c, 0, 71, 36
1, 503429, Note_on_c, 0, 35, 36
1, 503429, Note_on_c, 0, 47, 36
1, 503429, Note_on_c, 0, 66, 23
1, 503429, Note_on_c, 0, 59, 36
1, 503429, Note_on_c, 0, 24, 36
1, 503429, Note_on_c, 0, 35, 36
1, 503429, Note_on_c, 0, 54, 23
1, 503621, Note_off_c, 0, 54, 0
1, 503621, Note_off_c, 0, 59, 0
1, 503621, Note_off_c, 0, 66, 0
1, 503621, Note_off_c, 0, 71, 0
1, 503621, Note_on_c, 0, 71, 36
1, 503621, Note_on_c, 0, 71, 23
1, 503621, Note_on_c, 0, 59, 36
1, 503621, Note_on_c, 0, 59, 23
1, 503717, Note_off_c, 0, 35, 0
1, 503717, Note_off_c, 0, 24, 0
1, 503717, Note_off_c, 0, 47, 0
1, 503717, Note_off_c, 0, 35, 0
1, 503717, Note_off_c, 0, 73, 0
1, 503717, Note_off_c, 0, 66, 0
1, 503717, Note_off_c, 0, 85, 0
1, 503717, Note_off_c, 0, 78, 0
1, 503813, Note_off_c, 0, 59, 0
1, 503813, Note_off_c, 0, 59, 0
1, 503813, Note_off_c, 0, 71, 0
1, 503813, Note_off_c, 0, 71, 0
1, 503813, Note_on_c, 0, 71, 36
1, 503813, Note_on_c, 0, 35, 36
1, 503813, Note_on_c, 0, 47, 36
1, 503813, Note_on_c, 0, 85, 43
1, 503813, Note_on_c, 0, 78, 43
1, 503813, Note_on_c, 0, 59, 23
1, 503813, Note_on_c, 0, 59, 36
1, 503813, Note_on_c, 0, 24, 36
1, 503813, Note_on_c, 0, 35, 36
1, 503813, Note_on_c, 0, 73, 43
1, 503813, Note_on_c, 0, 66, 43
1, 503813, Note_on_c, 0, 47, 23
1, 504005, Note_off_c, 0, 59, 0
1, 504005, Note_off_c, 0, 71, 0
1, 504005, Note_on_c, 0, 71, 36
1, 504005, Note_on_c, 0, 59, 36
1, 504101, Note_off_c, 0, 47, 0
1, 504101, Note_off_c, 0, 35, 0
1, 504101, Note_off_c, 0, 24, 0
1, 504101, Note_off_c, 0, 59, 0
1, 504101, Note_off_c, 0, 47, 0
1, 504101, Note_off_c, 0, 35, 0
1, 504197, Note_off_c, 0, 59, 0
1, 504197, Note_off_c, 0, 71, 0
1, 504197, Note_on_c, 0, 71, 36
1, 504197, Note_on_c, 0, 35, 36
1, 504197, Note_on_c, 0, 47, 36
1, 504197, Note_on_c, 0, 66, 23
1, 504197, Note_on_c, 0, 59, 36
1, 504197, Note_on_c, 0, 24, 36
1, 504197, Note_on_c, 0, 35, 36
1, 504197, Note_on_c, 0, 54, 23
1, 504293, Note_off_c, 0, 73, 0
1, 504293, Note_off_c, 0, 85, 0
1, 504389, Note_off_c, 0, 54, 0
1, 504389, Note_off_c, 0, 59, 0
1, 504389, Note_off_c, 0, 66, 0
1, 504389, Note_off_c, 0, 71, 0
1, 504389, Note_on_c, 0, 71, 36
1, 504389, Note_on_c, 0, 83, 43
1, 504389, Note_on_c, 0, 71, 23
1, 504389, Note_on_c, 0, 59, 36
1, 504389, Note_on_c, 0, 71, 43
1, 504389, Note_on_c, 0, 59, 23
1, 504485, Note_off_c, 0, 35, 0
1, 504485, Note_off_c, 0, 24, 0
1, 504485, Note_off_c, 0, 47, 0
1, 504485, Note_off_c, 0, 35, 0
1, 504581, Note_off_c, 0, 59, 0
1, 504581, Note_off_c, 0, 59, 0
1, 504581, Note_off_c, 0, 71, 0
1, 504581, Note_off_c, 0, 71, 0
1, 504581, Note_on_c, 0, 71, 36
1, 504581, Note_on_c, 0, 35, 36
1, 504581, Note_on_c, 0, 47, 36
1, 504581, Note_on_c, 0, 59, 23
1, 504581, Note_on_c, 0, 59, 36
1, 504581, Note_on_c, 0, 24, 36
1, 504581, Note_on_c, 0, 35, 36
1, 504581, Note_on_c, 0, 47, 23
1, 504773, Note_off_c, 0, 59, 0
1, 504773, Note_off_c, 0, 71, 0
1, 504773, Note_on_c, 0, 71, 36
1, 504773, Note_on_c, 0, 59, 36
1, 504869, Note_off_c, 0, 47, 0
1, 504869, Note_off_c, 0, 35, 0
1, 504869, Note_off_c, 0, 24, 0
1, 504869, Note_off_c, 0, 59, 0
1, 504869, Note_off_c, 0, 47, 0
1, 504869, Note_off_c, 0, 35, 0
1, 504869, Note_off_c, 0, 71, 0
1, 504869, Note_off_c, 0, 83, 0
1, 504965, Note_off_c, 0, 59, 0
1, 504965, Note_off_c, 0, 71, 0
1, 504965, Note_on_c, 0, 71, 36
1, 504965, Note_on_c, 0, 35, 36
1, 504965, Note_on_c, 0, 47, 36
1, 504965, Note_on_c, 0, 90, 43
1, 504965, Note_on_c, 0, 66, 23
1, 504965, Note_on_c, 0, 59, 36
1, 504965, Note_on_c, 0, 24, 36
1, 504965, Note_on_c, 0, 35, 36
1, 504965, Note_on_c, 0, 78, 43
1, 504965, Note_on_c, 0, 54, 23
1, 505157, Note_off_c, 0, 54, 0
1, 505157, Note_off_c, 0, 35, 0
1, 505157, Note_off_c, 0, 24, 0
1, 505157, Note_off_c, 0, 59, 0
1, 505157, Note_off_c, 0, 66, 0
1, 505157, Note_off_c, 0, 47, 0
1, 505157, Note_off_c, 0, 35, 0
1, 505157, Note_off_c, 0, 71, 0
1, 505157, Note_on_c, 0, 71, 36
1, 505157, Note_on_c, 0, 35, 36
1, 505157, Note_on_c, 0, 47, 36
1, 505157, Note_on_c, 0, 71, 23
1, 505157, Note_on_c, 0, 59, 36
1, 505157, Note_on_c, 0, 24, 36
1, 505157, Note_on_c, 0, 35, 36
1, 505157, Note_on_c, 0, 59, 23
1, 505253, Note_off_c, 0, 78, 0
1, 505253, Note_off_c, 0, 90, 0
1, 505253, Note_off_c, 0, 66, 0
1, 505253, Note_off_c, 0, 78, 0
1, 505349, Note_off_c, 0, 59, 0
1, 505349, Note_off_c, 0, 35, 0
1, 505349, Note_off_c, 0, 24, 0
1, 505349, Note_off_c, 0, 59, 0
1, 505349, Note_off_c, 0, 71, 0
1, 505349, Note_off_c, 0, 47, 0
1, 505349, Note_off_c, 0, 35, 0
1, 505349, Note_off_c, 0, 71, 0
1, 505349, Note_on_c, 0, 71, 36
1, 505349, Note_on_c, 0, 33, 36
1, 505349, Note_on_c, 0, 45, 36
1, 505349, Note_on_c, 0, 78, 43
1, 505349, Note_on_c, 0, 85, 43
1, 505349, Note_on_c, 0, 57, 23
1, 505349, Note_on_c, 0, 59, 36
1, 505349, Note_on_c, 0, 31, 36
1, 505349, Note_on_c, 0, 33, 36
1, 505349, Note_on_c, 0, 66, 43
1, 505349, Note_on_c, 0, 73, 43
1, 505349, Note_on_c, 0, 45, 23
1, 505541, Note_off_c, 0, 59, 0
1, 505541, Note_off_c, 0, 71, 0
1, 505541, Note_on_c, 0, 71, 36
1, 505541, Note_on_c, 0, 59, 36
1, 505637, Note_off_c, 0, 45, 0
1, 505637, Note_off_c, 0, 33, 0
1, 505637, Note_off_c, 0, 31, 0
1, 505637, Note_off_c, 0, 57, 0
1, 505637, Note_off_c, 0, 45, 0
1, 505637, Note_off_c, 0, 33, 0
1, 505733, Note_off_c, 0, 59, 0
1, 505733, Note_off_c, 0, 71, 0
1, 505733, Note_on_c, 0, 71, 36
1, 505733, Note_on_c, 0, 33, 36
1, 505733, Note_on_c, 0, 45, 36
1, 505733, Note_on_c, 0, 64, 23
1, 505733, Note_on_c, 0, 59, 36
1, 505733, Note_on_c, 0, 31, 36
1, 505733, Note_on_c, 0, 33, 36
1, 505733, Note_on_c, 0, 52, 23
1, 505925, Note_off_c, 0, 52, 0
1, 505925, Note_off_c, 0, 59, 0
1, 505925, Note_off_c, 0, 64, 0
1, 505925, Note_off_c, 0, 71, 0
1, 505925, Note_on_c, 0, 71, 36
1, 505925, Note_on_c, 0, 69, 23
1, 505925, Note_on_c, 0, 59, 36
1, 505925, Note_on_c, 0, 57, 23
1, 506021, Note_off_c, 0, 33, 0
1, 506021, Note_off_c, 0, 31, 0
1, 506021, Note_off_c, 0, 45, 0
1, 506021, Note_off_c, 0, 33, 0
1, 506117, Note_off_c, 0, 57, 0
1, 506117, Note_off_c, 0, 59, 0
1, 506117, Note_off_c, 0, 69, 0
1, 506117, Note_off_c, 0, 71, 0
1, 506117, Note_on_c, 0, 71, 36
1, 506117, Note_on_c, 0, 33, 36
1, 506117, Note_on_c, 0, 45, 36
1, 506117, Note_on_c, 0, 57, 23
1, 506117, Note_on_c, 0, 59, 36
1, 506117, Note_on_c, 0, 31, 36
1, 506117, Note_on_c, 0, 33, 36
1, 506117, Note_on_c, 0, 45, 23
1, 506309, Note_off_c, 0, 59, 0
1, 506309, Note_off_c, 0, 71, 0
1, 506309, Note_on_c, 0, 71, 36
1, 506309, Note_on_c, 0, 59, 36
1, 506405, Note_off_c, 0, 45, 0
1, 506405, Note_off_c, 0, 33, 0
1, 506405, Note_off_c, 0, 31, 0
1, 506405, Note_off_c, 0, 57, 0
1, 506405, Note_off_c, 0, 45, 0
1, 506405, Note_off_c, 0, 33, 0
1, 506501, Note_off_c, 0, 59, 0
1, 506501, Note_off_c, 0, 71, 0
1, 506501, Note_on_c, 0, 71, 36
1, 506501, Note_on_c, 0, 33, 36
1, 506501, Note_on_c, 0, 45, 36
1, 506501, Note_on_c, 0, 64, 23
1, 506501, Note_on_c, 0, 59, 36
1, 506501, Note_on_c, 0, 31, 36
1, 506501, Note_on_c, 0, 33, 36
1, 506501, Note_on_c, 0, 52, 23
1, 506693, Note_off_c, 0, 52, 0
1, 506693, Note_off_c, 0, 59, 0
1, 506693, Note_off_c, 0, 64, 0
1, 506693, Note_off_c, 0, 71, 0
1, 506693, Note_on_c, 0, 71, 36
1, 506693, Note_on_c, 0, 69, 23
1, 506693, Note_on_c, 0, 59, 36
1, 506693, Note_on_c, 0, 57, 23
1, 506789, Note_off_c, 0, 33, 0
1, 506789, Note_off_c, 0, 31, 0
1, 506789, Note_off_c, 0, 45, 0
1, 506789, Note_off_c, 0, 33, 0
1, 506789, Note_off_c, 0, 73, 0
1, 506789, Note_off_c, 0, 66, 0
1, 506789, Note_off_c, 0, 85, 0
1, 506789, Note_off_c, 0, 78, 0
1, 506885, Note_off_c, 0, 57, 0
1, 506885, Note_off_c, 0, 59, 0
1, 506885, Note_off_c, 0, 69, 0
1, 506885, Note_off_c, 0, 71, 0
1, 506885, Note_on_c, 0, 71, 36
1, 506885, Note_on_c, 0, 33, 36
1, 506885, Note_on_c, 0, 45, 36
1, 506885, Note_on_c, 0, 85, 43
1, 506885, Note_on_c, 0, 78, 43
1, 506885, Note_on_c, 0, 57, 23
1, 506885, Note_on_c, 0, 59, 36
1, 506885, Note_on_c, 0, 31, 36
1, 506885, Note_on_c, 0, 33, 36
1, 506885, Note_on_c, 0, 73, 43
1, 506885, Note_on_c, 0, 66, 43
1, 506885, Note_on_c, 0, 45, 23
1, 507077, Note_off_c, 0, 59, 0
1, 507077, Note_off_c, 0, 71, 0
1, 507077, Note_on_c, 0, 71, 36
1, 507077, Note_on_c, 0, 59, 36
1, 507173, Note_off_c, 0, 45, 0
1, 507173, Note_off_c, 0, 33, 0
1, 507173, Note_off_c, 0, 31, 0
1, 507173, Note_off_c, 0, 57, 0
1, 507173, Note_off_c, 0, 45, 0
1, 507173, Note_off_c, 0, 33, 0
1, 507269, Note_off_c, 0, 59, 0
1, 507269, Note_off_c, 0, 71, 0
1, 507269, Note_on_c, 0, 71, 36
1, 507269, Note_on_c, 0, 33, 36
1, 507269, Note_on_c, 0, 45, 36
1, 507269, Note_on_c, 0, 64, 23
1, 507269, Note_on_c, 0, 59, 36
1, 507269, Note_on_c, 0, 31, 36
1, 507269, Note_on_c, 0, 33, 36
1, 507269, Note_on_c, 0, 52, 23
1, 507365, Note_off_c, 0, 73, 0
1, 507365, Note_off_c, 0, 85, 0
1, 507461, Note_off_c, 0, 52, 0
1, 507461, Note_off_c, 0, 59, 0
1, 507461, Note_off_c, 0, 64, 0
1, 507461, Note_off_c, 0, 71, 0
1, 507461, Note_on_c, 0, 71, 36
1, 507461, Note_on_c, 0, 83, 43
1, 507461, Note_on_c, 0, 69, 23
1, 507461, Note_on_c, 0, 59, 36
1, 507461, Note_on_c, 0, 71, 43
1, 507461, Note_on_c, 0, 57, 23
1, 507557, Note_off_c, 0, 33, 0
1, 507557, Note_off_c, 0, 31, 0
1, 507557, Note_off_c, 0, 45, 0
1, 507557, Note_off_c, 0, 33, 0
1, 507653, Note_off_c, 0, 57, 0
1, 507653, Note_off_c, 0, 59, 0
1, 507653, Note_off_c, 0, 69, 0
1, 507653, Note_off_c, 0, 71, 0
1, 507653, Note_on_c, 0, 71, 36
1, 507653, Note_on_c, 0, 33, 36
1, 507653, Note_on_c, 0, 45, 36
1, 507653, Note_on_c, 0, 57, 23
1, 507653, Note_on_c, 0, 59, 36
1, 507653, Note_on_c, 0, 31, 36
1, 507653, Note_on_c, 0, 33, 36
1, 507653, Note_on_c, 0, 45, 23
1, 507845, Note_off_c, 0, 59, 0
1, 507845, Note_off_c, 0, 71, 0
1, 507845, Note_on_c, 0, 71, 36
1, 507845, Note_on_c, 0, 59, 36
1, 507941, Note_off_c, 0, 45, 0
1, 507941, Note_off_c, 0, 33, 0
1, 507941, Note_off_c, 0, 31, 0
1, 507941, Note_off_c, 0, 57, 0
1, 507941, Note_off_c, 0, 45, 0
1, 507941, Note_off_c, 0, 33, 0
1, 507941, Note_off_c, 0, 71, 0
1, 507941, Note_off_c, 0, 83, 0
1, 508037, Note_off_c, 0, 59, 0
1, 508037, Note_off_c, 0, 71, 0
1, 508037, Note_on_c, 0, 71, 36
1, 508037, Note_on_c, 0, 33, 36
1, 508037, Note_on_c, 0, 45, 36
1, 508037, Note_on_c, 0, 90, 43
1, 508037, Note_on_c, 0, 64, 23
1, 508037, Note_on_c, 0, 59, 36
1, 508037, Note_on_c, 0, 31, 36
1, 508037, Note_on_c, 0, 33, 36
1, 508037, Note_on_c, 0, 78, 43
1, 508037, Note_on_c, 0, 52, 23
1, 508229, Note_off_c, 0, 52, 0
1, 508229, Note_off_c, 0, 33, 0
1, 508229, Note_off_c, 0, 31, 0
1, 508229, Note_off_c, 0, 59, 0
1, 508229, Note_off_c, 0, 64, 0
1, 508229, Note_off_c, 0, 45, 0
1, 508229, Note_off_c, 0, 33, 0
1, 508229, Note_off_c, 0, 71, 0
1, 508229, Note_on_c, 0, 71, 36
1, 508229, Note_on_c, 0, 33, 36
1, 508229, Note_on_c, 0, 45, 36
1, 508229, Note_on_c, 0, 69, 23
1, 508229, Note_on_c, 0, 59, 36
1, 508229, Note_on_c, 0, 31, 36
1, 508229, Note_on_c, 0, 33, 36
1, 508229, Note_on_c, 0, 57, 23
1, 508325, Note_off_c, 0, 78, 0
1, 508325, Note_off_c, 0, 90, 0
1, 508325, Note_off_c, 0, 66, 0
1, 508325, Note_off_c, 0, 78, 0
1, 508421, Note_off_c, 0, 57, 0
1, 508421, Note_off_c, 0, 33, 0
1, 508421, Note_off_c, 0, 31, 0
1, 508421, Note_off_c, 0, 59, 0
1, 508421, Note_off_c, 0, 69, 0
1, 508421, Note_off_c, 0, 45, 0
1, 508421, Note_off_c, 0, 33, 0
1, 508421, Note_off_c, 0, 71, 0
1, 508421, Note_on_c, 0, 71, 36
1, 508421, Note_on_c, 0, 32, 36
1, 508421, Note_on_c, 0, 44, 36
1, 508421, Note_on_c, 0, 85, 43
1, 508421, Note_on_c, 0, 78, 43
1, 508421, Note_on_c, 0, 56, 23
1, 508421, Note_on_c, 0, 59, 36
1, 508421, Note_on_c, 0, 30, 36
1, 508421, Note_on_c, 0, 32, 36
1, 508421, Note_on_c, 0, 73, 43
1, 508421, Note_on_c, 0, 66, 43
1, 508421, Note_on_c, 0, 44, 23
1, 508613, Note_off_c, 0, 59, 0
1, 508613, Note_off_c, 0, 71, 0
1, 508613, Note_on_c, 0, 71, 36
1, 508613, Note_on_c, 0, 59, 36
1, 508709, Note_off_c, 0, 44, 0
1, 508709, Note_off_c, 0, 32, 0
1, 508709, Note_off_c, 0, 30, 0
1, 508709, Note_off_c, 0, 56, 0
1, 508709, Note_off_c, 0, 44, 0
1, 508709, Note_off_c, 0, 32, 0
1, 508805, Note_off_c, 0, 59, 0
1, 508805, Note_off_c, 0, 71, 0
1, 508805, Note_on_c, 0, 71, 36
1, 508805, Note_on_c, 0, 32, 36
1, 508805, Note_on_c, 0, 44, 36
1, 508805, Note_on_c, 0, 64, 23
1, 508805, Note_on_c, 0, 59, 36
1, 508805, Note_on_c, 0, 30, 36
1, 508805, Note_on_c, 0, 32, 36
1, 508805, Note_on_c, 0, 52, 23
1, 508901, Note_off_c, 0, 73, 0
1, 508901, Note_off_c, 0, 85, 0
1, 508997, Note_off_c, 0, 52, 0
1, 508997, Note_off_c, 0, 59, 0
1, 508997, Note_off_c, 0, 64, 0
1, 508997, Note_off_c, 0, 71, 0
1, 508997, Note_on_c, 0, 71, 36
1, 508997, Note_on_c, 0, 90, 43
1, 508997, Note_on_c, 0, 68, 23
1, 508997, Note_on_c, 0, 59, 36
1, 508997, Note_on_c, 0, 78, 43
1, 508997, Note_on_c, 0, 56, 23
1, 509093, Note_off_c, 0, 32, 0
1, 509093, Note_off_c, 0, 30, 0
1, 509093, Note_off_c, 0, 44, 0
1, 509093, Note_off_c, 0, 32, 0
1, 509189, Note_off_c, 0, 56, 0
1, 509189, Note_off_c, 0, 59, 0
1, 509189, Note_off_c, 0, 68, 0
1, 509189, Note_off_c, 0, 71, 0
1, 509189, Note_on_c, 0, 71, 36
1, 509189, Note_on_c, 0, 32, 36
1, 509189, Note_on_c, 0, 44, 36
1, 509189, Note_on_c, 0, 56, 23
1, 509189, Note_on_c, 0, 59, 36
1, 509189, Note_on_c, 0, 30, 36
1, 509189, Note_on_c, 0, 32, 36
1, 509189, Note_on_c, 0, 44, 23
1, 509381, Note_off_c, 0, 59, 0
1, 509381, Note_off_c, 0, 71, 0
1, 509381, Note_on_c, 0, 71, 36
1, 509381, Note_on_c, 0, 59, 36
1, 509477, Note_off_c, 0, 44, 0
1, 509477, Note_off_c, 0, 32, 0
1, 509477, Note_off_c, 0, 30, 0
1, 509477, Note_off_c, 0, 56, 0
1, 509477, Note_off_c, 0, 44, 0
1, 509477, Note_off_c, 0, 32, 0
1, 509477, Note_off_c, 0, 78, 0
1, 509477, Note_off_c, 0, 90, 0
1, 509573, Note_off_c, 0, 59, 0
1, 509573, Note_off_c, 0, 71, 0
1, 509573, Note_on_c, 0, 71, 36
1, 509573, Note_on_c, 0, 32, 36
1, 509573, Note_on_c, 0, 44, 36
1, 509573, Note_on_c, 0, 90, 43
1, 509573, Note_on_c, 0, 64, 23
1, 509573, Note_on_c, 0, 59, 36
1, 509573, Note_on_c, 0, 30, 36
1, 509573, Note_on_c, 0, 32, 36
1, 509573, Note_on_c, 0, 78, 43
1, 509573, Note_on_c, 0, 52, 23
1, 509765, Note_off_c, 0, 52, 0
1, 509765, Note_off_c, 0, 59, 0
1, 509765, Note_off_c, 0, 64, 0
1, 509765, Note_off_c, 0, 71, 0
1, 509765, Note_on_c, 0, 71, 36
1, 509765, Note_on_c, 0, 68, 23
1, 509765, Note_on_c, 0, 59, 36
1, 509765, Note_on_c, 0, 56, 23
1, 509861, Note_off_c, 0, 78, 0
1, 509861, Note_off_c, 0, 32, 0
1, 509861, Note_off_c, 0, 30, 0
1, 509861, Note_off_c, 0, 90, 0
1, 509861, Note_off_c, 0, 44, 0
1, 509861, Note_off_c, 0, 32, 0
1, 509861, Note_off_c, 0, 66, 0
1, 509861, Note_off_c, 0, 78, 0
1, 509957, Note_off_c, 0, 56, 0
1, 509957, Note_off_c, 0, 59, 0
1, 509957, Note_off_c, 0, 68, 0
1, 509957, Note_off_c, 0, 71, 0
1, 509957, Note_on_c, 0, 71, 36
1, 509957, Note_on_c, 0, 32, 36
1, 509957, Note_on_c, 0, 44, 36
1, 509957, Note_on_c, 0, 56, 23
1, 509957, Note_on_c, 0, 59, 36
1, 509957, Note_on_c, 0, 30, 36
1, 509957, Note_on_c, 0, 32, 36
1, 509957, Note_on_c, 0, 44, 23
1, 510149, Note_off_c, 0, 59, 0
1, 510149, Note_off_c, 0, 71, 0
1, 510149, Note_on_c, 0, 71, 36
1, 510149, Note_on_c, 0, 88, 43
1, 510149, Note_on_c, 0, 59, 36
1, 510149, Note_on_c, 0, 76, 43
1, 510245, Note_off_c, 0, 44, 0
1, 510245, Note_off_c, 0, 32, 0
1, 510245, Note_off_c, 0, 30, 0
1, 510245, Note_off_c, 0, 56, 0
1, 510245, Note_off_c, 0, 44, 0
1, 510245, Note_off_c, 0, 32, 0
1, 510341, Note_off_c, 0, 76, 0
1, 510341, Note_off_c, 0, 59, 0
1, 510341, Note_off_c, 0, 88, 0
1, 510341, Note_off_c, 0, 71, 0
1, 510341, Note_on_c, 0, 71, 36
1, 510341, Note_on_c, 0, 32, 36
1, 510341, Note_on_c, 0, 44, 36
1, 510341, Note_on_c, 0, 86, 43
1, 510341, Note_on_c, 0, 64, 23
1, 510341, Note_on_c, 0, 59, 36
1, 510341, Note_on_c, 0, 30, 36
1, 510341, Note_on_c, 0, 32, 36
1, 510341, Note_on_c, 0, 74, 43
1, 510341, Note_on_c, 0, 52, 23
1, 510533, Note_off_c, 0, 52, 0
1, 510533, Note_off_c, 0, 74, 0
1, 510533, Note_off_c, 0, 59, 0
1, 510533, Note_off_c, 0, 64, 0
1, 510533, Note_off_c, 0, 86, 0
1, 510533, Note_off_c, 0, 71, 0
1, 510533, Note_on_c, 0, 71, 36
1, 510533, Note_on_c, 0, 85, 43
1, 510533, Note_on_c, 0, 68, 23
1, 510533, Note_on_c, 0, 59, 36
1, 510533, Note_on_c, 0, 73, 43
1, 510533, Note_on_c, 0, 56, 23
1, 510629, Note_off_c, 0, 32, 0
1, 510629, Note_off_c, 0, 30, 0
1, 510629, Note_off_c, 0, 44, 0
1, 510629, Note_off_c, 0, 32, 0
1, 510725, Note_off_c, 0, 56, 0
1, 510725, Note_off_c, 0, 73, 0
1, 510725, Note_off_c, 0, 59, 0
1, 510725, Note_off_c, 0, 68, 0
1, 510725, Note_off_c, 0, 85, 0
1, 510725, Note_off_c, 0, 71, 0
1, 510725, Note_on_c, 0, 71, 36
1, 510725, Note_on_c, 0, 32, 36
1, 510725, Note_on_c, 0, 44, 36
1, 510725, Note_on_c, 0, 83, 43
1, 510725, Note_on_c, 0, 56, 23
1, 510725, Note_on_c, 0, 59, 36
1, 510725, Note_on_c, 0, 30, 36
1, 510725, Note_on_c, 0, 32, 36
1, 510725, Note_on_c, 0, 71, 43
1, 510725, Note_on_c, 0, 44, 23
1, 510917, Note_off_c, 0, 59, 0
1, 510917, Note_off_c, 0, 71, 0
1, 510917, Note_on_c, 0, 71, 36
1, 510917, Note_on_c, 0, 59, 36
1, 511013, Note_off_c, 0, 44, 0
1, 511013, Note_off_c, 0, 32, 0
1, 511013, Note_off_c, 0, 30, 0
1, 511013, Note_off_c, 0, 56, 0
1, 511013, Note_off_c, 0, 44, 0
1, 511013, Note_off_c, 0, 32, 0
1, 511109, Note_off_c, 0, 59, 0
1, 511109, Note_off_c, 0, 71, 0
1, 511109, Note_on_c, 0, 71, 36
1, 511109, Note_on_c, 0, 32, 36
1, 511109, Note_on_c, 0, 44, 36
1, 511109, Note_on_c, 0, 64, 23
1, 511109, Note_on_c, 0, 59, 36
1, 511109, Note_on_c, 0, 30, 36
1, 511109, Note_on_c, 0, 32, 36
1, 511109, Note_on_c, 0, 52, 23
1, 511301, Note_off_c, 0, 52, 0
1, 511301, Note_off_c, 0, 32, 0
1, 511301, Note_off_c, 0, 30, 0
1, 511301, Note_off_c, 0, 59, 0
1, 511301, Note_off_c, 0, 64, 0
1, 511301, Note_off_c, 0, 44, 0
1, 511301, Note_off_c, 0, 32, 0
1, 511301, Note_off_c, 0, 71, 0
1, 511301, Note_on_c, 0, 71, 36
1, 511301, Note_on_c, 0, 32, 36
1, 511301, Note_on_c, 0, 44, 36
1, 511301, Note_on_c, 0, 68, 23
1, 511301, Note_on_c, 0, 59, 36
1, 511301, Note_on_c, 0, 30, 36
1, 511301, Note_on_c, 0, 32, 36
1, 511301, Note_on_c, 0, 56, 23
1, 511397, Note_off_c, 0, 71, 0
1, 511397, Note_off_c, 0, 83, 0
1, 511493, Note_off_c, 0, 56, 0
1, 511493, Note_off_c, 0, 32, 0
1, 511493, Note_off_c, 0, 30, 0
1, 511493, Note_off_c, 0, 59, 0
1, 511493, Note_off_c, 0, 68, 0
1, 511493, Note_off_c, 0, 44, 0
1, 511493, Note_off_c, 0, 32, 0
1, 511493, Note_off_c, 0, 71, 0
1, 511493, Note_on_c, 0, 71, 36
1, 511493, Note_on_c, 0, 31, 36
1, 511493, Note_on_c, 0, 43, 36
1, 511493, Note_on_c, 0, 85, 43
1, 511493, Note_on_c, 0, 55, 23
1, 511493, Note_on_c, 0, 59, 36
1, 511493, Note_on_c, 0, 29, 36
1, 511493, Note_on_c, 0, 31, 36
1, 511493, Note_on_c, 0, 73, 43
1, 511493, Note_on_c, 0, 43, 23
1, 511685, Note_off_c, 0, 59, 0
1, 511685, Note_off_c, 0, 71, 0
1, 511685, Note_on_c, 0, 71, 36
1, 511685, Note_on_c, 0, 59, 36
1, 511781, Note_off_c, 0, 43, 0
1, 511781, Note_off_c, 0, 31, 0
1, 511781, Note_off_c, 0, 29, 0
1, 511781, Note_off_c, 0, 55, 0
1, 511781, Note_off_c, 0, 43, 0
1, 511781, Note_off_c, 0, 31, 0
1, 511877, Note_off_c, 0, 59, 0
1, 511877, Note_off_c, 0, 71, 0
1, 511877, Note_on_c, 0, 71, 36
1, 511877, Note_on_c, 0, 31, 36
1, 511877, Note_on_c, 0, 43, 36
1, 511877, Note_on_c, 0, 62, 23
1, 511877, Note_on_c, 0, 59, 36
1, 511877, Note_on_c, 0, 29, 36
1, 511877, Note_on_c, 0, 31, 36
1, 511877, Note_on_c, 0, 50, 23
1, 512069, Note_off_c, 0, 50, 0
1, 512069, Note_off_c, 0, 31, 0
1, 512069, Note_off_c, 0, 29, 0
1, 512069, Note_off_c, 0, 59, 0
1, 512069, Note_off_c, 0, 62, 0
1, 512069, Note_off_c, 0, 43, 0
1, 512069, Note_off_c, 0, 31, 0
1, 512069, Note_off_c, 0, 71, 0
1, 512069, Note_on_c, 0, 71, 36
1, 512069, Note_on_c, 0, 31, 36
1, 512069, Note_on_c, 0, 43, 36
1, 512069, Note_on_c, 0, 67, 23
1, 512069, Note_on_c, 0, 59, 36
1, 512069, Note_on_c, 0, 29, 36
1, 512069, Note_on_c, 0, 31, 36
1, 512069, Note_on_c, 0, 55, 23
1, 512261, Note_off_c, 0, 55, 0
1, 512261, Note_off_c, 0, 59, 0
1, 512261, Note_off_c, 0, 67, 0
1, 512261, Note_off_c, 0, 71, 0
1, 512261, Note_on_c, 0, 71, 36
1, 512261, Note_on_c, 0, 55, 23
1, 512261, Note_on_c, 0, 59, 36
1, 512261, Note_on_c, 0, 43, 23
1, 512357, Note_off_c, 0, 31, 0
1, 512357, Note_off_c, 0, 29, 0
1, 512357, Note_off_c, 0, 43, 0
1, 512357, Note_off_c, 0, 31, 0
1, 512453, Note_off_c, 0, 59, 0
1, 512453, Note_off_c, 0, 71, 0
1, 512453, Note_on_c, 0, 71, 36
1, 512453, Note_on_c, 0, 31, 36
1, 512453, Note_on_c, 0, 43, 36
1, 512453, Note_on_c, 0, 59, 36
1, 512453, Note_on_c, 0, 29, 36
1, 512453, Note_on_c, 0, 31, 36
1, 512549, Note_off_c, 0, 43, 0
1, 512549, Note_off_c, 0, 55, 0
1, 512645, Note_off_c, 0, 31, 0
1, 512645, Note_off_c, 0, 29, 0
1, 512645, Note_off_c, 0, 59, 0
1, 512645, Note_off_c, 0, 43, 0
1, 512645, Note_off_c, 0, 31, 0
1, 512645, Note_off_c, 0, 71, 0
1, 512645, Note_on_c, 0, 71, 36
1, 512645, Note_on_c, 0, 31, 36
1, 512645, Note_on_c, 0, 43, 36
1, 512645, Note_on_c, 0, 62, 23
1, 512645, Note_on_c, 0, 59, 36
1, 512645, Note_on_c, 0, 29, 36
1, 512645, Note_on_c, 0, 31, 36
1, 512645, Note_on_c, 0, 50, 23
1, 512837, Note_off_c, 0, 50, 0
1, 512837, Note_off_c, 0, 59, 0
1, 512837, Note_off_c, 0, 62, 0
1, 512837, Note_off_c, 0, 71, 0
1, 512837, Note_on_c, 0, 71, 36
1, 512837, Note_on_c, 0, 67, 23
1, 512837, Note_on_c, 0, 59, 36
1, 512837, Note_on_c, 0, 55, 23
1, 512933, Note_off_c, 0, 31, 0
1, 512933, Note_off_c, 0, 29, 0
1, 512933, Note_off_c, 0, 43, 0
1, 512933, Note_off_c, 0, 31, 0
1, 512933, Note_off_c, 0, 73, 0
1, 512933, Note_off_c, 0, 85, 0
1, 513029, Note_off_c, 0, 55, 0
1, 513029, Note_off_c, 0, 59, 0
1, 513029, Note_off_c, 0, 67, 0
1, 513029, Note_off_c, 0, 71, 0
1, 513029, Note_on_c, 0, 71, 36
1, 513029, Note_on_c, 0, 33, 36
1, 513029, Note_on_c, 0, 45, 36
1, 513029, Note_on_c, 0, 86, 43
1, 513029, Note_on_c, 0, 57, 23
1, 513029, Note_on_c, 0, 59, 36
1, 513029, Note_on_c, 0, 31, 36
1, 513029, Note_on_c, 0, 33, 36
1, 513029, Note_on_c, 0, 74, 43
1, 513029, Note_on_c, 0, 45, 23
1, 513221, Note_off_c, 0, 33, 0
1, 513221, Note_off_c, 0, 31, 0
1, 513221, Note_off_c, 0, 59, 0
1, 513221, Note_off_c, 0, 45, 0
1, 513221, Note_off_c, 0, 33, 0
1, 513221, Note_off_c, 0, 71, 0
1, 513221, Note_on_c, 0, 71, 36
1, 513221, Note_on_c, 0, 33, 36
1, 513221, Note_on_c, 0, 45, 36
1, 513221, Note_on_c, 0, 59, 36
1, 513221, Note_on_c, 0, 31, 36
1, 513221, Note_on_c, 0, 33, 36
1, 513317, Note_off_c, 0, 45, 0
1, 513317, Note_off_c, 0, 57, 0
1, 513413, Note_off_c, 0, 33, 0
1, 513413, Note_off_c, 0, 31, 0
1, 513413, Note_off_c, 0, 59, 0
1, 513413, Note_off_c, 0, 45, 0
1, 513413, Note_off_c, 0, 33, 0
1, 513413, Note_off_c, 0, 71, 0
1, 513413, Note_on_c, 0, 71, 36
1, 513413, Note_on_c, 0, 33, 36
1, 513413, Note_on_c, 0, 45, 36
1, 513413, Note_on_c, 0, 64, 23
1, 513413, Note_on_c, 0, 59, 36
1, 513413, Note_on_c, 0, 31, 36
1, 513413, Note_on_c, 0, 33, 36
1, 513413, Note_on_c, 0, 52, 23
1, 513605, Note_off_c, 0, 52, 0
1, 513605, Note_off_c, 0, 59, 0
1, 513605, Note_off_c, 0, 64, 0
1, 513605, Note_off_c, 0, 71, 0
1, 513605, Note_on_c, 0, 71, 36
1, 513605, Note_on_c, 0, 69, 23
1, 513605, Note_on_c, 0, 59, 36
1, 513605, Note_on_c, 0, 57, 23
1, 513701, Note_off_c, 0, 33, 0
1, 513701, Note_off_c, 0, 31, 0
1, 513701, Note_off_c, 0, 45, 0
1, 513701, Note_off_c, 0, 33, 0
1, 513797, Note_off_c, 0, 57, 0
1, 513797, Note_off_c, 0, 59, 0
1, 513797, Note_off_c, 0, 69, 0
1, 513797, Note_off_c, 0, 71, 0
1, 513797, Note_on_c, 0, 71, 36
1, 513797, Note_on_c, 0, 33, 36
1, 513797, Note_on_c, 0, 45, 36
1, 513797, Note_on_c, 0, 57, 23
1, 513797, Note_on_c, 0, 59, 36
1, 513797, Note_on_c, 0, 31, 36
1, 513797, Note_on_c, 0, 33, 36
1, 513797, Note_on_c, 0, 45, 23
1, 513893, Note_off_c, 0, 33, 0
1, 513893, Note_off_c, 0, 31, 0
1, 513893, Note_off_c, 0, 45, 0
1, 513893, Note_off_c, 0, 33, 0
1, 513893, Note_on_c, 0, 33, 36
1, 513893, Note_on_c, 0, 45, 36
1, 513893, Note_on_c, 0, 31, 36
1, 513893, Note_on_c, 0, 33, 36
1, 513989, Note_off_c, 0, 33, 0
1, 513989, Note_off_c, 0, 31, 0
1, 513989, Note_off_c, 0, 45, 0
1, 513989, Note_off_c, 0, 33, 0
1, 513989, Note_off_c, 0, 59, 0
1, 513989, Note_off_c, 0, 71, 0
1, 513989, Note_on_c, 0, 71, 36
1, 513989, Note_on_c, 0, 33, 36
1, 513989, Note_on_c, 0, 45, 36
1, 513989, Note_on_c, 0, 59, 36
1, 513989, Note_on_c, 0, 31, 36
1, 513989, Note_on_c, 0, 33, 36
1, 514085, Note_off_c, 0, 33, 0
1, 514085, Note_off_c, 0, 31, 0
1, 514085, Note_off_c, 0, 45, 0
1, 514085, Note_off_c, 0, 33, 0
1, 514085, Note_off_c, 0, 45, 0
1, 514085, Note_off_c, 0, 57, 0
1, 514085, Note_on_c, 0, 33, 36
1, 514085, Note_on_c, 0, 45, 36
1, 514085, Note_on_c, 0, 31, 36
1, 514085, Note_on_c, 0, 33, 36
1, 514181, Note_off_c, 0, 33, 0
1, 514181, Note_off_c, 0, 31, 0
1, 514181, Note_off_c, 0, 45, 0
1, 514181, Note_off_c, 0, 33, 0
1, 514181, Note_off_c, 0, 59, 0
1, 514181, Note_off_c, 0, 71, 0
1, 514181, Note_on_c, 0, 71, 36
1, 514181, Note_on_c, 0, 33, 36
1, 514181, Note_on_c, 0, 45, 36
1, 514181, Note_on_c, 0, 64, 23
1, 514181, Note_on_c, 0, 59, 36
1, 514181, Note_on_c, 0, 31, 36
1, 514181, Note_on_c, 0, 33, 36
1, 514181, Note_on_c, 0, 52, 23
1, 514277, Note_off_c, 0, 33, 0
1, 514277, Note_off_c, 0, 31, 0
1, 514277, Note_off_c, 0, 45, 0
1, 514277, Note_off_c, 0, 33, 0
1, 514277, Note_on_c, 0, 33, 36
1, 514277, Note_on_c, 0, 45, 36
1, 514277, Note_on_c, 0, 31, 36
1, 514277, Note_on_c, 0, 33, 36
1, 514373, Note_off_c, 0, 33, 0
1, 514373, Note_off_c, 0, 31, 0
1, 514373, Note_off_c, 0, 45, 0
1, 514373, Note_off_c, 0, 33, 0
1, 514373, Note_off_c, 0, 52, 0
1, 514373, Note_off_c, 0, 59, 0
1, 514373, Note_off_c, 0, 64, 0
1, 514373, Note_off_c, 0, 71, 0
1, 514373, Note_on_c, 0, 71, 36
1, 514373, Note_on_c, 0, 33, 36
1, 514373, Note_on_c, 0, 45, 36
1, 514373, Note_on_c, 0, 69, 23
1, 514373, Note_on_c, 0, 59, 36
1, 514373, Note_on_c, 0, 31, 36
1, 514373, Note_on_c, 0, 33, 36
1, 514373, Note_on_c, 0, 57, 23
1, 514469, Note_off_c, 0, 33, 0
1, 514469, Note_off_c, 0, 31, 0
1, 514469, Note_off_c, 0, 45, 0
1, 514469, Note_off_c, 0, 33, 0
1, 514469, Note_off_c, 0, 74, 0
1, 514469, Note_off_c, 0, 86, 0
1, 514469, Note_on_c, 0, 33, 36
1, 514469, Note_on_c, 0, 45, 36
1, 514469, Note_on_c, 0, 31, 36
1, 514469, Note_on_c, 0, 33, 36
1, 514565, Note_off_c, 0, 33, 0
1, 514565, Note_off_c, 0, 31, 0
1, 514565, Note_off_c, 0, 45, 0
1, 514565, Note_off_c, 0, 33, 0
1, 514565, Note_off_c, 0, 57, 0
1, 514565, Note_off_c, 0, 59, 0
1, 514565, Note_off_c, 0, 69, 0
1, 514565, Note_off_c, 0, 71, 0
1, 514565, Note_on_c, 0, 35, 36
1, 514565, Note_on_c, 0, 47, 36
1, 514565, Note_on_c, 0, 78, 43
1, 514565, Note_on_c, 0, 85, 43
1, 514565, Note_on_c, 0, 59, 23
1, 514565, Note_on_c, 0, 24, 36
1, 514565, Note_on_c, 0, 35, 36
1, 514565, Note_on_c, 0, 66, 43
1, 514565, Note_on_c, 0, 73, 43
1, 514565, Note_on_c, 0, 47, 23
1, 514853, Note_off_c, 0, 47, 0
1, 514853, Note_off_c, 0, 35, 0
1, 514853, Note_off_c, 0, 24, 0
1, 514853, Note_off_c, 0, 59, 0
1, 514853, Note_off_c, 0, 47, 0
1, 514853, Note_off_c, 0, 35, 0
1, 514949, Note_on_c, 0, 35, 36
1, 514949, Note_on_c, 0, 47, 36
1, 514949, Note_on_c, 0, 66, 23
1, 514949, Note_on_c, 0, 24, 36
1, 514949, Note_on_c, 0, 35, 36
1, 514949, Note_on_c, 0, 54, 23
1, 515141, Note_off_c, 0, 54, 0
1, 515141, Note_off_c, 0, 66, 0
1, 515141, Note_on_c, 0, 71, 23
1, 515141, Note_on_c, 0, 59, 23
1, 515237, Note_off_c, 0, 35, 0
1, 515237, Note_off_c, 0, 24, 0
1, 515237, Note_off_c, 0, 47, 0
1, 515237, Note_off_c, 0, 35, 0
1, 515333, Note_off_c, 0, 59, 0
1, 515333, Note_off_c, 0, 71, 0
1, 515333, Note_on_c, 0, 35, 36
1, 515333, Note_on_c, 0, 47, 36
1, 515333, Note_on_c, 0, 59, 23
1, 515333, Note_on_c, 0, 24, 36
1, 515333, Note_on_c, 0, 35, 36
1, 515333, Note_on_c, 0, 47, 23
1, 515621, Note_off_c, 0, 47, 0
1, 515621, Note_off_c, 0, 35, 0
1, 515621, Note_off_c, 0, 24, 0
1, 515621, Note_off_c, 0, 59, 0
1, 515621, Note_off_c, 0, 47, 0
1, 515621, Note_off_c, 0, 35, 0
1, 515717, Note_on_c, 0, 35, 36
1, 515717, Note_on_c, 0, 47, 36
1, 515717, Note_on_c, 0, 66, 23
1, 515717, Note_on_c, 0, 24, 36
1, 515717, Note_on_c, 0, 35, 36
1, 515717, Note_on_c, 0, 54, 23
1, 515909, Note_off_c, 0, 54, 0
1, 515909, Note_off_c, 0, 66, 0
1, 515909, Note_on_c, 0, 71, 23
1, 515909, Note_on_c, 0, 59, 23
1, 516005, Note_off_c, 0, 35, 0
1, 516005, Note_off_c, 0, 24, 0
1, 516005, Note_off_c, 0, 47, 0
1, 516005, Note_off_c, 0, 35, 0
1, 516005, Note_off_c, 0, 73, 0
1, 516005, Note_off_c, 0, 66, 0
1, 516005, Note_off_c, 0, 85, 0
1, 516005, Note_off_c, 0, 78, 0
1, 516101, Note_off_c, 0, 59, 0
1, 516101, Note_off_c, 0, 71, 0
1, 516101, Note_on_c, 0, 35, 36
1, 516101, Note_on_c, 0, 47, 36
1, 516101, Note_on_c, 0, 85, 43
1, 516101, Note_on_c, 0, 78, 43
1, 516101, Note_on_c, 0, 59, 23
1, 516101, Note_on_c, 0, 24, 36
1, 516101, Note_on_c, 0, 35, 36
1, 516101, Note_on_c, 0, 73, 43
1, 516101, Note_on_c, 0, 66, 43
1, 516101, Note_on_c, 0, 47, 23
1, 516389, Note_off_c, 0, 47, 0
1, 516389, Note_off_c, 0, 35, 0
1, 516389, Note_off_c, 0, 24, 0
1, 516389, Note_off_c, 0, 59, 0
1, 516389, Note_off_c, 0, 47, 0
1, 516389, Note_off_c, 0, 35, 0
1, 516485, Note_on_c, 0, 35, 36
1, 516485, Note_on_c, 0, 47, 36
1, 516485, Note_on_c, 0, 66, 23
1, 516485, Note_on_c, 0, 24, 36
1, 516485, Note_on_c, 0, 35, 36
1, 516485, Note_on_c, 0, 54, 23
1, 516581, Note_off_c, 0, 73, 0
1, 516581, Note_off_c, 0, 85, 0
1, 516677, Note_off_c, 0, 54, 0
1, 516677, Note_off_c, 0, 66, 0
1, 516677, Note_on_c, 0, 83, 43
1, 516677, Note_on_c, 0, 71, 23
1, 516677, Note_on_c, 0, 71, 43
1, 516677, Note_on_c, 0, 59, 23
1, 516773, Note_off_c, 0, 35, 0
1, 516773, Note_off_c, 0, 24, 0
1, 516773, Note_off_c, 0, 47, 0
1, 516773, Note_off_c, 0, 35, 0
1, 516869, Note_off_c, 0, 59, 0
1, 516869, Note_off_c, 0, 71, 0
1, 516869, Note_on_c, 0, 35, 36
1, 516869, Note_on_c, 0, 47, 36
1, 516869, Note_on_c, 0, 59, 23
1, 516869, Note_on_c, 0, 24, 36
1, 516869, Note_on_c, 0, 35, 36
1, 516869, Note_on_c, 0, 47, 23
1, 517157, Note_off_c, 0, 47, 0
1, 517157, Note_off_c, 0, 35, 0
1, 517157, Note_off_c, 0, 24, 0
1, 517157, Note_off_c, 0, 59, 0
1, 517157, Note_off_c, 0, 47, 0
1, 517157, Note_off_c, 0, 35, 0
1, 517157, Note_off_c, 0, 71, 0
1, 517157, Note_off_c, 0, 83, 0
1, 517253, Note_on_c, 0, 35, 36
1, 517253, Note_on_c, 0, 47, 36
1, 517253, Note_on_c, 0, 90, 43
1, 517253, Note_on_c, 0, 66, 23
1, 517253, Note_on_c, 0, 24, 36
1, 517253, Note_on_c, 0, 35, 36
1, 517253, Note_on_c, 0, 78, 43
1, 517253, Note_on_c, 0, 54, 23
1, 517445, Note_off_c, 0, 54, 0
1, 517445, Note_off_c, 0, 35, 0
1, 517445, Note_off_c, 0, 24, 0
1, 517445, Note_off_c, 0, 66, 0
1, 517445, Note_off_c, 0, 47, 0
1, 517445, Note_off_c, 0, 35, 0
1, 517445, Note_on_c, 0, 35, 36
1, 517445, Note_on_c, 0, 47, 36
1, 517445, Note_on_c, 0, 71, 23
1, 517445, Note_on_c, 0, 24, 36
1, 517445, Note_on_c, 0, 35, 36
1, 517445, Note_on_c, 0, 59, 23
1, 517541, Note_off_c, 0, 78, 0
1, 517541, Note_off_c, 0, 90, 0
1, 517541, Note_off_c, 0, 66, 0
1, 517541, Note_off_c, 0, 78, 0
1, 517637, Note_off_c, 0, 59, 0
1, 517637, Note_off_c, 0, 35, 0
1, 517637, Note_off_c, 0, 24, 0
1, 517637, Note_off_c, 0, 71, 0
1, 517637, Note_off_c, 0, 47, 0
1, 517637, Note_off_c, 0, 35, 0
1, 517637, Note_on_c, 0, 33, 36
1, 517637, Note_on_c, 0, 45, 36
1, 517637, Note_on_c, 0, 78, 43
1, 517637, Note_on_c, 0, 85, 43
1, 517637, Note_on_c, 0, 57, 23
1, 517637, Note_on_c, 0, 31, 36
1, 517637, Note_on_c, 0, 33, 36
1, 517637, Note_on_c, 0, 66, 43
1, 517637, Note_on_c, 0, 73, 43
1, 517637, Note_on_c, 0, 45, 23
1, 517925, Note_off_c, 0, 45, 0
1, 517925, Note_off_c, 0, 33, 0
1, 517925, Note_off_c, 0, 31, 0
1, 517925, Note_off_c, 0, 57, 0
1, 517925, Note_off_c, 0, 45, 0
1, 517925, Note_off_c, 0, 33, 0
1, 518021, Note_on_c, 0, 33, 36
1, 518021, Note_on_c, 0, 45, 36
1, 518021, Note_on_c, 0, 64, 23
1, 518021, Note_on_c, 0, 31, 36
1, 518021, Note_on_c, 0, 33, 36
1, 518021, Note_on_c, 0, 52, 23
1, 518213, Note_off_c, 0, 52, 0
1, 518213, Note_off_c, 0, 64, 0
1, 518213, Note_on_c, 0, 69, 23
1, 518213, Note_on_c, 0, 57, 23
1, 518309, Note_off_c, 0, 33, 0
1, 518309, Note_off_c, 0, 31, 0
1, 518309, Note_off_c, 0, 45, 0
1, 518309, Note_off_c, 0, 33, 0
1, 518405, Note_off_c, 0, 57, 0
1, 518405, Note_off_c, 0, 69, 0
1, 518405, Note_on_c, 0, 33, 36
1, 518405, Note_on_c, 0, 45, 36
1, 518405, Note_on_c, 0, 57, 23
1, 518405, Note_on_c, 0, 31, 36
1, 518405, Note_on_c, 0, 33, 36
1, 518405, Note_on_c, 0, 45, 23
1, 518693, Note_off_c, 0, 45, 0
1, 518693, Note_off_c, 0, 33, 0
1, 518693, Note_off_c, 0, 31, 0
1, 518693, Note_off_c, 0, 57, 0
1, 518693, Note_off_c, 0, 45, 0
1, 518693, Note_off_c, 0, 33, 0
1, 518789, Note_on_c, 0, 33, 36
1, 518789, Note_on_c, 0, 45, 36
1, 518789, Note_on_c, 0, 64, 23
1, 518789, Note_on_c, 0, 31, 36
1, 518789, Note_on_c, 0, 33, 36
1, 518789, Note_on_c, 0, 52, 23
1, 518981, Note_off_c, 0, 52, 0
1, 518981, Note_off_c, 0, 64, 0
1, 518981, Note_on_c, 0, 69, 23
1, 518981, Note_on_c, 0, 57, 23
1, 519077, Note_off_c, 0, 33, 0
1, 519077, Note_off_c, 0, 31, 0
1, 519077, Note_off_c, 0, 45, 0
1, 519077, Note_off_c, 0, 33, 0
1, 519077, Note_off_c, 0, 73, 0
1, 519077, Note_off_c, 0, 66, 0
1, 519077, Note_off_c, 0, 85, 0
1, 519077, Note_off_c, 0, 78, 0
1, 519173, Note_off_c, 0, 57, 0
1, 519173, Note_off_c, 0, 69, 0
1, 519173, Note_on_c, 0, 33, 36
1, 519173, Note_on_c, 0, 45, 36
1, 519173, Note_on_c, 0, 85, 43
1, 519173, Note_on_c, 0, 78, 43
1, 519173, Note_on_c, 0, 57, 23
1, 519173, Note_on_c, 0, 31, 36
1, 519173, Note_on_c, 0, 33, 36
1, 519173, Note_on_c, 0, 73, 43
1, 519173, Note_on_c, 0, 66, 43
1, 519173, Note_on_c, 0, 45, 23
1, 519461, Note_off_c, 0, 45, 0
1, 519461, Note_off_c, 0, 33, 0
1, 519461, Note_off_c, 0, 31, 0
1, 519461, Note_off_c, 0, 57, 0
1, 519461, Note_off_c, 0, 45, 0
1, 519461, Note_off_c, 0, 33, 0
1, 519557, Note_on_c, 0, 33, 36
1, 519557, Note_on_c, 0, 45, 36
1, 519557, Note_on_c, 0, 64, 23
1, 519557, Note_on_c, 0, 31, 36
1, 519557, Note_on_c, 0, 33, 36
1, 519557, Note_on_c, 0, 52, 23
1, 519653, Note_off_c, 0, 73, 0
1, 519653, Note_off_c, 0, 85, 0
1, 519749, Note_off_c, 0, 52, 0
1, 519749, Note_off_c, 0, 64, 0
1, 519749, Note_on_c, 0, 83, 43
1, 519749, Note_on_c, 0, 69, 23
1, 519749, Note_on_c, 0, 71, 43
1, 519749, Note_on_c, 0, 57, 23
1, 519845, Note_off_c, 0, 33, 0
1, 519845, Note_off_c, 0, 31, 0
1, 519845, Note_off_c, 0, 45, 0
1, 519845, Note_off_c, 0, 33, 0
1, 519941, Note_off_c, 0, 57, 0
1, 519941, Note_off_c, 0, 69, 0
1, 519941, Note_on_c, 0, 33, 36
1, 519941, Note_on_c, 0, 45, 36
1, 519941, Note_on_c, 0, 57, 23
1, 519941, Note_on_c, 0, 31, 36
1, 519941, Note_on_c, 0, 33, 36
1, 519941, Note_on_c, 0, 45, 23
1, 520229, Note_off_c, 0, 45, 0
1, 520229, Note_off_c, 0, 33, 0
1, 520229, Note_off_c, 0, 31, 0
1, 520229, Note_off_c, 0, 57, 0
1, 520229, Note_off_c, 0, 45, 0
1, 520229, Note_off_c, 0, 33, 0
1, 520229, Note_off_c, 0, 71, 0
1, 520229, Note_off_c, 0, 83, 0
1, 520325, Note_on_c, 0, 33, 36
1, 520325, Note_on_c, 0, 45, 36
1, 520325, Note_on_c, 0, 90, 43
1, 520325, Note_on_c, 0, 64, 23
1, 520325, Note_on_c, 0, 31, 36
1, 520325, Note_on_c, 0, 33, 36
1, 520325, Note_on_c, 0, 78, 43
1, 520325, Note_on_c, 0, 52, 23
1, 520517, Note_off_c, 0, 52, 0
1, 520517, Note_off_c, 0, 33, 0
1, 520517, Note_off_c, 0, 31, 0
1, 520517, Note_off_c, 0, 64, 0
1, 520517, Note_off_c, 0, 45, 0
1, 520517, Note_off_c, 0, 33, 0
1, 520517, Note_on_c, 0, 33, 36
1, 520517, Note_on_c, 0, 45, 36
1, 520517, Note_on_c, 0, 69, 23
1, 520517, Note_on_c, 0, 31, 36
1, 520517, Note_on_c, 0, 33, 36
1, 520517, Note_on_c, 0, 57, 23
1, 520613, Note_off_c, 0, 78, 0
1, 520613, Note_off_c, 0, 90, 0
1, 520613, Note_off_c, 0, 66, 0
1, 520613, Note_off_c, 0, 78, 0
1, 520709, Note_off_c, 0, 57, 0
1, 520709, Note_off_c, 0, 33, 0
1, 520709, Note_off_c, 0, 31, 0
1, 520709, Note_off_c, 0, 69, 0
1, 520709, Note_off_c, 0, 45, 0
1, 520709, Note_off_c, 0, 33, 0
1, 520709, Note_on_c, 0, 32, 36
1, 520709, Note_on_c, 0, 44, 36
1, 520709, Note_on_c, 0, 78, 43
1, 520709, Note_on_c, 0, 85, 43
1, 520709, Note_on_c, 0, 56, 23
1, 520709, Note_on_c, 0, 30, 36
1, 520709, Note_on_c, 0, 32, 36
1, 520709, Note_on_c, 0, 66, 43
1, 520709, Note_on_c, 0, 73, 43
1, 520709, Note_on_c, 0, 44, 23
1, 520997, Note_off_c, 0, 44, 0
1, 520997, Note_off_c, 0, 32, 0
1, 520997, Note_off_c, 0, 30, 0
1, 520997, Note_off_c, 0, 56, 0
1, 520997, Note_off_c, 0, 44, 0
1, 520997, Note_off_c, 0, 32, 0
1, 521093, Note_on_c, 0, 32, 36
1, 521093, Note_on_c, 0, 44, 36
1, 521093, Note_on_c, 0, 64, 23
1, 521093, Note_on_c, 0, 30, 36
1, 521093, Note_on_c, 0, 32, 36
1, 521093, Note_on_c, 0, 52, 23
1, 521285, Note_off_c, 0, 52, 0
1, 521285, Note_off_c, 0, 64, 0
1, 521285, Note_on_c, 0, 68, 23
1, 521285, Note_on_c, 0, 56, 23
1, 521381, Note_off_c, 0, 32, 0
1, 521381, Note_off_c, 0, 30, 0
1, 521381, Note_off_c, 0, 44, 0
1, 521381, Note_off_c, 0, 32, 0
1, 521477, Note_off_c, 0, 56, 0
1, 521477, Note_off_c, 0, 68, 0
1, 521477, Note_on_c, 0, 32, 36
1, 521477, Note_on_c, 0, 44, 36
1, 521477, Note_on_c, 0, 56, 23
1, 521477, Note_on_c, 0, 30, 36
1, 521477, Note_on_c, 0, 32, 36
1, 521477, Note_on_c, 0, 44, 23
1, 521765, Note_off_c, 0, 44, 0
1, 521765, Note_off_c, 0, 32, 0
1, 521765, Note_off_c, 0, 30, 0
1, 521765, Note_off_c, 0, 56, 0
1, 521765, Note_off_c, 0, 44, 0
1, 521765, Note_off_c, 0, 32, 0
1, 521861, Note_on_c, 0, 32, 36
1, 521861, Note_on_c, 0, 44, 36
1, 521861, Note_on_c, 0, 64, 23
1, 521861, Note_on_c, 0, 30, 36
1, 521861, Note_on_c, 0, 32, 36
1, 521861, Note_on_c, 0, 52, 23
1, 522053, Note_off_c, 0, 52, 0
1, 522053, Note_off_c, 0, 64, 0
1, 522053, Note_on_c, 0, 68, 23
1, 522053, Note_on_c, 0, 56, 23
1, 522149, Note_off_c, 0, 32, 0
1, 522149, Note_off_c, 0, 30, 0
1, 522149, Note_off_c, 0, 44, 0
1, 522149, Note_off_c, 0, 32, 0
1, 522149, Note_off_c, 0, 73, 0
1, 522149, Note_off_c, 0, 66, 0
1, 522149, Note_off_c, 0, 85, 0
1, 522149, Note_off_c, 0, 78, 0
1, 522245, Note_off_c, 0, 56, 0
1, 522245, Note_off_c, 0, 68, 0
1, 522245, Note_on_c, 0, 32, 36
1, 522245, Note_on_c, 0, 44, 36
1, 522245, Note_on_c, 0, 85, 43
1, 522245, Note_on_c, 0, 78, 43
1, 522245, Note_on_c, 0, 56, 23
1, 522245, Note_on_c, 0, 30, 36
1, 522245, Note_on_c, 0, 32, 36
1, 522245, Note_on_c, 0, 73, 43
1, 522245, Note_on_c, 0, 66, 43
1, 522245, Note_on_c, 0, 44, 23
1, 522533, Note_off_c, 0, 44, 0
1, 522533, Note_off_c, 0, 32, 0
1, 522533, Note_off_c, 0, 30, 0
1, 522533, Note_off_c, 0, 56, 0
1, 522533, Note_off_c, 0, 44, 0
1, 522533, Note_off_c, 0, 32, 0
1, 522629, Note_on_c, 0, 32, 36
1, 522629, Note_on_c, 0, 44, 36
1, 522629, Note_on_c, 0, 64, 23
1, 522629, Note_on_c, 0, 30, 36
1, 522629, Note_on_c, 0, 32, 36
1, 522629, Note_on_c, 0, 52, 23
1, 522725, Note_off_c, 0, 73, 0
1, 522725, Note_off_c, 0, 85, 0
1, 522821, Note_off_c, 0, 52, 0
1, 522821, Note_off_c, 0, 64, 0
1, 522821, Note_on_c, 0, 83, 43
1, 522821, Note_on_c, 0, 68, 23
1, 522821, Note_on_c, 0, 71, 43
1, 522821, Note_on_c, 0, 56, 23
1, 522917, Note_off_c, 0, 32, 0
1, 522917, Note_off_c, 0, 30, 0
1, 522917, Note_off_c, 0, 44, 0
1, 522917, Note_off_c, 0, 32, 0
1, 523013, Note_off_c, 0, 56, 0
1, 523013, Note_off_c, 0, 68, 0
1, 523013, Note_on_c, 0, 32, 36
1, 523013, Note_on_c, 0, 44, 36
1, 523013, Note_on_c, 0, 56, 23
1, 523013, Note_on_c, 0, 30, 36
1, 523013, Note_on_c, 0, 32, 36
1, 523013, Note_on_c, 0, 44, 23
1, 523301, Note_off_c, 0, 44, 0
1, 523301, Note_off_c, 0, 32, 0
1, 523301, Note_off_c, 0, 30, 0
1, 523301, Note_off_c, 0, 56, 0
1, 523301, Note_off_c, 0, 44, 0
1, 523301, Note_off_c, 0, 32, 0
1, 523301, Note_off_c, 0, 71, 0
1, 523301, Note_off_c, 0, 83, 0
1, 523397, Note_on_c, 0, 32, 36
1, 523397, Note_on_c, 0, 44, 36
1, 523397, Note_on_c, 0, 90, 43
1, 523397, Note_on_c, 0, 64, 23
1, 523397, Note_on_c, 0, 30, 36
1, 523397, Note_on_c, 0, 32, 36
1, 523397, Note_on_c, 0, 78, 43
1, 523397, Note_on_c, 0, 52, 23
1, 523589, Note_off_c, 0, 52, 0
1, 523589, Note_off_c, 0, 32, 0
1, 523589, Note_off_c, 0, 30, 0
1, 523589, Note_off_c, 0, 64, 0
1, 523589, Note_off_c, 0, 44, 0
1, 523589, Note_off_c, 0, 32, 0
1, 523589, Note_on_c, 0, 32, 36
1, 523589, Note_on_c, 0, 44, 36
1, 523589, Note_on_c, 0, 68, 23
1, 523589, Note_on_c, 0, 30, 36
1, 523589, Note_on_c, 0, 32, 36
1, 523589, Note_on_c, 0, 56, 23
1, 523685, Note_off_c, 0, 78, 0
1, 523685, Note_off_c, 0, 90, 0
1, 523685, Note_off_c, 0, 66, 0
1, 523685, Note_off_c, 0, 78, 0
1, 523781, Note_off_c, 0, 56, 0
1, 523781, Note_off_c, 0, 32, 0
1, 523781, Note_off_c, 0, 30, 0
1, 523781, Note_off_c, 0, 68, 0
1, 523781, Note_off_c, 0, 44, 0
1, 523781, Note_off_c, 0, 32, 0
1, 523781, Note_on_c, 0, 31, 36
1, 523781, Note_on_c, 0, 43, 36
1, 523781, Note_on_c, 0, 85, 43
1, 523781, Note_on_c, 0, 55, 23
1, 523781, Note_on_c, 0, 29, 36
1, 523781, Note_on_c, 0, 31, 36
1, 523781, Note_on_c, 0, 73, 43
1, 523781, Note_on_c, 0, 43, 23
1, 524069, Note_off_c, 0, 43, 0
1, 524069, Note_off_c, 0, 31, 0
1, 524069, Note_off_c, 0, 29, 0
1, 524069, Note_off_c, 0, 55, 0
1, 524069, Note_off_c, 0, 43, 0
1, 524069, Note_off_c, 0, 31, 0
1, 524165, Note_on_c, 0, 31, 36
1, 524165, Note_on_c, 0, 43, 36
1, 524165, Note_on_c, 0, 62, 23
1, 524165, Note_on_c, 0, 29, 36
1, 524165, Note_on_c, 0, 31, 36
1, 524165, Note_on_c, 0, 50, 23
1, 524261, Note_off_c, 0, 73, 0
1, 524261, Note_off_c, 0, 85, 0
1, 524357, Note_off_c, 0, 50, 0
1, 524357, Note_off_c, 0, 31, 0
1, 524357, Note_off_c, 0, 29, 0
1, 524357, Note_off_c, 0, 62, 0
1, 524357, Note_off_c, 0, 43, 0
1, 524357, Note_off_c, 0, 31, 0
1, 524357, Note_on_c, 0, 31, 36
1, 524357, Note_on_c, 0, 43, 36
1, 524357, Note_on_c, 0, 83, 43
1, 524357, Note_on_c, 0, 67, 23
1, 524357, Note_on_c, 0, 29, 36
1, 524357, Note_on_c, 0, 31, 36
1, 524357, Note_on_c, 0, 71, 43
1, 524357, Note_on_c, 0, 55, 23
1, 524549, Note_off_c, 0, 55, 0
1, 524549, Note_off_c, 0, 67, 0
1, 524549, Note_on_c, 0, 55, 23
1, 524549, Note_on_c, 0, 43, 23
1, 524645, Note_off_c, 0, 31, 0
1, 524645, Note_off_c, 0, 29, 0
1, 524645, Note_off_c, 0, 43, 0
1, 524645, Note_off_c, 0, 31, 0
1, 524741, Note_on_c, 0, 31, 36
1, 524741, Note_on_c, 0, 43, 36
1, 524741, Note_on_c, 0, 29, 36
1, 524741, Note_on_c, 0, 31, 36
1, 524837, Note_off_c, 0, 43, 0
1, 524837, Note_off_c, 0, 55, 0
1, 524837, Note_off_c, 0, 71, 0
1, 524837, Note_off_c, 0, 83, 0
1, 524933, Note_off_c, 0, 31, 0
1, 524933, Note_off_c, 0, 29, 0
1, 524933, Note_off_c, 0, 43, 0
1, 524933, Note_off_c, 0, 31, 0
1, 524933, Note_on_c, 0, 31, 36
1, 524933, Note_on_c, 0, 43, 36
1, 524933, Note_on_c, 0, 85, 43
1, 524933, Note_on_c, 0, 62, 23
1, 524933, Note_on_c, 0, 29, 36
1, 524933, Note_on_c, 0, 31, 36
1, 524933, Note_on_c, 0, 73, 43
1, 524933, Note_on_c, 0, 50, 23
1, 525125, Note_off_c, 0, 50, 0
1, 525125, Note_off_c, 0, 62, 0
1, 525125, Note_on_c, 0, 67, 23
1, 525125, Note_on_c, 0, 55, 23
1, 525221, Note_off_c, 0, 73, 0
1, 525221, Note_off_c, 0, 31, 0
1, 525221, Note_off_c, 0, 29, 0
1, 525221, Note_off_c, 0, 85, 0
1, 525221, Note_off_c, 0, 43, 0
1, 525221, Note_off_c, 0, 31, 0
1, 525317, Note_off_c, 0, 55, 0
1, 525317, Note_off_c, 0, 67, 0
1, 525317, Note_on_c, 0, 33, 36
1, 525317, Note_on_c, 0, 45, 36
1, 525317, Note_on_c, 0, 86, 43
1, 525317, Note_on_c, 0, 57, 23
1, 525317, Note_on_c, 0, 31, 36
1, 525317, Note_on_c, 0, 33, 36
1, 525317, Note_on_c, 0, 74, 43
1, 525317, Note_on_c, 0, 45, 23
1, 525509, Note_off_c, 0, 33, 0
1, 525509, Note_off_c, 0, 31, 0
1, 525509, Note_off_c, 0, 45, 0
1, 525509, Note_off_c, 0, 33, 0
1, 525509, Note_on_c, 0, 33, 36
1, 525509, Note_on_c, 0, 45, 36
1, 525509, Note_on_c, 0, 31, 36
1, 525509, Note_on_c, 0, 33, 36
1, 525605, Note_off_c, 0, 45, 0
1, 525605, Note_off_c, 0, 74, 0
1, 525605, Note_off_c, 0, 57, 0
1, 525605, Note_off_c, 0, 86, 0
1, 525701, Note_off_c, 0, 33, 0
1, 525701, Note_off_c, 0, 31, 0
1, 525701, Note_off_c, 0, 45, 0
1, 525701, Note_off_c, 0, 33, 0
1, 525701, Note_on_c, 0, 33, 36
1, 525701, Note_on_c, 0, 45, 36
1, 525701, Note_on_c, 0, 85, 43
1, 525701, Note_on_c, 0, 64, 23
1, 525701, Note_on_c, 0, 31, 36
1, 525701, Note_on_c, 0, 33, 36
1, 525701, Note_on_c, 0, 73, 43
1, 525701, Note_on_c, 0, 52, 23
1, 525893, Note_off_c, 0, 52, 0
1, 525893, Note_off_c, 0, 64, 0
1, 525893, Note_on_c, 0, 69, 23
1, 525893, Note_on_c, 0, 57, 23
1, 525989, Note_off_c, 0, 73, 0
1, 525989, Note_off_c, 0, 33, 0
1, 525989, Note_off_c, 0, 31, 0
1, 525989, Note_off_c, 0, 85, 0
1, 525989, Note_off_c, 0, 45, 0
1, 525989, Note_off_c, 0, 33, 0
1, 526085, Note_off_c, 0, 57, 0
1, 526085, Note_off_c, 0, 69, 0
1, 526085, Note_on_c, 0, 33, 36
1, 526085, Note_on_c, 0, 45, 36
1, 526085, Note_on_c, 0, 86, 43
1, 526085, Note_on_c, 0, 57, 23
1, 526085, Note_on_c, 0, 31, 36
1, 526085, Note_on_c, 0, 33, 36
1, 526085, Note_on_c, 0, 74, 43
1, 526085, Note_on_c, 0, 45, 23
1, 526181, Note_off_c, 0, 33, 0
1, 526181, Note_off_c, 0, 31, 0
1, 526181, Note_off_c, 0, 45, 0
1, 526181, Note_off_c, 0, 33, 0
1, 526181, Note_on_c, 0, 33, 36
1, 526181, Note_on_c, 0, 45, 36
1, 526181, Note_on_c, 0, 31, 36
1, 526181, Note_on_c, 0, 33, 36
1, 526277, Note_off_c, 0, 33, 0
1, 526277, Note_off_c, 0, 31, 0
1, 526277, Note_off_c, 0, 45, 0
1, 526277, Note_off_c, 0, 33, 0
1, 526277, Note_on_c, 0, 33, 36
1, 526277, Note_on_c, 0, 45, 36
1, 526277, Note_on_c, 0, 31, 36
1, 526277, Note_on_c, 0, 33, 36
1, 526373, Note_off_c, 0, 33, 0
1, 526373, Note_off_c, 0, 31, 0
1, 526373, Note_off_c, 0, 45, 0
1, 526373, Note_off_c, 0, 33, 0
1, 526373, Note_off_c, 0, 45, 0
1, 526373, Note_off_c, 0, 74, 0
1, 526373, Note_off_c, 0, 57, 0
1, 526373, Note_off_c, 0, 86, 0
1, 526373, Note_on_c, 0, 33, 36
1, 526373, Note_on_c, 0, 45, 36
1, 526373, Note_on_c, 0, 31, 36
1, 526373, Note_on_c, 0, 33, 36
1, 526469, Note_off_c, 0, 33, 0
1, 526469, Note_off_c, 0, 31, 0
1, 526469, Note_off_c, 0, 45, 0
1, 526469, Note_off_c, 0, 33, 0
1, 526469, Note_on_c, 0, 33, 36
1, 526469, Note_on_c, 0, 45, 36
1, 526469, Note_on_c, 0, 85, 43
1, 526469, Note_on_c, 0, 64, 23
1, 526469, Note_on_c, 0, 31, 36
1, 526469, Note_on_c, 0, 33, 36
1, 526469, Note_on_c, 0, 73, 43
1, 526469, Note_on_c, 0, 52, 23
1, 526565, Note_off_c, 0, 33, 0
1, 526565, Note_off_c, 0, 31, 0
1, 526565, Note_off_c, 0, 45, 0
1, 526565, Note_off_c, 0, 33, 0
1, 526565, Note_on_c, 0, 33, 36
1, 526565, Note_on_c, 0, 45, 36
1, 526565, Note_on_c, 0, 31, 36
1, 526565, Note_on_c, 0, 33, 36
1, 526661, Note_off_c, 0, 33, 0
1, 526661, Note_off_c, 0, 31, 0
1, 526661, Note_off_c, 0, 45, 0
1, 526661, Note_off_c, 0, 33, 0
1, 526661, Note_off_c, 0, 52, 0
1, 526661, Note_off_c, 0, 64, 0
1, 526661, Note_on_c, 0, 33, 36
1, 526661, Note_on_c, 0, 45, 36
1, 526661, Note_on_c, 0, 69, 23
1, 526661, Note_on_c, 0, 31, 36
1, 526661, Note_on_c, 0, 33, 36
1, 526661, Note_on_c, 0, 57, 23
1, 526757, Note_off_c, 0, 33, 0
1, 526757, Note_off_c, 0, 31, 0
1, 526757, Note_off_c, 0, 45, 0
1, 526757, Note_off_c, 0, 33, 0
1, 526757, Note_off_c, 0, 73, 0
1, 526757, Note_off_c, 0, 85, 0
1, 526757, Note_on_c, 0, 33, 36
1, 526757, Note_on_c, 0, 45, 36
1, 526757, Note_on_c, 0, 31, 36
1, 526757, Note_on_c, 0, 33, 36
1, 526853, Note_off_c, 0, 33, 0
1, 526853, Note_off_c, 0, 31, 0
1, 526853, Note_off_c, 0, 45, 0
1, 526853, Note_off_c, 0, 33, 0
1, 526853, Note_off_c, 0, 57, 0
1, 526853, Note_off_c, 0, 69, 0
1, 526853, Note_on_c, 0, 35, 36
1, 526853, Note_on_c, 0, 47, 36
1, 526853, Note_on_c, 0, 78, 43
1, 526853, Note_on_c, 0, 85, 43
1, 526853, Note_on_c, 0, 59, 23
1, 526853, Note_on_c, 0, 24, 36
1, 526853, Note_on_c, 0, 35, 36
1, 526853, Note_on_c, 0, 66, 43
1, 526853, Note_on_c, 0, 73, 43
1, 526853, Note_on_c, 0, 47, 23
1, 527141, Note_off_c, 0, 47, 0
1, 527141, Note_off_c, 0, 35, 0
1, 527141, Note_off_c, 0, 24, 0
1, 527141, Note_off_c, 0, 59, 0
1, 527141, Note_off_c, 0, 47, 0
1, 527141, Note_off_c, 0, 35, 0
1, 527237, Note_on_c, 0, 35, 36
1, 527237, Note_on_c, 0, 47, 36
1, 527237, Note_on_c, 0, 66, 23
1, 527237, Note_on_c, 0, 24, 36
1, 527237, Note_on_c, 0, 35, 36
1, 527237, Note_on_c, 0, 54, 23
1, 527429, Note_off_c, 0, 54, 0
1, 527429, Note_off_c, 0, 66, 0
1, 527429, Note_on_c, 0, 71, 23
1, 527429, Note_on_c, 0, 59, 23
1, 527525, Note_off_c, 0, 35, 0
1, 527525, Note_off_c, 0, 24, 0
1, 527525, Note_off_c, 0, 47, 0
1, 527525, Note_off_c, 0, 35, 0
1, 527621, Note_off_c, 0, 59, 0
1, 527621, Note_off_c, 0, 71, 0
1, 527621, Note_on_c, 0, 35, 36
1, 527621, Note_on_c, 0, 47, 36
1, 527621, Note_on_c, 0, 59, 23
1, 527621, Note_on_c, 0, 24, 36
1, 527621, Note_on_c, 0, 35, 36
1, 527621, Note_on_c, 0, 47, 23
1, 527909, Note_off_c, 0, 47, 0
1, 527909, Note_off_c, 0, 35, 0
1, 527909, Note_off_c, 0, 24, 0
1, 527909, Note_off_c, 0, 59, 0
1, 527909, Note_off_c, 0, 47, 0
1, 527909, Note_off_c, 0, 35, 0
1, 528005, Note_on_c, 0, 35, 36
1, 528005, Note_on_c, 0, 47, 36
1, 528005, Note_on_c, 0, 66, 23
1, 528005, Note_on_c, 0, 24, 36
1, 528005, Note_on_c, 0, 35, 36
1, 528005, Note_on_c, 0, 54, 23
1, 528197, Note_off_c, 0, 54, 0
1, 528197, Note_off_c, 0, 66, 0
1, 528197, Note_on_c, 0, 71, 23
1, 528197, Note_on_c, 0, 59, 23
1, 528293, Note_off_c, 0, 35, 0
1, 528293, Note_off_c, 0, 24, 0
1, 528293, Note_off_c, 0, 47, 0
1, 528293, Note_off_c, 0, 35, 0
1, 528293, Note_off_c, 0, 73, 0
1, 528293, Note_off_c, 0, 66, 0
1, 528293, Note_off_c, 0, 85, 0
1, 528293, Note_off_c, 0, 78, 0
1, 528389, Note_off_c, 0, 59, 0
1, 528389, Note_off_c, 0, 71, 0
1, 528389, Note_on_c, 0, 35, 36
1, 528389, Note_on_c, 0, 47, 36
1, 528389, Note_on_c, 0, 85, 43
1, 528389, Note_on_c, 0, 78, 43
1, 528389, Note_on_c, 0, 59, 23
1, 528389, Note_on_c, 0, 24, 36
1, 528389, Note_on_c, 0, 35, 36
1, 528389, Note_on_c, 0, 73, 43
1, 528389, Note_on_c, 0, 66, 43
1, 528389, Note_on_c, 0, 47, 23
1, 528677, Note_off_c, 0, 47, 0
1, 528677, Note_off_c, 0, 35, 0
1, 528677, Note_off_c, 0, 24, 0
1, 528677, Note_off_c, 0, 59, 0
1, 528677, Note_off_c, 0, 47, 0
1, 528677, Note_off_c, 0, 35, 0
1, 528773, Note_on_c, 0, 35, 36
1, 528773, Note_on_c, 0, 47, 36
1, 528773, Note_on_c, 0, 66, 23
1, 528773, Note_on_c, 0, 24, 36
1, 528773, Note_on_c, 0, 35, 36
1, 528773, Note_on_c, 0, 54, 23
1, 528869, Note_off_c, 0, 73, 0
1, 528869, Note_off_c, 0, 85, 0
1, 528965, Note_off_c, 0, 54, 0
1, 528965, Note_off_c, 0, 66, 0
1, 528965, Note_on_c, 0, 83, 43
1, 528965, Note_on_c, 0, 71, 23
1, 528965, Note_on_c, 0, 71, 43
1, 528965, Note_on_c, 0, 59, 23
1, 529061, Note_off_c, 0, 35, 0
1, 529061, Note_off_c, 0, 24, 0
1, 529061, Note_off_c, 0, 47, 0
1, 529061, Note_off_c, 0, 35, 0
1, 529157, Note_off_c, 0, 59, 0
1, 529157, Note_off_c, 0, 71, 0
1, 529157, Note_on_c, 0, 35, 36
1, 529157, Note_on_c, 0, 47, 36
1, 529157, Note_on_c, 0, 59, 23
1, 529157, Note_on_c, 0, 24, 36
1, 529157, Note_on_c, 0, 35, 36
1, 529157, Note_on_c, 0, 47, 23
1, 529445, Note_off_c, 0, 47, 0
1, 529445, Note_off_c, 0, 35, 0
1, 529445, Note_off_c, 0, 24, 0
1, 529445, Note_off_c, 0, 59, 0
1, 529445, Note_off_c, 0, 47, 0
1, 529445, Note_off_c, 0, 35, 0
1, 529445, Note_off_c, 0, 71, 0
1, 529445, Note_off_c, 0, 83, 0
1, 529541, Note_on_c, 0, 35, 36
1, 529541, Note_on_c, 0, 47, 36
1, 529541, Note_on_c, 0, 90, 43
1, 529541, Note_on_c, 0, 66, 23
1, 529541, Note_on_c, 0, 24, 36
1, 529541, Note_on_c, 0, 35, 36
1, 529541, Note_on_c, 0, 78, 43
1, 529541, Note_on_c, 0, 54, 23
1, 529733, Note_off_c, 0, 54, 0
1, 529733, Note_off_c, 0, 35, 0
1, 529733, Note_off_c, 0, 24, 0
1, 529733, Note_off_c, 0, 66, 0
1, 529733, Note_off_c, 0, 47, 0
1, 529733, Note_off_c, 0, 35, 0
1, 529733, Note_on_c, 0, 35, 36
1, 529733, Note_on_c, 0, 47, 36
1, 529733, Note_on_c, 0, 71, 23
1, 529733, Note_on_c, 0, 24, 36
1, 529733, Note_on_c, 0, 35, 36
1, 529733, Note_on_c, 0, 59, 23
1, 529829, Note_off_c, 0, 78, 0
1, 529829, Note_off_c, 0, 90, 0
1, 529829, Note_off_c, 0, 66, 0
1, 529829, Note_off_c, 0, 78, 0
1, 529925, Note_off_c, 0, 59, 0
1, 529925, Note_off_c, 0, 35, 0
1, 529925, Note_off_c, 0, 24, 0
1, 529925, Note_off_c, 0, 71, 0
1, 529925, Note_off_c, 0, 47, 0
1, 529925, Note_off_c, 0, 35, 0
1, 529925, Note_on_c, 0, 33, 36
1, 529925, Note_on_c, 0, 45, 36
1, 529925, Note_on_c, 0, 78, 43
1, 529925, Note_on_c, 0, 85, 43
1, 529925, Note_on_c, 0, 57, 23
1, 529925, Note_on_c, 0, 31, 36
1, 529925, Note_on_c, 0, 33, 36
1, 529925, Note_on_c, 0, 66, 43
1, 529925, Note_on_c, 0, 73, 43
1, 529925, Note_on_c, 0, 45, 23
1, 530213, Note_off_c, 0, 45, 0
1, 530213, Note_off_c, 0, 33, 0
1, 530213, Note_off_c, 0, 31, 0
1, 530213, Note_off_c, 0, 57, 0
1, 530213, Note_off_c, 0, 45, 0
1, 530213, Note_off_c, 0, 33, 0
1, 530309, Note_on_c, 0, 33, 36
1, 530309, Note_on_c, 0, 45, 36
1, 530309, Note_on_c, 0, 64, 23
1, 530309, Note_on_c, 0, 31, 36
1, 530309, Note_on_c, 0, 33, 36
1, 530309, Note_on_c, 0, 52, 23
1, 530501, Note_off_c, 0, 52, 0
1, 530501, Note_off_c, 0, 64, 0
1, 530501, Note_on_c, 0, 69, 23
1, 530501, Note_on_c, 0, 57, 23
1, 530597, Note_off_c, 0, 33, 0
1, 530597, Note_off_c, 0, 31, 0
1, 530597, Note_off_c, 0, 45, 0
1, 530597, Note_off_c, 0, 33, 0
1, 530693, Note_off_c, 0, 57, 0
1, 530693, Note_off_c, 0, 69, 0
1, 530693, Note_on_c, 0, 33, 36
1, 530693, Note_on_c, 0, 45, 36
1, 530693, Note_on_c, 0, 57, 23
1, 530693, Note_on_c, 0, 31, 36
1, 530693, Note_on_c, 0, 33, 36
1, 530693, Note_on_c, 0, 45, 23
1, 530981, Note_off_c, 0, 45, 0
1, 530981, Note_off_c, 0, 33, 0
1, 530981, Note_off_c, 0, 31, 0
1, 530981, Note_off_c, 0, 57, 0
1, 530981, Note_off_c, 0, 45, 0
1, 530981, Note_off_c, 0, 33, 0
1, 531077, Note_on_c, 0, 33, 36
1, 531077, Note_on_c, 0, 45, 36
1, 531077, Note_on_c, 0, 64, 23
1, 531077, Note_on_c, 0, 31, 36
1, 531077, Note_on_c, 0, 33, 36
1, 531077, Note_on_c, 0, 52, 23
1, 531269, Note_off_c, 0, 52, 0
1, 531269, Note_off_c, 0, 64, 0
1, 531269, Note_on_c, 0, 69, 23
1, 531269, Note_on_c, 0, 57, 23
1, 531365, Note_off_c, 0, 33, 0
1, 531365, Note_off_c, 0, 31, 0
1, 531365, Note_off_c, 0, 45, 0
1, 531365, Note_off_c, 0, 33, 0
1, 531365, Note_off_c, 0, 73, 0
1, 531365, Note_off_c, 0, 66, 0
1, 531365, Note_off_c, 0, 85, 0
1, 531365, Note_off_c, 0, 78, 0
1, 531461, Note_off_c, 0, 57, 0
1, 531461, Note_off_c, 0, 69, 0
1, 531461, Note_on_c, 0, 33, 36
1, 531461, Note_on_c, 0, 45, 36
1, 531461, Note_on_c, 0, 85, 43
1, 531461, Note_on_c, 0, 78, 43
1, 531461, Note_on_c, 0, 57, 23
1, 531461, Note_on_c, 0, 31, 36
1, 531461, Note_on_c, 0, 33, 36
1, 531461, Note_on_c, 0, 73, 43
1, 531461, Note_on_c, 0, 66, 43
1, 531461, Note_on_c, 0, 45, 23
1, 531749, Note_off_c, 0, 45, 0
1, 531749, Note_off_c, 0, 33, 0
1, 531749, Note_off_c, 0, 31, 0
1, 531749, Note_off_c, 0, 57, 0
1, 531749, Note_off_c, 0, 45, 0
1, 531749, Note_off_c, 0, 33, 0
1, 531845, Note_on_c, 0, 33, 36
1, 531845, Note_on_c, 0, 45, 36
1, 531845, Note_on_c, 0, 64, 23
1, 531845, Note_on_c, 0, 31, 36
1, 531845, Note_on_c, 0, 33, 36
1, 531845, Note_on_c, 0, 52, 23
1, 531941, Note_off_c, 0, 73, 0
1, 531941, Note_off_c, 0, 85, 0
1, 532037, Note_off_c, 0, 52, 0
1, 532037, Note_off_c, 0, 64, 0
1, 532037, Note_on_c, 0, 83, 43
1, 532037, Note_on_c, 0, 69, 23
1, 532037, Note_on_c, 0, 71, 43
1, 532037, Note_on_c, 0, 57, 23
1, 532133, Note_off_c, 0, 33, 0
1, 532133, Note_off_c, 0, 31, 0
1, 532133, Note_off_c, 0, 45, 0
1, 532133, Note_off_c, 0, 33, 0
1, 532229, Note_off_c, 0, 57, 0
1, 532229, Note_off_c, 0, 69, 0
1, 532229, Note_on_c, 0, 33, 36
1, 532229, Note_on_c, 0, 45, 36
1, 532229, Note_on_c, 0, 57, 23
1, 532229, Note_on_c, 0, 31, 36
1, 532229, Note_on_c, 0, 33, 36
1, 532229, Note_on_c, 0, 45, 23
1, 532517, Note_off_c, 0, 45, 0
1, 532517, Note_off_c, 0, 33, 0
1, 532517, Note_off_c, 0, 31, 0
1, 532517, Note_off_c, 0, 57, 0
1, 532517, Note_off_c, 0, 45, 0
1, 532517, Note_off_c, 0, 33, 0
1, 532517, Note_off_c, 0, 71, 0
1, 532517, Note_off_c, 0, 83, 0
1, 532613, Note_on_c, 0, 33, 36
1, 532613, Note_on_c, 0, 45, 36
1, 532613, Note_on_c, 0, 90, 43
1, 532613, Note_on_c, 0, 64, 23
1, 532613, Note_on_c, 0, 31, 36
1, 532613, Note_on_c, 0, 33, 36
1, 532613, Note_on_c, 0, 78, 43
1, 532613, Note_on_c, 0, 52, 23
1, 532805, Note_off_c, 0, 52, 0
1, 532805, Note_off_c, 0, 33, 0
1, 532805, Note_off_c, 0, 31, 0
1, 532805, Note_off_c, 0, 64, 0
1, 532805, Note_off_c, 0, 45, 0
1, 532805, Note_off_c, 0, 33, 0
1, 532805, Note_on_c, 0, 33, 36
1, 532805, Note_on_c, 0, 45, 36
1, 532805, Note_on_c, 0, 69, 23
1, 532805, Note_on_c, 0, 31, 36
1, 532805, Note_on_c, 0, 33, 36
1, 532805, Note_on_c, 0, 57, 23
1, 532901, Note_off_c, 0, 78, 0
1, 532901, Note_off_c, 0, 90, 0
1, 532901, Note_off_c, 0, 66, 0
1, 532901, Note_off_c, 0, 78, 0
1, 532997, Note_off_c, 0, 57, 0
1, 532997, Note_off_c, 0, 33, 0
1, 532997, Note_off_c, 0, 31, 0
1, 532997, Note_off_c, 0, 69, 0
1, 532997, Note_off_c, 0, 45, 0
1, 532997, Note_off_c, 0, 33, 0
1, 532997, Note_on_c, 0, 32, 36
1, 532997, Note_on_c, 0, 44, 36
1, 532997, Note_on_c, 0, 78, 43
1, 532997, Note_on_c, 0, 85, 43
1, 532997, Note_on_c, 0, 56, 23
1, 532997, Note_on_c, 0, 30, 36
1, 532997, Note_on_c, 0, 32, 36
1, 532997, Note_on_c, 0, 66, 43
1, 532997, Note_on_c, 0, 73, 43
1, 532997, Note_on_c, 0, 44, 23
1, 533285, Note_off_c, 0, 44, 0
1, 533285, Note_off_c, 0, 32, 0
1, 533285, Note_off_c, 0, 30, 0
1, 533285, Note_off_c, 0, 56, 0
1, 533285, Note_off_c, 0, 44, 0
1, 533285, Note_off_c, 0, 32, 0
1, 533381, Note_on_c, 0, 32, 36
1, 533381, Note_on_c, 0, 44, 36
1, 533381, Note_on_c, 0, 64, 23
1, 533381, Note_on_c, 0, 30, 36
1, 533381, Note_on_c, 0, 32, 36
1, 533381, Note_on_c, 0, 52, 23
1, 533573, Note_off_c, 0, 52, 0
1, 533573, Note_off_c, 0, 64, 0
1, 533573, Note_on_c, 0, 68, 23
1, 533573, Note_on_c, 0, 56, 23
1, 533669, Note_off_c, 0, 32, 0
1, 533669, Note_off_c, 0, 30, 0
1, 533669, Note_off_c, 0, 44, 0
1, 533669, Note_off_c, 0, 32, 0
1, 533765, Note_off_c, 0, 56, 0
1, 533765, Note_off_c, 0, 68, 0
1, 533765, Note_on_c, 0, 32, 36
1, 533765, Note_on_c, 0, 44, 36
1, 533765, Note_on_c, 0, 56, 23
1, 533765, Note_on_c, 0, 30, 36
1, 533765, Note_on_c, 0, 32, 36
1, 533765, Note_on_c, 0, 44, 23
1, 534053, Note_off_c, 0, 44, 0
1, 534053, Note_off_c, 0, 32, 0
1, 534053, Note_off_c, 0, 30, 0
1, 534053, Note_off_c, 0, 56, 0
1, 534053, Note_off_c, 0, 44, 0
1, 534053, Note_off_c, 0, 32, 0
1, 534149, Note_on_c, 0, 32, 36
1, 534149, Note_on_c, 0, 44, 36
1, 534149, Note_on_c, 0, 64, 23
1, 534149, Note_on_c, 0, 30, 36
1, 534149, Note_on_c, 0, 32, 36
1, 534149, Note_on_c, 0, 52, 23
1, 534341, Note_off_c, 0, 52, 0
1, 534341, Note_off_c, 0, 64, 0
1, 534341, Note_on_c, 0, 68, 23
1, 534341, Note_on_c, 0, 56, 23
1, 534437, Note_off_c, 0, 32, 0
1, 534437, Note_off_c, 0, 30, 0
1, 534437, Note_off_c, 0, 44, 0
1, 534437, Note_off_c, 0, 32, 0
1, 534533, Note_off_c, 0, 56, 0
1, 534533, Note_off_c, 0, 68, 0
1, 534533, Note_on_c, 0, 32, 36
1, 534533, Note_on_c, 0, 44, 36
1, 534533, Note_on_c, 0, 56, 23
1, 534533, Note_on_c, 0, 30, 36
1, 534533, Note_on_c, 0, 32, 36
1, 534533, Note_on_c, 0, 44, 23
1, 534821, Note_off_c, 0, 44, 0
1, 534821, Note_off_c, 0, 32, 0
1, 534821, Note_off_c, 0, 30, 0
1, 534821, Note_off_c, 0, 56, 0
1, 534821, Note_off_c, 0, 44, 0
1, 534821, Note_off_c, 0, 32, 0
1, 534917, Note_on_c, 0, 32, 36
1, 534917, Note_on_c, 0, 44, 36
1, 534917, Note_on_c, 0, 64, 23
1, 534917, Note_on_c, 0, 30, 36
1, 534917, Note_on_c, 0, 32, 36
1, 534917, Note_on_c, 0, 52, 23
1, 535109, Note_off_c, 0, 52, 0
1, 535109, Note_off_c, 0, 64, 0
1, 535109, Note_on_c, 0, 68, 23
1, 535109, Note_on_c, 0, 56, 23
1, 535205, Note_off_c, 0, 32, 0
1, 535205, Note_off_c, 0, 30, 0
1, 535205, Note_off_c, 0, 44, 0
1, 535205, Note_off_c, 0, 32, 0
1, 535301, Note_off_c, 0, 56, 0
1, 535301, Note_off_c, 0, 68, 0
1, 535301, Note_on_c, 0, 32, 36
1, 535301, Note_on_c, 0, 44, 36
1, 535301, Note_on_c, 0, 56, 23
1, 535301, Note_on_c, 0, 30, 36
1, 535301, Note_on_c, 0, 32, 36
1, 535301, Note_on_c, 0, 44, 23
1, 535589, Note_off_c, 0, 44, 0
1, 535589, Note_off_c, 0, 32, 0
1, 535589, Note_off_c, 0, 30, 0
1, 535589, Note_off_c, 0, 56, 0
1, 535589, Note_off_c, 0, 44, 0
1, 535589, Note_off_c, 0, 32, 0
1, 535589, Note_off_c, 0, 73, 0
1, 535589, Note_off_c, 0, 66, 0
1, 535589, Note_off_c, 0, 85, 0
1, 535589, Note_off_c, 0, 78, 0
1, 535685, Note_on_c, 0, 32, 36
1, 535685, Note_on_c, 0, 44, 36
1, 535685, Note_on_c, 0, 83, 43
1, 535685, Note_on_c, 0, 64, 23
1, 535685, Note_on_c, 0, 30, 36
1, 535685, Note_on_c, 0, 32, 36
1, 535685, Note_on_c, 0, 71, 43
1, 535685, Note_on_c, 0, 52, 23
1, 535877, Note_off_c, 0, 52, 0
1, 535877, Note_off_c, 0, 32, 0
1, 535877, Note_off_c, 0, 30, 0
1, 535877, Note_off_c, 0, 64, 0
1, 535877, Note_off_c, 0, 44, 0
1, 535877, Note_off_c, 0, 32, 0
1, 535877, Note_on_c, 0, 32, 36
1, 535877, Note_on_c, 0, 44, 36
1, 535877, Note_on_c, 0, 68, 23
1, 535877, Note_on_c, 0, 30, 36
1, 535877, Note_on_c, 0, 32, 36
1, 535877, Note_on_c, 0, 56, 23
1, 535973, Note_off_c, 0, 71, 0
1, 535973, Note_off_c, 0, 83, 0
1, 536069, Note_off_c, 0, 56, 0
1, 536069, Note_off_c, 0, 32, 0
1, 536069, Note_off_c, 0, 30, 0
1, 536069, Note_off_c, 0, 68, 0
1, 536069, Note_off_c, 0, 44, 0
1, 536069, Note_off_c, 0, 32, 0
1, 536069, Note_on_c, 0, 31, 36
1, 536069, Note_on_c, 0, 43, 36
1, 536069, Note_on_c, 0, 83, 43
1, 536069, Note_on_c, 0, 55, 23
1, 536069, Note_on_c, 0, 29, 36
1, 536069, Note_on_c, 0, 31, 36
1, 536069, Note_on_c, 0, 71, 43
1, 536069, Note_on_c, 0, 43, 23
1, 536357, Note_off_c, 0, 43, 0
1, 536357, Note_off_c, 0, 71, 0
1, 536357, Note_off_c, 0, 31, 0
1, 536357, Note_off_c, 0, 29, 0
1, 536357, Note_off_c, 0, 55, 0
1, 536357, Note_off_c, 0, 83, 0
1, 536357, Note_off_c, 0, 43, 0
1, 536357, Note_off_c, 0, 31, 0
1, 536453, Note_on_c, 0, 31, 36
1, 536453, Note_on_c, 0, 43, 36
1, 536453, Note_on_c, 0, 85, 43
1, 536453, Note_on_c, 0, 62, 23
1, 536453, Note_on_c, 0, 29, 36
1, 536453, Note_on_c, 0, 31, 36
1, 536453, Note_on_c, 0, 73, 43
1, 536453, Note_on_c, 0, 50, 23
1, 536645, Note_off_c, 0, 50, 0
1, 536645, Note_off_c, 0, 31, 0
1, 536645, Note_off_c, 0, 29, 0
1, 536645, Note_off_c, 0, 62, 0
1, 536645, Note_off_c, 0, 43, 0
1, 536645, Note_off_c, 0, 31, 0
1, 536645, Note_on_c, 0, 31, 36
1, 536645, Note_on_c, 0, 43, 36
1, 536645, Note_on_c, 0, 67, 23
1, 536645, Note_on_c, 0, 29, 36
1, 536645, Note_on_c, 0, 31, 36
1, 536645, Note_on_c, 0, 55, 23
1, 536741, Note_off_c, 0, 73, 0
1, 536741, Note_off_c, 0, 85, 0
1, 536837, Note_off_c, 0, 55, 0
1, 536837, Note_off_c, 0, 67, 0
1, 536837, Note_on_c, 0, 86, 43
1, 536837, Note_on_c, 0, 55, 23
1, 536837, Note_on_c, 0, 74, 43
1, 536837, Note_on_c, 0, 43, 23
1, 536933, Note_off_c, 0, 31, 0
1, 536933, Note_off_c, 0, 29, 0
1, 536933, Note_off_c, 0, 43, 0
1, 536933, Note_off_c, 0, 31, 0
1, 537029, Note_on_c, 0, 31, 36
1, 537029, Note_on_c, 0, 43, 36
1, 537029, Note_on_c, 0, 29, 36
1, 537029, Note_on_c, 0, 31, 36
1, 537125, Note_off_c, 0, 43, 0
1, 537125, Note_off_c, 0, 74, 0
1, 537125, Note_off_c, 0, 55, 0
1, 537125, Note_off_c, 0, 86, 0
1, 537221, Note_off_c, 0, 31, 0
1, 537221, Note_off_c, 0, 29, 0
1, 537221, Note_off_c, 0, 43, 0
1, 537221, Note_off_c, 0, 31, 0
1, 537221, Note_on_c, 0, 31, 36
1, 537221, Note_on_c, 0, 43, 36
1, 537221, Note_on_c, 0, 90, 43
1, 537221, Note_on_c, 0, 62, 23
1, 537221, Note_on_c, 0, 29, 36
1, 537221, Note_on_c, 0, 31, 36
1, 537221, Note_on_c, 0, 78, 43
1, 537221, Note_on_c, 0, 50, 23
1, 537413, Note_off_c, 0, 50, 0
1, 537413, Note_off_c, 0, 62, 0
1, 537413, Note_on_c, 0, 67, 23
1, 537413, Note_on_c, 0, 55, 23
1, 537509, Note_off_c, 0, 78, 0
1, 537509, Note_off_c, 0, 31, 0
1, 537509, Note_off_c, 0, 29, 0
1, 537509, Note_off_c, 0, 90, 0
1, 537509, Note_off_c, 0, 43, 0
1, 537509, Note_off_c, 0, 31, 0
1, 537605, Note_off_c, 0, 55, 0
1, 537605, Note_off_c, 0, 67, 0
1, 537605, Note_on_c, 0, 74, 36
1, 537605, Note_on_c, 0, 33, 36
1, 537605, Note_on_c, 0, 45, 36
1, 537605, Note_on_c, 0, 81, 43
1, 537605, Note_on_c, 0, 57, 23
1, 537605, Note_on_c, 0, 62, 36
1, 537605, Note_on_c, 0, 31, 36
1, 537605, Note_on_c, 0, 33, 36
1, 537605, Note_on_c, 0, 69, 43
1, 537605, Note_on_c, 0, 45, 23
1, 537797, Note_off_c, 0, 33, 0
1, 537797, Note_off_c, 0, 31, 0
1, 537797, Note_off_c, 0, 45, 0
1, 537797, Note_off_c, 0, 33, 0
1, 537797, Note_on_c, 0, 33, 36
1, 537797, Note_on_c, 0, 45, 36
1, 537797, Note_on_c, 0, 31, 36
1, 537797, Note_on_c, 0, 33, 36
1, 537893, Note_off_c, 0, 45, 0
1, 537893, Note_off_c, 0, 69, 0
1, 537893, Note_off_c, 0, 57, 0
1, 537893, Note_off_c, 0, 81, 0
1, 537989, Note_off_c, 0, 33, 0
1, 537989, Note_off_c, 0, 31, 0
1, 537989, Note_off_c, 0, 45, 0
1, 537989, Note_off_c, 0, 33, 0
1, 537989, Note_on_c, 0, 33, 36
1, 537989, Note_on_c, 0, 45, 36
1, 537989, Note_on_c, 0, 76, 43
1, 537989, Note_on_c, 0, 64, 23
1, 537989, Note_on_c, 0, 31, 36
1, 537989, Note_on_c, 0, 33, 36
1, 537989, Note_on_c, 0, 64, 43
1, 537989, Note_on_c, 0, 52, 23
1, 538085, Note_off_c, 0, 62, 0
1, 538085, Note_off_c, 0, 74, 0
1, 538181, Note_off_c, 0, 52, 0
1, 538181, Note_off_c, 0, 64, 0
1, 538181, Note_on_c, 0, 74, 36
1, 538181, Note_on_c, 0, 69, 23
1, 538181, Note_on_c, 0, 62, 36
1, 538181, Note_on_c, 0, 57, 23
1, 538277, Note_off_c, 0, 64, 0
1, 538277, Note_off_c, 0, 33, 0
1, 538277, Note_off_c, 0, 31, 0
1, 538277, Note_off_c, 0, 76, 0
1, 538277, Note_off_c, 0, 45, 0
1, 538277, Note_off_c, 0, 33, 0
1, 538373, Note_off_c, 0, 57, 0
1, 538373, Note_off_c, 0, 69, 0
1, 538373, Note_on_c, 0, 33, 36
1, 538373, Note_on_c, 0, 45, 36
1, 538373, Note_on_c, 0, 78, 43
1, 538373, Note_on_c, 0, 57, 23
1, 538373, Note_on_c, 0, 31, 36
1, 538373, Note_on_c, 0, 33, 36
1, 538373, Note_on_c, 0, 66, 43
1, 538373, Note_on_c, 0, 45, 23
1, 538469, Note_off_c, 0, 33, 0
1, 538469, Note_off_c, 0, 31, 0
1, 538469, Note_off_c, 0, 45, 0
1, 538469, Note_off_c, 0, 33, 0
1, 538469, Note_on_c, 0, 33, 36
1, 538469, Note_on_c, 0, 45, 36
1, 538469, Note_on_c, 0, 31, 36
1, 538469, Note_on_c, 0, 33, 36
1, 538565, Note_off_c, 0, 33, 0
1, 538565, Note_off_c, 0, 31, 0
1, 538565, Note_off_c, 0, 45, 0
1, 538565, Note_off_c, 0, 33, 0
1, 538565, Note_on_c, 0, 33, 36
1, 538565, Note_on_c, 0, 45, 36
1, 538565, Note_on_c, 0, 31, 36
1, 538565, Note_on_c, 0, 33, 36
1, 538661, Note_off_c, 0, 33, 0
1, 538661, Note_off_c, 0, 31, 0
1, 538661, Note_off_c, 0, 45, 0
1, 538661, Note_off_c, 0, 33, 0
1, 538661, Note_off_c, 0, 45, 0
1, 538661, Note_off_c, 0, 66, 0
1, 538661, Note_off_c, 0, 57, 0
1, 538661, Note_off_c, 0, 78, 0
1, 538661, Note_off_c, 0, 62, 0
1, 538661, Note_off_c, 0, 74, 0
1, 538661, Note_on_c, 0, 33, 36
1, 538661, Note_on_c, 0, 45, 36
1, 538661, Note_on_c, 0, 31, 36
1, 538661, Note_on_c, 0, 33, 36
1, 538757, Note_off_c, 0, 33, 0
1, 538757, Note_off_c, 0, 31, 0
1, 538757, Note_off_c, 0, 45, 0
1, 538757, Note_off_c, 0, 33, 0
1, 538757, Note_on_c, 0, 74, 36
1, 538757, Note_on_c, 0, 33, 36
1, 538757, Note_on_c, 0, 45, 36
1, 538757, Note_on_c, 0, 83, 43
1, 538757, Note_on_c, 0, 64, 23
1, 538757, Note_on_c, 0, 62, 36
1, 538757, Note_on_c, 0, 31, 36
1, 538757, Note_on_c, 0, 33, 36
1, 538757, Note_on_c, 0, 71, 43
1, 538757, Note_on_c, 0, 52, 23
1, 538853, Note_off_c, 0, 33, 0
1, 538853, Note_off_c, 0, 31, 0
1, 538853, Note_off_c, 0, 45, 0
1, 538853, Note_off_c, 0, 33, 0
1, 538853, Note_on_c, 0, 33, 36
1, 538853, Note_on_c, 0, 45, 36
1, 538853, Note_on_c, 0, 31, 36
1, 538853, Note_on_c, 0, 33, 36
1, 538949, Note_off_c, 0, 33, 0
1, 538949, Note_off_c, 0, 31, 0
1, 538949, Note_off_c, 0, 45, 0
1, 538949, Note_off_c, 0, 33, 0
1, 538949, Note_off_c, 0, 52, 0
1, 538949, Note_off_c, 0, 64, 0
1, 538949, Note_on_c, 0, 33, 36
1, 538949, Note_on_c, 0, 45, 36
1, 538949, Note_on_c, 0, 69, 23
1, 538949, Note_on_c, 0, 31, 36
1, 538949, Note_on_c, 0, 33, 36
1, 538949, Note_on_c, 0, 57, 23
1, 539045, Note_off_c, 0, 33, 0
1, 539045, Note_off_c, 0, 31, 0
1, 539045, Note_off_c, 0, 45, 0
1, 539045, Note_off_c, 0, 33, 0
1, 539045, Note_off_c, 0, 71, 0
1, 539045, Note_off_c, 0, 62, 0
1, 539045, Note_off_c, 0, 83, 0
1, 539045, Note_off_c, 0, 74, 0
1, 539045, Note_on_c, 0, 33, 36
1, 539045, Note_on_c, 0, 45, 36
1, 539045, Note_on_c, 0, 31, 36
1, 539045, Note_on_c, 0, 33, 36
1, 539141, Note_off_c, 0, 33, 0
1, 539141, Note_off_c, 0, 31, 0
1, 539141, Note_off_c, 0, 45, 0
1, 539141, Note_off_c, 0, 33, 0
1, 539141, Note_off_c, 0, 57, 0
1, 539141, Note_off_c, 0, 69, 0
1, 539141, Note_on_c, 0, 74, 36
1, 539141, Note_on_c, 0, 38, 36
1, 539141, Note_on_c, 0, 50, 36
1, 539141, Note_on_c, 0, 81, 43
1, 539141, Note_on_c, 0, 88, 43
1, 539141, Note_on_c, 0, 62, 23
1, 539141, Note_on_c, 0, 62, 36
1, 539141, Note_on_c, 0, 26, 36
1, 539141, Note_on_c, 0, 38, 36
1, 539141, Note_on_c, 0, 69, 43
1, 539141, Note_on_c, 0, 76, 43
1, 539141, Note_on_c, 0, 50, 23
1, 539333, Note_off_c, 0, 38, 0
1, 539333, Note_off_c, 0, 26, 0
1, 539333, Note_off_c, 0, 62, 0
1, 539333, Note_off_c, 0, 50, 0
1, 539333, Note_off_c, 0, 38, 0
1, 539333, Note_off_c, 0, 74, 0
1, 539333, Note_on_c, 0, 74, 36
1, 539333, Note_on_c, 0, 38, 36
1, 539333, Note_on_c, 0, 50, 36
1, 539333, Note_on_c, 0, 62, 36
1, 539333, Note_on_c, 0, 26, 36
1, 539333, Note_on_c, 0, 38, 36
1, 539429, Note_off_c, 0, 50, 0
1, 539429, Note_off_c, 0, 62, 0
1, 539525, Note_off_c, 0, 38, 0
1, 539525, Note_off_c, 0, 26, 0
1, 539525, Note_off_c, 0, 62, 0
1, 539525, Note_off_c, 0, 50, 0
1, 539525, Note_off_c, 0, 38, 0
1, 539525, Note_off_c, 0, 74, 0
1, 539525, Note_on_c, 0, 74, 36
1, 539525, Note_on_c, 0, 38, 36
1, 539525, Note_on_c, 0, 50, 36
1, 539525, Note_on_c, 0, 69, 23
1, 539525, Note_on_c, 0, 62, 36
1, 539525, Note_on_c, 0, 26, 36
1, 539525, Note_on_c, 0, 38, 36
1, 539525, Note_on_c, 0, 57, 23
1, 539717, Note_off_c, 0, 57, 0
1, 539717, Note_off_c, 0, 38, 0
1, 539717, Note_off_c, 0, 26, 0
1, 539717, Note_off_c, 0, 62, 0
1, 539717, Note_off_c, 0, 69, 0
1, 539717, Note_off_c, 0, 50, 0
1, 539717, Note_off_c, 0, 38, 0
1, 539717, Note_off_c, 0, 74, 0
1, 539717, Note_on_c, 0, 74, 36
1, 539717, Note_on_c, 0, 38, 36
1, 539717, Note_on_c, 0, 50, 36
1, 539717, Note_on_c, 0, 74, 23
1, 539717, Note_on_c, 0, 62, 36
1, 539717, Note_on_c, 0, 26, 36
1, 539717, Note_on_c, 0, 38, 36
1, 539717, Note_on_c, 0, 62, 23
1, 539909, Note_off_c, 0, 62, 0
1, 539909, Note_off_c, 0, 38, 0
1, 539909, Note_off_c, 0, 26, 0
1, 539909, Note_off_c, 0, 62, 0
1, 539909, Note_off_c, 0, 74, 0
1, 539909, Note_off_c, 0, 50, 0
1, 539909, Note_off_c, 0, 38, 0
1, 539909, Note_off_c, 0, 74, 0
1, 539909, Note_on_c, 0, 74, 36
1, 539909, Note_on_c, 0, 38, 36
1, 539909, Note_on_c, 0, 50, 36
1, 539909, Note_on_c, 0, 62, 23
1, 539909, Note_on_c, 0, 62, 36
1, 539909, Note_on_c, 0, 26, 36
1, 539909, Note_on_c, 0, 38, 36
1, 539909, Note_on_c, 0, 50, 23
1, 540101, Note_off_c, 0, 38, 0
1, 540101, Note_off_c, 0, 26, 0
1, 540101, Note_off_c, 0, 62, 0
1, 540101, Note_off_c, 0, 50, 0
1, 540101, Note_off_c, 0, 38, 0
1, 540101, Note_off_c, 0, 74, 0
1, 540101, Note_on_c, 0, 74, 36
1, 540101, Note_on_c, 0, 38, 36
1, 540101, Note_on_c, 0, 50, 36
1, 540101, Note_on_c, 0, 62, 36
1, 540101, Note_on_c, 0, 26, 36
1, 540101, Note_on_c, 0, 38, 36
1, 540197, Note_off_c, 0, 50, 0
1, 540197, Note_off_c, 0, 62, 0
1, 540293, Note_off_c, 0, 38, 0
1, 540293, Note_off_c, 0, 26, 0
1, 540293, Note_off_c, 0, 62, 0
1, 540293, Note_off_c, 0, 50, 0
1, 540293, Note_off_c, 0, 38, 0
1, 540293, Note_off_c, 0, 74, 0
1, 540293, Note_on_c, 0, 74, 36
1, 540293, Note_on_c, 0, 38, 36
1, 540293, Note_on_c, 0, 50, 36
1, 540293, Note_on_c, 0, 69, 23
1, 540293, Note_on_c, 0, 62, 36
1, 540293, Note_on_c, 0, 26, 36
1, 540293, Note_on_c, 0, 38, 36
1, 540293, Note_on_c, 0, 57, 23
1, 540485, Note_off_c, 0, 57, 0
1, 540485, Note_off_c, 0, 38, 0
1, 540485, Note_off_c, 0, 26, 0
1, 540485, Note_off_c, 0, 62, 0
1, 540485, Note_off_c, 0, 69, 0
1, 540485, Note_off_c, 0, 50, 0
1, 540485, Note_off_c, 0, 38, 0
1, 540485, Note_off_c, 0, 74, 0
1, 540485, Note_on_c, 0, 74, 36
1, 540485, Note_on_c, 0, 38, 36
1, 540485, Note_on_c, 0, 50, 36
1, 540485, Note_on_c, 0, 74, 23
1, 540485, Note_on_c, 0, 62, 36
1, 540485, Note_on_c, 0, 26, 36
1, 540485, Note_on_c, 0, 38, 36
1, 540485, Note_on_c, 0, 62, 23
1, 540581, Note_off_c, 0, 76, 0
1, 540581, Note_off_c, 0, 69, 0
1, 540581, Note_off_c, 0, 88, 0
1, 540581, Note_off_c, 0, 81, 0
1, 540677, Note_off_c, 0, 62, 0
1, 540677, Note_off_c, 0, 38, 0
1, 540677, Note_off_c, 0, 26, 0
1, 540677, Note_off_c, 0, 62, 0
1, 540677, Note_off_c, 0, 74, 0
1, 540677, Note_off_c, 0, 50, 0
1, 540677, Note_off_c, 0, 38, 0
1, 540677, Note_off_c, 0, 74, 0
1, 540677, Note_on_c, 0, 74, 36
1, 540677, Note_on_c, 0, 38, 36
1, 540677, Note_on_c, 0, 50, 36
1, 540677, Note_on_c, 0, 88, 43
1, 540677, Note_on_c, 0, 81, 43
1, 540677, Note_on_c, 0, 62, 23
1, 540677, Note_on_c, 0, 62, 36
1, 540677, Note_on_c, 0, 26, 36
1, 540677, Note_on_c, 0, 38, 36
1, 540677, Note_on_c, 0, 76, 43
1, 540677, Note_on_c, 0, 69, 43
1, 540677, Note_on_c, 0, 50, 23
1, 540869, Note_off_c, 0, 38, 0
1, 540869, Note_off_c, 0, 26, 0
1, 540869, Note_off_c, 0, 62, 0
1, 540869, Note_off_c, 0, 50, 0
1, 540869, Note_off_c, 0, 38, 0
1, 540869, Note_off_c, 0, 74, 0
1, 540869, Note_on_c, 0, 74, 36
1, 540869, Note_on_c, 0, 38, 36
1, 540869, Note_on_c, 0, 50, 36
1, 540869, Note_on_c, 0, 62, 36
1, 540869, Note_on_c, 0, 26, 36
1, 540869, Note_on_c, 0, 38, 36
1, 540965, Note_off_c, 0, 50, 0
1, 540965, Note_off_c, 0, 62, 0
1, 541061, Note_off_c, 0, 38, 0
1, 541061, Note_off_c, 0, 26, 0
1, 541061, Note_off_c, 0, 62, 0
1, 541061, Note_off_c, 0, 50, 0
1, 541061, Note_off_c, 0, 38, 0
1, 541061, Note_off_c, 0, 74, 0
1, 541061, Note_on_c, 0, 74, 36
1, 541061, Note_on_c, 0, 38, 36
1, 541061, Note_on_c, 0, 50, 36
1, 541061, Note_on_c, 0, 69, 23
1, 541061, Note_on_c, 0, 62, 36
1, 541061, Note_on_c, 0, 26, 36
1, 541061, Note_on_c, 0, 38, 36
1, 541061, Note_on_c, 0, 57, 23
1, 541157, Note_off_c, 0, 76, 0
1, 541157, Note_off_c, 0, 88, 0
1, 541253, Note_off_c, 0, 57, 0
1, 541253, Note_off_c, 0, 38, 0
1, 541253, Note_off_c, 0, 26, 0
1, 541253, Note_off_c, 0, 62, 0
1, 541253, Note_off_c, 0, 69, 0
1, 541253, Note_off_c, 0, 50, 0
1, 541253, Note_off_c, 0, 38, 0
1, 541253, Note_off_c, 0, 74, 0
1, 541253, Note_on_c, 0, 74, 36
1, 541253, Note_on_c, 0, 38, 36
1, 541253, Note_on_c, 0, 50, 36
1, 541253, Note_on_c, 0, 86, 43
1, 541253, Note_on_c, 0, 74, 23
1, 541253, Note_on_c, 0, 62, 36
1, 541253, Note_on_c, 0, 26, 36
1, 541253, Note_on_c, 0, 38, 36
1, 541253, Note_on_c, 0, 74, 43
1, 541253, Note_on_c, 0, 62, 23
1, 541445, Note_off_c, 0, 62, 0
1, 541445, Note_off_c, 0, 38, 0
1, 541445, Note_off_c, 0, 26, 0
1, 541445, Note_off_c, 0, 62, 0
1, 541445, Note_off_c, 0, 74, 0
1, 541445, Note_off_c, 0, 50, 0
1, 541445, Note_off_c, 0, 38, 0
1, 541445, Note_off_c, 0, 74, 0
1, 541445, Note_on_c, 0, 74, 36
1, 541445, Note_on_c, 0, 38, 36
1, 541445, Note_on_c, 0, 50, 36
1, 541445, Note_on_c, 0, 62, 23
1, 541445, Note_on_c, 0, 62, 36
1, 541445, Note_on_c, 0, 26, 36
1, 541445, Note_on_c, 0, 38, 36
1, 541445, Note_on_c, 0, 50, 23
1, 541637, Note_off_c, 0, 38, 0
1, 541637, Note_off_c, 0, 26, 0
1, 541637, Note_off_c, 0, 62, 0
1, 541637, Note_off_c, 0, 50, 0
1, 541637, Note_off_c, 0, 38, 0
1, 541637, Note_off_c, 0, 74, 0
1, 541637, Note_on_c, 0, 74, 36
1, 541637, Note_on_c, 0, 38, 36
1, 541637, Note_on_c, 0, 50, 36
1, 541637, Note_on_c, 0, 62, 36
1, 541637, Note_on_c, 0, 26, 36
1, 541637, Note_on_c, 0, 38, 36
1, 541733, Note_off_c, 0, 50, 0
1, 541733, Note_off_c, 0, 62, 0
1, 541733, Note_off_c, 0, 74, 0
1, 541733, Note_off_c, 0, 86, 0
1, 541829, Note_off_c, 0, 38, 0
1, 541829, Note_off_c, 0, 26, 0
1, 541829, Note_off_c, 0, 62, 0
1, 541829, Note_off_c, 0, 50, 0
1, 541829, Note_off_c, 0, 38, 0
1, 541829, Note_off_c, 0, 74, 0
1, 541829, Note_on_c, 0, 74, 36
1, 541829, Note_on_c, 0, 38, 36
1, 541829, Note_on_c, 0, 50, 36
1, 541829, Note_on_c, 0, 93, 43
1, 541829, Note_on_c, 0, 69, 23
1, 541829, Note_on_c, 0, 62, 36
1, 541829, Note_on_c, 0, 26, 36
1, 541829, Note_on_c, 0, 38, 36
1, 541829, Note_on_c, 0, 81, 43
1, 541829, Note_on_c, 0, 57, 23
1, 542021, Note_off_c, 0, 57, 0
1, 542021, Note_off_c, 0, 38, 0
1, 542021, Note_off_c, 0, 26, 0
1, 542021, Note_off_c, 0, 62, 0
1, 542021, Note_off_c, 0, 69, 0
1, 542021, Note_off_c, 0, 50, 0
1, 542021, Note_off_c, 0, 38, 0
1, 542021, Note_off_c, 0, 74, 0
1, 542021, Note_on_c, 0, 74, 36
1, 542021, Note_on_c, 0, 38, 36
1, 542021, Note_on_c, 0, 50, 36
1, 542021, Note_on_c, 0, 74, 23
1, 542021, Note_on_c, 0, 62, 36
1, 542021, Note_on_c, 0, 26, 36
1, 542021, Note_on_c, 0, 38, 36
1, 542021, Note_on_c, 0, 62, 23
1, 542117, Note_off_c, 0, 81, 0
1, 542117, Note_off_c, 0, 93, 0
1, 542117, Note_off_c, 0, 69, 0
1, 542117, Note_off_c, 0, 81, 0
1, 542213, Note_off_c, 0, 62, 0
1, 542213, Note_off_c, 0, 38, 0
1, 542213, Note_off_c, 0, 26, 0
1, 542213, Note_off_c, 0, 62, 0
1, 542213, Note_off_c, 0, 74, 0
1, 542213, Note_off_c, 0, 50, 0
1, 542213, Note_off_c, 0, 38, 0
1, 542213, Note_off_c, 0, 74, 0
1, 542213, Note_on_c, 0, 74, 36
1, 542213, Note_on_c, 0, 36, 36
1, 542213, Note_on_c, 0, 48, 36
1, 542213, Note_on_c, 0, 81, 43
1, 542213, Note_on_c, 0, 88, 43
1, 542213, Note_on_c, 0, 60, 23
1, 542213, Note_on_c, 0, 62, 36
1, 542213, Note_on_c, 0, 24, 36
1, 542213, Note_on_c, 0, 36, 36
1, 542213, Note_on_c, 0, 69, 43
1, 542213, Note_on_c, 0, 76, 43
1, 542213, Note_on_c, 0, 48, 23
1, 542405, Note_off_c, 0, 36, 0
1, 542405, Note_off_c, 0, 24, 0
1, 542405, Note_off_c, 0, 62, 0
1, 542405, Note_off_c, 0, 48, 0
1, 542405, Note_off_c, 0, 36, 0
1, 542405, Note_off_c, 0, 74, 0
1, 542405, Note_on_c, 0, 74, 36
1, 542405, Note_on_c, 0, 36, 36
1, 542405, Note_on_c, 0, 48, 36
1, 542405, Note_on_c, 0, 62, 36
1, 542405, Note_on_c, 0, 24, 36
1, 542405, Note_on_c, 0, 36, 36
1, 542501, Note_off_c, 0, 48, 0
1, 542501, Note_off_c, 0, 60, 0
1, 542597, Note_off_c, 0, 36, 0
1, 542597, Note_off_c, 0, 24, 0
1, 542597, Note_off_c, 0, 62, 0
1, 542597, Note_off_c, 0, 48, 0
1, 542597, Note_off_c, 0, 36, 0
1, 542597, Note_off_c, 0, 74, 0
1, 542597, Note_on_c, 0, 74, 36
1, 542597, Note_on_c, 0, 36, 36
1, 542597, Note_on_c, 0, 48, 36
1, 542597, Note_on_c, 0, 67, 23
1, 542597, Note_on_c, 0, 62, 36
1, 542597, Note_on_c, 0, 24, 36
1, 542597, Note_on_c, 0, 36, 36
1, 542597, Note_on_c, 0, 55, 23
1, 542789, Note_off_c, 0, 55, 0
1, 542789, Note_off_c, 0, 36, 0
1, 542789, Note_off_c, 0, 24, 0
1, 542789, Note_off_c, 0, 62, 0
1, 542789, Note_off_c, 0, 67, 0
1, 542789, Note_off_c, 0, 48, 0
1, 542789, Note_off_c, 0, 36, 0
1, 542789, Note_off_c, 0, 74, 0
1, 542789, Note_on_c, 0, 74, 36
1, 542789, Note_on_c, 0, 36, 36
1, 542789, Note_on_c, 0, 48, 36
1, 542789, Note_on_c, 0, 72, 23
1, 542789, Note_on_c, 0, 62, 36
1, 542789, Note_on_c, 0, 24, 36
1, 542789, Note_on_c, 0, 36, 36
1, 542789, Note_on_c, 0, 60, 23
1, 542981, Note_off_c, 0, 60, 0
1, 542981, Note_off_c, 0, 36, 0
1, 542981, Note_off_c, 0, 24, 0
1, 542981, Note_off_c, 0, 62, 0
1, 542981, Note_off_c, 0, 72, 0
1, 542981, Note_off_c, 0, 48, 0
1, 542981, Note_off_c, 0, 36, 0
1, 542981, Note_off_c, 0, 74, 0
1, 542981, Note_on_c, 0, 74, 36
1, 542981, Note_on_c, 0, 36, 36
1, 542981, Note_on_c, 0, 48, 36
1, 542981, Note_on_c, 0, 60, 23
1, 542981, Note_on_c, 0, 62, 36
1, 542981, Note_on_c, 0, 24, 36
1, 542981, Note_on_c, 0, 36, 36
1, 542981, Note_on_c, 0, 48, 23
1, 543173, Note_off_c, 0, 36, 0
1, 543173, Note_off_c, 0, 24, 0
1, 543173, Note_off_c, 0, 62, 0
1, 543173, Note_off_c, 0, 48, 0
1, 543173, Note_off_c, 0, 36, 0
1, 543173, Note_off_c, 0, 74, 0
1, 543173, Note_on_c, 0, 74, 36
1, 543173, Note_on_c, 0, 36, 36
1, 543173, Note_on_c, 0, 48, 36
1, 543173, Note_on_c, 0, 62, 36
1, 543173, Note_on_c, 0, 24, 36
1, 543173, Note_on_c, 0, 36, 36
1, 543269, Note_off_c, 0, 48, 0
1, 543269, Note_off_c, 0, 60, 0
1, 543365, Note_off_c, 0, 36, 0
1, 543365, Note_off_c, 0, 24, 0
1, 543365, Note_off_c, 0, 62, 0
1, 543365, Note_off_c, 0, 48, 0
1, 543365, Note_off_c, 0, 36, 0
1, 543365, Note_off_c, 0, 74, 0
1, 543365, Note_on_c, 0, 74, 36
1, 543365, Note_on_c, 0, 36, 36
1, 543365, Note_on_c, 0, 48, 36
1, 543365, Note_on_c, 0, 67, 23
1, 543365, Note_on_c, 0, 62, 36
1, 543365, Note_on_c, 0, 24, 36
1, 543365, Note_on_c, 0, 36, 36
1, 543365, Note_on_c, 0, 55, 23
1, 543557, Note_off_c, 0, 55, 0
1, 543557, Note_off_c, 0, 36, 0
1, 543557, Note_off_c, 0, 24, 0
1, 543557, Note_off_c, 0, 62, 0
1, 543557, Note_off_c, 0, 67, 0
1, 543557, Note_off_c, 0, 48, 0
1, 543557, Note_off_c, 0, 36, 0
1, 543557, Note_off_c, 0, 74, 0
1, 543557, Note_on_c, 0, 74, 36
1, 543557, Note_on_c, 0, 36, 36
1, 543557, Note_on_c, 0, 48, 36
1, 543557, Note_on_c, 0, 72, 23
1, 543557, Note_on_c, 0, 62, 36
1, 543557, Note_on_c, 0, 24, 36
1, 543557, Note_on_c, 0, 36, 36
1, 543557, Note_on_c, 0, 60, 23
1, 543653, Note_off_c, 0, 76, 0
1, 543653, Note_off_c, 0, 69, 0
1, 543653, Note_off_c, 0, 88, 0
1, 543653, Note_off_c, 0, 81, 0
1, 543749, Note_off_c, 0, 60, 0
1, 543749, Note_off_c, 0, 36, 0
1, 543749, Note_off_c, 0, 24, 0
1, 543749, Note_off_c, 0, 62, 0
1, 543749, Note_off_c, 0, 72, 0
1, 543749, Note_off_c, 0, 48, 0
1, 543749, Note_off_c, 0, 36, 0
1, 543749, Note_off_c, 0, 74, 0
1, 543749, Note_on_c, 0, 74, 36
1, 543749, Note_on_c, 0, 36, 36
1, 543749, Note_on_c, 0, 48, 36
1, 543749, Note_on_c, 0, 88, 43
1, 543749, Note_on_c, 0, 81, 43
1, 543749, Note_on_c, 0, 60, 23
1, 543749, Note_on_c, 0, 62, 36
1, 543749, Note_on_c, 0, 24, 36
1, 543749, Note_on_c, 0, 36, 36
1, 543749, Note_on_c, 0, 76, 43
1, 543749, Note_on_c, 0, 69, 43
1, 543749, Note_on_c, 0, 48, 23
1, 543941, Note_off_c, 0, 36, 0
1, 543941, Note_off_c, 0, 24, 0
1, 543941, Note_off_c, 0, 62, 0
1, 543941, Note_off_c, 0, 48, 0
1, 543941, Note_off_c, 0, 36, 0
1, 543941, Note_off_c, 0, 74, 0
1, 543941, Note_on_c, 0, 74, 36
1, 543941, Note_on_c, 0, 36, 36
1, 543941, Note_on_c, 0, 48, 36
1, 543941, Note_on_c, 0, 62, 36
1, 543941, Note_on_c, 0, 24, 36
1, 543941, Note_on_c, 0, 36, 36
1, 544037, Note_off_c, 0, 48, 0
1, 544037, Note_off_c, 0, 60, 0
1, 544133, Note_off_c, 0, 36, 0
1, 544133, Note_off_c, 0, 24, 0
1, 544133, Note_off_c, 0, 62, 0
1, 544133, Note_off_c, 0, 48, 0
1, 544133, Note_off_c, 0, 36, 0
1, 544133, Note_off_c, 0, 74, 0
1, 544133, Note_on_c, 0, 74, 36
1, 544133, Note_on_c, 0, 36, 36
1, 544133, Note_on_c, 0, 48, 36
1, 544133, Note_on_c, 0, 67, 23
1, 544133, Note_on_c, 0, 62, 36
1, 544133, Note_on_c, 0, 24, 36
1, 544133, Note_on_c, 0, 36, 36
1, 544133, Note_on_c, 0, 55, 23
1, 544229, Note_off_c, 0, 76, 0
1, 544229, Note_off_c, 0, 88, 0
1, 544325, Note_off_c, 0, 55, 0
1, 544325, Note_off_c, 0, 36, 0
1, 544325, Note_off_c, 0, 24, 0
1, 544325, Note_off_c, 0, 62, 0
1, 544325, Note_off_c, 0, 67, 0
1, 544325, Note_off_c, 0, 48, 0
1, 544325, Note_off_c, 0, 36, 0
1, 544325, Note_off_c, 0, 74, 0
1, 544325, Note_on_c, 0, 74, 36
1, 544325, Note_on_c, 0, 36, 36
1, 544325, Note_on_c, 0, 48, 36
1, 544325, Note_on_c, 0, 86, 43
1, 544325, Note_on_c, 0, 72, 23
1, 544325, Note_on_c, 0, 62, 36
1, 544325, Note_on_c, 0, 24, 36
1, 544325, Note_on_c, 0, 36, 36
1, 544325, Note_on_c, 0, 74, 43
1, 544325, Note_on_c, 0, 60, 23
1, 544517, Note_off_c, 0, 60, 0
1, 544517, Note_off_c, 0, 36, 0
1, 544517, Note_off_c, 0, 24, 0
1, 544517, Note_off_c, 0, 62, 0
1, 544517, Note_off_c, 0, 72, 0
1, 544517, Note_off_c, 0, 48, 0
1, 544517, Note_off_c, 0, 36, 0
1, 544517, Note_off_c, 0, 74, 0
1, 544517, Note_on_c, 0, 74, 36
1, 544517, Note_on_c, 0, 36, 36
1, 544517, Note_on_c, 0, 48, 36
1, 544517, Note_on_c, 0, 60, 23
1, 544517, Note_on_c, 0, 62, 36
1, 544517, Note_on_c, 0, 24, 36
1, 544517, Note_on_c, 0, 36, 36
1, 544517, Note_on_c, 0, 48, 23
1, 544613, Note_off_c, 0, 36, 0
1, 544613, Note_off_c, 0, 24, 0
1, 544613, Note_off_c, 0, 48, 0
1, 544613, Note_off_c, 0, 36, 0
1, 544613, Note_on_c, 0, 36, 36
1, 544613, Note_on_c, 0, 48, 36
1, 544613, Note_on_c, 0, 24, 36
1, 544613, Note_on_c, 0, 36, 36
1, 544709, Note_off_c, 0, 36, 0
1, 544709, Note_off_c, 0, 24, 0
1, 544709, Note_off_c, 0, 48, 0
1, 544709, Note_off_c, 0, 36, 0
1, 544709, Note_off_c, 0, 62, 0
1, 544709, Note_off_c, 0, 74, 0
1, 544709, Note_on_c, 0, 74, 36
1, 544709, Note_on_c, 0, 36, 36
1, 544709, Note_on_c, 0, 48, 36
1, 544709, Note_on_c, 0, 62, 36
1, 544709, Note_on_c, 0, 24, 36
1, 544709, Note_on_c, 0, 36, 36
1, 544805, Note_off_c, 0, 36, 0
1, 544805, Note_off_c, 0, 24, 0
1, 544805, Note_off_c, 0, 48, 0
1, 544805, Note_off_c, 0, 36, 0
1, 544805, Note_off_c, 0, 48, 0
1, 544805, Note_off_c, 0, 60, 0
1, 544805, Note_off_c, 0, 74, 0
1, 544805, Note_off_c, 0, 86, 0
1, 544805, Note_on_c, 0, 36, 36
1, 544805, Note_on_c, 0, 48, 36
1, 544805, Note_on_c, 0, 24, 36
1, 544805, Note_on_c, 0, 36, 36
1, 544901, Note_off_c, 0, 36, 0
1, 544901, Note_off_c, 0, 24, 0
1, 544901, Note_off_c, 0, 48, 0
1, 544901, Note_off_c, 0, 36, 0
1, 544901, Note_off_c, 0, 62, 0
1, 544901, Note_off_c, 0, 74, 0
1, 544901, Note_on_c, 0, 74, 36
1, 544901, Note_on_c, 0, 36, 36
1, 544901, Note_on_c, 0, 48, 36
1, 544901, Note_on_c, 0, 93, 43
1, 544901, Note_on_c, 0, 67, 23
1, 544901, Note_on_c, 0, 62, 36
1, 544901, Note_on_c, 0, 24, 36
1, 544901, Note_on_c, 0, 36, 36
1, 544901, Note_on_c, 0, 81, 43
1, 544901, Note_on_c, 0, 55, 23
1, 544997, Note_off_c, 0, 36, 0
1, 544997, Note_off_c, 0, 24, 0
1, 544997, Note_off_c, 0, 48, 0
1, 544997, Note_off_c, 0, 36, 0
1, 544997, Note_on_c, 0, 36, 36
1, 544997, Note_on_c, 0, 48, 36
1, 544997, Note_on_c, 0, 24, 36
1, 544997, Note_on_c, 0, 36, 36
1, 545093, Note_off_c, 0, 36, 0
1, 545093, Note_off_c, 0, 24, 0
1, 545093, Note_off_c, 0, 48, 0
1, 545093, Note_off_c, 0, 36, 0
1, 545093, Note_off_c, 0, 55, 0
1, 545093, Note_off_c, 0, 62, 0
1, 545093, Note_off_c, 0, 67, 0
1, 545093, Note_off_c, 0, 74, 0
1, 545093, Note_on_c, 0, 74, 36
1, 545093, Note_on_c, 0, 36, 36
1, 545093, Note_on_c, 0, 48, 36
1, 545093, Note_on_c, 0, 72, 23
1, 545093, Note_on_c, 0, 62, 36
1, 545093, Note_on_c, 0, 24, 36
1, 545093, Note_on_c, 0, 36, 36
1, 545093, Note_on_c, 0, 60, 23
1, 545189, Note_off_c, 0, 36, 0
1, 545189, Note_off_c, 0, 24, 0
1, 545189, Note_off_c, 0, 48, 0
1, 545189, Note_off_c, 0, 36, 0
1, 545189, Note_off_c, 0, 81, 0
1, 545189, Note_off_c, 0, 93, 0
1, 545189, Note_off_c, 0, 69, 0
1, 545189, Note_off_c, 0, 81, 0
1, 545189, Note_on_c, 0, 36, 36
1, 545189, Note_on_c, 0, 48, 36
1, 545189, Note_on_c, 0, 24, 36
1, 545189, Note_on_c, 0, 36, 36
1, 545285, Note_off_c, 0, 36, 0
1, 545285, Note_off_c, 0, 24, 0
1, 545285, Note_off_c, 0, 48, 0
1, 545285, Note_off_c, 0, 36, 0
1, 545285, Note_off_c, 0, 60, 0
1, 545285, Note_off_c, 0, 62, 0
1, 545285, Note_off_c, 0, 72, 0
1, 545285, Note_off_c, 0, 74, 0
1, 545285, Note_on_c, 0, 74, 36
1, 545285, Note_on_c, 0, 35, 36
1, 545285, Note_on_c, 0, 47, 36
1, 545285, Note_on_c, 0, 81, 43
1, 545285, Note_on_c, 0, 88, 43
1, 545285, Note_on_c, 0, 59, 23
1, 545285, Note_on_c, 0, 62, 36
1, 545285, Note_on_c, 0, 24, 36
1, 545285, Note_on_c, 0, 35, 36
1, 545285, Note_on_c, 0, 69, 43
1, 545285, Note_on_c, 0, 76, 43
1, 545285, Note_on_c, 0, 47, 23
1, 545477, Note_off_c, 0, 35, 0
1, 545477, Note_off_c, 0, 24, 0
1, 545477, Note_off_c, 0, 62, 0
1, 545477, Note_off_c, 0, 47, 0
1, 545477, Note_off_c, 0, 35, 0
1, 545477, Note_off_c, 0, 74, 0
1, 545477, Note_on_c, 0, 74, 36
1, 545477, Note_on_c, 0, 35, 36
1, 545477, Note_on_c, 0, 47, 36
1, 545477, Note_on_c, 0, 62, 36
1, 545477, Note_on_c, 0, 24, 36
1, 545477, Note_on_c, 0, 35, 36
1, 545573, Note_off_c, 0, 47, 0
1, 545573, Note_off_c, 0, 59, 0
1, 545669, Note_off_c, 0, 35, 0
1, 545669, Note_off_c, 0, 24, 0
1, 545669, Note_off_c, 0, 62, 0
1, 545669, Note_off_c, 0, 47, 0
1, 545669, Note_off_c, 0, 35, 0
1, 545669, Note_off_c, 0, 74, 0
1, 545669, Note_on_c, 0, 74, 36
1, 545669, Note_on_c, 0, 35, 36
1, 545669, Note_on_c, 0, 47, 36
1, 545669, Note_on_c, 0, 67, 23
1, 545669, Note_on_c, 0, 62, 36
1, 545669, Note_on_c, 0, 24, 36
1, 545669, Note_on_c, 0, 35, 36
1, 545669, Note_on_c, 0, 55, 23
1, 545861, Note_off_c, 0, 55, 0
1, 545861, Note_off_c, 0, 35, 0
1, 545861, Note_off_c, 0, 24, 0
1, 545861, Note_off_c, 0, 62, 0
1, 545861, Note_off_c, 0, 67, 0
1, 545861, Note_off_c, 0, 47, 0
1, 545861, Note_off_c, 0, 35, 0
1, 545861, Note_off_c, 0, 74, 0
1, 545861, Note_on_c, 0, 74, 36
1, 545861, Note_on_c, 0, 35, 36
1, 545861, Note_on_c, 0, 47, 36
1, 545861, Note_on_c, 0, 71, 23
1, 545861, Note_on_c, 0, 62, 36
1, 545861, Note_on_c, 0, 24, 36
1, 545861, Note_on_c, 0, 35, 36
1, 545861, Note_on_c, 0, 59, 23
1, 546053, Note_off_c, 0, 59, 0
1, 546053, Note_off_c, 0, 35, 0
1, 546053, Note_off_c, 0, 24, 0
1, 546053, Note_off_c, 0, 62, 0
1, 546053, Note_off_c, 0, 71, 0
1, 546053, Note_off_c, 0, 47, 0
1, 546053, Note_off_c, 0, 35, 0
1, 546053, Note_off_c, 0, 74, 0
1, 546053, Note_on_c, 0, 74, 36
1, 546053, Note_on_c, 0, 35, 36
1, 546053, Note_on_c, 0, 47, 36
1, 546053, Note_on_c, 0, 59, 23
1, 546053, Note_on_c, 0, 62, 36
1, 546053, Note_on_c, 0, 24, 36
1, 546053, Note_on_c, 0, 35, 36
1, 546053, Note_on_c, 0, 47, 23
1, 546245, Note_off_c, 0, 35, 0
1, 546245, Note_off_c, 0, 24, 0
1, 546245, Note_off_c, 0, 62, 0
1, 546245, Note_off_c, 0, 47, 0
1, 546245, Note_off_c, 0, 35, 0
1, 546245, Note_off_c, 0, 74, 0
1, 546245, Note_on_c, 0, 74, 36
1, 546245, Note_on_c, 0, 35, 36
1, 546245, Note_on_c, 0, 47, 36
1, 546245, Note_on_c, 0, 62, 36
1, 546245, Note_on_c, 0, 24, 36
1, 546245, Note_on_c, 0, 35, 36
1, 546341, Note_off_c, 0, 47, 0
1, 546341, Note_off_c, 0, 59, 0
1, 546437, Note_off_c, 0, 35, 0
1, 546437, Note_off_c, 0, 24, 0
1, 546437, Note_off_c, 0, 62, 0
1, 546437, Note_off_c, 0, 47, 0
1, 546437, Note_off_c, 0, 35, 0
1, 546437, Note_off_c, 0, 74, 0
1, 546437, Note_on_c, 0, 74, 36
1, 546437, Note_on_c, 0, 35, 36
1, 546437, Note_on_c, 0, 47, 36
1, 546437, Note_on_c, 0, 67, 23
1, 546437, Note_on_c, 0, 62, 36
1, 546437, Note_on_c, 0, 24, 36
1, 546437, Note_on_c, 0, 35, 36
1, 546437, Note_on_c, 0, 55, 23
1, 546629, Note_off_c, 0, 55, 0
1, 546629, Note_off_c, 0, 35, 0
1, 546629, Note_off_c, 0, 24, 0
1, 546629, Note_off_c, 0, 62, 0
1, 546629, Note_off_c, 0, 67, 0
1, 546629, Note_off_c, 0, 47, 0
1, 546629, Note_off_c, 0, 35, 0
1, 546629, Note_off_c, 0, 74, 0
1, 546629, Note_on_c, 0, 74, 36
1, 546629, Note_on_c, 0, 35, 36
1, 546629, Note_on_c, 0, 47, 36
1, 546629, Note_on_c, 0, 71, 23
1, 546629, Note_on_c, 0, 62, 36
1, 546629, Note_on_c, 0, 24, 36
1, 546629, Note_on_c, 0, 35, 36
1, 546629, Note_on_c, 0, 59, 23
1, 546725, Note_off_c, 0, 76, 0
1, 546725, Note_off_c, 0, 69, 0
1, 546725, Note_off_c, 0, 88, 0
1, 546725, Note_off_c, 0, 81, 0
1, 546821, Note_off_c, 0, 59, 0
1, 546821, Note_off_c, 0, 35, 0
1, 546821, Note_off_c, 0, 24, 0
1, 546821, Note_off_c, 0, 62, 0
1, 546821, Note_off_c, 0, 71, 0
1, 546821, Note_off_c, 0, 47, 0
1, 546821, Note_off_c, 0, 35, 0
1, 546821, Note_off_c, 0, 74, 0
1, 546821, Note_on_c, 0, 74, 36
1, 546821, Note_on_c, 0, 35, 36
1, 546821, Note_on_c, 0, 47, 36
1, 546821, Note_on_c, 0, 88, 43
1, 546821, Note_on_c, 0, 81, 43
1, 546821, Note_on_c, 0, 59, 23
1, 546821, Note_on_c, 0, 62, 36
1, 546821, Note_on_c, 0, 24, 36
1, 546821, Note_on_c, 0, 35, 36
1, 546821, Note_on_c, 0, 76, 43
1, 546821, Note_on_c, 0, 69, 43
1, 546821, Note_on_c, 0, 47, 23
1, 547013, Note_off_c, 0, 35, 0
1, 547013, Note_off_c, 0, 24, 0
1, 547013, Note_off_c, 0, 62, 0
1, 547013, Note_off_c, 0, 47, 0
1, 547013, Note_off_c, 0, 35, 0
1, 547013, Note_off_c, 0, 74, 0
1, 547013, Note_on_c, 0, 74, 36
1, 547013, Note_on_c, 0, 35, 36
1, 547013, Note_on_c, 0, 47, 36
1, 547013, Note_on_c, 0, 62, 36
1, 547013, Note_on_c, 0, 24, 36
1, 547013, Note_on_c, 0, 35, 36
1, 547109, Note_off_c, 0, 47, 0
1, 547109, Note_off_c, 0, 59, 0
1, 547205, Note_off_c, 0, 35, 0
1, 547205, Note_off_c, 0, 24, 0
1, 547205, Note_off_c, 0, 62, 0
1, 547205, Note_off_c, 0, 47, 0
1, 547205, Note_off_c, 0, 35, 0
1, 547205, Note_off_c, 0, 74, 0
1, 547205, Note_on_c, 0, 74, 36
1, 547205, Note_on_c, 0, 35, 36
1, 547205, Note_on_c, 0, 47, 36
1, 547205, Note_on_c, 0, 67, 23
1, 547205, Note_on_c, 0, 62, 36
1, 547205, Note_on_c, 0, 24, 36
1, 547205, Note_on_c, 0, 35, 36
1, 547205, Note_on_c, 0, 55, 23
1, 547301, Note_off_c, 0, 76, 0
1, 547301, Note_off_c, 0, 88, 0
1, 547397, Note_off_c, 0, 55, 0
1, 547397, Note_off_c, 0, 35, 0
1, 547397, Note_off_c, 0, 24, 0
1, 547397, Note_off_c, 0, 62, 0
1, 547397, Note_off_c, 0, 67, 0
1, 547397, Note_off_c, 0, 47, 0
1, 547397, Note_off_c, 0, 35, 0
1, 547397, Note_off_c, 0, 74, 0
1, 547397, Note_on_c, 0, 74, 36
1, 547397, Note_on_c, 0, 35, 36
1, 547397, Note_on_c, 0, 47, 36
1, 547397, Note_on_c, 0, 86, 43
1, 547397, Note_on_c, 0, 71, 23
1, 547397, Note_on_c, 0, 62, 36
1, 547397, Note_on_c, 0, 24, 36
1, 547397, Note_on_c, 0, 35, 36
1, 547397, Note_on_c, 0, 74, 43
1, 547397, Note_on_c, 0, 59, 23
1, 547589, Note_off_c, 0, 59, 0
1, 547589, Note_off_c, 0, 35, 0
1, 547589, Note_off_c, 0, 24, 0
1, 547589, Note_off_c, 0, 62, 0
1, 547589, Note_off_c, 0, 71, 0
1, 547589, Note_off_c, 0, 47, 0
1, 547589, Note_off_c, 0, 35, 0
1, 547589, Note_off_c, 0, 74, 0
1, 547589, Note_on_c, 0, 74, 36
1, 547589, Note_on_c, 0, 35, 36
1, 547589, Note_on_c, 0, 47, 36
1, 547589, Note_on_c, 0, 59, 23
1, 547589, Note_on_c, 0, 62, 36
1, 547589, Note_on_c, 0, 24, 36
1, 547589, Note_on_c, 0, 35, 36
1, 547589, Note_on_c, 0, 47, 23
1, 547685, Note_off_c, 0, 35, 0
1, 547685, Note_off_c, 0, 24, 0
1, 547685, Note_off_c, 0, 47, 0
1, 547685, Note_off_c, 0, 35, 0
1, 547685, Note_on_c, 0, 35, 36
1, 547685, Note_on_c, 0, 47, 36
1, 547685, Note_on_c, 0, 24, 36
1, 547685, Note_on_c, 0, 35, 36
1, 547781, Note_off_c, 0, 35, 0
1, 547781, Note_off_c, 0, 24, 0
1, 547781, Note_off_c, 0, 47, 0
1, 547781, Note_off_c, 0, 35, 0
1, 547781, Note_off_c, 0, 62, 0
1, 547781, Note_off_c, 0, 74, 0
1, 547781, Note_on_c, 0, 74, 36
1, 547781, Note_on_c, 0, 35, 36
1, 547781, Note_on_c, 0, 47, 36
1, 547781, Note_on_c, 0, 62, 36
1, 547781, Note_on_c, 0, 24, 36
1, 547781, Note_on_c, 0, 35, 36
1, 547877, Note_off_c, 0, 35, 0
1, 547877, Note_off_c, 0, 24, 0
1, 547877, Note_off_c, 0, 47, 0
1, 547877, Note_off_c, 0, 35, 0
1, 547877, Note_off_c, 0, 47, 0
1, 547877, Note_off_c, 0, 59, 0
1, 547877, Note_off_c, 0, 74, 0
1, 547877, Note_off_c, 0, 86, 0
1, 547877, Note_on_c, 0, 35, 36
1, 547877, Note_on_c, 0, 47, 36
1, 547877, Note_on_c, 0, 24, 36
1, 547877, Note_on_c, 0, 35, 36
1, 547973, Note_off_c, 0, 35, 0
1, 547973, Note_off_c, 0, 24, 0
1, 547973, Note_off_c, 0, 47, 0
1, 547973, Note_off_c, 0, 35, 0
1, 547973, Note_off_c, 0, 62, 0
1, 547973, Note_off_c, 0, 74, 0
1, 547973, Note_on_c, 0, 74, 36
1, 547973, Note_on_c, 0, 35, 36
1, 547973, Note_on_c, 0, 47, 36
1, 547973, Note_on_c, 0, 93, 43
1, 547973, Note_on_c, 0, 67, 23
1, 547973, Note_on_c, 0, 62, 36
1, 547973, Note_on_c, 0, 24, 36
1, 547973, Note_on_c, 0, 35, 36
1, 547973, Note_on_c, 0, 81, 43
1, 547973, Note_on_c, 0, 55, 23
1, 548069, Note_off_c, 0, 35, 0
1, 548069, Note_off_c, 0, 24, 0
1, 548069, Note_off_c, 0, 47, 0
1, 548069, Note_off_c, 0, 35, 0
1, 548069, Note_on_c, 0, 35, 36
1, 548069, Note_on_c, 0, 47, 36
1, 548069, Note_on_c, 0, 24, 36
1, 548069, Note_on_c, 0, 35, 36
1, 548165, Note_off_c, 0, 35, 0
1, 548165, Note_off_c, 0, 24, 0
1, 548165, Note_off_c, 0, 47, 0
1, 548165, Note_off_c, 0, 35, 0
1, 548165, Note_off_c, 0, 55, 0
1, 548165, Note_off_c, 0, 62, 0
1, 548165, Note_off_c, 0, 67, 0
1, 548165, Note_off_c, 0, 74, 0
1, 548165, Note_on_c, 0, 74, 36
1, 548165, Note_on_c, 0, 35, 36
1, 548165, Note_on_c, 0, 47, 36
1, 548165, Note_on_c, 0, 71, 23
1, 548165, Note_on_c, 0, 62, 36
1, 548165, Note_on_c, 0, 24, 36
1, 548165, Note_on_c, 0, 35, 36
1, 548165, Note_on_c, 0, 59, 23
1, 548261, Note_off_c, 0, 35, 0
1, 548261, Note_off_c, 0, 24, 0
1, 548261, Note_off_c, 0, 47, 0
1, 548261, Note_off_c, 0, 35, 0
1, 548261, Note_off_c, 0, 81, 0
1, 548261, Note_off_c, 0, 93, 0
1, 548261, Note_off_c, 0, 69, 0
1, 548261, Note_off_c, 0, 81, 0
1, 548261, Note_on_c, 0, 35, 36
1, 548261, Note_on_c, 0, 47, 36
1, 548261, Note_on_c, 0, 24, 36
1, 548261, Note_on_c, 0, 35, 36
1, 548357, Note_off_c, 0, 35, 0
1, 548357, Note_off_c, 0, 24, 0
1, 548357, Note_off_c, 0, 47, 0
1, 548357, Note_off_c, 0, 35, 0
1, 548357, Note_off_c, 0, 59, 0
1, 548357, Note_off_c, 0, 62, 0
1, 548357, Note_off_c, 0, 71, 0
1, 548357, Note_off_c, 0, 74, 0
1, 548357, Note_on_c, 0, 74, 36
1, 548357, Note_on_c, 0, 34, 36
1, 548357, Note_on_c, 0, 46, 36
1, 548357, Note_on_c, 0, 88, 43
1, 548357, Note_on_c, 0, 58, 23
1, 548357, Note_on_c, 0, 62, 36
1, 548357, Note_on_c, 0, 24, 36
1, 548357, Note_on_c, 0, 34, 36
1, 548357, Note_on_c, 0, 76, 43
1, 548357, Note_on_c, 0, 46, 23
1, 548453, Note_off_c, 0, 34, 0
1, 548453, Note_off_c, 0, 24, 0
1, 548453, Note_off_c, 0, 46, 0
1, 548453, Note_off_c, 0, 34, 0
1, 548453, Note_on_c, 0, 34, 36
1, 548453, Note_on_c, 0, 46, 36
1, 548453, Note_on_c, 0, 24, 36
1, 548453, Note_on_c, 0, 34, 36
1, 548549, Note_off_c, 0, 34, 0
1, 548549, Note_off_c, 0, 24, 0
1, 548549, Note_off_c, 0, 46, 0
1, 548549, Note_off_c, 0, 34, 0
1, 548549, Note_off_c, 0, 62, 0
1, 548549, Note_off_c, 0, 74, 0
1, 548549, Note_on_c, 0, 74, 36
1, 548549, Note_on_c, 0, 34, 36
1, 548549, Note_on_c, 0, 46, 36
1, 548549, Note_on_c, 0, 62, 36
1, 548549, Note_on_c, 0, 24, 36
1, 548549, Note_on_c, 0, 34, 36
1, 548645, Note_off_c, 0, 34, 0
1, 548645, Note_off_c, 0, 24, 0
1, 548645, Note_off_c, 0, 46, 0
1, 548645, Note_off_c, 0, 34, 0
1, 548645, Note_off_c, 0, 46, 0
1, 548645, Note_off_c, 0, 58, 0
1, 548645, Note_on_c, 0, 34, 36
1, 548645, Note_on_c, 0, 46, 36
1, 548645, Note_on_c, 0, 24, 36
1, 548645, Note_on_c, 0, 34, 36
1, 548741, Note_off_c, 0, 34, 0
1, 548741, Note_off_c, 0, 24, 0
1, 548741, Note_off_c, 0, 46, 0
1, 548741, Note_off_c, 0, 34, 0
1, 548741, Note_off_c, 0, 62, 0
1, 548741, Note_off_c, 0, 74, 0
1, 548741, Note_on_c, 0, 74, 36
1, 548741, Note_on_c, 0, 34, 36
1, 548741, Note_on_c, 0, 46, 36
1, 548741, Note_on_c, 0, 65, 23
1, 548741, Note_on_c, 0, 62, 36
1, 548741, Note_on_c, 0, 24, 36
1, 548741, Note_on_c, 0, 34, 36
1, 548741, Note_on_c, 0, 53, 23
1, 548837, Note_off_c, 0, 76, 0
1, 548837, Note_off_c, 0, 88, 0
1, 548933, Note_off_c, 0, 53, 0
1, 548933, Note_off_c, 0, 34, 0
1, 548933, Note_off_c, 0, 24, 0
1, 548933, Note_off_c, 0, 62, 0
1, 548933, Note_off_c, 0, 65, 0
1, 548933, Note_off_c, 0, 46, 0
1, 548933, Note_off_c, 0, 34, 0
1, 548933, Note_off_c, 0, 74, 0
1, 548933, Note_on_c, 0, 74, 36
1, 548933, Note_on_c, 0, 34, 36
1, 548933, Note_on_c, 0, 46, 36
1, 548933, Note_on_c, 0, 86, 43
1, 548933, Note_on_c, 0, 70, 23
1, 548933, Note_on_c, 0, 62, 36
1, 548933, Note_on_c, 0, 24, 36
1, 548933, Note_on_c, 0, 34, 36
1, 548933, Note_on_c, 0, 74, 43
1, 548933, Note_on_c, 0, 58, 23
1, 549125, Note_off_c, 0, 58, 0
1, 549125, Note_off_c, 0, 34, 0
1, 549125, Note_off_c, 0, 24, 0
1, 549125, Note_off_c, 0, 62, 0
1, 549125, Note_off_c, 0, 70, 0
1, 549125, Note_off_c, 0, 46, 0
1, 549125, Note_off_c, 0, 34, 0
1, 549125, Note_off_c, 0, 74, 0
1, 549125, Note_on_c, 0, 74, 36
1, 549125, Note_on_c, 0, 34, 36
1, 549125, Note_on_c, 0, 46, 36
1, 549125, Note_on_c, 0, 58, 23
1, 549125, Note_on_c, 0, 62, 36
1, 549125, Note_on_c, 0, 24, 36
1, 549125, Note_on_c, 0, 34, 36
1, 549125, Note_on_c, 0, 46, 23
1, 549221, Note_off_c, 0, 34, 0
1, 549221, Note_off_c, 0, 24, 0
1, 549221, Note_off_c, 0, 46, 0
1, 549221, Note_off_c, 0, 34, 0
1, 549221, Note_on_c, 0, 34, 36
1, 549221, Note_on_c, 0, 46, 36
1, 549221, Note_on_c, 0, 24, 36
1, 549221, Note_on_c, 0, 34, 36
1, 549317, Note_off_c, 0, 34, 0
1, 549317, Note_off_c, 0, 24, 0
1, 549317, Note_off_c, 0, 46, 0
1, 549317, Note_off_c, 0, 34, 0
1, 549317, Note_off_c, 0, 62, 0
1, 549317, Note_off_c, 0, 74, 0
1, 549317, Note_on_c, 0, 74, 36
1, 549317, Note_on_c, 0, 34, 36
1, 549317, Note_on_c, 0, 46, 36
1, 549317, Note_on_c, 0, 62, 36
1, 549317, Note_on_c, 0, 24, 36
1, 549317, Note_on_c, 0, 34, 36
1, 549413, Note_off_c, 0, 34, 0
1, 549413, Note_off_c, 0, 24, 0
1, 549413, Note_off_c, 0, 46, 0
1, 549413, Note_off_c, 0, 34, 0
1, 549413, Note_off_c, 0, 46, 0
1, 549413, Note_off_c, 0, 58, 0
1, 549413, Note_off_c, 0, 74, 0
1, 549413, Note_off_c, 0, 86, 0
1, 549413, Note_on_c, 0, 34, 36
1, 549413, Note_on_c, 0, 46, 36
1, 549413, Note_on_c, 0, 24, 36
1, 549413, Note_on_c, 0, 34, 36
1, 549509, Note_off_c, 0, 34, 0
1, 549509, Note_off_c, 0, 24, 0
1, 549509, Note_off_c, 0, 46, 0
1, 549509, Note_off_c, 0, 34, 0
1, 549509, Note_off_c, 0, 62, 0
1, 549509, Note_off_c, 0, 74, 0
1, 549509, Note_on_c, 0, 74, 36
1, 549509, Note_on_c, 0, 34, 36
1, 549509, Note_on_c, 0, 46, 36
1, 549509, Note_on_c, 0, 88, 43
1, 549509, Note_on_c, 0, 65, 23
1, 549509, Note_on_c, 0, 62, 36
1, 549509, Note_on_c, 0, 24, 36
1, 549509, Note_on_c, 0, 34, 36
1, 549509, Note_on_c, 0, 76, 43
1, 549509, Note_on_c, 0, 53, 23
1, 549701, Note_off_c, 0, 53, 0
1, 549701, Note_off_c, 0, 34, 0
1, 549701, Note_off_c, 0, 24, 0
1, 549701, Note_off_c, 0, 62, 0
1, 549701, Note_off_c, 0, 65, 0
1, 549701, Note_off_c, 0, 46, 0
1, 549701, Note_off_c, 0, 34, 0
1, 549701, Note_off_c, 0, 74, 0
1, 549701, Note_on_c, 0, 74, 36
1, 549701, Note_on_c, 0, 34, 36
1, 549701, Note_on_c, 0, 46, 36
1, 549701, Note_on_c, 0, 70, 23
1, 549701, Note_on_c, 0, 62, 36
1, 549701, Note_on_c, 0, 24, 36
1, 549701, Note_on_c, 0, 34, 36
1, 549701, Note_on_c, 0, 58, 23
1, 549797, Note_off_c, 0, 76, 0
1, 549797, Note_off_c, 0, 88, 0
1, 549893, Note_off_c, 0, 58, 0
1, 549893, Note_off_c, 0, 34, 0
1, 549893, Note_off_c, 0, 24, 0
1, 549893, Note_off_c, 0, 62, 0
1, 549893, Note_off_c, 0, 70, 0
1, 549893, Note_off_c, 0, 46, 0
1, 549893, Note_off_c, 0, 34, 0
1, 549893, Note_off_c, 0, 74, 0
1, 549893, Note_on_c, 0, 74, 36
1, 549893, Note_on_c, 0, 36, 36
1, 549893, Note_on_c, 0, 48, 36
1, 549893, Note_on_c, 0, 89, 43
1, 549893, Note_on_c, 0, 60, 23
1, 549893, Note_on_c, 0, 62, 36
1, 549893, Note_on_c, 0, 24, 36
1, 549893, Note_on_c, 0, 36, 36
1, 549893, Note_on_c, 0, 77, 43
1, 549893, Note_on_c, 0, 48, 23
1, 549989, Note_off_c, 0, 36, 0
1, 549989, Note_off_c, 0, 24, 0
1, 549989, Note_off_c, 0, 48, 0
1, 549989, Note_off_c, 0, 36, 0
1, 549989, Note_on_c, 0, 36, 36
1, 549989, Note_on_c, 0, 48, 36
1, 549989, Note_on_c, 0, 24, 36
1, 549989, Note_on_c, 0, 36, 36
1, 550085, Note_off_c, 0, 36, 0
1, 550085, Note_off_c, 0, 24, 0
1, 550085, Note_off_c, 0, 48, 0
1, 550085, Note_off_c, 0, 36, 0
1, 550085, Note_off_c, 0, 62, 0
1, 550085, Note_off_c, 0, 74, 0
1, 550085, Note_on_c, 0, 74, 36
1, 550085, Note_on_c, 0, 36, 36
1, 550085, Note_on_c, 0, 48, 36
1, 550085, Note_on_c, 0, 62, 36
1, 550085, Note_on_c, 0, 24, 36
1, 550085, Note_on_c, 0, 36, 36
1, 550181, Note_off_c, 0, 36, 0
1, 550181, Note_off_c, 0, 24, 0
1, 550181, Note_off_c, 0, 48, 0
1, 550181, Note_off_c, 0, 36, 0
1, 550181, Note_off_c, 0, 48, 0
1, 550181, Note_off_c, 0, 77, 0
1, 550181, Note_off_c, 0, 60, 0
1, 550181, Note_off_c, 0, 89, 0
1, 550181, Note_on_c, 0, 36, 36
1, 550181, Note_on_c, 0, 48, 36
1, 550181, Note_on_c, 0, 24, 36
1, 550181, Note_on_c, 0, 36, 36
1, 550277, Note_off_c, 0, 36, 0
1, 550277, Note_off_c, 0, 24, 0
1, 550277, Note_off_c, 0, 48, 0
1, 550277, Note_off_c, 0, 36, 0
1, 550277, Note_off_c, 0, 62, 0
1, 550277, Note_off_c, 0, 74, 0
1, 550277, Note_on_c, 0, 74, 36
1, 550277, Note_on_c, 0, 36, 36
1, 550277, Note_on_c, 0, 48, 36
1, 550277, Note_on_c, 0, 88, 43
1, 550277, Note_on_c, 0, 67, 23
1, 550277, Note_on_c, 0, 62, 36
1, 550277, Note_on_c, 0, 24, 36
1, 550277, Note_on_c, 0, 36, 36
1, 550277, Note_on_c, 0, 76, 43
1, 550277, Note_on_c, 0, 55, 23
1, 550469, Note_off_c, 0, 55, 0
1, 550469, Note_off_c, 0, 36, 0
1, 550469, Note_off_c, 0, 24, 0
1, 550469, Note_off_c, 0, 62, 0
1, 550469, Note_off_c, 0, 67, 0
1, 550469, Note_off_c, 0, 48, 0
1, 550469, Note_off_c, 0, 36, 0
1, 550469, Note_off_c, 0, 74, 0
1, 550469, Note_on_c, 0, 74, 36
1, 550469, Note_on_c, 0, 36, 36
1, 550469, Note_on_c, 0, 48, 36
1, 550469, Note_on_c, 0, 72, 23
1, 550469, Note_on_c, 0, 62, 36
1, 550469, Note_on_c, 0, 24, 36
1, 550469, Note_on_c, 0, 36, 36
1, 550469, Note_on_c, 0, 60, 23
1, 550565, Note_off_c, 0, 76, 0
1, 550565, Note_off_c, 0, 88, 0
1, 550661, Note_off_c, 0, 60, 0
1, 550661, Note_off_c, 0, 36, 0
1, 550661, Note_off_c, 0, 24, 0
1, 550661, Note_off_c, 0, 62, 0
1, 550661, Note_off_c, 0, 72, 0
1, 550661, Note_off_c, 0, 48, 0
1, 550661, Note_off_c, 0, 36, 0
1, 550661, Note_off_c, 0, 74, 0
1, 550661, Note_on_c, 0, 74, 36
1, 550661, Note_on_c, 0, 36, 36
1, 550661, Note_on_c, 0, 48, 36
1, 550661, Note_on_c, 0, 89, 43
1, 550661, Note_on_c, 0, 60, 23
1, 550661, Note_on_c, 0, 62, 36
1, 550661, Note_on_c, 0, 24, 36
1, 550661, Note_on_c, 0, 36, 36
1, 550661, Note_on_c, 0, 77, 43
1, 550661, Note_on_c, 0, 48, 23
1, 550757, Note_off_c, 0, 36, 0
1, 550757, Note_off_c, 0, 24, 0
1, 550757, Note_off_c, 0, 48, 0
1, 550757, Note_off_c, 0, 36, 0
1, 550757, Note_on_c, 0, 36, 36
1, 550757, Note_on_c, 0, 48, 36
1, 550757, Note_on_c, 0, 24, 36
1, 550757, Note_on_c, 0, 36, 36
1, 550853, Note_off_c, 0, 36, 0
1, 550853, Note_off_c, 0, 24, 0
1, 550853, Note_off_c, 0, 48, 0
1, 550853, Note_off_c, 0, 36, 0
1, 550853, Note_off_c, 0, 62, 0
1, 550853, Note_off_c, 0, 74, 0
1, 550853, Note_on_c, 0, 74, 36
1, 550853, Note_on_c, 0, 36, 36
1, 550853, Note_on_c, 0, 48, 36
1, 550853, Note_on_c, 0, 62, 36
1, 550853, Note_on_c, 0, 24, 36
1, 550853, Note_on_c, 0, 36, 36
1, 550949, Note_off_c, 0, 36, 0
1, 550949, Note_off_c, 0, 24, 0
1, 550949, Note_off_c, 0, 48, 0
1, 550949, Note_off_c, 0, 36, 0
1, 550949, Note_off_c, 0, 48, 0
1, 550949, Note_off_c, 0, 77, 0
1, 550949, Note_off_c, 0, 60, 0
1, 550949, Note_off_c, 0, 89, 0
1, 550949, Note_on_c, 0, 36, 36
1, 550949, Note_on_c, 0, 48, 36
1, 550949, Note_on_c, 0, 24, 36
1, 550949, Note_on_c, 0, 36, 36
1, 551045, Note_off_c, 0, 36, 0
1, 551045, Note_off_c, 0, 24, 0
1, 551045, Note_off_c, 0, 48, 0
1, 551045, Note_off_c, 0, 36, 0
1, 551045, Note_off_c, 0, 62, 0
1, 551045, Note_off_c, 0, 74, 0
1, 551045, Note_on_c, 0, 74, 36
1, 551045, Note_on_c, 0, 36, 36
1, 551045, Note_on_c, 0, 48, 36
1, 551045, Note_on_c, 0, 88, 43
1, 551045, Note_on_c, 0, 67, 23
1, 551045, Note_on_c, 0, 62, 36
1, 551045, Note_on_c, 0, 24, 36
1, 551045, Note_on_c, 0, 36, 36
1, 551045, Note_on_c, 0, 76, 43
1, 551045, Note_on_c, 0, 55, 23
1, 551237, Note_off_c, 0, 55, 0
1, 551237, Note_off_c, 0, 36, 0
1, 551237, Note_off_c, 0, 24, 0
1, 551237, Note_off_c, 0, 62, 0
1, 551237, Note_off_c, 0, 67, 0
1, 551237, Note_off_c, 0, 48, 0
1, 551237, Note_off_c, 0, 36, 0
1, 551237, Note_off_c, 0, 74, 0
1, 551237, Note_on_c, 0, 74, 36
1, 551237, Note_on_c, 0, 36, 36
1, 551237, Note_on_c, 0, 48, 36
1, 551237, Note_on_c, 0, 72, 23
1, 551237, Note_on_c, 0, 62, 36
1, 551237, Note_on_c, 0, 24, 36
1, 551237, Note_on_c, 0, 36, 36
1, 551237, Note_on_c, 0, 60, 23
1, 551333, Note_off_c, 0, 76, 0
1, 551333, Note_off_c, 0, 88, 0
1, 551429, Note_off_c, 0, 60, 0
1, 551429, Note_off_c, 0, 36, 0
1, 551429, Note_off_c, 0, 24, 0
1, 551429, Note_off_c, 0, 62, 0
1, 551429, Note_off_c, 0, 72, 0
1, 551429, Note_off_c, 0, 48, 0
1, 551429, Note_off_c, 0, 36, 0
1, 551429, Note_off_c, 0, 74, 0
1, 551429, Note_on_c, 0, 74, 36
1, 551429, Note_on_c, 0, 38, 36
1, 551429, Note_on_c, 0, 50, 36
1, 551429, Note_on_c, 0, 81, 43
1, 551429, Note_on_c, 0, 88, 43
1, 551429, Note_on_c, 0, 62, 23
1, 551429, Note_on_c, 0, 62, 36
1, 551429, Note_on_c, 0, 26, 36
1, 551429, Note_on_c, 0, 38, 36
1, 551429, Note_on_c, 0, 69, 43
1, 551429, Note_on_c, 0, 76, 43
1, 551429, Note_on_c, 0, 50, 23
1, 551621, Note_off_c, 0, 38, 0
1, 551621, Note_off_c, 0, 26, 0
1, 551621, Note_off_c, 0, 62, 0
1, 551621, Note_off_c, 0, 50, 0
1, 551621, Note_off_c, 0, 38, 0
1, 551621, Note_off_c, 0, 74, 0
1, 551621, Note_on_c, 0, 74, 36
1, 551621, Note_on_c, 0, 38, 36
1, 551621, Note_on_c, 0, 50, 36
1, 551621, Note_on_c, 0, 62, 36
1, 551621, Note_on_c, 0, 26, 36
1, 551621, Note_on_c, 0, 38, 36
1, 551717, Note_off_c, 0, 50, 0
1, 551717, Note_off_c, 0, 62, 0
1, 551813, Note_off_c, 0, 38, 0
1, 551813, Note_off_c, 0, 26, 0
1, 551813, Note_off_c, 0, 62, 0
1, 551813, Note_off_c, 0, 50, 0
1, 551813, Note_off_c, 0, 38, 0
1, 551813, Note_off_c, 0, 74, 0
1, 551813, Note_on_c, 0, 74, 36
1, 551813, Note_on_c, 0, 38, 36
1, 551813, Note_on_c, 0, 50, 36
1, 551813, Note_on_c, 0, 69, 23
1, 551813, Note_on_c, 0, 62, 36
1, 551813, Note_on_c, 0, 26, 36
1, 551813, Note_on_c, 0, 38, 36
1, 551813, Note_on_c, 0, 57, 23
1, 552005, Note_off_c, 0, 57, 0
1, 552005, Note_off_c, 0, 38, 0
1, 552005, Note_off_c, 0, 26, 0
1, 552005, Note_off_c, 0, 62, 0
1, 552005, Note_off_c, 0, 69, 0
1, 552005, Note_off_c, 0, 50, 0
1, 552005, Note_off_c, 0, 38, 0
1, 552005, Note_off_c, 0, 74, 0
1, 552005, Note_on_c, 0, 74, 36
1, 552005, Note_on_c, 0, 38, 36
1, 552005, Note_on_c, 0, 50, 36
1, 552005, Note_on_c, 0, 74, 23
1, 552005, Note_on_c, 0, 62, 36
1, 552005, Note_on_c, 0, 26, 36
1, 552005, Note_on_c, 0, 38, 36
1, 552005, Note_on_c, 0, 62, 23
1, 552197, Note_off_c, 0, 62, 0
1, 552197, Note_off_c, 0, 38, 0
1, 552197, Note_off_c, 0, 26, 0
1, 552197, Note_off_c, 0, 62, 0
1, 552197, Note_off_c, 0, 74, 0
1, 552197, Note_off_c, 0, 50, 0
1, 552197, Note_off_c, 0, 38, 0
1, 552197, Note_off_c, 0, 74, 0
1, 552197, Note_on_c, 0, 74, 36
1, 552197, Note_on_c, 0, 38, 36
1, 552197, Note_on_c, 0, 50, 36
1, 552197, Note_on_c, 0, 62, 23
1, 552197, Note_on_c, 0, 62, 36
1, 552197, Note_on_c, 0, 26, 36
1, 552197, Note_on_c, 0, 38, 36
1, 552197, Note_on_c, 0, 50, 23
1, 552389, Note_off_c, 0, 38, 0
1, 552389, Note_off_c, 0, 26, 0
1, 552389, Note_off_c, 0, 62, 0
1, 552389, Note_off_c, 0, 50, 0
1, 552389, Note_off_c, 0, 38, 0
1, 552389, Note_off_c, 0, 74, 0
1, 552389, Note_on_c, 0, 74, 36
1, 552389, Note_on_c, 0, 38, 36
1, 552389, Note_on_c, 0, 50, 36
1, 552389, Note_on_c, 0, 62, 36
1, 552389, Note_on_c, 0, 26, 36
1, 552389, Note_on_c, 0, 38, 36
1, 552485, Note_off_c, 0, 50, 0
1, 552485, Note_off_c, 0, 62, 0
1, 552581, Note_off_c, 0, 38, 0
1, 552581, Note_off_c, 0, 26, 0
1, 552581, Note_off_c, 0, 62, 0
1, 552581, Note_off_c, 0, 50, 0
1, 552581, Note_off_c, 0, 38, 0
1, 552581, Note_off_c, 0, 74, 0
1, 552581, Note_on_c, 0, 74, 36
1, 552581, Note_on_c, 0, 38, 36
1, 552581, Note_on_c, 0, 50, 36
1, 552581, Note_on_c, 0, 69, 23
1, 552581, Note_on_c, 0, 62, 36
1, 552581, Note_on_c, 0, 26, 36
1, 552581, Note_on_c, 0, 38, 36
1, 552581, Note_on_c, 0, 57, 23
1, 552773, Note_off_c, 0, 57, 0
1, 552773, Note_off_c, 0, 38, 0
1, 552773, Note_off_c, 0, 26, 0
1, 552773, Note_off_c, 0, 62, 0
1, 552773, Note_off_c, 0, 69, 0
1, 552773, Note_off_c, 0, 50, 0
1, 552773, Note_off_c, 0, 38, 0
1, 552773, Note_off_c, 0, 74, 0
1, 552773, Note_on_c, 0, 74, 36
1, 552773, Note_on_c, 0, 38, 36
1, 552773, Note_on_c, 0, 50, 36
1, 552773, Note_on_c, 0, 74, 23
1, 552773, Note_on_c, 0, 62, 36
1, 552773, Note_on_c, 0, 26, 36
1, 552773, Note_on_c, 0, 38, 36
1, 552773, Note_on_c, 0, 62, 23
1, 552869, Note_off_c, 0, 76, 0
1, 552869, Note_off_c, 0, 69, 0
1, 552869, Note_off_c, 0, 88, 0
1, 552869, Note_off_c, 0, 81, 0
1, 552965, Note_off_c, 0, 62, 0
1, 552965, Note_off_c, 0, 38, 0
1, 552965, Note_off_c, 0, 26, 0
1, 552965, Note_off_c, 0, 62, 0
1, 552965, Note_off_c, 0, 74, 0
1, 552965, Note_off_c, 0, 50, 0
1, 552965, Note_off_c, 0, 38, 0
1, 552965, Note_off_c, 0, 74, 0
1, 552965, Note_on_c, 0, 74, 36
1, 552965, Note_on_c, 0, 38, 36
1, 552965, Note_on_c, 0, 50, 36
1, 552965, Note_on_c, 0, 88, 43
1, 552965, Note_on_c, 0, 81, 43
1, 552965, Note_on_c, 0, 62, 23
1, 552965, Note_on_c, 0, 62, 36
1, 552965, Note_on_c, 0, 26, 36
1, 552965, Note_on_c, 0, 38, 36
1, 552965, Note_on_c, 0, 76, 43
1, 552965, Note_on_c, 0, 69, 43
1, 552965, Note_on_c, 0, 50, 23
1, 553157, Note_off_c, 0, 38, 0
1, 553157, Note_off_c, 0, 26, 0
1, 553157, Note_off_c, 0, 62, 0
1, 553157, Note_off_c, 0, 50, 0
1, 553157, Note_off_c, 0, 38, 0
1, 553157, Note_off_c, 0, 74, 0
1, 553157, Note_on_c, 0, 74, 36
1, 553157, Note_on_c, 0, 38, 36
1, 553157, Note_on_c, 0, 50, 36
1, 553157, Note_on_c, 0, 62, 36
1, 553157, Note_on_c, 0, 26, 36
1, 553157, Note_on_c, 0, 38, 36
1, 553253, Note_off_c, 0, 50, 0
1, 553253, Note_off_c, 0, 62, 0
1, 553349, Note_off_c, 0, 38, 0
1, 553349, Note_off_c, 0, 26, 0
1, 553349, Note_off_c, 0, 62, 0
1, 553349, Note_off_c, 0, 50, 0
1, 553349, Note_off_c, 0, 38, 0
1, 553349, Note_off_c, 0, 74, 0
1, 553349, Note_on_c, 0, 74, 36
1, 553349, Note_on_c, 0, 38, 36
1, 553349, Note_on_c, 0, 50, 36
1, 553349, Note_on_c, 0, 69, 23
1, 553349, Note_on_c, 0, 62, 36
1, 553349, Note_on_c, 0, 26, 36
1, 553349, Note_on_c, 0, 38, 36
1, 553349, Note_on_c, 0, 57, 23
1, 553445, Note_off_c, 0, 76, 0
1, 553445, Note_off_c, 0, 88, 0
1, 553541, Note_off_c, 0, 57, 0
1, 553541, Note_off_c, 0, 38, 0
1, 553541, Note_off_c, 0, 26, 0
1, 553541, Note_off_c, 0, 62, 0
1, 553541, Note_off_c, 0, 69, 0
1, 553541, Note_off_c, 0, 50, 0
1, 553541, Note_off_c, 0, 38, 0
1, 553541, Note_off_c, 0, 74, 0
1, 553541, Note_on_c, 0, 74, 36
1, 553541, Note_on_c, 0, 38, 36
1, 553541, Note_on_c, 0, 50, 36
1, 553541, Note_on_c, 0, 86, 43
1, 553541, Note_on_c, 0, 74, 23
1, 553541, Note_on_c, 0, 62, 36
1, 553541, Note_on_c, 0, 26, 36
1, 553541, Note_on_c, 0, 38, 36
1, 553541, Note_on_c, 0, 74, 43
1, 553541, Note_on_c, 0, 62, 23
1, 553733, Note_off_c, 0, 62, 0
1, 553733, Note_off_c, 0, 38, 0
1, 553733, Note_off_c, 0, 26, 0
1, 553733, Note_off_c, 0, 62, 0
1, 553733, Note_off_c, 0, 74, 0
1, 553733, Note_off_c, 0, 50, 0
1, 553733, Note_off_c, 0, 38, 0
1, 553733, Note_off_c, 0, 74, 0
1, 553733, Note_on_c, 0, 74, 36
1, 553733, Note_on_c, 0, 38, 36
1, 553733, Note_on_c, 0, 50, 36
1, 553733, Note_on_c, 0, 62, 23
1, 553733, Note_on_c, 0, 62, 36
1, 553733, Note_on_c, 0, 26, 36
1, 553733, Note_on_c, 0, 38, 36
1, 553733, Note_on_c, 0, 50, 23
1, 553925, Note_off_c, 0, 38, 0
1, 553925, Note_off_c, 0, 26, 0
1, 553925, Note_off_c, 0, 62, 0
1, 553925, Note_off_c, 0, 50, 0
1, 553925, Note_off_c, 0, 38, 0
1, 553925, Note_off_c, 0, 74, 0
1, 553925, Note_on_c, 0, 74, 36
1, 553925, Note_on_c, 0, 38, 36
1, 553925, Note_on_c, 0, 50, 36
1, 553925, Note_on_c, 0, 62, 36
1, 553925, Note_on_c, 0, 26, 36
1, 553925, Note_on_c, 0, 38, 36
1, 554021, Note_off_c, 0, 50, 0
1, 554021, Note_off_c, 0, 62, 0
1, 554021, Note_off_c, 0, 74, 0
1, 554021, Note_off_c, 0, 86, 0
1, 554117, Note_off_c, 0, 38, 0
1, 554117, Note_off_c, 0, 26, 0
1, 554117, Note_off_c, 0, 62, 0
1, 554117, Note_off_c, 0, 50, 0
1, 554117, Note_off_c, 0, 38, 0
1, 554117, Note_off_c, 0, 74, 0
1, 554117, Note_on_c, 0, 74, 36
1, 554117, Note_on_c, 0, 38, 36
1, 554117, Note_on_c, 0, 50, 36
1, 554117, Note_on_c, 0, 93, 43
1, 554117, Note_on_c, 0, 69, 23
1, 554117, Note_on_c, 0, 62, 36
1, 554117, Note_on_c, 0, 26, 36
1, 554117, Note_on_c, 0, 38, 36
1, 554117, Note_on_c, 0, 81, 43
1, 554117, Note_on_c, 0, 57, 23
1, 554309, Note_off_c, 0, 57, 0
1, 554309, Note_off_c, 0, 38, 0
1, 554309, Note_off_c, 0, 26, 0
1, 554309, Note_off_c, 0, 62, 0
1, 554309, Note_off_c, 0, 69, 0
1, 554309, Note_off_c, 0, 50, 0
1, 554309, Note_off_c, 0, 38, 0
1, 554309, Note_off_c, 0, 74, 0
1, 554309, Note_on_c, 0, 74, 36
1, 554309, Note_on_c, 0, 38, 36
1, 554309, Note_on_c, 0, 50, 36
1, 554309, Note_on_c, 0, 74, 23
1, 554309, Note_on_c, 0, 62, 36
1, 554309, Note_on_c, 0, 26, 36
1, 554309, Note_on_c, 0, 38, 36
1, 554309, Note_on_c, 0, 62, 23
1, 554405, Note_off_c, 0, 81, 0
1, 554405, Note_off_c, 0, 93, 0
1, 554405, Note_off_c, 0, 69, 0
1, 554405, Note_off_c, 0, 81, 0
1, 554501, Note_off_c, 0, 62, 0
1, 554501, Note_off_c, 0, 38, 0
1, 554501, Note_off_c, 0, 26, 0
1, 554501, Note_off_c, 0, 62, 0
1, 554501, Note_off_c, 0, 74, 0
1, 554501, Note_off_c, 0, 50, 0
1, 554501, Note_off_c, 0, 38, 0
1, 554501, Note_off_c, 0, 74, 0
1, 554501, Note_on_c, 0, 74, 36
1, 554501, Note_on_c, 0, 36, 36
1, 554501, Note_on_c, 0, 48, 36
1, 554501, Note_on_c, 0, 81, 43
1, 554501, Note_on_c, 0, 88, 43
1, 554501, Note_on_c, 0, 60, 23
1, 554501, Note_on_c, 0, 62, 36
1, 554501, Note_on_c, 0, 24, 36
1, 554501, Note_on_c, 0, 36, 36
1, 554501, Note_on_c, 0, 69, 43
1, 554501, Note_on_c, 0, 76, 43
1, 554501, Note_on_c, 0, 48, 23
1, 554693, Note_off_c, 0, 36, 0
1, 554693, Note_off_c, 0, 24, 0
1, 554693, Note_off_c, 0, 62, 0
1, 554693, Note_off_c, 0, 48, 0
1, 554693, Note_off_c, 0, 36, 0
1, 554693, Note_off_c, 0, 74, 0
1, 554693, Note_on_c, 0, 74, 36
1, 554693, Note_on_c, 0, 36, 36
1, 554693, Note_on_c, 0, 48, 36
1, 554693, Note_on_c, 0, 62, 36
1, 554693, Note_on_c, 0, 24, 36
1, 554693, Note_on_c, 0, 36, 36
1, 554789, Note_off_c, 0, 48, 0
1, 554789, Note_off_c, 0, 60, 0
1, 554885, Note_off_c, 0, 36, 0
1, 554885, Note_off_c, 0, 24, 0
1, 554885, Note_off_c, 0, 62, 0
1, 554885, Note_off_c, 0, 48, 0
1, 554885, Note_off_c, 0, 36, 0
1, 554885, Note_off_c, 0, 74, 0
1, 554885, Note_on_c, 0, 74, 36
1, 554885, Note_on_c, 0, 36, 36
1, 554885, Note_on_c, 0, 48, 36
1, 554885, Note_on_c, 0, 67, 23
1, 554885, Note_on_c, 0, 62, 36
1, 554885, Note_on_c, 0, 24, 36
1, 554885, Note_on_c, 0, 36, 36
1, 554885, Note_on_c, 0, 55, 23
1, 555077, Note_off_c, 0, 55, 0
1, 555077, Note_off_c, 0, 36, 0
1, 555077, Note_off_c, 0, 24, 0
1, 555077, Note_off_c, 0, 62, 0
1, 555077, Note_off_c, 0, 67, 0
1, 555077, Note_off_c, 0, 48, 0
1, 555077, Note_off_c, 0, 36, 0
1, 555077, Note_off_c, 0, 74, 0
1, 555077, Note_on_c, 0, 74, 36
1, 555077, Note_on_c, 0, 36, 36
1, 555077, Note_on_c, 0, 48, 36
1, 555077, Note_on_c, 0, 72, 23
1, 555077, Note_on_c, 0, 62, 36
1, 555077, Note_on_c, 0, 24, 36
1, 555077, Note_on_c, 0, 36, 36
1, 555077, Note_on_c, 0, 60, 23
1, 555269, Note_off_c, 0, 60, 0
1, 555269, Note_off_c, 0, 36, 0
1, 555269, Note_off_c, 0, 24, 0
1, 555269, Note_off_c, 0, 62, 0
1, 555269, Note_off_c, 0, 72, 0
1, 555269, Note_off_c, 0, 48, 0
1, 555269, Note_off_c, 0, 36, 0
1, 555269, Note_off_c, 0, 74, 0
1, 555269, Note_on_c, 0, 74, 36
1, 555269, Note_on_c, 0, 36, 36
1, 555269, Note_on_c, 0, 48, 36
1, 555269, Note_on_c, 0, 60, 23
1, 555269, Note_on_c, 0, 62, 36
1, 555269, Note_on_c, 0, 24, 36
1, 555269, Note_on_c, 0, 36, 36
1, 555269, Note_on_c, 0, 48, 23
1, 555461, Note_off_c, 0, 36, 0
1, 555461, Note_off_c, 0, 24, 0
1, 555461, Note_off_c, 0, 62, 0
1, 555461, Note_off_c, 0, 48, 0
1, 555461, Note_off_c, 0, 36, 0
1, 555461, Note_off_c, 0, 74, 0
1, 555461, Note_on_c, 0, 74, 36
1, 555461, Note_on_c, 0, 36, 36
1, 555461, Note_on_c, 0, 48, 36
1, 555461, Note_on_c, 0, 62, 36
1, 555461, Note_on_c, 0, 24, 36
1, 555461, Note_on_c, 0, 36, 36
1, 555557, Note_off_c, 0, 48, 0
1, 555557, Note_off_c, 0, 60, 0
1, 555653, Note_off_c, 0, 36, 0
1, 555653, Note_off_c, 0, 24, 0
1, 555653, Note_off_c, 0, 62, 0
1, 555653, Note_off_c, 0, 48, 0
1, 555653, Note_off_c, 0, 36, 0
1, 555653, Note_off_c, 0, 74, 0
1, 555653, Note_on_c, 0, 74, 36
1, 555653, Note_on_c, 0, 36, 36
1, 555653, Note_on_c, 0, 48, 36
1, 555653, Note_on_c, 0, 67, 23
1, 555653, Note_on_c, 0, 62, 36
1, 555653, Note_on_c, 0, 24, 36
1, 555653, Note_on_c, 0, 36, 36
1, 555653, Note_on_c, 0, 55, 23
1, 555845, Note_off_c, 0, 55, 0
1, 555845, Note_off_c, 0, 36, 0
1, 555845, Note_off_c, 0, 24, 0
1, 555845, Note_off_c, 0, 62, 0
1, 555845, Note_off_c, 0, 67, 0
1, 555845, Note_off_c, 0, 48, 0
1, 555845, Note_off_c, 0, 36, 0
1, 555845, Note_off_c, 0, 74, 0
1, 555845, Note_on_c, 0, 74, 36
1, 555845, Note_on_c, 0, 36, 36
1, 555845, Note_on_c, 0, 48, 36
1, 555845, Note_on_c, 0, 72, 23
1, 555845, Note_on_c, 0, 62, 36
1, 555845, Note_on_c, 0, 24, 36
1, 555845, Note_on_c, 0, 36, 36
1, 555845, Note_on_c, 0, 60, 23
1, 555941, Note_off_c, 0, 76, 0
1, 555941, Note_off_c, 0, 69, 0
1, 555941, Note_off_c, 0, 88, 0
1, 555941, Note_off_c, 0, 81, 0
1, 556037, Note_off_c, 0, 60, 0
1, 556037, Note_off_c, 0, 36, 0
1, 556037, Note_off_c, 0, 24, 0
1, 556037, Note_off_c, 0, 62, 0
1, 556037, Note_off_c, 0, 72, 0
1, 556037, Note_off_c, 0, 48, 0
1, 556037, Note_off_c, 0, 36, 0
1, 556037, Note_off_c, 0, 74, 0
1, 556037, Note_on_c, 0, 74, 36
1, 556037, Note_on_c, 0, 36, 36
1, 556037, Note_on_c, 0, 48, 36
1, 556037, Note_on_c, 0, 88, 43
1, 556037, Note_on_c, 0, 81, 43
1, 556037, Note_on_c, 0, 60, 23
1, 556037, Note_on_c, 0, 62, 36
1, 556037, Note_on_c, 0, 24, 36
1, 556037, Note_on_c, 0, 36, 36
1, 556037, Note_on_c, 0, 76, 43
1, 556037, Note_on_c, 0, 69, 43
1, 556037, Note_on_c, 0, 48, 23
1, 556229, Note_off_c, 0, 36, 0
1, 556229, Note_off_c, 0, 24, 0
1, 556229, Note_off_c, 0, 62, 0
1, 556229, Note_off_c, 0, 48, 0
1, 556229, Note_off_c, 0, 36, 0
1, 556229, Note_off_c, 0, 74, 0
1, 556229, Note_on_c, 0, 74, 36
1, 556229, Note_on_c, 0, 36, 36
1, 556229, Note_on_c, 0, 48, 36
1, 556229, Note_on_c, 0, 62, 36
1, 556229, Note_on_c, 0, 24, 36
1, 556229, Note_on_c, 0, 36, 36
1, 556325, Note_off_c, 0, 48, 0
1, 556325, Note_off_c, 0, 60, 0
1, 556421, Note_off_c, 0, 36, 0
1, 556421, Note_off_c, 0, 24, 0
1, 556421, Note_off_c, 0, 62, 0
1, 556421, Note_off_c, 0, 48, 0
1, 556421, Note_off_c, 0, 36, 0
1, 556421, Note_off_c, 0, 74, 0
1, 556421, Note_on_c, 0, 74, 36
1, 556421, Note_on_c, 0, 36, 36
1, 556421, Note_on_c, 0, 48, 36
1, 556421, Note_on_c, 0, 67, 23
1, 556421, Note_on_c, 0, 62, 36
1, 556421, Note_on_c, 0, 24, 36
1, 556421, Note_on_c, 0, 36, 36
1, 556421, Note_on_c, 0, 55, 23
1, 556517, Note_off_c, 0, 76, 0
1, 556517, Note_off_c, 0, 88, 0
1, 556613, Note_off_c, 0, 55, 0
1, 556613, Note_off_c, 0, 36, 0
1, 556613, Note_off_c, 0, 24, 0
1, 556613, Note_off_c, 0, 62, 0
1, 556613, Note_off_c, 0, 67, 0
1, 556613, Note_off_c, 0, 48, 0
1, 556613, Note_off_c, 0, 36, 0
1, 556613, Note_off_c, 0, 74, 0
1, 556613, Note_on_c, 0, 74, 36
1, 556613, Note_on_c, 0, 36, 36
1, 556613, Note_on_c, 0, 48, 36
1, 556613, Note_on_c, 0, 86, 43
1, 556613, Note_on_c, 0, 72, 23
1, 556613, Note_on_c, 0, 62, 36
1, 556613, Note_on_c, 0, 24, 36
1, 556613, Note_on_c, 0, 36, 36
1, 556613, Note_on_c, 0, 74, 43
1, 556613, Note_on_c, 0, 60, 23
1, 556805, Note_off_c, 0, 60, 0
1, 556805, Note_off_c, 0, 36, 0
1, 556805, Note_off_c, 0, 24, 0
1, 556805, Note_off_c, 0, 62, 0
1, 556805, Note_off_c, 0, 72, 0
1, 556805, Note_off_c, 0, 48, 0
1, 556805, Note_off_c, 0, 36, 0
1, 556805, Note_off_c, 0, 74, 0
1, 556805, Note_on_c, 0, 74, 36
1, 556805, Note_on_c, 0, 36, 36
1, 556805, Note_on_c, 0, 48, 36
1, 556805, Note_on_c, 0, 60, 23
1, 556805, Note_on_c, 0, 62, 36
1, 556805, Note_on_c, 0, 24, 36
1, 556805, Note_on_c, 0, 36, 36
1, 556805, Note_on_c, 0, 48, 23
1, 556997, Note_off_c, 0, 36, 0
1, 556997, Note_off_c, 0, 24, 0
1, 556997, Note_off_c, 0, 62, 0
1, 556997, Note_off_c, 0, 48, 0
1, 556997, Note_off_c, 0, 36, 0
1, 556997, Note_off_c, 0, 74, 0
1, 556997, Note_on_c, 0, 74, 36
1, 556997, Note_on_c, 0, 36, 36
1, 556997, Note_on_c, 0, 48, 36
1, 556997, Note_on_c, 0, 62, 36
1, 556997, Note_on_c, 0, 24, 36
1, 556997, Note_on_c, 0, 36, 36
1, 557093, Note_off_c, 0, 48, 0
1, 557093, Note_off_c, 0, 60, 0
1, 557093, Note_off_c, 0, 74, 0
1, 557093, Note_off_c, 0, 86, 0
1, 557189, Note_off_c, 0, 36, 0
1, 557189, Note_off_c, 0, 24, 0
1, 557189, Note_off_c, 0, 62, 0
1, 557189, Note_off_c, 0, 48, 0
1, 557189, Note_off_c, 0, 36, 0
1, 557189, Note_off_c, 0, 74, 0
1, 557189, Note_on_c, 0, 74, 36
1, 557189, Note_on_c, 0, 36, 36
1, 557189, Note_on_c, 0, 48, 36
1, 557189, Note_on_c, 0, 93, 43
1, 557189, Note_on_c, 0, 67, 23
1, 557189, Note_on_c, 0, 62, 36
1, 557189, Note_on_c, 0, 24, 36
1, 557189, Note_on_c, 0, 36, 36
1, 557189, Note_on_c, 0, 81, 43
1, 557189, Note_on_c, 0, 55, 23
1, 557381, Note_off_c, 0, 55, 0
1, 557381, Note_off_c, 0, 36, 0
1, 557381, Note_off_c, 0, 24, 0
1, 557381, Note_off_c, 0, 62, 0
1, 557381, Note_off_c, 0, 67, 0
1, 557381, Note_off_c, 0, 48, 0
1, 557381, Note_off_c, 0, 36, 0
1, 557381, Note_off_c, 0, 74, 0
1, 557381, Note_on_c, 0, 74, 36
1, 557381, Note_on_c, 0, 36, 36
1, 557381, Note_on_c, 0, 48, 36
1, 557381, Note_on_c, 0, 72, 23
1, 557381, Note_on_c, 0, 62, 36
1, 557381, Note_on_c, 0, 24, 36
1, 557381, Note_on_c, 0, 36, 36
1, 557381, Note_on_c, 0, 60, 23
1, 557477, Note_off_c, 0, 81, 0
1, 557477, Note_off_c, 0, 93, 0
1, 557477, Note_off_c, 0, 69, 0
1, 557477, Note_off_c, 0, 81, 0
1, 557573, Note_off_c, 0, 60, 0
1, 557573, Note_off_c, 0, 36, 0
1, 557573, Note_off_c, 0, 24, 0
1, 557573, Note_off_c, 0, 62, 0
1, 557573, Note_off_c, 0, 72, 0
1, 557573, Note_off_c, 0, 48, 0
1, 557573, Note_off_c, 0, 36, 0
1, 557573, Note_off_c, 0, 74, 0
1, 557573, Note_on_c, 0, 74, 36
1, 557573, Note_on_c, 0, 35, 36
1, 557573, Note_on_c, 0, 47, 36
1, 557573, Note_on_c, 0, 88, 43
1, 557573, Note_on_c, 0, 81, 43
1, 557573, Note_on_c, 0, 59, 23
1, 557573, Note_on_c, 0, 62, 36
1, 557573, Note_on_c, 0, 24, 36
1, 557573, Note_on_c, 0, 35, 36
1, 557573, Note_on_c, 0, 76, 43
1, 557573, Note_on_c, 0, 69, 43
1, 557573, Note_on_c, 0, 47, 23
1, 557765, Note_off_c, 0, 35, 0
1, 557765, Note_off_c, 0, 24, 0
1, 557765, Note_off_c, 0, 62, 0
1, 557765, Note_off_c, 0, 47, 0
1, 557765, Note_off_c, 0, 35, 0
1, 557765, Note_off_c, 0, 74, 0
1, 557765, Note_on_c, 0, 74, 36
1, 557765, Note_on_c, 0, 35, 36
1, 557765, Note_on_c, 0, 47, 36
1, 557765, Note_on_c, 0, 62, 36
1, 557765, Note_on_c, 0, 24, 36
1, 557765, Note_on_c, 0, 35, 36
1, 557861, Note_off_c, 0, 47, 0
1, 557861, Note_off_c, 0, 59, 0
1, 557957, Note_off_c, 0, 35, 0
1, 557957, Note_off_c, 0, 24, 0
1, 557957, Note_off_c, 0, 62, 0
1, 557957, Note_off_c, 0, 47, 0
1, 557957, Note_off_c, 0, 35, 0
1, 557957, Note_off_c, 0, 74, 0
1, 557957, Note_on_c, 0, 74, 36
1, 557957, Note_on_c, 0, 35, 36
1, 557957, Note_on_c, 0, 47, 36
1, 557957, Note_on_c, 0, 67, 23
1, 557957, Note_on_c, 0, 62, 36
1, 557957, Note_on_c, 0, 24, 36
1, 557957, Note_on_c, 0, 35, 36
1, 557957, Note_on_c, 0, 55, 23
1, 558053, Note_off_c, 0, 76, 0
1, 558053, Note_off_c, 0, 88, 0
1, 558149, Note_off_c, 0, 55, 0
1, 558149, Note_off_c, 0, 35, 0
1, 558149, Note_off_c, 0, 24, 0
1, 558149, Note_off_c, 0, 62, 0
1, 558149, Note_off_c, 0, 67, 0
1, 558149, Note_off_c, 0, 47, 0
1, 558149, Note_off_c, 0, 35, 0
1, 558149, Note_off_c, 0, 74, 0
1, 558149, Note_on_c, 0, 74, 36
1, 558149, Note_on_c, 0, 35, 36
1, 558149, Note_on_c, 0, 47, 36
1, 558149, Note_on_c, 0, 93, 43
1, 558149, Note_on_c, 0, 71, 23
1, 558149, Note_on_c, 0, 62, 36
1, 558149, Note_on_c, 0, 24, 36
1, 558149, Note_on_c, 0, 35, 36
1, 558149, Note_on_c, 0, 81, 43
1, 558149, Note_on_c, 0, 59, 23
1, 558341, Note_off_c, 0, 59, 0
1, 558341, Note_off_c, 0, 35, 0
1, 558341, Note_off_c, 0, 24, 0
1, 558341, Note_off_c, 0, 62, 0
1, 558341, Note_off_c, 0, 71, 0
1, 558341, Note_off_c, 0, 47, 0
1, 558341, Note_off_c, 0, 35, 0
1, 558341, Note_off_c, 0, 74, 0
1, 558341, Note_on_c, 0, 74, 36
1, 558341, Note_on_c, 0, 35, 36
1, 558341, Note_on_c, 0, 47, 36
1, 558341, Note_on_c, 0, 59, 23
1, 558341, Note_on_c, 0, 62, 36
1, 558341, Note_on_c, 0, 24, 36
1, 558341, Note_on_c, 0, 35, 36
1, 558341, Note_on_c, 0, 47, 23
1, 558533, Note_off_c, 0, 35, 0
1, 558533, Note_off_c, 0, 24, 0
1, 558533, Note_off_c, 0, 62, 0
1, 558533, Note_off_c, 0, 47, 0
1, 558533, Note_off_c, 0, 35, 0
1, 558533, Note_off_c, 0, 74, 0
1, 558533, Note_on_c, 0, 74, 36
1, 558533, Note_on_c, 0, 35, 36
1, 558533, Note_on_c, 0, 47, 36
1, 558533, Note_on_c, 0, 62, 36
1, 558533, Note_on_c, 0, 24, 36
1, 558533, Note_on_c, 0, 35, 36
1, 558629, Note_off_c, 0, 47, 0
1, 558629, Note_off_c, 0, 59, 0
1, 558629, Note_off_c, 0, 81, 0
1, 558629, Note_off_c, 0, 93, 0
1, 558725, Note_off_c, 0, 35, 0
1, 558725, Note_off_c, 0, 24, 0
1, 558725, Note_off_c, 0, 62, 0
1, 558725, Note_off_c, 0, 47, 0
1, 558725, Note_off_c, 0, 35, 0
1, 558725, Note_off_c, 0, 74, 0
1, 558725, Note_on_c, 0, 74, 36
1, 558725, Note_on_c, 0, 35, 36
1, 558725, Note_on_c, 0, 47, 36
1, 558725, Note_on_c, 0, 93, 43
1, 558725, Note_on_c, 0, 67, 23
1, 558725, Note_on_c, 0, 62, 36
1, 558725, Note_on_c, 0, 24, 36
1, 558725, Note_on_c, 0, 35, 36
1, 558725, Note_on_c, 0, 81, 43
1, 558725, Note_on_c, 0, 55, 23
1, 558917, Note_off_c, 0, 55, 0
1, 558917, Note_off_c, 0, 35, 0
1, 558917, Note_off_c, 0, 24, 0
1, 558917, Note_off_c, 0, 62, 0
1, 558917, Note_off_c, 0, 67, 0
1, 558917, Note_off_c, 0, 47, 0
1, 558917, Note_off_c, 0, 35, 0
1, 558917, Note_off_c, 0, 74, 0
1, 558917, Note_on_c, 0, 74, 36
1, 558917, Note_on_c, 0, 35, 36
1, 558917, Note_on_c, 0, 47, 36
1, 558917, Note_on_c, 0, 71, 23
1, 558917, Note_on_c, 0, 62, 36
1, 558917, Note_on_c, 0, 24, 36
1, 558917, Note_on_c, 0, 35, 36
1, 558917, Note_on_c, 0, 59, 23
1, 559013, Note_off_c, 0, 81, 0
1, 559013, Note_off_c, 0, 93, 0
1, 559013, Note_off_c, 0, 69, 0
1, 559013, Note_off_c, 0, 81, 0
1, 559109, Note_off_c, 0, 59, 0
1, 559109, Note_off_c, 0, 35, 0
1, 559109, Note_off_c, 0, 24, 0
1, 559109, Note_off_c, 0, 62, 0
1, 559109, Note_off_c, 0, 71, 0
1, 559109, Note_off_c, 0, 47, 0
1, 559109, Note_off_c, 0, 35, 0
1, 559109, Note_off_c, 0, 74, 0
1, 559109, Note_on_c, 0, 74, 36
1, 559109, Note_on_c, 0, 35, 36
1, 559109, Note_on_c, 0, 47, 36
1, 559109, Note_on_c, 0, 93, 43
1, 559109, Note_on_c, 0, 59, 23
1, 559109, Note_on_c, 0, 62, 36
1, 559109, Note_on_c, 0, 24, 36
1, 559109, Note_on_c, 0, 35, 36
1, 559109, Note_on_c, 0, 81, 43
1, 559109, Note_on_c, 0, 47, 23
1, 559301, Note_off_c, 0, 35, 0
1, 559301, Note_off_c, 0, 24, 0
1, 559301, Note_off_c, 0, 62, 0
1, 559301, Note_off_c, 0, 47, 0
1, 559301, Note_off_c, 0, 35, 0
1, 559301, Note_off_c, 0, 74, 0
1, 559301, Note_on_c, 0, 74, 36
1, 559301, Note_on_c, 0, 35, 36
1, 559301, Note_on_c, 0, 47, 36
1, 559301, Note_on_c, 0, 62, 36
1, 559301, Note_on_c, 0, 24, 36
1, 559301, Note_on_c, 0, 35, 36
1, 559397, Note_off_c, 0, 47, 0
1, 559397, Note_off_c, 0, 81, 0
1, 559397, Note_off_c, 0, 59, 0
1, 559397, Note_off_c, 0, 93, 0
1, 559493, Note_off_c, 0, 35, 0
1, 559493, Note_off_c, 0, 24, 0
1, 559493, Note_off_c, 0, 62, 0
1, 559493, Note_off_c, 0, 47, 0
1, 559493, Note_off_c, 0, 35, 0
1, 559493, Note_off_c, 0, 74, 0
1, 559493, Note_on_c, 0, 74, 36
1, 559493, Note_on_c, 0, 35, 36
1, 559493, Note_on_c, 0, 47, 36
1, 559493, Note_on_c, 0, 91, 43
1, 559493, Note_on_c, 0, 67, 23
1, 559493, Note_on_c, 0, 62, 36
1, 559493, Note_on_c, 0, 24, 36
1, 559493, Note_on_c, 0, 35, 36
1, 559493, Note_on_c, 0, 79, 43
1, 559493, Note_on_c, 0, 55, 23
1, 559685, Note_off_c, 0, 55, 0
1, 559685, Note_off_c, 0, 79, 0
1, 559685, Note_off_c, 0, 35, 0
1, 559685, Note_off_c, 0, 24, 0
1, 559685, Note_off_c, 0, 62, 0
1, 559685, Note_off_c, 0, 67, 0
1, 559685, Note_off_c, 0, 91, 0
1, 559685, Note_off_c, 0, 47, 0
1, 559685, Note_off_c, 0, 35, 0
1, 559685, Note_off_c, 0, 74, 0
1, 559685, Note_on_c, 0, 74, 36
1, 559685, Note_on_c, 0, 35, 36
1, 559685, Note_on_c, 0, 47, 36
1, 559685, Note_on_c, 0, 88, 43
1, 559685, Note_on_c, 0, 71, 23
1, 559685, Note_on_c, 0, 62, 36
1, 559685, Note_on_c, 0, 24, 36
1, 559685, Note_on_c, 0, 35, 36
1, 559685, Note_on_c, 0, 76, 43
1, 559685, Note_on_c, 0, 59, 23
1, 559877, Note_off_c, 0, 59, 0
1, 559877, Note_off_c, 0, 76, 0
1, 559877, Note_off_c, 0, 35, 0
1, 559877, Note_off_c, 0, 24, 0
1, 559877, Note_off_c, 0, 62, 0
1, 559877, Note_off_c, 0, 71, 0
1, 559877, Note_off_c, 0, 88, 0
1, 559877, Note_off_c, 0, 47, 0
1, 559877, Note_off_c, 0, 35, 0
1, 559877, Note_off_c, 0, 74, 0
1, 559877, Note_on_c, 0, 74, 36
1, 559877, Note_on_c, 0, 35, 36
1, 559877, Note_on_c, 0, 47, 36
1, 559877, Note_on_c, 0, 86, 43
1, 559877, Note_on_c, 0, 59, 23
1, 559877, Note_on_c, 0, 62, 36
1, 559877, Note_on_c, 0, 24, 36
1, 559877, Note_on_c, 0, 35, 36
1, 559877, Note_on_c, 0, 74, 43
1, 559877, Note_on_c, 0, 47, 23
1, 560069, Note_off_c, 0, 35, 0
1, 560069, Note_off_c, 0, 24, 0
1, 560069, Note_off_c, 0, 62, 0
1, 560069, Note_off_c, 0, 47, 0
1, 560069, Note_off_c, 0, 35, 0
1, 560069, Note_off_c, 0, 74, 0
1, 560069, Note_on_c, 0, 74, 36
1, 560069, Note_on_c, 0, 35, 36
1, 560069, Note_on_c, 0, 47, 36
1, 560069, Note_on_c, 0, 62, 36
1, 560069, Note_on_c, 0, 24, 36
1, 560069, Note_on_c, 0, 35, 36
1, 560165, Note_off_c, 0, 47, 0
1, 560165, Note_off_c, 0, 59, 0
1, 560261, Note_off_c, 0, 35, 0
1, 560261, Note_off_c, 0, 24, 0
1, 560261, Note_off_c, 0, 62, 0
1, 560261, Note_off_c, 0, 47, 0
1, 560261, Note_off_c, 0, 35, 0
1, 560261, Note_off_c, 0, 74, 0
1, 560261, Note_on_c, 0, 74, 36
1, 560261, Note_on_c, 0, 35, 36
1, 560261, Note_on_c, 0, 47, 36
1, 560261, Note_on_c, 0, 67, 23
1, 560261, Note_on_c, 0, 62, 36
1, 560261, Note_on_c, 0, 24, 36
1, 560261, Note_on_c, 0, 35, 36
1, 560261, Note_on_c, 0, 55, 23
1, 560453, Note_off_c, 0, 55, 0
1, 560453, Note_off_c, 0, 35, 0
1, 560453, Note_off_c, 0, 24, 0
1, 560453, Note_off_c, 0, 62, 0
1, 560453, Note_off_c, 0, 67, 0
1, 560453, Note_off_c, 0, 47, 0
1, 560453, Note_off_c, 0, 35, 0
1, 560453, Note_off_c, 0, 74, 0
1, 560453, Note_on_c, 0, 74, 36
1, 560453, Note_on_c, 0, 35, 36
1, 560453, Note_on_c, 0, 47, 36
1, 560453, Note_on_c, 0, 71, 23
1, 560453, Note_on_c, 0, 62, 36
1, 560453, Note_on_c, 0, 24, 36
1, 560453, Note_on_c, 0, 35, 36
1, 560453, Note_on_c, 0, 59, 23
1, 560549, Note_off_c, 0, 74, 0
1, 560549, Note_off_c, 0, 86, 0
1, 560645, Note_off_c, 0, 59, 0
1, 560645, Note_off_c, 0, 35, 0
1, 560645, Note_off_c, 0, 24, 0
1, 560645, Note_off_c, 0, 62, 0
1, 560645, Note_off_c, 0, 71, 0
1, 560645, Note_off_c, 0, 47, 0
1, 560645, Note_off_c, 0, 35, 0
1, 560645, Note_off_c, 0, 74, 0
1, 560645, Note_on_c, 0, 74, 36
1, 560645, Note_on_c, 0, 34, 36
1, 560645, Note_on_c, 0, 46, 36
1, 560645, Note_on_c, 0, 88, 43
1, 560645, Note_on_c, 0, 58, 23
1, 560645, Note_on_c, 0, 62, 36
1, 560645, Note_on_c, 0, 24, 36
1, 560645, Note_on_c, 0, 34, 36
1, 560645, Note_on_c, 0, 76, 43
1, 560645, Note_on_c, 0, 46, 23
1, 560837, Note_off_c, 0, 34, 0
1, 560837, Note_off_c, 0, 24, 0
1, 560837, Note_off_c, 0, 62, 0
1, 560837, Note_off_c, 0, 46, 0
1, 560837, Note_off_c, 0, 34, 0
1, 560837, Note_off_c, 0, 74, 0
1, 560837, Note_on_c, 0, 74, 36
1, 560837, Note_on_c, 0, 34, 36
1, 560837, Note_on_c, 0, 46, 36
1, 560837, Note_on_c, 0, 62, 36
1, 560837, Note_on_c, 0, 24, 36
1, 560837, Note_on_c, 0, 34, 36
1, 560933, Note_off_c, 0, 46, 0
1, 560933, Note_off_c, 0, 58, 0
1, 561029, Note_off_c, 0, 34, 0
1, 561029, Note_off_c, 0, 24, 0
1, 561029, Note_off_c, 0, 62, 0
1, 561029, Note_off_c, 0, 46, 0
1, 561029, Note_off_c, 0, 34, 0
1, 561029, Note_off_c, 0, 74, 0
1, 561029, Note_on_c, 0, 74, 36
1, 561029, Note_on_c, 0, 34, 36
1, 561029, Note_on_c, 0, 46, 36
1, 561029, Note_on_c, 0, 65, 23
1, 561029, Note_on_c, 0, 62, 36
1, 561029, Note_on_c, 0, 24, 36
1, 561029, Note_on_c, 0, 34, 36
1, 561029, Note_on_c, 0, 53, 23
1, 561221, Note_off_c, 0, 53, 0
1, 561221, Note_off_c, 0, 34, 0
1, 561221, Note_off_c, 0, 24, 0
1, 561221, Note_off_c, 0, 62, 0
1, 561221, Note_off_c, 0, 65, 0
1, 561221, Note_off_c, 0, 46, 0
1, 561221, Note_off_c, 0, 34, 0
1, 561221, Note_off_c, 0, 74, 0
1, 561221, Note_on_c, 0, 74, 36
1, 561221, Note_on_c, 0, 34, 36
1, 561221, Note_on_c, 0, 46, 36
1, 561221, Note_on_c, 0, 70, 23
1, 561221, Note_on_c, 0, 62, 36
1, 561221, Note_on_c, 0, 24, 36
1, 561221, Note_on_c, 0, 34, 36
1, 561221, Note_on_c, 0, 58, 23
1, 561413, Note_off_c, 0, 58, 0
1, 561413, Note_off_c, 0, 34, 0
1, 561413, Note_off_c, 0, 24, 0
1, 561413, Note_off_c, 0, 62, 0
1, 561413, Note_off_c, 0, 70, 0
1, 561413, Note_off_c, 0, 46, 0
1, 561413, Note_off_c, 0, 34, 0
1, 561413, Note_off_c, 0, 74, 0
1, 561413, Note_on_c, 0, 74, 36
1, 561413, Note_on_c, 0, 34, 36
1, 561413, Note_on_c, 0, 46, 36
1, 561413, Note_on_c, 0, 58, 23
1, 561413, Note_on_c, 0, 62, 36
1, 561413, Note_on_c, 0, 24, 36
1, 561413, Note_on_c, 0, 34, 36
1, 561413, Note_on_c, 0, 46, 23
1, 561605, Note_off_c, 0, 34, 0
1, 561605, Note_off_c, 0, 24, 0
1, 561605, Note_off_c, 0, 62, 0
1, 561605, Note_off_c, 0, 46, 0
1, 561605, Note_off_c, 0, 34, 0
1, 561605, Note_off_c, 0, 74, 0
1, 561605, Note_on_c, 0, 74, 36
1, 561605, Note_on_c, 0, 34, 36
1, 561605, Note_on_c, 0, 46, 36
1, 561605, Note_on_c, 0, 62, 36
1, 561605, Note_on_c, 0, 24, 36
1, 561605, Note_on_c, 0, 34, 36
1, 561701, Note_off_c, 0, 46, 0
1, 561701, Note_off_c, 0, 58, 0
1, 561797, Note_off_c, 0, 34, 0
1, 561797, Note_off_c, 0, 24, 0
1, 561797, Note_off_c, 0, 62, 0
1, 561797, Note_off_c, 0, 46, 0
1, 561797, Note_off_c, 0, 34, 0
1, 561797, Note_off_c, 0, 74, 0
1, 561797, Note_on_c, 0, 74, 36
1, 561797, Note_on_c, 0, 34, 36
1, 561797, Note_on_c, 0, 46, 36
1, 561797, Note_on_c, 0, 65, 23
1, 561797, Note_on_c, 0, 62, 36
1, 561797, Note_on_c, 0, 24, 36
1, 561797, Note_on_c, 0, 34, 36
1, 561797, Note_on_c, 0, 53, 23
1, 561989, Note_off_c, 0, 53, 0
1, 561989, Note_off_c, 0, 34, 0
1, 561989, Note_off_c, 0, 24, 0
1, 561989, Note_off_c, 0, 62, 0
1, 561989, Note_off_c, 0, 65, 0
1, 561989, Note_off_c, 0, 46, 0
1, 561989, Note_off_c, 0, 34, 0
1, 561989, Note_off_c, 0, 74, 0
1, 561989, Note_on_c, 0, 74, 36
1, 561989, Note_on_c, 0, 34, 36
1, 561989, Note_on_c, 0, 46, 36
1, 561989, Note_on_c, 0, 70, 23
1, 561989, Note_on_c, 0, 62, 36
1, 561989, Note_on_c, 0, 24, 36
1, 561989, Note_on_c, 0, 34, 36
1, 561989, Note_on_c, 0, 58, 23
1, 562085, Note_off_c, 0, 76, 0
1, 562085, Note_off_c, 0, 88, 0
1, 562181, Note_off_c, 0, 58, 0
1, 562181, Note_off_c, 0, 34, 0
1, 562181, Note_off_c, 0, 24, 0
1, 562181, Note_off_c, 0, 62, 0
1, 562181, Note_off_c, 0, 70, 0
1, 562181, Note_off_c, 0, 46, 0
1, 562181, Note_off_c, 0, 34, 0
1, 562181, Note_off_c, 0, 74, 0
1, 562181, Note_on_c, 0, 74, 36
1, 562181, Note_on_c, 0, 36, 36
1, 562181, Note_on_c, 0, 48, 36
1, 562181, Note_on_c, 0, 89, 43
1, 562181, Note_on_c, 0, 60, 23
1, 562181, Note_on_c, 0, 62, 36
1, 562181, Note_on_c, 0, 24, 36
1, 562181, Note_on_c, 0, 36, 36
1, 562181, Note_on_c, 0, 77, 43
1, 562181, Note_on_c, 0, 48, 23
1, 562277, Note_off_c, 0, 36, 0
1, 562277, Note_off_c, 0, 24, 0
1, 562277, Note_off_c, 0, 48, 0
1, 562277, Note_off_c, 0, 36, 0
1, 562277, Note_on_c, 0, 36, 36
1, 562277, Note_on_c, 0, 48, 36
1, 562277, Note_on_c, 0, 24, 36
1, 562277, Note_on_c, 0, 36, 36
1, 562373, Note_off_c, 0, 36, 0
1, 562373, Note_off_c, 0, 24, 0
1, 562373, Note_off_c, 0, 48, 0
1, 562373, Note_off_c, 0, 36, 0
1, 562373, Note_off_c, 0, 62, 0
1, 562373, Note_off_c, 0, 74, 0
1, 562373, Note_on_c, 0, 74, 36
1, 562373, Note_on_c, 0, 36, 36
1, 562373, Note_on_c, 0, 48, 36
1, 562373, Note_on_c, 0, 62, 36
1, 562373, Note_on_c, 0, 24, 36
1, 562373, Note_on_c, 0, 36, 36
1, 562469, Note_off_c, 0, 36, 0
1, 562469, Note_off_c, 0, 24, 0
1, 562469, Note_off_c, 0, 48, 0
1, 562469, Note_off_c, 0, 36, 0
1, 562469, Note_off_c, 0, 48, 0
1, 562469, Note_off_c, 0, 60, 0
1, 562469, Note_on_c, 0, 36, 36
1, 562469, Note_on_c, 0, 48, 36
1, 562469, Note_on_c, 0, 24, 36
1, 562469, Note_on_c, 0, 36, 36
1, 562565, Note_off_c, 0, 36, 0
1, 562565, Note_off_c, 0, 24, 0
1, 562565, Note_off_c, 0, 48, 0
1, 562565, Note_off_c, 0, 36, 0
1, 562565, Note_off_c, 0, 62, 0
1, 562565, Note_off_c, 0, 74, 0
1, 562565, Note_on_c, 0, 74, 36
1, 562565, Note_on_c, 0, 36, 36
1, 562565, Note_on_c, 0, 48, 36
1, 562565, Note_on_c, 0, 67, 23
1, 562565, Note_on_c, 0, 62, 36
1, 562565, Note_on_c, 0, 24, 36
1, 562565, Note_on_c, 0, 36, 36
1, 562565, Note_on_c, 0, 55, 23
1, 562661, Note_off_c, 0, 36, 0
1, 562661, Note_off_c, 0, 24, 0
1, 562661, Note_off_c, 0, 48, 0
1, 562661, Note_off_c, 0, 36, 0
1, 562661, Note_on_c, 0, 36, 36
1, 562661, Note_on_c, 0, 48, 36
1, 562661, Note_on_c, 0, 24, 36
1, 562661, Note_on_c, 0, 36, 36
1, 562757, Note_off_c, 0, 36, 0
1, 562757, Note_off_c, 0, 24, 0
1, 562757, Note_off_c, 0, 48, 0
1, 562757, Note_off_c, 0, 36, 0
1, 562757, Note_off_c, 0, 55, 0
1, 562757, Note_off_c, 0, 62, 0
1, 562757, Note_off_c, 0, 67, 0
1, 562757, Note_off_c, 0, 74, 0
1, 562757, Note_on_c, 0, 74, 36
1, 562757, Note_on_c, 0, 36, 36
1, 562757, Note_on_c, 0, 48, 36
1, 562757, Note_on_c, 0, 72, 23
1, 562757, Note_on_c, 0, 62, 36
1, 562757, Note_on_c, 0, 24, 36
1, 562757, Note_on_c, 0, 36, 36
1, 562757, Note_on_c, 0, 60, 23
1, 562853, Note_off_c, 0, 36, 0
1, 562853, Note_off_c, 0, 24, 0
1, 562853, Note_off_c, 0, 48, 0
1, 562853, Note_off_c, 0, 36, 0
1, 562853, Note_on_c, 0, 36, 36
1, 562853, Note_on_c, 0, 48, 36
1, 562853, Note_on_c, 0, 24, 36
1, 562853, Note_on_c, 0, 36, 36
1, 562949, Note_off_c, 0, 36, 0
1, 562949, Note_off_c, 0, 24, 0
1, 562949, Note_off_c, 0, 48, 0
1, 562949, Note_off_c, 0, 36, 0
1, 562949, Note_off_c, 0, 60, 0
1, 562949, Note_off_c, 0, 62, 0
1, 562949, Note_off_c, 0, 72, 0
1, 562949, Note_off_c, 0, 74, 0
1, 562949, Note_on_c, 0, 74, 36
1, 562949, Note_on_c, 0, 36, 36
1, 562949, Note_on_c, 0, 48, 36
1, 562949, Note_on_c, 0, 60, 23
1, 562949, Note_on_c, 0, 62, 36
1, 562949, Note_on_c, 0, 24, 36
1, 562949, Note_on_c, 0, 36, 36
1, 562949, Note_on_c, 0, 48, 23
1, 563045, Note_off_c, 0, 36, 0
1, 563045, Note_off_c, 0, 24, 0
1, 563045, Note_off_c, 0, 48, 0
1, 563045, Note_off_c, 0, 36, 0
1, 563045, Note_on_c, 0, 36, 36
1, 563045, Note_on_c, 0, 48, 36
1, 563045, Note_on_c, 0, 24, 36
1, 563045, Note_on_c, 0, 36, 36
1, 563141, Note_off_c, 0, 36, 0
1, 563141, Note_off_c, 0, 24, 0
1, 563141, Note_off_c, 0, 48, 0
1, 563141, Note_off_c, 0, 36, 0
1, 563141, Note_off_c, 0, 62, 0
1, 563141, Note_off_c, 0, 74, 0
1, 563141, Note_on_c, 0, 74, 36
1, 563141, Note_on_c, 0, 36, 36
1, 563141, Note_on_c, 0, 48, 36
1, 563141, Note_on_c, 0, 62, 36
1, 563141, Note_on_c, 0, 24, 36
1, 563141, Note_on_c, 0, 36, 36
1, 563237, Note_off_c, 0, 36, 0
1, 563237, Note_off_c, 0, 24, 0
1, 563237, Note_off_c, 0, 48, 0
1, 563237, Note_off_c, 0, 36, 0
1, 563237, Note_off_c, 0, 48, 0
1, 563237, Note_off_c, 0, 60, 0
1, 563237, Note_on_c, 0, 36, 36
1, 563237, Note_on_c, 0, 48, 36
1, 563237, Note_on_c, 0, 24, 36
1, 563237, Note_on_c, 0, 36, 36
1, 563333, Note_off_c, 0, 36, 0
1, 563333, Note_off_c, 0, 24, 0
1, 563333, Note_off_c, 0, 48, 0
1, 563333, Note_off_c, 0, 36, 0
1, 563333, Note_off_c, 0, 62, 0
1, 563333, Note_off_c, 0, 74, 0
1, 563333, Note_on_c, 0, 74, 36
1, 563333, Note_on_c, 0, 36, 36
1, 563333, Note_on_c, 0, 48, 36
1, 563333, Note_on_c, 0, 67, 23
1, 563333, Note_on_c, 0, 62, 36
1, 563333, Note_on_c, 0, 24, 36
1, 563333, Note_on_c, 0, 36, 36
1, 563333, Note_on_c, 0, 55, 23
1, 563429, Note_off_c, 0, 36, 0
1, 563429, Note_off_c, 0, 24, 0
1, 563429, Note_off_c, 0, 48, 0
1, 563429, Note_off_c, 0, 36, 0
1, 563429, Note_on_c, 0, 36, 36
1, 563429, Note_on_c, 0, 48, 36
1, 563429, Note_on_c, 0, 24, 36
1, 563429, Note_on_c, 0, 36, 36
1, 563525, Note_off_c, 0, 36, 0
1, 563525, Note_off_c, 0, 24, 0
1, 563525, Note_off_c, 0, 48, 0
1, 563525, Note_off_c, 0, 36, 0
1, 563525, Note_off_c, 0, 55, 0
1, 563525, Note_off_c, 0, 62, 0
1, 563525, Note_off_c, 0, 67, 0
1, 563525, Note_off_c, 0, 74, 0
1, 563525, Note_on_c, 0, 74, 36
1, 563525, Note_on_c, 0, 36, 36
1, 563525, Note_on_c, 0, 48, 36
1, 563525, Note_on_c, 0, 72, 23
1, 563525, Note_on_c, 0, 62, 36
1, 563525, Note_on_c, 0, 24, 36
1, 563525, Note_on_c, 0, 36, 36
1, 563525, Note_on_c, 0, 60, 23
1, 563621, Note_off_c, 0, 36, 0
1, 563621, Note_off_c, 0, 24, 0
1, 563621, Note_off_c, 0, 48, 0
1, 563621, Note_off_c, 0, 36, 0
1, 563621, Note_off_c, 0, 77, 0
1, 563621, Note_off_c, 0, 89, 0
1, 563621, Note_on_c, 0, 36, 36
1, 563621, Note_on_c, 0, 48, 36
1, 563621, Note_on_c, 0, 24, 36
1, 563621, Note_on_c, 0, 36, 36
1, 563717, Note_off_c, 0, 36, 0
1, 563717, Note_off_c, 0, 24, 0
1, 563717, Note_off_c, 0, 48, 0
1, 563717, Note_off_c, 0, 36, 0
1, 563717, Note_off_c, 0, 60, 0
1, 563717, Note_off_c, 0, 62, 0
1, 563717, Note_off_c, 0, 72, 0
1, 563717, Note_off_c, 0, 74, 0
1, 563717, Note_on_c, 0, 38, 36
1, 563717, Note_on_c, 0, 50, 36
1, 563717, Note_on_c, 0, 81, 43
1, 563717, Note_on_c, 0, 88, 43
1, 563717, Note_on_c, 0, 62, 23
1, 563717, Note_on_c, 0, 26, 36
1, 563717, Note_on_c, 0, 38, 36
1, 563717, Note_on_c, 0, 69, 43
1, 563717, Note_on_c, 0, 76, 43
1, 563717, Note_on_c, 0, 50, 23
1, 563909, Note_off_c, 0, 38, 0
1, 563909, Note_off_c, 0, 26, 0
1, 563909, Note_off_c, 0, 50, 0
1, 563909, Note_off_c, 0, 38, 0
1, 563909, Note_on_c, 0, 38, 36
1, 563909, Note_on_c, 0, 50, 36
1, 563909, Note_on_c, 0, 26, 36
1, 563909, Note_on_c, 0, 38, 36
1, 564005, Note_off_c, 0, 50, 0
1, 564005, Note_off_c, 0, 62, 0
1, 564101, Note_off_c, 0, 38, 0
1, 564101, Note_off_c, 0, 26, 0
1, 564101, Note_off_c, 0, 50, 0
1, 564101, Note_off_c, 0, 38, 0
1, 564101, Note_on_c, 0, 38, 36
1, 564101, Note_on_c, 0, 50, 36
1, 564101, Note_on_c, 0, 69, 23
1, 564101, Note_on_c, 0, 26, 36
1, 564101, Note_on_c, 0, 38, 36
1, 564101, Note_on_c, 0, 57, 23
1, 564293, Note_off_c, 0, 57, 0
1, 564293, Note_off_c, 0, 38, 0
1, 564293, Note_off_c, 0, 26, 0
1, 564293, Note_off_c, 0, 69, 0
1, 564293, Note_off_c, 0, 50, 0
1, 564293, Note_off_c, 0, 38, 0
1, 564293, Note_on_c, 0, 38, 36
1, 564293, Note_on_c, 0, 50, 36
1, 564293, Note_on_c, 0, 74, 23
1, 564293, Note_on_c, 0, 26, 36
1, 564293, Note_on_c, 0, 38, 36
1, 564293, Note_on_c, 0, 62, 23
1, 564485, Note_off_c, 0, 62, 0
1, 564485, Note_off_c, 0, 38, 0
1, 564485, Note_off_c, 0, 26, 0
1, 564485, Note_off_c, 0, 74, 0
1, 564485, Note_off_c, 0, 50, 0
1, 564485, Note_off_c, 0, 38, 0
1, 564485, Note_on_c, 0, 38, 36
1, 564485, Note_on_c, 0, 50, 36
1, 564485, Note_on_c, 0, 62, 23
1, 564485, Note_on_c, 0, 26, 36
1, 564485, Note_on_c, 0, 38, 36
1, 564485, Note_on_c, 0, 50, 23
1, 564677, Note_off_c, 0, 38, 0
1, 564677, Note_off_c, 0, 26, 0
1, 564677, Note_off_c, 0, 50, 0
1, 564677, Note_off_c, 0, 38, 0
1, 564677, Note_on_c, 0, 38, 36
1, 564677, Note_on_c, 0, 50, 36
1, 564677, Note_on_c, 0, 26, 36
1, 564677, Note_on_c, 0, 38, 36
1, 564773, Note_off_c, 0, 50, 0
1, 564773, Note_off_c, 0, 62, 0
1, 564869, Note_off_c, 0, 38, 0
1, 564869, Note_off_c, 0, 26, 0
1, 564869, Note_off_c, 0, 50, 0
1, 564869, Note_off_c, 0, 38, 0
1, 564869, Note_on_c, 0, 38, 36
1, 564869, Note_on_c, 0, 50, 36
1, 564869, Note_on_c, 0, 69, 23
1, 564869, Note_on_c, 0, 26, 36
1, 564869, Note_on_c, 0, 38, 36
1, 564869, Note_on_c, 0, 57, 23
1, 565061, Note_off_c, 0, 57, 0
1, 565061, Note_off_c, 0, 38, 0
1, 565061, Note_off_c, 0, 26, 0
1, 565061, Note_off_c, 0, 69, 0
1, 565061, Note_off_c, 0, 50, 0
1, 565061, Note_off_c, 0, 38, 0
1, 565061, Note_on_c, 0, 38, 36
1, 565061, Note_on_c, 0, 50, 36
1, 565061, Note_on_c, 0, 74, 23
1, 565061, Note_on_c, 0, 26, 36
1, 565061, Note_on_c, 0, 38, 36
1, 565061, Note_on_c, 0, 62, 23
1, 565157, Note_off_c, 0, 76, 0
1, 565157, Note_off_c, 0, 69, 0
1, 565157, Note_off_c, 0, 88, 0
1, 565157, Note_off_c, 0, 81, 0
1, 565253, Note_off_c, 0, 62, 0
1, 565253, Note_off_c, 0, 38, 0
1, 565253, Note_off_c, 0, 26, 0
1, 565253, Note_off_c, 0, 74, 0
1, 565253, Note_off_c, 0, 50, 0
1, 565253, Note_off_c, 0, 38, 0
1, 565253, Note_on_c, 0, 38, 36
1, 565253, Note_on_c, 0, 50, 36
1, 565253, Note_on_c, 0, 88, 43
1, 565253, Note_on_c, 0, 81, 43
1, 565253, Note_on_c, 0, 62, 23
1, 565253, Note_on_c, 0, 26, 36
1, 565253, Note_on_c, 0, 38, 36
1, 565253, Note_on_c, 0, 76, 43
1, 565253, Note_on_c, 0, 69, 43
1, 565253, Note_on_c, 0, 50, 23
1, 565445, Note_off_c, 0, 38, 0
1, 565445, Note_off_c, 0, 26, 0
1, 565445, Note_off_c, 0, 50, 0
1, 565445, Note_off_c, 0, 38, 0
1, 565445, Note_on_c, 0, 38, 36
1, 565445, Note_on_c, 0, 50, 36
1, 565445, Note_on_c, 0, 26, 36
1, 565445, Note_on_c, 0, 38, 36
1, 565541, Note_off_c, 0, 50, 0
1, 565541, Note_off_c, 0, 62, 0
1, 565637, Note_off_c, 0, 38, 0
1, 565637, Note_off_c, 0, 26, 0
1, 565637, Note_off_c, 0, 50, 0
1, 565637, Note_off_c, 0, 38, 0
1, 565637, Note_on_c, 0, 38, 36
1, 565637, Note_on_c, 0, 50, 36
1, 565637, Note_on_c, 0, 69, 23
1, 565637, Note_on_c, 0, 26, 36
1, 565637, Note_on_c, 0, 38, 36
1, 565637, Note_on_c, 0, 57, 23
1, 565733, Note_off_c, 0, 76, 0
1, 565733, Note_off_c, 0, 88, 0
1, 565829, Note_off_c, 0, 57, 0
1, 565829, Note_off_c, 0, 38, 0
1, 565829, Note_off_c, 0, 26, 0
1, 565829, Note_off_c, 0, 69, 0
1, 565829, Note_off_c, 0, 50, 0
1, 565829, Note_off_c, 0, 38, 0
1, 565829, Note_on_c, 0, 38, 36
1, 565829, Note_on_c, 0, 50, 36
1, 565829, Note_on_c, 0, 86, 43
1, 565829, Note_on_c, 0, 74, 23
1, 565829, Note_on_c, 0, 26, 36
1, 565829, Note_on_c, 0, 38, 36
1, 565829, Note_on_c, 0, 74, 43
1, 565829, Note_on_c, 0, 62, 23
1, 566021, Note_off_c, 0, 62, 0
1, 566021, Note_off_c, 0, 38, 0
1, 566021, Note_off_c, 0, 26, 0
1, 566021, Note_off_c, 0, 74, 0
1, 566021, Note_off_c, 0, 50, 0
1, 566021, Note_off_c, 0, 38, 0
1, 566021, Note_on_c, 0, 38, 36
1, 566021, Note_on_c, 0, 50, 36
1, 566021, Note_on_c, 0, 62, 23
1, 566021, Note_on_c, 0, 26, 36
1, 566021, Note_on_c, 0, 38, 36
1, 566021, Note_on_c, 0, 50, 23
1, 566213, Note_off_c, 0, 38, 0
1, 566213, Note_off_c, 0, 26, 0
1, 566213, Note_off_c, 0, 50, 0
1, 566213, Note_off_c, 0, 38, 0
1, 566213, Note_on_c, 0, 38, 36
1, 566213, Note_on_c, 0, 50, 36
1, 566213, Note_on_c, 0, 26, 36
1, 566213, Note_on_c, 0, 38, 36
1, 566309, Note_off_c, 0, 50, 0
1, 566309, Note_off_c, 0, 62, 0
1, 566309, Note_off_c, 0, 74, 0
1, 566309, Note_off_c, 0, 86, 0
1, 566405, Note_off_c, 0, 38, 0
1, 566405, Note_off_c, 0, 26, 0
1, 566405, Note_off_c, 0, 50, 0
1, 566405, Note_off_c, 0, 38, 0
1, 566405, Note_on_c, 0, 38, 36
1, 566405, Note_on_c, 0, 50, 36
1, 566405, Note_on_c, 0, 93, 43
1, 566405, Note_on_c, 0, 69, 23
1, 566405, Note_on_c, 0, 26, 36
1, 566405, Note_on_c, 0, 38, 36
1, 566405, Note_on_c, 0, 81, 43
1, 566405, Note_on_c, 0, 57, 23
1, 566597, Note_off_c, 0, 57, 0
1, 566597, Note_off_c, 0, 38, 0
1, 566597, Note_off_c, 0, 26, 0
1, 566597, Note_off_c, 0, 69, 0
1, 566597, Note_off_c, 0, 50, 0
1, 566597, Note_off_c, 0, 38, 0
1, 566597, Note_on_c, 0, 38, 36
1, 566597, Note_on_c, 0, 50, 36
1, 566597, Note_on_c, 0, 74, 23
1, 566597, Note_on_c, 0, 26, 36
1, 566597, Note_on_c, 0, 38, 36
1, 566597, Note_on_c, 0, 62, 23
1, 566693, Note_off_c, 0, 81, 0
1, 566693, Note_off_c, 0, 93, 0
1, 566693, Note_off_c, 0, 69, 0
1, 566693, Note_off_c, 0, 81, 0
1, 566789, Note_off_c, 0, 62, 0
1, 566789, Note_off_c, 0, 38, 0
1, 566789, Note_off_c, 0, 26, 0
1, 566789, Note_off_c, 0, 74, 0
1, 566789, Note_off_c, 0, 50, 0
1, 566789, Note_off_c, 0, 38, 0
1, 566789, Note_on_c, 0, 36, 36
1, 566789, Note_on_c, 0, 48, 36
1, 566789, Note_on_c, 0, 81, 43
1, 566789, Note_on_c, 0, 88, 43
1, 566789, Note_on_c, 0, 60, 23
1, 566789, Note_on_c, 0, 24, 36
1, 566789, Note_on_c, 0, 36, 36
1, 566789, Note_on_c, 0, 69, 43
1, 566789, Note_on_c, 0, 76, 43
1, 566789, Note_on_c, 0, 48, 23
1, 566981, Note_off_c, 0, 36, 0
1, 566981, Note_off_c, 0, 24, 0
1, 566981, Note_off_c, 0, 48, 0
1, 566981, Note_off_c, 0, 36, 0
1, 566981, Note_on_c, 0, 36, 36
1, 566981, Note_on_c, 0, 48, 36
1, 566981, Note_on_c, 0, 24, 36
1, 566981, Note_on_c, 0, 36, 36
1, 567077, Note_off_c, 0, 48, 0
1, 567077, Note_off_c, 0, 60, 0
1, 567173, Note_off_c, 0, 36, 0
1, 567173, Note_off_c, 0, 24, 0
1, 567173, Note_off_c, 0, 48, 0
1, 567173, Note_off_c, 0, 36, 0
1, 567173, Note_on_c, 0, 36, 36
1, 567173, Note_on_c, 0, 48, 36
1, 567173, Note_on_c, 0, 67, 23
1, 567173, Note_on_c, 0, 24, 36
1, 567173, Note_on_c, 0, 36, 36
1, 567173, Note_on_c, 0, 55, 23
1, 567365, Note_off_c, 0, 55, 0
1, 567365, Note_off_c, 0, 36, 0
1, 567365, Note_off_c, 0, 24, 0
1, 567365, Note_off_c, 0, 67, 0
1, 567365, Note_off_c, 0, 48, 0
1, 567365, Note_off_c, 0, 36, 0
1, 567365, Note_on_c, 0, 36, 36
1, 567365, Note_on_c, 0, 48, 36
1, 567365, Note_on_c, 0, 72, 23
1, 567365, Note_on_c, 0, 24, 36
1, 567365, Note_on_c, 0, 36, 36
1, 567365, Note_on_c, 0, 60, 23
1, 567557, Note_off_c, 0, 60, 0
1, 567557, Note_off_c, 0, 36, 0
1, 567557, Note_off_c, 0, 24, 0
1, 567557, Note_off_c, 0, 72, 0
1, 567557, Note_off_c, 0, 48, 0
1, 567557, Note_off_c, 0, 36, 0
1, 567557, Note_on_c, 0, 36, 36
1, 567557, Note_on_c, 0, 48, 36
1, 567557, Note_on_c, 0, 60, 23
1, 567557, Note_on_c, 0, 24, 36
1, 567557, Note_on_c, 0, 36, 36
1, 567557, Note_on_c, 0, 48, 23
1, 567749, Note_off_c, 0, 36, 0
1, 567749, Note_off_c, 0, 24, 0
1, 567749, Note_off_c, 0, 48, 0
1, 567749, Note_off_c, 0, 36, 0
1, 567749, Note_on_c, 0, 36, 36
1, 567749, Note_on_c, 0, 48, 36
1, 567749, Note_on_c, 0, 24, 36
1, 567749, Note_on_c, 0, 36, 36
1, 567845, Note_off_c, 0, 48, 0
1, 567845, Note_off_c, 0, 60, 0
1, 567941, Note_off_c, 0, 36, 0
1, 567941, Note_off_c, 0, 24, 0
1, 567941, Note_off_c, 0, 48, 0
1, 567941, Note_off_c, 0, 36, 0
1, 567941, Note_on_c, 0, 36, 36
1, 567941, Note_on_c, 0, 48, 36
1, 567941, Note_on_c, 0, 67, 23
1, 567941, Note_on_c, 0, 24, 36
1, 567941, Note_on_c, 0, 36, 36
1, 567941, Note_on_c, 0, 55, 23
1, 568133, Note_off_c, 0, 55, 0
1, 568133, Note_off_c, 0, 36, 0
1, 568133, Note_off_c, 0, 24, 0
1, 568133, Note_off_c, 0, 67, 0
1, 568133, Note_off_c, 0, 48, 0
1, 568133, Note_off_c, 0, 36, 0
1, 568133, Note_on_c, 0, 36, 36
1, 568133, Note_on_c, 0, 48, 36
1, 568133, Note_on_c, 0, 72, 23
1, 568133, Note_on_c, 0, 24, 36
1, 568133, Note_on_c, 0, 36, 36
1, 568133, Note_on_c, 0, 60, 23
1, 568229, Note_off_c, 0, 76, 0
1, 568229, Note_off_c, 0, 69, 0
1, 568229, Note_off_c, 0, 88, 0
1, 568229, Note_off_c, 0, 81, 0
1, 568325, Note_off_c, 0, 60, 0
1, 568325, Note_off_c, 0, 36, 0
1, 568325, Note_off_c, 0, 24, 0
1, 568325, Note_off_c, 0, 72, 0
1, 568325, Note_off_c, 0, 48, 0
1, 568325, Note_off_c, 0, 36, 0
1, 568325, Note_on_c, 0, 36, 36
1, 568325, Note_on_c, 0, 48, 36
1, 568325, Note_on_c, 0, 88, 43
1, 568325, Note_on_c, 0, 81, 43
1, 568325, Note_on_c, 0, 60, 23
1, 568325, Note_on_c, 0, 24, 36
1, 568325, Note_on_c, 0, 36, 36
1, 568325, Note_on_c, 0, 76, 43
1, 568325, Note_on_c, 0, 69, 43
1, 568325, Note_on_c, 0, 48, 23
1, 568517, Note_off_c, 0, 36, 0
1, 568517, Note_off_c, 0, 24, 0
1, 568517, Note_off_c, 0, 48, 0
1, 568517, Note_off_c, 0, 36, 0
1, 568517, Note_on_c, 0, 36, 36
1, 568517, Note_on_c, 0, 48, 36
1, 568517, Note_on_c, 0, 24, 36
1, 568517, Note_on_c, 0, 36, 36
1, 568613, Note_off_c, 0, 48, 0
1, 568613, Note_off_c, 0, 60, 0
1, 568709, Note_off_c, 0, 36, 0
1, 568709, Note_off_c, 0, 24, 0
1, 568709, Note_off_c, 0, 48, 0
1, 568709, Note_off_c, 0, 36, 0
1, 568709, Note_on_c, 0, 36, 36
1, 568709, Note_on_c, 0, 48, 36
1, 568709, Note_on_c, 0, 67, 23
1, 568709, Note_on_c, 0, 24, 36
1, 568709, Note_on_c, 0, 36, 36
1, 568709, Note_on_c, 0, 55, 23
1, 568805, Note_off_c, 0, 76, 0
1, 568805, Note_off_c, 0, 88, 0
1, 568901, Note_off_c, 0, 55, 0
1, 568901, Note_off_c, 0, 36, 0
1, 568901, Note_off_c, 0, 24, 0
1, 568901, Note_off_c, 0, 67, 0
1, 568901, Note_off_c, 0, 48, 0
1, 568901, Note_off_c, 0, 36, 0
1, 568901, Note_on_c, 0, 36, 36
1, 568901, Note_on_c, 0, 48, 36
1, 568901, Note_on_c, 0, 86, 43
1, 568901, Note_on_c, 0, 72, 23
1, 568901, Note_on_c, 0, 24, 36
1, 568901, Note_on_c, 0, 36, 36
1, 568901, Note_on_c, 0, 74, 43
1, 568901, Note_on_c, 0, 60, 23
1, 569093, Note_off_c, 0, 60, 0
1, 569093, Note_off_c, 0, 36, 0
1, 569093, Note_off_c, 0, 24, 0
1, 569093, Note_off_c, 0, 72, 0
1, 569093, Note_off_c, 0, 48, 0
1, 569093, Note_off_c, 0, 36, 0
1, 569093, Note_on_c, 0, 36, 36
1, 569093, Note_on_c, 0, 48, 36
1, 569093, Note_on_c, 0, 60, 23
1, 569093, Note_on_c, 0, 24, 36
1, 569093, Note_on_c, 0, 36, 36
1, 569093, Note_on_c, 0, 48, 23
1, 569285, Note_off_c, 0, 36, 0
1, 569285, Note_off_c, 0, 24, 0
1, 569285, Note_off_c, 0, 48, 0
1, 569285, Note_off_c, 0, 36, 0
1, 569285, Note_on_c, 0, 36, 36
1, 569285, Note_on_c, 0, 48, 36
1, 569285, Note_on_c, 0, 24, 36
1, 569285, Note_on_c, 0, 36, 36
1, 569381, Note_off_c, 0, 48, 0
1, 569381, Note_off_c, 0, 60, 0
1, 569381, Note_off_c, 0, 74, 0
1, 569381, Note_off_c, 0, 86, 0
1, 569477, Note_off_c, 0, 36, 0
1, 569477, Note_off_c, 0, 24, 0
1, 569477, Note_off_c, 0, 48, 0
1, 569477, Note_off_c, 0, 36, 0
1, 569477, Note_on_c, 0, 36, 36
1, 569477, Note_on_c, 0, 48, 36
1, 569477, Note_on_c, 0, 93, 43
1, 569477, Note_on_c, 0, 67, 23
1, 569477, Note_on_c, 0, 24, 36
1, 569477, Note_on_c, 0, 36, 36
1, 569477, Note_on_c, 0, 81, 43
1, 569477, Note_on_c, 0, 55, 23
1, 569669, Note_off_c, 0, 55, 0
1, 569669, Note_off_c, 0, 36, 0
1, 569669, Note_off_c, 0, 24, 0
1, 569669, Note_off_c, 0, 67, 0
1, 569669, Note_off_c, 0, 48, 0
1, 569669, Note_off_c, 0, 36, 0
1, 569669, Note_on_c, 0, 36, 36
1, 569669, Note_on_c, 0, 48, 36
1, 569669, Note_on_c, 0, 72, 23
1, 569669, Note_on_c, 0, 24, 36
1, 569669, Note_on_c, 0, 36, 36
1, 569669, Note_on_c, 0, 60, 23
1, 569765, Note_off_c, 0, 81, 0
1, 569765, Note_off_c, 0, 93, 0
1, 569765, Note_off_c, 0, 69, 0
1, 569765, Note_off_c, 0, 81, 0
1, 569861, Note_off_c, 0, 60, 0
1, 569861, Note_off_c, 0, 36, 0
1, 569861, Note_off_c, 0, 24, 0
1, 569861, Note_off_c, 0, 72, 0
1, 569861, Note_off_c, 0, 48, 0
1, 569861, Note_off_c, 0, 36, 0
1, 569861, Note_on_c, 0, 35, 36
1, 569861, Note_on_c, 0, 47, 36
1, 569861, Note_on_c, 0, 81, 43
1, 569861, Note_on_c, 0, 88, 43
1, 569861, Note_on_c, 0, 59, 23
1, 569861, Note_on_c, 0, 24, 36
1, 569861, Note_on_c, 0, 35, 36
1, 569861, Note_on_c, 0, 69, 43
1, 569861, Note_on_c, 0, 76, 43
1, 569861, Note_on_c, 0, 47, 23
1, 570053, Note_off_c, 0, 35, 0
1, 570053, Note_off_c, 0, 24, 0
1, 570053, Note_off_c, 0, 47, 0
1, 570053, Note_off_c, 0, 35, 0
1, 570053, Note_on_c, 0, 35, 36
1, 570053, Note_on_c, 0, 47, 36
1, 570053, Note_on_c, 0, 24, 36
1, 570053, Note_on_c, 0, 35, 36
1, 570149, Note_off_c, 0, 47, 0
1, 570149, Note_off_c, 0, 59, 0
1, 570245, Note_off_c, 0, 35, 0
1, 570245, Note_off_c, 0, 24, 0
1, 570245, Note_off_c, 0, 47, 0
1, 570245, Note_off_c, 0, 35, 0
1, 570245, Note_on_c, 0, 35, 36
1, 570245, Note_on_c, 0, 47, 36
1, 570245, Note_on_c, 0, 67, 23
1, 570245, Note_on_c, 0, 24, 36
1, 570245, Note_on_c, 0, 35, 36
1, 570245, Note_on_c, 0, 55, 23
1, 570437, Note_off_c, 0, 55, 0
1, 570437, Note_off_c, 0, 35, 0
1, 570437, Note_off_c, 0, 24, 0
1, 570437, Note_off_c, 0, 67, 0
1, 570437, Note_off_c, 0, 47, 0
1, 570437, Note_off_c, 0, 35, 0
1, 570437, Note_on_c, 0, 35, 36
1, 570437, Note_on_c, 0, 47, 36
1, 570437, Note_on_c, 0, 71, 23
1, 570437, Note_on_c, 0, 24, 36
1, 570437, Note_on_c, 0, 35, 36
1, 570437, Note_on_c, 0, 59, 23
1, 570629, Note_off_c, 0, 59, 0
1, 570629, Note_off_c, 0, 35, 0
1, 570629, Note_off_c, 0, 24, 0
1, 570629, Note_off_c, 0, 71, 0
1, 570629, Note_off_c, 0, 47, 0
1, 570629, Note_off_c, 0, 35, 0
1, 570629, Note_on_c, 0, 35, 36
1, 570629, Note_on_c, 0, 47, 36
1, 570629, Note_on_c, 0, 59, 23
1, 570629, Note_on_c, 0, 24, 36
1, 570629, Note_on_c, 0, 35, 36
1, 570629, Note_on_c, 0, 47, 23
1, 570821, Note_off_c, 0, 35, 0
1, 570821, Note_off_c, 0, 24, 0
1, 570821, Note_off_c, 0, 47, 0
1, 570821, Note_off_c, 0, 35, 0
1, 570821, Note_on_c, 0, 35, 36
1, 570821, Note_on_c, 0, 47, 36
1, 570821, Note_on_c, 0, 24, 36
1, 570821, Note_on_c, 0, 35, 36
1, 570917, Note_off_c, 0, 47, 0
1, 570917, Note_off_c, 0, 59, 0
1, 571013, Note_off_c, 0, 35, 0
1, 571013, Note_off_c, 0, 24, 0
1, 571013, Note_off_c, 0, 47, 0
1, 571013, Note_off_c, 0, 35, 0
1, 571013, Note_on_c, 0, 35, 36
1, 571013, Note_on_c, 0, 47, 36
1, 571013, Note_on_c, 0, 67, 23
1, 571013, Note_on_c, 0, 24, 36
1, 571013, Note_on_c, 0, 35, 36
1, 571013, Note_on_c, 0, 55, 23
1, 571205, Note_off_c, 0, 55, 0
1, 571205, Note_off_c, 0, 35, 0
1, 571205, Note_off_c, 0, 24, 0
1, 571205, Note_off_c, 0, 67, 0
1, 571205, Note_off_c, 0, 47, 0
1, 571205, Note_off_c, 0, 35, 0
1, 571205, Note_on_c, 0, 35, 36
1, 571205, Note_on_c, 0, 47, 36
1, 571205, Note_on_c, 0, 71, 23
1, 571205, Note_on_c, 0, 24, 36
1, 571205, Note_on_c, 0, 35, 36
1, 571205, Note_on_c, 0, 59, 23
1, 571301, Note_off_c, 0, 76, 0
1, 571301, Note_off_c, 0, 69, 0
1, 571301, Note_off_c, 0, 88, 0
1, 571301, Note_off_c, 0, 81, 0
1, 571397, Note_off_c, 0, 59, 0
1, 571397, Note_off_c, 0, 35, 0
1, 571397, Note_off_c, 0, 24, 0
1, 571397, Note_off_c, 0, 71, 0
1, 571397, Note_off_c, 0, 47, 0
1, 571397, Note_off_c, 0, 35, 0
1, 571397, Note_on_c, 0, 35, 36
1, 571397, Note_on_c, 0, 47, 36
1, 571397, Note_on_c, 0, 88, 43
1, 571397, Note_on_c, 0, 81, 43
1, 571397, Note_on_c, 0, 59, 23
1, 571397, Note_on_c, 0, 24, 36
1, 571397, Note_on_c, 0, 35, 36
1, 571397, Note_on_c, 0, 76, 43
1, 571397, Note_on_c, 0, 69, 43
1, 571397, Note_on_c, 0, 47, 23
1, 571589, Note_off_c, 0, 35, 0
1, 571589, Note_off_c, 0, 24, 0
1, 571589, Note_off_c, 0, 47, 0
1, 571589, Note_off_c, 0, 35, 0
1, 571589, Note_on_c, 0, 35, 36
1, 571589, Note_on_c, 0, 47, 36
1, 571589, Note_on_c, 0, 24, 36
1, 571589, Note_on_c, 0, 35, 36
1, 571685, Note_off_c, 0, 47, 0
1, 571685, Note_off_c, 0, 59, 0
1, 571781, Note_off_c, 0, 35, 0
1, 571781, Note_off_c, 0, 24, 0
1, 571781, Note_off_c, 0, 47, 0
1, 571781, Note_off_c, 0, 35, 0
1, 571781, Note_on_c, 0, 35, 36
1, 571781, Note_on_c, 0, 47, 36
1, 571781, Note_on_c, 0, 67, 23
1, 571781, Note_on_c, 0, 24, 36
1, 571781, Note_on_c, 0, 35, 36
1, 571781, Note_on_c, 0, 55, 23
1, 571877, Note_off_c, 0, 76, 0
1, 571877, Note_off_c, 0, 88, 0
1, 571973, Note_off_c, 0, 55, 0
1, 571973, Note_off_c, 0, 35, 0
1, 571973, Note_off_c, 0, 24, 0
1, 571973, Note_off_c, 0, 67, 0
1, 571973, Note_off_c, 0, 47, 0
1, 571973, Note_off_c, 0, 35, 0
1, 571973, Note_on_c, 0, 35, 36
1, 571973, Note_on_c, 0, 47, 36
1, 571973, Note_on_c, 0, 86, 43
1, 571973, Note_on_c, 0, 71, 23
1, 571973, Note_on_c, 0, 24, 36
1, 571973, Note_on_c, 0, 35, 36
1, 571973, Note_on_c, 0, 74, 43
1, 571973, Note_on_c, 0, 59, 23
1, 572165, Note_off_c, 0, 59, 0
1, 572165, Note_off_c, 0, 35, 0
1, 572165, Note_off_c, 0, 24, 0
1, 572165, Note_off_c, 0, 71, 0
1, 572165, Note_off_c, 0, 47, 0
1, 572165, Note_off_c, 0, 35, 0
1, 572165, Note_on_c, 0, 35, 36
1, 572165, Note_on_c, 0, 47, 36
1, 572165, Note_on_c, 0, 59, 23
1, 572165, Note_on_c, 0, 24, 36
1, 572165, Note_on_c, 0, 35, 36
1, 572165, Note_on_c, 0, 47, 23
1, 572357, Note_off_c, 0, 35, 0
1, 572357, Note_off_c, 0, 24, 0
1, 572357, Note_off_c, 0, 47, 0
1, 572357, Note_off_c, 0, 35, 0
1, 572357, Note_on_c, 0, 35, 36
1, 572357, Note_on_c, 0, 47, 36
1, 572357, Note_on_c, 0, 24, 36
1, 572357, Note_on_c, 0, 35, 36
1, 572453, Note_off_c, 0, 47, 0
1, 572453, Note_off_c, 0, 59, 0
1, 572453, Note_off_c, 0, 74, 0
1, 572453, Note_off_c, 0, 86, 0
1, 572549, Note_off_c, 0, 35, 0
1, 572549, Note_off_c, 0, 24, 0
1, 572549, Note_off_c, 0, 47, 0
1, 572549, Note_off_c, 0, 35, 0
1, 572549, Note_on_c, 0, 35, 36
1, 572549, Note_on_c, 0, 47, 36
1, 572549, Note_on_c, 0, 93, 43
1, 572549, Note_on_c, 0, 67, 23
1, 572549, Note_on_c, 0, 24, 36
1, 572549, Note_on_c, 0, 35, 36
1, 572549, Note_on_c, 0, 81, 43
1, 572549, Note_on_c, 0, 55, 23
1, 572741, Note_off_c, 0, 55, 0
1, 572741, Note_off_c, 0, 35, 0
1, 572741, Note_off_c, 0, 24, 0
1, 572741, Note_off_c, 0, 67, 0
1, 572741, Note_off_c, 0, 47, 0
1, 572741, Note_off_c, 0, 35, 0
1, 572741, Note_on_c, 0, 35, 36
1, 572741, Note_on_c, 0, 47, 36
1, 572741, Note_on_c, 0, 71, 23
1, 572741, Note_on_c, 0, 24, 36
1, 572741, Note_on_c, 0, 35, 36
1, 572741, Note_on_c, 0, 59, 23
1, 572837, Note_off_c, 0, 81, 0
1, 572837, Note_off_c, 0, 93, 0
1, 572837, Note_off_c, 0, 69, 0
1, 572837, Note_off_c, 0, 81, 0
1, 572933, Note_off_c, 0, 59, 0
1, 572933, Note_off_c, 0, 35, 0
1, 572933, Note_off_c, 0, 24, 0
1, 572933, Note_off_c, 0, 71, 0
1, 572933, Note_off_c, 0, 47, 0
1, 572933, Note_off_c, 0, 35, 0
1, 572933, Note_on_c, 0, 34, 36
1, 572933, Note_on_c, 0, 46, 36
1, 572933, Note_on_c, 0, 88, 43
1, 572933, Note_on_c, 0, 58, 23
1, 572933, Note_on_c, 0, 24, 36
1, 572933, Note_on_c, 0, 34, 36
1, 572933, Note_on_c, 0, 76, 43
1, 572933, Note_on_c, 0, 46, 23
1, 573029, Note_off_c, 0, 34, 0
1, 573029, Note_off_c, 0, 24, 0
1, 573029, Note_off_c, 0, 46, 0
1, 573029, Note_off_c, 0, 34, 0
1, 573029, Note_on_c, 0, 34, 36
1, 573029, Note_on_c, 0, 46, 36
1, 573029, Note_on_c, 0, 24, 36
1, 573029, Note_on_c, 0, 34, 36
1, 573125, Note_off_c, 0, 34, 0
1, 573125, Note_off_c, 0, 24, 0
1, 573125, Note_off_c, 0, 46, 0
1, 573125, Note_off_c, 0, 34, 0
1, 573125, Note_on_c, 0, 34, 36
1, 573125, Note_on_c, 0, 46, 36
1, 573125, Note_on_c, 0, 24, 36
1, 573125, Note_on_c, 0, 34, 36
1, 573221, Note_off_c, 0, 34, 0
1, 573221, Note_off_c, 0, 24, 0
1, 573221, Note_off_c, 0, 46, 0
1, 573221, Note_off_c, 0, 34, 0
1, 573221, Note_off_c, 0, 46, 0
1, 573221, Note_off_c, 0, 58, 0
1, 573221, Note_on_c, 0, 34, 36
1, 573221, Note_on_c, 0, 46, 36
1, 573221, Note_on_c, 0, 24, 36
1, 573221, Note_on_c, 0, 34, 36
1, 573317, Note_off_c, 0, 34, 0
1, 573317, Note_off_c, 0, 24, 0
1, 573317, Note_off_c, 0, 46, 0
1, 573317, Note_off_c, 0, 34, 0
1, 573317, Note_on_c, 0, 34, 36
1, 573317, Note_on_c, 0, 46, 36
1, 573317, Note_on_c, 0, 65, 23
1, 573317, Note_on_c, 0, 24, 36
1, 573317, Note_on_c, 0, 34, 36
1, 573317, Note_on_c, 0, 53, 23
1, 573413, Note_off_c, 0, 76, 0
1, 573413, Note_off_c, 0, 88, 0
1, 573509, Note_off_c, 0, 53, 0
1, 573509, Note_off_c, 0, 34, 0
1, 573509, Note_off_c, 0, 24, 0
1, 573509, Note_off_c, 0, 65, 0
1, 573509, Note_off_c, 0, 46, 0
1, 573509, Note_off_c, 0, 34, 0
1, 573509, Note_on_c, 0, 34, 36
1, 573509, Note_on_c, 0, 46, 36
1, 573509, Note_on_c, 0, 86, 43
1, 573509, Note_on_c, 0, 70, 23
1, 573509, Note_on_c, 0, 24, 36
1, 573509, Note_on_c, 0, 34, 36
1, 573509, Note_on_c, 0, 74, 43
1, 573509, Note_on_c, 0, 58, 23
1, 573701, Note_off_c, 0, 58, 0
1, 573701, Note_off_c, 0, 34, 0
1, 573701, Note_off_c, 0, 24, 0
1, 573701, Note_off_c, 0, 70, 0
1, 573701, Note_off_c, 0, 46, 0
1, 573701, Note_off_c, 0, 34, 0
1, 573701, Note_on_c, 0, 34, 36
1, 573701, Note_on_c, 0, 46, 36
1, 573701, Note_on_c, 0, 58, 23
1, 573701, Note_on_c, 0, 24, 36
1, 573701, Note_on_c, 0, 34, 36
1, 573701, Note_on_c, 0, 46, 23
1, 573797, Note_off_c, 0, 34, 0
1, 573797, Note_off_c, 0, 24, 0
1, 573797, Note_off_c, 0, 46, 0
1, 573797, Note_off_c, 0, 34, 0
1, 573797, Note_on_c, 0, 34, 36
1, 573797, Note_on_c, 0, 46, 36
1, 573797, Note_on_c, 0, 24, 36
1, 573797, Note_on_c, 0, 34, 36
1, 573893, Note_off_c, 0, 34, 0
1, 573893, Note_off_c, 0, 24, 0
1, 573893, Note_off_c, 0, 46, 0
1, 573893, Note_off_c, 0, 34, 0
1, 573893, Note_on_c, 0, 34, 36
1, 573893, Note_on_c, 0, 46, 36
1, 573893, Note_on_c, 0, 24, 36
1, 573893, Note_on_c, 0, 34, 36
1, 573989, Note_off_c, 0, 34, 0
1, 573989, Note_off_c, 0, 24, 0
1, 573989, Note_off_c, 0, 46, 0
1, 573989, Note_off_c, 0, 34, 0
1, 573989, Note_off_c, 0, 46, 0
1, 573989, Note_off_c, 0, 58, 0
1, 573989, Note_off_c, 0, 74, 0
1, 573989, Note_off_c, 0, 86, 0
1, 573989, Note_on_c, 0, 34, 36
1, 573989, Note_on_c, 0, 46, 36
1, 573989, Note_on_c, 0, 24, 36
1, 573989, Note_on_c, 0, 34, 36
1, 574085, Note_off_c, 0, 34, 0
1, 574085, Note_off_c, 0, 24, 0
1, 574085, Note_off_c, 0, 46, 0
1, 574085, Note_off_c, 0, 34, 0
1, 574085, Note_on_c, 0, 34, 36
1, 574085, Note_on_c, 0, 46, 36
1, 574085, Note_on_c, 0, 88, 43
1, 574085, Note_on_c, 0, 65, 23
1, 574085, Note_on_c, 0, 24, 36
1, 574085, Note_on_c, 0, 34, 36
1, 574085, Note_on_c, 0, 76, 43
1, 574085, Note_on_c, 0, 53, 23
1, 574277, Note_off_c, 0, 53, 0
1, 574277, Note_off_c, 0, 34, 0
1, 574277, Note_off_c, 0, 24, 0
1, 574277, Note_off_c, 0, 65, 0
1, 574277, Note_off_c, 0, 46, 0
1, 574277, Note_off_c, 0, 34, 0
1, 574277, Note_on_c, 0, 34, 36
1, 574277, Note_on_c, 0, 46, 36
1, 574277, Note_on_c, 0, 70, 23
1, 574277, Note_on_c, 0, 24, 36
1, 574277, Note_on_c, 0, 34, 36
1, 574277, Note_on_c, 0, 58, 23
1, 574373, Note_off_c, 0, 76, 0
1, 574373, Note_off_c, 0, 88, 0
1, 574469, Note_off_c, 0, 58, 0
1, 574469, Note_off_c, 0, 34, 0
1, 574469, Note_off_c, 0, 24, 0
1, 574469, Note_off_c, 0, 70, 0
1, 574469, Note_off_c, 0, 46, 0
1, 574469, Note_off_c, 0, 34, 0
1, 574469, Note_on_c, 0, 36, 36
1, 574469, Note_on_c, 0, 48, 36
1, 574469, Note_on_c, 0, 89, 43
1, 574469, Note_on_c, 0, 60, 23
1, 574469, Note_on_c, 0, 24, 36
1, 574469, Note_on_c, 0, 36, 36
1, 574469, Note_on_c, 0, 77, 43
1, 574469, Note_on_c, 0, 48, 23
1, 574565, Note_off_c, 0, 36, 0
1, 574565, Note_off_c, 0, 24, 0
1, 574565, Note_off_c, 0, 48, 0
1, 574565, Note_off_c, 0, 36, 0
1, 574565, Note_on_c, 0, 36, 36
1, 574565, Note_on_c, 0, 48, 36
1, 574565, Note_on_c, 0, 24, 36
1, 574565, Note_on_c, 0, 36, 36
1, 574661, Note_off_c, 0, 36, 0
1, 574661, Note_off_c, 0, 24, 0
1, 574661, Note_off_c, 0, 48, 0
1, 574661, Note_off_c, 0, 36, 0
1, 574661, Note_on_c, 0, 36, 36
1, 574661, Note_on_c, 0, 48, 36
1, 574661, Note_on_c, 0, 24, 36
1, 574661, Note_on_c, 0, 36, 36
1, 574757, Note_off_c, 0, 36, 0
1, 574757, Note_off_c, 0, 24, 0
1, 574757, Note_off_c, 0, 48, 0
1, 574757, Note_off_c, 0, 36, 0
1, 574757, Note_off_c, 0, 48, 0
1, 574757, Note_off_c, 0, 77, 0
1, 574757, Note_off_c, 0, 60, 0
1, 574757, Note_off_c, 0, 89, 0
1, 574757, Note_on_c, 0, 36, 36
1, 574757, Note_on_c, 0, 48, 36
1, 574757, Note_on_c, 0, 24, 36
1, 574757, Note_on_c, 0, 36, 36
1, 574853, Note_off_c, 0, 36, 0
1, 574853, Note_off_c, 0, 24, 0
1, 574853, Note_off_c, 0, 48, 0
1, 574853, Note_off_c, 0, 36, 0
1, 574853, Note_on_c, 0, 36, 36
1, 574853, Note_on_c, 0, 48, 36
1, 574853, Note_on_c, 0, 88, 43
1, 574853, Note_on_c, 0, 67, 23
1, 574853, Note_on_c, 0, 24, 36
1, 574853, Note_on_c, 0, 36, 36
1, 574853, Note_on_c, 0, 76, 43
1, 574853, Note_on_c, 0, 55, 23
1, 575045, Note_off_c, 0, 55, 0
1, 575045, Note_off_c, 0, 36, 0
1, 575045, Note_off_c, 0, 24, 0
1, 575045, Note_off_c, 0, 67, 0
1, 575045, Note_off_c, 0, 48, 0
1, 575045, Note_off_c, 0, 36, 0
1, 575045, Note_on_c, 0, 36, 36
1, 575045, Note_on_c, 0, 48, 36
1, 575045, Note_on_c, 0, 72, 23
1, 575045, Note_on_c, 0, 24, 36
1, 575045, Note_on_c, 0, 36, 36
1, 575045, Note_on_c, 0, 60, 23
1, 575141, Note_off_c, 0, 76, 0
1, 575141, Note_off_c, 0, 88, 0
1, 575237, Note_off_c, 0, 60, 0
1, 575237, Note_off_c, 0, 36, 0
1, 575237, Note_off_c, 0, 24, 0
1, 575237, Note_off_c, 0, 72, 0
1, 575237, Note_off_c, 0, 48, 0
1, 575237, Note_off_c, 0, 36, 0
1, 575237, Note_on_c, 0, 36, 36
1, 575237, Note_on_c, 0, 48, 36
1, 575237, Note_on_c, 0, 89, 43
1, 575237, Note_on_c, 0, 60, 23
1, 575237, Note_on_c, 0, 24, 36
1, 575237, Note_on_c, 0, 36, 36
1, 575237, Note_on_c, 0, 77, 43
1, 575237, Note_on_c, 0, 48, 23
1, 575333, Note_off_c, 0, 36, 0
1, 575333, Note_off_c, 0, 24, 0
1, 575333, Note_off_c, 0, 48, 0
1, 575333, Note_off_c, 0, 36, 0
1, 575333, Note_on_c, 0, 36, 36
1, 575333, Note_on_c, 0, 48, 36
1, 575333, Note_on_c, 0, 24, 36
1, 575333, Note_on_c, 0, 36, 36
1, 575429, Note_off_c, 0, 36, 0
1, 575429, Note_off_c, 0, 24, 0
1, 575429, Note_off_c, 0, 48, 0
1, 575429, Note_off_c, 0, 36, 0
1, 575429, Note_on_c, 0, 36, 36
1, 575429, Note_on_c, 0, 48, 36
1, 575429, Note_on_c, 0, 24, 36
1, 575429, Note_on_c, 0, 36, 36
1, 575525, Note_off_c, 0, 36, 0
1, 575525, Note_off_c, 0, 24, 0
1, 575525, Note_off_c, 0, 48, 0
1, 575525, Note_off_c, 0, 36, 0
1, 575525, Note_off_c, 0, 48, 0
1, 575525, Note_off_c, 0, 77, 0
1, 575525, Note_off_c, 0, 60, 0
1, 575525, Note_off_c, 0, 89, 0
1, 575525, Note_on_c, 0, 36, 36
1, 575525, Note_on_c, 0, 48, 36
1, 575525, Note_on_c, 0, 24, 36
1, 575525, Note_on_c, 0, 36, 36
1, 575621, Note_off_c, 0, 36, 0
1, 575621, Note_off_c, 0, 24, 0
1, 575621, Note_off_c, 0, 48, 0
1, 575621, Note_off_c, 0, 36, 0
1, 575621, Note_on_c, 0, 36, 36
1, 575621, Note_on_c, 0, 48, 36
1, 575621, Note_on_c, 0, 88, 43
1, 575621, Note_on_c, 0, 67, 23
1, 575621, Note_on_c, 0, 24, 36
1, 575621, Note_on_c, 0, 36, 36
1, 575621, Note_on_c, 0, 76, 43
1, 575621, Note_on_c, 0, 55, 23
1, 575813, Note_off_c, 0, 55, 0
1, 575813, Note_off_c, 0, 36, 0
1, 575813, Note_off_c, 0, 24, 0
1, 575813, Note_off_c, 0, 67, 0
1, 575813, Note_off_c, 0, 48, 0
1, 575813, Note_off_c, 0, 36, 0
1, 575813, Note_on_c, 0, 36, 36
1, 575813, Note_on_c, 0, 48, 36
1, 575813, Note_on_c, 0, 72, 23
1, 575813, Note_on_c, 0, 24, 36
1, 575813, Note_on_c, 0, 36, 36
1, 575813, Note_on_c, 0, 60, 23
1, 575909, Note_off_c, 0, 76, 0
1, 575909, Note_off_c, 0, 88, 0
1, 576005, Note_off_c, 0, 60, 0
1, 576005, Note_off_c, 0, 36, 0
1, 576005, Note_off_c, 0, 24, 0
1, 576005, Note_off_c, 0, 72, 0
1, 576005, Note_off_c, 0, 48, 0
1, 576005, Note_off_c, 0, 36, 0
1, 576005, Note_on_c, 0, 38, 36
1, 576005, Note_on_c, 0, 50, 36
1, 576005, Note_on_c, 0, 81, 43
1, 576005, Note_on_c, 0, 88, 43
1, 576005, Note_on_c, 0, 62, 23
1, 576005, Note_on_c, 0, 26, 36
1, 576005, Note_on_c, 0, 38, 36
1, 576005, Note_on_c, 0, 69, 43
1, 576005, Note_on_c, 0, 76, 43
1, 576005, Note_on_c, 0, 50, 23
1, 576197, Note_off_c, 0, 38, 0
1, 576197, Note_off_c, 0, 26, 0
1, 576197, Note_off_c, 0, 50, 0
1, 576197, Note_off_c, 0, 38, 0
1, 576197, Note_on_c, 0, 38, 36
1, 576197, Note_on_c, 0, 50, 36
1, 576197, Note_on_c, 0, 26, 36
1, 576197, Note_on_c, 0, 38, 36
1, 576293, Note_off_c, 0, 50, 0
1, 576293, Note_off_c, 0, 62, 0
1, 576389, Note_off_c, 0, 38, 0
1, 576389, Note_off_c, 0, 26, 0
1, 576389, Note_off_c, 0, 50, 0
1, 576389, Note_off_c, 0, 38, 0
1, 576389, Note_on_c, 0, 38, 36
1, 576389, Note_on_c, 0, 50, 36
1, 576389, Note_on_c, 0, 69, 23
1, 576389, Note_on_c, 0, 26, 36
1, 576389, Note_on_c, 0, 38, 36
1, 576389, Note_on_c, 0, 57, 23
1, 576581, Note_off_c, 0, 57, 0
1, 576581, Note_off_c, 0, 38, 0
1, 576581, Note_off_c, 0, 26, 0
1, 576581, Note_off_c, 0, 69, 0
1, 576581, Note_off_c, 0, 50, 0
1, 576581, Note_off_c, 0, 38, 0
1, 576581, Note_on_c, 0, 38, 36
1, 576581, Note_on_c, 0, 50, 36
1, 576581, Note_on_c, 0, 74, 23
1, 576581, Note_on_c, 0, 26, 36
1, 576581, Note_on_c, 0, 38, 36
1, 576581, Note_on_c, 0, 62, 23
1, 576773, Note_off_c, 0, 62, 0
1, 576773, Note_off_c, 0, 38, 0
1, 576773, Note_off_c, 0, 26, 0
1, 576773, Note_off_c, 0, 74, 0
1, 576773, Note_off_c, 0, 50, 0
1, 576773, Note_off_c, 0, 38, 0
1, 576773, Note_on_c, 0, 38, 36
1, 576773, Note_on_c, 0, 50, 36
1, 576773, Note_on_c, 0, 62, 23
1, 576773, Note_on_c, 0, 26, 36
1, 576773, Note_on_c, 0, 38, 36
1, 576773, Note_on_c, 0, 50, 23
1, 576965, Note_off_c, 0, 38, 0
1, 576965, Note_off_c, 0, 26, 0
1, 576965, Note_off_c, 0, 50, 0
1, 576965, Note_off_c, 0, 38, 0
1, 576965, Note_on_c, 0, 38, 36
1, 576965, Note_on_c, 0, 50, 36
1, 576965, Note_on_c, 0, 26, 36
1, 576965, Note_on_c, 0, 38, 36
1, 577061, Note_off_c, 0, 50, 0
1, 577061, Note_off_c, 0, 62, 0
1, 577157, Note_off_c, 0, 38, 0
1, 577157, Note_off_c, 0, 26, 0
1, 577157, Note_off_c, 0, 50, 0
1, 577157, Note_off_c, 0, 38, 0
1, 577157, Note_on_c, 0, 38, 36
1, 577157, Note_on_c, 0, 50, 36
1, 577157, Note_on_c, 0, 69, 23
1, 577157, Note_on_c, 0, 26, 36
1, 577157, Note_on_c, 0, 38, 36
1, 577157, Note_on_c, 0, 57, 23
1, 577349, Note_off_c, 0, 57, 0
1, 577349, Note_off_c, 0, 38, 0
1, 577349, Note_off_c, 0, 26, 0
1, 577349, Note_off_c, 0, 69, 0
1, 577349, Note_off_c, 0, 50, 0
1, 577349, Note_off_c, 0, 38, 0
1, 577349, Note_on_c, 0, 38, 36
1, 577349, Note_on_c, 0, 50, 36
1, 577349, Note_on_c, 0, 74, 23
1, 577349, Note_on_c, 0, 26, 36
1, 577349, Note_on_c, 0, 38, 36
1, 577349, Note_on_c, 0, 62, 23
1, 577445, Note_off_c, 0, 76, 0
1, 577445, Note_off_c, 0, 69, 0
1, 577445, Note_off_c, 0, 88, 0
1, 577445, Note_off_c, 0, 81, 0
1, 577541, Note_off_c, 0, 62, 0
1, 577541, Note_off_c, 0, 38, 0
1, 577541, Note_off_c, 0, 26, 0
1, 577541, Note_off_c, 0, 74, 0
1, 577541, Note_off_c, 0, 50, 0
1, 577541, Note_off_c, 0, 38, 0
1, 577541, Note_on_c, 0, 38, 36
1, 577541, Note_on_c, 0, 50, 36
1, 577541, Note_on_c, 0, 88, 43
1, 577541, Note_on_c, 0, 81, 43
1, 577541, Note_on_c, 0, 62, 23
1, 577541, Note_on_c, 0, 26, 36
1, 577541, Note_on_c, 0, 38, 36
1, 577541, Note_on_c, 0, 76, 43
1, 577541, Note_on_c, 0, 69, 43
1, 577541, Note_on_c, 0, 50, 23
1, 577733, Note_off_c, 0, 38, 0
1, 577733, Note_off_c, 0, 26, 0
1, 577733, Note_off_c, 0, 50, 0
1, 577733, Note_off_c, 0, 38, 0
1, 577733, Note_on_c, 0, 38, 36
1, 577733, Note_on_c, 0, 50, 36
1, 577733, Note_on_c, 0, 26, 36
1, 577733, Note_on_c, 0, 38, 36
1, 577829, Note_off_c, 0, 50, 0
1, 577829, Note_off_c, 0, 62, 0
1, 577925, Note_off_c, 0, 38, 0
1, 577925, Note_off_c, 0, 26, 0
1, 577925, Note_off_c, 0, 50, 0
1, 577925, Note_off_c, 0, 38, 0
1, 577925, Note_on_c, 0, 38, 36
1, 577925, Note_on_c, 0, 50, 36
1, 577925, Note_on_c, 0, 69, 23
1, 577925, Note_on_c, 0, 26, 36
1, 577925, Note_on_c, 0, 38, 36
1, 577925, Note_on_c, 0, 57, 23
1, 578021, Note_off_c, 0, 76, 0
1, 578021, Note_off_c, 0, 88, 0
1, 578117, Note_off_c, 0, 57, 0
1, 578117, Note_off_c, 0, 38, 0
1, 578117, Note_off_c, 0, 26, 0
1, 578117, Note_off_c, 0, 69, 0
1, 578117, Note_off_c, 0, 50, 0
1, 578117, Note_off_c, 0, 38, 0
1, 578117, Note_on_c, 0, 38, 36
1, 578117, Note_on_c, 0, 50, 36
1, 578117, Note_on_c, 0, 86, 43
1, 578117, Note_on_c, 0, 74, 23
1, 578117, Note_on_c, 0, 26, 36
1, 578117, Note_on_c, 0, 38, 36
1, 578117, Note_on_c, 0, 74, 43
1, 578117, Note_on_c, 0, 62, 23
1, 578309, Note_off_c, 0, 62, 0
1, 578309, Note_off_c, 0, 38, 0
1, 578309, Note_off_c, 0, 26, 0
1, 578309, Note_off_c, 0, 74, 0
1, 578309, Note_off_c, 0, 50, 0
1, 578309, Note_off_c, 0, 38, 0
1, 578309, Note_on_c, 0, 38, 36
1, 578309, Note_on_c, 0, 50, 36
1, 578309, Note_on_c, 0, 62, 23
1, 578309, Note_on_c, 0, 26, 36
1, 578309, Note_on_c, 0, 38, 36
1, 578309, Note_on_c, 0, 50, 23
1, 578501, Note_off_c, 0, 38, 0
1, 578501, Note_off_c, 0, 26, 0
1, 578501, Note_off_c, 0, 50, 0
1, 578501, Note_off_c, 0, 38, 0
1, 578501, Note_on_c, 0, 38, 36
1, 578501, Note_on_c, 0, 50, 36
1, 578501, Note_on_c, 0, 26, 36
1, 578501, Note_on_c, 0, 38, 36
1, 578597, Note_off_c, 0, 50, 0
1, 578597, Note_off_c, 0, 62, 0
1, 578597, Note_off_c, 0, 74, 0
1, 578597, Note_off_c, 0, 86, 0
1, 578693, Note_off_c, 0, 38, 0
1, 578693, Note_off_c, 0, 26, 0
1, 578693, Note_off_c, 0, 50, 0
1, 578693, Note_off_c, 0, 38, 0
1, 578693, Note_on_c, 0, 38, 36
1, 578693, Note_on_c, 0, 50, 36
1, 578693, Note_on_c, 0, 93, 43
1, 578693, Note_on_c, 0, 69, 23
1, 578693, Note_on_c, 0, 26, 36
1, 578693, Note_on_c, 0, 38, 36
1, 578693, Note_on_c, 0, 81, 43
1, 578693, Note_on_c, 0, 57, 23
1, 578885, Note_off_c, 0, 57, 0
1, 578885, Note_off_c, 0, 38, 0
1, 578885, Note_off_c, 0, 26, 0
1, 578885, Note_off_c, 0, 69, 0
1, 578885, Note_off_c, 0, 50, 0
1, 578885, Note_off_c, 0, 38, 0
1, 578885, Note_on_c, 0, 38, 36
1, 578885, Note_on_c, 0, 50, 36
1, 578885, Note_on_c, 0, 74, 23
1, 578885, Note_on_c, 0, 26, 36
1, 578885, Note_on_c, 0, 38, 36
1, 578885, Note_on_c, 0, 62, 23
1, 578981, Note_off_c, 0, 81, 0
1, 578981, Note_off_c, 0, 93, 0
1, 578981, Note_off_c, 0, 69, 0
1, 578981, Note_off_c, 0, 81, 0
1, 579077, Note_off_c, 0, 62, 0
1, 579077, Note_off_c, 0, 38, 0
1, 579077, Note_off_c, 0, 26, 0
1, 579077, Note_off_c, 0, 74, 0
1, 579077, Note_off_c, 0, 50, 0
1, 579077, Note_off_c, 0, 38, 0
1, 579077, Note_on_c, 0, 36, 36
1, 579077, Note_on_c, 0, 48, 36
1, 579077, Note_on_c, 0, 81, 43
1, 579077, Note_on_c, 0, 88, 43
1, 579077, Note_on_c, 0, 60, 23
1, 579077, Note_on_c, 0, 24, 36
1, 579077, Note_on_c, 0, 36, 36
1, 579077, Note_on_c, 0, 69, 43
1, 579077, Note_on_c, 0, 76, 43
1, 579077, Note_on_c, 0, 48, 23
1, 579269, Note_off_c, 0, 36, 0
1, 579269, Note_off_c, 0, 24, 0
1, 579269, Note_off_c, 0, 48, 0
1, 579269, Note_off_c, 0, 36, 0
1, 579269, Note_on_c, 0, 36, 36
1, 579269, Note_on_c, 0, 48, 36
1, 579269, Note_on_c, 0, 24, 36
1, 579269, Note_on_c, 0, 36, 36
1, 579365, Note_off_c, 0, 48, 0
1, 579365, Note_off_c, 0, 60, 0
1, 579461, Note_off_c, 0, 36, 0
1, 579461, Note_off_c, 0, 24, 0
1, 579461, Note_off_c, 0, 48, 0
1, 579461, Note_off_c, 0, 36, 0
1, 579461, Note_on_c, 0, 36, 36
1, 579461, Note_on_c, 0, 48, 36
1, 579461, Note_on_c, 0, 67, 23
1, 579461, Note_on_c, 0, 24, 36
1, 579461, Note_on_c, 0, 36, 36
1, 579461, Note_on_c, 0, 55, 23
1, 579653, Note_off_c, 0, 55, 0
1, 579653, Note_off_c, 0, 36, 0
1, 579653, Note_off_c, 0, 24, 0
1, 579653, Note_off_c, 0, 67, 0
1, 579653, Note_off_c, 0, 48, 0
1, 579653, Note_off_c, 0, 36, 0
1, 579653, Note_on_c, 0, 36, 36
1, 579653, Note_on_c, 0, 48, 36
1, 579653, Note_on_c, 0, 72, 23
1, 579653, Note_on_c, 0, 24, 36
1, 579653, Note_on_c, 0, 36, 36
1, 579653, Note_on_c, 0, 60, 23
1, 579845, Note_off_c, 0, 60, 0
1, 579845, Note_off_c, 0, 36, 0
1, 579845, Note_off_c, 0, 24, 0
1, 579845, Note_off_c, 0, 72, 0
1, 579845, Note_off_c, 0, 48, 0
1, 579845, Note_off_c, 0, 36, 0
1, 579845, Note_on_c, 0, 36, 36
1, 579845, Note_on_c, 0, 48, 36
1, 579845, Note_on_c, 0, 60, 23
1, 579845, Note_on_c, 0, 24, 36
1, 579845, Note_on_c, 0, 36, 36
1, 579845, Note_on_c, 0, 48, 23
1, 580037, Note_off_c, 0, 36, 0
1, 580037, Note_off_c, 0, 24, 0
1, 580037, Note_off_c, 0, 48, 0
1, 580037, Note_off_c, 0, 36, 0
1, 580037, Note_on_c, 0, 36, 36
1, 580037, Note_on_c, 0, 48, 36
1, 580037, Note_on_c, 0, 24, 36
1, 580037, Note_on_c, 0, 36, 36
1, 580133, Note_off_c, 0, 48, 0
1, 580133, Note_off_c, 0, 60, 0
1, 580229, Note_off_c, 0, 36, 0
1, 580229, Note_off_c, 0, 24, 0
1, 580229, Note_off_c, 0, 48, 0
1, 580229, Note_off_c, 0, 36, 0
1, 580229, Note_on_c, 0, 36, 36
1, 580229, Note_on_c, 0, 48, 36
1, 580229, Note_on_c, 0, 67, 23
1, 580229, Note_on_c, 0, 24, 36
1, 580229, Note_on_c, 0, 36, 36
1, 580229, Note_on_c, 0, 55, 23
1, 580421, Note_off_c, 0, 55, 0
1, 580421, Note_off_c, 0, 36, 0
1, 580421, Note_off_c, 0, 24, 0
1, 580421, Note_off_c, 0, 67, 0
1, 580421, Note_off_c, 0, 48, 0
1, 580421, Note_off_c, 0, 36, 0
1, 580421, Note_on_c, 0, 36, 36
1, 580421, Note_on_c, 0, 48, 36
1, 580421, Note_on_c, 0, 72, 23
1, 580421, Note_on_c, 0, 24, 36
1, 580421, Note_on_c, 0, 36, 36
1, 580421, Note_on_c, 0, 60, 23
1, 580517, Note_off_c, 0, 76, 0
1, 580517, Note_off_c, 0, 69, 0
1, 580517, Note_off_c, 0, 88, 0
1, 580517, Note_off_c, 0, 81, 0
1, 580613, Note_off_c, 0, 60, 0
1, 580613, Note_off_c, 0, 36, 0
1, 580613, Note_off_c, 0, 24, 0
1, 580613, Note_off_c, 0, 72, 0
1, 580613, Note_off_c, 0, 48, 0
1, 580613, Note_off_c, 0, 36, 0
1, 580613, Note_on_c, 0, 36, 36
1, 580613, Note_on_c, 0, 48, 36
1, 580613, Note_on_c, 0, 88, 43
1, 580613, Note_on_c, 0, 81, 43
1, 580613, Note_on_c, 0, 60, 23
1, 580613, Note_on_c, 0, 24, 36
1, 580613, Note_on_c, 0, 36, 36
1, 580613, Note_on_c, 0, 76, 43
1, 580613, Note_on_c, 0, 69, 43
1, 580613, Note_on_c, 0, 48, 23
1, 580805, Note_off_c, 0, 36, 0
1, 580805, Note_off_c, 0, 24, 0
1, 580805, Note_off_c, 0, 48, 0
1, 580805, Note_off_c, 0, 36, 0
1, 580805, Note_on_c, 0, 36, 36
1, 580805, Note_on_c, 0, 48, 36
1, 580805, Note_on_c, 0, 24, 36
1, 580805, Note_on_c, 0, 36, 36
1, 580901, Note_off_c, 0, 48, 0
1, 580901, Note_off_c, 0, 60, 0
1, 580997, Note_off_c, 0, 36, 0
1, 580997, Note_off_c, 0, 24, 0
1, 580997, Note_off_c, 0, 48, 0
1, 580997, Note_off_c, 0, 36, 0
1, 580997, Note_on_c, 0, 36, 36
1, 580997, Note_on_c, 0, 48, 36
1, 580997, Note_on_c, 0, 67, 23
1, 580997, Note_on_c, 0, 24, 36
1, 580997, Note_on_c, 0, 36, 36
1, 580997, Note_on_c, 0, 55, 23
1, 581093, Note_off_c, 0, 76, 0
1, 581093, Note_off_c, 0, 88, 0
1, 581189, Note_off_c, 0, 55, 0
1, 581189, Note_off_c, 0, 36, 0
1, 581189, Note_off_c, 0, 24, 0
1, 581189, Note_off_c, 0, 67, 0
1, 581189, Note_off_c, 0, 48, 0
1, 581189, Note_off_c, 0, 36, 0
1, 581189, Note_on_c, 0, 36, 36
1, 581189, Note_on_c, 0, 48, 36
1, 581189, Note_on_c, 0, 86, 43
1, 581189, Note_on_c, 0, 72, 23
1, 581189, Note_on_c, 0, 24, 36
1, 581189, Note_on_c, 0, 36, 36
1, 581189, Note_on_c, 0, 74, 43
1, 581189, Note_on_c, 0, 60, 23
1, 581381, Note_off_c, 0, 60, 0
1, 581381, Note_off_c, 0, 36, 0
1, 581381, Note_off_c, 0, 24, 0
1, 581381, Note_off_c, 0, 72, 0
1, 581381, Note_off_c, 0, 48, 0
1, 581381, Note_off_c, 0, 36, 0
1, 581381, Note_on_c, 0, 36, 36
1, 581381, Note_on_c, 0, 48, 36
1, 581381, Note_on_c, 0, 60, 23
1, 581381, Note_on_c, 0, 24, 36
1, 581381, Note_on_c, 0, 36, 36
1, 581381, Note_on_c, 0, 48, 23
1, 581573, Note_off_c, 0, 36, 0
1, 581573, Note_off_c, 0, 24, 0
1, 581573, Note_off_c, 0, 48, 0
1, 581573, Note_off_c, 0, 36, 0
1, 581573, Note_on_c, 0, 36, 36
1, 581573, Note_on_c, 0, 48, 36
1, 581573, Note_on_c, 0, 24, 36
1, 581573, Note_on_c, 0, 36, 36
1, 581669, Note_off_c, 0, 48, 0
1, 581669, Note_off_c, 0, 60, 0
1, 581669, Note_off_c, 0, 74, 0
1, 581669, Note_off_c, 0, 86, 0
1, 581765, Note_off_c, 0, 36, 0
1, 581765, Note_off_c, 0, 24, 0
1, 581765, Note_off_c, 0, 48, 0
1, 581765, Note_off_c, 0, 36, 0
1, 581765, Note_on_c, 0, 36, 36
1, 581765, Note_on_c, 0, 48, 36
1, 581765, Note_on_c, 0, 93, 43
1, 581765, Note_on_c, 0, 67, 23
1, 581765, Note_on_c, 0, 24, 36
1, 581765, Note_on_c, 0, 36, 36
1, 581765, Note_on_c, 0, 81, 43
1, 581765, Note_on_c, 0, 55, 23
1, 581957, Note_off_c, 0, 55, 0
1, 581957, Note_off_c, 0, 36, 0
1, 581957, Note_off_c, 0, 24, 0
1, 581957, Note_off_c, 0, 67, 0
1, 581957, Note_off_c, 0, 48, 0
1, 581957, Note_off_c, 0, 36, 0
1, 581957, Note_on_c, 0, 36, 36
1, 581957, Note_on_c, 0, 48, 36
1, 581957, Note_on_c, 0, 72, 23
1, 581957, Note_on_c, 0, 24, 36
1, 581957, Note_on_c, 0, 36, 36
1, 581957, Note_on_c, 0, 60, 23
1, 582053, Note_off_c, 0, 81, 0
1, 582053, Note_off_c, 0, 93, 0
1, 582053, Note_off_c, 0, 69, 0
1, 582053, Note_off_c, 0, 81, 0
1, 582149, Note_off_c, 0, 60, 0
1, 582149, Note_off_c, 0, 36, 0
1, 582149, Note_off_c, 0, 24, 0
1, 582149, Note_off_c, 0, 72, 0
1, 582149, Note_off_c, 0, 48, 0
1, 582149, Note_off_c, 0, 36, 0
1, 582149, Note_on_c, 0, 35, 36
1, 582149, Note_on_c, 0, 47, 36
1, 582149, Note_on_c, 0, 81, 43
1, 582149, Note_on_c, 0, 88, 43
1, 582149, Note_on_c, 0, 59, 23
1, 582149, Note_on_c, 0, 24, 36
1, 582149, Note_on_c, 0, 35, 36
1, 582149, Note_on_c, 0, 69, 43
1, 582149, Note_on_c, 0, 76, 43
1, 582149, Note_on_c, 0, 47, 23
1, 582245, Note_off_c, 0, 35, 0
1, 582245, Note_off_c, 0, 24, 0
1, 582245, Note_off_c, 0, 47, 0
1, 582245, Note_off_c, 0, 35, 0
1, 582245, Note_on_c, 0, 35, 36
1, 582245, Note_on_c, 0, 47, 36
1, 582245, Note_on_c, 0, 24, 36
1, 582245, Note_on_c, 0, 35, 36
1, 582341, Note_off_c, 0, 35, 0
1, 582341, Note_off_c, 0, 24, 0
1, 582341, Note_off_c, 0, 47, 0
1, 582341, Note_off_c, 0, 35, 0
1, 582341, Note_on_c, 0, 35, 36
1, 582341, Note_on_c, 0, 47, 36
1, 582341, Note_on_c, 0, 24, 36
1, 582341, Note_on_c, 0, 35, 36
1, 582437, Note_off_c, 0, 35, 0
1, 582437, Note_off_c, 0, 24, 0
1, 582437, Note_off_c, 0, 47, 0
1, 582437, Note_off_c, 0, 35, 0
1, 582437, Note_off_c, 0, 47, 0
1, 582437, Note_off_c, 0, 59, 0
1, 582437, Note_on_c, 0, 35, 36
1, 582437, Note_on_c, 0, 47, 36
1, 582437, Note_on_c, 0, 24, 36
1, 582437, Note_on_c, 0, 35, 36
1, 582533, Note_off_c, 0, 35, 0
1, 582533, Note_off_c, 0, 24, 0
1, 582533, Note_off_c, 0, 47, 0
1, 582533, Note_off_c, 0, 35, 0
1, 582533, Note_on_c, 0, 35, 36
1, 582533, Note_on_c, 0, 47, 36
1, 582533, Note_on_c, 0, 67, 23
1, 582533, Note_on_c, 0, 24, 36
1, 582533, Note_on_c, 0, 35, 36
1, 582533, Note_on_c, 0, 55, 23
1, 582629, Note_off_c, 0, 35, 0
1, 582629, Note_off_c, 0, 24, 0
1, 582629, Note_off_c, 0, 47, 0
1, 582629, Note_off_c, 0, 35, 0
1, 582629, Note_on_c, 0, 35, 36
1, 582629, Note_on_c, 0, 47, 36
1, 582629, Note_on_c, 0, 24, 36
1, 582629, Note_on_c, 0, 35, 36
1, 582725, Note_off_c, 0, 35, 0
1, 582725, Note_off_c, 0, 24, 0
1, 582725, Note_off_c, 0, 47, 0
1, 582725, Note_off_c, 0, 35, 0
1, 582725, Note_off_c, 0, 55, 0
1, 582725, Note_off_c, 0, 67, 0
1, 582725, Note_on_c, 0, 35, 36
1, 582725, Note_on_c, 0, 47, 36
1, 582725, Note_on_c, 0, 71, 23
1, 582725, Note_on_c, 0, 24, 36
1, 582725, Note_on_c, 0, 35, 36
1, 582725, Note_on_c, 0, 59, 23
1, 582821, Note_off_c, 0, 35, 0
1, 582821, Note_off_c, 0, 24, 0
1, 582821, Note_off_c, 0, 47, 0
1, 582821, Note_off_c, 0, 35, 0
1, 582821, Note_on_c, 0, 35, 36
1, 582821, Note_on_c, 0, 47, 36
1, 582821, Note_on_c, 0, 24, 36
1, 582821, Note_on_c, 0, 35, 36
1, 582917, Note_off_c, 0, 35, 0
1, 582917, Note_off_c, 0, 24, 0
1, 582917, Note_off_c, 0, 47, 0
1, 582917, Note_off_c, 0, 35, 0
1, 582917, Note_off_c, 0, 59, 0
1, 582917, Note_off_c, 0, 71, 0
1, 582917, Note_on_c, 0, 35, 36
1, 582917, Note_on_c, 0, 47, 36
1, 582917, Note_on_c, 0, 59, 23
1, 582917, Note_on_c, 0, 24, 36
1, 582917, Note_on_c, 0, 35, 36
1, 582917, Note_on_c, 0, 47, 23
1, 583013, Note_off_c, 0, 35, 0
1, 583013, Note_off_c, 0, 24, 0
1, 583013, Note_off_c, 0, 47, 0
1, 583013, Note_off_c, 0, 35, 0
1, 583013, Note_on_c, 0, 35, 36
1, 583013, Note_on_c, 0, 47, 36
1, 583013, Note_on_c, 0, 24, 36
1, 583013, Note_on_c, 0, 35, 36
1, 583109, Note_off_c, 0, 35, 0
1, 583109, Note_off_c, 0, 24, 0
1, 583109, Note_off_c, 0, 47, 0
1, 583109, Note_off_c, 0, 35, 0
1, 583109, Note_on_c, 0, 35, 36
1, 583109, Note_on_c, 0, 47, 36
1, 583109, Note_on_c, 0, 24, 36
1, 583109, Note_on_c, 0, 35, 36
1, 583205, Note_off_c, 0, 35, 0
1, 583205, Note_off_c, 0, 24, 0
1, 583205, Note_off_c, 0, 47, 0
1, 583205, Note_off_c, 0, 35, 0
1, 583205, Note_off_c, 0, 47, 0
1, 583205, Note_off_c, 0, 59, 0
1, 583205, Note_on_c, 0, 35, 36
1, 583205, Note_on_c, 0, 47, 36
1, 583205, Note_on_c, 0, 24, 36
1, 583205, Note_on_c, 0, 35, 36
1, 583301, Note_off_c, 0, 35, 0
1, 583301, Note_off_c, 0, 24, 0
1, 583301, Note_off_c, 0, 47, 0
1, 583301, Note_off_c, 0, 35, 0
1, 583301, Note_on_c, 0, 35, 36
1, 583301, Note_on_c, 0, 47, 36
1, 583301, Note_on_c, 0, 67, 23
1, 583301, Note_on_c, 0, 24, 36
1, 583301, Note_on_c, 0, 35, 36
1, 583301, Note_on_c, 0, 55, 23
1, 583397, Note_off_c, 0, 35, 0
1, 583397, Note_off_c, 0, 24, 0
1, 583397, Note_off_c, 0, 47, 0
1, 583397, Note_off_c, 0, 35, 0
1, 583397, Note_on_c, 0, 35, 36
1, 583397, Note_on_c, 0, 47, 36
1, 583397, Note_on_c, 0, 24, 36
1, 583397, Note_on_c, 0, 35, 36
1, 583493, Note_off_c, 0, 35, 0
1, 583493, Note_off_c, 0, 24, 0
1, 583493, Note_off_c, 0, 47, 0
1, 583493, Note_off_c, 0, 35, 0
1, 583493, Note_off_c, 0, 55, 0
1, 583493, Note_off_c, 0, 67, 0
1, 583493, Note_on_c, 0, 35, 36
1, 583493, Note_on_c, 0, 47, 36
1, 583493, Note_on_c, 0, 71, 23
1, 583493, Note_on_c, 0, 24, 36
1, 583493, Note_on_c, 0, 35, 36
1, 583493, Note_on_c, 0, 59, 23
1, 583589, Note_off_c, 0, 35, 0
1, 583589, Note_off_c, 0, 24, 0
1, 583589, Note_off_c, 0, 47, 0
1, 583589, Note_off_c, 0, 35, 0
1, 583589, Note_on_c, 0, 35, 36
1, 583589, Note_on_c, 0, 47, 36
1, 583589, Note_on_c, 0, 24, 36
1, 583589, Note_on_c, 0, 35, 36
1, 583685, Note_off_c, 0, 35, 0
1, 583685, Note_off_c, 0, 24, 0
1, 583685, Note_off_c, 0, 47, 0
1, 583685, Note_off_c, 0, 35, 0
1, 583685, Note_off_c, 0, 59, 0
1, 583685, Note_off_c, 0, 71, 0
1, 583685, Note_on_c, 0, 35, 36
1, 583685, Note_on_c, 0, 47, 36
1, 583685, Note_on_c, 0, 59, 23
1, 583685, Note_on_c, 0, 24, 36
1, 583685, Note_on_c, 0, 35, 36
1, 583685, Note_on_c, 0, 47, 23
1, 583781, Note_off_c, 0, 35, 0
1, 583781, Note_off_c, 0, 24, 0
1, 583781, Note_off_c, 0, 47, 0
1, 583781, Note_off_c, 0, 35, 0
1, 583781, Note_on_c, 0, 35, 36
1, 583781, Note_on_c, 0, 47, 36
1, 583781, Note_on_c, 0, 24, 36
1, 583781, Note_on_c, 0, 35, 36
1, 583877, Note_off_c, 0, 35, 0
1, 583877, Note_off_c, 0, 24, 0
1, 583877, Note_off_c, 0, 47, 0
1, 583877, Note_off_c, 0, 35, 0
1, 583877, Note_on_c, 0, 35, 36
1, 583877, Note_on_c, 0, 47, 36
1, 583877, Note_on_c, 0, 24, 36
1, 583877, Note_on_c, 0, 35, 36
1, 583973, Note_off_c, 0, 35, 0
1, 583973, Note_off_c, 0, 24, 0
1, 583973, Note_off_c, 0, 47, 0
1, 583973, Note_off_c, 0, 35, 0
1, 583973, Note_off_c, 0, 47, 0
1, 583973, Note_off_c, 0, 59, 0
1, 583973, Note_on_c, 0, 35, 36
1, 583973, Note_on_c, 0, 47, 36
1, 583973, Note_on_c, 0, 24, 36
1, 583973, Note_on_c, 0, 35, 36
1, 584069, Note_off_c, 0, 35, 0
1, 584069, Note_off_c, 0, 24, 0
1, 584069, Note_off_c, 0, 47, 0
1, 584069, Note_off_c, 0, 35, 0
1, 584069, Note_on_c, 0, 35, 36
1, 584069, Note_on_c, 0, 47, 36
1, 584069, Note_on_c, 0, 67, 23
1, 584069, Note_on_c, 0, 24, 36
1, 584069, Note_on_c, 0, 35, 36
1, 584069, Note_on_c, 0, 55, 23
1, 584165, Note_off_c, 0, 35, 0
1, 584165, Note_off_c, 0, 24, 0
1, 584165, Note_off_c, 0, 47, 0
1, 584165, Note_off_c, 0, 35, 0
1, 584165, Note_on_c, 0, 35, 36
1, 584165, Note_on_c, 0, 47, 36
1, 584165, Note_on_c, 0, 24, 36
1, 584165, Note_on_c, 0, 35, 36
1, 584261, Note_off_c, 0, 35, 0
1, 584261, Note_off_c, 0, 24, 0
1, 584261, Note_off_c, 0, 47, 0
1, 584261, Note_off_c, 0, 35, 0
1, 584261, Note_off_c, 0, 55, 0
1, 584261, Note_off_c, 0, 67, 0
1, 584261, Note_on_c, 0, 35, 36
1, 584261, Note_on_c, 0, 47, 36
1, 584261, Note_on_c, 0, 71, 23
1, 584261, Note_on_c, 0, 24, 36
1, 584261, Note_on_c, 0, 35, 36
1, 584261, Note_on_c, 0, 59, 23
1, 584357, Note_off_c, 0, 35, 0
1, 584357, Note_off_c, 0, 24, 0
1, 584357, Note_off_c, 0, 47, 0
1, 584357, Note_off_c, 0, 35, 0
1, 584357, Note_on_c, 0, 35, 36
1, 584357, Note_on_c, 0, 47, 36
1, 584357, Note_on_c, 0, 24, 36
1, 584357, Note_on_c, 0, 35, 36
1, 584453, Note_off_c, 0, 35, 0
1, 584453, Note_off_c, 0, 24, 0
1, 584453, Note_off_c, 0, 47, 0
1, 584453, Note_off_c, 0, 35, 0
1, 584453, Note_off_c, 0, 59, 0
1, 584453, Note_off_c, 0, 71, 0
1, 584453, Note_on_c, 0, 35, 36
1, 584453, Note_on_c, 0, 47, 36
1, 584453, Note_on_c, 0, 59, 23
1, 584453, Note_on_c, 0, 24, 36
1, 584453, Note_on_c, 0, 35, 36
1, 584453, Note_on_c, 0, 47, 23
1, 584549, Note_off_c, 0, 35, 0
1, 584549, Note_off_c, 0, 24, 0
1, 584549, Note_off_c, 0, 47, 0
1, 584549, Note_off_c, 0, 35, 0
1, 584549, Note_on_c, 0, 35, 36
1, 584549, Note_on_c, 0, 47, 36
1, 584549, Note_on_c, 0, 24, 36
1, 584549, Note_on_c, 0, 35, 36
1, 584645, Note_off_c, 0, 35, 0
1, 584645, Note_off_c, 0, 24, 0
1, 584645, Note_off_c, 0, 47, 0
1, 584645, Note_off_c, 0, 35, 0
1, 584645, Note_on_c, 0, 35, 36
1, 584645, Note_on_c, 0, 47, 36
1, 584645, Note_on_c, 0, 24, 36
1, 584645, Note_on_c, 0, 35, 36
1, 584741, Note_off_c, 0, 35, 0
1, 584741, Note_off_c, 0, 24, 0
1, 584741, Note_off_c, 0, 47, 0
1, 584741, Note_off_c, 0, 35, 0
1, 584741, Note_off_c, 0, 47, 0
1, 584741, Note_off_c, 0, 59, 0
1, 584741, Note_off_c, 0, 76, 0
1, 584741, Note_off_c, 0, 69, 0
1, 584741, Note_off_c, 0, 88, 0
1, 584741, Note_off_c, 0, 81, 0
1, 584741, Note_on_c, 0, 35, 36
1, 584741, Note_on_c, 0, 47, 36
1, 584741, Note_on_c, 0, 24, 36
1, 584741, Note_on_c, 0, 35, 36
1, 584837, Note_off_c, 0, 35, 0
1, 584837, Note_off_c, 0, 24, 0
1, 584837, Note_off_c, 0, 47, 0
1, 584837, Note_off_c, 0, 35, 0
1, 584837, Note_on_c, 0, 35, 36
1, 584837, Note_on_c, 0, 47, 36
1, 584837, Note_on_c, 0, 86, 43
1, 584837, Note_on_c, 0, 67, 23
1, 584837, Note_on_c, 0, 24, 36
1, 584837, Note_on_c, 0, 35, 36
1, 584837, Note_on_c, 0, 74, 43
1, 584837, Note_on_c, 0, 55, 23
1, 584933, Note_off_c, 0, 35, 0
1, 584933, Note_off_c, 0, 24, 0
1, 584933, Note_off_c, 0, 47, 0
1, 584933, Note_off_c, 0, 35, 0
1, 584933, Note_on_c, 0, 35, 36
1, 584933, Note_on_c, 0, 47, 36
1, 584933, Note_on_c, 0, 24, 36
1, 584933, Note_on_c, 0, 35, 36
1, 585029, Note_off_c, 0, 35, 0
1, 585029, Note_off_c, 0, 24, 0
1, 585029, Note_off_c, 0, 47, 0
1, 585029, Note_off_c, 0, 35, 0
1, 585029, Note_off_c, 0, 55, 0
1, 585029, Note_off_c, 0, 67, 0
1, 585029, Note_on_c, 0, 35, 36
1, 585029, Note_on_c, 0, 47, 36
1, 585029, Note_on_c, 0, 71, 23
1, 585029, Note_on_c, 0, 24, 36
1, 585029, Note_on_c, 0, 35, 36
1, 585029, Note_on_c, 0, 59, 23
1, 585125, Note_off_c, 0, 35, 0
1, 585125, Note_off_c, 0, 24, 0
1, 585125, Note_off_c, 0, 47, 0
1, 585125, Note_off_c, 0, 35, 0
1, 585125, Note_off_c, 0, 74, 0
1, 585125, Note_off_c, 0, 86, 0
1, 585125, Note_on_c, 0, 35, 36
1, 585125, Note_on_c, 0, 47, 36
1, 585125, Note_on_c, 0, 24, 36
1, 585125, Note_on_c, 0, 35, 36
1, 585221, Note_off_c, 0, 35, 0
1, 585221, Note_off_c, 0, 24, 0
1, 585221, Note_off_c, 0, 47, 0
1, 585221, Note_off_c, 0, 35, 0
1, 585221, Note_off_c, 0, 59, 0
1, 585221, Note_off_c, 0, 71, 0
1, 585221, Note_on_c, 0, 34, 36
1, 585221, Note_on_c, 0, 46, 36
1, 585221, Note_on_c, 0, 86, 43
1, 585221, Note_on_c, 0, 58, 23
1, 585221, Note_on_c, 0, 24, 36
1, 585221, Note_on_c, 0, 34, 36
1, 585221, Note_on_c, 0, 74, 43
1, 585221, Note_on_c, 0, 46, 23
1, 585317, Note_off_c, 0, 34, 0
1, 585317, Note_off_c, 0, 24, 0
1, 585317, Note_off_c, 0, 46, 0
1, 585317, Note_off_c, 0, 34, 0
1, 585317, Note_on_c, 0, 34, 36
1, 585317, Note_on_c, 0, 46, 36
1, 585317, Note_on_c, 0, 24, 36
1, 585317, Note_on_c, 0, 34, 36
1, 585413, Note_off_c, 0, 34, 0
1, 585413, Note_off_c, 0, 24, 0
1, 585413, Note_off_c, 0, 46, 0
1, 585413, Note_off_c, 0, 34, 0
1, 585413, Note_on_c, 0, 34, 36
1, 585413, Note_on_c, 0, 46, 36
1, 585413, Note_on_c, 0, 24, 36
1, 585413, Note_on_c, 0, 34, 36
1, 585509, Note_off_c, 0, 34, 0
1, 585509, Note_off_c, 0, 24, 0
1, 585509, Note_off_c, 0, 46, 0
1, 585509, Note_off_c, 0, 34, 0
1, 585509, Note_off_c, 0, 46, 0
1, 585509, Note_off_c, 0, 74, 0
1, 585509, Note_off_c, 0, 58, 0
1, 585509, Note_off_c, 0, 86, 0
1, 585509, Note_on_c, 0, 34, 36
1, 585509, Note_on_c, 0, 46, 36
1, 585509, Note_on_c, 0, 24, 36
1, 585509, Note_on_c, 0, 34, 36
1, 585605, Note_off_c, 0, 34, 0
1, 585605, Note_off_c, 0, 24, 0
1, 585605, Note_off_c, 0, 46, 0
1, 585605, Note_off_c, 0, 34, 0
1, 585605, Note_on_c, 0, 34, 36
1, 585605, Note_on_c, 0, 46, 36
1, 585605, Note_on_c, 0, 88, 43
1, 585605, Note_on_c, 0, 65, 23
1, 585605, Note_on_c, 0, 24, 36
1, 585605, Note_on_c, 0, 34, 36
1, 585605, Note_on_c, 0, 76, 43
1, 585605, Note_on_c, 0, 53, 23
1, 585701, Note_off_c, 0, 34, 0
1, 585701, Note_off_c, 0, 24, 0
1, 585701, Note_off_c, 0, 46, 0
1, 585701, Note_off_c, 0, 34, 0
1, 585701, Note_on_c, 0, 34, 36
1, 585701, Note_on_c, 0, 46, 36
1, 585701, Note_on_c, 0, 24, 36
1, 585701, Note_on_c, 0, 34, 36
1, 585797, Note_off_c, 0, 34, 0
1, 585797, Note_off_c, 0, 24, 0
1, 585797, Note_off_c, 0, 46, 0
1, 585797, Note_off_c, 0, 34, 0
1, 585797, Note_off_c, 0, 53, 0
1, 585797, Note_off_c, 0, 65, 0
1, 585797, Note_on_c, 0, 34, 36
1, 585797, Note_on_c, 0, 46, 36
1, 585797, Note_on_c, 0, 70, 23
1, 585797, Note_on_c, 0, 24, 36
1, 585797, Note_on_c, 0, 34, 36
1, 585797, Note_on_c, 0, 58, 23
1, 585893, Note_off_c, 0, 34, 0
1, 585893, Note_off_c, 0, 24, 0
1, 585893, Note_off_c, 0, 46, 0
1, 585893, Note_off_c, 0, 34, 0
1, 585893, Note_off_c, 0, 76, 0
1, 585893, Note_off_c, 0, 88, 0
1, 585893, Note_on_c, 0, 34, 36
1, 585893, Note_on_c, 0, 46, 36
1, 585893, Note_on_c, 0, 24, 36
1, 585893, Note_on_c, 0, 34, 36
1, 585989, Note_off_c, 0, 34, 0
1, 585989, Note_off_c, 0, 24, 0
1, 585989, Note_off_c, 0, 46, 0
1, 585989, Note_off_c, 0, 34, 0
1, 585989, Note_off_c, 0, 58, 0
1, 585989, Note_off_c, 0, 70, 0
1, 585989, Note_on_c, 0, 34, 36
1, 585989, Note_on_c, 0, 46, 36
1, 585989, Note_on_c, 0, 89, 43
1, 585989, Note_on_c, 0, 58, 23
1, 585989, Note_on_c, 0, 24, 36
1, 585989, Note_on_c, 0, 34, 36
1, 585989, Note_on_c, 0, 77, 43
1, 585989, Note_on_c, 0, 46, 23
1, 586085, Note_off_c, 0, 34, 0
1, 586085, Note_off_c, 0, 24, 0
1, 586085, Note_off_c, 0, 46, 0
1, 586085, Note_off_c, 0, 34, 0
1, 586085, Note_on_c, 0, 34, 36
1, 586085, Note_on_c, 0, 46, 36
1, 586085, Note_on_c, 0, 24, 36
1, 586085, Note_on_c, 0, 34, 36
1, 586181, Note_off_c, 0, 34, 0
1, 586181, Note_off_c, 0, 24, 0
1, 586181, Note_off_c, 0, 46, 0
1, 586181, Note_off_c, 0, 34, 0
1, 586181, Note_on_c, 0, 34, 36
1, 586181, Note_on_c, 0, 46, 36
1, 586181, Note_on_c, 0, 24, 36
1, 586181, Note_on_c, 0, 34, 36
1, 586277, Note_off_c, 0, 34, 0
1, 586277, Note_off_c, 0, 24, 0
1, 586277, Note_off_c, 0, 46, 0
1, 586277, Note_off_c, 0, 34, 0
1, 586277, Note_off_c, 0, 46, 0
1, 586277, Note_off_c, 0, 77, 0
1, 586277, Note_off_c, 0, 58, 0
1, 586277, Note_off_c, 0, 89, 0
1, 586277, Note_on_c, 0, 34, 36
1, 586277, Note_on_c, 0, 46, 36
1, 586277, Note_on_c, 0, 24, 36
1, 586277, Note_on_c, 0, 34, 36
1, 586373, Note_off_c, 0, 34, 0
1, 586373, Note_off_c, 0, 24, 0
1, 586373, Note_off_c, 0, 46, 0
1, 586373, Note_off_c, 0, 34, 0
1, 586373, Note_on_c, 0, 34, 36
1, 586373, Note_on_c, 0, 46, 36
1, 586373, Note_on_c, 0, 93, 43
1, 586373, Note_on_c, 0, 65, 23
1, 586373, Note_on_c, 0, 24, 36
1, 586373, Note_on_c, 0, 34, 36
1, 586373, Note_on_c, 0, 81, 43
1, 586373, Note_on_c, 0, 53, 23
1, 586469, Note_off_c, 0, 34, 0
1, 586469, Note_off_c, 0, 24, 0
1, 586469, Note_off_c, 0, 46, 0
1, 586469, Note_off_c, 0, 34, 0
1, 586469, Note_on_c, 0, 34, 36
1, 586469, Note_on_c, 0, 46, 36
1, 586469, Note_on_c, 0, 24, 36
1, 586469, Note_on_c, 0, 34, 36
1, 586565, Note_off_c, 0, 34, 0
1, 586565, Note_off_c, 0, 24, 0
1, 586565, Note_off_c, 0, 46, 0
1, 586565, Note_off_c, 0, 34, 0
1, 586565, Note_off_c, 0, 53, 0
1, 586565, Note_off_c, 0, 65, 0
1, 586565, Note_on_c, 0, 34, 36
1, 586565, Note_on_c, 0, 46, 36
1, 586565, Note_on_c, 0, 70, 23
1, 586565, Note_on_c, 0, 24, 36
1, 586565, Note_on_c, 0, 34, 36
1, 586565, Note_on_c, 0, 58, 23
1, 586661, Note_off_c, 0, 34, 0
1, 586661, Note_off_c, 0, 24, 0
1, 586661, Note_off_c, 0, 46, 0
1, 586661, Note_off_c, 0, 34, 0
1, 586661, Note_off_c, 0, 81, 0
1, 586661, Note_off_c, 0, 93, 0
1, 586661, Note_on_c, 0, 34, 36
1, 586661, Note_on_c, 0, 46, 36
1, 586661, Note_on_c, 0, 24, 36
1, 586661, Note_on_c, 0, 34, 36
1, 586757, Note_off_c, 0, 36, 0
1, 586757, Note_off_c, 0, 24, 0
1, 586757, Note_off_c, 0, 48, 0
1, 586757, Note_off_c, 0, 36, 0
1, 586757, Note_off_c, 0, 34, 0
1, 586757, Note_off_c, 0, 24, 0
1, 586757, Note_off_c, 0, 46, 0
1, 586757, Note_off_c, 0, 34, 0
1, 586757, Note_off_c, 0, 58, 0
1, 586757, Note_off_c, 0, 70, 0
1, 586757, Note_on_c, 0, 36, 36
1, 586757, Note_on_c, 0, 48, 36
1, 586757, Note_on_c, 0, 84, 43
1, 586757, Note_on_c, 0, 60, 23
1, 586757, Note_on_c, 0, 24, 36
1, 586757, Note_on_c, 0, 36, 36
1, 586757, Note_on_c, 0, 72, 43
1, 586757, Note_on_c, 0, 48, 23
1, 586805, Note_off_c, 0, 36, 0
1, 586805, Note_off_c, 0, 24, 0
1, 586805, Note_off_c, 0, 48, 0
1, 586805, Note_off_c, 0, 36, 0
1, 586805, Note_on_c, 0, 36, 36
1, 586805, Note_on_c, 0, 48, 36
1, 586805, Note_on_c, 0, 24, 36
1, 586805, Note_on_c, 0, 36, 36
1, 586853, Note_off_c, 0, 36, 0
1, 586853, Note_off_c, 0, 24, 0
1, 586853, Note_off_c, 0, 48, 0
1, 586853, Note_off_c, 0, 36, 0
1, 586853, Note_on_c, 0, 36, 36
1, 586853, Note_on_c, 0, 48, 36
1, 586853, Note_on_c, 0, 24, 36
1, 586853, Note_on_c, 0, 36, 36
1, 586901, Note_off_c, 0, 36, 0
1, 586901, Note_off_c, 0, 24, 0
1, 586901, Note_off_c, 0, 48, 0
1, 586901, Note_off_c, 0, 36, 0
1, 586901, Note_on_c, 0, 36, 36
1, 586901, Note_on_c, 0, 48, 36
1, 586901, Note_on_c, 0, 24, 36
1, 586901, Note_on_c, 0, 36, 36
1, 586949, Note_off_c, 0, 36, 0
1, 586949, Note_off_c, 0, 24, 0
1, 586949, Note_off_c, 0, 48, 0
1, 586949, Note_off_c, 0, 36, 0
1, 586949, Note_on_c, 0, 36, 36
1, 586949, Note_on_c, 0, 48, 36
1, 586949, Note_on_c, 0, 24, 36
1, 586949, Note_on_c, 0, 36, 36
1, 586997, Note_off_c, 0, 36, 0
1, 586997, Note_off_c, 0, 24, 0
1, 586997, Note_off_c, 0, 48, 0
1, 586997, Note_off_c, 0, 36, 0
1, 586997, Note_on_c, 0, 36, 36
1, 586997, Note_on_c, 0, 48, 36
1, 586997, Note_on_c, 0, 24, 36
1, 586997, Note_on_c, 0, 36, 36
1, 587045, Note_off_c, 0, 36, 0
1, 587045, Note_off_c, 0, 24, 0
1, 587045, Note_off_c, 0, 48, 0
1, 587045, Note_off_c, 0, 36, 0
1, 587045, Note_off_c, 0, 48, 0
1, 587045, Note_off_c, 0, 72, 0
1, 587045, Note_off_c, 0, 60, 0
1, 587045, Note_off_c, 0, 84, 0
1, 587045, Note_on_c, 0, 36, 36
1, 587045, Note_on_c, 0, 48, 36
1, 587045, Note_on_c, 0, 24, 36
1, 587045, Note_on_c, 0, 36, 36
1, 587093, Note_off_c, 0, 36, 0
1, 587093, Note_off_c, 0, 24, 0
1, 587093, Note_off_c, 0, 48, 0
1, 587093, Note_off_c, 0, 36, 0
1, 587093, Note_on_c, 0, 36, 36
1, 587093, Note_on_c, 0, 48, 36
1, 587093, Note_on_c, 0, 24, 36
1, 587093, Note_on_c, 0, 36, 36
1, 587141, Note_off_c, 0, 36, 0
1, 587141, Note_off_c, 0, 24, 0
1, 587141, Note_off_c, 0, 48, 0
1, 587141, Note_off_c, 0, 36, 0
1, 587141, Note_on_c, 0, 36, 36
1, 587141, Note_on_c, 0, 48, 36
1, 587141, Note_on_c, 0, 79, 43
1, 587141, Note_on_c, 0, 67, 23
1, 587141, Note_on_c, 0, 24, 36
1, 587141, Note_on_c, 0, 36, 36
1, 587141, Note_on_c, 0, 67, 43
1, 587141, Note_on_c, 0, 55, 23
1, 587189, Note_off_c, 0, 36, 0
1, 587189, Note_off_c, 0, 24, 0
1, 587189, Note_off_c, 0, 48, 0
1, 587189, Note_off_c, 0, 36, 0
1, 587189, Note_on_c, 0, 36, 36
1, 587189, Note_on_c, 0, 48, 36
1, 587189, Note_on_c, 0, 24, 36
1, 587189, Note_on_c, 0, 36, 36
1, 587237, Note_off_c, 0, 36, 0
1, 587237, Note_off_c, 0, 24, 0
1, 587237, Note_off_c, 0, 48, 0
1, 587237, Note_off_c, 0, 36, 0
1, 587237, Note_on_c, 0, 36, 36
1, 587237, Note_on_c, 0, 48, 36
1, 587237, Note_on_c, 0, 24, 36
1, 587237, Note_on_c, 0, 36, 36
1, 587285, Note_off_c, 0, 36, 0
1, 587285, Note_off_c, 0, 24, 0
1, 587285, Note_off_c, 0, 48, 0
1, 587285, Note_off_c, 0, 36, 0
1, 587285, Note_on_c, 0, 36, 36
1, 587285, Note_on_c, 0, 48, 36
1, 587285, Note_on_c, 0, 24, 36
1, 587285, Note_on_c, 0, 36, 36
1, 587333, Note_off_c, 0, 36, 0
1, 587333, Note_off_c, 0, 24, 0
1, 587333, Note_off_c, 0, 48, 0
1, 587333, Note_off_c, 0, 36, 0
1, 587333, Note_off_c, 0, 55, 0
1, 587333, Note_off_c, 0, 67, 0
1, 587333, Note_on_c, 0, 36, 36
1, 587333, Note_on_c, 0, 48, 36
1, 587333, Note_on_c, 0, 72, 23
1, 587333, Note_on_c, 0, 24, 36
1, 587333, Note_on_c, 0, 36, 36
1, 587333, Note_on_c, 0, 60, 23
1, 587381, Note_off_c, 0, 36, 0
1, 587381, Note_off_c, 0, 24, 0
1, 587381, Note_off_c, 0, 48, 0
1, 587381, Note_off_c, 0, 36, 0
1, 587381, Note_on_c, 0, 36, 36
1, 587381, Note_on_c, 0, 48, 36
1, 587381, Note_on_c, 0, 24, 36
1, 587381, Note_on_c, 0, 36, 36
1, 587429, Note_off_c, 0, 36, 0
1, 587429, Note_off_c, 0, 24, 0
1, 587429, Note_off_c, 0, 48, 0
1, 587429, Note_off_c, 0, 36, 0
1, 587429, Note_off_c, 0, 67, 0
1, 587429, Note_off_c, 0, 79, 0
1, 587429, Note_on_c, 0, 36, 36
1, 587429, Note_on_c, 0, 48, 36
1, 587429, Note_on_c, 0, 24, 36
1, 587429, Note_on_c, 0, 36, 36
1, 587477, Note_off_c, 0, 36, 0
1, 587477, Note_off_c, 0, 24, 0
1, 587477, Note_off_c, 0, 48, 0
1, 587477, Note_off_c, 0, 36, 0
1, 587477, Note_on_c, 0, 36, 36
1, 587477, Note_on_c, 0, 48, 36
1, 587477, Note_on_c, 0, 24, 36
1, 587477, Note_on_c, 0, 36, 36
1, 587525, Note_off_c, 0, 36, 0
1, 587525, Note_off_c, 0, 24, 0
1, 587525, Note_off_c, 0, 48, 0
1, 587525, Note_off_c, 0, 36, 0
1, 587525, Note_off_c, 0, 60, 0
1, 587525, Note_off_c, 0, 72, 0
1, 587525, Note_on_c, 0, 36, 36
1, 587525, Note_on_c, 0, 48, 36
1, 587525, Note_on_c, 0, 81, 43
1, 587525, Note_on_c, 0, 60, 23
1, 587525, Note_on_c, 0, 24, 36
1, 587525, Note_on_c, 0, 36, 36
1, 587525, Note_on_c, 0, 69, 43
1, 587525, Note_on_c, 0, 48, 23
1, 587573, Note_off_c, 0, 36, 0
1, 587573, Note_off_c, 0, 24, 0
1, 587573, Note_off_c, 0, 48, 0
1, 587573, Note_off_c, 0, 36, 0
1, 587573, Note_on_c, 0, 36, 36
1, 587573, Note_on_c, 0, 48, 36
1, 587573, Note_on_c, 0, 24, 36
1, 587573, Note_on_c, 0, 36, 36
1, 587621, Note_off_c, 0, 36, 0
1, 587621, Note_off_c, 0, 24, 0
1, 587621, Note_off_c, 0, 48, 0
1, 587621, Note_off_c, 0, 36, 0
1, 587621, Note_on_c, 0, 36, 36
1, 587621, Note_on_c, 0, 48, 36
1, 587621, Note_on_c, 0, 24, 36
1, 587621, Note_on_c, 0, 36, 36
1, 587669, Note_off_c, 0, 36, 0
1, 587669, Note_off_c, 0, 24, 0
1, 587669, Note_off_c, 0, 48, 0
1, 587669, Note_off_c, 0, 36, 0
1, 587669, Note_on_c, 0, 36, 36
1, 587669, Note_on_c, 0, 48, 36
1, 587669, Note_on_c, 0, 24, 36
1, 587669, Note_on_c, 0, 36, 36
1, 587717, Note_off_c, 0, 36, 0
1, 587717, Note_off_c, 0, 24, 0
1, 587717, Note_off_c, 0, 48, 0
1, 587717, Note_off_c, 0, 36, 0
1, 587717, Note_on_c, 0, 36, 36
1, 587717, Note_on_c, 0, 48, 36
1, 587717, Note_on_c, 0, 24, 36
1, 587717, Note_on_c, 0, 36, 36
1, 587765, Note_off_c, 0, 36, 0
1, 587765, Note_off_c, 0, 24, 0
1, 587765, Note_off_c, 0, 48, 0
1, 587765, Note_off_c, 0, 36, 0
1, 587765, Note_on_c, 0, 36, 36
1, 587765, Note_on_c, 0, 48, 36
1, 587765, Note_on_c, 0, 24, 36
1, 587765, Note_on_c, 0, 36, 36
1, 587813, Note_off_c, 0, 36, 0
1, 587813, Note_off_c, 0, 24, 0
1, 587813, Note_off_c, 0, 48, 0
1, 587813, Note_off_c, 0, 36, 0
1, 587813, Note_off_c, 0, 48, 0
1, 587813, Note_off_c, 0, 69, 0
1, 587813, Note_off_c, 0, 60, 0
1, 587813, Note_off_c, 0, 81, 0
1, 587813, Note_on_c, 0, 36, 36
1, 587813, Note_on_c, 0, 48, 36
1, 587813, Note_on_c, 0, 24, 36
1, 587813, Note_on_c, 0, 36, 36
1, 587861, Note_off_c, 0, 36, 0
1, 587861, Note_off_c, 0, 24, 0
1, 587861, Note_off_c, 0, 48, 0
1, 587861, Note_off_c, 0, 36, 0
1, 587861, Note_on_c, 0, 36, 36
1, 587861, Note_on_c, 0, 48, 36
1, 587861, Note_on_c, 0, 24, 36
1, 587861, Note_on_c, 0, 36, 36
1, 587909, Note_off_c, 0, 36, 0
1, 587909, Note_off_c, 0, 24, 0
1, 587909, Note_off_c, 0, 48, 0
1, 587909, Note_off_c, 0, 36, 0
1, 587909, Note_on_c, 0, 36, 36
1, 587909, Note_on_c, 0, 48, 36
1, 587909, Note_on_c, 0, 86, 43
1, 587909, Note_on_c, 0, 67, 23
1, 587909, Note_on_c, 0, 24, 36
1, 587909, Note_on_c, 0, 36, 36
1, 587909, Note_on_c, 0, 74, 43
1, 587909, Note_on_c, 0, 55, 23
1, 587957, Note_off_c, 0, 36, 0
1, 587957, Note_off_c, 0, 24, 0
1, 587957, Note_off_c, 0, 48, 0
1, 587957, Note_off_c, 0, 36, 0
1, 587957, Note_on_c, 0, 36, 36
1, 587957, Note_on_c, 0, 48, 36
1, 587957, Note_on_c, 0, 24, 36
1, 587957, Note_on_c, 0, 36, 36
1, 588005, Note_off_c, 0, 36, 0
1, 588005, Note_off_c, 0, 24, 0
1, 588005, Note_off_c, 0, 48, 0
1, 588005, Note_off_c, 0, 36, 0
1, 588005, Note_on_c, 0, 36, 36
1, 588005, Note_on_c, 0, 48, 36
1, 588005, Note_on_c, 0, 24, 36
1, 588005, Note_on_c, 0, 36, 36
1, 588053, Note_off_c, 0, 36, 0
1, 588053, Note_off_c, 0, 24, 0
1, 588053, Note_off_c, 0, 48, 0
1, 588053, Note_off_c, 0, 36, 0
1, 588053, Note_on_c, 0, 36, 36
1, 588053, Note_on_c, 0, 48, 36
1, 588053, Note_on_c, 0, 24, 36
1, 588053, Note_on_c, 0, 36, 36
1, 588101, Note_off_c, 0, 36, 0
1, 588101, Note_off_c, 0, 24, 0
1, 588101, Note_off_c, 0, 48, 0
1, 588101, Note_off_c, 0, 36, 0
1, 588101, Note_off_c, 0, 55, 0
1, 588101, Note_off_c, 0, 67, 0
1, 588101, Note_on_c, 0, 36, 36
1, 588101, Note_on_c, 0, 48, 36
1, 588101, Note_on_c, 0, 72, 23
1, 588101, Note_on_c, 0, 24, 36
1, 588101, Note_on_c, 0, 36, 36
1, 588101, Note_on_c, 0, 60, 23
1, 588149, Note_off_c, 0, 36, 0
1, 588149, Note_off_c, 0, 24, 0
1, 588149, Note_off_c, 0, 48, 0
1, 588149, Note_off_c, 0, 36, 0
1, 588149, Note_on_c, 0, 36, 36
1, 588149, Note_on_c, 0, 48, 36
1, 588149, Note_on_c, 0, 24, 36
1, 588149, Note_on_c, 0, 36, 36
1, 588197, Note_off_c, 0, 36, 0
1, 588197, Note_off_c, 0, 24, 0
1, 588197, Note_off_c, 0, 48, 0
1, 588197, Note_off_c, 0, 36, 0
1, 588197, Note_off_c, 0, 74, 0
1, 588197, Note_off_c, 0, 86, 0
1, 588197, Note_on_c, 0, 36, 36
1, 588197, Note_on_c, 0, 48, 36
1, 588197, Note_on_c, 0, 24, 36
1, 588197, Note_on_c, 0, 36, 36
1, 588245, Note_off_c, 0, 36, 0
1, 588245, Note_off_c, 0, 24, 0
1, 588245, Note_off_c, 0, 48, 0
1, 588245, Note_off_c, 0, 36, 0
1, 588245, Note_on_c, 0, 36, 36
1, 588245, Note_on_c, 0, 48, 36
1, 588245, Note_on_c, 0, 24, 36
1, 588245, Note_on_c, 0, 36, 36
1, 588293, Note_off_c, 0, 60, 0
1, 588293, Note_off_c, 0, 72, 0
1, 588293, Note_on_c, 0, 69, 36
1, 588293, Note_on_c, 0, 76, 36
1, 588293, Note_on_c, 0, 50, 36
1, 588293, Note_on_c, 0, 81, 43
1, 588293, Note_on_c, 0, 88, 43
1, 588293, Note_on_c, 0, 62, 23
1, 588293, Note_on_c, 0, 57, 36
1, 588293, Note_on_c, 0, 64, 36
1, 588293, Note_on_c, 0, 38, 36
1, 588293, Note_on_c, 0, 69, 43
1, 588293, Note_on_c, 0, 76, 43
1, 588293, Note_on_c, 0, 50, 23
1, 588581, Note_off_c, 0, 50, 0
1, 588581, Note_off_c, 0, 62, 0
1, 588677, Note_on_c, 0, 69, 23
1, 588677, Note_on_c, 0, 57, 23
1, 588869, Note_off_c, 0, 57, 0
1, 588869, Note_off_c, 0, 69, 0
1, 588869, Note_on_c, 0, 74, 23
1, 588869, Note_on_c, 0, 62, 23
1, 589061, Note_off_c, 0, 62, 0
1, 589061, Note_off_c, 0, 74, 0
1, 589061, Note_on_c, 0, 62, 23
1, 589061, Note_on_c, 0, 50, 23
1, 589349, Note_off_c, 0, 50, 0
1, 589349, Note_off_c, 0, 62, 0
1, 589445, Note_on_c, 0, 69, 23
1, 589445, Note_on_c, 0, 57, 23
1, 589637, Note_off_c, 0, 57, 0
1, 589637, Note_off_c, 0, 69, 0
1, 589637, Note_on_c, 0, 74, 23
1, 589637, Note_on_c, 0, 62, 23
1, 589733, Note_off_c, 0, 76, 0
1, 589733, Note_off_c, 0, 69, 0
1, 589733, Note_off_c, 0, 38, 0
1, 589733, Note_off_c, 0, 64, 0
1, 589733, Note_off_c, 0, 57, 0
1, 589733, Note_off_c, 0, 88, 0
1, 589733, Note_off_c, 0, 81, 0
1, 589733, Note_off_c, 0, 50, 0
1, 589733, Note_off_c, 0, 76, 0
1, 589733, Note_off_c, 0, 69, 0
1, 589829, Note_off_c, 0, 62, 0
1, 589829, Note_off_c, 0, 74, 0
1, 589829, Note_on_c, 0, 76, 36
1, 589829, Note_on_c, 0, 69, 36
1, 589829, Note_on_c, 0, 50, 36
1, 589829, Note_on_c, 0, 88, 43
1, 589829, Note_on_c, 0, 81, 43
1, 589829, Note_on_c, 0, 62, 23
1, 589829, Note_on_c, 0, 64, 36
1, 589829, Note_on_c, 0, 57, 36
1, 589829, Note_on_c, 0, 38, 36
1, 589829, Note_on_c, 0, 76, 43
1, 589829, Note_on_c, 0, 69, 43
1, 589829, Note_on_c, 0, 50, 23
1, 590117, Note_off_c, 0, 50, 0
1, 590117, Note_off_c, 0, 62, 0
1, 590213, Note_on_c, 0, 69, 23
1, 590213, Note_on_c, 0, 57, 23
1, 590309, Note_off_c, 0, 76, 0
1, 590309, Note_off_c, 0, 64, 0
1, 590309, Note_off_c, 0, 88, 0
1, 590309, Note_off_c, 0, 76, 0
1, 590405, Note_off_c, 0, 57, 0
1, 590405, Note_off_c, 0, 69, 0
1, 590405, Note_on_c, 0, 74, 36
1, 590405, Note_on_c, 0, 86, 43
1, 590405, Note_on_c, 0, 74, 23
1, 590405, Note_on_c, 0, 62, 36
1, 590405, Note_on_c, 0, 74, 43
1, 590405, Note_on_c, 0, 62, 23
1, 590597, Note_off_c, 0, 62, 0
1, 590597, Note_off_c, 0, 74, 0
1, 590597, Note_on_c, 0, 62, 23
1, 590597, Note_on_c, 0, 50, 23
1, 590885, Note_off_c, 0, 50, 0
1, 590885, Note_off_c, 0, 62, 0
1, 590885, Note_off_c, 0, 74, 0
1, 590885, Note_off_c, 0, 62, 0
1, 590885, Note_off_c, 0, 86, 0
1, 590885, Note_off_c, 0, 74, 0
1, 590981, Note_on_c, 0, 81, 36
1, 590981, Note_on_c, 0, 93, 43
1, 590981, Note_on_c, 0, 69, 23
1, 590981, Note_on_c, 0, 69, 36
1, 590981, Note_on_c, 0, 81, 43
1, 590981, Note_on_c, 0, 57, 23
1, 591173, Note_off_c, 0, 57, 0
1, 591173, Note_off_c, 0, 69, 0
1, 591173, Note_on_c, 0, 74, 23
1, 591173, Note_on_c, 0, 62, 23
1, 591269, Note_off_c, 0, 81, 0
1, 591269, Note_off_c, 0, 69, 0
1, 591269, Note_off_c, 0, 93, 0
1, 591269, Note_off_c, 0, 81, 0
1, 591269, Note_off_c, 0, 69, 0
1, 591269, Note_off_c, 0, 38, 0
1, 591269, Note_off_c, 0, 57, 0
1, 591269, Note_off_c, 0, 81, 0
1, 591269, Note_off_c, 0, 50, 0
1, 591269, Note_off_c, 0, 69, 0
1, 591365, Note_off_c, 0, 62, 0
1, 591365, Note_off_c, 0, 74, 0
1, 591365, Note_on_c, 0, 69, 36
1, 591365, Note_on_c, 0, 76, 36
1, 591365, Note_on_c, 0, 48, 36
1, 591365, Note_on_c, 0, 81, 43
1, 591365, Note_on_c, 0, 88, 43
1, 591365, Note_on_c, 0, 60, 23
1, 591365, Note_on_c, 0, 57, 36
1, 591365, Note_on_c, 0, 64, 36
1, 591365, Note_on_c, 0, 36, 36
1, 591365, Note_on_c, 0, 69, 43
1, 591365, Note_on_c, 0, 76, 43
1, 591365, Note_on_c, 0, 48, 23
1, 591653, Note_off_c, 0, 48, 0
1, 591653, Note_off_c, 0, 60, 0
1, 591749, Note_on_c, 0, 67, 23
1, 591749, Note_on_c, 0, 55, 23
1, 591941, Note_off_c, 0, 55, 0
1, 591941, Note_off_c, 0, 67, 0
1, 591941, Note_on_c, 0, 72, 23
1, 591941, Note_on_c, 0, 60, 23
1, 592133, Note_off_c, 0, 60, 0
1, 592133, Note_off_c, 0, 72, 0
1, 592133, Note_on_c, 0, 60, 23
1, 592133, Note_on_c, 0, 48, 23
1, 592421, Note_off_c, 0, 48, 0
1, 592421, Note_off_c, 0, 60, 0
1, 592517, Note_on_c, 0, 67, 23
1, 592517, Note_on_c, 0, 55, 23
1, 592709, Note_off_c, 0, 55, 0
1, 592709, Note_off_c, 0, 67, 0
1, 592709, Note_on_c, 0, 72, 23
1, 592709, Note_on_c, 0, 60, 23
1, 592805, Note_off_c, 0, 76, 0
1, 592805, Note_off_c, 0, 69, 0
1, 592805, Note_off_c, 0, 36, 0
1, 592805, Note_off_c, 0, 64, 0
1, 592805, Note_off_c, 0, 57, 0
1, 592805, Note_off_c, 0, 88, 0
1, 592805, Note_off_c, 0, 81, 0
1, 592805, Note_off_c, 0, 48, 0
1, 592805, Note_off_c, 0, 76, 0
1, 592805, Note_off_c, 0, 69, 0
1, 592901, Note_off_c, 0, 60, 0
1, 592901, Note_off_c, 0, 72, 0
1, 592901, Note_on_c, 0, 76, 36
1, 592901, Note_on_c, 0, 69, 36
1, 592901, Note_on_c, 0, 48, 36
1, 592901, Note_on_c, 0, 88, 43
1, 592901, Note_on_c, 0, 81, 43
1, 592901, Note_on_c, 0, 60, 23
1, 592901, Note_on_c, 0, 64, 36
1, 592901, Note_on_c, 0, 57, 36
1, 592901, Note_on_c, 0, 36, 36
1, 592901, Note_on_c, 0, 76, 43
1, 592901, Note_on_c, 0, 69, 43
1, 592901, Note_on_c, 0, 48, 23
1, 593189, Note_off_c, 0, 48, 0
1, 593189, Note_off_c, 0, 60, 0
1, 593285, Note_on_c, 0, 67, 23
1, 593285, Note_on_c, 0, 55, 23
1, 593381, Note_off_c, 0, 76, 0
1, 593381, Note_off_c, 0, 64, 0
1, 593381, Note_off_c, 0, 88, 0
1, 593381, Note_off_c, 0, 76, 0
1, 593477, Note_off_c, 0, 55, 0
1, 593477, Note_off_c, 0, 67, 0
1, 593477, Note_on_c, 0, 74, 36
1, 593477, Note_on_c, 0, 86, 43
1, 593477, Note_on_c, 0, 72, 23
1, 593477, Note_on_c, 0, 62, 36
1, 593477, Note_on_c, 0, 74, 43
1, 593477, Note_on_c, 0, 60, 23
1, 593669, Note_off_c, 0, 60, 0
1, 593669, Note_off_c, 0, 72, 0
1, 593669, Note_on_c, 0, 60, 23
1, 593669, Note_on_c, 0, 48, 23
1, 593957, Note_off_c, 0, 48, 0
1, 593957, Note_off_c, 0, 60, 0
1, 593957, Note_off_c, 0, 74, 0
1, 593957, Note_off_c, 0, 62, 0
1, 593957, Note_off_c, 0, 86, 0
1, 593957, Note_off_c, 0, 74, 0
1, 594053, Note_on_c, 0, 81, 36
1, 594053, Note_on_c, 0, 93, 43
1, 594053, Note_on_c, 0, 67, 23
1, 594053, Note_on_c, 0, 69, 36
1, 594053, Note_on_c, 0, 81, 43
1, 594053, Note_on_c, 0, 55, 23
1, 594245, Note_off_c, 0, 55, 0
1, 594245, Note_off_c, 0, 67, 0
1, 594245, Note_on_c, 0, 72, 23
1, 594245, Note_on_c, 0, 60, 23
1, 594341, Note_off_c, 0, 81, 0
1, 594341, Note_off_c, 0, 69, 0
1, 594341, Note_off_c, 0, 93, 0
1, 594341, Note_off_c, 0, 81, 0
1, 594341, Note_off_c, 0, 69, 0
1, 594341, Note_off_c, 0, 36, 0
1, 594341, Note_off_c, 0, 57, 0
1, 594341, Note_off_c, 0, 81, 0
1, 594341, Note_off_c, 0, 48, 0
1, 594341, Note_off_c, 0, 69, 0
1, 594437, Note_off_c, 0, 60, 0
1, 594437, Note_off_c, 0, 72, 0
1, 594437, Note_on_c, 0, 69, 36
1, 594437, Note_on_c, 0, 76, 36
1, 594437, Note_on_c, 0, 47, 36
1, 594437, Note_on_c, 0, 81, 43
1, 594437, Note_on_c, 0, 88, 43
1, 594437, Note_on_c, 0, 59, 23
1, 594437, Note_on_c, 0, 57, 36
1, 594437, Note_on_c, 0, 64, 36
1, 594437, Note_on_c, 0, 35, 36
1, 594437, Note_on_c, 0, 69, 43
1, 594437, Note_on_c, 0, 76, 43
1, 594437, Note_on_c, 0, 47, 23
1, 594725, Note_off_c, 0, 47, 0
1, 594725, Note_off_c, 0, 59, 0
1, 594821, Note_on_c, 0, 67, 23
1, 594821, Note_on_c, 0, 55, 23
1, 595013, Note_off_c, 0, 55, 0
1, 595013, Note_off_c, 0, 67, 0
1, 595013, Note_on_c, 0, 71, 23
1, 595013, Note_on_c, 0, 59, 23
1, 595205, Note_off_c, 0, 59, 0
1, 595205, Note_off_c, 0, 71, 0
1, 595205, Note_on_c, 0, 59, 23
1, 595205, Note_on_c, 0, 47, 23
1, 595493, Note_off_c, 0, 47, 0
1, 595493, Note_off_c, 0, 59, 0
1, 595589, Note_on_c, 0, 67, 23
1, 595589, Note_on_c, 0, 55, 23
1, 595781, Note_off_c, 0, 55, 0
1, 595781, Note_off_c, 0, 67, 0
1, 595781, Note_on_c, 0, 71, 23
1, 595781, Note_on_c, 0, 59, 23
1, 595877, Note_off_c, 0, 76, 0
1, 595877, Note_off_c, 0, 69, 0
1, 595877, Note_off_c, 0, 35, 0
1, 595877, Note_off_c, 0, 64, 0
1, 595877, Note_off_c, 0, 57, 0
1, 595877, Note_off_c, 0, 88, 0
1, 595877, Note_off_c, 0, 81, 0
1, 595877, Note_off_c, 0, 47, 0
1, 595877, Note_off_c, 0, 76, 0
1, 595877, Note_off_c, 0, 69, 0
1, 595973, Note_off_c, 0, 59, 0
1, 595973, Note_off_c, 0, 71, 0
1, 595973, Note_on_c, 0, 76, 36
1, 595973, Note_on_c, 0, 69, 36
1, 595973, Note_on_c, 0, 47, 36
1, 595973, Note_on_c, 0, 88, 43
1, 595973, Note_on_c, 0, 81, 43
1, 595973, Note_on_c, 0, 59, 23
1, 595973, Note_on_c, 0, 64, 36
1, 595973, Note_on_c, 0, 57, 36
1, 595973, Note_on_c, 0, 35, 36
1, 595973, Note_on_c, 0, 76, 43
1, 595973, Note_on_c, 0, 69, 43
1, 595973, Note_on_c, 0, 47, 23
1, 596261, Note_off_c, 0, 47, 0
1, 596261, Note_off_c, 0, 59, 0
1, 596357, Note_on_c, 0, 67, 23
1, 596357, Note_on_c, 0, 55, 23
1, 596453, Note_off_c, 0, 76, 0
1, 596453, Note_off_c, 0, 64, 0
1, 596453, Note_off_c, 0, 88, 0
1, 596453, Note_off_c, 0, 76, 0
1, 596549, Note_off_c, 0, 55, 0
1, 596549, Note_off_c, 0, 67, 0
1, 596549, Note_on_c, 0, 74, 36
1, 596549, Note_on_c, 0, 86, 43
1, 596549, Note_on_c, 0, 71, 23
1, 596549, Note_on_c, 0, 62, 36
1, 596549, Note_on_c, 0, 74, 43
1, 596549, Note_on_c, 0, 59, 23
1, 596741, Note_off_c, 0, 59, 0
1, 596741, Note_off_c, 0, 71, 0
1, 596741, Note_on_c, 0, 59, 23
1, 596741, Note_on_c, 0, 47, 23
1, 597029, Note_off_c, 0, 47, 0
1, 597029, Note_off_c, 0, 59, 0
1, 597029, Note_off_c, 0, 74, 0
1, 597029, Note_off_c, 0, 62, 0
1, 597029, Note_off_c, 0, 86, 0
1, 597029, Note_off_c, 0, 74, 0
1, 597125, Note_on_c, 0, 81, 36
1, 597125, Note_on_c, 0, 93, 43
1, 597125, Note_on_c, 0, 67, 23
1, 597125, Note_on_c, 0, 69, 36
1, 597125, Note_on_c, 0, 81, 43
1, 597125, Note_on_c, 0, 55, 23
1, 597317, Note_off_c, 0, 55, 0
1, 597317, Note_off_c, 0, 67, 0
1, 597317, Note_on_c, 0, 71, 23
1, 597317, Note_on_c, 0, 59, 23
1, 597413, Note_off_c, 0, 81, 0
1, 597413, Note_off_c, 0, 69, 0
1, 597413, Note_off_c, 0, 93, 0
1, 597413, Note_off_c, 0, 81, 0
1, 597413, Note_off_c, 0, 69, 0
1, 597413, Note_off_c, 0, 35, 0
1, 597413, Note_off_c, 0, 57, 0
1, 597413, Note_off_c, 0, 81, 0
1, 597413, Note_off_c, 0, 47, 0
1, 597413, Note_off_c, 0, 69, 0
1, 597509, Note_off_c, 0, 59, 0
1, 597509, Note_off_c, 0, 71, 0
1, 597509, Note_on_c, 0, 76, 36
1, 597509, Note_on_c, 0, 46, 36
1, 597509, Note_on_c, 0, 88, 43
1, 597509, Note_on_c, 0, 58, 23
1, 597509, Note_on_c, 0, 64, 36
1, 597509, Note_on_c, 0, 34, 36
1, 597509, Note_on_c, 0, 76, 43
1, 597509, Note_on_c, 0, 46, 23
1, 597797, Note_off_c, 0, 46, 0
1, 597797, Note_off_c, 0, 58, 0
1, 597893, Note_on_c, 0, 65, 23
1, 597893, Note_on_c, 0, 53, 23
1, 597989, Note_off_c, 0, 76, 0
1, 597989, Note_off_c, 0, 64, 0
1, 597989, Note_off_c, 0, 88, 0
1, 597989, Note_off_c, 0, 76, 0
1, 598085, Note_off_c, 0, 53, 0
1, 598085, Note_off_c, 0, 65, 0
1, 598085, Note_on_c, 0, 74, 36
1, 598085, Note_on_c, 0, 86, 43
1, 598085, Note_on_c, 0, 70, 23
1, 598085, Note_on_c, 0, 62, 36
1, 598085, Note_on_c, 0, 74, 43
1, 598085, Note_on_c, 0, 58, 23
1, 598277, Note_off_c, 0, 58, 0
1, 598277, Note_off_c, 0, 70, 0
1, 598277, Note_on_c, 0, 58, 23
1, 598277, Note_on_c, 0, 46, 23
1, 598565, Note_off_c, 0, 46, 0
1, 598565, Note_off_c, 0, 58, 0
1, 598565, Note_off_c, 0, 74, 0
1, 598565, Note_off_c, 0, 62, 0
1, 598565, Note_off_c, 0, 86, 0
1, 598565, Note_off_c, 0, 74, 0
1, 598661, Note_on_c, 0, 76, 36
1, 598661, Note_on_c, 0, 88, 43
1, 598661, Note_on_c, 0, 65, 23
1, 598661, Note_on_c, 0, 64, 36
1, 598661, Note_on_c, 0, 76, 43
1, 598661, Note_on_c, 0, 53, 23
1, 598853, Note_off_c, 0, 53, 0
1, 598853, Note_off_c, 0, 65, 0
1, 598853, Note_on_c, 0, 70, 23
1, 598853, Note_on_c, 0, 58, 23
1, 598949, Note_off_c, 0, 76, 0
1, 598949, Note_off_c, 0, 64, 0
1, 598949, Note_off_c, 0, 88, 0
1, 598949, Note_off_c, 0, 76, 0
1, 598949, Note_off_c, 0, 34, 0
1, 598949, Note_off_c, 0, 46, 0
1, 599045, Note_off_c, 0, 58, 0
1, 599045, Note_off_c, 0, 70, 0
1, 599045, Note_on_c, 0, 77, 36
1, 599045, Note_on_c, 0, 48, 36
1, 599045, Note_on_c, 0, 89, 43
1, 599045, Note_on_c, 0, 60, 23
1, 599045, Note_on_c, 0, 65, 36
1, 599045, Note_on_c, 0, 36, 36
1, 599045, Note_on_c, 0, 77, 43
1, 599045, Note_on_c, 0, 48, 23
1, 599333, Note_off_c, 0, 48, 0
1, 599333, Note_off_c, 0, 77, 0
1, 599333, Note_off_c, 0, 65, 0
1, 599333, Note_off_c, 0, 60, 0
1, 599333, Note_off_c, 0, 89, 0
1, 599333, Note_off_c, 0, 77, 0
1, 599429, Note_on_c, 0, 76, 36
1, 599429, Note_on_c, 0, 88, 43
1, 599429, Note_on_c, 0, 67, 23
1, 599429, Note_on_c, 0, 64, 36
1, 599429, Note_on_c, 0, 76, 43
1, 599429, Note_on_c, 0, 55, 23
1, 599621, Note_off_c, 0, 55, 0
1, 599621, Note_off_c, 0, 67, 0
1, 599621, Note_on_c, 0, 72, 23
1, 599621, Note_on_c, 0, 60, 23
1, 599717, Note_off_c, 0, 76, 0
1, 599717, Note_off_c, 0, 64, 0
1, 599717, Note_off_c, 0, 88, 0
1, 599717, Note_off_c, 0, 76, 0
1, 599813, Note_off_c, 0, 60, 0
1, 599813, Note_off_c, 0, 72, 0
1, 599813, Note_on_c, 0, 77, 36
1, 599813, Note_on_c, 0, 89, 43
1, 599813, Note_on_c, 0, 60, 23
1, 599813, Note_on_c, 0, 65, 36
1, 599813, Note_on_c, 0, 77, 43
1, 599813, Note_on_c, 0, 48, 23
1, 600101, Note_off_c, 0, 48, 0
1, 600101, Note_off_c, 0, 77, 0
1, 600101, Note_off_c, 0, 65, 0
1, 600101, Note_off_c, 0, 60, 0
1, 600101, Note_off_c, 0, 89, 0
1, 600101, Note_off_c, 0, 77, 0
1, 600197, Note_on_c, 0, 76, 36
1, 600197, Note_on_c, 0, 88, 43
1, 600197, Note_on_c, 0, 67, 23
1, 600197, Note_on_c, 0, 64, 36
1, 600197, Note_on_c, 0, 76, 43
1, 600197, Note_on_c, 0, 55, 23
1, 600389, Note_off_c, 0, 55, 0
1, 600389, Note_off_c, 0, 67, 0
1, 600389, Note_on_c, 0, 72, 23
1, 600389, Note_on_c, 0, 60, 23
1, 600485, Note_off_c, 0, 76, 0
1, 600485, Note_off_c, 0, 64, 0
1, 600485, Note_off_c, 0, 88, 0
1, 600485, Note_off_c, 0, 76, 0
1, 600485, Note_off_c, 0, 36, 0
1, 600485, Note_off_c, 0, 48, 0
1, 600581, Note_off_c, 0, 60, 0
1, 600581, Note_off_c, 0, 72, 0
1, 600581, Note_on_c, 0, 69, 36
1, 600581, Note_on_c, 0, 76, 36
1, 600581, Note_on_c, 0, 50, 36
1, 600581, Note_on_c, 0, 81, 43
1, 600581, Note_on_c, 0, 88, 43
1, 600581, Note_on_c, 0, 62, 23
1, 600581, Note_on_c, 0, 57, 36
1, 600581, Note_on_c, 0, 64, 36
1, 600581, Note_on_c, 0, 38, 36
1, 600581, Note_on_c, 0, 69, 43
1, 600581, Note_on_c, 0, 76, 43
1, 600581, Note_on_c, 0, 50, 23
1, 600869, Note_off_c, 0, 50, 0
1, 600869, Note_off_c, 0, 62, 0
1, 600965, Note_on_c, 0, 69, 23
1, 600965, Note_on_c, 0, 57, 23
1, 601157, Note_off_c, 0, 57, 0
1, 601157, Note_off_c, 0, 69, 0
1, 601157, Note_on_c, 0, 74, 23
1, 601157, Note_on_c, 0, 62, 23
1, 601349, Note_off_c, 0, 62, 0
1, 601349, Note_off_c, 0, 74, 0
1, 601349, Note_on_c, 0, 62, 23
1, 601349, Note_on_c, 0, 50, 23
1, 601637, Note_off_c, 0, 50, 0
1, 601637, Note_off_c, 0, 62, 0
1, 601733, Note_on_c, 0, 69, 23
1, 601733, Note_on_c, 0, 57, 23
1, 601925, Note_off_c, 0, 57, 0
1, 601925, Note_off_c, 0, 69, 0
1, 601925, Note_on_c, 0, 74, 23
1, 601925, Note_on_c, 0, 62, 23
1, 602021, Note_off_c, 0, 76, 0
1, 602021, Note_off_c, 0, 69, 0
1, 602021, Note_off_c, 0, 38, 0
1, 602021, Note_off_c, 0, 64, 0
1, 602021, Note_off_c, 0, 57, 0
1, 602021, Note_off_c, 0, 88, 0
1, 602021, Note_off_c, 0, 81, 0
1, 602021, Note_off_c, 0, 50, 0
1, 602021, Note_off_c, 0, 76, 0
1, 602021, Note_off_c, 0, 69, 0
1, 602117, Note_off_c, 0, 62, 0
1, 602117, Note_off_c, 0, 74, 0
1, 602117, Note_on_c, 0, 76, 36
1, 602117, Note_on_c, 0, 69, 36
1, 602117, Note_on_c, 0, 50, 36
1, 602117, Note_on_c, 0, 88, 43
1, 602117, Note_on_c, 0, 81, 43
1, 602117, Note_on_c, 0, 62, 23
1, 602117, Note_on_c, 0, 64, 36
1, 602117, Note_on_c, 0, 57, 36
1, 602117, Note_on_c, 0, 38, 36
1, 602117, Note_on_c, 0, 76, 43
1, 602117, Note_on_c, 0, 69, 43
1, 602117, Note_on_c, 0, 50, 23
1, 602405, Note_off_c, 0, 50, 0
1, 602405, Note_off_c, 0, 62, 0
1, 602501, Note_on_c, 0, 69, 23
1, 602501, Note_on_c, 0, 57, 23
1, 602597, Note_off_c, 0, 76, 0
1, 602597, Note_off_c, 0, 64, 0
1, 602597, Note_off_c, 0, 88, 0
1, 602597, Note_off_c, 0, 76, 0
1, 602693, Note_off_c, 0, 57, 0
1, 602693, Note_off_c, 0, 69, 0
1, 602693, Note_on_c, 0, 74, 36
1, 602693, Note_on_c, 0, 86, 43
1, 602693, Note_on_c, 0, 74, 23
1, 602693, Note_on_c, 0, 62, 36
1, 602693, Note_on_c, 0, 74, 43
1, 602693, Note_on_c, 0, 62, 23
1, 602885, Note_off_c, 0, 62, 0
1, 602885, Note_off_c, 0, 74, 0
1, 602885, Note_on_c, 0, 62, 23
1, 602885, Note_on_c, 0, 50, 23
1, 603173, Note_off_c, 0, 50, 0
1, 603173, Note_off_c, 0, 62, 0
1, 603173, Note_off_c, 0, 74, 0
1, 603173, Note_off_c, 0, 62, 0
1, 603173, Note_off_c, 0, 86, 0
1, 603173, Note_off_c, 0, 74, 0
1, 603269, Note_on_c, 0, 81, 36
1, 603269, Note_on_c, 0, 93, 43
1, 603269, Note_on_c, 0, 69, 23
1, 603269, Note_on_c, 0, 69, 36
1, 603269, Note_on_c, 0, 81, 43
1, 603269, Note_on_c, 0, 57, 23
1, 603461, Note_off_c, 0, 57, 0
1, 603461, Note_off_c, 0, 69, 0
1, 603461, Note_on_c, 0, 74, 23
1, 603461, Note_on_c, 0, 62, 23
1, 603557, Note_off_c, 0, 81, 0
1, 603557, Note_off_c, 0, 69, 0
1, 603557, Note_off_c, 0, 93, 0
1, 603557, Note_off_c, 0, 81, 0
1, 603557, Note_off_c, 0, 69, 0
1, 603557, Note_off_c, 0, 38, 0
1, 603557, Note_off_c, 0, 57, 0
1, 603557, Note_off_c, 0, 81, 0
1, 603557, Note_off_c, 0, 50, 0
1, 603557, Note_off_c, 0, 69, 0
1, 603653, Note_off_c, 0, 62, 0
1, 603653, Note_off_c, 0, 74, 0
1, 603653, Note_on_c, 0, 69, 36
1, 603653, Note_on_c, 0, 76, 36
1, 603653, Note_on_c, 0, 48, 36
1, 603653, Note_on_c, 0, 81, 43
1, 603653, Note_on_c, 0, 88, 43
1, 603653, Note_on_c, 0, 60, 23
1, 603653, Note_on_c, 0, 57, 36
1, 603653, Note_on_c, 0, 64, 36
1, 603653, Note_on_c, 0, 36, 36
1, 603653, Note_on_c, 0, 69, 43
1, 603653, Note_on_c, 0, 76, 43
1, 603653, Note_on_c, 0, 48, 23
1, 603941, Note_off_c, 0, 48, 0
1, 603941, Note_off_c, 0, 60, 0
1, 604037, Note_on_c, 0, 67, 23
1, 604037, Note_on_c, 0, 55, 23
1, 604229, Note_off_c, 0, 55, 0
1, 604229, Note_off_c, 0, 67, 0
1, 604229, Note_on_c, 0, 72, 23
1, 604229, Note_on_c, 0, 60, 23
1, 604421, Note_off_c, 0, 60, 0
1, 604421, Note_off_c, 0, 72, 0
1, 604421, Note_on_c, 0, 60, 23
1, 604421, Note_on_c, 0, 48, 23
1, 604709, Note_off_c, 0, 48, 0
1, 604709, Note_off_c, 0, 60, 0
1, 604805, Note_on_c, 0, 67, 23
1, 604805, Note_on_c, 0, 55, 23
1, 604997, Note_off_c, 0, 55, 0
1, 604997, Note_off_c, 0, 67, 0
1, 604997, Note_on_c, 0, 72, 23
1, 604997, Note_on_c, 0, 60, 23
1, 605093, Note_off_c, 0, 76, 0
1, 605093, Note_off_c, 0, 69, 0
1, 605093, Note_off_c, 0, 36, 0
1, 605093, Note_off_c, 0, 64, 0
1, 605093, Note_off_c, 0, 57, 0
1, 605093, Note_off_c, 0, 88, 0
1, 605093, Note_off_c, 0, 81, 0
1, 605093, Note_off_c, 0, 48, 0
1, 605093, Note_off_c, 0, 76, 0
1, 605093, Note_off_c, 0, 69, 0
1, 605189, Note_off_c, 0, 60, 0
1, 605189, Note_off_c, 0, 72, 0
1, 605189, Note_on_c, 0, 76, 36
1, 605189, Note_on_c, 0, 69, 36
1, 605189, Note_on_c, 0, 48, 36
1, 605189, Note_on_c, 0, 88, 43
1, 605189, Note_on_c, 0, 81, 43
1, 605189, Note_on_c, 0, 60, 23
1, 605189, Note_on_c, 0, 64, 36
1, 605189, Note_on_c, 0, 57, 36
1, 605189, Note_on_c, 0, 36, 36
1, 605189, Note_on_c, 0, 76, 43
1, 605189, Note_on_c, 0, 69, 43
1, 605189, Note_on_c, 0, 48, 23
1, 605477, Note_off_c, 0, 48, 0
1, 605477, Note_off_c, 0, 60, 0
1, 605573, Note_on_c, 0, 67, 23
1, 605573, Note_on_c, 0, 55, 23
1, 605669, Note_off_c, 0, 76, 0
1, 605669, Note_off_c, 0, 64, 0
1, 605669, Note_off_c, 0, 88, 0
1, 605669, Note_off_c, 0, 76, 0
1, 605765, Note_off_c, 0, 55, 0
1, 605765, Note_off_c, 0, 67, 0
1, 605765, Note_on_c, 0, 74, 36
1, 605765, Note_on_c, 0, 86, 43
1, 605765, Note_on_c, 0, 72, 23
1, 605765, Note_on_c, 0, 62, 36
1, 605765, Note_on_c, 0, 74, 43
1, 605765, Note_on_c, 0, 60, 23
1, 605957, Note_off_c, 0, 60, 0
1, 605957, Note_off_c, 0, 72, 0
1, 605957, Note_on_c, 0, 60, 23
1, 605957, Note_on_c, 0, 48, 23
1, 606245, Note_off_c, 0, 48, 0
1, 606245, Note_off_c, 0, 60, 0
1, 606245, Note_off_c, 0, 74, 0
1, 606245, Note_off_c, 0, 62, 0
1, 606245, Note_off_c, 0, 86, 0
1, 606245, Note_off_c, 0, 74, 0
1, 606341, Note_on_c, 0, 81, 36
1, 606341, Note_on_c, 0, 93, 43
1, 606341, Note_on_c, 0, 67, 23
1, 606341, Note_on_c, 0, 69, 36
1, 606341, Note_on_c, 0, 81, 43
1, 606341, Note_on_c, 0, 55, 23
1, 606533, Note_off_c, 0, 55, 0
1, 606533, Note_off_c, 0, 67, 0
1, 606533, Note_on_c, 0, 72, 23
1, 606533, Note_on_c, 0, 60, 23
1, 606629, Note_off_c, 0, 81, 0
1, 606629, Note_off_c, 0, 69, 0
1, 606629, Note_off_c, 0, 93, 0
1, 606629, Note_off_c, 0, 81, 0
1, 606629, Note_off_c, 0, 69, 0
1, 606629, Note_off_c, 0, 36, 0
1, 606629, Note_off_c, 0, 57, 0
1, 606629, Note_off_c, 0, 81, 0
1, 606629, Note_off_c, 0, 48, 0
1, 606629, Note_off_c, 0, 69, 0
1, 606725, Note_off_c, 0, 60, 0
1, 606725, Note_off_c, 0, 72, 0
1, 606725, Note_on_c, 0, 76, 36
1, 606725, Note_on_c, 0, 69, 36
1, 606725, Note_on_c, 0, 47, 36
1, 606725, Note_on_c, 0, 88, 43
1, 606725, Note_on_c, 0, 81, 43
1, 606725, Note_on_c, 0, 59, 23
1, 606725, Note_on_c, 0, 64, 36
1, 606725, Note_on_c, 0, 57, 36
1, 606725, Note_on_c, 0, 35, 36
1, 606725, Note_on_c, 0, 76, 43
1, 606725, Note_on_c, 0, 69, 43
1, 606725, Note_on_c, 0, 47, 23
1, 607013, Note_off_c, 0, 47, 0
1, 607013, Note_off_c, 0, 59, 0
1, 607109, Note_on_c, 0, 67, 23
1, 607109, Note_on_c, 0, 55, 23
1, 607205, Note_off_c, 0, 76, 0
1, 607205, Note_off_c, 0, 64, 0
1, 607205, Note_off_c, 0, 88, 0
1, 607205, Note_off_c, 0, 76, 0
1, 607301, Note_off_c, 0, 55, 0
1, 607301, Note_off_c, 0, 67, 0
1, 607301, Note_on_c, 0, 81, 36
1, 607301, Note_on_c, 0, 93, 43
1, 607301, Note_on_c, 0, 71, 23
1, 607301, Note_on_c, 0, 69, 36
1, 607301, Note_on_c, 0, 81, 43
1, 607301, Note_on_c, 0, 59, 23
1, 607493, Note_off_c, 0, 59, 0
1, 607493, Note_off_c, 0, 71, 0
1, 607493, Note_on_c, 0, 59, 23
1, 607493, Note_on_c, 0, 47, 23
1, 607781, Note_off_c, 0, 47, 0
1, 607781, Note_off_c, 0, 59, 0
1, 607781, Note_off_c, 0, 81, 0
1, 607781, Note_off_c, 0, 69, 0
1, 607781, Note_off_c, 0, 93, 0
1, 607781, Note_off_c, 0, 81, 0
1, 607877, Note_on_c, 0, 81, 36
1, 607877, Note_on_c, 0, 93, 43
1, 607877, Note_on_c, 0, 67, 23
1, 607877, Note_on_c, 0, 69, 36
1, 607877, Note_on_c, 0, 81, 43
1, 607877, Note_on_c, 0, 55, 23
1, 608069, Note_off_c, 0, 55, 0
1, 608069, Note_off_c, 0, 67, 0
1, 608069, Note_on_c, 0, 71, 23
1, 608069, Note_on_c, 0, 59, 23
1, 608165, Note_off_c, 0, 81, 0
1, 608165, Note_off_c, 0, 69, 0
1, 608165, Note_off_c, 0, 93, 0
1, 608165, Note_off_c, 0, 81, 0
1, 608165, Note_off_c, 0, 69, 0
1, 608165, Note_off_c, 0, 35, 0
1, 608165, Note_off_c, 0, 57, 0
1, 608165, Note_off_c, 0, 81, 0
1, 608165, Note_off_c, 0, 47, 0
1, 608165, Note_off_c, 0, 69, 0
1, 608261, Note_off_c, 0, 59, 0
1, 608261, Note_off_c, 0, 71, 0
1, 608261, Note_on_c, 0, 81, 36
1, 608261, Note_on_c, 0, 47, 36
1, 608261, Note_on_c, 0, 93, 43
1, 608261, Note_on_c, 0, 59, 23
1, 608261, Note_on_c, 0, 69, 36
1, 608261, Note_on_c, 0, 35, 36
1, 608261, Note_on_c, 0, 81, 43
1, 608261, Note_on_c, 0, 47, 23
1, 608549, Note_off_c, 0, 47, 0
1, 608549, Note_off_c, 0, 81, 0
1, 608549, Note_off_c, 0, 69, 0
1, 608549, Note_off_c, 0, 59, 0
1, 608549, Note_off_c, 0, 93, 0
1, 608549, Note_off_c, 0, 81, 0
1, 608645, Note_on_c, 0, 91, 43
1, 608645, Note_on_c, 0, 67, 23
1, 608645, Note_on_c, 0, 65, 36
1, 608645, Note_on_c, 0, 79, 43
1, 608645, Note_on_c, 0, 55, 23
1, 608837, Note_off_c, 0, 55, 0
1, 608837, Note_off_c, 0, 79, 0
1, 608837, Note_off_c, 0, 65, 0
1, 608837, Note_off_c, 0, 67, 0
1, 608837, Note_off_c, 0, 91, 0
1, 608837, Note_on_c, 0, 76, 36
1, 608837, Note_on_c, 0, 88, 43
1, 608837, Note_on_c, 0, 71, 23
1, 608837, Note_on_c, 0, 64, 36
1, 608837, Note_on_c, 0, 76, 43
1, 608837, Note_on_c, 0, 59, 23
1, 609029, Note_off_c, 0, 59, 0
1, 609029, Note_off_c, 0, 76, 0
1, 609029, Note_off_c, 0, 64, 0
1, 609029, Note_off_c, 0, 71, 0
1, 609029, Note_off_c, 0, 88, 0
1, 609029, Note_off_c, 0, 76, 0
1, 609029, Note_on_c, 0, 74, 36
1, 609029, Note_on_c, 0, 86, 43
1, 609029, Note_on_c, 0, 59, 23
1, 609029, Note_on_c, 0, 62, 36
1, 609029, Note_on_c, 0, 74, 43
1, 609029, Note_on_c, 0, 47, 23
1, 609317, Note_off_c, 0, 47, 0
1, 609317, Note_off_c, 0, 59, 0
1, 609413, Note_on_c, 0, 67, 23
1, 609413, Note_on_c, 0, 55, 23
1, 609605, Note_off_c, 0, 55, 0
1, 609605, Note_off_c, 0, 67, 0
1, 609605, Note_on_c, 0, 71, 23
1, 609605, Note_on_c, 0, 59, 23
1, 609701, Note_off_c, 0, 74, 0
1, 609701, Note_off_c, 0, 62, 0
1, 609701, Note_off_c, 0, 86, 0
1, 609701, Note_off_c, 0, 74, 0
1, 609701, Note_off_c, 0, 35, 0
1, 609701, Note_off_c, 0, 47, 0
1, 609797, Note_off_c, 0, 59, 0
1, 609797, Note_off_c, 0, 71, 0
1, 609797, Note_on_c, 0, 76, 36
1, 609797, Note_on_c, 0, 46, 36
1, 609797, Note_on_c, 0, 88, 43
1, 609797, Note_on_c, 0, 58, 23
1, 609797, Note_on_c, 0, 64, 36
1, 609797, Note_on_c, 0, 34, 36
1, 609797, Note_on_c, 0, 76, 43
1, 609797, Note_on_c, 0, 46, 23
1, 610085, Note_off_c, 0, 46, 0
1, 610085, Note_off_c, 0, 58, 0
1, 610181, Note_on_c, 0, 65, 23
1, 610181, Note_on_c, 0, 53, 23
1, 610373, Note_off_c, 0, 53, 0
1, 610373, Note_off_c, 0, 65, 0
1, 610373, Note_on_c, 0, 70, 23
1, 610373, Note_on_c, 0, 58, 23
1, 610565, Note_off_c, 0, 58, 0
1, 610565, Note_off_c, 0, 70, 0
1, 610565, Note_on_c, 0, 58, 23
1, 610565, Note_on_c, 0, 46, 23
1, 610853, Note_off_c, 0, 46, 0
1, 610853, Note_off_c, 0, 58, 0
1, 610949, Note_on_c, 0, 65, 23
1, 610949, Note_on_c, 0, 53, 23
1, 611141, Note_off_c, 0, 53, 0
1, 611141, Note_off_c, 0, 65, 0
1, 611141, Note_on_c, 0, 70, 23
1, 611141, Note_on_c, 0, 58, 23
1, 611237, Note_off_c, 0, 76, 0
1, 611237, Note_off_c, 0, 34, 0
1, 611237, Note_off_c, 0, 64, 0
1, 611237, Note_off_c, 0, 88, 0
1, 611237, Note_off_c, 0, 46, 0
1, 611237, Note_off_c, 0, 76, 0
1, 611333, Note_off_c, 0, 58, 0
1, 611333, Note_off_c, 0, 70, 0
1, 611333, Note_on_c, 0, 77, 36
1, 611333, Note_on_c, 0, 48, 36
1, 611333, Note_on_c, 0, 89, 43
1, 611333, Note_on_c, 0, 60, 23
1, 611333, Note_on_c, 0, 65, 36
1, 611333, Note_on_c, 0, 36, 36
1, 611333, Note_on_c, 0, 77, 43
1, 611333, Note_on_c, 0, 48, 23
1, 611621, Note_off_c, 0, 48, 0
1, 611621, Note_off_c, 0, 60, 0
1, 611717, Note_on_c, 0, 67, 23
1, 611717, Note_on_c, 0, 55, 23
1, 611909, Note_off_c, 0, 55, 0
1, 611909, Note_off_c, 0, 67, 0
1, 611909, Note_on_c, 0, 72, 23
1, 611909, Note_on_c, 0, 60, 23
1, 612101, Note_off_c, 0, 60, 0
1, 612101, Note_off_c, 0, 72, 0
1, 612101, Note_on_c, 0, 60, 23
1, 612101, Note_on_c, 0, 48, 23
1, 612389, Note_off_c, 0, 48, 0
1, 612389, Note_off_c, 0, 60, 0
1, 612485, Note_on_c, 0, 67, 23
1, 612485, Note_on_c, 0, 55, 23
1, 612677, Note_off_c, 0, 55, 0
1, 612677, Note_off_c, 0, 67, 0
1, 612677, Note_on_c, 0, 72, 23
1, 612677, Note_on_c, 0, 60, 23
1, 612773, Note_off_c, 0, 77, 0
1, 612773, Note_off_c, 0, 36, 0
1, 612773, Note_off_c, 0, 65, 0
1, 612773, Note_off_c, 0, 89, 0
1, 612773, Note_off_c, 0, 48, 0
1, 612773, Note_off_c, 0, 77, 0
1, 612869, Note_off_c, 0, 60, 0
1, 612869, Note_off_c, 0, 72, 0
1, 612869, Note_on_c, 0, 69, 36
1, 612869, Note_on_c, 0, 76, 36
1, 612869, Note_on_c, 0, 50, 36
1, 612869, Note_on_c, 0, 81, 43
1, 612869, Note_on_c, 0, 88, 43
1, 612869, Note_on_c, 0, 62, 23
1, 612869, Note_on_c, 0, 57, 36
1, 612869, Note_on_c, 0, 64, 36
1, 612869, Note_on_c, 0, 38, 36
1, 612869, Note_on_c, 0, 69, 43
1, 612869, Note_on_c, 0, 76, 43
1, 612869, Note_on_c, 0, 50, 23
1, 613157, Note_off_c, 0, 50, 0
1, 613157, Note_off_c, 0, 62, 0
1, 613253, Note_on_c, 0, 69, 23
1, 613253, Note_on_c, 0, 57, 23
1, 613445, Note_off_c, 0, 57, 0
1, 613445, Note_off_c, 0, 69, 0
1, 613445, Note_on_c, 0, 74, 23
1, 613445, Note_on_c, 0, 62, 23
1, 613637, Note_off_c, 0, 62, 0
1, 613637, Note_off_c, 0, 74, 0
1, 613637, Note_on_c, 0, 62, 23
1, 613637, Note_on_c, 0, 50, 23
1, 613925, Note_off_c, 0, 50, 0
1, 613925, Note_off_c, 0, 62, 0
1, 614021, Note_on_c, 0, 69, 23
1, 614021, Note_on_c, 0, 57, 23
1, 614213, Note_off_c, 0, 57, 0
1, 614213, Note_off_c, 0, 69, 0
1, 614213, Note_on_c, 0, 74, 23
1, 614213, Note_on_c, 0, 62, 23
1, 614309, Note_off_c, 0, 76, 0
1, 614309, Note_off_c, 0, 69, 0
1, 614309, Note_off_c, 0, 38, 0
1, 614309, Note_off_c, 0, 64, 0
1, 614309, Note_off_c, 0, 57, 0
1, 614309, Note_off_c, 0, 88, 0
1, 614309, Note_off_c, 0, 81, 0
1, 614309, Note_off_c, 0, 50, 0
1, 614309, Note_off_c, 0, 76, 0
1, 614309, Note_off_c, 0, 69, 0
1, 614405, Note_off_c, 0, 62, 0
1, 614405, Note_off_c, 0, 74, 0
1, 614405, Note_on_c, 0, 76, 36
1, 614405, Note_on_c, 0, 69, 36
1, 614405, Note_on_c, 0, 50, 36
1, 614405, Note_on_c, 0, 88, 43
1, 614405, Note_on_c, 0, 81, 43
1, 614405, Note_on_c, 0, 62, 23
1, 614405, Note_on_c, 0, 64, 36
1, 614405, Note_on_c, 0, 57, 36
1, 614405, Note_on_c, 0, 38, 36
1, 614405, Note_on_c, 0, 76, 43
1, 614405, Note_on_c, 0, 69, 43
1, 614405, Note_on_c, 0, 50, 23
1, 614693, Note_off_c, 0, 50, 0
1, 614693, Note_off_c, 0, 62, 0
1, 614789, Note_on_c, 0, 69, 23
1, 614789, Note_on_c, 0, 57, 23
1, 614885, Note_off_c, 0, 76, 0
1, 614885, Note_off_c, 0, 64, 0
1, 614885, Note_off_c, 0, 88, 0
1, 614885, Note_off_c, 0, 76, 0
1, 614981, Note_off_c, 0, 57, 0
1, 614981, Note_off_c, 0, 69, 0
1, 614981, Note_on_c, 0, 74, 36
1, 614981, Note_on_c, 0, 86, 43
1, 614981, Note_on_c, 0, 74, 23
1, 614981, Note_on_c, 0, 62, 36
1, 614981, Note_on_c, 0, 74, 43
1, 614981, Note_on_c, 0, 62, 23
1, 615173, Note_off_c, 0, 62, 0
1, 615173, Note_off_c, 0, 74, 0
1, 615173, Note_on_c, 0, 62, 23
1, 615173, Note_on_c, 0, 50, 23
1, 615461, Note_off_c, 0, 50, 0
1, 615461, Note_off_c, 0, 62, 0
1, 615461, Note_off_c, 0, 74, 0
1, 615461, Note_off_c, 0, 62, 0
1, 615461, Note_off_c, 0, 86, 0
1, 615461, Note_off_c, 0, 74, 0
1, 615557, Note_on_c, 0, 81, 36
1, 615557, Note_on_c, 0, 93, 43
1, 615557, Note_on_c, 0, 69, 23
1, 615557, Note_on_c, 0, 69, 36
1, 615557, Note_on_c, 0, 81, 43
1, 615557, Note_on_c, 0, 57, 23
1, 615749, Note_off_c, 0, 57, 0
1, 615749, Note_off_c, 0, 69, 0
1, 615749, Note_on_c, 0, 74, 23
1, 615749, Note_on_c, 0, 62, 23
1, 615845, Note_off_c, 0, 81, 0
1, 615845, Note_off_c, 0, 69, 0
1, 615845, Note_off_c, 0, 93, 0
1, 615845, Note_off_c, 0, 81, 0
1, 615845, Note_off_c, 0, 69, 0
1, 615845, Note_off_c, 0, 38, 0
1, 615845, Note_off_c, 0, 57, 0
1, 615845, Note_off_c, 0, 81, 0
1, 615845, Note_off_c, 0, 50, 0
1, 615845, Note_off_c, 0, 69, 0
1, 615941, Note_off_c, 0, 62, 0
1, 615941, Note_off_c, 0, 74, 0
1, 615941, Note_on_c, 0, 69, 36
1, 615941, Note_on_c, 0, 76, 36
1, 615941, Note_on_c, 0, 48, 36
1, 615941, Note_on_c, 0, 81, 43
1, 615941, Note_on_c, 0, 88, 43
1, 615941, Note_on_c, 0, 60, 23
1, 615941, Note_on_c, 0, 57, 36
1, 615941, Note_on_c, 0, 64, 36
1, 615941, Note_on_c, 0, 36, 36
1, 615941, Note_on_c, 0, 69, 43
1, 615941, Note_on_c, 0, 76, 43
1, 615941, Note_on_c, 0, 48, 23
1, 616229, Note_off_c, 0, 48, 0
1, 616229, Note_off_c, 0, 60, 0
1, 616325, Note_on_c, 0, 67, 23
1, 616325, Note_on_c, 0, 55, 23
1, 616517, Note_off_c, 0, 55, 0
1, 616517, Note_off_c, 0, 67, 0
1, 616517, Note_on_c, 0, 72, 23
1, 616517, Note_on_c, 0, 60, 23
1, 616709, Note_off_c, 0, 60, 0
1, 616709, Note_off_c, 0, 72, 0
1, 616709, Note_on_c, 0, 60, 23
1, 616709, Note_on_c, 0, 48, 23
1, 616997, Note_off_c, 0, 48, 0
1, 616997, Note_off_c, 0, 60, 0
1, 617093, Note_on_c, 0, 67, 23
1, 617093, Note_on_c, 0, 55, 23
1, 617285, Note_off_c, 0, 55, 0
1, 617285, Note_off_c, 0, 67, 0
1, 617285, Note_on_c, 0, 72, 23
1, 617285, Note_on_c, 0, 60, 23
1, 617381, Note_off_c, 0, 76, 0
1, 617381, Note_off_c, 0, 69, 0
1, 617381, Note_off_c, 0, 36, 0
1, 617381, Note_off_c, 0, 64, 0
1, 617381, Note_off_c, 0, 57, 0
1, 617381, Note_off_c, 0, 88, 0
1, 617381, Note_off_c, 0, 81, 0
1, 617381, Note_off_c, 0, 48, 0
1, 617381, Note_off_c, 0, 76, 0
1, 617381, Note_off_c, 0, 69, 0
1, 617477, Note_off_c, 0, 60, 0
1, 617477, Note_off_c, 0, 72, 0
1, 617477, Note_on_c, 0, 76, 36
1, 617477, Note_on_c, 0, 69, 36
1, 617477, Note_on_c, 0, 48, 36
1, 617477, Note_on_c, 0, 88, 43
1, 617477, Note_on_c, 0, 81, 43
1, 617477, Note_on_c, 0, 60, 23
1, 617477, Note_on_c, 0, 64, 36
1, 617477, Note_on_c, 0, 57, 36
1, 617477, Note_on_c, 0, 36, 36
1, 617477, Note_on_c, 0, 76, 43
1, 617477, Note_on_c, 0, 69, 43
1, 617477, Note_on_c, 0, 48, 23
1, 617765, Note_off_c, 0, 48, 0
1, 617765, Note_off_c, 0, 60, 0
1, 617861, Note_on_c, 0, 67, 23
1, 617861, Note_on_c, 0, 55, 23
1, 617957, Note_off_c, 0, 76, 0
1, 617957, Note_off_c, 0, 64, 0
1, 617957, Note_off_c, 0, 88, 0
1, 617957, Note_off_c, 0, 76, 0
1, 618053, Note_off_c, 0, 55, 0
1, 618053, Note_off_c, 0, 67, 0
1, 618053, Note_on_c, 0, 74, 36
1, 618053, Note_on_c, 0, 86, 43
1, 618053, Note_on_c, 0, 72, 23
1, 618053, Note_on_c, 0, 62, 36
1, 618053, Note_on_c, 0, 74, 43
1, 618053, Note_on_c, 0, 60, 23
1, 618245, Note_off_c, 0, 60, 0
1, 618245, Note_off_c, 0, 72, 0
1, 618245, Note_on_c, 0, 60, 23
1, 618245, Note_on_c, 0, 48, 23
1, 618533, Note_off_c, 0, 48, 0
1, 618533, Note_off_c, 0, 60, 0
1, 618533, Note_off_c, 0, 74, 0
1, 618533, Note_off_c, 0, 62, 0
1, 618533, Note_off_c, 0, 86, 0
1, 618533, Note_off_c, 0, 74, 0
1, 618629, Note_on_c, 0, 81, 36
1, 618629, Note_on_c, 0, 93, 43
1, 618629, Note_on_c, 0, 67, 23
1, 618629, Note_on_c, 0, 69, 36
1, 618629, Note_on_c, 0, 81, 43
1, 618629, Note_on_c, 0, 55, 23
1, 618821, Note_off_c, 0, 55, 0
1, 618821, Note_off_c, 0, 67, 0
1, 618821, Note_on_c, 0, 72, 23
1, 618821, Note_on_c, 0, 60, 23
1, 618917, Note_off_c, 0, 81, 0
1, 618917, Note_off_c, 0, 69, 0
1, 618917, Note_off_c, 0, 93, 0
1, 618917, Note_off_c, 0, 81, 0
1, 618917, Note_off_c, 0, 69, 0
1, 618917, Note_off_c, 0, 36, 0
1, 618917, Note_off_c, 0, 57, 0
1, 618917, Note_off_c, 0, 81, 0
1, 618917, Note_off_c, 0, 48, 0
1, 618917, Note_off_c, 0, 69, 0
1, 619013, Note_off_c, 0, 60, 0
1, 619013, Note_off_c, 0, 72, 0
1, 619013, Note_on_c, 0, 69, 36
1, 619013, Note_on_c, 0, 76, 36
1, 619013, Note_on_c, 0, 47, 36
1, 619013, Note_on_c, 0, 81, 43
1, 619013, Note_on_c, 0, 88, 43
1, 619013, Note_on_c, 0, 59, 23
1, 619013, Note_on_c, 0, 57, 36
1, 619013, Note_on_c, 0, 64, 36
1, 619013, Note_on_c, 0, 35, 36
1, 619013, Note_on_c, 0, 69, 43
1, 619013, Note_on_c, 0, 76, 43
1, 619013, Note_on_c, 0, 47, 23
1, 619301, Note_off_c, 0, 47, 0
1, 619301, Note_off_c, 0, 59, 0
1, 619397, Note_on_c, 0, 67, 23
1, 619397, Note_on_c, 0, 55, 23
1, 619589, Note_off_c, 0, 55, 0
1, 619589, Note_off_c, 0, 67, 0
1, 619589, Note_on_c, 0, 71, 23
1, 619589, Note_on_c, 0, 59, 23
1, 619781, Note_off_c, 0, 59, 0
1, 619781, Note_off_c, 0, 71, 0
1, 619781, Note_on_c, 0, 59, 23
1, 619781, Note_on_c, 0, 47, 23
1, 620069, Note_off_c, 0, 47, 0
1, 620069, Note_off_c, 0, 59, 0
1, 620165, Note_on_c, 0, 67, 23
1, 620165, Note_on_c, 0, 55, 23
1, 620357, Note_off_c, 0, 55, 0
1, 620357, Note_off_c, 0, 67, 0
1, 620357, Note_on_c, 0, 71, 23
1, 620357, Note_on_c, 0, 59, 23
1, 620453, Note_off_c, 0, 76, 0
1, 620453, Note_off_c, 0, 69, 0
1, 620453, Note_off_c, 0, 35, 0
1, 620453, Note_off_c, 0, 64, 0
1, 620453, Note_off_c, 0, 57, 0
1, 620453, Note_off_c, 0, 88, 0
1, 620453, Note_off_c, 0, 81, 0
1, 620453, Note_off_c, 0, 47, 0
1, 620453, Note_off_c, 0, 76, 0
1, 620453, Note_off_c, 0, 69, 0
1, 620549, Note_off_c, 0, 59, 0
1, 620549, Note_off_c, 0, 71, 0
1, 620549, Note_on_c, 0, 76, 36
1, 620549, Note_on_c, 0, 69, 36
1, 620549, Note_on_c, 0, 47, 36
1, 620549, Note_on_c, 0, 88, 43
1, 620549, Note_on_c, 0, 81, 43
1, 620549, Note_on_c, 0, 59, 23
1, 620549, Note_on_c, 0, 64, 36
1, 620549, Note_on_c, 0, 57, 36
1, 620549, Note_on_c, 0, 35, 36
1, 620549, Note_on_c, 0, 76, 43
1, 620549, Note_on_c, 0, 69, 43
1, 620549, Note_on_c, 0, 47, 23
1, 620837, Note_off_c, 0, 47, 0
1, 620837, Note_off_c, 0, 59, 0
1, 620933, Note_on_c, 0, 67, 23
1, 620933, Note_on_c, 0, 55, 23
1, 621029, Note_off_c, 0, 76, 0
1, 621029, Note_off_c, 0, 64, 0
1, 621029, Note_off_c, 0, 88, 0
1, 621029, Note_off_c, 0, 76, 0
1, 621125, Note_off_c, 0, 55, 0
1, 621125, Note_off_c, 0, 67, 0
1, 621125, Note_on_c, 0, 74, 36
1, 621125, Note_on_c, 0, 86, 43
1, 621125, Note_on_c, 0, 71, 23
1, 621125, Note_on_c, 0, 62, 36
1, 621125, Note_on_c, 0, 74, 43
1, 621125, Note_on_c, 0, 59, 23
1, 621317, Note_off_c, 0, 59, 0
1, 621317, Note_off_c, 0, 71, 0
1, 621317, Note_on_c, 0, 59, 23
1, 621317, Note_on_c, 0, 47, 23
1, 621605, Note_off_c, 0, 47, 0
1, 621605, Note_off_c, 0, 59, 0
1, 621605, Note_off_c, 0, 74, 0
1, 621605, Note_off_c, 0, 62, 0
1, 621605, Note_off_c, 0, 86, 0
1, 621605, Note_off_c, 0, 74, 0
1, 621701, Note_on_c, 0, 81, 36
1, 621701, Note_on_c, 0, 93, 43
1, 621701, Note_on_c, 0, 67, 23
1, 621701, Note_on_c, 0, 69, 36
1, 621701, Note_on_c, 0, 81, 43
1, 621701, Note_on_c, 0, 55, 23
1, 621893, Note_off_c, 0, 55, 0
1, 621893, Note_off_c, 0, 67, 0
1, 621893, Note_on_c, 0, 71, 23
1, 621893, Note_on_c, 0, 59, 23
1, 621989, Note_off_c, 0, 81, 0
1, 621989, Note_off_c, 0, 69, 0
1, 621989, Note_off_c, 0, 93, 0
1, 621989, Note_off_c, 0, 81, 0
1, 621989, Note_off_c, 0, 69, 0
1, 621989, Note_off_c, 0, 35, 0
1, 621989, Note_off_c, 0, 57, 0
1, 621989, Note_off_c, 0, 81, 0
1, 621989, Note_off_c, 0, 47, 0
1, 621989, Note_off_c, 0, 69, 0
1, 622085, Note_off_c, 0, 59, 0
1, 622085, Note_off_c, 0, 71, 0
1, 622085, Note_on_c, 0, 76, 36
1, 622085, Note_on_c, 0, 46, 36
1, 622085, Note_on_c, 0, 88, 43
1, 622085, Note_on_c, 0, 58, 23
1, 622085, Note_on_c, 0, 64, 36
1, 622085, Note_on_c, 0, 34, 36
1, 622085, Note_on_c, 0, 76, 43
1, 622085, Note_on_c, 0, 46, 23
1, 622373, Note_off_c, 0, 46, 0
1, 622373, Note_off_c, 0, 58, 0
1, 622469, Note_on_c, 0, 65, 23
1, 622469, Note_on_c, 0, 53, 23
1, 622565, Note_off_c, 0, 76, 0
1, 622565, Note_off_c, 0, 64, 0
1, 622565, Note_off_c, 0, 88, 0
1, 622565, Note_off_c, 0, 76, 0
1, 622661, Note_off_c, 0, 53, 0
1, 622661, Note_off_c, 0, 65, 0
1, 622661, Note_on_c, 0, 74, 36
1, 622661, Note_on_c, 0, 86, 43
1, 622661, Note_on_c, 0, 70, 23
1, 622661, Note_on_c, 0, 62, 36
1, 622661, Note_on_c, 0, 74, 43
1, 622661, Note_on_c, 0, 58, 23
1, 622853, Note_off_c, 0, 58, 0
1, 622853, Note_off_c, 0, 70, 0
1, 622853, Note_on_c, 0, 58, 23
1, 622853, Note_on_c, 0, 46, 23
1, 623141, Note_off_c, 0, 46, 0
1, 623141, Note_off_c, 0, 58, 0
1, 623141, Note_off_c, 0, 74, 0
1, 623141, Note_off_c, 0, 62, 0
1, 623141, Note_off_c, 0, 86, 0
1, 623141, Note_off_c, 0, 74, 0
1, 623237, Note_on_c, 0, 76, 36
1, 623237, Note_on_c, 0, 88, 43
1, 623237, Note_on_c, 0, 65, 23
1, 623237, Note_on_c, 0, 64, 36
1, 623237, Note_on_c, 0, 76, 43
1, 623237, Note_on_c, 0, 53, 23
1, 623429, Note_off_c, 0, 53, 0
1, 623429, Note_off_c, 0, 65, 0
1, 623429, Note_on_c, 0, 70, 23
1, 623429, Note_on_c, 0, 58, 23
1, 623525, Note_off_c, 0, 76, 0
1, 623525, Note_off_c, 0, 64, 0
1, 623525, Note_off_c, 0, 88, 0
1, 623525, Note_off_c, 0, 76, 0
1, 623525, Note_off_c, 0, 34, 0
1, 623525, Note_off_c, 0, 46, 0
1, 623621, Note_off_c, 0, 58, 0
1, 623621, Note_off_c, 0, 70, 0
1, 623621, Note_on_c, 0, 77, 36
1, 623621, Note_on_c, 0, 48, 36
1, 623621, Note_on_c, 0, 89, 43
1, 623621, Note_on_c, 0, 60, 23
1, 623621, Note_on_c, 0, 65, 36
1, 623621, Note_on_c, 0, 36, 36
1, 623621, Note_on_c, 0, 77, 43
1, 623621, Note_on_c, 0, 48, 23
1, 623909, Note_off_c, 0, 48, 0
1, 623909, Note_off_c, 0, 77, 0
1, 623909, Note_off_c, 0, 65, 0
1, 623909, Note_off_c, 0, 60, 0
1, 623909, Note_off_c, 0, 89, 0
1, 623909, Note_off_c, 0, 77, 0
1, 624005, Note_on_c, 0, 76, 36
1, 624005, Note_on_c, 0, 88, 43
1, 624005, Note_on_c, 0, 67, 23
1, 624005, Note_on_c, 0, 64, 36
1, 624005, Note_on_c, 0, 76, 43
1, 624005, Note_on_c, 0, 55, 23
1, 624197, Note_off_c, 0, 55, 0
1, 624197, Note_off_c, 0, 67, 0
1, 624197, Note_on_c, 0, 72, 23
1, 624197, Note_on_c, 0, 60, 23
1, 624293, Note_off_c, 0, 76, 0
1, 624293, Note_off_c, 0, 64, 0
1, 624293, Note_off_c, 0, 88, 0
1, 624293, Note_off_c, 0, 76, 0
1, 624389, Note_off_c, 0, 60, 0
1, 624389, Note_off_c, 0, 72, 0
1, 624389, Note_on_c, 0, 77, 36
1, 624389, Note_on_c, 0, 89, 43
1, 624389, Note_on_c, 0, 60, 23
1, 624389, Note_on_c, 0, 65, 36
1, 624389, Note_on_c, 0, 77, 43
1, 624389, Note_on_c, 0, 48, 23
1, 624677, Note_off_c, 0, 48, 0
1, 624677, Note_off_c, 0, 77, 0
1, 624677, Note_off_c, 0, 65, 0
1, 624677, Note_off_c, 0, 60, 0
1, 624677, Note_off_c, 0, 89, 0
1, 624677, Note_off_c, 0, 77, 0
1, 624773, Note_on_c, 0, 76, 36
1, 624773, Note_on_c, 0, 88, 43
1, 624773, Note_on_c, 0, 67, 23
1, 624773, Note_on_c, 0, 64, 36
1, 624773, Note_on_c, 0, 76, 43
1, 624773, Note_on_c, 0, 55, 23
1, 624965, Note_off_c, 0, 55, 0
1, 624965, Note_off_c, 0, 67, 0
1, 624965, Note_on_c, 0, 72, 23
1, 624965, Note_on_c, 0, 60, 23
1, 625061, Note_off_c, 0, 76, 0
1, 625061, Note_off_c, 0, 64, 0
1, 625061, Note_off_c, 0, 88, 0
1, 625061, Note_off_c, 0, 76, 0
1, 625061, Note_off_c, 0, 36, 0
1, 625061, Note_off_c, 0, 48, 0
1, 625157, Note_off_c, 0, 60, 0
1, 625157, Note_off_c, 0, 72, 0
1, 625157, Note_on_c, 0, 69, 36
1, 625157, Note_on_c, 0, 76, 36
1, 625157, Note_on_c, 0, 50, 36
1, 625157, Note_on_c, 0, 81, 43
1, 625157, Note_on_c, 0, 88, 43
1, 625157, Note_on_c, 0, 62, 23
1, 625157, Note_on_c, 0, 57, 36
1, 625157, Note_on_c, 0, 64, 36
1, 625157, Note_on_c, 0, 38, 36
1, 625157, Note_on_c, 0, 69, 43
1, 625157, Note_on_c, 0, 76, 43
1, 625157, Note_on_c, 0, 50, 23
1, 625445, Note_off_c, 0, 50, 0
1, 625445, Note_off_c, 0, 62, 0
1, 625541, Note_on_c, 0, 69, 23
1, 625541, Note_on_c, 0, 57, 23
1, 625733, Note_off_c, 0, 57, 0
1, 625733, Note_off_c, 0, 69, 0
1, 625733, Note_on_c, 0, 74, 23
1, 625733, Note_on_c, 0, 62, 23
1, 625925, Note_off_c, 0, 62, 0
1, 625925, Note_off_c, 0, 74, 0
1, 625925, Note_on_c, 0, 62, 23
1, 625925, Note_on_c, 0, 50, 23
1, 626213, Note_off_c, 0, 50, 0
1, 626213, Note_off_c, 0, 62, 0
1, 626309, Note_on_c, 0, 69, 23
1, 626309, Note_on_c, 0, 57, 23
1, 626501, Note_off_c, 0, 57, 0
1, 626501, Note_off_c, 0, 69, 0
1, 626501, Note_on_c, 0, 74, 23
1, 626501, Note_on_c, 0, 62, 23
1, 626597, Note_off_c, 0, 76, 0
1, 626597, Note_off_c, 0, 69, 0
1, 626597, Note_off_c, 0, 38, 0
1, 626597, Note_off_c, 0, 64, 0
1, 626597, Note_off_c, 0, 57, 0
1, 626597, Note_off_c, 0, 88, 0
1, 626597, Note_off_c, 0, 81, 0
1, 626597, Note_off_c, 0, 50, 0
1, 626597, Note_off_c, 0, 76, 0
1, 626597, Note_off_c, 0, 69, 0
1, 626693, Note_off_c, 0, 62, 0
1, 626693, Note_off_c, 0, 74, 0
1, 626693, Note_on_c, 0, 76, 36
1, 626693, Note_on_c, 0, 69, 36
1, 626693, Note_on_c, 0, 50, 36
1, 626693, Note_on_c, 0, 88, 43
1, 626693, Note_on_c, 0, 81, 43
1, 626693, Note_on_c, 0, 62, 23
1, 626693, Note_on_c, 0, 64, 36
1, 626693, Note_on_c, 0, 57, 36
1, 626693, Note_on_c, 0, 38, 36
1, 626693, Note_on_c, 0, 76, 43
1, 626693, Note_on_c, 0, 69, 43
1, 626693, Note_on_c, 0, 50, 23
1, 626981, Note_off_c, 0, 50, 0
1, 626981, Note_off_c, 0, 62, 0
1, 627077, Note_on_c, 0, 69, 23
1, 627077, Note_on_c, 0, 57, 23
1, 627173, Note_off_c, 0, 76, 0
1, 627173, Note_off_c, 0, 64, 0
1, 627173, Note_off_c, 0, 88, 0
1, 627173, Note_off_c, 0, 76, 0
1, 627269, Note_off_c, 0, 57, 0
1, 627269, Note_off_c, 0, 69, 0
1, 627269, Note_on_c, 0, 74, 36
1, 627269, Note_on_c, 0, 86, 43
1, 627269, Note_on_c, 0, 74, 23
1, 627269, Note_on_c, 0, 62, 36
1, 627269, Note_on_c, 0, 74, 43
1, 627269, Note_on_c, 0, 62, 23
1, 627461, Note_off_c, 0, 62, 0
1, 627461, Note_off_c, 0, 74, 0
1, 627461, Note_on_c, 0, 62, 23
1, 627461, Note_on_c, 0, 50, 23
1, 627749, Note_off_c, 0, 50, 0
1, 627749, Note_off_c, 0, 62, 0
1, 627749, Note_off_c, 0, 74, 0
1, 627749, Note_off_c, 0, 62, 0
1, 627749, Note_off_c, 0, 86, 0
1, 627749, Note_off_c, 0, 74, 0
1, 627845, Note_on_c, 0, 81, 36
1, 627845, Note_on_c, 0, 93, 43
1, 627845, Note_on_c, 0, 69, 23
1, 627845, Note_on_c, 0, 69, 36
1, 627845, Note_on_c, 0, 81, 43
1, 627845, Note_on_c, 0, 57, 23
1, 628037, Note_off_c, 0, 57, 0
1, 628037, Note_off_c, 0, 69, 0
1, 628037, Note_on_c, 0, 74, 23
1, 628037, Note_on_c, 0, 62, 23
1, 628133, Note_off_c, 0, 81, 0
1, 628133, Note_off_c, 0, 69, 0
1, 628133, Note_off_c, 0, 93, 0
1, 628133, Note_off_c, 0, 81, 0
1, 628133, Note_off_c, 0, 69, 0
1, 628133, Note_off_c, 0, 38, 0
1, 628133, Note_off_c, 0, 57, 0
1, 628133, Note_off_c, 0, 81, 0
1, 628133, Note_off_c, 0, 50, 0
1, 628133, Note_off_c, 0, 69, 0
1, 628229, Note_off_c, 0, 62, 0
1, 628229, Note_off_c, 0, 74, 0
1, 628229, Note_on_c, 0, 69, 36
1, 628229, Note_on_c, 0, 76, 36
1, 628229, Note_on_c, 0, 48, 36
1, 628229, Note_on_c, 0, 81, 43
1, 628229, Note_on_c, 0, 88, 43
1, 628229, Note_on_c, 0, 60, 23
1, 628229, Note_on_c, 0, 57, 36
1, 628229, Note_on_c, 0, 64, 36
1, 628229, Note_on_c, 0, 36, 36
1, 628229, Note_on_c, 0, 69, 43
1, 628229, Note_on_c, 0, 76, 43
1, 628229, Note_on_c, 0, 48, 23
1, 628517, Note_off_c, 0, 48, 0
1, 628517, Note_off_c, 0, 60, 0
1, 628613, Note_on_c, 0, 67, 23
1, 628613, Note_on_c, 0, 55, 23
1, 628805, Note_off_c, 0, 55, 0
1, 628805, Note_off_c, 0, 67, 0
1, 628805, Note_on_c, 0, 72, 23
1, 628805, Note_on_c, 0, 60, 23
1, 628997, Note_off_c, 0, 60, 0
1, 628997, Note_off_c, 0, 72, 0
1, 628997, Note_on_c, 0, 60, 23
1, 628997, Note_on_c, 0, 48, 23
1, 629285, Note_off_c, 0, 48, 0
1, 629285, Note_off_c, 0, 60, 0
1, 629381, Note_on_c, 0, 67, 23
1, 629381, Note_on_c, 0, 55, 23
1, 629573, Note_off_c, 0, 55, 0
1, 629573, Note_off_c, 0, 67, 0
1, 629573, Note_on_c, 0, 72, 23
1, 629573, Note_on_c, 0, 60, 23
1, 629669, Note_off_c, 0, 76, 0
1, 629669, Note_off_c, 0, 69, 0
1, 629669, Note_off_c, 0, 36, 0
1, 629669, Note_off_c, 0, 64, 0
1, 629669, Note_off_c, 0, 57, 0
1, 629669, Note_off_c, 0, 88, 0
1, 629669, Note_off_c, 0, 81, 0
1, 629669, Note_off_c, 0, 48, 0
1, 629669, Note_off_c, 0, 76, 0
1, 629669, Note_off_c, 0, 69, 0
1, 629765, Note_off_c, 0, 60, 0
1, 629765, Note_off_c, 0, 72, 0
1, 629765, Note_on_c, 0, 76, 36
1, 629765, Note_on_c, 0, 69, 36
1, 629765, Note_on_c, 0, 48, 36
1, 629765, Note_on_c, 0, 88, 43
1, 629765, Note_on_c, 0, 81, 43
1, 629765, Note_on_c, 0, 60, 23
1, 629765, Note_on_c, 0, 64, 36
1, 629765, Note_on_c, 0, 57, 36
1, 629765, Note_on_c, 0, 36, 36
1, 629765, Note_on_c, 0, 76, 43
1, 629765, Note_on_c, 0, 69, 43
1, 629765, Note_on_c, 0, 48, 23
1, 630053, Note_off_c, 0, 48, 0
1, 630053, Note_off_c, 0, 60, 0
1, 630149, Note_on_c, 0, 67, 23
1, 630149, Note_on_c, 0, 55, 23
1, 630245, Note_off_c, 0, 76, 0
1, 630245, Note_off_c, 0, 64, 0
1, 630245, Note_off_c, 0, 88, 0
1, 630245, Note_off_c, 0, 76, 0
1, 630341, Note_off_c, 0, 55, 0
1, 630341, Note_off_c, 0, 67, 0
1, 630341, Note_on_c, 0, 74, 36
1, 630341, Note_on_c, 0, 86, 43
1, 630341, Note_on_c, 0, 72, 23
1, 630341, Note_on_c, 0, 62, 36
1, 630341, Note_on_c, 0, 74, 43
1, 630341, Note_on_c, 0, 60, 23
1, 630533, Note_off_c, 0, 60, 0
1, 630533, Note_off_c, 0, 72, 0
1, 630533, Note_on_c, 0, 60, 23
1, 630533, Note_on_c, 0, 48, 23
1, 630821, Note_off_c, 0, 48, 0
1, 630821, Note_off_c, 0, 60, 0
1, 630821, Note_off_c, 0, 74, 0
1, 630821, Note_off_c, 0, 62, 0
1, 630821, Note_off_c, 0, 86, 0
1, 630821, Note_off_c, 0, 74, 0
1, 630917, Note_on_c, 0, 81, 36
1, 630917, Note_on_c, 0, 93, 43
1, 630917, Note_on_c, 0, 67, 23
1, 630917, Note_on_c, 0, 69, 36
1, 630917, Note_on_c, 0, 81, 43
1, 630917, Note_on_c, 0, 55, 23
1, 631109, Note_off_c, 0, 55, 0
1, 631109, Note_off_c, 0, 67, 0
1, 631109, Note_on_c, 0, 72, 23
1, 631109, Note_on_c, 0, 60, 23
1, 631205, Note_off_c, 0, 81, 0
1, 631205, Note_off_c, 0, 69, 0
1, 631205, Note_off_c, 0, 93, 0
1, 631205, Note_off_c, 0, 81, 0
1, 631205, Note_off_c, 0, 69, 0
1, 631205, Note_off_c, 0, 36, 0
1, 631205, Note_off_c, 0, 57, 0
1, 631205, Note_off_c, 0, 81, 0
1, 631205, Note_off_c, 0, 48, 0
1, 631205, Note_off_c, 0, 69, 0
1, 631301, Note_off_c, 0, 60, 0
1, 631301, Note_off_c, 0, 72, 0
1, 631301, Note_on_c, 0, 69, 36
1, 631301, Note_on_c, 0, 76, 36
1, 631301, Note_on_c, 0, 47, 36
1, 631301, Note_on_c, 0, 81, 43
1, 631301, Note_on_c, 0, 88, 43
1, 631301, Note_on_c, 0, 59, 23
1, 631301, Note_on_c, 0, 57, 36
1, 631301, Note_on_c, 0, 64, 36
1, 631301, Note_on_c, 0, 35, 36
1, 631301, Note_on_c, 0, 69, 43
1, 631301, Note_on_c, 0, 76, 43
1, 631301, Note_on_c, 0, 47, 23
1, 631589, Note_off_c, 0, 47, 0
1, 631589, Note_off_c, 0, 59, 0
1, 631685, Note_on_c, 0, 67, 23
1, 631685, Note_on_c, 0, 55, 23
1, 631877, Note_off_c, 0, 55, 0
1, 631877, Note_off_c, 0, 67, 0
1, 631877, Note_on_c, 0, 71, 23
1, 631877, Note_on_c, 0, 59, 23
1, 632069, Note_off_c, 0, 59, 0
1, 632069, Note_off_c, 0, 71, 0
1, 632069, Note_on_c, 0, 59, 23
1, 632069, Note_on_c, 0, 47, 23
1, 632357, Note_off_c, 0, 47, 0
1, 632357, Note_off_c, 0, 59, 0
1, 632453, Note_on_c, 0, 67, 23
1, 632453, Note_on_c, 0, 55, 23
1, 632645, Note_off_c, 0, 55, 0
1, 632645, Note_off_c, 0, 67, 0
1, 632645, Note_on_c, 0, 71, 23
1, 632645, Note_on_c, 0, 59, 23
1, 632741, Note_off_c, 0, 35, 0
1, 632741, Note_off_c, 0, 47, 0
1, 632837, Note_off_c, 0, 59, 0
1, 632837, Note_off_c, 0, 71, 0
1, 632837, Note_on_c, 0, 47, 36
1, 632837, Note_on_c, 0, 59, 23
1, 632837, Note_on_c, 0, 35, 36
1, 632837, Note_on_c, 0, 47, 23
1, 633125, Note_off_c, 0, 47, 0
1, 633125, Note_off_c, 0, 59, 0
1, 633221, Note_on_c, 0, 67, 23
1, 633221, Note_on_c, 0, 55, 23
1, 633413, Note_off_c, 0, 55, 0
1, 633413, Note_off_c, 0, 67, 0
1, 633413, Note_on_c, 0, 71, 23
1, 633413, Note_on_c, 0, 59, 23
1, 633605, Note_off_c, 0, 59, 0
1, 633605, Note_off_c, 0, 71, 0
1, 633605, Note_on_c, 0, 59, 23
1, 633605, Note_on_c, 0, 47, 23
1, 633893, Note_off_c, 0, 47, 0
1, 633893, Note_off_c, 0, 59, 0
1, 633893, Note_off_c, 0, 76, 0
1, 633893, Note_off_c, 0, 69, 0
1, 633893, Note_off_c, 0, 64, 0
1, 633893, Note_off_c, 0, 57, 0
1, 633893, Note_off_c, 0, 88, 0
1, 633893, Note_off_c, 0, 81, 0
1, 633893, Note_off_c, 0, 76, 0
1, 633893, Note_off_c, 0, 69, 0
1, 633989, Note_on_c, 0, 74, 36
1, 633989, Note_on_c, 0, 86, 43
1, 633989, Note_on_c, 0, 67, 23
1, 633989, Note_on_c, 0, 62, 36
1, 633989, Note_on_c, 0, 74, 43
1, 633989, Note_on_c, 0, 55, 23
1, 634181, Note_off_c, 0, 55, 0
1, 634181, Note_off_c, 0, 67, 0
1, 634181, Note_on_c, 0, 71, 23
1, 634181, Note_on_c, 0, 59, 23
1, 634277, Note_off_c, 0, 74, 0
1, 634277, Note_off_c, 0, 62, 0
1, 634277, Note_off_c, 0, 86, 0
1, 634277, Note_off_c, 0, 74, 0
1, 634277, Note_off_c, 0, 35, 0
1, 634277, Note_off_c, 0, 47, 0
1, 634373, Note_off_c, 0, 59, 0
1, 634373, Note_off_c, 0, 71, 0
1, 634373, Note_on_c, 0, 74, 36
1, 634373, Note_on_c, 0, 46, 36
1, 634373, Note_on_c, 0, 86, 43
1, 634373, Note_on_c, 0, 58, 23
1, 634373, Note_on_c, 0, 62, 36
1, 634373, Note_on_c, 0, 34, 36
1, 634373, Note_on_c, 0, 74, 43
1, 634373, Note_on_c, 0, 46, 23
1, 634661, Note_off_c, 0, 46, 0
1, 634661, Note_off_c, 0, 74, 0
1, 634661, Note_off_c, 0, 62, 0
1, 634661, Note_off_c, 0, 58, 0
1, 634661, Note_off_c, 0, 86, 0
1, 634661, Note_off_c, 0, 74, 0
1, 634757, Note_on_c, 0, 76, 36
1, 634757, Note_on_c, 0, 88, 43
1, 634757, Note_on_c, 0, 65, 23
1, 634757, Note_on_c, 0, 64, 36
1, 634757, Note_on_c, 0, 76, 43
1, 634757, Note_on_c, 0, 53, 23
1, 634949, Note_off_c, 0, 53, 0
1, 634949, Note_off_c, 0, 65, 0
1, 634949, Note_on_c, 0, 70, 23
1, 634949, Note_on_c, 0, 58, 23
1, 635045, Note_off_c, 0, 76, 0
1, 635045, Note_off_c, 0, 64, 0
1, 635045, Note_off_c, 0, 88, 0
1, 635045, Note_off_c, 0, 76, 0
1, 635141, Note_off_c, 0, 58, 0
1, 635141, Note_off_c, 0, 70, 0
1, 635141, Note_on_c, 0, 77, 36
1, 635141, Note_on_c, 0, 89, 43
1, 635141, Note_on_c, 0, 58, 23
1, 635141, Note_on_c, 0, 65, 36
1, 635141, Note_on_c, 0, 77, 43
1, 635141, Note_on_c, 0, 46, 23
1, 635429, Note_off_c, 0, 46, 0
1, 635429, Note_off_c, 0, 77, 0
1, 635429, Note_off_c, 0, 65, 0
1, 635429, Note_off_c, 0, 58, 0
1, 635429, Note_off_c, 0, 89, 0
1, 635429, Note_off_c, 0, 77, 0
1, 635525, Note_on_c, 0, 81, 36
1, 635525, Note_on_c, 0, 93, 43
1, 635525, Note_on_c, 0, 65, 23
1, 635525, Note_on_c, 0, 69, 36
1, 635525, Note_on_c, 0, 81, 43
1, 635525, Note_on_c, 0, 53, 23
1, 635717, Note_off_c, 0, 53, 0
1, 635717, Note_off_c, 0, 65, 0
1, 635717, Note_on_c, 0, 70, 23
1, 635717, Note_on_c, 0, 58, 23
1, 635813, Note_off_c, 0, 81, 0
1, 635813, Note_off_c, 0, 69, 0
1, 635813, Note_off_c, 0, 93, 0
1, 635813, Note_off_c, 0, 81, 0
1, 635813, Note_off_c, 0, 34, 0
1, 635813, Note_off_c, 0, 46, 0
1, 635909, Note_off_c, 0, 58, 0
1, 635909, Note_off_c, 0, 70, 0
1, 635909, Note_on_c, 0, 72, 36
1, 635909, Note_on_c, 0, 48, 36
1, 635909, Note_on_c, 0, 84, 43
1, 635909, Note_on_c, 0, 60, 23
1, 635909, Note_on_c, 0, 60, 36
1, 635909, Note_on_c, 0, 36, 36
1, 635909, Note_on_c, 0, 72, 43
1, 635909, Note_on_c, 0, 48, 23
1, 636197, Note_off_c, 0, 48, 0
1, 636197, Note_off_c, 0, 72, 0
1, 636197, Note_off_c, 0, 60, 0
1, 636197, Note_off_c, 0, 60, 0
1, 636197, Note_off_c, 0, 84, 0
1, 636197, Note_off_c, 0, 72, 0
1, 636293, Note_on_c, 0, 67, 36
1, 636293, Note_on_c, 0, 79, 43
1, 636293, Note_on_c, 0, 67, 23
1, 636293, Note_on_c, 0, 55, 36
1, 636293, Note_on_c, 0, 67, 43
1, 636293, Note_on_c, 0, 55, 23
1, 636485, Note_off_c, 0, 55, 0
1, 636485, Note_off_c, 0, 67, 0
1, 636485, Note_on_c, 0, 72, 23
1, 636485, Note_on_c, 0, 60, 23
1, 636581, Note_off_c, 0, 67, 0
1, 636581, Note_off_c, 0, 55, 0
1, 636581, Note_off_c, 0, 79, 0
1, 636581, Note_off_c, 0, 67, 0
1, 636677, Note_off_c, 0, 60, 0
1, 636677, Note_off_c, 0, 72, 0
1, 636677, Note_on_c, 0, 69, 36
1, 636677, Note_on_c, 0, 81, 43
1, 636677, Note_on_c, 0, 60, 23
1, 636677, Note_on_c, 0, 57, 36
1, 636677, Note_on_c, 0, 69, 43
1, 636677, Note_on_c, 0, 48, 23
1, 636965, Note_off_c, 0, 48, 0
1, 636965, Note_off_c, 0, 69, 0
1, 636965, Note_off_c, 0, 57, 0
1, 636965, Note_off_c, 0, 60, 0
1, 636965, Note_off_c, 0, 81, 0
1, 636965, Note_off_c, 0, 69, 0
1, 637061, Note_on_c, 0, 74, 36
1, 637061, Note_on_c, 0, 86, 43
1, 637061, Note_on_c, 0, 67, 23
1, 637061, Note_on_c, 0, 62, 36
1, 637061, Note_on_c, 0, 74, 43
1, 637061, Note_on_c, 0, 55, 23
1, 637253, Note_off_c, 0, 55, 0
1, 637253, Note_off_c, 0, 67, 0
1, 637253, Note_on_c, 0, 72, 23
1, 637253, Note_on_c, 0, 60, 23
1, 637349, Note_off_c, 0, 74, 0
1, 637349, Note_off_c, 0, 62, 0
1, 637349, Note_off_c, 0, 86, 0
1, 637349, Note_off_c, 0, 74, 0
1, 637349, Note_off_c, 0, 36, 0
1, 637349, Note_off_c, 0, 48, 0
1, 637445, Note_off_c, 0, 60, 0
1, 637445, Note_off_c, 0, 72, 0
1, 637445, Note_on_c, 0, 69, 36
1, 637445, Note_on_c, 0, 76, 36
1, 637445, Note_on_c, 0, 50, 36
1, 637445, Note_on_c, 0, 81, 43
1, 637445, Note_on_c, 0, 88, 43
1, 637445, Note_on_c, 0, 57, 36
1, 637445, Note_on_c, 0, 64, 36
1, 637445, Note_on_c, 0, 38, 36
1, 637445, Note_on_c, 0, 69, 43
1, 637445, Note_on_c, 0, 76, 43
1, 638885, Note_off_c, 0, 76, 0
1, 638885, Note_off_c, 0, 69, 0
1, 638885, Note_off_c, 0, 38, 0
1, 638885, Note_off_c, 0, 64, 0
1, 638885, Note_off_c, 0, 57, 0
1, 638885, Note_off_c, 0, 88, 0
1, 638885, Note_off_c, 0, 81, 0
1, 638885, Note_off_c, 0, 50, 0
1, 638885, Note_off_c, 0, 76, 0
1, 638885, Note_off_c, 0, 69, 0
1, 638981, Note_on_c, 0, 76, 36
1, 638981, Note_on_c, 0, 69, 36
1, 638981, Note_on_c, 0, 50, 36
1, 638981, Note_on_c, 0, 88, 43
1, 638981, Note_on_c, 0, 81, 43
1, 638981, Note_on_c, 0, 64, 36
1, 638981, Note_on_c, 0, 57, 36
1, 638981, Note_on_c, 0, 38, 36
1, 638981, Note_on_c, 0, 76, 43
1, 638981, Note_on_c, 0, 69, 43
1, 639461, Note_off_c, 0, 76, 0
1, 639461, Note_off_c, 0, 64, 0
1, 639461, Note_off_c, 0, 88, 0
1, 639461, Note_off_c, 0, 76, 0
1, 639557, Note_on_c, 0, 74, 36
1, 639557, Note_on_c, 0, 86, 43
1, 639557, Note_on_c, 0, 62, 36
1, 639557, Note_on_c, 0, 74, 43
1, 640037, Note_off_c, 0, 74, 0
1, 640037, Note_off_c, 0, 62, 0
1, 640037, Note_off_c, 0, 86, 0
1, 640037, Note_off_c, 0, 74, 0
1, 640133, Note_on_c, 0, 81, 36
1, 640133, Note_on_c, 0, 93, 43
1, 640133, Note_on_c, 0, 69, 36
1, 640133, Note_on_c, 0, 81, 43
1, 640421, Note_off_c, 0, 81, 0
1, 640421, Note_off_c, 0, 69, 0
1, 640421, Note_off_c, 0, 93, 0
1, 640421, Note_off_c, 0, 81, 0
1, 640421, Note_off_c, 0, 69, 0
1, 640421, Note_off_c, 0, 38, 0
1, 640421, Note_off_c, 0, 57, 0
1, 640421, Note_off_c, 0, 81, 0
1, 640421, Note_off_c, 0, 50, 0
1, 640421, Note_off_c, 0, 69, 0
1, 640517, Note_on_c, 0, 69, 36
1, 640517, Note_on_c, 0, 76, 36
1, 640517, Note_on_c, 0, 48, 36
1, 640517, Note_on_c, 0, 81, 43
1, 640517, Note_on_c, 0, 88, 43
1, 640517, Note_on_c, 0, 57, 36
1, 640517, Note_on_c, 0, 64, 36
1, 640517, Note_on_c, 0, 36, 36
1, 640517, Note_on_c, 0, 69, 43
1, 640517, Note_on_c, 0, 76, 43
1, 641957, Note_off_c, 0, 76, 0
1, 641957, Note_off_c, 0, 69, 0
1, 641957, Note_off_c, 0, 36, 0
1, 641957, Note_off_c, 0, 64, 0
1, 641957, Note_off_c, 0, 57, 0
1, 641957, Note_off_c, 0, 88, 0
1, 641957, Note_off_c, 0, 81, 0
1, 641957, Note_off_c, 0, 48, 0
1, 641957, Note_off_c, 0, 76, 0
1, 641957, Note_off_c, 0, 69, 0
1, 642053, Note_on_c, 0, 76, 36
1, 642053, Note_on_c, 0, 69, 36
1, 642053, Note_on_c, 0, 48, 36
1, 642053, Note_on_c, 0, 88, 43
1, 642053, Note_on_c, 0, 81, 43
1, 642053, Note_on_c, 0, 64, 36
1, 642053, Note_on_c, 0, 57, 36
1, 642053, Note_on_c, 0, 36, 36
1, 642053, Note_on_c, 0, 76, 43
1, 642053, Note_on_c, 0, 69, 43
1, 642533, Note_off_c, 0, 76, 0
1, 642533, Note_off_c, 0, 64, 0
1, 642533, Note_off_c, 0, 88, 0
1, 642533, Note_off_c, 0, 76, 0
1, 642629, Note_on_c, 0, 74, 36
1, 642629, Note_on_c, 0, 86, 43
1, 642629, Note_on_c, 0, 62, 36
1, 642629, Note_on_c, 0, 74, 43
1, 643109, Note_off_c, 0, 74, 0
1, 643109, Note_off_c, 0, 62, 0
1, 643109, Note_off_c, 0, 86, 0
1, 643109, Note_off_c, 0, 74, 0
1, 643205, Note_on_c, 0, 81, 36
1, 643205, Note_on_c, 0, 93, 43
1, 643205, Note_on_c, 0, 69, 36
1, 643205, Note_on_c, 0, 81, 43
1, 643493, Note_off_c, 0, 81, 0
1, 643493, Note_off_c, 0, 69, 0
1, 643493, Note_off_c, 0, 93, 0
1, 643493, Note_off_c, 0, 81, 0
1, 643493, Note_off_c, 0, 69, 0
1, 643493, Note_off_c, 0, 36, 0
1, 643493, Note_off_c, 0, 57, 0
1, 643493, Note_off_c, 0, 81, 0
1, 643493, Note_off_c, 0, 48, 0
1, 643493, Note_off_c, 0, 69, 0
1, 643589, Note_on_c, 0, 69, 36
1, 643589, Note_on_c, 0, 76, 36
1, 643589, Note_on_c, 0, 47, 36
1, 643589, Note_on_c, 0, 81, 43
1, 643589, Note_on_c, 0, 88, 43
1, 643589, Note_on_c, 0, 57, 36
1, 643589, Note_on_c, 0, 64, 36
1, 643589, Note_on_c, 0, 35, 36
1, 643589, Note_on_c, 0, 69, 43
1, 643589, Note_on_c, 0, 76, 43
1, 645029, Note_off_c, 0, 76, 0
1, 645029, Note_off_c, 0, 69, 0
1, 645029, Note_off_c, 0, 35, 0
1, 645029, Note_off_c, 0, 64, 0
1, 645029, Note_off_c, 0, 57, 0
1, 645029, Note_off_c, 0, 88, 0
1, 645029, Note_off_c, 0, 81, 0
1, 645029, Note_off_c, 0, 47, 0
1, 645029, Note_off_c, 0, 76, 0
1, 645029, Note_off_c, 0, 69, 0
1, 645125, Note_on_c, 0, 76, 36
1, 645125, Note_on_c, 0, 69, 36
1, 645125, Note_on_c, 0, 47, 36
1, 645125, Note_on_c, 0, 88, 43
1, 645125, Note_on_c, 0, 81, 43
1, 645125, Note_on_c, 0, 64, 36
1, 645125, Note_on_c, 0, 57, 36
1, 645125, Note_on_c, 0, 35, 36
1, 645125, Note_on_c, 0, 76, 43
1, 645125, Note_on_c, 0, 69, 43
1, 645605, Note_off_c, 0, 76, 0
1, 645605, Note_off_c, 0, 64, 0
1, 645605, Note_off_c, 0, 88, 0
1, 645605, Note_off_c, 0, 76, 0
1, 645701, Note_on_c, 0, 74, 36
1, 645701, Note_on_c, 0, 86, 43
1, 645701, Note_on_c, 0, 62, 36
1, 645701, Note_on_c, 0, 74, 43
1, 646181, Note_off_c, 0, 74, 0
1, 646181, Note_off_c, 0, 62, 0
1, 646181, Note_off_c, 0, 86, 0
1, 646181, Note_off_c, 0, 74, 0
1, 646277, Note_on_c, 0, 81, 36
1, 646277, Note_on_c, 0, 93, 43
1, 646277, Note_on_c, 0, 69, 36
1, 646277, Note_on_c, 0, 81, 43
1, 646565, Note_off_c, 0, 81, 0
1, 646565, Note_off_c, 0, 69, 0
1, 646565, Note_off_c, 0, 93, 0
1, 646565, Note_off_c, 0, 81, 0
1, 646565, Note_off_c, 0, 69, 0
1, 646565, Note_off_c, 0, 35, 0
1, 646565, Note_off_c, 0, 57, 0
1, 646565, Note_off_c, 0, 81, 0
1, 646565, Note_off_c, 0, 47, 0
1, 646565, Note_off_c, 0, 69, 0
1, 646661, Note_on_c, 0, 76, 36
1, 646661, Note_on_c, 0, 46, 36
1, 646661, Note_on_c, 0, 88, 43
1, 646661, Note_on_c, 0, 64, 36
1, 646661, Note_on_c, 0, 34, 36
1, 646661, Note_on_c, 0, 76, 43
1, 647141, Note_off_c, 0, 76, 0
1, 647141, Note_off_c, 0, 64, 0
1, 647141, Note_off_c, 0, 88, 0
1, 647141, Note_off_c, 0, 76, 0
1, 647237, Note_on_c, 0, 74, 36
1, 647237, Note_on_c, 0, 86, 43
1, 647237, Note_on_c, 0, 62, 36
1, 647237, Note_on_c, 0, 74, 43
1, 647717, Note_off_c, 0, 74, 0
1, 647717, Note_off_c, 0, 62, 0
1, 647717, Note_off_c, 0, 86, 0
1, 647717, Note_off_c, 0, 74, 0
1, 647813, Note_on_c, 0, 76, 36
1, 647813, Note_on_c, 0, 88, 43
1, 647813, Note_on_c, 0, 64, 36
1, 647813, Note_on_c, 0, 76, 43
1, 648101, Note_off_c, 0, 76, 0
1, 648101, Note_off_c, 0, 64, 0
1, 648101, Note_off_c, 0, 88, 0
1, 648101, Note_off_c, 0, 76, 0
1, 648101, Note_off_c, 0, 34, 0
1, 648101, Note_off_c, 0, 46, 0
1, 648197, Note_on_c, 0, 77, 36
1, 648197, Note_on_c, 0, 48, 36
1, 648197, Note_on_c, 0, 89, 43
1, 648197, Note_on_c, 0, 65, 36
1, 648197, Note_on_c, 0, 36, 36
1, 648197, Note_on_c, 0, 77, 43
1, 648485, Note_off_c, 0, 77, 0
1, 648485, Note_off_c, 0, 65, 0
1, 648485, Note_off_c, 0, 89, 0
1, 648485, Note_off_c, 0, 77, 0
1, 648581, Note_on_c, 0, 76, 36
1, 648581, Note_on_c, 0, 88, 43
1, 648581, Note_on_c, 0, 64, 36
1, 648581, Note_on_c, 0, 76, 43
1, 648869, Note_off_c, 0, 76, 0
1, 648869, Note_off_c, 0, 64, 0
1, 648869, Note_off_c, 0, 88, 0
1, 648869, Note_off_c, 0, 76, 0
1, 648965, Note_on_c, 0, 77, 36
1, 648965, Note_on_c, 0, 89, 43
1, 648965, Note_on_c, 0, 65, 36
1, 648965, Note_on_c, 0, 77, 43
1, 649253, Note_off_c, 0, 77, 0
1, 649253, Note_off_c, 0, 65, 0
1, 649253, Note_off_c, 0, 89, 0
1, 649253, Note_off_c, 0, 77, 0
1, 649349, Note_on_c, 0, 76, 36
1, 649349, Note_on_c, 0, 88, 43
1, 649349, Note_on_c, 0, 64, 36
1, 649349, Note_on_c, 0, 76, 43
1, 649637, Note_off_c, 0, 76, 0
1, 649637, Note_off_c, 0, 64, 0
1, 649637, Note_off_c, 0, 88, 0
1, 649637, Note_off_c, 0, 76, 0
1, 649637, Note_off_c, 0, 36, 0
1, 649637, Note_off_c, 0, 48, 0
1, 649733, Note_on_c, 0, 69, 36
1, 649733, Note_on_c, 0, 76, 36
1, 649733, Note_on_c, 0, 50, 36
1, 649733, Note_on_c, 0, 81, 43
1, 649733, Note_on_c, 0, 88, 43
1, 649733, Note_on_c, 0, 57, 36
1, 649733, Note_on_c, 0, 64, 36
1, 649733, Note_on_c, 0, 38, 36
1, 649733, Note_on_c, 0, 69, 43
1, 649733, Note_on_c, 0, 76, 43
1, 651173, Note_off_c, 0, 76, 0
1, 651173, Note_off_c, 0, 69, 0
1, 651173, Note_off_c, 0, 38, 0
1, 651173, Note_off_c, 0, 64, 0
1, 651173, Note_off_c, 0, 57, 0
1, 651173, Note_off_c, 0, 88, 0
1, 651173, Note_off_c, 0, 81, 0
1, 651173, Note_off_c, 0, 50, 0
1, 651173, Note_off_c, 0, 76, 0
1, 651173, Note_off_c, 0, 69, 0
1, 651269, Note_on_c, 0, 76, 36
1, 651269, Note_on_c, 0, 69, 36
1, 651269, Note_on_c, 0, 50, 36
1, 651269, Note_on_c, 0, 88, 43
1, 651269, Note_on_c, 0, 81, 43
1, 651269, Note_on_c, 0, 64, 36
1, 651269, Note_on_c, 0, 57, 36
1, 651269, Note_on_c, 0, 38, 36
1, 651269, Note_on_c, 0, 76, 43
1, 651269, Note_on_c, 0, 69, 43
1, 651749, Note_off_c, 0, 76, 0
1, 651749, Note_off_c, 0, 64, 0
1, 651749, Note_off_c, 0, 88, 0
1, 651749, Note_off_c, 0, 76, 0
1, 651845, Note_on_c, 0, 74, 36
1, 651845, Note_on_c, 0, 86, 43
1, 651845, Note_on_c, 0, 62, 36
1, 651845, Note_on_c, 0, 74, 43
1, 652325, Note_off_c, 0, 74, 0
1, 652325, Note_off_c, 0, 62, 0
1, 652325, Note_off_c, 0, 86, 0
1, 652325, Note_off_c, 0, 74, 0
1, 652421, Note_on_c, 0, 81, 36
1, 652421, Note_on_c, 0, 93, 43
1, 652421, Note_on_c, 0, 69, 36
1, 652421, Note_on_c, 0, 81, 43
1, 652709, Note_off_c, 0, 81, 0
1, 652709, Note_off_c, 0, 69, 0
1, 652709, Note_off_c, 0, 93, 0
1, 652709, Note_off_c, 0, 81, 0
1, 652709, Note_off_c, 0, 69, 0
1, 652709, Note_off_c, 0, 38, 0
1, 652709, Note_off_c, 0, 57, 0
1, 652709, Note_off_c, 0, 81, 0
1, 652709, Note_off_c, 0, 50, 0
1, 652709, Note_off_c, 0, 69, 0
1, 652805, Note_on_c, 0, 69, 36
1, 652805, Note_on_c, 0, 76, 36
1, 652805, Note_on_c, 0, 48, 36
1, 652805, Note_on_c, 0, 81, 43
1, 652805, Note_on_c, 0, 88, 43
1, 652805, Note_on_c, 0, 57, 36
1, 652805, Note_on_c, 0, 64, 36
1, 652805, Note_on_c, 0, 36, 36
1, 652805, Note_on_c, 0, 69, 43
1, 652805, Note_on_c, 0, 76, 43
1, 654245, Note_off_c, 0, 76, 0
1, 654245, Note_off_c, 0, 69, 0
1, 654245, Note_off_c, 0, 36, 0
1, 654245, Note_off_c, 0, 64, 0
1, 654245, Note_off_c, 0, 57, 0
1, 654245, Note_off_c, 0, 88, 0
1, 654245, Note_off_c, 0, 81, 0
1, 654245, Note_off_c, 0, 48, 0
1, 654245, Note_off_c, 0, 76, 0
1, 654245, Note_off_c, 0, 69, 0
1, 654341, Note_on_c, 0, 76, 36
1, 654341, Note_on_c, 0, 69, 36
1, 654341, Note_on_c, 0, 48, 36
1, 654341, Note_on_c, 0, 88, 43
1, 654341, Note_on_c, 0, 81, 43
1, 654341, Note_on_c, 0, 64, 36
1, 654341, Note_on_c, 0, 57, 36
1, 654341, Note_on_c, 0, 36, 36
1, 654341, Note_on_c, 0, 76, 43
1, 654341, Note_on_c, 0, 69, 43
1, 654821, Note_off_c, 0, 76, 0
1, 654821, Note_off_c, 0, 64, 0
1, 654821, Note_off_c, 0, 88, 0
1, 654821, Note_off_c, 0, 76, 0
1, 654917, Note_on_c, 0, 74, 36
1, 654917, Note_on_c, 0, 86, 43
1, 654917, Note_on_c, 0, 62, 36
1, 654917, Note_on_c, 0, 74, 43
1, 655397, Note_off_c, 0, 74, 0
1, 655397, Note_off_c, 0, 62, 0
1, 655397, Note_off_c, 0, 86, 0
1, 655397, Note_off_c, 0, 74, 0
1, 655493, Note_on_c, 0, 81, 36
1, 655493, Note_on_c, 0, 93, 43
1, 655493, Note_on_c, 0, 69, 36
1, 655493, Note_on_c, 0, 81, 43
1, 655781, Note_off_c, 0, 81, 0
1, 655781, Note_off_c, 0, 69, 0
1, 655781, Note_off_c, 0, 93, 0
1, 655781, Note_off_c, 0, 81, 0
1, 655781, Note_off_c, 0, 69, 0
1, 655781, Note_off_c, 0, 36, 0
1, 655781, Note_off_c, 0, 57, 0
1, 655781, Note_off_c, 0, 81, 0
1, 655781, Note_off_c, 0, 48, 0
1, 655781, Note_off_c, 0, 69, 0
1, 655877, Note_on_c, 0, 76, 36
1, 655877, Note_on_c, 0, 69, 36
1, 655877, Note_on_c, 0, 47, 36
1, 655877, Note_on_c, 0, 88, 43
1, 655877, Note_on_c, 0, 81, 43
1, 655877, Note_on_c, 0, 64, 36
1, 655877, Note_on_c, 0, 57, 36
1, 655877, Note_on_c, 0, 35, 36
1, 655877, Note_on_c, 0, 76, 43
1, 655877, Note_on_c, 0, 69, 43
1, 656357, Note_off_c, 0, 76, 0
1, 656357, Note_off_c, 0, 64, 0
1, 656357, Note_off_c, 0, 88, 0
1, 656357, Note_off_c, 0, 76, 0
1, 656453, Note_on_c, 0, 81, 36
1, 656453, Note_on_c, 0, 93, 43
1, 656453, Note_on_c, 0, 69, 36
1, 656453, Note_on_c, 0, 81, 43
1, 656933, Note_off_c, 0, 81, 0
1, 656933, Note_off_c, 0, 69, 0
1, 656933, Note_off_c, 0, 93, 0
1, 656933, Note_off_c, 0, 81, 0
1, 657029, Note_on_c, 0, 81, 36
1, 657029, Note_on_c, 0, 93, 43
1, 657029, Note_on_c, 0, 69, 36
1, 657029, Note_on_c, 0, 81, 43
1, 657317, Note_off_c, 0, 81, 0
1, 657317, Note_off_c, 0, 69, 0
1, 657317, Note_off_c, 0, 93, 0
1, 657317, Note_off_c, 0, 81, 0
1, 657317, Note_off_c, 0, 69, 0
1, 657317, Note_off_c, 0, 35, 0
1, 657317, Note_off_c, 0, 57, 0
1, 657317, Note_off_c, 0, 81, 0
1, 657317, Note_off_c, 0, 47, 0
1, 657317, Note_off_c, 0, 69, 0
1, 657413, Note_on_c, 0, 81, 36
1, 657413, Note_on_c, 0, 47, 36
1, 657413, Note_on_c, 0, 93, 43
1, 657413, Note_on_c, 0, 69, 36
1, 657413, Note_on_c, 0, 35, 36
1, 657413, Note_on_c, 0, 81, 43
1, 657701, Note_off_c, 0, 81, 0
1, 657701, Note_off_c, 0, 69, 0
1, 657701, Note_off_c, 0, 93, 0
1, 657701, Note_off_c, 0, 81, 0
1, 657797, Note_on_c, 0, 91, 43
1, 657797, Note_on_c, 0, 65, 36
1, 657797, Note_on_c, 0, 79, 43
1, 657989, Note_off_c, 0, 79, 0
1, 657989, Note_off_c, 0, 65, 0
1, 657989, Note_off_c, 0, 91, 0
1, 657989, Note_on_c, 0, 76, 36
1, 657989, Note_on_c, 0, 88, 43
1, 657989, Note_on_c, 0, 64, 36
1, 657989, Note_on_c, 0, 76, 43
1, 658181, Note_off_c, 0, 76, 0
1, 658181, Note_off_c, 0, 64, 0
1, 658181, Note_off_c, 0, 88, 0
1, 658181, Note_off_c, 0, 76, 0
1, 658181, Note_on_c, 0, 74, 36
1, 658181, Note_on_c, 0, 86, 43
1, 658181, Note_on_c, 0, 62, 36
1, 658181, Note_on_c, 0, 74, 43
1, 658853, Note_off_c, 0, 74, 0
1, 658853, Note_off_c, 0, 62, 0
1, 658853, Note_off_c, 0, 86, 0
1, 658853, Note_off_c, 0, 74, 0
1, 658853, Note_off_c, 0, 35, 0
1, 658853, Note_off_c, 0, 47, 0
1, 658949, Note_on_c, 0, 76, 36
1, 658949, Note_on_c, 0, 46, 36
1, 658949, Note_on_c, 0, 88, 43
1, 658949, Note_on_c, 0, 64, 36
1, 658949, Note_on_c, 0, 34, 36
1, 658949, Note_on_c, 0, 76, 43
1, 660389, Note_off_c, 0, 76, 0
1, 660389, Note_off_c, 0, 34, 0
1, 660389, Note_off_c, 0, 64, 0
1, 660389, Note_off_c, 0, 88, 0
1, 660389, Note_off_c, 0, 46, 0
1, 660389, Note_off_c, 0, 76, 0
1, 660485, Note_on_c, 0, 77, 36
1, 660485, Note_on_c, 0, 48, 36
1, 660485, Note_on_c, 0, 89, 43
1, 660485, Note_on_c, 0, 65, 36
1, 660485, Note_on_c, 0, 36, 36
1, 660485, Note_on_c, 0, 77, 43
1, 661925, Note_off_c, 0, 77, 0
1, 661925, Note_off_c, 0, 36, 0
1, 661925, Note_off_c, 0, 65, 0
1, 661925, Note_off_c, 0, 89, 0
1, 661925, Note_off_c, 0, 48, 0
1, 661925, Note_off_c, 0, 77, 0
1, 662021, Note_on_c, 0, 69, 36
1, 662021, Note_on_c, 0, 76, 36
1, 662021, Note_on_c, 0, 50, 36
1, 662021, Note_on_c, 0, 57, 36
1, 662021, Note_on_c, 0, 64, 36
1, 662021, Note_on_c, 0, 38, 36
1, 663461, Note_off_c, 0, 38, 0
1, 663461, Note_off_c, 0, 50, 0
1, 663557, Note_off_c, 0, 64, 0
1, 663557, Note_off_c, 0, 57, 0
1, 663557, Note_off_c, 0, 76, 0
1, 663557, Note_off_c, 0, 69, 0
1, 663557, Note_on_c, 0, 76, 36
1, 663557, Note_on_c, 0, 69, 36
1, 663557, Note_on_c, 0, 50, 36
1, 663557, Note_on_c, 0, 64, 36
1, 663557, Note_on_c, 0, 57, 36
1, 663557, Note_on_c, 0, 38, 36
1, 664133, Note_off_c, 0, 64, 0
1, 664133, Note_off_c, 0, 76, 0
1, 664133, Note_on_c, 0, 74, 36
1, 664133, Note_on_c, 0, 62, 36
1, 664709, Note_off_c, 0, 62, 0
1, 664709, Note_off_c, 0, 74, 0
1, 664709, Note_on_c, 0, 81, 36
1, 664709, Note_on_c, 0, 69, 36
1, 664997, Note_off_c, 0, 69, 0
1, 664997, Note_off_c, 0, 81, 0
1, 664997, Note_off_c, 0, 38, 0
1, 664997, Note_off_c, 0, 57, 0
1, 664997, Note_off_c, 0, 50, 0
1, 664997, Note_off_c, 0, 69, 0
1, 665093, Note_on_c, 0, 69, 36
1, 665093, Note_on_c, 0, 76, 36
1, 665093, Note_on_c, 0, 48, 36
1, 665093, Note_on_c, 0, 57, 36
1, 665093, Note_on_c, 0, 64, 36
1, 665093, Note_on_c, 0, 36, 36
1, 666533, Note_off_c, 0, 36, 0
1, 666533, Note_off_c, 0, 48, 0
1, 666629, Note_off_c, 0, 64, 0
1, 666629, Note_off_c, 0, 57, 0
1, 666629, Note_off_c, 0, 76, 0
1, 666629, Note_off_c, 0, 69, 0
1, 666629, Note_on_c, 0, 76, 36
1, 666629, Note_on_c, 0, 69, 36
1, 666629, Note_on_c, 0, 48, 36
1, 666629, Note_on_c, 0, 64, 36
1, 666629, Note_on_c, 0, 57, 36
1, 666629, Note_on_c, 0, 36, 36
1, 667205, Note_off_c, 0, 64, 0
1, 667205, Note_off_c, 0, 76, 0
1, 667205, Note_on_c, 0, 74, 36
1, 667205, Note_on_c, 0, 62, 36
1, 667781, Note_off_c, 0, 62, 0
1, 667781, Note_off_c, 0, 74, 0
1, 667781, Note_on_c, 0, 81, 36
1, 667781, Note_on_c, 0, 69, 36
1, 668069, Note_off_c, 0, 69, 0
1, 668069, Note_off_c, 0, 81, 0
1, 668069, Note_off_c, 0, 36, 0
1, 668069, Note_off_c, 0, 57, 0
1, 668069, Note_off_c, 0, 48, 0
1, 668069, Note_off_c, 0, 69, 0
1, 668165, Note_on_c, 0, 69, 36
1, 668165, Note_on_c, 0, 76, 36
1, 668165, Note_on_c, 0, 47, 36
1, 668165, Note_on_c, 0, 57, 36
1, 668165, Note_on_c, 0, 64, 36
1, 668165, Note_on_c, 0, 35, 36
1, 669605, Note_off_c, 0, 35, 0
1, 669605, Note_off_c, 0, 47, 0
1, 669701, Note_off_c, 0, 64, 0
1, 669701, Note_off_c, 0, 57, 0
1, 669701, Note_off_c, 0, 76, 0
1, 669701, Note_off_c, 0, 69, 0
1, 669701, Note_on_c, 0, 76, 36
1, 669701, Note_on_c, 0, 69, 36
1, 669701, Note_on_c, 0, 47, 36
1, 669701, Note_on_c, 0, 64, 36
1, 669701, Note_on_c, 0, 57, 36
1, 669701, Note_on_c, 0, 35, 36
1, 670277, Note_off_c, 0, 64, 0
1, 670277, Note_off_c, 0, 76, 0
1, 670277, Note_on_c, 0, 74, 36
1, 670277, Note_on_c, 0, 62, 36
1, 670853, Note_off_c, 0, 62, 0
1, 670853, Note_off_c, 0, 74, 0
1, 670853, Note_on_c, 0, 81, 36
1, 670853, Note_on_c, 0, 69, 36
1, 671141, Note_off_c, 0, 69, 0
1, 671141, Note_off_c, 0, 81, 0
1, 671141, Note_off_c, 0, 35, 0
1, 671141, Note_off_c, 0, 57, 0
1, 671141, Note_off_c, 0, 47, 0
1, 671141, Note_off_c, 0, 69, 0
1, 671237, Note_on_c, 0, 76, 36
1, 671237, Note_on_c, 0, 46, 36
1, 671237, Note_on_c, 0, 64, 36
1, 671237, Note_on_c, 0, 34, 36
1, 671813, Note_off_c, 0, 64, 0
1, 671813, Note_off_c, 0, 76, 0
1, 671813, Note_on_c, 0, 74, 36
1, 671813, Note_on_c, 0, 62, 36
1, 672389, Note_off_c, 0, 62, 0
1, 672389, Note_off_c, 0, 74, 0
1, 672389, Note_on_c, 0, 76, 36
1, 672389, Note_on_c, 0, 64, 36
1, 672677, Note_off_c, 0, 34, 0
1, 672677, Note_off_c, 0, 46, 0
1, 672773, Note_off_c, 0, 64, 0
1, 672773, Note_off_c, 0, 76, 0
1, 672773, Note_on_c, 0, 77, 36
1, 672773, Note_on_c, 0, 48, 36
1, 672773, Note_on_c, 0, 65, 36
1, 672773, Note_on_c, 0, 36, 36
1, 673157, Note_off_c, 0, 65, 0
1, 673157, Note_off_c, 0, 77, 0
1, 673157, Note_on_c, 0, 76, 36
1, 673157, Note_on_c, 0, 64, 36
1, 673541, Note_off_c, 0, 64, 0
1, 673541, Note_off_c, 0, 76, 0
1, 673541, Note_on_c, 0, 77, 36
1, 673541, Note_on_c, 0, 65, 36
1, 673925, Note_off_c, 0, 65, 0
1, 673925, Note_off_c, 0, 77, 0
1, 673925, Note_on_c, 0, 76, 36
1, 673925, Note_on_c, 0, 64, 36
1, 674213, Note_off_c, 0, 64, 0
1, 674213, Note_off_c, 0, 76, 0
1, 674213, Note_off_c, 0, 36, 0
1, 674213, Note_off_c, 0, 48, 0
1, 674309, Note_on_c, 0, 69, 36
1, 674309, Note_on_c, 0, 76, 36
1, 674309, Note_on_c, 0, 50, 36
1, 674309, Note_on_c, 0, 57, 36
1, 674309, Note_on_c, 0, 64, 36
1, 674309, Note_on_c, 0, 38, 36
1, 675749, Note_off_c, 0, 38, 0
1, 675749, Note_off_c, 0, 50, 0
1, 675845, Note_off_c, 0, 64, 0
1, 675845, Note_off_c, 0, 57, 0
1, 675845, Note_off_c, 0, 76, 0
1, 675845, Note_off_c, 0, 69, 0
1, 675845, Note_on_c, 0, 76, 36
1, 675845, Note_on_c, 0, 69, 36
1, 675845, Note_on_c, 0, 50, 36
1, 675845, Note_on_c, 0, 64, 36
1, 675845, Note_on_c, 0, 57, 36
1, 675845, Note_on_c, 0, 38, 36
1, 676421, Note_off_c, 0, 64, 0
1, 676421, Note_off_c, 0, 76, 0
1, 676421, Note_on_c, 0, 74, 36
1, 676421, Note_on_c, 0, 62, 36
1, 676997, Note_off_c, 0, 62, 0
1, 676997, Note_off_c, 0, 74, 0
1, 676997, Note_on_c, 0, 81, 36
1, 676997, Note_on_c, 0, 69, 36
1, 677285, Note_off_c, 0, 69, 0
1, 677285, Note_off_c, 0, 81, 0
1, 677285, Note_off_c, 0, 38, 0
1, 677285, Note_off_c, 0, 57, 0
1, 677285, Note_off_c, 0, 50, 0
1, 677285, Note_off_c, 0, 69, 0
1, 677381, Note_on_c, 0, 69, 36
1, 677381, Note_on_c, 0, 76, 36
1, 677381, Note_on_c, 0, 48, 36
1, 677381, Note_on_c, 0, 57, 36
1, 677381, Note_on_c, 0, 64, 36
1, 677381, Note_on_c, 0, 36, 36
1, 678821, Note_off_c, 0, 36, 0
1, 678821, Note_off_c, 0, 48, 0
1, 678917, Note_off_c, 0, 64, 0
1, 678917, Note_off_c, 0, 57, 0
1, 678917, Note_off_c, 0, 76, 0
1, 678917, Note_off_c, 0, 69, 0
1, 678917, Note_on_c, 0, 76, 36
1, 678917, Note_on_c, 0, 69, 36
1, 678917, Note_on_c, 0, 48, 36
1, 678917, Note_on_c, 0, 64, 36
1, 678917, Note_on_c, 0, 57, 36
1, 678917, Note_on_c, 0, 36, 36
1, 679493, Note_off_c, 0, 64, 0
1, 679493, Note_off_c, 0, 76, 0
1, 679493, Note_on_c, 0, 74, 36
1, 679493, Note_on_c, 0, 62, 36
1, 680069, Note_off_c, 0, 62, 0
1, 680069, Note_off_c, 0, 74, 0
1, 680069, Note_on_c, 0, 81, 36
1, 680069, Note_on_c, 0, 69, 36
1, 680357, Note_off_c, 0, 69, 0
1, 680357, Note_off_c, 0, 81, 0
1, 680357, Note_off_c, 0, 36, 0
1, 680357, Note_off_c, 0, 57, 0
1, 680357, Note_off_c, 0, 48, 0
1, 680357, Note_off_c, 0, 69, 0
1, 680453, Note_on_c, 0, 69, 36
1, 680453, Note_on_c, 0, 76, 36
1, 680453, Note_on_c, 0, 47, 36
1, 680453, Note_on_c, 0, 57, 36
1, 680453, Note_on_c, 0, 64, 36
1, 680453, Note_on_c, 0, 35, 36
1, 681893, Note_off_c, 0, 35, 0
1, 681893, Note_off_c, 0, 47, 0
1, 681989, Note_on_c, 0, 47, 36
1, 681989, Note_on_c, 0, 35, 36
1, 683045, Note_off_c, 0, 64, 0
1, 683045, Note_off_c, 0, 57, 0
1, 683045, Note_off_c, 0, 76, 0
1, 683045, Note_off_c, 0, 69, 0
1, 683141, Note_on_c, 0, 74, 36
1, 683141, Note_on_c, 0, 62, 36
1, 683429, Note_off_c, 0, 62, 0
1, 683429, Note_off_c, 0, 74, 0
1, 683429, Note_off_c, 0, 35, 0
1, 683429, Note_off_c, 0, 47, 0
1, 683525, Note_on_c, 0, 74, 36
1, 683525, Note_on_c, 0, 46, 36
1, 683525, Note_on_c, 0, 62, 36
1, 683525, Note_on_c, 0, 34, 36
1, 683813, Note_off_c, 0, 62, 0
1, 683813, Note_off_c, 0, 74, 0
1, 683909, Note_on_c, 0, 76, 36
1, 683909, Note_on_c, 0, 64, 36
1, 684197, Note_off_c, 0, 64, 0
1, 684197, Note_off_c, 0, 76, 0
1, 684293, Note_on_c, 0, 77, 36
1, 684293, Note_on_c, 0, 65, 36
1, 684581, Note_off_c, 0, 65, 0
1, 684581, Note_off_c, 0, 77, 0
1, 684677, Note_on_c, 0, 81, 36
1, 684677, Note_on_c, 0, 69, 36
1, 684965, Note_off_c, 0, 69, 0
1, 684965, Note_off_c, 0, 81, 0
1, 684965, Note_off_c, 0, 34, 0
1, 684965, Note_off_c, 0, 46, 0
1, 685061, Note_on_c, 0, 72, 36
1, 685061, Note_on_c, 0, 48, 36
1, 685061, Note_on_c, 0, 60, 36
1, 685061, Note_on_c, 0, 36, 36
1, 685349, Note_off_c, 0, 60, 0
1, 685349, Note_off_c, 0, 72, 0
1, 685445, Note_on_c, 0, 67, 36
1, 685445, Note_on_c, 0, 55, 36
1, 685733, Note_off_c, 0, 55, 0
1, 685733, Note_off_c, 0, 67, 0
1, 685829, Note_on_c, 0, 69, 36
1, 685829, Note_on_c, 0, 57, 36
1, 686117, Note_off_c, 0, 57, 0
1, 686117, Note_off_c, 0, 69, 0
1, 686213, Note_on_c, 0, 74, 36
1, 686213, Note_on_c, 0, 62, 36
1, 689573, Note_off_c, 0, 62, 0
1, 689573, Note_off_c, 0, 74, 0
1, 689573, Note_off_c, 0, 36, 0
1, 689573, Note_off_c, 0, 48, 0
1, 689573, End_track
2, 0, Start_track
2, 0, Title_t, "Grand Piano (Classic)"
2, 0, Program_c, 1, 0
2, 24576, Note_on_c, 1, 50, 50
2, 25248, Note_off_c, 1, 50, 0
2, 25344, Note_on_c, 1, 51, 50
2, 26016, Note_off_c, 1, 51, 0
2, 107136, Note_on_c, 1, 61, 50
2, 107136, Note_on_c, 1, 49, 50
2, 107328, Note_off_c, 1, 49, 0
2, 107328, Note_off_c, 1, 61, 0
2, 107328, Note_on_c, 1, 61, 50
2, 107328, Note_on_c, 1, 49, 50
2, 107520, Note_off_c, 1, 49, 0
2, 107520, Note_off_c, 1, 61, 0
2, 107520, End_track
0, 0, End_of_file
