0, 0, Header, 0, 1, 384
1, 0, Start_track
1, 0, Time_signature, 4, 2, 24, 8
1, 0, Tempo, 240000
1, 0, Title_t, "8-Bit Square"
1, 0, Program_c, 0, 80
1, 0, Note_on_c, 0, 74, 50
1, 0, Note_on_c, 0, 62, 50
1, 0, Note_on_c, 0, 66, 50
1, 0, Note_on_c, 0, 47, 50
1, 0, Note_on_c, 0, 59, 50
1, 768, Note_off_c, 0, 74, 0
1, 768, Note_on_c, 0, 71, 50
1, 1536, Note_off_c, 0, 71, 0
1, 1536, Note_off_c, 0, 59, 0
1, 1536, Note_off_c, 0, 47, 0
1, 1536, Note_off_c, 0, 66, 0
1, 1536, Note_off_c, 0, 62, 0
1, 1536, Note_on_c, 0, 73, 50
1, 1536, Note_on_c, 0, 66, 50
1, 1536, Note_on_c, 0, 61, 50
1, 1536, Note_on_c, 0, 46, 50
1, 1536, Note_on_c, 0, 58, 50
1, 2304, Note_off_c, 0, 73, 0
1, 2304, Note_on_c, 0, 70, 50
1, 3072, Note_off_c, 0, 70, 0
1, 3072, Note_off_c, 0, 58, 0
1, 3072, Note_off_c, 0, 46, 0
1, 3072, Note_off_c, 0, 61, 0
1, 3072, Note_off_c, 0, 66, 0
1, 3072, Note_on_c, 0, 72, 50
1, 3072, Note_on_c, 0, 60, 50
1, 3072, Note_on_c, 0, 64, 50
1, 3072, Note_on_c, 0, 45, 50
1, 3072, Note_on_c, 0, 57, 50
1, 3072, Note_on_c, 0, 78, 50
1, 3840, Note_off_c, 0, 72, 0
1, 3840, Note_on_c, 0, 71, 50
1, 4224, Note_off_c, 0, 71, 0
1, 4224, Note_on_c, 0, 69, 50
1, 4608, Note_off_c, 0, 69, 0
1, 4608, Note_off_c, 0, 78, 0
1, 4608, Note_off_c, 0, 57, 0
1, 4608, Note_off_c, 0, 45, 0
1, 4608, Note_off_c, 0, 64, 0
1, 4608, Note_off_c, 0, 60, 0
1, 4608, Note_on_c, 0, 68, 50
1, 4608, Note_on_c, 0, 44, 50
1, 4608, Note_on_c, 0, 59, 50
1, 4608, Note_on_c, 0, 64, 50
1, 4608, Note_on_c, 0, 56, 50
1, 4608, Note_on_c, 0, 76, 50
1, 5376, Note_off_c, 0, 68, 0
1, 5376, Note_on_c, 0, 71, 50
1, 6144, Note_off_c, 0, 56, 0
1, 6144, Note_off_c, 0, 64, 0
1, 6144, Note_off_c, 0, 59, 0
1, 6144, Note_off_c, 0, 44, 0
1, 6144, Note_on_c, 0, 40, 50
1, 6144, Note_on_c, 0, 59, 50
1, 6144, Note_on_c, 0, 43, 50
1, 6336, Note_off_c, 0, 40, 0
1, 6528, Note_off_c, 0, 71, 0
1, 6528, Note_off_c, 0, 76, 0
1, 6528, Note_on_c, 0, 49, 50
1, 6528, Note_on_c, 0, 55, 50
1, 6528, Note_on_c, 0, 52, 50
1, 6528, Note_on_c, 0, 67, 50
1, 6528, Note_on_c, 0, 71, 50
1, 6720, Note_off_c, 0, 52, 0
1, 6720, Note_off_c, 0, 55, 0
1, 6720, Note_off_c, 0, 49, 0
1, 6912, Note_on_c, 0, 37, 50
1, 7104, Note_off_c, 0, 37, 0
1, 7296, Note_off_c, 0, 71, 0
1, 7296, Note_off_c, 0, 67, 0
1, 7296, Note_on_c, 0, 55, 50
1, 7296, Note_on_c, 0, 49, 50
1, 7296, Note_on_c, 0, 52, 50
1, 7296, Note_on_c, 0, 64, 50
1, 7296, Note_on_c, 0, 55, 50
1, 7296, Note_on_c, 0, 76, 50
1, 7296, Note_on_c, 0, 64, 50
1, 7488, Note_off_c, 0, 52, 0
1, 7488, Note_off_c, 0, 49, 0
1, 7488, Note_off_c, 0, 55, 0
1, 7680, Note_off_c, 0, 64, 0
1, 7680, Note_off_c, 0, 76, 0
1, 7680, Note_off_c, 0, 55, 0
1, 7680, Note_off_c, 0, 64, 0
1, 7680, Note_off_c, 0, 43, 0
1, 7680, Note_off_c, 0, 59, 0
1, 7680, Note_on_c, 0, 42, 50
1, 7680, Note_on_c, 0, 74, 50
1, 7680, Note_on_c, 0, 66, 50
1, 7680, Note_on_c, 0, 42, 50
1, 7680, Note_on_c, 0, 62, 50
1, 7680, Note_on_c, 0, 59, 50
1, 7776, Note_off_c, 0, 42, 0
1, 8064, Note_on_c, 0, 47, 50
1, 8064, Note_on_c, 0, 50, 50
1, 8064, Note_on_c, 0, 54, 50
1, 8256, Note_off_c, 0, 54, 0
1, 8256, Note_off_c, 0, 50, 0
1, 8256, Note_off_c, 0, 47, 0
1, 8448, Note_on_c, 0, 38, 50
1, 8640, Note_off_c, 0, 38, 0
1, 8832, Note_off_c, 0, 66, 0
1, 8832, Note_off_c, 0, 74, 0
1, 8832, Note_on_c, 0, 54, 50
1, 8832, Note_on_c, 0, 47, 50
1, 8832, Note_on_c, 0, 50, 50
1, 8832, Note_on_c, 0, 71, 50
1, 8832, Note_on_c, 0, 66, 50
1, 8832, Note_on_c, 0, 54, 50
1, 9024, Note_off_c, 0, 50, 0
1, 9024, Note_off_c, 0, 47, 0
1, 9024, Note_off_c, 0, 54, 0
1, 9216, Note_off_c, 0, 54, 0
1, 9216, Note_off_c, 0, 66, 0
1, 9216, Note_off_c, 0, 71, 0
1, 9216, Note_off_c, 0, 59, 0
1, 9216, Note_off_c, 0, 62, 0
1, 9216, Note_off_c, 0, 42, 0
1, 9216, Note_on_c, 0, 42, 50
1, 9216, Note_on_c, 0, 70, 50
1, 9216, Note_on_c, 0, 61, 50
1, 9216, Note_on_c, 0, 42, 50
1, 9312, Note_off_c, 0, 42, 0
1, 9600, Note_off_c, 0, 70, 0
1, 9600, Note_on_c, 0, 68, 50
1, 9600, Note_on_c, 0, 58, 50
1, 9600, Note_on_c, 0, 54, 50
1, 9984, Note_off_c, 0, 54, 0
1, 9984, Note_off_c, 0, 58, 0
1, 9984, Note_off_c, 0, 68, 0
1, 9984, Note_on_c, 0, 46, 50
1, 9984, Note_on_c, 0, 66, 50
1, 9984, Note_on_c, 0, 66, 50
1, 10176, Note_off_c, 0, 46, 0
1, 10368, Note_off_c, 0, 66, 0
1, 10368, Note_on_c, 0, 58, 50
1, 10368, Note_on_c, 0, 54, 50
1, 10368, Note_on_c, 0, 74, 50
1, 10368, Note_on_c, 0, 58, 50
1, 10368, Note_on_c, 0, 54, 50
1, 10560, Note_off_c, 0, 54, 0
1, 10560, Note_off_c, 0, 58, 0
1, 10752, Note_off_c, 0, 54, 0
1, 10752, Note_off_c, 0, 58, 0
1, 10752, Note_off_c, 0, 74, 0
1, 10752, Note_off_c, 0, 66, 0
1, 10752, Note_off_c, 0, 42, 0
1, 10752, Note_off_c, 0, 61, 0
1, 10752, Note_on_c, 0, 47, 50
1, 10752, Note_on_c, 0, 71, 50
1, 10752, Note_on_c, 0, 35, 50
1, 10752, Note_on_c, 0, 62, 50
1, 10944, Note_off_c, 0, 47, 0
1, 11136, Note_on_c, 0, 54, 50
1, 11136, Note_on_c, 0, 59, 50
1, 11136, Note_on_c, 0, 50, 50
1, 11328, Note_off_c, 0, 50, 0
1, 11328, Note_off_c, 0, 59, 0
1, 11328, Note_off_c, 0, 54, 0
1, 11520, Note_on_c, 0, 42, 50
1, 11712, Note_off_c, 0, 42, 0
1, 11904, Note_on_c, 0, 59, 50
1, 11904, Note_on_c, 0, 54, 50
1, 11904, Note_on_c, 0, 50, 50
1, 12096, Note_off_c, 0, 50, 0
1, 12096, Note_off_c, 0, 54, 0
1, 12096, Note_off_c, 0, 59, 0
1, 12288, Note_on_c, 0, 47, 50
1, 12480, Note_off_c, 0, 47, 0
1, 12672, Note_on_c, 0, 50, 50
1, 12672, Note_on_c, 0, 54, 50
1, 12672, Note_on_c, 0, 59, 50
1, 12864, Note_off_c, 0, 59, 0
1, 12864, Note_off_c, 0, 54, 0
1, 12864, Note_off_c, 0, 50, 0
1, 13056, Note_on_c, 0, 42, 50
1, 13248, Note_off_c, 0, 42, 0
1, 13440, Note_on_c, 0, 50, 50
1, 13440, Note_on_c, 0, 54, 50
1, 13440, Note_on_c, 0, 59, 50
1, 13440, Note_on_c, 0, 54, 50
1, 13440, Note_on_c, 0, 59, 50
1, 13632, Note_off_c, 0, 59, 0
1, 13632, Note_off_c, 0, 54, 0
1, 13632, Note_off_c, 0, 50, 0
1, 13824, Note_off_c, 0, 59, 0
1, 13824, Note_off_c, 0, 54, 0
1, 13824, Note_off_c, 0, 62, 0
1, 13824, Note_off_c, 0, 35, 0
1, 13824, Note_off_c, 0, 71, 0
1, 13824, Note_on_c, 0, 47, 50
1, 14016, Note_off_c, 0, 47, 0
1, 14208, Note_on_c, 0, 59, 50
1, 14208, Note_on_c, 0, 54, 50
1, 14208, Note_on_c, 0, 50, 50
1, 14400, Note_off_c, 0, 50, 0
1, 14400, Note_off_c, 0, 54, 0
1, 14400, Note_off_c, 0, 59, 0
1, 14592, Note_on_c, 0, 42, 50
1, 14784, Note_off_c, 0, 42, 0
1, 14976, Note_on_c, 0, 50, 50
1, 14976, Note_on_c, 0, 54, 50
1, 14976, Note_on_c, 0, 59, 50
1, 15168, Note_off_c, 0, 59, 0
1, 15168, Note_off_c, 0, 54, 0
1, 15168, Note_off_c, 0, 50, 0
1, 15360, Note_on_c, 0, 47, 50
1, 15552, Note_off_c, 0, 47, 0
1, 15744, Note_on_c, 0, 50, 50
1, 15744, Note_on_c, 0, 59, 50
1, 15744, Note_on_c, 0, 54, 50
1, 15936, Note_off_c, 0, 54, 0
1, 15936, Note_off_c, 0, 59, 0
1, 15936, Note_off_c, 0, 50, 0
1, 16128, Note_on_c, 0, 42, 50
1, 16320, Note_off_c, 0, 42, 0
1, 16512, Note_on_c, 0, 54, 50
1, 16512, Note_on_c, 0, 59, 50
1, 16512, Note_on_c, 0, 50, 50
1, 16704, Note_off_c, 0, 50, 0
1, 16704, Note_off_c, 0, 59, 0
1, 16704, Note_off_c, 0, 54, 0
1, 16896, Note_on_c, 0, 47, 50
1, 17088, Note_off_c, 0, 47, 0
1, 17280, Note_on_c, 0, 54, 50
1, 17280, Note_on_c, 0, 59, 50
1, 17280, Note_on_c, 0, 50, 50
1, 17280, Note_on_c, 0, 59, 50
1, 17472, Note_off_c, 0, 50, 0
1, 17472, Note_off_c, 0, 59, 0
1, 17472, Note_off_c, 0, 54, 0
1, 17664, Note_on_c, 0, 42, 50
1, 17856, Note_off_c, 0, 42, 0
1, 18048, Note_off_c, 0, 59, 0
1, 18048, Note_on_c, 0, 50, 50
1, 18048, Note_on_c, 0, 59, 50
1, 18048, Note_on_c, 0, 54, 50
1, 18048, Note_on_c, 0, 61, 50
1, 18240, Note_off_c, 0, 54, 0
1, 18240, Note_off_c, 0, 59, 0
1, 18240, Note_off_c, 0, 50, 0
1, 18432, Note_off_c, 0, 61, 0
1, 18432, Note_on_c, 0, 47, 50
1, 18432, Note_on_c, 0, 62, 50
1, 18624, Note_off_c, 0, 47, 0
1, 18816, Note_on_c, 0, 59, 50
1, 18816, Note_on_c, 0, 54, 50
1, 18816, Note_on_c, 0, 50, 50
1, 19008, Note_off_c, 0, 50, 0
1, 19008, Note_off_c, 0, 54, 0
1, 19008, Note_off_c, 0, 59, 0
1, 19200, Note_on_c, 0, 42, 50
1, 19392, Note_off_c, 0, 42, 0
1, 19584, Note_off_c, 0, 62, 0
1, 19584, Note_on_c, 0, 50, 50
1, 19584, Note_on_c, 0, 59, 50
1, 19584, Note_on_c, 0, 54, 50
1, 19584, Note_on_c, 0, 59, 50
1, 19776, Note_off_c, 0, 54, 0
1, 19776, Note_off_c, 0, 59, 0
1, 19776, Note_off_c, 0, 50, 0
1, 19968, Note_off_c, 0, 59, 0
1, 19968, Note_on_c, 0, 47, 50
1, 19968, Note_on_c, 0, 62, 50
1, 20160, Note_off_c, 0, 47, 0
1, 20352, Note_off_c, 0, 62, 0
1, 20352, Note_on_c, 0, 59, 50
1, 20352, Note_on_c, 0, 50, 50
1, 20352, Note_on_c, 0, 54, 50
1, 20352, Note_on_c, 0, 62, 50
1, 20544, Note_off_c, 0, 54, 0
1, 20544, Note_off_c, 0, 50, 0
1, 20544, Note_off_c, 0, 59, 0
1, 20736, Note_off_c, 0, 62, 0
1, 20736, Note_on_c, 0, 49, 50
1, 20736, Note_on_c, 0, 61, 50
1, 20928, Note_off_c, 0, 49, 0
1, 21120, Note_off_c, 0, 61, 0
1, 21120, Note_on_c, 0, 59, 50
1, 21120, Note_on_c, 0, 50, 50
1, 21120, Note_on_c, 0, 54, 50
1, 21120, Note_on_c, 0, 59, 50
1, 21216, Note_off_c, 0, 59, 0
1, 21312, Note_off_c, 0, 54, 0
1, 21312, Note_off_c, 0, 50, 0
1, 21504, Note_off_c, 0, 59, 0
1, 21504, Note_on_c, 0, 42, 50
1, 21504, Note_on_c, 0, 61, 50
1, 21696, Note_off_c, 0, 42, 0
1, 21888, Note_on_c, 0, 58, 50
1, 21888, Note_on_c, 0, 54, 50
1, 21888, Note_on_c, 0, 49, 50
1, 22080, Note_off_c, 0, 49, 0
1, 22080, Note_off_c, 0, 54, 0
1, 22080, Note_off_c, 0, 58, 0
1, 22272, Note_off_c, 0, 61, 0
1, 22272, Note_on_c, 0, 49, 50
1, 22464, Note_off_c, 0, 49, 0
1, 22656, Note_on_c, 0, 54, 50
1, 22656, Note_on_c, 0, 58, 50
1, 22656, Note_on_c, 0, 49, 50
1, 22656, Note_on_c, 0, 54, 50
1, 22752, Note_off_c, 0, 54, 0
1, 22848, Note_off_c, 0, 49, 0
1, 22848, Note_off_c, 0, 58, 0
1, 23040, Note_off_c, 0, 54, 0
1, 23040, Note_on_c, 0, 42, 50
1, 23040, Note_on_c, 0, 61, 50
1, 23232, Note_off_c, 0, 42, 0
1, 23424, Note_on_c, 0, 58, 50
1, 23424, Note_on_c, 0, 54, 50
1, 23424, Note_on_c, 0, 49, 50
1, 23616, Note_off_c, 0, 49, 0
1, 23616, Note_off_c, 0, 54, 0
1, 23616, Note_off_c, 0, 58, 0
1, 23808, Note_on_c, 0, 37, 50
1, 24000, Note_off_c, 0, 37, 0
1, 24192, Note_off_c, 0, 61, 0
1, 24192, Note_on_c, 0, 58, 50
1, 24192, Note_on_c, 0, 49, 50
1, 24192, Note_on_c, 0, 54, 50
1, 24192, Note_on_c, 0, 62, 50
1, 24384, Note_off_c, 0, 54, 0
1, 24384, Note_off_c, 0, 49, 0
1, 24384, Note_off_c, 0, 58, 0
1, 24576, Note_off_c, 0, 62, 0
1, 24576, Note_on_c, 0, 42, 50
1, 24576, Note_on_c, 0, 64, 50
1, 24768, Note_off_c, 0, 42, 0
1, 24960, Note_on_c, 0, 58, 50
1, 24960, Note_on_c, 0, 54, 50
1, 24960, Note_on_c, 0, 49, 50
1, 25152, Note_off_c, 0, 49, 0
1, 25152, Note_off_c, 0, 54, 0
1, 25152, Note_off_c, 0, 58, 0
1, 25344, Note_on_c, 0, 37, 50
1, 25536, Note_off_c, 0, 37, 0
1, 25728, Note_off_c, 0, 64, 0
1, 25728, Note_on_c, 0, 49, 50
1, 25728, Note_on_c, 0, 58, 50
1, 25728, Note_on_c, 0, 54, 50
1, 25728, Note_on_c, 0, 61, 50
1, 25920, Note_off_c, 0, 54, 0
1, 25920, Note_off_c, 0, 58, 0
1, 25920, Note_off_c, 0, 49, 0
1, 26112, Note_off_c, 0, 61, 0
1, 26112, Note_on_c, 0, 42, 50
1, 26112, Note_on_c, 0, 64, 50
1, 26304, Note_off_c, 0, 42, 0
1, 26496, Note_off_c, 0, 64, 0
1, 26496, Note_on_c, 0, 49, 50
1, 26496, Note_on_c, 0, 58, 50
1, 26496, Note_on_c, 0, 54, 50
1, 26496, Note_on_c, 0, 64, 50
1, 26688, Note_off_c, 0, 54, 0
1, 26688, Note_off_c, 0, 58, 0
1, 26688, Note_off_c, 0, 49, 0
1, 26880, Note_off_c, 0, 64, 0
1, 26880, Note_on_c, 0, 42, 50
1, 26880, Note_on_c, 0, 62, 50
1, 27072, Note_off_c, 0, 42, 0
1, 27264, Note_off_c, 0, 62, 0
1, 27264, Note_on_c, 0, 46, 50
1, 27264, Note_on_c, 0, 61, 50
1, 27456, Note_off_c, 0, 46, 0
1, 27648, Note_off_c, 0, 61, 0
1, 27648, Note_on_c, 0, 47, 50
1, 27840, Note_off_c, 0, 47, 0
1, 28032, Note_on_c, 0, 50, 50
1, 28032, Note_on_c, 0, 59, 50
1, 28032, Note_on_c, 0, 54, 50
1, 28224, Note_off_c, 0, 54, 0
1, 28224, Note_off_c, 0, 59, 0
1, 28224, Note_off_c, 0, 50, 0
1, 28416, Note_on_c, 0, 42, 50
1, 28608, Note_off_c, 0, 42, 0
1, 28800, Note_on_c, 0, 54, 50
1, 28800, Note_on_c, 0, 59, 50
1, 28800, Note_on_c, 0, 50, 50
1, 28800, Note_on_c, 0, 59, 50
1, 28992, Note_off_c, 0, 50, 0
1, 28992, Note_off_c, 0, 59, 0
1, 28992, Note_off_c, 0, 54, 0
1, 29184, Note_off_c, 0, 59, 0
1, 29184, Note_on_c, 0, 47, 50
1, 29184, Note_on_c, 0, 66, 50
1, 29376, Note_off_c, 0, 47, 0
1, 29568, Note_on_c, 0, 54, 50
1, 29568, Note_on_c, 0, 59, 50
1, 29568, Note_on_c, 0, 62, 50
1, 29760, Note_off_c, 0, 62, 0
1, 29760, Note_off_c, 0, 59, 0
1, 29760, Note_off_c, 0, 54, 0
1, 29952, Note_off_c, 0, 66, 0
1, 29952, Note_on_c, 0, 42, 50
1, 29952, Note_on_c, 0, 71, 50
1, 30144, Note_off_c, 0, 42, 0
1, 30336, Note_on_c, 0, 59, 50
1, 30336, Note_on_c, 0, 62, 50
1, 30336, Note_on_c, 0, 54, 50
1, 30528, Note_off_c, 0, 54, 0
1, 30528, Note_off_c, 0, 62, 0
1, 30528, Note_off_c, 0, 59, 0
1, 30720, Note_off_c, 0, 71, 0
1, 30720, Note_on_c, 0, 38, 50
1, 30720, Note_on_c, 0, 69, 50
1, 30912, Note_off_c, 0, 38, 0
1, 31104, Note_on_c, 0, 57, 50
1, 31104, Note_on_c, 0, 62, 50
1, 31104, Note_on_c, 0, 54, 50
1, 31296, Note_off_c, 0, 54, 0
1, 31296, Note_off_c, 0, 62, 0
1, 31296, Note_off_c, 0, 57, 0
1, 31488, Note_off_c, 0, 69, 0
1, 31488, Note_on_c, 0, 71, 50
1, 31488, Note_on_c, 0, 39, 50
1, 31584, Note_off_c, 0, 71, 0
1, 31680, Note_off_c, 0, 39, 0
1, 31872, Note_on_c, 0, 69, 50
1, 31872, Note_on_c, 0, 60, 50
1, 31872, Note_on_c, 0, 54, 50
1, 31872, Note_on_c, 0, 57, 50
1, 31968, Note_off_c, 0, 69, 0
1, 32064, Note_off_c, 0, 57, 0
1, 32064, Note_off_c, 0, 54, 0
1, 32064, Note_off_c, 0, 60, 0
1, 32256, Note_on_c, 0, 40, 50
1, 32256, Note_on_c, 0, 67, 50
1, 32448, Note_off_c, 0, 40, 0
1, 32640, Note_on_c, 0, 64, 50
1, 32640, Note_on_c, 0, 59, 50
1, 32640, Note_on_c, 0, 55, 50
1, 32832, Note_off_c, 0, 55, 0
1, 32832, Note_off_c, 0, 59, 0
1, 32832, Note_off_c, 0, 64, 0
1, 32832, Note_off_c, 0, 67, 0
1, 32832, Note_on_c, 0, 67, 50
1, 33024, Note_off_c, 0, 67, 0
1, 33024, Note_on_c, 0, 40, 50
1, 33024, Note_on_c, 0, 66, 50
1, 33216, Note_off_c, 0, 40, 0
1, 33408, Note_off_c, 0, 66, 0
1, 33408, Note_on_c, 0, 55, 50
1, 33408, Note_on_c, 0, 64, 50
1, 33408, Note_on_c, 0, 59, 50
1, 33408, Note_on_c, 0, 64, 50
1, 33600, Note_off_c, 0, 59, 0
1, 33600, Note_off_c, 0, 64, 0
1, 33600, Note_off_c, 0, 55, 0
1, 33792, Note_off_c, 0, 64, 0
1, 33792, Note_on_c, 0, 35, 50
1, 33792, Note_on_c, 0, 66, 50
1, 33984, Note_off_c, 0, 35, 0
1, 34176, Note_on_c, 0, 54, 50
1, 34176, Note_on_c, 0, 59, 50
1, 34176, Note_on_c, 0, 62, 50
1, 34368, Note_off_c, 0, 62, 0
1, 34368, Note_off_c, 0, 59, 0
1, 34368, Note_off_c, 0, 54, 0
1, 34560, Note_off_c, 0, 66, 0
1, 34560, Note_on_c, 0, 42, 50
1, 34752, Note_off_c, 0, 42, 0
1, 34944, Note_on_c, 0, 62, 50
1, 34944, Note_on_c, 0, 59, 50
1, 34944, Note_on_c, 0, 54, 50
1, 34944, Note_on_c, 0, 59, 50
1, 35136, Note_off_c, 0, 54, 0
1, 35136, Note_off_c, 0, 59, 0
1, 35136, Note_off_c, 0, 62, 0
1, 35328, Note_off_c, 0, 59, 0
1, 35328, Note_on_c, 0, 40, 50
1, 35520, Note_off_c, 0, 40, 0
1, 35712, Note_on_c, 0, 55, 50
1, 35712, Note_on_c, 0, 59, 50
1, 35712, Note_on_c, 0, 64, 50
1, 35712, Note_on_c, 0, 67, 50
1, 35904, Note_off_c, 0, 64, 0
1, 35904, Note_off_c, 0, 59, 0
1, 35904, Note_off_c, 0, 55, 0
1, 36096, Note_on_c, 0, 40, 50
1, 36288, Note_off_c, 0, 40, 0
1, 36480, Note_off_c, 0, 67, 0
1, 36480, Note_on_c, 0, 64, 50
1, 36480, Note_on_c, 0, 59, 50
1, 36480, Note_on_c, 0, 55, 50
1, 36480, Note_on_c, 0, 64, 50
1, 36672, Note_off_c, 0, 55, 0
1, 36672, Note_off_c, 0, 59, 0
1, 36672, Note_off_c, 0, 64, 0
1, 36864, Note_off_c, 0, 64, 0
1, 36864, Note_on_c, 0, 35, 50
1, 36864, Note_on_c, 0, 66, 50
1, 37056, Note_off_c, 0, 35, 0
1, 37248, Note_on_c, 0, 62, 50
1, 37248, Note_on_c, 0, 59, 50
1, 37248, Note_on_c, 0, 54, 50
1, 37440, Note_off_c, 0, 54, 0
1, 37440, Note_off_c, 0, 59, 0
1, 37440, Note_off_c, 0, 62, 0
1, 37632, Note_on_c, 0, 38, 50
1, 37824, Note_off_c, 0, 38, 0
1, 38016, Note_off_c, 0, 66, 0
1, 38016, Note_on_c, 0, 59, 50
1, 38016, Note_on_c, 0, 62, 50
1, 38016, Note_on_c, 0, 54, 50
1, 38016, Note_on_c, 0, 62, 50
1, 38208, Note_off_c, 0, 54, 0
1, 38208, Note_off_c, 0, 62, 0
1, 38208, Note_off_c, 0, 59, 0
1, 38400, Note_off_c, 0, 62, 0
1, 38400, Note_on_c, 0, 37, 50
1, 38400, Note_on_c, 0, 64, 50
1, 38592, Note_off_c, 0, 37, 0
1, 38784, Note_on_c, 0, 61, 50
1, 38784, Note_on_c, 0, 58, 50
1, 38784, Note_on_c, 0, 54, 50
1, 38976, Note_off_c, 0, 54, 0
1, 38976, Note_off_c, 0, 58, 0
1, 38976, Note_off_c, 0, 61, 0
1, 38976, Note_off_c, 0, 64, 0
1, 38976, Note_on_c, 0, 64, 50
1, 39168, Note_off_c, 0, 64, 0
1, 39168, Note_on_c, 0, 42, 50
1, 39168, Note_on_c, 0, 62, 50
1, 39360, Note_off_c, 0, 42, 0
1, 39552, Note_off_c, 0, 62, 0
1, 39552, Note_on_c, 0, 58, 50
1, 39552, Note_on_c, 0, 61, 50
1, 39552, Note_on_c, 0, 54, 50
1, 39552, Note_on_c, 0, 61, 50
1, 39744, Note_off_c, 0, 54, 0
1, 39744, Note_off_c, 0, 61, 0
1, 39744, Note_off_c, 0, 58, 0
1, 39936, Note_off_c, 0, 61, 0
1, 39936, Note_on_c, 0, 47, 50
1, 39936, Note_on_c, 0, 59, 50
1, 40128, Note_off_c, 0, 47, 0
1, 40320, Note_on_c, 0, 42, 50
1, 40512, Note_off_c, 0, 42, 0
1, 40704, Note_on_c, 0, 71, 50
1, 40704, Note_on_c, 0, 38, 50
1, 40896, Note_off_c, 0, 38, 0
1, 40896, Note_off_c, 0, 71, 0
1, 40896, Note_on_c, 0, 73, 50
1, 41088, Note_off_c, 0, 73, 0
1, 41088, Note_on_c, 0, 74, 50
1, 41088, Note_on_c, 0, 37, 50
1, 41280, Note_off_c, 0, 37, 0
1, 41280, Note_off_c, 0, 74, 0
1, 41280, Note_on_c, 0, 76, 50
1, 41472, Note_off_c, 0, 76, 0
1, 41472, Note_off_c, 0, 59, 0
1, 41472, Note_on_c, 0, 47, 50
1, 41472, Note_on_c, 0, 66, 50
1, 41472, Note_on_c, 0, 78, 50
1, 41664, Note_off_c, 0, 47, 0
1, 41856, Note_on_c, 0, 71, 50
1, 41856, Note_on_c, 0, 54, 50
1, 41856, Note_on_c, 0, 59, 50
1, 41856, Note_on_c, 0, 62, 50
1, 41952, Note_off_c, 0, 71, 0
1, 42048, Note_off_c, 0, 62, 0
1, 42048, Note_off_c, 0, 59, 0
1, 42048, Note_off_c, 0, 54, 0
1, 42240, Note_off_c, 0, 78, 0
1, 42240, Note_off_c, 0, 66, 0
1, 42240, Note_on_c, 0, 42, 50
1, 42240, Note_on_c, 0, 62, 50
1, 42240, Note_on_c, 0, 50, 50
1, 42240, Note_on_c, 0, 83, 50
1, 42432, Note_off_c, 0, 42, 0
1, 42624, Note_off_c, 0, 50, 0
1, 42624, Note_off_c, 0, 62, 0
1, 42624, Note_on_c, 0, 71, 50
1, 42624, Note_on_c, 0, 54, 50
1, 42624, Note_on_c, 0, 59, 50
1, 42624, Note_on_c, 0, 62, 50
1, 42624, Note_on_c, 0, 71, 50
1, 42624, Note_on_c, 0, 64, 50
1, 42624, Note_on_c, 0, 52, 50
1, 42720, Note_off_c, 0, 71, 0
1, 42816, Note_off_c, 0, 62, 0
1, 42816, Note_off_c, 0, 59, 0
1, 42816, Note_off_c, 0, 54, 0
1, 43008, Note_off_c, 0, 52, 0
1, 43008, Note_off_c, 0, 64, 0
1, 43008, Note_off_c, 0, 71, 0
1, 43008, Note_off_c, 0, 83, 0
1, 43008, Note_on_c, 0, 38, 50
1, 43008, Note_on_c, 0, 66, 50
1, 43008, Note_on_c, 0, 81, 50
1, 43200, Note_off_c, 0, 38, 0
1, 43392, Note_on_c, 0, 69, 50
1, 43392, Note_on_c, 0, 54, 50
1, 43392, Note_on_c, 0, 57, 50
1, 43392, Note_on_c, 0, 62, 50
1, 43392, Note_on_c, 0, 69, 50
1, 43392, Note_on_c, 0, 54, 50
1, 43488, Note_off_c, 0, 69, 0
1, 43584, Note_off_c, 0, 62, 0
1, 43584, Note_off_c, 0, 57, 0
1, 43584, Note_off_c, 0, 54, 0
1, 43776, Note_off_c, 0, 54, 0
1, 43776, Note_off_c, 0, 69, 0
1, 43776, Note_off_c, 0, 81, 0
1, 43776, Note_off_c, 0, 66, 0
1, 43776, Note_on_c, 0, 71, 50
1, 43776, Note_on_c, 0, 83, 50
1, 43776, Note_on_c, 0, 39, 50
1, 43776, Note_on_c, 0, 55, 50
1, 43776, Note_on_c, 0, 67, 50
1, 43872, Note_off_c, 0, 83, 0
1, 43872, Note_off_c, 0, 71, 0
1, 43968, Note_off_c, 0, 39, 0
1, 44160, Note_off_c, 0, 67, 0
1, 44160, Note_off_c, 0, 55, 0
1, 44160, Note_on_c, 0, 69, 50
1, 44160, Note_on_c, 0, 81, 50
1, 44160, Note_on_c, 0, 57, 50
1, 44160, Note_on_c, 0, 54, 50
1, 44160, Note_on_c, 0, 60, 50
1, 44160, Note_on_c, 0, 57, 50
1, 44160, Note_on_c, 0, 69, 50
1, 44256, Note_off_c, 0, 57, 0
1, 44256, Note_off_c, 0, 81, 0
1, 44256, Note_off_c, 0, 69, 0
1, 44352, Note_off_c, 0, 60, 0
1, 44352, Note_off_c, 0, 54, 0
1, 44544, Note_off_c, 0, 69, 0
1, 44544, Note_off_c, 0, 57, 0
1, 44544, Note_on_c, 0, 40, 50
1, 44544, Note_on_c, 0, 79, 50
1, 44544, Note_on_c, 0, 67, 50
1, 44736, Note_off_c, 0, 40, 0
1, 44928, Note_on_c, 0, 71, 50
1, 44928, Note_on_c, 0, 76, 50
1, 44928, Note_on_c, 0, 55, 50
1, 44928, Note_on_c, 0, 59, 50
1, 44928, Note_on_c, 0, 64, 50
1, 44928, Note_on_c, 0, 71, 50
1, 44928, Note_on_c, 0, 59, 50
1, 45024, Note_off_c, 0, 76, 0
1, 45024, Note_off_c, 0, 71, 0
1, 45120, Note_off_c, 0, 64, 0
1, 45120, Note_off_c, 0, 59, 0
1, 45120, Note_off_c, 0, 55, 0
1, 45120, Note_off_c, 0, 67, 0
1, 45120, Note_off_c, 0, 79, 0
1, 45120, Note_on_c, 0, 79, 50
1, 45120, Note_on_c, 0, 67, 50
1, 45312, Note_off_c, 0, 67, 0
1, 45312, Note_off_c, 0, 79, 0
1, 45312, Note_on_c, 0, 40, 50
1, 45312, Note_on_c, 0, 78, 50
1, 45312, Note_on_c, 0, 66, 50
1, 45504, Note_off_c, 0, 40, 0
1, 45696, Note_off_c, 0, 66, 0
1, 45696, Note_off_c, 0, 78, 0
1, 45696, Note_off_c, 0, 59, 0
1, 45696, Note_off_c, 0, 71, 0
1, 45696, Note_on_c, 0, 71, 50
1, 45696, Note_on_c, 0, 76, 50
1, 45696, Note_on_c, 0, 59, 50
1, 45696, Note_on_c, 0, 64, 50
1, 45696, Note_on_c, 0, 55, 50
1, 45696, Note_on_c, 0, 76, 50
1, 45696, Note_on_c, 0, 73, 50
1, 45696, Note_on_c, 0, 64, 50
1, 45696, Note_on_c, 0, 61, 50
1, 45792, Note_off_c, 0, 76, 0
1, 45792, Note_off_c, 0, 71, 0
1, 45888, Note_off_c, 0, 55, 0
1, 45888, Note_off_c, 0, 64, 0
1, 45888, Note_off_c, 0, 59, 0
1, 46080, Note_off_c, 0, 61, 0
1, 46080, Note_off_c, 0, 64, 0
1, 46080, Note_off_c, 0, 73, 0
1, 46080, Note_off_c, 0, 76, 0
1, 46080, Note_on_c, 0, 35, 50
1, 46080, Note_on_c, 0, 78, 50
1, 46080, Note_on_c, 0, 66, 50
1, 46272, Note_off_c, 0, 35, 0
1, 46464, Note_on_c, 0, 71, 50
1, 46464, Note_on_c, 0, 74, 50
1, 46464, Note_on_c, 0, 54, 50
1, 46464, Note_on_c, 0, 62, 50
1, 46464, Note_on_c, 0, 59, 50
1, 46560, Note_off_c, 0, 74, 0
1, 46560, Note_off_c, 0, 71, 0
1, 46656, Note_off_c, 0, 59, 0
1, 46656, Note_off_c, 0, 62, 0
1, 46656, Note_off_c, 0, 54, 0
1, 46848, Note_off_c, 0, 66, 0
1, 46848, Note_off_c, 0, 78, 0
1, 46848, Note_on_c, 0, 42, 50
1, 47040, Note_off_c, 0, 42, 0
1, 47232, Note_on_c, 0, 74, 50
1, 47232, Note_on_c, 0, 71, 50
1, 47232, Note_on_c, 0, 54, 50
1, 47232, Note_on_c, 0, 62, 50
1, 47232, Note_on_c, 0, 59, 50
1, 47232, Note_on_c, 0, 62, 50
1, 47232, Note_on_c, 0, 74, 50
1, 47232, Note_on_c, 0, 71, 50
1, 47232, Note_on_c, 0, 59, 50
1, 47328, Note_off_c, 0, 71, 0
1, 47328, Note_off_c, 0, 74, 0
1, 47424, Note_off_c, 0, 59, 0
1, 47424, Note_off_c, 0, 62, 0
1, 47424, Note_off_c, 0, 54, 0
1, 47616, Note_off_c, 0, 59, 0
1, 47616, Note_off_c, 0, 71, 0
1, 47616, Note_off_c, 0, 74, 0
1, 47616, Note_off_c, 0, 62, 0
1, 47616, Note_on_c, 0, 40, 50
1, 47808, Note_off_c, 0, 40, 0
1, 48000, Note_on_c, 0, 71, 50
1, 48000, Note_on_c, 0, 76, 50
1, 48000, Note_on_c, 0, 64, 50
1, 48000, Note_on_c, 0, 55, 50
1, 48000, Note_on_c, 0, 59, 50
1, 48000, Note_on_c, 0, 76, 50
1, 48000, Note_on_c, 0, 64, 50
1, 48000, Note_on_c, 0, 67, 50
1, 48000, Note_on_c, 0, 79, 50
1, 48096, Note_off_c, 0, 76, 0
1, 48096, Note_off_c, 0, 71, 0
1, 48192, Note_off_c, 0, 59, 0
1, 48192, Note_off_c, 0, 55, 0
1, 48192, Note_off_c, 0, 64, 0
1, 48384, Note_off_c, 0, 64, 0
1, 48384, Note_off_c, 0, 76, 0
1, 48384, Note_on_c, 0, 40, 50
1, 48576, Note_off_c, 0, 40, 0
1, 48768, Note_off_c, 0, 79, 0
1, 48768, Note_off_c, 0, 67, 0
1, 48768, Note_on_c, 0, 76, 50
1, 48768, Note_on_c, 0, 71, 50
1, 48768, Note_on_c, 0, 59, 50
1, 48768, Note_on_c, 0, 64, 50
1, 48768, Note_on_c, 0, 55, 50
1, 48768, Note_on_c, 0, 76, 50
1, 48768, Note_on_c, 0, 64, 50
1, 48864, Note_off_c, 0, 71, 0
1, 48864, Note_off_c, 0, 76, 0
1, 48960, Note_off_c, 0, 55, 0
1, 48960, Note_off_c, 0, 64, 0
1, 48960, Note_off_c, 0, 59, 0
1, 49152, Note_off_c, 0, 64, 0
1, 49152, Note_off_c, 0, 76, 0
1, 49152, Note_on_c, 0, 35, 50
1, 49152, Note_on_c, 0, 66, 50
1, 49152, Note_on_c, 0, 78, 50
1, 49344, Note_off_c, 0, 35, 0
1, 49536, Note_on_c, 0, 74, 50
1, 49536, Note_on_c, 0, 71, 50
1, 49536, Note_on_c, 0, 59, 50
1, 49536, Note_on_c, 0, 62, 50
1, 49536, Note_on_c, 0, 59, 50
1, 49536, Note_on_c, 0, 71, 50
1, 49632, Note_off_c, 0, 71, 0
1, 49632, Note_off_c, 0, 74, 0
1, 49728, Note_off_c, 0, 62, 0
1, 49728, Note_off_c, 0, 59, 0
1, 49920, Note_on_c, 0, 38, 50
1, 50112, Note_off_c, 0, 38, 0
1, 50304, Note_off_c, 0, 71, 0
1, 50304, Note_off_c, 0, 59, 0
1, 50304, Note_off_c, 0, 78, 0
1, 50304, Note_off_c, 0, 66, 0
1, 50304, Note_on_c, 0, 74, 50
1, 50304, Note_on_c, 0, 71, 50
1, 50304, Note_on_c, 0, 54, 50
1, 50304, Note_on_c, 0, 62, 50
1, 50304, Note_on_c, 0, 59, 50
1, 50304, Note_on_c, 0, 74, 50
1, 50304, Note_on_c, 0, 62, 50
1, 50400, Note_off_c, 0, 71, 0
1, 50400, Note_off_c, 0, 74, 0
1, 50496, Note_off_c, 0, 59, 0
1, 50496, Note_off_c, 0, 62, 0
1, 50496, Note_off_c, 0, 54, 0
1, 50688, Note_off_c, 0, 62, 0
1, 50688, Note_off_c, 0, 74, 0
1, 50688, Note_on_c, 0, 37, 50
1, 50688, Note_on_c, 0, 64, 50
1, 50688, Note_on_c, 0, 76, 50
1, 50880, Note_off_c, 0, 37, 0
1, 51072, Note_on_c, 0, 73, 50
1, 51072, Note_on_c, 0, 70, 50
1, 51072, Note_on_c, 0, 61, 50
1, 51072, Note_on_c, 0, 58, 50
1, 51072, Note_on_c, 0, 54, 50
1, 51072, Note_on_c, 0, 70, 50
1, 51072, Note_on_c, 0, 58, 50
1, 51168, Note_off_c, 0, 70, 0
1, 51168, Note_off_c, 0, 73, 0
1, 51264, Note_off_c, 0, 54, 0
1, 51264, Note_off_c, 0, 58, 0
1, 51264, Note_off_c, 0, 61, 0
1, 51264, Note_off_c, 0, 76, 0
1, 51264, Note_off_c, 0, 64, 0
1, 51264, Note_on_c, 0, 64, 50
1, 51264, Note_on_c, 0, 76, 50
1, 51456, Note_off_c, 0, 76, 0
1, 51456, Note_off_c, 0, 64, 0
1, 51456, Note_on_c, 0, 42, 50
1, 51456, Note_on_c, 0, 74, 50
1, 51456, Note_on_c, 0, 62, 50
1, 51648, Note_off_c, 0, 42, 0
1, 51840, Note_off_c, 0, 62, 0
1, 51840, Note_off_c, 0, 74, 0
1, 51840, Note_off_c, 0, 58, 0
1, 51840, Note_off_c, 0, 70, 0
1, 51840, Note_on_c, 0, 73, 50
1, 51840, Note_on_c, 0, 70, 50
1, 51840, Note_on_c, 0, 61, 50
1, 51840, Note_on_c, 0, 54, 50
1, 51840, Note_on_c, 0, 58, 50
1, 51840, Note_on_c, 0, 73, 50
1, 51840, Note_on_c, 0, 61, 50
1, 51936, Note_off_c, 0, 61, 0
1, 51936, Note_off_c, 0, 70, 0
1, 51936, Note_off_c, 0, 73, 0
1, 52032, Note_off_c, 0, 58, 0
1, 52032, Note_off_c, 0, 54, 0
1, 52224, Note_off_c, 0, 61, 0
1, 52224, Note_off_c, 0, 73, 0
1, 52224, Note_on_c, 0, 47, 50
1, 52224, Note_on_c, 0, 59, 50
1, 52224, Note_on_c, 0, 83, 50
1, 52224, Note_on_c, 0, 66, 50
1, 52224, Note_on_c, 0, 62, 50
1, 52224, Note_on_c, 0, 71, 50
1, 52416, Note_off_c, 0, 47, 0
1, 52608, Note_on_c, 0, 42, 50
1, 52800, Note_off_c, 0, 42, 0
1, 52992, Note_on_c, 0, 38, 50
1, 53184, Note_off_c, 0, 38, 0
1, 53376, Note_on_c, 0, 37, 50
1, 53568, Note_off_c, 0, 37, 0
1, 53760, Note_off_c, 0, 71, 0
1, 53760, Note_off_c, 0, 62, 0
1, 53760, Note_off_c, 0, 66, 0
1, 53760, Note_off_c, 0, 83, 0
1, 53760, Note_off_c, 0, 59, 0
1, 53760, Note_on_c, 0, 47, 50
1, 53760, Note_on_c, 0, 71, 50
1, 53952, Note_off_c, 0, 47, 0
1, 54144, Note_on_c, 0, 50, 50
1, 54144, Note_on_c, 0, 54, 50
1, 54144, Note_on_c, 0, 59, 50
1, 54144, Note_on_c, 0, 59, 50
1, 54336, Note_off_c, 0, 59, 0
1, 54336, Note_off_c, 0, 54, 0
1, 54336, Note_off_c, 0, 50, 0
1, 54528, Note_on_c, 0, 42, 50
1, 54720, Note_off_c, 0, 42, 0
1, 54912, Note_off_c, 0, 59, 0
1, 54912, Note_on_c, 0, 50, 50
1, 54912, Note_on_c, 0, 54, 50
1, 54912, Note_on_c, 0, 59, 50
1, 54912, Note_on_c, 0, 61, 50
1, 55104, Note_off_c, 0, 59, 0
1, 55104, Note_off_c, 0, 54, 0
1, 55104, Note_off_c, 0, 50, 0
1, 55296, Note_off_c, 0, 61, 0
1, 55296, Note_on_c, 0, 47, 50
1, 55296, Note_on_c, 0, 62, 50
1, 55488, Note_off_c, 0, 47, 0
1, 55680, Note_on_c, 0, 59, 50
1, 55680, Note_on_c, 0, 54, 50
1, 55680, Note_on_c, 0, 50, 50
1, 55872, Note_off_c, 0, 50, 0
1, 55872, Note_off_c, 0, 54, 0
1, 55872, Note_off_c, 0, 59, 0
1, 56064, Note_on_c, 0, 42, 50
1, 56256, Note_off_c, 0, 42, 0
1, 56448, Note_off_c, 0, 62, 0
1, 56448, Note_on_c, 0, 50, 50
1, 56448, Note_on_c, 0, 54, 50
1, 56448, Note_on_c, 0, 59, 50
1, 56448, Note_on_c, 0, 59, 50
1, 56640, Note_off_c, 0, 59, 0
1, 56640, Note_off_c, 0, 54, 0
1, 56640, Note_off_c, 0, 50, 0
1, 56832, Note_off_c, 0, 59, 0
1, 56832, Note_on_c, 0, 47, 50
1, 56832, Note_on_c, 0, 62, 50
1, 57024, Note_off_c, 0, 47, 0
1, 57216, Note_off_c, 0, 62, 0
1, 57216, Note_on_c, 0, 50, 50
1, 57216, Note_on_c, 0, 59, 50
1, 57216, Note_on_c, 0, 54, 50
1, 57216, Note_on_c, 0, 62, 50
1, 57408, Note_off_c, 0, 54, 0
1, 57408, Note_off_c, 0, 59, 0
1, 57408, Note_off_c, 0, 50, 0
1, 57600, Note_off_c, 0, 62, 0
1, 57600, Note_off_c, 0, 71, 0
1, 57600, Note_on_c, 0, 49, 50
1, 57600, Note_on_c, 0, 61, 50
1, 57600, Note_on_c, 0, 65, 50
1, 57792, Note_off_c, 0, 49, 0
1, 57984, Note_off_c, 0, 61, 0
1, 57984, Note_on_c, 0, 50, 50
1, 57984, Note_on_c, 0, 59, 50
1, 57984, Note_on_c, 0, 54, 50
1, 57984, Note_on_c, 0, 59, 50
1, 58176, Note_off_c, 0, 54, 0
1, 58176, Note_off_c, 0, 59, 0
1, 58176, Note_off_c, 0, 50, 0
1, 58368, Note_off_c, 0, 59, 0
1, 58368, Note_off_c, 0, 65, 0
1, 58368, Note_on_c, 0, 42, 50
1, 58368, Note_on_c, 0, 61, 50
1, 58368, Note_on_c, 0, 66, 50
1, 58560, Note_off_c, 0, 42, 0
1, 58752, Note_on_c, 0, 58, 50
1, 58752, Note_on_c, 0, 54, 50
1, 58752, Note_on_c, 0, 49, 50
1, 58944, Note_off_c, 0, 49, 0
1, 58944, Note_off_c, 0, 54, 0
1, 58944, Note_off_c, 0, 58, 0
1, 59136, Note_off_c, 0, 61, 0
1, 59136, Note_on_c, 0, 49, 50
1, 59328, Note_off_c, 0, 49, 0
1, 59520, Note_on_c, 0, 58, 50
1, 59520, Note_on_c, 0, 54, 50
1, 59520, Note_on_c, 0, 49, 50
1, 59520, Note_on_c, 0, 54, 50
1, 59712, Note_off_c, 0, 49, 0
1, 59712, Note_off_c, 0, 54, 0
1, 59712, Note_off_c, 0, 58, 0
1, 59904, Note_off_c, 0, 54, 0
1, 59904, Note_off_c, 0, 66, 0
1, 59904, Note_on_c, 0, 42, 50
1, 59904, Note_on_c, 0, 61, 50
1, 59904, Note_on_c, 0, 66, 50
1, 60096, Note_off_c, 0, 42, 0
1, 60288, Note_on_c, 0, 58, 50
1, 60288, Note_on_c, 0, 54, 50
1, 60288, Note_on_c, 0, 49, 50
1, 60480, Note_off_c, 0, 49, 0
1, 60480, Note_off_c, 0, 54, 0
1, 60480, Note_off_c, 0, 58, 0
1, 60672, Note_on_c, 0, 37, 50
1, 60864, Note_off_c, 0, 37, 0
1, 61056, Note_off_c, 0, 61, 0
1, 61056, Note_on_c, 0, 49, 50
1, 61056, Note_on_c, 0, 54, 50
1, 61056, Note_on_c, 0, 58, 50
1, 61056, Note_on_c, 0, 62, 50
1, 61248, Note_off_c, 0, 58, 0
1, 61248, Note_off_c, 0, 54, 0
1, 61248, Note_off_c, 0, 49, 0
1, 61440, Note_off_c, 0, 62, 0
1, 61440, Note_on_c, 0, 42, 50
1, 61440, Note_on_c, 0, 64, 50
1, 61632, Note_off_c, 0, 42, 0
1, 61824, Note_on_c, 0, 58, 50
1, 61824, Note_on_c, 0, 54, 50
1, 61824, Note_on_c, 0, 49, 50
1, 62016, Note_off_c, 0, 49, 0
1, 62016, Note_off_c, 0, 54, 0
1, 62016, Note_off_c, 0, 58, 0
1, 62208, Note_on_c, 0, 37, 50
1, 62400, Note_off_c, 0, 37, 0
1, 62592, Note_off_c, 0, 64, 0
1, 62592, Note_on_c, 0, 49, 50
1, 62592, Note_on_c, 0, 54, 50
1, 62592, Note_on_c, 0, 58, 50
1, 62592, Note_on_c, 0, 61, 50
1, 62784, Note_off_c, 0, 58, 0
1, 62784, Note_off_c, 0, 54, 0
1, 62784, Note_off_c, 0, 49, 0
1, 62976, Note_off_c, 0, 61, 0
1, 62976, Note_on_c, 0, 42, 50
1, 62976, Note_on_c, 0, 64, 50
1, 63168, Note_off_c, 0, 42, 0
1, 63360, Note_off_c, 0, 64, 0
1, 63360, Note_on_c, 0, 49, 50
1, 63360, Note_on_c, 0, 58, 50
1, 63360, Note_on_c, 0, 54, 50
1, 63360, Note_on_c, 0, 64, 50
1, 63552, Note_off_c, 0, 54, 0
1, 63552, Note_off_c, 0, 58, 0
1, 63552, Note_off_c, 0, 49, 0
1, 63744, Note_off_c, 0, 64, 0
1, 63744, Note_off_c, 0, 66, 0
1, 63744, Note_on_c, 0, 42, 50
1, 63744, Note_on_c, 0, 62, 50
1, 63744, Note_on_c, 0, 70, 50
1, 63936, Note_off_c, 0, 42, 0
1, 64128, Note_off_c, 0, 62, 0
1, 64128, Note_on_c, 0, 46, 50
1, 64128, Note_on_c, 0, 61, 50
1, 64320, Note_off_c, 0, 46, 0
1, 64512, Note_off_c, 0, 61, 0
1, 64512, Note_off_c, 0, 70, 0
1, 64512, Note_on_c, 0, 47, 50
1, 64512, Note_on_c, 0, 71, 50
1, 64704, Note_off_c, 0, 47, 0
1, 64896, Note_on_c, 0, 59, 50
1, 64896, Note_on_c, 0, 50, 50
1, 64896, Note_on_c, 0, 54, 50
1, 65088, Note_off_c, 0, 54, 0
1, 65088, Note_off_c, 0, 50, 0
1, 65088, Note_off_c, 0, 59, 0
1, 65280, Note_on_c, 0, 42, 50
1, 65472, Note_off_c, 0, 42, 0
1, 65664, Note_on_c, 0, 59, 50
1, 65664, Note_on_c, 0, 54, 50
1, 65664, Note_on_c, 0, 50, 50
1, 65664, Note_on_c, 0, 59, 50
1, 65856, Note_off_c, 0, 50, 0
1, 65856, Note_off_c, 0, 54, 0
1, 65856, Note_off_c, 0, 59, 0
1, 66048, Note_off_c, 0, 59, 0
1, 66048, Note_off_c, 0, 71, 0
1, 66048, Note_on_c, 0, 47, 50
1, 66048, Note_on_c, 0, 66, 50
1, 66240, Note_off_c, 0, 47, 0
1, 66432, Note_on_c, 0, 62, 50
1, 66432, Note_on_c, 0, 59, 50
1, 66432, Note_on_c, 0, 54, 50
1, 66624, Note_off_c, 0, 54, 0
1, 66624, Note_off_c, 0, 59, 0
1, 66624, Note_off_c, 0, 62, 0
1, 66816, Note_off_c, 0, 66, 0
1, 66816, Note_on_c, 0, 42, 50
1, 66816, Note_on_c, 0, 71, 50
1, 67008, Note_off_c, 0, 42, 0
1, 67200, Note_on_c, 0, 62, 50
1, 67200, Note_on_c, 0, 59, 50
1, 67200, Note_on_c, 0, 54, 50
1, 67392, Note_off_c, 0, 54, 0
1, 67392, Note_off_c, 0, 59, 0
1, 67392, Note_off_c, 0, 62, 0
1, 67584, Note_off_c, 0, 71, 0
1, 67584, Note_on_c, 0, 38, 50
1, 67584, Note_on_c, 0, 69, 50
1, 67776, Note_off_c, 0, 38, 0
1, 67968, Note_on_c, 0, 62, 50
1, 67968, Note_on_c, 0, 57, 50
1, 67968, Note_on_c, 0, 54, 50
1, 68160, Note_off_c, 0, 54, 0
1, 68160, Note_off_c, 0, 57, 0
1, 68160, Note_off_c, 0, 62, 0
1, 68352, Note_off_c, 0, 69, 0
1, 68352, Note_on_c, 0, 71, 50
1, 68352, Note_on_c, 0, 39, 50
1, 68448, Note_off_c, 0, 71, 0
1, 68544, Note_off_c, 0, 39, 0
1, 68736, Note_on_c, 0, 69, 50
1, 68736, Note_on_c, 0, 60, 50
1, 68736, Note_on_c, 0, 57, 50
1, 68736, Note_on_c, 0, 54, 50
1, 68832, Note_off_c, 0, 69, 0
1, 68928, Note_off_c, 0, 54, 0
1, 68928, Note_off_c, 0, 57, 0
1, 68928, Note_off_c, 0, 60, 0
1, 69120, Note_on_c, 0, 40, 50
1, 69120, Note_on_c, 0, 67, 50
1, 69312, Note_off_c, 0, 40, 0
1, 69504, Note_on_c, 0, 55, 50
1, 69504, Note_on_c, 0, 59, 50
1, 69504, Note_on_c, 0, 64, 50
1, 69696, Note_off_c, 0, 64, 0
1, 69696, Note_off_c, 0, 59, 0
1, 69696, Note_off_c, 0, 55, 0
1, 69696, Note_off_c, 0, 67, 0
1, 69696, Note_on_c, 0, 67, 50
1, 69888, Note_off_c, 0, 67, 0
1, 69888, Note_on_c, 0, 40, 50
1, 69888, Note_on_c, 0, 66, 50
1, 70080, Note_off_c, 0, 40, 0
1, 70272, Note_off_c, 0, 66, 0
1, 70272, Note_on_c, 0, 64, 50
1, 70272, Note_on_c, 0, 59, 50
1, 70272, Note_on_c, 0, 55, 50
1, 70272, Note_on_c, 0, 64, 50
1, 70464, Note_off_c, 0, 55, 0
1, 70464, Note_off_c, 0, 59, 0
1, 70464, Note_off_c, 0, 64, 0
1, 70656, Note_off_c, 0, 64, 0
1, 70656, Note_on_c, 0, 35, 50
1, 70656, Note_on_c, 0, 66, 50
1, 70848, Note_off_c, 0, 35, 0
1, 71040, Note_on_c, 0, 62, 50
1, 71040, Note_on_c, 0, 59, 50
1, 71040, Note_on_c, 0, 54, 50
1, 71232, Note_off_c, 0, 54, 0
1, 71232, Note_off_c, 0, 59, 0
1, 71232, Note_off_c, 0, 62, 0
1, 71424, Note_off_c, 0, 66, 0
1, 71424, Note_on_c, 0, 42, 50
1, 71616, Note_off_c, 0, 42, 0
1, 71808, Note_on_c, 0, 62, 50
1, 71808, Note_on_c, 0, 59, 50
1, 71808, Note_on_c, 0, 54, 50
1, 71808, Note_on_c, 0, 59, 50
1, 72000, Note_off_c, 0, 54, 0
1, 72000, Note_off_c, 0, 59, 0
1, 72000, Note_off_c, 0, 62, 0
1, 72192, Note_off_c, 0, 59, 0
1, 72192, Note_on_c, 0, 40, 50
1, 72384, Note_off_c, 0, 40, 0
1, 72576, Note_on_c, 0, 55, 50
1, 72576, Note_on_c, 0, 59, 50
1, 72576, Note_on_c, 0, 64, 50
1, 72576, Note_on_c, 0, 67, 50
1, 72768, Note_off_c, 0, 64, 0
1, 72768, Note_off_c, 0, 59, 0
1, 72768, Note_off_c, 0, 55, 0
1, 72960, Note_on_c, 0, 40, 50
1, 73152, Note_off_c, 0, 40, 0
1, 73344, Note_off_c, 0, 67, 0
1, 73344, Note_on_c, 0, 64, 50
1, 73344, Note_on_c, 0, 55, 50
1, 73344, Note_on_c, 0, 59, 50
1, 73344, Note_on_c, 0, 64, 50
1, 73536, Note_off_c, 0, 59, 0
1, 73536, Note_off_c, 0, 55, 0
1, 73536, Note_off_c, 0, 64, 0
1, 73728, Note_off_c, 0, 64, 0
1, 73728, Note_on_c, 0, 35, 50
1, 73728, Note_on_c, 0, 66, 50
1, 73920, Note_off_c, 0, 35, 0
1, 74112, Note_on_c, 0, 62, 50
1, 74112, Note_on_c, 0, 59, 50
1, 74112, Note_on_c, 0, 54, 50
1, 74304, Note_off_c, 0, 54, 0
1, 74304, Note_off_c, 0, 59, 0
1, 74304, Note_off_c, 0, 62, 0
1, 74496, Note_on_c, 0, 38, 50
1, 74688, Note_off_c, 0, 38, 0
1, 74880, Note_off_c, 0, 66, 0
1, 74880, Note_on_c, 0, 59, 50
1, 74880, Note_on_c, 0, 54, 50
1, 74880, Note_on_c, 0, 62, 50
1, 74880, Note_on_c, 0, 62, 50
1, 75072, Note_off_c, 0, 62, 0
1, 75072, Note_off_c, 0, 54, 0
1, 75072, Note_off_c, 0, 59, 0
1, 75264, Note_off_c, 0, 62, 0
1, 75264, Note_on_c, 0, 37, 50
1, 75264, Note_on_c, 0, 64, 50
1, 75456, Note_off_c, 0, 37, 0
1, 75648, Note_on_c, 0, 54, 50
1, 75648, Note_on_c, 0, 58, 50
1, 75648, Note_on_c, 0, 61, 50
1, 75840, Note_off_c, 0, 61, 0
1, 75840, Note_off_c, 0, 58, 0
1, 75840, Note_off_c, 0, 54, 0
1, 75840, Note_off_c, 0, 64, 0
1, 75840, Note_on_c, 0, 64, 50
1, 76032, Note_off_c, 0, 64, 0
1, 76032, Note_on_c, 0, 42, 50
1, 76032, Note_on_c, 0, 62, 50
1, 76224, Note_off_c, 0, 42, 0
1, 76416, Note_off_c, 0, 62, 0
1, 76416, Note_on_c, 0, 54, 50
1, 76416, Note_on_c, 0, 61, 50
1, 76416, Note_on_c, 0, 58, 50
1, 76416, Note_on_c, 0, 61, 50
1, 76608, Note_off_c, 0, 58, 0
1, 76608, Note_off_c, 0, 61, 0
1, 76608, Note_off_c, 0, 54, 0
1, 76800, Note_off_c, 0, 61, 0
1, 76800, Note_on_c, 0, 47, 50
1, 76800, Note_on_c, 0, 59, 50
1, 76992, Note_off_c, 0, 47, 0
1, 77184, Note_on_c, 0, 42, 50
1, 77376, Note_off_c, 0, 42, 0
1, 77568, Note_on_c, 0, 38, 50
1, 77568, Note_on_c, 0, 71, 50
1, 77760, Note_off_c, 0, 71, 0
1, 77760, Note_off_c, 0, 38, 0
1, 77760, Note_on_c, 0, 73, 50
1, 77952, Note_off_c, 0, 73, 0
1, 77952, Note_on_c, 0, 37, 50
1, 77952, Note_on_c, 0, 74, 50
1, 78144, Note_off_c, 0, 74, 0
1, 78144, Note_off_c, 0, 37, 0
1, 78144, Note_on_c, 0, 76, 50
1, 78336, Note_off_c, 0, 76, 0
1, 78336, Note_off_c, 0, 59, 0
1, 78336, Note_on_c, 0, 47, 50
1, 78336, Note_on_c, 0, 66, 50
1, 78336, Note_on_c, 0, 78, 50
1, 78528, Note_off_c, 0, 47, 0
1, 78720, Note_on_c, 0, 71, 50
1, 78720, Note_on_c, 0, 62, 50
1, 78720, Note_on_c, 0, 54, 50
1, 78720, Note_on_c, 0, 59, 50
1, 78816, Note_off_c, 0, 71, 0
1, 78912, Note_off_c, 0, 59, 0
1, 78912, Note_off_c, 0, 54, 0
1, 78912, Note_off_c, 0, 62, 0
1, 79104, Note_off_c, 0, 78, 0
1, 79104, Note_off_c, 0, 66, 0
1, 79104, Note_on_c, 0, 42, 50
1, 79104, Note_on_c, 0, 50, 50
1, 79104, Note_on_c, 0, 62, 50
1, 79104, Note_on_c, 0, 83, 50
1, 79296, Note_off_c, 0, 42, 0
1, 79488, Note_off_c, 0, 62, 0
1, 79488, Note_off_c, 0, 50, 0
1, 79488, Note_on_c, 0, 71, 50
1, 79488, Note_on_c, 0, 54, 50
1, 79488, Note_on_c, 0, 59, 50
1, 79488, Note_on_c, 0, 62, 50
1, 79488, Note_on_c, 0, 71, 50
1, 79488, Note_on_c, 0, 64, 50
1, 79488, Note_on_c, 0, 52, 50
1, 79584, Note_off_c, 0, 71, 0
1, 79680, Note_off_c, 0, 62, 0
1, 79680, Note_off_c, 0, 59, 0
1, 79680, Note_off_c, 0, 54, 0
1, 79872, Note_off_c, 0, 52, 0
1, 79872, Note_off_c, 0, 64, 0
1, 79872, Note_off_c, 0, 71, 0
1, 79872, Note_off_c, 0, 83, 0
1, 79872, Note_on_c, 0, 38, 50
1, 79872, Note_on_c, 0, 66, 50
1, 79872, Note_on_c, 0, 81, 50
1, 80064, Note_off_c, 0, 38, 0
1, 80256, Note_on_c, 0, 69, 50
1, 80256, Note_on_c, 0, 54, 50
1, 80256, Note_on_c, 0, 57, 50
1, 80256, Note_on_c, 0, 62, 50
1, 80256, Note_on_c, 0, 69, 50
1, 80256, Note_on_c, 0, 54, 50
1, 80352, Note_off_c, 0, 69, 0
1, 80448, Note_off_c, 0, 62, 0
1, 80448, Note_off_c, 0, 57, 0
1, 80448, Note_off_c, 0, 54, 0
1, 80640, Note_off_c, 0, 54, 0
1, 80640, Note_off_c, 0, 69, 0
1, 80640, Note_off_c, 0, 81, 0
1, 80640, Note_off_c, 0, 66, 0
1, 80640, Note_on_c, 0, 71, 50
1, 80640, Note_on_c, 0, 83, 50
1, 80640, Note_on_c, 0, 39, 50
1, 80640, Note_on_c, 0, 55, 50
1, 80640, Note_on_c, 0, 67, 50
1, 80736, Note_off_c, 0, 83, 0
1, 80736, Note_off_c, 0, 71, 0
1, 80832, Note_off_c, 0, 39, 0
1, 81024, Note_off_c, 0, 67, 0
1, 81024, Note_off_c, 0, 55, 0
1, 81024, Note_on_c, 0, 57, 50
1, 81024, Note_on_c, 0, 81, 50
1, 81024, Note_on_c, 0, 69, 50
1, 81024, Note_on_c, 0, 54, 50
1, 81024, Note_on_c, 0, 60, 50
1, 81024, Note_on_c, 0, 69, 50
1, 81024, Note_on_c, 0, 57, 50
1, 81120, Note_off_c, 0, 69, 0
1, 81120, Note_off_c, 0, 81, 0
1, 81120, Note_off_c, 0, 57, 0
1, 81216, Note_off_c, 0, 60, 0
1, 81216, Note_off_c, 0, 54, 0
1, 81408, Note_off_c, 0, 57, 0
1, 81408, Note_off_c, 0, 69, 0
1, 81408, Note_on_c, 0, 40, 50
1, 81408, Note_on_c, 0, 67, 50
1, 81408, Note_on_c, 0, 79, 50
1, 81600, Note_off_c, 0, 40, 0
1, 81792, Note_on_c, 0, 71, 50
1, 81792, Note_on_c, 0, 76, 50
1, 81792, Note_on_c, 0, 55, 50
1, 81792, Note_on_c, 0, 59, 50
1, 81792, Note_on_c, 0, 64, 50
1, 81792, Note_on_c, 0, 71, 50
1, 81792, Note_on_c, 0, 59, 50
1, 81888, Note_off_c, 0, 76, 0
1, 81888, Note_off_c, 0, 71, 0
1, 81984, Note_off_c, 0, 64, 0
1, 81984, Note_off_c, 0, 59, 0
1, 81984, Note_off_c, 0, 55, 0
1, 81984, Note_off_c, 0, 79, 0
1, 81984, Note_off_c, 0, 67, 0
1, 81984, Note_on_c, 0, 79, 50
1, 81984, Note_on_c, 0, 67, 50
1, 82176, Note_off_c, 0, 67, 0
1, 82176, Note_off_c, 0, 79, 0
1, 82176, Note_on_c, 0, 40, 50
1, 82176, Note_on_c, 0, 78, 50
1, 82176, Note_on_c, 0, 66, 50
1, 82368, Note_off_c, 0, 40, 0
1, 82560, Note_off_c, 0, 66, 0
1, 82560, Note_off_c, 0, 78, 0
1, 82560, Note_off_c, 0, 59, 0
1, 82560, Note_off_c, 0, 71, 0
1, 82560, Note_on_c, 0, 71, 50
1, 82560, Note_on_c, 0, 76, 50
1, 82560, Note_on_c, 0, 59, 50
1, 82560, Note_on_c, 0, 64, 50
1, 82560, Note_on_c, 0, 55, 50
1, 82560, Note_on_c, 0, 76, 50
1, 82560, Note_on_c, 0, 73, 50
1, 82560, Note_on_c, 0, 64, 50
1, 82560, Note_on_c, 0, 61, 50
1, 82656, Note_off_c, 0, 76, 0
1, 82656, Note_off_c, 0, 71, 0
1, 82752, Note_off_c, 0, 55, 0
1, 82752, Note_off_c, 0, 64, 0
1, 82752, Note_off_c, 0, 59, 0
1, 82944, Note_off_c, 0, 61, 0
1, 82944, Note_off_c, 0, 64, 0
1, 82944, Note_off_c, 0, 73, 0
1, 82944, Note_off_c, 0, 76, 0
1, 82944, Note_on_c, 0, 35, 50
1, 82944, Note_on_c, 0, 78, 50
1, 82944, Note_on_c, 0, 66, 50
1, 83136, Note_off_c, 0, 35, 0
1, 83328, Note_on_c, 0, 74, 50
1, 83328, Note_on_c, 0, 71, 50
1, 83328, Note_on_c, 0, 54, 50
1, 83328, Note_on_c, 0, 62, 50
1, 83328, Note_on_c, 0, 59, 50
1, 83424, Note_off_c, 0, 71, 0
1, 83424, Note_off_c, 0, 74, 0
1, 83520, Note_off_c, 0, 59, 0
1, 83520, Note_off_c, 0, 62, 0
1, 83520, Note_off_c, 0, 54, 0
1, 83712, Note_off_c, 0, 66, 0
1, 83712, Note_off_c, 0, 78, 0
1, 83712, Note_on_c, 0, 42, 50
1, 83904, Note_off_c, 0, 42, 0
1, 84096, Note_on_c, 0, 74, 50
1, 84096, Note_on_c, 0, 71, 50
1, 84096, Note_on_c, 0, 54, 50
1, 84096, Note_on_c, 0, 62, 50
1, 84096, Note_on_c, 0, 59, 50
1, 84096, Note_on_c, 0, 62, 50
1, 84096, Note_on_c, 0, 74, 50
1, 84096, Note_on_c, 0, 71, 50
1, 84096, Note_on_c, 0, 59, 50
1, 84192, Note_off_c, 0, 71, 0
1, 84192, Note_off_c, 0, 74, 0
1, 84288, Note_off_c, 0, 59, 0
1, 84288, Note_off_c, 0, 62, 0
1, 84288, Note_off_c, 0, 54, 0
1, 84480, Note_off_c, 0, 59, 0
1, 84480, Note_off_c, 0, 71, 0
1, 84480, Note_off_c, 0, 74, 0
1, 84480, Note_off_c, 0, 62, 0
1, 84480, Note_on_c, 0, 40, 50
1, 84672, Note_off_c, 0, 40, 0
1, 84864, Note_on_c, 0, 76, 50
1, 84864, Note_on_c, 0, 71, 50
1, 84864, Note_on_c, 0, 64, 50
1, 84864, Note_on_c, 0, 59, 50
1, 84864, Note_on_c, 0, 55, 50
1, 84864, Note_on_c, 0, 64, 50
1, 84864, Note_on_c, 0, 76, 50
1, 84864, Note_on_c, 0, 79, 50
1, 84864, Note_on_c, 0, 67, 50
1, 84960, Note_off_c, 0, 71, 0
1, 84960, Note_off_c, 0, 76, 0
1, 85056, Note_off_c, 0, 55, 0
1, 85056, Note_off_c, 0, 59, 0
1, 85056, Note_off_c, 0, 64, 0
1, 85248, Note_off_c, 0, 76, 0
1, 85248, Note_off_c, 0, 64, 0
1, 85248, Note_on_c, 0, 40, 50
1, 85440, Note_off_c, 0, 40, 0
1, 85632, Note_off_c, 0, 67, 0
1, 85632, Note_off_c, 0, 79, 0
1, 85632, Note_on_c, 0, 76, 50
1, 85632, Note_on_c, 0, 71, 50
1, 85632, Note_on_c, 0, 59, 50
1, 85632, Note_on_c, 0, 64, 50
1, 85632, Note_on_c, 0, 55, 50
1, 85632, Note_on_c, 0, 76, 50
1, 85632, Note_on_c, 0, 64, 50
1, 85728, Note_off_c, 0, 71, 0
1, 85728, Note_off_c, 0, 76, 0
1, 85824, Note_off_c, 0, 55, 0
1, 85824, Note_off_c, 0, 64, 0
1, 85824, Note_off_c, 0, 59, 0
1, 86016, Note_off_c, 0, 64, 0
1, 86016, Note_off_c, 0, 76, 0
1, 86016, Note_on_c, 0, 35, 50
1, 86016, Note_on_c, 0, 66, 50
1, 86016, Note_on_c, 0, 78, 50
1, 86208, Note_off_c, 0, 35, 0
1, 86400, Note_on_c, 0, 71, 50
1, 86400, Note_on_c, 0, 74, 50
1, 86400, Note_on_c, 0, 59, 50
1, 86400, Note_on_c, 0, 62, 50
1, 86400, Note_on_c, 0, 59, 50
1, 86400, Note_on_c, 0, 71, 50
1, 86496, Note_off_c, 0, 74, 0
1, 86496, Note_off_c, 0, 71, 0
1, 86592, Note_off_c, 0, 62, 0
1, 86592, Note_off_c, 0, 59, 0
1, 86784, Note_on_c, 0, 38, 50
1, 86976, Note_off_c, 0, 38, 0
1, 87168, Note_off_c, 0, 71, 0
1, 87168, Note_off_c, 0, 59, 0
1, 87168, Note_off_c, 0, 78, 0
1, 87168, Note_off_c, 0, 66, 0
1, 87168, Note_on_c, 0, 74, 50
1, 87168, Note_on_c, 0, 71, 50
1, 87168, Note_on_c, 0, 54, 50
1, 87168, Note_on_c, 0, 62, 50
1, 87168, Note_on_c, 0, 59, 50
1, 87168, Note_on_c, 0, 74, 50
1, 87168, Note_on_c, 0, 62, 50
1, 87264, Note_off_c, 0, 71, 0
1, 87264, Note_off_c, 0, 74, 0
1, 87360, Note_off_c, 0, 59, 0
1, 87360, Note_off_c, 0, 62, 0
1, 87360, Note_off_c, 0, 54, 0
1, 87552, Note_off_c, 0, 62, 0
1, 87552, Note_off_c, 0, 74, 0
1, 87552, Note_on_c, 0, 37, 50
1, 87552, Note_on_c, 0, 64, 50
1, 87552, Note_on_c, 0, 76, 50
1, 87744, Note_off_c, 0, 37, 0
1, 87936, Note_on_c, 0, 70, 50
1, 87936, Note_on_c, 0, 73, 50
1, 87936, Note_on_c, 0, 61, 50
1, 87936, Note_on_c, 0, 58, 50
1, 87936, Note_on_c, 0, 54, 50
1, 87936, Note_on_c, 0, 70, 50
1, 87936, Note_on_c, 0, 58, 50
1, 88032, Note_off_c, 0, 73, 0
1, 88032, Note_off_c, 0, 70, 0
1, 88128, Note_off_c, 0, 54, 0
1, 88128, Note_off_c, 0, 58, 0
1, 88128, Note_off_c, 0, 61, 0
1, 88128, Note_off_c, 0, 76, 0
1, 88128, Note_off_c, 0, 64, 0
1, 88128, Note_on_c, 0, 76, 50
1, 88128, Note_on_c, 0, 64, 50
1, 88320, Note_off_c, 0, 64, 0
1, 88320, Note_off_c, 0, 76, 0
1, 88320, Note_on_c, 0, 42, 50
1, 88320, Note_on_c, 0, 74, 50
1, 88320, Note_on_c, 0, 62, 50
1, 88512, Note_off_c, 0, 42, 0
1, 88704, Note_off_c, 0, 62, 0
1, 88704, Note_off_c, 0, 74, 0
1, 88704, Note_off_c, 0, 58, 0
1, 88704, Note_off_c, 0, 70, 0
1, 88704, Note_on_c, 0, 73, 50
1, 88704, Note_on_c, 0, 70, 50
1, 88704, Note_on_c, 0, 61, 50
1, 88704, Note_on_c, 0, 54, 50
1, 88704, Note_on_c, 0, 58, 50
1, 88704, Note_on_c, 0, 73, 50
1, 88704, Note_on_c, 0, 61, 50
1, 88800, Note_off_c, 0, 61, 0
1, 88800, Note_off_c, 0, 70, 0
1, 88800, Note_off_c, 0, 73, 0
1, 88896, Note_off_c, 0, 58, 0
1, 88896, Note_off_c, 0, 54, 0
1, 89088, Note_off_c, 0, 61, 0
1, 89088, Note_off_c, 0, 73, 0
1, 89088, Note_on_c, 0, 47, 50
1, 89088, Note_on_c, 0, 59, 50
1, 89088, Note_on_c, 0, 83, 50
1, 89088, Note_on_c, 0, 66, 50
1, 89088, Note_on_c, 0, 62, 50
1, 89088, Note_on_c, 0, 71, 50
1, 89280, Note_off_c, 0, 47, 0
1, 89472, Note_on_c, 0, 42, 50
1, 89664, Note_off_c, 0, 42, 0
1, 89856, Note_on_c, 0, 38, 50
1, 90048, Note_off_c, 0, 38, 0
1, 90240, Note_on_c, 0, 37, 50
1, 90432, Note_off_c, 0, 37, 0
1, 90624, Note_off_c, 0, 71, 0
1, 90624, Note_off_c, 0, 62, 0
1, 90624, Note_off_c, 0, 66, 0
1, 90624, Note_off_c, 0, 83, 0
1, 90624, Note_off_c, 0, 59, 0
1, 90624, Note_on_c, 0, 47, 50
1, 90624, Note_on_c, 0, 71, 50
1, 90816, Note_off_c, 0, 47, 0
1, 91008, Note_on_c, 0, 59, 50
1, 91008, Note_on_c, 0, 54, 50
1, 91008, Note_on_c, 0, 50, 50
1, 91008, Note_on_c, 0, 59, 50
1, 91200, Note_off_c, 0, 50, 0
1, 91200, Note_off_c, 0, 54, 0
1, 91200, Note_off_c, 0, 59, 0
1, 91392, Note_on_c, 0, 42, 50
1, 91584, Note_off_c, 0, 42, 0
1, 91776, Note_off_c, 0, 59, 0
1, 91776, Note_on_c, 0, 50, 50
1, 91776, Note_on_c, 0, 59, 50
1, 91776, Note_on_c, 0, 54, 50
1, 91776, Note_on_c, 0, 61, 50
1, 91968, Note_off_c, 0, 54, 0
1, 91968, Note_off_c, 0, 59, 0
1, 91968, Note_off_c, 0, 50, 0
1, 92160, Note_off_c, 0, 61, 0
1, 92160, Note_on_c, 0, 47, 50
1, 92160, Note_on_c, 0, 62, 50
1, 92352, Note_off_c, 0, 47, 0
1, 92544, Note_on_c, 0, 59, 50
1, 92544, Note_on_c, 0, 54, 50
1, 92544, Note_on_c, 0, 50, 50
1, 92736, Note_off_c, 0, 50, 0
1, 92736, Note_off_c, 0, 54, 0
1, 92736, Note_off_c, 0, 59, 0
1, 92928, Note_on_c, 0, 42, 50
1, 93120, Note_off_c, 0, 42, 0
1, 93312, Note_off_c, 0, 62, 0
1, 93312, Note_on_c, 0, 50, 50
1, 93312, Note_on_c, 0, 59, 50
1, 93312, Note_on_c, 0, 54, 50
1, 93312, Note_on_c, 0, 59, 50
1, 93504, Note_off_c, 0, 54, 0
1, 93504, Note_off_c, 0, 59, 0
1, 93504, Note_off_c, 0, 50, 0
1, 93696, Note_off_c, 0, 59, 0
1, 93696, Note_on_c, 0, 47, 50
1, 93696, Note_on_c, 0, 62, 50
1, 93888, Note_off_c, 0, 47, 0
1, 94080, Note_off_c, 0, 62, 0
1, 94080, Note_on_c, 0, 50, 50
1, 94080, Note_on_c, 0, 59, 50
1, 94080, Note_on_c, 0, 54, 50
1, 94080, Note_on_c, 0, 62, 50
1, 94272, Note_off_c, 0, 54, 0
1, 94272, Note_off_c, 0, 59, 0
1, 94272, Note_off_c, 0, 50, 0
1, 94464, Note_off_c, 0, 62, 0
1, 94464, Note_off_c, 0, 71, 0
1, 94464, Note_on_c, 0, 49, 50
1, 94464, Note_on_c, 0, 61, 50
1, 94464, Note_on_c, 0, 65, 50
1, 94656, Note_off_c, 0, 49, 0
1, 94848, Note_off_c, 0, 61, 0
1, 94848, Note_on_c, 0, 50, 50
1, 94848, Note_on_c, 0, 54, 50
1, 94848, Note_on_c, 0, 59, 50
1, 94848, Note_on_c, 0, 59, 50
1, 95040, Note_off_c, 0, 59, 0
1, 95040, Note_off_c, 0, 54, 0
1, 95040, Note_off_c, 0, 50, 0
1, 95232, Note_off_c, 0, 59, 0
1, 95232, Note_off_c, 0, 65, 0
1, 95232, Note_on_c, 0, 42, 50
1, 95232, Note_on_c, 0, 61, 50
1, 95232, Note_on_c, 0, 66, 50
1, 95424, Note_off_c, 0, 42, 0
1, 95616, Note_on_c, 0, 58, 50
1, 95616, Note_on_c, 0, 54, 50
1, 95616, Note_on_c, 0, 49, 50
1, 95808, Note_off_c, 0, 49, 0
1, 95808, Note_off_c, 0, 54, 0
1, 95808, Note_off_c, 0, 58, 0
1, 96000, Note_off_c, 0, 61, 0
1, 96000, Note_on_c, 0, 49, 50
1, 96192, Note_off_c, 0, 49, 0
1, 96384, Note_on_c, 0, 49, 50
1, 96384, Note_on_c, 0, 54, 50
1, 96384, Note_on_c, 0, 58, 50
1, 96384, Note_on_c, 0, 54, 50
1, 96576, Note_off_c, 0, 58, 0
1, 96576, Note_off_c, 0, 54, 0
1, 96576, Note_off_c, 0, 49, 0
1, 96768, Note_off_c, 0, 54, 0
1, 96768, Note_off_c, 0, 66, 0
1, 96768, Note_on_c, 0, 42, 50
1, 96768, Note_on_c, 0, 61, 50
1, 96768, Note_on_c, 0, 66, 50
1, 96960, Note_off_c, 0, 42, 0
1, 97152, Note_on_c, 0, 58, 50
1, 97152, Note_on_c, 0, 54, 50
1, 97152, Note_on_c, 0, 49, 50
1, 97344, Note_off_c, 0, 49, 0
1, 97344, Note_off_c, 0, 54, 0
1, 97344, Note_off_c, 0, 58, 0
1, 97536, Note_on_c, 0, 37, 50
1, 97728, Note_off_c, 0, 37, 0
1, 97920, Note_off_c, 0, 61, 0
1, 97920, Note_on_c, 0, 49, 50
1, 97920, Note_on_c, 0, 58, 50
1, 97920, Note_on_c, 0, 54, 50
1, 97920, Note_on_c, 0, 62, 50
1, 98112, Note_off_c, 0, 54, 0
1, 98112, Note_off_c, 0, 58, 0
1, 98112, Note_off_c, 0, 49, 0
1, 98304, Note_off_c, 0, 62, 0
1, 98304, Note_on_c, 0, 42, 50
1, 98304, Note_on_c, 0, 64, 50
1, 98496, Note_off_c, 0, 42, 0
1, 98688, Note_on_c, 0, 58, 50
1, 98688, Note_on_c, 0, 54, 50
1, 98688, Note_on_c, 0, 49, 50
1, 98880, Note_off_c, 0, 49, 0
1, 98880, Note_off_c, 0, 54, 0
1, 98880, Note_off_c, 0, 58, 0
1, 99072, Note_on_c, 0, 37, 50
1, 99264, Note_off_c, 0, 37, 0
1, 99456, Note_off_c, 0, 64, 0
1, 99456, Note_on_c, 0, 49, 50
1, 99456, Note_on_c, 0, 58, 50
1, 99456, Note_on_c, 0, 54, 50
1, 99456, Note_on_c, 0, 61, 50
1, 99648, Note_off_c, 0, 54, 0
1, 99648, Note_off_c, 0, 58, 0
1, 99648, Note_off_c, 0, 49, 0
1, 99840, Note_off_c, 0, 61, 0
1, 99840, Note_on_c, 0, 42, 50
1, 99840, Note_on_c, 0, 64, 50
1, 100032, Note_off_c, 0, 42, 0
1, 100224, Note_off_c, 0, 64, 0
1, 100224, Note_on_c, 0, 49, 50
1, 100224, Note_on_c, 0, 58, 50
1, 100224, Note_on_c, 0, 54, 50
1, 100224, Note_on_c, 0, 64, 50
1, 100416, Note_off_c, 0, 54, 0
1, 100416, Note_off_c, 0, 58, 0
1, 100416, Note_off_c, 0, 49, 0
1, 100608, Note_off_c, 0, 64, 0
1, 100608, Note_off_c, 0, 66, 0
1, 100608, Note_on_c, 0, 42, 50
1, 100608, Note_on_c, 0, 62, 50
1, 100608, Note_on_c, 0, 70, 50
1, 100800, Note_off_c, 0, 42, 0
1, 100992, Note_off_c, 0, 62, 0
1, 100992, Note_on_c, 0, 46, 50
1, 100992, Note_on_c, 0, 61, 50
1, 101184, Note_off_c, 0, 46, 0
1, 101376, Note_off_c, 0, 61, 0
1, 101376, Note_off_c, 0, 70, 0
1, 101376, Note_on_c, 0, 47, 50
1, 101376, Note_on_c, 0, 71, 50
1, 101568, Note_off_c, 0, 47, 0
1, 101760, Note_on_c, 0, 54, 50
1, 101760, Note_on_c, 0, 50, 50
1, 101760, Note_on_c, 0, 59, 50
1, 101952, Note_off_c, 0, 59, 0
1, 101952, Note_off_c, 0, 50, 0
1, 101952, Note_off_c, 0, 54, 0
1, 102144, Note_on_c, 0, 42, 50
1, 102336, Note_off_c, 0, 42, 0
1, 102528, Note_on_c, 0, 50, 50
1, 102528, Note_on_c, 0, 54, 50
1, 102528, Note_on_c, 0, 59, 50
1, 102528, Note_on_c, 0, 59, 50
1, 102720, Note_off_c, 0, 59, 0
1, 102720, Note_off_c, 0, 54, 0
1, 102720, Note_off_c, 0, 50, 0
1, 102912, Note_off_c, 0, 59, 0
1, 102912, Note_off_c, 0, 71, 0
1, 102912, Note_on_c, 0, 47, 50
1, 102912, Note_on_c, 0, 66, 50
1, 103104, Note_off_c, 0, 47, 0
1, 103296, Note_on_c, 0, 54, 50
1, 103296, Note_on_c, 0, 59, 50
1, 103296, Note_on_c, 0, 62, 50
1, 103488, Note_off_c, 0, 62, 0
1, 103488, Note_off_c, 0, 59, 0
1, 103488, Note_off_c, 0, 54, 0
1, 103680, Note_off_c, 0, 66, 0
1, 103680, Note_on_c, 0, 42, 50
1, 103680, Note_on_c, 0, 71, 50
1, 103872, Note_off_c, 0, 42, 0
1, 104064, Note_on_c, 0, 54, 50
1, 104064, Note_on_c, 0, 59, 50
1, 104064, Note_on_c, 0, 62, 50
1, 104256, Note_off_c, 0, 62, 0
1, 104256, Note_off_c, 0, 59, 0
1, 104256, Note_off_c, 0, 54, 0
1, 104448, Note_off_c, 0, 71, 0
1, 104448, Note_on_c, 0, 38, 50
1, 104448, Note_on_c, 0, 69, 50
1, 104640, Note_off_c, 0, 38, 0
1, 104832, Note_on_c, 0, 62, 50
1, 104832, Note_on_c, 0, 57, 50
1, 104832, Note_on_c, 0, 54, 50
1, 105024, Note_off_c, 0, 54, 0
1, 105024, Note_off_c, 0, 57, 0
1, 105024, Note_off_c, 0, 62, 0
1, 105216, Note_off_c, 0, 69, 0
1, 105216, Note_on_c, 0, 71, 50
1, 105216, Note_on_c, 0, 39, 50
1, 105312, Note_off_c, 0, 71, 0
1, 105408, Note_off_c, 0, 39, 0
1, 105600, Note_on_c, 0, 69, 50
1, 105600, Note_on_c, 0, 60, 50
1, 105600, Note_on_c, 0, 57, 50
1, 105600, Note_on_c, 0, 54, 50
1, 105696, Note_off_c, 0, 69, 0
1, 105792, Note_off_c, 0, 54, 0
1, 105792, Note_off_c, 0, 57, 0
1, 105792, Note_off_c, 0, 60, 0
1, 105984, Note_on_c, 0, 40, 50
1, 105984, Note_on_c, 0, 67, 50
1, 106176, Note_off_c, 0, 40, 0
1, 106368, Note_on_c, 0, 64, 50
1, 106368, Note_on_c, 0, 59, 50
1, 106368, Note_on_c, 0, 55, 50
1, 106560, Note_off_c, 0, 55, 0
1, 106560, Note_off_c, 0, 59, 0
1, 106560, Note_off_c, 0, 64, 0
1, 106560, Note_off_c, 0, 67, 0
1, 106560, Note_on_c, 0, 67, 50
1, 106752, Note_off_c, 0, 67, 0
1, 106752, Note_on_c, 0, 40, 50
1, 106752, Note_on_c, 0, 66, 50
1, 106944, Note_off_c, 0, 40, 0
1, 107136, Note_off_c, 0, 66, 0
1, 107136, Note_on_c, 0, 64, 50
1, 107136, Note_on_c, 0, 59, 50
1, 107136, Note_on_c, 0, 55, 50
1, 107136, Note_on_c, 0, 64, 50
1, 107328, Note_off_c, 0, 55, 0
1, 107328, Note_off_c, 0, 59, 0
1, 107328, Note_off_c, 0, 64, 0
1, 107520, Note_off_c, 0, 64, 0
1, 107520, Note_on_c, 0, 35, 50
1, 107520, Note_on_c, 0, 66, 50
1, 107712, Note_off_c, 0, 35, 0
1, 107904, Note_on_c, 0, 54, 50
1, 107904, Note_on_c, 0, 59, 50
1, 107904, Note_on_c, 0, 62, 50
1, 108096, Note_off_c, 0, 62, 0
1, 108096, Note_off_c, 0, 59, 0
1, 108096, Note_off_c, 0, 54, 0
1, 108288, Note_off_c, 0, 66, 0
1, 108288, Note_on_c, 0, 42, 50
1, 108480, Note_off_c, 0, 42, 0
1, 108672, Note_on_c, 0, 54, 50
1, 108672, Note_on_c, 0, 59, 50
1, 108672, Note_on_c, 0, 62, 50
1, 108672, Note_on_c, 0, 59, 50
1, 108864, Note_off_c, 0, 62, 0
1, 108864, Note_off_c, 0, 59, 0
1, 108864, Note_off_c, 0, 54, 0
1, 109056, Note_off_c, 0, 59, 0
1, 109056, Note_on_c, 0, 40, 50
1, 109248, Note_off_c, 0, 40, 0
1, 109440, Note_on_c, 0, 55, 50
1, 109440, Note_on_c, 0, 59, 50
1, 109440, Note_on_c, 0, 64, 50
1, 109440, Note_on_c, 0, 67, 50
1, 109632, Note_off_c, 0, 64, 0
1, 109632, Note_off_c, 0, 59, 0
1, 109632, Note_off_c, 0, 55, 0
1, 109824, Note_on_c, 0, 40, 50
1, 110016, Note_off_c, 0, 40, 0
1, 110208, Note_off_c, 0, 67, 0
1, 110208, Note_on_c, 0, 59, 50
1, 110208, Note_on_c, 0, 55, 50
1, 110208, Note_on_c, 0, 64, 50
1, 110208, Note_on_c, 0, 64, 50
1, 110400, Note_off_c, 0, 64, 0
1, 110400, Note_off_c, 0, 55, 0
1, 110400, Note_off_c, 0, 59, 0
1, 110592, Note_off_c, 0, 64, 0
1, 110592, Note_on_c, 0, 35, 50
1, 110592, Note_on_c, 0, 66, 50
1, 110784, Note_off_c, 0, 35, 0
1, 110976, Note_on_c, 0, 54, 50
1, 110976, Note_on_c, 0, 59, 50
1, 110976, Note_on_c, 0, 62, 50
1, 111168, Note_off_c, 0, 62, 0
1, 111168, Note_off_c, 0, 59, 0
1, 111168, Note_off_c, 0, 54, 0
1, 111360, Note_on_c, 0, 38, 50
1, 111552, Note_off_c, 0, 38, 0
1, 111744, Note_off_c, 0, 66, 0
1, 111744, Note_on_c, 0, 59, 50
1, 111744, Note_on_c, 0, 54, 50
1, 111744, Note_on_c, 0, 62, 50
1, 111744, Note_on_c, 0, 62, 50
1, 111936, Note_off_c, 0, 62, 0
1, 111936, Note_off_c, 0, 54, 0
1, 111936, Note_off_c, 0, 59, 0
1, 112128, Note_off_c, 0, 62, 0
1, 112128, Note_on_c, 0, 37, 50
1, 112128, Note_on_c, 0, 64, 50
1, 112320, Note_off_c, 0, 37, 0
1, 112512, Note_on_c, 0, 61, 50
1, 112512, Note_on_c, 0, 58, 50
1, 112512, Note_on_c, 0, 54, 50
1, 112704, Note_off_c, 0, 54, 0
1, 112704, Note_off_c, 0, 58, 0
1, 112704, Note_off_c, 0, 61, 0
1, 112704, Note_off_c, 0, 64, 0
1, 112704, Note_on_c, 0, 64, 50
1, 112896, Note_off_c, 0, 64, 0
1, 112896, Note_on_c, 0, 42, 50
1, 112896, Note_on_c, 0, 62, 50
1, 113088, Note_off_c, 0, 42, 0
1, 113280, Note_off_c, 0, 62, 0
1, 113280, Note_on_c, 0, 58, 50
1, 113280, Note_on_c, 0, 61, 50
1, 113280, Note_on_c, 0, 54, 50
1, 113280, Note_on_c, 0, 61, 50
1, 113472, Note_off_c, 0, 54, 0
1, 113472, Note_off_c, 0, 61, 0
1, 113472, Note_off_c, 0, 58, 0
1, 113664, Note_off_c, 0, 61, 0
1, 113664, Note_on_c, 0, 86, 50
1, 113664, Note_on_c, 0, 74, 50
1, 113664, Note_on_c, 0, 62, 50
1, 113664, Note_on_c, 0, 66, 50
1, 113664, Note_on_c, 0, 47, 50
1, 113664, Note_on_c, 0, 59, 50
1, 114432, Note_off_c, 0, 74, 0
1, 114432, Note_off_c, 0, 86, 0
1, 114432, Note_on_c, 0, 71, 50
1, 114432, Note_on_c, 0, 83, 50
1, 115200, Note_off_c, 0, 83, 0
1, 115200, Note_off_c, 0, 71, 0
1, 115200, Note_off_c, 0, 59, 0
1, 115200, Note_off_c, 0, 47, 0
1, 115200, Note_off_c, 0, 66, 0
1, 115200, Note_off_c, 0, 62, 0
1, 115200, Note_on_c, 0, 85, 50
1, 115200, Note_on_c, 0, 73, 50
1, 115200, Note_on_c, 0, 66, 50
1, 115200, Note_on_c, 0, 61, 50
1, 115200, Note_on_c, 0, 46, 50
1, 115200, Note_on_c, 0, 58, 50
1, 115968, Note_off_c, 0, 73, 0
1, 115968, Note_off_c, 0, 85, 0
1, 115968, Note_on_c, 0, 82, 50
1, 115968, Note_on_c, 0, 70, 50
1, 116736, Note_off_c, 0, 70, 0
1, 116736, Note_off_c, 0, 82, 0
1, 116736, Note_off_c, 0, 58, 0
1, 116736, Note_off_c, 0, 46, 0
1, 116736, Note_off_c, 0, 61, 0
1, 116736, Note_off_c, 0, 66, 0
1, 116736, Note_on_c, 0, 84, 50
1, 116736, Note_on_c, 0, 72, 50
1, 116736, Note_on_c, 0, 60, 50
1, 116736, Note_on_c, 0, 64, 50
1, 116736, Note_on_c, 0, 45, 50
1, 116736, Note_on_c, 0, 57, 50
1, 116736, Note_on_c, 0, 78, 50
1, 117504, Note_off_c, 0, 72, 0
1, 117504, Note_off_c, 0, 84, 0
1, 117504, Note_on_c, 0, 71, 50
1, 117504, Note_on_c, 0, 83, 50
1, 117888, Note_off_c, 0, 83, 0
1, 117888, Note_off_c, 0, 71, 0
1, 117888, Note_on_c, 0, 81, 50
1, 117888, Note_on_c, 0, 69, 50
1, 118272, Note_off_c, 0, 69, 0
1, 118272, Note_off_c, 0, 81, 0
1, 118272, Note_off_c, 0, 78, 0
1, 118272, Note_off_c, 0, 57, 0
1, 118272, Note_off_c, 0, 45, 0
1, 118272, Note_off_c, 0, 64, 0
1, 118272, Note_off_c, 0, 60, 0
1, 118272, Note_on_c, 0, 80, 50
1, 118272, Note_on_c, 0, 68, 50
1, 118272, Note_on_c, 0, 44, 50
1, 118272, Note_on_c, 0, 59, 50
1, 118272, Note_on_c, 0, 64, 50
1, 118272, Note_on_c, 0, 56, 50
1, 118272, Note_on_c, 0, 76, 50
1, 119040, Note_off_c, 0, 68, 0
1, 119040, Note_off_c, 0, 80, 0
1, 119040, Note_on_c, 0, 71, 50
1, 119040, Note_on_c, 0, 83, 50
1, 119808, Note_off_c, 0, 56, 0
1, 119808, Note_off_c, 0, 64, 0
1, 119808, Note_off_c, 0, 59, 0
1, 119808, Note_off_c, 0, 44, 0
1, 119808, Note_on_c, 0, 40, 50
1, 119808, Note_on_c, 0, 59, 50
1, 119808, Note_on_c, 0, 43, 50
1, 120000, Note_off_c, 0, 40, 0
1, 120192, Note_off_c, 0, 83, 0
1, 120192, Note_off_c, 0, 71, 0
1, 120192, Note_off_c, 0, 76, 0
1, 120192, Note_on_c, 0, 49, 50
1, 120192, Note_on_c, 0, 55, 50
1, 120192, Note_on_c, 0, 52, 50
1, 120192, Note_on_c, 0, 71, 50
1, 120192, Note_on_c, 0, 67, 50
1, 120192, Note_on_c, 0, 79, 50
1, 120384, Note_off_c, 0, 52, 0
1, 120384, Note_off_c, 0, 55, 0
1, 120384, Note_off_c, 0, 49, 0
1, 120576, Note_on_c, 0, 37, 50
1, 120768, Note_off_c, 0, 37, 0
1, 120960, Note_off_c, 0, 79, 0
1, 120960, Note_off_c, 0, 67, 0
1, 120960, Note_off_c, 0, 71, 0
1, 120960, Note_on_c, 0, 55, 50
1, 120960, Note_on_c, 0, 52, 50
1, 120960, Note_on_c, 0, 49, 50
1, 120960, Note_on_c, 0, 64, 50
1, 120960, Note_on_c, 0, 55, 50
1, 120960, Note_on_c, 0, 64, 50
1, 120960, Note_on_c, 0, 76, 50
1, 121152, Note_off_c, 0, 49, 0
1, 121152, Note_off_c, 0, 52, 0
1, 121152, Note_off_c, 0, 55, 0
1, 121344, Note_off_c, 0, 76, 0
1, 121344, Note_off_c, 0, 64, 0
1, 121344, Note_off_c, 0, 55, 0
1, 121344, Note_off_c, 0, 64, 0
1, 121344, Note_off_c, 0, 43, 0
1, 121344, Note_off_c, 0, 59, 0
1, 121344, Note_on_c, 0, 42, 50
1, 121344, Note_on_c, 0, 66, 50
1, 121344, Note_on_c, 0, 74, 50
1, 121344, Note_on_c, 0, 78, 50
1, 121344, Note_on_c, 0, 62, 50
1, 121344, Note_on_c, 0, 59, 50
1, 121344, Note_on_c, 0, 42, 50
1, 121440, Note_off_c, 0, 42, 0
1, 121728, Note_on_c, 0, 47, 50
1, 121728, Note_on_c, 0, 50, 50
1, 121728, Note_on_c, 0, 54, 50
1, 121920, Note_off_c, 0, 54, 0
1, 121920, Note_off_c, 0, 50, 0
1, 121920, Note_off_c, 0, 47, 0
1, 122112, Note_on_c, 0, 38, 50
1, 122304, Note_off_c, 0, 38, 0
1, 122496, Note_off_c, 0, 78, 0
1, 122496, Note_off_c, 0, 74, 0
1, 122496, Note_off_c, 0, 66, 0
1, 122496, Note_on_c, 0, 54, 50
1, 122496, Note_on_c, 0, 50, 50
1, 122496, Note_on_c, 0, 47, 50
1, 122496, Note_on_c, 0, 66, 50
1, 122496, Note_on_c, 0, 71, 50
1, 122496, Note_on_c, 0, 54, 50
1, 122496, Note_on_c, 0, 78, 50
1, 122688, Note_off_c, 0, 47, 0
1, 122688, Note_off_c, 0, 50, 0
1, 122688, Note_off_c, 0, 54, 0
1, 122880, Note_off_c, 0, 78, 0
1, 122880, Note_off_c, 0, 54, 0
1, 122880, Note_off_c, 0, 71, 0
1, 122880, Note_off_c, 0, 66, 0
1, 122880, Note_off_c, 0, 42, 0
1, 122880, Note_off_c, 0, 59, 0
1, 122880, Note_off_c, 0, 62, 0
1, 122880, Note_on_c, 0, 42, 50
1, 122880, Note_on_c, 0, 70, 50
1, 122880, Note_on_c, 0, 82, 50
1, 122880, Note_on_c, 0, 61, 50
1, 122880, Note_on_c, 0, 42, 50
1, 122976, Note_off_c, 0, 42, 0
1, 123264, Note_off_c, 0, 82, 0
1, 123264, Note_off_c, 0, 70, 0
1, 123264, Note_on_c, 0, 68, 50
1, 123264, Note_on_c, 0, 54, 50
1, 123264, Note_on_c, 0, 80, 50
1, 123264, Note_on_c, 0, 58, 50
1, 123648, Note_off_c, 0, 58, 0
1, 123648, Note_off_c, 0, 80, 0
1, 123648, Note_off_c, 0, 54, 0
1, 123648, Note_off_c, 0, 68, 0
1, 123648, Note_on_c, 0, 46, 50
1, 123648, Note_on_c, 0, 66, 50
1, 123648, Note_on_c, 0, 78, 50
1, 123648, Note_on_c, 0, 66, 50
1, 123840, Note_off_c, 0, 46, 0
1, 124032, Note_off_c, 0, 78, 0
1, 124032, Note_off_c, 0, 66, 0
1, 124032, Note_on_c, 0, 58, 50
1, 124032, Note_on_c, 0, 54, 50
1, 124032, Note_on_c, 0, 74, 50
1, 124032, Note_on_c, 0, 86, 50
1, 124032, Note_on_c, 0, 58, 50
1, 124032, Note_on_c, 0, 54, 50
1, 124224, Note_off_c, 0, 54, 0
1, 124224, Note_off_c, 0, 58, 0
1, 124416, Note_off_c, 0, 54, 0
1, 124416, Note_off_c, 0, 58, 0
1, 124416, Note_off_c, 0, 86, 0
1, 124416, Note_off_c, 0, 74, 0
1, 124416, Note_off_c, 0, 66, 0
1, 124416, Note_off_c, 0, 42, 0
1, 124416, Note_off_c, 0, 61, 0
1, 124416, Note_on_c, 0, 35, 50
1, 124416, Note_on_c, 0, 47, 50
1, 124416, Note_on_c, 0, 71, 50
1, 124416, Note_on_c, 0, 83, 50
1, 124512, Note_off_c, 0, 83, 0
1, 124512, Note_off_c, 0, 71, 0
1, 124512, Note_off_c, 0, 47, 0
1, 124512, Note_off_c, 0, 35, 0
1, 124800, Note_on_c, 0, 35, 50
1, 124800, Note_on_c, 0, 35, 50
1, 124800, Note_on_c, 0, 47, 50
1, 124800, Note_on_c, 0, 54, 50
1, 124800, Note_on_c, 0, 59, 50
1, 124800, Note_on_c, 0, 62, 50
1, 124800, Note_on_c, 0, 71, 50
1, 124800, Note_on_c, 0, 83, 50
1, 124992, Note_off_c, 0, 83, 0
1, 124992, Note_off_c, 0, 71, 0
1, 124992, Note_off_c, 0, 62, 0
1, 124992, Note_off_c, 0, 59, 0
1, 124992, Note_off_c, 0, 54, 0
1, 124992, Note_off_c, 0, 47, 0
1, 124992, Note_off_c, 0, 35, 0
1, 124992, Note_off_c, 0, 35, 0
1, 124992, Note_on_c, 0, 83, 50
1, 124992, Note_on_c, 0, 71, 50
1, 124992, Note_on_c, 0, 62, 50
1, 124992, Note_on_c, 0, 59, 50
1, 124992, Note_on_c, 0, 54, 50
1, 124992, Note_on_c, 0, 47, 50
1, 124992, Note_on_c, 0, 35, 50
1, 124992, Note_on_c, 0, 35, 50
1, 125184, Note_off_c, 0, 35, 0
1, 125184, Note_off_c, 0, 35, 0
1, 125184, Note_off_c, 0, 47, 0
1, 125184, Note_off_c, 0, 54, 0
1, 125184, Note_off_c, 0, 59, 0
1, 125184, Note_off_c, 0, 62, 0
1, 125184, Note_off_c, 0, 71, 0
1, 125184, Note_off_c, 0, 83, 0
1, 125184, Note_on_c, 0, 83, 50
1, 125184, Note_on_c, 0, 71, 50
1, 125184, Note_on_c, 0, 62, 50
1, 125184, Note_on_c, 0, 59, 50
1, 125184, Note_on_c, 0, 54, 50
1, 125184, Note_on_c, 0, 47, 50
1, 125184, Note_on_c, 0, 35, 50
1, 125184, Note_on_c, 0, 35, 50
1, 125376, Note_off_c, 0, 35, 0
1, 125376, Note_off_c, 0, 35, 0
1, 125376, Note_off_c, 0, 47, 0
1, 125376, Note_off_c, 0, 54, 0
1, 125376, Note_off_c, 0, 59, 0
1, 125376, Note_off_c, 0, 62, 0
1, 125376, Note_off_c, 0, 71, 0
1, 125376, Note_off_c, 0, 83, 0
1, 125376, End_track
0, 0, End_of_file
