0, 0, Header, 1, 4, 384
1, 0, Start_track
1, 0, Time_signature, 4, 2, 24, 8
1, 0, Tempo, 222222
1, 0, Title_t, "Grand Piano"
1, 0, Program_c, 0, 0
1, 0, Note_on_c, 0, 64, 50
1, 48, Note_off_c, 0, 64, 0
1, 768, Note_on_c, 0, 64, 50
1, 816, Note_off_c, 0, 64, 0
1, 1152, Note_on_c, 0, 64, 50
1, 1200, Note_off_c, 0, 64, 0
1, 1536, Note_on_c, 0, 64, 50
1, 1632, Note_off_c, 0, 64, 0
1, 1920, Note_on_c, 0, 64, 50
1, 2016, Note_off_c, 0, 64, 0
1, 2304, Note_on_c, 0, 64, 50
1, 2400, Note_off_c, 0, 64, 0
1, 2688, Note_on_c, 0, 64, 50
1, 2784, Note_off_c, 0, 64, 0
1, 3072, Note_on_c, 0, 64, 50
1, 3168, Note_off_c, 0, 64, 0
1, 3456, Note_on_c, 0, 64, 50
1, 3552, Note_off_c, 0, 64, 0
1, 3840, Note_on_c, 0, 64, 50
1, 3936, Note_off_c, 0, 64, 0
1, 4224, Note_on_c, 0, 64, 50
1, 4320, Note_off_c, 0, 64, 0
1, 4608, Note_on_c, 0, 64, 50
1, 4704, Note_off_c, 0, 64, 0
1, 4992, Note_on_c, 0, 64, 50
1, 5088, Note_off_c, 0, 64, 0
1, 5376, Note_on_c, 0, 64, 50
1, 5472, Note_off_c, 0, 64, 0
1, 5760, Note_on_c, 0, 64, 50
1, 5856, Note_off_c, 0, 64, 0
1, 6144, Note_on_c, 0, 64, 50
1, 6240, Note_off_c, 0, 64, 0
1, 6528, Note_on_c, 0, 64, 50
1, 6624, Note_off_c, 0, 64, 0
1, 6912, Note_on_c, 0, 64, 50
1, 7008, Note_off_c, 0, 64, 0
1, 7296, Note_on_c, 0, 64, 50
1, 7392, Note_off_c, 0, 64, 0
1, 7680, Note_on_c, 0, 64, 50
1, 7776, Note_off_c, 0, 64, 0
1, 8064, Note_on_c, 0, 64, 50
1, 8160, Note_off_c, 0, 64, 0
1, 8448, Note_on_c, 0, 64, 50
1, 8448, Note_on_c, 0, 76, 50
1, 8544, Note_off_c, 0, 76, 0
1, 8544, Note_off_c, 0, 64, 0
1, 8832, Note_on_c, 0, 64, 50
1, 8832, Note_on_c, 0, 76, 50
1, 8928, Note_off_c, 0, 76, 0
1, 8928, Note_off_c, 0, 64, 0
1, 9216, Note_on_c, 0, 64, 50
1, 9216, Note_on_c, 0, 76, 50
1, 9216, Note_on_c, 0, 88, 50
1, 9312, Note_off_c, 0, 88, 0
1, 9312, Note_off_c, 0, 76, 0
1, 9312, Note_off_c, 0, 64, 0
1, 9600, Note_on_c, 0, 64, 50
1, 9600, Note_on_c, 0, 76, 50
1, 9600, Note_on_c, 0, 88, 50
1, 9696, Note_off_c, 0, 88, 0
1, 9696, Note_off_c, 0, 76, 0
1, 9696, Note_off_c, 0, 64, 0
1, 9984, Note_on_c, 0, 64, 50
1, 9984, Note_on_c, 0, 76, 50
1, 9984, Note_on_c, 0, 52, 50
1, 9984, Note_on_c, 0, 88, 50
1, 10080, Note_off_c, 0, 88, 0
1, 10080, Note_off_c, 0, 52, 0
1, 10080, Note_off_c, 0, 76, 0
1, 10080, Note_off_c, 0, 64, 0
1, 10368, Note_on_c, 0, 64, 50
1, 10368, Note_on_c, 0, 76, 50
1, 10368, Note_on_c, 0, 52, 50
1, 10368, Note_on_c, 0, 88, 50
1, 10464, Note_off_c, 0, 88, 0
1, 10464, Note_off_c, 0, 52, 0
1, 10464, Note_off_c, 0, 76, 0
1, 10464, Note_off_c, 0, 64, 0
1, 10752, Note_on_c, 0, 64, 50
1, 10752, Note_on_c, 0, 76, 50
1, 10752, Note_on_c, 0, 52, 50
1, 10752, Note_on_c, 0, 88, 50
1, 10752, Note_on_c, 0, 40, 50
1, 10848, Note_off_c, 0, 40, 0
1, 10848, Note_off_c, 0, 88, 0
1, 10848, Note_off_c, 0, 52, 0
1, 10848, Note_off_c, 0, 76, 0
1, 10848, Note_off_c, 0, 64, 0
1, 11136, Note_on_c, 0, 64, 50
1, 11136, Note_on_c, 0, 76, 50
1, 11136, Note_on_c, 0, 52, 50
1, 11136, Note_on_c, 0, 88, 50
1, 11136, Note_on_c, 0, 40, 50
1, 11232, Note_off_c, 0, 40, 0
1, 11232, Note_off_c, 0, 88, 0
1, 11232, Note_off_c, 0, 52, 0
1, 11232, Note_off_c, 0, 76, 0
1, 11232, Note_off_c, 0, 64, 0
1, 11520, Note_on_c, 0, 64, 50
1, 11520, Note_on_c, 0, 76, 50
1, 11520, Note_on_c, 0, 52, 50
1, 11520, Note_on_c, 0, 88, 50
1, 11520, Note_on_c, 0, 40, 50
1, 11520, Note_on_c, 0, 28, 50
1, 11616, Note_off_c, 0, 28, 0
1, 11616, Note_off_c, 0, 40, 0
1, 11616, Note_off_c, 0, 88, 0
1, 11616, Note_off_c, 0, 52, 0
1, 11616, Note_off_c, 0, 76, 0
1, 11616, Note_off_c, 0, 64, 0
1, 11904, Note_on_c, 0, 64, 50
1, 11904, Note_on_c, 0, 76, 50
1, 11904, Note_on_c, 0, 52, 50
1, 11904, Note_on_c, 0, 88, 50
1, 11904, Note_on_c, 0, 40, 50
1, 11904, Note_on_c, 0, 28, 50
1, 12000, Note_off_c, 0, 28, 0
1, 12000, Note_off_c, 0, 40, 0
1, 12000, Note_off_c, 0, 88, 0
1, 12000, Note_off_c, 0, 52, 0
1, 12000, Note_off_c, 0, 76, 0
1, 12000, Note_off_c, 0, 64, 0
1, 12288, Note_on_c, 0, 64, 50
1, 12288, Note_on_c, 0, 76, 50
1, 12288, Note_on_c, 0, 52, 50
1, 12288, Note_on_c, 0, 88, 50
1, 12288, Note_on_c, 0, 40, 50
1, 12288, Note_on_c, 0, 28, 50
1, 12384, Note_off_c, 0, 28, 0
1, 12384, Note_off_c, 0, 40, 0
1, 12384, Note_off_c, 0, 88, 0
1, 12384, Note_off_c, 0, 52, 0
1, 12384, Note_off_c, 0, 76, 0
1, 12384, Note_off_c, 0, 64, 0
1, 12672, Note_on_c, 0, 64, 50
1, 12672, Note_on_c, 0, 76, 50
1, 12672, Note_on_c, 0, 52, 50
1, 12672, Note_on_c, 0, 88, 50
1, 12672, Note_on_c, 0, 40, 50
1, 12672, Note_on_c, 0, 28, 50
1, 12768, Note_off_c, 0, 28, 0
1, 12768, Note_off_c, 0, 40, 0
1, 12768, Note_off_c, 0, 88, 0
1, 12768, Note_off_c, 0, 52, 0
1, 12768, Note_off_c, 0, 76, 0
1, 12768, Note_off_c, 0, 64, 0
1, 13056, Note_on_c, 0, 64, 50
1, 13056, Note_on_c, 0, 76, 50
1, 13056, Note_on_c, 0, 52, 50
1, 13056, Note_on_c, 0, 88, 50
1, 13056, Note_on_c, 0, 40, 50
1, 13056, Note_on_c, 0, 28, 50
1, 13152, Note_off_c, 0, 28, 0
1, 13152, Note_off_c, 0, 40, 0
1, 13152, Note_off_c, 0, 88, 0
1, 13152, Note_off_c, 0, 52, 0
1, 13152, Note_off_c, 0, 76, 0
1, 13152, Note_off_c, 0, 64, 0
1, 13440, Note_on_c, 0, 64, 50
1, 13440, Note_on_c, 0, 76, 50
1, 13440, Note_on_c, 0, 52, 50
1, 13440, Note_on_c, 0, 88, 50
1, 13440, Note_on_c, 0, 40, 50
1, 13440, Note_on_c, 0, 28, 50
1, 13536, Note_off_c, 0, 28, 0
1, 13536, Note_off_c, 0, 40, 0
1, 13536, Note_off_c, 0, 88, 0
1, 13536, Note_off_c, 0, 52, 0
1, 13536, Note_off_c, 0, 76, 0
1, 13536, Note_off_c, 0, 64, 0
1, 13824, Note_on_c, 0, 64, 50
1, 13824, Note_on_c, 0, 76, 50
1, 13824, Note_on_c, 0, 52, 50
1, 13824, Note_on_c, 0, 88, 50
1, 13824, Note_on_c, 0, 40, 50
1, 13824, Note_on_c, 0, 28, 50
1, 13920, Note_off_c, 0, 28, 0
1, 13920, Note_off_c, 0, 40, 0
1, 13920, Note_off_c, 0, 88, 0
1, 13920, Note_off_c, 0, 52, 0
1, 13920, Note_off_c, 0, 76, 0
1, 13920, Note_off_c, 0, 64, 0
1, 14208, Note_on_c, 0, 64, 50
1, 14208, Note_on_c, 0, 76, 50
1, 14208, Note_on_c, 0, 52, 50
1, 14208, Note_on_c, 0, 88, 50
1, 14208, Note_on_c, 0, 40, 50
1, 14208, Note_on_c, 0, 28, 50
1, 14304, Note_off_c, 0, 28, 0
1, 14304, Note_off_c, 0, 40, 0
1, 14304, Note_off_c, 0, 88, 0
1, 14304, Note_off_c, 0, 52, 0
1, 14304, Note_off_c, 0, 76, 0
1, 14304, Note_off_c, 0, 64, 0
1, 14592, Note_on_c, 0, 64, 50
1, 14592, Note_on_c, 0, 76, 50
1, 14592, Note_on_c, 0, 52, 50
1, 14592, Note_on_c, 0, 88, 50
1, 14592, Note_on_c, 0, 40, 50
1, 14592, Note_on_c, 0, 28, 50
1, 14688, Note_off_c, 0, 28, 0
1, 14688, Note_off_c, 0, 40, 0
1, 14688, Note_off_c, 0, 88, 0
1, 14688, Note_off_c, 0, 52, 0
1, 14688, Note_off_c, 0, 76, 0
1, 14688, Note_off_c, 0, 64, 0
1, 14976, Note_on_c, 0, 64, 50
1, 14976, Note_on_c, 0, 76, 50
1, 14976, Note_on_c, 0, 52, 50
1, 14976, Note_on_c, 0, 88, 50
1, 14976, Note_on_c, 0, 40, 50
1, 14976, Note_on_c, 0, 28, 50
1, 15072, Note_off_c, 0, 28, 0
1, 15072, Note_off_c, 0, 40, 0
1, 15072, Note_off_c, 0, 88, 0
1, 15072, Note_off_c, 0, 52, 0
1, 15072, Note_off_c, 0, 76, 0
1, 15072, Note_off_c, 0, 64, 0
1, 15360, Note_on_c, 0, 64, 50
1, 15360, Note_on_c, 0, 76, 50
1, 15360, Note_on_c, 0, 52, 50
1, 15360, Note_on_c, 0, 88, 50
1, 15360, Note_on_c, 0, 40, 50
1, 15360, Note_on_c, 0, 28, 50
1, 15456, Note_off_c, 0, 28, 0
1, 15456, Note_off_c, 0, 40, 0
1, 15456, Note_off_c, 0, 88, 0
1, 15456, Note_off_c, 0, 52, 0
1, 15456, Note_off_c, 0, 76, 0
1, 15456, Note_off_c, 0, 64, 0
1, 15744, Note_on_c, 0, 64, 50
1, 15744, Note_on_c, 0, 76, 50
1, 15744, Note_on_c, 0, 52, 50
1, 15744, Note_on_c, 0, 88, 50
1, 15744, Note_on_c, 0, 40, 50
1, 15744, Note_on_c, 0, 28, 50
1, 15840, Note_off_c, 0, 28, 0
1, 15840, Note_off_c, 0, 40, 0
1, 15840, Note_off_c, 0, 88, 0
1, 15840, Note_off_c, 0, 52, 0
1, 15840, Note_off_c, 0, 76, 0
1, 15840, Note_off_c, 0, 64, 0
1, 16128, Note_on_c, 0, 64, 50
1, 16128, Note_on_c, 0, 76, 50
1, 16128, Note_on_c, 0, 52, 50
1, 16128, Note_on_c, 0, 88, 50
1, 16128, Note_on_c, 0, 40, 50
1, 16128, Note_on_c, 0, 28, 50
1, 16224, Note_off_c, 0, 28, 0
1, 16224, Note_off_c, 0, 40, 0
1, 16224, Note_off_c, 0, 88, 0
1, 16224, Note_off_c, 0, 52, 0
1, 16224, Note_off_c, 0, 76, 0
1, 16224, Note_off_c, 0, 64, 0
1, 16512, Note_on_c, 0, 64, 50
1, 16512, Note_on_c, 0, 76, 50
1, 16512, Note_on_c, 0, 52, 50
1, 16512, Note_on_c, 0, 88, 50
1, 16512, Note_on_c, 0, 40, 50
1, 16512, Note_on_c, 0, 28, 50
1, 16608, Note_off_c, 0, 28, 0
1, 16608, Note_off_c, 0, 40, 0
1, 16608, Note_off_c, 0, 88, 0
1, 16608, Note_off_c, 0, 52, 0
1, 16608, Note_off_c, 0, 76, 0
1, 16608, Note_off_c, 0, 64, 0
1, 16896, Note_on_c, 0, 64, 50
1, 16896, Note_on_c, 0, 76, 50
1, 16896, Note_on_c, 0, 52, 50
1, 16896, Note_on_c, 0, 88, 50
1, 16896, Note_on_c, 0, 40, 50
1, 16896, Note_on_c, 0, 28, 50
1, 16992, Note_off_c, 0, 28, 0
1, 16992, Note_off_c, 0, 40, 0
1, 16992, Note_off_c, 0, 88, 0
1, 16992, Note_off_c, 0, 52, 0
1, 16992, Note_off_c, 0, 76, 0
1, 16992, Note_off_c, 0, 64, 0
1, 17280, Note_on_c, 0, 64, 50
1, 17280, Note_on_c, 0, 76, 50
1, 17280, Note_on_c, 0, 52, 50
1, 17280, Note_on_c, 0, 88, 50
1, 17280, Note_on_c, 0, 40, 50
1, 17280, Note_on_c, 0, 28, 50
1, 17376, Note_off_c, 0, 28, 0
1, 17376, Note_off_c, 0, 40, 0
1, 17376, Note_off_c, 0, 88, 0
1, 17376, Note_off_c, 0, 52, 0
1, 17376, Note_off_c, 0, 76, 0
1, 17376, Note_off_c, 0, 64, 0
1, 17664, Note_on_c, 0, 64, 50
1, 17664, Note_on_c, 0, 76, 50
1, 17664, Note_on_c, 0, 52, 50
1, 17664, Note_on_c, 0, 88, 50
1, 17664, Note_on_c, 0, 40, 50
1, 17664, Note_on_c, 0, 28, 50
1, 17760, Note_off_c, 0, 28, 0
1, 17760, Note_off_c, 0, 40, 0
1, 17760, Note_off_c, 0, 88, 0
1, 17760, Note_off_c, 0, 52, 0
1, 17760, Note_off_c, 0, 76, 0
1, 17760, Note_off_c, 0, 64, 0
1, 18048, Note_on_c, 0, 64, 50
1, 18048, Note_on_c, 0, 76, 50
1, 18048, Note_on_c, 0, 52, 50
1, 18048, Note_on_c, 0, 88, 50
1, 18048, Note_on_c, 0, 40, 50
1, 18048, Note_on_c, 0, 28, 50
1, 18144, Note_off_c, 0, 28, 0
1, 18144, Note_off_c, 0, 40, 0
1, 18144, Note_off_c, 0, 88, 0
1, 18144, Note_off_c, 0, 52, 0
1, 18144, Note_off_c, 0, 76, 0
1, 18144, Note_off_c, 0, 64, 0
1, 18432, Note_on_c, 0, 33, 50
1, 18432, Note_on_c, 0, 45, 50
1, 19968, Note_off_c, 0, 45, 0
1, 19968, Note_off_c, 0, 33, 0
1, 19968, Note_on_c, 0, 48, 50
1, 19968, Note_on_c, 0, 52, 50
1, 20352, Note_off_c, 0, 52, 0
1, 20352, Note_off_c, 0, 48, 0
1, 21504, Note_on_c, 0, 40, 50
1, 21888, Note_off_c, 0, 40, 0
1, 23040, Note_on_c, 0, 52, 50
1, 23040, Note_on_c, 0, 48, 50
1, 23520, Note_off_c, 0, 48, 0
1, 23520, Note_off_c, 0, 52, 0
1, 24288, Note_on_c, 0, 28, 50
1, 24288, Note_on_c, 0, 40, 50
1, 24384, Note_on_c, 0, 30, 50
1, 24384, Note_on_c, 0, 42, 50
1, 24480, Note_on_c, 0, 32, 50
1, 24480, Note_on_c, 0, 44, 50
1, 24576, Note_off_c, 0, 40, 0
1, 24576, Note_off_c, 0, 28, 0
1, 24576, Note_on_c, 0, 33, 50
1, 24576, Note_on_c, 0, 45, 50
1, 24672, Note_off_c, 0, 42, 0
1, 24672, Note_off_c, 0, 30, 0
1, 24768, Note_off_c, 0, 44, 0
1, 24768, Note_off_c, 0, 32, 0
1, 26112, Note_off_c, 0, 45, 0
1, 26112, Note_off_c, 0, 33, 0
1, 26112, Note_on_c, 0, 48, 50
1, 26112, Note_on_c, 0, 52, 50
1, 26496, Note_off_c, 0, 52, 0
1, 26496, Note_off_c, 0, 48, 0
1, 27648, Note_on_c, 0, 40, 50
1, 28032, Note_off_c, 0, 40, 0
1, 29184, Note_on_c, 0, 52, 50
1, 29184, Note_on_c, 0, 48, 50
1, 29664, Note_off_c, 0, 48, 0
1, 29664, Note_off_c, 0, 52, 0
1, 30720, Note_on_c, 0, 45, 50
1, 30720, Note_on_c, 0, 64, 50
1, 30912, Note_off_c, 0, 64, 0
1, 31488, Note_on_c, 0, 64, 50
1, 31680, Note_off_c, 0, 64, 0
1, 32256, Note_off_c, 0, 45, 0
1, 32256, Note_on_c, 0, 48, 50
1, 32256, Note_on_c, 0, 52, 50
1, 32256, Note_on_c, 0, 64, 50
1, 32448, Note_off_c, 0, 64, 0
1, 32640, Note_off_c, 0, 52, 0
1, 32640, Note_off_c, 0, 48, 0
1, 33024, Note_on_c, 0, 64, 50
1, 33216, Note_off_c, 0, 64, 0
1, 33792, Note_on_c, 0, 64, 50
1, 33792, Note_on_c, 0, 40, 50
1, 33984, Note_off_c, 0, 64, 0
1, 34176, Note_off_c, 0, 40, 0
1, 34560, Note_on_c, 0, 64, 50
1, 34752, Note_off_c, 0, 64, 0
1, 35328, Note_on_c, 0, 64, 50
1, 35328, Note_on_c, 0, 52, 50
1, 35328, Note_on_c, 0, 48, 50
1, 35520, Note_off_c, 0, 64, 0
1, 35808, Note_off_c, 0, 48, 0
1, 35808, Note_off_c, 0, 52, 0
1, 36096, Note_on_c, 0, 64, 50
1, 36288, Note_off_c, 0, 64, 0
1, 36864, Note_on_c, 0, 64, 50
1, 36864, Note_on_c, 0, 45, 50
1, 37056, Note_off_c, 0, 64, 0
1, 37248, Note_off_c, 0, 45, 0
1, 37632, Note_on_c, 0, 64, 50
1, 37824, Note_off_c, 0, 64, 0
1, 38400, Note_on_c, 0, 64, 50
1, 38400, Note_on_c, 0, 48, 50
1, 38400, Note_on_c, 0, 52, 50
1, 38592, Note_off_c, 0, 64, 0
1, 38784, Note_off_c, 0, 52, 0
1, 38784, Note_off_c, 0, 48, 0
1, 39168, Note_on_c, 0, 64, 50
1, 39360, Note_off_c, 0, 64, 0
1, 39936, Note_on_c, 0, 64, 50
1, 39936, Note_on_c, 0, 40, 50
1, 40128, Note_off_c, 0, 64, 0
1, 40320, Note_off_c, 0, 40, 0
1, 40704, Note_on_c, 0, 64, 50
1, 40896, Note_off_c, 0, 64, 0
1, 41472, Note_on_c, 0, 64, 50
1, 41472, Note_on_c, 0, 52, 50
1, 41472, Note_on_c, 0, 48, 50
1, 41664, Note_off_c, 0, 64, 0
1, 41952, Note_off_c, 0, 48, 0
1, 41952, Note_off_c, 0, 52, 0
1, 42240, Note_on_c, 0, 64, 50
1, 42432, Note_off_c, 0, 64, 0
1, 43008, Note_on_c, 0, 64, 50
1, 43008, Note_on_c, 0, 45, 50
1, 43200, Note_off_c, 0, 64, 0
1, 43584, Note_off_c, 0, 45, 0
1, 43776, Note_on_c, 0, 64, 50
1, 43968, Note_off_c, 0, 64, 0
1, 44544, Note_on_c, 0, 64, 50
1, 44544, Note_on_c, 0, 48, 50
1, 44544, Note_on_c, 0, 52, 50
1, 44736, Note_off_c, 0, 64, 0
1, 44928, Note_off_c, 0, 52, 0
1, 44928, Note_off_c, 0, 48, 0
1, 45312, Note_on_c, 0, 64, 50
1, 45504, Note_off_c, 0, 64, 0
1, 46080, Note_on_c, 0, 64, 50
1, 46080, Note_on_c, 0, 40, 50
1, 46464, Note_off_c, 0, 40, 0
1, 46848, Note_off_c, 0, 64, 0
1, 46848, Note_on_c, 0, 65, 50
1, 47424, Note_off_c, 0, 65, 0
1, 47616, Note_on_c, 0, 64, 50
1, 47616, Note_on_c, 0, 52, 50
1, 47616, Note_on_c, 0, 48, 50
1, 48096, Note_off_c, 0, 48, 0
1, 48096, Note_off_c, 0, 52, 0
1, 48192, Note_off_c, 0, 64, 0
1, 48384, Note_on_c, 0, 63, 50
1, 48960, Note_off_c, 0, 63, 0
1, 49152, Note_on_c, 0, 64, 50
1, 49152, Note_on_c, 0, 45, 50
1, 49536, Note_off_c, 0, 64, 0
1, 49728, Note_off_c, 0, 45, 0
1, 50688, Note_on_c, 0, 69, 50
1, 50688, Note_on_c, 0, 48, 50
1, 50688, Note_on_c, 0, 52, 50
1, 50880, Note_off_c, 0, 69, 0
1, 51072, Note_off_c, 0, 52, 0
1, 51072, Note_off_c, 0, 48, 0
1, 52224, Note_on_c, 0, 72, 50
1, 52224, Note_on_c, 0, 40, 50
1, 52608, Note_off_c, 0, 40, 0
1, 53760, Note_off_c, 0, 72, 0
1, 53760, Note_on_c, 0, 52, 50
1, 53760, Note_on_c, 0, 48, 50
1, 54240, Note_off_c, 0, 48, 0
1, 54240, Note_off_c, 0, 52, 0
1, 55296, Note_on_c, 0, 74, 50
1, 55296, Note_on_c, 0, 44, 50
1, 55488, Note_off_c, 0, 74, 0
1, 55872, Note_off_c, 0, 44, 0
1, 56064, Note_on_c, 0, 74, 50
1, 56256, Note_off_c, 0, 74, 0
1, 56832, Note_on_c, 0, 74, 50
1, 56832, Note_on_c, 0, 50, 50
1, 56832, Note_on_c, 0, 52, 50
1, 57024, Note_off_c, 0, 74, 0
1, 57216, Note_off_c, 0, 52, 0
1, 57216, Note_off_c, 0, 50, 0
1, 57600, Note_on_c, 0, 74, 50
1, 57792, Note_off_c, 0, 74, 0
1, 58368, Note_on_c, 0, 74, 50
1, 58368, Note_on_c, 0, 40, 50
1, 58560, Note_off_c, 0, 74, 0
1, 58752, Note_off_c, 0, 40, 0
1, 59136, Note_on_c, 0, 72, 50
1, 59328, Note_off_c, 0, 72, 0
1, 59904, Note_on_c, 0, 71, 50
1, 59904, Note_on_c, 0, 52, 50
1, 59904, Note_on_c, 0, 50, 50
1, 60096, Note_off_c, 0, 71, 0
1, 60288, Note_off_c, 0, 50, 0
1, 60288, Note_off_c, 0, 52, 0
1, 60672, Note_on_c, 0, 74, 50
1, 60864, Note_off_c, 0, 74, 0
1, 61440, Note_on_c, 0, 72, 50
1, 61440, Note_on_c, 0, 45, 50
1, 61632, Note_off_c, 0, 72, 0
1, 62016, Note_off_c, 0, 45, 0
1, 62208, Note_on_c, 0, 72, 50
1, 62400, Note_off_c, 0, 72, 0
1, 62976, Note_on_c, 0, 72, 50
1, 62976, Note_on_c, 0, 52, 50
1, 62976, Note_on_c, 0, 48, 50
1, 63168, Note_off_c, 0, 72, 0
1, 63360, Note_off_c, 0, 48, 0
1, 63360, Note_off_c, 0, 52, 0
1, 63744, Note_on_c, 0, 72, 50
1, 63936, Note_off_c, 0, 72, 0
1, 64512, Note_on_c, 0, 72, 50
1, 64512, Note_on_c, 0, 40, 50
1, 64704, Note_off_c, 0, 72, 0
1, 64896, Note_off_c, 0, 40, 0
1, 65280, Note_on_c, 0, 71, 50
1, 65472, Note_off_c, 0, 71, 0
1, 66048, Note_on_c, 0, 69, 50
1, 66048, Note_on_c, 0, 52, 50
1, 66048, Note_on_c, 0, 48, 50
1, 66240, Note_off_c, 0, 69, 0
1, 66432, Note_off_c, 0, 48, 0
1, 66432, Note_off_c, 0, 52, 0
1, 66816, Note_on_c, 0, 72, 50
1, 67008, Note_off_c, 0, 72, 0
1, 67584, Note_on_c, 0, 71, 50
1, 67584, Note_on_c, 0, 47, 50
1, 67776, Note_off_c, 0, 71, 0
1, 67968, Note_off_c, 0, 47, 0
1, 68352, Note_on_c, 0, 71, 50
1, 68544, Note_off_c, 0, 71, 0
1, 69120, Note_on_c, 0, 71, 50
1, 69120, Note_on_c, 0, 51, 50
1, 69120, Note_on_c, 0, 59, 50
1, 69312, Note_off_c, 0, 71, 0
1, 69504, Note_off_c, 0, 59, 0
1, 69504, Note_off_c, 0, 51, 0
1, 69888, Note_on_c, 0, 71, 50
1, 70080, Note_off_c, 0, 71, 0
1, 70656, Note_on_c, 0, 66, 50
1, 70656, Note_on_c, 0, 42, 50
1, 70848, Note_off_c, 0, 66, 0
1, 71040, Note_off_c, 0, 42, 0
1, 72192, Note_on_c, 0, 71, 50
1, 72192, Note_on_c, 0, 51, 50
1, 72192, Note_on_c, 0, 59, 50
1, 72384, Note_off_c, 0, 71, 0
1, 72576, Note_off_c, 0, 59, 0
1, 72576, Note_off_c, 0, 51, 0
1, 73728, Note_on_c, 0, 68, 50
1, 73728, Note_on_c, 0, 56, 50
1, 73728, Note_on_c, 0, 47, 50
1, 73728, Note_on_c, 0, 52, 50
1, 74112, Note_off_c, 0, 52, 0
1, 74112, Note_off_c, 0, 47, 0
1, 74112, Note_off_c, 0, 56, 0
1, 74112, Note_off_c, 0, 68, 0
1, 75360, Note_on_c, 0, 70, 50
1, 75456, Note_off_c, 0, 70, 0
1, 76800, Note_on_c, 0, 52, 50
1, 76800, Note_on_c, 0, 28, 50
1, 76800, Note_on_c, 0, 40, 50
1, 79488, Note_on_c, 0, 42, 50
1, 79488, Note_on_c, 0, 30, 50
1, 79488, Note_on_c, 0, 69, 50
1, 79584, Note_off_c, 0, 69, 0
1, 79680, Note_off_c, 0, 40, 0
1, 79680, Note_off_c, 0, 28, 0
1, 79680, Note_on_c, 0, 44, 50
1, 79680, Note_on_c, 0, 32, 50
1, 79872, Note_off_c, 0, 30, 0
1, 79872, Note_off_c, 0, 42, 0
1, 79872, Note_off_c, 0, 52, 0
1, 79872, Note_on_c, 0, 33, 50
1, 79872, Note_on_c, 0, 45, 50
1, 79872, Note_on_c, 0, 64, 50
1, 80064, Note_off_c, 0, 64, 0
1, 80064, Note_off_c, 0, 32, 0
1, 80064, Note_off_c, 0, 44, 0
1, 80640, Note_on_c, 0, 64, 50
1, 80832, Note_off_c, 0, 64, 0
1, 81408, Note_off_c, 0, 45, 0
1, 81408, Note_off_c, 0, 33, 0
1, 81408, Note_on_c, 0, 52, 50
1, 81408, Note_on_c, 0, 48, 50
1, 81408, Note_on_c, 0, 64, 50
1, 81600, Note_off_c, 0, 64, 0
1, 81792, Note_off_c, 0, 48, 0
1, 81792, Note_off_c, 0, 52, 0
1, 82176, Note_on_c, 0, 64, 50
1, 82368, Note_off_c, 0, 64, 0
1, 82944, Note_on_c, 0, 40, 50
1, 82944, Note_on_c, 0, 64, 50
1, 83136, Note_off_c, 0, 64, 0
1, 83328, Note_off_c, 0, 40, 0
1, 83520, Note_on_c, 0, 68, 50
1, 83616, Note_off_c, 0, 68, 0
1, 83712, Note_on_c, 0, 64, 50
1, 83904, Note_off_c, 0, 64, 0
1, 84480, Note_on_c, 0, 52, 50
1, 84480, Note_on_c, 0, 48, 50
1, 84480, Note_on_c, 0, 64, 50
1, 84672, Note_off_c, 0, 64, 0
1, 84864, Note_off_c, 0, 48, 0
1, 84864, Note_off_c, 0, 52, 0
1, 85248, Note_on_c, 0, 64, 50
1, 85440, Note_off_c, 0, 64, 0
1, 86016, Note_on_c, 0, 45, 50
1, 86016, Note_on_c, 0, 64, 50
1, 86208, Note_off_c, 0, 64, 0
1, 86592, Note_off_c, 0, 45, 0
1, 86784, Note_on_c, 0, 64, 50
1, 86976, Note_off_c, 0, 64, 0
1, 87552, Note_on_c, 0, 52, 50
1, 87552, Note_on_c, 0, 48, 50
1, 87552, Note_on_c, 0, 64, 50
1, 87744, Note_off_c, 0, 64, 0
1, 87936, Note_off_c, 0, 48, 0
1, 87936, Note_off_c, 0, 52, 0
1, 88320, Note_on_c, 0, 64, 50
1, 88512, Note_off_c, 0, 64, 0
1, 89088, Note_on_c, 0, 40, 50
1, 89088, Note_on_c, 0, 64, 50
1, 89280, Note_off_c, 0, 64, 0
1, 89472, Note_off_c, 0, 40, 0
1, 89856, Note_on_c, 0, 64, 50
1, 90048, Note_off_c, 0, 64, 0
1, 90624, Note_on_c, 0, 52, 50
1, 90624, Note_on_c, 0, 48, 50
1, 90624, Note_on_c, 0, 64, 50
1, 90816, Note_off_c, 0, 64, 0
1, 91008, Note_off_c, 0, 48, 0
1, 91008, Note_off_c, 0, 52, 0
1, 91200, Note_on_c, 0, 67, 50
1, 91200, Note_on_c, 0, 64, 50
1, 91296, Note_off_c, 0, 64, 0
1, 91296, Note_off_c, 0, 67, 0
1, 91392, Note_on_c, 0, 64, 50
1, 91584, Note_off_c, 0, 64, 0
1, 92160, Note_on_c, 0, 64, 50
1, 92160, Note_on_c, 0, 45, 50
1, 92544, Note_off_c, 0, 45, 0
1, 92736, Note_off_c, 0, 64, 0
1, 92928, Note_on_c, 0, 65, 50
1, 93696, Note_off_c, 0, 65, 0
1, 93696, Note_on_c, 0, 64, 50
1, 93696, Note_on_c, 0, 52, 50
1, 93696, Note_on_c, 0, 48, 50
1, 94080, Note_off_c, 0, 48, 0
1, 94080, Note_off_c, 0, 52, 0
1, 94272, Note_off_c, 0, 64, 0
1, 94464, Note_on_c, 0, 63, 50
1, 95040, Note_off_c, 0, 63, 0
1, 95232, Note_on_c, 0, 64, 50
1, 95232, Note_on_c, 0, 40, 50
1, 95616, Note_off_c, 0, 40, 0
1, 95808, Note_off_c, 0, 64, 0
1, 96768, Note_on_c, 0, 52, 50
1, 96768, Note_on_c, 0, 48, 50
1, 96768, Note_on_c, 0, 69, 50
1, 97056, Note_on_c, 0, 62, 50
1, 97152, Note_off_c, 0, 62, 0
1, 97152, Note_off_c, 0, 48, 0
1, 97152, Note_off_c, 0, 52, 0
1, 97536, Note_off_c, 0, 69, 0
1, 97536, Note_on_c, 0, 72, 50
1, 98304, Note_off_c, 0, 72, 0
1, 98304, Note_on_c, 0, 45, 50
1, 98304, Note_on_c, 0, 76, 50
1, 98688, Note_off_c, 0, 45, 0
1, 99072, Note_off_c, 0, 76, 0
1, 99840, Note_on_c, 0, 52, 50
1, 99840, Note_on_c, 0, 48, 50
1, 99840, Note_on_c, 0, 81, 50
1, 100224, Note_off_c, 0, 81, 0
1, 100224, Note_off_c, 0, 48, 0
1, 100224, Note_off_c, 0, 52, 0
1, 101088, Note_on_c, 0, 62, 50
1, 101184, Note_off_c, 0, 62, 0
1, 101376, Note_on_c, 0, 40, 50
1, 101376, Note_on_c, 0, 84, 50
1, 101760, Note_off_c, 0, 40, 0
1, 102912, Note_on_c, 0, 52, 50
1, 102912, Note_on_c, 0, 48, 50
1, 103296, Note_off_c, 0, 48, 0
1, 103296, Note_off_c, 0, 52, 0
1, 104064, Note_off_c, 0, 84, 0
1, 104448, Note_on_c, 0, 86, 50
1, 104448, Note_on_c, 0, 50, 50
1, 104640, Note_off_c, 0, 50, 0
1, 104640, Note_off_c, 0, 86, 0
1, 104832, Note_on_c, 0, 84, 50
1, 105024, Note_off_c, 0, 84, 0
1, 105216, Note_on_c, 0, 83, 50
1, 105216, Note_on_c, 0, 59, 50
1, 105216, Note_on_c, 0, 53, 50
1, 105408, Note_off_c, 0, 53, 0
1, 105408, Note_off_c, 0, 59, 0
1, 105408, Note_off_c, 0, 83, 0
1, 105600, Note_on_c, 0, 86, 50
1, 105792, Note_off_c, 0, 86, 0
1, 105984, Note_on_c, 0, 84, 50
1, 105984, Note_on_c, 0, 48, 50
1, 106176, Note_off_c, 0, 48, 0
1, 106176, Note_off_c, 0, 84, 0
1, 106368, Note_on_c, 0, 83, 50
1, 106368, Note_on_c, 0, 64, 50
1, 106464, Note_off_c, 0, 64, 0
1, 106560, Note_off_c, 0, 83, 0
1, 106752, Note_on_c, 0, 81, 50
1, 106752, Note_on_c, 0, 52, 50
1, 106752, Note_on_c, 0, 60, 50
1, 106944, Note_off_c, 0, 60, 0
1, 106944, Note_off_c, 0, 52, 0
1, 106944, Note_off_c, 0, 81, 0
1, 107136, Note_on_c, 0, 84, 50
1, 107328, Note_off_c, 0, 84, 0
1, 107520, Note_on_c, 0, 83, 50
1, 107520, Note_on_c, 0, 47, 50
1, 107712, Note_off_c, 0, 47, 0
1, 107712, Note_off_c, 0, 83, 0
1, 107904, Note_on_c, 0, 81, 50
1, 108096, Note_off_c, 0, 81, 0
1, 108288, Note_on_c, 0, 80, 50
1, 108288, Note_on_c, 0, 50, 50
1, 108288, Note_on_c, 0, 56, 50
1, 108480, Note_off_c, 0, 56, 0
1, 108480, Note_off_c, 0, 50, 0
1, 108480, Note_off_c, 0, 80, 0
1, 108672, Note_on_c, 0, 83, 50
1, 108864, Note_off_c, 0, 83, 0
1, 109056, Note_on_c, 0, 81, 50
1, 109056, Note_on_c, 0, 45, 50
1, 109248, Note_off_c, 0, 45, 0
1, 109248, Note_off_c, 0, 81, 0
1, 109440, Note_on_c, 0, 76, 50
1, 109632, Note_off_c, 0, 76, 0
1, 109824, Note_on_c, 0, 72, 50
1, 109824, Note_on_c, 0, 48, 50
1, 109824, Note_on_c, 0, 57, 50
1, 110016, Note_off_c, 0, 57, 0
1, 110016, Note_off_c, 0, 48, 0
1, 110016, Note_off_c, 0, 72, 0
1, 110208, Note_on_c, 0, 69, 50
1, 110400, Note_off_c, 0, 69, 0
1, 110592, Note_on_c, 0, 77, 50
1, 110592, Note_on_c, 0, 40, 114
1, 110592, Note_on_c, 0, 52, 114
1, 110784, Note_off_c, 0, 52, 0
1, 110784, Note_off_c, 0, 40, 0
1, 110784, Note_off_c, 0, 77, 0
1, 110880, Note_on_c, 0, 61, 50
1, 110976, Note_off_c, 0, 61, 0
1, 110976, Note_on_c, 0, 76, 50
1, 111168, Note_off_c, 0, 76, 0
1, 111360, Note_on_c, 0, 74, 50
1, 111360, Note_on_c, 0, 54, 114
1, 111360, Note_on_c, 0, 42, 114
1, 111552, Note_off_c, 0, 42, 0
1, 111552, Note_off_c, 0, 54, 0
1, 111552, Note_off_c, 0, 74, 0
1, 111744, Note_on_c, 0, 72, 50
1, 111936, Note_off_c, 0, 72, 0
1, 112128, Note_on_c, 0, 71, 50
1, 112128, Note_on_c, 0, 56, 114
1, 112128, Note_on_c, 0, 44, 114
1, 112320, Note_off_c, 0, 44, 0
1, 112320, Note_off_c, 0, 56, 0
1, 112320, Note_off_c, 0, 71, 0
1, 112512, Note_on_c, 0, 69, 50
1, 112704, Note_off_c, 0, 69, 0
1, 112896, Note_on_c, 0, 68, 50
1, 112896, Note_on_c, 0, 40, 114
1, 112896, Note_on_c, 0, 52, 114
1, 113088, Note_off_c, 0, 52, 0
1, 113088, Note_off_c, 0, 40, 0
1, 113088, Note_off_c, 0, 68, 0
1, 113280, Note_on_c, 0, 71, 50
1, 113472, Note_off_c, 0, 71, 0
1, 113664, Note_on_c, 0, 69, 50
1, 113664, Note_on_c, 0, 57, 114
1, 113664, Note_on_c, 0, 45, 114
1, 113856, Note_off_c, 0, 45, 0
1, 113856, Note_off_c, 0, 57, 0
1, 113856, Note_off_c, 0, 69, 0
1, 115200, Note_on_c, 0, 40, 50
1, 115200, Note_on_c, 0, 28, 50
1, 115584, Note_on_c, 0, 63, 50
1, 115680, Note_off_c, 0, 63, 0
1, 116544, Note_on_c, 0, 42, 50
1, 116544, Note_on_c, 0, 30, 50
1, 116640, Note_off_c, 0, 28, 0
1, 116640, Note_off_c, 0, 40, 0
1, 116640, Note_on_c, 0, 44, 50
1, 116640, Note_on_c, 0, 32, 50
1, 116736, Note_off_c, 0, 30, 0
1, 116736, Note_off_c, 0, 42, 0
1, 116736, Note_on_c, 0, 45, 80
1, 116736, Note_on_c, 0, 33, 80
1, 116736, Note_on_c, 0, 64, 50
1, 116832, Note_off_c, 0, 32, 0
1, 116832, Note_off_c, 0, 44, 0
1, 116928, Note_off_c, 0, 64, 0
1, 117120, Note_on_c, 0, 64, 50
1, 117312, Note_off_c, 0, 64, 0
1, 117504, Note_off_c, 0, 33, 0
1, 117504, Note_off_c, 0, 45, 0
1, 117504, Note_on_c, 0, 64, 50
1, 117504, Note_on_c, 0, 48, 80
1, 117504, Note_on_c, 0, 52, 80
1, 117696, Note_off_c, 0, 52, 0
1, 117696, Note_off_c, 0, 48, 0
1, 117696, Note_off_c, 0, 64, 0
1, 117888, Note_on_c, 0, 64, 50
1, 118080, Note_off_c, 0, 64, 0
1, 118272, Note_on_c, 0, 64, 50
1, 118272, Note_on_c, 0, 40, 69
1, 118464, Note_off_c, 0, 64, 0
1, 118656, Note_off_c, 0, 40, 0
1, 118656, Note_on_c, 0, 64, 50
1, 118848, Note_off_c, 0, 64, 0
1, 119040, Note_on_c, 0, 64, 50
1, 119040, Note_on_c, 0, 52, 69
1, 119040, Note_on_c, 0, 48, 69
1, 119232, Note_off_c, 0, 48, 0
1, 119232, Note_off_c, 0, 52, 0
1, 119232, Note_off_c, 0, 64, 0
1, 119424, Note_on_c, 0, 64, 50
1, 119520, Note_on_c, 0, 61, 50
1, 119616, Note_off_c, 0, 61, 0
1, 119616, Note_off_c, 0, 64, 0
1, 119808, Note_on_c, 0, 64, 50
1, 119808, Note_on_c, 0, 45, 69
1, 120000, Note_off_c, 0, 64, 0
1, 120192, Note_off_c, 0, 45, 0
1, 120192, Note_on_c, 0, 64, 50
1, 120384, Note_off_c, 0, 64, 0
1, 120576, Note_on_c, 0, 64, 50
1, 120576, Note_on_c, 0, 48, 69
1, 120576, Note_on_c, 0, 52, 69
1, 120768, Note_off_c, 0, 52, 0
1, 120768, Note_off_c, 0, 48, 0
1, 120768, Note_off_c, 0, 64, 0
1, 120960, Note_on_c, 0, 64, 50
1, 121152, Note_off_c, 0, 64, 0
1, 121344, Note_on_c, 0, 64, 50
1, 121344, Note_on_c, 0, 40, 69
1, 121536, Note_off_c, 0, 64, 0
1, 121728, Note_off_c, 0, 40, 0
1, 121728, Note_on_c, 0, 64, 50
1, 121920, Note_off_c, 0, 64, 0
1, 122112, Note_on_c, 0, 64, 50
1, 122112, Note_on_c, 0, 52, 69
1, 122112, Note_on_c, 0, 48, 69
1, 122304, Note_off_c, 0, 48, 0
1, 122304, Note_off_c, 0, 52, 0
1, 122304, Note_off_c, 0, 64, 0
1, 122496, Note_on_c, 0, 64, 50
1, 122688, Note_off_c, 0, 64, 0
1, 122880, Note_on_c, 0, 64, 50
1, 122880, Note_on_c, 0, 45, 69
1, 123072, Note_off_c, 0, 64, 0
1, 123264, Note_off_c, 0, 45, 0
1, 123264, Note_on_c, 0, 64, 50
1, 123456, Note_off_c, 0, 64, 0
1, 123648, Note_on_c, 0, 64, 50
1, 123648, Note_on_c, 0, 48, 69
1, 123648, Note_on_c, 0, 52, 69
1, 123648, Note_on_c, 0, 58, 50
1, 123744, Note_off_c, 0, 58, 0
1, 123840, Note_off_c, 0, 52, 0
1, 123840, Note_off_c, 0, 48, 0
1, 123840, Note_off_c, 0, 64, 0
1, 124032, Note_on_c, 0, 64, 50
1, 124224, Note_off_c, 0, 64, 0
1, 124416, Note_on_c, 0, 64, 50
1, 124416, Note_on_c, 0, 40, 69
1, 124704, Note_off_c, 0, 64, 0
1, 124800, Note_off_c, 0, 40, 0
1, 124800, Note_on_c, 0, 65, 50
1, 125184, Note_off_c, 0, 65, 0
1, 125184, Note_on_c, 0, 52, 69
1, 125184, Note_on_c, 0, 48, 69
1, 125184, Note_on_c, 0, 64, 50
1, 125376, Note_off_c, 0, 48, 0
1, 125376, Note_off_c, 0, 52, 0
1, 125472, Note_off_c, 0, 64, 0
1, 125568, Note_on_c, 0, 63, 50
1, 125856, Note_off_c, 0, 63, 0
1, 125952, Note_on_c, 0, 64, 50
1, 125952, Note_on_c, 0, 45, 69
1, 126240, Note_off_c, 0, 64, 0
1, 126336, Note_off_c, 0, 45, 0
1, 126720, Note_on_c, 0, 48, 69
1, 126720, Note_on_c, 0, 52, 69
1, 126720, Note_on_c, 0, 69, 50
1, 126912, Note_off_c, 0, 69, 0
1, 126912, Note_off_c, 0, 52, 0
1, 126912, Note_off_c, 0, 48, 0
1, 127488, Note_on_c, 0, 40, 69
1, 127488, Note_on_c, 0, 72, 50
1, 127776, Note_on_c, 0, 62, 50
1, 127872, Note_off_c, 0, 62, 0
1, 127872, Note_off_c, 0, 40, 0
1, 128256, Note_on_c, 0, 52, 69
1, 128256, Note_on_c, 0, 48, 69
1, 128448, Note_off_c, 0, 48, 0
1, 128448, Note_off_c, 0, 52, 0
1, 128736, Note_off_c, 0, 72, 0
1, 129024, Note_on_c, 0, 74, 50
1, 129024, Note_on_c, 0, 44, 69
1, 129216, Note_off_c, 0, 74, 0
1, 129408, Note_off_c, 0, 44, 0
1, 129408, Note_on_c, 0, 74, 50
1, 129600, Note_off_c, 0, 74, 0
1, 129792, Note_on_c, 0, 74, 50
1, 129792, Note_on_c, 0, 50, 69
1, 129792, Note_on_c, 0, 52, 69
1, 129984, Note_off_c, 0, 52, 0
1, 129984, Note_off_c, 0, 50, 0
1, 129984, Note_off_c, 0, 74, 0
1, 130176, Note_on_c, 0, 74, 50
1, 130368, Note_off_c, 0, 74, 0
1, 130560, Note_on_c, 0, 74, 50
1, 130560, Note_on_c, 0, 40, 69
1, 130752, Note_off_c, 0, 74, 0
1, 130944, Note_off_c, 0, 40, 0
1, 130944, Note_on_c, 0, 72, 50
1, 131136, Note_off_c, 0, 72, 0
1, 131328, Note_on_c, 0, 71, 50
1, 131328, Note_on_c, 0, 52, 69
1, 131328, Note_on_c, 0, 50, 69
1, 131520, Note_off_c, 0, 50, 0
1, 131520, Note_off_c, 0, 52, 0
1, 131520, Note_off_c, 0, 71, 0
1, 131712, Note_on_c, 0, 74, 50
1, 131808, Note_on_c, 0, 58, 50
1, 131904, Note_off_c, 0, 58, 0
1, 131904, Note_off_c, 0, 74, 0
1, 132096, Note_on_c, 0, 72, 50
1, 132096, Note_on_c, 0, 45, 69
1, 132288, Note_off_c, 0, 72, 0
1, 132480, Note_off_c, 0, 45, 0
1, 132480, Note_on_c, 0, 72, 50
1, 132672, Note_off_c, 0, 72, 0
1, 132864, Note_on_c, 0, 72, 50
1, 132864, Note_on_c, 0, 48, 69
1, 132864, Note_on_c, 0, 52, 69
1, 133056, Note_off_c, 0, 52, 0
1, 133056, Note_off_c, 0, 48, 0
1, 133056, Note_off_c, 0, 72, 0
1, 133248, Note_on_c, 0, 72, 50
1, 133440, Note_off_c, 0, 72, 0
1, 133632, Note_on_c, 0, 72, 50
1, 133632, Note_on_c, 0, 40, 69
1, 133824, Note_off_c, 0, 72, 0
1, 134016, Note_off_c, 0, 40, 0
1, 134016, Note_on_c, 0, 71, 50
1, 134208, Note_off_c, 0, 71, 0
1, 134400, Note_on_c, 0, 69, 50
1, 134400, Note_on_c, 0, 52, 69
1, 134400, Note_on_c, 0, 48, 69
1, 134592, Note_off_c, 0, 48, 0
1, 134592, Note_off_c, 0, 52, 0
1, 134592, Note_off_c, 0, 69, 0
1, 134784, Note_on_c, 0, 72, 50
1, 134976, Note_off_c, 0, 72, 0
1, 135168, Note_on_c, 0, 71, 50
1, 135168, Note_on_c, 0, 47, 69
1, 135360, Note_off_c, 0, 71, 0
1, 135552, Note_off_c, 0, 47, 0
1, 135552, Note_on_c, 0, 71, 50
1, 135744, Note_off_c, 0, 71, 0
1, 135744, Note_on_c, 0, 58, 50
1, 135840, Note_off_c, 0, 58, 0
1, 135936, Note_on_c, 0, 71, 50
1, 135936, Note_on_c, 0, 47, 69
1, 135936, Note_on_c, 0, 51, 69
1, 136128, Note_off_c, 0, 51, 0
1, 136128, Note_off_c, 0, 47, 0
1, 136128, Note_off_c, 0, 71, 0
1, 136320, Note_on_c, 0, 71, 50
1, 136512, Note_off_c, 0, 71, 0
1, 136704, Note_on_c, 0, 66, 50
1, 136704, Note_on_c, 0, 42, 69
1, 137088, Note_off_c, 0, 42, 0
1, 137088, Note_off_c, 0, 66, 0
1, 137472, Note_on_c, 0, 71, 50
1, 137472, Note_on_c, 0, 47, 69
1, 137472, Note_on_c, 0, 51, 69
1, 137664, Note_off_c, 0, 51, 0
1, 137664, Note_off_c, 0, 47, 0
1, 137856, Note_off_c, 0, 71, 0
1, 138240, Note_on_c, 0, 68, 85
1, 138240, Note_on_c, 0, 47, 85
1, 138240, Note_on_c, 0, 52, 85
1, 138240, Note_on_c, 0, 56, 85
1, 138624, Note_off_c, 0, 56, 0
1, 138624, Note_off_c, 0, 52, 0
1, 138624, Note_off_c, 0, 47, 0
1, 138624, Note_off_c, 0, 68, 0
1, 139776, Note_on_c, 0, 28, 80
1, 139776, Note_on_c, 0, 40, 80
1, 139776, Note_on_c, 0, 52, 80
1, 141120, Note_on_c, 0, 42, 64
1, 141120, Note_on_c, 0, 30, 64
1, 141216, Note_off_c, 0, 40, 0
1, 141216, Note_off_c, 0, 28, 0
1, 141216, Note_on_c, 0, 44, 64
1, 141216, Note_on_c, 0, 32, 64
1, 141312, Note_off_c, 0, 30, 0
1, 141312, Note_off_c, 0, 42, 0
1, 141312, Note_off_c, 0, 52, 0
1, 141312, Note_on_c, 0, 45, 64
1, 141312, Note_on_c, 0, 33, 64
1, 141312, Note_on_c, 0, 64, 50
1, 141408, Note_off_c, 0, 32, 0
1, 141408, Note_off_c, 0, 44, 0
1, 141504, Note_off_c, 0, 64, 0
1, 141696, Note_on_c, 0, 64, 50
1, 141888, Note_off_c, 0, 64, 0
1, 142080, Note_off_c, 0, 33, 0
1, 142080, Note_off_c, 0, 45, 0
1, 142080, Note_on_c, 0, 64, 50
1, 142080, Note_on_c, 0, 48, 64
1, 142080, Note_on_c, 0, 52, 64
1, 142272, Note_off_c, 0, 64, 0
1, 142464, Note_off_c, 0, 52, 0
1, 142464, Note_off_c, 0, 48, 0
1, 142464, Note_on_c, 0, 64, 50
1, 142656, Note_off_c, 0, 64, 0
1, 142848, Note_on_c, 0, 64, 50
1, 142848, Note_on_c, 0, 40, 64
1, 143040, Note_off_c, 0, 64, 0
1, 143232, Note_off_c, 0, 40, 0
1, 143232, Note_on_c, 0, 64, 50
1, 143424, Note_off_c, 0, 64, 0
1, 143616, Note_on_c, 0, 64, 50
1, 143616, Note_on_c, 0, 48, 64
1, 143616, Note_on_c, 0, 52, 64
1, 143808, Note_off_c, 0, 64, 0
1, 144000, Note_off_c, 0, 52, 0
1, 144000, Note_off_c, 0, 48, 0
1, 144000, Note_on_c, 0, 64, 50
1, 144192, Note_off_c, 0, 64, 0
1, 144384, Note_on_c, 0, 64, 50
1, 144384, Note_on_c, 0, 45, 64
1, 144576, Note_off_c, 0, 64, 0
1, 144768, Note_off_c, 0, 45, 0
1, 144768, Note_on_c, 0, 64, 50
1, 144960, Note_off_c, 0, 64, 0
1, 145152, Note_on_c, 0, 64, 50
1, 145152, Note_on_c, 0, 48, 64
1, 145152, Note_on_c, 0, 52, 64
1, 145344, Note_off_c, 0, 64, 0
1, 145536, Note_off_c, 0, 52, 0
1, 145536, Note_off_c, 0, 48, 0
1, 145536, Note_on_c, 0, 64, 50
1, 145728, Note_off_c, 0, 64, 0
1, 145920, Note_on_c, 0, 64, 50
1, 145920, Note_on_c, 0, 40, 64
1, 146112, Note_off_c, 0, 64, 0
1, 146304, Note_off_c, 0, 40, 0
1, 146304, Note_on_c, 0, 64, 50
1, 146496, Note_off_c, 0, 64, 0
1, 146688, Note_on_c, 0, 64, 50
1, 146688, Note_on_c, 0, 48, 64
1, 146688, Note_on_c, 0, 52, 64
1, 146880, Note_off_c, 0, 64, 0
1, 147072, Note_off_c, 0, 52, 0
1, 147072, Note_off_c, 0, 48, 0
1, 147072, Note_on_c, 0, 64, 50
1, 147264, Note_off_c, 0, 64, 0
1, 147456, Note_on_c, 0, 64, 50
1, 147456, Note_on_c, 0, 45, 64
1, 147648, Note_off_c, 0, 64, 0
1, 147840, Note_off_c, 0, 45, 0
1, 147840, Note_on_c, 0, 65, 50
1, 148032, Note_off_c, 0, 65, 0
1, 148224, Note_on_c, 0, 64, 50
1, 148224, Note_on_c, 0, 52, 64
1, 148224, Note_on_c, 0, 48, 64
1, 148416, Note_off_c, 0, 64, 0
1, 148608, Note_off_c, 0, 48, 0
1, 148608, Note_off_c, 0, 52, 0
1, 148608, Note_on_c, 0, 63, 50
1, 148800, Note_off_c, 0, 63, 0
1, 148992, Note_on_c, 0, 64, 50
1, 148992, Note_on_c, 0, 40, 64
1, 149184, Note_off_c, 0, 64, 0
1, 149376, Note_off_c, 0, 40, 0
1, 149760, Note_on_c, 0, 69, 50
1, 149760, Note_on_c, 0, 52, 64
1, 149760, Note_on_c, 0, 48, 64
1, 150144, Note_off_c, 0, 48, 0
1, 150144, Note_off_c, 0, 52, 0
1, 150144, Note_off_c, 0, 69, 0
1, 150144, Note_on_c, 0, 72, 50
1, 150528, Note_off_c, 0, 72, 0
1, 150528, Note_on_c, 0, 76, 50
1, 150528, Note_on_c, 0, 45, 64
1, 150912, Note_off_c, 0, 45, 0
1, 150912, Note_off_c, 0, 76, 0
1, 151296, Note_on_c, 0, 81, 50
1, 151296, Note_on_c, 0, 52, 64
1, 151296, Note_on_c, 0, 48, 64
1, 151488, Note_off_c, 0, 81, 0
1, 151680, Note_off_c, 0, 48, 0
1, 151680, Note_off_c, 0, 52, 0
1, 152064, Note_on_c, 0, 84, 50
1, 152064, Note_on_c, 0, 40, 64
1, 152448, Note_off_c, 0, 40, 0
1, 152832, Note_on_c, 0, 52, 64
1, 152832, Note_on_c, 0, 48, 64
1, 153216, Note_off_c, 0, 48, 0
1, 153216, Note_off_c, 0, 52, 0
1, 153600, Note_off_c, 0, 84, 0
1, 153600, Note_on_c, 0, 86, 50
1, 153600, Note_on_c, 0, 50, 64
1, 153984, Note_off_c, 0, 50, 0
1, 153984, Note_off_c, 0, 86, 0
1, 153984, Note_on_c, 0, 84, 50
1, 154368, Note_off_c, 0, 84, 0
1, 154368, Note_on_c, 0, 83, 50
1, 154368, Note_on_c, 0, 59, 64
1, 154368, Note_on_c, 0, 53, 64
1, 154560, Note_off_c, 0, 53, 0
1, 154560, Note_off_c, 0, 59, 0
1, 154752, Note_off_c, 0, 83, 0
1, 154752, Note_on_c, 0, 86, 50
1, 155136, Note_off_c, 0, 86, 0
1, 155136, Note_on_c, 0, 84, 50
1, 155136, Note_on_c, 0, 48, 64
1, 155520, Note_off_c, 0, 48, 0
1, 155520, Note_off_c, 0, 84, 0
1, 155520, Note_on_c, 0, 83, 50
1, 155904, Note_off_c, 0, 83, 0
1, 155904, Note_on_c, 0, 81, 50
1, 155904, Note_on_c, 0, 52, 64
1, 155904, Note_on_c, 0, 60, 64
1, 156096, Note_off_c, 0, 60, 0
1, 156096, Note_off_c, 0, 52, 0
1, 156288, Note_off_c, 0, 81, 0
1, 156288, Note_on_c, 0, 84, 50
1, 156672, Note_off_c, 0, 84, 0
1, 156672, Note_on_c, 0, 83, 50
1, 156672, Note_on_c, 0, 47, 64
1, 157056, Note_off_c, 0, 47, 0
1, 157056, Note_off_c, 0, 83, 0
1, 157056, Note_on_c, 0, 81, 50
1, 157440, Note_off_c, 0, 81, 0
1, 157440, Note_on_c, 0, 80, 50
1, 157440, Note_on_c, 0, 50, 64
1, 157440, Note_on_c, 0, 56, 64
1, 157632, Note_off_c, 0, 56, 0
1, 157632, Note_off_c, 0, 50, 0
1, 157824, Note_off_c, 0, 80, 0
1, 157824, Note_on_c, 0, 83, 50
1, 158208, Note_off_c, 0, 83, 0
1, 158208, Note_on_c, 0, 81, 50
1, 158208, Note_on_c, 0, 45, 64
1, 158592, Note_off_c, 0, 45, 0
1, 158592, Note_off_c, 0, 81, 0
1, 158592, Note_on_c, 0, 76, 50
1, 158976, Note_off_c, 0, 76, 0
1, 158976, Note_on_c, 0, 72, 50
1, 158976, Note_on_c, 0, 57, 120
1, 158976, Note_on_c, 0, 48, 120
1, 159168, Note_off_c, 0, 48, 0
1, 159168, Note_off_c, 0, 57, 0
1, 159360, Note_off_c, 0, 72, 0
1, 159360, Note_on_c, 0, 69, 50
1, 159744, Note_off_c, 0, 69, 0
1, 159744, Note_on_c, 0, 77, 50
1, 159744, Note_on_c, 0, 52, 120
1, 159744, Note_on_c, 0, 40, 120
1, 159936, Note_off_c, 0, 40, 0
1, 159936, Note_off_c, 0, 52, 0
1, 160128, Note_off_c, 0, 77, 0
1, 160128, Note_on_c, 0, 76, 50
1, 160512, Note_off_c, 0, 76, 0
1, 160512, Note_on_c, 0, 74, 50
1, 160512, Note_on_c, 0, 54, 120
1, 160512, Note_on_c, 0, 42, 120
1, 160704, Note_off_c, 0, 42, 0
1, 160704, Note_off_c, 0, 54, 0
1, 160896, Note_off_c, 0, 74, 0
1, 160896, Note_on_c, 0, 72, 50
1, 161280, Note_off_c, 0, 72, 0
1, 161280, Note_on_c, 0, 71, 50
1, 161280, Note_on_c, 0, 56, 120
1, 161280, Note_on_c, 0, 44, 120
1, 161472, Note_off_c, 0, 44, 0
1, 161472, Note_off_c, 0, 56, 0
1, 161664, Note_off_c, 0, 71, 0
1, 161664, Note_on_c, 0, 69, 50
1, 162048, Note_off_c, 0, 69, 0
1, 162048, Note_on_c, 0, 68, 50
1, 162048, Note_on_c, 0, 52, 120
1, 162048, Note_on_c, 0, 40, 120
1, 162240, Note_off_c, 0, 40, 0
1, 162240, Note_off_c, 0, 52, 0
1, 162432, Note_off_c, 0, 68, 0
1, 162432, Note_on_c, 0, 71, 50
1, 162816, Note_off_c, 0, 71, 0
1, 162816, Note_on_c, 0, 69, 50
1, 162816, Note_on_c, 0, 45, 120
1, 162816, Note_on_c, 0, 57, 120
1, 163008, Note_off_c, 0, 57, 0
1, 163008, Note_off_c, 0, 45, 0
1, 163200, Note_off_c, 0, 69, 0
1, 164352, Note_on_c, 0, 33, 50
1, 164352, Note_on_c, 0, 45, 50
1, 165696, Note_on_c, 0, 47, 50
1, 165696, Note_on_c, 0, 35, 50
1, 165792, Note_off_c, 0, 45, 0
1, 165792, Note_off_c, 0, 33, 0
1, 165792, Note_on_c, 0, 49, 50
1, 165792, Note_on_c, 0, 37, 50
1, 165888, Note_off_c, 0, 35, 0
1, 165888, Note_off_c, 0, 47, 0
1, 165888, Note_on_c, 0, 50, 50
1, 165888, Note_on_c, 0, 38, 50
1, 165888, Note_on_c, 0, 74, 50
1, 165984, Note_off_c, 0, 37, 0
1, 165984, Note_off_c, 0, 49, 0
1, 166656, Note_off_c, 0, 38, 0
1, 166656, Note_off_c, 0, 50, 0
1, 166656, Note_on_c, 0, 57, 50
1, 166656, Note_on_c, 0, 53, 50
1, 167040, Note_off_c, 0, 53, 0
1, 167040, Note_off_c, 0, 57, 0
1, 167040, Note_off_c, 0, 74, 0
1, 167040, Note_on_c, 0, 73, 50
1, 167232, Note_off_c, 0, 73, 0
1, 167424, Note_on_c, 0, 74, 50
1, 167424, Note_on_c, 0, 45, 50
1, 167616, Note_off_c, 0, 74, 0
1, 167808, Note_off_c, 0, 45, 0
1, 168192, Note_on_c, 0, 76, 50
1, 168192, Note_on_c, 0, 57, 50
1, 168192, Note_on_c, 0, 53, 50
1, 168384, Note_off_c, 0, 76, 0
1, 168576, Note_off_c, 0, 53, 0
1, 168576, Note_off_c, 0, 57, 0
1, 168960, Note_on_c, 0, 77, 50
1, 168960, Note_on_c, 0, 50, 50
1, 169152, Note_off_c, 0, 77, 0
1, 169536, Note_off_c, 0, 50, 0
1, 169728, Note_on_c, 0, 76, 50
1, 169728, Note_on_c, 0, 57, 50
1, 169728, Note_on_c, 0, 53, 50
1, 169920, Note_off_c, 0, 76, 0
1, 170112, Note_off_c, 0, 53, 0
1, 170112, Note_off_c, 0, 57, 0
1, 170496, Note_on_c, 0, 74, 50
1, 170496, Note_on_c, 0, 45, 50
1, 170688, Note_off_c, 0, 74, 0
1, 170880, Note_off_c, 0, 45, 0
1, 171264, Note_on_c, 0, 77, 50
1, 171264, Note_on_c, 0, 57, 50
1, 171264, Note_on_c, 0, 53, 50
1, 171456, Note_off_c, 0, 77, 0
1, 171648, Note_off_c, 0, 53, 0
1, 171648, Note_off_c, 0, 57, 0
1, 172032, Note_on_c, 0, 76, 50
1, 172032, Note_on_c, 0, 48, 50
1, 172608, Note_off_c, 0, 48, 0
1, 172800, Note_on_c, 0, 52, 50
1, 172800, Note_on_c, 0, 57, 50
1, 172992, Note_off_c, 0, 76, 0
1, 173184, Note_off_c, 0, 57, 0
1, 173184, Note_off_c, 0, 52, 0
1, 173184, Note_on_c, 0, 74, 50
1, 173376, Note_off_c, 0, 74, 0
1, 173568, Note_on_c, 0, 72, 50
1, 173568, Note_on_c, 0, 45, 50
1, 173760, Note_off_c, 0, 72, 0
1, 173952, Note_off_c, 0, 45, 0
1, 174336, Note_on_c, 0, 74, 50
1, 174336, Note_on_c, 0, 52, 50
1, 174336, Note_on_c, 0, 57, 50
1, 174528, Note_off_c, 0, 74, 0
1, 174720, Note_off_c, 0, 57, 0
1, 174720, Note_off_c, 0, 52, 0
1, 175104, Note_on_c, 0, 76, 50
1, 175104, Note_on_c, 0, 48, 50
1, 175680, Note_off_c, 0, 48, 0
1, 175872, Note_on_c, 0, 52, 50
1, 175872, Note_on_c, 0, 57, 50
1, 176256, Note_off_c, 0, 57, 0
1, 176256, Note_off_c, 0, 52, 0
1, 176640, Note_on_c, 0, 45, 50
1, 177024, Note_off_c, 0, 45, 0
1, 177024, Note_off_c, 0, 76, 0
1, 177408, Note_on_c, 0, 72, 50
1, 177408, Note_on_c, 0, 52, 50
1, 177408, Note_on_c, 0, 57, 50
1, 177600, Note_off_c, 0, 72, 0
1, 177792, Note_off_c, 0, 57, 0
1, 177792, Note_off_c, 0, 52, 0
1, 178176, Note_on_c, 0, 71, 50
1, 178176, Note_on_c, 0, 47, 50
1, 178752, Note_off_c, 0, 47, 0
1, 178944, Note_on_c, 0, 50, 50
1, 178944, Note_on_c, 0, 56, 50
1, 179136, Note_off_c, 0, 71, 0
1, 179328, Note_off_c, 0, 56, 0
1, 179328, Note_off_c, 0, 50, 0
1, 179328, Note_on_c, 0, 70, 50
1, 179520, Note_off_c, 0, 70, 0
1, 179712, Note_on_c, 0, 71, 50
1, 179712, Note_on_c, 0, 40, 50
1, 179904, Note_off_c, 0, 71, 0
1, 180096, Note_off_c, 0, 40, 0
1, 180480, Note_on_c, 0, 72, 50
1, 180480, Note_on_c, 0, 50, 50
1, 180480, Note_on_c, 0, 56, 50
1, 180672, Note_off_c, 0, 72, 0
1, 180864, Note_off_c, 0, 56, 0
1, 180864, Note_off_c, 0, 50, 0
1, 181248, Note_on_c, 0, 74, 50
1, 181248, Note_on_c, 0, 47, 50
1, 181440, Note_off_c, 0, 74, 0
1, 181824, Note_off_c, 0, 47, 0
1, 182016, Note_on_c, 0, 72, 50
1, 182016, Note_on_c, 0, 50, 50
1, 182016, Note_on_c, 0, 56, 50
1, 182208, Note_off_c, 0, 72, 0
1, 182400, Note_off_c, 0, 56, 0
1, 182400, Note_off_c, 0, 50, 0
1, 182784, Note_on_c, 0, 71, 50
1, 182784, Note_on_c, 0, 40, 50
1, 182976, Note_off_c, 0, 71, 0
1, 183168, Note_off_c, 0, 40, 0
1, 183552, Note_on_c, 0, 74, 50
1, 183552, Note_on_c, 0, 50, 50
1, 183552, Note_on_c, 0, 56, 50
1, 183744, Note_off_c, 0, 74, 0
1, 183936, Note_off_c, 0, 56, 0
1, 183936, Note_off_c, 0, 50, 0
1, 184320, Note_on_c, 0, 72, 50
1, 184320, Note_on_c, 0, 48, 120
1, 184320, Note_on_c, 0, 36, 120
1, 184512, Note_off_c, 0, 72, 0
1, 184704, Note_off_c, 0, 36, 0
1, 184704, Note_off_c, 0, 48, 0
1, 185088, Note_on_c, 0, 69, 50
1, 185088, Note_on_c, 0, 33, 120
1, 185088, Note_on_c, 0, 45, 120
1, 185280, Note_off_c, 0, 69, 0
1, 185472, Note_off_c, 0, 45, 0
1, 185472, Note_off_c, 0, 33, 0
1, 185856, Note_on_c, 0, 72, 50
1, 185856, Note_on_c, 0, 48, 120
1, 185856, Note_on_c, 0, 36, 120
1, 186048, Note_off_c, 0, 72, 0
1, 186240, Note_off_c, 0, 36, 0
1, 186240, Note_off_c, 0, 48, 0
1, 186624, Note_on_c, 0, 76, 50
1, 186624, Note_on_c, 0, 40, 120
1, 186624, Note_on_c, 0, 52, 120
1, 186816, Note_off_c, 0, 76, 0
1, 187008, Note_off_c, 0, 52, 0
1, 187008, Note_off_c, 0, 40, 0
1, 187392, Note_on_c, 0, 81, 50
1, 187392, Note_on_c, 0, 57, 120
1, 187392, Note_on_c, 0, 45, 120
1, 187584, Note_off_c, 0, 81, 0
1, 187776, Note_off_c, 0, 45, 0
1, 187776, Note_off_c, 0, 57, 0
1, 188160, Note_on_c, 0, 76, 50
1, 188352, Note_off_c, 0, 76, 0
1, 188928, Note_on_c, 0, 72, 50
1, 188928, Note_on_c, 0, 33, 110
1, 188928, Note_on_c, 0, 45, 110
1, 189120, Note_off_c, 0, 72, 0
1, 189696, Note_on_c, 0, 69, 50
1, 189888, Note_off_c, 0, 69, 0
1, 190464, Note_off_c, 0, 45, 0
1, 190464, Note_off_c, 0, 33, 0
1, 190464, Note_on_c, 0, 50, 50
1, 190464, Note_on_c, 0, 74, 50
1, 191232, Note_off_c, 0, 50, 0
1, 191232, Note_on_c, 0, 57, 50
1, 191232, Note_on_c, 0, 53, 50
1, 191616, Note_off_c, 0, 53, 0
1, 191616, Note_off_c, 0, 57, 0
1, 191616, Note_off_c, 0, 74, 0
1, 191616, Note_on_c, 0, 73, 50
1, 191808, Note_off_c, 0, 73, 0
1, 192000, Note_on_c, 0, 45, 50
1, 192000, Note_on_c, 0, 74, 50
1, 192192, Note_off_c, 0, 74, 0
1, 192384, Note_off_c, 0, 45, 0
1, 192768, Note_on_c, 0, 57, 50
1, 192768, Note_on_c, 0, 53, 50
1, 192768, Note_on_c, 0, 76, 50
1, 192960, Note_off_c, 0, 76, 0
1, 193152, Note_off_c, 0, 53, 0
1, 193152, Note_off_c, 0, 57, 0
1, 193536, Note_on_c, 0, 50, 50
1, 193536, Note_on_c, 0, 77, 50
1, 193728, Note_off_c, 0, 77, 0
1, 194112, Note_off_c, 0, 50, 0
1, 194304, Note_on_c, 0, 57, 50
1, 194304, Note_on_c, 0, 53, 50
1, 194304, Note_on_c, 0, 76, 50
1, 194496, Note_off_c, 0, 76, 0
1, 194688, Note_off_c, 0, 53, 0
1, 194688, Note_off_c, 0, 57, 0
1, 195072, Note_on_c, 0, 45, 50
1, 195072, Note_on_c, 0, 74, 50
1, 195264, Note_off_c, 0, 74, 0
1, 195456, Note_off_c, 0, 45, 0
1, 195840, Note_on_c, 0, 57, 50
1, 195840, Note_on_c, 0, 53, 50
1, 195840, Note_on_c, 0, 77, 50
1, 196032, Note_off_c, 0, 77, 0
1, 196224, Note_off_c, 0, 53, 0
1, 196224, Note_off_c, 0, 57, 0
1, 196608, Note_on_c, 0, 48, 50
1, 196608, Note_on_c, 0, 76, 50
1, 197184, Note_off_c, 0, 48, 0
1, 197376, Note_on_c, 0, 52, 50
1, 197376, Note_on_c, 0, 57, 50
1, 197568, Note_off_c, 0, 76, 0
1, 197760, Note_off_c, 0, 57, 0
1, 197760, Note_off_c, 0, 52, 0
1, 197760, Note_on_c, 0, 74, 50
1, 197952, Note_off_c, 0, 74, 0
1, 198144, Note_on_c, 0, 45, 50
1, 198144, Note_on_c, 0, 72, 50
1, 198336, Note_off_c, 0, 72, 0
1, 198528, Note_off_c, 0, 45, 0
1, 198912, Note_on_c, 0, 52, 50
1, 198912, Note_on_c, 0, 57, 50
1, 198912, Note_on_c, 0, 74, 50
1, 199104, Note_off_c, 0, 74, 0
1, 199296, Note_off_c, 0, 57, 0
1, 199296, Note_off_c, 0, 52, 0
1, 199680, Note_on_c, 0, 48, 50
1, 199680, Note_on_c, 0, 76, 50
1, 200256, Note_off_c, 0, 76, 0
1, 200256, Note_off_c, 0, 48, 0
1, 200448, Note_on_c, 0, 52, 50
1, 200448, Note_on_c, 0, 57, 50
1, 200832, Note_off_c, 0, 57, 0
1, 200832, Note_off_c, 0, 52, 0
1, 201216, Note_on_c, 0, 45, 50
1, 201216, Note_on_c, 0, 81, 50
1, 201600, Note_off_c, 0, 45, 0
1, 201984, Note_on_c, 0, 52, 50
1, 201984, Note_on_c, 0, 57, 50
1, 202368, Note_off_c, 0, 57, 0
1, 202368, Note_off_c, 0, 52, 0
1, 202752, Note_off_c, 0, 81, 0
1, 202752, Note_on_c, 0, 47, 50
1, 203328, Note_off_c, 0, 47, 0
1, 203520, Note_on_c, 0, 53, 50
1, 203520, Note_on_c, 0, 57, 50
1, 203520, Note_on_c, 0, 74, 50
1, 203904, Note_off_c, 0, 57, 0
1, 203904, Note_off_c, 0, 53, 0
1, 204288, Note_on_c, 0, 50, 50
1, 204672, Note_off_c, 0, 50, 0
1, 204672, Note_off_c, 0, 74, 0
1, 205056, Note_on_c, 0, 53, 50
1, 205056, Note_on_c, 0, 57, 50
1, 205056, Note_on_c, 0, 77, 50
1, 205248, Note_off_c, 0, 77, 0
1, 205440, Note_off_c, 0, 57, 0
1, 205440, Note_off_c, 0, 53, 0
1, 205824, Note_on_c, 0, 40, 114
1, 205824, Note_on_c, 0, 76, 50
1, 205824, Note_on_c, 0, 52, 114
1, 205824, Note_on_c, 0, 56, 114
1, 206016, Note_off_c, 0, 76, 0
1, 206208, Note_off_c, 0, 56, 0
1, 206208, Note_off_c, 0, 52, 0
1, 206208, Note_off_c, 0, 40, 0
1, 206592, Note_on_c, 0, 72, 50
1, 206592, Note_on_c, 0, 36, 114
1, 206592, Note_on_c, 0, 48, 114
1, 206784, Note_off_c, 0, 72, 0
1, 206976, Note_off_c, 0, 48, 0
1, 206976, Note_off_c, 0, 36, 0
1, 207360, Note_on_c, 0, 74, 50
1, 207360, Note_on_c, 0, 38, 114
1, 207360, Note_on_c, 0, 50, 114
1, 207552, Note_off_c, 0, 74, 0
1, 207744, Note_off_c, 0, 50, 0
1, 207744, Note_off_c, 0, 38, 0
1, 208128, Note_on_c, 0, 71, 50
1, 208128, Note_on_c, 0, 35, 114
1, 208128, Note_on_c, 0, 47, 114
1, 208320, Note_off_c, 0, 71, 0
1, 208512, Note_off_c, 0, 47, 0
1, 208512, Note_off_c, 0, 35, 0
1, 208896, Note_on_c, 0, 69, 50
1, 208896, Note_on_c, 0, 33, 114
1, 208896, Note_on_c, 0, 45, 114
1, 209088, Note_off_c, 0, 69, 0
1, 209280, Note_off_c, 0, 45, 0
1, 209280, Note_off_c, 0, 33, 0
1, 211200, Note_on_c, 0, 28, 110
1, 211200, Note_on_c, 0, 40, 110
1, 211200, Note_on_c, 0, 76, 125
1, 211200, Note_on_c, 0, 52, 110
1, 211200, Note_on_c, 0, 56, 110
1, 211200, Note_on_c, 0, 59, 50
1, 211392, Note_off_c, 0, 76, 0
1, 211584, Note_off_c, 0, 59, 0
1, 211584, Note_off_c, 0, 56, 0
1, 211584, Note_off_c, 0, 52, 0
1, 211584, Note_off_c, 0, 40, 0
1, 211584, Note_off_c, 0, 28, 0
1, 211968, Note_on_c, 0, 33, 110
1, 211968, Note_on_c, 0, 45, 110
1, 211968, Note_on_c, 0, 81, 125
1, 211968, Note_on_c, 0, 52, 110
1, 211968, Note_on_c, 0, 57, 110
1, 211968, Note_on_c, 0, 60, 50
1, 212160, Note_off_c, 0, 81, 0
1, 212352, Note_off_c, 0, 60, 0
1, 212352, Note_off_c, 0, 57, 0
1, 212352, Note_off_c, 0, 52, 0
1, 212352, Note_off_c, 0, 45, 0
1, 212352, Note_off_c, 0, 33, 0
1, 213504, Note_on_c, 0, 28, 89
1, 213504, Note_on_c, 0, 40, 89
1, 214848, Note_on_c, 0, 42, 89
1, 214848, Note_on_c, 0, 30, 89
1, 214944, Note_off_c, 0, 40, 0
1, 214944, Note_off_c, 0, 28, 0
1, 214944, Note_on_c, 0, 44, 89
1, 214944, Note_on_c, 0, 32, 89
1, 215040, Note_off_c, 0, 30, 0
1, 215040, Note_off_c, 0, 42, 0
1, 215040, Note_on_c, 0, 45, 89
1, 215040, Note_on_c, 0, 33, 89
1, 215040, Note_on_c, 0, 64, 44
1, 215040, Note_on_c, 0, 76, 44
1, 215136, Note_off_c, 0, 32, 0
1, 215136, Note_off_c, 0, 44, 0
1, 215232, Note_off_c, 0, 76, 0
1, 215232, Note_off_c, 0, 64, 0
1, 215424, Note_on_c, 0, 76, 44
1, 215424, Note_on_c, 0, 64, 44
1, 215616, Note_off_c, 0, 64, 0
1, 215616, Note_off_c, 0, 76, 0
1, 215808, Note_off_c, 0, 33, 0
1, 215808, Note_off_c, 0, 45, 0
1, 215808, Note_on_c, 0, 48, 89
1, 215808, Note_on_c, 0, 52, 89
1, 215808, Note_on_c, 0, 64, 44
1, 215808, Note_on_c, 0, 76, 44
1, 216000, Note_off_c, 0, 76, 0
1, 216000, Note_off_c, 0, 64, 0
1, 216000, Note_off_c, 0, 52, 0
1, 216000, Note_off_c, 0, 48, 0
1, 216192, Note_on_c, 0, 76, 44
1, 216192, Note_on_c, 0, 64, 44
1, 216384, Note_off_c, 0, 64, 0
1, 216384, Note_off_c, 0, 76, 0
1, 216576, Note_on_c, 0, 40, 89
1, 216576, Note_on_c, 0, 64, 44
1, 216576, Note_on_c, 0, 76, 44
1, 216768, Note_off_c, 0, 76, 0
1, 216768, Note_off_c, 0, 64, 0
1, 216768, Note_off_c, 0, 40, 0
1, 216960, Note_on_c, 0, 76, 44
1, 216960, Note_on_c, 0, 64, 44
1, 217152, Note_off_c, 0, 64, 0
1, 217152, Note_off_c, 0, 76, 0
1, 217344, Note_on_c, 0, 48, 89
1, 217344, Note_on_c, 0, 52, 89
1, 217344, Note_on_c, 0, 64, 44
1, 217344, Note_on_c, 0, 76, 44
1, 217536, Note_off_c, 0, 76, 0
1, 217536, Note_off_c, 0, 64, 0
1, 217536, Note_off_c, 0, 52, 0
1, 217536, Note_off_c, 0, 48, 0
1, 217728, Note_on_c, 0, 76, 44
1, 217728, Note_on_c, 0, 64, 44
1, 217920, Note_off_c, 0, 64, 0
1, 217920, Note_off_c, 0, 76, 0
1, 218112, Note_on_c, 0, 45, 89
1, 218112, Note_on_c, 0, 64, 44
1, 218112, Note_on_c, 0, 76, 44
1, 218112, Note_on_c, 0, 88, 15
1, 218208, Note_off_c, 0, 88, 0
1, 218304, Note_off_c, 0, 76, 0
1, 218304, Note_off_c, 0, 64, 0
1, 218304, Note_off_c, 0, 45, 0
1, 218304, Note_on_c, 0, 88, 15
1, 218400, Note_off_c, 0, 88, 0
1, 218496, Note_on_c, 0, 76, 44
1, 218496, Note_on_c, 0, 64, 44
1, 218496, Note_on_c, 0, 88, 15
1, 218592, Note_off_c, 0, 88, 0
1, 218688, Note_off_c, 0, 64, 0
1, 218688, Note_off_c, 0, 76, 0
1, 218688, Note_on_c, 0, 88, 15
1, 218784, Note_off_c, 0, 88, 0
1, 218880, Note_on_c, 0, 52, 89
1, 218880, Note_on_c, 0, 48, 89
1, 218880, Note_on_c, 0, 64, 44
1, 218880, Note_on_c, 0, 76, 44
1, 218880, Note_on_c, 0, 88, 25
1, 218976, Note_off_c, 0, 88, 0
1, 219072, Note_off_c, 0, 76, 0
1, 219072, Note_off_c, 0, 64, 0
1, 219072, Note_off_c, 0, 48, 0
1, 219072, Note_off_c, 0, 52, 0
1, 219072, Note_on_c, 0, 88, 25
1, 219168, Note_off_c, 0, 88, 0
1, 219264, Note_on_c, 0, 76, 44
1, 219264, Note_on_c, 0, 64, 44
1, 219264, Note_on_c, 0, 88, 25
1, 219360, Note_off_c, 0, 88, 0
1, 219456, Note_off_c, 0, 64, 0
1, 219456, Note_off_c, 0, 76, 0
1, 219456, Note_on_c, 0, 88, 25
1, 219552, Note_off_c, 0, 88, 0
1, 219648, Note_on_c, 0, 40, 89
1, 219648, Note_on_c, 0, 64, 44
1, 219648, Note_on_c, 0, 76, 44
1, 219648, Note_on_c, 0, 88, 34
1, 219744, Note_off_c, 0, 88, 0
1, 219840, Note_off_c, 0, 76, 0
1, 219840, Note_off_c, 0, 64, 0
1, 219840, Note_off_c, 0, 40, 0
1, 219840, Note_on_c, 0, 88, 34
1, 219936, Note_off_c, 0, 88, 0
1, 220032, Note_on_c, 0, 76, 44
1, 220032, Note_on_c, 0, 64, 44
1, 220032, Note_on_c, 0, 88, 34
1, 220128, Note_off_c, 0, 88, 0
1, 220224, Note_off_c, 0, 64, 0
1, 220224, Note_off_c, 0, 76, 0
1, 220224, Note_on_c, 0, 88, 34
1, 220320, Note_off_c, 0, 88, 0
1, 220416, Note_on_c, 0, 48, 89
1, 220416, Note_on_c, 0, 52, 89
1, 220416, Note_on_c, 0, 64, 44
1, 220416, Note_on_c, 0, 76, 44
1, 220416, Note_on_c, 0, 88, 44
1, 220512, Note_off_c, 0, 88, 0
1, 220608, Note_off_c, 0, 76, 0
1, 220608, Note_off_c, 0, 64, 0
1, 220608, Note_off_c, 0, 52, 0
1, 220608, Note_off_c, 0, 48, 0
1, 220608, Note_on_c, 0, 88, 44
1, 220704, Note_off_c, 0, 88, 0
1, 220800, Note_on_c, 0, 76, 44
1, 220800, Note_on_c, 0, 64, 44
1, 220800, Note_on_c, 0, 88, 44
1, 220896, Note_off_c, 0, 88, 0
1, 220992, Note_off_c, 0, 64, 0
1, 220992, Note_off_c, 0, 76, 0
1, 220992, Note_on_c, 0, 88, 44
1, 221088, Note_off_c, 0, 88, 0
1, 221184, Note_on_c, 0, 64, 44
1, 221184, Note_on_c, 0, 76, 44
1, 221184, Note_on_c, 0, 45, 89
1, 221184, Note_on_c, 0, 88, 50
1, 221280, Note_off_c, 0, 88, 0
1, 221376, Note_off_c, 0, 45, 0
1, 221376, Note_off_c, 0, 76, 0
1, 221376, Note_off_c, 0, 64, 0
1, 221376, Note_on_c, 0, 88, 50
1, 221472, Note_off_c, 0, 88, 0
1, 221568, Note_on_c, 0, 76, 44
1, 221568, Note_on_c, 0, 64, 44
1, 221568, Note_on_c, 0, 88, 50
1, 221664, Note_off_c, 0, 88, 0
1, 221760, Note_off_c, 0, 64, 0
1, 221760, Note_off_c, 0, 76, 0
1, 221760, Note_on_c, 0, 88, 50
1, 221856, Note_off_c, 0, 88, 0
1, 221952, Note_on_c, 0, 64, 44
1, 221952, Note_on_c, 0, 76, 44
1, 221952, Note_on_c, 0, 52, 89
1, 221952, Note_on_c, 0, 48, 89
1, 221952, Note_on_c, 0, 88, 50
1, 222048, Note_off_c, 0, 88, 0
1, 222144, Note_off_c, 0, 48, 0
1, 222144, Note_off_c, 0, 52, 0
1, 222144, Note_off_c, 0, 76, 0
1, 222144, Note_off_c, 0, 64, 0
1, 222144, Note_on_c, 0, 88, 50
1, 222240, Note_off_c, 0, 88, 0
1, 222336, Note_on_c, 0, 76, 44
1, 222336, Note_on_c, 0, 64, 44
1, 222336, Note_on_c, 0, 88, 50
1, 222432, Note_off_c, 0, 88, 0
1, 222528, Note_off_c, 0, 64, 0
1, 222528, Note_off_c, 0, 76, 0
1, 222528, Note_on_c, 0, 88, 50
1, 222624, Note_off_c, 0, 88, 0
1, 222720, Note_on_c, 0, 64, 44
1, 222720, Note_on_c, 0, 76, 44
1, 222720, Note_on_c, 0, 40, 89
1, 222720, Note_on_c, 0, 88, 50
1, 222816, Note_off_c, 0, 88, 0
1, 222912, Note_off_c, 0, 40, 0
1, 222912, Note_off_c, 0, 76, 0
1, 222912, Note_off_c, 0, 64, 0
1, 223104, Note_on_c, 0, 77, 44
1, 223104, Note_on_c, 0, 65, 44
1, 223296, Note_off_c, 0, 65, 0
1, 223296, Note_off_c, 0, 77, 0
1, 223488, Note_on_c, 0, 64, 44
1, 223488, Note_on_c, 0, 76, 44
1, 223488, Note_on_c, 0, 48, 89
1, 223488, Note_on_c, 0, 52, 89
1, 223680, Note_off_c, 0, 52, 0
1, 223680, Note_off_c, 0, 48, 0
1, 223680, Note_off_c, 0, 76, 0
1, 223680, Note_off_c, 0, 64, 0
1, 223872, Note_on_c, 0, 75, 44
1, 223872, Note_on_c, 0, 63, 44
1, 224064, Note_off_c, 0, 63, 0
1, 224064, Note_off_c, 0, 75, 0
1, 224256, Note_on_c, 0, 76, 44
1, 224256, Note_on_c, 0, 64, 44
1, 224256, Note_on_c, 0, 45, 89
1, 224448, Note_off_c, 0, 45, 0
1, 224448, Note_off_c, 0, 64, 0
1, 224448, Note_off_c, 0, 76, 0
1, 225024, Note_on_c, 0, 81, 44
1, 225024, Note_on_c, 0, 69, 44
1, 225024, Note_on_c, 0, 52, 89
1, 225024, Note_on_c, 0, 48, 89
1, 225216, Note_off_c, 0, 48, 0
1, 225216, Note_off_c, 0, 52, 0
1, 225216, Note_off_c, 0, 69, 0
1, 225216, Note_off_c, 0, 81, 0
1, 225792, Note_on_c, 0, 84, 44
1, 225792, Note_on_c, 0, 72, 44
1, 225792, Note_on_c, 0, 40, 89
1, 225984, Note_off_c, 0, 40, 0
1, 226560, Note_on_c, 0, 48, 89
1, 226560, Note_on_c, 0, 52, 89
1, 226752, Note_off_c, 0, 52, 0
1, 226752, Note_off_c, 0, 48, 0
1, 226944, Note_off_c, 0, 72, 0
1, 226944, Note_off_c, 0, 84, 0
1, 227328, Note_on_c, 0, 74, 44
1, 227328, Note_on_c, 0, 86, 44
1, 227328, Note_on_c, 0, 44, 89
1, 227520, Note_off_c, 0, 44, 0
1, 227520, Note_off_c, 0, 86, 0
1, 227520, Note_off_c, 0, 74, 0
1, 227712, Note_on_c, 0, 86, 44
1, 227712, Note_on_c, 0, 74, 44
1, 227904, Note_off_c, 0, 74, 0
1, 227904, Note_off_c, 0, 86, 0
1, 228096, Note_on_c, 0, 74, 44
1, 228096, Note_on_c, 0, 86, 44
1, 228096, Note_on_c, 0, 52, 89
1, 228096, Note_on_c, 0, 50, 89
1, 228288, Note_off_c, 0, 50, 0
1, 228288, Note_off_c, 0, 52, 0
1, 228288, Note_off_c, 0, 86, 0
1, 228288, Note_off_c, 0, 74, 0
1, 228480, Note_on_c, 0, 86, 44
1, 228480, Note_on_c, 0, 74, 44
1, 228672, Note_off_c, 0, 74, 0
1, 228672, Note_off_c, 0, 86, 0
1, 228864, Note_on_c, 0, 74, 44
1, 228864, Note_on_c, 0, 86, 44
1, 228864, Note_on_c, 0, 40, 89
1, 229056, Note_off_c, 0, 40, 0
1, 229056, Note_off_c, 0, 86, 0
1, 229056, Note_off_c, 0, 74, 0
1, 229248, Note_on_c, 0, 84, 34
1, 229248, Note_on_c, 0, 72, 34
1, 229440, Note_off_c, 0, 72, 0
1, 229440, Note_off_c, 0, 84, 0
1, 229632, Note_on_c, 0, 71, 44
1, 229632, Note_on_c, 0, 83, 44
1, 229632, Note_on_c, 0, 50, 89
1, 229632, Note_on_c, 0, 52, 89
1, 229824, Note_off_c, 0, 52, 0
1, 229824, Note_off_c, 0, 50, 0
1, 229824, Note_off_c, 0, 83, 0
1, 229824, Note_off_c, 0, 71, 0
1, 230016, Note_on_c, 0, 86, 44
1, 230016, Note_on_c, 0, 74, 44
1, 230208, Note_off_c, 0, 74, 0
1, 230208, Note_off_c, 0, 86, 0
1, 230400, Note_on_c, 0, 72, 34
1, 230400, Note_on_c, 0, 84, 34
1, 230400, Note_on_c, 0, 45, 89
1, 230592, Note_off_c, 0, 45, 0
1, 230592, Note_off_c, 0, 84, 0
1, 230592, Note_off_c, 0, 72, 0
1, 230784, Note_on_c, 0, 84, 34
1, 230784, Note_on_c, 0, 72, 34
1, 230976, Note_off_c, 0, 72, 0
1, 230976, Note_off_c, 0, 84, 0
1, 231168, Note_on_c, 0, 72, 34
1, 231168, Note_on_c, 0, 84, 34
1, 231168, Note_on_c, 0, 52, 89
1, 231168, Note_on_c, 0, 48, 89
1, 231360, Note_off_c, 0, 48, 0
1, 231360, Note_off_c, 0, 52, 0
1, 231360, Note_off_c, 0, 84, 0
1, 231360, Note_off_c, 0, 72, 0
1, 231552, Note_on_c, 0, 84, 34
1, 231552, Note_on_c, 0, 72, 34
1, 231744, Note_off_c, 0, 72, 0
1, 231744, Note_off_c, 0, 84, 0
1, 231936, Note_on_c, 0, 72, 34
1, 231936, Note_on_c, 0, 84, 34
1, 231936, Note_on_c, 0, 40, 89
1, 232128, Note_off_c, 0, 40, 0
1, 232128, Note_off_c, 0, 84, 0
1, 232128, Note_off_c, 0, 72, 0
1, 232320, Note_on_c, 0, 83, 44
1, 232320, Note_on_c, 0, 71, 44
1, 232512, Note_off_c, 0, 71, 0
1, 232512, Note_off_c, 0, 83, 0
1, 232704, Note_on_c, 0, 69, 44
1, 232704, Note_on_c, 0, 81, 44
1, 232704, Note_on_c, 0, 48, 89
1, 232704, Note_on_c, 0, 52, 89
1, 232896, Note_off_c, 0, 52, 0
1, 232896, Note_off_c, 0, 48, 0
1, 232896, Note_off_c, 0, 81, 0
1, 232896, Note_off_c, 0, 69, 0
1, 233088, Note_on_c, 0, 84, 34
1, 233088, Note_on_c, 0, 72, 44
1, 233280, Note_off_c, 0, 72, 0
1, 233280, Note_off_c, 0, 84, 0
1, 233472, Note_on_c, 0, 71, 44
1, 233472, Note_on_c, 0, 83, 44
1, 233472, Note_on_c, 0, 47, 89
1, 233664, Note_off_c, 0, 47, 0
1, 233664, Note_off_c, 0, 83, 0
1, 233664, Note_off_c, 0, 71, 0
1, 233856, Note_on_c, 0, 83, 44
1, 233856, Note_on_c, 0, 71, 44
1, 234048, Note_off_c, 0, 71, 0
1, 234048, Note_off_c, 0, 83, 0
1, 234240, Note_on_c, 0, 71, 44
1, 234240, Note_on_c, 0, 83, 44
1, 234240, Note_on_c, 0, 59, 34
1, 234240, Note_on_c, 0, 51, 89
1, 234432, Note_off_c, 0, 51, 0
1, 234432, Note_off_c, 0, 59, 0
1, 234432, Note_off_c, 0, 83, 0
1, 234432, Note_off_c, 0, 71, 0
1, 234624, Note_on_c, 0, 83, 44
1, 234624, Note_on_c, 0, 71, 44
1, 234816, Note_off_c, 0, 71, 0
1, 234816, Note_off_c, 0, 83, 0
1, 235008, Note_on_c, 0, 66, 44
1, 235008, Note_on_c, 0, 78, 44
1, 235008, Note_on_c, 0, 42, 89
1, 235200, Note_off_c, 0, 42, 0
1, 235200, Note_off_c, 0, 78, 0
1, 235200, Note_off_c, 0, 66, 0
1, 235776, Note_on_c, 0, 71, 44
1, 235776, Note_on_c, 0, 83, 44
1, 235776, Note_on_c, 0, 59, 34
1, 235776, Note_on_c, 0, 51, 89
1, 235968, Note_off_c, 0, 51, 0
1, 235968, Note_off_c, 0, 59, 0
1, 235968, Note_off_c, 0, 83, 0
1, 235968, Note_off_c, 0, 71, 0
1, 236544, Note_on_c, 0, 80, 110
1, 236544, Note_on_c, 0, 68, 110
1, 236544, Note_on_c, 0, 56, 110
1, 236544, Note_on_c, 0, 52, 110
1, 236544, Note_on_c, 0, 47, 110
1, 236736, Note_off_c, 0, 47, 0
1, 236736, Note_off_c, 0, 52, 0
1, 236736, Note_off_c, 0, 56, 0
1, 236736, Note_off_c, 0, 68, 0
1, 236736, Note_off_c, 0, 80, 0
1, 238080, Note_on_c, 0, 52, 85
1, 238080, Note_on_c, 0, 40, 85
1, 238080, Note_on_c, 0, 28, 85
1, 239424, Note_on_c, 0, 42, 85
1, 239424, Note_on_c, 0, 30, 85
1, 239520, Note_off_c, 0, 28, 0
1, 239520, Note_off_c, 0, 40, 0
1, 239520, Note_off_c, 0, 52, 0
1, 239520, Note_on_c, 0, 44, 85
1, 239520, Note_on_c, 0, 32, 85
1, 239616, Note_off_c, 0, 30, 0
1, 239616, Note_off_c, 0, 42, 0
1, 239616, Note_on_c, 0, 45, 85
1, 239616, Note_on_c, 0, 33, 85
1, 239616, Note_on_c, 0, 64, 44
1, 239616, Note_on_c, 0, 76, 44
1, 239712, Note_off_c, 0, 32, 0
1, 239712, Note_off_c, 0, 44, 0
1, 239808, Note_off_c, 0, 76, 0
1, 239808, Note_off_c, 0, 64, 0
1, 240000, Note_on_c, 0, 76, 44
1, 240000, Note_on_c, 0, 64, 44
1, 240192, Note_off_c, 0, 64, 0
1, 240192, Note_off_c, 0, 76, 0
1, 240384, Note_off_c, 0, 33, 0
1, 240384, Note_off_c, 0, 45, 0
1, 240384, Note_on_c, 0, 64, 44
1, 240384, Note_on_c, 0, 76, 44
1, 240384, Note_on_c, 0, 48, 89
1, 240384, Note_on_c, 0, 52, 89
1, 240576, Note_off_c, 0, 52, 0
1, 240576, Note_off_c, 0, 48, 0
1, 240576, Note_off_c, 0, 76, 0
1, 240576, Note_off_c, 0, 64, 0
1, 240768, Note_on_c, 0, 76, 44
1, 240768, Note_on_c, 0, 64, 44
1, 240960, Note_off_c, 0, 64, 0
1, 240960, Note_off_c, 0, 76, 0
1, 241152, Note_on_c, 0, 64, 44
1, 241152, Note_on_c, 0, 76, 44
1, 241152, Note_on_c, 0, 40, 89
1, 241344, Note_off_c, 0, 40, 0
1, 241344, Note_off_c, 0, 76, 0
1, 241344, Note_off_c, 0, 64, 0
1, 241536, Note_on_c, 0, 76, 44
1, 241536, Note_on_c, 0, 64, 44
1, 241728, Note_off_c, 0, 64, 0
1, 241728, Note_off_c, 0, 76, 0
1, 241920, Note_on_c, 0, 64, 44
1, 241920, Note_on_c, 0, 76, 44
1, 241920, Note_on_c, 0, 48, 89
1, 241920, Note_on_c, 0, 52, 89
1, 242112, Note_off_c, 0, 52, 0
1, 242112, Note_off_c, 0, 48, 0
1, 242112, Note_off_c, 0, 76, 0
1, 242112, Note_off_c, 0, 64, 0
1, 242304, Note_on_c, 0, 76, 44
1, 242304, Note_on_c, 0, 64, 44
1, 242496, Note_off_c, 0, 64, 0
1, 242496, Note_off_c, 0, 76, 0
1, 242688, Note_on_c, 0, 64, 44
1, 242688, Note_on_c, 0, 76, 44
1, 242688, Note_on_c, 0, 88, 15
1, 242688, Note_on_c, 0, 45, 89
1, 242784, Note_off_c, 0, 88, 0
1, 242880, Note_off_c, 0, 45, 0
1, 242880, Note_off_c, 0, 76, 0
1, 242880, Note_off_c, 0, 64, 0
1, 242880, Note_on_c, 0, 88, 15
1, 242976, Note_off_c, 0, 88, 0
1, 243072, Note_on_c, 0, 76, 44
1, 243072, Note_on_c, 0, 64, 44
1, 243072, Note_on_c, 0, 88, 15
1, 243168, Note_off_c, 0, 88, 0
1, 243264, Note_off_c, 0, 64, 0
1, 243264, Note_off_c, 0, 76, 0
1, 243264, Note_on_c, 0, 88, 15
1, 243360, Note_off_c, 0, 88, 0
1, 243456, Note_on_c, 0, 64, 44
1, 243456, Note_on_c, 0, 76, 44
1, 243456, Note_on_c, 0, 88, 25
1, 243456, Note_on_c, 0, 52, 89
1, 243456, Note_on_c, 0, 48, 89
1, 243552, Note_off_c, 0, 88, 0
1, 243648, Note_off_c, 0, 48, 0
1, 243648, Note_off_c, 0, 52, 0
1, 243648, Note_off_c, 0, 76, 0
1, 243648, Note_off_c, 0, 64, 0
1, 243648, Note_on_c, 0, 88, 25
1, 243744, Note_off_c, 0, 88, 0
1, 243840, Note_on_c, 0, 76, 44
1, 243840, Note_on_c, 0, 64, 44
1, 243840, Note_on_c, 0, 88, 25
1, 243936, Note_off_c, 0, 88, 0
1, 244032, Note_off_c, 0, 64, 0
1, 244032, Note_off_c, 0, 76, 0
1, 244032, Note_on_c, 0, 88, 25
1, 244128, Note_off_c, 0, 88, 0
1, 244224, Note_on_c, 0, 64, 44
1, 244224, Note_on_c, 0, 76, 44
1, 244224, Note_on_c, 0, 88, 34
1, 244224, Note_on_c, 0, 40, 89
1, 244320, Note_off_c, 0, 88, 0
1, 244416, Note_off_c, 0, 40, 0
1, 244416, Note_off_c, 0, 76, 0
1, 244416, Note_off_c, 0, 64, 0
1, 244416, Note_on_c, 0, 88, 34
1, 244512, Note_off_c, 0, 88, 0
1, 244608, Note_on_c, 0, 76, 44
1, 244608, Note_on_c, 0, 64, 44
1, 244608, Note_on_c, 0, 88, 34
1, 244704, Note_off_c, 0, 88, 0
1, 244800, Note_off_c, 0, 64, 0
1, 244800, Note_off_c, 0, 76, 0
1, 244800, Note_on_c, 0, 88, 34
1, 244896, Note_off_c, 0, 88, 0
1, 244992, Note_on_c, 0, 64, 44
1, 244992, Note_on_c, 0, 76, 44
1, 244992, Note_on_c, 0, 88, 44
1, 244992, Note_on_c, 0, 48, 89
1, 244992, Note_on_c, 0, 52, 89
1, 245088, Note_off_c, 0, 88, 0
1, 245184, Note_off_c, 0, 52, 0
1, 245184, Note_off_c, 0, 48, 0
1, 245184, Note_off_c, 0, 76, 0
1, 245184, Note_off_c, 0, 64, 0
1, 245184, Note_on_c, 0, 88, 44
1, 245280, Note_off_c, 0, 88, 0
1, 245376, Note_on_c, 0, 76, 44
1, 245376, Note_on_c, 0, 64, 44
1, 245376, Note_on_c, 0, 88, 44
1, 245472, Note_off_c, 0, 88, 0
1, 245568, Note_off_c, 0, 64, 0
1, 245568, Note_off_c, 0, 76, 0
1, 245568, Note_on_c, 0, 88, 44
1, 245664, Note_off_c, 0, 88, 0
1, 245760, Note_on_c, 0, 64, 44
1, 245760, Note_on_c, 0, 76, 44
1, 245760, Note_on_c, 0, 88, 50
1, 245760, Note_on_c, 0, 45, 89
1, 245856, Note_off_c, 0, 88, 0
1, 245952, Note_off_c, 0, 45, 0
1, 245952, Note_off_c, 0, 76, 0
1, 245952, Note_off_c, 0, 64, 0
1, 246144, Note_on_c, 0, 77, 44
1, 246144, Note_on_c, 0, 65, 44
1, 246336, Note_off_c, 0, 65, 0
1, 246336, Note_off_c, 0, 77, 0
1, 246528, Note_on_c, 0, 64, 44
1, 246528, Note_on_c, 0, 76, 44
1, 246528, Note_on_c, 0, 52, 89
1, 246528, Note_on_c, 0, 48, 89
1, 246720, Note_off_c, 0, 48, 0
1, 246720, Note_off_c, 0, 52, 0
1, 246720, Note_off_c, 0, 76, 0
1, 246720, Note_off_c, 0, 64, 0
1, 246912, Note_on_c, 0, 75, 44
1, 246912, Note_on_c, 0, 63, 44
1, 247104, Note_off_c, 0, 63, 0
1, 247104, Note_off_c, 0, 75, 0
1, 247296, Note_on_c, 0, 76, 44
1, 247296, Note_on_c, 0, 64, 44
1, 247296, Note_on_c, 0, 40, 89
1, 247488, Note_off_c, 0, 40, 0
1, 247488, Note_off_c, 0, 64, 0
1, 247488, Note_off_c, 0, 76, 0
1, 248064, Note_on_c, 0, 48, 89
1, 248064, Note_on_c, 0, 52, 89
1, 248064, Note_on_c, 0, 81, 44
1, 248064, Note_on_c, 0, 69, 44
1, 248256, Note_off_c, 0, 52, 0
1, 248256, Note_off_c, 0, 48, 0
1, 248352, Note_off_c, 0, 69, 0
1, 248352, Note_off_c, 0, 81, 0
1, 248448, Note_on_c, 0, 84, 44
1, 248448, Note_on_c, 0, 72, 44
1, 248736, Note_off_c, 0, 72, 0
1, 248736, Note_off_c, 0, 84, 0
1, 248832, Note_on_c, 0, 88, 44
1, 248832, Note_on_c, 0, 76, 44
1, 248832, Note_on_c, 0, 45, 89
1, 249024, Note_off_c, 0, 45, 0
1, 249120, Note_off_c, 0, 76, 0
1, 249120, Note_off_c, 0, 88, 0
1, 249600, Note_on_c, 0, 93, 44
1, 249600, Note_on_c, 0, 81, 44
1, 249600, Note_on_c, 0, 52, 89
1, 249600, Note_on_c, 0, 48, 89
1, 249792, Note_off_c, 0, 48, 0
1, 249792, Note_off_c, 0, 52, 0
1, 249888, Note_off_c, 0, 81, 0
1, 249888, Note_off_c, 0, 93, 0
1, 250368, Note_on_c, 0, 84, 44
1, 250368, Note_on_c, 0, 40, 89
1, 250560, Note_off_c, 0, 40, 0
1, 251136, Note_off_c, 0, 84, 0
1, 251136, Note_on_c, 0, 48, 89
1, 251136, Note_on_c, 0, 52, 89
1, 251328, Note_off_c, 0, 52, 0
1, 251328, Note_off_c, 0, 48, 0
1, 251904, Note_on_c, 0, 89, 30
1, 251904, Note_on_c, 0, 86, 30
1, 251904, Note_on_c, 0, 74, 30
1, 251904, Note_on_c, 0, 50, 120
1, 251904, Note_on_c, 0, 38, 120
1, 252288, Note_off_c, 0, 38, 0
1, 252288, Note_off_c, 0, 50, 0
1, 252288, Note_off_c, 0, 74, 0
1, 252288, Note_off_c, 0, 86, 0
1, 252288, Note_off_c, 0, 89, 0
1, 252288, Note_on_c, 0, 88, 30
1, 252288, Note_on_c, 0, 84, 30
1, 252288, Note_on_c, 0, 72, 30
1, 252672, Note_off_c, 0, 72, 0
1, 252672, Note_off_c, 0, 84, 0
1, 252672, Note_off_c, 0, 88, 0
1, 252672, Note_on_c, 0, 86, 30
1, 252672, Note_on_c, 0, 83, 30
1, 252672, Note_on_c, 0, 71, 30
1, 252672, Note_on_c, 0, 47, 120
1, 252672, Note_on_c, 0, 53, 120
1, 252864, Note_off_c, 0, 53, 0
1, 252864, Note_off_c, 0, 47, 0
1, 253056, Note_off_c, 0, 71, 0
1, 253056, Note_off_c, 0, 83, 0
1, 253056, Note_off_c, 0, 86, 0
1, 253056, Note_on_c, 0, 89, 30
1, 253056, Note_on_c, 0, 86, 30
1, 253056, Note_on_c, 0, 74, 30
1, 253440, Note_off_c, 0, 74, 0
1, 253440, Note_off_c, 0, 86, 0
1, 253440, Note_off_c, 0, 89, 0
1, 253440, Note_on_c, 0, 88, 30
1, 253440, Note_on_c, 0, 84, 30
1, 253440, Note_on_c, 0, 72, 30
1, 253440, Note_on_c, 0, 48, 120
1, 253440, Note_on_c, 0, 36, 120
1, 253824, Note_off_c, 0, 36, 0
1, 253824, Note_off_c, 0, 48, 0
1, 253824, Note_off_c, 0, 72, 0
1, 253824, Note_off_c, 0, 84, 0
1, 253824, Note_off_c, 0, 88, 0
1, 253824, Note_on_c, 0, 86, 30
1, 253824, Note_on_c, 0, 83, 30
1, 253824, Note_on_c, 0, 71, 30
1, 253824, Note_on_c, 0, 95, 30
1, 254208, Note_off_c, 0, 95, 0
1, 254208, Note_off_c, 0, 71, 0
1, 254208, Note_off_c, 0, 83, 0
1, 254208, Note_off_c, 0, 86, 0
1, 254208, Note_on_c, 0, 84, 30
1, 254208, Note_on_c, 0, 81, 30
1, 254208, Note_on_c, 0, 69, 30
1, 254208, Note_on_c, 0, 93, 30
1, 254208, Note_on_c, 0, 48, 120
1, 254208, Note_on_c, 0, 52, 120
1, 254400, Note_off_c, 0, 52, 0
1, 254400, Note_off_c, 0, 48, 0
1, 254592, Note_off_c, 0, 93, 0
1, 254592, Note_off_c, 0, 69, 0
1, 254592, Note_off_c, 0, 81, 0
1, 254592, Note_off_c, 0, 84, 0
1, 254592, Note_on_c, 0, 88, 30
1, 254592, Note_on_c, 0, 84, 30
1, 254592, Note_on_c, 0, 72, 30
1, 254592, Note_on_c, 0, 84, 30
1, 254976, Note_off_c, 0, 84, 0
1, 254976, Note_off_c, 0, 72, 0
1, 254976, Note_off_c, 0, 84, 0
1, 254976, Note_off_c, 0, 88, 0
1, 254976, Note_on_c, 0, 86, 30
1, 254976, Note_on_c, 0, 83, 30
1, 254976, Note_on_c, 0, 71, 30
1, 254976, Note_on_c, 0, 95, 30
1, 254976, Note_on_c, 0, 47, 120
1, 254976, Note_on_c, 0, 35, 120
1, 255360, Note_off_c, 0, 35, 0
1, 255360, Note_off_c, 0, 47, 0
1, 255360, Note_off_c, 0, 95, 0
1, 255360, Note_off_c, 0, 71, 0
1, 255360, Note_off_c, 0, 83, 0
1, 255360, Note_off_c, 0, 86, 0
1, 255360, Note_on_c, 0, 84, 30
1, 255360, Note_on_c, 0, 81, 30
1, 255360, Note_on_c, 0, 69, 30
1, 255360, Note_on_c, 0, 93, 30
1, 255744, Note_off_c, 0, 93, 0
1, 255744, Note_off_c, 0, 69, 0
1, 255744, Note_off_c, 0, 81, 0
1, 255744, Note_off_c, 0, 84, 0
1, 255744, Note_on_c, 0, 83, 30
1, 255744, Note_on_c, 0, 80, 30
1, 255744, Note_on_c, 0, 68, 30
1, 255744, Note_on_c, 0, 92, 30
1, 255744, Note_on_c, 0, 44, 120
1, 255744, Note_on_c, 0, 50, 120
1, 255936, Note_off_c, 0, 50, 0
1, 255936, Note_off_c, 0, 44, 0
1, 256128, Note_off_c, 0, 92, 0
1, 256128, Note_off_c, 0, 68, 0
1, 256128, Note_off_c, 0, 80, 0
1, 256128, Note_off_c, 0, 83, 0
1, 256128, Note_on_c, 0, 86, 30
1, 256128, Note_on_c, 0, 83, 30
1, 256128, Note_on_c, 0, 71, 30
1, 256128, Note_on_c, 0, 95, 30
1, 256512, Note_off_c, 0, 95, 0
1, 256512, Note_off_c, 0, 71, 0
1, 256512, Note_off_c, 0, 83, 0
1, 256512, Note_off_c, 0, 86, 0
1, 256512, Note_on_c, 0, 84, 30
1, 256512, Note_on_c, 0, 81, 30
1, 256512, Note_on_c, 0, 69, 30
1, 256512, Note_on_c, 0, 93, 30
1, 256512, Note_on_c, 0, 45, 120
1, 256512, Note_on_c, 0, 33, 120
1, 256896, Note_off_c, 0, 33, 0
1, 256896, Note_off_c, 0, 45, 0
1, 256896, Note_off_c, 0, 93, 0
1, 256896, Note_off_c, 0, 69, 0
1, 256896, Note_off_c, 0, 81, 0
1, 256896, Note_off_c, 0, 84, 0
1, 256896, Note_on_c, 0, 81, 30
1, 256896, Note_on_c, 0, 76, 30
1, 256896, Note_on_c, 0, 64, 30
1, 256896, Note_on_c, 0, 88, 30
1, 257280, Note_off_c, 0, 88, 0
1, 257280, Note_off_c, 0, 64, 0
1, 257280, Note_off_c, 0, 76, 0
1, 257280, Note_off_c, 0, 81, 0
1, 257280, Note_on_c, 0, 76, 30
1, 257280, Note_on_c, 0, 72, 30
1, 257280, Note_on_c, 0, 60, 30
1, 257280, Note_on_c, 0, 84, 30
1, 257280, Note_on_c, 0, 45, 120
1, 257280, Note_on_c, 0, 48, 120
1, 257472, Note_off_c, 0, 48, 0
1, 257472, Note_off_c, 0, 45, 0
1, 257664, Note_off_c, 0, 84, 0
1, 257664, Note_off_c, 0, 60, 0
1, 257664, Note_off_c, 0, 72, 0
1, 257664, Note_off_c, 0, 76, 0
1, 257664, Note_on_c, 0, 72, 30
1, 257664, Note_on_c, 0, 69, 30
1, 257664, Note_on_c, 0, 57, 30
1, 257664, Note_on_c, 0, 81, 30
1, 258048, Note_off_c, 0, 81, 0
1, 258048, Note_off_c, 0, 57, 0
1, 258048, Note_off_c, 0, 69, 0
1, 258048, Note_off_c, 0, 72, 0
1, 258048, Note_on_c, 0, 81, 30
1, 258048, Note_on_c, 0, 77, 30
1, 258048, Note_on_c, 0, 65, 30
1, 258048, Note_on_c, 0, 89, 30
1, 258048, Note_on_c, 0, 40, 110
1, 258048, Note_on_c, 0, 28, 110
1, 258432, Note_off_c, 0, 28, 0
1, 258432, Note_off_c, 0, 40, 0
1, 258432, Note_off_c, 0, 89, 0
1, 258432, Note_off_c, 0, 65, 0
1, 258432, Note_off_c, 0, 77, 0
1, 258432, Note_off_c, 0, 81, 0
1, 258432, Note_on_c, 0, 79, 30
1, 258432, Note_on_c, 0, 76, 30
1, 258432, Note_on_c, 0, 64, 30
1, 258432, Note_on_c, 0, 88, 30
1, 258816, Note_off_c, 0, 88, 0
1, 258816, Note_off_c, 0, 64, 0
1, 258816, Note_off_c, 0, 76, 0
1, 258816, Note_off_c, 0, 79, 0
1, 258816, Note_on_c, 0, 74, 30
1, 258816, Note_on_c, 0, 62, 30
1, 258816, Note_on_c, 0, 77, 30
1, 258816, Note_on_c, 0, 86, 30
1, 258816, Note_on_c, 0, 42, 110
1, 258816, Note_on_c, 0, 30, 110
1, 259200, Note_off_c, 0, 30, 0
1, 259200, Note_off_c, 0, 42, 0
1, 259200, Note_off_c, 0, 86, 0
1, 259200, Note_off_c, 0, 77, 0
1, 259200, Note_off_c, 0, 62, 0
1, 259200, Note_off_c, 0, 74, 0
1, 259200, Note_on_c, 0, 72, 30
1, 259200, Note_on_c, 0, 60, 30
1, 259200, Note_on_c, 0, 76, 30
1, 259200, Note_on_c, 0, 84, 30
1, 259584, Note_off_c, 0, 84, 0
1, 259584, Note_off_c, 0, 76, 0
1, 259584, Note_off_c, 0, 60, 0
1, 259584, Note_off_c, 0, 72, 0
1, 259584, Note_on_c, 0, 71, 30
1, 259584, Note_on_c, 0, 59, 30
1, 259584, Note_on_c, 0, 74, 30
1, 259584, Note_on_c, 0, 83, 30
1, 259584, Note_on_c, 0, 44, 110
1, 259584, Note_on_c, 0, 32, 110
1, 259968, Note_off_c, 0, 32, 0
1, 259968, Note_off_c, 0, 44, 0
1, 259968, Note_off_c, 0, 83, 0
1, 259968, Note_off_c, 0, 74, 0
1, 259968, Note_off_c, 0, 59, 0
1, 259968, Note_off_c, 0, 71, 0
1, 259968, Note_on_c, 0, 69, 30
1, 259968, Note_on_c, 0, 57, 30
1, 259968, Note_on_c, 0, 72, 30
1, 259968, Note_on_c, 0, 81, 30
1, 260352, Note_off_c, 0, 81, 0
1, 260352, Note_off_c, 0, 72, 0
1, 260352, Note_off_c, 0, 57, 0
1, 260352, Note_off_c, 0, 69, 0
1, 260352, Note_on_c, 0, 68, 30
1, 260352, Note_on_c, 0, 56, 30
1, 260352, Note_on_c, 0, 71, 30
1, 260352, Note_on_c, 0, 80, 30
1, 260352, Note_on_c, 0, 40, 110
1, 260352, Note_on_c, 0, 28, 110
1, 260736, Note_off_c, 0, 28, 0
1, 260736, Note_off_c, 0, 40, 0
1, 260736, Note_off_c, 0, 80, 0
1, 260736, Note_off_c, 0, 71, 0
1, 260736, Note_off_c, 0, 56, 0
1, 260736, Note_off_c, 0, 68, 0
1, 260736, Note_on_c, 0, 71, 30
1, 260736, Note_on_c, 0, 59, 30
1, 260736, Note_on_c, 0, 74, 30
1, 260736, Note_on_c, 0, 83, 30
1, 261120, Note_off_c, 0, 83, 0
1, 261120, Note_off_c, 0, 74, 0
1, 261120, Note_off_c, 0, 59, 0
1, 261120, Note_off_c, 0, 71, 0
1, 261120, Note_on_c, 0, 69, 30
1, 261120, Note_on_c, 0, 57, 30
1, 261120, Note_on_c, 0, 72, 30
1, 261120, Note_on_c, 0, 81, 30
1, 261120, Note_on_c, 0, 45, 110
1, 261120, Note_on_c, 0, 33, 110
1, 261504, Note_off_c, 0, 33, 0
1, 261504, Note_off_c, 0, 45, 0
1, 261504, Note_off_c, 0, 81, 0
1, 261504, Note_off_c, 0, 72, 0
1, 261504, Note_off_c, 0, 57, 0
1, 261504, Note_off_c, 0, 69, 0
1, 264192, Note_on_c, 0, 33, 50
1, 264192, Note_on_c, 0, 45, 50
1, 265728, Note_off_c, 0, 45, 0
1, 265728, Note_off_c, 0, 33, 0
1, 265728, Note_on_c, 0, 52, 50
1, 265728, Note_on_c, 0, 48, 50
1, 265920, Note_off_c, 0, 48, 0
1, 265920, Note_off_c, 0, 52, 0
1, 266400, Note_on_c, 0, 29, 5
1, 266400, Note_on_c, 0, 31, 5
1, 266400, Note_on_c, 0, 38, 5
1, 266400, Note_on_c, 0, 40, 5
1, 266400, Note_on_c, 0, 48, 5
1, 266400, Note_on_c, 0, 50, 5
1, 266400, Note_on_c, 0, 52, 5
1, 266400, Note_on_c, 0, 53, 5
1, 266400, Note_on_c, 0, 55, 5
1, 266400, Note_on_c, 0, 64, 5
1, 266400, Note_on_c, 0, 65, 5
1, 266400, Note_on_c, 0, 67, 5
1, 266400, Note_on_c, 0, 69, 5
1, 266400, Note_on_c, 0, 71, 5
1, 266400, Note_on_c, 0, 72, 5
1, 266400, Note_on_c, 0, 83, 5
1, 266400, Note_on_c, 0, 81, 5
1, 266400, Note_on_c, 0, 91, 5
1, 266400, Note_on_c, 0, 89, 5
1, 266496, Note_off_c, 0, 89, 0
1, 266496, Note_off_c, 0, 91, 0
1, 266496, Note_off_c, 0, 81, 0
1, 266496, Note_off_c, 0, 83, 0
1, 266496, Note_off_c, 0, 72, 0
1, 266496, Note_off_c, 0, 71, 0
1, 266496, Note_off_c, 0, 69, 0
1, 266496, Note_off_c, 0, 67, 0
1, 266496, Note_off_c, 0, 65, 0
1, 266496, Note_off_c, 0, 64, 0
1, 266496, Note_off_c, 0, 55, 0
1, 266496, Note_off_c, 0, 53, 0
1, 266496, Note_off_c, 0, 52, 0
1, 266496, Note_off_c, 0, 50, 0
1, 266496, Note_off_c, 0, 48, 0
1, 266496, Note_off_c, 0, 40, 0
1, 266496, Note_off_c, 0, 38, 0
1, 266496, Note_off_c, 0, 31, 0
1, 266496, Note_off_c, 0, 29, 0
1, 266496, Note_on_c, 0, 31, 5
1, 266496, Note_on_c, 0, 33, 5
1, 266496, Note_on_c, 0, 38, 5
1, 266496, Note_on_c, 0, 40, 5
1, 266496, Note_on_c, 0, 35, 5
1, 266496, Note_on_c, 0, 47, 5
1, 266496, Note_on_c, 0, 48, 5
1, 266496, Note_on_c, 0, 57, 5
1, 266496, Note_on_c, 0, 55, 5
1, 266496, Note_on_c, 0, 74, 5
1, 266496, Note_on_c, 0, 72, 5
1, 266496, Note_on_c, 0, 83, 5
1, 266496, Note_on_c, 0, 81, 5
1, 266496, Note_on_c, 0, 89, 5
1, 266496, Note_on_c, 0, 91, 5
1, 266592, Note_off_c, 0, 91, 0
1, 266592, Note_off_c, 0, 89, 0
1, 266592, Note_off_c, 0, 81, 0
1, 266592, Note_off_c, 0, 83, 0
1, 266592, Note_off_c, 0, 72, 0
1, 266592, Note_off_c, 0, 74, 0
1, 266592, Note_off_c, 0, 55, 0
1, 266592, Note_off_c, 0, 57, 0
1, 266592, Note_off_c, 0, 48, 0
1, 266592, Note_off_c, 0, 47, 0
1, 266592, Note_off_c, 0, 35, 0
1, 266592, Note_off_c, 0, 40, 0
1, 266592, Note_off_c, 0, 38, 0
1, 266592, Note_off_c, 0, 33, 0
1, 266592, Note_off_c, 0, 31, 0
1, 266592, Note_on_c, 0, 35, 5
1, 266592, Note_on_c, 0, 36, 5
1, 266592, Note_on_c, 0, 38, 5
1, 266592, Note_on_c, 0, 40, 5
1, 266592, Note_on_c, 0, 47, 5
1, 266592, Note_on_c, 0, 48, 5
1, 266592, Note_on_c, 0, 57, 5
1, 266592, Note_on_c, 0, 55, 5
1, 266592, Note_on_c, 0, 74, 5
1, 266592, Note_on_c, 0, 72, 5
1, 266592, Note_on_c, 0, 81, 5
1, 266592, Note_on_c, 0, 83, 5
1, 266592, Note_on_c, 0, 91, 5
1, 266592, Note_on_c, 0, 89, 5
1, 266688, Note_off_c, 0, 89, 0
1, 266688, Note_off_c, 0, 91, 0
1, 266688, Note_off_c, 0, 83, 0
1, 266688, Note_off_c, 0, 81, 0
1, 266688, Note_off_c, 0, 72, 0
1, 266688, Note_off_c, 0, 74, 0
1, 266688, Note_off_c, 0, 55, 0
1, 266688, Note_off_c, 0, 57, 0
1, 266688, Note_off_c, 0, 48, 0
1, 266688, Note_off_c, 0, 47, 0
1, 266688, Note_off_c, 0, 40, 0
1, 266688, Note_off_c, 0, 38, 0
1, 266688, Note_off_c, 0, 36, 0
1, 266688, Note_off_c, 0, 35, 0
1, 266688, Note_on_c, 0, 40, 5
1, 266688, Note_on_c, 0, 38, 5
1, 266688, Note_on_c, 0, 31, 5
1, 266688, Note_on_c, 0, 33, 5
1, 266688, Note_on_c, 0, 35, 5
1, 266688, Note_on_c, 0, 36, 5
1, 266688, Note_on_c, 0, 47, 5
1, 266688, Note_on_c, 0, 48, 5
1, 266688, Note_on_c, 0, 57, 5
1, 266688, Note_on_c, 0, 55, 5
1, 266688, Note_on_c, 0, 72, 5
1, 266688, Note_on_c, 0, 71, 5
1, 266688, Note_on_c, 0, 69, 5
1, 266688, Note_on_c, 0, 67, 5
1, 266688, Note_on_c, 0, 65, 5
1, 266688, Note_on_c, 0, 83, 5
1, 266688, Note_on_c, 0, 81, 5
1, 266688, Note_on_c, 0, 91, 5
1, 266688, Note_on_c, 0, 89, 5
1, 266688, Note_on_c, 0, 88, 5
1, 266688, Note_on_c, 0, 86, 5
1, 266688, Note_on_c, 0, 84, 5
1, 266784, Note_off_c, 0, 84, 0
1, 266784, Note_off_c, 0, 86, 0
1, 266784, Note_off_c, 0, 88, 0
1, 266784, Note_off_c, 0, 89, 0
1, 266784, Note_off_c, 0, 91, 0
1, 266784, Note_off_c, 0, 81, 0
1, 266784, Note_off_c, 0, 83, 0
1, 266784, Note_off_c, 0, 65, 0
1, 266784, Note_off_c, 0, 67, 0
1, 266784, Note_off_c, 0, 69, 0
1, 266784, Note_off_c, 0, 71, 0
1, 266784, Note_off_c, 0, 72, 0
1, 266784, Note_off_c, 0, 55, 0
1, 266784, Note_off_c, 0, 57, 0
1, 266784, Note_off_c, 0, 48, 0
1, 266784, Note_off_c, 0, 47, 0
1, 266784, Note_off_c, 0, 36, 0
1, 266784, Note_off_c, 0, 35, 0
1, 266784, Note_off_c, 0, 33, 0
1, 266784, Note_off_c, 0, 31, 0
1, 266784, Note_off_c, 0, 38, 0
1, 266784, Note_off_c, 0, 40, 0
1, 266784, Note_on_c, 0, 40, 5
1, 266784, Note_on_c, 0, 38, 5
1, 266784, Note_on_c, 0, 31, 5
1, 266784, Note_on_c, 0, 29, 5
1, 266784, Note_on_c, 0, 47, 5
1, 266784, Note_on_c, 0, 48, 5
1, 266784, Note_on_c, 0, 57, 5
1, 266784, Note_on_c, 0, 55, 5
1, 266784, Note_on_c, 0, 65, 5
1, 266784, Note_on_c, 0, 64, 5
1, 266784, Note_on_c, 0, 83, 5
1, 266784, Note_on_c, 0, 81, 5
1, 266784, Note_on_c, 0, 91, 5
1, 266784, Note_on_c, 0, 89, 5
1, 266880, Note_off_c, 0, 89, 0
1, 266880, Note_off_c, 0, 91, 0
1, 266880, Note_off_c, 0, 81, 0
1, 266880, Note_off_c, 0, 83, 0
1, 266880, Note_off_c, 0, 64, 0
1, 266880, Note_off_c, 0, 65, 0
1, 266880, Note_off_c, 0, 55, 0
1, 266880, Note_off_c, 0, 57, 0
1, 266880, Note_off_c, 0, 48, 0
1, 266880, Note_off_c, 0, 47, 0
1, 266880, Note_off_c, 0, 29, 0
1, 266880, Note_off_c, 0, 31, 0
1, 266880, Note_off_c, 0, 38, 0
1, 266880, Note_off_c, 0, 40, 0
1, 266880, Note_on_c, 0, 40, 5
1, 266880, Note_on_c, 0, 38, 5
1, 266880, Note_on_c, 0, 31, 5
1, 266880, Note_on_c, 0, 29, 5
1, 266880, Note_on_c, 0, 47, 5
1, 266880, Note_on_c, 0, 48, 5
1, 266880, Note_on_c, 0, 57, 5
1, 266880, Note_on_c, 0, 55, 5
1, 266880, Note_on_c, 0, 65, 5
1, 266880, Note_on_c, 0, 64, 5
1, 266880, Note_on_c, 0, 83, 5
1, 266880, Note_on_c, 0, 81, 5
1, 266880, Note_on_c, 0, 91, 5
1, 266880, Note_on_c, 0, 89, 5
1, 266976, Note_off_c, 0, 89, 0
1, 266976, Note_off_c, 0, 91, 0
1, 266976, Note_off_c, 0, 81, 0
1, 266976, Note_off_c, 0, 83, 0
1, 266976, Note_off_c, 0, 64, 0
1, 266976, Note_off_c, 0, 65, 0
1, 266976, Note_off_c, 0, 55, 0
1, 266976, Note_off_c, 0, 57, 0
1, 266976, Note_off_c, 0, 48, 0
1, 266976, Note_off_c, 0, 47, 0
1, 266976, Note_off_c, 0, 29, 0
1, 266976, Note_off_c, 0, 31, 0
1, 266976, Note_off_c, 0, 38, 0
1, 266976, Note_off_c, 0, 40, 0
1, 266976, Note_on_c, 0, 40, 5
1, 266976, Note_on_c, 0, 38, 5
1, 266976, Note_on_c, 0, 36, 5
1, 266976, Note_on_c, 0, 35, 5
1, 266976, Note_on_c, 0, 33, 5
1, 266976, Note_on_c, 0, 31, 5
1, 266976, Note_on_c, 0, 47, 5
1, 266976, Note_on_c, 0, 48, 5
1, 266976, Note_on_c, 0, 57, 5
1, 266976, Note_on_c, 0, 55, 5
1, 266976, Note_on_c, 0, 65, 5
1, 266976, Note_on_c, 0, 67, 5
1, 266976, Note_on_c, 0, 69, 5
1, 266976, Note_on_c, 0, 71, 5
1, 266976, Note_on_c, 0, 72, 5
1, 266976, Note_on_c, 0, 74, 5
1, 266976, Note_on_c, 0, 83, 5
1, 266976, Note_on_c, 0, 81, 5
1, 266976, Note_on_c, 0, 89, 5
1, 266976, Note_on_c, 0, 91, 5
1, 267072, Note_off_c, 0, 91, 0
1, 267072, Note_off_c, 0, 89, 0
1, 267072, Note_off_c, 0, 81, 0
1, 267072, Note_off_c, 0, 83, 0
1, 267072, Note_off_c, 0, 74, 0
1, 267072, Note_off_c, 0, 72, 0
1, 267072, Note_off_c, 0, 71, 0
1, 267072, Note_off_c, 0, 69, 0
1, 267072, Note_off_c, 0, 67, 0
1, 267072, Note_off_c, 0, 65, 0
1, 267072, Note_off_c, 0, 55, 0
1, 267072, Note_off_c, 0, 57, 0
1, 267072, Note_off_c, 0, 48, 0
1, 267072, Note_off_c, 0, 47, 0
1, 267072, Note_off_c, 0, 31, 0
1, 267072, Note_off_c, 0, 33, 0
1, 267072, Note_off_c, 0, 35, 0
1, 267072, Note_off_c, 0, 36, 0
1, 267072, Note_off_c, 0, 38, 0
1, 267072, Note_off_c, 0, 40, 0
1, 267264, Note_on_c, 0, 40, 50
1, 267648, Note_off_c, 0, 40, 0
1, 268800, Note_on_c, 0, 52, 50
1, 268800, Note_on_c, 0, 48, 50
1, 268992, Note_off_c, 0, 48, 0
1, 268992, Note_off_c, 0, 52, 0
1, 269472, Note_on_c, 0, 55, 5
1, 269472, Note_on_c, 0, 57, 5
1, 269472, Note_on_c, 0, 59, 5
1, 269472, Note_on_c, 0, 60, 5
1, 269472, Note_on_c, 0, 62, 5
1, 269472, Note_on_c, 0, 64, 5
1, 269472, Note_on_c, 0, 65, 5
1, 269568, Note_off_c, 0, 65, 0
1, 269568, Note_off_c, 0, 64, 0
1, 269568, Note_off_c, 0, 62, 0
1, 269568, Note_off_c, 0, 60, 0
1, 269568, Note_off_c, 0, 59, 0
1, 269568, Note_off_c, 0, 57, 0
1, 269568, Note_off_c, 0, 55, 0
1, 269568, Note_on_c, 0, 55, 5
1, 269568, Note_on_c, 0, 57, 5
1, 269664, Note_off_c, 0, 57, 0
1, 269664, Note_off_c, 0, 55, 0
1, 269664, Note_on_c, 0, 55, 5
1, 269664, Note_on_c, 0, 57, 5
1, 269760, Note_off_c, 0, 57, 0
1, 269760, Note_off_c, 0, 55, 0
1, 269760, Note_on_c, 0, 55, 5
1, 269760, Note_on_c, 0, 57, 5
1, 269760, Note_on_c, 0, 59, 5
1, 269760, Note_on_c, 0, 60, 5
1, 269760, Note_on_c, 0, 62, 5
1, 269760, Note_on_c, 0, 64, 5
1, 269760, Note_on_c, 0, 65, 5
1, 269856, Note_off_c, 0, 65, 0
1, 269856, Note_off_c, 0, 64, 0
1, 269856, Note_off_c, 0, 62, 0
1, 269856, Note_off_c, 0, 60, 0
1, 269856, Note_off_c, 0, 59, 0
1, 269856, Note_off_c, 0, 57, 0
1, 269856, Note_off_c, 0, 55, 0
1, 269856, Note_on_c, 0, 55, 5
1, 269856, Note_on_c, 0, 57, 5
1, 269952, Note_off_c, 0, 57, 0
1, 269952, Note_off_c, 0, 55, 0
1, 269952, Note_on_c, 0, 55, 5
1, 269952, Note_on_c, 0, 57, 5
1, 270048, Note_off_c, 0, 57, 0
1, 270048, Note_off_c, 0, 55, 0
1, 270048, Note_on_c, 0, 55, 5
1, 270048, Note_on_c, 0, 57, 5
1, 270048, Note_on_c, 0, 59, 5
1, 270048, Note_on_c, 0, 60, 5
1, 270048, Note_on_c, 0, 62, 5
1, 270048, Note_on_c, 0, 64, 5
1, 270048, Note_on_c, 0, 65, 5
1, 270144, Note_off_c, 0, 65, 0
1, 270144, Note_off_c, 0, 64, 0
1, 270144, Note_off_c, 0, 62, 0
1, 270144, Note_off_c, 0, 60, 0
1, 270144, Note_off_c, 0, 59, 0
1, 270144, Note_off_c, 0, 57, 0
1, 270144, Note_off_c, 0, 55, 0
1, 270336, Note_on_c, 0, 33, 50
1, 270336, Note_on_c, 0, 45, 50
1, 271872, Note_off_c, 0, 45, 0
1, 271872, Note_off_c, 0, 33, 0
1, 271872, Note_on_c, 0, 52, 50
1, 271872, Note_on_c, 0, 48, 50
1, 272064, Note_off_c, 0, 48, 0
1, 272064, Note_off_c, 0, 52, 0
1, 272544, Note_on_c, 0, 29, 5
1, 272544, Note_on_c, 0, 31, 5
1, 272544, Note_on_c, 0, 38, 5
1, 272544, Note_on_c, 0, 40, 5
1, 272544, Note_on_c, 0, 48, 5
1, 272544, Note_on_c, 0, 50, 5
1, 272544, Note_on_c, 0, 52, 5
1, 272544, Note_on_c, 0, 53, 5
1, 272544, Note_on_c, 0, 55, 5
1, 272544, Note_on_c, 0, 64, 5
1, 272544, Note_on_c, 0, 65, 5
1, 272544, Note_on_c, 0, 67, 5
1, 272544, Note_on_c, 0, 69, 5
1, 272544, Note_on_c, 0, 71, 5
1, 272544, Note_on_c, 0, 72, 5
1, 272544, Note_on_c, 0, 83, 5
1, 272544, Note_on_c, 0, 81, 5
1, 272544, Note_on_c, 0, 91, 5
1, 272544, Note_on_c, 0, 89, 5
1, 272640, Note_off_c, 0, 89, 0
1, 272640, Note_off_c, 0, 91, 0
1, 272640, Note_off_c, 0, 81, 0
1, 272640, Note_off_c, 0, 83, 0
1, 272640, Note_off_c, 0, 72, 0
1, 272640, Note_off_c, 0, 71, 0
1, 272640, Note_off_c, 0, 69, 0
1, 272640, Note_off_c, 0, 67, 0
1, 272640, Note_off_c, 0, 65, 0
1, 272640, Note_off_c, 0, 64, 0
1, 272640, Note_off_c, 0, 55, 0
1, 272640, Note_off_c, 0, 53, 0
1, 272640, Note_off_c, 0, 52, 0
1, 272640, Note_off_c, 0, 50, 0
1, 272640, Note_off_c, 0, 48, 0
1, 272640, Note_off_c, 0, 40, 0
1, 272640, Note_off_c, 0, 38, 0
1, 272640, Note_off_c, 0, 31, 0
1, 272640, Note_off_c, 0, 29, 0
1, 272640, Note_on_c, 0, 31, 5
1, 272640, Note_on_c, 0, 33, 5
1, 272640, Note_on_c, 0, 38, 5
1, 272640, Note_on_c, 0, 40, 5
1, 272640, Note_on_c, 0, 35, 5
1, 272640, Note_on_c, 0, 47, 5
1, 272640, Note_on_c, 0, 48, 5
1, 272640, Note_on_c, 0, 57, 5
1, 272640, Note_on_c, 0, 55, 5
1, 272640, Note_on_c, 0, 74, 5
1, 272640, Note_on_c, 0, 72, 5
1, 272640, Note_on_c, 0, 83, 5
1, 272640, Note_on_c, 0, 81, 5
1, 272640, Note_on_c, 0, 89, 5
1, 272640, Note_on_c, 0, 91, 5
1, 272736, Note_off_c, 0, 91, 0
1, 272736, Note_off_c, 0, 89, 0
1, 272736, Note_off_c, 0, 81, 0
1, 272736, Note_off_c, 0, 83, 0
1, 272736, Note_off_c, 0, 72, 0
1, 272736, Note_off_c, 0, 74, 0
1, 272736, Note_off_c, 0, 55, 0
1, 272736, Note_off_c, 0, 57, 0
1, 272736, Note_off_c, 0, 48, 0
1, 272736, Note_off_c, 0, 47, 0
1, 272736, Note_off_c, 0, 35, 0
1, 272736, Note_off_c, 0, 40, 0
1, 272736, Note_off_c, 0, 38, 0
1, 272736, Note_off_c, 0, 33, 0
1, 272736, Note_off_c, 0, 31, 0
1, 272736, Note_on_c, 0, 35, 5
1, 272736, Note_on_c, 0, 36, 5
1, 272736, Note_on_c, 0, 38, 5
1, 272736, Note_on_c, 0, 40, 5
1, 272736, Note_on_c, 0, 47, 5
1, 272736, Note_on_c, 0, 48, 5
1, 272736, Note_on_c, 0, 57, 5
1, 272736, Note_on_c, 0, 55, 5
1, 272736, Note_on_c, 0, 74, 5
1, 272736, Note_on_c, 0, 72, 5
1, 272736, Note_on_c, 0, 81, 5
1, 272736, Note_on_c, 0, 83, 5
1, 272736, Note_on_c, 0, 91, 5
1, 272736, Note_on_c, 0, 89, 5
1, 272832, Note_off_c, 0, 89, 0
1, 272832, Note_off_c, 0, 91, 0
1, 272832, Note_off_c, 0, 83, 0
1, 272832, Note_off_c, 0, 81, 0
1, 272832, Note_off_c, 0, 72, 0
1, 272832, Note_off_c, 0, 74, 0
1, 272832, Note_off_c, 0, 55, 0
1, 272832, Note_off_c, 0, 57, 0
1, 272832, Note_off_c, 0, 48, 0
1, 272832, Note_off_c, 0, 47, 0
1, 272832, Note_off_c, 0, 40, 0
1, 272832, Note_off_c, 0, 38, 0
1, 272832, Note_off_c, 0, 36, 0
1, 272832, Note_off_c, 0, 35, 0
1, 272832, Note_on_c, 0, 40, 5
1, 272832, Note_on_c, 0, 38, 5
1, 272832, Note_on_c, 0, 31, 5
1, 272832, Note_on_c, 0, 33, 5
1, 272832, Note_on_c, 0, 35, 5
1, 272832, Note_on_c, 0, 36, 5
1, 272832, Note_on_c, 0, 47, 5
1, 272832, Note_on_c, 0, 48, 5
1, 272832, Note_on_c, 0, 57, 5
1, 272832, Note_on_c, 0, 55, 5
1, 272832, Note_on_c, 0, 72, 5
1, 272832, Note_on_c, 0, 71, 5
1, 272832, Note_on_c, 0, 69, 5
1, 272832, Note_on_c, 0, 67, 5
1, 272832, Note_on_c, 0, 65, 5
1, 272832, Note_on_c, 0, 83, 5
1, 272832, Note_on_c, 0, 81, 5
1, 272832, Note_on_c, 0, 91, 5
1, 272832, Note_on_c, 0, 89, 5
1, 272832, Note_on_c, 0, 88, 5
1, 272832, Note_on_c, 0, 86, 5
1, 272832, Note_on_c, 0, 84, 5
1, 272928, Note_off_c, 0, 84, 0
1, 272928, Note_off_c, 0, 86, 0
1, 272928, Note_off_c, 0, 88, 0
1, 272928, Note_off_c, 0, 89, 0
1, 272928, Note_off_c, 0, 91, 0
1, 272928, Note_off_c, 0, 81, 0
1, 272928, Note_off_c, 0, 83, 0
1, 272928, Note_off_c, 0, 65, 0
1, 272928, Note_off_c, 0, 67, 0
1, 272928, Note_off_c, 0, 69, 0
1, 272928, Note_off_c, 0, 71, 0
1, 272928, Note_off_c, 0, 72, 0
1, 272928, Note_off_c, 0, 55, 0
1, 272928, Note_off_c, 0, 57, 0
1, 272928, Note_off_c, 0, 48, 0
1, 272928, Note_off_c, 0, 47, 0
1, 272928, Note_off_c, 0, 36, 0
1, 272928, Note_off_c, 0, 35, 0
1, 272928, Note_off_c, 0, 33, 0
1, 272928, Note_off_c, 0, 31, 0
1, 272928, Note_off_c, 0, 38, 0
1, 272928, Note_off_c, 0, 40, 0
1, 272928, Note_on_c, 0, 40, 5
1, 272928, Note_on_c, 0, 38, 5
1, 272928, Note_on_c, 0, 31, 5
1, 272928, Note_on_c, 0, 29, 5
1, 272928, Note_on_c, 0, 47, 5
1, 272928, Note_on_c, 0, 48, 5
1, 272928, Note_on_c, 0, 57, 5
1, 272928, Note_on_c, 0, 55, 5
1, 272928, Note_on_c, 0, 65, 5
1, 272928, Note_on_c, 0, 64, 5
1, 272928, Note_on_c, 0, 83, 5
1, 272928, Note_on_c, 0, 81, 5
1, 272928, Note_on_c, 0, 91, 5
1, 272928, Note_on_c, 0, 89, 5
1, 273024, Note_off_c, 0, 89, 0
1, 273024, Note_off_c, 0, 91, 0
1, 273024, Note_off_c, 0, 81, 0
1, 273024, Note_off_c, 0, 83, 0
1, 273024, Note_off_c, 0, 64, 0
1, 273024, Note_off_c, 0, 65, 0
1, 273024, Note_off_c, 0, 55, 0
1, 273024, Note_off_c, 0, 57, 0
1, 273024, Note_off_c, 0, 48, 0
1, 273024, Note_off_c, 0, 47, 0
1, 273024, Note_off_c, 0, 29, 0
1, 273024, Note_off_c, 0, 31, 0
1, 273024, Note_off_c, 0, 38, 0
1, 273024, Note_off_c, 0, 40, 0
1, 273024, Note_on_c, 0, 40, 5
1, 273024, Note_on_c, 0, 38, 5
1, 273024, Note_on_c, 0, 31, 5
1, 273024, Note_on_c, 0, 29, 5
1, 273024, Note_on_c, 0, 47, 5
1, 273024, Note_on_c, 0, 48, 5
1, 273024, Note_on_c, 0, 57, 5
1, 273024, Note_on_c, 0, 55, 5
1, 273024, Note_on_c, 0, 65, 5
1, 273024, Note_on_c, 0, 64, 5
1, 273024, Note_on_c, 0, 83, 5
1, 273024, Note_on_c, 0, 81, 5
1, 273024, Note_on_c, 0, 91, 5
1, 273024, Note_on_c, 0, 89, 5
1, 273120, Note_off_c, 0, 89, 0
1, 273120, Note_off_c, 0, 91, 0
1, 273120, Note_off_c, 0, 81, 0
1, 273120, Note_off_c, 0, 83, 0
1, 273120, Note_off_c, 0, 64, 0
1, 273120, Note_off_c, 0, 65, 0
1, 273120, Note_off_c, 0, 55, 0
1, 273120, Note_off_c, 0, 57, 0
1, 273120, Note_off_c, 0, 48, 0
1, 273120, Note_off_c, 0, 47, 0
1, 273120, Note_off_c, 0, 29, 0
1, 273120, Note_off_c, 0, 31, 0
1, 273120, Note_off_c, 0, 38, 0
1, 273120, Note_off_c, 0, 40, 0
1, 273120, Note_on_c, 0, 40, 5
1, 273120, Note_on_c, 0, 38, 5
1, 273120, Note_on_c, 0, 36, 5
1, 273120, Note_on_c, 0, 35, 5
1, 273120, Note_on_c, 0, 33, 5
1, 273120, Note_on_c, 0, 31, 5
1, 273120, Note_on_c, 0, 47, 5
1, 273120, Note_on_c, 0, 48, 5
1, 273120, Note_on_c, 0, 57, 5
1, 273120, Note_on_c, 0, 55, 5
1, 273120, Note_on_c, 0, 65, 5
1, 273120, Note_on_c, 0, 67, 5
1, 273120, Note_on_c, 0, 69, 5
1, 273120, Note_on_c, 0, 71, 5
1, 273120, Note_on_c, 0, 72, 5
1, 273120, Note_on_c, 0, 74, 5
1, 273120, Note_on_c, 0, 83, 5
1, 273120, Note_on_c, 0, 81, 5
1, 273120, Note_on_c, 0, 89, 5
1, 273120, Note_on_c, 0, 91, 5
1, 273216, Note_off_c, 0, 91, 0
1, 273216, Note_off_c, 0, 89, 0
1, 273216, Note_off_c, 0, 81, 0
1, 273216, Note_off_c, 0, 83, 0
1, 273216, Note_off_c, 0, 74, 0
1, 273216, Note_off_c, 0, 72, 0
1, 273216, Note_off_c, 0, 71, 0
1, 273216, Note_off_c, 0, 69, 0
1, 273216, Note_off_c, 0, 67, 0
1, 273216, Note_off_c, 0, 65, 0
1, 273216, Note_off_c, 0, 55, 0
1, 273216, Note_off_c, 0, 57, 0
1, 273216, Note_off_c, 0, 48, 0
1, 273216, Note_off_c, 0, 47, 0
1, 273216, Note_off_c, 0, 31, 0
1, 273216, Note_off_c, 0, 33, 0
1, 273216, Note_off_c, 0, 35, 0
1, 273216, Note_off_c, 0, 36, 0
1, 273216, Note_off_c, 0, 38, 0
1, 273216, Note_off_c, 0, 40, 0
1, 273408, Note_on_c, 0, 40, 50
1, 273792, Note_off_c, 0, 40, 0
1, 274944, Note_on_c, 0, 52, 50
1, 274944, Note_on_c, 0, 48, 50
1, 275136, Note_off_c, 0, 48, 0
1, 275136, Note_off_c, 0, 52, 0
1, 275616, Note_on_c, 0, 55, 5
1, 275616, Note_on_c, 0, 57, 5
1, 275616, Note_on_c, 0, 59, 5
1, 275616, Note_on_c, 0, 60, 5
1, 275616, Note_on_c, 0, 62, 5
1, 275616, Note_on_c, 0, 64, 5
1, 275616, Note_on_c, 0, 65, 5
1, 275712, Note_off_c, 0, 65, 0
1, 275712, Note_off_c, 0, 64, 0
1, 275712, Note_off_c, 0, 62, 0
1, 275712, Note_off_c, 0, 60, 0
1, 275712, Note_off_c, 0, 59, 0
1, 275712, Note_off_c, 0, 57, 0
1, 275712, Note_off_c, 0, 55, 0
1, 275712, Note_on_c, 0, 55, 5
1, 275712, Note_on_c, 0, 57, 5
1, 275808, Note_off_c, 0, 57, 0
1, 275808, Note_off_c, 0, 55, 0
1, 275808, Note_on_c, 0, 55, 5
1, 275808, Note_on_c, 0, 57, 5
1, 275904, Note_off_c, 0, 57, 0
1, 275904, Note_off_c, 0, 55, 0
1, 275904, Note_on_c, 0, 55, 5
1, 275904, Note_on_c, 0, 57, 5
1, 275904, Note_on_c, 0, 59, 5
1, 275904, Note_on_c, 0, 60, 5
1, 275904, Note_on_c, 0, 62, 5
1, 275904, Note_on_c, 0, 64, 5
1, 275904, Note_on_c, 0, 65, 5
1, 276000, Note_off_c, 0, 65, 0
1, 276000, Note_off_c, 0, 64, 0
1, 276000, Note_off_c, 0, 62, 0
1, 276000, Note_off_c, 0, 60, 0
1, 276000, Note_off_c, 0, 59, 0
1, 276000, Note_off_c, 0, 57, 0
1, 276000, Note_off_c, 0, 55, 0
1, 276000, Note_on_c, 0, 55, 5
1, 276000, Note_on_c, 0, 57, 5
1, 276096, Note_off_c, 0, 57, 0
1, 276096, Note_off_c, 0, 55, 0
1, 276096, Note_on_c, 0, 55, 5
1, 276096, Note_on_c, 0, 57, 5
1, 276192, Note_off_c, 0, 57, 0
1, 276192, Note_off_c, 0, 55, 0
1, 276192, Note_on_c, 0, 55, 5
1, 276192, Note_on_c, 0, 57, 5
1, 276192, Note_on_c, 0, 59, 5
1, 276192, Note_on_c, 0, 60, 5
1, 276192, Note_on_c, 0, 62, 5
1, 276192, Note_on_c, 0, 64, 5
1, 276192, Note_on_c, 0, 65, 5
1, 276288, Note_off_c, 0, 65, 0
1, 276288, Note_off_c, 0, 64, 0
1, 276288, Note_off_c, 0, 62, 0
1, 276288, Note_off_c, 0, 60, 0
1, 276288, Note_off_c, 0, 59, 0
1, 276288, Note_off_c, 0, 57, 0
1, 276288, Note_off_c, 0, 55, 0
1, 276480, Note_on_c, 0, 33, 50
1, 276480, Note_on_c, 0, 45, 50
1, 278016, Note_off_c, 0, 45, 0
1, 278016, Note_off_c, 0, 33, 0
1, 278016, Note_on_c, 0, 52, 50
1, 278016, Note_on_c, 0, 48, 50
1, 278016, Note_on_c, 0, 64, 50
1, 278016, Note_on_c, 0, 60, 50
1, 278016, Note_on_c, 0, 57, 50
1, 278208, Note_off_c, 0, 57, 0
1, 278208, Note_off_c, 0, 60, 0
1, 278208, Note_off_c, 0, 64, 0
1, 278208, Note_off_c, 0, 48, 0
1, 278208, Note_off_c, 0, 52, 0
1, 278688, Note_on_c, 0, 29, 5
1, 278688, Note_on_c, 0, 31, 5
1, 278688, Note_on_c, 0, 38, 5
1, 278688, Note_on_c, 0, 40, 5
1, 278688, Note_on_c, 0, 48, 5
1, 278688, Note_on_c, 0, 50, 5
1, 278688, Note_on_c, 0, 52, 5
1, 278688, Note_on_c, 0, 53, 5
1, 278688, Note_on_c, 0, 55, 5
1, 278688, Note_on_c, 0, 64, 5
1, 278688, Note_on_c, 0, 65, 5
1, 278688, Note_on_c, 0, 67, 5
1, 278688, Note_on_c, 0, 69, 5
1, 278688, Note_on_c, 0, 71, 5
1, 278688, Note_on_c, 0, 72, 5
1, 278688, Note_on_c, 0, 83, 5
1, 278688, Note_on_c, 0, 81, 5
1, 278688, Note_on_c, 0, 91, 5
1, 278688, Note_on_c, 0, 89, 5
1, 278784, Note_off_c, 0, 89, 0
1, 278784, Note_off_c, 0, 91, 0
1, 278784, Note_off_c, 0, 81, 0
1, 278784, Note_off_c, 0, 83, 0
1, 278784, Note_off_c, 0, 72, 0
1, 278784, Note_off_c, 0, 71, 0
1, 278784, Note_off_c, 0, 69, 0
1, 278784, Note_off_c, 0, 67, 0
1, 278784, Note_off_c, 0, 65, 0
1, 278784, Note_off_c, 0, 64, 0
1, 278784, Note_off_c, 0, 55, 0
1, 278784, Note_off_c, 0, 53, 0
1, 278784, Note_off_c, 0, 52, 0
1, 278784, Note_off_c, 0, 50, 0
1, 278784, Note_off_c, 0, 48, 0
1, 278784, Note_off_c, 0, 40, 0
1, 278784, Note_off_c, 0, 38, 0
1, 278784, Note_off_c, 0, 31, 0
1, 278784, Note_off_c, 0, 29, 0
1, 278784, Note_on_c, 0, 31, 5
1, 278784, Note_on_c, 0, 33, 5
1, 278784, Note_on_c, 0, 38, 5
1, 278784, Note_on_c, 0, 40, 5
1, 278784, Note_on_c, 0, 35, 5
1, 278784, Note_on_c, 0, 47, 5
1, 278784, Note_on_c, 0, 48, 5
1, 278784, Note_on_c, 0, 57, 5
1, 278784, Note_on_c, 0, 55, 5
1, 278784, Note_on_c, 0, 74, 5
1, 278784, Note_on_c, 0, 72, 5
1, 278784, Note_on_c, 0, 83, 5
1, 278784, Note_on_c, 0, 81, 5
1, 278784, Note_on_c, 0, 89, 5
1, 278784, Note_on_c, 0, 91, 5
1, 278880, Note_off_c, 0, 91, 0
1, 278880, Note_off_c, 0, 89, 0
1, 278880, Note_off_c, 0, 81, 0
1, 278880, Note_off_c, 0, 83, 0
1, 278880, Note_off_c, 0, 72, 0
1, 278880, Note_off_c, 0, 74, 0
1, 278880, Note_off_c, 0, 55, 0
1, 278880, Note_off_c, 0, 57, 0
1, 278880, Note_off_c, 0, 48, 0
1, 278880, Note_off_c, 0, 47, 0
1, 278880, Note_off_c, 0, 35, 0
1, 278880, Note_off_c, 0, 40, 0
1, 278880, Note_off_c, 0, 38, 0
1, 278880, Note_off_c, 0, 33, 0
1, 278880, Note_off_c, 0, 31, 0
1, 278880, Note_on_c, 0, 35, 5
1, 278880, Note_on_c, 0, 36, 5
1, 278880, Note_on_c, 0, 38, 5
1, 278880, Note_on_c, 0, 40, 5
1, 278880, Note_on_c, 0, 47, 5
1, 278880, Note_on_c, 0, 48, 5
1, 278880, Note_on_c, 0, 57, 5
1, 278880, Note_on_c, 0, 55, 5
1, 278880, Note_on_c, 0, 74, 5
1, 278880, Note_on_c, 0, 72, 5
1, 278880, Note_on_c, 0, 81, 5
1, 278880, Note_on_c, 0, 83, 5
1, 278880, Note_on_c, 0, 91, 5
1, 278880, Note_on_c, 0, 89, 5
1, 278976, Note_off_c, 0, 89, 0
1, 278976, Note_off_c, 0, 91, 0
1, 278976, Note_off_c, 0, 83, 0
1, 278976, Note_off_c, 0, 81, 0
1, 278976, Note_off_c, 0, 72, 0
1, 278976, Note_off_c, 0, 74, 0
1, 278976, Note_off_c, 0, 55, 0
1, 278976, Note_off_c, 0, 57, 0
1, 278976, Note_off_c, 0, 48, 0
1, 278976, Note_off_c, 0, 47, 0
1, 278976, Note_off_c, 0, 40, 0
1, 278976, Note_off_c, 0, 38, 0
1, 278976, Note_off_c, 0, 36, 0
1, 278976, Note_off_c, 0, 35, 0
1, 278976, Note_on_c, 0, 40, 5
1, 278976, Note_on_c, 0, 38, 5
1, 278976, Note_on_c, 0, 31, 5
1, 278976, Note_on_c, 0, 33, 5
1, 278976, Note_on_c, 0, 35, 5
1, 278976, Note_on_c, 0, 36, 5
1, 278976, Note_on_c, 0, 47, 5
1, 278976, Note_on_c, 0, 48, 5
1, 278976, Note_on_c, 0, 57, 5
1, 278976, Note_on_c, 0, 55, 5
1, 278976, Note_on_c, 0, 72, 5
1, 278976, Note_on_c, 0, 71, 5
1, 278976, Note_on_c, 0, 69, 5
1, 278976, Note_on_c, 0, 67, 5
1, 278976, Note_on_c, 0, 65, 5
1, 278976, Note_on_c, 0, 83, 5
1, 278976, Note_on_c, 0, 81, 5
1, 278976, Note_on_c, 0, 91, 5
1, 278976, Note_on_c, 0, 89, 5
1, 278976, Note_on_c, 0, 88, 5
1, 278976, Note_on_c, 0, 86, 5
1, 278976, Note_on_c, 0, 84, 5
1, 279072, Note_off_c, 0, 84, 0
1, 279072, Note_off_c, 0, 86, 0
1, 279072, Note_off_c, 0, 88, 0
1, 279072, Note_off_c, 0, 89, 0
1, 279072, Note_off_c, 0, 91, 0
1, 279072, Note_off_c, 0, 81, 0
1, 279072, Note_off_c, 0, 83, 0
1, 279072, Note_off_c, 0, 65, 0
1, 279072, Note_off_c, 0, 67, 0
1, 279072, Note_off_c, 0, 69, 0
1, 279072, Note_off_c, 0, 71, 0
1, 279072, Note_off_c, 0, 72, 0
1, 279072, Note_off_c, 0, 55, 0
1, 279072, Note_off_c, 0, 57, 0
1, 279072, Note_off_c, 0, 48, 0
1, 279072, Note_off_c, 0, 47, 0
1, 279072, Note_off_c, 0, 36, 0
1, 279072, Note_off_c, 0, 35, 0
1, 279072, Note_off_c, 0, 33, 0
1, 279072, Note_off_c, 0, 31, 0
1, 279072, Note_off_c, 0, 38, 0
1, 279072, Note_off_c, 0, 40, 0
1, 279072, Note_on_c, 0, 40, 5
1, 279072, Note_on_c, 0, 38, 5
1, 279072, Note_on_c, 0, 31, 5
1, 279072, Note_on_c, 0, 29, 5
1, 279072, Note_on_c, 0, 47, 5
1, 279072, Note_on_c, 0, 48, 5
1, 279072, Note_on_c, 0, 57, 5
1, 279072, Note_on_c, 0, 55, 5
1, 279072, Note_on_c, 0, 65, 5
1, 279072, Note_on_c, 0, 64, 5
1, 279072, Note_on_c, 0, 83, 5
1, 279072, Note_on_c, 0, 81, 5
1, 279072, Note_on_c, 0, 91, 5
1, 279072, Note_on_c, 0, 89, 5
1, 279168, Note_off_c, 0, 89, 0
1, 279168, Note_off_c, 0, 91, 0
1, 279168, Note_off_c, 0, 81, 0
1, 279168, Note_off_c, 0, 83, 0
1, 279168, Note_off_c, 0, 64, 0
1, 279168, Note_off_c, 0, 65, 0
1, 279168, Note_off_c, 0, 55, 0
1, 279168, Note_off_c, 0, 57, 0
1, 279168, Note_off_c, 0, 48, 0
1, 279168, Note_off_c, 0, 47, 0
1, 279168, Note_off_c, 0, 29, 0
1, 279168, Note_off_c, 0, 31, 0
1, 279168, Note_off_c, 0, 38, 0
1, 279168, Note_off_c, 0, 40, 0
1, 279168, Note_on_c, 0, 40, 5
1, 279168, Note_on_c, 0, 38, 5
1, 279168, Note_on_c, 0, 31, 5
1, 279168, Note_on_c, 0, 29, 5
1, 279168, Note_on_c, 0, 47, 5
1, 279168, Note_on_c, 0, 48, 5
1, 279168, Note_on_c, 0, 57, 5
1, 279168, Note_on_c, 0, 55, 5
1, 279168, Note_on_c, 0, 65, 5
1, 279168, Note_on_c, 0, 64, 5
1, 279168, Note_on_c, 0, 83, 5
1, 279168, Note_on_c, 0, 81, 5
1, 279168, Note_on_c, 0, 91, 5
1, 279168, Note_on_c, 0, 89, 5
1, 279264, Note_off_c, 0, 89, 0
1, 279264, Note_off_c, 0, 91, 0
1, 279264, Note_off_c, 0, 81, 0
1, 279264, Note_off_c, 0, 83, 0
1, 279264, Note_off_c, 0, 64, 0
1, 279264, Note_off_c, 0, 65, 0
1, 279264, Note_off_c, 0, 55, 0
1, 279264, Note_off_c, 0, 57, 0
1, 279264, Note_off_c, 0, 48, 0
1, 279264, Note_off_c, 0, 47, 0
1, 279264, Note_off_c, 0, 29, 0
1, 279264, Note_off_c, 0, 31, 0
1, 279264, Note_off_c, 0, 38, 0
1, 279264, Note_off_c, 0, 40, 0
1, 279264, Note_on_c, 0, 40, 5
1, 279264, Note_on_c, 0, 38, 5
1, 279264, Note_on_c, 0, 36, 5
1, 279264, Note_on_c, 0, 35, 5
1, 279264, Note_on_c, 0, 33, 5
1, 279264, Note_on_c, 0, 31, 5
1, 279264, Note_on_c, 0, 47, 5
1, 279264, Note_on_c, 0, 48, 5
1, 279264, Note_on_c, 0, 57, 5
1, 279264, Note_on_c, 0, 55, 5
1, 279264, Note_on_c, 0, 65, 5
1, 279264, Note_on_c, 0, 67, 5
1, 279264, Note_on_c, 0, 69, 5
1, 279264, Note_on_c, 0, 71, 5
1, 279264, Note_on_c, 0, 72, 5
1, 279264, Note_on_c, 0, 74, 5
1, 279264, Note_on_c, 0, 83, 5
1, 279264, Note_on_c, 0, 81, 5
1, 279264, Note_on_c, 0, 89, 5
1, 279264, Note_on_c, 0, 91, 5
1, 279360, Note_off_c, 0, 91, 0
1, 279360, Note_off_c, 0, 89, 0
1, 279360, Note_off_c, 0, 81, 0
1, 279360, Note_off_c, 0, 83, 0
1, 279360, Note_off_c, 0, 74, 0
1, 279360, Note_off_c, 0, 72, 0
1, 279360, Note_off_c, 0, 71, 0
1, 279360, Note_off_c, 0, 69, 0
1, 279360, Note_off_c, 0, 67, 0
1, 279360, Note_off_c, 0, 65, 0
1, 279360, Note_off_c, 0, 55, 0
1, 279360, Note_off_c, 0, 57, 0
1, 279360, Note_off_c, 0, 48, 0
1, 279360, Note_off_c, 0, 47, 0
1, 279360, Note_off_c, 0, 31, 0
1, 279360, Note_off_c, 0, 33, 0
1, 279360, Note_off_c, 0, 35, 0
1, 279360, Note_off_c, 0, 36, 0
1, 279360, Note_off_c, 0, 38, 0
1, 279360, Note_off_c, 0, 40, 0
1, 279552, Note_on_c, 0, 40, 50
1, 279936, Note_off_c, 0, 40, 0
1, 281088, Note_on_c, 0, 52, 50
1, 281088, Note_on_c, 0, 48, 50
1, 281088, Note_on_c, 0, 57, 50
1, 281088, Note_on_c, 0, 60, 50
1, 281088, Note_on_c, 0, 64, 50
1, 281280, Note_off_c, 0, 64, 0
1, 281280, Note_off_c, 0, 60, 0
1, 281280, Note_off_c, 0, 57, 0
1, 281280, Note_off_c, 0, 48, 0
1, 281280, Note_off_c, 0, 52, 0
1, 281760, Note_on_c, 0, 55, 5
1, 281760, Note_on_c, 0, 57, 5
1, 281760, Note_on_c, 0, 59, 5
1, 281760, Note_on_c, 0, 60, 5
1, 281760, Note_on_c, 0, 62, 5
1, 281760, Note_on_c, 0, 64, 5
1, 281760, Note_on_c, 0, 65, 5
1, 281856, Note_off_c, 0, 65, 0
1, 281856, Note_off_c, 0, 64, 0
1, 281856, Note_off_c, 0, 62, 0
1, 281856, Note_off_c, 0, 60, 0
1, 281856, Note_off_c, 0, 59, 0
1, 281856, Note_off_c, 0, 57, 0
1, 281856, Note_off_c, 0, 55, 0
1, 281856, Note_on_c, 0, 55, 5
1, 281856, Note_on_c, 0, 57, 5
1, 281952, Note_off_c, 0, 57, 0
1, 281952, Note_off_c, 0, 55, 0
1, 281952, Note_on_c, 0, 55, 5
1, 281952, Note_on_c, 0, 57, 5
1, 282048, Note_off_c, 0, 57, 0
1, 282048, Note_off_c, 0, 55, 0
1, 282048, Note_on_c, 0, 55, 5
1, 282048, Note_on_c, 0, 57, 5
1, 282048, Note_on_c, 0, 59, 5
1, 282048, Note_on_c, 0, 60, 5
1, 282048, Note_on_c, 0, 62, 5
1, 282048, Note_on_c, 0, 64, 5
1, 282048, Note_on_c, 0, 65, 5
1, 282144, Note_off_c, 0, 65, 0
1, 282144, Note_off_c, 0, 64, 0
1, 282144, Note_off_c, 0, 62, 0
1, 282144, Note_off_c, 0, 60, 0
1, 282144, Note_off_c, 0, 59, 0
1, 282144, Note_off_c, 0, 57, 0
1, 282144, Note_off_c, 0, 55, 0
1, 282144, Note_on_c, 0, 55, 5
1, 282144, Note_on_c, 0, 57, 5
1, 282240, Note_off_c, 0, 57, 0
1, 282240, Note_off_c, 0, 55, 0
1, 282240, Note_on_c, 0, 55, 5
1, 282240, Note_on_c, 0, 57, 5
1, 282336, Note_off_c, 0, 57, 0
1, 282336, Note_off_c, 0, 55, 0
1, 282336, Note_on_c, 0, 55, 5
1, 282336, Note_on_c, 0, 57, 5
1, 282336, Note_on_c, 0, 59, 5
1, 282336, Note_on_c, 0, 60, 5
1, 282336, Note_on_c, 0, 62, 5
1, 282336, Note_on_c, 0, 64, 5
1, 282336, Note_on_c, 0, 65, 5
1, 282432, Note_off_c, 0, 65, 0
1, 282432, Note_off_c, 0, 64, 0
1, 282432, Note_off_c, 0, 62, 0
1, 282432, Note_off_c, 0, 60, 0
1, 282432, Note_off_c, 0, 59, 0
1, 282432, Note_off_c, 0, 57, 0
1, 282432, Note_off_c, 0, 55, 0
1, 282624, Note_on_c, 0, 33, 50
1, 282624, Note_on_c, 0, 45, 50
1, 284160, Note_off_c, 0, 45, 0
1, 284160, Note_off_c, 0, 33, 0
1, 284160, Note_on_c, 0, 52, 50
1, 284160, Note_on_c, 0, 48, 50
1, 284160, Note_on_c, 0, 64, 50
1, 284160, Note_on_c, 0, 60, 50
1, 284160, Note_on_c, 0, 57, 50
1, 284352, Note_off_c, 0, 57, 0
1, 284352, Note_off_c, 0, 60, 0
1, 284352, Note_off_c, 0, 64, 0
1, 284352, Note_off_c, 0, 48, 0
1, 284352, Note_off_c, 0, 52, 0
1, 284832, Note_on_c, 0, 29, 5
1, 284832, Note_on_c, 0, 31, 5
1, 284832, Note_on_c, 0, 38, 5
1, 284832, Note_on_c, 0, 40, 5
1, 284832, Note_on_c, 0, 48, 5
1, 284832, Note_on_c, 0, 50, 5
1, 284832, Note_on_c, 0, 52, 5
1, 284832, Note_on_c, 0, 53, 5
1, 284832, Note_on_c, 0, 55, 5
1, 284832, Note_on_c, 0, 64, 5
1, 284832, Note_on_c, 0, 65, 5
1, 284832, Note_on_c, 0, 67, 5
1, 284832, Note_on_c, 0, 69, 5
1, 284832, Note_on_c, 0, 71, 5
1, 284832, Note_on_c, 0, 72, 5
1, 284832, Note_on_c, 0, 83, 5
1, 284832, Note_on_c, 0, 81, 5
1, 284832, Note_on_c, 0, 91, 5
1, 284832, Note_on_c, 0, 89, 5
1, 284928, Note_off_c, 0, 89, 0
1, 284928, Note_off_c, 0, 91, 0
1, 284928, Note_off_c, 0, 81, 0
1, 284928, Note_off_c, 0, 83, 0
1, 284928, Note_off_c, 0, 72, 0
1, 284928, Note_off_c, 0, 71, 0
1, 284928, Note_off_c, 0, 69, 0
1, 284928, Note_off_c, 0, 67, 0
1, 284928, Note_off_c, 0, 65, 0
1, 284928, Note_off_c, 0, 64, 0
1, 284928, Note_off_c, 0, 55, 0
1, 284928, Note_off_c, 0, 53, 0
1, 284928, Note_off_c, 0, 52, 0
1, 284928, Note_off_c, 0, 50, 0
1, 284928, Note_off_c, 0, 48, 0
1, 284928, Note_off_c, 0, 40, 0
1, 284928, Note_off_c, 0, 38, 0
1, 284928, Note_off_c, 0, 31, 0
1, 284928, Note_off_c, 0, 29, 0
1, 284928, Note_on_c, 0, 31, 5
1, 284928, Note_on_c, 0, 33, 5
1, 284928, Note_on_c, 0, 38, 5
1, 284928, Note_on_c, 0, 40, 5
1, 284928, Note_on_c, 0, 35, 5
1, 284928, Note_on_c, 0, 47, 5
1, 284928, Note_on_c, 0, 48, 5
1, 284928, Note_on_c, 0, 57, 5
1, 284928, Note_on_c, 0, 55, 5
1, 284928, Note_on_c, 0, 74, 5
1, 284928, Note_on_c, 0, 72, 5
1, 284928, Note_on_c, 0, 83, 5
1, 284928, Note_on_c, 0, 81, 5
1, 284928, Note_on_c, 0, 89, 5
1, 284928, Note_on_c, 0, 91, 5
1, 285024, Note_off_c, 0, 91, 0
1, 285024, Note_off_c, 0, 89, 0
1, 285024, Note_off_c, 0, 81, 0
1, 285024, Note_off_c, 0, 83, 0
1, 285024, Note_off_c, 0, 72, 0
1, 285024, Note_off_c, 0, 74, 0
1, 285024, Note_off_c, 0, 55, 0
1, 285024, Note_off_c, 0, 57, 0
1, 285024, Note_off_c, 0, 48, 0
1, 285024, Note_off_c, 0, 47, 0
1, 285024, Note_off_c, 0, 35, 0
1, 285024, Note_off_c, 0, 40, 0
1, 285024, Note_off_c, 0, 38, 0
1, 285024, Note_off_c, 0, 33, 0
1, 285024, Note_off_c, 0, 31, 0
1, 285024, Note_on_c, 0, 35, 5
1, 285024, Note_on_c, 0, 36, 5
1, 285024, Note_on_c, 0, 38, 5
1, 285024, Note_on_c, 0, 40, 5
1, 285024, Note_on_c, 0, 47, 5
1, 285024, Note_on_c, 0, 48, 5
1, 285024, Note_on_c, 0, 57, 5
1, 285024, Note_on_c, 0, 55, 5
1, 285024, Note_on_c, 0, 74, 5
1, 285024, Note_on_c, 0, 72, 5
1, 285024, Note_on_c, 0, 81, 5
1, 285024, Note_on_c, 0, 83, 5
1, 285024, Note_on_c, 0, 91, 5
1, 285024, Note_on_c, 0, 89, 5
1, 285120, Note_off_c, 0, 89, 0
1, 285120, Note_off_c, 0, 91, 0
1, 285120, Note_off_c, 0, 83, 0
1, 285120, Note_off_c, 0, 81, 0
1, 285120, Note_off_c, 0, 72, 0
1, 285120, Note_off_c, 0, 74, 0
1, 285120, Note_off_c, 0, 55, 0
1, 285120, Note_off_c, 0, 57, 0
1, 285120, Note_off_c, 0, 48, 0
1, 285120, Note_off_c, 0, 47, 0
1, 285120, Note_off_c, 0, 40, 0
1, 285120, Note_off_c, 0, 38, 0
1, 285120, Note_off_c, 0, 36, 0
1, 285120, Note_off_c, 0, 35, 0
1, 285120, Note_on_c, 0, 40, 5
1, 285120, Note_on_c, 0, 38, 5
1, 285120, Note_on_c, 0, 31, 5
1, 285120, Note_on_c, 0, 33, 5
1, 285120, Note_on_c, 0, 35, 5
1, 285120, Note_on_c, 0, 36, 5
1, 285120, Note_on_c, 0, 47, 5
1, 285120, Note_on_c, 0, 48, 5
1, 285120, Note_on_c, 0, 57, 5
1, 285120, Note_on_c, 0, 55, 5
1, 285120, Note_on_c, 0, 72, 5
1, 285120, Note_on_c, 0, 71, 5
1, 285120, Note_on_c, 0, 69, 5
1, 285120, Note_on_c, 0, 67, 5
1, 285120, Note_on_c, 0, 65, 5
1, 285120, Note_on_c, 0, 83, 5
1, 285120, Note_on_c, 0, 81, 5
1, 285120, Note_on_c, 0, 91, 5
1, 285120, Note_on_c, 0, 89, 5
1, 285120, Note_on_c, 0, 88, 5
1, 285120, Note_on_c, 0, 86, 5
1, 285120, Note_on_c, 0, 84, 5
1, 285216, Note_off_c, 0, 84, 0
1, 285216, Note_off_c, 0, 86, 0
1, 285216, Note_off_c, 0, 88, 0
1, 285216, Note_off_c, 0, 89, 0
1, 285216, Note_off_c, 0, 91, 0
1, 285216, Note_off_c, 0, 81, 0
1, 285216, Note_off_c, 0, 83, 0
1, 285216, Note_off_c, 0, 65, 0
1, 285216, Note_off_c, 0, 67, 0
1, 285216, Note_off_c, 0, 69, 0
1, 285216, Note_off_c, 0, 71, 0
1, 285216, Note_off_c, 0, 72, 0
1, 285216, Note_off_c, 0, 55, 0
1, 285216, Note_off_c, 0, 57, 0
1, 285216, Note_off_c, 0, 48, 0
1, 285216, Note_off_c, 0, 47, 0
1, 285216, Note_off_c, 0, 36, 0
1, 285216, Note_off_c, 0, 35, 0
1, 285216, Note_off_c, 0, 33, 0
1, 285216, Note_off_c, 0, 31, 0
1, 285216, Note_off_c, 0, 38, 0
1, 285216, Note_off_c, 0, 40, 0
1, 285216, Note_on_c, 0, 40, 5
1, 285216, Note_on_c, 0, 38, 5
1, 285216, Note_on_c, 0, 31, 5
1, 285216, Note_on_c, 0, 29, 5
1, 285216, Note_on_c, 0, 47, 5
1, 285216, Note_on_c, 0, 48, 5
1, 285216, Note_on_c, 0, 57, 5
1, 285216, Note_on_c, 0, 55, 5
1, 285216, Note_on_c, 0, 65, 5
1, 285216, Note_on_c, 0, 64, 5
1, 285216, Note_on_c, 0, 83, 5
1, 285216, Note_on_c, 0, 81, 5
1, 285216, Note_on_c, 0, 91, 5
1, 285216, Note_on_c, 0, 89, 5
1, 285312, Note_off_c, 0, 89, 0
1, 285312, Note_off_c, 0, 91, 0
1, 285312, Note_off_c, 0, 81, 0
1, 285312, Note_off_c, 0, 83, 0
1, 285312, Note_off_c, 0, 64, 0
1, 285312, Note_off_c, 0, 65, 0
1, 285312, Note_off_c, 0, 55, 0
1, 285312, Note_off_c, 0, 57, 0
1, 285312, Note_off_c, 0, 48, 0
1, 285312, Note_off_c, 0, 47, 0
1, 285312, Note_off_c, 0, 29, 0
1, 285312, Note_off_c, 0, 31, 0
1, 285312, Note_off_c, 0, 38, 0
1, 285312, Note_off_c, 0, 40, 0
1, 285312, Note_on_c, 0, 40, 5
1, 285312, Note_on_c, 0, 38, 5
1, 285312, Note_on_c, 0, 31, 5
1, 285312, Note_on_c, 0, 29, 5
1, 285312, Note_on_c, 0, 47, 5
1, 285312, Note_on_c, 0, 48, 5
1, 285312, Note_on_c, 0, 57, 5
1, 285312, Note_on_c, 0, 55, 5
1, 285312, Note_on_c, 0, 65, 5
1, 285312, Note_on_c, 0, 64, 5
1, 285312, Note_on_c, 0, 83, 5
1, 285312, Note_on_c, 0, 81, 5
1, 285312, Note_on_c, 0, 91, 5
1, 285312, Note_on_c, 0, 89, 5
1, 285408, Note_off_c, 0, 89, 0
1, 285408, Note_off_c, 0, 91, 0
1, 285408, Note_off_c, 0, 81, 0
1, 285408, Note_off_c, 0, 83, 0
1, 285408, Note_off_c, 0, 64, 0
1, 285408, Note_off_c, 0, 65, 0
1, 285408, Note_off_c, 0, 55, 0
1, 285408, Note_off_c, 0, 57, 0
1, 285408, Note_off_c, 0, 48, 0
1, 285408, Note_off_c, 0, 47, 0
1, 285408, Note_off_c, 0, 29, 0
1, 285408, Note_off_c, 0, 31, 0
1, 285408, Note_off_c, 0, 38, 0
1, 285408, Note_off_c, 0, 40, 0
1, 285408, Note_on_c, 0, 40, 5
1, 285408, Note_on_c, 0, 38, 5
1, 285408, Note_on_c, 0, 36, 5
1, 285408, Note_on_c, 0, 35, 5
1, 285408, Note_on_c, 0, 33, 5
1, 285408, Note_on_c, 0, 31, 5
1, 285408, Note_on_c, 0, 47, 5
1, 285408, Note_on_c, 0, 48, 5
1, 285408, Note_on_c, 0, 57, 5
1, 285408, Note_on_c, 0, 55, 5
1, 285408, Note_on_c, 0, 65, 5
1, 285408, Note_on_c, 0, 67, 5
1, 285408, Note_on_c, 0, 69, 5
1, 285408, Note_on_c, 0, 71, 5
1, 285408, Note_on_c, 0, 72, 5
1, 285408, Note_on_c, 0, 74, 5
1, 285408, Note_on_c, 0, 83, 5
1, 285408, Note_on_c, 0, 81, 5
1, 285408, Note_on_c, 0, 89, 5
1, 285408, Note_on_c, 0, 91, 5
1, 285504, Note_off_c, 0, 91, 0
1, 285504, Note_off_c, 0, 89, 0
1, 285504, Note_off_c, 0, 81, 0
1, 285504, Note_off_c, 0, 83, 0
1, 285504, Note_off_c, 0, 74, 0
1, 285504, Note_off_c, 0, 72, 0
1, 285504, Note_off_c, 0, 71, 0
1, 285504, Note_off_c, 0, 69, 0
1, 285504, Note_off_c, 0, 67, 0
1, 285504, Note_off_c, 0, 65, 0
1, 285504, Note_off_c, 0, 55, 0
1, 285504, Note_off_c, 0, 57, 0
1, 285504, Note_off_c, 0, 48, 0
1, 285504, Note_off_c, 0, 47, 0
1, 285504, Note_off_c, 0, 31, 0
1, 285504, Note_off_c, 0, 33, 0
1, 285504, Note_off_c, 0, 35, 0
1, 285504, Note_off_c, 0, 36, 0
1, 285504, Note_off_c, 0, 38, 0
1, 285504, Note_off_c, 0, 40, 0
1, 285696, Note_on_c, 0, 40, 50
1, 286080, Note_off_c, 0, 40, 0
1, 287232, Note_on_c, 0, 52, 50
1, 287232, Note_on_c, 0, 48, 50
1, 287232, Note_on_c, 0, 57, 50
1, 287232, Note_on_c, 0, 60, 50
1, 287232, Note_on_c, 0, 64, 50
1, 287424, Note_off_c, 0, 64, 0
1, 287424, Note_off_c, 0, 60, 0
1, 287424, Note_off_c, 0, 57, 0
1, 287424, Note_off_c, 0, 48, 0
1, 287424, Note_off_c, 0, 52, 0
1, 287904, Note_on_c, 0, 55, 5
1, 287904, Note_on_c, 0, 57, 5
1, 287904, Note_on_c, 0, 59, 5
1, 287904, Note_on_c, 0, 60, 5
1, 287904, Note_on_c, 0, 62, 5
1, 287904, Note_on_c, 0, 64, 5
1, 287904, Note_on_c, 0, 65, 5
1, 288000, Note_off_c, 0, 65, 0
1, 288000, Note_off_c, 0, 64, 0
1, 288000, Note_off_c, 0, 62, 0
1, 288000, Note_off_c, 0, 60, 0
1, 288000, Note_off_c, 0, 59, 0
1, 288000, Note_off_c, 0, 57, 0
1, 288000, Note_off_c, 0, 55, 0
1, 288000, Note_on_c, 0, 55, 5
1, 288000, Note_on_c, 0, 57, 5
1, 288096, Note_off_c, 0, 57, 0
1, 288096, Note_off_c, 0, 55, 0
1, 288096, Note_on_c, 0, 55, 5
1, 288096, Note_on_c, 0, 57, 5
1, 288192, Note_off_c, 0, 57, 0
1, 288192, Note_off_c, 0, 55, 0
1, 288192, Note_on_c, 0, 55, 5
1, 288192, Note_on_c, 0, 57, 5
1, 288192, Note_on_c, 0, 59, 5
1, 288192, Note_on_c, 0, 60, 5
1, 288192, Note_on_c, 0, 62, 5
1, 288192, Note_on_c, 0, 64, 5
1, 288192, Note_on_c, 0, 65, 5
1, 288288, Note_off_c, 0, 65, 0
1, 288288, Note_off_c, 0, 64, 0
1, 288288, Note_off_c, 0, 62, 0
1, 288288, Note_off_c, 0, 60, 0
1, 288288, Note_off_c, 0, 59, 0
1, 288288, Note_off_c, 0, 57, 0
1, 288288, Note_off_c, 0, 55, 0
1, 288288, Note_on_c, 0, 55, 5
1, 288288, Note_on_c, 0, 57, 5
1, 288384, Note_off_c, 0, 57, 0
1, 288384, Note_off_c, 0, 55, 0
1, 288384, Note_on_c, 0, 55, 5
1, 288384, Note_on_c, 0, 57, 5
1, 288480, Note_off_c, 0, 57, 0
1, 288480, Note_off_c, 0, 55, 0
1, 288480, Note_on_c, 0, 55, 5
1, 288480, Note_on_c, 0, 57, 5
1, 288480, Note_on_c, 0, 59, 5
1, 288480, Note_on_c, 0, 60, 5
1, 288480, Note_on_c, 0, 62, 5
1, 288480, Note_on_c, 0, 64, 5
1, 288480, Note_on_c, 0, 65, 5
1, 288576, Note_off_c, 0, 65, 0
1, 288576, Note_off_c, 0, 64, 0
1, 288576, Note_off_c, 0, 62, 0
1, 288576, Note_off_c, 0, 60, 0
1, 288576, Note_off_c, 0, 59, 0
1, 288576, Note_off_c, 0, 57, 0
1, 288576, Note_off_c, 0, 55, 0
1, 288768, Note_on_c, 0, 33, 50
1, 288768, Note_on_c, 0, 45, 50
1, 288768, Note_on_c, 0, 57, 50
1, 290304, Note_off_c, 0, 57, 0
1, 290304, Note_off_c, 0, 45, 0
1, 290304, Note_off_c, 0, 33, 0
1, 290304, Note_on_c, 0, 52, 50
1, 290304, Note_on_c, 0, 48, 50
1, 290304, Note_on_c, 0, 64, 50
1, 290304, Note_on_c, 0, 60, 50
1, 290304, Note_on_c, 0, 57, 50
1, 290304, Note_on_c, 0, 76, 50
1, 290304, Note_on_c, 0, 72, 50
1, 290304, Note_on_c, 0, 69, 50
1, 290496, Note_off_c, 0, 69, 0
1, 290496, Note_off_c, 0, 72, 0
1, 290496, Note_off_c, 0, 76, 0
1, 290496, Note_off_c, 0, 57, 0
1, 290496, Note_off_c, 0, 60, 0
1, 290496, Note_off_c, 0, 64, 0
1, 290496, Note_off_c, 0, 48, 0
1, 290496, Note_off_c, 0, 52, 0
1, 290976, Note_on_c, 0, 29, 5
1, 290976, Note_on_c, 0, 31, 5
1, 290976, Note_on_c, 0, 38, 5
1, 290976, Note_on_c, 0, 40, 5
1, 290976, Note_on_c, 0, 48, 5
1, 290976, Note_on_c, 0, 50, 5
1, 290976, Note_on_c, 0, 52, 5
1, 290976, Note_on_c, 0, 53, 5
1, 290976, Note_on_c, 0, 55, 5
1, 290976, Note_on_c, 0, 64, 5
1, 290976, Note_on_c, 0, 65, 5
1, 290976, Note_on_c, 0, 67, 5
1, 290976, Note_on_c, 0, 69, 5
1, 290976, Note_on_c, 0, 71, 5
1, 290976, Note_on_c, 0, 72, 5
1, 290976, Note_on_c, 0, 83, 5
1, 290976, Note_on_c, 0, 81, 5
1, 290976, Note_on_c, 0, 91, 5
1, 290976, Note_on_c, 0, 89, 5
1, 291072, Note_off_c, 0, 89, 0
1, 291072, Note_off_c, 0, 91, 0
1, 291072, Note_off_c, 0, 81, 0
1, 291072, Note_off_c, 0, 83, 0
1, 291072, Note_off_c, 0, 72, 0
1, 291072, Note_off_c, 0, 71, 0
1, 291072, Note_off_c, 0, 69, 0
1, 291072, Note_off_c, 0, 67, 0
1, 291072, Note_off_c, 0, 65, 0
1, 291072, Note_off_c, 0, 64, 0
1, 291072, Note_off_c, 0, 55, 0
1, 291072, Note_off_c, 0, 53, 0
1, 291072, Note_off_c, 0, 52, 0
1, 291072, Note_off_c, 0, 50, 0
1, 291072, Note_off_c, 0, 48, 0
1, 291072, Note_off_c, 0, 40, 0
1, 291072, Note_off_c, 0, 38, 0
1, 291072, Note_off_c, 0, 31, 0
1, 291072, Note_off_c, 0, 29, 0
1, 291072, Note_on_c, 0, 31, 5
1, 291072, Note_on_c, 0, 33, 5
1, 291072, Note_on_c, 0, 38, 5
1, 291072, Note_on_c, 0, 40, 5
1, 291072, Note_on_c, 0, 35, 5
1, 291072, Note_on_c, 0, 47, 5
1, 291072, Note_on_c, 0, 48, 5
1, 291072, Note_on_c, 0, 57, 5
1, 291072, Note_on_c, 0, 55, 5
1, 291072, Note_on_c, 0, 74, 5
1, 291072, Note_on_c, 0, 72, 5
1, 291072, Note_on_c, 0, 83, 5
1, 291072, Note_on_c, 0, 81, 5
1, 291072, Note_on_c, 0, 89, 5
1, 291072, Note_on_c, 0, 91, 5
1, 291168, Note_off_c, 0, 91, 0
1, 291168, Note_off_c, 0, 89, 0
1, 291168, Note_off_c, 0, 81, 0
1, 291168, Note_off_c, 0, 83, 0
1, 291168, Note_off_c, 0, 72, 0
1, 291168, Note_off_c, 0, 74, 0
1, 291168, Note_off_c, 0, 55, 0
1, 291168, Note_off_c, 0, 57, 0
1, 291168, Note_off_c, 0, 48, 0
1, 291168, Note_off_c, 0, 47, 0
1, 291168, Note_off_c, 0, 35, 0
1, 291168, Note_off_c, 0, 40, 0
1, 291168, Note_off_c, 0, 38, 0
1, 291168, Note_off_c, 0, 33, 0
1, 291168, Note_off_c, 0, 31, 0
1, 291168, Note_on_c, 0, 35, 5
1, 291168, Note_on_c, 0, 36, 5
1, 291168, Note_on_c, 0, 38, 5
1, 291168, Note_on_c, 0, 40, 5
1, 291168, Note_on_c, 0, 47, 5
1, 291168, Note_on_c, 0, 48, 5
1, 291168, Note_on_c, 0, 57, 5
1, 291168, Note_on_c, 0, 55, 5
1, 291168, Note_on_c, 0, 74, 5
1, 291168, Note_on_c, 0, 72, 5
1, 291168, Note_on_c, 0, 81, 5
1, 291168, Note_on_c, 0, 83, 5
1, 291168, Note_on_c, 0, 91, 5
1, 291168, Note_on_c, 0, 89, 5
1, 291264, Note_off_c, 0, 89, 0
1, 291264, Note_off_c, 0, 91, 0
1, 291264, Note_off_c, 0, 83, 0
1, 291264, Note_off_c, 0, 81, 0
1, 291264, Note_off_c, 0, 72, 0
1, 291264, Note_off_c, 0, 74, 0
1, 291264, Note_off_c, 0, 55, 0
1, 291264, Note_off_c, 0, 57, 0
1, 291264, Note_off_c, 0, 48, 0
1, 291264, Note_off_c, 0, 47, 0
1, 291264, Note_off_c, 0, 40, 0
1, 291264, Note_off_c, 0, 38, 0
1, 291264, Note_off_c, 0, 36, 0
1, 291264, Note_off_c, 0, 35, 0
1, 291264, Note_on_c, 0, 40, 5
1, 291264, Note_on_c, 0, 38, 5
1, 291264, Note_on_c, 0, 31, 5
1, 291264, Note_on_c, 0, 33, 5
1, 291264, Note_on_c, 0, 35, 5
1, 291264, Note_on_c, 0, 36, 5
1, 291264, Note_on_c, 0, 47, 5
1, 291264, Note_on_c, 0, 48, 5
1, 291264, Note_on_c, 0, 57, 5
1, 291264, Note_on_c, 0, 55, 5
1, 291264, Note_on_c, 0, 72, 5
1, 291264, Note_on_c, 0, 71, 5
1, 291264, Note_on_c, 0, 69, 5
1, 291264, Note_on_c, 0, 67, 5
1, 291264, Note_on_c, 0, 65, 5
1, 291264, Note_on_c, 0, 83, 5
1, 291264, Note_on_c, 0, 81, 5
1, 291264, Note_on_c, 0, 91, 5
1, 291264, Note_on_c, 0, 89, 5
1, 291264, Note_on_c, 0, 88, 5
1, 291264, Note_on_c, 0, 86, 5
1, 291264, Note_on_c, 0, 84, 5
1, 291360, Note_off_c, 0, 84, 0
1, 291360, Note_off_c, 0, 86, 0
1, 291360, Note_off_c, 0, 88, 0
1, 291360, Note_off_c, 0, 89, 0
1, 291360, Note_off_c, 0, 91, 0
1, 291360, Note_off_c, 0, 81, 0
1, 291360, Note_off_c, 0, 83, 0
1, 291360, Note_off_c, 0, 65, 0
1, 291360, Note_off_c, 0, 67, 0
1, 291360, Note_off_c, 0, 69, 0
1, 291360, Note_off_c, 0, 71, 0
1, 291360, Note_off_c, 0, 72, 0
1, 291360, Note_off_c, 0, 55, 0
1, 291360, Note_off_c, 0, 57, 0
1, 291360, Note_off_c, 0, 48, 0
1, 291360, Note_off_c, 0, 47, 0
1, 291360, Note_off_c, 0, 36, 0
1, 291360, Note_off_c, 0, 35, 0
1, 291360, Note_off_c, 0, 33, 0
1, 291360, Note_off_c, 0, 31, 0
1, 291360, Note_off_c, 0, 38, 0
1, 291360, Note_off_c, 0, 40, 0
1, 291360, Note_on_c, 0, 40, 5
1, 291360, Note_on_c, 0, 38, 5
1, 291360, Note_on_c, 0, 31, 5
1, 291360, Note_on_c, 0, 29, 5
1, 291360, Note_on_c, 0, 47, 5
1, 291360, Note_on_c, 0, 48, 5
1, 291360, Note_on_c, 0, 57, 5
1, 291360, Note_on_c, 0, 55, 5
1, 291360, Note_on_c, 0, 65, 5
1, 291360, Note_on_c, 0, 64, 5
1, 291360, Note_on_c, 0, 83, 5
1, 291360, Note_on_c, 0, 81, 5
1, 291360, Note_on_c, 0, 91, 5
1, 291360, Note_on_c, 0, 89, 5
1, 291456, Note_off_c, 0, 89, 0
1, 291456, Note_off_c, 0, 91, 0
1, 291456, Note_off_c, 0, 81, 0
1, 291456, Note_off_c, 0, 83, 0
1, 291456, Note_off_c, 0, 64, 0
1, 291456, Note_off_c, 0, 65, 0
1, 291456, Note_off_c, 0, 55, 0
1, 291456, Note_off_c, 0, 57, 0
1, 291456, Note_off_c, 0, 48, 0
1, 291456, Note_off_c, 0, 47, 0
1, 291456, Note_off_c, 0, 29, 0
1, 291456, Note_off_c, 0, 31, 0
1, 291456, Note_off_c, 0, 38, 0
1, 291456, Note_off_c, 0, 40, 0
1, 291456, Note_on_c, 0, 40, 5
1, 291456, Note_on_c, 0, 38, 5
1, 291456, Note_on_c, 0, 31, 5
1, 291456, Note_on_c, 0, 29, 5
1, 291456, Note_on_c, 0, 47, 5
1, 291456, Note_on_c, 0, 48, 5
1, 291456, Note_on_c, 0, 57, 5
1, 291456, Note_on_c, 0, 55, 5
1, 291456, Note_on_c, 0, 65, 5
1, 291456, Note_on_c, 0, 64, 5
1, 291456, Note_on_c, 0, 83, 5
1, 291456, Note_on_c, 0, 81, 5
1, 291456, Note_on_c, 0, 91, 5
1, 291456, Note_on_c, 0, 89, 5
1, 291552, Note_off_c, 0, 89, 0
1, 291552, Note_off_c, 0, 91, 0
1, 291552, Note_off_c, 0, 81, 0
1, 291552, Note_off_c, 0, 83, 0
1, 291552, Note_off_c, 0, 64, 0
1, 291552, Note_off_c, 0, 65, 0
1, 291552, Note_off_c, 0, 55, 0
1, 291552, Note_off_c, 0, 57, 0
1, 291552, Note_off_c, 0, 48, 0
1, 291552, Note_off_c, 0, 47, 0
1, 291552, Note_off_c, 0, 29, 0
1, 291552, Note_off_c, 0, 31, 0
1, 291552, Note_off_c, 0, 38, 0
1, 291552, Note_off_c, 0, 40, 0
1, 291552, Note_on_c, 0, 40, 5
1, 291552, Note_on_c, 0, 38, 5
1, 291552, Note_on_c, 0, 36, 5
1, 291552, Note_on_c, 0, 35, 5
1, 291552, Note_on_c, 0, 33, 5
1, 291552, Note_on_c, 0, 31, 5
1, 291552, Note_on_c, 0, 47, 5
1, 291552, Note_on_c, 0, 48, 5
1, 291552, Note_on_c, 0, 57, 5
1, 291552, Note_on_c, 0, 55, 5
1, 291552, Note_on_c, 0, 65, 5
1, 291552, Note_on_c, 0, 67, 5
1, 291552, Note_on_c, 0, 69, 5
1, 291552, Note_on_c, 0, 71, 5
1, 291552, Note_on_c, 0, 72, 5
1, 291552, Note_on_c, 0, 74, 5
1, 291552, Note_on_c, 0, 83, 5
1, 291552, Note_on_c, 0, 81, 5
1, 291552, Note_on_c, 0, 89, 5
1, 291552, Note_on_c, 0, 91, 5
1, 291648, Note_off_c, 0, 91, 0
1, 291648, Note_off_c, 0, 89, 0
1, 291648, Note_off_c, 0, 81, 0
1, 291648, Note_off_c, 0, 83, 0
1, 291648, Note_off_c, 0, 74, 0
1, 291648, Note_off_c, 0, 72, 0
1, 291648, Note_off_c, 0, 71, 0
1, 291648, Note_off_c, 0, 69, 0
1, 291648, Note_off_c, 0, 67, 0
1, 291648, Note_off_c, 0, 65, 0
1, 291648, Note_off_c, 0, 55, 0
1, 291648, Note_off_c, 0, 57, 0
1, 291648, Note_off_c, 0, 48, 0
1, 291648, Note_off_c, 0, 47, 0
1, 291648, Note_off_c, 0, 31, 0
1, 291648, Note_off_c, 0, 33, 0
1, 291648, Note_off_c, 0, 35, 0
1, 291648, Note_off_c, 0, 36, 0
1, 291648, Note_off_c, 0, 38, 0
1, 291648, Note_off_c, 0, 40, 0
1, 291840, Note_on_c, 0, 40, 50
1, 291840, Note_on_c, 0, 52, 50
1, 292224, Note_off_c, 0, 52, 0
1, 292224, Note_off_c, 0, 40, 0
1, 293376, Note_on_c, 0, 52, 50
1, 293376, Note_on_c, 0, 48, 50
1, 293376, Note_on_c, 0, 57, 50
1, 293376, Note_on_c, 0, 60, 50
1, 293376, Note_on_c, 0, 64, 50
1, 293376, Note_on_c, 0, 76, 50
1, 293376, Note_on_c, 0, 72, 50
1, 293376, Note_on_c, 0, 69, 50
1, 293568, Note_off_c, 0, 69, 0
1, 293568, Note_off_c, 0, 72, 0
1, 293568, Note_off_c, 0, 76, 0
1, 293568, Note_off_c, 0, 64, 0
1, 293568, Note_off_c, 0, 60, 0
1, 293568, Note_off_c, 0, 57, 0
1, 293568, Note_off_c, 0, 48, 0
1, 293568, Note_off_c, 0, 52, 0
1, 294048, Note_on_c, 0, 55, 5
1, 294048, Note_on_c, 0, 57, 5
1, 294048, Note_on_c, 0, 59, 5
1, 294048, Note_on_c, 0, 60, 5
1, 294048, Note_on_c, 0, 62, 5
1, 294048, Note_on_c, 0, 64, 5
1, 294048, Note_on_c, 0, 65, 5
1, 294144, Note_off_c, 0, 65, 0
1, 294144, Note_off_c, 0, 64, 0
1, 294144, Note_off_c, 0, 62, 0
1, 294144, Note_off_c, 0, 60, 0
1, 294144, Note_off_c, 0, 59, 0
1, 294144, Note_off_c, 0, 57, 0
1, 294144, Note_off_c, 0, 55, 0
1, 294144, Note_on_c, 0, 55, 5
1, 294144, Note_on_c, 0, 57, 5
1, 294240, Note_off_c, 0, 57, 0
1, 294240, Note_off_c, 0, 55, 0
1, 294240, Note_on_c, 0, 55, 5
1, 294240, Note_on_c, 0, 57, 5
1, 294336, Note_off_c, 0, 57, 0
1, 294336, Note_off_c, 0, 55, 0
1, 294336, Note_on_c, 0, 55, 5
1, 294336, Note_on_c, 0, 57, 5
1, 294336, Note_on_c, 0, 59, 5
1, 294336, Note_on_c, 0, 60, 5
1, 294336, Note_on_c, 0, 62, 5
1, 294336, Note_on_c, 0, 64, 5
1, 294336, Note_on_c, 0, 65, 5
1, 294432, Note_off_c, 0, 65, 0
1, 294432, Note_off_c, 0, 64, 0
1, 294432, Note_off_c, 0, 62, 0
1, 294432, Note_off_c, 0, 60, 0
1, 294432, Note_off_c, 0, 59, 0
1, 294432, Note_off_c, 0, 57, 0
1, 294432, Note_off_c, 0, 55, 0
1, 294432, Note_on_c, 0, 55, 5
1, 294432, Note_on_c, 0, 57, 5
1, 294528, Note_off_c, 0, 57, 0
1, 294528, Note_off_c, 0, 55, 0
1, 294528, Note_on_c, 0, 55, 5
1, 294528, Note_on_c, 0, 57, 5
1, 294624, Note_off_c, 0, 57, 0
1, 294624, Note_off_c, 0, 55, 0
1, 294624, Note_on_c, 0, 55, 5
1, 294624, Note_on_c, 0, 57, 5
1, 294624, Note_on_c, 0, 59, 5
1, 294624, Note_on_c, 0, 60, 5
1, 294624, Note_on_c, 0, 62, 5
1, 294624, Note_on_c, 0, 64, 5
1, 294624, Note_on_c, 0, 65, 5
1, 294720, Note_off_c, 0, 65, 0
1, 294720, Note_off_c, 0, 64, 0
1, 294720, Note_off_c, 0, 62, 0
1, 294720, Note_off_c, 0, 60, 0
1, 294720, Note_off_c, 0, 59, 0
1, 294720, Note_off_c, 0, 57, 0
1, 294720, Note_off_c, 0, 55, 0
1, 294912, Note_on_c, 0, 33, 50
1, 294912, Note_on_c, 0, 45, 50
1, 294912, Note_on_c, 0, 57, 50
1, 296448, Note_off_c, 0, 57, 0
1, 296448, Note_off_c, 0, 45, 0
1, 296448, Note_off_c, 0, 33, 0
1, 296448, Note_on_c, 0, 52, 50
1, 296448, Note_on_c, 0, 48, 50
1, 296448, Note_on_c, 0, 64, 50
1, 296448, Note_on_c, 0, 60, 50
1, 296448, Note_on_c, 0, 57, 50
1, 296448, Note_on_c, 0, 76, 50
1, 296448, Note_on_c, 0, 72, 50
1, 296448, Note_on_c, 0, 69, 50
1, 296640, Note_off_c, 0, 69, 0
1, 296640, Note_off_c, 0, 72, 0
1, 296640, Note_off_c, 0, 76, 0
1, 296640, Note_off_c, 0, 57, 0
1, 296640, Note_off_c, 0, 60, 0
1, 296640, Note_off_c, 0, 64, 0
1, 296640, Note_off_c, 0, 48, 0
1, 296640, Note_off_c, 0, 52, 0
1, 297120, Note_on_c, 0, 29, 5
1, 297120, Note_on_c, 0, 31, 5
1, 297120, Note_on_c, 0, 38, 5
1, 297120, Note_on_c, 0, 40, 5
1, 297120, Note_on_c, 0, 48, 5
1, 297120, Note_on_c, 0, 50, 5
1, 297120, Note_on_c, 0, 52, 5
1, 297120, Note_on_c, 0, 53, 5
1, 297120, Note_on_c, 0, 55, 5
1, 297120, Note_on_c, 0, 64, 5
1, 297120, Note_on_c, 0, 65, 5
1, 297120, Note_on_c, 0, 67, 5
1, 297120, Note_on_c, 0, 69, 5
1, 297120, Note_on_c, 0, 71, 5
1, 297120, Note_on_c, 0, 72, 5
1, 297120, Note_on_c, 0, 83, 5
1, 297120, Note_on_c, 0, 81, 5
1, 297120, Note_on_c, 0, 91, 5
1, 297120, Note_on_c, 0, 89, 5
1, 297216, Note_off_c, 0, 89, 0
1, 297216, Note_off_c, 0, 91, 0
1, 297216, Note_off_c, 0, 81, 0
1, 297216, Note_off_c, 0, 83, 0
1, 297216, Note_off_c, 0, 72, 0
1, 297216, Note_off_c, 0, 71, 0
1, 297216, Note_off_c, 0, 69, 0
1, 297216, Note_off_c, 0, 67, 0
1, 297216, Note_off_c, 0, 65, 0
1, 297216, Note_off_c, 0, 64, 0
1, 297216, Note_off_c, 0, 55, 0
1, 297216, Note_off_c, 0, 53, 0
1, 297216, Note_off_c, 0, 52, 0
1, 297216, Note_off_c, 0, 50, 0
1, 297216, Note_off_c, 0, 48, 0
1, 297216, Note_off_c, 0, 40, 0
1, 297216, Note_off_c, 0, 38, 0
1, 297216, Note_off_c, 0, 31, 0
1, 297216, Note_off_c, 0, 29, 0
1, 297216, Note_on_c, 0, 31, 5
1, 297216, Note_on_c, 0, 33, 5
1, 297216, Note_on_c, 0, 38, 5
1, 297216, Note_on_c, 0, 40, 5
1, 297216, Note_on_c, 0, 35, 5
1, 297216, Note_on_c, 0, 47, 5
1, 297216, Note_on_c, 0, 48, 5
1, 297216, Note_on_c, 0, 57, 5
1, 297216, Note_on_c, 0, 55, 5
1, 297216, Note_on_c, 0, 74, 5
1, 297216, Note_on_c, 0, 72, 5
1, 297216, Note_on_c, 0, 83, 5
1, 297216, Note_on_c, 0, 81, 5
1, 297216, Note_on_c, 0, 89, 5
1, 297216, Note_on_c, 0, 91, 5
1, 297312, Note_off_c, 0, 91, 0
1, 297312, Note_off_c, 0, 89, 0
1, 297312, Note_off_c, 0, 81, 0
1, 297312, Note_off_c, 0, 83, 0
1, 297312, Note_off_c, 0, 72, 0
1, 297312, Note_off_c, 0, 74, 0
1, 297312, Note_off_c, 0, 55, 0
1, 297312, Note_off_c, 0, 57, 0
1, 297312, Note_off_c, 0, 48, 0
1, 297312, Note_off_c, 0, 47, 0
1, 297312, Note_off_c, 0, 35, 0
1, 297312, Note_off_c, 0, 40, 0
1, 297312, Note_off_c, 0, 38, 0
1, 297312, Note_off_c, 0, 33, 0
1, 297312, Note_off_c, 0, 31, 0
1, 297312, Note_on_c, 0, 35, 5
1, 297312, Note_on_c, 0, 36, 5
1, 297312, Note_on_c, 0, 38, 5
1, 297312, Note_on_c, 0, 40, 5
1, 297312, Note_on_c, 0, 47, 5
1, 297312, Note_on_c, 0, 48, 5
1, 297312, Note_on_c, 0, 57, 5
1, 297312, Note_on_c, 0, 55, 5
1, 297312, Note_on_c, 0, 74, 5
1, 297312, Note_on_c, 0, 72, 5
1, 297312, Note_on_c, 0, 81, 5
1, 297312, Note_on_c, 0, 83, 5
1, 297312, Note_on_c, 0, 91, 5
1, 297312, Note_on_c, 0, 89, 5
1, 297408, Note_off_c, 0, 89, 0
1, 297408, Note_off_c, 0, 91, 0
1, 297408, Note_off_c, 0, 83, 0
1, 297408, Note_off_c, 0, 81, 0
1, 297408, Note_off_c, 0, 72, 0
1, 297408, Note_off_c, 0, 74, 0
1, 297408, Note_off_c, 0, 55, 0
1, 297408, Note_off_c, 0, 57, 0
1, 297408, Note_off_c, 0, 48, 0
1, 297408, Note_off_c, 0, 47, 0
1, 297408, Note_off_c, 0, 40, 0
1, 297408, Note_off_c, 0, 38, 0
1, 297408, Note_off_c, 0, 36, 0
1, 297408, Note_off_c, 0, 35, 0
1, 297408, Note_on_c, 0, 40, 5
1, 297408, Note_on_c, 0, 38, 5
1, 297408, Note_on_c, 0, 31, 5
1, 297408, Note_on_c, 0, 33, 5
1, 297408, Note_on_c, 0, 35, 5
1, 297408, Note_on_c, 0, 36, 5
1, 297408, Note_on_c, 0, 47, 5
1, 297408, Note_on_c, 0, 48, 5
1, 297408, Note_on_c, 0, 57, 5
1, 297408, Note_on_c, 0, 55, 5
1, 297408, Note_on_c, 0, 72, 5
1, 297408, Note_on_c, 0, 71, 5
1, 297408, Note_on_c, 0, 69, 5
1, 297408, Note_on_c, 0, 67, 5
1, 297408, Note_on_c, 0, 65, 5
1, 297408, Note_on_c, 0, 83, 5
1, 297408, Note_on_c, 0, 81, 5
1, 297408, Note_on_c, 0, 91, 5
1, 297408, Note_on_c, 0, 89, 5
1, 297408, Note_on_c, 0, 88, 5
1, 297408, Note_on_c, 0, 86, 5
1, 297408, Note_on_c, 0, 84, 5
1, 297504, Note_off_c, 0, 84, 0
1, 297504, Note_off_c, 0, 86, 0
1, 297504, Note_off_c, 0, 88, 0
1, 297504, Note_off_c, 0, 89, 0
1, 297504, Note_off_c, 0, 91, 0
1, 297504, Note_off_c, 0, 81, 0
1, 297504, Note_off_c, 0, 83, 0
1, 297504, Note_off_c, 0, 65, 0
1, 297504, Note_off_c, 0, 67, 0
1, 297504, Note_off_c, 0, 69, 0
1, 297504, Note_off_c, 0, 71, 0
1, 297504, Note_off_c, 0, 72, 0
1, 297504, Note_off_c, 0, 55, 0
1, 297504, Note_off_c, 0, 57, 0
1, 297504, Note_off_c, 0, 48, 0
1, 297504, Note_off_c, 0, 47, 0
1, 297504, Note_off_c, 0, 36, 0
1, 297504, Note_off_c, 0, 35, 0
1, 297504, Note_off_c, 0, 33, 0
1, 297504, Note_off_c, 0, 31, 0
1, 297504, Note_off_c, 0, 38, 0
1, 297504, Note_off_c, 0, 40, 0
1, 297504, Note_on_c, 0, 40, 5
1, 297504, Note_on_c, 0, 38, 5
1, 297504, Note_on_c, 0, 31, 5
1, 297504, Note_on_c, 0, 29, 5
1, 297504, Note_on_c, 0, 47, 5
1, 297504, Note_on_c, 0, 48, 5
1, 297504, Note_on_c, 0, 57, 5
1, 297504, Note_on_c, 0, 55, 5
1, 297504, Note_on_c, 0, 65, 5
1, 297504, Note_on_c, 0, 64, 5
1, 297504, Note_on_c, 0, 83, 5
1, 297504, Note_on_c, 0, 81, 5
1, 297504, Note_on_c, 0, 91, 5
1, 297504, Note_on_c, 0, 89, 5
1, 297600, Note_off_c, 0, 89, 0
1, 297600, Note_off_c, 0, 91, 0
1, 297600, Note_off_c, 0, 81, 0
1, 297600, Note_off_c, 0, 83, 0
1, 297600, Note_off_c, 0, 64, 0
1, 297600, Note_off_c, 0, 65, 0
1, 297600, Note_off_c, 0, 55, 0
1, 297600, Note_off_c, 0, 57, 0
1, 297600, Note_off_c, 0, 48, 0
1, 297600, Note_off_c, 0, 47, 0
1, 297600, Note_off_c, 0, 29, 0
1, 297600, Note_off_c, 0, 31, 0
1, 297600, Note_off_c, 0, 38, 0
1, 297600, Note_off_c, 0, 40, 0
1, 297600, Note_on_c, 0, 40, 5
1, 297600, Note_on_c, 0, 38, 5
1, 297600, Note_on_c, 0, 31, 5
1, 297600, Note_on_c, 0, 29, 5
1, 297600, Note_on_c, 0, 47, 5
1, 297600, Note_on_c, 0, 48, 5
1, 297600, Note_on_c, 0, 57, 5
1, 297600, Note_on_c, 0, 55, 5
1, 297600, Note_on_c, 0, 65, 5
1, 297600, Note_on_c, 0, 64, 5
1, 297600, Note_on_c, 0, 83, 5
1, 297600, Note_on_c, 0, 81, 5
1, 297600, Note_on_c, 0, 91, 5
1, 297600, Note_on_c, 0, 89, 5
1, 297696, Note_off_c, 0, 89, 0
1, 297696, Note_off_c, 0, 91, 0
1, 297696, Note_off_c, 0, 81, 0
1, 297696, Note_off_c, 0, 83, 0
1, 297696, Note_off_c, 0, 64, 0
1, 297696, Note_off_c, 0, 65, 0
1, 297696, Note_off_c, 0, 55, 0
1, 297696, Note_off_c, 0, 57, 0
1, 297696, Note_off_c, 0, 48, 0
1, 297696, Note_off_c, 0, 47, 0
1, 297696, Note_off_c, 0, 29, 0
1, 297696, Note_off_c, 0, 31, 0
1, 297696, Note_off_c, 0, 38, 0
1, 297696, Note_off_c, 0, 40, 0
1, 297696, Note_on_c, 0, 40, 5
1, 297696, Note_on_c, 0, 38, 5
1, 297696, Note_on_c, 0, 36, 5
1, 297696, Note_on_c, 0, 35, 5
1, 297696, Note_on_c, 0, 33, 5
1, 297696, Note_on_c, 0, 31, 5
1, 297696, Note_on_c, 0, 47, 5
1, 297696, Note_on_c, 0, 48, 5
1, 297696, Note_on_c, 0, 57, 5
1, 297696, Note_on_c, 0, 55, 5
1, 297696, Note_on_c, 0, 65, 5
1, 297696, Note_on_c, 0, 67, 5
1, 297696, Note_on_c, 0, 69, 5
1, 297696, Note_on_c, 0, 71, 5
1, 297696, Note_on_c, 0, 72, 5
1, 297696, Note_on_c, 0, 74, 5
1, 297696, Note_on_c, 0, 83, 5
1, 297696, Note_on_c, 0, 81, 5
1, 297696, Note_on_c, 0, 89, 5
1, 297696, Note_on_c, 0, 91, 5
1, 297792, Note_off_c, 0, 91, 0
1, 297792, Note_off_c, 0, 89, 0
1, 297792, Note_off_c, 0, 81, 0
1, 297792, Note_off_c, 0, 83, 0
1, 297792, Note_off_c, 0, 74, 0
1, 297792, Note_off_c, 0, 72, 0
1, 297792, Note_off_c, 0, 71, 0
1, 297792, Note_off_c, 0, 69, 0
1, 297792, Note_off_c, 0, 67, 0
1, 297792, Note_off_c, 0, 65, 0
1, 297792, Note_off_c, 0, 55, 0
1, 297792, Note_off_c, 0, 57, 0
1, 297792, Note_off_c, 0, 48, 0
1, 297792, Note_off_c, 0, 47, 0
1, 297792, Note_off_c, 0, 31, 0
1, 297792, Note_off_c, 0, 33, 0
1, 297792, Note_off_c, 0, 35, 0
1, 297792, Note_off_c, 0, 36, 0
1, 297792, Note_off_c, 0, 38, 0
1, 297792, Note_off_c, 0, 40, 0
1, 297984, Note_on_c, 0, 40, 50
1, 297984, Note_on_c, 0, 52, 50
1, 298368, Note_off_c, 0, 52, 0
1, 298368, Note_off_c, 0, 40, 0
1, 299520, Note_on_c, 0, 52, 50
1, 299520, Note_on_c, 0, 48, 50
1, 299520, Note_on_c, 0, 57, 50
1, 299520, Note_on_c, 0, 60, 50
1, 299520, Note_on_c, 0, 64, 50
1, 299520, Note_on_c, 0, 76, 50
1, 299520, Note_on_c, 0, 72, 50
1, 299520, Note_on_c, 0, 69, 50
1, 299712, Note_off_c, 0, 69, 0
1, 299712, Note_off_c, 0, 72, 0
1, 299712, Note_off_c, 0, 76, 0
1, 299712, Note_off_c, 0, 64, 0
1, 299712, Note_off_c, 0, 60, 0
1, 299712, Note_off_c, 0, 57, 0
1, 299712, Note_off_c, 0, 48, 0
1, 299712, Note_off_c, 0, 52, 0
1, 300192, Note_on_c, 0, 55, 5
1, 300192, Note_on_c, 0, 57, 5
1, 300192, Note_on_c, 0, 59, 5
1, 300192, Note_on_c, 0, 60, 5
1, 300192, Note_on_c, 0, 62, 5
1, 300192, Note_on_c, 0, 64, 5
1, 300192, Note_on_c, 0, 65, 5
1, 300288, Note_off_c, 0, 65, 0
1, 300288, Note_off_c, 0, 64, 0
1, 300288, Note_off_c, 0, 62, 0
1, 300288, Note_off_c, 0, 60, 0
1, 300288, Note_off_c, 0, 59, 0
1, 300288, Note_off_c, 0, 57, 0
1, 300288, Note_off_c, 0, 55, 0
1, 300288, Note_on_c, 0, 55, 5
1, 300288, Note_on_c, 0, 57, 5
1, 300384, Note_off_c, 0, 57, 0
1, 300384, Note_off_c, 0, 55, 0
1, 300384, Note_on_c, 0, 55, 5
1, 300384, Note_on_c, 0, 57, 5
1, 300480, Note_off_c, 0, 57, 0
1, 300480, Note_off_c, 0, 55, 0
1, 300480, Note_on_c, 0, 55, 5
1, 300480, Note_on_c, 0, 57, 5
1, 300480, Note_on_c, 0, 59, 5
1, 300480, Note_on_c, 0, 60, 5
1, 300480, Note_on_c, 0, 62, 5
1, 300480, Note_on_c, 0, 64, 5
1, 300480, Note_on_c, 0, 65, 5
1, 300576, Note_off_c, 0, 65, 0
1, 300576, Note_off_c, 0, 64, 0
1, 300576, Note_off_c, 0, 62, 0
1, 300576, Note_off_c, 0, 60, 0
1, 300576, Note_off_c, 0, 59, 0
1, 300576, Note_off_c, 0, 57, 0
1, 300576, Note_off_c, 0, 55, 0
1, 300576, Note_on_c, 0, 55, 5
1, 300576, Note_on_c, 0, 57, 5
1, 300672, Note_off_c, 0, 57, 0
1, 300672, Note_off_c, 0, 55, 0
1, 300672, Note_on_c, 0, 55, 5
1, 300672, Note_on_c, 0, 57, 5
1, 300768, Note_off_c, 0, 57, 0
1, 300768, Note_off_c, 0, 55, 0
1, 300768, Note_on_c, 0, 55, 5
1, 300768, Note_on_c, 0, 57, 5
1, 300768, Note_on_c, 0, 59, 5
1, 300768, Note_on_c, 0, 60, 5
1, 300768, Note_on_c, 0, 62, 5
1, 300768, Note_on_c, 0, 64, 5
1, 300768, Note_on_c, 0, 65, 5
1, 300864, Note_off_c, 0, 65, 0
1, 300864, Note_off_c, 0, 64, 0
1, 300864, Note_off_c, 0, 62, 0
1, 300864, Note_off_c, 0, 60, 0
1, 300864, Note_off_c, 0, 59, 0
1, 300864, Note_off_c, 0, 57, 0
1, 300864, Note_off_c, 0, 55, 0
1, 301056, Note_on_c, 0, 33, 50
1, 301056, Note_on_c, 0, 45, 50
1, 301056, Note_on_c, 0, 57, 50
1, 301824, Note_off_c, 0, 57, 0
1, 301824, Note_off_c, 0, 45, 0
1, 301824, Note_off_c, 0, 33, 0
1, 301824, Note_on_c, 0, 52, 30
1, 301824, Note_on_c, 0, 48, 30
1, 301824, Note_on_c, 0, 64, 30
1, 301824, Note_on_c, 0, 60, 30
1, 301824, Note_on_c, 0, 57, 30
1, 301824, Note_on_c, 0, 76, 30
1, 301824, Note_on_c, 0, 72, 30
1, 301824, Note_on_c, 0, 69, 30
1, 301824, Note_on_c, 0, 81, 30
1, 301824, Note_on_c, 0, 84, 30
1, 301824, Note_on_c, 0, 88, 30
1, 302016, Note_off_c, 0, 88, 0
1, 302016, Note_off_c, 0, 84, 0
1, 302016, Note_off_c, 0, 81, 0
1, 302016, Note_off_c, 0, 69, 0
1, 302016, Note_off_c, 0, 72, 0
1, 302016, Note_off_c, 0, 76, 0
1, 302016, Note_off_c, 0, 57, 0
1, 302016, Note_off_c, 0, 60, 0
1, 302016, Note_off_c, 0, 64, 0
1, 302016, Note_off_c, 0, 48, 0
1, 302016, Note_off_c, 0, 52, 0
1, 302160, Note_on_c, 0, 29, 5
1, 302160, Note_on_c, 0, 31, 5
1, 302160, Note_on_c, 0, 38, 5
1, 302160, Note_on_c, 0, 40, 5
1, 302160, Note_on_c, 0, 48, 5
1, 302160, Note_on_c, 0, 50, 5
1, 302160, Note_on_c, 0, 52, 5
1, 302160, Note_on_c, 0, 53, 5
1, 302160, Note_on_c, 0, 55, 5
1, 302160, Note_on_c, 0, 64, 5
1, 302160, Note_on_c, 0, 65, 5
1, 302160, Note_on_c, 0, 67, 5
1, 302160, Note_on_c, 0, 69, 5
1, 302160, Note_on_c, 0, 71, 5
1, 302160, Note_on_c, 0, 72, 5
1, 302160, Note_on_c, 0, 83, 5
1, 302160, Note_on_c, 0, 81, 5
1, 302160, Note_on_c, 0, 91, 5
1, 302160, Note_on_c, 0, 89, 5
1, 302208, Note_off_c, 0, 89, 0
1, 302208, Note_off_c, 0, 91, 0
1, 302208, Note_off_c, 0, 81, 0
1, 302208, Note_off_c, 0, 83, 0
1, 302208, Note_off_c, 0, 72, 0
1, 302208, Note_off_c, 0, 71, 0
1, 302208, Note_off_c, 0, 69, 0
1, 302208, Note_off_c, 0, 67, 0
1, 302208, Note_off_c, 0, 65, 0
1, 302208, Note_off_c, 0, 64, 0
1, 302208, Note_off_c, 0, 55, 0
1, 302208, Note_off_c, 0, 53, 0
1, 302208, Note_off_c, 0, 52, 0
1, 302208, Note_off_c, 0, 50, 0
1, 302208, Note_off_c, 0, 48, 0
1, 302208, Note_off_c, 0, 40, 0
1, 302208, Note_off_c, 0, 38, 0
1, 302208, Note_off_c, 0, 31, 0
1, 302208, Note_off_c, 0, 29, 0
1, 302208, Note_on_c, 0, 31, 5
1, 302208, Note_on_c, 0, 33, 5
1, 302208, Note_on_c, 0, 38, 5
1, 302208, Note_on_c, 0, 40, 5
1, 302208, Note_on_c, 0, 35, 5
1, 302208, Note_on_c, 0, 47, 5
1, 302208, Note_on_c, 0, 48, 5
1, 302208, Note_on_c, 0, 57, 5
1, 302208, Note_on_c, 0, 55, 5
1, 302208, Note_on_c, 0, 74, 5
1, 302208, Note_on_c, 0, 72, 5
1, 302208, Note_on_c, 0, 83, 5
1, 302208, Note_on_c, 0, 81, 5
1, 302208, Note_on_c, 0, 89, 5
1, 302208, Note_on_c, 0, 91, 5
1, 302256, Note_off_c, 0, 91, 0
1, 302256, Note_off_c, 0, 89, 0
1, 302256, Note_off_c, 0, 81, 0
1, 302256, Note_off_c, 0, 83, 0
1, 302256, Note_off_c, 0, 72, 0
1, 302256, Note_off_c, 0, 74, 0
1, 302256, Note_off_c, 0, 55, 0
1, 302256, Note_off_c, 0, 57, 0
1, 302256, Note_off_c, 0, 48, 0
1, 302256, Note_off_c, 0, 47, 0
1, 302256, Note_off_c, 0, 35, 0
1, 302256, Note_off_c, 0, 40, 0
1, 302256, Note_off_c, 0, 38, 0
1, 302256, Note_off_c, 0, 33, 0
1, 302256, Note_off_c, 0, 31, 0
1, 302256, Note_on_c, 0, 35, 5
1, 302256, Note_on_c, 0, 36, 5
1, 302256, Note_on_c, 0, 38, 5
1, 302256, Note_on_c, 0, 40, 5
1, 302256, Note_on_c, 0, 47, 5
1, 302256, Note_on_c, 0, 48, 5
1, 302256, Note_on_c, 0, 57, 5
1, 302256, Note_on_c, 0, 55, 5
1, 302256, Note_on_c, 0, 74, 5
1, 302256, Note_on_c, 0, 72, 5
1, 302256, Note_on_c, 0, 81, 5
1, 302256, Note_on_c, 0, 83, 5
1, 302256, Note_on_c, 0, 91, 5
1, 302256, Note_on_c, 0, 89, 5
1, 302304, Note_off_c, 0, 89, 0
1, 302304, Note_off_c, 0, 91, 0
1, 302304, Note_off_c, 0, 83, 0
1, 302304, Note_off_c, 0, 81, 0
1, 302304, Note_off_c, 0, 72, 0
1, 302304, Note_off_c, 0, 74, 0
1, 302304, Note_off_c, 0, 55, 0
1, 302304, Note_off_c, 0, 57, 0
1, 302304, Note_off_c, 0, 48, 0
1, 302304, Note_off_c, 0, 47, 0
1, 302304, Note_off_c, 0, 40, 0
1, 302304, Note_off_c, 0, 38, 0
1, 302304, Note_off_c, 0, 36, 0
1, 302304, Note_off_c, 0, 35, 0
1, 302304, Note_on_c, 0, 40, 5
1, 302304, Note_on_c, 0, 38, 5
1, 302304, Note_on_c, 0, 31, 5
1, 302304, Note_on_c, 0, 33, 5
1, 302304, Note_on_c, 0, 35, 5
1, 302304, Note_on_c, 0, 36, 5
1, 302304, Note_on_c, 0, 47, 5
1, 302304, Note_on_c, 0, 48, 5
1, 302304, Note_on_c, 0, 57, 5
1, 302304, Note_on_c, 0, 55, 5
1, 302304, Note_on_c, 0, 72, 5
1, 302304, Note_on_c, 0, 71, 5
1, 302304, Note_on_c, 0, 69, 5
1, 302304, Note_on_c, 0, 67, 5
1, 302304, Note_on_c, 0, 65, 5
1, 302304, Note_on_c, 0, 83, 5
1, 302304, Note_on_c, 0, 81, 5
1, 302304, Note_on_c, 0, 91, 5
1, 302304, Note_on_c, 0, 89, 5
1, 302304, Note_on_c, 0, 88, 5
1, 302304, Note_on_c, 0, 86, 5
1, 302304, Note_on_c, 0, 84, 5
1, 302352, Note_off_c, 0, 84, 0
1, 302352, Note_off_c, 0, 86, 0
1, 302352, Note_off_c, 0, 88, 0
1, 302352, Note_off_c, 0, 89, 0
1, 302352, Note_off_c, 0, 91, 0
1, 302352, Note_off_c, 0, 81, 0
1, 302352, Note_off_c, 0, 83, 0
1, 302352, Note_off_c, 0, 65, 0
1, 302352, Note_off_c, 0, 67, 0
1, 302352, Note_off_c, 0, 69, 0
1, 302352, Note_off_c, 0, 71, 0
1, 302352, Note_off_c, 0, 72, 0
1, 302352, Note_off_c, 0, 55, 0
1, 302352, Note_off_c, 0, 57, 0
1, 302352, Note_off_c, 0, 48, 0
1, 302352, Note_off_c, 0, 47, 0
1, 302352, Note_off_c, 0, 36, 0
1, 302352, Note_off_c, 0, 35, 0
1, 302352, Note_off_c, 0, 33, 0
1, 302352, Note_off_c, 0, 31, 0
1, 302352, Note_off_c, 0, 38, 0
1, 302352, Note_off_c, 0, 40, 0
1, 302352, Note_on_c, 0, 40, 5
1, 302352, Note_on_c, 0, 38, 5
1, 302352, Note_on_c, 0, 31, 5
1, 302352, Note_on_c, 0, 29, 5
1, 302352, Note_on_c, 0, 47, 5
1, 302352, Note_on_c, 0, 48, 5
1, 302352, Note_on_c, 0, 57, 5
1, 302352, Note_on_c, 0, 55, 5
1, 302352, Note_on_c, 0, 65, 5
1, 302352, Note_on_c, 0, 64, 5
1, 302352, Note_on_c, 0, 83, 5
1, 302352, Note_on_c, 0, 81, 5
1, 302352, Note_on_c, 0, 91, 5
1, 302352, Note_on_c, 0, 89, 5
1, 302400, Note_off_c, 0, 89, 0
1, 302400, Note_off_c, 0, 91, 0
1, 302400, Note_off_c, 0, 81, 0
1, 302400, Note_off_c, 0, 83, 0
1, 302400, Note_off_c, 0, 64, 0
1, 302400, Note_off_c, 0, 65, 0
1, 302400, Note_off_c, 0, 55, 0
1, 302400, Note_off_c, 0, 57, 0
1, 302400, Note_off_c, 0, 48, 0
1, 302400, Note_off_c, 0, 47, 0
1, 302400, Note_off_c, 0, 29, 0
1, 302400, Note_off_c, 0, 31, 0
1, 302400, Note_off_c, 0, 38, 0
1, 302400, Note_off_c, 0, 40, 0
1, 302400, Note_on_c, 0, 40, 5
1, 302400, Note_on_c, 0, 38, 5
1, 302400, Note_on_c, 0, 31, 5
1, 302400, Note_on_c, 0, 29, 5
1, 302400, Note_on_c, 0, 47, 5
1, 302400, Note_on_c, 0, 48, 5
1, 302400, Note_on_c, 0, 57, 5
1, 302400, Note_on_c, 0, 55, 5
1, 302400, Note_on_c, 0, 65, 5
1, 302400, Note_on_c, 0, 64, 5
1, 302400, Note_on_c, 0, 83, 5
1, 302400, Note_on_c, 0, 81, 5
1, 302400, Note_on_c, 0, 91, 5
1, 302400, Note_on_c, 0, 89, 5
1, 302448, Note_off_c, 0, 89, 0
1, 302448, Note_off_c, 0, 91, 0
1, 302448, Note_off_c, 0, 81, 0
1, 302448, Note_off_c, 0, 83, 0
1, 302448, Note_off_c, 0, 64, 0
1, 302448, Note_off_c, 0, 65, 0
1, 302448, Note_off_c, 0, 55, 0
1, 302448, Note_off_c, 0, 57, 0
1, 302448, Note_off_c, 0, 48, 0
1, 302448, Note_off_c, 0, 47, 0
1, 302448, Note_off_c, 0, 29, 0
1, 302448, Note_off_c, 0, 31, 0
1, 302448, Note_off_c, 0, 38, 0
1, 302448, Note_off_c, 0, 40, 0
1, 302448, Note_on_c, 0, 40, 5
1, 302448, Note_on_c, 0, 38, 5
1, 302448, Note_on_c, 0, 36, 5
1, 302448, Note_on_c, 0, 35, 5
1, 302448, Note_on_c, 0, 33, 5
1, 302448, Note_on_c, 0, 31, 5
1, 302448, Note_on_c, 0, 47, 5
1, 302448, Note_on_c, 0, 48, 5
1, 302448, Note_on_c, 0, 57, 5
1, 302448, Note_on_c, 0, 55, 5
1, 302448, Note_on_c, 0, 65, 5
1, 302448, Note_on_c, 0, 67, 5
1, 302448, Note_on_c, 0, 69, 5
1, 302448, Note_on_c, 0, 71, 5
1, 302448, Note_on_c, 0, 72, 5
1, 302448, Note_on_c, 0, 74, 5
1, 302448, Note_on_c, 0, 83, 5
1, 302448, Note_on_c, 0, 81, 5
1, 302448, Note_on_c, 0, 89, 5
1, 302448, Note_on_c, 0, 91, 5
1, 302496, Note_off_c, 0, 91, 0
1, 302496, Note_off_c, 0, 89, 0
1, 302496, Note_off_c, 0, 81, 0
1, 302496, Note_off_c, 0, 83, 0
1, 302496, Note_off_c, 0, 74, 0
1, 302496, Note_off_c, 0, 72, 0
1, 302496, Note_off_c, 0, 71, 0
1, 302496, Note_off_c, 0, 69, 0
1, 302496, Note_off_c, 0, 67, 0
1, 302496, Note_off_c, 0, 65, 0
1, 302496, Note_off_c, 0, 55, 0
1, 302496, Note_off_c, 0, 57, 0
1, 302496, Note_off_c, 0, 48, 0
1, 302496, Note_off_c, 0, 47, 0
1, 302496, Note_off_c, 0, 31, 0
1, 302496, Note_off_c, 0, 33, 0
1, 302496, Note_off_c, 0, 35, 0
1, 302496, Note_off_c, 0, 36, 0
1, 302496, Note_off_c, 0, 38, 0
1, 302496, Note_off_c, 0, 40, 0
1, 302592, Note_on_c, 0, 40, 50
1, 302592, Note_on_c, 0, 52, 50
1, 302976, Note_off_c, 0, 52, 0
1, 302976, Note_off_c, 0, 40, 0
1, 303360, Note_on_c, 0, 52, 30
1, 303360, Note_on_c, 0, 48, 30
1, 303360, Note_on_c, 0, 57, 30
1, 303360, Note_on_c, 0, 60, 30
1, 303360, Note_on_c, 0, 64, 30
1, 303360, Note_on_c, 0, 76, 30
1, 303360, Note_on_c, 0, 72, 30
1, 303360, Note_on_c, 0, 69, 30
1, 303360, Note_on_c, 0, 81, 30
1, 303360, Note_on_c, 0, 84, 30
1, 303360, Note_on_c, 0, 88, 30
1, 303552, Note_off_c, 0, 88, 0
1, 303552, Note_off_c, 0, 84, 0
1, 303552, Note_off_c, 0, 81, 0
1, 303552, Note_off_c, 0, 69, 0
1, 303552, Note_off_c, 0, 72, 0
1, 303552, Note_off_c, 0, 76, 0
1, 303552, Note_off_c, 0, 64, 0
1, 303552, Note_off_c, 0, 60, 0
1, 303552, Note_off_c, 0, 57, 0
1, 303552, Note_off_c, 0, 48, 0
1, 303552, Note_off_c, 0, 52, 0
1, 303696, Note_on_c, 0, 55, 5
1, 303696, Note_on_c, 0, 57, 5
1, 303696, Note_on_c, 0, 59, 5
1, 303696, Note_on_c, 0, 60, 5
1, 303696, Note_on_c, 0, 62, 5
1, 303696, Note_on_c, 0, 64, 5
1, 303696, Note_on_c, 0, 65, 5
1, 303744, Note_off_c, 0, 65, 0
1, 303744, Note_off_c, 0, 64, 0
1, 303744, Note_off_c, 0, 62, 0
1, 303744, Note_off_c, 0, 60, 0
1, 303744, Note_off_c, 0, 59, 0
1, 303744, Note_off_c, 0, 57, 0
1, 303744, Note_off_c, 0, 55, 0
1, 303744, Note_on_c, 0, 55, 5
1, 303744, Note_on_c, 0, 57, 5
1, 303792, Note_off_c, 0, 57, 0
1, 303792, Note_off_c, 0, 55, 0
1, 303792, Note_on_c, 0, 55, 5
1, 303792, Note_on_c, 0, 57, 5
1, 303840, Note_off_c, 0, 57, 0
1, 303840, Note_off_c, 0, 55, 0
1, 303840, Note_on_c, 0, 55, 5
1, 303840, Note_on_c, 0, 57, 5
1, 303840, Note_on_c, 0, 59, 5
1, 303840, Note_on_c, 0, 60, 5
1, 303840, Note_on_c, 0, 62, 5
1, 303840, Note_on_c, 0, 64, 5
1, 303840, Note_on_c, 0, 65, 5
1, 303888, Note_off_c, 0, 65, 0
1, 303888, Note_off_c, 0, 64, 0
1, 303888, Note_off_c, 0, 62, 0
1, 303888, Note_off_c, 0, 60, 0
1, 303888, Note_off_c, 0, 59, 0
1, 303888, Note_off_c, 0, 57, 0
1, 303888, Note_off_c, 0, 55, 0
1, 303888, Note_on_c, 0, 55, 5
1, 303888, Note_on_c, 0, 57, 5
1, 303936, Note_off_c, 0, 57, 0
1, 303936, Note_off_c, 0, 55, 0
1, 303936, Note_on_c, 0, 55, 5
1, 303936, Note_on_c, 0, 57, 5
1, 303984, Note_off_c, 0, 57, 0
1, 303984, Note_off_c, 0, 55, 0
1, 303984, Note_on_c, 0, 55, 5
1, 303984, Note_on_c, 0, 57, 5
1, 303984, Note_on_c, 0, 59, 5
1, 303984, Note_on_c, 0, 60, 5
1, 303984, Note_on_c, 0, 62, 5
1, 303984, Note_on_c, 0, 64, 5
1, 303984, Note_on_c, 0, 65, 5
1, 304032, Note_off_c, 0, 65, 0
1, 304032, Note_off_c, 0, 64, 0
1, 304032, Note_off_c, 0, 62, 0
1, 304032, Note_off_c, 0, 60, 0
1, 304032, Note_off_c, 0, 59, 0
1, 304032, Note_off_c, 0, 57, 0
1, 304032, Note_off_c, 0, 55, 0
1, 304128, Note_on_c, 0, 33, 50
1, 304128, Note_on_c, 0, 45, 50
1, 304128, Note_on_c, 0, 57, 50
1, 304896, Note_off_c, 0, 57, 0
1, 304896, Note_off_c, 0, 45, 0
1, 304896, Note_off_c, 0, 33, 0
1, 304896, Note_on_c, 0, 52, 30
1, 304896, Note_on_c, 0, 48, 30
1, 304896, Note_on_c, 0, 64, 30
1, 304896, Note_on_c, 0, 60, 30
1, 304896, Note_on_c, 0, 57, 30
1, 304896, Note_on_c, 0, 76, 30
1, 304896, Note_on_c, 0, 72, 30
1, 304896, Note_on_c, 0, 69, 30
1, 304896, Note_on_c, 0, 81, 30
1, 304896, Note_on_c, 0, 84, 30
1, 304896, Note_on_c, 0, 88, 30
1, 304896, Note_on_c, 0, 93, 30
1, 305088, Note_off_c, 0, 93, 0
1, 305088, Note_off_c, 0, 88, 0
1, 305088, Note_off_c, 0, 84, 0
1, 305088, Note_off_c, 0, 81, 0
1, 305088, Note_off_c, 0, 69, 0
1, 305088, Note_off_c, 0, 72, 0
1, 305088, Note_off_c, 0, 76, 0
1, 305088, Note_off_c, 0, 57, 0
1, 305088, Note_off_c, 0, 60, 0
1, 305088, Note_off_c, 0, 64, 0
1, 305088, Note_off_c, 0, 48, 0
1, 305088, Note_off_c, 0, 52, 0
1, 305232, Note_on_c, 0, 29, 5
1, 305232, Note_on_c, 0, 31, 5
1, 305232, Note_on_c, 0, 38, 5
1, 305232, Note_on_c, 0, 40, 5
1, 305232, Note_on_c, 0, 48, 5
1, 305232, Note_on_c, 0, 50, 5
1, 305232, Note_on_c, 0, 52, 5
1, 305232, Note_on_c, 0, 53, 5
1, 305232, Note_on_c, 0, 55, 5
1, 305232, Note_on_c, 0, 64, 5
1, 305232, Note_on_c, 0, 65, 5
1, 305232, Note_on_c, 0, 67, 5
1, 305232, Note_on_c, 0, 69, 5
1, 305232, Note_on_c, 0, 71, 5
1, 305232, Note_on_c, 0, 72, 5
1, 305232, Note_on_c, 0, 83, 5
1, 305232, Note_on_c, 0, 81, 5
1, 305232, Note_on_c, 0, 91, 5
1, 305232, Note_on_c, 0, 89, 5
1, 305280, Note_off_c, 0, 89, 0
1, 305280, Note_off_c, 0, 91, 0
1, 305280, Note_off_c, 0, 81, 0
1, 305280, Note_off_c, 0, 83, 0
1, 305280, Note_off_c, 0, 72, 0
1, 305280, Note_off_c, 0, 71, 0
1, 305280, Note_off_c, 0, 69, 0
1, 305280, Note_off_c, 0, 67, 0
1, 305280, Note_off_c, 0, 65, 0
1, 305280, Note_off_c, 0, 64, 0
1, 305280, Note_off_c, 0, 55, 0
1, 305280, Note_off_c, 0, 53, 0
1, 305280, Note_off_c, 0, 52, 0
1, 305280, Note_off_c, 0, 50, 0
1, 305280, Note_off_c, 0, 48, 0
1, 305280, Note_off_c, 0, 40, 0
1, 305280, Note_off_c, 0, 38, 0
1, 305280, Note_off_c, 0, 31, 0
1, 305280, Note_off_c, 0, 29, 0
1, 305280, Note_on_c, 0, 31, 5
1, 305280, Note_on_c, 0, 33, 5
1, 305280, Note_on_c, 0, 38, 5
1, 305280, Note_on_c, 0, 40, 5
1, 305280, Note_on_c, 0, 35, 5
1, 305280, Note_on_c, 0, 47, 5
1, 305280, Note_on_c, 0, 48, 5
1, 305280, Note_on_c, 0, 57, 5
1, 305280, Note_on_c, 0, 55, 5
1, 305280, Note_on_c, 0, 74, 5
1, 305280, Note_on_c, 0, 72, 5
1, 305280, Note_on_c, 0, 83, 5
1, 305280, Note_on_c, 0, 81, 5
1, 305280, Note_on_c, 0, 89, 5
1, 305280, Note_on_c, 0, 91, 5
1, 305328, Note_off_c, 0, 91, 0
1, 305328, Note_off_c, 0, 89, 0
1, 305328, Note_off_c, 0, 81, 0
1, 305328, Note_off_c, 0, 83, 0
1, 305328, Note_off_c, 0, 72, 0
1, 305328, Note_off_c, 0, 74, 0
1, 305328, Note_off_c, 0, 55, 0
1, 305328, Note_off_c, 0, 57, 0
1, 305328, Note_off_c, 0, 48, 0
1, 305328, Note_off_c, 0, 47, 0
1, 305328, Note_off_c, 0, 35, 0
1, 305328, Note_off_c, 0, 40, 0
1, 305328, Note_off_c, 0, 38, 0
1, 305328, Note_off_c, 0, 33, 0
1, 305328, Note_off_c, 0, 31, 0
1, 305328, Note_on_c, 0, 35, 5
1, 305328, Note_on_c, 0, 36, 5
1, 305328, Note_on_c, 0, 38, 5
1, 305328, Note_on_c, 0, 40, 5
1, 305328, Note_on_c, 0, 47, 5
1, 305328, Note_on_c, 0, 48, 5
1, 305328, Note_on_c, 0, 57, 5
1, 305328, Note_on_c, 0, 55, 5
1, 305328, Note_on_c, 0, 74, 5
1, 305328, Note_on_c, 0, 72, 5
1, 305328, Note_on_c, 0, 81, 5
1, 305328, Note_on_c, 0, 83, 5
1, 305328, Note_on_c, 0, 91, 5
1, 305328, Note_on_c, 0, 89, 5
1, 305376, Note_off_c, 0, 89, 0
1, 305376, Note_off_c, 0, 91, 0
1, 305376, Note_off_c, 0, 83, 0
1, 305376, Note_off_c, 0, 81, 0
1, 305376, Note_off_c, 0, 72, 0
1, 305376, Note_off_c, 0, 74, 0
1, 305376, Note_off_c, 0, 55, 0
1, 305376, Note_off_c, 0, 57, 0
1, 305376, Note_off_c, 0, 48, 0
1, 305376, Note_off_c, 0, 47, 0
1, 305376, Note_off_c, 0, 40, 0
1, 305376, Note_off_c, 0, 38, 0
1, 305376, Note_off_c, 0, 36, 0
1, 305376, Note_off_c, 0, 35, 0
1, 305376, Note_on_c, 0, 40, 5
1, 305376, Note_on_c, 0, 38, 5
1, 305376, Note_on_c, 0, 31, 5
1, 305376, Note_on_c, 0, 33, 5
1, 305376, Note_on_c, 0, 35, 5
1, 305376, Note_on_c, 0, 36, 5
1, 305376, Note_on_c, 0, 47, 5
1, 305376, Note_on_c, 0, 48, 5
1, 305376, Note_on_c, 0, 57, 5
1, 305376, Note_on_c, 0, 55, 5
1, 305376, Note_on_c, 0, 72, 5
1, 305376, Note_on_c, 0, 71, 5
1, 305376, Note_on_c, 0, 69, 5
1, 305376, Note_on_c, 0, 67, 5
1, 305376, Note_on_c, 0, 65, 5
1, 305376, Note_on_c, 0, 83, 5
1, 305376, Note_on_c, 0, 81, 5
1, 305376, Note_on_c, 0, 91, 5
1, 305376, Note_on_c, 0, 89, 5
1, 305376, Note_on_c, 0, 88, 5
1, 305376, Note_on_c, 0, 86, 5
1, 305376, Note_on_c, 0, 84, 5
1, 305424, Note_off_c, 0, 84, 0
1, 305424, Note_off_c, 0, 86, 0
1, 305424, Note_off_c, 0, 88, 0
1, 305424, Note_off_c, 0, 89, 0
1, 305424, Note_off_c, 0, 91, 0
1, 305424, Note_off_c, 0, 81, 0
1, 305424, Note_off_c, 0, 83, 0
1, 305424, Note_off_c, 0, 65, 0
1, 305424, Note_off_c, 0, 67, 0
1, 305424, Note_off_c, 0, 69, 0
1, 305424, Note_off_c, 0, 71, 0
1, 305424, Note_off_c, 0, 72, 0
1, 305424, Note_off_c, 0, 55, 0
1, 305424, Note_off_c, 0, 57, 0
1, 305424, Note_off_c, 0, 48, 0
1, 305424, Note_off_c, 0, 47, 0
1, 305424, Note_off_c, 0, 36, 0
1, 305424, Note_off_c, 0, 35, 0
1, 305424, Note_off_c, 0, 33, 0
1, 305424, Note_off_c, 0, 31, 0
1, 305424, Note_off_c, 0, 38, 0
1, 305424, Note_off_c, 0, 40, 0
1, 305424, Note_on_c, 0, 40, 5
1, 305424, Note_on_c, 0, 38, 5
1, 305424, Note_on_c, 0, 31, 5
1, 305424, Note_on_c, 0, 29, 5
1, 305424, Note_on_c, 0, 47, 5
1, 305424, Note_on_c, 0, 48, 5
1, 305424, Note_on_c, 0, 57, 5
1, 305424, Note_on_c, 0, 55, 5
1, 305424, Note_on_c, 0, 65, 5
1, 305424, Note_on_c, 0, 64, 5
1, 305424, Note_on_c, 0, 83, 5
1, 305424, Note_on_c, 0, 81, 5
1, 305424, Note_on_c, 0, 91, 5
1, 305424, Note_on_c, 0, 89, 5
1, 305472, Note_off_c, 0, 89, 0
1, 305472, Note_off_c, 0, 91, 0
1, 305472, Note_off_c, 0, 81, 0
1, 305472, Note_off_c, 0, 83, 0
1, 305472, Note_off_c, 0, 64, 0
1, 305472, Note_off_c, 0, 65, 0
1, 305472, Note_off_c, 0, 55, 0
1, 305472, Note_off_c, 0, 57, 0
1, 305472, Note_off_c, 0, 48, 0
1, 305472, Note_off_c, 0, 47, 0
1, 305472, Note_off_c, 0, 29, 0
1, 305472, Note_off_c, 0, 31, 0
1, 305472, Note_off_c, 0, 38, 0
1, 305472, Note_off_c, 0, 40, 0
1, 305472, Note_on_c, 0, 40, 5
1, 305472, Note_on_c, 0, 38, 5
1, 305472, Note_on_c, 0, 31, 5
1, 305472, Note_on_c, 0, 29, 5
1, 305472, Note_on_c, 0, 47, 5
1, 305472, Note_on_c, 0, 48, 5
1, 305472, Note_on_c, 0, 57, 5
1, 305472, Note_on_c, 0, 55, 5
1, 305472, Note_on_c, 0, 65, 5
1, 305472, Note_on_c, 0, 64, 5
1, 305472, Note_on_c, 0, 83, 5
1, 305472, Note_on_c, 0, 81, 5
1, 305472, Note_on_c, 0, 91, 5
1, 305472, Note_on_c, 0, 89, 5
1, 305520, Note_off_c, 0, 89, 0
1, 305520, Note_off_c, 0, 91, 0
1, 305520, Note_off_c, 0, 81, 0
1, 305520, Note_off_c, 0, 83, 0
1, 305520, Note_off_c, 0, 64, 0
1, 305520, Note_off_c, 0, 65, 0
1, 305520, Note_off_c, 0, 55, 0
1, 305520, Note_off_c, 0, 57, 0
1, 305520, Note_off_c, 0, 48, 0
1, 305520, Note_off_c, 0, 47, 0
1, 305520, Note_off_c, 0, 29, 0
1, 305520, Note_off_c, 0, 31, 0
1, 305520, Note_off_c, 0, 38, 0
1, 305520, Note_off_c, 0, 40, 0
1, 305520, Note_on_c, 0, 40, 5
1, 305520, Note_on_c, 0, 38, 5
1, 305520, Note_on_c, 0, 36, 5
1, 305520, Note_on_c, 0, 35, 5
1, 305520, Note_on_c, 0, 33, 5
1, 305520, Note_on_c, 0, 31, 5
1, 305520, Note_on_c, 0, 47, 5
1, 305520, Note_on_c, 0, 48, 5
1, 305520, Note_on_c, 0, 57, 5
1, 305520, Note_on_c, 0, 55, 5
1, 305520, Note_on_c, 0, 65, 5
1, 305520, Note_on_c, 0, 67, 5
1, 305520, Note_on_c, 0, 69, 5
1, 305520, Note_on_c, 0, 71, 5
1, 305520, Note_on_c, 0, 72, 5
1, 305520, Note_on_c, 0, 74, 5
1, 305520, Note_on_c, 0, 83, 5
1, 305520, Note_on_c, 0, 81, 5
1, 305520, Note_on_c, 0, 89, 5
1, 305520, Note_on_c, 0, 91, 5
1, 305568, Note_off_c, 0, 91, 0
1, 305568, Note_off_c, 0, 89, 0
1, 305568, Note_off_c, 0, 81, 0
1, 305568, Note_off_c, 0, 83, 0
1, 305568, Note_off_c, 0, 74, 0
1, 305568, Note_off_c, 0, 72, 0
1, 305568, Note_off_c, 0, 71, 0
1, 305568, Note_off_c, 0, 69, 0
1, 305568, Note_off_c, 0, 67, 0
1, 305568, Note_off_c, 0, 65, 0
1, 305568, Note_off_c, 0, 55, 0
1, 305568, Note_off_c, 0, 57, 0
1, 305568, Note_off_c, 0, 48, 0
1, 305568, Note_off_c, 0, 47, 0
1, 305568, Note_off_c, 0, 31, 0
1, 305568, Note_off_c, 0, 33, 0
1, 305568, Note_off_c, 0, 35, 0
1, 305568, Note_off_c, 0, 36, 0
1, 305568, Note_off_c, 0, 38, 0
1, 305568, Note_off_c, 0, 40, 0
1, 305664, Note_on_c, 0, 40, 50
1, 305664, Note_on_c, 0, 52, 50
1, 306048, Note_off_c, 0, 52, 0
1, 306048, Note_off_c, 0, 40, 0
1, 306432, Note_on_c, 0, 52, 30
1, 306432, Note_on_c, 0, 48, 30
1, 306432, Note_on_c, 0, 57, 30
1, 306432, Note_on_c, 0, 60, 30
1, 306432, Note_on_c, 0, 64, 30
1, 306432, Note_on_c, 0, 76, 30
1, 306432, Note_on_c, 0, 72, 30
1, 306432, Note_on_c, 0, 69, 30
1, 306432, Note_on_c, 0, 81, 30
1, 306432, Note_on_c, 0, 84, 30
1, 306432, Note_on_c, 0, 88, 30
1, 306432, Note_on_c, 0, 93, 30
1, 306624, Note_off_c, 0, 93, 0
1, 306624, Note_off_c, 0, 88, 0
1, 306624, Note_off_c, 0, 84, 0
1, 306624, Note_off_c, 0, 81, 0
1, 306624, Note_off_c, 0, 69, 0
1, 306624, Note_off_c, 0, 72, 0
1, 306624, Note_off_c, 0, 76, 0
1, 306624, Note_off_c, 0, 64, 0
1, 306624, Note_off_c, 0, 60, 0
1, 306624, Note_off_c, 0, 57, 0
1, 306624, Note_off_c, 0, 48, 0
1, 306624, Note_off_c, 0, 52, 0
1, 306768, Note_on_c, 0, 55, 5
1, 306768, Note_on_c, 0, 57, 5
1, 306768, Note_on_c, 0, 59, 5
1, 306768, Note_on_c, 0, 60, 5
1, 306768, Note_on_c, 0, 62, 5
1, 306768, Note_on_c, 0, 64, 5
1, 306768, Note_on_c, 0, 65, 5
1, 306816, Note_off_c, 0, 65, 0
1, 306816, Note_off_c, 0, 64, 0
1, 306816, Note_off_c, 0, 62, 0
1, 306816, Note_off_c, 0, 60, 0
1, 306816, Note_off_c, 0, 59, 0
1, 306816, Note_off_c, 0, 57, 0
1, 306816, Note_off_c, 0, 55, 0
1, 306816, Note_on_c, 0, 55, 5
1, 306816, Note_on_c, 0, 57, 5
1, 306864, Note_off_c, 0, 57, 0
1, 306864, Note_off_c, 0, 55, 0
1, 306864, Note_on_c, 0, 55, 5
1, 306864, Note_on_c, 0, 57, 5
1, 306912, Note_off_c, 0, 57, 0
1, 306912, Note_off_c, 0, 55, 0
1, 306912, Note_on_c, 0, 55, 5
1, 306912, Note_on_c, 0, 57, 5
1, 306912, Note_on_c, 0, 59, 5
1, 306912, Note_on_c, 0, 60, 5
1, 306912, Note_on_c, 0, 62, 5
1, 306912, Note_on_c, 0, 64, 5
1, 306912, Note_on_c, 0, 65, 5
1, 306960, Note_off_c, 0, 65, 0
1, 306960, Note_off_c, 0, 64, 0
1, 306960, Note_off_c, 0, 62, 0
1, 306960, Note_off_c, 0, 60, 0
1, 306960, Note_off_c, 0, 59, 0
1, 306960, Note_off_c, 0, 57, 0
1, 306960, Note_off_c, 0, 55, 0
1, 306960, Note_on_c, 0, 55, 5
1, 306960, Note_on_c, 0, 57, 5
1, 307008, Note_off_c, 0, 57, 0
1, 307008, Note_off_c, 0, 55, 0
1, 307008, Note_on_c, 0, 55, 5
1, 307008, Note_on_c, 0, 57, 5
1, 307056, Note_off_c, 0, 57, 0
1, 307056, Note_off_c, 0, 55, 0
1, 307056, Note_on_c, 0, 55, 5
1, 307056, Note_on_c, 0, 57, 5
1, 307056, Note_on_c, 0, 59, 5
1, 307056, Note_on_c, 0, 60, 5
1, 307056, Note_on_c, 0, 62, 5
1, 307056, Note_on_c, 0, 64, 5
1, 307056, Note_on_c, 0, 65, 5
1, 307104, Note_off_c, 0, 65, 0
1, 307104, Note_off_c, 0, 64, 0
1, 307104, Note_off_c, 0, 62, 0
1, 307104, Note_off_c, 0, 60, 0
1, 307104, Note_off_c, 0, 59, 0
1, 307104, Note_off_c, 0, 57, 0
1, 307104, Note_off_c, 0, 55, 0
1, 307200, Note_on_c, 0, 24, 44
1, 307200, Note_on_c, 0, 26, 44
1, 307200, Note_on_c, 0, 25, 44
1, 307200, Note_on_c, 0, 27, 44
1, 307200, Note_on_c, 0, 28, 44
1, 307200, Note_on_c, 0, 30, 44
1, 307200, Note_on_c, 0, 29, 44
1, 307200, Note_on_c, 0, 31, 44
1, 307200, Note_on_c, 0, 32, 44
1, 307200, Note_on_c, 0, 33, 89
1, 307200, Note_on_c, 0, 45, 89
1, 307200, Note_on_c, 0, 64, 50
1, 307200, Note_on_c, 0, 76, 50
1, 307392, Note_off_c, 0, 76, 0
1, 307392, Note_off_c, 0, 64, 0
1, 307392, Note_off_c, 0, 32, 0
1, 307392, Note_off_c, 0, 31, 0
1, 307392, Note_off_c, 0, 29, 0
1, 307392, Note_off_c, 0, 30, 0
1, 307392, Note_off_c, 0, 28, 0
1, 307392, Note_off_c, 0, 27, 0
1, 307392, Note_off_c, 0, 25, 0
1, 307392, Note_off_c, 0, 26, 0
1, 307392, Note_off_c, 0, 24, 0
1, 307584, Note_on_c, 0, 64, 50
1, 307584, Note_on_c, 0, 76, 50
1, 307776, Note_off_c, 0, 76, 0
1, 307776, Note_off_c, 0, 64, 0
1, 307968, Note_off_c, 0, 45, 0
1, 307968, Note_off_c, 0, 33, 0
1, 307968, Note_on_c, 0, 52, 89
1, 307968, Note_on_c, 0, 48, 89
1, 307968, Note_on_c, 0, 64, 50
1, 307968, Note_on_c, 0, 76, 50
1, 308160, Note_off_c, 0, 76, 0
1, 308160, Note_off_c, 0, 64, 0
1, 308160, Note_off_c, 0, 48, 0
1, 308160, Note_off_c, 0, 52, 0
1, 308352, Note_on_c, 0, 64, 50
1, 308352, Note_on_c, 0, 76, 50
1, 308544, Note_off_c, 0, 76, 0
1, 308544, Note_off_c, 0, 64, 0
1, 308736, Note_on_c, 0, 33, 44
1, 308736, Note_on_c, 0, 35, 44
1, 308736, Note_on_c, 0, 34, 44
1, 308736, Note_on_c, 0, 36, 44
1, 308736, Note_on_c, 0, 37, 44
1, 308736, Note_on_c, 0, 39, 44
1, 308736, Note_on_c, 0, 38, 44
1, 308736, Note_on_c, 0, 40, 44
1, 308736, Note_on_c, 0, 41, 44
1, 308736, Note_on_c, 0, 28, 89
1, 308736, Note_on_c, 0, 40, 89
1, 308736, Note_on_c, 0, 64, 50
1, 308736, Note_on_c, 0, 76, 50
1, 308928, Note_off_c, 0, 76, 0
1, 308928, Note_off_c, 0, 64, 0
1, 308928, Note_off_c, 0, 41, 0
1, 308928, Note_off_c, 0, 40, 0
1, 308928, Note_off_c, 0, 38, 0
1, 308928, Note_off_c, 0, 39, 0
1, 308928, Note_off_c, 0, 37, 0
1, 308928, Note_off_c, 0, 36, 0
1, 308928, Note_off_c, 0, 34, 0
1, 308928, Note_off_c, 0, 35, 0
1, 308928, Note_off_c, 0, 33, 0
1, 309120, Note_on_c, 0, 64, 50
1, 309120, Note_on_c, 0, 76, 50
1, 309312, Note_off_c, 0, 76, 0
1, 309312, Note_off_c, 0, 64, 0
1, 309504, Note_off_c, 0, 40, 0
1, 309504, Note_off_c, 0, 28, 0
1, 309504, Note_on_c, 0, 48, 89
1, 309504, Note_on_c, 0, 52, 89
1, 309504, Note_on_c, 0, 64, 50
1, 309504, Note_on_c, 0, 76, 50
1, 309696, Note_off_c, 0, 76, 0
1, 309696, Note_off_c, 0, 64, 0
1, 309696, Note_off_c, 0, 52, 0
1, 309696, Note_off_c, 0, 48, 0
1, 309888, Note_on_c, 0, 64, 50
1, 309888, Note_on_c, 0, 76, 50
1, 310080, Note_off_c, 0, 76, 0
1, 310080, Note_off_c, 0, 64, 0
1, 310272, Note_on_c, 0, 24, 44
1, 310272, Note_on_c, 0, 26, 44
1, 310272, Note_on_c, 0, 25, 44
1, 310272, Note_on_c, 0, 27, 44
1, 310272, Note_on_c, 0, 28, 44
1, 310272, Note_on_c, 0, 30, 44
1, 310272, Note_on_c, 0, 29, 44
1, 310272, Note_on_c, 0, 31, 44
1, 310272, Note_on_c, 0, 32, 44
1, 310272, Note_on_c, 0, 33, 89
1, 310272, Note_on_c, 0, 45, 89
1, 310272, Note_on_c, 0, 76, 50
1, 310272, Note_on_c, 0, 64, 50
1, 310272, Note_on_c, 0, 88, 15
1, 310368, Note_off_c, 0, 88, 0
1, 310464, Note_off_c, 0, 64, 0
1, 310464, Note_off_c, 0, 76, 0
1, 310464, Note_off_c, 0, 32, 0
1, 310464, Note_off_c, 0, 31, 0
1, 310464, Note_off_c, 0, 29, 0
1, 310464, Note_off_c, 0, 30, 0
1, 310464, Note_off_c, 0, 28, 0
1, 310464, Note_off_c, 0, 27, 0
1, 310464, Note_off_c, 0, 25, 0
1, 310464, Note_off_c, 0, 26, 0
1, 310464, Note_off_c, 0, 24, 0
1, 310464, Note_on_c, 0, 88, 15
1, 310560, Note_off_c, 0, 88, 0
1, 310656, Note_on_c, 0, 64, 50
1, 310656, Note_on_c, 0, 76, 50
1, 310656, Note_on_c, 0, 88, 15
1, 310752, Note_off_c, 0, 88, 0
1, 310848, Note_off_c, 0, 76, 0
1, 310848, Note_off_c, 0, 64, 0
1, 310848, Note_on_c, 0, 88, 15
1, 310944, Note_off_c, 0, 88, 0
1, 311040, Note_off_c, 0, 45, 0
1, 311040, Note_off_c, 0, 33, 0
1, 311040, Note_on_c, 0, 52, 89
1, 311040, Note_on_c, 0, 48, 89
1, 311040, Note_on_c, 0, 64, 50
1, 311040, Note_on_c, 0, 76, 50
1, 311040, Note_on_c, 0, 88, 25
1, 311136, Note_off_c, 0, 88, 0
1, 311232, Note_off_c, 0, 76, 0
1, 311232, Note_off_c, 0, 64, 0
1, 311232, Note_off_c, 0, 48, 0
1, 311232, Note_off_c, 0, 52, 0
1, 311232, Note_on_c, 0, 88, 25
1, 311328, Note_off_c, 0, 88, 0
1, 311424, Note_on_c, 0, 64, 50
1, 311424, Note_on_c, 0, 76, 50
1, 311424, Note_on_c, 0, 88, 25
1, 311520, Note_off_c, 0, 88, 0
1, 311616, Note_off_c, 0, 76, 0
1, 311616, Note_off_c, 0, 64, 0
1, 311616, Note_on_c, 0, 88, 25
1, 311712, Note_off_c, 0, 88, 0
1, 311808, Note_on_c, 0, 33, 44
1, 311808, Note_on_c, 0, 35, 44
1, 311808, Note_on_c, 0, 34, 44
1, 311808, Note_on_c, 0, 36, 44
1, 311808, Note_on_c, 0, 37, 44
1, 311808, Note_on_c, 0, 39, 44
1, 311808, Note_on_c, 0, 38, 44
1, 311808, Note_on_c, 0, 40, 44
1, 311808, Note_on_c, 0, 41, 44
1, 311808, Note_on_c, 0, 28, 89
1, 311808, Note_on_c, 0, 40, 89
1, 311808, Note_on_c, 0, 64, 50
1, 311808, Note_on_c, 0, 76, 50
1, 311808, Note_on_c, 0, 88, 34
1, 311904, Note_off_c, 0, 88, 0
1, 312000, Note_off_c, 0, 76, 0
1, 312000, Note_off_c, 0, 64, 0
1, 312000, Note_off_c, 0, 41, 0
1, 312000, Note_off_c, 0, 40, 0
1, 312000, Note_off_c, 0, 38, 0
1, 312000, Note_off_c, 0, 39, 0
1, 312000, Note_off_c, 0, 37, 0
1, 312000, Note_off_c, 0, 36, 0
1, 312000, Note_off_c, 0, 34, 0
1, 312000, Note_off_c, 0, 35, 0
1, 312000, Note_off_c, 0, 33, 0
1, 312000, Note_on_c, 0, 88, 34
1, 312096, Note_off_c, 0, 88, 0
1, 312192, Note_on_c, 0, 64, 50
1, 312192, Note_on_c, 0, 76, 50
1, 312192, Note_on_c, 0, 88, 34
1, 312288, Note_off_c, 0, 88, 0
1, 312384, Note_off_c, 0, 76, 0
1, 312384, Note_off_c, 0, 64, 0
1, 312384, Note_on_c, 0, 88, 34
1, 312480, Note_off_c, 0, 88, 0
1, 312576, Note_off_c, 0, 40, 0
1, 312576, Note_off_c, 0, 28, 0
1, 312576, Note_on_c, 0, 48, 89
1, 312576, Note_on_c, 0, 52, 89
1, 312576, Note_on_c, 0, 64, 50
1, 312576, Note_on_c, 0, 76, 50
1, 312576, Note_on_c, 0, 88, 44
1, 312672, Note_off_c, 0, 88, 0
1, 312768, Note_off_c, 0, 76, 0
1, 312768, Note_off_c, 0, 64, 0
1, 312768, Note_off_c, 0, 52, 0
1, 312768, Note_off_c, 0, 48, 0
1, 312768, Note_on_c, 0, 88, 44
1, 312864, Note_off_c, 0, 88, 0
1, 312960, Note_on_c, 0, 64, 50
1, 312960, Note_on_c, 0, 76, 50
1, 312960, Note_on_c, 0, 88, 44
1, 313056, Note_off_c, 0, 88, 0
1, 313152, Note_off_c, 0, 76, 0
1, 313152, Note_off_c, 0, 64, 0
1, 313152, Note_on_c, 0, 88, 44
1, 313248, Note_off_c, 0, 88, 0
1, 313344, Note_on_c, 0, 88, 50
1, 313344, Note_on_c, 0, 76, 50
1, 313344, Note_on_c, 0, 64, 50
1, 313344, Note_on_c, 0, 24, 44
1, 313344, Note_on_c, 0, 26, 44
1, 313344, Note_on_c, 0, 25, 44
1, 313344, Note_on_c, 0, 27, 44
1, 313344, Note_on_c, 0, 28, 44
1, 313344, Note_on_c, 0, 30, 44
1, 313344, Note_on_c, 0, 29, 44
1, 313344, Note_on_c, 0, 31, 44
1, 313344, Note_on_c, 0, 32, 44
1, 313344, Note_on_c, 0, 33, 89
1, 313344, Note_on_c, 0, 45, 89
1, 313440, Note_off_c, 0, 88, 0
1, 313536, Note_off_c, 0, 32, 0
1, 313536, Note_off_c, 0, 31, 0
1, 313536, Note_off_c, 0, 29, 0
1, 313536, Note_off_c, 0, 30, 0
1, 313536, Note_off_c, 0, 28, 0
1, 313536, Note_off_c, 0, 27, 0
1, 313536, Note_off_c, 0, 25, 0
1, 313536, Note_off_c, 0, 26, 0
1, 313536, Note_off_c, 0, 24, 0
1, 313536, Note_off_c, 0, 64, 0
1, 313536, Note_off_c, 0, 76, 0
1, 313536, Note_on_c, 0, 88, 50
1, 313632, Note_off_c, 0, 88, 0
1, 313728, Note_on_c, 0, 88, 50
1, 313728, Note_on_c, 0, 64, 50
1, 313728, Note_on_c, 0, 76, 50
1, 313824, Note_off_c, 0, 88, 0
1, 313920, Note_off_c, 0, 76, 0
1, 313920, Note_off_c, 0, 64, 0
1, 313920, Note_on_c, 0, 88, 50
1, 314016, Note_off_c, 0, 88, 0
1, 314112, Note_off_c, 0, 45, 0
1, 314112, Note_off_c, 0, 33, 0
1, 314112, Note_on_c, 0, 88, 50
1, 314112, Note_on_c, 0, 64, 50
1, 314112, Note_on_c, 0, 76, 50
1, 314112, Note_on_c, 0, 52, 89
1, 314112, Note_on_c, 0, 48, 89
1, 314208, Note_off_c, 0, 88, 0
1, 314304, Note_off_c, 0, 48, 0
1, 314304, Note_off_c, 0, 52, 0
1, 314304, Note_off_c, 0, 76, 0
1, 314304, Note_off_c, 0, 64, 0
1, 314304, Note_on_c, 0, 88, 50
1, 314400, Note_off_c, 0, 88, 0
1, 314496, Note_on_c, 0, 88, 50
1, 314496, Note_on_c, 0, 64, 50
1, 314496, Note_on_c, 0, 76, 50
1, 314592, Note_off_c, 0, 88, 0
1, 314688, Note_off_c, 0, 76, 0
1, 314688, Note_off_c, 0, 64, 0
1, 314688, Note_on_c, 0, 88, 50
1, 314784, Note_off_c, 0, 88, 0
1, 314880, Note_on_c, 0, 88, 50
1, 314880, Note_on_c, 0, 64, 50
1, 314880, Note_on_c, 0, 76, 50
1, 314880, Note_on_c, 0, 33, 44
1, 314880, Note_on_c, 0, 35, 44
1, 314880, Note_on_c, 0, 34, 44
1, 314880, Note_on_c, 0, 36, 44
1, 314880, Note_on_c, 0, 37, 44
1, 314880, Note_on_c, 0, 39, 44
1, 314880, Note_on_c, 0, 38, 44
1, 314880, Note_on_c, 0, 40, 44
1, 314880, Note_on_c, 0, 41, 44
1, 314880, Note_on_c, 0, 28, 89
1, 314880, Note_on_c, 0, 40, 89
1, 314976, Note_off_c, 0, 88, 0
1, 315072, Note_off_c, 0, 41, 0
1, 315072, Note_off_c, 0, 40, 0
1, 315072, Note_off_c, 0, 38, 0
1, 315072, Note_off_c, 0, 39, 0
1, 315072, Note_off_c, 0, 37, 0
1, 315072, Note_off_c, 0, 36, 0
1, 315072, Note_off_c, 0, 34, 0
1, 315072, Note_off_c, 0, 35, 0
1, 315072, Note_off_c, 0, 33, 0
1, 315072, Note_off_c, 0, 76, 0
1, 315072, Note_off_c, 0, 64, 0
1, 315072, Note_on_c, 0, 88, 30
1, 315168, Note_off_c, 0, 88, 0
1, 315264, Note_on_c, 0, 65, 50
1, 315264, Note_on_c, 0, 77, 50
1, 315264, Note_on_c, 0, 88, 30
1, 315360, Note_off_c, 0, 88, 0
1, 315456, Note_off_c, 0, 77, 0
1, 315456, Note_off_c, 0, 65, 0
1, 315456, Note_on_c, 0, 88, 30
1, 315552, Note_off_c, 0, 88, 0
1, 315648, Note_off_c, 0, 40, 0
1, 315648, Note_off_c, 0, 28, 0
1, 315648, Note_on_c, 0, 48, 89
1, 315648, Note_on_c, 0, 52, 89
1, 315648, Note_on_c, 0, 64, 50
1, 315648, Note_on_c, 0, 76, 50
1, 315840, Note_off_c, 0, 76, 0
1, 315840, Note_off_c, 0, 64, 0
1, 315840, Note_off_c, 0, 52, 0
1, 315840, Note_off_c, 0, 48, 0
1, 316032, Note_on_c, 0, 63, 50
1, 316032, Note_on_c, 0, 75, 50
1, 316224, Note_off_c, 0, 75, 0
1, 316224, Note_off_c, 0, 63, 0
1, 316416, Note_on_c, 0, 64, 50
1, 316416, Note_on_c, 0, 76, 50
1, 316416, Note_on_c, 0, 24, 44
1, 316416, Note_on_c, 0, 26, 44
1, 316416, Note_on_c, 0, 25, 44
1, 316416, Note_on_c, 0, 27, 44
1, 316416, Note_on_c, 0, 28, 44
1, 316416, Note_on_c, 0, 30, 44
1, 316416, Note_on_c, 0, 29, 44
1, 316416, Note_on_c, 0, 31, 44
1, 316416, Note_on_c, 0, 32, 44
1, 316416, Note_on_c, 0, 33, 89
1, 316416, Note_on_c, 0, 45, 89
1, 316608, Note_off_c, 0, 32, 0
1, 316608, Note_off_c, 0, 31, 0
1, 316608, Note_off_c, 0, 29, 0
1, 316608, Note_off_c, 0, 30, 0
1, 316608, Note_off_c, 0, 28, 0
1, 316608, Note_off_c, 0, 27, 0
1, 316608, Note_off_c, 0, 25, 0
1, 316608, Note_off_c, 0, 26, 0
1, 316608, Note_off_c, 0, 24, 0
1, 316608, Note_off_c, 0, 76, 0
1, 316608, Note_off_c, 0, 64, 0
1, 317184, Note_off_c, 0, 45, 0
1, 317184, Note_off_c, 0, 33, 0
1, 317184, Note_on_c, 0, 69, 50
1, 317184, Note_on_c, 0, 81, 50
1, 317184, Note_on_c, 0, 52, 89
1, 317184, Note_on_c, 0, 48, 89
1, 317376, Note_off_c, 0, 48, 0
1, 317376, Note_off_c, 0, 52, 0
1, 317376, Note_off_c, 0, 81, 0
1, 317376, Note_off_c, 0, 69, 0
1, 317952, Note_on_c, 0, 72, 50
1, 317952, Note_on_c, 0, 84, 50
1, 317952, Note_on_c, 0, 33, 44
1, 317952, Note_on_c, 0, 35, 44
1, 317952, Note_on_c, 0, 34, 44
1, 317952, Note_on_c, 0, 36, 44
1, 317952, Note_on_c, 0, 37, 44
1, 317952, Note_on_c, 0, 39, 44
1, 317952, Note_on_c, 0, 38, 44
1, 317952, Note_on_c, 0, 40, 44
1, 317952, Note_on_c, 0, 41, 44
1, 317952, Note_on_c, 0, 28, 89
1, 317952, Note_on_c, 0, 40, 89
1, 318144, Note_off_c, 0, 41, 0
1, 318144, Note_off_c, 0, 40, 0
1, 318144, Note_off_c, 0, 38, 0
1, 318144, Note_off_c, 0, 39, 0
1, 318144, Note_off_c, 0, 37, 0
1, 318144, Note_off_c, 0, 36, 0
1, 318144, Note_off_c, 0, 34, 0
1, 318144, Note_off_c, 0, 35, 0
1, 318144, Note_off_c, 0, 33, 0
1, 318720, Note_off_c, 0, 40, 0
1, 318720, Note_off_c, 0, 28, 0
1, 318720, Note_off_c, 0, 84, 0
1, 318720, Note_off_c, 0, 72, 0
1, 318720, Note_on_c, 0, 48, 89
1, 318720, Note_on_c, 0, 52, 89
1, 318912, Note_off_c, 0, 52, 0
1, 318912, Note_off_c, 0, 48, 0
1, 319488, Note_on_c, 0, 74, 50
1, 319488, Note_on_c, 0, 86, 50
1, 319488, Note_on_c, 0, 24, 44
1, 319488, Note_on_c, 0, 26, 44
1, 319488, Note_on_c, 0, 25, 44
1, 319488, Note_on_c, 0, 27, 44
1, 319488, Note_on_c, 0, 28, 44
1, 319488, Note_on_c, 0, 30, 44
1, 319488, Note_on_c, 0, 29, 44
1, 319488, Note_on_c, 0, 31, 44
1, 319488, Note_on_c, 0, 32, 44
1, 319488, Note_on_c, 0, 32, 89
1, 319488, Note_on_c, 0, 44, 89
1, 319680, Note_off_c, 0, 32, 0
1, 319680, Note_off_c, 0, 31, 0
1, 319680, Note_off_c, 0, 29, 0
1, 319680, Note_off_c, 0, 30, 0
1, 319680, Note_off_c, 0, 28, 0
1, 319680, Note_off_c, 0, 27, 0
1, 319680, Note_off_c, 0, 25, 0
1, 319680, Note_off_c, 0, 26, 0
1, 319680, Note_off_c, 0, 24, 0
1, 319680, Note_off_c, 0, 86, 0
1, 319680, Note_off_c, 0, 74, 0
1, 319872, Note_on_c, 0, 74, 50
1, 319872, Note_on_c, 0, 86, 50
1, 320064, Note_off_c, 0, 86, 0
1, 320064, Note_off_c, 0, 74, 0
1, 320256, Note_off_c, 0, 44, 0
1, 320256, Note_off_c, 0, 32, 0
1, 320256, Note_on_c, 0, 74, 50
1, 320256, Note_on_c, 0, 86, 50
1, 320256, Note_on_c, 0, 50, 89
1, 320256, Note_on_c, 0, 52, 89
1, 320448, Note_off_c, 0, 52, 0
1, 320448, Note_off_c, 0, 50, 0
1, 320448, Note_off_c, 0, 86, 0
1, 320448, Note_off_c, 0, 74, 0
1, 320640, Note_on_c, 0, 74, 50
1, 320640, Note_on_c, 0, 86, 50
1, 320832, Note_off_c, 0, 86, 0
1, 320832, Note_off_c, 0, 74, 0
1, 321024, Note_on_c, 0, 74, 50
1, 321024, Note_on_c, 0, 86, 50
1, 321024, Note_on_c, 0, 33, 44
1, 321024, Note_on_c, 0, 35, 44
1, 321024, Note_on_c, 0, 34, 44
1, 321024, Note_on_c, 0, 36, 44
1, 321024, Note_on_c, 0, 37, 44
1, 321024, Note_on_c, 0, 39, 44
1, 321024, Note_on_c, 0, 38, 44
1, 321024, Note_on_c, 0, 40, 44
1, 321024, Note_on_c, 0, 41, 44
1, 321024, Note_on_c, 0, 40, 89
1, 321216, Note_off_c, 0, 41, 0
1, 321216, Note_off_c, 0, 40, 0
1, 321216, Note_off_c, 0, 38, 0
1, 321216, Note_off_c, 0, 39, 0
1, 321216, Note_off_c, 0, 37, 0
1, 321216, Note_off_c, 0, 36, 0
1, 321216, Note_off_c, 0, 34, 0
1, 321216, Note_off_c, 0, 35, 0
1, 321216, Note_off_c, 0, 33, 0
1, 321216, Note_off_c, 0, 86, 0
1, 321216, Note_off_c, 0, 74, 0
1, 321408, Note_on_c, 0, 72, 50
1, 321408, Note_on_c, 0, 84, 50
1, 321600, Note_off_c, 0, 84, 0
1, 321600, Note_off_c, 0, 72, 0
1, 321792, Note_off_c, 0, 40, 0
1, 321792, Note_on_c, 0, 71, 50
1, 321792, Note_on_c, 0, 83, 50
1, 321792, Note_on_c, 0, 50, 89
1, 321792, Note_on_c, 0, 52, 89
1, 321984, Note_off_c, 0, 52, 0
1, 321984, Note_off_c, 0, 50, 0
1, 321984, Note_off_c, 0, 83, 0
1, 321984, Note_off_c, 0, 71, 0
1, 322176, Note_on_c, 0, 74, 50
1, 322176, Note_on_c, 0, 86, 50
1, 322368, Note_off_c, 0, 86, 0
1, 322368, Note_off_c, 0, 74, 0
1, 322560, Note_on_c, 0, 84, 50
1, 322560, Note_on_c, 0, 72, 50
1, 322560, Note_on_c, 0, 24, 44
1, 322560, Note_on_c, 0, 26, 44
1, 322560, Note_on_c, 0, 25, 44
1, 322560, Note_on_c, 0, 27, 44
1, 322560, Note_on_c, 0, 28, 44
1, 322560, Note_on_c, 0, 30, 44
1, 322560, Note_on_c, 0, 29, 44
1, 322560, Note_on_c, 0, 31, 44
1, 322560, Note_on_c, 0, 32, 44
1, 322560, Note_on_c, 0, 33, 89
1, 322560, Note_on_c, 0, 45, 89
1, 322752, Note_off_c, 0, 32, 0
1, 322752, Note_off_c, 0, 31, 0
1, 322752, Note_off_c, 0, 29, 0
1, 322752, Note_off_c, 0, 30, 0
1, 322752, Note_off_c, 0, 28, 0
1, 322752, Note_off_c, 0, 27, 0
1, 322752, Note_off_c, 0, 25, 0
1, 322752, Note_off_c, 0, 26, 0
1, 322752, Note_off_c, 0, 24, 0
1, 322752, Note_off_c, 0, 72, 0
1, 322752, Note_off_c, 0, 84, 0
1, 322944, Note_on_c, 0, 72, 50
1, 322944, Note_on_c, 0, 84, 50
1, 323136, Note_off_c, 0, 84, 0
1, 323136, Note_off_c, 0, 72, 0
1, 323328, Note_off_c, 0, 45, 0
1, 323328, Note_off_c, 0, 33, 0
1, 323328, Note_on_c, 0, 72, 50
1, 323328, Note_on_c, 0, 84, 50
1, 323328, Note_on_c, 0, 48, 89
1, 323328, Note_on_c, 0, 52, 89
1, 323520, Note_off_c, 0, 52, 0
1, 323520, Note_off_c, 0, 48, 0
1, 323520, Note_off_c, 0, 84, 0
1, 323520, Note_off_c, 0, 72, 0
1, 323712, Note_on_c, 0, 72, 50
1, 323712, Note_on_c, 0, 84, 50
1, 323904, Note_off_c, 0, 84, 0
1, 323904, Note_off_c, 0, 72, 0
1, 324096, Note_on_c, 0, 72, 50
1, 324096, Note_on_c, 0, 84, 50
1, 324096, Note_on_c, 0, 33, 44
1, 324096, Note_on_c, 0, 35, 44
1, 324096, Note_on_c, 0, 34, 44
1, 324096, Note_on_c, 0, 36, 44
1, 324096, Note_on_c, 0, 37, 44
1, 324096, Note_on_c, 0, 39, 44
1, 324096, Note_on_c, 0, 38, 44
1, 324096, Note_on_c, 0, 40, 44
1, 324096, Note_on_c, 0, 41, 44
1, 324096, Note_on_c, 0, 40, 89
1, 324288, Note_off_c, 0, 41, 0
1, 324288, Note_off_c, 0, 40, 0
1, 324288, Note_off_c, 0, 38, 0
1, 324288, Note_off_c, 0, 39, 0
1, 324288, Note_off_c, 0, 37, 0
1, 324288, Note_off_c, 0, 36, 0
1, 324288, Note_off_c, 0, 34, 0
1, 324288, Note_off_c, 0, 35, 0
1, 324288, Note_off_c, 0, 33, 0
1, 324288, Note_off_c, 0, 84, 0
1, 324288, Note_off_c, 0, 72, 0
1, 324480, Note_on_c, 0, 71, 50
1, 324480, Note_on_c, 0, 83, 50
1, 324672, Note_off_c, 0, 83, 0
1, 324672, Note_off_c, 0, 71, 0
1, 324864, Note_off_c, 0, 40, 0
1, 324864, Note_on_c, 0, 69, 50
1, 324864, Note_on_c, 0, 81, 50
1, 324864, Note_on_c, 0, 48, 89
1, 324864, Note_on_c, 0, 52, 89
1, 325056, Note_off_c, 0, 52, 0
1, 325056, Note_off_c, 0, 48, 0
1, 325056, Note_off_c, 0, 81, 0
1, 325056, Note_off_c, 0, 69, 0
1, 325248, Note_on_c, 0, 72, 50
1, 325248, Note_on_c, 0, 84, 50
1, 325440, Note_off_c, 0, 84, 0
1, 325440, Note_off_c, 0, 72, 0
1, 325632, Note_on_c, 0, 83, 50
1, 325632, Note_on_c, 0, 71, 50
1, 325632, Note_on_c, 0, 24, 44
1, 325632, Note_on_c, 0, 26, 44
1, 325632, Note_on_c, 0, 25, 44
1, 325632, Note_on_c, 0, 27, 44
1, 325632, Note_on_c, 0, 28, 44
1, 325632, Note_on_c, 0, 30, 44
1, 325632, Note_on_c, 0, 29, 44
1, 325632, Note_on_c, 0, 31, 44
1, 325632, Note_on_c, 0, 32, 44
1, 325632, Note_on_c, 0, 35, 89
1, 325632, Note_on_c, 0, 47, 89
1, 325824, Note_off_c, 0, 32, 0
1, 325824, Note_off_c, 0, 31, 0
1, 325824, Note_off_c, 0, 29, 0
1, 325824, Note_off_c, 0, 30, 0
1, 325824, Note_off_c, 0, 28, 0
1, 325824, Note_off_c, 0, 27, 0
1, 325824, Note_off_c, 0, 25, 0
1, 325824, Note_off_c, 0, 26, 0
1, 325824, Note_off_c, 0, 24, 0
1, 325824, Note_off_c, 0, 71, 0
1, 325824, Note_off_c, 0, 83, 0
1, 326016, Note_on_c, 0, 71, 50
1, 326016, Note_on_c, 0, 83, 50
1, 326208, Note_off_c, 0, 83, 0
1, 326208, Note_off_c, 0, 71, 0
1, 326400, Note_off_c, 0, 47, 0
1, 326400, Note_off_c, 0, 35, 0
1, 326400, Note_on_c, 0, 71, 50
1, 326400, Note_on_c, 0, 83, 50
1, 326400, Note_on_c, 0, 47, 89
1, 326400, Note_on_c, 0, 51, 89
1, 326592, Note_off_c, 0, 51, 0
1, 326592, Note_off_c, 0, 47, 0
1, 326592, Note_off_c, 0, 83, 0
1, 326592, Note_off_c, 0, 71, 0
1, 326784, Note_on_c, 0, 71, 50
1, 326784, Note_on_c, 0, 83, 50
1, 326976, Note_off_c, 0, 83, 0
1, 326976, Note_off_c, 0, 71, 0
1, 327168, Note_on_c, 0, 33, 44
1, 327168, Note_on_c, 0, 35, 44
1, 327168, Note_on_c, 0, 34, 44
1, 327168, Note_on_c, 0, 36, 44
1, 327168, Note_on_c, 0, 37, 44
1, 327168, Note_on_c, 0, 39, 44
1, 327168, Note_on_c, 0, 38, 44
1, 327168, Note_on_c, 0, 40, 44
1, 327168, Note_on_c, 0, 41, 44
1, 327168, Note_on_c, 0, 47, 89
1, 327168, Note_on_c, 0, 78, 50
1, 327168, Note_on_c, 0, 66, 50
1, 327360, Note_off_c, 0, 66, 0
1, 327360, Note_off_c, 0, 78, 0
1, 327360, Note_off_c, 0, 41, 0
1, 327360, Note_off_c, 0, 40, 0
1, 327360, Note_off_c, 0, 38, 0
1, 327360, Note_off_c, 0, 39, 0
1, 327360, Note_off_c, 0, 37, 0
1, 327360, Note_off_c, 0, 36, 0
1, 327360, Note_off_c, 0, 34, 0
1, 327360, Note_off_c, 0, 35, 0
1, 327360, Note_off_c, 0, 33, 0
1, 327936, Note_off_c, 0, 47, 0
1, 327936, Note_on_c, 0, 47, 89
1, 327936, Note_on_c, 0, 51, 89
1, 327936, Note_on_c, 0, 83, 50
1, 327936, Note_on_c, 0, 71, 50
1, 328128, Note_off_c, 0, 71, 0
1, 328128, Note_off_c, 0, 83, 0
1, 328128, Note_off_c, 0, 51, 0
1, 328128, Note_off_c, 0, 47, 0
1, 328704, Note_on_c, 0, 24, 44
1, 328704, Note_on_c, 0, 26, 44
1, 328704, Note_on_c, 0, 25, 44
1, 328704, Note_on_c, 0, 27, 44
1, 328704, Note_on_c, 0, 28, 44
1, 328704, Note_on_c, 0, 30, 44
1, 328704, Note_on_c, 0, 29, 44
1, 328704, Note_on_c, 0, 31, 44
1, 328704, Note_on_c, 0, 32, 44
1, 328704, Note_on_c, 0, 40, 89
1, 328704, Note_on_c, 0, 52, 89
1, 328704, Note_on_c, 0, 44, 89
1, 328704, Note_on_c, 0, 52, 89
1, 328704, Note_on_c, 0, 56, 89
1, 328704, Note_on_c, 0, 80, 50
1, 328704, Note_on_c, 0, 68, 50
1, 328896, Note_off_c, 0, 68, 0
1, 328896, Note_off_c, 0, 80, 0
1, 328896, Note_off_c, 0, 52, 0
1, 328896, Note_off_c, 0, 44, 0
1, 328896, Note_off_c, 0, 32, 0
1, 328896, Note_off_c, 0, 31, 0
1, 328896, Note_off_c, 0, 29, 0
1, 328896, Note_off_c, 0, 30, 0
1, 328896, Note_off_c, 0, 28, 0
1, 328896, Note_off_c, 0, 27, 0
1, 328896, Note_off_c, 0, 25, 0
1, 328896, Note_off_c, 0, 26, 0
1, 328896, Note_off_c, 0, 24, 0
1, 329472, Note_off_c, 0, 56, 0
1, 329472, Note_off_c, 0, 52, 0
1, 329472, Note_off_c, 0, 40, 0
1, 330240, Note_on_c, 0, 40, 89
1, 330240, Note_on_c, 0, 28, 89
1, 330240, Note_on_c, 0, 52, 50
1, 330240, Note_on_c, 0, 64, 50
1, 331584, Note_on_c, 0, 42, 89
1, 331584, Note_on_c, 0, 30, 89
1, 331680, Note_off_c, 0, 28, 0
1, 331680, Note_off_c, 0, 40, 0
1, 331680, Note_on_c, 0, 44, 89
1, 331680, Note_on_c, 0, 32, 89
1, 331776, Note_off_c, 0, 30, 0
1, 331776, Note_off_c, 0, 42, 0
1, 331776, Note_off_c, 0, 64, 0
1, 331776, Note_off_c, 0, 52, 0
1, 331776, Note_on_c, 0, 24, 44
1, 331776, Note_on_c, 0, 26, 44
1, 331776, Note_on_c, 0, 25, 44
1, 331776, Note_on_c, 0, 27, 44
1, 331776, Note_on_c, 0, 28, 44
1, 331776, Note_on_c, 0, 30, 44
1, 331776, Note_on_c, 0, 29, 44
1, 331776, Note_on_c, 0, 31, 44
1, 331776, Note_on_c, 0, 32, 44
1, 331776, Note_on_c, 0, 33, 89
1, 331776, Note_on_c, 0, 45, 89
1, 331776, Note_on_c, 0, 64, 50
1, 331776, Note_on_c, 0, 76, 50
1, 331872, Note_off_c, 0, 32, 0
1, 331872, Note_off_c, 0, 44, 0
1, 331968, Note_off_c, 0, 76, 0
1, 331968, Note_off_c, 0, 64, 0
1, 331968, Note_off_c, 0, 32, 0
1, 331968, Note_off_c, 0, 31, 0
1, 331968, Note_off_c, 0, 29, 0
1, 331968, Note_off_c, 0, 30, 0
1, 331968, Note_off_c, 0, 28, 0
1, 331968, Note_off_c, 0, 27, 0
1, 331968, Note_off_c, 0, 25, 0
1, 331968, Note_off_c, 0, 26, 0
1, 331968, Note_off_c, 0, 24, 0
1, 332160, Note_on_c, 0, 64, 50
1, 332160, Note_on_c, 0, 76, 50
1, 332352, Note_off_c, 0, 76, 0
1, 332352, Note_off_c, 0, 64, 0
1, 332544, Note_off_c, 0, 45, 0
1, 332544, Note_off_c, 0, 33, 0
1, 332544, Note_on_c, 0, 52, 89
1, 332544, Note_on_c, 0, 48, 89
1, 332544, Note_on_c, 0, 64, 50
1, 332544, Note_on_c, 0, 76, 50
1, 332736, Note_off_c, 0, 76, 0
1, 332736, Note_off_c, 0, 64, 0
1, 332736, Note_off_c, 0, 48, 0
1, 332736, Note_off_c, 0, 52, 0
1, 332928, Note_on_c, 0, 64, 50
1, 332928, Note_on_c, 0, 76, 50
1, 333120, Note_off_c, 0, 76, 0
1, 333120, Note_off_c, 0, 64, 0
1, 333312, Note_on_c, 0, 33, 44
1, 333312, Note_on_c, 0, 35, 44
1, 333312, Note_on_c, 0, 34, 44
1, 333312, Note_on_c, 0, 36, 44
1, 333312, Note_on_c, 0, 37, 44
1, 333312, Note_on_c, 0, 39, 44
1, 333312, Note_on_c, 0, 38, 44
1, 333312, Note_on_c, 0, 40, 44
1, 333312, Note_on_c, 0, 41, 44
1, 333312, Note_on_c, 0, 28, 89
1, 333312, Note_on_c, 0, 40, 89
1, 333312, Note_on_c, 0, 64, 50
1, 333312, Note_on_c, 0, 76, 50
1, 333504, Note_off_c, 0, 76, 0
1, 333504, Note_off_c, 0, 64, 0
1, 333504, Note_off_c, 0, 41, 0
1, 333504, Note_off_c, 0, 40, 0
1, 333504, Note_off_c, 0, 38, 0
1, 333504, Note_off_c, 0, 39, 0
1, 333504, Note_off_c, 0, 37, 0
1, 333504, Note_off_c, 0, 36, 0
1, 333504, Note_off_c, 0, 34, 0
1, 333504, Note_off_c, 0, 35, 0
1, 333504, Note_off_c, 0, 33, 0
1, 333696, Note_on_c, 0, 64, 50
1, 333696, Note_on_c, 0, 76, 50
1, 333888, Note_off_c, 0, 76, 0
1, 333888, Note_off_c, 0, 64, 0
1, 334080, Note_off_c, 0, 40, 0
1, 334080, Note_off_c, 0, 28, 0
1, 334080, Note_on_c, 0, 48, 89
1, 334080, Note_on_c, 0, 52, 89
1, 334080, Note_on_c, 0, 64, 50
1, 334080, Note_on_c, 0, 76, 50
1, 334272, Note_off_c, 0, 76, 0
1, 334272, Note_off_c, 0, 64, 0
1, 334272, Note_off_c, 0, 52, 0
1, 334272, Note_off_c, 0, 48, 0
1, 334464, Note_on_c, 0, 64, 50
1, 334464, Note_on_c, 0, 76, 50
1, 334656, Note_off_c, 0, 76, 0
1, 334656, Note_off_c, 0, 64, 0
1, 334848, Note_on_c, 0, 24, 44
1, 334848, Note_on_c, 0, 26, 44
1, 334848, Note_on_c, 0, 25, 44
1, 334848, Note_on_c, 0, 27, 44
1, 334848, Note_on_c, 0, 28, 44
1, 334848, Note_on_c, 0, 30, 44
1, 334848, Note_on_c, 0, 29, 44
1, 334848, Note_on_c, 0, 31, 44
1, 334848, Note_on_c, 0, 32, 44
1, 334848, Note_on_c, 0, 33, 89
1, 334848, Note_on_c, 0, 45, 89
1, 334848, Note_on_c, 0, 76, 50
1, 334848, Note_on_c, 0, 64, 50
1, 334848, Note_on_c, 0, 88, 15
1, 334944, Note_off_c, 0, 88, 0
1, 335040, Note_off_c, 0, 64, 0
1, 335040, Note_off_c, 0, 76, 0
1, 335040, Note_off_c, 0, 32, 0
1, 335040, Note_off_c, 0, 31, 0
1, 335040, Note_off_c, 0, 29, 0
1, 335040, Note_off_c, 0, 30, 0
1, 335040, Note_off_c, 0, 28, 0
1, 335040, Note_off_c, 0, 27, 0
1, 335040, Note_off_c, 0, 25, 0
1, 335040, Note_off_c, 0, 26, 0
1, 335040, Note_off_c, 0, 24, 0
1, 335040, Note_on_c, 0, 88, 15
1, 335136, Note_off_c, 0, 88, 0
1, 335232, Note_on_c, 0, 64, 50
1, 335232, Note_on_c, 0, 76, 50
1, 335232, Note_on_c, 0, 88, 15
1, 335328, Note_off_c, 0, 88, 0
1, 335424, Note_off_c, 0, 76, 0
1, 335424, Note_off_c, 0, 64, 0
1, 335424, Note_on_c, 0, 88, 15
1, 335520, Note_off_c, 0, 88, 0
1, 335616, Note_off_c, 0, 45, 0
1, 335616, Note_off_c, 0, 33, 0
1, 335616, Note_on_c, 0, 52, 89
1, 335616, Note_on_c, 0, 48, 89
1, 335616, Note_on_c, 0, 64, 50
1, 335616, Note_on_c, 0, 76, 50
1, 335616, Note_on_c, 0, 88, 25
1, 335712, Note_off_c, 0, 88, 0
1, 335808, Note_off_c, 0, 76, 0
1, 335808, Note_off_c, 0, 64, 0
1, 335808, Note_off_c, 0, 48, 0
1, 335808, Note_off_c, 0, 52, 0
1, 335808, Note_on_c, 0, 88, 25
1, 335904, Note_off_c, 0, 88, 0
1, 336000, Note_on_c, 0, 64, 50
1, 336000, Note_on_c, 0, 76, 50
1, 336000, Note_on_c, 0, 88, 25
1, 336096, Note_off_c, 0, 88, 0
1, 336192, Note_off_c, 0, 76, 0
1, 336192, Note_off_c, 0, 64, 0
1, 336192, Note_on_c, 0, 88, 25
1, 336288, Note_off_c, 0, 88, 0
1, 336384, Note_on_c, 0, 33, 44
1, 336384, Note_on_c, 0, 35, 44
1, 336384, Note_on_c, 0, 34, 44
1, 336384, Note_on_c, 0, 36, 44
1, 336384, Note_on_c, 0, 37, 44
1, 336384, Note_on_c, 0, 39, 44
1, 336384, Note_on_c, 0, 38, 44
1, 336384, Note_on_c, 0, 40, 44
1, 336384, Note_on_c, 0, 41, 44
1, 336384, Note_on_c, 0, 28, 89
1, 336384, Note_on_c, 0, 40, 89
1, 336384, Note_on_c, 0, 64, 50
1, 336384, Note_on_c, 0, 76, 50
1, 336384, Note_on_c, 0, 88, 34
1, 336480, Note_off_c, 0, 88, 0
1, 336576, Note_off_c, 0, 76, 0
1, 336576, Note_off_c, 0, 64, 0
1, 336576, Note_off_c, 0, 41, 0
1, 336576, Note_off_c, 0, 40, 0
1, 336576, Note_off_c, 0, 38, 0
1, 336576, Note_off_c, 0, 39, 0
1, 336576, Note_off_c, 0, 37, 0
1, 336576, Note_off_c, 0, 36, 0
1, 336576, Note_off_c, 0, 34, 0
1, 336576, Note_off_c, 0, 35, 0
1, 336576, Note_off_c, 0, 33, 0
1, 336576, Note_on_c, 0, 88, 34
1, 336672, Note_off_c, 0, 88, 0
1, 336768, Note_on_c, 0, 64, 50
1, 336768, Note_on_c, 0, 76, 50
1, 336768, Note_on_c, 0, 88, 34
1, 336864, Note_off_c, 0, 88, 0
1, 336960, Note_off_c, 0, 76, 0
1, 336960, Note_off_c, 0, 64, 0
1, 336960, Note_on_c, 0, 88, 34
1, 337056, Note_off_c, 0, 88, 0
1, 337152, Note_off_c, 0, 40, 0
1, 337152, Note_off_c, 0, 28, 0
1, 337152, Note_on_c, 0, 48, 89
1, 337152, Note_on_c, 0, 52, 89
1, 337152, Note_on_c, 0, 64, 50
1, 337152, Note_on_c, 0, 76, 50
1, 337152, Note_on_c, 0, 88, 44
1, 337248, Note_off_c, 0, 88, 0
1, 337344, Note_off_c, 0, 76, 0
1, 337344, Note_off_c, 0, 64, 0
1, 337344, Note_off_c, 0, 52, 0
1, 337344, Note_off_c, 0, 48, 0
1, 337344, Note_on_c, 0, 88, 44
1, 337440, Note_off_c, 0, 88, 0
1, 337536, Note_on_c, 0, 64, 50
1, 337536, Note_on_c, 0, 76, 50
1, 337536, Note_on_c, 0, 88, 44
1, 337632, Note_off_c, 0, 88, 0
1, 337728, Note_off_c, 0, 76, 0
1, 337728, Note_off_c, 0, 64, 0
1, 337728, Note_on_c, 0, 88, 44
1, 337824, Note_off_c, 0, 88, 0
1, 337920, Note_on_c, 0, 24, 44
1, 337920, Note_on_c, 0, 26, 44
1, 337920, Note_on_c, 0, 25, 44
1, 337920, Note_on_c, 0, 27, 44
1, 337920, Note_on_c, 0, 28, 44
1, 337920, Note_on_c, 0, 30, 44
1, 337920, Note_on_c, 0, 29, 44
1, 337920, Note_on_c, 0, 31, 44
1, 337920, Note_on_c, 0, 32, 44
1, 337920, Note_on_c, 0, 33, 89
1, 337920, Note_on_c, 0, 45, 89
1, 337920, Note_on_c, 0, 88, 50
1, 337920, Note_on_c, 0, 76, 50
1, 337920, Note_on_c, 0, 64, 50
1, 338016, Note_off_c, 0, 88, 0
1, 338112, Note_off_c, 0, 64, 0
1, 338112, Note_off_c, 0, 76, 0
1, 338112, Note_off_c, 0, 32, 0
1, 338112, Note_off_c, 0, 31, 0
1, 338112, Note_off_c, 0, 29, 0
1, 338112, Note_off_c, 0, 30, 0
1, 338112, Note_off_c, 0, 28, 0
1, 338112, Note_off_c, 0, 27, 0
1, 338112, Note_off_c, 0, 25, 0
1, 338112, Note_off_c, 0, 26, 0
1, 338112, Note_off_c, 0, 24, 0
1, 338112, Note_on_c, 0, 88, 30
1, 338208, Note_off_c, 0, 88, 0
1, 338304, Note_on_c, 0, 65, 50
1, 338304, Note_on_c, 0, 77, 50
1, 338304, Note_on_c, 0, 88, 30
1, 338400, Note_off_c, 0, 88, 0
1, 338496, Note_off_c, 0, 77, 0
1, 338496, Note_off_c, 0, 65, 0
1, 338496, Note_on_c, 0, 88, 30
1, 338592, Note_off_c, 0, 88, 0
1, 338688, Note_off_c, 0, 45, 0
1, 338688, Note_off_c, 0, 33, 0
1, 338688, Note_on_c, 0, 52, 89
1, 338688, Note_on_c, 0, 48, 89
1, 338688, Note_on_c, 0, 64, 50
1, 338688, Note_on_c, 0, 76, 50
1, 338880, Note_off_c, 0, 76, 0
1, 338880, Note_off_c, 0, 64, 0
1, 338880, Note_off_c, 0, 48, 0
1, 338880, Note_off_c, 0, 52, 0
1, 339072, Note_on_c, 0, 63, 50
1, 339072, Note_on_c, 0, 75, 50
1, 339264, Note_off_c, 0, 75, 0
1, 339264, Note_off_c, 0, 63, 0
1, 339456, Note_on_c, 0, 33, 44
1, 339456, Note_on_c, 0, 35, 44
1, 339456, Note_on_c, 0, 34, 44
1, 339456, Note_on_c, 0, 36, 44
1, 339456, Note_on_c, 0, 37, 44
1, 339456, Note_on_c, 0, 39, 44
1, 339456, Note_on_c, 0, 38, 44
1, 339456, Note_on_c, 0, 40, 44
1, 339456, Note_on_c, 0, 41, 44
1, 339456, Note_on_c, 0, 28, 89
1, 339456, Note_on_c, 0, 40, 89
1, 339456, Note_on_c, 0, 64, 50
1, 339456, Note_on_c, 0, 76, 50
1, 339648, Note_off_c, 0, 76, 0
1, 339648, Note_off_c, 0, 64, 0
1, 339648, Note_off_c, 0, 41, 0
1, 339648, Note_off_c, 0, 40, 0
1, 339648, Note_off_c, 0, 38, 0
1, 339648, Note_off_c, 0, 39, 0
1, 339648, Note_off_c, 0, 37, 0
1, 339648, Note_off_c, 0, 36, 0
1, 339648, Note_off_c, 0, 34, 0
1, 339648, Note_off_c, 0, 35, 0
1, 339648, Note_off_c, 0, 33, 0
1, 340224, Note_off_c, 0, 40, 0
1, 340224, Note_off_c, 0, 28, 0
1, 340224, Note_on_c, 0, 48, 89
1, 340224, Note_on_c, 0, 52, 89
1, 340224, Note_on_c, 0, 69, 50
1, 340224, Note_on_c, 0, 81, 50
1, 340416, Note_off_c, 0, 81, 0
1, 340416, Note_off_c, 0, 69, 0
1, 340416, Note_off_c, 0, 52, 0
1, 340416, Note_off_c, 0, 48, 0
1, 340608, Note_on_c, 0, 72, 50
1, 340608, Note_on_c, 0, 84, 50
1, 340800, Note_off_c, 0, 84, 0
1, 340800, Note_off_c, 0, 72, 0
1, 340992, Note_on_c, 0, 24, 44
1, 340992, Note_on_c, 0, 26, 44
1, 340992, Note_on_c, 0, 25, 44
1, 340992, Note_on_c, 0, 27, 44
1, 340992, Note_on_c, 0, 28, 44
1, 340992, Note_on_c, 0, 30, 44
1, 340992, Note_on_c, 0, 29, 44
1, 340992, Note_on_c, 0, 31, 44
1, 340992, Note_on_c, 0, 32, 44
1, 340992, Note_on_c, 0, 33, 89
1, 340992, Note_on_c, 0, 45, 89
1, 340992, Note_on_c, 0, 76, 50
1, 340992, Note_on_c, 0, 88, 50
1, 341184, Note_off_c, 0, 88, 0
1, 341184, Note_off_c, 0, 76, 0
1, 341184, Note_off_c, 0, 32, 0
1, 341184, Note_off_c, 0, 31, 0
1, 341184, Note_off_c, 0, 29, 0
1, 341184, Note_off_c, 0, 30, 0
1, 341184, Note_off_c, 0, 28, 0
1, 341184, Note_off_c, 0, 27, 0
1, 341184, Note_off_c, 0, 25, 0
1, 341184, Note_off_c, 0, 26, 0
1, 341184, Note_off_c, 0, 24, 0
1, 341760, Note_off_c, 0, 45, 0
1, 341760, Note_off_c, 0, 33, 0
1, 341760, Note_on_c, 0, 52, 89
1, 341760, Note_on_c, 0, 48, 89
1, 341760, Note_on_c, 0, 81, 50
1, 341760, Note_on_c, 0, 93, 50
1, 341952, Note_off_c, 0, 93, 0
1, 341952, Note_off_c, 0, 81, 0
1, 341952, Note_off_c, 0, 48, 0
1, 341952, Note_off_c, 0, 52, 0
1, 342528, Note_on_c, 0, 33, 44
1, 342528, Note_on_c, 0, 35, 44
1, 342528, Note_on_c, 0, 34, 44
1, 342528, Note_on_c, 0, 36, 44
1, 342528, Note_on_c, 0, 37, 44
1, 342528, Note_on_c, 0, 39, 44
1, 342528, Note_on_c, 0, 38, 44
1, 342528, Note_on_c, 0, 40, 44
1, 342528, Note_on_c, 0, 41, 44
1, 342528, Note_on_c, 0, 28, 89
1, 342528, Note_on_c, 0, 40, 89
1, 342528, Note_on_c, 0, 84, 50
1, 342720, Note_off_c, 0, 41, 0
1, 342720, Note_off_c, 0, 40, 0
1, 342720, Note_off_c, 0, 38, 0
1, 342720, Note_off_c, 0, 39, 0
1, 342720, Note_off_c, 0, 37, 0
1, 342720, Note_off_c, 0, 36, 0
1, 342720, Note_off_c, 0, 34, 0
1, 342720, Note_off_c, 0, 35, 0
1, 342720, Note_off_c, 0, 33, 0
1, 343296, Note_off_c, 0, 84, 0
1, 343296, Note_off_c, 0, 40, 0
1, 343296, Note_off_c, 0, 28, 0
1, 343296, Note_on_c, 0, 48, 89
1, 343296, Note_on_c, 0, 52, 89
1, 343488, Note_off_c, 0, 52, 0
1, 343488, Note_off_c, 0, 48, 0
1, 344064, Note_on_c, 0, 86, 50
1, 344064, Note_on_c, 0, 24, 44
1, 344064, Note_on_c, 0, 26, 44
1, 344064, Note_on_c, 0, 25, 44
1, 344064, Note_on_c, 0, 27, 44
1, 344064, Note_on_c, 0, 28, 44
1, 344064, Note_on_c, 0, 30, 44
1, 344064, Note_on_c, 0, 29, 44
1, 344064, Note_on_c, 0, 31, 44
1, 344064, Note_on_c, 0, 32, 44
1, 344064, Note_on_c, 0, 38, 89
1, 344064, Note_on_c, 0, 50, 89
1, 344256, Note_off_c, 0, 32, 0
1, 344256, Note_off_c, 0, 31, 0
1, 344256, Note_off_c, 0, 29, 0
1, 344256, Note_off_c, 0, 30, 0
1, 344256, Note_off_c, 0, 28, 0
1, 344256, Note_off_c, 0, 27, 0
1, 344256, Note_off_c, 0, 25, 0
1, 344256, Note_off_c, 0, 26, 0
1, 344256, Note_off_c, 0, 24, 0
1, 344256, Note_off_c, 0, 86, 0
1, 344448, Note_on_c, 0, 84, 50
1, 344640, Note_off_c, 0, 84, 0
1, 344832, Note_off_c, 0, 50, 0
1, 344832, Note_off_c, 0, 38, 0
1, 344832, Note_on_c, 0, 83, 50
1, 344832, Note_on_c, 0, 95, 50
1, 344832, Note_on_c, 0, 53, 89
1, 344832, Note_on_c, 0, 50, 89
1, 345024, Note_off_c, 0, 50, 0
1, 345024, Note_off_c, 0, 53, 0
1, 345024, Note_off_c, 0, 95, 0
1, 345024, Note_off_c, 0, 83, 0
1, 345216, Note_on_c, 0, 86, 50
1, 345408, Note_off_c, 0, 86, 0
1, 345600, Note_on_c, 0, 84, 50
1, 345600, Note_on_c, 0, 33, 44
1, 345600, Note_on_c, 0, 35, 44
1, 345600, Note_on_c, 0, 34, 44
1, 345600, Note_on_c, 0, 36, 44
1, 345600, Note_on_c, 0, 37, 44
1, 345600, Note_on_c, 0, 39, 44
1, 345600, Note_on_c, 0, 38, 44
1, 345600, Note_on_c, 0, 40, 44
1, 345600, Note_on_c, 0, 41, 44
1, 345600, Note_on_c, 0, 36, 89
1, 345600, Note_on_c, 0, 48, 89
1, 345792, Note_off_c, 0, 41, 0
1, 345792, Note_off_c, 0, 40, 0
1, 345792, Note_off_c, 0, 38, 0
1, 345792, Note_off_c, 0, 39, 0
1, 345792, Note_off_c, 0, 37, 0
1, 345792, Note_off_c, 0, 36, 0
1, 345792, Note_off_c, 0, 34, 0
1, 345792, Note_off_c, 0, 35, 0
1, 345792, Note_off_c, 0, 33, 0
1, 345792, Note_off_c, 0, 84, 0
1, 345984, Note_on_c, 0, 83, 50
1, 345984, Note_on_c, 0, 95, 50
1, 346176, Note_off_c, 0, 95, 0
1, 346176, Note_off_c, 0, 83, 0
1, 346368, Note_off_c, 0, 48, 0
1, 346368, Note_off_c, 0, 36, 0
1, 346368, Note_on_c, 0, 81, 50
1, 346368, Note_on_c, 0, 93, 50
1, 346368, Note_on_c, 0, 48, 89
1, 346368, Note_on_c, 0, 52, 89
1, 346560, Note_off_c, 0, 52, 0
1, 346560, Note_off_c, 0, 48, 0
1, 346560, Note_off_c, 0, 93, 0
1, 346560, Note_off_c, 0, 81, 0
1, 346752, Note_on_c, 0, 84, 50
1, 346944, Note_off_c, 0, 84, 0
1, 347136, Note_on_c, 0, 83, 50
1, 347136, Note_on_c, 0, 95, 50
1, 347136, Note_on_c, 0, 24, 44
1, 347136, Note_on_c, 0, 26, 44
1, 347136, Note_on_c, 0, 25, 44
1, 347136, Note_on_c, 0, 27, 44
1, 347136, Note_on_c, 0, 28, 44
1, 347136, Note_on_c, 0, 30, 44
1, 347136, Note_on_c, 0, 29, 44
1, 347136, Note_on_c, 0, 31, 44
1, 347136, Note_on_c, 0, 32, 44
1, 347136, Note_on_c, 0, 35, 89
1, 347136, Note_on_c, 0, 47, 89
1, 347328, Note_off_c, 0, 32, 0
1, 347328, Note_off_c, 0, 31, 0
1, 347328, Note_off_c, 0, 29, 0
1, 347328, Note_off_c, 0, 30, 0
1, 347328, Note_off_c, 0, 28, 0
1, 347328, Note_off_c, 0, 27, 0
1, 347328, Note_off_c, 0, 25, 0
1, 347328, Note_off_c, 0, 26, 0
1, 347328, Note_off_c, 0, 24, 0
1, 347328, Note_off_c, 0, 95, 0
1, 347328, Note_off_c, 0, 83, 0
1, 347520, Note_on_c, 0, 81, 50
1, 347520, Note_on_c, 0, 93, 50
1, 347712, Note_off_c, 0, 93, 0
1, 347712, Note_off_c, 0, 81, 0
1, 347904, Note_off_c, 0, 47, 0
1, 347904, Note_off_c, 0, 35, 0
1, 347904, Note_on_c, 0, 80, 50
1, 347904, Note_on_c, 0, 92, 50
1, 347904, Note_on_c, 0, 50, 89
1, 347904, Note_on_c, 0, 47, 89
1, 348096, Note_off_c, 0, 47, 0
1, 348096, Note_off_c, 0, 50, 0
1, 348096, Note_off_c, 0, 92, 0
1, 348096, Note_off_c, 0, 80, 0
1, 348288, Note_on_c, 0, 83, 50
1, 348288, Note_on_c, 0, 95, 50
1, 348480, Note_off_c, 0, 95, 0
1, 348480, Note_off_c, 0, 83, 0
1, 348672, Note_on_c, 0, 81, 50
1, 348672, Note_on_c, 0, 93, 50
1, 348672, Note_on_c, 0, 33, 44
1, 348672, Note_on_c, 0, 35, 44
1, 348672, Note_on_c, 0, 34, 44
1, 348672, Note_on_c, 0, 36, 44
1, 348672, Note_on_c, 0, 37, 44
1, 348672, Note_on_c, 0, 39, 44
1, 348672, Note_on_c, 0, 38, 44
1, 348672, Note_on_c, 0, 40, 44
1, 348672, Note_on_c, 0, 41, 44
1, 348672, Note_on_c, 0, 33, 89
1, 348672, Note_on_c, 0, 45, 89
1, 348864, Note_off_c, 0, 41, 0
1, 348864, Note_off_c, 0, 40, 0
1, 348864, Note_off_c, 0, 38, 0
1, 348864, Note_off_c, 0, 39, 0
1, 348864, Note_off_c, 0, 37, 0
1, 348864, Note_off_c, 0, 36, 0
1, 348864, Note_off_c, 0, 34, 0
1, 348864, Note_off_c, 0, 35, 0
1, 348864, Note_off_c, 0, 33, 0
1, 348864, Note_off_c, 0, 93, 0
1, 348864, Note_off_c, 0, 81, 0
1, 349056, Note_on_c, 0, 76, 50
1, 349056, Note_on_c, 0, 88, 50
1, 349248, Note_off_c, 0, 88, 0
1, 349248, Note_off_c, 0, 76, 0
1, 349440, Note_off_c, 0, 45, 0
1, 349440, Note_off_c, 0, 33, 0
1, 349440, Note_on_c, 0, 72, 50
1, 349440, Note_on_c, 0, 84, 50
1, 349440, Note_on_c, 0, 45, 89
1, 349440, Note_on_c, 0, 48, 89
1, 349632, Note_off_c, 0, 48, 0
1, 349632, Note_off_c, 0, 45, 0
1, 349632, Note_off_c, 0, 84, 0
1, 349632, Note_off_c, 0, 72, 0
1, 349824, Note_on_c, 0, 69, 50
1, 349824, Note_on_c, 0, 81, 50
1, 350016, Note_off_c, 0, 81, 0
1, 350016, Note_off_c, 0, 69, 0
1, 350208, Note_on_c, 0, 77, 50
1, 350208, Note_on_c, 0, 89, 50
1, 350208, Note_on_c, 0, 24, 44
1, 350208, Note_on_c, 0, 26, 44
1, 350208, Note_on_c, 0, 25, 44
1, 350208, Note_on_c, 0, 27, 44
1, 350208, Note_on_c, 0, 28, 44
1, 350208, Note_on_c, 0, 30, 44
1, 350208, Note_on_c, 0, 29, 44
1, 350208, Note_on_c, 0, 31, 44
1, 350208, Note_on_c, 0, 32, 44
1, 350208, Note_on_c, 0, 28, 129
1, 350208, Note_on_c, 0, 40, 129
1, 350400, Note_off_c, 0, 32, 0
1, 350400, Note_off_c, 0, 31, 0
1, 350400, Note_off_c, 0, 29, 0
1, 350400, Note_off_c, 0, 30, 0
1, 350400, Note_off_c, 0, 28, 0
1, 350400, Note_off_c, 0, 27, 0
1, 350400, Note_off_c, 0, 25, 0
1, 350400, Note_off_c, 0, 26, 0
1, 350400, Note_off_c, 0, 24, 0
1, 350400, Note_off_c, 0, 89, 0
1, 350400, Note_off_c, 0, 77, 0
1, 350592, Note_on_c, 0, 76, 50
1, 350592, Note_on_c, 0, 88, 50
1, 350784, Note_off_c, 0, 88, 0
1, 350784, Note_off_c, 0, 76, 0
1, 350976, Note_off_c, 0, 40, 0
1, 350976, Note_off_c, 0, 28, 0
1, 350976, Note_on_c, 0, 74, 50
1, 350976, Note_on_c, 0, 86, 50
1, 350976, Note_on_c, 0, 30, 129
1, 350976, Note_on_c, 0, 42, 129
1, 351168, Note_off_c, 0, 86, 0
1, 351168, Note_off_c, 0, 74, 0
1, 351360, Note_on_c, 0, 72, 50
1, 351360, Note_on_c, 0, 84, 50
1, 351552, Note_off_c, 0, 84, 0
1, 351552, Note_off_c, 0, 72, 0
1, 351744, Note_off_c, 0, 42, 0
1, 351744, Note_off_c, 0, 30, 0
1, 351744, Note_on_c, 0, 71, 50
1, 351744, Note_on_c, 0, 83, 50
1, 351744, Note_on_c, 0, 33, 44
1, 351744, Note_on_c, 0, 35, 44
1, 351744, Note_on_c, 0, 34, 44
1, 351744, Note_on_c, 0, 36, 44
1, 351744, Note_on_c, 0, 37, 44
1, 351744, Note_on_c, 0, 39, 44
1, 351744, Note_on_c, 0, 38, 44
1, 351744, Note_on_c, 0, 40, 44
1, 351744, Note_on_c, 0, 41, 44
1, 351744, Note_on_c, 0, 32, 129
1, 351744, Note_on_c, 0, 44, 129
1, 351936, Note_off_c, 0, 41, 0
1, 351936, Note_off_c, 0, 40, 0
1, 351936, Note_off_c, 0, 38, 0
1, 351936, Note_off_c, 0, 39, 0
1, 351936, Note_off_c, 0, 37, 0
1, 351936, Note_off_c, 0, 36, 0
1, 351936, Note_off_c, 0, 34, 0
1, 351936, Note_off_c, 0, 35, 0
1, 351936, Note_off_c, 0, 33, 0
1, 351936, Note_off_c, 0, 83, 0
1, 351936, Note_off_c, 0, 71, 0
1, 352128, Note_on_c, 0, 69, 50
1, 352128, Note_on_c, 0, 81, 50
1, 352320, Note_off_c, 0, 81, 0
1, 352320, Note_off_c, 0, 69, 0
1, 352512, Note_off_c, 0, 44, 0
1, 352512, Note_off_c, 0, 32, 0
1, 352512, Note_on_c, 0, 68, 50
1, 352512, Note_on_c, 0, 80, 50
1, 352512, Note_on_c, 0, 28, 129
1, 352512, Note_on_c, 0, 40, 129
1, 352704, Note_off_c, 0, 80, 0
1, 352704, Note_off_c, 0, 68, 0
1, 352896, Note_on_c, 0, 71, 50
1, 352896, Note_on_c, 0, 83, 50
1, 353088, Note_off_c, 0, 83, 0
1, 353088, Note_off_c, 0, 71, 0
1, 353280, Note_off_c, 0, 40, 0
1, 353280, Note_off_c, 0, 28, 0
1, 353280, Note_on_c, 0, 69, 50
1, 353280, Note_on_c, 0, 81, 50
1, 353280, Note_on_c, 0, 33, 129
1, 353280, Note_on_c, 0, 45, 129
1, 353280, Note_on_c, 0, 24, 44
1, 353280, Note_on_c, 0, 26, 44
1, 353280, Note_on_c, 0, 25, 44
1, 353280, Note_on_c, 0, 27, 44
1, 353280, Note_on_c, 0, 28, 44
1, 353280, Note_on_c, 0, 30, 44
1, 353280, Note_on_c, 0, 29, 44
1, 353280, Note_on_c, 0, 31, 44
1, 353280, Note_on_c, 0, 32, 44
1, 353472, Note_off_c, 0, 32, 0
1, 353472, Note_off_c, 0, 31, 0
1, 353472, Note_off_c, 0, 29, 0
1, 353472, Note_off_c, 0, 30, 0
1, 353472, Note_off_c, 0, 28, 0
1, 353472, Note_off_c, 0, 27, 0
1, 353472, Note_off_c, 0, 25, 0
1, 353472, Note_off_c, 0, 26, 0
1, 353472, Note_off_c, 0, 24, 0
1, 353472, Note_off_c, 0, 81, 0
1, 353472, Note_off_c, 0, 69, 0
1, 354048, Note_off_c, 0, 45, 0
1, 354048, Note_off_c, 0, 33, 0
1, 354816, Note_on_c, 0, 33, 89
1, 354816, Note_on_c, 0, 45, 89
1, 356160, Note_on_c, 0, 47, 89
1, 356160, Note_on_c, 0, 35, 89
1, 356256, Note_off_c, 0, 45, 0
1, 356256, Note_off_c, 0, 33, 0
1, 356256, Note_on_c, 0, 49, 89
1, 356256, Note_on_c, 0, 37, 89
1, 356352, Note_off_c, 0, 35, 0
1, 356352, Note_off_c, 0, 47, 0
1, 356352, Note_on_c, 0, 50, 89
1, 356352, Note_on_c, 0, 38, 89
1, 356352, Note_on_c, 0, 74, 50
1, 356352, Note_on_c, 0, 77, 50
1, 356352, Note_on_c, 0, 86, 50
1, 356352, Note_on_c, 0, 65, 50
1, 356448, Note_off_c, 0, 37, 0
1, 356448, Note_off_c, 0, 49, 0
1, 357120, Note_off_c, 0, 38, 0
1, 357120, Note_off_c, 0, 50, 0
1, 357120, Note_on_c, 0, 50, 89
1, 357120, Note_on_c, 0, 53, 89
1, 357120, Note_on_c, 0, 57, 89
1, 357312, Note_off_c, 0, 57, 0
1, 357312, Note_off_c, 0, 53, 0
1, 357312, Note_off_c, 0, 50, 0
1, 357312, Note_off_c, 0, 65, 0
1, 357312, Note_off_c, 0, 86, 0
1, 357312, Note_off_c, 0, 77, 0
1, 357312, Note_off_c, 0, 74, 0
1, 357504, Note_on_c, 0, 73, 50
1, 357504, Note_on_c, 0, 64, 50
1, 357504, Note_on_c, 0, 85, 50
1, 357504, Note_on_c, 0, 77, 50
1, 357696, Note_off_c, 0, 77, 0
1, 357696, Note_off_c, 0, 85, 0
1, 357696, Note_off_c, 0, 64, 0
1, 357696, Note_off_c, 0, 73, 0
1, 357888, Note_on_c, 0, 74, 50
1, 357888, Note_on_c, 0, 65, 50
1, 357888, Note_on_c, 0, 86, 50
1, 357888, Note_on_c, 0, 77, 50
1, 358080, Note_off_c, 0, 77, 0
1, 358080, Note_off_c, 0, 86, 0
1, 358080, Note_off_c, 0, 65, 0
1, 358080, Note_off_c, 0, 74, 0
1, 358656, Note_on_c, 0, 50, 89
1, 358656, Note_on_c, 0, 53, 89
1, 358656, Note_on_c, 0, 57, 89
1, 358656, Note_on_c, 0, 76, 50
1, 358656, Note_on_c, 0, 67, 50
1, 358656, Note_on_c, 0, 88, 50
1, 358656, Note_on_c, 0, 79, 50
1, 358848, Note_off_c, 0, 57, 0
1, 358848, Note_off_c, 0, 53, 0
1, 358848, Note_off_c, 0, 50, 0
1, 359040, Note_off_c, 0, 79, 0
1, 359040, Note_off_c, 0, 88, 0
1, 359040, Note_off_c, 0, 67, 0
1, 359040, Note_off_c, 0, 76, 0
1, 359424, Note_on_c, 0, 77, 50
1, 359424, Note_on_c, 0, 69, 50
1, 359424, Note_on_c, 0, 89, 50
1, 359424, Note_on_c, 0, 81, 50
1, 359808, Note_off_c, 0, 81, 0
1, 359808, Note_off_c, 0, 89, 0
1, 359808, Note_off_c, 0, 69, 0
1, 359808, Note_off_c, 0, 77, 0
1, 360192, Note_on_c, 0, 50, 89
1, 360192, Note_on_c, 0, 53, 89
1, 360192, Note_on_c, 0, 57, 89
1, 360192, Note_on_c, 0, 76, 50
1, 360192, Note_on_c, 0, 67, 50
1, 360192, Note_on_c, 0, 88, 50
1, 360192, Note_on_c, 0, 79, 50
1, 360384, Note_off_c, 0, 57, 0
1, 360384, Note_off_c, 0, 53, 0
1, 360384, Note_off_c, 0, 50, 0
1, 360576, Note_off_c, 0, 79, 0
1, 360576, Note_off_c, 0, 88, 0
1, 360576, Note_off_c, 0, 67, 0
1, 360576, Note_off_c, 0, 76, 0
1, 360960, Note_on_c, 0, 38, 89
1, 360960, Note_on_c, 0, 50, 89
1, 360960, Note_on_c, 0, 74, 50
1, 360960, Note_on_c, 0, 65, 50
1, 360960, Note_on_c, 0, 86, 50
1, 360960, Note_on_c, 0, 77, 50
1, 361344, Note_off_c, 0, 77, 0
1, 361344, Note_off_c, 0, 86, 0
1, 361344, Note_off_c, 0, 65, 0
1, 361344, Note_off_c, 0, 74, 0
1, 361728, Note_on_c, 0, 50, 89
1, 361728, Note_on_c, 0, 53, 89
1, 361728, Note_on_c, 0, 57, 89
1, 361728, Note_on_c, 0, 77, 50
1, 361728, Note_on_c, 0, 69, 50
1, 361728, Note_on_c, 0, 89, 50
1, 361728, Note_on_c, 0, 81, 50
1, 361920, Note_off_c, 0, 57, 0
1, 361920, Note_off_c, 0, 53, 0
1, 361920, Note_off_c, 0, 50, 0
1, 362112, Note_off_c, 0, 81, 0
1, 362112, Note_off_c, 0, 89, 0
1, 362112, Note_off_c, 0, 69, 0
1, 362112, Note_off_c, 0, 77, 0
1, 362304, Note_on_c, 0, 48, 89
1, 362304, Note_on_c, 0, 36, 89
1, 362400, Note_off_c, 0, 50, 0
1, 362400, Note_off_c, 0, 38, 0
1, 362400, Note_on_c, 0, 47, 89
1, 362400, Note_on_c, 0, 35, 89
1, 362496, Note_off_c, 0, 36, 0
1, 362496, Note_off_c, 0, 48, 0
1, 362496, Note_on_c, 0, 45, 89
1, 362496, Note_on_c, 0, 33, 89
1, 362496, Note_on_c, 0, 76, 50
1, 362496, Note_on_c, 0, 72, 50
1, 362496, Note_on_c, 0, 88, 50
1, 362496, Note_on_c, 0, 84, 50
1, 362592, Note_off_c, 0, 35, 0
1, 362592, Note_off_c, 0, 47, 0
1, 363264, Note_off_c, 0, 33, 0
1, 363264, Note_off_c, 0, 45, 0
1, 363264, Note_on_c, 0, 48, 89
1, 363264, Note_on_c, 0, 52, 89
1, 363264, Note_on_c, 0, 57, 89
1, 363456, Note_off_c, 0, 57, 0
1, 363456, Note_off_c, 0, 52, 0
1, 363456, Note_off_c, 0, 48, 0
1, 363456, Note_off_c, 0, 84, 0
1, 363456, Note_off_c, 0, 88, 0
1, 363456, Note_off_c, 0, 72, 0
1, 363456, Note_off_c, 0, 76, 0
1, 363648, Note_on_c, 0, 74, 50
1, 363648, Note_on_c, 0, 71, 50
1, 363648, Note_on_c, 0, 86, 50
1, 363648, Note_on_c, 0, 83, 50
1, 363840, Note_off_c, 0, 83, 0
1, 363840, Note_off_c, 0, 86, 0
1, 363840, Note_off_c, 0, 71, 0
1, 363840, Note_off_c, 0, 74, 0
1, 364032, Note_on_c, 0, 72, 50
1, 364032, Note_on_c, 0, 69, 50
1, 364032, Note_on_c, 0, 84, 50
1, 364032, Note_on_c, 0, 81, 50
1, 364416, Note_off_c, 0, 81, 0
1, 364416, Note_off_c, 0, 84, 0
1, 364416, Note_off_c, 0, 69, 0
1, 364416, Note_off_c, 0, 72, 0
1, 364800, Note_on_c, 0, 48, 89
1, 364800, Note_on_c, 0, 52, 89
1, 364800, Note_on_c, 0, 57, 89
1, 364800, Note_on_c, 0, 74, 50
1, 364800, Note_on_c, 0, 71, 50
1, 364800, Note_on_c, 0, 86, 50
1, 364800, Note_on_c, 0, 83, 50
1, 364992, Note_off_c, 0, 57, 0
1, 364992, Note_off_c, 0, 52, 0
1, 364992, Note_off_c, 0, 48, 0
1, 365184, Note_off_c, 0, 83, 0
1, 365184, Note_off_c, 0, 86, 0
1, 365184, Note_off_c, 0, 71, 0
1, 365184, Note_off_c, 0, 74, 0
1, 365568, Note_on_c, 0, 76, 50
1, 365568, Note_on_c, 0, 72, 50
1, 365568, Note_on_c, 0, 88, 50
1, 365568, Note_on_c, 0, 84, 50
1, 366336, Note_on_c, 0, 48, 89
1, 366336, Note_on_c, 0, 52, 89
1, 366336, Note_on_c, 0, 57, 89
1, 366528, Note_off_c, 0, 57, 0
1, 366528, Note_off_c, 0, 52, 0
1, 366528, Note_off_c, 0, 48, 0
1, 367104, Note_on_c, 0, 33, 89
1, 367104, Note_on_c, 0, 45, 89
1, 367488, Note_off_c, 0, 84, 0
1, 367488, Note_off_c, 0, 88, 0
1, 367488, Note_off_c, 0, 72, 0
1, 367488, Note_off_c, 0, 76, 0
1, 367872, Note_on_c, 0, 48, 89
1, 367872, Note_on_c, 0, 52, 89
1, 367872, Note_on_c, 0, 57, 89
1, 367872, Note_on_c, 0, 72, 50
1, 367872, Note_on_c, 0, 69, 50
1, 367872, Note_on_c, 0, 84, 50
1, 367872, Note_on_c, 0, 81, 50
1, 368064, Note_off_c, 0, 57, 0
1, 368064, Note_off_c, 0, 52, 0
1, 368064, Note_off_c, 0, 48, 0
1, 368256, Note_off_c, 0, 81, 0
1, 368256, Note_off_c, 0, 84, 0
1, 368256, Note_off_c, 0, 69, 0
1, 368256, Note_off_c, 0, 72, 0
1, 368352, Note_on_c, 0, 47, 89
1, 368352, Note_on_c, 0, 35, 89
1, 368448, Note_off_c, 0, 45, 0
1, 368448, Note_off_c, 0, 33, 0
1, 368448, Note_on_c, 0, 48, 89
1, 368448, Note_on_c, 0, 36, 89
1, 368544, Note_off_c, 0, 35, 0
1, 368544, Note_off_c, 0, 47, 0
1, 368544, Note_on_c, 0, 50, 89
1, 368544, Note_on_c, 0, 38, 89
1, 368640, Note_off_c, 0, 36, 0
1, 368640, Note_off_c, 0, 48, 0
1, 368640, Note_on_c, 0, 52, 89
1, 368640, Note_on_c, 0, 40, 89
1, 368640, Note_on_c, 0, 71, 50
1, 368640, Note_on_c, 0, 68, 50
1, 368640, Note_on_c, 0, 83, 50
1, 368640, Note_on_c, 0, 80, 50
1, 368736, Note_off_c, 0, 38, 0
1, 368736, Note_off_c, 0, 50, 0
1, 369408, Note_off_c, 0, 40, 0
1, 369408, Note_off_c, 0, 52, 0
1, 369408, Note_on_c, 0, 52, 89
1, 369408, Note_on_c, 0, 56, 89
1, 369408, Note_on_c, 0, 59, 89
1, 369600, Note_off_c, 0, 59, 0
1, 369600, Note_off_c, 0, 56, 0
1, 369600, Note_off_c, 0, 52, 0
1, 369600, Note_off_c, 0, 80, 0
1, 369600, Note_off_c, 0, 83, 0
1, 369600, Note_off_c, 0, 68, 0
1, 369600, Note_off_c, 0, 71, 0
1, 369792, Note_on_c, 0, 70, 50
1, 369792, Note_on_c, 0, 67, 50
1, 369792, Note_on_c, 0, 82, 50
1, 369792, Note_on_c, 0, 79, 50
1, 369984, Note_off_c, 0, 79, 0
1, 369984, Note_off_c, 0, 82, 0
1, 369984, Note_off_c, 0, 67, 0
1, 369984, Note_off_c, 0, 70, 0
1, 370176, Note_on_c, 0, 71, 50
1, 370176, Note_on_c, 0, 68, 50
1, 370176, Note_on_c, 0, 83, 50
1, 370176, Note_on_c, 0, 80, 50
1, 370752, Note_off_c, 0, 80, 0
1, 370752, Note_off_c, 0, 83, 0
1, 370752, Note_off_c, 0, 68, 0
1, 370752, Note_off_c, 0, 71, 0
1, 370944, Note_on_c, 0, 52, 89
1, 370944, Note_on_c, 0, 56, 89
1, 370944, Note_on_c, 0, 59, 89
1, 370944, Note_on_c, 0, 72, 50
1, 370944, Note_on_c, 0, 69, 50
1, 370944, Note_on_c, 0, 84, 50
1, 370944, Note_on_c, 0, 81, 50
1, 371136, Note_off_c, 0, 59, 0
1, 371136, Note_off_c, 0, 56, 0
1, 371136, Note_off_c, 0, 52, 0
1, 371328, Note_off_c, 0, 81, 0
1, 371328, Note_off_c, 0, 84, 0
1, 371328, Note_off_c, 0, 69, 0
1, 371328, Note_off_c, 0, 72, 0
1, 371712, Note_on_c, 0, 74, 50
1, 371712, Note_on_c, 0, 71, 50
1, 371712, Note_on_c, 0, 86, 50
1, 371712, Note_on_c, 0, 83, 50
1, 372096, Note_off_c, 0, 83, 0
1, 372096, Note_off_c, 0, 86, 0
1, 372096, Note_off_c, 0, 71, 0
1, 372096, Note_off_c, 0, 74, 0
1, 372480, Note_on_c, 0, 52, 89
1, 372480, Note_on_c, 0, 56, 89
1, 372480, Note_on_c, 0, 59, 89
1, 372480, Note_on_c, 0, 72, 50
1, 372480, Note_on_c, 0, 69, 50
1, 372480, Note_on_c, 0, 84, 50
1, 372480, Note_on_c, 0, 81, 50
1, 372672, Note_off_c, 0, 59, 0
1, 372672, Note_off_c, 0, 56, 0
1, 372672, Note_off_c, 0, 52, 0
1, 372864, Note_off_c, 0, 81, 0
1, 372864, Note_off_c, 0, 84, 0
1, 372864, Note_off_c, 0, 69, 0
1, 372864, Note_off_c, 0, 72, 0
1, 373248, Note_on_c, 0, 40, 89
1, 373248, Note_on_c, 0, 52, 89
1, 373248, Note_on_c, 0, 71, 50
1, 373248, Note_on_c, 0, 68, 50
1, 373248, Note_on_c, 0, 83, 50
1, 373248, Note_on_c, 0, 80, 50
1, 373632, Note_off_c, 0, 80, 0
1, 373632, Note_off_c, 0, 83, 0
1, 373632, Note_off_c, 0, 68, 0
1, 373632, Note_off_c, 0, 71, 0
1, 374016, Note_on_c, 0, 52, 89
1, 374016, Note_on_c, 0, 56, 89
1, 374016, Note_on_c, 0, 59, 89
1, 374016, Note_on_c, 0, 74, 50
1, 374016, Note_on_c, 0, 71, 50
1, 374016, Note_on_c, 0, 86, 50
1, 374016, Note_on_c, 0, 83, 50
1, 374208, Note_off_c, 0, 59, 0
1, 374208, Note_off_c, 0, 56, 0
1, 374208, Note_off_c, 0, 52, 0
1, 374400, Note_off_c, 0, 83, 0
1, 374400, Note_off_c, 0, 86, 0
1, 374400, Note_off_c, 0, 71, 0
1, 374400, Note_off_c, 0, 74, 0
1, 374496, Note_on_c, 0, 50, 89
1, 374496, Note_on_c, 0, 38, 89
1, 374592, Note_off_c, 0, 52, 0
1, 374592, Note_off_c, 0, 40, 0
1, 374592, Note_on_c, 0, 48, 89
1, 374592, Note_on_c, 0, 36, 89
1, 374688, Note_off_c, 0, 38, 0
1, 374688, Note_off_c, 0, 50, 0
1, 374688, Note_on_c, 0, 47, 89
1, 374688, Note_on_c, 0, 35, 89
1, 374784, Note_off_c, 0, 36, 0
1, 374784, Note_off_c, 0, 48, 0
1, 374784, Note_on_c, 0, 45, 125
1, 374784, Note_on_c, 0, 33, 125
1, 374784, Note_on_c, 0, 72, 50
1, 374784, Note_on_c, 0, 69, 50
1, 374784, Note_on_c, 0, 84, 50
1, 374784, Note_on_c, 0, 81, 50
1, 374880, Note_off_c, 0, 35, 0
1, 374880, Note_off_c, 0, 47, 0
1, 375168, Note_off_c, 0, 81, 0
1, 375168, Note_off_c, 0, 84, 0
1, 375168, Note_off_c, 0, 69, 0
1, 375168, Note_off_c, 0, 72, 0
1, 375168, Note_off_c, 0, 33, 0
1, 375168, Note_off_c, 0, 45, 0
1, 375552, Note_on_c, 0, 45, 119
1, 375552, Note_on_c, 0, 33, 119
1, 375552, Note_on_c, 0, 69, 50
1, 375552, Note_on_c, 0, 60, 50
1, 375552, Note_on_c, 0, 81, 50
1, 375552, Note_on_c, 0, 72, 50
1, 375936, Note_off_c, 0, 72, 0
1, 375936, Note_off_c, 0, 81, 0
1, 375936, Note_off_c, 0, 60, 0
1, 375936, Note_off_c, 0, 69, 0
1, 375936, Note_off_c, 0, 33, 0
1, 375936, Note_off_c, 0, 45, 0
1, 376320, Note_on_c, 0, 48, 119
1, 376320, Note_on_c, 0, 36, 119
1, 376320, Note_on_c, 0, 72, 50
1, 376320, Note_on_c, 0, 64, 50
1, 376320, Note_on_c, 0, 84, 50
1, 376320, Note_on_c, 0, 76, 50
1, 376704, Note_off_c, 0, 76, 0
1, 376704, Note_off_c, 0, 84, 0
1, 376704, Note_off_c, 0, 64, 0
1, 376704, Note_off_c, 0, 72, 0
1, 376704, Note_off_c, 0, 36, 0
1, 376704, Note_off_c, 0, 48, 0
1, 377088, Note_on_c, 0, 52, 119
1, 377088, Note_on_c, 0, 40, 119
1, 377088, Note_on_c, 0, 76, 50
1, 377088, Note_on_c, 0, 69, 50
1, 377088, Note_on_c, 0, 88, 50
1, 377088, Note_on_c, 0, 81, 50
1, 377472, Note_off_c, 0, 81, 0
1, 377472, Note_off_c, 0, 88, 0
1, 377472, Note_off_c, 0, 69, 0
1, 377472, Note_off_c, 0, 76, 0
1, 377472, Note_off_c, 0, 40, 0
1, 377472, Note_off_c, 0, 52, 0
1, 377856, Note_on_c, 0, 57, 180
1, 377856, Note_on_c, 0, 45, 180
1, 377856, Note_on_c, 0, 57, 180
1, 377856, Note_on_c, 0, 45, 180
1, 377856, Note_on_c, 0, 45, 180
1, 377856, Note_on_c, 0, 81, 49
1, 377856, Note_on_c, 0, 76, 49
1, 377856, Note_on_c, 0, 93, 49
1, 377856, Note_on_c, 0, 88, 49
1, 377856, Note_on_c, 0, 57, 155
1, 377856, Note_on_c, 0, 45, 155
1, 377856, Note_on_c, 0, 57, 70
1, 377856, Note_on_c, 0, 45, 155
1, 377856, Note_on_c, 0, 45, 70
1, 378240, Note_off_c, 0, 45, 0
1, 378240, Note_off_c, 0, 45, 0
1, 378240, Note_off_c, 0, 57, 0
1, 378240, Note_off_c, 0, 45, 0
1, 378240, Note_off_c, 0, 57, 0
1, 378240, Note_off_c, 0, 88, 0
1, 378240, Note_off_c, 0, 93, 0
1, 378240, Note_off_c, 0, 76, 0
1, 378240, Note_off_c, 0, 81, 0
1, 378240, Note_off_c, 0, 45, 0
1, 378240, Note_off_c, 0, 45, 0
1, 378240, Note_off_c, 0, 57, 0
1, 378240, Note_off_c, 0, 45, 0
1, 378240, Note_off_c, 0, 57, 0
1, 378624, Note_on_c, 0, 52, 119
1, 378624, Note_on_c, 0, 40, 119
1, 378624, Note_on_c, 0, 52, 119
1, 378624, Note_on_c, 0, 40, 119
1, 378624, Note_on_c, 0, 76, 14
1, 378624, Note_on_c, 0, 69, 14
1, 378624, Note_on_c, 0, 88, 14
1, 378624, Note_on_c, 0, 81, 14
1, 379008, Note_off_c, 0, 81, 0
1, 379008, Note_off_c, 0, 88, 0
1, 379008, Note_off_c, 0, 69, 0
1, 379008, Note_off_c, 0, 76, 0
1, 379008, Note_off_c, 0, 40, 0
1, 379008, Note_off_c, 0, 52, 0
1, 379008, Note_off_c, 0, 40, 0
1, 379008, Note_off_c, 0, 52, 0
1, 379392, Note_on_c, 0, 48, 119
1, 379392, Note_on_c, 0, 36, 119
1, 379392, Note_on_c, 0, 48, 119
1, 379392, Note_on_c, 0, 36, 119
1, 379392, Note_on_c, 0, 72, 14
1, 379392, Note_on_c, 0, 64, 14
1, 379392, Note_on_c, 0, 84, 14
1, 379392, Note_on_c, 0, 76, 14
1, 379776, Note_off_c, 0, 76, 0
1, 379776, Note_off_c, 0, 84, 0
1, 379776, Note_off_c, 0, 64, 0
1, 379776, Note_off_c, 0, 72, 0
1, 379776, Note_off_c, 0, 36, 0
1, 379776, Note_off_c, 0, 48, 0
1, 379776, Note_off_c, 0, 36, 0
1, 379776, Note_off_c, 0, 48, 0
1, 380160, Note_on_c, 0, 45, 119
1, 380160, Note_on_c, 0, 33, 119
1, 380160, Note_on_c, 0, 33, 119
1, 380160, Note_on_c, 0, 33, 119
1, 380160, Note_on_c, 0, 69, 49
1, 380160, Note_on_c, 0, 60, 49
1, 380160, Note_on_c, 0, 81, 49
1, 380160, Note_on_c, 0, 72, 49
1, 380160, Note_on_c, 0, 45, 119
1, 380160, Note_on_c, 0, 45, 119
1, 380160, Note_on_c, 0, 45, 85
1, 380160, Note_on_c, 0, 33, 85
1, 380544, Note_off_c, 0, 33, 0
1, 380544, Note_off_c, 0, 45, 0
1, 380544, Note_off_c, 0, 45, 0
1, 380544, Note_off_c, 0, 45, 0
1, 380544, Note_off_c, 0, 72, 0
1, 380544, Note_off_c, 0, 81, 0
1, 380544, Note_off_c, 0, 60, 0
1, 380544, Note_off_c, 0, 69, 0
1, 380544, Note_off_c, 0, 33, 0
1, 380544, Note_off_c, 0, 33, 0
1, 380544, Note_off_c, 0, 33, 0
1, 380544, Note_off_c, 0, 45, 0
1, 380928, Note_on_c, 0, 74, 50
1, 380928, Note_on_c, 0, 77, 50
1, 380928, Note_on_c, 0, 86, 50
1, 380928, Note_on_c, 0, 65, 50
1, 380928, Note_on_c, 0, 33, 44
1, 380928, Note_on_c, 0, 35, 44
1, 380928, Note_on_c, 0, 34, 44
1, 380928, Note_on_c, 0, 36, 44
1, 380928, Note_on_c, 0, 37, 44
1, 380928, Note_on_c, 0, 39, 44
1, 380928, Note_on_c, 0, 38, 44
1, 380928, Note_on_c, 0, 40, 44
1, 380928, Note_on_c, 0, 41, 44
1, 380928, Note_on_c, 0, 38, 74
1, 380928, Note_on_c, 0, 50, 74
1, 381120, Note_off_c, 0, 41, 0
1, 381120, Note_off_c, 0, 40, 0
1, 381120, Note_off_c, 0, 38, 0
1, 381120, Note_off_c, 0, 39, 0
1, 381120, Note_off_c, 0, 37, 0
1, 381120, Note_off_c, 0, 36, 0
1, 381120, Note_off_c, 0, 34, 0
1, 381120, Note_off_c, 0, 35, 0
1, 381120, Note_off_c, 0, 33, 0
1, 381696, Note_off_c, 0, 50, 0
1, 381696, Note_off_c, 0, 38, 0
1, 381696, Note_on_c, 0, 50, 74
1, 381696, Note_on_c, 0, 53, 74
1, 381696, Note_on_c, 0, 57, 74
1, 381888, Note_off_c, 0, 65, 0
1, 381888, Note_off_c, 0, 86, 0
1, 381888, Note_off_c, 0, 77, 0
1, 381888, Note_off_c, 0, 74, 0
1, 381984, Note_off_c, 0, 57, 0
1, 381984, Note_off_c, 0, 53, 0
1, 381984, Note_off_c, 0, 50, 0
1, 382080, Note_on_c, 0, 73, 50
1, 382080, Note_on_c, 0, 64, 50
1, 382080, Note_on_c, 0, 85, 50
1, 382080, Note_on_c, 0, 77, 50
1, 382272, Note_off_c, 0, 77, 0
1, 382272, Note_off_c, 0, 85, 0
1, 382272, Note_off_c, 0, 64, 0
1, 382272, Note_off_c, 0, 73, 0
1, 382464, Note_on_c, 0, 74, 50
1, 382464, Note_on_c, 0, 65, 50
1, 382464, Note_on_c, 0, 86, 50
1, 382464, Note_on_c, 0, 77, 50
1, 382464, Note_on_c, 0, 45, 74
1, 382464, Note_on_c, 0, 24, 44
1, 382464, Note_on_c, 0, 26, 44
1, 382464, Note_on_c, 0, 25, 44
1, 382464, Note_on_c, 0, 27, 44
1, 382464, Note_on_c, 0, 28, 44
1, 382464, Note_on_c, 0, 30, 44
1, 382464, Note_on_c, 0, 29, 44
1, 382464, Note_on_c, 0, 31, 44
1, 382464, Note_on_c, 0, 32, 44
1, 382656, Note_off_c, 0, 32, 0
1, 382656, Note_off_c, 0, 31, 0
1, 382656, Note_off_c, 0, 29, 0
1, 382656, Note_off_c, 0, 30, 0
1, 382656, Note_off_c, 0, 28, 0
1, 382656, Note_off_c, 0, 27, 0
1, 382656, Note_off_c, 0, 25, 0
1, 382656, Note_off_c, 0, 26, 0
1, 382656, Note_off_c, 0, 24, 0
1, 382656, Note_off_c, 0, 77, 0
1, 382656, Note_off_c, 0, 86, 0
1, 382656, Note_off_c, 0, 65, 0
1, 382656, Note_off_c, 0, 74, 0
1, 383232, Note_off_c, 0, 45, 0
1, 383232, Note_on_c, 0, 76, 50
1, 383232, Note_on_c, 0, 67, 50
1, 383232, Note_on_c, 0, 88, 50
1, 383232, Note_on_c, 0, 79, 50
1, 383232, Note_on_c, 0, 50, 74
1, 383232, Note_on_c, 0, 53, 74
1, 383232, Note_on_c, 0, 57, 74
1, 383520, Note_off_c, 0, 57, 0
1, 383520, Note_off_c, 0, 53, 0
1, 383520, Note_off_c, 0, 50, 0
1, 383616, Note_off_c, 0, 79, 0
1, 383616, Note_off_c, 0, 88, 0
1, 383616, Note_off_c, 0, 67, 0
1, 383616, Note_off_c, 0, 76, 0
1, 384000, Note_on_c, 0, 77, 50
1, 384000, Note_on_c, 0, 69, 50
1, 384000, Note_on_c, 0, 89, 50
1, 384000, Note_on_c, 0, 81, 50
1, 384000, Note_on_c, 0, 38, 74
1, 384000, Note_on_c, 0, 50, 74
1, 384000, Note_on_c, 0, 33, 44
1, 384000, Note_on_c, 0, 35, 44
1, 384000, Note_on_c, 0, 34, 44
1, 384000, Note_on_c, 0, 36, 44
1, 384000, Note_on_c, 0, 37, 44
1, 384000, Note_on_c, 0, 39, 44
1, 384000, Note_on_c, 0, 38, 44
1, 384000, Note_on_c, 0, 40, 44
1, 384000, Note_on_c, 0, 41, 44
1, 384192, Note_off_c, 0, 41, 0
1, 384192, Note_off_c, 0, 40, 0
1, 384192, Note_off_c, 0, 38, 0
1, 384192, Note_off_c, 0, 39, 0
1, 384192, Note_off_c, 0, 37, 0
1, 384192, Note_off_c, 0, 36, 0
1, 384192, Note_off_c, 0, 34, 0
1, 384192, Note_off_c, 0, 35, 0
1, 384192, Note_off_c, 0, 33, 0
1, 384384, Note_off_c, 0, 81, 0
1, 384384, Note_off_c, 0, 89, 0
1, 384384, Note_off_c, 0, 69, 0
1, 384384, Note_off_c, 0, 77, 0
1, 384768, Note_off_c, 0, 50, 0
1, 384768, Note_off_c, 0, 38, 0
1, 384768, Note_on_c, 0, 76, 50
1, 384768, Note_on_c, 0, 67, 50
1, 384768, Note_on_c, 0, 88, 50
1, 384768, Note_on_c, 0, 79, 50
1, 384768, Note_on_c, 0, 50, 74
1, 384768, Note_on_c, 0, 53, 74
1, 384768, Note_on_c, 0, 57, 74
1, 385056, Note_off_c, 0, 57, 0
1, 385056, Note_off_c, 0, 53, 0
1, 385056, Note_off_c, 0, 50, 0
1, 385152, Note_off_c, 0, 79, 0
1, 385152, Note_off_c, 0, 88, 0
1, 385152, Note_off_c, 0, 67, 0
1, 385152, Note_off_c, 0, 76, 0
1, 385536, Note_on_c, 0, 74, 50
1, 385536, Note_on_c, 0, 65, 50
1, 385536, Note_on_c, 0, 86, 50
1, 385536, Note_on_c, 0, 77, 50
1, 385536, Note_on_c, 0, 45, 74
1, 385536, Note_on_c, 0, 24, 44
1, 385536, Note_on_c, 0, 26, 44
1, 385536, Note_on_c, 0, 25, 44
1, 385536, Note_on_c, 0, 27, 44
1, 385536, Note_on_c, 0, 28, 44
1, 385536, Note_on_c, 0, 30, 44
1, 385536, Note_on_c, 0, 29, 44
1, 385536, Note_on_c, 0, 31, 44
1, 385536, Note_on_c, 0, 32, 44
1, 385728, Note_off_c, 0, 32, 0
1, 385728, Note_off_c, 0, 31, 0
1, 385728, Note_off_c, 0, 29, 0
1, 385728, Note_off_c, 0, 30, 0
1, 385728, Note_off_c, 0, 28, 0
1, 385728, Note_off_c, 0, 27, 0
1, 385728, Note_off_c, 0, 25, 0
1, 385728, Note_off_c, 0, 26, 0
1, 385728, Note_off_c, 0, 24, 0
1, 385920, Note_off_c, 0, 77, 0
1, 385920, Note_off_c, 0, 86, 0
1, 385920, Note_off_c, 0, 65, 0
1, 385920, Note_off_c, 0, 74, 0
1, 386304, Note_off_c, 0, 45, 0
1, 386304, Note_on_c, 0, 77, 50
1, 386304, Note_on_c, 0, 69, 50
1, 386304, Note_on_c, 0, 89, 50
1, 386304, Note_on_c, 0, 81, 50
1, 386304, Note_on_c, 0, 50, 74
1, 386304, Note_on_c, 0, 53, 74
1, 386304, Note_on_c, 0, 57, 74
1, 386592, Note_off_c, 0, 57, 0
1, 386592, Note_off_c, 0, 53, 0
1, 386592, Note_off_c, 0, 50, 0
1, 386688, Note_off_c, 0, 81, 0
1, 386688, Note_off_c, 0, 89, 0
1, 386688, Note_off_c, 0, 69, 0
1, 386688, Note_off_c, 0, 77, 0
1, 387072, Note_on_c, 0, 76, 50
1, 387072, Note_on_c, 0, 72, 50
1, 387072, Note_on_c, 0, 88, 50
1, 387072, Note_on_c, 0, 84, 50
1, 387072, Note_on_c, 0, 64, 50
1, 387072, Note_on_c, 0, 60, 50
1, 387072, Note_on_c, 0, 33, 44
1, 387072, Note_on_c, 0, 35, 44
1, 387072, Note_on_c, 0, 34, 44
1, 387072, Note_on_c, 0, 36, 44
1, 387072, Note_on_c, 0, 37, 44
1, 387072, Note_on_c, 0, 39, 44
1, 387072, Note_on_c, 0, 38, 44
1, 387072, Note_on_c, 0, 40, 44
1, 387072, Note_on_c, 0, 41, 44
1, 387072, Note_on_c, 0, 36, 74
1, 387072, Note_on_c, 0, 48, 74
1, 387264, Note_off_c, 0, 41, 0
1, 387264, Note_off_c, 0, 40, 0
1, 387264, Note_off_c, 0, 38, 0
1, 387264, Note_off_c, 0, 39, 0
1, 387264, Note_off_c, 0, 37, 0
1, 387264, Note_off_c, 0, 36, 0
1, 387264, Note_off_c, 0, 34, 0
1, 387264, Note_off_c, 0, 35, 0
1, 387264, Note_off_c, 0, 33, 0
1, 387840, Note_off_c, 0, 48, 0
1, 387840, Note_off_c, 0, 36, 0
1, 387840, Note_on_c, 0, 48, 74
1, 387840, Note_on_c, 0, 52, 74
1, 387840, Note_on_c, 0, 57, 74
1, 388032, Note_off_c, 0, 60, 0
1, 388032, Note_off_c, 0, 64, 0
1, 388032, Note_off_c, 0, 84, 0
1, 388032, Note_off_c, 0, 88, 0
1, 388032, Note_off_c, 0, 72, 0
1, 388032, Note_off_c, 0, 76, 0
1, 388128, Note_off_c, 0, 57, 0
1, 388128, Note_off_c, 0, 52, 0
1, 388128, Note_off_c, 0, 48, 0
1, 388224, Note_on_c, 0, 74, 50
1, 388224, Note_on_c, 0, 71, 50
1, 388224, Note_on_c, 0, 86, 50
1, 388224, Note_on_c, 0, 83, 50
1, 388224, Note_on_c, 0, 62, 50
1, 388224, Note_on_c, 0, 59, 50
1, 388416, Note_off_c, 0, 59, 0
1, 388416, Note_off_c, 0, 62, 0
1, 388416, Note_off_c, 0, 83, 0
1, 388416, Note_off_c, 0, 86, 0
1, 388416, Note_off_c, 0, 71, 0
1, 388416, Note_off_c, 0, 74, 0
1, 388608, Note_on_c, 0, 72, 50
1, 388608, Note_on_c, 0, 69, 50
1, 388608, Note_on_c, 0, 84, 50
1, 388608, Note_on_c, 0, 81, 50
1, 388608, Note_on_c, 0, 60, 50
1, 388608, Note_on_c, 0, 57, 50
1, 388608, Note_on_c, 0, 24, 44
1, 388608, Note_on_c, 0, 26, 44
1, 388608, Note_on_c, 0, 25, 44
1, 388608, Note_on_c, 0, 27, 44
1, 388608, Note_on_c, 0, 28, 44
1, 388608, Note_on_c, 0, 30, 44
1, 388608, Note_on_c, 0, 29, 44
1, 388608, Note_on_c, 0, 31, 44
1, 388608, Note_on_c, 0, 32, 44
1, 388608, Note_on_c, 0, 45, 74
1, 388800, Note_off_c, 0, 32, 0
1, 388800, Note_off_c, 0, 31, 0
1, 388800, Note_off_c, 0, 29, 0
1, 388800, Note_off_c, 0, 30, 0
1, 388800, Note_off_c, 0, 28, 0
1, 388800, Note_off_c, 0, 27, 0
1, 388800, Note_off_c, 0, 25, 0
1, 388800, Note_off_c, 0, 26, 0
1, 388800, Note_off_c, 0, 24, 0
1, 388992, Note_off_c, 0, 57, 0
1, 388992, Note_off_c, 0, 60, 0
1, 388992, Note_off_c, 0, 81, 0
1, 388992, Note_off_c, 0, 84, 0
1, 388992, Note_off_c, 0, 69, 0
1, 388992, Note_off_c, 0, 72, 0
1, 389088, Note_off_c, 0, 45, 0
1, 389376, Note_on_c, 0, 74, 50
1, 389376, Note_on_c, 0, 71, 50
1, 389376, Note_on_c, 0, 86, 50
1, 389376, Note_on_c, 0, 83, 50
1, 389376, Note_on_c, 0, 62, 50
1, 389376, Note_on_c, 0, 59, 50
1, 389376, Note_on_c, 0, 48, 74
1, 389376, Note_on_c, 0, 52, 74
1, 389376, Note_on_c, 0, 57, 74
1, 389664, Note_off_c, 0, 57, 0
1, 389664, Note_off_c, 0, 52, 0
1, 389664, Note_off_c, 0, 48, 0
1, 389760, Note_off_c, 0, 59, 0
1, 389760, Note_off_c, 0, 62, 0
1, 389760, Note_off_c, 0, 83, 0
1, 389760, Note_off_c, 0, 86, 0
1, 389760, Note_off_c, 0, 71, 0
1, 389760, Note_off_c, 0, 74, 0
1, 390144, Note_on_c, 0, 76, 50
1, 390144, Note_on_c, 0, 72, 50
1, 390144, Note_on_c, 0, 88, 50
1, 390144, Note_on_c, 0, 84, 50
1, 390144, Note_on_c, 0, 64, 50
1, 390144, Note_on_c, 0, 60, 50
1, 390144, Note_on_c, 0, 33, 44
1, 390144, Note_on_c, 0, 35, 44
1, 390144, Note_on_c, 0, 34, 44
1, 390144, Note_on_c, 0, 36, 44
1, 390144, Note_on_c, 0, 37, 44
1, 390144, Note_on_c, 0, 39, 44
1, 390144, Note_on_c, 0, 38, 44
1, 390144, Note_on_c, 0, 40, 44
1, 390144, Note_on_c, 0, 41, 44
1, 390144, Note_on_c, 0, 36, 74
1, 390144, Note_on_c, 0, 48, 74
1, 390336, Note_off_c, 0, 41, 0
1, 390336, Note_off_c, 0, 40, 0
1, 390336, Note_off_c, 0, 38, 0
1, 390336, Note_off_c, 0, 39, 0
1, 390336, Note_off_c, 0, 37, 0
1, 390336, Note_off_c, 0, 36, 0
1, 390336, Note_off_c, 0, 34, 0
1, 390336, Note_off_c, 0, 35, 0
1, 390336, Note_off_c, 0, 33, 0
1, 390912, Note_off_c, 0, 48, 0
1, 390912, Note_off_c, 0, 36, 0
1, 390912, Note_on_c, 0, 48, 74
1, 390912, Note_on_c, 0, 52, 74
1, 390912, Note_on_c, 0, 57, 74
1, 391200, Note_off_c, 0, 57, 0
1, 391200, Note_off_c, 0, 52, 0
1, 391200, Note_off_c, 0, 48, 0
1, 391296, Note_off_c, 0, 60, 0
1, 391296, Note_off_c, 0, 64, 0
1, 391296, Note_off_c, 0, 84, 0
1, 391296, Note_off_c, 0, 88, 0
1, 391296, Note_off_c, 0, 72, 0
1, 391296, Note_off_c, 0, 76, 0
1, 391680, Note_on_c, 0, 81, 50
1, 391680, Note_on_c, 0, 76, 50
1, 391680, Note_on_c, 0, 93, 50
1, 391680, Note_on_c, 0, 88, 50
1, 391680, Note_on_c, 0, 69, 50
1, 391680, Note_on_c, 0, 64, 50
1, 391680, Note_on_c, 0, 24, 44
1, 391680, Note_on_c, 0, 26, 44
1, 391680, Note_on_c, 0, 25, 44
1, 391680, Note_on_c, 0, 27, 44
1, 391680, Note_on_c, 0, 28, 44
1, 391680, Note_on_c, 0, 30, 44
1, 391680, Note_on_c, 0, 29, 44
1, 391680, Note_on_c, 0, 31, 44
1, 391680, Note_on_c, 0, 32, 44
1, 391680, Note_on_c, 0, 45, 74
1, 391872, Note_off_c, 0, 32, 0
1, 391872, Note_off_c, 0, 31, 0
1, 391872, Note_off_c, 0, 29, 0
1, 391872, Note_off_c, 0, 30, 0
1, 391872, Note_off_c, 0, 28, 0
1, 391872, Note_off_c, 0, 27, 0
1, 391872, Note_off_c, 0, 25, 0
1, 391872, Note_off_c, 0, 26, 0
1, 391872, Note_off_c, 0, 24, 0
1, 392160, Note_off_c, 0, 45, 0
1, 392448, Note_on_c, 0, 48, 74
1, 392448, Note_on_c, 0, 52, 74
1, 392448, Note_on_c, 0, 57, 74
1, 392736, Note_off_c, 0, 57, 0
1, 392736, Note_off_c, 0, 52, 0
1, 392736, Note_off_c, 0, 48, 0
1, 393120, Note_off_c, 0, 64, 0
1, 393120, Note_off_c, 0, 69, 0
1, 393120, Note_off_c, 0, 88, 0
1, 393120, Note_off_c, 0, 93, 0
1, 393120, Note_off_c, 0, 76, 0
1, 393120, Note_off_c, 0, 81, 0
1, 393216, Note_on_c, 0, 33, 44
1, 393216, Note_on_c, 0, 35, 44
1, 393216, Note_on_c, 0, 34, 44
1, 393216, Note_on_c, 0, 36, 44
1, 393216, Note_on_c, 0, 37, 44
1, 393216, Note_on_c, 0, 39, 44
1, 393216, Note_on_c, 0, 38, 44
1, 393216, Note_on_c, 0, 40, 44
1, 393216, Note_on_c, 0, 41, 44
1, 393216, Note_on_c, 0, 41, 74
1, 393216, Note_on_c, 0, 53, 74
1, 393408, Note_off_c, 0, 41, 0
1, 393408, Note_off_c, 0, 40, 0
1, 393408, Note_off_c, 0, 38, 0
1, 393408, Note_off_c, 0, 39, 0
1, 393408, Note_off_c, 0, 37, 0
1, 393408, Note_off_c, 0, 36, 0
1, 393408, Note_off_c, 0, 34, 0
1, 393408, Note_off_c, 0, 35, 0
1, 393408, Note_off_c, 0, 33, 0
1, 393984, Note_off_c, 0, 53, 0
1, 393984, Note_off_c, 0, 41, 0
1, 393984, Note_on_c, 0, 50, 74
1, 393984, Note_on_c, 0, 53, 74
1, 393984, Note_on_c, 0, 57, 74
1, 393984, Note_on_c, 0, 86, 50
1, 393984, Note_on_c, 0, 77, 50
1, 393984, Note_on_c, 0, 89, 50
1, 393984, Note_on_c, 0, 74, 50
1, 393984, Note_on_c, 0, 65, 50
1, 393984, Note_on_c, 0, 62, 50
1, 394272, Note_off_c, 0, 57, 0
1, 394272, Note_off_c, 0, 53, 0
1, 394272, Note_off_c, 0, 50, 0
1, 394752, Note_on_c, 0, 24, 44
1, 394752, Note_on_c, 0, 26, 44
1, 394752, Note_on_c, 0, 25, 44
1, 394752, Note_on_c, 0, 27, 44
1, 394752, Note_on_c, 0, 28, 44
1, 394752, Note_on_c, 0, 30, 44
1, 394752, Note_on_c, 0, 29, 44
1, 394752, Note_on_c, 0, 31, 44
1, 394752, Note_on_c, 0, 32, 44
1, 394752, Note_on_c, 0, 50, 74
1, 394944, Note_off_c, 0, 32, 0
1, 394944, Note_off_c, 0, 31, 0
1, 394944, Note_off_c, 0, 29, 0
1, 394944, Note_off_c, 0, 30, 0
1, 394944, Note_off_c, 0, 28, 0
1, 394944, Note_off_c, 0, 27, 0
1, 394944, Note_off_c, 0, 25, 0
1, 394944, Note_off_c, 0, 26, 0
1, 394944, Note_off_c, 0, 24, 0
1, 395232, Note_off_c, 0, 50, 0
1, 395232, Note_off_c, 0, 62, 0
1, 395232, Note_off_c, 0, 65, 0
1, 395232, Note_off_c, 0, 74, 0
1, 395232, Note_off_c, 0, 89, 0
1, 395232, Note_off_c, 0, 77, 0
1, 395232, Note_off_c, 0, 86, 0
1, 395520, Note_on_c, 0, 50, 74
1, 395520, Note_on_c, 0, 53, 74
1, 395520, Note_on_c, 0, 57, 74
1, 395520, Note_on_c, 0, 89, 50
1, 395520, Note_on_c, 0, 81, 50
1, 395520, Note_on_c, 0, 93, 50
1, 395520, Note_on_c, 0, 77, 50
1, 395520, Note_on_c, 0, 69, 50
1, 395520, Note_on_c, 0, 65, 50
1, 395808, Note_off_c, 0, 57, 0
1, 395808, Note_off_c, 0, 53, 0
1, 395808, Note_off_c, 0, 50, 0
1, 395904, Note_off_c, 0, 65, 0
1, 395904, Note_off_c, 0, 69, 0
1, 395904, Note_off_c, 0, 77, 0
1, 395904, Note_off_c, 0, 93, 0
1, 395904, Note_off_c, 0, 81, 0
1, 395904, Note_off_c, 0, 89, 0
1, 396288, Note_on_c, 0, 33, 44
1, 396288, Note_on_c, 0, 35, 44
1, 396288, Note_on_c, 0, 34, 44
1, 396288, Note_on_c, 0, 36, 44
1, 396288, Note_on_c, 0, 37, 44
1, 396288, Note_on_c, 0, 39, 44
1, 396288, Note_on_c, 0, 38, 44
1, 396288, Note_on_c, 0, 40, 44
1, 396288, Note_on_c, 0, 41, 44
1, 396288, Note_on_c, 0, 40, 74
1, 396288, Note_on_c, 0, 52, 74
1, 396288, Note_on_c, 0, 88, 50
1, 396288, Note_on_c, 0, 80, 50
1, 396288, Note_on_c, 0, 92, 50
1, 396288, Note_on_c, 0, 76, 50
1, 396288, Note_on_c, 0, 68, 50
1, 396288, Note_on_c, 0, 64, 50
1, 396480, Note_off_c, 0, 41, 0
1, 396480, Note_off_c, 0, 40, 0
1, 396480, Note_off_c, 0, 38, 0
1, 396480, Note_off_c, 0, 39, 0
1, 396480, Note_off_c, 0, 37, 0
1, 396480, Note_off_c, 0, 36, 0
1, 396480, Note_off_c, 0, 34, 0
1, 396480, Note_off_c, 0, 35, 0
1, 396480, Note_off_c, 0, 33, 0
1, 396672, Note_off_c, 0, 64, 0
1, 396672, Note_off_c, 0, 68, 0
1, 396672, Note_off_c, 0, 76, 0
1, 396672, Note_off_c, 0, 92, 0
1, 396672, Note_off_c, 0, 80, 0
1, 396672, Note_off_c, 0, 88, 0
1, 397056, Note_off_c, 0, 52, 0
1, 397056, Note_off_c, 0, 40, 0
1, 397056, Note_on_c, 0, 47, 74
1, 397056, Note_on_c, 0, 52, 74
1, 397056, Note_on_c, 0, 56, 74
1, 397056, Note_on_c, 0, 84, 50
1, 397056, Note_on_c, 0, 76, 50
1, 397056, Note_on_c, 0, 88, 50
1, 397056, Note_on_c, 0, 72, 50
1, 397056, Note_on_c, 0, 64, 50
1, 397056, Note_on_c, 0, 60, 50
1, 397344, Note_off_c, 0, 56, 0
1, 397344, Note_off_c, 0, 52, 0
1, 397344, Note_off_c, 0, 47, 0
1, 397440, Note_off_c, 0, 60, 0
1, 397440, Note_off_c, 0, 64, 0
1, 397440, Note_off_c, 0, 72, 0
1, 397440, Note_off_c, 0, 88, 0
1, 397440, Note_off_c, 0, 76, 0
1, 397440, Note_off_c, 0, 84, 0
1, 397824, Note_on_c, 0, 24, 44
1, 397824, Note_on_c, 0, 26, 44
1, 397824, Note_on_c, 0, 25, 44
1, 397824, Note_on_c, 0, 27, 44
1, 397824, Note_on_c, 0, 28, 44
1, 397824, Note_on_c, 0, 30, 44
1, 397824, Note_on_c, 0, 29, 44
1, 397824, Note_on_c, 0, 31, 44
1, 397824, Note_on_c, 0, 32, 44
1, 397824, Note_on_c, 0, 28, 74
1, 397824, Note_on_c, 0, 40, 74
1, 397824, Note_on_c, 0, 86, 50
1, 397824, Note_on_c, 0, 77, 50
1, 397824, Note_on_c, 0, 89, 50
1, 397824, Note_on_c, 0, 74, 50
1, 397824, Note_on_c, 0, 65, 50
1, 397824, Note_on_c, 0, 62, 50
1, 398016, Note_off_c, 0, 32, 0
1, 398016, Note_off_c, 0, 31, 0
1, 398016, Note_off_c, 0, 29, 0
1, 398016, Note_off_c, 0, 30, 0
1, 398016, Note_off_c, 0, 28, 0
1, 398016, Note_off_c, 0, 27, 0
1, 398016, Note_off_c, 0, 25, 0
1, 398016, Note_off_c, 0, 26, 0
1, 398016, Note_off_c, 0, 24, 0
1, 398208, Note_off_c, 0, 62, 0
1, 398208, Note_off_c, 0, 65, 0
1, 398208, Note_off_c, 0, 74, 0
1, 398208, Note_off_c, 0, 89, 0
1, 398208, Note_off_c, 0, 77, 0
1, 398208, Note_off_c, 0, 86, 0
1, 398592, Note_off_c, 0, 40, 0
1, 398592, Note_off_c, 0, 28, 0
1, 398592, Note_on_c, 0, 47, 74
1, 398592, Note_on_c, 0, 52, 74
1, 398592, Note_on_c, 0, 56, 74
1, 398592, Note_on_c, 0, 83, 50
1, 398592, Note_on_c, 0, 74, 50
1, 398592, Note_on_c, 0, 86, 50
1, 398592, Note_on_c, 0, 71, 50
1, 398592, Note_on_c, 0, 62, 50
1, 398592, Note_on_c, 0, 59, 50
1, 398880, Note_off_c, 0, 56, 0
1, 398880, Note_off_c, 0, 52, 0
1, 398880, Note_off_c, 0, 47, 0
1, 398976, Note_off_c, 0, 59, 0
1, 398976, Note_off_c, 0, 62, 0
1, 398976, Note_off_c, 0, 71, 0
1, 398976, Note_off_c, 0, 86, 0
1, 398976, Note_off_c, 0, 74, 0
1, 398976, Note_off_c, 0, 83, 0
1, 399360, Note_on_c, 0, 81, 50
1, 399360, Note_on_c, 0, 72, 50
1, 399360, Note_on_c, 0, 84, 50
1, 399360, Note_on_c, 0, 69, 50
1, 399360, Note_on_c, 0, 60, 50
1, 399360, Note_on_c, 0, 57, 50
1, 399360, Note_on_c, 0, 33, 74
1, 399360, Note_on_c, 0, 45, 74
1, 399360, Note_on_c, 0, 33, 44
1, 399360, Note_on_c, 0, 35, 44
1, 399360, Note_on_c, 0, 34, 44
1, 399360, Note_on_c, 0, 36, 44
1, 399360, Note_on_c, 0, 37, 44
1, 399360, Note_on_c, 0, 39, 44
1, 399360, Note_on_c, 0, 38, 44
1, 399360, Note_on_c, 0, 40, 44
1, 399360, Note_on_c, 0, 41, 44
1, 399360, Note_on_c, 0, 24, 44
1, 399360, Note_on_c, 0, 25, 44
1, 399360, Note_on_c, 0, 27, 44
1, 399360, Note_on_c, 0, 26, 44
1, 399360, Note_on_c, 0, 28, 44
1, 399360, Note_on_c, 0, 29, 44
1, 399360, Note_on_c, 0, 30, 44
1, 399360, Note_on_c, 0, 31, 44
1, 399360, Note_on_c, 0, 32, 44
1, 399552, Note_off_c, 0, 32, 0
1, 399552, Note_off_c, 0, 31, 0
1, 399552, Note_off_c, 0, 30, 0
1, 399552, Note_off_c, 0, 29, 0
1, 399552, Note_off_c, 0, 28, 0
1, 399552, Note_off_c, 0, 26, 0
1, 399552, Note_off_c, 0, 27, 0
1, 399552, Note_off_c, 0, 25, 0
1, 399552, Note_off_c, 0, 24, 0
1, 399552, Note_off_c, 0, 41, 0
1, 399552, Note_off_c, 0, 40, 0
1, 399552, Note_off_c, 0, 38, 0
1, 399552, Note_off_c, 0, 39, 0
1, 399552, Note_off_c, 0, 37, 0
1, 399552, Note_off_c, 0, 36, 0
1, 399552, Note_off_c, 0, 34, 0
1, 399552, Note_off_c, 0, 35, 0
1, 399552, Note_off_c, 0, 33, 0
1, 399744, Note_off_c, 0, 45, 0
1, 399744, Note_off_c, 0, 33, 0
1, 399744, Note_off_c, 0, 57, 0
1, 399744, Note_off_c, 0, 60, 0
1, 399744, Note_off_c, 0, 69, 0
1, 399744, Note_off_c, 0, 84, 0
1, 399744, Note_off_c, 0, 72, 0
1, 399744, Note_off_c, 0, 81, 0
1, 401664, Note_on_c, 0, 52, 120
1, 401664, Note_on_c, 0, 64, 120
1, 401664, Note_on_c, 0, 76, 120
1, 401664, Note_on_c, 0, 88, 60
1, 401664, Note_on_c, 0, 40, 120
1, 402048, Note_off_c, 0, 40, 0
1, 402048, Note_off_c, 0, 88, 0
1, 402048, Note_off_c, 0, 76, 0
1, 402048, Note_off_c, 0, 64, 0
1, 402048, Note_off_c, 0, 52, 0
1, 402432, Note_on_c, 0, 57, 120
1, 402432, Note_on_c, 0, 69, 120
1, 402432, Note_on_c, 0, 81, 120
1, 402432, Note_on_c, 0, 93, 60
1, 402432, Note_on_c, 0, 33, 120
1, 402432, Note_on_c, 0, 48, 120
1, 402432, Note_on_c, 0, 45, 120
1, 402816, Note_off_c, 0, 45, 0
1, 402816, Note_off_c, 0, 48, 0
1, 402816, Note_off_c, 0, 33, 0
1, 402816, Note_off_c, 0, 93, 0
1, 402816, Note_off_c, 0, 81, 0
1, 402816, Note_off_c, 0, 69, 0
1, 402816, Note_off_c, 0, 57, 0
1, 403536, Note_on_c, 0, 29, 15
1, 403536, Note_on_c, 0, 31, 15
1, 403536, Note_on_c, 0, 38, 15
1, 403536, Note_on_c, 0, 40, 15
1, 403536, Note_on_c, 0, 48, 15
1, 403536, Note_on_c, 0, 50, 15
1, 403536, Note_on_c, 0, 52, 15
1, 403536, Note_on_c, 0, 53, 15
1, 403536, Note_on_c, 0, 55, 15
1, 403536, Note_on_c, 0, 64, 15
1, 403536, Note_on_c, 0, 65, 15
1, 403536, Note_on_c, 0, 67, 15
1, 403536, Note_on_c, 0, 69, 15
1, 403536, Note_on_c, 0, 71, 15
1, 403536, Note_on_c, 0, 72, 15
1, 403536, Note_on_c, 0, 83, 15
1, 403536, Note_on_c, 0, 81, 15
1, 403536, Note_on_c, 0, 91, 15
1, 403536, Note_on_c, 0, 89, 15
1, 403584, Note_off_c, 0, 89, 0
1, 403584, Note_off_c, 0, 91, 0
1, 403584, Note_off_c, 0, 81, 0
1, 403584, Note_off_c, 0, 83, 0
1, 403584, Note_off_c, 0, 72, 0
1, 403584, Note_off_c, 0, 71, 0
1, 403584, Note_off_c, 0, 69, 0
1, 403584, Note_off_c, 0, 67, 0
1, 403584, Note_off_c, 0, 65, 0
1, 403584, Note_off_c, 0, 64, 0
1, 403584, Note_off_c, 0, 55, 0
1, 403584, Note_off_c, 0, 53, 0
1, 403584, Note_off_c, 0, 52, 0
1, 403584, Note_off_c, 0, 50, 0
1, 403584, Note_off_c, 0, 48, 0
1, 403584, Note_off_c, 0, 40, 0
1, 403584, Note_off_c, 0, 38, 0
1, 403584, Note_off_c, 0, 31, 0
1, 403584, Note_off_c, 0, 29, 0
1, 403584, Note_on_c, 0, 31, 15
1, 403584, Note_on_c, 0, 33, 15
1, 403584, Note_on_c, 0, 38, 15
1, 403584, Note_on_c, 0, 40, 15
1, 403584, Note_on_c, 0, 35, 15
1, 403584, Note_on_c, 0, 47, 15
1, 403584, Note_on_c, 0, 48, 15
1, 403584, Note_on_c, 0, 57, 15
1, 403584, Note_on_c, 0, 55, 15
1, 403584, Note_on_c, 0, 74, 15
1, 403584, Note_on_c, 0, 72, 15
1, 403584, Note_on_c, 0, 83, 15
1, 403584, Note_on_c, 0, 81, 15
1, 403584, Note_on_c, 0, 89, 15
1, 403584, Note_on_c, 0, 91, 15
1, 403632, Note_off_c, 0, 91, 0
1, 403632, Note_off_c, 0, 89, 0
1, 403632, Note_off_c, 0, 81, 0
1, 403632, Note_off_c, 0, 83, 0
1, 403632, Note_off_c, 0, 72, 0
1, 403632, Note_off_c, 0, 74, 0
1, 403632, Note_off_c, 0, 55, 0
1, 403632, Note_off_c, 0, 57, 0
1, 403632, Note_off_c, 0, 48, 0
1, 403632, Note_off_c, 0, 47, 0
1, 403632, Note_off_c, 0, 35, 0
1, 403632, Note_off_c, 0, 40, 0
1, 403632, Note_off_c, 0, 38, 0
1, 403632, Note_off_c, 0, 33, 0
1, 403632, Note_off_c, 0, 31, 0
1, 403632, Note_on_c, 0, 35, 15
1, 403632, Note_on_c, 0, 36, 15
1, 403632, Note_on_c, 0, 38, 15
1, 403632, Note_on_c, 0, 40, 15
1, 403632, Note_on_c, 0, 47, 15
1, 403632, Note_on_c, 0, 48, 15
1, 403632, Note_on_c, 0, 57, 15
1, 403632, Note_on_c, 0, 55, 15
1, 403632, Note_on_c, 0, 74, 15
1, 403632, Note_on_c, 0, 72, 15
1, 403632, Note_on_c, 0, 81, 15
1, 403632, Note_on_c, 0, 83, 15
1, 403632, Note_on_c, 0, 91, 15
1, 403632, Note_on_c, 0, 89, 15
1, 403680, Note_off_c, 0, 89, 0
1, 403680, Note_off_c, 0, 91, 0
1, 403680, Note_off_c, 0, 83, 0
1, 403680, Note_off_c, 0, 81, 0
1, 403680, Note_off_c, 0, 72, 0
1, 403680, Note_off_c, 0, 74, 0
1, 403680, Note_off_c, 0, 55, 0
1, 403680, Note_off_c, 0, 57, 0
1, 403680, Note_off_c, 0, 48, 0
1, 403680, Note_off_c, 0, 47, 0
1, 403680, Note_off_c, 0, 40, 0
1, 403680, Note_off_c, 0, 38, 0
1, 403680, Note_off_c, 0, 36, 0
1, 403680, Note_off_c, 0, 35, 0
1, 403680, Note_on_c, 0, 40, 15
1, 403680, Note_on_c, 0, 38, 15
1, 403680, Note_on_c, 0, 31, 15
1, 403680, Note_on_c, 0, 33, 15
1, 403680, Note_on_c, 0, 35, 15
1, 403680, Note_on_c, 0, 36, 15
1, 403680, Note_on_c, 0, 47, 15
1, 403680, Note_on_c, 0, 48, 15
1, 403680, Note_on_c, 0, 57, 15
1, 403680, Note_on_c, 0, 55, 15
1, 403680, Note_on_c, 0, 72, 15
1, 403680, Note_on_c, 0, 71, 15
1, 403680, Note_on_c, 0, 69, 15
1, 403680, Note_on_c, 0, 67, 15
1, 403680, Note_on_c, 0, 65, 15
1, 403680, Note_on_c, 0, 83, 15
1, 403680, Note_on_c, 0, 81, 15
1, 403680, Note_on_c, 0, 91, 15
1, 403680, Note_on_c, 0, 89, 15
1, 403680, Note_on_c, 0, 88, 15
1, 403680, Note_on_c, 0, 86, 15
1, 403680, Note_on_c, 0, 84, 15
1, 403728, Note_off_c, 0, 84, 0
1, 403728, Note_off_c, 0, 86, 0
1, 403728, Note_off_c, 0, 88, 0
1, 403728, Note_off_c, 0, 89, 0
1, 403728, Note_off_c, 0, 91, 0
1, 403728, Note_off_c, 0, 81, 0
1, 403728, Note_off_c, 0, 83, 0
1, 403728, Note_off_c, 0, 65, 0
1, 403728, Note_off_c, 0, 67, 0
1, 403728, Note_off_c, 0, 69, 0
1, 403728, Note_off_c, 0, 71, 0
1, 403728, Note_off_c, 0, 72, 0
1, 403728, Note_off_c, 0, 55, 0
1, 403728, Note_off_c, 0, 57, 0
1, 403728, Note_off_c, 0, 48, 0
1, 403728, Note_off_c, 0, 47, 0
1, 403728, Note_off_c, 0, 36, 0
1, 403728, Note_off_c, 0, 35, 0
1, 403728, Note_off_c, 0, 33, 0
1, 403728, Note_off_c, 0, 31, 0
1, 403728, Note_off_c, 0, 38, 0
1, 403728, Note_off_c, 0, 40, 0
1, 403728, Note_on_c, 0, 40, 15
1, 403728, Note_on_c, 0, 38, 15
1, 403728, Note_on_c, 0, 31, 15
1, 403728, Note_on_c, 0, 29, 15
1, 403728, Note_on_c, 0, 47, 15
1, 403728, Note_on_c, 0, 48, 15
1, 403728, Note_on_c, 0, 57, 15
1, 403728, Note_on_c, 0, 55, 15
1, 403728, Note_on_c, 0, 65, 15
1, 403728, Note_on_c, 0, 64, 15
1, 403728, Note_on_c, 0, 83, 15
1, 403728, Note_on_c, 0, 81, 15
1, 403728, Note_on_c, 0, 91, 15
1, 403728, Note_on_c, 0, 89, 15
1, 403776, Note_off_c, 0, 89, 0
1, 403776, Note_off_c, 0, 91, 0
1, 403776, Note_off_c, 0, 81, 0
1, 403776, Note_off_c, 0, 83, 0
1, 403776, Note_off_c, 0, 64, 0
1, 403776, Note_off_c, 0, 65, 0
1, 403776, Note_off_c, 0, 55, 0
1, 403776, Note_off_c, 0, 57, 0
1, 403776, Note_off_c, 0, 48, 0
1, 403776, Note_off_c, 0, 47, 0
1, 403776, Note_off_c, 0, 29, 0
1, 403776, Note_off_c, 0, 31, 0
1, 403776, Note_off_c, 0, 38, 0
1, 403776, Note_off_c, 0, 40, 0
1, 403776, Note_on_c, 0, 40, 15
1, 403776, Note_on_c, 0, 38, 15
1, 403776, Note_on_c, 0, 31, 15
1, 403776, Note_on_c, 0, 29, 15
1, 403776, Note_on_c, 0, 47, 15
1, 403776, Note_on_c, 0, 48, 15
1, 403776, Note_on_c, 0, 57, 15
1, 403776, Note_on_c, 0, 55, 15
1, 403776, Note_on_c, 0, 65, 15
1, 403776, Note_on_c, 0, 64, 15
1, 403776, Note_on_c, 0, 83, 15
1, 403776, Note_on_c, 0, 81, 15
1, 403776, Note_on_c, 0, 91, 15
1, 403776, Note_on_c, 0, 89, 15
1, 403824, Note_off_c, 0, 89, 0
1, 403824, Note_off_c, 0, 91, 0
1, 403824, Note_off_c, 0, 81, 0
1, 403824, Note_off_c, 0, 83, 0
1, 403824, Note_off_c, 0, 64, 0
1, 403824, Note_off_c, 0, 65, 0
1, 403824, Note_off_c, 0, 55, 0
1, 403824, Note_off_c, 0, 57, 0
1, 403824, Note_off_c, 0, 48, 0
1, 403824, Note_off_c, 0, 47, 0
1, 403824, Note_off_c, 0, 29, 0
1, 403824, Note_off_c, 0, 31, 0
1, 403824, Note_off_c, 0, 38, 0
1, 403824, Note_off_c, 0, 40, 0
1, 403824, Note_on_c, 0, 40, 15
1, 403824, Note_on_c, 0, 38, 15
1, 403824, Note_on_c, 0, 36, 15
1, 403824, Note_on_c, 0, 35, 15
1, 403824, Note_on_c, 0, 33, 15
1, 403824, Note_on_c, 0, 31, 15
1, 403824, Note_on_c, 0, 47, 15
1, 403824, Note_on_c, 0, 48, 15
1, 403824, Note_on_c, 0, 57, 15
1, 403824, Note_on_c, 0, 55, 15
1, 403824, Note_on_c, 0, 65, 15
1, 403824, Note_on_c, 0, 67, 15
1, 403824, Note_on_c, 0, 69, 15
1, 403824, Note_on_c, 0, 71, 15
1, 403824, Note_on_c, 0, 72, 15
1, 403824, Note_on_c, 0, 74, 15
1, 403824, Note_on_c, 0, 83, 15
1, 403824, Note_on_c, 0, 81, 15
1, 403824, Note_on_c, 0, 89, 15
1, 403824, Note_on_c, 0, 91, 15
1, 403872, Note_off_c, 0, 91, 0
1, 403872, Note_off_c, 0, 89, 0
1, 403872, Note_off_c, 0, 81, 0
1, 403872, Note_off_c, 0, 83, 0
1, 403872, Note_off_c, 0, 74, 0
1, 403872, Note_off_c, 0, 72, 0
1, 403872, Note_off_c, 0, 71, 0
1, 403872, Note_off_c, 0, 69, 0
1, 403872, Note_off_c, 0, 67, 0
1, 403872, Note_off_c, 0, 65, 0
1, 403872, Note_off_c, 0, 55, 0
1, 403872, Note_off_c, 0, 57, 0
1, 403872, Note_off_c, 0, 48, 0
1, 403872, Note_off_c, 0, 47, 0
1, 403872, Note_off_c, 0, 31, 0
1, 403872, Note_off_c, 0, 33, 0
1, 403872, Note_off_c, 0, 35, 0
1, 403872, Note_off_c, 0, 36, 0
1, 403872, Note_off_c, 0, 38, 0
1, 403872, Note_off_c, 0, 40, 0
1, 404400, Note_on_c, 0, 55, 15
1, 404400, Note_on_c, 0, 57, 15
1, 404400, Note_on_c, 0, 59, 15
1, 404400, Note_on_c, 0, 60, 15
1, 404400, Note_on_c, 0, 62, 15
1, 404400, Note_on_c, 0, 64, 15
1, 404400, Note_on_c, 0, 65, 15
1, 404448, Note_off_c, 0, 65, 0
1, 404448, Note_off_c, 0, 64, 0
1, 404448, Note_off_c, 0, 62, 0
1, 404448, Note_off_c, 0, 60, 0
1, 404448, Note_off_c, 0, 59, 0
1, 404448, Note_off_c, 0, 57, 0
1, 404448, Note_off_c, 0, 55, 0
1, 404448, Note_on_c, 0, 64, 15
1, 404448, Note_on_c, 0, 65, 15
1, 404496, Note_off_c, 0, 65, 0
1, 404496, Note_off_c, 0, 64, 0
1, 404496, Note_on_c, 0, 64, 15
1, 404496, Note_on_c, 0, 65, 15
1, 404544, Note_off_c, 0, 65, 0
1, 404544, Note_off_c, 0, 64, 0
1, 404544, Note_on_c, 0, 55, 15
1, 404544, Note_on_c, 0, 57, 15
1, 404544, Note_on_c, 0, 59, 15
1, 404544, Note_on_c, 0, 60, 15
1, 404544, Note_on_c, 0, 62, 15
1, 404544, Note_on_c, 0, 64, 15
1, 404544, Note_on_c, 0, 65, 15
1, 404592, Note_off_c, 0, 65, 0
1, 404592, Note_off_c, 0, 64, 0
1, 404592, Note_off_c, 0, 62, 0
1, 404592, Note_off_c, 0, 60, 0
1, 404592, Note_off_c, 0, 59, 0
1, 404592, Note_off_c, 0, 57, 0
1, 404592, Note_off_c, 0, 55, 0
1, 404592, Note_on_c, 0, 64, 15
1, 404592, Note_on_c, 0, 65, 15
1, 404640, Note_off_c, 0, 65, 0
1, 404640, Note_off_c, 0, 64, 0
1, 404640, Note_on_c, 0, 64, 15
1, 404640, Note_on_c, 0, 65, 15
1, 404688, Note_off_c, 0, 65, 0
1, 404688, Note_off_c, 0, 64, 0
1, 404688, Note_on_c, 0, 55, 15
1, 404688, Note_on_c, 0, 57, 15
1, 404688, Note_on_c, 0, 59, 15
1, 404688, Note_on_c, 0, 60, 15
1, 404688, Note_on_c, 0, 62, 15
1, 404688, Note_on_c, 0, 64, 15
1, 404688, Note_on_c, 0, 65, 15
1, 404736, Note_off_c, 0, 65, 0
1, 404736, Note_off_c, 0, 64, 0
1, 404736, Note_off_c, 0, 62, 0
1, 404736, Note_off_c, 0, 60, 0
1, 404736, Note_off_c, 0, 59, 0
1, 404736, Note_off_c, 0, 57, 0
1, 404736, Note_off_c, 0, 55, 0
1, 405504, Note_on_c, 0, 76, 50
1, 405504, Note_on_c, 0, 64, 50
1, 405504, Note_on_c, 0, 60, 50
1, 405504, Note_on_c, 0, 57, 50
1, 405504, Note_on_c, 0, 72, 50
1, 405504, Note_on_c, 0, 69, 50
1, 405504, Note_on_c, 0, 24, 44
1, 405504, Note_on_c, 0, 26, 44
1, 405504, Note_on_c, 0, 25, 44
1, 405504, Note_on_c, 0, 27, 44
1, 405504, Note_on_c, 0, 28, 44
1, 405504, Note_on_c, 0, 30, 44
1, 405504, Note_on_c, 0, 29, 44
1, 405504, Note_on_c, 0, 31, 44
1, 405504, Note_on_c, 0, 32, 44
1, 405504, Note_on_c, 0, 33, 89
1, 405504, Note_on_c, 0, 45, 89
1, 405696, Note_off_c, 0, 32, 0
1, 405696, Note_off_c, 0, 31, 0
1, 405696, Note_off_c, 0, 29, 0
1, 405696, Note_off_c, 0, 30, 0
1, 405696, Note_off_c, 0, 28, 0
1, 405696, Note_off_c, 0, 27, 0
1, 405696, Note_off_c, 0, 25, 0
1, 405696, Note_off_c, 0, 26, 0
1, 405696, Note_off_c, 0, 24, 0
1, 405696, Note_off_c, 0, 69, 0
1, 405696, Note_off_c, 0, 72, 0
1, 405696, Note_off_c, 0, 57, 0
1, 405696, Note_off_c, 0, 60, 0
1, 405696, Note_off_c, 0, 64, 0
1, 405696, Note_off_c, 0, 76, 0
1, 405888, Note_on_c, 0, 76, 50
1, 405888, Note_on_c, 0, 64, 50
1, 405888, Note_on_c, 0, 60, 50
1, 405888, Note_on_c, 0, 57, 50
1, 405888, Note_on_c, 0, 72, 50
1, 405888, Note_on_c, 0, 69, 50
1, 406080, Note_off_c, 0, 69, 0
1, 406080, Note_off_c, 0, 72, 0
1, 406080, Note_off_c, 0, 57, 0
1, 406080, Note_off_c, 0, 60, 0
1, 406080, Note_off_c, 0, 64, 0
1, 406080, Note_off_c, 0, 76, 0
1, 406272, Note_off_c, 0, 45, 0
1, 406272, Note_off_c, 0, 33, 0
1, 406272, Note_on_c, 0, 76, 50
1, 406272, Note_on_c, 0, 64, 50
1, 406272, Note_on_c, 0, 60, 50
1, 406272, Note_on_c, 0, 57, 50
1, 406272, Note_on_c, 0, 72, 50
1, 406272, Note_on_c, 0, 69, 50
1, 406272, Note_on_c, 0, 52, 89
1, 406272, Note_on_c, 0, 48, 89
1, 406272, Note_on_c, 0, 57, 54
1, 406272, Note_on_c, 0, 60, 54
1, 406272, Note_on_c, 0, 64, 54
1, 406272, Note_on_c, 0, 69, 54
1, 406464, Note_off_c, 0, 69, 0
1, 406464, Note_off_c, 0, 64, 0
1, 406464, Note_off_c, 0, 60, 0
1, 406464, Note_off_c, 0, 57, 0
1, 406464, Note_off_c, 0, 48, 0
1, 406464, Note_off_c, 0, 52, 0
1, 406464, Note_off_c, 0, 69, 0
1, 406464, Note_off_c, 0, 72, 0
1, 406464, Note_off_c, 0, 57, 0
1, 406464, Note_off_c, 0, 60, 0
1, 406464, Note_off_c, 0, 64, 0
1, 406464, Note_off_c, 0, 76, 0
1, 406656, Note_on_c, 0, 76, 50
1, 406656, Note_on_c, 0, 64, 50
1, 406656, Note_on_c, 0, 60, 50
1, 406656, Note_on_c, 0, 57, 50
1, 406656, Note_on_c, 0, 72, 50
1, 406656, Note_on_c, 0, 69, 50
1, 406848, Note_off_c, 0, 69, 0
1, 406848, Note_off_c, 0, 72, 0
1, 406848, Note_off_c, 0, 57, 0
1, 406848, Note_off_c, 0, 60, 0
1, 406848, Note_off_c, 0, 64, 0
1, 406848, Note_off_c, 0, 76, 0
1, 407040, Note_on_c, 0, 76, 50
1, 407040, Note_on_c, 0, 64, 50
1, 407040, Note_on_c, 0, 60, 50
1, 407040, Note_on_c, 0, 57, 50
1, 407040, Note_on_c, 0, 72, 50
1, 407040, Note_on_c, 0, 69, 50
1, 407040, Note_on_c, 0, 33, 44
1, 407040, Note_on_c, 0, 35, 44
1, 407040, Note_on_c, 0, 34, 44
1, 407040, Note_on_c, 0, 36, 44
1, 407040, Note_on_c, 0, 37, 44
1, 407040, Note_on_c, 0, 39, 44
1, 407040, Note_on_c, 0, 38, 44
1, 407040, Note_on_c, 0, 40, 44
1, 407040, Note_on_c, 0, 41, 44
1, 407040, Note_on_c, 0, 28, 89
1, 407040, Note_on_c, 0, 40, 89
1, 407232, Note_off_c, 0, 41, 0
1, 407232, Note_off_c, 0, 40, 0
1, 407232, Note_off_c, 0, 38, 0
1, 407232, Note_off_c, 0, 39, 0
1, 407232, Note_off_c, 0, 37, 0
1, 407232, Note_off_c, 0, 36, 0
1, 407232, Note_off_c, 0, 34, 0
1, 407232, Note_off_c, 0, 35, 0
1, 407232, Note_off_c, 0, 33, 0
1, 407232, Note_off_c, 0, 69, 0
1, 407232, Note_off_c, 0, 72, 0
1, 407232, Note_off_c, 0, 57, 0
1, 407232, Note_off_c, 0, 60, 0
1, 407232, Note_off_c, 0, 64, 0
1, 407232, Note_off_c, 0, 76, 0
1, 407424, Note_on_c, 0, 76, 50
1, 407424, Note_on_c, 0, 64, 50
1, 407424, Note_on_c, 0, 60, 50
1, 407424, Note_on_c, 0, 57, 50
1, 407424, Note_on_c, 0, 72, 50
1, 407424, Note_on_c, 0, 69, 50
1, 407616, Note_off_c, 0, 69, 0
1, 407616, Note_off_c, 0, 72, 0
1, 407616, Note_off_c, 0, 57, 0
1, 407616, Note_off_c, 0, 60, 0
1, 407616, Note_off_c, 0, 64, 0
1, 407616, Note_off_c, 0, 76, 0
1, 407808, Note_off_c, 0, 40, 0
1, 407808, Note_off_c, 0, 28, 0
1, 407808, Note_on_c, 0, 76, 50
1, 407808, Note_on_c, 0, 64, 50
1, 407808, Note_on_c, 0, 60, 50
1, 407808, Note_on_c, 0, 57, 50
1, 407808, Note_on_c, 0, 72, 50
1, 407808, Note_on_c, 0, 69, 50
1, 407808, Note_on_c, 0, 48, 89
1, 407808, Note_on_c, 0, 52, 89
1, 407808, Note_on_c, 0, 60, 54
1, 407808, Note_on_c, 0, 64, 54
1, 407808, Note_on_c, 0, 57, 54
1, 407808, Note_on_c, 0, 69, 54
1, 408000, Note_off_c, 0, 69, 0
1, 408000, Note_off_c, 0, 57, 0
1, 408000, Note_off_c, 0, 64, 0
1, 408000, Note_off_c, 0, 60, 0
1, 408000, Note_off_c, 0, 52, 0
1, 408000, Note_off_c, 0, 48, 0
1, 408000, Note_off_c, 0, 69, 0
1, 408000, Note_off_c, 0, 72, 0
1, 408000, Note_off_c, 0, 57, 0
1, 408000, Note_off_c, 0, 60, 0
1, 408000, Note_off_c, 0, 64, 0
1, 408000, Note_off_c, 0, 76, 0
1, 408192, Note_on_c, 0, 76, 50
1, 408192, Note_on_c, 0, 64, 50
1, 408192, Note_on_c, 0, 60, 50
1, 408192, Note_on_c, 0, 57, 50
1, 408192, Note_on_c, 0, 72, 50
1, 408192, Note_on_c, 0, 69, 50
1, 408384, Note_off_c, 0, 69, 0
1, 408384, Note_off_c, 0, 72, 0
1, 408384, Note_off_c, 0, 57, 0
1, 408384, Note_off_c, 0, 60, 0
1, 408384, Note_off_c, 0, 64, 0
1, 408384, Note_off_c, 0, 76, 0
1, 408576, Note_on_c, 0, 76, 50
1, 408576, Note_on_c, 0, 64, 50
1, 408576, Note_on_c, 0, 60, 50
1, 408576, Note_on_c, 0, 57, 50
1, 408576, Note_on_c, 0, 72, 50
1, 408576, Note_on_c, 0, 69, 50
1, 408576, Note_on_c, 0, 24, 44
1, 408576, Note_on_c, 0, 26, 44
1, 408576, Note_on_c, 0, 25, 44
1, 408576, Note_on_c, 0, 27, 44
1, 408576, Note_on_c, 0, 28, 44
1, 408576, Note_on_c, 0, 30, 44
1, 408576, Note_on_c, 0, 29, 44
1, 408576, Note_on_c, 0, 31, 44
1, 408576, Note_on_c, 0, 32, 44
1, 408576, Note_on_c, 0, 33, 89
1, 408576, Note_on_c, 0, 45, 89
1, 408768, Note_off_c, 0, 32, 0
1, 408768, Note_off_c, 0, 31, 0
1, 408768, Note_off_c, 0, 29, 0
1, 408768, Note_off_c, 0, 30, 0
1, 408768, Note_off_c, 0, 28, 0
1, 408768, Note_off_c, 0, 27, 0
1, 408768, Note_off_c, 0, 25, 0
1, 408768, Note_off_c, 0, 26, 0
1, 408768, Note_off_c, 0, 24, 0
1, 408768, Note_off_c, 0, 69, 0
1, 408768, Note_off_c, 0, 72, 0
1, 408768, Note_off_c, 0, 57, 0
1, 408768, Note_off_c, 0, 60, 0
1, 408768, Note_off_c, 0, 64, 0
1, 408768, Note_off_c, 0, 76, 0
1, 408960, Note_on_c, 0, 76, 50
1, 408960, Note_on_c, 0, 64, 50
1, 408960, Note_on_c, 0, 60, 50
1, 408960, Note_on_c, 0, 57, 50
1, 408960, Note_on_c, 0, 72, 50
1, 408960, Note_on_c, 0, 69, 50
1, 409152, Note_off_c, 0, 69, 0
1, 409152, Note_off_c, 0, 72, 0
1, 409152, Note_off_c, 0, 57, 0
1, 409152, Note_off_c, 0, 60, 0
1, 409152, Note_off_c, 0, 64, 0
1, 409152, Note_off_c, 0, 76, 0
1, 409344, Note_off_c, 0, 45, 0
1, 409344, Note_off_c, 0, 33, 0
1, 409344, Note_on_c, 0, 76, 50
1, 409344, Note_on_c, 0, 64, 50
1, 409344, Note_on_c, 0, 60, 50
1, 409344, Note_on_c, 0, 57, 50
1, 409344, Note_on_c, 0, 72, 50
1, 409344, Note_on_c, 0, 69, 50
1, 409344, Note_on_c, 0, 52, 89
1, 409344, Note_on_c, 0, 48, 89
1, 409344, Note_on_c, 0, 64, 54
1, 409344, Note_on_c, 0, 60, 54
1, 409344, Note_on_c, 0, 57, 54
1, 409344, Note_on_c, 0, 69, 54
1, 409536, Note_off_c, 0, 69, 0
1, 409536, Note_off_c, 0, 57, 0
1, 409536, Note_off_c, 0, 60, 0
1, 409536, Note_off_c, 0, 64, 0
1, 409536, Note_off_c, 0, 48, 0
1, 409536, Note_off_c, 0, 52, 0
1, 409536, Note_off_c, 0, 69, 0
1, 409536, Note_off_c, 0, 72, 0
1, 409536, Note_off_c, 0, 57, 0
1, 409536, Note_off_c, 0, 60, 0
1, 409536, Note_off_c, 0, 64, 0
1, 409536, Note_off_c, 0, 76, 0
1, 409728, Note_on_c, 0, 76, 50
1, 409728, Note_on_c, 0, 64, 50
1, 409728, Note_on_c, 0, 60, 50
1, 409728, Note_on_c, 0, 57, 50
1, 409728, Note_on_c, 0, 72, 50
1, 409728, Note_on_c, 0, 69, 50
1, 409920, Note_off_c, 0, 69, 0
1, 409920, Note_off_c, 0, 72, 0
1, 409920, Note_off_c, 0, 57, 0
1, 409920, Note_off_c, 0, 60, 0
1, 409920, Note_off_c, 0, 64, 0
1, 409920, Note_off_c, 0, 76, 0
1, 410112, Note_on_c, 0, 76, 50
1, 410112, Note_on_c, 0, 64, 50
1, 410112, Note_on_c, 0, 60, 50
1, 410112, Note_on_c, 0, 57, 50
1, 410112, Note_on_c, 0, 72, 50
1, 410112, Note_on_c, 0, 69, 50
1, 410112, Note_on_c, 0, 33, 44
1, 410112, Note_on_c, 0, 35, 44
1, 410112, Note_on_c, 0, 34, 44
1, 410112, Note_on_c, 0, 36, 44
1, 410112, Note_on_c, 0, 37, 44
1, 410112, Note_on_c, 0, 39, 44
1, 410112, Note_on_c, 0, 38, 44
1, 410112, Note_on_c, 0, 40, 44
1, 410112, Note_on_c, 0, 41, 44
1, 410112, Note_on_c, 0, 28, 89
1, 410112, Note_on_c, 0, 40, 89
1, 410112, Note_on_c, 0, 88, 15
1, 410208, Note_off_c, 0, 88, 0
1, 410304, Note_off_c, 0, 41, 0
1, 410304, Note_off_c, 0, 40, 0
1, 410304, Note_off_c, 0, 38, 0
1, 410304, Note_off_c, 0, 39, 0
1, 410304, Note_off_c, 0, 37, 0
1, 410304, Note_off_c, 0, 36, 0
1, 410304, Note_off_c, 0, 34, 0
1, 410304, Note_off_c, 0, 35, 0
1, 410304, Note_off_c, 0, 33, 0
1, 410304, Note_off_c, 0, 69, 0
1, 410304, Note_off_c, 0, 72, 0
1, 410304, Note_off_c, 0, 57, 0
1, 410304, Note_off_c, 0, 60, 0
1, 410304, Note_off_c, 0, 64, 0
1, 410304, Note_off_c, 0, 76, 0
1, 410304, Note_on_c, 0, 88, 15
1, 410400, Note_off_c, 0, 88, 0
1, 410496, Note_on_c, 0, 76, 50
1, 410496, Note_on_c, 0, 64, 50
1, 410496, Note_on_c, 0, 60, 50
1, 410496, Note_on_c, 0, 57, 50
1, 410496, Note_on_c, 0, 72, 50
1, 410496, Note_on_c, 0, 69, 50
1, 410496, Note_on_c, 0, 88, 15
1, 410592, Note_off_c, 0, 88, 0
1, 410688, Note_off_c, 0, 69, 0
1, 410688, Note_off_c, 0, 72, 0
1, 410688, Note_off_c, 0, 57, 0
1, 410688, Note_off_c, 0, 60, 0
1, 410688, Note_off_c, 0, 64, 0
1, 410688, Note_off_c, 0, 76, 0
1, 410688, Note_on_c, 0, 88, 15
1, 410784, Note_off_c, 0, 88, 0
1, 410880, Note_off_c, 0, 40, 0
1, 410880, Note_off_c, 0, 28, 0
1, 410880, Note_on_c, 0, 76, 50
1, 410880, Note_on_c, 0, 64, 50
1, 410880, Note_on_c, 0, 60, 50
1, 410880, Note_on_c, 0, 57, 50
1, 410880, Note_on_c, 0, 72, 50
1, 410880, Note_on_c, 0, 69, 50
1, 410880, Note_on_c, 0, 48, 89
1, 410880, Note_on_c, 0, 52, 89
1, 410880, Note_on_c, 0, 88, 25
1, 410880, Note_on_c, 0, 64, 54
1, 410880, Note_on_c, 0, 60, 54
1, 410880, Note_on_c, 0, 57, 54
1, 410880, Note_on_c, 0, 69, 54
1, 410976, Note_off_c, 0, 88, 0
1, 411072, Note_off_c, 0, 69, 0
1, 411072, Note_off_c, 0, 57, 0
1, 411072, Note_off_c, 0, 60, 0
1, 411072, Note_off_c, 0, 64, 0
1, 411072, Note_off_c, 0, 52, 0
1, 411072, Note_off_c, 0, 48, 0
1, 411072, Note_off_c, 0, 69, 0
1, 411072, Note_off_c, 0, 72, 0
1, 411072, Note_off_c, 0, 57, 0
1, 411072, Note_off_c, 0, 60, 0
1, 411072, Note_off_c, 0, 64, 0
1, 411072, Note_off_c, 0, 76, 0
1, 411072, Note_on_c, 0, 88, 25
1, 411168, Note_off_c, 0, 88, 0
1, 411264, Note_on_c, 0, 76, 50
1, 411264, Note_on_c, 0, 64, 50
1, 411264, Note_on_c, 0, 60, 50
1, 411264, Note_on_c, 0, 57, 50
1, 411264, Note_on_c, 0, 72, 50
1, 411264, Note_on_c, 0, 69, 50
1, 411264, Note_on_c, 0, 88, 25
1, 411360, Note_off_c, 0, 88, 0
1, 411456, Note_off_c, 0, 69, 0
1, 411456, Note_off_c, 0, 72, 0
1, 411456, Note_off_c, 0, 57, 0
1, 411456, Note_off_c, 0, 60, 0
1, 411456, Note_off_c, 0, 64, 0
1, 411456, Note_off_c, 0, 76, 0
1, 411456, Note_on_c, 0, 88, 25
1, 411552, Note_off_c, 0, 88, 0
1, 411648, Note_on_c, 0, 76, 50
1, 411648, Note_on_c, 0, 64, 50
1, 411648, Note_on_c, 0, 60, 50
1, 411648, Note_on_c, 0, 57, 50
1, 411648, Note_on_c, 0, 72, 50
1, 411648, Note_on_c, 0, 69, 50
1, 411648, Note_on_c, 0, 24, 44
1, 411648, Note_on_c, 0, 26, 44
1, 411648, Note_on_c, 0, 25, 44
1, 411648, Note_on_c, 0, 27, 44
1, 411648, Note_on_c, 0, 28, 44
1, 411648, Note_on_c, 0, 30, 44
1, 411648, Note_on_c, 0, 29, 44
1, 411648, Note_on_c, 0, 31, 44
1, 411648, Note_on_c, 0, 32, 44
1, 411648, Note_on_c, 0, 33, 89
1, 411648, Note_on_c, 0, 45, 89
1, 411648, Note_on_c, 0, 88, 34
1, 411744, Note_off_c, 0, 88, 0
1, 411840, Note_off_c, 0, 32, 0
1, 411840, Note_off_c, 0, 31, 0
1, 411840, Note_off_c, 0, 29, 0
1, 411840, Note_off_c, 0, 30, 0
1, 411840, Note_off_c, 0, 28, 0
1, 411840, Note_off_c, 0, 27, 0
1, 411840, Note_off_c, 0, 25, 0
1, 411840, Note_off_c, 0, 26, 0
1, 411840, Note_off_c, 0, 24, 0
1, 411840, Note_off_c, 0, 69, 0
1, 411840, Note_off_c, 0, 72, 0
1, 411840, Note_off_c, 0, 57, 0
1, 411840, Note_off_c, 0, 60, 0
1, 411840, Note_off_c, 0, 64, 0
1, 411840, Note_off_c, 0, 76, 0
1, 411840, Note_on_c, 0, 88, 34
1, 411936, Note_off_c, 0, 88, 0
1, 412032, Note_on_c, 0, 76, 50
1, 412032, Note_on_c, 0, 64, 50
1, 412032, Note_on_c, 0, 60, 50
1, 412032, Note_on_c, 0, 57, 50
1, 412032, Note_on_c, 0, 72, 50
1, 412032, Note_on_c, 0, 69, 50
1, 412032, Note_on_c, 0, 88, 34
1, 412128, Note_off_c, 0, 88, 0
1, 412224, Note_off_c, 0, 69, 0
1, 412224, Note_off_c, 0, 72, 0
1, 412224, Note_off_c, 0, 57, 0
1, 412224, Note_off_c, 0, 60, 0
1, 412224, Note_off_c, 0, 64, 0
1, 412224, Note_off_c, 0, 76, 0
1, 412224, Note_on_c, 0, 88, 34
1, 412320, Note_off_c, 0, 88, 0
1, 412416, Note_off_c, 0, 45, 0
1, 412416, Note_off_c, 0, 33, 0
1, 412416, Note_on_c, 0, 76, 50
1, 412416, Note_on_c, 0, 64, 50
1, 412416, Note_on_c, 0, 60, 50
1, 412416, Note_on_c, 0, 57, 50
1, 412416, Note_on_c, 0, 72, 50
1, 412416, Note_on_c, 0, 69, 50
1, 412416, Note_on_c, 0, 52, 89
1, 412416, Note_on_c, 0, 48, 89
1, 412416, Note_on_c, 0, 88, 44
1, 412416, Note_on_c, 0, 57, 54
1, 412416, Note_on_c, 0, 60, 54
1, 412416, Note_on_c, 0, 64, 54
1, 412416, Note_on_c, 0, 69, 54
1, 412512, Note_off_c, 0, 88, 0
1, 412608, Note_off_c, 0, 69, 0
1, 412608, Note_off_c, 0, 64, 0
1, 412608, Note_off_c, 0, 60, 0
1, 412608, Note_off_c, 0, 57, 0
1, 412608, Note_off_c, 0, 48, 0
1, 412608, Note_off_c, 0, 52, 0
1, 412608, Note_off_c, 0, 69, 0
1, 412608, Note_off_c, 0, 72, 0
1, 412608, Note_off_c, 0, 57, 0
1, 412608, Note_off_c, 0, 60, 0
1, 412608, Note_off_c, 0, 64, 0
1, 412608, Note_off_c, 0, 76, 0
1, 412608, Note_on_c, 0, 88, 44
1, 412704, Note_off_c, 0, 88, 0
1, 412800, Note_on_c, 0, 76, 50
1, 412800, Note_on_c, 0, 64, 50
1, 412800, Note_on_c, 0, 60, 50
1, 412800, Note_on_c, 0, 57, 50
1, 412800, Note_on_c, 0, 72, 50
1, 412800, Note_on_c, 0, 69, 50
1, 412800, Note_on_c, 0, 88, 44
1, 412896, Note_off_c, 0, 88, 0
1, 412992, Note_off_c, 0, 69, 0
1, 412992, Note_off_c, 0, 72, 0
1, 412992, Note_off_c, 0, 57, 0
1, 412992, Note_off_c, 0, 60, 0
1, 412992, Note_off_c, 0, 64, 0
1, 412992, Note_off_c, 0, 76, 0
1, 412992, Note_on_c, 0, 88, 44
1, 413088, Note_off_c, 0, 88, 0
1, 413184, Note_on_c, 0, 76, 50
1, 413184, Note_on_c, 0, 64, 50
1, 413184, Note_on_c, 0, 60, 50
1, 413184, Note_on_c, 0, 57, 50
1, 413184, Note_on_c, 0, 72, 50
1, 413184, Note_on_c, 0, 69, 50
1, 413184, Note_on_c, 0, 33, 44
1, 413184, Note_on_c, 0, 35, 44
1, 413184, Note_on_c, 0, 34, 44
1, 413184, Note_on_c, 0, 36, 44
1, 413184, Note_on_c, 0, 37, 44
1, 413184, Note_on_c, 0, 39, 44
1, 413184, Note_on_c, 0, 38, 44
1, 413184, Note_on_c, 0, 40, 44
1, 413184, Note_on_c, 0, 41, 44
1, 413184, Note_on_c, 0, 28, 89
1, 413184, Note_on_c, 0, 40, 89
1, 413184, Note_on_c, 0, 88, 50
1, 413280, Note_off_c, 0, 88, 0
1, 413376, Note_off_c, 0, 41, 0
1, 413376, Note_off_c, 0, 40, 0
1, 413376, Note_off_c, 0, 38, 0
1, 413376, Note_off_c, 0, 39, 0
1, 413376, Note_off_c, 0, 37, 0
1, 413376, Note_off_c, 0, 36, 0
1, 413376, Note_off_c, 0, 34, 0
1, 413376, Note_off_c, 0, 35, 0
1, 413376, Note_off_c, 0, 33, 0
1, 413376, Note_off_c, 0, 69, 0
1, 413376, Note_off_c, 0, 72, 0
1, 413376, Note_off_c, 0, 57, 0
1, 413376, Note_off_c, 0, 60, 0
1, 413376, Note_off_c, 0, 64, 0
1, 413376, Note_off_c, 0, 76, 0
1, 413376, Note_on_c, 0, 88, 30
1, 413472, Note_off_c, 0, 88, 0
1, 413568, Note_on_c, 0, 77, 50
1, 413568, Note_on_c, 0, 65, 50
1, 413568, Note_on_c, 0, 62, 50
1, 413568, Note_on_c, 0, 57, 50
1, 413568, Note_on_c, 0, 74, 50
1, 413568, Note_on_c, 0, 69, 50
1, 413568, Note_on_c, 0, 88, 30
1, 413664, Note_off_c, 0, 88, 0
1, 413760, Note_off_c, 0, 69, 0
1, 413760, Note_off_c, 0, 74, 0
1, 413760, Note_off_c, 0, 57, 0
1, 413760, Note_off_c, 0, 62, 0
1, 413760, Note_off_c, 0, 65, 0
1, 413760, Note_off_c, 0, 77, 0
1, 413760, Note_on_c, 0, 88, 30
1, 413856, Note_off_c, 0, 88, 0
1, 413952, Note_off_c, 0, 40, 0
1, 413952, Note_off_c, 0, 28, 0
1, 413952, Note_on_c, 0, 76, 50
1, 413952, Note_on_c, 0, 64, 50
1, 413952, Note_on_c, 0, 60, 50
1, 413952, Note_on_c, 0, 57, 50
1, 413952, Note_on_c, 0, 72, 50
1, 413952, Note_on_c, 0, 69, 50
1, 413952, Note_on_c, 0, 48, 89
1, 413952, Note_on_c, 0, 52, 89
1, 413952, Note_on_c, 0, 57, 54
1, 413952, Note_on_c, 0, 60, 54
1, 413952, Note_on_c, 0, 64, 54
1, 413952, Note_on_c, 0, 69, 54
1, 414144, Note_off_c, 0, 69, 0
1, 414144, Note_off_c, 0, 64, 0
1, 414144, Note_off_c, 0, 60, 0
1, 414144, Note_off_c, 0, 57, 0
1, 414144, Note_off_c, 0, 52, 0
1, 414144, Note_off_c, 0, 48, 0
1, 414144, Note_off_c, 0, 69, 0
1, 414144, Note_off_c, 0, 72, 0
1, 414144, Note_off_c, 0, 57, 0
1, 414144, Note_off_c, 0, 60, 0
1, 414144, Note_off_c, 0, 64, 0
1, 414144, Note_off_c, 0, 76, 0
1, 414336, Note_on_c, 0, 75, 50
1, 414336, Note_on_c, 0, 63, 50
1, 414336, Note_on_c, 0, 59, 50
1, 414336, Note_on_c, 0, 57, 50
1, 414336, Note_on_c, 0, 71, 50
1, 414336, Note_on_c, 0, 69, 50
1, 414528, Note_off_c, 0, 69, 0
1, 414528, Note_off_c, 0, 71, 0
1, 414528, Note_off_c, 0, 57, 0
1, 414528, Note_off_c, 0, 59, 0
1, 414528, Note_off_c, 0, 63, 0
1, 414528, Note_off_c, 0, 75, 0
1, 414720, Note_on_c, 0, 24, 44
1, 414720, Note_on_c, 0, 26, 44
1, 414720, Note_on_c, 0, 25, 44
1, 414720, Note_on_c, 0, 27, 44
1, 414720, Note_on_c, 0, 28, 44
1, 414720, Note_on_c, 0, 30, 44
1, 414720, Note_on_c, 0, 29, 44
1, 414720, Note_on_c, 0, 31, 44
1, 414720, Note_on_c, 0, 32, 44
1, 414720, Note_on_c, 0, 33, 89
1, 414720, Note_on_c, 0, 45, 89
1, 414720, Note_on_c, 0, 76, 50
1, 414720, Note_on_c, 0, 64, 50
1, 414720, Note_on_c, 0, 60, 50
1, 414720, Note_on_c, 0, 57, 50
1, 414720, Note_on_c, 0, 72, 50
1, 414720, Note_on_c, 0, 69, 50
1, 414912, Note_off_c, 0, 69, 0
1, 414912, Note_off_c, 0, 72, 0
1, 414912, Note_off_c, 0, 57, 0
1, 414912, Note_off_c, 0, 60, 0
1, 414912, Note_off_c, 0, 64, 0
1, 414912, Note_off_c, 0, 76, 0
1, 414912, Note_off_c, 0, 32, 0
1, 414912, Note_off_c, 0, 31, 0
1, 414912, Note_off_c, 0, 29, 0
1, 414912, Note_off_c, 0, 30, 0
1, 414912, Note_off_c, 0, 28, 0
1, 414912, Note_off_c, 0, 27, 0
1, 414912, Note_off_c, 0, 25, 0
1, 414912, Note_off_c, 0, 26, 0
1, 414912, Note_off_c, 0, 24, 0
1, 415488, Note_off_c, 0, 45, 0
1, 415488, Note_off_c, 0, 33, 0
1, 415488, Note_on_c, 0, 52, 89
1, 415488, Note_on_c, 0, 48, 89
1, 415488, Note_on_c, 0, 81, 50
1, 415488, Note_on_c, 0, 69, 50
1, 415488, Note_on_c, 0, 64, 50
1, 415488, Note_on_c, 0, 60, 50
1, 415488, Note_on_c, 0, 76, 50
1, 415488, Note_on_c, 0, 72, 50
1, 415488, Note_on_c, 0, 69, 54
1, 415488, Note_on_c, 0, 64, 54
1, 415488, Note_on_c, 0, 60, 54
1, 415488, Note_on_c, 0, 57, 54
1, 415680, Note_off_c, 0, 57, 0
1, 415680, Note_off_c, 0, 60, 0
1, 415680, Note_off_c, 0, 64, 0
1, 415680, Note_off_c, 0, 69, 0
1, 415680, Note_off_c, 0, 72, 0
1, 415680, Note_off_c, 0, 76, 0
1, 415680, Note_off_c, 0, 60, 0
1, 415680, Note_off_c, 0, 64, 0
1, 415680, Note_off_c, 0, 69, 0
1, 415680, Note_off_c, 0, 81, 0
1, 415680, Note_off_c, 0, 48, 0
1, 415680, Note_off_c, 0, 52, 0
1, 416256, Note_on_c, 0, 33, 44
1, 416256, Note_on_c, 0, 35, 44
1, 416256, Note_on_c, 0, 34, 44
1, 416256, Note_on_c, 0, 36, 44
1, 416256, Note_on_c, 0, 37, 44
1, 416256, Note_on_c, 0, 39, 44
1, 416256, Note_on_c, 0, 38, 44
1, 416256, Note_on_c, 0, 40, 44
1, 416256, Note_on_c, 0, 41, 44
1, 416256, Note_on_c, 0, 28, 89
1, 416256, Note_on_c, 0, 40, 89
1, 416256, Note_on_c, 0, 84, 50
1, 416256, Note_on_c, 0, 72, 50
1, 416256, Note_on_c, 0, 69, 50
1, 416256, Note_on_c, 0, 64, 50
1, 416256, Note_on_c, 0, 81, 50
1, 416256, Note_on_c, 0, 76, 50
1, 416448, Note_off_c, 0, 41, 0
1, 416448, Note_off_c, 0, 40, 0
1, 416448, Note_off_c, 0, 38, 0
1, 416448, Note_off_c, 0, 39, 0
1, 416448, Note_off_c, 0, 37, 0
1, 416448, Note_off_c, 0, 36, 0
1, 416448, Note_off_c, 0, 34, 0
1, 416448, Note_off_c, 0, 35, 0
1, 416448, Note_off_c, 0, 33, 0
1, 417024, Note_off_c, 0, 40, 0
1, 417024, Note_off_c, 0, 28, 0
1, 417024, Note_on_c, 0, 48, 89
1, 417024, Note_on_c, 0, 52, 89
1, 417024, Note_on_c, 0, 69, 54
1, 417024, Note_on_c, 0, 64, 54
1, 417024, Note_on_c, 0, 60, 79
1, 417024, Note_on_c, 0, 57, 79
1, 417216, Note_off_c, 0, 57, 0
1, 417216, Note_off_c, 0, 60, 0
1, 417216, Note_off_c, 0, 64, 0
1, 417216, Note_off_c, 0, 69, 0
1, 417216, Note_off_c, 0, 52, 0
1, 417216, Note_off_c, 0, 48, 0
1, 417408, Note_off_c, 0, 76, 0
1, 417408, Note_off_c, 0, 81, 0
1, 417408, Note_off_c, 0, 64, 0
1, 417408, Note_off_c, 0, 69, 0
1, 417408, Note_off_c, 0, 72, 0
1, 417408, Note_off_c, 0, 84, 0
1, 417792, Note_on_c, 0, 24, 44
1, 417792, Note_on_c, 0, 26, 44
1, 417792, Note_on_c, 0, 25, 44
1, 417792, Note_on_c, 0, 27, 44
1, 417792, Note_on_c, 0, 28, 44
1, 417792, Note_on_c, 0, 30, 44
1, 417792, Note_on_c, 0, 29, 44
1, 417792, Note_on_c, 0, 31, 44
1, 417792, Note_on_c, 0, 32, 44
1, 417792, Note_on_c, 0, 32, 89
1, 417792, Note_on_c, 0, 44, 89
1, 417792, Note_on_c, 0, 86, 50
1, 417792, Note_on_c, 0, 74, 50
1, 417792, Note_on_c, 0, 69, 50
1, 417792, Note_on_c, 0, 65, 50
1, 417792, Note_on_c, 0, 81, 50
1, 417792, Note_on_c, 0, 77, 50
1, 417984, Note_off_c, 0, 77, 0
1, 417984, Note_off_c, 0, 81, 0
1, 417984, Note_off_c, 0, 65, 0
1, 417984, Note_off_c, 0, 69, 0
1, 417984, Note_off_c, 0, 74, 0
1, 417984, Note_off_c, 0, 86, 0
1, 417984, Note_off_c, 0, 32, 0
1, 417984, Note_off_c, 0, 31, 0
1, 417984, Note_off_c, 0, 29, 0
1, 417984, Note_off_c, 0, 30, 0
1, 417984, Note_off_c, 0, 28, 0
1, 417984, Note_off_c, 0, 27, 0
1, 417984, Note_off_c, 0, 25, 0
1, 417984, Note_off_c, 0, 26, 0
1, 417984, Note_off_c, 0, 24, 0
1, 418176, Note_on_c, 0, 86, 50
1, 418176, Note_on_c, 0, 74, 50
1, 418176, Note_on_c, 0, 69, 50
1, 418176, Note_on_c, 0, 65, 50
1, 418176, Note_on_c, 0, 81, 50
1, 418176, Note_on_c, 0, 77, 50
1, 418368, Note_off_c, 0, 77, 0
1, 418368, Note_off_c, 0, 81, 0
1, 418368, Note_off_c, 0, 65, 0
1, 418368, Note_off_c, 0, 69, 0
1, 418368, Note_off_c, 0, 74, 0
1, 418368, Note_off_c, 0, 86, 0
1, 418560, Note_off_c, 0, 44, 0
1, 418560, Note_off_c, 0, 32, 0
1, 418560, Note_on_c, 0, 56, 89
1, 418560, Note_on_c, 0, 52, 89
1, 418560, Note_on_c, 0, 86, 50
1, 418560, Note_on_c, 0, 74, 50
1, 418560, Note_on_c, 0, 69, 50
1, 418560, Note_on_c, 0, 65, 50
1, 418560, Note_on_c, 0, 81, 50
1, 418560, Note_on_c, 0, 77, 50
1, 418560, Note_on_c, 0, 59, 89
1, 418560, Note_on_c, 0, 68, 89
1, 418560, Note_on_c, 0, 64, 89
1, 418560, Note_on_c, 0, 71, 89
1, 418752, Note_off_c, 0, 71, 0
1, 418752, Note_off_c, 0, 64, 0
1, 418752, Note_off_c, 0, 68, 0
1, 418752, Note_off_c, 0, 59, 0
1, 418752, Note_off_c, 0, 77, 0
1, 418752, Note_off_c, 0, 81, 0
1, 418752, Note_off_c, 0, 65, 0
1, 418752, Note_off_c, 0, 69, 0
1, 418752, Note_off_c, 0, 74, 0
1, 418752, Note_off_c, 0, 86, 0
1, 418752, Note_off_c, 0, 52, 0
1, 418752, Note_off_c, 0, 56, 0
1, 418944, Note_on_c, 0, 86, 50
1, 418944, Note_on_c, 0, 74, 50
1, 418944, Note_on_c, 0, 69, 50
1, 418944, Note_on_c, 0, 65, 50
1, 418944, Note_on_c, 0, 81, 50
1, 418944, Note_on_c, 0, 77, 50
1, 419136, Note_off_c, 0, 77, 0
1, 419136, Note_off_c, 0, 81, 0
1, 419136, Note_off_c, 0, 65, 0
1, 419136, Note_off_c, 0, 69, 0
1, 419136, Note_off_c, 0, 74, 0
1, 419136, Note_off_c, 0, 86, 0
1, 419328, Note_on_c, 0, 33, 44
1, 419328, Note_on_c, 0, 35, 44
1, 419328, Note_on_c, 0, 34, 44
1, 419328, Note_on_c, 0, 36, 44
1, 419328, Note_on_c, 0, 37, 44
1, 419328, Note_on_c, 0, 39, 44
1, 419328, Note_on_c, 0, 38, 44
1, 419328, Note_on_c, 0, 40, 44
1, 419328, Note_on_c, 0, 41, 44
1, 419328, Note_on_c, 0, 40, 89
1, 419328, Note_on_c, 0, 86, 50
1, 419328, Note_on_c, 0, 74, 50
1, 419328, Note_on_c, 0, 69, 50
1, 419328, Note_on_c, 0, 65, 50
1, 419328, Note_on_c, 0, 81, 50
1, 419328, Note_on_c, 0, 77, 50
1, 419520, Note_off_c, 0, 77, 0
1, 419520, Note_off_c, 0, 81, 0
1, 419520, Note_off_c, 0, 65, 0
1, 419520, Note_off_c, 0, 69, 0
1, 419520, Note_off_c, 0, 74, 0
1, 419520, Note_off_c, 0, 86, 0
1, 419520, Note_off_c, 0, 41, 0
1, 419520, Note_off_c, 0, 40, 0
1, 419520, Note_off_c, 0, 38, 0
1, 419520, Note_off_c, 0, 39, 0
1, 419520, Note_off_c, 0, 37, 0
1, 419520, Note_off_c, 0, 36, 0
1, 419520, Note_off_c, 0, 34, 0
1, 419520, Note_off_c, 0, 35, 0
1, 419520, Note_off_c, 0, 33, 0
1, 419712, Note_on_c, 0, 84, 50
1, 419712, Note_on_c, 0, 72, 50
1, 419712, Note_on_c, 0, 69, 50
1, 419712, Note_on_c, 0, 64, 50
1, 419712, Note_on_c, 0, 81, 50
1, 419712, Note_on_c, 0, 76, 50
1, 419904, Note_off_c, 0, 76, 0
1, 419904, Note_off_c, 0, 81, 0
1, 419904, Note_off_c, 0, 64, 0
1, 419904, Note_off_c, 0, 69, 0
1, 419904, Note_off_c, 0, 72, 0
1, 419904, Note_off_c, 0, 84, 0
1, 420096, Note_off_c, 0, 40, 0
1, 420096, Note_on_c, 0, 52, 89
1, 420096, Note_on_c, 0, 83, 50
1, 420096, Note_on_c, 0, 71, 50
1, 420096, Note_on_c, 0, 68, 50
1, 420096, Note_on_c, 0, 62, 50
1, 420096, Note_on_c, 0, 80, 50
1, 420096, Note_on_c, 0, 74, 50
1, 420096, Note_on_c, 0, 71, 89
1, 420096, Note_on_c, 0, 68, 89
1, 420096, Note_on_c, 0, 64, 89
1, 420096, Note_on_c, 0, 59, 89
1, 420096, Note_on_c, 0, 56, 89
1, 420288, Note_off_c, 0, 56, 0
1, 420288, Note_off_c, 0, 59, 0
1, 420288, Note_off_c, 0, 64, 0
1, 420288, Note_off_c, 0, 68, 0
1, 420288, Note_off_c, 0, 71, 0
1, 420288, Note_off_c, 0, 74, 0
1, 420288, Note_off_c, 0, 80, 0
1, 420288, Note_off_c, 0, 62, 0
1, 420288, Note_off_c, 0, 68, 0
1, 420288, Note_off_c, 0, 71, 0
1, 420288, Note_off_c, 0, 83, 0
1, 420288, Note_off_c, 0, 52, 0
1, 420480, Note_on_c, 0, 86, 50
1, 420480, Note_on_c, 0, 74, 50
1, 420480, Note_on_c, 0, 69, 50
1, 420480, Note_on_c, 0, 65, 50
1, 420480, Note_on_c, 0, 81, 50
1, 420480, Note_on_c, 0, 77, 50
1, 420672, Note_off_c, 0, 77, 0
1, 420672, Note_off_c, 0, 81, 0
1, 420672, Note_off_c, 0, 65, 0
1, 420672, Note_off_c, 0, 69, 0
1, 420672, Note_off_c, 0, 74, 0
1, 420672, Note_off_c, 0, 86, 0
1, 420864, Note_on_c, 0, 24, 44
1, 420864, Note_on_c, 0, 26, 44
1, 420864, Note_on_c, 0, 25, 44
1, 420864, Note_on_c, 0, 27, 44
1, 420864, Note_on_c, 0, 28, 44
1, 420864, Note_on_c, 0, 30, 44
1, 420864, Note_on_c, 0, 29, 44
1, 420864, Note_on_c, 0, 31, 44
1, 420864, Note_on_c, 0, 32, 44
1, 420864, Note_on_c, 0, 33, 89
1, 420864, Note_on_c, 0, 45, 89
1, 420864, Note_on_c, 0, 84, 50
1, 420864, Note_on_c, 0, 72, 50
1, 420864, Note_on_c, 0, 69, 50
1, 420864, Note_on_c, 0, 64, 50
1, 420864, Note_on_c, 0, 81, 50
1, 420864, Note_on_c, 0, 76, 50
1, 421056, Note_off_c, 0, 76, 0
1, 421056, Note_off_c, 0, 81, 0
1, 421056, Note_off_c, 0, 64, 0
1, 421056, Note_off_c, 0, 69, 0
1, 421056, Note_off_c, 0, 72, 0
1, 421056, Note_off_c, 0, 84, 0
1, 421056, Note_off_c, 0, 32, 0
1, 421056, Note_off_c, 0, 31, 0
1, 421056, Note_off_c, 0, 29, 0
1, 421056, Note_off_c, 0, 30, 0
1, 421056, Note_off_c, 0, 28, 0
1, 421056, Note_off_c, 0, 27, 0
1, 421056, Note_off_c, 0, 25, 0
1, 421056, Note_off_c, 0, 26, 0
1, 421056, Note_off_c, 0, 24, 0
1, 421248, Note_on_c, 0, 84, 50
1, 421248, Note_on_c, 0, 72, 50
1, 421248, Note_on_c, 0, 69, 50
1, 421248, Note_on_c, 0, 64, 50
1, 421248, Note_on_c, 0, 81, 50
1, 421248, Note_on_c, 0, 76, 50
1, 421440, Note_off_c, 0, 76, 0
1, 421440, Note_off_c, 0, 81, 0
1, 421440, Note_off_c, 0, 64, 0
1, 421440, Note_off_c, 0, 69, 0
1, 421440, Note_off_c, 0, 72, 0
1, 421440, Note_off_c, 0, 84, 0
1, 421632, Note_off_c, 0, 45, 0
1, 421632, Note_off_c, 0, 33, 0
1, 421632, Note_on_c, 0, 48, 89
1, 421632, Note_on_c, 0, 52, 89
1, 421632, Note_on_c, 0, 84, 50
1, 421632, Note_on_c, 0, 72, 50
1, 421632, Note_on_c, 0, 69, 50
1, 421632, Note_on_c, 0, 64, 50
1, 421632, Note_on_c, 0, 81, 50
1, 421632, Note_on_c, 0, 76, 50
1, 421632, Note_on_c, 0, 57, 79
1, 421632, Note_on_c, 0, 60, 79
1, 421632, Note_on_c, 0, 64, 54
1, 421632, Note_on_c, 0, 69, 54
1, 421824, Note_off_c, 0, 69, 0
1, 421824, Note_off_c, 0, 64, 0
1, 421824, Note_off_c, 0, 60, 0
1, 421824, Note_off_c, 0, 57, 0
1, 421824, Note_off_c, 0, 76, 0
1, 421824, Note_off_c, 0, 81, 0
1, 421824, Note_off_c, 0, 64, 0
1, 421824, Note_off_c, 0, 69, 0
1, 421824, Note_off_c, 0, 72, 0
1, 421824, Note_off_c, 0, 84, 0
1, 421824, Note_off_c, 0, 52, 0
1, 421824, Note_off_c, 0, 48, 0
1, 422016, Note_on_c, 0, 84, 50
1, 422016, Note_on_c, 0, 72, 50
1, 422016, Note_on_c, 0, 69, 50
1, 422016, Note_on_c, 0, 64, 50
1, 422016, Note_on_c, 0, 81, 50
1, 422016, Note_on_c, 0, 76, 50
1, 422208, Note_off_c, 0, 76, 0
1, 422208, Note_off_c, 0, 81, 0
1, 422208, Note_off_c, 0, 64, 0
1, 422208, Note_off_c, 0, 69, 0
1, 422208, Note_off_c, 0, 72, 0
1, 422208, Note_off_c, 0, 84, 0
1, 422400, Note_on_c, 0, 33, 44
1, 422400, Note_on_c, 0, 35, 44
1, 422400, Note_on_c, 0, 34, 44
1, 422400, Note_on_c, 0, 36, 44
1, 422400, Note_on_c, 0, 37, 44
1, 422400, Note_on_c, 0, 39, 44
1, 422400, Note_on_c, 0, 38, 44
1, 422400, Note_on_c, 0, 40, 44
1, 422400, Note_on_c, 0, 41, 44
1, 422400, Note_on_c, 0, 40, 89
1, 422400, Note_on_c, 0, 84, 50
1, 422400, Note_on_c, 0, 72, 50
1, 422400, Note_on_c, 0, 69, 50
1, 422400, Note_on_c, 0, 64, 50
1, 422400, Note_on_c, 0, 81, 50
1, 422400, Note_on_c, 0, 76, 50
1, 422592, Note_off_c, 0, 76, 0
1, 422592, Note_off_c, 0, 81, 0
1, 422592, Note_off_c, 0, 64, 0
1, 422592, Note_off_c, 0, 69, 0
1, 422592, Note_off_c, 0, 72, 0
1, 422592, Note_off_c, 0, 84, 0
1, 422592, Note_off_c, 0, 41, 0
1, 422592, Note_off_c, 0, 40, 0
1, 422592, Note_off_c, 0, 38, 0
1, 422592, Note_off_c, 0, 39, 0
1, 422592, Note_off_c, 0, 37, 0
1, 422592, Note_off_c, 0, 36, 0
1, 422592, Note_off_c, 0, 34, 0
1, 422592, Note_off_c, 0, 35, 0
1, 422592, Note_off_c, 0, 33, 0
1, 422784, Note_on_c, 0, 83, 50
1, 422784, Note_on_c, 0, 71, 50
1, 422784, Note_on_c, 0, 62, 50
1, 422784, Note_on_c, 0, 74, 50
1, 422784, Note_on_c, 0, 80, 50
1, 422784, Note_on_c, 0, 68, 50
1, 422976, Note_off_c, 0, 68, 0
1, 422976, Note_off_c, 0, 80, 0
1, 422976, Note_off_c, 0, 74, 0
1, 422976, Note_off_c, 0, 62, 0
1, 422976, Note_off_c, 0, 71, 0
1, 422976, Note_off_c, 0, 83, 0
1, 423168, Note_off_c, 0, 40, 0
1, 423168, Note_on_c, 0, 48, 89
1, 423168, Note_on_c, 0, 52, 89
1, 423168, Note_on_c, 0, 81, 50
1, 423168, Note_on_c, 0, 69, 50
1, 423168, Note_on_c, 0, 64, 50
1, 423168, Note_on_c, 0, 60, 50
1, 423168, Note_on_c, 0, 76, 50
1, 423168, Note_on_c, 0, 72, 50
1, 423168, Note_on_c, 0, 57, 79
1, 423168, Note_on_c, 0, 60, 79
1, 423168, Note_on_c, 0, 64, 54
1, 423168, Note_on_c, 0, 69, 54
1, 423360, Note_off_c, 0, 69, 0
1, 423360, Note_off_c, 0, 64, 0
1, 423360, Note_off_c, 0, 60, 0
1, 423360, Note_off_c, 0, 57, 0
1, 423360, Note_off_c, 0, 72, 0
1, 423360, Note_off_c, 0, 76, 0
1, 423360, Note_off_c, 0, 60, 0
1, 423360, Note_off_c, 0, 64, 0
1, 423360, Note_off_c, 0, 69, 0
1, 423360, Note_off_c, 0, 81, 0
1, 423360, Note_off_c, 0, 52, 0
1, 423360, Note_off_c, 0, 48, 0
1, 423552, Note_on_c, 0, 84, 50
1, 423552, Note_on_c, 0, 72, 50
1, 423552, Note_on_c, 0, 69, 50
1, 423552, Note_on_c, 0, 64, 50
1, 423552, Note_on_c, 0, 81, 50
1, 423552, Note_on_c, 0, 76, 50
1, 423744, Note_off_c, 0, 76, 0
1, 423744, Note_off_c, 0, 81, 0
1, 423744, Note_off_c, 0, 64, 0
1, 423744, Note_off_c, 0, 69, 0
1, 423744, Note_off_c, 0, 72, 0
1, 423744, Note_off_c, 0, 84, 0
1, 423936, Note_on_c, 0, 24, 44
1, 423936, Note_on_c, 0, 26, 44
1, 423936, Note_on_c, 0, 25, 44
1, 423936, Note_on_c, 0, 27, 44
1, 423936, Note_on_c, 0, 28, 44
1, 423936, Note_on_c, 0, 30, 44
1, 423936, Note_on_c, 0, 29, 44
1, 423936, Note_on_c, 0, 31, 44
1, 423936, Note_on_c, 0, 32, 44
1, 423936, Note_on_c, 0, 35, 89
1, 423936, Note_on_c, 0, 47, 89
1, 423936, Note_on_c, 0, 83, 50
1, 423936, Note_on_c, 0, 71, 50
1, 423936, Note_on_c, 0, 66, 50
1, 423936, Note_on_c, 0, 63, 50
1, 423936, Note_on_c, 0, 78, 50
1, 423936, Note_on_c, 0, 75, 50
1, 424128, Note_off_c, 0, 75, 0
1, 424128, Note_off_c, 0, 78, 0
1, 424128, Note_off_c, 0, 63, 0
1, 424128, Note_off_c, 0, 66, 0
1, 424128, Note_off_c, 0, 71, 0
1, 424128, Note_off_c, 0, 83, 0
1, 424128, Note_off_c, 0, 32, 0
1, 424128, Note_off_c, 0, 31, 0
1, 424128, Note_off_c, 0, 29, 0
1, 424128, Note_off_c, 0, 30, 0
1, 424128, Note_off_c, 0, 28, 0
1, 424128, Note_off_c, 0, 27, 0
1, 424128, Note_off_c, 0, 25, 0
1, 424128, Note_off_c, 0, 26, 0
1, 424128, Note_off_c, 0, 24, 0
1, 424320, Note_on_c, 0, 83, 50
1, 424320, Note_on_c, 0, 71, 50
1, 424320, Note_on_c, 0, 66, 50
1, 424320, Note_on_c, 0, 63, 50
1, 424320, Note_on_c, 0, 78, 50
1, 424320, Note_on_c, 0, 75, 50
1, 424512, Note_off_c, 0, 75, 0
1, 424512, Note_off_c, 0, 78, 0
1, 424512, Note_off_c, 0, 63, 0
1, 424512, Note_off_c, 0, 66, 0
1, 424512, Note_off_c, 0, 71, 0
1, 424512, Note_off_c, 0, 83, 0
1, 424704, Note_off_c, 0, 47, 0
1, 424704, Note_off_c, 0, 35, 0
1, 424704, Note_on_c, 0, 47, 89
1, 424704, Note_on_c, 0, 51, 89
1, 424704, Note_on_c, 0, 83, 50
1, 424704, Note_on_c, 0, 71, 50
1, 424704, Note_on_c, 0, 66, 50
1, 424704, Note_on_c, 0, 63, 50
1, 424704, Note_on_c, 0, 78, 50
1, 424704, Note_on_c, 0, 75, 50
1, 424704, Note_on_c, 0, 69, 54
1, 424704, Note_on_c, 0, 63, 54
1, 424704, Note_on_c, 0, 59, 79
1, 424704, Note_on_c, 0, 57, 79
1, 424896, Note_off_c, 0, 57, 0
1, 424896, Note_off_c, 0, 59, 0
1, 424896, Note_off_c, 0, 63, 0
1, 424896, Note_off_c, 0, 69, 0
1, 424896, Note_off_c, 0, 75, 0
1, 424896, Note_off_c, 0, 78, 0
1, 424896, Note_off_c, 0, 63, 0
1, 424896, Note_off_c, 0, 66, 0
1, 424896, Note_off_c, 0, 71, 0
1, 424896, Note_off_c, 0, 83, 0
1, 424896, Note_off_c, 0, 51, 0
1, 424896, Note_off_c, 0, 47, 0
1, 425088, Note_on_c, 0, 83, 50
1, 425088, Note_on_c, 0, 71, 50
1, 425088, Note_on_c, 0, 66, 50
1, 425088, Note_on_c, 0, 63, 50
1, 425088, Note_on_c, 0, 78, 50
1, 425088, Note_on_c, 0, 75, 50
1, 425280, Note_off_c, 0, 75, 0
1, 425280, Note_off_c, 0, 78, 0
1, 425280, Note_off_c, 0, 63, 0
1, 425280, Note_off_c, 0, 66, 0
1, 425280, Note_off_c, 0, 71, 0
1, 425280, Note_off_c, 0, 83, 0
1, 425472, Note_on_c, 0, 33, 44
1, 425472, Note_on_c, 0, 35, 44
1, 425472, Note_on_c, 0, 34, 44
1, 425472, Note_on_c, 0, 36, 44
1, 425472, Note_on_c, 0, 37, 44
1, 425472, Note_on_c, 0, 39, 44
1, 425472, Note_on_c, 0, 38, 44
1, 425472, Note_on_c, 0, 40, 44
1, 425472, Note_on_c, 0, 41, 44
1, 425472, Note_on_c, 0, 47, 89
1, 425472, Note_on_c, 0, 71, 50
1, 425472, Note_on_c, 0, 66, 50
1, 425472, Note_on_c, 0, 63, 50
1, 425472, Note_on_c, 0, 78, 50
1, 425472, Note_on_c, 0, 75, 50
1, 425472, Note_on_c, 0, 59, 50
1, 425664, Note_off_c, 0, 59, 0
1, 425664, Note_off_c, 0, 75, 0
1, 425664, Note_off_c, 0, 78, 0
1, 425664, Note_off_c, 0, 63, 0
1, 425664, Note_off_c, 0, 66, 0
1, 425664, Note_off_c, 0, 71, 0
1, 425664, Note_off_c, 0, 41, 0
1, 425664, Note_off_c, 0, 40, 0
1, 425664, Note_off_c, 0, 38, 0
1, 425664, Note_off_c, 0, 39, 0
1, 425664, Note_off_c, 0, 37, 0
1, 425664, Note_off_c, 0, 36, 0
1, 425664, Note_off_c, 0, 34, 0
1, 425664, Note_off_c, 0, 35, 0
1, 425664, Note_off_c, 0, 33, 0
1, 426240, Note_off_c, 0, 47, 0
1, 426240, Note_on_c, 0, 47, 89
1, 426240, Note_on_c, 0, 51, 89
1, 426240, Note_on_c, 0, 83, 50
1, 426240, Note_on_c, 0, 71, 50
1, 426240, Note_on_c, 0, 66, 50
1, 426240, Note_on_c, 0, 63, 50
1, 426240, Note_on_c, 0, 78, 50
1, 426240, Note_on_c, 0, 75, 50
1, 426240, Note_on_c, 0, 57, 79
1, 426240, Note_on_c, 0, 59, 79
1, 426240, Note_on_c, 0, 63, 54
1, 426240, Note_on_c, 0, 69, 54
1, 426432, Note_off_c, 0, 69, 0
1, 426432, Note_off_c, 0, 63, 0
1, 426432, Note_off_c, 0, 59, 0
1, 426432, Note_off_c, 0, 57, 0
1, 426432, Note_off_c, 0, 75, 0
1, 426432, Note_off_c, 0, 78, 0
1, 426432, Note_off_c, 0, 63, 0
1, 426432, Note_off_c, 0, 66, 0
1, 426432, Note_off_c, 0, 71, 0
1, 426432, Note_off_c, 0, 83, 0
1, 426432, Note_off_c, 0, 51, 0
1, 426432, Note_off_c, 0, 47, 0
1, 427008, Note_on_c, 0, 24, 44
1, 427008, Note_on_c, 0, 26, 44
1, 427008, Note_on_c, 0, 25, 44
1, 427008, Note_on_c, 0, 27, 44
1, 427008, Note_on_c, 0, 28, 44
1, 427008, Note_on_c, 0, 30, 44
1, 427008, Note_on_c, 0, 29, 44
1, 427008, Note_on_c, 0, 31, 44
1, 427008, Note_on_c, 0, 32, 44
1, 427008, Note_on_c, 0, 40, 75
1, 427008, Note_on_c, 0, 52, 75
1, 427008, Note_on_c, 0, 44, 64
1, 427008, Note_on_c, 0, 52, 75
1, 427008, Note_on_c, 0, 56, 75
1, 427008, Note_on_c, 0, 80, 69
1, 427008, Note_on_c, 0, 68, 80
1, 427008, Note_on_c, 0, 63, 80
1, 427008, Note_on_c, 0, 59, 80
1, 427008, Note_on_c, 0, 75, 69
1, 427008, Note_on_c, 0, 71, 80
1, 427200, Note_off_c, 0, 71, 0
1, 427200, Note_off_c, 0, 75, 0
1, 427200, Note_off_c, 0, 59, 0
1, 427200, Note_off_c, 0, 63, 0
1, 427200, Note_off_c, 0, 68, 0
1, 427200, Note_off_c, 0, 80, 0
1, 427200, Note_off_c, 0, 52, 0
1, 427200, Note_off_c, 0, 44, 0
1, 427200, Note_off_c, 0, 32, 0
1, 427200, Note_off_c, 0, 31, 0
1, 427200, Note_off_c, 0, 29, 0
1, 427200, Note_off_c, 0, 30, 0
1, 427200, Note_off_c, 0, 28, 0
1, 427200, Note_off_c, 0, 27, 0
1, 427200, Note_off_c, 0, 25, 0
1, 427200, Note_off_c, 0, 26, 0
1, 427200, Note_off_c, 0, 24, 0
1, 427776, Note_off_c, 0, 56, 0
1, 427776, Note_off_c, 0, 52, 0
1, 427776, Note_off_c, 0, 40, 0
1, 428544, Note_on_c, 0, 33, 44
1, 428544, Note_on_c, 0, 35, 44
1, 428544, Note_on_c, 0, 34, 44
1, 428544, Note_on_c, 0, 36, 44
1, 428544, Note_on_c, 0, 37, 44
1, 428544, Note_on_c, 0, 39, 44
1, 428544, Note_on_c, 0, 38, 44
1, 428544, Note_on_c, 0, 40, 44
1, 428544, Note_on_c, 0, 41, 44
1, 428544, Note_on_c, 0, 28, 125
1, 428544, Note_on_c, 0, 40, 125
1, 428736, Note_off_c, 0, 41, 0
1, 428736, Note_off_c, 0, 40, 0
1, 428736, Note_off_c, 0, 38, 0
1, 428736, Note_off_c, 0, 39, 0
1, 428736, Note_off_c, 0, 37, 0
1, 428736, Note_off_c, 0, 36, 0
1, 428736, Note_off_c, 0, 34, 0
1, 428736, Note_off_c, 0, 35, 0
1, 428736, Note_off_c, 0, 33, 0
1, 430080, Note_off_c, 0, 40, 0
1, 430080, Note_off_c, 0, 28, 0
1, 430080, Note_on_c, 0, 76, 50
1, 430080, Note_on_c, 0, 64, 50
1, 430080, Note_on_c, 0, 60, 50
1, 430080, Note_on_c, 0, 57, 50
1, 430080, Note_on_c, 0, 72, 50
1, 430080, Note_on_c, 0, 69, 50
1, 430080, Note_on_c, 0, 24, 44
1, 430080, Note_on_c, 0, 26, 44
1, 430080, Note_on_c, 0, 25, 44
1, 430080, Note_on_c, 0, 27, 44
1, 430080, Note_on_c, 0, 28, 44
1, 430080, Note_on_c, 0, 30, 44
1, 430080, Note_on_c, 0, 29, 44
1, 430080, Note_on_c, 0, 31, 44
1, 430080, Note_on_c, 0, 32, 44
1, 430080, Note_on_c, 0, 33, 89
1, 430080, Note_on_c, 0, 45, 89
1, 430272, Note_off_c, 0, 32, 0
1, 430272, Note_off_c, 0, 31, 0
1, 430272, Note_off_c, 0, 29, 0
1, 430272, Note_off_c, 0, 30, 0
1, 430272, Note_off_c, 0, 28, 0
1, 430272, Note_off_c, 0, 27, 0
1, 430272, Note_off_c, 0, 25, 0
1, 430272, Note_off_c, 0, 26, 0
1, 430272, Note_off_c, 0, 24, 0
1, 430272, Note_off_c, 0, 69, 0
1, 430272, Note_off_c, 0, 72, 0
1, 430272, Note_off_c, 0, 57, 0
1, 430272, Note_off_c, 0, 60, 0
1, 430272, Note_off_c, 0, 64, 0
1, 430272, Note_off_c, 0, 76, 0
1, 430464, Note_on_c, 0, 76, 50
1, 430464, Note_on_c, 0, 64, 50
1, 430464, Note_on_c, 0, 60, 50
1, 430464, Note_on_c, 0, 57, 50
1, 430464, Note_on_c, 0, 72, 50
1, 430464, Note_on_c, 0, 69, 50
1, 430656, Note_off_c, 0, 69, 0
1, 430656, Note_off_c, 0, 72, 0
1, 430656, Note_off_c, 0, 57, 0
1, 430656, Note_off_c, 0, 60, 0
1, 430656, Note_off_c, 0, 64, 0
1, 430656, Note_off_c, 0, 76, 0
1, 430848, Note_off_c, 0, 45, 0
1, 430848, Note_off_c, 0, 33, 0
1, 430848, Note_on_c, 0, 76, 50
1, 430848, Note_on_c, 0, 64, 50
1, 430848, Note_on_c, 0, 60, 50
1, 430848, Note_on_c, 0, 57, 50
1, 430848, Note_on_c, 0, 72, 50
1, 430848, Note_on_c, 0, 69, 50
1, 430848, Note_on_c, 0, 52, 89
1, 430848, Note_on_c, 0, 48, 89
1, 430848, Note_on_c, 0, 57, 54
1, 430848, Note_on_c, 0, 60, 54
1, 430848, Note_on_c, 0, 64, 54
1, 430848, Note_on_c, 0, 69, 54
1, 431040, Note_off_c, 0, 69, 0
1, 431040, Note_off_c, 0, 64, 0
1, 431040, Note_off_c, 0, 60, 0
1, 431040, Note_off_c, 0, 57, 0
1, 431040, Note_off_c, 0, 48, 0
1, 431040, Note_off_c, 0, 52, 0
1, 431040, Note_off_c, 0, 69, 0
1, 431040, Note_off_c, 0, 72, 0
1, 431040, Note_off_c, 0, 57, 0
1, 431040, Note_off_c, 0, 60, 0
1, 431040, Note_off_c, 0, 64, 0
1, 431040, Note_off_c, 0, 76, 0
1, 431232, Note_on_c, 0, 76, 50
1, 431232, Note_on_c, 0, 64, 50
1, 431232, Note_on_c, 0, 60, 50
1, 431232, Note_on_c, 0, 57, 50
1, 431232, Note_on_c, 0, 72, 50
1, 431232, Note_on_c, 0, 69, 50
1, 431424, Note_off_c, 0, 69, 0
1, 431424, Note_off_c, 0, 72, 0
1, 431424, Note_off_c, 0, 57, 0
1, 431424, Note_off_c, 0, 60, 0
1, 431424, Note_off_c, 0, 64, 0
1, 431424, Note_off_c, 0, 76, 0
1, 431616, Note_on_c, 0, 76, 50
1, 431616, Note_on_c, 0, 64, 50
1, 431616, Note_on_c, 0, 60, 50
1, 431616, Note_on_c, 0, 57, 50
1, 431616, Note_on_c, 0, 72, 50
1, 431616, Note_on_c, 0, 69, 50
1, 431616, Note_on_c, 0, 33, 44
1, 431616, Note_on_c, 0, 35, 44
1, 431616, Note_on_c, 0, 34, 44
1, 431616, Note_on_c, 0, 36, 44
1, 431616, Note_on_c, 0, 37, 44
1, 431616, Note_on_c, 0, 39, 44
1, 431616, Note_on_c, 0, 38, 44
1, 431616, Note_on_c, 0, 40, 44
1, 431616, Note_on_c, 0, 41, 44
1, 431616, Note_on_c, 0, 28, 89
1, 431616, Note_on_c, 0, 40, 89
1, 431808, Note_off_c, 0, 41, 0
1, 431808, Note_off_c, 0, 40, 0
1, 431808, Note_off_c, 0, 38, 0
1, 431808, Note_off_c, 0, 39, 0
1, 431808, Note_off_c, 0, 37, 0
1, 431808, Note_off_c, 0, 36, 0
1, 431808, Note_off_c, 0, 34, 0
1, 431808, Note_off_c, 0, 35, 0
1, 431808, Note_off_c, 0, 33, 0
1, 431808, Note_off_c, 0, 69, 0
1, 431808, Note_off_c, 0, 72, 0
1, 431808, Note_off_c, 0, 57, 0
1, 431808, Note_off_c, 0, 60, 0
1, 431808, Note_off_c, 0, 64, 0
1, 431808, Note_off_c, 0, 76, 0
1, 432000, Note_on_c, 0, 76, 50
1, 432000, Note_on_c, 0, 64, 50
1, 432000, Note_on_c, 0, 60, 50
1, 432000, Note_on_c, 0, 57, 50
1, 432000, Note_on_c, 0, 72, 50
1, 432000, Note_on_c, 0, 69, 50
1, 432192, Note_off_c, 0, 69, 0
1, 432192, Note_off_c, 0, 72, 0
1, 432192, Note_off_c, 0, 57, 0
1, 432192, Note_off_c, 0, 60, 0
1, 432192, Note_off_c, 0, 64, 0
1, 432192, Note_off_c, 0, 76, 0
1, 432384, Note_off_c, 0, 40, 0
1, 432384, Note_off_c, 0, 28, 0
1, 432384, Note_on_c, 0, 76, 50
1, 432384, Note_on_c, 0, 64, 50
1, 432384, Note_on_c, 0, 60, 50
1, 432384, Note_on_c, 0, 57, 50
1, 432384, Note_on_c, 0, 72, 50
1, 432384, Note_on_c, 0, 69, 50
1, 432384, Note_on_c, 0, 48, 89
1, 432384, Note_on_c, 0, 52, 89
1, 432384, Note_on_c, 0, 60, 54
1, 432384, Note_on_c, 0, 64, 54
1, 432384, Note_on_c, 0, 69, 54
1, 432384, Note_on_c, 0, 57, 54
1, 432576, Note_off_c, 0, 57, 0
1, 432576, Note_off_c, 0, 69, 0
1, 432576, Note_off_c, 0, 64, 0
1, 432576, Note_off_c, 0, 60, 0
1, 432576, Note_off_c, 0, 52, 0
1, 432576, Note_off_c, 0, 48, 0
1, 432576, Note_off_c, 0, 69, 0
1, 432576, Note_off_c, 0, 72, 0
1, 432576, Note_off_c, 0, 57, 0
1, 432576, Note_off_c, 0, 60, 0
1, 432576, Note_off_c, 0, 64, 0
1, 432576, Note_off_c, 0, 76, 0
1, 432768, Note_on_c, 0, 76, 50
1, 432768, Note_on_c, 0, 64, 50
1, 432768, Note_on_c, 0, 60, 50
1, 432768, Note_on_c, 0, 57, 50
1, 432768, Note_on_c, 0, 72, 50
1, 432768, Note_on_c, 0, 69, 50
1, 432960, Note_off_c, 0, 69, 0
1, 432960, Note_off_c, 0, 72, 0
1, 432960, Note_off_c, 0, 57, 0
1, 432960, Note_off_c, 0, 60, 0
1, 432960, Note_off_c, 0, 64, 0
1, 432960, Note_off_c, 0, 76, 0
1, 433152, Note_on_c, 0, 76, 50
1, 433152, Note_on_c, 0, 64, 50
1, 433152, Note_on_c, 0, 60, 50
1, 433152, Note_on_c, 0, 57, 50
1, 433152, Note_on_c, 0, 72, 50
1, 433152, Note_on_c, 0, 69, 50
1, 433152, Note_on_c, 0, 24, 44
1, 433152, Note_on_c, 0, 26, 44
1, 433152, Note_on_c, 0, 25, 44
1, 433152, Note_on_c, 0, 27, 44
1, 433152, Note_on_c, 0, 28, 44
1, 433152, Note_on_c, 0, 30, 44
1, 433152, Note_on_c, 0, 29, 44
1, 433152, Note_on_c, 0, 31, 44
1, 433152, Note_on_c, 0, 32, 44
1, 433152, Note_on_c, 0, 33, 89
1, 433152, Note_on_c, 0, 45, 89
1, 433152, Note_on_c, 0, 88, 15
1, 433248, Note_off_c, 0, 88, 0
1, 433344, Note_off_c, 0, 32, 0
1, 433344, Note_off_c, 0, 31, 0
1, 433344, Note_off_c, 0, 29, 0
1, 433344, Note_off_c, 0, 30, 0
1, 433344, Note_off_c, 0, 28, 0
1, 433344, Note_off_c, 0, 27, 0
1, 433344, Note_off_c, 0, 25, 0
1, 433344, Note_off_c, 0, 26, 0
1, 433344, Note_off_c, 0, 24, 0
1, 433344, Note_off_c, 0, 69, 0
1, 433344, Note_off_c, 0, 72, 0
1, 433344, Note_off_c, 0, 57, 0
1, 433344, Note_off_c, 0, 60, 0
1, 433344, Note_off_c, 0, 64, 0
1, 433344, Note_off_c, 0, 76, 0
1, 433344, Note_on_c, 0, 88, 15
1, 433440, Note_off_c, 0, 88, 0
1, 433536, Note_on_c, 0, 76, 50
1, 433536, Note_on_c, 0, 64, 50
1, 433536, Note_on_c, 0, 60, 50
1, 433536, Note_on_c, 0, 57, 50
1, 433536, Note_on_c, 0, 72, 50
1, 433536, Note_on_c, 0, 69, 50
1, 433536, Note_on_c, 0, 88, 15
1, 433632, Note_off_c, 0, 88, 0
1, 433728, Note_off_c, 0, 69, 0
1, 433728, Note_off_c, 0, 72, 0
1, 433728, Note_off_c, 0, 57, 0
1, 433728, Note_off_c, 0, 60, 0
1, 433728, Note_off_c, 0, 64, 0
1, 433728, Note_off_c, 0, 76, 0
1, 433728, Note_on_c, 0, 88, 15
1, 433824, Note_off_c, 0, 88, 0
1, 433920, Note_off_c, 0, 45, 0
1, 433920, Note_off_c, 0, 33, 0
1, 433920, Note_on_c, 0, 76, 50
1, 433920, Note_on_c, 0, 64, 50
1, 433920, Note_on_c, 0, 60, 50
1, 433920, Note_on_c, 0, 57, 50
1, 433920, Note_on_c, 0, 72, 50
1, 433920, Note_on_c, 0, 69, 50
1, 433920, Note_on_c, 0, 52, 89
1, 433920, Note_on_c, 0, 48, 89
1, 433920, Note_on_c, 0, 88, 25
1, 433920, Note_on_c, 0, 60, 54
1, 433920, Note_on_c, 0, 64, 54
1, 433920, Note_on_c, 0, 69, 54
1, 433920, Note_on_c, 0, 57, 54
1, 434016, Note_off_c, 0, 88, 0
1, 434112, Note_off_c, 0, 57, 0
1, 434112, Note_off_c, 0, 69, 0
1, 434112, Note_off_c, 0, 64, 0
1, 434112, Note_off_c, 0, 60, 0
1, 434112, Note_off_c, 0, 48, 0
1, 434112, Note_off_c, 0, 52, 0
1, 434112, Note_off_c, 0, 69, 0
1, 434112, Note_off_c, 0, 72, 0
1, 434112, Note_off_c, 0, 57, 0
1, 434112, Note_off_c, 0, 60, 0
1, 434112, Note_off_c, 0, 64, 0
1, 434112, Note_off_c, 0, 76, 0
1, 434112, Note_on_c, 0, 88, 25
1, 434208, Note_off_c, 0, 88, 0
1, 434304, Note_on_c, 0, 76, 50
1, 434304, Note_on_c, 0, 64, 50
1, 434304, Note_on_c, 0, 60, 50
1, 434304, Note_on_c, 0, 57, 50
1, 434304, Note_on_c, 0, 72, 50
1, 434304, Note_on_c, 0, 69, 50
1, 434304, Note_on_c, 0, 88, 25
1, 434400, Note_off_c, 0, 88, 0
1, 434496, Note_off_c, 0, 69, 0
1, 434496, Note_off_c, 0, 72, 0
1, 434496, Note_off_c, 0, 57, 0
1, 434496, Note_off_c, 0, 60, 0
1, 434496, Note_off_c, 0, 64, 0
1, 434496, Note_off_c, 0, 76, 0
1, 434496, Note_on_c, 0, 88, 25
1, 434592, Note_off_c, 0, 88, 0
1, 434688, Note_on_c, 0, 76, 50
1, 434688, Note_on_c, 0, 64, 50
1, 434688, Note_on_c, 0, 60, 50
1, 434688, Note_on_c, 0, 57, 50
1, 434688, Note_on_c, 0, 72, 50
1, 434688, Note_on_c, 0, 69, 50
1, 434688, Note_on_c, 0, 33, 44
1, 434688, Note_on_c, 0, 35, 44
1, 434688, Note_on_c, 0, 34, 44
1, 434688, Note_on_c, 0, 36, 44
1, 434688, Note_on_c, 0, 37, 44
1, 434688, Note_on_c, 0, 39, 44
1, 434688, Note_on_c, 0, 38, 44
1, 434688, Note_on_c, 0, 40, 44
1, 434688, Note_on_c, 0, 41, 44
1, 434688, Note_on_c, 0, 28, 89
1, 434688, Note_on_c, 0, 40, 89
1, 434688, Note_on_c, 0, 88, 34
1, 434784, Note_off_c, 0, 88, 0
1, 434880, Note_off_c, 0, 41, 0
1, 434880, Note_off_c, 0, 40, 0
1, 434880, Note_off_c, 0, 38, 0
1, 434880, Note_off_c, 0, 39, 0
1, 434880, Note_off_c, 0, 37, 0
1, 434880, Note_off_c, 0, 36, 0
1, 434880, Note_off_c, 0, 34, 0
1, 434880, Note_off_c, 0, 35, 0
1, 434880, Note_off_c, 0, 33, 0
1, 434880, Note_off_c, 0, 69, 0
1, 434880, Note_off_c, 0, 72, 0
1, 434880, Note_off_c, 0, 57, 0
1, 434880, Note_off_c, 0, 60, 0
1, 434880, Note_off_c, 0, 64, 0
1, 434880, Note_off_c, 0, 76, 0
1, 434880, Note_on_c, 0, 88, 34
1, 434976, Note_off_c, 0, 88, 0
1, 435072, Note_on_c, 0, 76, 50
1, 435072, Note_on_c, 0, 64, 50
1, 435072, Note_on_c, 0, 60, 50
1, 435072, Note_on_c, 0, 57, 50
1, 435072, Note_on_c, 0, 72, 50
1, 435072, Note_on_c, 0, 69, 50
1, 435072, Note_on_c, 0, 88, 34
1, 435168, Note_off_c, 0, 88, 0
1, 435264, Note_off_c, 0, 69, 0
1, 435264, Note_off_c, 0, 72, 0
1, 435264, Note_off_c, 0, 57, 0
1, 435264, Note_off_c, 0, 60, 0
1, 435264, Note_off_c, 0, 64, 0
1, 435264, Note_off_c, 0, 76, 0
1, 435264, Note_on_c, 0, 88, 34
1, 435360, Note_off_c, 0, 88, 0
1, 435456, Note_off_c, 0, 40, 0
1, 435456, Note_off_c, 0, 28, 0
1, 435456, Note_on_c, 0, 76, 50
1, 435456, Note_on_c, 0, 64, 50
1, 435456, Note_on_c, 0, 60, 50
1, 435456, Note_on_c, 0, 57, 50
1, 435456, Note_on_c, 0, 72, 50
1, 435456, Note_on_c, 0, 69, 50
1, 435456, Note_on_c, 0, 48, 89
1, 435456, Note_on_c, 0, 52, 89
1, 435456, Note_on_c, 0, 88, 44
1, 435456, Note_on_c, 0, 60, 54
1, 435456, Note_on_c, 0, 64, 54
1, 435456, Note_on_c, 0, 69, 54
1, 435456, Note_on_c, 0, 57, 54
1, 435552, Note_off_c, 0, 88, 0
1, 435648, Note_off_c, 0, 57, 0
1, 435648, Note_off_c, 0, 69, 0
1, 435648, Note_off_c, 0, 64, 0
1, 435648, Note_off_c, 0, 60, 0
1, 435648, Note_off_c, 0, 52, 0
1, 435648, Note_off_c, 0, 48, 0
1, 435648, Note_off_c, 0, 69, 0
1, 435648, Note_off_c, 0, 72, 0
1, 435648, Note_off_c, 0, 57, 0
1, 435648, Note_off_c, 0, 60, 0
1, 435648, Note_off_c, 0, 64, 0
1, 435648, Note_off_c, 0, 76, 0
1, 435648, Note_on_c, 0, 88, 44
1, 435744, Note_off_c, 0, 88, 0
1, 435840, Note_on_c, 0, 76, 50
1, 435840, Note_on_c, 0, 64, 50
1, 435840, Note_on_c, 0, 60, 50
1, 435840, Note_on_c, 0, 57, 50
1, 435840, Note_on_c, 0, 72, 50
1, 435840, Note_on_c, 0, 69, 50
1, 435840, Note_on_c, 0, 88, 44
1, 435936, Note_off_c, 0, 88, 0
1, 436032, Note_off_c, 0, 69, 0
1, 436032, Note_off_c, 0, 72, 0
1, 436032, Note_off_c, 0, 57, 0
1, 436032, Note_off_c, 0, 60, 0
1, 436032, Note_off_c, 0, 64, 0
1, 436032, Note_off_c, 0, 76, 0
1, 436032, Note_on_c, 0, 88, 44
1, 436128, Note_off_c, 0, 88, 0
1, 436224, Note_on_c, 0, 76, 50
1, 436224, Note_on_c, 0, 64, 50
1, 436224, Note_on_c, 0, 60, 50
1, 436224, Note_on_c, 0, 57, 50
1, 436224, Note_on_c, 0, 72, 50
1, 436224, Note_on_c, 0, 69, 50
1, 436224, Note_on_c, 0, 24, 44
1, 436224, Note_on_c, 0, 26, 44
1, 436224, Note_on_c, 0, 25, 44
1, 436224, Note_on_c, 0, 27, 44
1, 436224, Note_on_c, 0, 28, 44
1, 436224, Note_on_c, 0, 30, 44
1, 436224, Note_on_c, 0, 29, 44
1, 436224, Note_on_c, 0, 31, 44
1, 436224, Note_on_c, 0, 32, 44
1, 436224, Note_on_c, 0, 33, 89
1, 436224, Note_on_c, 0, 45, 89
1, 436224, Note_on_c, 0, 88, 50
1, 436320, Note_off_c, 0, 88, 0
1, 436416, Note_off_c, 0, 32, 0
1, 436416, Note_off_c, 0, 31, 0
1, 436416, Note_off_c, 0, 29, 0
1, 436416, Note_off_c, 0, 30, 0
1, 436416, Note_off_c, 0, 28, 0
1, 436416, Note_off_c, 0, 27, 0
1, 436416, Note_off_c, 0, 25, 0
1, 436416, Note_off_c, 0, 26, 0
1, 436416, Note_off_c, 0, 24, 0
1, 436416, Note_off_c, 0, 69, 0
1, 436416, Note_off_c, 0, 72, 0
1, 436416, Note_off_c, 0, 57, 0
1, 436416, Note_off_c, 0, 60, 0
1, 436416, Note_off_c, 0, 64, 0
1, 436416, Note_off_c, 0, 76, 0
1, 436416, Note_on_c, 0, 88, 30
1, 436512, Note_off_c, 0, 88, 0
1, 436608, Note_on_c, 0, 77, 50
1, 436608, Note_on_c, 0, 65, 50
1, 436608, Note_on_c, 0, 62, 50
1, 436608, Note_on_c, 0, 57, 50
1, 436608, Note_on_c, 0, 74, 50
1, 436608, Note_on_c, 0, 69, 50
1, 436608, Note_on_c, 0, 88, 30
1, 436704, Note_off_c, 0, 88, 0
1, 436800, Note_off_c, 0, 69, 0
1, 436800, Note_off_c, 0, 74, 0
1, 436800, Note_off_c, 0, 57, 0
1, 436800, Note_off_c, 0, 62, 0
1, 436800, Note_off_c, 0, 65, 0
1, 436800, Note_off_c, 0, 77, 0
1, 436800, Note_on_c, 0, 88, 30
1, 436896, Note_off_c, 0, 88, 0
1, 436992, Note_off_c, 0, 45, 0
1, 436992, Note_off_c, 0, 33, 0
1, 436992, Note_on_c, 0, 76, 50
1, 436992, Note_on_c, 0, 64, 50
1, 436992, Note_on_c, 0, 60, 50
1, 436992, Note_on_c, 0, 57, 50
1, 436992, Note_on_c, 0, 72, 50
1, 436992, Note_on_c, 0, 69, 50
1, 436992, Note_on_c, 0, 52, 89
1, 436992, Note_on_c, 0, 48, 89
1, 436992, Note_on_c, 0, 60, 54
1, 436992, Note_on_c, 0, 64, 54
1, 436992, Note_on_c, 0, 69, 54
1, 436992, Note_on_c, 0, 57, 54
1, 437184, Note_off_c, 0, 57, 0
1, 437184, Note_off_c, 0, 69, 0
1, 437184, Note_off_c, 0, 64, 0
1, 437184, Note_off_c, 0, 60, 0
1, 437184, Note_off_c, 0, 48, 0
1, 437184, Note_off_c, 0, 52, 0
1, 437184, Note_off_c, 0, 69, 0
1, 437184, Note_off_c, 0, 72, 0
1, 437184, Note_off_c, 0, 57, 0
1, 437184, Note_off_c, 0, 60, 0
1, 437184, Note_off_c, 0, 64, 0
1, 437184, Note_off_c, 0, 76, 0
1, 437376, Note_on_c, 0, 75, 50
1, 437376, Note_on_c, 0, 63, 50
1, 437376, Note_on_c, 0, 59, 50
1, 437376, Note_on_c, 0, 57, 50
1, 437376, Note_on_c, 0, 71, 50
1, 437376, Note_on_c, 0, 69, 50
1, 437568, Note_off_c, 0, 69, 0
1, 437568, Note_off_c, 0, 71, 0
1, 437568, Note_off_c, 0, 57, 0
1, 437568, Note_off_c, 0, 59, 0
1, 437568, Note_off_c, 0, 63, 0
1, 437568, Note_off_c, 0, 75, 0
1, 437760, Note_on_c, 0, 33, 44
1, 437760, Note_on_c, 0, 35, 44
1, 437760, Note_on_c, 0, 34, 44
1, 437760, Note_on_c, 0, 36, 44
1, 437760, Note_on_c, 0, 37, 44
1, 437760, Note_on_c, 0, 39, 44
1, 437760, Note_on_c, 0, 38, 44
1, 437760, Note_on_c, 0, 40, 44
1, 437760, Note_on_c, 0, 41, 44
1, 437760, Note_on_c, 0, 28, 89
1, 437760, Note_on_c, 0, 40, 89
1, 437760, Note_on_c, 0, 76, 50
1, 437760, Note_on_c, 0, 64, 50
1, 437760, Note_on_c, 0, 60, 50
1, 437760, Note_on_c, 0, 57, 50
1, 437760, Note_on_c, 0, 72, 50
1, 437760, Note_on_c, 0, 69, 50
1, 437952, Note_off_c, 0, 69, 0
1, 437952, Note_off_c, 0, 72, 0
1, 437952, Note_off_c, 0, 57, 0
1, 437952, Note_off_c, 0, 60, 0
1, 437952, Note_off_c, 0, 64, 0
1, 437952, Note_off_c, 0, 76, 0
1, 437952, Note_off_c, 0, 41, 0
1, 437952, Note_off_c, 0, 40, 0
1, 437952, Note_off_c, 0, 38, 0
1, 437952, Note_off_c, 0, 39, 0
1, 437952, Note_off_c, 0, 37, 0
1, 437952, Note_off_c, 0, 36, 0
1, 437952, Note_off_c, 0, 34, 0
1, 437952, Note_off_c, 0, 35, 0
1, 437952, Note_off_c, 0, 33, 0
1, 438528, Note_off_c, 0, 40, 0
1, 438528, Note_off_c, 0, 28, 0
1, 438528, Note_on_c, 0, 48, 89
1, 438528, Note_on_c, 0, 52, 89
1, 438528, Note_on_c, 0, 81, 50
1, 438528, Note_on_c, 0, 69, 50
1, 438528, Note_on_c, 0, 65, 50
1, 438528, Note_on_c, 0, 62, 50
1, 438528, Note_on_c, 0, 77, 50
1, 438528, Note_on_c, 0, 74, 50
1, 438528, Note_on_c, 0, 60, 64
1, 438528, Note_on_c, 0, 64, 54
1, 438528, Note_on_c, 0, 69, 54
1, 438528, Note_on_c, 0, 57, 64
1, 438720, Note_off_c, 0, 57, 0
1, 438720, Note_off_c, 0, 69, 0
1, 438720, Note_off_c, 0, 64, 0
1, 438720, Note_off_c, 0, 60, 0
1, 438720, Note_off_c, 0, 74, 0
1, 438720, Note_off_c, 0, 77, 0
1, 438720, Note_off_c, 0, 62, 0
1, 438720, Note_off_c, 0, 65, 0
1, 438720, Note_off_c, 0, 69, 0
1, 438720, Note_off_c, 0, 81, 0
1, 438720, Note_off_c, 0, 52, 0
1, 438720, Note_off_c, 0, 48, 0
1, 438912, Note_on_c, 0, 84, 50
1, 438912, Note_on_c, 0, 72, 50
1, 438912, Note_on_c, 0, 69, 50
1, 438912, Note_on_c, 0, 64, 50
1, 438912, Note_on_c, 0, 81, 50
1, 438912, Note_on_c, 0, 76, 50
1, 439104, Note_off_c, 0, 76, 0
1, 439104, Note_off_c, 0, 81, 0
1, 439104, Note_off_c, 0, 64, 0
1, 439104, Note_off_c, 0, 69, 0
1, 439104, Note_off_c, 0, 72, 0
1, 439104, Note_off_c, 0, 84, 0
1, 439296, Note_on_c, 0, 24, 44
1, 439296, Note_on_c, 0, 26, 44
1, 439296, Note_on_c, 0, 25, 44
1, 439296, Note_on_c, 0, 27, 44
1, 439296, Note_on_c, 0, 28, 44
1, 439296, Note_on_c, 0, 30, 44
1, 439296, Note_on_c, 0, 29, 44
1, 439296, Note_on_c, 0, 31, 44
1, 439296, Note_on_c, 0, 32, 44
1, 439296, Note_on_c, 0, 33, 89
1, 439296, Note_on_c, 0, 45, 89
1, 439296, Note_on_c, 0, 88, 50
1, 439296, Note_on_c, 0, 76, 50
1, 439296, Note_on_c, 0, 72, 50
1, 439296, Note_on_c, 0, 69, 50
1, 439296, Note_on_c, 0, 84, 50
1, 439296, Note_on_c, 0, 81, 50
1, 439488, Note_off_c, 0, 81, 0
1, 439488, Note_off_c, 0, 84, 0
1, 439488, Note_off_c, 0, 69, 0
1, 439488, Note_off_c, 0, 72, 0
1, 439488, Note_off_c, 0, 76, 0
1, 439488, Note_off_c, 0, 88, 0
1, 439488, Note_off_c, 0, 32, 0
1, 439488, Note_off_c, 0, 31, 0
1, 439488, Note_off_c, 0, 29, 0
1, 439488, Note_off_c, 0, 30, 0
1, 439488, Note_off_c, 0, 28, 0
1, 439488, Note_off_c, 0, 27, 0
1, 439488, Note_off_c, 0, 25, 0
1, 439488, Note_off_c, 0, 26, 0
1, 439488, Note_off_c, 0, 24, 0
1, 440064, Note_off_c, 0, 45, 0
1, 440064, Note_off_c, 0, 33, 0
1, 440064, Note_on_c, 0, 93, 50
1, 440064, Note_on_c, 0, 81, 50
1, 440064, Note_on_c, 0, 76, 50
1, 440064, Note_on_c, 0, 72, 50
1, 440064, Note_on_c, 0, 88, 50
1, 440064, Note_on_c, 0, 84, 50
1, 440064, Note_on_c, 0, 60, 64
1, 440064, Note_on_c, 0, 64, 64
1, 440064, Note_on_c, 0, 69, 54
1, 440064, Note_on_c, 0, 57, 64
1, 440064, Note_on_c, 0, 48, 89
1, 440064, Note_on_c, 0, 52, 89
1, 440256, Note_off_c, 0, 52, 0
1, 440256, Note_off_c, 0, 48, 0
1, 440256, Note_off_c, 0, 57, 0
1, 440256, Note_off_c, 0, 69, 0
1, 440256, Note_off_c, 0, 64, 0
1, 440256, Note_off_c, 0, 60, 0
1, 440256, Note_off_c, 0, 84, 0
1, 440256, Note_off_c, 0, 88, 0
1, 440256, Note_off_c, 0, 72, 0
1, 440256, Note_off_c, 0, 76, 0
1, 440256, Note_off_c, 0, 81, 0
1, 440256, Note_off_c, 0, 93, 0
1, 440832, Note_on_c, 0, 84, 50
1, 440832, Note_on_c, 0, 81, 50
1, 440832, Note_on_c, 0, 76, 50
1, 440832, Note_on_c, 0, 93, 50
1, 440832, Note_on_c, 0, 88, 50
1, 440832, Note_on_c, 0, 33, 44
1, 440832, Note_on_c, 0, 35, 44
1, 440832, Note_on_c, 0, 34, 44
1, 440832, Note_on_c, 0, 36, 44
1, 440832, Note_on_c, 0, 37, 44
1, 440832, Note_on_c, 0, 39, 44
1, 440832, Note_on_c, 0, 38, 44
1, 440832, Note_on_c, 0, 40, 44
1, 440832, Note_on_c, 0, 41, 44
1, 440832, Note_on_c, 0, 28, 89
1, 440832, Note_on_c, 0, 40, 89
1, 441024, Note_off_c, 0, 41, 0
1, 441024, Note_off_c, 0, 40, 0
1, 441024, Note_off_c, 0, 38, 0
1, 441024, Note_off_c, 0, 39, 0
1, 441024, Note_off_c, 0, 37, 0
1, 441024, Note_off_c, 0, 36, 0
1, 441024, Note_off_c, 0, 34, 0
1, 441024, Note_off_c, 0, 35, 0
1, 441024, Note_off_c, 0, 33, 0
1, 441600, Note_off_c, 0, 40, 0
1, 441600, Note_off_c, 0, 28, 0
1, 441600, Note_on_c, 0, 48, 89
1, 441600, Note_on_c, 0, 52, 89
1, 441600, Note_on_c, 0, 60, 69
1, 441600, Note_on_c, 0, 64, 69
1, 441600, Note_on_c, 0, 69, 69
1, 441600, Note_on_c, 0, 57, 69
1, 441792, Note_off_c, 0, 57, 0
1, 441792, Note_off_c, 0, 69, 0
1, 441792, Note_off_c, 0, 64, 0
1, 441792, Note_off_c, 0, 60, 0
1, 441792, Note_off_c, 0, 52, 0
1, 441792, Note_off_c, 0, 48, 0
1, 442272, Note_off_c, 0, 88, 0
1, 442272, Note_off_c, 0, 93, 0
1, 442272, Note_off_c, 0, 76, 0
1, 442272, Note_off_c, 0, 81, 0
1, 442272, Note_off_c, 0, 84, 0
1, 442368, Note_on_c, 0, 24, 44
1, 442368, Note_on_c, 0, 26, 44
1, 442368, Note_on_c, 0, 25, 44
1, 442368, Note_on_c, 0, 27, 44
1, 442368, Note_on_c, 0, 28, 44
1, 442368, Note_on_c, 0, 30, 44
1, 442368, Note_on_c, 0, 29, 44
1, 442368, Note_on_c, 0, 31, 44
1, 442368, Note_on_c, 0, 32, 44
1, 442368, Note_on_c, 0, 38, 89
1, 442368, Note_on_c, 0, 50, 89
1, 442368, Note_on_c, 0, 86, 55
1, 442368, Note_on_c, 0, 83, 55
1, 442368, Note_on_c, 0, 77, 55
1, 442368, Note_on_c, 0, 95, 55
1, 442368, Note_on_c, 0, 89, 55
1, 442560, Note_off_c, 0, 89, 0
1, 442560, Note_off_c, 0, 95, 0
1, 442560, Note_off_c, 0, 77, 0
1, 442560, Note_off_c, 0, 83, 0
1, 442560, Note_off_c, 0, 86, 0
1, 442560, Note_off_c, 0, 32, 0
1, 442560, Note_off_c, 0, 31, 0
1, 442560, Note_off_c, 0, 29, 0
1, 442560, Note_off_c, 0, 30, 0
1, 442560, Note_off_c, 0, 28, 0
1, 442560, Note_off_c, 0, 27, 0
1, 442560, Note_off_c, 0, 25, 0
1, 442560, Note_off_c, 0, 26, 0
1, 442560, Note_off_c, 0, 24, 0
1, 442752, Note_on_c, 0, 84, 55
1, 442752, Note_on_c, 0, 81, 55
1, 442752, Note_on_c, 0, 76, 55
1, 442752, Note_on_c, 0, 93, 55
1, 442752, Note_on_c, 0, 88, 55
1, 442944, Note_off_c, 0, 88, 0
1, 442944, Note_off_c, 0, 93, 0
1, 442944, Note_off_c, 0, 76, 0
1, 442944, Note_off_c, 0, 81, 0
1, 442944, Note_off_c, 0, 84, 0
1, 443136, Note_off_c, 0, 50, 0
1, 443136, Note_off_c, 0, 38, 0
1, 443136, Note_on_c, 0, 53, 89
1, 443136, Note_on_c, 0, 50, 89
1, 443136, Note_on_c, 0, 65, 89
1, 443136, Note_on_c, 0, 62, 89
1, 443136, Note_on_c, 0, 69, 89
1, 443136, Note_on_c, 0, 57, 89
1, 443136, Note_on_c, 0, 47, 89
1, 443136, Note_on_c, 0, 83, 55
1, 443136, Note_on_c, 0, 80, 55
1, 443136, Note_on_c, 0, 74, 30
1, 443136, Note_on_c, 0, 92, 55
1, 443136, Note_on_c, 0, 86, 55
1, 443136, Note_on_c, 0, 95, 55
1, 443328, Note_off_c, 0, 95, 0
1, 443328, Note_off_c, 0, 86, 0
1, 443328, Note_off_c, 0, 92, 0
1, 443328, Note_off_c, 0, 74, 0
1, 443328, Note_off_c, 0, 80, 0
1, 443328, Note_off_c, 0, 83, 0
1, 443328, Note_off_c, 0, 47, 0
1, 443328, Note_off_c, 0, 57, 0
1, 443328, Note_off_c, 0, 69, 0
1, 443328, Note_off_c, 0, 62, 0
1, 443328, Note_off_c, 0, 65, 0
1, 443328, Note_off_c, 0, 50, 0
1, 443328, Note_off_c, 0, 53, 0
1, 443520, Note_on_c, 0, 86, 55
1, 443520, Note_on_c, 0, 83, 55
1, 443520, Note_on_c, 0, 77, 55
1, 443520, Note_on_c, 0, 95, 55
1, 443520, Note_on_c, 0, 89, 55
1, 443712, Note_off_c, 0, 89, 0
1, 443712, Note_off_c, 0, 95, 0
1, 443712, Note_off_c, 0, 77, 0
1, 443712, Note_off_c, 0, 83, 0
1, 443712, Note_off_c, 0, 86, 0
1, 443904, Note_on_c, 0, 33, 44
1, 443904, Note_on_c, 0, 35, 44
1, 443904, Note_on_c, 0, 34, 44
1, 443904, Note_on_c, 0, 36, 44
1, 443904, Note_on_c, 0, 37, 44
1, 443904, Note_on_c, 0, 39, 44
1, 443904, Note_on_c, 0, 38, 44
1, 443904, Note_on_c, 0, 40, 44
1, 443904, Note_on_c, 0, 41, 44
1, 443904, Note_on_c, 0, 36, 89
1, 443904, Note_on_c, 0, 48, 89
1, 443904, Note_on_c, 0, 84, 55
1, 443904, Note_on_c, 0, 81, 55
1, 443904, Note_on_c, 0, 76, 55
1, 443904, Note_on_c, 0, 93, 55
1, 443904, Note_on_c, 0, 88, 55
1, 444096, Note_off_c, 0, 88, 0
1, 444096, Note_off_c, 0, 93, 0
1, 444096, Note_off_c, 0, 76, 0
1, 444096, Note_off_c, 0, 81, 0
1, 444096, Note_off_c, 0, 84, 0
1, 444096, Note_off_c, 0, 41, 0
1, 444096, Note_off_c, 0, 40, 0
1, 444096, Note_off_c, 0, 38, 0
1, 444096, Note_off_c, 0, 39, 0
1, 444096, Note_off_c, 0, 37, 0
1, 444096, Note_off_c, 0, 36, 0
1, 444096, Note_off_c, 0, 34, 0
1, 444096, Note_off_c, 0, 35, 0
1, 444096, Note_off_c, 0, 33, 0
1, 444288, Note_on_c, 0, 83, 55
1, 444288, Note_on_c, 0, 80, 55
1, 444288, Note_on_c, 0, 74, 55
1, 444288, Note_on_c, 0, 92, 55
1, 444288, Note_on_c, 0, 86, 55
1, 444288, Note_on_c, 0, 95, 55
1, 444480, Note_off_c, 0, 95, 0
1, 444480, Note_off_c, 0, 86, 0
1, 444480, Note_off_c, 0, 92, 0
1, 444480, Note_off_c, 0, 74, 0
1, 444480, Note_off_c, 0, 80, 0
1, 444480, Note_off_c, 0, 83, 0
1, 444672, Note_off_c, 0, 48, 0
1, 444672, Note_off_c, 0, 36, 0
1, 444672, Note_on_c, 0, 48, 89
1, 444672, Note_on_c, 0, 52, 89
1, 444672, Note_on_c, 0, 60, 89
1, 444672, Note_on_c, 0, 64, 89
1, 444672, Note_on_c, 0, 69, 89
1, 444672, Note_on_c, 0, 57, 89
1, 444672, Note_on_c, 0, 45, 89
1, 444672, Note_on_c, 0, 81, 55
1, 444672, Note_on_c, 0, 76, 55
1, 444672, Note_on_c, 0, 72, 30
1, 444672, Note_on_c, 0, 88, 55
1, 444672, Note_on_c, 0, 84, 55
1, 444672, Note_on_c, 0, 93, 55
1, 444864, Note_off_c, 0, 93, 0
1, 444864, Note_off_c, 0, 84, 0
1, 444864, Note_off_c, 0, 88, 0
1, 444864, Note_off_c, 0, 72, 0
1, 444864, Note_off_c, 0, 76, 0
1, 444864, Note_off_c, 0, 81, 0
1, 444864, Note_off_c, 0, 45, 0
1, 444864, Note_off_c, 0, 57, 0
1, 444864, Note_off_c, 0, 69, 0
1, 444864, Note_off_c, 0, 64, 0
1, 444864, Note_off_c, 0, 60, 0
1, 444864, Note_off_c, 0, 52, 0
1, 444864, Note_off_c, 0, 48, 0
1, 445056, Note_on_c, 0, 84, 55
1, 445056, Note_on_c, 0, 81, 55
1, 445056, Note_on_c, 0, 76, 55
1, 445056, Note_on_c, 0, 93, 55
1, 445056, Note_on_c, 0, 88, 55
1, 445248, Note_off_c, 0, 88, 0
1, 445248, Note_off_c, 0, 93, 0
1, 445248, Note_off_c, 0, 76, 0
1, 445248, Note_off_c, 0, 81, 0
1, 445248, Note_off_c, 0, 84, 0
1, 445440, Note_on_c, 0, 24, 44
1, 445440, Note_on_c, 0, 26, 44
1, 445440, Note_on_c, 0, 25, 44
1, 445440, Note_on_c, 0, 27, 44
1, 445440, Note_on_c, 0, 28, 44
1, 445440, Note_on_c, 0, 30, 44
1, 445440, Note_on_c, 0, 29, 44
1, 445440, Note_on_c, 0, 31, 44
1, 445440, Note_on_c, 0, 32, 44
1, 445440, Note_on_c, 0, 35, 89
1, 445440, Note_on_c, 0, 47, 89
1, 445440, Note_on_c, 0, 83, 55
1, 445440, Note_on_c, 0, 80, 55
1, 445440, Note_on_c, 0, 74, 55
1, 445440, Note_on_c, 0, 92, 55
1, 445440, Note_on_c, 0, 86, 55
1, 445440, Note_on_c, 0, 95, 55
1, 445632, Note_off_c, 0, 95, 0
1, 445632, Note_off_c, 0, 86, 0
1, 445632, Note_off_c, 0, 92, 0
1, 445632, Note_off_c, 0, 74, 0
1, 445632, Note_off_c, 0, 80, 0
1, 445632, Note_off_c, 0, 83, 0
1, 445632, Note_off_c, 0, 32, 0
1, 445632, Note_off_c, 0, 31, 0
1, 445632, Note_off_c, 0, 29, 0
1, 445632, Note_off_c, 0, 30, 0
1, 445632, Note_off_c, 0, 28, 0
1, 445632, Note_off_c, 0, 27, 0
1, 445632, Note_off_c, 0, 25, 0
1, 445632, Note_off_c, 0, 26, 0
1, 445632, Note_off_c, 0, 24, 0
1, 445824, Note_on_c, 0, 81, 55
1, 445824, Note_on_c, 0, 76, 55
1, 445824, Note_on_c, 0, 72, 55
1, 445824, Note_on_c, 0, 88, 55
1, 445824, Note_on_c, 0, 84, 55
1, 445824, Note_on_c, 0, 93, 55
1, 446016, Note_off_c, 0, 93, 0
1, 446016, Note_off_c, 0, 84, 0
1, 446016, Note_off_c, 0, 88, 0
1, 446016, Note_off_c, 0, 72, 0
1, 446016, Note_off_c, 0, 76, 0
1, 446016, Note_off_c, 0, 81, 0
1, 446208, Note_off_c, 0, 47, 0
1, 446208, Note_off_c, 0, 35, 0
1, 446208, Note_on_c, 0, 50, 89
1, 446208, Note_on_c, 0, 47, 89
1, 446208, Note_on_c, 0, 62, 89
1, 446208, Note_on_c, 0, 59, 89
1, 446208, Note_on_c, 0, 68, 89
1, 446208, Note_on_c, 0, 56, 89
1, 446208, Note_on_c, 0, 44, 89
1, 446208, Note_on_c, 0, 83, 55
1, 446208, Note_on_c, 0, 80, 55
1, 446208, Note_on_c, 0, 74, 55
1, 446208, Note_on_c, 0, 92, 55
1, 446208, Note_on_c, 0, 86, 55
1, 446208, Note_on_c, 0, 71, 30
1, 446400, Note_off_c, 0, 71, 0
1, 446400, Note_off_c, 0, 86, 0
1, 446400, Note_off_c, 0, 92, 0
1, 446400, Note_off_c, 0, 74, 0
1, 446400, Note_off_c, 0, 80, 0
1, 446400, Note_off_c, 0, 83, 0
1, 446400, Note_off_c, 0, 44, 0
1, 446400, Note_off_c, 0, 56, 0
1, 446400, Note_off_c, 0, 68, 0
1, 446400, Note_off_c, 0, 59, 0
1, 446400, Note_off_c, 0, 62, 0
1, 446400, Note_off_c, 0, 47, 0
1, 446400, Note_off_c, 0, 50, 0
1, 446592, Note_on_c, 0, 83, 55
1, 446592, Note_on_c, 0, 80, 55
1, 446592, Note_on_c, 0, 74, 55
1, 446592, Note_on_c, 0, 92, 55
1, 446592, Note_on_c, 0, 86, 55
1, 446592, Note_on_c, 0, 95, 55
1, 446784, Note_off_c, 0, 95, 0
1, 446784, Note_off_c, 0, 86, 0
1, 446784, Note_off_c, 0, 92, 0
1, 446784, Note_off_c, 0, 74, 0
1, 446784, Note_off_c, 0, 80, 0
1, 446784, Note_off_c, 0, 83, 0
1, 446976, Note_on_c, 0, 33, 44
1, 446976, Note_on_c, 0, 35, 44
1, 446976, Note_on_c, 0, 34, 44
1, 446976, Note_on_c, 0, 36, 44
1, 446976, Note_on_c, 0, 37, 44
1, 446976, Note_on_c, 0, 39, 44
1, 446976, Note_on_c, 0, 38, 44
1, 446976, Note_on_c, 0, 40, 44
1, 446976, Note_on_c, 0, 41, 44
1, 446976, Note_on_c, 0, 33, 89
1, 446976, Note_on_c, 0, 45, 89
1, 446976, Note_on_c, 0, 81, 55
1, 446976, Note_on_c, 0, 76, 55
1, 446976, Note_on_c, 0, 72, 55
1, 446976, Note_on_c, 0, 88, 55
1, 446976, Note_on_c, 0, 84, 55
1, 446976, Note_on_c, 0, 93, 55
1, 447168, Note_off_c, 0, 93, 0
1, 447168, Note_off_c, 0, 84, 0
1, 447168, Note_off_c, 0, 88, 0
1, 447168, Note_off_c, 0, 72, 0
1, 447168, Note_off_c, 0, 76, 0
1, 447168, Note_off_c, 0, 81, 0
1, 447168, Note_off_c, 0, 41, 0
1, 447168, Note_off_c, 0, 40, 0
1, 447168, Note_off_c, 0, 38, 0
1, 447168, Note_off_c, 0, 39, 0
1, 447168, Note_off_c, 0, 37, 0
1, 447168, Note_off_c, 0, 36, 0
1, 447168, Note_off_c, 0, 34, 0
1, 447168, Note_off_c, 0, 35, 0
1, 447168, Note_off_c, 0, 33, 0
1, 447360, Note_on_c, 0, 76, 55
1, 447360, Note_on_c, 0, 72, 55
1, 447360, Note_on_c, 0, 67, 55
1, 447360, Note_on_c, 0, 84, 55
1, 447360, Note_on_c, 0, 81, 55
1, 447360, Note_on_c, 0, 88, 55
1, 447552, Note_off_c, 0, 88, 0
1, 447552, Note_off_c, 0, 81, 0
1, 447552, Note_off_c, 0, 84, 0
1, 447552, Note_off_c, 0, 67, 0
1, 447552, Note_off_c, 0, 72, 0
1, 447552, Note_off_c, 0, 76, 0
1, 447744, Note_off_c, 0, 45, 0
1, 447744, Note_off_c, 0, 33, 0
1, 447744, Note_on_c, 0, 45, 89
1, 447744, Note_on_c, 0, 48, 89
1, 447744, Note_on_c, 0, 57, 89
1, 447744, Note_on_c, 0, 60, 89
1, 447744, Note_on_c, 0, 64, 89
1, 447744, Note_on_c, 0, 52, 89
1, 447744, Note_on_c, 0, 72, 55
1, 447744, Note_on_c, 0, 69, 55
1, 447744, Note_on_c, 0, 63, 55
1, 447744, Note_on_c, 0, 81, 55
1, 447744, Note_on_c, 0, 76, 55
1, 447744, Note_on_c, 0, 84, 55
1, 447936, Note_off_c, 0, 84, 0
1, 447936, Note_off_c, 0, 76, 0
1, 447936, Note_off_c, 0, 81, 0
1, 447936, Note_off_c, 0, 63, 0
1, 447936, Note_off_c, 0, 69, 0
1, 447936, Note_off_c, 0, 72, 0
1, 447936, Note_off_c, 0, 52, 0
1, 447936, Note_off_c, 0, 64, 0
1, 447936, Note_off_c, 0, 60, 0
1, 447936, Note_off_c, 0, 57, 0
1, 447936, Note_off_c, 0, 48, 0
1, 447936, Note_off_c, 0, 45, 0
1, 448128, Note_on_c, 0, 69, 55
1, 448128, Note_on_c, 0, 64, 55
1, 448128, Note_on_c, 0, 60, 55
1, 448128, Note_on_c, 0, 76, 55
1, 448128, Note_on_c, 0, 72, 55
1, 448128, Note_on_c, 0, 81, 55
1, 448320, Note_off_c, 0, 81, 0
1, 448320, Note_off_c, 0, 72, 0
1, 448320, Note_off_c, 0, 76, 0
1, 448320, Note_off_c, 0, 60, 0
1, 448320, Note_off_c, 0, 64, 0
1, 448320, Note_off_c, 0, 69, 0
1, 448512, Note_on_c, 0, 24, 59
1, 448512, Note_on_c, 0, 26, 59
1, 448512, Note_on_c, 0, 25, 59
1, 448512, Note_on_c, 0, 27, 59
1, 448512, Note_on_c, 0, 28, 59
1, 448512, Note_on_c, 0, 30, 59
1, 448512, Note_on_c, 0, 29, 59
1, 448512, Note_on_c, 0, 31, 59
1, 448512, Note_on_c, 0, 32, 59
1, 448512, Note_on_c, 0, 28, 129
1, 448512, Note_on_c, 0, 40, 129
1, 448512, Note_on_c, 0, 50, 120
1, 448512, Note_on_c, 0, 47, 120
1, 448512, Note_on_c, 0, 62, 120
1, 448512, Note_on_c, 0, 59, 120
1, 448512, Note_on_c, 0, 68, 120
1, 448512, Note_on_c, 0, 56, 120
1, 448512, Note_on_c, 0, 44, 120
1, 448512, Note_on_c, 0, 34, 59
1, 448512, Note_on_c, 0, 33, 59
1, 448512, Note_on_c, 0, 35, 59
1, 448512, Note_on_c, 0, 36, 59
1, 448512, Note_on_c, 0, 38, 59
1, 448512, Note_on_c, 0, 37, 59
1, 448512, Note_on_c, 0, 39, 59
1, 448512, Note_on_c, 0, 40, 59
1, 448512, Note_on_c, 0, 77, 55
1, 448512, Note_on_c, 0, 74, 55
1, 448512, Note_on_c, 0, 69, 55
1, 448512, Note_on_c, 0, 86, 55
1, 448512, Note_on_c, 0, 81, 55
1, 448512, Note_on_c, 0, 89, 55
1, 448704, Note_off_c, 0, 89, 0
1, 448704, Note_off_c, 0, 81, 0
1, 448704, Note_off_c, 0, 86, 0
1, 448704, Note_off_c, 0, 69, 0
1, 448704, Note_off_c, 0, 74, 0
1, 448704, Note_off_c, 0, 77, 0
1, 448704, Note_off_c, 0, 40, 0
1, 448704, Note_off_c, 0, 39, 0
1, 448704, Note_off_c, 0, 37, 0
1, 448704, Note_off_c, 0, 38, 0
1, 448704, Note_off_c, 0, 36, 0
1, 448704, Note_off_c, 0, 35, 0
1, 448704, Note_off_c, 0, 33, 0
1, 448704, Note_off_c, 0, 34, 0
1, 448704, Note_off_c, 0, 44, 0
1, 448704, Note_off_c, 0, 56, 0
1, 448704, Note_off_c, 0, 68, 0
1, 448704, Note_off_c, 0, 59, 0
1, 448704, Note_off_c, 0, 62, 0
1, 448704, Note_off_c, 0, 47, 0
1, 448704, Note_off_c, 0, 50, 0
1, 448704, Note_off_c, 0, 32, 0
1, 448704, Note_off_c, 0, 31, 0
1, 448704, Note_off_c, 0, 29, 0
1, 448704, Note_off_c, 0, 30, 0
1, 448704, Note_off_c, 0, 28, 0
1, 448704, Note_off_c, 0, 27, 0
1, 448704, Note_off_c, 0, 25, 0
1, 448704, Note_off_c, 0, 26, 0
1, 448704, Note_off_c, 0, 24, 0
1, 448896, Note_on_c, 0, 76, 55
1, 448896, Note_on_c, 0, 72, 55
1, 448896, Note_on_c, 0, 69, 55
1, 448896, Note_on_c, 0, 84, 55
1, 448896, Note_on_c, 0, 81, 55
1, 448896, Note_on_c, 0, 88, 55
1, 449088, Note_off_c, 0, 88, 0
1, 449088, Note_off_c, 0, 81, 0
1, 449088, Note_off_c, 0, 84, 0
1, 449088, Note_off_c, 0, 69, 0
1, 449088, Note_off_c, 0, 72, 0
1, 449088, Note_off_c, 0, 76, 0
1, 449280, Note_off_c, 0, 40, 0
1, 449280, Note_off_c, 0, 28, 0
1, 449280, Note_on_c, 0, 74, 55
1, 449280, Note_on_c, 0, 65, 55
1, 449280, Note_on_c, 0, 69, 55
1, 449280, Note_on_c, 0, 77, 55
1, 449280, Note_on_c, 0, 81, 55
1, 449280, Note_on_c, 0, 86, 55
1, 449472, Note_off_c, 0, 86, 0
1, 449472, Note_off_c, 0, 81, 0
1, 449472, Note_off_c, 0, 77, 0
1, 449472, Note_off_c, 0, 69, 0
1, 449472, Note_off_c, 0, 65, 0
1, 449472, Note_off_c, 0, 74, 0
1, 449664, Note_on_c, 0, 72, 55
1, 449664, Note_on_c, 0, 64, 55
1, 449664, Note_on_c, 0, 69, 55
1, 449664, Note_on_c, 0, 76, 55
1, 449664, Note_on_c, 0, 81, 55
1, 449664, Note_on_c, 0, 84, 55
1, 449856, Note_off_c, 0, 84, 0
1, 449856, Note_off_c, 0, 81, 0
1, 449856, Note_off_c, 0, 76, 0
1, 449856, Note_off_c, 0, 69, 0
1, 449856, Note_off_c, 0, 64, 0
1, 449856, Note_off_c, 0, 72, 0
1, 450048, Note_on_c, 0, 71, 55
1, 450048, Note_on_c, 0, 64, 55
1, 450048, Note_on_c, 0, 68, 55
1, 450048, Note_on_c, 0, 76, 55
1, 450048, Note_on_c, 0, 80, 55
1, 450048, Note_on_c, 0, 83, 55
1, 450240, Note_off_c, 0, 83, 0
1, 450240, Note_off_c, 0, 80, 0
1, 450240, Note_off_c, 0, 76, 0
1, 450240, Note_off_c, 0, 68, 0
1, 450240, Note_off_c, 0, 64, 0
1, 450240, Note_off_c, 0, 71, 0
1, 450432, Note_on_c, 0, 69, 55
1, 450432, Note_on_c, 0, 60, 55
1, 450432, Note_on_c, 0, 64, 55
1, 450432, Note_on_c, 0, 72, 55
1, 450432, Note_on_c, 0, 76, 55
1, 450432, Note_on_c, 0, 81, 55
1, 450624, Note_off_c, 0, 81, 0
1, 450624, Note_off_c, 0, 76, 0
1, 450624, Note_off_c, 0, 72, 0
1, 450624, Note_off_c, 0, 64, 0
1, 450624, Note_off_c, 0, 60, 0
1, 450624, Note_off_c, 0, 69, 0
1, 450816, Note_on_c, 0, 68, 30
1, 450816, Note_on_c, 0, 59, 30
1, 450816, Note_on_c, 0, 63, 60
1, 450816, Note_on_c, 0, 71, 60
1, 450816, Note_on_c, 0, 75, 60
1, 450816, Note_on_c, 0, 80, 60
1, 450816, Note_on_c, 0, 40, 129
1, 450816, Note_on_c, 0, 47, 120
1, 450816, Note_on_c, 0, 59, 120
1, 450816, Note_on_c, 0, 56, 120
1, 450816, Note_on_c, 0, 44, 120
1, 450816, Note_on_c, 0, 28, 129
1, 450816, Note_on_c, 0, 76, 135
1, 450816, Note_on_c, 0, 64, 135
1, 450816, Note_on_c, 0, 68, 60
1, 451008, Note_off_c, 0, 68, 0
1, 451008, Note_off_c, 0, 64, 0
1, 451008, Note_off_c, 0, 76, 0
1, 451008, Note_off_c, 0, 44, 0
1, 451008, Note_off_c, 0, 56, 0
1, 451008, Note_off_c, 0, 59, 0
1, 451008, Note_off_c, 0, 47, 0
1, 451008, Note_off_c, 0, 80, 0
1, 451008, Note_off_c, 0, 75, 0
1, 451008, Note_off_c, 0, 71, 0
1, 451008, Note_off_c, 0, 63, 0
1, 451008, Note_off_c, 0, 59, 0
1, 451008, Note_off_c, 0, 68, 0
1, 451200, Note_on_c, 0, 71, 60
1, 451200, Note_on_c, 0, 64, 60
1, 451200, Note_on_c, 0, 68, 60
1, 451200, Note_on_c, 0, 76, 60
1, 451200, Note_on_c, 0, 80, 60
1, 451200, Note_on_c, 0, 83, 60
1, 451392, Note_off_c, 0, 83, 0
1, 451392, Note_off_c, 0, 80, 0
1, 451392, Note_off_c, 0, 76, 0
1, 451392, Note_off_c, 0, 68, 0
1, 451392, Note_off_c, 0, 64, 0
1, 451392, Note_off_c, 0, 71, 0
1, 451584, Note_off_c, 0, 28, 0
1, 451584, Note_off_c, 0, 40, 0
1, 451584, Note_on_c, 0, 69, 50
1, 451584, Note_on_c, 0, 64, 50
1, 451584, Note_on_c, 0, 72, 50
1, 451584, Note_on_c, 0, 76, 50
1, 451584, Note_on_c, 0, 81, 50
1, 451584, Note_on_c, 0, 48, 120
1, 451584, Note_on_c, 0, 57, 50
1, 451584, Note_on_c, 0, 60, 50
1, 451584, Note_on_c, 0, 45, 129
1, 451584, Note_on_c, 0, 33, 129
1, 451584, Note_on_c, 0, 81, 50
1, 451584, Note_on_c, 0, 69, 50
1, 451776, Note_off_c, 0, 69, 0
1, 451776, Note_off_c, 0, 81, 0
1, 451776, Note_off_c, 0, 60, 0
1, 451776, Note_off_c, 0, 57, 0
1, 451776, Note_off_c, 0, 48, 0
1, 451776, Note_off_c, 0, 81, 0
1, 451776, Note_off_c, 0, 76, 0
1, 451776, Note_off_c, 0, 72, 0
1, 451776, Note_off_c, 0, 64, 0
1, 451776, Note_off_c, 0, 69, 0
1, 452352, Note_off_c, 0, 33, 0
1, 452352, Note_off_c, 0, 45, 0
1, 454656, Note_on_c, 0, 77, 50
1, 454656, Note_on_c, 0, 65, 50
1, 454656, Note_on_c, 0, 61, 50
1, 454656, Note_on_c, 0, 58, 50
1, 454656, Note_on_c, 0, 73, 50
1, 454656, Note_on_c, 0, 70, 50
1, 454656, Note_on_c, 0, 25, 44
1, 454656, Note_on_c, 0, 27, 44
1, 454656, Note_on_c, 0, 26, 44
1, 454656, Note_on_c, 0, 28, 44
1, 454656, Note_on_c, 0, 29, 44
1, 454656, Note_on_c, 0, 31, 44
1, 454656, Note_on_c, 0, 30, 44
1, 454656, Note_on_c, 0, 32, 44
1, 454656, Note_on_c, 0, 24, 44
1, 454656, Note_on_c, 0, 34, 89
1, 454656, Note_on_c, 0, 46, 89
1, 454848, Note_off_c, 0, 24, 0
1, 454848, Note_off_c, 0, 32, 0
1, 454848, Note_off_c, 0, 30, 0
1, 454848, Note_off_c, 0, 31, 0
1, 454848, Note_off_c, 0, 29, 0
1, 454848, Note_off_c, 0, 28, 0
1, 454848, Note_off_c, 0, 26, 0
1, 454848, Note_off_c, 0, 27, 0
1, 454848, Note_off_c, 0, 25, 0
1, 454848, Note_off_c, 0, 70, 0
1, 454848, Note_off_c, 0, 73, 0
1, 454848, Note_off_c, 0, 58, 0
1, 454848, Note_off_c, 0, 61, 0
1, 454848, Note_off_c, 0, 65, 0
1, 454848, Note_off_c, 0, 77, 0
1, 455040, Note_on_c, 0, 77, 50
1, 455040, Note_on_c, 0, 65, 50
1, 455040, Note_on_c, 0, 61, 50
1, 455040, Note_on_c, 0, 58, 50
1, 455040, Note_on_c, 0, 73, 50
1, 455040, Note_on_c, 0, 70, 50
1, 455232, Note_off_c, 0, 70, 0
1, 455232, Note_off_c, 0, 73, 0
1, 455232, Note_off_c, 0, 58, 0
1, 455232, Note_off_c, 0, 61, 0
1, 455232, Note_off_c, 0, 65, 0
1, 455232, Note_off_c, 0, 77, 0
1, 455424, Note_off_c, 0, 46, 0
1, 455424, Note_off_c, 0, 34, 0
1, 455424, Note_on_c, 0, 77, 50
1, 455424, Note_on_c, 0, 65, 50
1, 455424, Note_on_c, 0, 61, 50
1, 455424, Note_on_c, 0, 58, 50
1, 455424, Note_on_c, 0, 73, 50
1, 455424, Note_on_c, 0, 70, 50
1, 455424, Note_on_c, 0, 53, 89
1, 455424, Note_on_c, 0, 49, 89
1, 455424, Note_on_c, 0, 58, 54
1, 455424, Note_on_c, 0, 61, 54
1, 455424, Note_on_c, 0, 65, 54
1, 455424, Note_on_c, 0, 70, 54
1, 455616, Note_off_c, 0, 70, 0
1, 455616, Note_off_c, 0, 65, 0
1, 455616, Note_off_c, 0, 61, 0
1, 455616, Note_off_c, 0, 58, 0
1, 455616, Note_off_c, 0, 49, 0
1, 455616, Note_off_c, 0, 53, 0
1, 455616, Note_off_c, 0, 70, 0
1, 455616, Note_off_c, 0, 73, 0
1, 455616, Note_off_c, 0, 58, 0
1, 455616, Note_off_c, 0, 61, 0
1, 455616, Note_off_c, 0, 65, 0
1, 455616, Note_off_c, 0, 77, 0
1, 455808, Note_on_c, 0, 77, 50
1, 455808, Note_on_c, 0, 65, 50
1, 455808, Note_on_c, 0, 61, 50
1, 455808, Note_on_c, 0, 58, 50
1, 455808, Note_on_c, 0, 73, 50
1, 455808, Note_on_c, 0, 70, 50
1, 456000, Note_off_c, 0, 70, 0
1, 456000, Note_off_c, 0, 73, 0
1, 456000, Note_off_c, 0, 58, 0
1, 456000, Note_off_c, 0, 61, 0
1, 456000, Note_off_c, 0, 65, 0
1, 456000, Note_off_c, 0, 77, 0
1, 456192, Note_on_c, 0, 77, 50
1, 456192, Note_on_c, 0, 65, 50
1, 456192, Note_on_c, 0, 61, 50
1, 456192, Note_on_c, 0, 58, 50
1, 456192, Note_on_c, 0, 73, 50
1, 456192, Note_on_c, 0, 70, 50
1, 456192, Note_on_c, 0, 34, 44
1, 456192, Note_on_c, 0, 36, 44
1, 456192, Note_on_c, 0, 35, 44
1, 456192, Note_on_c, 0, 37, 44
1, 456192, Note_on_c, 0, 38, 44
1, 456192, Note_on_c, 0, 40, 44
1, 456192, Note_on_c, 0, 39, 44
1, 456192, Note_on_c, 0, 41, 44
1, 456192, Note_on_c, 0, 33, 44
1, 456192, Note_on_c, 0, 29, 89
1, 456192, Note_on_c, 0, 41, 89
1, 456384, Note_off_c, 0, 33, 0
1, 456384, Note_off_c, 0, 41, 0
1, 456384, Note_off_c, 0, 39, 0
1, 456384, Note_off_c, 0, 40, 0
1, 456384, Note_off_c, 0, 38, 0
1, 456384, Note_off_c, 0, 37, 0
1, 456384, Note_off_c, 0, 35, 0
1, 456384, Note_off_c, 0, 36, 0
1, 456384, Note_off_c, 0, 34, 0
1, 456384, Note_off_c, 0, 70, 0
1, 456384, Note_off_c, 0, 73, 0
1, 456384, Note_off_c, 0, 58, 0
1, 456384, Note_off_c, 0, 61, 0
1, 456384, Note_off_c, 0, 65, 0
1, 456384, Note_off_c, 0, 77, 0
1, 456576, Note_on_c, 0, 77, 50
1, 456576, Note_on_c, 0, 65, 50
1, 456576, Note_on_c, 0, 61, 50
1, 456576, Note_on_c, 0, 58, 50
1, 456576, Note_on_c, 0, 73, 50
1, 456576, Note_on_c, 0, 70, 50
1, 456768, Note_off_c, 0, 70, 0
1, 456768, Note_off_c, 0, 73, 0
1, 456768, Note_off_c, 0, 58, 0
1, 456768, Note_off_c, 0, 61, 0
1, 456768, Note_off_c, 0, 65, 0
1, 456768, Note_off_c, 0, 77, 0
1, 456960, Note_off_c, 0, 41, 0
1, 456960, Note_off_c, 0, 29, 0
1, 456960, Note_on_c, 0, 77, 50
1, 456960, Note_on_c, 0, 65, 50
1, 456960, Note_on_c, 0, 61, 50
1, 456960, Note_on_c, 0, 58, 50
1, 456960, Note_on_c, 0, 73, 50
1, 456960, Note_on_c, 0, 70, 50
1, 456960, Note_on_c, 0, 49, 89
1, 456960, Note_on_c, 0, 53, 89
1, 456960, Note_on_c, 0, 61, 54
1, 456960, Note_on_c, 0, 65, 54
1, 456960, Note_on_c, 0, 58, 54
1, 456960, Note_on_c, 0, 70, 54
1, 457152, Note_off_c, 0, 70, 0
1, 457152, Note_off_c, 0, 58, 0
1, 457152, Note_off_c, 0, 65, 0
1, 457152, Note_off_c, 0, 61, 0
1, 457152, Note_off_c, 0, 53, 0
1, 457152, Note_off_c, 0, 49, 0
1, 457152, Note_off_c, 0, 70, 0
1, 457152, Note_off_c, 0, 73, 0
1, 457152, Note_off_c, 0, 58, 0
1, 457152, Note_off_c, 0, 61, 0
1, 457152, Note_off_c, 0, 65, 0
1, 457152, Note_off_c, 0, 77, 0
1, 457344, Note_on_c, 0, 77, 50
1, 457344, Note_on_c, 0, 65, 50
1, 457344, Note_on_c, 0, 61, 50
1, 457344, Note_on_c, 0, 58, 50
1, 457344, Note_on_c, 0, 73, 50
1, 457344, Note_on_c, 0, 70, 50
1, 457536, Note_off_c, 0, 70, 0
1, 457536, Note_off_c, 0, 73, 0
1, 457536, Note_off_c, 0, 58, 0
1, 457536, Note_off_c, 0, 61, 0
1, 457536, Note_off_c, 0, 65, 0
1, 457536, Note_off_c, 0, 77, 0
1, 457728, Note_on_c, 0, 77, 50
1, 457728, Note_on_c, 0, 65, 50
1, 457728, Note_on_c, 0, 61, 50
1, 457728, Note_on_c, 0, 58, 50
1, 457728, Note_on_c, 0, 73, 50
1, 457728, Note_on_c, 0, 70, 50
1, 457728, Note_on_c, 0, 25, 44
1, 457728, Note_on_c, 0, 27, 44
1, 457728, Note_on_c, 0, 26, 44
1, 457728, Note_on_c, 0, 28, 44
1, 457728, Note_on_c, 0, 29, 44
1, 457728, Note_on_c, 0, 31, 44
1, 457728, Note_on_c, 0, 30, 44
1, 457728, Note_on_c, 0, 32, 44
1, 457728, Note_on_c, 0, 24, 44
1, 457728, Note_on_c, 0, 34, 89
1, 457728, Note_on_c, 0, 46, 89
1, 457920, Note_off_c, 0, 24, 0
1, 457920, Note_off_c, 0, 32, 0
1, 457920, Note_off_c, 0, 30, 0
1, 457920, Note_off_c, 0, 31, 0
1, 457920, Note_off_c, 0, 29, 0
1, 457920, Note_off_c, 0, 28, 0
1, 457920, Note_off_c, 0, 26, 0
1, 457920, Note_off_c, 0, 27, 0
1, 457920, Note_off_c, 0, 25, 0
1, 457920, Note_off_c, 0, 70, 0
1, 457920, Note_off_c, 0, 73, 0
1, 457920, Note_off_c, 0, 58, 0
1, 457920, Note_off_c, 0, 61, 0
1, 457920, Note_off_c, 0, 65, 0
1, 457920, Note_off_c, 0, 77, 0
1, 458112, Note_on_c, 0, 77, 50
1, 458112, Note_on_c, 0, 65, 50
1, 458112, Note_on_c, 0, 61, 50
1, 458112, Note_on_c, 0, 58, 50
1, 458112, Note_on_c, 0, 73, 50
1, 458112, Note_on_c, 0, 70, 50
1, 458304, Note_off_c, 0, 70, 0
1, 458304, Note_off_c, 0, 73, 0
1, 458304, Note_off_c, 0, 58, 0
1, 458304, Note_off_c, 0, 61, 0
1, 458304, Note_off_c, 0, 65, 0
1, 458304, Note_off_c, 0, 77, 0
1, 458496, Note_off_c, 0, 46, 0
1, 458496, Note_off_c, 0, 34, 0
1, 458496, Note_on_c, 0, 77, 50
1, 458496, Note_on_c, 0, 65, 50
1, 458496, Note_on_c, 0, 61, 50
1, 458496, Note_on_c, 0, 58, 50
1, 458496, Note_on_c, 0, 73, 50
1, 458496, Note_on_c, 0, 70, 50
1, 458496, Note_on_c, 0, 53, 89
1, 458496, Note_on_c, 0, 49, 89
1, 458496, Note_on_c, 0, 65, 54
1, 458496, Note_on_c, 0, 61, 54
1, 458496, Note_on_c, 0, 58, 54
1, 458496, Note_on_c, 0, 70, 54
1, 458688, Note_off_c, 0, 70, 0
1, 458688, Note_off_c, 0, 58, 0
1, 458688, Note_off_c, 0, 61, 0
1, 458688, Note_off_c, 0, 65, 0
1, 458688, Note_off_c, 0, 49, 0
1, 458688, Note_off_c, 0, 53, 0
1, 458688, Note_off_c, 0, 70, 0
1, 458688, Note_off_c, 0, 73, 0
1, 458688, Note_off_c, 0, 58, 0
1, 458688, Note_off_c, 0, 61, 0
1, 458688, Note_off_c, 0, 65, 0
1, 458688, Note_off_c, 0, 77, 0
1, 458880, Note_on_c, 0, 77, 50
1, 458880, Note_on_c, 0, 65, 50
1, 458880, Note_on_c, 0, 61, 50
1, 458880, Note_on_c, 0, 58, 50
1, 458880, Note_on_c, 0, 73, 50
1, 458880, Note_on_c, 0, 70, 50
1, 459072, Note_off_c, 0, 70, 0
1, 459072, Note_off_c, 0, 73, 0
1, 459072, Note_off_c, 0, 58, 0
1, 459072, Note_off_c, 0, 61, 0
1, 459072, Note_off_c, 0, 65, 0
1, 459072, Note_off_c, 0, 77, 0
1, 459264, Note_on_c, 0, 77, 50
1, 459264, Note_on_c, 0, 65, 50
1, 459264, Note_on_c, 0, 61, 50
1, 459264, Note_on_c, 0, 58, 50
1, 459264, Note_on_c, 0, 73, 50
1, 459264, Note_on_c, 0, 70, 50
1, 459264, Note_on_c, 0, 34, 44
1, 459264, Note_on_c, 0, 36, 44
1, 459264, Note_on_c, 0, 35, 44
1, 459264, Note_on_c, 0, 37, 44
1, 459264, Note_on_c, 0, 38, 44
1, 459264, Note_on_c, 0, 40, 44
1, 459264, Note_on_c, 0, 39, 44
1, 459264, Note_on_c, 0, 41, 44
1, 459264, Note_on_c, 0, 33, 44
1, 459264, Note_on_c, 0, 29, 89
1, 459264, Note_on_c, 0, 41, 89
1, 459264, Note_on_c, 0, 89, 15
1, 459360, Note_off_c, 0, 89, 0
1, 459456, Note_off_c, 0, 33, 0
1, 459456, Note_off_c, 0, 41, 0
1, 459456, Note_off_c, 0, 39, 0
1, 459456, Note_off_c, 0, 40, 0
1, 459456, Note_off_c, 0, 38, 0
1, 459456, Note_off_c, 0, 37, 0
1, 459456, Note_off_c, 0, 35, 0
1, 459456, Note_off_c, 0, 36, 0
1, 459456, Note_off_c, 0, 34, 0
1, 459456, Note_off_c, 0, 70, 0
1, 459456, Note_off_c, 0, 73, 0
1, 459456, Note_off_c, 0, 58, 0
1, 459456, Note_off_c, 0, 61, 0
1, 459456, Note_off_c, 0, 65, 0
1, 459456, Note_off_c, 0, 77, 0
1, 459456, Note_on_c, 0, 89, 15
1, 459552, Note_off_c, 0, 89, 0
1, 459648, Note_on_c, 0, 77, 50
1, 459648, Note_on_c, 0, 65, 50
1, 459648, Note_on_c, 0, 61, 50
1, 459648, Note_on_c, 0, 58, 50
1, 459648, Note_on_c, 0, 73, 50
1, 459648, Note_on_c, 0, 70, 50
1, 459648, Note_on_c, 0, 89, 15
1, 459744, Note_off_c, 0, 89, 0
1, 459840, Note_off_c, 0, 70, 0
1, 459840, Note_off_c, 0, 73, 0
1, 459840, Note_off_c, 0, 58, 0
1, 459840, Note_off_c, 0, 61, 0
1, 459840, Note_off_c, 0, 65, 0
1, 459840, Note_off_c, 0, 77, 0
1, 459840, Note_on_c, 0, 89, 15
1, 459936, Note_off_c, 0, 89, 0
1, 460032, Note_off_c, 0, 41, 0
1, 460032, Note_off_c, 0, 29, 0
1, 460032, Note_on_c, 0, 77, 50
1, 460032, Note_on_c, 0, 65, 50
1, 460032, Note_on_c, 0, 61, 50
1, 460032, Note_on_c, 0, 58, 50
1, 460032, Note_on_c, 0, 73, 50
1, 460032, Note_on_c, 0, 70, 50
1, 460032, Note_on_c, 0, 49, 89
1, 460032, Note_on_c, 0, 53, 89
1, 460032, Note_on_c, 0, 89, 25
1, 460032, Note_on_c, 0, 65, 54
1, 460032, Note_on_c, 0, 61, 54
1, 460032, Note_on_c, 0, 58, 54
1, 460032, Note_on_c, 0, 70, 54
1, 460128, Note_off_c, 0, 89, 0
1, 460224, Note_off_c, 0, 70, 0
1, 460224, Note_off_c, 0, 58, 0
1, 460224, Note_off_c, 0, 61, 0
1, 460224, Note_off_c, 0, 65, 0
1, 460224, Note_off_c, 0, 53, 0
1, 460224, Note_off_c, 0, 49, 0
1, 460224, Note_off_c, 0, 70, 0
1, 460224, Note_off_c, 0, 73, 0
1, 460224, Note_off_c, 0, 58, 0
1, 460224, Note_off_c, 0, 61, 0
1, 460224, Note_off_c, 0, 65, 0
1, 460224, Note_off_c, 0, 77, 0
1, 460224, Note_on_c, 0, 89, 25
1, 460320, Note_off_c, 0, 89, 0
1, 460416, Note_on_c, 0, 77, 50
1, 460416, Note_on_c, 0, 65, 50
1, 460416, Note_on_c, 0, 61, 50
1, 460416, Note_on_c, 0, 58, 50
1, 460416, Note_on_c, 0, 73, 50
1, 460416, Note_on_c, 0, 70, 50
1, 460416, Note_on_c, 0, 89, 25
1, 460512, Note_off_c, 0, 89, 0
1, 460608, Note_off_c, 0, 70, 0
1, 460608, Note_off_c, 0, 73, 0
1, 460608, Note_off_c, 0, 58, 0
1, 460608, Note_off_c, 0, 61, 0
1, 460608, Note_off_c, 0, 65, 0
1, 460608, Note_off_c, 0, 77, 0
1, 460608, Note_on_c, 0, 89, 25
1, 460704, Note_off_c, 0, 89, 0
1, 460800, Note_on_c, 0, 77, 50
1, 460800, Note_on_c, 0, 65, 50
1, 460800, Note_on_c, 0, 61, 50
1, 460800, Note_on_c, 0, 58, 50
1, 460800, Note_on_c, 0, 73, 50
1, 460800, Note_on_c, 0, 70, 50
1, 460800, Note_on_c, 0, 25, 44
1, 460800, Note_on_c, 0, 27, 44
1, 460800, Note_on_c, 0, 26, 44
1, 460800, Note_on_c, 0, 28, 44
1, 460800, Note_on_c, 0, 29, 44
1, 460800, Note_on_c, 0, 31, 44
1, 460800, Note_on_c, 0, 30, 44
1, 460800, Note_on_c, 0, 32, 44
1, 460800, Note_on_c, 0, 24, 44
1, 460800, Note_on_c, 0, 34, 89
1, 460800, Note_on_c, 0, 46, 89
1, 460800, Note_on_c, 0, 89, 34
1, 460896, Note_off_c, 0, 89, 0
1, 460992, Note_off_c, 0, 24, 0
1, 460992, Note_off_c, 0, 32, 0
1, 460992, Note_off_c, 0, 30, 0
1, 460992, Note_off_c, 0, 31, 0
1, 460992, Note_off_c, 0, 29, 0
1, 460992, Note_off_c, 0, 28, 0
1, 460992, Note_off_c, 0, 26, 0
1, 460992, Note_off_c, 0, 27, 0
1, 460992, Note_off_c, 0, 25, 0
1, 460992, Note_off_c, 0, 70, 0
1, 460992, Note_off_c, 0, 73, 0
1, 460992, Note_off_c, 0, 58, 0
1, 460992, Note_off_c, 0, 61, 0
1, 460992, Note_off_c, 0, 65, 0
1, 460992, Note_off_c, 0, 77, 0
1, 460992, Note_on_c, 0, 89, 34
1, 461088, Note_off_c, 0, 89, 0
1, 461184, Note_on_c, 0, 77, 50
1, 461184, Note_on_c, 0, 65, 50
1, 461184, Note_on_c, 0, 61, 50
1, 461184, Note_on_c, 0, 58, 50
1, 461184, Note_on_c, 0, 73, 50
1, 461184, Note_on_c, 0, 70, 50
1, 461184, Note_on_c, 0, 89, 34
1, 461280, Note_off_c, 0, 89, 0
1, 461376, Note_off_c, 0, 70, 0
1, 461376, Note_off_c, 0, 73, 0
1, 461376, Note_off_c, 0, 58, 0
1, 461376, Note_off_c, 0, 61, 0
1, 461376, Note_off_c, 0, 65, 0
1, 461376, Note_off_c, 0, 77, 0
1, 461376, Note_on_c, 0, 89, 34
1, 461472, Note_off_c, 0, 89, 0
1, 461568, Note_off_c, 0, 46, 0
1, 461568, Note_off_c, 0, 34, 0
1, 461568, Note_on_c, 0, 77, 50
1, 461568, Note_on_c, 0, 65, 50
1, 461568, Note_on_c, 0, 61, 50
1, 461568, Note_on_c, 0, 58, 50
1, 461568, Note_on_c, 0, 73, 50
1, 461568, Note_on_c, 0, 70, 50
1, 461568, Note_on_c, 0, 53, 89
1, 461568, Note_on_c, 0, 49, 89
1, 461568, Note_on_c, 0, 89, 44
1, 461568, Note_on_c, 0, 58, 54
1, 461568, Note_on_c, 0, 61, 54
1, 461568, Note_on_c, 0, 65, 54
1, 461568, Note_on_c, 0, 70, 54
1, 461664, Note_off_c, 0, 89, 0
1, 461760, Note_off_c, 0, 70, 0
1, 461760, Note_off_c, 0, 65, 0
1, 461760, Note_off_c, 0, 61, 0
1, 461760, Note_off_c, 0, 58, 0
1, 461760, Note_off_c, 0, 49, 0
1, 461760, Note_off_c, 0, 53, 0
1, 461760, Note_off_c, 0, 70, 0
1, 461760, Note_off_c, 0, 73, 0
1, 461760, Note_off_c, 0, 58, 0
1, 461760, Note_off_c, 0, 61, 0
1, 461760, Note_off_c, 0, 65, 0
1, 461760, Note_off_c, 0, 77, 0
1, 461760, Note_on_c, 0, 89, 44
1, 461856, Note_off_c, 0, 89, 0
1, 461952, Note_on_c, 0, 77, 50
1, 461952, Note_on_c, 0, 65, 50
1, 461952, Note_on_c, 0, 61, 50
1, 461952, Note_on_c, 0, 58, 50
1, 461952, Note_on_c, 0, 73, 50
1, 461952, Note_on_c, 0, 70, 50
1, 461952, Note_on_c, 0, 89, 44
1, 462048, Note_off_c, 0, 89, 0
1, 462144, Note_off_c, 0, 70, 0
1, 462144, Note_off_c, 0, 73, 0
1, 462144, Note_off_c, 0, 58, 0
1, 462144, Note_off_c, 0, 61, 0
1, 462144, Note_off_c, 0, 65, 0
1, 462144, Note_off_c, 0, 77, 0
1, 462144, Note_on_c, 0, 89, 44
1, 462240, Note_off_c, 0, 89, 0
1, 462336, Note_on_c, 0, 77, 50
1, 462336, Note_on_c, 0, 65, 50
1, 462336, Note_on_c, 0, 61, 50
1, 462336, Note_on_c, 0, 58, 50
1, 462336, Note_on_c, 0, 73, 50
1, 462336, Note_on_c, 0, 70, 50
1, 462336, Note_on_c, 0, 34, 44
1, 462336, Note_on_c, 0, 36, 44
1, 462336, Note_on_c, 0, 35, 44
1, 462336, Note_on_c, 0, 37, 44
1, 462336, Note_on_c, 0, 38, 44
1, 462336, Note_on_c, 0, 40, 44
1, 462336, Note_on_c, 0, 39, 44
1, 462336, Note_on_c, 0, 41, 44
1, 462336, Note_on_c, 0, 33, 44
1, 462336, Note_on_c, 0, 29, 89
1, 462336, Note_on_c, 0, 41, 89
1, 462336, Note_on_c, 0, 89, 50
1, 462432, Note_off_c, 0, 89, 0
1, 462528, Note_off_c, 0, 33, 0
1, 462528, Note_off_c, 0, 41, 0
1, 462528, Note_off_c, 0, 39, 0
1, 462528, Note_off_c, 0, 40, 0
1, 462528, Note_off_c, 0, 38, 0
1, 462528, Note_off_c, 0, 37, 0
1, 462528, Note_off_c, 0, 35, 0
1, 462528, Note_off_c, 0, 36, 0
1, 462528, Note_off_c, 0, 34, 0
1, 462528, Note_off_c, 0, 70, 0
1, 462528, Note_off_c, 0, 73, 0
1, 462528, Note_off_c, 0, 58, 0
1, 462528, Note_off_c, 0, 61, 0
1, 462528, Note_off_c, 0, 65, 0
1, 462528, Note_off_c, 0, 77, 0
1, 462528, Note_on_c, 0, 89, 30
1, 462624, Note_off_c, 0, 89, 0
1, 462720, Note_on_c, 0, 78, 50
1, 462720, Note_on_c, 0, 66, 50
1, 462720, Note_on_c, 0, 63, 50
1, 462720, Note_on_c, 0, 58, 50
1, 462720, Note_on_c, 0, 75, 50
1, 462720, Note_on_c, 0, 70, 50
1, 462720, Note_on_c, 0, 89, 30
1, 462816, Note_off_c, 0, 89, 0
1, 462912, Note_off_c, 0, 70, 0
1, 462912, Note_off_c, 0, 75, 0
1, 462912, Note_off_c, 0, 58, 0
1, 462912, Note_off_c, 0, 63, 0
1, 462912, Note_off_c, 0, 66, 0
1, 462912, Note_off_c, 0, 78, 0
1, 462912, Note_on_c, 0, 89, 30
1, 463008, Note_off_c, 0, 89, 0
1, 463104, Note_off_c, 0, 41, 0
1, 463104, Note_off_c, 0, 29, 0
1, 463104, Note_on_c, 0, 77, 50
1, 463104, Note_on_c, 0, 65, 50
1, 463104, Note_on_c, 0, 61, 50
1, 463104, Note_on_c, 0, 58, 50
1, 463104, Note_on_c, 0, 73, 50
1, 463104, Note_on_c, 0, 70, 50
1, 463104, Note_on_c, 0, 49, 89
1, 463104, Note_on_c, 0, 53, 89
1, 463104, Note_on_c, 0, 58, 54
1, 463104, Note_on_c, 0, 61, 54
1, 463104, Note_on_c, 0, 65, 54
1, 463104, Note_on_c, 0, 70, 54
1, 463296, Note_off_c, 0, 70, 0
1, 463296, Note_off_c, 0, 65, 0
1, 463296, Note_off_c, 0, 61, 0
1, 463296, Note_off_c, 0, 58, 0
1, 463296, Note_off_c, 0, 53, 0
1, 463296, Note_off_c, 0, 49, 0
1, 463296, Note_off_c, 0, 70, 0
1, 463296, Note_off_c, 0, 73, 0
1, 463296, Note_off_c, 0, 58, 0
1, 463296, Note_off_c, 0, 61, 0
1, 463296, Note_off_c, 0, 65, 0
1, 463296, Note_off_c, 0, 77, 0
1, 463488, Note_on_c, 0, 76, 50
1, 463488, Note_on_c, 0, 64, 50
1, 463488, Note_on_c, 0, 60, 50
1, 463488, Note_on_c, 0, 58, 50
1, 463488, Note_on_c, 0, 72, 50
1, 463488, Note_on_c, 0, 70, 50
1, 463680, Note_off_c, 0, 70, 0
1, 463680, Note_off_c, 0, 72, 0
1, 463680, Note_off_c, 0, 58, 0
1, 463680, Note_off_c, 0, 60, 0
1, 463680, Note_off_c, 0, 64, 0
1, 463680, Note_off_c, 0, 76, 0
1, 463872, Note_on_c, 0, 25, 44
1, 463872, Note_on_c, 0, 27, 44
1, 463872, Note_on_c, 0, 26, 44
1, 463872, Note_on_c, 0, 28, 44
1, 463872, Note_on_c, 0, 29, 44
1, 463872, Note_on_c, 0, 31, 44
1, 463872, Note_on_c, 0, 30, 44
1, 463872, Note_on_c, 0, 32, 44
1, 463872, Note_on_c, 0, 24, 44
1, 463872, Note_on_c, 0, 34, 89
1, 463872, Note_on_c, 0, 46, 89
1, 463872, Note_on_c, 0, 77, 50
1, 463872, Note_on_c, 0, 65, 50
1, 463872, Note_on_c, 0, 61, 50
1, 463872, Note_on_c, 0, 58, 50
1, 463872, Note_on_c, 0, 73, 50
1, 463872, Note_on_c, 0, 70, 50
1, 464064, Note_off_c, 0, 70, 0
1, 464064, Note_off_c, 0, 73, 0
1, 464064, Note_off_c, 0, 58, 0
1, 464064, Note_off_c, 0, 61, 0
1, 464064, Note_off_c, 0, 65, 0
1, 464064, Note_off_c, 0, 77, 0
1, 464064, Note_off_c, 0, 24, 0
1, 464064, Note_off_c, 0, 32, 0
1, 464064, Note_off_c, 0, 30, 0
1, 464064, Note_off_c, 0, 31, 0
1, 464064, Note_off_c, 0, 29, 0
1, 464064, Note_off_c, 0, 28, 0
1, 464064, Note_off_c, 0, 26, 0
1, 464064, Note_off_c, 0, 27, 0
1, 464064, Note_off_c, 0, 25, 0
1, 464640, Note_off_c, 0, 46, 0
1, 464640, Note_off_c, 0, 34, 0
1, 464640, Note_on_c, 0, 53, 89
1, 464640, Note_on_c, 0, 49, 89
1, 464640, Note_on_c, 0, 82, 50
1, 464640, Note_on_c, 0, 70, 50
1, 464640, Note_on_c, 0, 65, 50
1, 464640, Note_on_c, 0, 61, 50
1, 464640, Note_on_c, 0, 77, 50
1, 464640, Note_on_c, 0, 73, 50
1, 464640, Note_on_c, 0, 70, 54
1, 464640, Note_on_c, 0, 65, 54
1, 464640, Note_on_c, 0, 61, 54
1, 464640, Note_on_c, 0, 58, 54
1, 464832, Note_off_c, 0, 58, 0
1, 464832, Note_off_c, 0, 61, 0
1, 464832, Note_off_c, 0, 65, 0
1, 464832, Note_off_c, 0, 70, 0
1, 464832, Note_off_c, 0, 73, 0
1, 464832, Note_off_c, 0, 77, 0
1, 464832, Note_off_c, 0, 61, 0
1, 464832, Note_off_c, 0, 65, 0
1, 464832, Note_off_c, 0, 70, 0
1, 464832, Note_off_c, 0, 82, 0
1, 464832, Note_off_c, 0, 49, 0
1, 464832, Note_off_c, 0, 53, 0
1, 465408, Note_on_c, 0, 34, 44
1, 465408, Note_on_c, 0, 36, 44
1, 465408, Note_on_c, 0, 35, 44
1, 465408, Note_on_c, 0, 37, 44
1, 465408, Note_on_c, 0, 38, 44
1, 465408, Note_on_c, 0, 40, 44
1, 465408, Note_on_c, 0, 39, 44
1, 465408, Note_on_c, 0, 41, 44
1, 465408, Note_on_c, 0, 33, 44
1, 465408, Note_on_c, 0, 29, 89
1, 465408, Note_on_c, 0, 41, 89
1, 465408, Note_on_c, 0, 85, 50
1, 465408, Note_on_c, 0, 73, 50
1, 465408, Note_on_c, 0, 70, 50
1, 465408, Note_on_c, 0, 65, 50
1, 465408, Note_on_c, 0, 82, 50
1, 465408, Note_on_c, 0, 77, 50
1, 465600, Note_off_c, 0, 33, 0
1, 465600, Note_off_c, 0, 41, 0
1, 465600, Note_off_c, 0, 39, 0
1, 465600, Note_off_c, 0, 40, 0
1, 465600, Note_off_c, 0, 38, 0
1, 465600, Note_off_c, 0, 37, 0
1, 465600, Note_off_c, 0, 35, 0
1, 465600, Note_off_c, 0, 36, 0
1, 465600, Note_off_c, 0, 34, 0
1, 466176, Note_off_c, 0, 41, 0
1, 466176, Note_off_c, 0, 29, 0
1, 466176, Note_on_c, 0, 49, 89
1, 466176, Note_on_c, 0, 53, 89
1, 466176, Note_on_c, 0, 70, 54
1, 466176, Note_on_c, 0, 65, 54
1, 466176, Note_on_c, 0, 61, 79
1, 466176, Note_on_c, 0, 58, 79
1, 466368, Note_off_c, 0, 58, 0
1, 466368, Note_off_c, 0, 61, 0
1, 466368, Note_off_c, 0, 65, 0
1, 466368, Note_off_c, 0, 70, 0
1, 466368, Note_off_c, 0, 53, 0
1, 466368, Note_off_c, 0, 49, 0
1, 466560, Note_off_c, 0, 77, 0
1, 466560, Note_off_c, 0, 82, 0
1, 466560, Note_off_c, 0, 65, 0
1, 466560, Note_off_c, 0, 70, 0
1, 466560, Note_off_c, 0, 73, 0
1, 466560, Note_off_c, 0, 85, 0
1, 466944, Note_on_c, 0, 25, 44
1, 466944, Note_on_c, 0, 27, 44
1, 466944, Note_on_c, 0, 26, 44
1, 466944, Note_on_c, 0, 28, 44
1, 466944, Note_on_c, 0, 29, 44
1, 466944, Note_on_c, 0, 31, 44
1, 466944, Note_on_c, 0, 30, 44
1, 466944, Note_on_c, 0, 32, 44
1, 466944, Note_on_c, 0, 33, 44
1, 466944, Note_on_c, 0, 33, 89
1, 466944, Note_on_c, 0, 45, 89
1, 466944, Note_on_c, 0, 87, 50
1, 466944, Note_on_c, 0, 75, 50
1, 466944, Note_on_c, 0, 70, 50
1, 466944, Note_on_c, 0, 66, 50
1, 466944, Note_on_c, 0, 82, 50
1, 466944, Note_on_c, 0, 78, 50
1, 467136, Note_off_c, 0, 78, 0
1, 467136, Note_off_c, 0, 82, 0
1, 467136, Note_off_c, 0, 66, 0
1, 467136, Note_off_c, 0, 70, 0
1, 467136, Note_off_c, 0, 75, 0
1, 467136, Note_off_c, 0, 87, 0
1, 467136, Note_off_c, 0, 33, 0
1, 467136, Note_off_c, 0, 32, 0
1, 467136, Note_off_c, 0, 30, 0
1, 467136, Note_off_c, 0, 31, 0
1, 467136, Note_off_c, 0, 29, 0
1, 467136, Note_off_c, 0, 28, 0
1, 467136, Note_off_c, 0, 26, 0
1, 467136, Note_off_c, 0, 27, 0
1, 467136, Note_off_c, 0, 25, 0
1, 467328, Note_on_c, 0, 87, 50
1, 467328, Note_on_c, 0, 75, 50
1, 467328, Note_on_c, 0, 70, 50
1, 467328, Note_on_c, 0, 66, 50
1, 467328, Note_on_c, 0, 82, 50
1, 467328, Note_on_c, 0, 78, 50
1, 467520, Note_off_c, 0, 78, 0
1, 467520, Note_off_c, 0, 82, 0
1, 467520, Note_off_c, 0, 66, 0
1, 467520, Note_off_c, 0, 70, 0
1, 467520, Note_off_c, 0, 75, 0
1, 467520, Note_off_c, 0, 87, 0
1, 467712, Note_off_c, 0, 45, 0
1, 467712, Note_off_c, 0, 33, 0
1, 467712, Note_on_c, 0, 57, 89
1, 467712, Note_on_c, 0, 53, 89
1, 467712, Note_on_c, 0, 87, 50
1, 467712, Note_on_c, 0, 75, 50
1, 467712, Note_on_c, 0, 70, 50
1, 467712, Note_on_c, 0, 66, 50
1, 467712, Note_on_c, 0, 82, 50
1, 467712, Note_on_c, 0, 78, 50
1, 467712, Note_on_c, 0, 60, 89
1, 467712, Note_on_c, 0, 69, 89
1, 467712, Note_on_c, 0, 65, 89
1, 467712, Note_on_c, 0, 72, 89
1, 467904, Note_off_c, 0, 72, 0
1, 467904, Note_off_c, 0, 65, 0
1, 467904, Note_off_c, 0, 69, 0
1, 467904, Note_off_c, 0, 60, 0
1, 467904, Note_off_c, 0, 78, 0
1, 467904, Note_off_c, 0, 82, 0
1, 467904, Note_off_c, 0, 66, 0
1, 467904, Note_off_c, 0, 70, 0
1, 467904, Note_off_c, 0, 75, 0
1, 467904, Note_off_c, 0, 87, 0
1, 467904, Note_off_c, 0, 53, 0
1, 467904, Note_off_c, 0, 57, 0
1, 468096, Note_on_c, 0, 87, 50
1, 468096, Note_on_c, 0, 75, 50
1, 468096, Note_on_c, 0, 70, 50
1, 468096, Note_on_c, 0, 66, 50
1, 468096, Note_on_c, 0, 82, 50
1, 468096, Note_on_c, 0, 78, 50
1, 468288, Note_off_c, 0, 78, 0
1, 468288, Note_off_c, 0, 82, 0
1, 468288, Note_off_c, 0, 66, 0
1, 468288, Note_off_c, 0, 70, 0
1, 468288, Note_off_c, 0, 75, 0
1, 468288, Note_off_c, 0, 87, 0
1, 468480, Note_on_c, 0, 34, 44
1, 468480, Note_on_c, 0, 36, 44
1, 468480, Note_on_c, 0, 35, 44
1, 468480, Note_on_c, 0, 37, 44
1, 468480, Note_on_c, 0, 38, 44
1, 468480, Note_on_c, 0, 40, 44
1, 468480, Note_on_c, 0, 39, 44
1, 468480, Note_on_c, 0, 41, 44
1, 468480, Note_on_c, 0, 33, 44
1, 468480, Note_on_c, 0, 41, 89
1, 468480, Note_on_c, 0, 87, 50
1, 468480, Note_on_c, 0, 75, 50
1, 468480, Note_on_c, 0, 70, 50
1, 468480, Note_on_c, 0, 66, 50
1, 468480, Note_on_c, 0, 82, 50
1, 468480, Note_on_c, 0, 78, 50
1, 468672, Note_off_c, 0, 78, 0
1, 468672, Note_off_c, 0, 82, 0
1, 468672, Note_off_c, 0, 66, 0
1, 468672, Note_off_c, 0, 70, 0
1, 468672, Note_off_c, 0, 75, 0
1, 468672, Note_off_c, 0, 87, 0
1, 468672, Note_off_c, 0, 33, 0
1, 468672, Note_off_c, 0, 41, 0
1, 468672, Note_off_c, 0, 39, 0
1, 468672, Note_off_c, 0, 40, 0
1, 468672, Note_off_c, 0, 38, 0
1, 468672, Note_off_c, 0, 37, 0
1, 468672, Note_off_c, 0, 35, 0
1, 468672, Note_off_c, 0, 36, 0
1, 468672, Note_off_c, 0, 34, 0
1, 468864, Note_on_c, 0, 85, 50
1, 468864, Note_on_c, 0, 73, 50
1, 468864, Note_on_c, 0, 70, 50
1, 468864, Note_on_c, 0, 65, 50
1, 468864, Note_on_c, 0, 82, 50
1, 468864, Note_on_c, 0, 77, 50
1, 469056, Note_off_c, 0, 77, 0
1, 469056, Note_off_c, 0, 82, 0
1, 469056, Note_off_c, 0, 65, 0
1, 469056, Note_off_c, 0, 70, 0
1, 469056, Note_off_c, 0, 73, 0
1, 469056, Note_off_c, 0, 85, 0
1, 469248, Note_off_c, 0, 41, 0
1, 469248, Note_on_c, 0, 53, 89
1, 469248, Note_on_c, 0, 84, 50
1, 469248, Note_on_c, 0, 72, 50
1, 469248, Note_on_c, 0, 69, 50
1, 469248, Note_on_c, 0, 63, 50
1, 469248, Note_on_c, 0, 81, 50
1, 469248, Note_on_c, 0, 75, 50
1, 469248, Note_on_c, 0, 72, 89
1, 469248, Note_on_c, 0, 69, 89
1, 469248, Note_on_c, 0, 65, 89
1, 469248, Note_on_c, 0, 60, 89
1, 469248, Note_on_c, 0, 57, 89
1, 469440, Note_off_c, 0, 57, 0
1, 469440, Note_off_c, 0, 60, 0
1, 469440, Note_off_c, 0, 65, 0
1, 469440, Note_off_c, 0, 69, 0
1, 469440, Note_off_c, 0, 72, 0
1, 469440, Note_off_c, 0, 75, 0
1, 469440, Note_off_c, 0, 81, 0
1, 469440, Note_off_c, 0, 63, 0
1, 469440, Note_off_c, 0, 69, 0
1, 469440, Note_off_c, 0, 72, 0
1, 469440, Note_off_c, 0, 84, 0
1, 469440, Note_off_c, 0, 53, 0
1, 469632, Note_on_c, 0, 87, 50
1, 469632, Note_on_c, 0, 75, 50
1, 469632, Note_on_c, 0, 70, 50
1, 469632, Note_on_c, 0, 66, 50
1, 469632, Note_on_c, 0, 82, 50
1, 469632, Note_on_c, 0, 78, 50
1, 469824, Note_off_c, 0, 78, 0
1, 469824, Note_off_c, 0, 82, 0
1, 469824, Note_off_c, 0, 66, 0
1, 469824, Note_off_c, 0, 70, 0
1, 469824, Note_off_c, 0, 75, 0
1, 469824, Note_off_c, 0, 87, 0
1, 470016, Note_on_c, 0, 25, 44
1, 470016, Note_on_c, 0, 27, 44
1, 470016, Note_on_c, 0, 26, 44
1, 470016, Note_on_c, 0, 28, 44
1, 470016, Note_on_c, 0, 29, 44
1, 470016, Note_on_c, 0, 31, 44
1, 470016, Note_on_c, 0, 30, 44
1, 470016, Note_on_c, 0, 32, 44
1, 470016, Note_on_c, 0, 24, 44
1, 470016, Note_on_c, 0, 34, 89
1, 470016, Note_on_c, 0, 46, 89
1, 470016, Note_on_c, 0, 85, 50
1, 470016, Note_on_c, 0, 73, 50
1, 470016, Note_on_c, 0, 70, 50
1, 470016, Note_on_c, 0, 65, 50
1, 470016, Note_on_c, 0, 82, 50
1, 470016, Note_on_c, 0, 77, 50
1, 470208, Note_off_c, 0, 77, 0
1, 470208, Note_off_c, 0, 82, 0
1, 470208, Note_off_c, 0, 65, 0
1, 470208, Note_off_c, 0, 70, 0
1, 470208, Note_off_c, 0, 73, 0
1, 470208, Note_off_c, 0, 85, 0
1, 470208, Note_off_c, 0, 24, 0
1, 470208, Note_off_c, 0, 32, 0
1, 470208, Note_off_c, 0, 30, 0
1, 470208, Note_off_c, 0, 31, 0
1, 470208, Note_off_c, 0, 29, 0
1, 470208, Note_off_c, 0, 28, 0
1, 470208, Note_off_c, 0, 26, 0
1, 470208, Note_off_c, 0, 27, 0
1, 470208, Note_off_c, 0, 25, 0
1, 470400, Note_on_c, 0, 85, 50
1, 470400, Note_on_c, 0, 73, 50
1, 470400, Note_on_c, 0, 70, 50
1, 470400, Note_on_c, 0, 65, 50
1, 470400, Note_on_c, 0, 82, 50
1, 470400, Note_on_c, 0, 77, 50
1, 470592, Note_off_c, 0, 77, 0
1, 470592, Note_off_c, 0, 82, 0
1, 470592, Note_off_c, 0, 65, 0
1, 470592, Note_off_c, 0, 70, 0
1, 470592, Note_off_c, 0, 73, 0
1, 470592, Note_off_c, 0, 85, 0
1, 470784, Note_off_c, 0, 46, 0
1, 470784, Note_off_c, 0, 34, 0
1, 470784, Note_on_c, 0, 49, 89
1, 470784, Note_on_c, 0, 53, 89
1, 470784, Note_on_c, 0, 85, 50
1, 470784, Note_on_c, 0, 73, 50
1, 470784, Note_on_c, 0, 70, 50
1, 470784, Note_on_c, 0, 65, 50
1, 470784, Note_on_c, 0, 82, 50
1, 470784, Note_on_c, 0, 77, 50
1, 470784, Note_on_c, 0, 58, 79
1, 470784, Note_on_c, 0, 61, 79
1, 470784, Note_on_c, 0, 65, 54
1, 470784, Note_on_c, 0, 70, 54
1, 470976, Note_off_c, 0, 70, 0
1, 470976, Note_off_c, 0, 65, 0
1, 470976, Note_off_c, 0, 61, 0
1, 470976, Note_off_c, 0, 58, 0
1, 470976, Note_off_c, 0, 77, 0
1, 470976, Note_off_c, 0, 82, 0
1, 470976, Note_off_c, 0, 65, 0
1, 470976, Note_off_c, 0, 70, 0
1, 470976, Note_off_c, 0, 73, 0
1, 470976, Note_off_c, 0, 85, 0
1, 470976, Note_off_c, 0, 53, 0
1, 470976, Note_off_c, 0, 49, 0
1, 471168, Note_on_c, 0, 85, 50
1, 471168, Note_on_c, 0, 73, 50
1, 471168, Note_on_c, 0, 70, 50
1, 471168, Note_on_c, 0, 65, 50
1, 471168, Note_on_c, 0, 82, 50
1, 471168, Note_on_c, 0, 77, 50
1, 471360, Note_off_c, 0, 77, 0
1, 471360, Note_off_c, 0, 82, 0
1, 471360, Note_off_c, 0, 65, 0
1, 471360, Note_off_c, 0, 70, 0
1, 471360, Note_off_c, 0, 73, 0
1, 471360, Note_off_c, 0, 85, 0
1, 471552, Note_on_c, 0, 34, 44
1, 471552, Note_on_c, 0, 36, 44
1, 471552, Note_on_c, 0, 35, 44
1, 471552, Note_on_c, 0, 37, 44
1, 471552, Note_on_c, 0, 38, 44
1, 471552, Note_on_c, 0, 40, 44
1, 471552, Note_on_c, 0, 39, 44
1, 471552, Note_on_c, 0, 41, 44
1, 471552, Note_on_c, 0, 33, 44
1, 471552, Note_on_c, 0, 41, 89
1, 471552, Note_on_c, 0, 85, 50
1, 471552, Note_on_c, 0, 73, 50
1, 471552, Note_on_c, 0, 70, 50
1, 471552, Note_on_c, 0, 65, 50
1, 471552, Note_on_c, 0, 82, 50
1, 471552, Note_on_c, 0, 77, 50
1, 471744, Note_off_c, 0, 77, 0
1, 471744, Note_off_c, 0, 82, 0
1, 471744, Note_off_c, 0, 65, 0
1, 471744, Note_off_c, 0, 70, 0
1, 471744, Note_off_c, 0, 73, 0
1, 471744, Note_off_c, 0, 85, 0
1, 471744, Note_off_c, 0, 33, 0
1, 471744, Note_off_c, 0, 41, 0
1, 471744, Note_off_c, 0, 39, 0
1, 471744, Note_off_c, 0, 40, 0
1, 471744, Note_off_c, 0, 38, 0
1, 471744, Note_off_c, 0, 37, 0
1, 471744, Note_off_c, 0, 35, 0
1, 471744, Note_off_c, 0, 36, 0
1, 471744, Note_off_c, 0, 34, 0
1, 471936, Note_on_c, 0, 84, 50
1, 471936, Note_on_c, 0, 72, 50
1, 471936, Note_on_c, 0, 63, 50
1, 471936, Note_on_c, 0, 75, 50
1, 471936, Note_on_c, 0, 81, 50
1, 471936, Note_on_c, 0, 69, 50
1, 472128, Note_off_c, 0, 69, 0
1, 472128, Note_off_c, 0, 81, 0
1, 472128, Note_off_c, 0, 75, 0
1, 472128, Note_off_c, 0, 63, 0
1, 472128, Note_off_c, 0, 72, 0
1, 472128, Note_off_c, 0, 84, 0
1, 472320, Note_off_c, 0, 41, 0
1, 472320, Note_on_c, 0, 49, 89
1, 472320, Note_on_c, 0, 53, 89
1, 472320, Note_on_c, 0, 82, 50
1, 472320, Note_on_c, 0, 70, 50
1, 472320, Note_on_c, 0, 65, 50
1, 472320, Note_on_c, 0, 61, 50
1, 472320, Note_on_c, 0, 77, 50
1, 472320, Note_on_c, 0, 73, 50
1, 472320, Note_on_c, 0, 58, 79
1, 472320, Note_on_c, 0, 61, 79
1, 472320, Note_on_c, 0, 65, 54
1, 472320, Note_on_c, 0, 70, 54
1, 472512, Note_off_c, 0, 70, 0
1, 472512, Note_off_c, 0, 65, 0
1, 472512, Note_off_c, 0, 61, 0
1, 472512, Note_off_c, 0, 58, 0
1, 472512, Note_off_c, 0, 73, 0
1, 472512, Note_off_c, 0, 77, 0
1, 472512, Note_off_c, 0, 61, 0
1, 472512, Note_off_c, 0, 65, 0
1, 472512, Note_off_c, 0, 70, 0
1, 472512, Note_off_c, 0, 82, 0
1, 472512, Note_off_c, 0, 53, 0
1, 472512, Note_off_c, 0, 49, 0
1, 472704, Note_on_c, 0, 85, 50
1, 472704, Note_on_c, 0, 73, 50
1, 472704, Note_on_c, 0, 70, 50
1, 472704, Note_on_c, 0, 65, 50
1, 472704, Note_on_c, 0, 82, 50
1, 472704, Note_on_c, 0, 77, 50
1, 472896, Note_off_c, 0, 77, 0
1, 472896, Note_off_c, 0, 82, 0
1, 472896, Note_off_c, 0, 65, 0
1, 472896, Note_off_c, 0, 70, 0
1, 472896, Note_off_c, 0, 73, 0
1, 472896, Note_off_c, 0, 85, 0
1, 473088, Note_on_c, 0, 25, 44
1, 473088, Note_on_c, 0, 27, 44
1, 473088, Note_on_c, 0, 26, 44
1, 473088, Note_on_c, 0, 28, 44
1, 473088, Note_on_c, 0, 29, 44
1, 473088, Note_on_c, 0, 31, 44
1, 473088, Note_on_c, 0, 30, 44
1, 473088, Note_on_c, 0, 32, 44
1, 473088, Note_on_c, 0, 24, 44
1, 473088, Note_on_c, 0, 36, 89
1, 473088, Note_on_c, 0, 48, 89
1, 473088, Note_on_c, 0, 84, 50
1, 473088, Note_on_c, 0, 72, 50
1, 473088, Note_on_c, 0, 67, 50
1, 473088, Note_on_c, 0, 64, 50
1, 473088, Note_on_c, 0, 79, 50
1, 473088, Note_on_c, 0, 76, 50
1, 473280, Note_off_c, 0, 76, 0
1, 473280, Note_off_c, 0, 79, 0
1, 473280, Note_off_c, 0, 64, 0
1, 473280, Note_off_c, 0, 67, 0
1, 473280, Note_off_c, 0, 72, 0
1, 473280, Note_off_c, 0, 84, 0
1, 473280, Note_off_c, 0, 24, 0
1, 473280, Note_off_c, 0, 32, 0
1, 473280, Note_off_c, 0, 30, 0
1, 473280, Note_off_c, 0, 31, 0
1, 473280, Note_off_c, 0, 29, 0
1, 473280, Note_off_c, 0, 28, 0
1, 473280, Note_off_c, 0, 26, 0
1, 473280, Note_off_c, 0, 27, 0
1, 473280, Note_off_c, 0, 25, 0
1, 473472, Note_on_c, 0, 84, 50
1, 473472, Note_on_c, 0, 72, 50
1, 473472, Note_on_c, 0, 67, 50
1, 473472, Note_on_c, 0, 64, 50
1, 473472, Note_on_c, 0, 79, 50
1, 473472, Note_on_c, 0, 76, 50
1, 473664, Note_off_c, 0, 76, 0
1, 473664, Note_off_c, 0, 79, 0
1, 473664, Note_off_c, 0, 64, 0
1, 473664, Note_off_c, 0, 67, 0
1, 473664, Note_off_c, 0, 72, 0
1, 473664, Note_off_c, 0, 84, 0
1, 473856, Note_off_c, 0, 48, 0
1, 473856, Note_off_c, 0, 36, 0
1, 473856, Note_on_c, 0, 48, 89
1, 473856, Note_on_c, 0, 52, 89
1, 473856, Note_on_c, 0, 84, 50
1, 473856, Note_on_c, 0, 72, 50
1, 473856, Note_on_c, 0, 67, 50
1, 473856, Note_on_c, 0, 64, 50
1, 473856, Note_on_c, 0, 79, 50
1, 473856, Note_on_c, 0, 76, 50
1, 473856, Note_on_c, 0, 70, 54
1, 473856, Note_on_c, 0, 64, 54
1, 473856, Note_on_c, 0, 60, 79
1, 473856, Note_on_c, 0, 58, 79
1, 474048, Note_off_c, 0, 58, 0
1, 474048, Note_off_c, 0, 60, 0
1, 474048, Note_off_c, 0, 64, 0
1, 474048, Note_off_c, 0, 70, 0
1, 474048, Note_off_c, 0, 76, 0
1, 474048, Note_off_c, 0, 79, 0
1, 474048, Note_off_c, 0, 64, 0
1, 474048, Note_off_c, 0, 67, 0
1, 474048, Note_off_c, 0, 72, 0
1, 474048, Note_off_c, 0, 84, 0
1, 474048, Note_off_c, 0, 52, 0
1, 474048, Note_off_c, 0, 48, 0
1, 474240, Note_on_c, 0, 84, 50
1, 474240, Note_on_c, 0, 72, 50
1, 474240, Note_on_c, 0, 67, 50
1, 474240, Note_on_c, 0, 64, 50
1, 474240, Note_on_c, 0, 79, 50
1, 474240, Note_on_c, 0, 76, 50
1, 474432, Note_off_c, 0, 76, 0
1, 474432, Note_off_c, 0, 79, 0
1, 474432, Note_off_c, 0, 64, 0
1, 474432, Note_off_c, 0, 67, 0
1, 474432, Note_off_c, 0, 72, 0
1, 474432, Note_off_c, 0, 84, 0
1, 474624, Note_on_c, 0, 34, 44
1, 474624, Note_on_c, 0, 36, 44
1, 474624, Note_on_c, 0, 35, 44
1, 474624, Note_on_c, 0, 37, 44
1, 474624, Note_on_c, 0, 38, 44
1, 474624, Note_on_c, 0, 40, 44
1, 474624, Note_on_c, 0, 39, 44
1, 474624, Note_on_c, 0, 41, 44
1, 474624, Note_on_c, 0, 33, 44
1, 474624, Note_on_c, 0, 48, 89
1, 474624, Note_on_c, 0, 72, 50
1, 474624, Note_on_c, 0, 67, 50
1, 474624, Note_on_c, 0, 64, 50
1, 474624, Note_on_c, 0, 79, 50
1, 474624, Note_on_c, 0, 76, 50
1, 474624, Note_on_c, 0, 60, 50
1, 474816, Note_off_c, 0, 60, 0
1, 474816, Note_off_c, 0, 76, 0
1, 474816, Note_off_c, 0, 79, 0
1, 474816, Note_off_c, 0, 64, 0
1, 474816, Note_off_c, 0, 67, 0
1, 474816, Note_off_c, 0, 72, 0
1, 474816, Note_off_c, 0, 33, 0
1, 474816, Note_off_c, 0, 41, 0
1, 474816, Note_off_c, 0, 39, 0
1, 474816, Note_off_c, 0, 40, 0
1, 474816, Note_off_c, 0, 38, 0
1, 474816, Note_off_c, 0, 37, 0
1, 474816, Note_off_c, 0, 35, 0
1, 474816, Note_off_c, 0, 36, 0
1, 474816, Note_off_c, 0, 34, 0
1, 475392, Note_off_c, 0, 48, 0
1, 475392, Note_on_c, 0, 48, 89
1, 475392, Note_on_c, 0, 52, 89
1, 475392, Note_on_c, 0, 84, 50
1, 475392, Note_on_c, 0, 72, 50
1, 475392, Note_on_c, 0, 67, 50
1, 475392, Note_on_c, 0, 64, 50
1, 475392, Note_on_c, 0, 79, 50
1, 475392, Note_on_c, 0, 76, 50
1, 475392, Note_on_c, 0, 58, 79
1, 475392, Note_on_c, 0, 60, 79
1, 475392, Note_on_c, 0, 64, 54
1, 475392, Note_on_c, 0, 70, 54
1, 475584, Note_off_c, 0, 70, 0
1, 475584, Note_off_c, 0, 64, 0
1, 475584, Note_off_c, 0, 60, 0
1, 475584, Note_off_c, 0, 58, 0
1, 475584, Note_off_c, 0, 76, 0
1, 475584, Note_off_c, 0, 79, 0
1, 475584, Note_off_c, 0, 64, 0
1, 475584, Note_off_c, 0, 67, 0
1, 475584, Note_off_c, 0, 72, 0
1, 475584, Note_off_c, 0, 84, 0
1, 475584, Note_off_c, 0, 52, 0
1, 475584, Note_off_c, 0, 48, 0
1, 476160, Note_on_c, 0, 25, 44
1, 476160, Note_on_c, 0, 27, 44
1, 476160, Note_on_c, 0, 26, 44
1, 476160, Note_on_c, 0, 28, 44
1, 476160, Note_on_c, 0, 29, 44
1, 476160, Note_on_c, 0, 31, 44
1, 476160, Note_on_c, 0, 30, 44
1, 476160, Note_on_c, 0, 32, 44
1, 476160, Note_on_c, 0, 24, 44
1, 476160, Note_on_c, 0, 41, 75
1, 476160, Note_on_c, 0, 53, 75
1, 476160, Note_on_c, 0, 45, 64
1, 476160, Note_on_c, 0, 53, 75
1, 476160, Note_on_c, 0, 57, 75
1, 476160, Note_on_c, 0, 81, 69
1, 476160, Note_on_c, 0, 69, 80
1, 476160, Note_on_c, 0, 65, 80
1, 476160, Note_on_c, 0, 60, 80
1, 476160, Note_on_c, 0, 77, 69
1, 476160, Note_on_c, 0, 72, 80
1, 476352, Note_off_c, 0, 72, 0
1, 476352, Note_off_c, 0, 77, 0
1, 476352, Note_off_c, 0, 60, 0
1, 476352, Note_off_c, 0, 65, 0
1, 476352, Note_off_c, 0, 69, 0
1, 476352, Note_off_c, 0, 81, 0
1, 476352, Note_off_c, 0, 53, 0
1, 476352, Note_off_c, 0, 45, 0
1, 476352, Note_off_c, 0, 24, 0
1, 476352, Note_off_c, 0, 32, 0
1, 476352, Note_off_c, 0, 30, 0
1, 476352, Note_off_c, 0, 31, 0
1, 476352, Note_off_c, 0, 29, 0
1, 476352, Note_off_c, 0, 28, 0
1, 476352, Note_off_c, 0, 26, 0
1, 476352, Note_off_c, 0, 27, 0
1, 476352, Note_off_c, 0, 25, 0
1, 476928, Note_off_c, 0, 57, 0
1, 476928, Note_off_c, 0, 53, 0
1, 476928, Note_off_c, 0, 41, 0
1, 477696, Note_on_c, 0, 34, 44
1, 477696, Note_on_c, 0, 36, 44
1, 477696, Note_on_c, 0, 35, 44
1, 477696, Note_on_c, 0, 37, 44
1, 477696, Note_on_c, 0, 38, 44
1, 477696, Note_on_c, 0, 40, 44
1, 477696, Note_on_c, 0, 39, 44
1, 477696, Note_on_c, 0, 41, 44
1, 477696, Note_on_c, 0, 42, 44
1, 477696, Note_on_c, 0, 29, 125
1, 477696, Note_on_c, 0, 41, 125
1, 477888, Note_off_c, 0, 42, 0
1, 477888, Note_off_c, 0, 41, 0
1, 477888, Note_off_c, 0, 39, 0
1, 477888, Note_off_c, 0, 40, 0
1, 477888, Note_off_c, 0, 38, 0
1, 477888, Note_off_c, 0, 37, 0
1, 477888, Note_off_c, 0, 35, 0
1, 477888, Note_off_c, 0, 36, 0
1, 477888, Note_off_c, 0, 34, 0
1, 479232, Note_off_c, 0, 41, 0
1, 479232, Note_off_c, 0, 29, 0
1, 479232, Note_on_c, 0, 77, 50
1, 479232, Note_on_c, 0, 65, 50
1, 479232, Note_on_c, 0, 61, 50
1, 479232, Note_on_c, 0, 58, 50
1, 479232, Note_on_c, 0, 73, 50
1, 479232, Note_on_c, 0, 70, 50
1, 479232, Note_on_c, 0, 25, 44
1, 479232, Note_on_c, 0, 27, 44
1, 479232, Note_on_c, 0, 26, 44
1, 479232, Note_on_c, 0, 28, 44
1, 479232, Note_on_c, 0, 29, 44
1, 479232, Note_on_c, 0, 31, 44
1, 479232, Note_on_c, 0, 30, 44
1, 479232, Note_on_c, 0, 32, 44
1, 479232, Note_on_c, 0, 24, 44
1, 479232, Note_on_c, 0, 34, 89
1, 479232, Note_on_c, 0, 46, 89
1, 479424, Note_off_c, 0, 24, 0
1, 479424, Note_off_c, 0, 32, 0
1, 479424, Note_off_c, 0, 30, 0
1, 479424, Note_off_c, 0, 31, 0
1, 479424, Note_off_c, 0, 29, 0
1, 479424, Note_off_c, 0, 28, 0
1, 479424, Note_off_c, 0, 26, 0
1, 479424, Note_off_c, 0, 27, 0
1, 479424, Note_off_c, 0, 25, 0
1, 479424, Note_off_c, 0, 70, 0
1, 479424, Note_off_c, 0, 73, 0
1, 479424, Note_off_c, 0, 58, 0
1, 479424, Note_off_c, 0, 61, 0
1, 479424, Note_off_c, 0, 65, 0
1, 479424, Note_off_c, 0, 77, 0
1, 479616, Note_on_c, 0, 77, 50
1, 479616, Note_on_c, 0, 65, 50
1, 479616, Note_on_c, 0, 61, 50
1, 479616, Note_on_c, 0, 58, 50
1, 479616, Note_on_c, 0, 73, 50
1, 479616, Note_on_c, 0, 70, 50
1, 479808, Note_off_c, 0, 70, 0
1, 479808, Note_off_c, 0, 73, 0
1, 479808, Note_off_c, 0, 58, 0
1, 479808, Note_off_c, 0, 61, 0
1, 479808, Note_off_c, 0, 65, 0
1, 479808, Note_off_c, 0, 77, 0
1, 480000, Note_off_c, 0, 46, 0
1, 480000, Note_off_c, 0, 34, 0
1, 480000, Note_on_c, 0, 77, 50
1, 480000, Note_on_c, 0, 65, 50
1, 480000, Note_on_c, 0, 61, 50
1, 480000, Note_on_c, 0, 58, 50
1, 480000, Note_on_c, 0, 73, 50
1, 480000, Note_on_c, 0, 70, 50
1, 480000, Note_on_c, 0, 53, 89
1, 480000, Note_on_c, 0, 49, 89
1, 480000, Note_on_c, 0, 58, 54
1, 480000, Note_on_c, 0, 61, 54
1, 480000, Note_on_c, 0, 65, 54
1, 480000, Note_on_c, 0, 70, 54
1, 480192, Note_off_c, 0, 70, 0
1, 480192, Note_off_c, 0, 65, 0
1, 480192, Note_off_c, 0, 61, 0
1, 480192, Note_off_c, 0, 58, 0
1, 480192, Note_off_c, 0, 49, 0
1, 480192, Note_off_c, 0, 53, 0
1, 480192, Note_off_c, 0, 70, 0
1, 480192, Note_off_c, 0, 73, 0
1, 480192, Note_off_c, 0, 58, 0
1, 480192, Note_off_c, 0, 61, 0
1, 480192, Note_off_c, 0, 65, 0
1, 480192, Note_off_c, 0, 77, 0
1, 480384, Note_on_c, 0, 77, 50
1, 480384, Note_on_c, 0, 65, 50
1, 480384, Note_on_c, 0, 61, 50
1, 480384, Note_on_c, 0, 58, 50
1, 480384, Note_on_c, 0, 73, 50
1, 480384, Note_on_c, 0, 70, 50
1, 480576, Note_off_c, 0, 70, 0
1, 480576, Note_off_c, 0, 73, 0
1, 480576, Note_off_c, 0, 58, 0
1, 480576, Note_off_c, 0, 61, 0
1, 480576, Note_off_c, 0, 65, 0
1, 480576, Note_off_c, 0, 77, 0
1, 480768, Note_on_c, 0, 77, 50
1, 480768, Note_on_c, 0, 65, 50
1, 480768, Note_on_c, 0, 61, 50
1, 480768, Note_on_c, 0, 58, 50
1, 480768, Note_on_c, 0, 73, 50
1, 480768, Note_on_c, 0, 70, 50
1, 480768, Note_on_c, 0, 34, 44
1, 480768, Note_on_c, 0, 36, 44
1, 480768, Note_on_c, 0, 35, 44
1, 480768, Note_on_c, 0, 37, 44
1, 480768, Note_on_c, 0, 38, 44
1, 480768, Note_on_c, 0, 40, 44
1, 480768, Note_on_c, 0, 39, 44
1, 480768, Note_on_c, 0, 41, 44
1, 480768, Note_on_c, 0, 33, 44
1, 480768, Note_on_c, 0, 29, 89
1, 480768, Note_on_c, 0, 41, 89
1, 480960, Note_off_c, 0, 33, 0
1, 480960, Note_off_c, 0, 41, 0
1, 480960, Note_off_c, 0, 39, 0
1, 480960, Note_off_c, 0, 40, 0
1, 480960, Note_off_c, 0, 38, 0
1, 480960, Note_off_c, 0, 37, 0
1, 480960, Note_off_c, 0, 35, 0
1, 480960, Note_off_c, 0, 36, 0
1, 480960, Note_off_c, 0, 34, 0
1, 480960, Note_off_c, 0, 70, 0
1, 480960, Note_off_c, 0, 73, 0
1, 480960, Note_off_c, 0, 58, 0
1, 480960, Note_off_c, 0, 61, 0
1, 480960, Note_off_c, 0, 65, 0
1, 480960, Note_off_c, 0, 77, 0
1, 481152, Note_on_c, 0, 77, 50
1, 481152, Note_on_c, 0, 65, 50
1, 481152, Note_on_c, 0, 61, 50
1, 481152, Note_on_c, 0, 58, 50
1, 481152, Note_on_c, 0, 73, 50
1, 481152, Note_on_c, 0, 70, 50
1, 481344, Note_off_c, 0, 70, 0
1, 481344, Note_off_c, 0, 73, 0
1, 481344, Note_off_c, 0, 58, 0
1, 481344, Note_off_c, 0, 61, 0
1, 481344, Note_off_c, 0, 65, 0
1, 481344, Note_off_c, 0, 77, 0
1, 481536, Note_off_c, 0, 41, 0
1, 481536, Note_off_c, 0, 29, 0
1, 481536, Note_on_c, 0, 77, 50
1, 481536, Note_on_c, 0, 65, 50
1, 481536, Note_on_c, 0, 61, 50
1, 481536, Note_on_c, 0, 58, 50
1, 481536, Note_on_c, 0, 73, 50
1, 481536, Note_on_c, 0, 70, 50
1, 481536, Note_on_c, 0, 49, 89
1, 481536, Note_on_c, 0, 53, 89
1, 481536, Note_on_c, 0, 61, 54
1, 481536, Note_on_c, 0, 65, 54
1, 481536, Note_on_c, 0, 58, 54
1, 481536, Note_on_c, 0, 70, 54
1, 481728, Note_off_c, 0, 70, 0
1, 481728, Note_off_c, 0, 58, 0
1, 481728, Note_off_c, 0, 65, 0
1, 481728, Note_off_c, 0, 61, 0
1, 481728, Note_off_c, 0, 53, 0
1, 481728, Note_off_c, 0, 49, 0
1, 481728, Note_off_c, 0, 70, 0
1, 481728, Note_off_c, 0, 73, 0
1, 481728, Note_off_c, 0, 58, 0
1, 481728, Note_off_c, 0, 61, 0
1, 481728, Note_off_c, 0, 65, 0
1, 481728, Note_off_c, 0, 77, 0
1, 481920, Note_on_c, 0, 77, 50
1, 481920, Note_on_c, 0, 65, 50
1, 481920, Note_on_c, 0, 61, 50
1, 481920, Note_on_c, 0, 58, 50
1, 481920, Note_on_c, 0, 73, 50
1, 481920, Note_on_c, 0, 70, 50
1, 482112, Note_off_c, 0, 70, 0
1, 482112, Note_off_c, 0, 73, 0
1, 482112, Note_off_c, 0, 58, 0
1, 482112, Note_off_c, 0, 61, 0
1, 482112, Note_off_c, 0, 65, 0
1, 482112, Note_off_c, 0, 77, 0
1, 482304, Note_on_c, 0, 77, 50
1, 482304, Note_on_c, 0, 65, 50
1, 482304, Note_on_c, 0, 61, 50
1, 482304, Note_on_c, 0, 58, 50
1, 482304, Note_on_c, 0, 73, 50
1, 482304, Note_on_c, 0, 70, 50
1, 482304, Note_on_c, 0, 25, 44
1, 482304, Note_on_c, 0, 27, 44
1, 482304, Note_on_c, 0, 26, 44
1, 482304, Note_on_c, 0, 28, 44
1, 482304, Note_on_c, 0, 29, 44
1, 482304, Note_on_c, 0, 31, 44
1, 482304, Note_on_c, 0, 30, 44
1, 482304, Note_on_c, 0, 32, 44
1, 482304, Note_on_c, 0, 24, 44
1, 482304, Note_on_c, 0, 34, 89
1, 482304, Note_on_c, 0, 46, 89
1, 482304, Note_on_c, 0, 89, 15
1, 482400, Note_off_c, 0, 89, 0
1, 482496, Note_off_c, 0, 24, 0
1, 482496, Note_off_c, 0, 32, 0
1, 482496, Note_off_c, 0, 30, 0
1, 482496, Note_off_c, 0, 31, 0
1, 482496, Note_off_c, 0, 29, 0
1, 482496, Note_off_c, 0, 28, 0
1, 482496, Note_off_c, 0, 26, 0
1, 482496, Note_off_c, 0, 27, 0
1, 482496, Note_off_c, 0, 25, 0
1, 482496, Note_off_c, 0, 70, 0
1, 482496, Note_off_c, 0, 73, 0
1, 482496, Note_off_c, 0, 58, 0
1, 482496, Note_off_c, 0, 61, 0
1, 482496, Note_off_c, 0, 65, 0
1, 482496, Note_off_c, 0, 77, 0
1, 482496, Note_on_c, 0, 89, 15
1, 482592, Note_off_c, 0, 89, 0
1, 482688, Note_on_c, 0, 77, 50
1, 482688, Note_on_c, 0, 65, 50
1, 482688, Note_on_c, 0, 61, 50
1, 482688, Note_on_c, 0, 58, 50
1, 482688, Note_on_c, 0, 73, 50
1, 482688, Note_on_c, 0, 70, 50
1, 482688, Note_on_c, 0, 89, 15
1, 482784, Note_off_c, 0, 89, 0
1, 482880, Note_off_c, 0, 70, 0
1, 482880, Note_off_c, 0, 73, 0
1, 482880, Note_off_c, 0, 58, 0
1, 482880, Note_off_c, 0, 61, 0
1, 482880, Note_off_c, 0, 65, 0
1, 482880, Note_off_c, 0, 77, 0
1, 482880, Note_on_c, 0, 89, 15
1, 482976, Note_off_c, 0, 89, 0
1, 483072, Note_off_c, 0, 46, 0
1, 483072, Note_off_c, 0, 34, 0
1, 483072, Note_on_c, 0, 77, 50
1, 483072, Note_on_c, 0, 65, 50
1, 483072, Note_on_c, 0, 61, 50
1, 483072, Note_on_c, 0, 58, 50
1, 483072, Note_on_c, 0, 73, 50
1, 483072, Note_on_c, 0, 70, 50
1, 483072, Note_on_c, 0, 53, 89
1, 483072, Note_on_c, 0, 49, 89
1, 483072, Note_on_c, 0, 89, 25
1, 483072, Note_on_c, 0, 65, 54
1, 483072, Note_on_c, 0, 61, 54
1, 483072, Note_on_c, 0, 58, 54
1, 483072, Note_on_c, 0, 70, 54
1, 483168, Note_off_c, 0, 89, 0
1, 483264, Note_off_c, 0, 70, 0
1, 483264, Note_off_c, 0, 58, 0
1, 483264, Note_off_c, 0, 61, 0
1, 483264, Note_off_c, 0, 65, 0
1, 483264, Note_off_c, 0, 49, 0
1, 483264, Note_off_c, 0, 53, 0
1, 483264, Note_off_c, 0, 70, 0
1, 483264, Note_off_c, 0, 73, 0
1, 483264, Note_off_c, 0, 58, 0
1, 483264, Note_off_c, 0, 61, 0
1, 483264, Note_off_c, 0, 65, 0
1, 483264, Note_off_c, 0, 77, 0
1, 483264, Note_on_c, 0, 89, 25
1, 483360, Note_off_c, 0, 89, 0
1, 483456, Note_on_c, 0, 77, 50
1, 483456, Note_on_c, 0, 65, 50
1, 483456, Note_on_c, 0, 61, 50
1, 483456, Note_on_c, 0, 58, 50
1, 483456, Note_on_c, 0, 73, 50
1, 483456, Note_on_c, 0, 70, 50
1, 483456, Note_on_c, 0, 89, 25
1, 483552, Note_off_c, 0, 89, 0
1, 483648, Note_off_c, 0, 70, 0
1, 483648, Note_off_c, 0, 73, 0
1, 483648, Note_off_c, 0, 58, 0
1, 483648, Note_off_c, 0, 61, 0
1, 483648, Note_off_c, 0, 65, 0
1, 483648, Note_off_c, 0, 77, 0
1, 483648, Note_on_c, 0, 89, 25
1, 483744, Note_off_c, 0, 89, 0
1, 483840, Note_on_c, 0, 77, 50
1, 483840, Note_on_c, 0, 65, 50
1, 483840, Note_on_c, 0, 61, 50
1, 483840, Note_on_c, 0, 58, 50
1, 483840, Note_on_c, 0, 73, 50
1, 483840, Note_on_c, 0, 70, 50
1, 483840, Note_on_c, 0, 34, 44
1, 483840, Note_on_c, 0, 36, 44
1, 483840, Note_on_c, 0, 35, 44
1, 483840, Note_on_c, 0, 37, 44
1, 483840, Note_on_c, 0, 38, 44
1, 483840, Note_on_c, 0, 40, 44
1, 483840, Note_on_c, 0, 39, 44
1, 483840, Note_on_c, 0, 41, 44
1, 483840, Note_on_c, 0, 33, 44
1, 483840, Note_on_c, 0, 29, 89
1, 483840, Note_on_c, 0, 41, 89
1, 483840, Note_on_c, 0, 89, 34
1, 483936, Note_off_c, 0, 89, 0
1, 484032, Note_off_c, 0, 33, 0
1, 484032, Note_off_c, 0, 41, 0
1, 484032, Note_off_c, 0, 39, 0
1, 484032, Note_off_c, 0, 40, 0
1, 484032, Note_off_c, 0, 38, 0
1, 484032, Note_off_c, 0, 37, 0
1, 484032, Note_off_c, 0, 35, 0
1, 484032, Note_off_c, 0, 36, 0
1, 484032, Note_off_c, 0, 34, 0
1, 484032, Note_off_c, 0, 70, 0
1, 484032, Note_off_c, 0, 73, 0
1, 484032, Note_off_c, 0, 58, 0
1, 484032, Note_off_c, 0, 61, 0
1, 484032, Note_off_c, 0, 65, 0
1, 484032, Note_off_c, 0, 77, 0
1, 484032, Note_on_c, 0, 89, 34
1, 484128, Note_off_c, 0, 89, 0
1, 484224, Note_on_c, 0, 77, 50
1, 484224, Note_on_c, 0, 65, 50
1, 484224, Note_on_c, 0, 61, 50
1, 484224, Note_on_c, 0, 58, 50
1, 484224, Note_on_c, 0, 73, 50
1, 484224, Note_on_c, 0, 70, 50
1, 484224, Note_on_c, 0, 89, 34
1, 484320, Note_off_c, 0, 89, 0
1, 484416, Note_off_c, 0, 70, 0
1, 484416, Note_off_c, 0, 73, 0
1, 484416, Note_off_c, 0, 58, 0
1, 484416, Note_off_c, 0, 61, 0
1, 484416, Note_off_c, 0, 65, 0
1, 484416, Note_off_c, 0, 77, 0
1, 484416, Note_on_c, 0, 89, 34
1, 484512, Note_off_c, 0, 89, 0
1, 484608, Note_off_c, 0, 41, 0
1, 484608, Note_off_c, 0, 29, 0
1, 484608, Note_on_c, 0, 77, 50
1, 484608, Note_on_c, 0, 65, 50
1, 484608, Note_on_c, 0, 61, 50
1, 484608, Note_on_c, 0, 58, 50
1, 484608, Note_on_c, 0, 73, 50
1, 484608, Note_on_c, 0, 70, 50
1, 484608, Note_on_c, 0, 49, 89
1, 484608, Note_on_c, 0, 53, 89
1, 484608, Note_on_c, 0, 89, 44
1, 484608, Note_on_c, 0, 65, 54
1, 484608, Note_on_c, 0, 61, 54
1, 484608, Note_on_c, 0, 58, 54
1, 484608, Note_on_c, 0, 70, 54
1, 484704, Note_off_c, 0, 89, 0
1, 484800, Note_off_c, 0, 70, 0
1, 484800, Note_off_c, 0, 58, 0
1, 484800, Note_off_c, 0, 61, 0
1, 484800, Note_off_c, 0, 65, 0
1, 484800, Note_off_c, 0, 53, 0
1, 484800, Note_off_c, 0, 49, 0
1, 484800, Note_off_c, 0, 70, 0
1, 484800, Note_off_c, 0, 73, 0
1, 484800, Note_off_c, 0, 58, 0
1, 484800, Note_off_c, 0, 61, 0
1, 484800, Note_off_c, 0, 65, 0
1, 484800, Note_off_c, 0, 77, 0
1, 484800, Note_on_c, 0, 89, 44
1, 484896, Note_off_c, 0, 89, 0
1, 484992, Note_on_c, 0, 77, 50
1, 484992, Note_on_c, 0, 65, 50
1, 484992, Note_on_c, 0, 61, 50
1, 484992, Note_on_c, 0, 58, 50
1, 484992, Note_on_c, 0, 73, 50
1, 484992, Note_on_c, 0, 70, 50
1, 484992, Note_on_c, 0, 89, 44
1, 485088, Note_off_c, 0, 89, 0
1, 485184, Note_off_c, 0, 70, 0
1, 485184, Note_off_c, 0, 73, 0
1, 485184, Note_off_c, 0, 58, 0
1, 485184, Note_off_c, 0, 61, 0
1, 485184, Note_off_c, 0, 65, 0
1, 485184, Note_off_c, 0, 77, 0
1, 485184, Note_on_c, 0, 89, 44
1, 485280, Note_off_c, 0, 89, 0
1, 485376, Note_on_c, 0, 77, 50
1, 485376, Note_on_c, 0, 65, 50
1, 485376, Note_on_c, 0, 61, 50
1, 485376, Note_on_c, 0, 58, 50
1, 485376, Note_on_c, 0, 73, 50
1, 485376, Note_on_c, 0, 70, 50
1, 485376, Note_on_c, 0, 25, 44
1, 485376, Note_on_c, 0, 27, 44
1, 485376, Note_on_c, 0, 26, 44
1, 485376, Note_on_c, 0, 28, 44
1, 485376, Note_on_c, 0, 29, 44
1, 485376, Note_on_c, 0, 31, 44
1, 485376, Note_on_c, 0, 30, 44
1, 485376, Note_on_c, 0, 32, 44
1, 485376, Note_on_c, 0, 24, 44
1, 485376, Note_on_c, 0, 34, 89
1, 485376, Note_on_c, 0, 46, 89
1, 485376, Note_on_c, 0, 89, 50
1, 485472, Note_off_c, 0, 89, 0
1, 485568, Note_off_c, 0, 24, 0
1, 485568, Note_off_c, 0, 32, 0
1, 485568, Note_off_c, 0, 30, 0
1, 485568, Note_off_c, 0, 31, 0
1, 485568, Note_off_c, 0, 29, 0
1, 485568, Note_off_c, 0, 28, 0
1, 485568, Note_off_c, 0, 26, 0
1, 485568, Note_off_c, 0, 27, 0
1, 485568, Note_off_c, 0, 25, 0
1, 485568, Note_off_c, 0, 70, 0
1, 485568, Note_off_c, 0, 73, 0
1, 485568, Note_off_c, 0, 58, 0
1, 485568, Note_off_c, 0, 61, 0
1, 485568, Note_off_c, 0, 65, 0
1, 485568, Note_off_c, 0, 77, 0
1, 485568, Note_on_c, 0, 89, 30
1, 485664, Note_off_c, 0, 89, 0
1, 485760, Note_on_c, 0, 78, 50
1, 485760, Note_on_c, 0, 66, 50
1, 485760, Note_on_c, 0, 63, 50
1, 485760, Note_on_c, 0, 58, 50
1, 485760, Note_on_c, 0, 75, 50
1, 485760, Note_on_c, 0, 70, 50
1, 485760, Note_on_c, 0, 89, 30
1, 485856, Note_off_c, 0, 89, 0
1, 485952, Note_off_c, 0, 70, 0
1, 485952, Note_off_c, 0, 75, 0
1, 485952, Note_off_c, 0, 58, 0
1, 485952, Note_off_c, 0, 63, 0
1, 485952, Note_off_c, 0, 66, 0
1, 485952, Note_off_c, 0, 78, 0
1, 485952, Note_on_c, 0, 89, 30
1, 486048, Note_off_c, 0, 89, 0
1, 486144, Note_off_c, 0, 46, 0
1, 486144, Note_off_c, 0, 34, 0
1, 486144, Note_on_c, 0, 77, 50
1, 486144, Note_on_c, 0, 65, 50
1, 486144, Note_on_c, 0, 61, 50
1, 486144, Note_on_c, 0, 58, 50
1, 486144, Note_on_c, 0, 73, 50
1, 486144, Note_on_c, 0, 70, 50
1, 486144, Note_on_c, 0, 53, 89
1, 486144, Note_on_c, 0, 49, 89
1, 486144, Note_on_c, 0, 58, 54
1, 486144, Note_on_c, 0, 61, 54
1, 486144, Note_on_c, 0, 65, 54
1, 486144, Note_on_c, 0, 70, 54
1, 486336, Note_off_c, 0, 70, 0
1, 486336, Note_off_c, 0, 65, 0
1, 486336, Note_off_c, 0, 61, 0
1, 486336, Note_off_c, 0, 58, 0
1, 486336, Note_off_c, 0, 49, 0
1, 486336, Note_off_c, 0, 53, 0
1, 486336, Note_off_c, 0, 70, 0
1, 486336, Note_off_c, 0, 73, 0
1, 486336, Note_off_c, 0, 58, 0
1, 486336, Note_off_c, 0, 61, 0
1, 486336, Note_off_c, 0, 65, 0
1, 486336, Note_off_c, 0, 77, 0
1, 486528, Note_on_c, 0, 76, 50
1, 486528, Note_on_c, 0, 64, 50
1, 486528, Note_on_c, 0, 60, 50
1, 486528, Note_on_c, 0, 58, 50
1, 486528, Note_on_c, 0, 72, 50
1, 486528, Note_on_c, 0, 70, 50
1, 486720, Note_off_c, 0, 70, 0
1, 486720, Note_off_c, 0, 72, 0
1, 486720, Note_off_c, 0, 58, 0
1, 486720, Note_off_c, 0, 60, 0
1, 486720, Note_off_c, 0, 64, 0
1, 486720, Note_off_c, 0, 76, 0
1, 486912, Note_on_c, 0, 34, 44
1, 486912, Note_on_c, 0, 36, 44
1, 486912, Note_on_c, 0, 35, 44
1, 486912, Note_on_c, 0, 37, 44
1, 486912, Note_on_c, 0, 38, 44
1, 486912, Note_on_c, 0, 40, 44
1, 486912, Note_on_c, 0, 39, 44
1, 486912, Note_on_c, 0, 41, 44
1, 486912, Note_on_c, 0, 33, 44
1, 486912, Note_on_c, 0, 29, 89
1, 486912, Note_on_c, 0, 41, 89
1, 486912, Note_on_c, 0, 77, 50
1, 486912, Note_on_c, 0, 65, 50
1, 486912, Note_on_c, 0, 61, 50
1, 486912, Note_on_c, 0, 58, 50
1, 486912, Note_on_c, 0, 73, 50
1, 486912, Note_on_c, 0, 70, 50
1, 487104, Note_off_c, 0, 70, 0
1, 487104, Note_off_c, 0, 73, 0
1, 487104, Note_off_c, 0, 58, 0
1, 487104, Note_off_c, 0, 61, 0
1, 487104, Note_off_c, 0, 65, 0
1, 487104, Note_off_c, 0, 77, 0
1, 487104, Note_off_c, 0, 33, 0
1, 487104, Note_off_c, 0, 41, 0
1, 487104, Note_off_c, 0, 39, 0
1, 487104, Note_off_c, 0, 40, 0
1, 487104, Note_off_c, 0, 38, 0
1, 487104, Note_off_c, 0, 37, 0
1, 487104, Note_off_c, 0, 35, 0
1, 487104, Note_off_c, 0, 36, 0
1, 487104, Note_off_c, 0, 34, 0
1, 487680, Note_off_c, 0, 41, 0
1, 487680, Note_off_c, 0, 29, 0
1, 487680, Note_on_c, 0, 49, 89
1, 487680, Note_on_c, 0, 53, 89
1, 487680, Note_on_c, 0, 82, 50
1, 487680, Note_on_c, 0, 70, 50
1, 487680, Note_on_c, 0, 65, 50
1, 487680, Note_on_c, 0, 61, 50
1, 487680, Note_on_c, 0, 77, 50
1, 487680, Note_on_c, 0, 73, 50
1, 487872, Note_off_c, 0, 73, 0
1, 487872, Note_off_c, 0, 77, 0
1, 487872, Note_off_c, 0, 61, 0
1, 487872, Note_off_c, 0, 65, 0
1, 487872, Note_off_c, 0, 70, 0
1, 487872, Note_off_c, 0, 82, 0
1, 487872, Note_off_c, 0, 53, 0
1, 487872, Note_off_c, 0, 49, 0
1, 488064, Note_on_c, 0, 85, 50
1, 488064, Note_on_c, 0, 73, 50
1, 488064, Note_on_c, 0, 70, 50
1, 488064, Note_on_c, 0, 65, 50
1, 488064, Note_on_c, 0, 82, 50
1, 488064, Note_on_c, 0, 77, 50
1, 488256, Note_off_c, 0, 77, 0
1, 488256, Note_off_c, 0, 82, 0
1, 488256, Note_off_c, 0, 65, 0
1, 488256, Note_off_c, 0, 70, 0
1, 488256, Note_off_c, 0, 73, 0
1, 488256, Note_off_c, 0, 85, 0
1, 488448, Note_on_c, 0, 25, 44
1, 488448, Note_on_c, 0, 27, 44
1, 488448, Note_on_c, 0, 26, 44
1, 488448, Note_on_c, 0, 28, 44
1, 488448, Note_on_c, 0, 29, 44
1, 488448, Note_on_c, 0, 31, 44
1, 488448, Note_on_c, 0, 30, 44
1, 488448, Note_on_c, 0, 32, 44
1, 488448, Note_on_c, 0, 24, 44
1, 488448, Note_on_c, 0, 34, 89
1, 488448, Note_on_c, 0, 46, 89
1, 488448, Note_on_c, 0, 89, 50
1, 488448, Note_on_c, 0, 77, 50
1, 488448, Note_on_c, 0, 73, 50
1, 488448, Note_on_c, 0, 70, 50
1, 488448, Note_on_c, 0, 85, 50
1, 488448, Note_on_c, 0, 82, 50
1, 488640, Note_off_c, 0, 82, 0
1, 488640, Note_off_c, 0, 85, 0
1, 488640, Note_off_c, 0, 70, 0
1, 488640, Note_off_c, 0, 73, 0
1, 488640, Note_off_c, 0, 77, 0
1, 488640, Note_off_c, 0, 89, 0
1, 488640, Note_off_c, 0, 24, 0
1, 488640, Note_off_c, 0, 32, 0
1, 488640, Note_off_c, 0, 30, 0
1, 488640, Note_off_c, 0, 31, 0
1, 488640, Note_off_c, 0, 29, 0
1, 488640, Note_off_c, 0, 28, 0
1, 488640, Note_off_c, 0, 26, 0
1, 488640, Note_off_c, 0, 27, 0
1, 488640, Note_off_c, 0, 25, 0
1, 489216, Note_off_c, 0, 46, 0
1, 489216, Note_off_c, 0, 34, 0
1, 489216, Note_on_c, 0, 53, 89
1, 489216, Note_on_c, 0, 49, 89
1, 489216, Note_on_c, 0, 70, 54
1, 489216, Note_on_c, 0, 65, 54
1, 489216, Note_on_c, 0, 61, 54
1, 489216, Note_on_c, 0, 58, 54
1, 489216, Note_on_c, 0, 94, 50
1, 489216, Note_on_c, 0, 80, 50
1, 489216, Note_on_c, 0, 77, 50
1, 489216, Note_on_c, 0, 73, 50
1, 489216, Note_on_c, 0, 89, 50
1, 489216, Note_on_c, 0, 85, 50
1, 489408, Note_off_c, 0, 85, 0
1, 489408, Note_off_c, 0, 89, 0
1, 489408, Note_off_c, 0, 73, 0
1, 489408, Note_off_c, 0, 77, 0
1, 489408, Note_off_c, 0, 80, 0
1, 489408, Note_off_c, 0, 94, 0
1, 489408, Note_off_c, 0, 58, 0
1, 489408, Note_off_c, 0, 61, 0
1, 489408, Note_off_c, 0, 65, 0
1, 489408, Note_off_c, 0, 70, 0
1, 489408, Note_off_c, 0, 49, 0
1, 489408, Note_off_c, 0, 53, 0
1, 489984, Note_on_c, 0, 34, 44
1, 489984, Note_on_c, 0, 36, 44
1, 489984, Note_on_c, 0, 35, 44
1, 489984, Note_on_c, 0, 37, 44
1, 489984, Note_on_c, 0, 38, 44
1, 489984, Note_on_c, 0, 40, 44
1, 489984, Note_on_c, 0, 39, 44
1, 489984, Note_on_c, 0, 41, 44
1, 489984, Note_on_c, 0, 33, 44
1, 489984, Note_on_c, 0, 29, 89
1, 489984, Note_on_c, 0, 41, 89
1, 489984, Note_on_c, 0, 73, 50
1, 489984, Note_on_c, 0, 77, 50
1, 489984, Note_on_c, 0, 82, 50
1, 489984, Note_on_c, 0, 85, 50
1, 489984, Note_on_c, 0, 89, 50
1, 489984, Note_on_c, 0, 94, 50
1, 490176, Note_off_c, 0, 33, 0
1, 490176, Note_off_c, 0, 41, 0
1, 490176, Note_off_c, 0, 39, 0
1, 490176, Note_off_c, 0, 40, 0
1, 490176, Note_off_c, 0, 38, 0
1, 490176, Note_off_c, 0, 37, 0
1, 490176, Note_off_c, 0, 35, 0
1, 490176, Note_off_c, 0, 36, 0
1, 490176, Note_off_c, 0, 34, 0
1, 490752, Note_off_c, 0, 41, 0
1, 490752, Note_off_c, 0, 29, 0
1, 490752, Note_on_c, 0, 49, 89
1, 490752, Note_on_c, 0, 53, 89
1, 490752, Note_on_c, 0, 70, 54
1, 490752, Note_on_c, 0, 65, 54
1, 490752, Note_on_c, 0, 61, 79
1, 490752, Note_on_c, 0, 58, 79
1, 490944, Note_off_c, 0, 58, 0
1, 490944, Note_off_c, 0, 61, 0
1, 490944, Note_off_c, 0, 65, 0
1, 490944, Note_off_c, 0, 70, 0
1, 490944, Note_off_c, 0, 53, 0
1, 490944, Note_off_c, 0, 49, 0
1, 491136, Note_off_c, 0, 94, 0
1, 491136, Note_off_c, 0, 89, 0
1, 491136, Note_off_c, 0, 85, 0
1, 491136, Note_off_c, 0, 82, 0
1, 491136, Note_off_c, 0, 77, 0
1, 491136, Note_off_c, 0, 73, 0
1, 491520, Note_on_c, 0, 75, 50
1, 491520, Note_on_c, 0, 78, 50
1, 491520, Note_on_c, 0, 82, 50
1, 491520, Note_on_c, 0, 87, 50
1, 491520, Note_on_c, 0, 90, 50
1, 491520, Note_on_c, 0, 94, 50
1, 491520, Note_on_c, 0, 39, 89
1, 491520, Note_on_c, 0, 51, 89
1, 491520, Note_on_c, 0, 25, 44
1, 491520, Note_on_c, 0, 27, 44
1, 491520, Note_on_c, 0, 26, 44
1, 491520, Note_on_c, 0, 28, 44
1, 491520, Note_on_c, 0, 29, 44
1, 491520, Note_on_c, 0, 31, 44
1, 491520, Note_on_c, 0, 30, 44
1, 491520, Note_on_c, 0, 32, 44
1, 491520, Note_on_c, 0, 24, 44
1, 491712, Note_off_c, 0, 24, 0
1, 491712, Note_off_c, 0, 32, 0
1, 491712, Note_off_c, 0, 30, 0
1, 491712, Note_off_c, 0, 31, 0
1, 491712, Note_off_c, 0, 29, 0
1, 491712, Note_off_c, 0, 28, 0
1, 491712, Note_off_c, 0, 26, 0
1, 491712, Note_off_c, 0, 27, 0
1, 491712, Note_off_c, 0, 25, 0
1, 491712, Note_off_c, 0, 94, 0
1, 491712, Note_off_c, 0, 90, 0
1, 491712, Note_off_c, 0, 87, 0
1, 491712, Note_off_c, 0, 82, 0
1, 491712, Note_off_c, 0, 78, 0
1, 491712, Note_off_c, 0, 75, 0
1, 491904, Note_on_c, 0, 73, 50
1, 491904, Note_on_c, 0, 77, 50
1, 491904, Note_on_c, 0, 82, 50
1, 491904, Note_on_c, 0, 85, 50
1, 491904, Note_on_c, 0, 89, 50
1, 491904, Note_on_c, 0, 94, 50
1, 492096, Note_off_c, 0, 94, 0
1, 492096, Note_off_c, 0, 89, 0
1, 492096, Note_off_c, 0, 85, 0
1, 492096, Note_off_c, 0, 82, 0
1, 492096, Note_off_c, 0, 77, 0
1, 492096, Note_off_c, 0, 73, 0
1, 492288, Note_off_c, 0, 51, 0
1, 492288, Note_off_c, 0, 39, 0
1, 492288, Note_on_c, 0, 72, 50
1, 492288, Note_on_c, 0, 75, 50
1, 492288, Note_on_c, 0, 78, 50
1, 492288, Note_on_c, 0, 87, 50
1, 492288, Note_on_c, 0, 90, 50
1, 492288, Note_on_c, 0, 94, 50
1, 492288, Note_on_c, 0, 82, 50
1, 492288, Note_on_c, 0, 54, 89
1, 492288, Note_on_c, 0, 51, 89
1, 492288, Note_on_c, 0, 66, 89
1, 492288, Note_on_c, 0, 63, 89
1, 492288, Note_on_c, 0, 70, 89
1, 492288, Note_on_c, 0, 58, 89
1, 492288, Note_on_c, 0, 48, 89
1, 492480, Note_off_c, 0, 48, 0
1, 492480, Note_off_c, 0, 58, 0
1, 492480, Note_off_c, 0, 70, 0
1, 492480, Note_off_c, 0, 63, 0
1, 492480, Note_off_c, 0, 66, 0
1, 492480, Note_off_c, 0, 51, 0
1, 492480, Note_off_c, 0, 54, 0
1, 492480, Note_off_c, 0, 82, 0
1, 492480, Note_off_c, 0, 94, 0
1, 492480, Note_off_c, 0, 90, 0
1, 492480, Note_off_c, 0, 87, 0
1, 492480, Note_off_c, 0, 78, 0
1, 492480, Note_off_c, 0, 75, 0
1, 492480, Note_off_c, 0, 72, 0
1, 492672, Note_on_c, 0, 75, 50
1, 492672, Note_on_c, 0, 78, 50
1, 492672, Note_on_c, 0, 82, 50
1, 492672, Note_on_c, 0, 87, 50
1, 492672, Note_on_c, 0, 90, 50
1, 492672, Note_on_c, 0, 94, 50
1, 492864, Note_off_c, 0, 94, 0
1, 492864, Note_off_c, 0, 90, 0
1, 492864, Note_off_c, 0, 87, 0
1, 492864, Note_off_c, 0, 82, 0
1, 492864, Note_off_c, 0, 78, 0
1, 492864, Note_off_c, 0, 75, 0
1, 493056, Note_on_c, 0, 73, 50
1, 493056, Note_on_c, 0, 77, 50
1, 493056, Note_on_c, 0, 82, 50
1, 493056, Note_on_c, 0, 85, 50
1, 493056, Note_on_c, 0, 89, 50
1, 493056, Note_on_c, 0, 94, 50
1, 493056, Note_on_c, 0, 37, 89
1, 493056, Note_on_c, 0, 49, 89
1, 493056, Note_on_c, 0, 34, 44
1, 493056, Note_on_c, 0, 36, 44
1, 493056, Note_on_c, 0, 35, 44
1, 493056, Note_on_c, 0, 37, 44
1, 493056, Note_on_c, 0, 38, 44
1, 493056, Note_on_c, 0, 40, 44
1, 493056, Note_on_c, 0, 39, 44
1, 493056, Note_on_c, 0, 41, 44
1, 493056, Note_on_c, 0, 33, 44
1, 493248, Note_off_c, 0, 33, 0
1, 493248, Note_off_c, 0, 41, 0
1, 493248, Note_off_c, 0, 39, 0
1, 493248, Note_off_c, 0, 40, 0
1, 493248, Note_off_c, 0, 38, 0
1, 493248, Note_off_c, 0, 37, 0
1, 493248, Note_off_c, 0, 35, 0
1, 493248, Note_off_c, 0, 36, 0
1, 493248, Note_off_c, 0, 34, 0
1, 493248, Note_off_c, 0, 94, 0
1, 493248, Note_off_c, 0, 89, 0
1, 493248, Note_off_c, 0, 85, 0
1, 493248, Note_off_c, 0, 82, 0
1, 493248, Note_off_c, 0, 77, 0
1, 493248, Note_off_c, 0, 73, 0
1, 493440, Note_on_c, 0, 72, 50
1, 493440, Note_on_c, 0, 75, 50
1, 493440, Note_on_c, 0, 78, 50
1, 493440, Note_on_c, 0, 82, 50
1, 493440, Note_on_c, 0, 87, 50
1, 493440, Note_on_c, 0, 90, 50
1, 493440, Note_on_c, 0, 94, 50
1, 493632, Note_off_c, 0, 94, 0
1, 493632, Note_off_c, 0, 90, 0
1, 493632, Note_off_c, 0, 87, 0
1, 493632, Note_off_c, 0, 82, 0
1, 493632, Note_off_c, 0, 78, 0
1, 493632, Note_off_c, 0, 75, 0
1, 493632, Note_off_c, 0, 72, 0
1, 493824, Note_off_c, 0, 49, 0
1, 493824, Note_off_c, 0, 37, 0
1, 493824, Note_on_c, 0, 70, 50
1, 493824, Note_on_c, 0, 73, 50
1, 493824, Note_on_c, 0, 77, 50
1, 493824, Note_on_c, 0, 82, 50
1, 493824, Note_on_c, 0, 85, 50
1, 493824, Note_on_c, 0, 89, 50
1, 493824, Note_on_c, 0, 49, 89
1, 493824, Note_on_c, 0, 53, 89
1, 493824, Note_on_c, 0, 61, 89
1, 493824, Note_on_c, 0, 65, 89
1, 493824, Note_on_c, 0, 70, 89
1, 493824, Note_on_c, 0, 58, 89
1, 493824, Note_on_c, 0, 46, 89
1, 494016, Note_off_c, 0, 46, 0
1, 494016, Note_off_c, 0, 58, 0
1, 494016, Note_off_c, 0, 70, 0
1, 494016, Note_off_c, 0, 65, 0
1, 494016, Note_off_c, 0, 61, 0
1, 494016, Note_off_c, 0, 53, 0
1, 494016, Note_off_c, 0, 49, 0
1, 494016, Note_off_c, 0, 89, 0
1, 494016, Note_off_c, 0, 85, 0
1, 494016, Note_off_c, 0, 82, 0
1, 494016, Note_off_c, 0, 77, 0
1, 494016, Note_off_c, 0, 73, 0
1, 494016, Note_off_c, 0, 70, 0
1, 494208, Note_on_c, 0, 73, 50
1, 494208, Note_on_c, 0, 82, 50
1, 494208, Note_on_c, 0, 85, 50
1, 494208, Note_on_c, 0, 89, 50
1, 494208, Note_on_c, 0, 77, 50
1, 494208, Note_on_c, 0, 94, 50
1, 494400, Note_off_c, 0, 94, 0
1, 494400, Note_off_c, 0, 77, 0
1, 494400, Note_off_c, 0, 89, 0
1, 494400, Note_off_c, 0, 85, 0
1, 494400, Note_off_c, 0, 82, 0
1, 494400, Note_off_c, 0, 73, 0
1, 494592, Note_on_c, 0, 72, 50
1, 494592, Note_on_c, 0, 75, 50
1, 494592, Note_on_c, 0, 78, 50
1, 494592, Note_on_c, 0, 87, 50
1, 494592, Note_on_c, 0, 90, 50
1, 494592, Note_on_c, 0, 84, 50
1, 494592, Note_on_c, 0, 36, 89
1, 494592, Note_on_c, 0, 48, 89
1, 494592, Note_on_c, 0, 25, 44
1, 494592, Note_on_c, 0, 27, 44
1, 494592, Note_on_c, 0, 26, 44
1, 494592, Note_on_c, 0, 28, 44
1, 494592, Note_on_c, 0, 29, 44
1, 494592, Note_on_c, 0, 31, 44
1, 494592, Note_on_c, 0, 30, 44
1, 494592, Note_on_c, 0, 32, 44
1, 494592, Note_on_c, 0, 24, 44
1, 494784, Note_off_c, 0, 24, 0
1, 494784, Note_off_c, 0, 32, 0
1, 494784, Note_off_c, 0, 30, 0
1, 494784, Note_off_c, 0, 31, 0
1, 494784, Note_off_c, 0, 29, 0
1, 494784, Note_off_c, 0, 28, 0
1, 494784, Note_off_c, 0, 26, 0
1, 494784, Note_off_c, 0, 27, 0
1, 494784, Note_off_c, 0, 25, 0
1, 494784, Note_off_c, 0, 84, 0
1, 494784, Note_off_c, 0, 90, 0
1, 494784, Note_off_c, 0, 87, 0
1, 494784, Note_off_c, 0, 78, 0
1, 494784, Note_off_c, 0, 75, 0
1, 494784, Note_off_c, 0, 72, 0
1, 494976, Note_on_c, 0, 70, 50
1, 494976, Note_on_c, 0, 73, 50
1, 494976, Note_on_c, 0, 77, 50
1, 494976, Note_on_c, 0, 82, 50
1, 494976, Note_on_c, 0, 85, 50
1, 494976, Note_on_c, 0, 89, 50
1, 495168, Note_off_c, 0, 89, 0
1, 495168, Note_off_c, 0, 85, 0
1, 495168, Note_off_c, 0, 82, 0
1, 495168, Note_off_c, 0, 77, 0
1, 495168, Note_off_c, 0, 73, 0
1, 495168, Note_off_c, 0, 70, 0
1, 495360, Note_off_c, 0, 48, 0
1, 495360, Note_off_c, 0, 36, 0
1, 495360, Note_on_c, 0, 69, 50
1, 495360, Note_on_c, 0, 72, 50
1, 495360, Note_on_c, 0, 77, 50
1, 495360, Note_on_c, 0, 89, 50
1, 495360, Note_on_c, 0, 84, 50
1, 495360, Note_on_c, 0, 81, 50
1, 495360, Note_on_c, 0, 51, 89
1, 495360, Note_on_c, 0, 48, 89
1, 495360, Note_on_c, 0, 63, 89
1, 495360, Note_on_c, 0, 60, 89
1, 495360, Note_on_c, 0, 69, 89
1, 495360, Note_on_c, 0, 57, 89
1, 495360, Note_on_c, 0, 45, 89
1, 495552, Note_off_c, 0, 45, 0
1, 495552, Note_off_c, 0, 57, 0
1, 495552, Note_off_c, 0, 69, 0
1, 495552, Note_off_c, 0, 60, 0
1, 495552, Note_off_c, 0, 63, 0
1, 495552, Note_off_c, 0, 48, 0
1, 495552, Note_off_c, 0, 51, 0
1, 495552, Note_off_c, 0, 81, 0
1, 495552, Note_off_c, 0, 84, 0
1, 495552, Note_off_c, 0, 89, 0
1, 495552, Note_off_c, 0, 77, 0
1, 495552, Note_off_c, 0, 72, 0
1, 495552, Note_off_c, 0, 69, 0
1, 495744, Note_on_c, 0, 72, 50
1, 495744, Note_on_c, 0, 75, 50
1, 495744, Note_on_c, 0, 78, 50
1, 495744, Note_on_c, 0, 87, 50
1, 495744, Note_on_c, 0, 90, 50
1, 495744, Note_on_c, 0, 84, 50
1, 495936, Note_off_c, 0, 84, 0
1, 495936, Note_off_c, 0, 90, 0
1, 495936, Note_off_c, 0, 87, 0
1, 495936, Note_off_c, 0, 78, 0
1, 495936, Note_off_c, 0, 75, 0
1, 495936, Note_off_c, 0, 72, 0
1, 496128, Note_on_c, 0, 70, 50
1, 496128, Note_on_c, 0, 73, 50
1, 496128, Note_on_c, 0, 77, 50
1, 496128, Note_on_c, 0, 82, 50
1, 496128, Note_on_c, 0, 85, 50
1, 496128, Note_on_c, 0, 89, 50
1, 496128, Note_on_c, 0, 34, 89
1, 496128, Note_on_c, 0, 46, 89
1, 496128, Note_on_c, 0, 34, 44
1, 496128, Note_on_c, 0, 36, 44
1, 496128, Note_on_c, 0, 35, 44
1, 496128, Note_on_c, 0, 37, 44
1, 496128, Note_on_c, 0, 38, 44
1, 496128, Note_on_c, 0, 40, 44
1, 496128, Note_on_c, 0, 39, 44
1, 496128, Note_on_c, 0, 41, 44
1, 496128, Note_on_c, 0, 33, 44
1, 496320, Note_off_c, 0, 33, 0
1, 496320, Note_off_c, 0, 41, 0
1, 496320, Note_off_c, 0, 39, 0
1, 496320, Note_off_c, 0, 40, 0
1, 496320, Note_off_c, 0, 38, 0
1, 496320, Note_off_c, 0, 37, 0
1, 496320, Note_off_c, 0, 35, 0
1, 496320, Note_off_c, 0, 36, 0
1, 496320, Note_off_c, 0, 34, 0
1, 496320, Note_off_c, 0, 89, 0
1, 496320, Note_off_c, 0, 85, 0
1, 496320, Note_off_c, 0, 82, 0
1, 496320, Note_off_c, 0, 77, 0
1, 496320, Note_off_c, 0, 73, 0
1, 496320, Note_off_c, 0, 70, 0
1, 496512, Note_on_c, 0, 65, 50
1, 496512, Note_on_c, 0, 70, 50
1, 496512, Note_on_c, 0, 73, 50
1, 496512, Note_on_c, 0, 77, 50
1, 496512, Note_on_c, 0, 82, 50
1, 496512, Note_on_c, 0, 85, 50
1, 496704, Note_off_c, 0, 85, 0
1, 496704, Note_off_c, 0, 82, 0
1, 496704, Note_off_c, 0, 77, 0
1, 496704, Note_off_c, 0, 73, 0
1, 496704, Note_off_c, 0, 70, 0
1, 496704, Note_off_c, 0, 65, 0
1, 496896, Note_off_c, 0, 46, 0
1, 496896, Note_off_c, 0, 34, 0
1, 496896, Note_on_c, 0, 61, 50
1, 496896, Note_on_c, 0, 65, 50
1, 496896, Note_on_c, 0, 70, 50
1, 496896, Note_on_c, 0, 73, 50
1, 496896, Note_on_c, 0, 77, 50
1, 496896, Note_on_c, 0, 82, 50
1, 496896, Note_on_c, 0, 46, 89
1, 496896, Note_on_c, 0, 49, 89
1, 496896, Note_on_c, 0, 58, 89
1, 496896, Note_on_c, 0, 61, 89
1, 496896, Note_on_c, 0, 53, 89
1, 496896, Note_on_c, 0, 64, 30
1, 497088, Note_off_c, 0, 64, 0
1, 497088, Note_off_c, 0, 53, 0
1, 497088, Note_off_c, 0, 61, 0
1, 497088, Note_off_c, 0, 58, 0
1, 497088, Note_off_c, 0, 49, 0
1, 497088, Note_off_c, 0, 46, 0
1, 497088, Note_off_c, 0, 82, 0
1, 497088, Note_off_c, 0, 77, 0
1, 497088, Note_off_c, 0, 73, 0
1, 497088, Note_off_c, 0, 70, 0
1, 497088, Note_off_c, 0, 65, 0
1, 497088, Note_off_c, 0, 61, 0
1, 497280, Note_on_c, 0, 58, 50
1, 497280, Note_on_c, 0, 61, 50
1, 497280, Note_on_c, 0, 65, 50
1, 497280, Note_on_c, 0, 70, 50
1, 497280, Note_on_c, 0, 73, 50
1, 497280, Note_on_c, 0, 77, 50
1, 497472, Note_off_c, 0, 77, 0
1, 497472, Note_off_c, 0, 73, 0
1, 497472, Note_off_c, 0, 70, 0
1, 497472, Note_off_c, 0, 65, 0
1, 497472, Note_off_c, 0, 61, 0
1, 497472, Note_off_c, 0, 58, 0
1, 497664, Note_on_c, 0, 78, 50
1, 497664, Note_on_c, 0, 82, 50
1, 497664, Note_on_c, 0, 85, 50
1, 497664, Note_on_c, 0, 90, 50
1, 497664, Note_on_c, 0, 94, 50
1, 497664, Note_on_c, 0, 29, 84
1, 497664, Note_on_c, 0, 41, 84
1, 497664, Note_on_c, 0, 51, 120
1, 497664, Note_on_c, 0, 48, 120
1, 497664, Note_on_c, 0, 63, 120
1, 497664, Note_on_c, 0, 60, 120
1, 497664, Note_on_c, 0, 57, 120
1, 497664, Note_on_c, 0, 45, 120
1, 497664, Note_on_c, 0, 69, 120
1, 497664, Note_on_c, 0, 25, 44
1, 497664, Note_on_c, 0, 27, 44
1, 497664, Note_on_c, 0, 26, 44
1, 497664, Note_on_c, 0, 28, 44
1, 497664, Note_on_c, 0, 29, 44
1, 497664, Note_on_c, 0, 31, 44
1, 497664, Note_on_c, 0, 30, 44
1, 497664, Note_on_c, 0, 32, 44
1, 497664, Note_on_c, 0, 24, 44
1, 497856, Note_off_c, 0, 24, 0
1, 497856, Note_off_c, 0, 32, 0
1, 497856, Note_off_c, 0, 30, 0
1, 497856, Note_off_c, 0, 31, 0
1, 497856, Note_off_c, 0, 29, 0
1, 497856, Note_off_c, 0, 28, 0
1, 497856, Note_off_c, 0, 26, 0
1, 497856, Note_off_c, 0, 27, 0
1, 497856, Note_off_c, 0, 25, 0
1, 497856, Note_off_c, 0, 69, 0
1, 497856, Note_off_c, 0, 45, 0
1, 497856, Note_off_c, 0, 57, 0
1, 497856, Note_off_c, 0, 60, 0
1, 497856, Note_off_c, 0, 63, 0
1, 497856, Note_off_c, 0, 48, 0
1, 497856, Note_off_c, 0, 51, 0
1, 497856, Note_off_c, 0, 94, 0
1, 497856, Note_off_c, 0, 90, 0
1, 497856, Note_off_c, 0, 85, 0
1, 497856, Note_off_c, 0, 82, 0
1, 497856, Note_off_c, 0, 78, 0
1, 498048, Note_on_c, 0, 77, 50
1, 498048, Note_on_c, 0, 82, 50
1, 498048, Note_on_c, 0, 85, 50
1, 498048, Note_on_c, 0, 94, 50
1, 498048, Note_on_c, 0, 89, 50
1, 498240, Note_off_c, 0, 89, 0
1, 498240, Note_off_c, 0, 94, 0
1, 498240, Note_off_c, 0, 85, 0
1, 498240, Note_off_c, 0, 82, 0
1, 498240, Note_off_c, 0, 77, 0
1, 498432, Note_off_c, 0, 41, 0
1, 498432, Note_off_c, 0, 29, 0
1, 498432, Note_on_c, 0, 75, 50
1, 498432, Note_on_c, 0, 78, 50
1, 498432, Note_on_c, 0, 82, 50
1, 498432, Note_on_c, 0, 87, 50
1, 498432, Note_on_c, 0, 90, 50
1, 498432, Note_on_c, 0, 94, 50
1, 498624, Note_off_c, 0, 94, 0
1, 498624, Note_off_c, 0, 90, 0
1, 498624, Note_off_c, 0, 87, 0
1, 498624, Note_off_c, 0, 82, 0
1, 498624, Note_off_c, 0, 78, 0
1, 498624, Note_off_c, 0, 75, 0
1, 498816, Note_on_c, 0, 73, 50
1, 498816, Note_on_c, 0, 77, 50
1, 498816, Note_on_c, 0, 82, 50
1, 498816, Note_on_c, 0, 85, 50
1, 498816, Note_on_c, 0, 89, 50
1, 498816, Note_on_c, 0, 94, 50
1, 499008, Note_off_c, 0, 94, 0
1, 499008, Note_off_c, 0, 89, 0
1, 499008, Note_off_c, 0, 85, 0
1, 499008, Note_off_c, 0, 82, 0
1, 499008, Note_off_c, 0, 77, 0
1, 499008, Note_off_c, 0, 73, 0
1, 499200, Note_on_c, 0, 72, 50
1, 499200, Note_on_c, 0, 75, 50
1, 499200, Note_on_c, 0, 78, 50
1, 499200, Note_on_c, 0, 84, 50
1, 499200, Note_on_c, 0, 87, 50
1, 499200, Note_on_c, 0, 90, 50
1, 499200, Note_on_c, 0, 34, 44
1, 499200, Note_on_c, 0, 36, 44
1, 499200, Note_on_c, 0, 35, 44
1, 499200, Note_on_c, 0, 37, 44
1, 499200, Note_on_c, 0, 38, 44
1, 499200, Note_on_c, 0, 40, 44
1, 499200, Note_on_c, 0, 39, 44
1, 499200, Note_on_c, 0, 41, 44
1, 499200, Note_on_c, 0, 33, 44
1, 499392, Note_off_c, 0, 33, 0
1, 499392, Note_off_c, 0, 41, 0
1, 499392, Note_off_c, 0, 39, 0
1, 499392, Note_off_c, 0, 40, 0
1, 499392, Note_off_c, 0, 38, 0
1, 499392, Note_off_c, 0, 37, 0
1, 499392, Note_off_c, 0, 35, 0
1, 499392, Note_off_c, 0, 36, 0
1, 499392, Note_off_c, 0, 34, 0
1, 499392, Note_off_c, 0, 90, 0
1, 499392, Note_off_c, 0, 87, 0
1, 499392, Note_off_c, 0, 84, 0
1, 499392, Note_off_c, 0, 78, 0
1, 499392, Note_off_c, 0, 75, 0
1, 499392, Note_off_c, 0, 72, 0
1, 499584, Note_on_c, 0, 70, 50
1, 499584, Note_on_c, 0, 73, 50
1, 499584, Note_on_c, 0, 77, 50
1, 499584, Note_on_c, 0, 82, 50
1, 499584, Note_on_c, 0, 85, 50
1, 499584, Note_on_c, 0, 89, 50
1, 499776, Note_off_c, 0, 89, 0
1, 499776, Note_off_c, 0, 85, 0
1, 499776, Note_off_c, 0, 82, 0
1, 499776, Note_off_c, 0, 77, 0
1, 499776, Note_off_c, 0, 73, 0
1, 499776, Note_off_c, 0, 70, 0
1, 499968, Note_on_c, 0, 69, 50
1, 499968, Note_on_c, 0, 72, 50
1, 499968, Note_on_c, 0, 77, 50
1, 499968, Note_on_c, 0, 81, 50
1, 499968, Note_on_c, 0, 85, 50
1, 499968, Note_on_c, 0, 89, 50
1, 499968, Note_on_c, 0, 51, 120
1, 499968, Note_on_c, 0, 48, 120
1, 499968, Note_on_c, 0, 63, 120
1, 499968, Note_on_c, 0, 60, 120
1, 499968, Note_on_c, 0, 57, 120
1, 499968, Note_on_c, 0, 45, 120
1, 499968, Note_on_c, 0, 29, 84
1, 499968, Note_on_c, 0, 41, 84
1, 500160, Note_off_c, 0, 45, 0
1, 500160, Note_off_c, 0, 57, 0
1, 500160, Note_off_c, 0, 60, 0
1, 500160, Note_off_c, 0, 63, 0
1, 500160, Note_off_c, 0, 48, 0
1, 500160, Note_off_c, 0, 51, 0
1, 500160, Note_off_c, 0, 89, 0
1, 500160, Note_off_c, 0, 85, 0
1, 500160, Note_off_c, 0, 81, 0
1, 500160, Note_off_c, 0, 77, 0
1, 500160, Note_off_c, 0, 72, 0
1, 500160, Note_off_c, 0, 69, 0
1, 500352, Note_on_c, 0, 72, 50
1, 500352, Note_on_c, 0, 75, 50
1, 500352, Note_on_c, 0, 78, 50
1, 500352, Note_on_c, 0, 87, 50
1, 500352, Note_on_c, 0, 90, 50
1, 500352, Note_on_c, 0, 84, 50
1, 500544, Note_off_c, 0, 84, 0
1, 500544, Note_off_c, 0, 90, 0
1, 500544, Note_off_c, 0, 87, 0
1, 500544, Note_off_c, 0, 78, 0
1, 500544, Note_off_c, 0, 75, 0
1, 500544, Note_off_c, 0, 72, 0
1, 500736, Note_off_c, 0, 41, 0
1, 500736, Note_off_c, 0, 29, 0
1, 500736, Note_on_c, 0, 70, 50
1, 500736, Note_on_c, 0, 73, 50
1, 500736, Note_on_c, 0, 77, 50
1, 500736, Note_on_c, 0, 82, 50
1, 500736, Note_on_c, 0, 85, 50
1, 500736, Note_on_c, 0, 89, 50
1, 500736, Note_on_c, 0, 25, 44
1, 500736, Note_on_c, 0, 27, 44
1, 500736, Note_on_c, 0, 26, 44
1, 500736, Note_on_c, 0, 28, 44
1, 500736, Note_on_c, 0, 29, 44
1, 500736, Note_on_c, 0, 31, 44
1, 500736, Note_on_c, 0, 30, 44
1, 500736, Note_on_c, 0, 32, 44
1, 500736, Note_on_c, 0, 24, 44
1, 500736, Note_on_c, 0, 53, 120
1, 500736, Note_on_c, 0, 49, 120
1, 500736, Note_on_c, 0, 65, 120
1, 500736, Note_on_c, 0, 61, 120
1, 500736, Note_on_c, 0, 58, 120
1, 500736, Note_on_c, 0, 34, 84
1, 500736, Note_on_c, 0, 46, 84
1, 500928, Note_off_c, 0, 58, 0
1, 500928, Note_off_c, 0, 61, 0
1, 500928, Note_off_c, 0, 65, 0
1, 500928, Note_off_c, 0, 49, 0
1, 500928, Note_off_c, 0, 53, 0
1, 500928, Note_off_c, 0, 24, 0
1, 500928, Note_off_c, 0, 32, 0
1, 500928, Note_off_c, 0, 30, 0
1, 500928, Note_off_c, 0, 31, 0
1, 500928, Note_off_c, 0, 29, 0
1, 500928, Note_off_c, 0, 28, 0
1, 500928, Note_off_c, 0, 26, 0
1, 500928, Note_off_c, 0, 27, 0
1, 500928, Note_off_c, 0, 25, 0
1, 500928, Note_off_c, 0, 89, 0
1, 500928, Note_off_c, 0, 85, 0
1, 500928, Note_off_c, 0, 82, 0
1, 500928, Note_off_c, 0, 77, 0
1, 500928, Note_off_c, 0, 73, 0
1, 500928, Note_off_c, 0, 70, 0
1, 501120, Note_off_c, 0, 46, 0
1, 501120, Note_off_c, 0, 34, 0
1, 501840, Note_on_c, 0, 29, 15
1, 501840, Note_on_c, 0, 31, 15
1, 501840, Note_on_c, 0, 38, 15
1, 501840, Note_on_c, 0, 40, 15
1, 501840, Note_on_c, 0, 48, 15
1, 501840, Note_on_c, 0, 50, 15
1, 501840, Note_on_c, 0, 52, 15
1, 501840, Note_on_c, 0, 53, 15
1, 501840, Note_on_c, 0, 55, 15
1, 501840, Note_on_c, 0, 64, 15
1, 501840, Note_on_c, 0, 65, 15
1, 501840, Note_on_c, 0, 67, 15
1, 501840, Note_on_c, 0, 69, 15
1, 501840, Note_on_c, 0, 71, 15
1, 501840, Note_on_c, 0, 72, 15
1, 501840, Note_on_c, 0, 83, 15
1, 501840, Note_on_c, 0, 81, 15
1, 501840, Note_on_c, 0, 91, 15
1, 501840, Note_on_c, 0, 89, 15
1, 501888, Note_off_c, 0, 89, 0
1, 501888, Note_off_c, 0, 91, 0
1, 501888, Note_off_c, 0, 81, 0
1, 501888, Note_off_c, 0, 83, 0
1, 501888, Note_off_c, 0, 72, 0
1, 501888, Note_off_c, 0, 71, 0
1, 501888, Note_off_c, 0, 69, 0
1, 501888, Note_off_c, 0, 67, 0
1, 501888, Note_off_c, 0, 65, 0
1, 501888, Note_off_c, 0, 64, 0
1, 501888, Note_off_c, 0, 55, 0
1, 501888, Note_off_c, 0, 53, 0
1, 501888, Note_off_c, 0, 52, 0
1, 501888, Note_off_c, 0, 50, 0
1, 501888, Note_off_c, 0, 48, 0
1, 501888, Note_off_c, 0, 40, 0
1, 501888, Note_off_c, 0, 38, 0
1, 501888, Note_off_c, 0, 31, 0
1, 501888, Note_off_c, 0, 29, 0
1, 501888, Note_on_c, 0, 31, 15
1, 501888, Note_on_c, 0, 33, 15
1, 501888, Note_on_c, 0, 38, 15
1, 501888, Note_on_c, 0, 40, 15
1, 501888, Note_on_c, 0, 35, 15
1, 501888, Note_on_c, 0, 47, 15
1, 501888, Note_on_c, 0, 48, 15
1, 501888, Note_on_c, 0, 57, 15
1, 501888, Note_on_c, 0, 55, 15
1, 501888, Note_on_c, 0, 74, 15
1, 501888, Note_on_c, 0, 72, 15
1, 501888, Note_on_c, 0, 83, 15
1, 501888, Note_on_c, 0, 81, 15
1, 501888, Note_on_c, 0, 89, 15
1, 501888, Note_on_c, 0, 91, 15
1, 501936, Note_off_c, 0, 91, 0
1, 501936, Note_off_c, 0, 89, 0
1, 501936, Note_off_c, 0, 81, 0
1, 501936, Note_off_c, 0, 83, 0
1, 501936, Note_off_c, 0, 72, 0
1, 501936, Note_off_c, 0, 74, 0
1, 501936, Note_off_c, 0, 55, 0
1, 501936, Note_off_c, 0, 57, 0
1, 501936, Note_off_c, 0, 48, 0
1, 501936, Note_off_c, 0, 47, 0
1, 501936, Note_off_c, 0, 35, 0
1, 501936, Note_off_c, 0, 40, 0
1, 501936, Note_off_c, 0, 38, 0
1, 501936, Note_off_c, 0, 33, 0
1, 501936, Note_off_c, 0, 31, 0
1, 501936, Note_on_c, 0, 35, 15
1, 501936, Note_on_c, 0, 36, 15
1, 501936, Note_on_c, 0, 38, 15
1, 501936, Note_on_c, 0, 40, 15
1, 501936, Note_on_c, 0, 47, 15
1, 501936, Note_on_c, 0, 48, 15
1, 501936, Note_on_c, 0, 57, 15
1, 501936, Note_on_c, 0, 55, 15
1, 501936, Note_on_c, 0, 74, 15
1, 501936, Note_on_c, 0, 72, 15
1, 501936, Note_on_c, 0, 81, 15
1, 501936, Note_on_c, 0, 83, 15
1, 501936, Note_on_c, 0, 91, 15
1, 501936, Note_on_c, 0, 89, 15
1, 501984, Note_off_c, 0, 89, 0
1, 501984, Note_off_c, 0, 91, 0
1, 501984, Note_off_c, 0, 83, 0
1, 501984, Note_off_c, 0, 81, 0
1, 501984, Note_off_c, 0, 72, 0
1, 501984, Note_off_c, 0, 74, 0
1, 501984, Note_off_c, 0, 55, 0
1, 501984, Note_off_c, 0, 57, 0
1, 501984, Note_off_c, 0, 48, 0
1, 501984, Note_off_c, 0, 47, 0
1, 501984, Note_off_c, 0, 40, 0
1, 501984, Note_off_c, 0, 38, 0
1, 501984, Note_off_c, 0, 36, 0
1, 501984, Note_off_c, 0, 35, 0
1, 501984, Note_on_c, 0, 40, 15
1, 501984, Note_on_c, 0, 38, 15
1, 501984, Note_on_c, 0, 31, 15
1, 501984, Note_on_c, 0, 33, 15
1, 501984, Note_on_c, 0, 35, 15
1, 501984, Note_on_c, 0, 36, 15
1, 501984, Note_on_c, 0, 47, 15
1, 501984, Note_on_c, 0, 48, 15
1, 501984, Note_on_c, 0, 57, 15
1, 501984, Note_on_c, 0, 55, 15
1, 501984, Note_on_c, 0, 72, 15
1, 501984, Note_on_c, 0, 71, 15
1, 501984, Note_on_c, 0, 69, 15
1, 501984, Note_on_c, 0, 67, 15
1, 501984, Note_on_c, 0, 65, 15
1, 501984, Note_on_c, 0, 83, 15
1, 501984, Note_on_c, 0, 81, 15
1, 501984, Note_on_c, 0, 91, 15
1, 501984, Note_on_c, 0, 89, 15
1, 501984, Note_on_c, 0, 88, 15
1, 501984, Note_on_c, 0, 86, 15
1, 501984, Note_on_c, 0, 84, 15
1, 502032, Note_off_c, 0, 84, 0
1, 502032, Note_off_c, 0, 86, 0
1, 502032, Note_off_c, 0, 88, 0
1, 502032, Note_off_c, 0, 89, 0
1, 502032, Note_off_c, 0, 91, 0
1, 502032, Note_off_c, 0, 81, 0
1, 502032, Note_off_c, 0, 83, 0
1, 502032, Note_off_c, 0, 65, 0
1, 502032, Note_off_c, 0, 67, 0
1, 502032, Note_off_c, 0, 69, 0
1, 502032, Note_off_c, 0, 71, 0
1, 502032, Note_off_c, 0, 72, 0
1, 502032, Note_off_c, 0, 55, 0
1, 502032, Note_off_c, 0, 57, 0
1, 502032, Note_off_c, 0, 48, 0
1, 502032, Note_off_c, 0, 47, 0
1, 502032, Note_off_c, 0, 36, 0
1, 502032, Note_off_c, 0, 35, 0
1, 502032, Note_off_c, 0, 33, 0
1, 502032, Note_off_c, 0, 31, 0
1, 502032, Note_off_c, 0, 38, 0
1, 502032, Note_off_c, 0, 40, 0
1, 502032, Note_on_c, 0, 40, 15
1, 502032, Note_on_c, 0, 38, 15
1, 502032, Note_on_c, 0, 31, 15
1, 502032, Note_on_c, 0, 29, 15
1, 502032, Note_on_c, 0, 47, 15
1, 502032, Note_on_c, 0, 48, 15
1, 502032, Note_on_c, 0, 57, 15
1, 502032, Note_on_c, 0, 55, 15
1, 502032, Note_on_c, 0, 65, 15
1, 502032, Note_on_c, 0, 64, 15
1, 502032, Note_on_c, 0, 83, 15
1, 502032, Note_on_c, 0, 81, 15
1, 502032, Note_on_c, 0, 91, 15
1, 502032, Note_on_c, 0, 89, 15
1, 502080, Note_off_c, 0, 89, 0
1, 502080, Note_off_c, 0, 91, 0
1, 502080, Note_off_c, 0, 81, 0
1, 502080, Note_off_c, 0, 83, 0
1, 502080, Note_off_c, 0, 64, 0
1, 502080, Note_off_c, 0, 65, 0
1, 502080, Note_off_c, 0, 55, 0
1, 502080, Note_off_c, 0, 57, 0
1, 502080, Note_off_c, 0, 48, 0
1, 502080, Note_off_c, 0, 47, 0
1, 502080, Note_off_c, 0, 29, 0
1, 502080, Note_off_c, 0, 31, 0
1, 502080, Note_off_c, 0, 38, 0
1, 502080, Note_off_c, 0, 40, 0
1, 502080, Note_on_c, 0, 40, 15
1, 502080, Note_on_c, 0, 38, 15
1, 502080, Note_on_c, 0, 31, 15
1, 502080, Note_on_c, 0, 29, 15
1, 502080, Note_on_c, 0, 47, 15
1, 502080, Note_on_c, 0, 48, 15
1, 502080, Note_on_c, 0, 57, 15
1, 502080, Note_on_c, 0, 55, 15
1, 502080, Note_on_c, 0, 65, 15
1, 502080, Note_on_c, 0, 64, 15
1, 502080, Note_on_c, 0, 83, 15
1, 502080, Note_on_c, 0, 81, 15
1, 502080, Note_on_c, 0, 91, 15
1, 502080, Note_on_c, 0, 89, 15
1, 502128, Note_off_c, 0, 89, 0
1, 502128, Note_off_c, 0, 91, 0
1, 502128, Note_off_c, 0, 81, 0
1, 502128, Note_off_c, 0, 83, 0
1, 502128, Note_off_c, 0, 64, 0
1, 502128, Note_off_c, 0, 65, 0
1, 502128, Note_off_c, 0, 55, 0
1, 502128, Note_off_c, 0, 57, 0
1, 502128, Note_off_c, 0, 48, 0
1, 502128, Note_off_c, 0, 47, 0
1, 502128, Note_off_c, 0, 29, 0
1, 502128, Note_off_c, 0, 31, 0
1, 502128, Note_off_c, 0, 38, 0
1, 502128, Note_off_c, 0, 40, 0
1, 502128, Note_on_c, 0, 40, 15
1, 502128, Note_on_c, 0, 38, 15
1, 502128, Note_on_c, 0, 36, 15
1, 502128, Note_on_c, 0, 35, 15
1, 502128, Note_on_c, 0, 33, 15
1, 502128, Note_on_c, 0, 31, 15
1, 502128, Note_on_c, 0, 47, 15
1, 502128, Note_on_c, 0, 48, 15
1, 502128, Note_on_c, 0, 57, 15
1, 502128, Note_on_c, 0, 55, 15
1, 502128, Note_on_c, 0, 65, 15
1, 502128, Note_on_c, 0, 67, 15
1, 502128, Note_on_c, 0, 69, 15
1, 502128, Note_on_c, 0, 71, 15
1, 502128, Note_on_c, 0, 72, 15
1, 502128, Note_on_c, 0, 74, 15
1, 502128, Note_on_c, 0, 83, 15
1, 502128, Note_on_c, 0, 81, 15
1, 502128, Note_on_c, 0, 89, 15
1, 502128, Note_on_c, 0, 91, 15
1, 502176, Note_off_c, 0, 91, 0
1, 502176, Note_off_c, 0, 89, 0
1, 502176, Note_off_c, 0, 81, 0
1, 502176, Note_off_c, 0, 83, 0
1, 502176, Note_off_c, 0, 74, 0
1, 502176, Note_off_c, 0, 72, 0
1, 502176, Note_off_c, 0, 71, 0
1, 502176, Note_off_c, 0, 69, 0
1, 502176, Note_off_c, 0, 67, 0
1, 502176, Note_off_c, 0, 65, 0
1, 502176, Note_off_c, 0, 55, 0
1, 502176, Note_off_c, 0, 57, 0
1, 502176, Note_off_c, 0, 48, 0
1, 502176, Note_off_c, 0, 47, 0
1, 502176, Note_off_c, 0, 31, 0
1, 502176, Note_off_c, 0, 33, 0
1, 502176, Note_off_c, 0, 35, 0
1, 502176, Note_off_c, 0, 36, 0
1, 502176, Note_off_c, 0, 38, 0
1, 502176, Note_off_c, 0, 40, 0
1, 502848, Note_on_c, 0, 55, 15
1, 502848, Note_on_c, 0, 57, 15
1, 502848, Note_on_c, 0, 59, 15
1, 502848, Note_on_c, 0, 60, 15
1, 502848, Note_on_c, 0, 62, 15
1, 502848, Note_on_c, 0, 64, 15
1, 502848, Note_on_c, 0, 65, 15
1, 502896, Note_off_c, 0, 65, 0
1, 502896, Note_off_c, 0, 64, 0
1, 502896, Note_off_c, 0, 62, 0
1, 502896, Note_off_c, 0, 60, 0
1, 502896, Note_off_c, 0, 59, 0
1, 502896, Note_off_c, 0, 57, 0
1, 502896, Note_off_c, 0, 55, 0
1, 502896, Note_on_c, 0, 64, 15
1, 502896, Note_on_c, 0, 65, 15
1, 502944, Note_off_c, 0, 65, 0
1, 502944, Note_off_c, 0, 64, 0
1, 502944, Note_on_c, 0, 64, 15
1, 502944, Note_on_c, 0, 65, 15
1, 502992, Note_off_c, 0, 65, 0
1, 502992, Note_off_c, 0, 64, 0
1, 502992, Note_on_c, 0, 55, 15
1, 502992, Note_on_c, 0, 57, 15
1, 502992, Note_on_c, 0, 59, 15
1, 502992, Note_on_c, 0, 60, 15
1, 502992, Note_on_c, 0, 62, 15
1, 502992, Note_on_c, 0, 64, 15
1, 502992, Note_on_c, 0, 65, 15
1, 503040, Note_off_c, 0, 65, 0
1, 503040, Note_off_c, 0, 64, 0
1, 503040, Note_off_c, 0, 62, 0
1, 503040, Note_off_c, 0, 60, 0
1, 503040, Note_off_c, 0, 59, 0
1, 503040, Note_off_c, 0, 57, 0
1, 503040, Note_off_c, 0, 55, 0
1, 503040, Note_on_c, 0, 64, 15
1, 503040, Note_on_c, 0, 65, 15
1, 503088, Note_off_c, 0, 65, 0
1, 503088, Note_off_c, 0, 64, 0
1, 503088, Note_on_c, 0, 64, 15
1, 503088, Note_on_c, 0, 65, 15
1, 503136, Note_off_c, 0, 65, 0
1, 503136, Note_off_c, 0, 64, 0
1, 503136, Note_on_c, 0, 55, 15
1, 503136, Note_on_c, 0, 57, 15
1, 503136, Note_on_c, 0, 59, 15
1, 503136, Note_on_c, 0, 60, 15
1, 503136, Note_on_c, 0, 62, 15
1, 503136, Note_on_c, 0, 64, 15
1, 503136, Note_on_c, 0, 65, 15
1, 503184, Note_off_c, 0, 65, 0
1, 503184, Note_off_c, 0, 64, 0
1, 503184, Note_off_c, 0, 62, 0
1, 503184, Note_off_c, 0, 60, 0
1, 503184, Note_off_c, 0, 59, 0
1, 503184, Note_off_c, 0, 57, 0
1, 503184, Note_off_c, 0, 55, 0
1, 503808, Note_on_c, 0, 75, 50
1, 504000, Note_off_c, 0, 75, 0
1, 504192, Note_on_c, 0, 73, 50
1, 504384, Note_off_c, 0, 73, 0
1, 504576, Note_on_c, 0, 72, 50
1, 504768, Note_off_c, 0, 72, 0
1, 504960, Note_on_c, 0, 75, 50
1, 505152, Note_off_c, 0, 75, 0
1, 505344, Note_on_c, 0, 73, 50
1, 505536, Note_off_c, 0, 73, 0
1, 505728, Note_on_c, 0, 72, 50
1, 505920, Note_off_c, 0, 72, 0
1, 506112, Note_on_c, 0, 70, 50
1, 506304, Note_off_c, 0, 70, 0
1, 506496, Note_on_c, 0, 73, 50
1, 506688, Note_off_c, 0, 73, 0
1, 506880, Note_on_c, 0, 72, 50
1, 507072, Note_off_c, 0, 72, 0
1, 507264, Note_on_c, 0, 70, 50
1, 507456, Note_off_c, 0, 70, 0
1, 507648, Note_on_c, 0, 69, 50
1, 507840, Note_off_c, 0, 69, 0
1, 508032, Note_on_c, 0, 72, 50
1, 508224, Note_off_c, 0, 72, 0
1, 508416, Note_on_c, 0, 70, 50
1, 508608, Note_off_c, 0, 70, 0
1, 508800, Note_on_c, 0, 65, 50
1, 508992, Note_off_c, 0, 65, 0
1, 509184, Note_on_c, 0, 61, 50
1, 509376, Note_off_c, 0, 61, 0
1, 509568, Note_on_c, 0, 58, 50
1, 509760, Note_off_c, 0, 58, 0
1, 509952, Note_on_c, 0, 78, 50
1, 509952, Note_on_c, 0, 90, 50
1, 509952, Note_on_c, 0, 54, 50
1, 509952, Note_on_c, 0, 66, 50
1, 509952, Note_on_c, 0, 36, 109
1, 509952, Note_on_c, 0, 48, 109
1, 509952, Note_on_c, 0, 60, 69
1, 509952, Note_on_c, 0, 63, 69
1, 509952, Note_on_c, 0, 65, 69
1, 509952, Note_on_c, 0, 72, 69
1, 509952, Note_on_c, 0, 75, 69
1, 509952, Note_on_c, 0, 77, 69
1, 510144, Note_off_c, 0, 77, 0
1, 510144, Note_off_c, 0, 75, 0
1, 510144, Note_off_c, 0, 72, 0
1, 510144, Note_off_c, 0, 65, 0
1, 510144, Note_off_c, 0, 63, 0
1, 510144, Note_off_c, 0, 60, 0
1, 510144, Note_off_c, 0, 66, 0
1, 510144, Note_off_c, 0, 54, 0
1, 510144, Note_off_c, 0, 90, 0
1, 510144, Note_off_c, 0, 78, 0
1, 510336, Note_on_c, 0, 77, 50
1, 510336, Note_on_c, 0, 89, 50
1, 510336, Note_on_c, 0, 53, 50
1, 510336, Note_on_c, 0, 65, 50
1, 510528, Note_off_c, 0, 65, 0
1, 510528, Note_off_c, 0, 53, 0
1, 510528, Note_off_c, 0, 89, 0
1, 510528, Note_off_c, 0, 77, 0
1, 510720, Note_off_c, 0, 48, 0
1, 510720, Note_off_c, 0, 36, 0
1, 510720, Note_on_c, 0, 75, 50
1, 510720, Note_on_c, 0, 87, 50
1, 510720, Note_on_c, 0, 51, 50
1, 510720, Note_on_c, 0, 63, 50
1, 510720, Note_on_c, 0, 34, 109
1, 510720, Note_on_c, 0, 46, 109
1, 510720, Note_on_c, 0, 65, 69
1, 510720, Note_on_c, 0, 63, 69
1, 510720, Note_on_c, 0, 70, 69
1, 510720, Note_on_c, 0, 77, 69
1, 510720, Note_on_c, 0, 75, 69
1, 510912, Note_off_c, 0, 75, 0
1, 510912, Note_off_c, 0, 77, 0
1, 510912, Note_off_c, 0, 70, 0
1, 510912, Note_off_c, 0, 63, 0
1, 510912, Note_off_c, 0, 65, 0
1, 510912, Note_off_c, 0, 63, 0
1, 510912, Note_off_c, 0, 51, 0
1, 510912, Note_off_c, 0, 87, 0
1, 510912, Note_off_c, 0, 75, 0
1, 511104, Note_on_c, 0, 73, 50
1, 511104, Note_on_c, 0, 85, 50
1, 511104, Note_on_c, 0, 49, 50
1, 511104, Note_on_c, 0, 61, 50
1, 511296, Note_off_c, 0, 61, 0
1, 511296, Note_off_c, 0, 49, 0
1, 511296, Note_off_c, 0, 85, 0
1, 511296, Note_off_c, 0, 73, 0
1, 511488, Note_off_c, 0, 46, 0
1, 511488, Note_off_c, 0, 34, 0
1, 511488, Note_on_c, 0, 72, 50
1, 511488, Note_on_c, 0, 84, 50
1, 511488, Note_on_c, 0, 48, 50
1, 511488, Note_on_c, 0, 60, 50
1, 511488, Note_on_c, 0, 33, 109
1, 511488, Note_on_c, 0, 45, 109
1, 511488, Note_on_c, 0, 75, 69
1, 511488, Note_on_c, 0, 77, 69
1, 511488, Note_on_c, 0, 69, 69
1, 511488, Note_on_c, 0, 65, 69
1, 511488, Note_on_c, 0, 63, 69
1, 511488, Note_on_c, 0, 57, 69
1, 511680, Note_off_c, 0, 57, 0
1, 511680, Note_off_c, 0, 63, 0
1, 511680, Note_off_c, 0, 65, 0
1, 511680, Note_off_c, 0, 69, 0
1, 511680, Note_off_c, 0, 77, 0
1, 511680, Note_off_c, 0, 75, 0
1, 511680, Note_off_c, 0, 60, 0
1, 511680, Note_off_c, 0, 48, 0
1, 511680, Note_off_c, 0, 84, 0
1, 511680, Note_off_c, 0, 72, 0
1, 511872, Note_on_c, 0, 70, 50
1, 511872, Note_on_c, 0, 82, 50
1, 511872, Note_on_c, 0, 46, 50
1, 511872, Note_on_c, 0, 58, 50
1, 512064, Note_off_c, 0, 58, 0
1, 512064, Note_off_c, 0, 46, 0
1, 512064, Note_off_c, 0, 82, 0
1, 512064, Note_off_c, 0, 70, 0
1, 512256, Note_off_c, 0, 45, 0
1, 512256, Note_off_c, 0, 33, 0
1, 512256, Note_on_c, 0, 69, 50
1, 512256, Note_on_c, 0, 81, 50
1, 512256, Note_on_c, 0, 45, 50
1, 512256, Note_on_c, 0, 57, 50
1, 512256, Note_on_c, 0, 36, 109
1, 512256, Note_on_c, 0, 48, 109
1, 512256, Note_on_c, 0, 72, 69
1, 512256, Note_on_c, 0, 75, 69
1, 512256, Note_on_c, 0, 77, 69
1, 512256, Note_on_c, 0, 60, 69
1, 512256, Note_on_c, 0, 63, 69
1, 512256, Note_on_c, 0, 65, 69
1, 512448, Note_off_c, 0, 65, 0
1, 512448, Note_off_c, 0, 63, 0
1, 512448, Note_off_c, 0, 60, 0
1, 512448, Note_off_c, 0, 77, 0
1, 512448, Note_off_c, 0, 75, 0
1, 512448, Note_off_c, 0, 72, 0
1, 512448, Note_off_c, 0, 57, 0
1, 512448, Note_off_c, 0, 45, 0
1, 512448, Note_off_c, 0, 81, 0
1, 512448, Note_off_c, 0, 69, 0
1, 512640, Note_on_c, 0, 72, 50
1, 512640, Note_on_c, 0, 84, 50
1, 512640, Note_on_c, 0, 48, 50
1, 512640, Note_on_c, 0, 60, 50
1, 512832, Note_off_c, 0, 60, 0
1, 512832, Note_off_c, 0, 48, 0
1, 512832, Note_off_c, 0, 84, 0
1, 512832, Note_off_c, 0, 72, 0
1, 513024, Note_off_c, 0, 48, 0
1, 513024, Note_off_c, 0, 36, 0
1, 513024, Note_on_c, 0, 70, 50
1, 513024, Note_on_c, 0, 82, 50
1, 513024, Note_on_c, 0, 46, 50
1, 513024, Note_on_c, 0, 58, 50
1, 513024, Note_on_c, 0, 34, 109
1, 513024, Note_on_c, 0, 46, 109
1, 513024, Note_on_c, 0, 77, 69
1, 513024, Note_on_c, 0, 73, 69
1, 513024, Note_on_c, 0, 70, 69
1, 513024, Note_on_c, 0, 65, 69
1, 513024, Note_on_c, 0, 61, 69
1, 513024, Note_on_c, 0, 58, 69
1, 513216, Note_off_c, 0, 58, 0
1, 513216, Note_off_c, 0, 61, 0
1, 513216, Note_off_c, 0, 65, 0
1, 513216, Note_off_c, 0, 70, 0
1, 513216, Note_off_c, 0, 73, 0
1, 513216, Note_off_c, 0, 77, 0
1, 513216, Note_off_c, 0, 58, 0
1, 513216, Note_off_c, 0, 46, 0
1, 513216, Note_off_c, 0, 82, 0
1, 513216, Note_off_c, 0, 70, 0
1, 513792, Note_off_c, 0, 46, 0
1, 513792, Note_off_c, 0, 34, 0
1, 514560, Note_on_c, 0, 95, 20
1, 514560, Note_on_c, 0, 94, 20
1, 514560, Note_on_c, 0, 93, 20
1, 514560, Note_on_c, 0, 92, 20
1, 514560, Note_on_c, 0, 91, 20
1, 514560, Note_on_c, 0, 90, 20
1, 514560, Note_on_c, 0, 89, 20
1, 514560, Note_on_c, 0, 88, 20
1, 514560, Note_on_c, 0, 87, 20
1, 514560, Note_on_c, 0, 86, 20
1, 514560, Note_on_c, 0, 85, 20
1, 514560, Note_on_c, 0, 84, 20
1, 514560, Note_on_c, 0, 83, 20
1, 514560, Note_on_c, 0, 82, 20
1, 514560, Note_on_c, 0, 81, 20
1, 514560, Note_on_c, 0, 80, 20
1, 514560, Note_on_c, 0, 79, 20
1, 514560, Note_on_c, 0, 78, 20
1, 514560, Note_on_c, 0, 77, 20
1, 514560, Note_on_c, 0, 76, 20
1, 514560, Note_on_c, 0, 75, 20
1, 514560, Note_on_c, 0, 74, 20
1, 514560, Note_on_c, 0, 73, 20
1, 514560, Note_on_c, 0, 72, 20
1, 514560, Note_on_c, 0, 71, 20
1, 514560, Note_on_c, 0, 70, 20
1, 514560, Note_on_c, 0, 69, 20
1, 514560, Note_on_c, 0, 68, 20
1, 514560, Note_on_c, 0, 67, 20
1, 514560, Note_on_c, 0, 66, 20
1, 514560, Note_on_c, 0, 65, 20
1, 514560, Note_on_c, 0, 64, 20
1, 514560, Note_on_c, 0, 63, 20
1, 514560, Note_on_c, 0, 62, 20
1, 514560, Note_on_c, 0, 61, 20
1, 514560, Note_on_c, 0, 60, 20
1, 514560, Note_on_c, 0, 59, 20
1, 514560, Note_on_c, 0, 58, 20
1, 514560, Note_on_c, 0, 57, 20
1, 514560, Note_on_c, 0, 56, 20
1, 514560, Note_on_c, 0, 55, 20
1, 514560, Note_on_c, 0, 54, 20
1, 514560, Note_on_c, 0, 53, 20
1, 514560, Note_on_c, 0, 52, 20
1, 514560, Note_on_c, 0, 51, 20
1, 514560, Note_on_c, 0, 50, 20
1, 514560, Note_on_c, 0, 49, 20
1, 514560, Note_on_c, 0, 48, 20
1, 514560, Note_on_c, 0, 47, 20
1, 514560, Note_on_c, 0, 46, 20
1, 514560, Note_on_c, 0, 45, 20
1, 514560, Note_on_c, 0, 44, 20
1, 514560, Note_on_c, 0, 43, 20
1, 514560, Note_on_c, 0, 42, 20
1, 514560, Note_on_c, 0, 41, 20
1, 514560, Note_on_c, 0, 40, 20
1, 514560, Note_on_c, 0, 39, 20
1, 514560, Note_on_c, 0, 38, 20
1, 514560, Note_on_c, 0, 37, 20
1, 514560, Note_on_c, 0, 36, 20
1, 514560, Note_on_c, 0, 35, 20
1, 514560, Note_on_c, 0, 34, 20
1, 514560, Note_on_c, 0, 33, 20
1, 514560, Note_on_c, 0, 32, 20
1, 514560, Note_on_c, 0, 31, 20
1, 514560, Note_on_c, 0, 30, 20
1, 514560, Note_on_c, 0, 29, 20
1, 514560, Note_on_c, 0, 28, 20
1, 514560, Note_on_c, 0, 27, 20
1, 514560, Note_on_c, 0, 26, 20
1, 514560, Note_on_c, 0, 25, 20
1, 514560, Note_on_c, 0, 24, 20
1, 520704, Note_off_c, 0, 24, 0
1, 520704, Note_off_c, 0, 25, 0
1, 520704, Note_off_c, 0, 26, 0
1, 520704, Note_off_c, 0, 27, 0
1, 520704, Note_off_c, 0, 28, 0
1, 520704, Note_off_c, 0, 29, 0
1, 520704, Note_off_c, 0, 30, 0
1, 520704, Note_off_c, 0, 31, 0
1, 520704, Note_off_c, 0, 32, 0
1, 520704, Note_off_c, 0, 33, 0
1, 520704, Note_off_c, 0, 34, 0
1, 520704, Note_off_c, 0, 35, 0
1, 520704, Note_off_c, 0, 36, 0
1, 520704, Note_off_c, 0, 37, 0
1, 520704, Note_off_c, 0, 38, 0
1, 520704, Note_off_c, 0, 39, 0
1, 520704, Note_off_c, 0, 40, 0
1, 520704, Note_off_c, 0, 41, 0
1, 520704, Note_off_c, 0, 42, 0
1, 520704, Note_off_c, 0, 43, 0
1, 520704, Note_off_c, 0, 44, 0
1, 520704, Note_off_c, 0, 45, 0
1, 520704, Note_off_c, 0, 46, 0
1, 520704, Note_off_c, 0, 47, 0
1, 520704, Note_off_c, 0, 48, 0
1, 520704, Note_off_c, 0, 49, 0
1, 520704, Note_off_c, 0, 50, 0
1, 520704, Note_off_c, 0, 51, 0
1, 520704, Note_off_c, 0, 52, 0
1, 520704, Note_off_c, 0, 53, 0
1, 520704, Note_off_c, 0, 54, 0
1, 520704, Note_off_c, 0, 55, 0
1, 520704, Note_off_c, 0, 56, 0
1, 520704, Note_off_c, 0, 57, 0
1, 520704, Note_off_c, 0, 58, 0
1, 520704, Note_off_c, 0, 59, 0
1, 520704, Note_off_c, 0, 60, 0
1, 520704, Note_off_c, 0, 61, 0
1, 520704, Note_off_c, 0, 62, 0
1, 520704, Note_off_c, 0, 63, 0
1, 520704, Note_off_c, 0, 64, 0
1, 520704, Note_off_c, 0, 65, 0
1, 520704, Note_off_c, 0, 66, 0
1, 520704, Note_off_c, 0, 67, 0
1, 520704, Note_off_c, 0, 68, 0
1, 520704, Note_off_c, 0, 69, 0
1, 520704, Note_off_c, 0, 70, 0
1, 520704, Note_off_c, 0, 71, 0
1, 520704, Note_off_c, 0, 72, 0
1, 520704, Note_off_c, 0, 73, 0
1, 520704, Note_off_c, 0, 74, 0
1, 520704, Note_off_c, 0, 75, 0
1, 520704, Note_off_c, 0, 76, 0
1, 520704, Note_off_c, 0, 77, 0
1, 520704, Note_off_c, 0, 78, 0
1, 520704, Note_off_c, 0, 79, 0
1, 520704, Note_off_c, 0, 80, 0
1, 520704, Note_off_c, 0, 81, 0
1, 520704, Note_off_c, 0, 82, 0
1, 520704, Note_off_c, 0, 83, 0
1, 520704, Note_off_c, 0, 84, 0
1, 520704, Note_off_c, 0, 85, 0
1, 520704, Note_off_c, 0, 86, 0
1, 520704, Note_off_c, 0, 87, 0
1, 520704, Note_off_c, 0, 88, 0
1, 520704, Note_off_c, 0, 89, 0
1, 520704, Note_off_c, 0, 90, 0
1, 520704, Note_off_c, 0, 91, 0
1, 520704, Note_off_c, 0, 92, 0
1, 520704, Note_off_c, 0, 93, 0
1, 520704, Note_off_c, 0, 94, 0
1, 520704, Note_off_c, 0, 95, 0
1, 521952, Note_on_c, 0, 24, 0
1, 522144, Note_off_c, 0, 24, 0
1, 522144, End_track
2, 0, Start_track
2, 0, Title_t, "Flute"
2, 0, Program_c, 1, 73
2, 262656, Note_on_c, 1, 64, 0
2, 262656, Note_on_c, 1, 52, 0
2, 262656, Note_on_c, 1, 40, 0
2, 262656, Note_on_c, 1, 50, 0
2, 262656, Note_on_c, 1, 51, 0
2, 262656, Note_on_c, 1, 48, 0
2, 262656, Note_on_c, 1, 49, 0
2, 262656, Note_on_c, 1, 47, 0
2, 262656, Note_on_c, 1, 45, 0
2, 262656, Note_on_c, 1, 46, 0
2, 262656, Note_on_c, 1, 44, 0
2, 262656, Note_on_c, 1, 43, 0
2, 262656, Note_on_c, 1, 42, 0
2, 262656, Note_on_c, 1, 41, 0
2, 262656, Note_on_c, 1, 62, 0
2, 262656, Note_on_c, 1, 63, 0
2, 262656, Note_on_c, 1, 60, 0
2, 262656, Note_on_c, 1, 61, 0
2, 262656, Note_on_c, 1, 59, 0
2, 262656, Note_on_c, 1, 57, 0
2, 262656, Note_on_c, 1, 58, 0
2, 262656, Note_on_c, 1, 56, 0
2, 262656, Note_on_c, 1, 55, 0
2, 262656, Note_on_c, 1, 54, 0
2, 262656, Note_on_c, 1, 53, 0
2, 262752, Note_off_c, 1, 53, 0
2, 262752, Note_off_c, 1, 54, 0
2, 262752, Note_off_c, 1, 55, 0
2, 262752, Note_off_c, 1, 56, 0
2, 262752, Note_off_c, 1, 58, 0
2, 262752, Note_off_c, 1, 57, 0
2, 262752, Note_off_c, 1, 59, 0
2, 262752, Note_off_c, 1, 61, 0
2, 262752, Note_off_c, 1, 60, 0
2, 262752, Note_off_c, 1, 63, 0
2, 262752, Note_off_c, 1, 62, 0
2, 262752, Note_off_c, 1, 41, 0
2, 262752, Note_off_c, 1, 42, 0
2, 262752, Note_off_c, 1, 43, 0
2, 262752, Note_off_c, 1, 44, 0
2, 262752, Note_off_c, 1, 46, 0
2, 262752, Note_off_c, 1, 45, 0
2, 262752, Note_off_c, 1, 47, 0
2, 262752, Note_off_c, 1, 49, 0
2, 262752, Note_off_c, 1, 48, 0
2, 262752, Note_off_c, 1, 51, 0
2, 262752, Note_off_c, 1, 50, 0
2, 263424, Note_off_c, 1, 52, 0
2, 263808, Note_off_c, 1, 40, 0
2, 263808, Note_off_c, 1, 64, 0
2, 516096, Note_on_c, 1, 65, 0
2, 516096, Note_on_c, 1, 66, 0
2, 516096, Note_on_c, 1, 67, 0
2, 516096, Note_on_c, 1, 68, 0
2, 516096, Note_on_c, 1, 69, 0
2, 516096, Note_on_c, 1, 70, 0
2, 516096, Note_on_c, 1, 71, 0
2, 516096, Note_on_c, 1, 72, 0
2, 516096, Note_on_c, 1, 73, 0
2, 516096, Note_on_c, 1, 74, 0
2, 516096, Note_on_c, 1, 75, 0
2, 516096, Note_on_c, 1, 76, 0
2, 516096, Note_on_c, 1, 77, 0
2, 516096, Note_on_c, 1, 78, 0
2, 516096, Note_on_c, 1, 79, 0
2, 516096, Note_on_c, 1, 80, 0
2, 516096, Note_on_c, 1, 81, 0
2, 516096, Note_on_c, 1, 82, 0
2, 516096, Note_on_c, 1, 83, 0
2, 516096, Note_on_c, 1, 84, 0
2, 516096, Note_on_c, 1, 85, 0
2, 516096, Note_on_c, 1, 86, 0
2, 516096, Note_on_c, 1, 87, 0
2, 516096, Note_on_c, 1, 88, 0
2, 516096, Note_on_c, 1, 89, 0
2, 516096, Note_on_c, 1, 60, 0
2, 516096, Note_on_c, 1, 61, 0
2, 516096, Note_on_c, 1, 62, 0
2, 516096, Note_on_c, 1, 63, 0
2, 516096, Note_on_c, 1, 64, 0
2, 516096, Note_on_c, 1, 45, 0
2, 516096, Note_on_c, 1, 46, 0
2, 516096, Note_on_c, 1, 47, 0
2, 516096, Note_on_c, 1, 48, 0
2, 516096, Note_on_c, 1, 49, 0
2, 516096, Note_on_c, 1, 50, 0
2, 516096, Note_on_c, 1, 51, 0
2, 516096, Note_on_c, 1, 52, 0
2, 516096, Note_on_c, 1, 53, 0
2, 516096, Note_on_c, 1, 54, 0
2, 516096, Note_on_c, 1, 55, 0
2, 516096, Note_on_c, 1, 56, 0
2, 516096, Note_on_c, 1, 57, 0
2, 516096, Note_on_c, 1, 58, 0
2, 516096, Note_on_c, 1, 59, 0
2, 516096, Note_on_c, 1, 40, 0
2, 516096, Note_on_c, 1, 41, 0
2, 516096, Note_on_c, 1, 42, 0
2, 516096, Note_on_c, 1, 43, 0
2, 516096, Note_on_c, 1, 44, 0
2, 517632, Note_off_c, 1, 59, 0
2, 517632, Note_off_c, 1, 58, 0
2, 517632, Note_off_c, 1, 57, 0
2, 517632, Note_off_c, 1, 56, 0
2, 517632, Note_off_c, 1, 55, 0
2, 517632, Note_off_c, 1, 54, 0
2, 517632, Note_off_c, 1, 53, 0
2, 517632, Note_off_c, 1, 52, 0
2, 517632, Note_off_c, 1, 51, 0
2, 517632, Note_off_c, 1, 50, 0
2, 517632, Note_off_c, 1, 79, 0
2, 517632, Note_off_c, 1, 78, 0
2, 517632, Note_off_c, 1, 77, 0
2, 517632, Note_off_c, 1, 76, 0
2, 517632, Note_off_c, 1, 75, 0
2, 517632, Note_off_c, 1, 74, 0
2, 517632, Note_off_c, 1, 73, 0
2, 517632, Note_off_c, 1, 72, 0
2, 517632, Note_off_c, 1, 71, 0
2, 517632, Note_off_c, 1, 70, 0
2, 519168, Note_off_c, 1, 44, 0
2, 519168, Note_off_c, 1, 43, 0
2, 519168, Note_off_c, 1, 42, 0
2, 519168, Note_off_c, 1, 41, 0
2, 519168, Note_off_c, 1, 40, 0
2, 519168, Note_off_c, 1, 49, 0
2, 519168, Note_off_c, 1, 48, 0
2, 519168, Note_off_c, 1, 47, 0
2, 519168, Note_off_c, 1, 46, 0
2, 519168, Note_off_c, 1, 45, 0
2, 519168, Note_off_c, 1, 64, 0
2, 519168, Note_off_c, 1, 63, 0
2, 519168, Note_off_c, 1, 62, 0
2, 519168, Note_off_c, 1, 61, 0
2, 519168, Note_off_c, 1, 60, 0
2, 519168, Note_off_c, 1, 89, 0
2, 519168, Note_off_c, 1, 88, 0
2, 519168, Note_off_c, 1, 87, 0
2, 519168, Note_off_c, 1, 86, 0
2, 519168, Note_off_c, 1, 85, 0
2, 519168, Note_off_c, 1, 84, 0
2, 519168, Note_off_c, 1, 83, 0
2, 519168, Note_off_c, 1, 82, 0
2, 519168, Note_off_c, 1, 81, 0
2, 519168, Note_off_c, 1, 80, 0
2, 519168, Note_off_c, 1, 69, 0
2, 519168, Note_off_c, 1, 68, 0
2, 519168, Note_off_c, 1, 67, 0
2, 519168, Note_off_c, 1, 66, 0
2, 519168, Note_off_c, 1, 65, 0
2, 519168, End_track
3, 0, Start_track
3, 0, Title_t, "Elec. Piano (Classic)"
3, 0, Program_c, 2, 0
3, 0, Note_on_c, 2, 64, 5
3, 48, Note_off_c, 2, 64, 0
3, 768, Note_on_c, 2, 64, 5
3, 816, Note_off_c, 2, 64, 0
3, 1152, Note_on_c, 2, 64, 5
3, 1200, Note_off_c, 2, 64, 0
3, 1536, Note_on_c, 2, 64, 5
3, 1632, Note_off_c, 2, 64, 0
3, 1920, Note_on_c, 2, 64, 5
3, 2016, Note_off_c, 2, 64, 0
3, 2304, Note_on_c, 2, 64, 5
3, 2400, Note_off_c, 2, 64, 0
3, 2688, Note_on_c, 2, 64, 5
3, 2784, Note_off_c, 2, 64, 0
3, 3072, Note_on_c, 2, 64, 5
3, 3168, Note_off_c, 2, 64, 0
3, 3456, Note_on_c, 2, 64, 5
3, 3552, Note_off_c, 2, 64, 0
3, 3840, Note_on_c, 2, 64, 5
3, 3936, Note_off_c, 2, 64, 0
3, 4224, Note_on_c, 2, 64, 5
3, 4320, Note_off_c, 2, 64, 0
3, 4608, Note_on_c, 2, 64, 5
3, 4704, Note_off_c, 2, 64, 0
3, 4992, Note_on_c, 2, 64, 5
3, 5088, Note_off_c, 2, 64, 0
3, 5376, Note_on_c, 2, 64, 5
3, 5472, Note_off_c, 2, 64, 0
3, 5760, Note_on_c, 2, 64, 5
3, 5856, Note_off_c, 2, 64, 0
3, 6144, Note_on_c, 2, 64, 5
3, 6240, Note_off_c, 2, 64, 0
3, 6528, Note_on_c, 2, 64, 5
3, 6624, Note_off_c, 2, 64, 0
3, 6912, Note_on_c, 2, 64, 5
3, 7008, Note_off_c, 2, 64, 0
3, 7296, Note_on_c, 2, 64, 5
3, 7392, Note_off_c, 2, 64, 0
3, 7680, Note_on_c, 2, 64, 5
3, 7776, Note_off_c, 2, 64, 0
3, 8064, Note_on_c, 2, 64, 5
3, 8160, Note_off_c, 2, 64, 0
3, 8448, Note_on_c, 2, 64, 5
3, 8448, Note_on_c, 2, 76, 5
3, 8544, Note_off_c, 2, 76, 0
3, 8544, Note_off_c, 2, 64, 0
3, 8832, Note_on_c, 2, 64, 5
3, 8832, Note_on_c, 2, 76, 5
3, 8928, Note_off_c, 2, 76, 0
3, 8928, Note_off_c, 2, 64, 0
3, 9216, Note_on_c, 2, 64, 5
3, 9216, Note_on_c, 2, 76, 5
3, 9216, Note_on_c, 2, 88, 5
3, 9312, Note_off_c, 2, 88, 0
3, 9312, Note_off_c, 2, 76, 0
3, 9312, Note_off_c, 2, 64, 0
3, 9600, Note_on_c, 2, 64, 5
3, 9600, Note_on_c, 2, 76, 5
3, 9600, Note_on_c, 2, 88, 5
3, 9696, Note_off_c, 2, 88, 0
3, 9696, Note_off_c, 2, 76, 0
3, 9696, Note_off_c, 2, 64, 0
3, 9984, Note_on_c, 2, 64, 5
3, 9984, Note_on_c, 2, 76, 5
3, 9984, Note_on_c, 2, 52, 5
3, 9984, Note_on_c, 2, 88, 5
3, 10080, Note_off_c, 2, 88, 0
3, 10080, Note_off_c, 2, 52, 0
3, 10080, Note_off_c, 2, 76, 0
3, 10080, Note_off_c, 2, 64, 0
3, 10368, Note_on_c, 2, 64, 5
3, 10368, Note_on_c, 2, 76, 5
3, 10368, Note_on_c, 2, 52, 5
3, 10368, Note_on_c, 2, 88, 5
3, 10464, Note_off_c, 2, 88, 0
3, 10464, Note_off_c, 2, 52, 0
3, 10464, Note_off_c, 2, 76, 0
3, 10464, Note_off_c, 2, 64, 0
3, 10752, Note_on_c, 2, 64, 5
3, 10752, Note_on_c, 2, 76, 5
3, 10752, Note_on_c, 2, 52, 5
3, 10752, Note_on_c, 2, 88, 5
3, 10752, Note_on_c, 2, 40, 5
3, 10848, Note_off_c, 2, 40, 0
3, 10848, Note_off_c, 2, 88, 0
3, 10848, Note_off_c, 2, 52, 0
3, 10848, Note_off_c, 2, 76, 0
3, 10848, Note_off_c, 2, 64, 0
3, 11136, Note_on_c, 2, 64, 5
3, 11136, Note_on_c, 2, 76, 5
3, 11136, Note_on_c, 2, 52, 5
3, 11136, Note_on_c, 2, 88, 5
3, 11136, Note_on_c, 2, 40, 5
3, 11232, Note_off_c, 2, 40, 0
3, 11232, Note_off_c, 2, 88, 0
3, 11232, Note_off_c, 2, 52, 0
3, 11232, Note_off_c, 2, 76, 0
3, 11232, Note_off_c, 2, 64, 0
3, 11520, Note_on_c, 2, 64, 5
3, 11520, Note_on_c, 2, 76, 5
3, 11520, Note_on_c, 2, 52, 5
3, 11520, Note_on_c, 2, 88, 5
3, 11520, Note_on_c, 2, 40, 5
3, 11520, Note_on_c, 2, 28, 5
3, 11616, Note_off_c, 2, 28, 0
3, 11616, Note_off_c, 2, 40, 0
3, 11616, Note_off_c, 2, 88, 0
3, 11616, Note_off_c, 2, 52, 0
3, 11616, Note_off_c, 2, 76, 0
3, 11616, Note_off_c, 2, 64, 0
3, 11904, Note_on_c, 2, 64, 5
3, 11904, Note_on_c, 2, 76, 5
3, 11904, Note_on_c, 2, 52, 5
3, 11904, Note_on_c, 2, 88, 5
3, 11904, Note_on_c, 2, 40, 5
3, 11904, Note_on_c, 2, 28, 5
3, 12000, Note_off_c, 2, 28, 0
3, 12000, Note_off_c, 2, 40, 0
3, 12000, Note_off_c, 2, 88, 0
3, 12000, Note_off_c, 2, 52, 0
3, 12000, Note_off_c, 2, 76, 0
3, 12000, Note_off_c, 2, 64, 0
3, 12288, Note_on_c, 2, 64, 5
3, 12288, Note_on_c, 2, 76, 5
3, 12288, Note_on_c, 2, 52, 5
3, 12288, Note_on_c, 2, 88, 5
3, 12288, Note_on_c, 2, 40, 5
3, 12288, Note_on_c, 2, 28, 5
3, 12384, Note_off_c, 2, 28, 0
3, 12384, Note_off_c, 2, 40, 0
3, 12384, Note_off_c, 2, 88, 0
3, 12384, Note_off_c, 2, 52, 0
3, 12384, Note_off_c, 2, 76, 0
3, 12384, Note_off_c, 2, 64, 0
3, 12672, Note_on_c, 2, 64, 5
3, 12672, Note_on_c, 2, 76, 5
3, 12672, Note_on_c, 2, 52, 5
3, 12672, Note_on_c, 2, 88, 5
3, 12672, Note_on_c, 2, 40, 5
3, 12672, Note_on_c, 2, 28, 5
3, 12768, Note_off_c, 2, 28, 0
3, 12768, Note_off_c, 2, 40, 0
3, 12768, Note_off_c, 2, 88, 0
3, 12768, Note_off_c, 2, 52, 0
3, 12768, Note_off_c, 2, 76, 0
3, 12768, Note_off_c, 2, 64, 0
3, 13056, Note_on_c, 2, 64, 5
3, 13056, Note_on_c, 2, 76, 5
3, 13056, Note_on_c, 2, 52, 5
3, 13056, Note_on_c, 2, 88, 5
3, 13056, Note_on_c, 2, 40, 5
3, 13056, Note_on_c, 2, 28, 5
3, 13152, Note_off_c, 2, 28, 0
3, 13152, Note_off_c, 2, 40, 0
3, 13152, Note_off_c, 2, 88, 0
3, 13152, Note_off_c, 2, 52, 0
3, 13152, Note_off_c, 2, 76, 0
3, 13152, Note_off_c, 2, 64, 0
3, 13440, Note_on_c, 2, 64, 5
3, 13440, Note_on_c, 2, 76, 5
3, 13440, Note_on_c, 2, 52, 5
3, 13440, Note_on_c, 2, 88, 5
3, 13440, Note_on_c, 2, 40, 5
3, 13440, Note_on_c, 2, 28, 5
3, 13536, Note_off_c, 2, 28, 0
3, 13536, Note_off_c, 2, 40, 0
3, 13536, Note_off_c, 2, 88, 0
3, 13536, Note_off_c, 2, 52, 0
3, 13536, Note_off_c, 2, 76, 0
3, 13536, Note_off_c, 2, 64, 0
3, 13824, Note_on_c, 2, 64, 5
3, 13824, Note_on_c, 2, 76, 5
3, 13824, Note_on_c, 2, 52, 5
3, 13824, Note_on_c, 2, 88, 5
3, 13824, Note_on_c, 2, 40, 5
3, 13824, Note_on_c, 2, 28, 5
3, 13920, Note_off_c, 2, 28, 0
3, 13920, Note_off_c, 2, 40, 0
3, 13920, Note_off_c, 2, 88, 0
3, 13920, Note_off_c, 2, 52, 0
3, 13920, Note_off_c, 2, 76, 0
3, 13920, Note_off_c, 2, 64, 0
3, 14208, Note_on_c, 2, 64, 5
3, 14208, Note_on_c, 2, 76, 5
3, 14208, Note_on_c, 2, 52, 5
3, 14208, Note_on_c, 2, 88, 5
3, 14208, Note_on_c, 2, 40, 5
3, 14208, Note_on_c, 2, 28, 5
3, 14304, Note_off_c, 2, 28, 0
3, 14304, Note_off_c, 2, 40, 0
3, 14304, Note_off_c, 2, 88, 0
3, 14304, Note_off_c, 2, 52, 0
3, 14304, Note_off_c, 2, 76, 0
3, 14304, Note_off_c, 2, 64, 0
3, 14592, Note_on_c, 2, 64, 5
3, 14592, Note_on_c, 2, 76, 5
3, 14592, Note_on_c, 2, 52, 5
3, 14592, Note_on_c, 2, 88, 5
3, 14592, Note_on_c, 2, 40, 5
3, 14592, Note_on_c, 2, 28, 5
3, 14688, Note_off_c, 2, 28, 0
3, 14688, Note_off_c, 2, 40, 0
3, 14688, Note_off_c, 2, 88, 0
3, 14688, Note_off_c, 2, 52, 0
3, 14688, Note_off_c, 2, 76, 0
3, 14688, Note_off_c, 2, 64, 0
3, 14976, Note_on_c, 2, 64, 5
3, 14976, Note_on_c, 2, 76, 5
3, 14976, Note_on_c, 2, 52, 5
3, 14976, Note_on_c, 2, 88, 5
3, 14976, Note_on_c, 2, 40, 5
3, 14976, Note_on_c, 2, 28, 5
3, 15072, Note_off_c, 2, 28, 0
3, 15072, Note_off_c, 2, 40, 0
3, 15072, Note_off_c, 2, 88, 0
3, 15072, Note_off_c, 2, 52, 0
3, 15072, Note_off_c, 2, 76, 0
3, 15072, Note_off_c, 2, 64, 0
3, 15360, Note_on_c, 2, 64, 5
3, 15360, Note_on_c, 2, 76, 5
3, 15360, Note_on_c, 2, 52, 5
3, 15360, Note_on_c, 2, 88, 5
3, 15360, Note_on_c, 2, 40, 5
3, 15360, Note_on_c, 2, 28, 5
3, 15456, Note_off_c, 2, 28, 0
3, 15456, Note_off_c, 2, 40, 0
3, 15456, Note_off_c, 2, 88, 0
3, 15456, Note_off_c, 2, 52, 0
3, 15456, Note_off_c, 2, 76, 0
3, 15456, Note_off_c, 2, 64, 0
3, 15744, Note_on_c, 2, 64, 5
3, 15744, Note_on_c, 2, 76, 5
3, 15744, Note_on_c, 2, 52, 5
3, 15744, Note_on_c, 2, 88, 5
3, 15744, Note_on_c, 2, 40, 5
3, 15744, Note_on_c, 2, 28, 5
3, 15840, Note_off_c, 2, 28, 0
3, 15840, Note_off_c, 2, 40, 0
3, 15840, Note_off_c, 2, 88, 0
3, 15840, Note_off_c, 2, 52, 0
3, 15840, Note_off_c, 2, 76, 0
3, 15840, Note_off_c, 2, 64, 0
3, 16128, Note_on_c, 2, 64, 5
3, 16128, Note_on_c, 2, 76, 5
3, 16128, Note_on_c, 2, 52, 5
3, 16128, Note_on_c, 2, 88, 5
3, 16128, Note_on_c, 2, 40, 5
3, 16128, Note_on_c, 2, 28, 5
3, 16224, Note_off_c, 2, 28, 0
3, 16224, Note_off_c, 2, 40, 0
3, 16224, Note_off_c, 2, 88, 0
3, 16224, Note_off_c, 2, 52, 0
3, 16224, Note_off_c, 2, 76, 0
3, 16224, Note_off_c, 2, 64, 0
3, 16512, Note_on_c, 2, 64, 5
3, 16512, Note_on_c, 2, 76, 5
3, 16512, Note_on_c, 2, 52, 5
3, 16512, Note_on_c, 2, 88, 5
3, 16512, Note_on_c, 2, 40, 5
3, 16512, Note_on_c, 2, 28, 5
3, 16608, Note_off_c, 2, 28, 0
3, 16608, Note_off_c, 2, 40, 0
3, 16608, Note_off_c, 2, 88, 0
3, 16608, Note_off_c, 2, 52, 0
3, 16608, Note_off_c, 2, 76, 0
3, 16608, Note_off_c, 2, 64, 0
3, 16896, Note_on_c, 2, 64, 5
3, 16896, Note_on_c, 2, 76, 5
3, 16896, Note_on_c, 2, 52, 5
3, 16896, Note_on_c, 2, 88, 5
3, 16896, Note_on_c, 2, 40, 5
3, 16896, Note_on_c, 2, 28, 5
3, 16992, Note_off_c, 2, 28, 0
3, 16992, Note_off_c, 2, 40, 0
3, 16992, Note_off_c, 2, 88, 0
3, 16992, Note_off_c, 2, 52, 0
3, 16992, Note_off_c, 2, 76, 0
3, 16992, Note_off_c, 2, 64, 0
3, 17280, Note_on_c, 2, 64, 5
3, 17280, Note_on_c, 2, 76, 5
3, 17280, Note_on_c, 2, 52, 5
3, 17280, Note_on_c, 2, 88, 5
3, 17280, Note_on_c, 2, 40, 5
3, 17280, Note_on_c, 2, 28, 5
3, 17376, Note_off_c, 2, 28, 0
3, 17376, Note_off_c, 2, 40, 0
3, 17376, Note_off_c, 2, 88, 0
3, 17376, Note_off_c, 2, 52, 0
3, 17376, Note_off_c, 2, 76, 0
3, 17376, Note_off_c, 2, 64, 0
3, 17664, Note_on_c, 2, 64, 5
3, 17664, Note_on_c, 2, 76, 5
3, 17664, Note_on_c, 2, 52, 5
3, 17664, Note_on_c, 2, 88, 5
3, 17664, Note_on_c, 2, 40, 5
3, 17664, Note_on_c, 2, 28, 5
3, 17760, Note_off_c, 2, 28, 0
3, 17760, Note_off_c, 2, 40, 0
3, 17760, Note_off_c, 2, 88, 0
3, 17760, Note_off_c, 2, 52, 0
3, 17760, Note_off_c, 2, 76, 0
3, 17760, Note_off_c, 2, 64, 0
3, 18048, Note_on_c, 2, 64, 5
3, 18048, Note_on_c, 2, 76, 5
3, 18048, Note_on_c, 2, 52, 5
3, 18048, Note_on_c, 2, 88, 5
3, 18048, Note_on_c, 2, 40, 5
3, 18048, Note_on_c, 2, 28, 5
3, 18144, Note_off_c, 2, 28, 0
3, 18144, Note_off_c, 2, 40, 0
3, 18144, Note_off_c, 2, 88, 0
3, 18144, Note_off_c, 2, 52, 0
3, 18144, Note_off_c, 2, 76, 0
3, 18144, Note_off_c, 2, 64, 0
3, 307200, Note_on_c, 2, 88, 5
3, 307200, Note_on_c, 2, 84, 5
3, 307200, Note_on_c, 2, 81, 5
3, 307200, Note_on_c, 2, 76, 5
3, 307200, Note_on_c, 2, 72, 5
3, 307200, Note_on_c, 2, 69, 5
3, 307200, Note_on_c, 2, 93, 5
3, 307296, Note_off_c, 2, 93, 0
3, 307296, Note_off_c, 2, 69, 0
3, 307296, Note_off_c, 2, 72, 0
3, 307296, Note_off_c, 2, 76, 0
3, 307296, Note_off_c, 2, 81, 0
3, 307296, Note_off_c, 2, 84, 0
3, 307296, Note_off_c, 2, 88, 0
3, 307968, Note_on_c, 2, 88, 5
3, 307968, Note_on_c, 2, 84, 5
3, 307968, Note_on_c, 2, 81, 5
3, 307968, Note_on_c, 2, 76, 5
3, 307968, Note_on_c, 2, 72, 5
3, 307968, Note_on_c, 2, 69, 5
3, 307968, Note_on_c, 2, 93, 5
3, 308064, Note_off_c, 2, 93, 0
3, 308064, Note_off_c, 2, 69, 0
3, 308064, Note_off_c, 2, 72, 0
3, 308064, Note_off_c, 2, 76, 0
3, 308064, Note_off_c, 2, 81, 0
3, 308064, Note_off_c, 2, 84, 0
3, 308064, Note_off_c, 2, 88, 0
3, 308352, Note_on_c, 2, 88, 5
3, 308352, Note_on_c, 2, 84, 5
3, 308352, Note_on_c, 2, 81, 5
3, 308352, Note_on_c, 2, 76, 5
3, 308352, Note_on_c, 2, 72, 5
3, 308352, Note_on_c, 2, 69, 5
3, 308352, Note_on_c, 2, 93, 5
3, 308448, Note_off_c, 2, 93, 0
3, 308448, Note_off_c, 2, 69, 0
3, 308448, Note_off_c, 2, 72, 0
3, 308448, Note_off_c, 2, 76, 0
3, 308448, Note_off_c, 2, 81, 0
3, 308448, Note_off_c, 2, 84, 0
3, 308448, Note_off_c, 2, 88, 0
3, 308736, Note_on_c, 2, 88, 5
3, 308736, Note_on_c, 2, 84, 5
3, 308736, Note_on_c, 2, 81, 5
3, 308736, Note_on_c, 2, 76, 5
3, 308736, Note_on_c, 2, 72, 5
3, 308736, Note_on_c, 2, 69, 5
3, 308736, Note_on_c, 2, 93, 5
3, 308832, Note_off_c, 2, 93, 0
3, 308832, Note_off_c, 2, 69, 0
3, 308832, Note_off_c, 2, 72, 0
3, 308832, Note_off_c, 2, 76, 0
3, 308832, Note_off_c, 2, 81, 0
3, 308832, Note_off_c, 2, 84, 0
3, 308832, Note_off_c, 2, 88, 0
3, 309504, Note_on_c, 2, 88, 5
3, 309504, Note_on_c, 2, 84, 5
3, 309504, Note_on_c, 2, 81, 5
3, 309504, Note_on_c, 2, 76, 5
3, 309504, Note_on_c, 2, 72, 5
3, 309504, Note_on_c, 2, 69, 5
3, 309504, Note_on_c, 2, 93, 5
3, 309600, Note_off_c, 2, 93, 0
3, 309600, Note_off_c, 2, 69, 0
3, 309600, Note_off_c, 2, 72, 0
3, 309600, Note_off_c, 2, 76, 0
3, 309600, Note_off_c, 2, 81, 0
3, 309600, Note_off_c, 2, 84, 0
3, 309600, Note_off_c, 2, 88, 0
3, 309888, Note_on_c, 2, 88, 5
3, 309888, Note_on_c, 2, 84, 5
3, 309888, Note_on_c, 2, 81, 5
3, 309888, Note_on_c, 2, 76, 5
3, 309888, Note_on_c, 2, 72, 5
3, 309888, Note_on_c, 2, 69, 5
3, 309888, Note_on_c, 2, 93, 5
3, 309984, Note_off_c, 2, 93, 0
3, 309984, Note_off_c, 2, 69, 0
3, 309984, Note_off_c, 2, 72, 0
3, 309984, Note_off_c, 2, 76, 0
3, 309984, Note_off_c, 2, 81, 0
3, 309984, Note_off_c, 2, 84, 0
3, 309984, Note_off_c, 2, 88, 0
3, 310272, Note_on_c, 2, 88, 5
3, 310272, Note_on_c, 2, 84, 5
3, 310272, Note_on_c, 2, 81, 5
3, 310272, Note_on_c, 2, 76, 5
3, 310272, Note_on_c, 2, 72, 5
3, 310272, Note_on_c, 2, 69, 5
3, 310272, Note_on_c, 2, 93, 5
3, 310368, Note_off_c, 2, 93, 0
3, 310368, Note_off_c, 2, 69, 0
3, 310368, Note_off_c, 2, 72, 0
3, 310368, Note_off_c, 2, 76, 0
3, 310368, Note_off_c, 2, 81, 0
3, 310368, Note_off_c, 2, 84, 0
3, 310368, Note_off_c, 2, 88, 0
3, 311040, Note_on_c, 2, 88, 5
3, 311040, Note_on_c, 2, 84, 5
3, 311040, Note_on_c, 2, 81, 5
3, 311040, Note_on_c, 2, 76, 5
3, 311040, Note_on_c, 2, 72, 5
3, 311040, Note_on_c, 2, 69, 5
3, 311040, Note_on_c, 2, 93, 5
3, 311136, Note_off_c, 2, 93, 0
3, 311136, Note_off_c, 2, 69, 0
3, 311136, Note_off_c, 2, 72, 0
3, 311136, Note_off_c, 2, 76, 0
3, 311136, Note_off_c, 2, 81, 0
3, 311136, Note_off_c, 2, 84, 0
3, 311136, Note_off_c, 2, 88, 0
3, 311424, Note_on_c, 2, 88, 5
3, 311424, Note_on_c, 2, 84, 5
3, 311424, Note_on_c, 2, 81, 5
3, 311424, Note_on_c, 2, 76, 5
3, 311424, Note_on_c, 2, 72, 5
3, 311424, Note_on_c, 2, 69, 5
3, 311424, Note_on_c, 2, 93, 5
3, 311520, Note_off_c, 2, 93, 0
3, 311520, Note_off_c, 2, 69, 0
3, 311520, Note_off_c, 2, 72, 0
3, 311520, Note_off_c, 2, 76, 0
3, 311520, Note_off_c, 2, 81, 0
3, 311520, Note_off_c, 2, 84, 0
3, 311520, Note_off_c, 2, 88, 0
3, 311808, Note_on_c, 2, 88, 5
3, 311808, Note_on_c, 2, 84, 5
3, 311808, Note_on_c, 2, 81, 5
3, 311808, Note_on_c, 2, 76, 5
3, 311808, Note_on_c, 2, 72, 5
3, 311808, Note_on_c, 2, 69, 5
3, 311808, Note_on_c, 2, 93, 5
3, 311904, Note_off_c, 2, 93, 0
3, 311904, Note_off_c, 2, 69, 0
3, 311904, Note_off_c, 2, 72, 0
3, 311904, Note_off_c, 2, 76, 0
3, 311904, Note_off_c, 2, 81, 0
3, 311904, Note_off_c, 2, 84, 0
3, 311904, Note_off_c, 2, 88, 0
3, 312576, Note_on_c, 2, 88, 5
3, 312576, Note_on_c, 2, 84, 5
3, 312576, Note_on_c, 2, 81, 5
3, 312576, Note_on_c, 2, 76, 5
3, 312576, Note_on_c, 2, 72, 5
3, 312576, Note_on_c, 2, 69, 5
3, 312576, Note_on_c, 2, 93, 5
3, 312672, Note_off_c, 2, 93, 0
3, 312672, Note_off_c, 2, 69, 0
3, 312672, Note_off_c, 2, 72, 0
3, 312672, Note_off_c, 2, 76, 0
3, 312672, Note_off_c, 2, 81, 0
3, 312672, Note_off_c, 2, 84, 0
3, 312672, Note_off_c, 2, 88, 0
3, 312960, Note_on_c, 2, 88, 5
3, 312960, Note_on_c, 2, 84, 5
3, 312960, Note_on_c, 2, 81, 5
3, 312960, Note_on_c, 2, 76, 5
3, 312960, Note_on_c, 2, 72, 5
3, 312960, Note_on_c, 2, 69, 5
3, 312960, Note_on_c, 2, 93, 5
3, 313056, Note_off_c, 2, 93, 0
3, 313056, Note_off_c, 2, 69, 0
3, 313056, Note_off_c, 2, 72, 0
3, 313056, Note_off_c, 2, 76, 0
3, 313056, Note_off_c, 2, 81, 0
3, 313056, Note_off_c, 2, 84, 0
3, 313056, Note_off_c, 2, 88, 0
3, 313344, Note_on_c, 2, 88, 5
3, 313344, Note_on_c, 2, 84, 5
3, 313344, Note_on_c, 2, 81, 5
3, 313344, Note_on_c, 2, 76, 5
3, 313344, Note_on_c, 2, 72, 5
3, 313344, Note_on_c, 2, 69, 5
3, 313344, Note_on_c, 2, 93, 5
3, 313440, Note_off_c, 2, 93, 0
3, 313440, Note_off_c, 2, 69, 0
3, 313440, Note_off_c, 2, 72, 0
3, 313440, Note_off_c, 2, 76, 0
3, 313440, Note_off_c, 2, 81, 0
3, 313440, Note_off_c, 2, 84, 0
3, 313440, Note_off_c, 2, 88, 0
3, 314112, Note_on_c, 2, 88, 5
3, 314112, Note_on_c, 2, 84, 5
3, 314112, Note_on_c, 2, 81, 5
3, 314112, Note_on_c, 2, 76, 5
3, 314112, Note_on_c, 2, 72, 5
3, 314112, Note_on_c, 2, 69, 5
3, 314112, Note_on_c, 2, 93, 5
3, 314208, Note_off_c, 2, 93, 0
3, 314208, Note_off_c, 2, 69, 0
3, 314208, Note_off_c, 2, 72, 0
3, 314208, Note_off_c, 2, 76, 0
3, 314208, Note_off_c, 2, 81, 0
3, 314208, Note_off_c, 2, 84, 0
3, 314208, Note_off_c, 2, 88, 0
3, 314496, Note_on_c, 2, 88, 5
3, 314496, Note_on_c, 2, 84, 5
3, 314496, Note_on_c, 2, 81, 5
3, 314496, Note_on_c, 2, 76, 5
3, 314496, Note_on_c, 2, 72, 5
3, 314496, Note_on_c, 2, 69, 5
3, 314496, Note_on_c, 2, 93, 5
3, 314592, Note_off_c, 2, 93, 0
3, 314592, Note_off_c, 2, 69, 0
3, 314592, Note_off_c, 2, 72, 0
3, 314592, Note_off_c, 2, 76, 0
3, 314592, Note_off_c, 2, 81, 0
3, 314592, Note_off_c, 2, 84, 0
3, 314592, Note_off_c, 2, 88, 0
3, 314880, Note_on_c, 2, 88, 5
3, 314880, Note_on_c, 2, 84, 5
3, 314880, Note_on_c, 2, 81, 5
3, 314880, Note_on_c, 2, 76, 5
3, 314880, Note_on_c, 2, 72, 5
3, 314880, Note_on_c, 2, 69, 5
3, 314880, Note_on_c, 2, 93, 5
3, 314976, Note_off_c, 2, 93, 0
3, 314976, Note_off_c, 2, 69, 0
3, 314976, Note_off_c, 2, 72, 0
3, 314976, Note_off_c, 2, 76, 0
3, 314976, Note_off_c, 2, 81, 0
3, 314976, Note_off_c, 2, 84, 0
3, 314976, Note_off_c, 2, 88, 0
3, 315648, Note_on_c, 2, 88, 5
3, 315648, Note_on_c, 2, 84, 5
3, 315648, Note_on_c, 2, 81, 5
3, 315648, Note_on_c, 2, 76, 5
3, 315648, Note_on_c, 2, 72, 5
3, 315648, Note_on_c, 2, 69, 5
3, 315648, Note_on_c, 2, 93, 5
3, 315744, Note_off_c, 2, 93, 0
3, 315744, Note_off_c, 2, 69, 0
3, 315744, Note_off_c, 2, 72, 0
3, 315744, Note_off_c, 2, 76, 0
3, 315744, Note_off_c, 2, 81, 0
3, 315744, Note_off_c, 2, 84, 0
3, 315744, Note_off_c, 2, 88, 0
3, 316032, Note_on_c, 2, 88, 5
3, 316032, Note_on_c, 2, 84, 5
3, 316032, Note_on_c, 2, 81, 5
3, 316032, Note_on_c, 2, 76, 5
3, 316032, Note_on_c, 2, 72, 5
3, 316032, Note_on_c, 2, 69, 5
3, 316032, Note_on_c, 2, 93, 5
3, 316128, Note_off_c, 2, 93, 0
3, 316128, Note_off_c, 2, 69, 0
3, 316128, Note_off_c, 2, 72, 0
3, 316128, Note_off_c, 2, 76, 0
3, 316128, Note_off_c, 2, 81, 0
3, 316128, Note_off_c, 2, 84, 0
3, 316128, Note_off_c, 2, 88, 0
3, 316416, Note_on_c, 2, 88, 5
3, 316416, Note_on_c, 2, 84, 5
3, 316416, Note_on_c, 2, 81, 5
3, 316416, Note_on_c, 2, 76, 5
3, 316416, Note_on_c, 2, 72, 5
3, 316416, Note_on_c, 2, 69, 5
3, 316416, Note_on_c, 2, 93, 5
3, 316512, Note_off_c, 2, 93, 0
3, 316512, Note_off_c, 2, 69, 0
3, 316512, Note_off_c, 2, 72, 0
3, 316512, Note_off_c, 2, 76, 0
3, 316512, Note_off_c, 2, 81, 0
3, 316512, Note_off_c, 2, 84, 0
3, 316512, Note_off_c, 2, 88, 0
3, 317184, Note_on_c, 2, 88, 5
3, 317184, Note_on_c, 2, 84, 5
3, 317184, Note_on_c, 2, 81, 5
3, 317184, Note_on_c, 2, 76, 5
3, 317184, Note_on_c, 2, 72, 5
3, 317184, Note_on_c, 2, 93, 5
3, 317184, Note_on_c, 2, 69, 5
3, 317280, Note_off_c, 2, 69, 0
3, 317280, Note_off_c, 2, 93, 0
3, 317280, Note_off_c, 2, 72, 0
3, 317280, Note_off_c, 2, 76, 0
3, 317280, Note_off_c, 2, 81, 0
3, 317280, Note_off_c, 2, 84, 0
3, 317280, Note_off_c, 2, 88, 0
3, 317568, Note_on_c, 2, 88, 5
3, 317568, Note_on_c, 2, 84, 5
3, 317568, Note_on_c, 2, 81, 5
3, 317568, Note_on_c, 2, 76, 5
3, 317568, Note_on_c, 2, 72, 5
3, 317568, Note_on_c, 2, 69, 5
3, 317568, Note_on_c, 2, 93, 5
3, 317664, Note_off_c, 2, 93, 0
3, 317664, Note_off_c, 2, 69, 0
3, 317664, Note_off_c, 2, 72, 0
3, 317664, Note_off_c, 2, 76, 0
3, 317664, Note_off_c, 2, 81, 0
3, 317664, Note_off_c, 2, 84, 0
3, 317664, Note_off_c, 2, 88, 0
3, 317952, Note_on_c, 2, 88, 5
3, 317952, Note_on_c, 2, 84, 5
3, 317952, Note_on_c, 2, 81, 5
3, 317952, Note_on_c, 2, 76, 5
3, 317952, Note_on_c, 2, 72, 5
3, 317952, Note_on_c, 2, 69, 5
3, 317952, Note_on_c, 2, 93, 5
3, 318048, Note_off_c, 2, 93, 0
3, 318048, Note_off_c, 2, 69, 0
3, 318048, Note_off_c, 2, 72, 0
3, 318048, Note_off_c, 2, 76, 0
3, 318048, Note_off_c, 2, 81, 0
3, 318048, Note_off_c, 2, 84, 0
3, 318048, Note_off_c, 2, 88, 0
3, 318720, Note_on_c, 2, 88, 5
3, 318720, Note_on_c, 2, 84, 5
3, 318720, Note_on_c, 2, 81, 5
3, 318720, Note_on_c, 2, 76, 5
3, 318720, Note_on_c, 2, 72, 5
3, 318720, Note_on_c, 2, 93, 5
3, 318720, Note_on_c, 2, 69, 5
3, 318816, Note_off_c, 2, 69, 0
3, 318816, Note_off_c, 2, 93, 0
3, 318816, Note_off_c, 2, 72, 0
3, 318816, Note_off_c, 2, 76, 0
3, 318816, Note_off_c, 2, 81, 0
3, 318816, Note_off_c, 2, 84, 0
3, 318816, Note_off_c, 2, 88, 0
3, 319104, Note_on_c, 2, 88, 5
3, 319104, Note_on_c, 2, 84, 5
3, 319104, Note_on_c, 2, 81, 5
3, 319104, Note_on_c, 2, 76, 5
3, 319104, Note_on_c, 2, 72, 5
3, 319104, Note_on_c, 2, 69, 5
3, 319104, Note_on_c, 2, 93, 5
3, 319200, Note_off_c, 2, 93, 0
3, 319200, Note_off_c, 2, 69, 0
3, 319200, Note_off_c, 2, 72, 0
3, 319200, Note_off_c, 2, 76, 0
3, 319200, Note_off_c, 2, 81, 0
3, 319200, Note_off_c, 2, 84, 0
3, 319200, Note_off_c, 2, 88, 0
3, 319488, Note_on_c, 2, 88, 5
3, 319488, Note_on_c, 2, 83, 5
3, 319488, Note_on_c, 2, 80, 5
3, 319488, Note_on_c, 2, 76, 5
3, 319488, Note_on_c, 2, 71, 5
3, 319488, Note_on_c, 2, 68, 5
3, 319488, Note_on_c, 2, 92, 5
3, 319584, Note_off_c, 2, 92, 0
3, 319584, Note_off_c, 2, 68, 0
3, 319584, Note_off_c, 2, 71, 0
3, 319584, Note_off_c, 2, 76, 0
3, 319584, Note_off_c, 2, 80, 0
3, 319584, Note_off_c, 2, 83, 0
3, 319584, Note_off_c, 2, 88, 0
3, 320256, Note_on_c, 2, 88, 5
3, 320256, Note_on_c, 2, 83, 5
3, 320256, Note_on_c, 2, 80, 5
3, 320256, Note_on_c, 2, 76, 5
3, 320256, Note_on_c, 2, 71, 5
3, 320256, Note_on_c, 2, 68, 5
3, 320256, Note_on_c, 2, 92, 5
3, 320352, Note_off_c, 2, 92, 0
3, 320352, Note_off_c, 2, 68, 0
3, 320352, Note_off_c, 2, 71, 0
3, 320352, Note_off_c, 2, 76, 0
3, 320352, Note_off_c, 2, 80, 0
3, 320352, Note_off_c, 2, 83, 0
3, 320352, Note_off_c, 2, 88, 0
3, 320640, Note_on_c, 2, 88, 5
3, 320640, Note_on_c, 2, 83, 5
3, 320640, Note_on_c, 2, 80, 5
3, 320640, Note_on_c, 2, 76, 5
3, 320640, Note_on_c, 2, 71, 5
3, 320640, Note_on_c, 2, 68, 5
3, 320640, Note_on_c, 2, 92, 5
3, 320736, Note_off_c, 2, 92, 0
3, 320736, Note_off_c, 2, 68, 0
3, 320736, Note_off_c, 2, 71, 0
3, 320736, Note_off_c, 2, 76, 0
3, 320736, Note_off_c, 2, 80, 0
3, 320736, Note_off_c, 2, 83, 0
3, 320736, Note_off_c, 2, 88, 0
3, 321024, Note_on_c, 2, 88, 5
3, 321024, Note_on_c, 2, 83, 5
3, 321024, Note_on_c, 2, 80, 5
3, 321024, Note_on_c, 2, 76, 5
3, 321024, Note_on_c, 2, 71, 5
3, 321024, Note_on_c, 2, 68, 5
3, 321024, Note_on_c, 2, 92, 5
3, 321120, Note_off_c, 2, 92, 0
3, 321120, Note_off_c, 2, 68, 0
3, 321120, Note_off_c, 2, 71, 0
3, 321120, Note_off_c, 2, 76, 0
3, 321120, Note_off_c, 2, 80, 0
3, 321120, Note_off_c, 2, 83, 0
3, 321120, Note_off_c, 2, 88, 0
3, 321792, Note_on_c, 2, 88, 5
3, 321792, Note_on_c, 2, 83, 5
3, 321792, Note_on_c, 2, 80, 5
3, 321792, Note_on_c, 2, 76, 5
3, 321792, Note_on_c, 2, 71, 5
3, 321792, Note_on_c, 2, 68, 5
3, 321792, Note_on_c, 2, 92, 5
3, 321888, Note_off_c, 2, 92, 0
3, 321888, Note_off_c, 2, 68, 0
3, 321888, Note_off_c, 2, 71, 0
3, 321888, Note_off_c, 2, 76, 0
3, 321888, Note_off_c, 2, 80, 0
3, 321888, Note_off_c, 2, 83, 0
3, 321888, Note_off_c, 2, 88, 0
3, 322176, Note_on_c, 2, 88, 5
3, 322176, Note_on_c, 2, 83, 5
3, 322176, Note_on_c, 2, 80, 5
3, 322176, Note_on_c, 2, 76, 5
3, 322176, Note_on_c, 2, 71, 5
3, 322176, Note_on_c, 2, 68, 5
3, 322176, Note_on_c, 2, 92, 5
3, 322272, Note_off_c, 2, 92, 0
3, 322272, Note_off_c, 2, 68, 0
3, 322272, Note_off_c, 2, 71, 0
3, 322272, Note_off_c, 2, 76, 0
3, 322272, Note_off_c, 2, 80, 0
3, 322272, Note_off_c, 2, 83, 0
3, 322272, Note_off_c, 2, 88, 0
3, 322560, Note_on_c, 2, 88, 5
3, 322560, Note_on_c, 2, 84, 5
3, 322560, Note_on_c, 2, 81, 5
3, 322560, Note_on_c, 2, 76, 5
3, 322560, Note_on_c, 2, 72, 5
3, 322560, Note_on_c, 2, 69, 5
3, 322560, Note_on_c, 2, 92, 5
3, 322656, Note_off_c, 2, 92, 0
3, 322656, Note_off_c, 2, 69, 0
3, 322656, Note_off_c, 2, 72, 0
3, 322656, Note_off_c, 2, 76, 0
3, 322656, Note_off_c, 2, 81, 0
3, 322656, Note_off_c, 2, 84, 0
3, 322656, Note_off_c, 2, 88, 0
3, 323328, Note_on_c, 2, 88, 5
3, 323328, Note_on_c, 2, 84, 5
3, 323328, Note_on_c, 2, 81, 5
3, 323328, Note_on_c, 2, 76, 5
3, 323328, Note_on_c, 2, 72, 5
3, 323328, Note_on_c, 2, 69, 5
3, 323328, Note_on_c, 2, 92, 5
3, 323424, Note_off_c, 2, 92, 0
3, 323424, Note_off_c, 2, 69, 0
3, 323424, Note_off_c, 2, 72, 0
3, 323424, Note_off_c, 2, 76, 0
3, 323424, Note_off_c, 2, 81, 0
3, 323424, Note_off_c, 2, 84, 0
3, 323424, Note_off_c, 2, 88, 0
3, 323712, Note_on_c, 2, 88, 5
3, 323712, Note_on_c, 2, 84, 5
3, 323712, Note_on_c, 2, 81, 5
3, 323712, Note_on_c, 2, 76, 5
3, 323712, Note_on_c, 2, 72, 5
3, 323712, Note_on_c, 2, 69, 5
3, 323712, Note_on_c, 2, 92, 5
3, 323808, Note_off_c, 2, 92, 0
3, 323808, Note_off_c, 2, 69, 0
3, 323808, Note_off_c, 2, 72, 0
3, 323808, Note_off_c, 2, 76, 0
3, 323808, Note_off_c, 2, 81, 0
3, 323808, Note_off_c, 2, 84, 0
3, 323808, Note_off_c, 2, 88, 0
3, 324096, Note_on_c, 2, 88, 5
3, 324096, Note_on_c, 2, 84, 5
3, 324096, Note_on_c, 2, 81, 5
3, 324096, Note_on_c, 2, 76, 5
3, 324096, Note_on_c, 2, 72, 5
3, 324096, Note_on_c, 2, 69, 5
3, 324096, Note_on_c, 2, 92, 5
3, 324192, Note_off_c, 2, 92, 0
3, 324192, Note_off_c, 2, 69, 0
3, 324192, Note_off_c, 2, 72, 0
3, 324192, Note_off_c, 2, 76, 0
3, 324192, Note_off_c, 2, 81, 0
3, 324192, Note_off_c, 2, 84, 0
3, 324192, Note_off_c, 2, 88, 0
3, 324864, Note_on_c, 2, 88, 5
3, 324864, Note_on_c, 2, 84, 5
3, 324864, Note_on_c, 2, 81, 5
3, 324864, Note_on_c, 2, 76, 5
3, 324864, Note_on_c, 2, 72, 5
3, 324864, Note_on_c, 2, 69, 5
3, 324864, Note_on_c, 2, 92, 5
3, 324960, Note_off_c, 2, 92, 0
3, 324960, Note_off_c, 2, 69, 0
3, 324960, Note_off_c, 2, 72, 0
3, 324960, Note_off_c, 2, 76, 0
3, 324960, Note_off_c, 2, 81, 0
3, 324960, Note_off_c, 2, 84, 0
3, 324960, Note_off_c, 2, 88, 0
3, 325248, Note_on_c, 2, 88, 5
3, 325248, Note_on_c, 2, 84, 5
3, 325248, Note_on_c, 2, 81, 5
3, 325248, Note_on_c, 2, 76, 5
3, 325248, Note_on_c, 2, 72, 5
3, 325248, Note_on_c, 2, 69, 5
3, 325248, Note_on_c, 2, 92, 5
3, 325344, Note_off_c, 2, 92, 0
3, 325344, Note_off_c, 2, 69, 0
3, 325344, Note_off_c, 2, 72, 0
3, 325344, Note_off_c, 2, 76, 0
3, 325344, Note_off_c, 2, 81, 0
3, 325344, Note_off_c, 2, 84, 0
3, 325344, Note_off_c, 2, 88, 0
3, 325632, Note_on_c, 2, 87, 5
3, 325632, Note_on_c, 2, 78, 5
3, 325632, Note_on_c, 2, 75, 5
3, 325632, Note_on_c, 2, 69, 5
3, 325632, Note_on_c, 2, 90, 5
3, 325632, Note_on_c, 2, 93, 5
3, 325632, Note_on_c, 2, 81, 5
3, 325728, Note_off_c, 2, 81, 0
3, 325728, Note_off_c, 2, 93, 0
3, 325728, Note_off_c, 2, 90, 0
3, 325728, Note_off_c, 2, 69, 0
3, 325728, Note_off_c, 2, 75, 0
3, 325728, Note_off_c, 2, 78, 0
3, 325728, Note_off_c, 2, 87, 0
3, 326400, Note_on_c, 2, 87, 5
3, 326400, Note_on_c, 2, 78, 5
3, 326400, Note_on_c, 2, 75, 5
3, 326400, Note_on_c, 2, 69, 5
3, 326400, Note_on_c, 2, 90, 5
3, 326400, Note_on_c, 2, 93, 5
3, 326400, Note_on_c, 2, 81, 5
3, 326496, Note_off_c, 2, 81, 0
3, 326496, Note_off_c, 2, 93, 0
3, 326496, Note_off_c, 2, 90, 0
3, 326496, Note_off_c, 2, 69, 0
3, 326496, Note_off_c, 2, 75, 0
3, 326496, Note_off_c, 2, 78, 0
3, 326496, Note_off_c, 2, 87, 0
3, 327168, Note_on_c, 2, 87, 5
3, 327168, Note_on_c, 2, 78, 5
3, 327168, Note_on_c, 2, 75, 5
3, 327168, Note_on_c, 2, 69, 5
3, 327168, Note_on_c, 2, 90, 5
3, 327168, Note_on_c, 2, 93, 5
3, 327168, Note_on_c, 2, 81, 5
3, 327264, Note_off_c, 2, 81, 0
3, 327264, Note_off_c, 2, 93, 0
3, 327264, Note_off_c, 2, 90, 0
3, 327264, Note_off_c, 2, 69, 0
3, 327264, Note_off_c, 2, 75, 0
3, 327264, Note_off_c, 2, 78, 0
3, 327264, Note_off_c, 2, 87, 0
3, 327936, Note_on_c, 2, 87, 5
3, 327936, Note_on_c, 2, 78, 5
3, 327936, Note_on_c, 2, 75, 5
3, 327936, Note_on_c, 2, 69, 5
3, 327936, Note_on_c, 2, 90, 5
3, 327936, Note_on_c, 2, 93, 5
3, 327936, Note_on_c, 2, 81, 5
3, 328032, Note_off_c, 2, 81, 0
3, 328032, Note_off_c, 2, 93, 0
3, 328032, Note_off_c, 2, 90, 0
3, 328032, Note_off_c, 2, 69, 0
3, 328032, Note_off_c, 2, 75, 0
3, 328032, Note_off_c, 2, 78, 0
3, 328032, Note_off_c, 2, 87, 0
3, 328704, Note_on_c, 2, 83, 5
3, 328704, Note_on_c, 2, 80, 5
3, 328704, Note_on_c, 2, 76, 5
3, 328704, Note_on_c, 2, 68, 5
3, 328704, Note_on_c, 2, 92, 5
3, 328704, Note_on_c, 2, 95, 5
3, 328704, Note_on_c, 2, 88, 5
3, 328704, Note_on_c, 2, 71, 5
3, 328800, Note_off_c, 2, 71, 0
3, 328800, Note_off_c, 2, 88, 0
3, 328800, Note_off_c, 2, 95, 0
3, 328800, Note_off_c, 2, 92, 0
3, 328800, Note_off_c, 2, 68, 0
3, 328800, Note_off_c, 2, 76, 0
3, 328800, Note_off_c, 2, 80, 0
3, 328800, Note_off_c, 2, 83, 0
3, 331776, Note_on_c, 2, 88, 5
3, 331776, Note_on_c, 2, 84, 5
3, 331776, Note_on_c, 2, 81, 5
3, 331776, Note_on_c, 2, 76, 5
3, 331776, Note_on_c, 2, 72, 5
3, 331776, Note_on_c, 2, 69, 5
3, 331776, Note_on_c, 2, 93, 5
3, 331872, Note_off_c, 2, 93, 0
3, 331872, Note_off_c, 2, 69, 0
3, 331872, Note_off_c, 2, 72, 0
3, 331872, Note_off_c, 2, 76, 0
3, 331872, Note_off_c, 2, 81, 0
3, 331872, Note_off_c, 2, 84, 0
3, 331872, Note_off_c, 2, 88, 0
3, 332544, Note_on_c, 2, 88, 5
3, 332544, Note_on_c, 2, 84, 5
3, 332544, Note_on_c, 2, 81, 5
3, 332544, Note_on_c, 2, 76, 5
3, 332544, Note_on_c, 2, 72, 5
3, 332544, Note_on_c, 2, 69, 5
3, 332544, Note_on_c, 2, 93, 5
3, 332640, Note_off_c, 2, 93, 0
3, 332640, Note_off_c, 2, 69, 0
3, 332640, Note_off_c, 2, 72, 0
3, 332640, Note_off_c, 2, 76, 0
3, 332640, Note_off_c, 2, 81, 0
3, 332640, Note_off_c, 2, 84, 0
3, 332640, Note_off_c, 2, 88, 0
3, 332928, Note_on_c, 2, 88, 5
3, 332928, Note_on_c, 2, 84, 5
3, 332928, Note_on_c, 2, 81, 5
3, 332928, Note_on_c, 2, 76, 5
3, 332928, Note_on_c, 2, 72, 5
3, 332928, Note_on_c, 2, 69, 5
3, 332928, Note_on_c, 2, 93, 5
3, 333024, Note_off_c, 2, 93, 0
3, 333024, Note_off_c, 2, 69, 0
3, 333024, Note_off_c, 2, 72, 0
3, 333024, Note_off_c, 2, 76, 0
3, 333024, Note_off_c, 2, 81, 0
3, 333024, Note_off_c, 2, 84, 0
3, 333024, Note_off_c, 2, 88, 0
3, 333312, Note_on_c, 2, 88, 5
3, 333312, Note_on_c, 2, 84, 5
3, 333312, Note_on_c, 2, 81, 5
3, 333312, Note_on_c, 2, 76, 5
3, 333312, Note_on_c, 2, 72, 5
3, 333312, Note_on_c, 2, 69, 5
3, 333312, Note_on_c, 2, 93, 5
3, 333408, Note_off_c, 2, 93, 0
3, 333408, Note_off_c, 2, 69, 0
3, 333408, Note_off_c, 2, 72, 0
3, 333408, Note_off_c, 2, 76, 0
3, 333408, Note_off_c, 2, 81, 0
3, 333408, Note_off_c, 2, 84, 0
3, 333408, Note_off_c, 2, 88, 0
3, 334080, Note_on_c, 2, 88, 5
3, 334080, Note_on_c, 2, 84, 5
3, 334080, Note_on_c, 2, 81, 5
3, 334080, Note_on_c, 2, 76, 5
3, 334080, Note_on_c, 2, 72, 5
3, 334080, Note_on_c, 2, 69, 5
3, 334080, Note_on_c, 2, 93, 5
3, 334176, Note_off_c, 2, 93, 0
3, 334176, Note_off_c, 2, 69, 0
3, 334176, Note_off_c, 2, 72, 0
3, 334176, Note_off_c, 2, 76, 0
3, 334176, Note_off_c, 2, 81, 0
3, 334176, Note_off_c, 2, 84, 0
3, 334176, Note_off_c, 2, 88, 0
3, 334464, Note_on_c, 2, 88, 5
3, 334464, Note_on_c, 2, 84, 5
3, 334464, Note_on_c, 2, 81, 5
3, 334464, Note_on_c, 2, 76, 5
3, 334464, Note_on_c, 2, 72, 5
3, 334464, Note_on_c, 2, 69, 5
3, 334464, Note_on_c, 2, 93, 5
3, 334560, Note_off_c, 2, 93, 0
3, 334560, Note_off_c, 2, 69, 0
3, 334560, Note_off_c, 2, 72, 0
3, 334560, Note_off_c, 2, 76, 0
3, 334560, Note_off_c, 2, 81, 0
3, 334560, Note_off_c, 2, 84, 0
3, 334560, Note_off_c, 2, 88, 0
3, 334848, Note_on_c, 2, 88, 5
3, 334848, Note_on_c, 2, 84, 5
3, 334848, Note_on_c, 2, 81, 5
3, 334848, Note_on_c, 2, 76, 5
3, 334848, Note_on_c, 2, 72, 5
3, 334848, Note_on_c, 2, 69, 3
3, 334848, Note_on_c, 2, 93, 5
3, 334944, Note_off_c, 2, 93, 0
3, 334944, Note_off_c, 2, 69, 0
3, 334944, Note_off_c, 2, 72, 0
3, 334944, Note_off_c, 2, 76, 0
3, 334944, Note_off_c, 2, 81, 0
3, 334944, Note_off_c, 2, 84, 0
3, 334944, Note_off_c, 2, 88, 0
3, 335616, Note_on_c, 2, 88, 5
3, 335616, Note_on_c, 2, 84, 5
3, 335616, Note_on_c, 2, 81, 5
3, 335616, Note_on_c, 2, 76, 5
3, 335616, Note_on_c, 2, 72, 5
3, 335616, Note_on_c, 2, 69, 5
3, 335616, Note_on_c, 2, 93, 5
3, 335712, Note_off_c, 2, 93, 0
3, 335712, Note_off_c, 2, 69, 0
3, 335712, Note_off_c, 2, 72, 0
3, 335712, Note_off_c, 2, 76, 0
3, 335712, Note_off_c, 2, 81, 0
3, 335712, Note_off_c, 2, 84, 0
3, 335712, Note_off_c, 2, 88, 0
3, 336000, Note_on_c, 2, 88, 5
3, 336000, Note_on_c, 2, 84, 5
3, 336000, Note_on_c, 2, 81, 5
3, 336000, Note_on_c, 2, 76, 5
3, 336000, Note_on_c, 2, 72, 5
3, 336000, Note_on_c, 2, 69, 5
3, 336000, Note_on_c, 2, 93, 5
3, 336096, Note_off_c, 2, 93, 0
3, 336096, Note_off_c, 2, 69, 0
3, 336096, Note_off_c, 2, 72, 0
3, 336096, Note_off_c, 2, 76, 0
3, 336096, Note_off_c, 2, 81, 0
3, 336096, Note_off_c, 2, 84, 0
3, 336096, Note_off_c, 2, 88, 0
3, 336384, Note_on_c, 2, 88, 5
3, 336384, Note_on_c, 2, 84, 5
3, 336384, Note_on_c, 2, 81, 5
3, 336384, Note_on_c, 2, 76, 5
3, 336384, Note_on_c, 2, 72, 5
3, 336384, Note_on_c, 2, 69, 5
3, 336384, Note_on_c, 2, 93, 5
3, 336480, Note_off_c, 2, 93, 0
3, 336480, Note_off_c, 2, 69, 0
3, 336480, Note_off_c, 2, 72, 0
3, 336480, Note_off_c, 2, 76, 0
3, 336480, Note_off_c, 2, 81, 0
3, 336480, Note_off_c, 2, 84, 0
3, 336480, Note_off_c, 2, 88, 0
3, 337152, Note_on_c, 2, 88, 5
3, 337152, Note_on_c, 2, 84, 5
3, 337152, Note_on_c, 2, 81, 5
3, 337152, Note_on_c, 2, 76, 5
3, 337152, Note_on_c, 2, 72, 5
3, 337152, Note_on_c, 2, 69, 5
3, 337152, Note_on_c, 2, 93, 5
3, 337248, Note_off_c, 2, 93, 0
3, 337248, Note_off_c, 2, 69, 0
3, 337248, Note_off_c, 2, 72, 0
3, 337248, Note_off_c, 2, 76, 0
3, 337248, Note_off_c, 2, 81, 0
3, 337248, Note_off_c, 2, 84, 0
3, 337248, Note_off_c, 2, 88, 0
3, 337536, Note_on_c, 2, 88, 5
3, 337536, Note_on_c, 2, 84, 5
3, 337536, Note_on_c, 2, 81, 5
3, 337536, Note_on_c, 2, 76, 5
3, 337536, Note_on_c, 2, 72, 5
3, 337536, Note_on_c, 2, 69, 5
3, 337536, Note_on_c, 2, 93, 5
3, 337632, Note_off_c, 2, 93, 0
3, 337632, Note_off_c, 2, 69, 0
3, 337632, Note_off_c, 2, 72, 0
3, 337632, Note_off_c, 2, 76, 0
3, 337632, Note_off_c, 2, 81, 0
3, 337632, Note_off_c, 2, 84, 0
3, 337632, Note_off_c, 2, 88, 0
3, 337920, Note_on_c, 2, 88, 5
3, 337920, Note_on_c, 2, 84, 5
3, 337920, Note_on_c, 2, 81, 5
3, 337920, Note_on_c, 2, 76, 5
3, 337920, Note_on_c, 2, 72, 5
3, 337920, Note_on_c, 2, 69, 5
3, 337920, Note_on_c, 2, 93, 5
3, 338016, Note_off_c, 2, 93, 0
3, 338016, Note_off_c, 2, 69, 0
3, 338016, Note_off_c, 2, 72, 0
3, 338016, Note_off_c, 2, 76, 0
3, 338016, Note_off_c, 2, 81, 0
3, 338016, Note_off_c, 2, 84, 0
3, 338016, Note_off_c, 2, 88, 0
3, 338688, Note_on_c, 2, 88, 5
3, 338688, Note_on_c, 2, 84, 5
3, 338688, Note_on_c, 2, 81, 5
3, 338688, Note_on_c, 2, 76, 5
3, 338688, Note_on_c, 2, 72, 5
3, 338688, Note_on_c, 2, 69, 5
3, 338688, Note_on_c, 2, 93, 5
3, 338784, Note_off_c, 2, 93, 0
3, 338784, Note_off_c, 2, 69, 0
3, 338784, Note_off_c, 2, 72, 0
3, 338784, Note_off_c, 2, 76, 0
3, 338784, Note_off_c, 2, 81, 0
3, 338784, Note_off_c, 2, 84, 0
3, 338784, Note_off_c, 2, 88, 0
3, 339072, Note_on_c, 2, 88, 5
3, 339072, Note_on_c, 2, 84, 5
3, 339072, Note_on_c, 2, 81, 5
3, 339072, Note_on_c, 2, 76, 5
3, 339072, Note_on_c, 2, 72, 5
3, 339072, Note_on_c, 2, 69, 5
3, 339072, Note_on_c, 2, 93, 5
3, 339168, Note_off_c, 2, 93, 0
3, 339168, Note_off_c, 2, 69, 0
3, 339168, Note_off_c, 2, 72, 0
3, 339168, Note_off_c, 2, 76, 0
3, 339168, Note_off_c, 2, 81, 0
3, 339168, Note_off_c, 2, 84, 0
3, 339168, Note_off_c, 2, 88, 0
3, 339456, Note_on_c, 2, 88, 5
3, 339456, Note_on_c, 2, 84, 5
3, 339456, Note_on_c, 2, 81, 5
3, 339456, Note_on_c, 2, 76, 5
3, 339456, Note_on_c, 2, 72, 5
3, 339456, Note_on_c, 2, 69, 5
3, 339456, Note_on_c, 2, 93, 5
3, 339552, Note_off_c, 2, 93, 0
3, 339552, Note_off_c, 2, 69, 0
3, 339552, Note_off_c, 2, 72, 0
3, 339552, Note_off_c, 2, 76, 0
3, 339552, Note_off_c, 2, 81, 0
3, 339552, Note_off_c, 2, 84, 0
3, 339552, Note_off_c, 2, 88, 0
3, 340224, Note_on_c, 2, 88, 5
3, 340224, Note_on_c, 2, 84, 5
3, 340224, Note_on_c, 2, 81, 5
3, 340224, Note_on_c, 2, 76, 5
3, 340224, Note_on_c, 2, 72, 5
3, 340224, Note_on_c, 2, 69, 5
3, 340224, Note_on_c, 2, 93, 5
3, 340320, Note_off_c, 2, 93, 0
3, 340320, Note_off_c, 2, 69, 0
3, 340320, Note_off_c, 2, 72, 0
3, 340320, Note_off_c, 2, 76, 0
3, 340320, Note_off_c, 2, 81, 0
3, 340320, Note_off_c, 2, 84, 0
3, 340320, Note_off_c, 2, 88, 0
3, 340608, Note_on_c, 2, 88, 5
3, 340608, Note_on_c, 2, 84, 5
3, 340608, Note_on_c, 2, 81, 5
3, 340608, Note_on_c, 2, 76, 5
3, 340608, Note_on_c, 2, 72, 5
3, 340608, Note_on_c, 2, 69, 5
3, 340608, Note_on_c, 2, 93, 5
3, 340704, Note_off_c, 2, 93, 0
3, 340704, Note_off_c, 2, 69, 0
3, 340704, Note_off_c, 2, 72, 0
3, 340704, Note_off_c, 2, 76, 0
3, 340704, Note_off_c, 2, 81, 0
3, 340704, Note_off_c, 2, 84, 0
3, 340704, Note_off_c, 2, 88, 0
3, 340992, Note_on_c, 2, 88, 5
3, 340992, Note_on_c, 2, 84, 5
3, 340992, Note_on_c, 2, 81, 5
3, 340992, Note_on_c, 2, 76, 5
3, 340992, Note_on_c, 2, 72, 5
3, 340992, Note_on_c, 2, 69, 5
3, 340992, Note_on_c, 2, 93, 5
3, 341088, Note_off_c, 2, 93, 0
3, 341088, Note_off_c, 2, 69, 0
3, 341088, Note_off_c, 2, 72, 0
3, 341088, Note_off_c, 2, 76, 0
3, 341088, Note_off_c, 2, 81, 0
3, 341088, Note_off_c, 2, 84, 0
3, 341088, Note_off_c, 2, 88, 0
3, 341760, Note_on_c, 2, 88, 5
3, 341760, Note_on_c, 2, 84, 5
3, 341760, Note_on_c, 2, 81, 5
3, 341760, Note_on_c, 2, 76, 5
3, 341760, Note_on_c, 2, 72, 5
3, 341760, Note_on_c, 2, 69, 5
3, 341760, Note_on_c, 2, 93, 5
3, 341856, Note_off_c, 2, 93, 0
3, 341856, Note_off_c, 2, 69, 0
3, 341856, Note_off_c, 2, 72, 0
3, 341856, Note_off_c, 2, 76, 0
3, 341856, Note_off_c, 2, 81, 0
3, 341856, Note_off_c, 2, 84, 0
3, 341856, Note_off_c, 2, 88, 0
3, 342144, Note_on_c, 2, 88, 5
3, 342144, Note_on_c, 2, 84, 5
3, 342144, Note_on_c, 2, 81, 5
3, 342144, Note_on_c, 2, 76, 5
3, 342144, Note_on_c, 2, 72, 5
3, 342144, Note_on_c, 2, 69, 5
3, 342144, Note_on_c, 2, 93, 5
3, 342240, Note_off_c, 2, 93, 0
3, 342240, Note_off_c, 2, 69, 0
3, 342240, Note_off_c, 2, 72, 0
3, 342240, Note_off_c, 2, 76, 0
3, 342240, Note_off_c, 2, 81, 0
3, 342240, Note_off_c, 2, 84, 0
3, 342240, Note_off_c, 2, 88, 0
3, 342528, Note_on_c, 2, 88, 5
3, 342528, Note_on_c, 2, 84, 5
3, 342528, Note_on_c, 2, 81, 5
3, 342528, Note_on_c, 2, 76, 5
3, 342528, Note_on_c, 2, 72, 5
3, 342528, Note_on_c, 2, 69, 5
3, 342528, Note_on_c, 2, 93, 5
3, 342624, Note_off_c, 2, 93, 0
3, 342624, Note_off_c, 2, 69, 0
3, 342624, Note_off_c, 2, 72, 0
3, 342624, Note_off_c, 2, 76, 0
3, 342624, Note_off_c, 2, 81, 0
3, 342624, Note_off_c, 2, 84, 0
3, 342624, Note_off_c, 2, 88, 0
3, 343296, Note_on_c, 2, 88, 5
3, 343296, Note_on_c, 2, 84, 5
3, 343296, Note_on_c, 2, 81, 5
3, 343296, Note_on_c, 2, 76, 5
3, 343296, Note_on_c, 2, 72, 5
3, 343296, Note_on_c, 2, 69, 5
3, 343296, Note_on_c, 2, 93, 5
3, 343392, Note_off_c, 2, 93, 0
3, 343392, Note_off_c, 2, 69, 0
3, 343392, Note_off_c, 2, 72, 0
3, 343392, Note_off_c, 2, 76, 0
3, 343392, Note_off_c, 2, 81, 0
3, 343392, Note_off_c, 2, 84, 0
3, 343392, Note_off_c, 2, 88, 0
3, 343680, Note_on_c, 2, 88, 5
3, 343680, Note_on_c, 2, 84, 5
3, 343680, Note_on_c, 2, 81, 5
3, 343680, Note_on_c, 2, 76, 5
3, 343680, Note_on_c, 2, 72, 5
3, 343680, Note_on_c, 2, 69, 5
3, 343680, Note_on_c, 2, 93, 5
3, 343776, Note_off_c, 2, 93, 0
3, 343776, Note_off_c, 2, 69, 0
3, 343776, Note_off_c, 2, 72, 0
3, 343776, Note_off_c, 2, 76, 0
3, 343776, Note_off_c, 2, 81, 0
3, 343776, Note_off_c, 2, 84, 0
3, 343776, Note_off_c, 2, 88, 0
3, 344064, Note_on_c, 2, 89, 5
3, 344064, Note_on_c, 2, 86, 5
3, 344064, Note_on_c, 2, 81, 5
3, 344064, Note_on_c, 2, 77, 5
3, 344064, Note_on_c, 2, 74, 5
3, 344064, Note_on_c, 2, 69, 5
3, 344064, Note_on_c, 2, 93, 5
3, 344160, Note_off_c, 2, 93, 0
3, 344160, Note_off_c, 2, 69, 0
3, 344160, Note_off_c, 2, 74, 0
3, 344160, Note_off_c, 2, 77, 0
3, 344160, Note_off_c, 2, 81, 0
3, 344160, Note_off_c, 2, 86, 0
3, 344160, Note_off_c, 2, 89, 0
3, 344832, Note_on_c, 2, 89, 5
3, 344832, Note_on_c, 2, 86, 5
3, 344832, Note_on_c, 2, 81, 5
3, 344832, Note_on_c, 2, 77, 5
3, 344832, Note_on_c, 2, 74, 5
3, 344832, Note_on_c, 2, 69, 5
3, 344832, Note_on_c, 2, 93, 5
3, 344928, Note_off_c, 2, 93, 0
3, 344928, Note_off_c, 2, 69, 0
3, 344928, Note_off_c, 2, 74, 0
3, 344928, Note_off_c, 2, 77, 0
3, 344928, Note_off_c, 2, 81, 0
3, 344928, Note_off_c, 2, 86, 0
3, 344928, Note_off_c, 2, 89, 0
3, 345216, Note_on_c, 2, 89, 5
3, 345216, Note_on_c, 2, 86, 5
3, 345216, Note_on_c, 2, 81, 5
3, 345216, Note_on_c, 2, 77, 5
3, 345216, Note_on_c, 2, 74, 5
3, 345216, Note_on_c, 2, 69, 5
3, 345216, Note_on_c, 2, 93, 5
3, 345312, Note_off_c, 2, 93, 0
3, 345312, Note_off_c, 2, 69, 0
3, 345312, Note_off_c, 2, 74, 0
3, 345312, Note_off_c, 2, 77, 0
3, 345312, Note_off_c, 2, 81, 0
3, 345312, Note_off_c, 2, 86, 0
3, 345312, Note_off_c, 2, 89, 0
3, 345600, Note_on_c, 2, 88, 5
3, 345600, Note_on_c, 2, 84, 5
3, 345600, Note_on_c, 2, 81, 5
3, 345600, Note_on_c, 2, 76, 5
3, 345600, Note_on_c, 2, 72, 5
3, 345600, Note_on_c, 2, 69, 5
3, 345600, Note_on_c, 2, 93, 5
3, 345696, Note_off_c, 2, 93, 0
3, 345696, Note_off_c, 2, 69, 0
3, 345696, Note_off_c, 2, 72, 0
3, 345696, Note_off_c, 2, 76, 0
3, 345696, Note_off_c, 2, 81, 0
3, 345696, Note_off_c, 2, 84, 0
3, 345696, Note_off_c, 2, 88, 0
3, 346368, Note_on_c, 2, 88, 5
3, 346368, Note_on_c, 2, 84, 5
3, 346368, Note_on_c, 2, 81, 5
3, 346368, Note_on_c, 2, 76, 5
3, 346368, Note_on_c, 2, 72, 5
3, 346368, Note_on_c, 2, 69, 5
3, 346368, Note_on_c, 2, 93, 5
3, 346464, Note_off_c, 2, 93, 0
3, 346464, Note_off_c, 2, 69, 0
3, 346464, Note_off_c, 2, 72, 0
3, 346464, Note_off_c, 2, 76, 0
3, 346464, Note_off_c, 2, 81, 0
3, 346464, Note_off_c, 2, 84, 0
3, 346464, Note_off_c, 2, 88, 0
3, 346752, Note_on_c, 2, 88, 5
3, 346752, Note_on_c, 2, 84, 5
3, 346752, Note_on_c, 2, 81, 5
3, 346752, Note_on_c, 2, 76, 5
3, 346752, Note_on_c, 2, 72, 5
3, 346752, Note_on_c, 2, 69, 5
3, 346752, Note_on_c, 2, 93, 5
3, 346848, Note_off_c, 2, 93, 0
3, 346848, Note_off_c, 2, 69, 0
3, 346848, Note_off_c, 2, 72, 0
3, 346848, Note_off_c, 2, 76, 0
3, 346848, Note_off_c, 2, 81, 0
3, 346848, Note_off_c, 2, 84, 0
3, 346848, Note_off_c, 2, 88, 0
3, 347136, Note_on_c, 2, 88, 5
3, 347136, Note_on_c, 2, 83, 5
3, 347136, Note_on_c, 2, 80, 5
3, 347136, Note_on_c, 2, 76, 5
3, 347136, Note_on_c, 2, 71, 5
3, 347136, Note_on_c, 2, 68, 5
3, 347136, Note_on_c, 2, 92, 5
3, 347232, Note_off_c, 2, 92, 0
3, 347232, Note_off_c, 2, 68, 0
3, 347232, Note_off_c, 2, 71, 0
3, 347232, Note_off_c, 2, 76, 0
3, 347232, Note_off_c, 2, 80, 0
3, 347232, Note_off_c, 2, 83, 0
3, 347232, Note_off_c, 2, 88, 0
3, 347904, Note_on_c, 2, 88, 5
3, 347904, Note_on_c, 2, 83, 5
3, 347904, Note_on_c, 2, 80, 5
3, 347904, Note_on_c, 2, 76, 5
3, 347904, Note_on_c, 2, 71, 5
3, 347904, Note_on_c, 2, 68, 5
3, 347904, Note_on_c, 2, 92, 5
3, 348000, Note_off_c, 2, 92, 0
3, 348000, Note_off_c, 2, 68, 0
3, 348000, Note_off_c, 2, 71, 0
3, 348000, Note_off_c, 2, 76, 0
3, 348000, Note_off_c, 2, 80, 0
3, 348000, Note_off_c, 2, 83, 0
3, 348000, Note_off_c, 2, 88, 0
3, 348288, Note_on_c, 2, 88, 5
3, 348288, Note_on_c, 2, 83, 5
3, 348288, Note_on_c, 2, 80, 5
3, 348288, Note_on_c, 2, 76, 5
3, 348288, Note_on_c, 2, 71, 5
3, 348288, Note_on_c, 2, 68, 5
3, 348288, Note_on_c, 2, 92, 5
3, 348384, Note_off_c, 2, 92, 0
3, 348384, Note_off_c, 2, 68, 0
3, 348384, Note_off_c, 2, 71, 0
3, 348384, Note_off_c, 2, 76, 0
3, 348384, Note_off_c, 2, 80, 0
3, 348384, Note_off_c, 2, 83, 0
3, 348384, Note_off_c, 2, 88, 0
3, 348672, Note_on_c, 2, 88, 5
3, 348672, Note_on_c, 2, 84, 5
3, 348672, Note_on_c, 2, 81, 5
3, 348672, Note_on_c, 2, 76, 5
3, 348672, Note_on_c, 2, 72, 5
3, 348672, Note_on_c, 2, 69, 5
3, 348672, Note_on_c, 2, 93, 5
3, 348768, Note_off_c, 2, 93, 0
3, 348768, Note_off_c, 2, 69, 0
3, 348768, Note_off_c, 2, 72, 0
3, 348768, Note_off_c, 2, 76, 0
3, 348768, Note_off_c, 2, 81, 0
3, 348768, Note_off_c, 2, 84, 0
3, 348768, Note_off_c, 2, 88, 0
3, 349440, Note_on_c, 2, 88, 5
3, 349440, Note_on_c, 2, 84, 5
3, 349440, Note_on_c, 2, 81, 5
3, 349440, Note_on_c, 2, 76, 5
3, 349440, Note_on_c, 2, 72, 5
3, 349440, Note_on_c, 2, 69, 5
3, 349440, Note_on_c, 2, 93, 5
3, 349536, Note_off_c, 2, 93, 0
3, 349536, Note_off_c, 2, 69, 0
3, 349536, Note_off_c, 2, 72, 0
3, 349536, Note_off_c, 2, 76, 0
3, 349536, Note_off_c, 2, 81, 0
3, 349536, Note_off_c, 2, 84, 0
3, 349536, Note_off_c, 2, 88, 0
3, 349824, Note_on_c, 2, 88, 5
3, 349824, Note_on_c, 2, 84, 5
3, 349824, Note_on_c, 2, 81, 5
3, 349824, Note_on_c, 2, 76, 5
3, 349824, Note_on_c, 2, 72, 5
3, 349824, Note_on_c, 2, 69, 5
3, 349824, Note_on_c, 2, 93, 5
3, 349920, Note_off_c, 2, 93, 0
3, 349920, Note_off_c, 2, 69, 0
3, 349920, Note_off_c, 2, 72, 0
3, 349920, Note_off_c, 2, 76, 0
3, 349920, Note_off_c, 2, 81, 0
3, 349920, Note_off_c, 2, 84, 0
3, 349920, Note_off_c, 2, 88, 0
3, 350208, Note_on_c, 2, 88, 5
3, 350208, Note_on_c, 2, 83, 5
3, 350208, Note_on_c, 2, 80, 5
3, 350208, Note_on_c, 2, 76, 5
3, 350208, Note_on_c, 2, 71, 5
3, 350208, Note_on_c, 2, 68, 5
3, 350208, Note_on_c, 2, 92, 5
3, 350304, Note_off_c, 2, 92, 0
3, 350304, Note_off_c, 2, 68, 0
3, 350304, Note_off_c, 2, 71, 0
3, 350304, Note_off_c, 2, 76, 0
3, 350304, Note_off_c, 2, 80, 0
3, 350304, Note_off_c, 2, 83, 0
3, 350304, Note_off_c, 2, 88, 0
3, 351744, Note_on_c, 2, 88, 5
3, 351744, Note_on_c, 2, 83, 5
3, 351744, Note_on_c, 2, 80, 5
3, 351744, Note_on_c, 2, 76, 5
3, 351744, Note_on_c, 2, 71, 5
3, 351744, Note_on_c, 2, 68, 5
3, 351744, Note_on_c, 2, 92, 5
3, 351840, Note_off_c, 2, 92, 0
3, 351840, Note_off_c, 2, 68, 0
3, 351840, Note_off_c, 2, 71, 0
3, 351840, Note_off_c, 2, 76, 0
3, 351840, Note_off_c, 2, 80, 0
3, 351840, Note_off_c, 2, 83, 0
3, 351840, Note_off_c, 2, 88, 0
3, 353280, Note_on_c, 2, 88, 5
3, 353280, Note_on_c, 2, 84, 5
3, 353280, Note_on_c, 2, 81, 5
3, 353280, Note_on_c, 2, 76, 5
3, 353280, Note_on_c, 2, 72, 5
3, 353280, Note_on_c, 2, 69, 5
3, 353280, Note_on_c, 2, 93, 5
3, 353376, Note_off_c, 2, 93, 0
3, 353376, Note_off_c, 2, 69, 0
3, 353376, Note_off_c, 2, 72, 0
3, 353376, Note_off_c, 2, 76, 0
3, 353376, Note_off_c, 2, 81, 0
3, 353376, Note_off_c, 2, 84, 0
3, 353376, Note_off_c, 2, 88, 0
3, 356352, Note_on_c, 2, 89, 5
3, 356480, Note_on_c, 2, 86, 5
3, 356480, Note_off_c, 2, 89, 0
3, 356608, Note_off_c, 2, 86, 0
3, 356608, Note_on_c, 2, 81, 5
3, 356736, Note_on_c, 2, 77, 5
3, 356736, Note_off_c, 2, 81, 0
3, 356864, Note_on_c, 2, 74, 5
3, 356864, Note_off_c, 2, 77, 0
3, 356992, Note_off_c, 2, 74, 0
3, 356992, Note_on_c, 2, 69, 5
3, 357120, Note_on_c, 2, 65, 5
3, 357120, Note_off_c, 2, 69, 0
3, 357248, Note_on_c, 2, 62, 5
3, 357248, Note_off_c, 2, 65, 0
3, 357376, Note_off_c, 2, 62, 0
3, 357376, Note_on_c, 2, 57, 5
3, 357504, Note_on_c, 2, 53, 5
3, 357504, Note_off_c, 2, 57, 0
3, 357632, Note_on_c, 2, 50, 5
3, 357632, Note_off_c, 2, 53, 0
3, 357760, Note_off_c, 2, 50, 0
3, 357760, Note_on_c, 2, 45, 5
3, 357888, Note_on_c, 2, 86, 5
3, 357888, Note_off_c, 2, 45, 0
3, 358016, Note_on_c, 2, 81, 5
3, 358016, Note_off_c, 2, 86, 0
3, 358144, Note_off_c, 2, 81, 0
3, 358144, Note_on_c, 2, 77, 5
3, 358272, Note_on_c, 2, 74, 5
3, 358272, Note_off_c, 2, 77, 0
3, 358400, Note_on_c, 2, 69, 5
3, 358400, Note_off_c, 2, 74, 0
3, 358528, Note_off_c, 2, 69, 0
3, 358528, Note_on_c, 2, 65, 5
3, 358656, Note_on_c, 2, 62, 5
3, 358656, Note_off_c, 2, 65, 0
3, 358784, Note_on_c, 2, 57, 5
3, 358784, Note_off_c, 2, 62, 0
3, 358912, Note_off_c, 2, 57, 0
3, 358912, Note_on_c, 2, 53, 5
3, 359040, Note_on_c, 2, 50, 5
3, 359040, Note_off_c, 2, 53, 0
3, 359168, Note_on_c, 2, 45, 5
3, 359168, Note_off_c, 2, 50, 0
3, 359296, Note_off_c, 2, 45, 0
3, 359296, Note_on_c, 2, 41, 5
3, 359424, Note_on_c, 2, 81, 5
3, 359424, Note_off_c, 2, 41, 0
3, 359552, Note_on_c, 2, 77, 5
3, 359552, Note_off_c, 2, 81, 0
3, 359680, Note_off_c, 2, 77, 0
3, 359680, Note_on_c, 2, 74, 5
3, 359808, Note_on_c, 2, 69, 5
3, 359808, Note_off_c, 2, 74, 0
3, 359936, Note_on_c, 2, 65, 5
3, 359936, Note_off_c, 2, 69, 0
3, 360064, Note_off_c, 2, 65, 0
3, 360064, Note_on_c, 2, 62, 5
3, 360192, Note_on_c, 2, 57, 5
3, 360192, Note_off_c, 2, 62, 0
3, 360320, Note_on_c, 2, 53, 5
3, 360320, Note_off_c, 2, 57, 0
3, 360448, Note_off_c, 2, 53, 0
3, 360448, Note_on_c, 2, 50, 5
3, 360576, Note_on_c, 2, 45, 5
3, 360576, Note_off_c, 2, 50, 0
3, 360704, Note_on_c, 2, 41, 5
3, 360704, Note_off_c, 2, 45, 0
3, 360832, Note_off_c, 2, 41, 0
3, 360832, Note_on_c, 2, 38, 5
3, 360960, Note_on_c, 2, 77, 5
3, 360960, Note_off_c, 2, 38, 0
3, 361088, Note_on_c, 2, 74, 5
3, 361088, Note_off_c, 2, 77, 0
3, 361216, Note_off_c, 2, 74, 0
3, 361216, Note_on_c, 2, 69, 5
3, 361344, Note_on_c, 2, 65, 5
3, 361344, Note_off_c, 2, 69, 0
3, 361472, Note_on_c, 2, 62, 5
3, 361472, Note_off_c, 2, 65, 0
3, 361600, Note_off_c, 2, 62, 0
3, 361600, Note_on_c, 2, 57, 5
3, 361728, Note_on_c, 2, 53, 5
3, 361728, Note_off_c, 2, 57, 0
3, 361856, Note_on_c, 2, 50, 5
3, 361856, Note_off_c, 2, 53, 0
3, 361984, Note_off_c, 2, 50, 0
3, 361984, Note_on_c, 2, 45, 5
3, 362112, Note_on_c, 2, 41, 5
3, 362112, Note_off_c, 2, 45, 0
3, 362240, Note_on_c, 2, 38, 5
3, 362240, Note_off_c, 2, 41, 0
3, 362368, Note_off_c, 2, 38, 0
3, 362368, Note_on_c, 2, 33, 5
3, 362496, Note_off_c, 2, 33, 0
3, 362624, Note_on_c, 2, 93, 5
3, 362752, Note_off_c, 2, 93, 0
3, 362752, Note_on_c, 2, 88, 5
3, 362880, Note_on_c, 2, 84, 5
3, 362880, Note_off_c, 2, 88, 0
3, 363008, Note_on_c, 2, 81, 5
3, 363008, Note_off_c, 2, 84, 0
3, 363136, Note_off_c, 2, 81, 0
3, 363136, Note_on_c, 2, 76, 5
3, 363264, Note_on_c, 2, 72, 5
3, 363264, Note_off_c, 2, 76, 0
3, 363392, Note_on_c, 2, 69, 5
3, 363392, Note_off_c, 2, 72, 0
3, 363520, Note_off_c, 2, 69, 0
3, 363520, Note_on_c, 2, 64, 5
3, 363648, Note_on_c, 2, 60, 5
3, 363648, Note_off_c, 2, 64, 0
3, 363776, Note_on_c, 2, 57, 5
3, 363776, Note_off_c, 2, 60, 0
3, 363904, Note_off_c, 2, 57, 0
3, 363904, Note_on_c, 2, 52, 5
3, 364032, Note_on_c, 2, 93, 5
3, 364032, Note_off_c, 2, 52, 0
3, 364160, Note_on_c, 2, 88, 5
3, 364160, Note_off_c, 2, 93, 0
3, 364288, Note_off_c, 2, 88, 0
3, 364288, Note_on_c, 2, 84, 5
3, 364416, Note_on_c, 2, 81, 5
3, 364416, Note_off_c, 2, 84, 0
3, 364544, Note_on_c, 2, 76, 5
3, 364544, Note_off_c, 2, 81, 0
3, 364672, Note_off_c, 2, 76, 0
3, 364672, Note_on_c, 2, 72, 5
3, 364800, Note_on_c, 2, 69, 5
3, 364800, Note_off_c, 2, 72, 0
3, 364928, Note_on_c, 2, 64, 5
3, 364928, Note_off_c, 2, 69, 0
3, 365056, Note_off_c, 2, 64, 0
3, 365056, Note_on_c, 2, 60, 5
3, 365184, Note_on_c, 2, 57, 5
3, 365184, Note_off_c, 2, 60, 0
3, 365312, Note_on_c, 2, 52, 5
3, 365312, Note_off_c, 2, 57, 0
3, 365440, Note_off_c, 2, 52, 0
3, 365440, Note_on_c, 2, 48, 5
3, 365568, Note_on_c, 2, 88, 5
3, 365568, Note_off_c, 2, 48, 0
3, 365696, Note_on_c, 2, 84, 5
3, 365696, Note_off_c, 2, 88, 0
3, 365824, Note_off_c, 2, 84, 0
3, 365824, Note_on_c, 2, 81, 5
3, 365952, Note_on_c, 2, 76, 5
3, 365952, Note_off_c, 2, 81, 0
3, 366080, Note_on_c, 2, 72, 5
3, 366080, Note_off_c, 2, 76, 0
3, 366208, Note_off_c, 2, 72, 0
3, 366208, Note_on_c, 2, 69, 5
3, 366336, Note_on_c, 2, 64, 5
3, 366336, Note_off_c, 2, 69, 0
3, 366464, Note_on_c, 2, 60, 5
3, 366464, Note_off_c, 2, 64, 0
3, 366592, Note_off_c, 2, 60, 0
3, 366592, Note_on_c, 2, 57, 5
3, 366720, Note_on_c, 2, 52, 5
3, 366720, Note_off_c, 2, 57, 0
3, 366848, Note_on_c, 2, 48, 5
3, 366848, Note_off_c, 2, 52, 0
3, 366976, Note_off_c, 2, 48, 0
3, 366976, Note_on_c, 2, 45, 5
3, 367104, Note_on_c, 2, 84, 5
3, 367104, Note_off_c, 2, 45, 0
3, 367232, Note_on_c, 2, 81, 5
3, 367232, Note_off_c, 2, 84, 0
3, 367360, Note_off_c, 2, 81, 0
3, 367360, Note_on_c, 2, 76, 5
3, 367488, Note_on_c, 2, 72, 5
3, 367488, Note_off_c, 2, 76, 0
3, 367616, Note_on_c, 2, 69, 5
3, 367616, Note_off_c, 2, 72, 0
3, 367744, Note_off_c, 2, 69, 0
3, 367744, Note_on_c, 2, 64, 5
3, 367872, Note_on_c, 2, 60, 5
3, 367872, Note_off_c, 2, 64, 0
3, 368000, Note_on_c, 2, 57, 5
3, 368000, Note_off_c, 2, 60, 0
3, 368128, Note_off_c, 2, 57, 0
3, 368128, Note_on_c, 2, 52, 5
3, 368256, Note_on_c, 2, 48, 5
3, 368256, Note_off_c, 2, 52, 0
3, 368384, Note_on_c, 2, 45, 5
3, 368384, Note_off_c, 2, 48, 0
3, 368512, Note_off_c, 2, 45, 0
3, 368512, Note_on_c, 2, 40, 5
3, 368640, Note_off_c, 2, 40, 0
3, 368768, Note_on_c, 2, 95, 5
3, 368896, Note_off_c, 2, 95, 0
3, 368896, Note_on_c, 2, 92, 5
3, 369024, Note_on_c, 2, 88, 5
3, 369024, Note_off_c, 2, 92, 0
3, 369152, Note_on_c, 2, 83, 5
3, 369152, Note_off_c, 2, 88, 0
3, 369280, Note_off_c, 2, 83, 0
3, 369280, Note_on_c, 2, 80, 5
3, 369408, Note_on_c, 2, 76, 5
3, 369408, Note_off_c, 2, 80, 0
3, 369536, Note_on_c, 2, 71, 5
3, 369536, Note_off_c, 2, 76, 0
3, 369664, Note_off_c, 2, 71, 0
3, 369664, Note_on_c, 2, 68, 5
3, 369792, Note_on_c, 2, 64, 5
3, 369792, Note_off_c, 2, 68, 0
3, 369920, Note_on_c, 2, 59, 5
3, 369920, Note_off_c, 2, 64, 0
3, 370048, Note_off_c, 2, 59, 0
3, 370048, Note_on_c, 2, 56, 5
3, 370176, Note_on_c, 2, 95, 5
3, 370176, Note_off_c, 2, 56, 0
3, 370304, Note_on_c, 2, 92, 5
3, 370304, Note_off_c, 2, 95, 0
3, 370432, Note_off_c, 2, 92, 0
3, 370432, Note_on_c, 2, 88, 5
3, 370560, Note_on_c, 2, 83, 5
3, 370560, Note_off_c, 2, 88, 0
3, 370688, Note_on_c, 2, 80, 5
3, 370688, Note_off_c, 2, 83, 0
3, 370816, Note_off_c, 2, 80, 0
3, 370816, Note_on_c, 2, 76, 5
3, 370944, Note_on_c, 2, 71, 5
3, 370944, Note_off_c, 2, 76, 0
3, 371072, Note_on_c, 2, 68, 5
3, 371072, Note_off_c, 2, 71, 0
3, 371200, Note_off_c, 2, 68, 0
3, 371200, Note_on_c, 2, 64, 5
3, 371328, Note_on_c, 2, 59, 5
3, 371328, Note_off_c, 2, 64, 0
3, 371456, Note_on_c, 2, 56, 5
3, 371456, Note_off_c, 2, 59, 0
3, 371584, Note_off_c, 2, 56, 0
3, 371584, Note_on_c, 2, 52, 5
3, 371712, Note_on_c, 2, 92, 5
3, 371712, Note_off_c, 2, 52, 0
3, 371840, Note_on_c, 2, 88, 5
3, 371840, Note_off_c, 2, 92, 0
3, 371968, Note_off_c, 2, 88, 0
3, 371968, Note_on_c, 2, 83, 5
3, 372096, Note_on_c, 2, 80, 5
3, 372096, Note_off_c, 2, 83, 0
3, 372224, Note_on_c, 2, 76, 5
3, 372224, Note_off_c, 2, 80, 0
3, 372352, Note_off_c, 2, 76, 0
3, 372352, Note_on_c, 2, 71, 5
3, 372480, Note_on_c, 2, 68, 5
3, 372480, Note_off_c, 2, 71, 0
3, 372608, Note_on_c, 2, 64, 5
3, 372608, Note_off_c, 2, 68, 0
3, 372736, Note_off_c, 2, 64, 0
3, 372736, Note_on_c, 2, 59, 5
3, 372864, Note_on_c, 2, 56, 5
3, 372864, Note_off_c, 2, 59, 0
3, 372992, Note_on_c, 2, 52, 5
3, 372992, Note_off_c, 2, 56, 0
3, 373120, Note_off_c, 2, 52, 0
3, 373120, Note_on_c, 2, 47, 5
3, 373248, Note_on_c, 2, 88, 5
3, 373248, Note_off_c, 2, 47, 0
3, 373376, Note_on_c, 2, 83, 5
3, 373376, Note_off_c, 2, 88, 0
3, 373504, Note_off_c, 2, 83, 0
3, 373504, Note_on_c, 2, 80, 5
3, 373632, Note_on_c, 2, 76, 5
3, 373632, Note_off_c, 2, 80, 0
3, 373760, Note_on_c, 2, 71, 5
3, 373760, Note_off_c, 2, 76, 0
3, 373888, Note_off_c, 2, 71, 0
3, 373888, Note_on_c, 2, 68, 5
3, 374016, Note_on_c, 2, 64, 5
3, 374016, Note_off_c, 2, 68, 0
3, 374144, Note_on_c, 2, 59, 5
3, 374144, Note_off_c, 2, 64, 0
3, 374272, Note_off_c, 2, 59, 0
3, 374272, Note_on_c, 2, 56, 5
3, 374400, Note_on_c, 2, 52, 5
3, 374400, Note_off_c, 2, 56, 0
3, 374528, Note_on_c, 2, 47, 5
3, 374528, Note_off_c, 2, 52, 0
3, 374656, Note_off_c, 2, 47, 0
3, 374656, Note_on_c, 2, 44, 5
3, 374784, Note_off_c, 2, 44, 0
3, 374912, Note_on_c, 2, 93, 5
3, 375040, Note_off_c, 2, 93, 0
3, 375040, Note_on_c, 2, 88, 5
3, 375168, Note_on_c, 2, 84, 5
3, 375168, Note_off_c, 2, 88, 0
3, 375296, Note_on_c, 2, 81, 5
3, 375296, Note_off_c, 2, 84, 0
3, 375424, Note_off_c, 2, 81, 0
3, 375424, Note_on_c, 2, 76, 5
3, 375552, Note_on_c, 2, 72, 5
3, 375552, Note_off_c, 2, 76, 0
3, 375680, Note_on_c, 2, 69, 5
3, 375680, Note_off_c, 2, 72, 0
3, 375808, Note_off_c, 2, 69, 0
3, 375808, Note_on_c, 2, 64, 5
3, 375936, Note_on_c, 2, 60, 5
3, 375936, Note_off_c, 2, 64, 0
3, 376064, Note_on_c, 2, 57, 5
3, 376064, Note_off_c, 2, 60, 0
3, 376192, Note_off_c, 2, 57, 0
3, 376192, Note_on_c, 2, 52, 5
3, 376320, Note_on_c, 2, 93, 5
3, 376320, Note_off_c, 2, 52, 0
3, 376448, Note_on_c, 2, 88, 5
3, 376448, Note_off_c, 2, 93, 0
3, 376576, Note_off_c, 2, 88, 0
3, 376576, Note_on_c, 2, 84, 5
3, 376704, Note_on_c, 2, 81, 5
3, 376704, Note_off_c, 2, 84, 0
3, 376832, Note_on_c, 2, 76, 5
3, 376832, Note_off_c, 2, 81, 0
3, 376960, Note_off_c, 2, 76, 0
3, 376960, Note_on_c, 2, 72, 5
3, 377088, Note_on_c, 2, 69, 5
3, 377088, Note_off_c, 2, 72, 0
3, 377216, Note_on_c, 2, 64, 5
3, 377216, Note_off_c, 2, 69, 0
3, 377344, Note_off_c, 2, 64, 0
3, 377344, Note_on_c, 2, 60, 5
3, 377472, Note_on_c, 2, 57, 5
3, 377472, Note_off_c, 2, 60, 0
3, 377600, Note_on_c, 2, 52, 5
3, 377600, Note_off_c, 2, 57, 0
3, 377728, Note_off_c, 2, 52, 0
3, 377728, Note_on_c, 2, 48, 5
3, 377856, Note_off_c, 2, 48, 0
3, 380928, Note_on_c, 2, 86, 5
3, 380928, Note_on_c, 2, 89, 5
3, 380928, Note_on_c, 2, 62, 5
3, 380928, Note_on_c, 2, 65, 5
3, 380928, Note_on_c, 2, 74, 5
3, 380928, Note_on_c, 2, 77, 5
3, 381024, Note_off_c, 2, 77, 0
3, 381024, Note_off_c, 2, 74, 0
3, 381024, Note_off_c, 2, 65, 0
3, 381024, Note_off_c, 2, 62, 0
3, 381024, Note_off_c, 2, 89, 0
3, 381024, Note_off_c, 2, 86, 0
3, 381120, Note_on_c, 2, 81, 5
3, 381120, Note_on_c, 2, 69, 5
3, 381120, Note_on_c, 2, 57, 5
3, 381120, Note_on_c, 2, 93, 5
3, 381216, Note_off_c, 2, 93, 0
3, 381216, Note_off_c, 2, 57, 0
3, 381216, Note_off_c, 2, 69, 0
3, 381216, Note_off_c, 2, 81, 0
3, 381312, Note_on_c, 2, 62, 5
3, 381312, Note_on_c, 2, 65, 5
3, 381312, Note_on_c, 2, 74, 5
3, 381312, Note_on_c, 2, 77, 5
3, 381312, Note_on_c, 2, 86, 5
3, 381312, Note_on_c, 2, 89, 5
3, 381408, Note_off_c, 2, 89, 0
3, 381408, Note_off_c, 2, 86, 0
3, 381408, Note_off_c, 2, 77, 0
3, 381408, Note_off_c, 2, 74, 0
3, 381408, Note_off_c, 2, 65, 0
3, 381408, Note_off_c, 2, 62, 0
3, 381504, Note_on_c, 2, 81, 5
3, 381504, Note_on_c, 2, 69, 5
3, 381504, Note_on_c, 2, 57, 5
3, 381504, Note_on_c, 2, 93, 5
3, 381600, Note_off_c, 2, 93, 0
3, 381600, Note_off_c, 2, 57, 0
3, 381600, Note_off_c, 2, 69, 0
3, 381600, Note_off_c, 2, 81, 0
3, 381696, Note_on_c, 2, 62, 5
3, 381696, Note_on_c, 2, 65, 5
3, 381696, Note_on_c, 2, 74, 5
3, 381696, Note_on_c, 2, 77, 5
3, 381696, Note_on_c, 2, 86, 5
3, 381696, Note_on_c, 2, 89, 5
3, 381792, Note_off_c, 2, 89, 0
3, 381792, Note_off_c, 2, 86, 0
3, 381792, Note_off_c, 2, 77, 0
3, 381792, Note_off_c, 2, 74, 0
3, 381792, Note_off_c, 2, 65, 0
3, 381792, Note_off_c, 2, 62, 0
3, 381888, Note_on_c, 2, 81, 5
3, 381888, Note_on_c, 2, 69, 5
3, 381888, Note_on_c, 2, 57, 5
3, 381888, Note_on_c, 2, 93, 5
3, 381984, Note_off_c, 2, 93, 0
3, 381984, Note_off_c, 2, 57, 0
3, 381984, Note_off_c, 2, 69, 0
3, 381984, Note_off_c, 2, 81, 0
3, 382080, Note_on_c, 2, 62, 5
3, 382080, Note_on_c, 2, 65, 5
3, 382080, Note_on_c, 2, 74, 5
3, 382080, Note_on_c, 2, 77, 5
3, 382080, Note_on_c, 2, 86, 5
3, 382080, Note_on_c, 2, 89, 5
3, 382176, Note_off_c, 2, 89, 0
3, 382176, Note_off_c, 2, 86, 0
3, 382176, Note_off_c, 2, 77, 0
3, 382176, Note_off_c, 2, 74, 0
3, 382176, Note_off_c, 2, 65, 0
3, 382176, Note_off_c, 2, 62, 0
3, 382272, Note_on_c, 2, 81, 5
3, 382272, Note_on_c, 2, 69, 5
3, 382272, Note_on_c, 2, 57, 5
3, 382272, Note_on_c, 2, 93, 5
3, 382368, Note_off_c, 2, 93, 0
3, 382368, Note_off_c, 2, 57, 0
3, 382368, Note_off_c, 2, 69, 0
3, 382368, Note_off_c, 2, 81, 0
3, 382464, Note_on_c, 2, 62, 5
3, 382464, Note_on_c, 2, 65, 5
3, 382464, Note_on_c, 2, 74, 5
3, 382464, Note_on_c, 2, 77, 5
3, 382464, Note_on_c, 2, 86, 5
3, 382464, Note_on_c, 2, 89, 5
3, 382560, Note_off_c, 2, 89, 0
3, 382560, Note_off_c, 2, 86, 0
3, 382560, Note_off_c, 2, 77, 0
3, 382560, Note_off_c, 2, 74, 0
3, 382560, Note_off_c, 2, 65, 0
3, 382560, Note_off_c, 2, 62, 0
3, 382656, Note_on_c, 2, 81, 5
3, 382656, Note_on_c, 2, 69, 5
3, 382656, Note_on_c, 2, 57, 5
3, 382656, Note_on_c, 2, 93, 5
3, 382752, Note_off_c, 2, 93, 0
3, 382752, Note_off_c, 2, 57, 0
3, 382752, Note_off_c, 2, 69, 0
3, 382752, Note_off_c, 2, 81, 0
3, 382848, Note_on_c, 2, 62, 5
3, 382848, Note_on_c, 2, 65, 5
3, 382848, Note_on_c, 2, 74, 5
3, 382848, Note_on_c, 2, 77, 5
3, 382848, Note_on_c, 2, 86, 5
3, 382848, Note_on_c, 2, 89, 5
3, 382944, Note_off_c, 2, 89, 0
3, 382944, Note_off_c, 2, 86, 0
3, 382944, Note_off_c, 2, 77, 0
3, 382944, Note_off_c, 2, 74, 0
3, 382944, Note_off_c, 2, 65, 0
3, 382944, Note_off_c, 2, 62, 0
3, 383040, Note_on_c, 2, 81, 5
3, 383040, Note_on_c, 2, 69, 5
3, 383040, Note_on_c, 2, 57, 5
3, 383040, Note_on_c, 2, 93, 5
3, 383136, Note_off_c, 2, 93, 0
3, 383136, Note_off_c, 2, 57, 0
3, 383136, Note_off_c, 2, 69, 0
3, 383136, Note_off_c, 2, 81, 0
3, 383232, Note_on_c, 2, 62, 5
3, 383232, Note_on_c, 2, 65, 5
3, 383232, Note_on_c, 2, 74, 5
3, 383232, Note_on_c, 2, 77, 5
3, 383232, Note_on_c, 2, 86, 5
3, 383232, Note_on_c, 2, 89, 5
3, 383328, Note_off_c, 2, 89, 0
3, 383328, Note_off_c, 2, 86, 0
3, 383328, Note_off_c, 2, 77, 0
3, 383328, Note_off_c, 2, 74, 0
3, 383328, Note_off_c, 2, 65, 0
3, 383328, Note_off_c, 2, 62, 0
3, 383424, Note_on_c, 2, 81, 5
3, 383424, Note_on_c, 2, 69, 5
3, 383424, Note_on_c, 2, 57, 5
3, 383424, Note_on_c, 2, 93, 5
3, 383520, Note_off_c, 2, 93, 0
3, 383520, Note_off_c, 2, 57, 0
3, 383520, Note_off_c, 2, 69, 0
3, 383520, Note_off_c, 2, 81, 0
3, 383616, Note_on_c, 2, 62, 5
3, 383616, Note_on_c, 2, 65, 5
3, 383616, Note_on_c, 2, 74, 5
3, 383616, Note_on_c, 2, 77, 5
3, 383616, Note_on_c, 2, 86, 5
3, 383616, Note_on_c, 2, 89, 5
3, 383712, Note_off_c, 2, 89, 0
3, 383712, Note_off_c, 2, 86, 0
3, 383712, Note_off_c, 2, 77, 0
3, 383712, Note_off_c, 2, 74, 0
3, 383712, Note_off_c, 2, 65, 0
3, 383712, Note_off_c, 2, 62, 0
3, 383808, Note_on_c, 2, 81, 5
3, 383808, Note_on_c, 2, 69, 5
3, 383808, Note_on_c, 2, 57, 5
3, 383808, Note_on_c, 2, 93, 5
3, 383904, Note_off_c, 2, 93, 0
3, 383904, Note_off_c, 2, 57, 0
3, 383904, Note_off_c, 2, 69, 0
3, 383904, Note_off_c, 2, 81, 0
3, 384000, Note_on_c, 2, 62, 5
3, 384000, Note_on_c, 2, 65, 5
3, 384000, Note_on_c, 2, 74, 5
3, 384000, Note_on_c, 2, 77, 5
3, 384000, Note_on_c, 2, 86, 5
3, 384000, Note_on_c, 2, 89, 5
3, 384096, Note_off_c, 2, 89, 0
3, 384096, Note_off_c, 2, 86, 0
3, 384096, Note_off_c, 2, 77, 0
3, 384096, Note_off_c, 2, 74, 0
3, 384096, Note_off_c, 2, 65, 0
3, 384096, Note_off_c, 2, 62, 0
3, 384192, Note_on_c, 2, 81, 5
3, 384192, Note_on_c, 2, 69, 5
3, 384192, Note_on_c, 2, 57, 5
3, 384192, Note_on_c, 2, 93, 5
3, 384288, Note_off_c, 2, 93, 0
3, 384288, Note_off_c, 2, 57, 0
3, 384288, Note_off_c, 2, 69, 0
3, 384288, Note_off_c, 2, 81, 0
3, 384384, Note_on_c, 2, 62, 5
3, 384384, Note_on_c, 2, 65, 5
3, 384384, Note_on_c, 2, 74, 5
3, 384384, Note_on_c, 2, 77, 5
3, 384384, Note_on_c, 2, 86, 5
3, 384384, Note_on_c, 2, 89, 5
3, 384480, Note_off_c, 2, 89, 0
3, 384480, Note_off_c, 2, 86, 0
3, 384480, Note_off_c, 2, 77, 0
3, 384480, Note_off_c, 2, 74, 0
3, 384480, Note_off_c, 2, 65, 0
3, 384480, Note_off_c, 2, 62, 0
3, 384576, Note_on_c, 2, 81, 5
3, 384576, Note_on_c, 2, 69, 5
3, 384576, Note_on_c, 2, 57, 5
3, 384576, Note_on_c, 2, 93, 5
3, 384672, Note_off_c, 2, 93, 0
3, 384672, Note_off_c, 2, 57, 0
3, 384672, Note_off_c, 2, 69, 0
3, 384672, Note_off_c, 2, 81, 0
3, 384768, Note_on_c, 2, 62, 5
3, 384768, Note_on_c, 2, 65, 5
3, 384768, Note_on_c, 2, 74, 5
3, 384768, Note_on_c, 2, 77, 5
3, 384768, Note_on_c, 2, 86, 5
3, 384768, Note_on_c, 2, 89, 5
3, 384864, Note_off_c, 2, 89, 0
3, 384864, Note_off_c, 2, 86, 0
3, 384864, Note_off_c, 2, 77, 0
3, 384864, Note_off_c, 2, 74, 0
3, 384864, Note_off_c, 2, 65, 0
3, 384864, Note_off_c, 2, 62, 0
3, 384960, Note_on_c, 2, 81, 5
3, 384960, Note_on_c, 2, 69, 5
3, 384960, Note_on_c, 2, 57, 5
3, 384960, Note_on_c, 2, 93, 5
3, 385056, Note_off_c, 2, 93, 0
3, 385056, Note_off_c, 2, 57, 0
3, 385056, Note_off_c, 2, 69, 0
3, 385056, Note_off_c, 2, 81, 0
3, 385152, Note_on_c, 2, 62, 5
3, 385152, Note_on_c, 2, 65, 5
3, 385152, Note_on_c, 2, 74, 5
3, 385152, Note_on_c, 2, 77, 5
3, 385152, Note_on_c, 2, 86, 5
3, 385152, Note_on_c, 2, 89, 5
3, 385248, Note_off_c, 2, 89, 0
3, 385248, Note_off_c, 2, 86, 0
3, 385248, Note_off_c, 2, 77, 0
3, 385248, Note_off_c, 2, 74, 0
3, 385248, Note_off_c, 2, 65, 0
3, 385248, Note_off_c, 2, 62, 0
3, 385344, Note_on_c, 2, 81, 5
3, 385344, Note_on_c, 2, 69, 5
3, 385344, Note_on_c, 2, 57, 5
3, 385344, Note_on_c, 2, 93, 5
3, 385440, Note_off_c, 2, 93, 0
3, 385440, Note_off_c, 2, 57, 0
3, 385440, Note_off_c, 2, 69, 0
3, 385440, Note_off_c, 2, 81, 0
3, 385536, Note_on_c, 2, 62, 5
3, 385536, Note_on_c, 2, 65, 5
3, 385536, Note_on_c, 2, 74, 5
3, 385536, Note_on_c, 2, 77, 5
3, 385536, Note_on_c, 2, 86, 5
3, 385536, Note_on_c, 2, 89, 5
3, 385632, Note_off_c, 2, 89, 0
3, 385632, Note_off_c, 2, 86, 0
3, 385632, Note_off_c, 2, 77, 0
3, 385632, Note_off_c, 2, 74, 0
3, 385632, Note_off_c, 2, 65, 0
3, 385632, Note_off_c, 2, 62, 0
3, 385728, Note_on_c, 2, 81, 5
3, 385728, Note_on_c, 2, 69, 5
3, 385728, Note_on_c, 2, 57, 5
3, 385728, Note_on_c, 2, 93, 5
3, 385824, Note_off_c, 2, 93, 0
3, 385824, Note_off_c, 2, 57, 0
3, 385824, Note_off_c, 2, 69, 0
3, 385824, Note_off_c, 2, 81, 0
3, 385920, Note_on_c, 2, 62, 5
3, 385920, Note_on_c, 2, 65, 5
3, 385920, Note_on_c, 2, 74, 5
3, 385920, Note_on_c, 2, 77, 5
3, 385920, Note_on_c, 2, 86, 5
3, 385920, Note_on_c, 2, 89, 5
3, 386016, Note_off_c, 2, 89, 0
3, 386016, Note_off_c, 2, 86, 0
3, 386016, Note_off_c, 2, 77, 0
3, 386016, Note_off_c, 2, 74, 0
3, 386016, Note_off_c, 2, 65, 0
3, 386016, Note_off_c, 2, 62, 0
3, 386112, Note_on_c, 2, 81, 5
3, 386112, Note_on_c, 2, 69, 5
3, 386112, Note_on_c, 2, 57, 5
3, 386112, Note_on_c, 2, 93, 5
3, 386208, Note_off_c, 2, 93, 0
3, 386208, Note_off_c, 2, 57, 0
3, 386208, Note_off_c, 2, 69, 0
3, 386208, Note_off_c, 2, 81, 0
3, 386304, Note_on_c, 2, 62, 5
3, 386304, Note_on_c, 2, 65, 5
3, 386304, Note_on_c, 2, 74, 5
3, 386304, Note_on_c, 2, 77, 5
3, 386304, Note_on_c, 2, 86, 5
3, 386304, Note_on_c, 2, 89, 5
3, 386400, Note_off_c, 2, 89, 0
3, 386400, Note_off_c, 2, 86, 0
3, 386400, Note_off_c, 2, 77, 0
3, 386400, Note_off_c, 2, 74, 0
3, 386400, Note_off_c, 2, 65, 0
3, 386400, Note_off_c, 2, 62, 0
3, 386496, Note_on_c, 2, 81, 5
3, 386496, Note_on_c, 2, 69, 5
3, 386496, Note_on_c, 2, 57, 5
3, 386496, Note_on_c, 2, 93, 5
3, 386592, Note_off_c, 2, 93, 0
3, 386592, Note_off_c, 2, 57, 0
3, 386592, Note_off_c, 2, 69, 0
3, 386592, Note_off_c, 2, 81, 0
3, 386688, Note_on_c, 2, 62, 5
3, 386688, Note_on_c, 2, 65, 5
3, 386688, Note_on_c, 2, 74, 5
3, 386688, Note_on_c, 2, 77, 5
3, 386688, Note_on_c, 2, 86, 5
3, 386688, Note_on_c, 2, 89, 5
3, 386784, Note_off_c, 2, 89, 0
3, 386784, Note_off_c, 2, 86, 0
3, 386784, Note_off_c, 2, 77, 0
3, 386784, Note_off_c, 2, 74, 0
3, 386784, Note_off_c, 2, 65, 0
3, 386784, Note_off_c, 2, 62, 0
3, 386880, Note_on_c, 2, 81, 5
3, 386880, Note_on_c, 2, 69, 5
3, 386880, Note_on_c, 2, 57, 5
3, 386880, Note_on_c, 2, 93, 5
3, 386976, Note_off_c, 2, 93, 0
3, 386976, Note_off_c, 2, 57, 0
3, 386976, Note_off_c, 2, 69, 0
3, 386976, Note_off_c, 2, 81, 0
3, 387072, Note_on_c, 2, 60, 5
3, 387072, Note_on_c, 2, 64, 5
3, 387072, Note_on_c, 2, 72, 5
3, 387072, Note_on_c, 2, 76, 5
3, 387072, Note_on_c, 2, 84, 5
3, 387072, Note_on_c, 2, 88, 5
3, 387168, Note_off_c, 2, 88, 0
3, 387168, Note_off_c, 2, 84, 0
3, 387168, Note_off_c, 2, 76, 0
3, 387168, Note_off_c, 2, 72, 0
3, 387168, Note_off_c, 2, 64, 0
3, 387168, Note_off_c, 2, 60, 0
3, 387264, Note_on_c, 2, 81, 5
3, 387264, Note_on_c, 2, 69, 5
3, 387264, Note_on_c, 2, 57, 5
3, 387264, Note_on_c, 2, 93, 5
3, 387360, Note_off_c, 2, 93, 0
3, 387360, Note_off_c, 2, 57, 0
3, 387360, Note_off_c, 2, 69, 0
3, 387360, Note_off_c, 2, 81, 0
3, 387456, Note_on_c, 2, 60, 5
3, 387456, Note_on_c, 2, 64, 5
3, 387456, Note_on_c, 2, 72, 5
3, 387456, Note_on_c, 2, 76, 5
3, 387456, Note_on_c, 2, 84, 5
3, 387456, Note_on_c, 2, 88, 5
3, 387552, Note_off_c, 2, 88, 0
3, 387552, Note_off_c, 2, 84, 0
3, 387552, Note_off_c, 2, 76, 0
3, 387552, Note_off_c, 2, 72, 0
3, 387552, Note_off_c, 2, 64, 0
3, 387552, Note_off_c, 2, 60, 0
3, 387648, Note_on_c, 2, 81, 5
3, 387648, Note_on_c, 2, 69, 5
3, 387648, Note_on_c, 2, 57, 5
3, 387648, Note_on_c, 2, 93, 5
3, 387744, Note_off_c, 2, 93, 0
3, 387744, Note_off_c, 2, 57, 0
3, 387744, Note_off_c, 2, 69, 0
3, 387744, Note_off_c, 2, 81, 0
3, 387840, Note_on_c, 2, 60, 5
3, 387840, Note_on_c, 2, 64, 5
3, 387840, Note_on_c, 2, 72, 5
3, 387840, Note_on_c, 2, 76, 5
3, 387840, Note_on_c, 2, 84, 5
3, 387840, Note_on_c, 2, 88, 5
3, 387936, Note_off_c, 2, 88, 0
3, 387936, Note_off_c, 2, 84, 0
3, 387936, Note_off_c, 2, 76, 0
3, 387936, Note_off_c, 2, 72, 0
3, 387936, Note_off_c, 2, 64, 0
3, 387936, Note_off_c, 2, 60, 0
3, 388032, Note_on_c, 2, 81, 5
3, 388032, Note_on_c, 2, 69, 5
3, 388032, Note_on_c, 2, 57, 5
3, 388032, Note_on_c, 2, 93, 5
3, 388128, Note_off_c, 2, 93, 0
3, 388128, Note_off_c, 2, 57, 0
3, 388128, Note_off_c, 2, 69, 0
3, 388128, Note_off_c, 2, 81, 0
3, 388224, Note_on_c, 2, 60, 5
3, 388224, Note_on_c, 2, 64, 5
3, 388224, Note_on_c, 2, 72, 5
3, 388224, Note_on_c, 2, 76, 5
3, 388224, Note_on_c, 2, 84, 5
3, 388224, Note_on_c, 2, 88, 5
3, 388320, Note_off_c, 2, 88, 0
3, 388320, Note_off_c, 2, 84, 0
3, 388320, Note_off_c, 2, 76, 0
3, 388320, Note_off_c, 2, 72, 0
3, 388320, Note_off_c, 2, 64, 0
3, 388320, Note_off_c, 2, 60, 0
3, 388416, Note_on_c, 2, 81, 5
3, 388416, Note_on_c, 2, 69, 5
3, 388416, Note_on_c, 2, 57, 5
3, 388416, Note_on_c, 2, 93, 5
3, 388512, Note_off_c, 2, 93, 0
3, 388512, Note_off_c, 2, 57, 0
3, 388512, Note_off_c, 2, 69, 0
3, 388512, Note_off_c, 2, 81, 0
3, 388608, Note_on_c, 2, 60, 5
3, 388608, Note_on_c, 2, 64, 5
3, 388608, Note_on_c, 2, 72, 5
3, 388608, Note_on_c, 2, 76, 5
3, 388608, Note_on_c, 2, 84, 5
3, 388608, Note_on_c, 2, 88, 5
3, 388704, Note_off_c, 2, 88, 0
3, 388704, Note_off_c, 2, 84, 0
3, 388704, Note_off_c, 2, 76, 0
3, 388704, Note_off_c, 2, 72, 0
3, 388704, Note_off_c, 2, 64, 0
3, 388704, Note_off_c, 2, 60, 0
3, 388800, Note_on_c, 2, 81, 5
3, 388800, Note_on_c, 2, 69, 5
3, 388800, Note_on_c, 2, 57, 5
3, 388800, Note_on_c, 2, 93, 5
3, 388896, Note_off_c, 2, 93, 0
3, 388896, Note_off_c, 2, 57, 0
3, 388896, Note_off_c, 2, 69, 0
3, 388896, Note_off_c, 2, 81, 0
3, 388992, Note_on_c, 2, 60, 5
3, 388992, Note_on_c, 2, 64, 5
3, 388992, Note_on_c, 2, 72, 5
3, 388992, Note_on_c, 2, 76, 5
3, 388992, Note_on_c, 2, 84, 5
3, 388992, Note_on_c, 2, 88, 5
3, 389088, Note_off_c, 2, 88, 0
3, 389088, Note_off_c, 2, 84, 0
3, 389088, Note_off_c, 2, 76, 0
3, 389088, Note_off_c, 2, 72, 0
3, 389088, Note_off_c, 2, 64, 0
3, 389088, Note_off_c, 2, 60, 0
3, 389184, Note_on_c, 2, 81, 5
3, 389184, Note_on_c, 2, 69, 5
3, 389184, Note_on_c, 2, 57, 5
3, 389184, Note_on_c, 2, 93, 5
3, 389280, Note_off_c, 2, 93, 0
3, 389280, Note_off_c, 2, 57, 0
3, 389280, Note_off_c, 2, 69, 0
3, 389280, Note_off_c, 2, 81, 0
3, 389376, Note_on_c, 2, 60, 5
3, 389376, Note_on_c, 2, 64, 5
3, 389376, Note_on_c, 2, 72, 5
3, 389376, Note_on_c, 2, 76, 5
3, 389376, Note_on_c, 2, 84, 5
3, 389376, Note_on_c, 2, 88, 5
3, 389472, Note_off_c, 2, 88, 0
3, 389472, Note_off_c, 2, 84, 0
3, 389472, Note_off_c, 2, 76, 0
3, 389472, Note_off_c, 2, 72, 0
3, 389472, Note_off_c, 2, 64, 0
3, 389472, Note_off_c, 2, 60, 0
3, 389568, Note_on_c, 2, 81, 5
3, 389568, Note_on_c, 2, 69, 5
3, 389568, Note_on_c, 2, 57, 5
3, 389568, Note_on_c, 2, 93, 5
3, 389664, Note_off_c, 2, 93, 0
3, 389664, Note_off_c, 2, 57, 0
3, 389664, Note_off_c, 2, 69, 0
3, 389664, Note_off_c, 2, 81, 0
3, 389760, Note_on_c, 2, 60, 5
3, 389760, Note_on_c, 2, 64, 5
3, 389760, Note_on_c, 2, 72, 5
3, 389760, Note_on_c, 2, 76, 5
3, 389760, Note_on_c, 2, 84, 5
3, 389760, Note_on_c, 2, 88, 5
3, 389856, Note_off_c, 2, 88, 0
3, 389856, Note_off_c, 2, 84, 0
3, 389856, Note_off_c, 2, 76, 0
3, 389856, Note_off_c, 2, 72, 0
3, 389856, Note_off_c, 2, 64, 0
3, 389856, Note_off_c, 2, 60, 0
3, 389952, Note_on_c, 2, 81, 5
3, 389952, Note_on_c, 2, 69, 5
3, 389952, Note_on_c, 2, 57, 5
3, 389952, Note_on_c, 2, 93, 5
3, 390048, Note_off_c, 2, 93, 0
3, 390048, Note_off_c, 2, 57, 0
3, 390048, Note_off_c, 2, 69, 0
3, 390048, Note_off_c, 2, 81, 0
3, 390144, Note_on_c, 2, 60, 5
3, 390144, Note_on_c, 2, 64, 5
3, 390144, Note_on_c, 2, 72, 5
3, 390144, Note_on_c, 2, 76, 5
3, 390144, Note_on_c, 2, 84, 5
3, 390144, Note_on_c, 2, 88, 5
3, 390240, Note_off_c, 2, 88, 0
3, 390240, Note_off_c, 2, 84, 0
3, 390240, Note_off_c, 2, 76, 0
3, 390240, Note_off_c, 2, 72, 0
3, 390240, Note_off_c, 2, 64, 0
3, 390240, Note_off_c, 2, 60, 0
3, 390336, Note_on_c, 2, 81, 5
3, 390336, Note_on_c, 2, 69, 5
3, 390336, Note_on_c, 2, 57, 5
3, 390336, Note_on_c, 2, 93, 5
3, 390432, Note_off_c, 2, 93, 0
3, 390432, Note_off_c, 2, 57, 0
3, 390432, Note_off_c, 2, 69, 0
3, 390432, Note_off_c, 2, 81, 0
3, 390528, Note_on_c, 2, 60, 5
3, 390528, Note_on_c, 2, 64, 5
3, 390528, Note_on_c, 2, 72, 5
3, 390528, Note_on_c, 2, 76, 5
3, 390528, Note_on_c, 2, 84, 5
3, 390528, Note_on_c, 2, 88, 5
3, 390624, Note_off_c, 2, 88, 0
3, 390624, Note_off_c, 2, 84, 0
3, 390624, Note_off_c, 2, 76, 0
3, 390624, Note_off_c, 2, 72, 0
3, 390624, Note_off_c, 2, 64, 0
3, 390624, Note_off_c, 2, 60, 0
3, 390720, Note_on_c, 2, 81, 5
3, 390720, Note_on_c, 2, 69, 5
3, 390720, Note_on_c, 2, 57, 5
3, 390720, Note_on_c, 2, 93, 5
3, 390816, Note_off_c, 2, 93, 0
3, 390816, Note_off_c, 2, 57, 0
3, 390816, Note_off_c, 2, 69, 0
3, 390816, Note_off_c, 2, 81, 0
3, 390912, Note_on_c, 2, 60, 5
3, 390912, Note_on_c, 2, 64, 5
3, 390912, Note_on_c, 2, 72, 5
3, 390912, Note_on_c, 2, 76, 5
3, 390912, Note_on_c, 2, 84, 5
3, 390912, Note_on_c, 2, 88, 5
3, 391008, Note_off_c, 2, 88, 0
3, 391008, Note_off_c, 2, 84, 0
3, 391008, Note_off_c, 2, 76, 0
3, 391008, Note_off_c, 2, 72, 0
3, 391008, Note_off_c, 2, 64, 0
3, 391008, Note_off_c, 2, 60, 0
3, 391104, Note_on_c, 2, 81, 5
3, 391104, Note_on_c, 2, 69, 5
3, 391104, Note_on_c, 2, 57, 5
3, 391104, Note_on_c, 2, 93, 5
3, 391200, Note_off_c, 2, 93, 0
3, 391200, Note_off_c, 2, 57, 0
3, 391200, Note_off_c, 2, 69, 0
3, 391200, Note_off_c, 2, 81, 0
3, 391296, Note_on_c, 2, 60, 5
3, 391296, Note_on_c, 2, 64, 5
3, 391296, Note_on_c, 2, 72, 5
3, 391296, Note_on_c, 2, 76, 5
3, 391296, Note_on_c, 2, 84, 5
3, 391296, Note_on_c, 2, 88, 5
3, 391392, Note_off_c, 2, 88, 0
3, 391392, Note_off_c, 2, 84, 0
3, 391392, Note_off_c, 2, 76, 0
3, 391392, Note_off_c, 2, 72, 0
3, 391392, Note_off_c, 2, 64, 0
3, 391392, Note_off_c, 2, 60, 0
3, 391488, Note_on_c, 2, 81, 5
3, 391488, Note_on_c, 2, 69, 5
3, 391488, Note_on_c, 2, 57, 5
3, 391488, Note_on_c, 2, 93, 5
3, 391584, Note_off_c, 2, 93, 0
3, 391584, Note_off_c, 2, 57, 0
3, 391584, Note_off_c, 2, 69, 0
3, 391584, Note_off_c, 2, 81, 0
3, 391680, Note_on_c, 2, 60, 5
3, 391680, Note_on_c, 2, 64, 5
3, 391680, Note_on_c, 2, 72, 5
3, 391680, Note_on_c, 2, 76, 5
3, 391680, Note_on_c, 2, 84, 5
3, 391680, Note_on_c, 2, 88, 5
3, 391776, Note_off_c, 2, 88, 0
3, 391776, Note_off_c, 2, 84, 0
3, 391776, Note_off_c, 2, 76, 0
3, 391776, Note_off_c, 2, 72, 0
3, 391776, Note_off_c, 2, 64, 0
3, 391776, Note_off_c, 2, 60, 0
3, 391872, Note_on_c, 2, 81, 5
3, 391872, Note_on_c, 2, 69, 5
3, 391872, Note_on_c, 2, 57, 5
3, 391872, Note_on_c, 2, 93, 5
3, 391968, Note_off_c, 2, 93, 0
3, 391968, Note_off_c, 2, 57, 0
3, 391968, Note_off_c, 2, 69, 0
3, 391968, Note_off_c, 2, 81, 0
3, 392064, Note_on_c, 2, 60, 5
3, 392064, Note_on_c, 2, 64, 5
3, 392064, Note_on_c, 2, 72, 5
3, 392064, Note_on_c, 2, 76, 5
3, 392064, Note_on_c, 2, 84, 5
3, 392064, Note_on_c, 2, 88, 5
3, 392160, Note_off_c, 2, 88, 0
3, 392160, Note_off_c, 2, 84, 0
3, 392160, Note_off_c, 2, 76, 0
3, 392160, Note_off_c, 2, 72, 0
3, 392160, Note_off_c, 2, 64, 0
3, 392160, Note_off_c, 2, 60, 0
3, 392256, Note_on_c, 2, 81, 5
3, 392256, Note_on_c, 2, 69, 5
3, 392256, Note_on_c, 2, 57, 5
3, 392256, Note_on_c, 2, 93, 5
3, 392352, Note_off_c, 2, 93, 0
3, 392352, Note_off_c, 2, 57, 0
3, 392352, Note_off_c, 2, 69, 0
3, 392352, Note_off_c, 2, 81, 0
3, 392448, Note_on_c, 2, 60, 5
3, 392448, Note_on_c, 2, 64, 5
3, 392448, Note_on_c, 2, 72, 5
3, 392448, Note_on_c, 2, 76, 5
3, 392448, Note_on_c, 2, 84, 5
3, 392448, Note_on_c, 2, 88, 5
3, 392544, Note_off_c, 2, 88, 0
3, 392544, Note_off_c, 2, 84, 0
3, 392544, Note_off_c, 2, 76, 0
3, 392544, Note_off_c, 2, 72, 0
3, 392544, Note_off_c, 2, 64, 0
3, 392544, Note_off_c, 2, 60, 0
3, 392640, Note_on_c, 2, 81, 5
3, 392640, Note_on_c, 2, 69, 5
3, 392640, Note_on_c, 2, 57, 5
3, 392640, Note_on_c, 2, 93, 5
3, 392736, Note_off_c, 2, 93, 0
3, 392736, Note_off_c, 2, 57, 0
3, 392736, Note_off_c, 2, 69, 0
3, 392736, Note_off_c, 2, 81, 0
3, 392832, Note_on_c, 2, 60, 5
3, 392832, Note_on_c, 2, 64, 5
3, 392832, Note_on_c, 2, 72, 5
3, 392832, Note_on_c, 2, 76, 5
3, 392832, Note_on_c, 2, 84, 5
3, 392832, Note_on_c, 2, 88, 5
3, 392928, Note_off_c, 2, 88, 0
3, 392928, Note_off_c, 2, 84, 0
3, 392928, Note_off_c, 2, 76, 0
3, 392928, Note_off_c, 2, 72, 0
3, 392928, Note_off_c, 2, 64, 0
3, 392928, Note_off_c, 2, 60, 0
3, 393024, Note_on_c, 2, 81, 5
3, 393024, Note_on_c, 2, 69, 5
3, 393024, Note_on_c, 2, 57, 5
3, 393024, Note_on_c, 2, 93, 5
3, 393120, Note_off_c, 2, 93, 0
3, 393120, Note_off_c, 2, 57, 0
3, 393120, Note_off_c, 2, 69, 0
3, 393120, Note_off_c, 2, 81, 0
3, 393216, Note_on_c, 2, 62, 5
3, 393216, Note_on_c, 2, 65, 5
3, 393216, Note_on_c, 2, 74, 5
3, 393216, Note_on_c, 2, 77, 5
3, 393216, Note_on_c, 2, 86, 5
3, 393216, Note_on_c, 2, 89, 5
3, 393312, Note_off_c, 2, 89, 0
3, 393312, Note_off_c, 2, 86, 0
3, 393312, Note_off_c, 2, 77, 0
3, 393312, Note_off_c, 2, 74, 0
3, 393312, Note_off_c, 2, 65, 0
3, 393312, Note_off_c, 2, 62, 0
3, 393408, Note_on_c, 2, 81, 5
3, 393408, Note_on_c, 2, 69, 5
3, 393408, Note_on_c, 2, 57, 5
3, 393408, Note_on_c, 2, 93, 5
3, 393504, Note_off_c, 2, 93, 0
3, 393504, Note_off_c, 2, 57, 0
3, 393504, Note_off_c, 2, 69, 0
3, 393504, Note_off_c, 2, 81, 0
3, 393600, Note_on_c, 2, 62, 5
3, 393600, Note_on_c, 2, 65, 5
3, 393600, Note_on_c, 2, 74, 5
3, 393600, Note_on_c, 2, 77, 5
3, 393600, Note_on_c, 2, 86, 5
3, 393600, Note_on_c, 2, 89, 5
3, 393696, Note_off_c, 2, 89, 0
3, 393696, Note_off_c, 2, 86, 0
3, 393696, Note_off_c, 2, 77, 0
3, 393696, Note_off_c, 2, 74, 0
3, 393696, Note_off_c, 2, 65, 0
3, 393696, Note_off_c, 2, 62, 0
3, 393792, Note_on_c, 2, 81, 5
3, 393792, Note_on_c, 2, 69, 5
3, 393792, Note_on_c, 2, 57, 5
3, 393792, Note_on_c, 2, 93, 5
3, 393888, Note_off_c, 2, 93, 0
3, 393888, Note_off_c, 2, 57, 0
3, 393888, Note_off_c, 2, 69, 0
3, 393888, Note_off_c, 2, 81, 0
3, 393984, Note_on_c, 2, 62, 5
3, 393984, Note_on_c, 2, 65, 5
3, 393984, Note_on_c, 2, 74, 5
3, 393984, Note_on_c, 2, 77, 5
3, 393984, Note_on_c, 2, 86, 5
3, 393984, Note_on_c, 2, 89, 5
3, 394080, Note_off_c, 2, 89, 0
3, 394080, Note_off_c, 2, 86, 0
3, 394080, Note_off_c, 2, 77, 0
3, 394080, Note_off_c, 2, 74, 0
3, 394080, Note_off_c, 2, 65, 0
3, 394080, Note_off_c, 2, 62, 0
3, 394176, Note_on_c, 2, 81, 5
3, 394176, Note_on_c, 2, 69, 5
3, 394176, Note_on_c, 2, 57, 5
3, 394176, Note_on_c, 2, 93, 5
3, 394272, Note_off_c, 2, 93, 0
3, 394272, Note_off_c, 2, 57, 0
3, 394272, Note_off_c, 2, 69, 0
3, 394272, Note_off_c, 2, 81, 0
3, 394368, Note_on_c, 2, 62, 5
3, 394368, Note_on_c, 2, 65, 5
3, 394368, Note_on_c, 2, 74, 5
3, 394368, Note_on_c, 2, 77, 5
3, 394368, Note_on_c, 2, 86, 5
3, 394368, Note_on_c, 2, 89, 5
3, 394464, Note_off_c, 2, 89, 0
3, 394464, Note_off_c, 2, 86, 0
3, 394464, Note_off_c, 2, 77, 0
3, 394464, Note_off_c, 2, 74, 0
3, 394464, Note_off_c, 2, 65, 0
3, 394464, Note_off_c, 2, 62, 0
3, 394560, Note_on_c, 2, 81, 5
3, 394560, Note_on_c, 2, 69, 5
3, 394560, Note_on_c, 2, 57, 5
3, 394560, Note_on_c, 2, 93, 5
3, 394656, Note_off_c, 2, 93, 0
3, 394656, Note_off_c, 2, 57, 0
3, 394656, Note_off_c, 2, 69, 0
3, 394656, Note_off_c, 2, 81, 0
3, 394752, Note_on_c, 2, 62, 5
3, 394752, Note_on_c, 2, 65, 5
3, 394752, Note_on_c, 2, 74, 5
3, 394752, Note_on_c, 2, 77, 5
3, 394752, Note_on_c, 2, 86, 5
3, 394752, Note_on_c, 2, 89, 5
3, 394848, Note_off_c, 2, 89, 0
3, 394848, Note_off_c, 2, 86, 0
3, 394848, Note_off_c, 2, 77, 0
3, 394848, Note_off_c, 2, 74, 0
3, 394848, Note_off_c, 2, 65, 0
3, 394848, Note_off_c, 2, 62, 0
3, 394944, Note_on_c, 2, 81, 5
3, 394944, Note_on_c, 2, 69, 5
3, 394944, Note_on_c, 2, 57, 5
3, 394944, Note_on_c, 2, 93, 5
3, 395040, Note_off_c, 2, 93, 0
3, 395040, Note_off_c, 2, 57, 0
3, 395040, Note_off_c, 2, 69, 0
3, 395040, Note_off_c, 2, 81, 0
3, 395136, Note_on_c, 2, 62, 5
3, 395136, Note_on_c, 2, 65, 5
3, 395136, Note_on_c, 2, 74, 5
3, 395136, Note_on_c, 2, 77, 5
3, 395136, Note_on_c, 2, 86, 5
3, 395136, Note_on_c, 2, 89, 5
3, 395232, Note_off_c, 2, 89, 0
3, 395232, Note_off_c, 2, 86, 0
3, 395232, Note_off_c, 2, 77, 0
3, 395232, Note_off_c, 2, 74, 0
3, 395232, Note_off_c, 2, 65, 0
3, 395232, Note_off_c, 2, 62, 0
3, 395328, Note_on_c, 2, 81, 5
3, 395328, Note_on_c, 2, 69, 5
3, 395328, Note_on_c, 2, 57, 5
3, 395328, Note_on_c, 2, 93, 5
3, 395424, Note_off_c, 2, 93, 0
3, 395424, Note_off_c, 2, 57, 0
3, 395424, Note_off_c, 2, 69, 0
3, 395424, Note_off_c, 2, 81, 0
3, 395520, Note_on_c, 2, 62, 5
3, 395520, Note_on_c, 2, 65, 5
3, 395520, Note_on_c, 2, 74, 5
3, 395520, Note_on_c, 2, 77, 5
3, 395520, Note_on_c, 2, 86, 5
3, 395520, Note_on_c, 2, 89, 5
3, 395616, Note_off_c, 2, 89, 0
3, 395616, Note_off_c, 2, 86, 0
3, 395616, Note_off_c, 2, 77, 0
3, 395616, Note_off_c, 2, 74, 0
3, 395616, Note_off_c, 2, 65, 0
3, 395616, Note_off_c, 2, 62, 0
3, 395712, Note_on_c, 2, 81, 5
3, 395712, Note_on_c, 2, 69, 5
3, 395712, Note_on_c, 2, 57, 5
3, 395712, Note_on_c, 2, 93, 5
3, 395808, Note_off_c, 2, 93, 0
3, 395808, Note_off_c, 2, 57, 0
3, 395808, Note_off_c, 2, 69, 0
3, 395808, Note_off_c, 2, 81, 0
3, 395904, Note_on_c, 2, 62, 5
3, 395904, Note_on_c, 2, 65, 5
3, 395904, Note_on_c, 2, 74, 5
3, 395904, Note_on_c, 2, 77, 5
3, 395904, Note_on_c, 2, 86, 5
3, 395904, Note_on_c, 2, 89, 5
3, 396000, Note_off_c, 2, 89, 0
3, 396000, Note_off_c, 2, 86, 0
3, 396000, Note_off_c, 2, 77, 0
3, 396000, Note_off_c, 2, 74, 0
3, 396000, Note_off_c, 2, 65, 0
3, 396000, Note_off_c, 2, 62, 0
3, 396096, Note_on_c, 2, 81, 5
3, 396096, Note_on_c, 2, 69, 5
3, 396096, Note_on_c, 2, 57, 5
3, 396096, Note_on_c, 2, 93, 5
3, 396192, Note_off_c, 2, 93, 0
3, 396192, Note_off_c, 2, 57, 0
3, 396192, Note_off_c, 2, 69, 0
3, 396192, Note_off_c, 2, 81, 0
3, 396288, Note_on_c, 2, 62, 5
3, 396288, Note_on_c, 2, 59, 5
3, 396288, Note_on_c, 2, 74, 5
3, 396288, Note_on_c, 2, 71, 5
3, 396288, Note_on_c, 2, 86, 5
3, 396288, Note_on_c, 2, 83, 5
3, 396384, Note_off_c, 2, 83, 0
3, 396384, Note_off_c, 2, 86, 0
3, 396384, Note_off_c, 2, 71, 0
3, 396384, Note_off_c, 2, 74, 0
3, 396384, Note_off_c, 2, 59, 0
3, 396384, Note_off_c, 2, 62, 0
3, 396480, Note_on_c, 2, 80, 5
3, 396480, Note_on_c, 2, 68, 5
3, 396480, Note_on_c, 2, 56, 5
3, 396480, Note_on_c, 2, 92, 5
3, 396576, Note_off_c, 2, 92, 0
3, 396576, Note_off_c, 2, 56, 0
3, 396576, Note_off_c, 2, 68, 0
3, 396576, Note_off_c, 2, 80, 0
3, 396672, Note_on_c, 2, 62, 5
3, 396672, Note_on_c, 2, 59, 5
3, 396672, Note_on_c, 2, 74, 5
3, 396672, Note_on_c, 2, 71, 5
3, 396672, Note_on_c, 2, 86, 5
3, 396672, Note_on_c, 2, 83, 5
3, 396768, Note_off_c, 2, 83, 0
3, 396768, Note_off_c, 2, 86, 0
3, 396768, Note_off_c, 2, 71, 0
3, 396768, Note_off_c, 2, 74, 0
3, 396768, Note_off_c, 2, 59, 0
3, 396768, Note_off_c, 2, 62, 0
3, 396864, Note_on_c, 2, 80, 5
3, 396864, Note_on_c, 2, 68, 5
3, 396864, Note_on_c, 2, 56, 5
3, 396864, Note_on_c, 2, 92, 5
3, 396960, Note_off_c, 2, 92, 0
3, 396960, Note_off_c, 2, 56, 0
3, 396960, Note_off_c, 2, 68, 0
3, 396960, Note_off_c, 2, 80, 0
3, 397056, Note_on_c, 2, 62, 5
3, 397056, Note_on_c, 2, 59, 5
3, 397056, Note_on_c, 2, 74, 5
3, 397056, Note_on_c, 2, 71, 5
3, 397056, Note_on_c, 2, 86, 5
3, 397056, Note_on_c, 2, 83, 5
3, 397152, Note_off_c, 2, 83, 0
3, 397152, Note_off_c, 2, 86, 0
3, 397152, Note_off_c, 2, 71, 0
3, 397152, Note_off_c, 2, 74, 0
3, 397152, Note_off_c, 2, 59, 0
3, 397152, Note_off_c, 2, 62, 0
3, 397248, Note_on_c, 2, 80, 5
3, 397248, Note_on_c, 2, 68, 5
3, 397248, Note_on_c, 2, 56, 5
3, 397248, Note_on_c, 2, 92, 5
3, 397344, Note_off_c, 2, 92, 0
3, 397344, Note_off_c, 2, 56, 0
3, 397344, Note_off_c, 2, 68, 0
3, 397344, Note_off_c, 2, 80, 0
3, 397440, Note_on_c, 2, 62, 5
3, 397440, Note_on_c, 2, 59, 5
3, 397440, Note_on_c, 2, 74, 5
3, 397440, Note_on_c, 2, 71, 5
3, 397440, Note_on_c, 2, 86, 5
3, 397440, Note_on_c, 2, 83, 5
3, 397536, Note_off_c, 2, 83, 0
3, 397536, Note_off_c, 2, 86, 0
3, 397536, Note_off_c, 2, 71, 0
3, 397536, Note_off_c, 2, 74, 0
3, 397536, Note_off_c, 2, 59, 0
3, 397536, Note_off_c, 2, 62, 0
3, 397632, Note_on_c, 2, 80, 5
3, 397632, Note_on_c, 2, 68, 5
3, 397632, Note_on_c, 2, 56, 5
3, 397632, Note_on_c, 2, 92, 5
3, 397728, Note_off_c, 2, 92, 0
3, 397728, Note_off_c, 2, 56, 0
3, 397728, Note_off_c, 2, 68, 0
3, 397728, Note_off_c, 2, 80, 0
3, 397824, Note_on_c, 2, 62, 5
3, 397824, Note_on_c, 2, 59, 5
3, 397824, Note_on_c, 2, 74, 5
3, 397824, Note_on_c, 2, 71, 5
3, 397824, Note_on_c, 2, 86, 5
3, 397824, Note_on_c, 2, 83, 5
3, 397920, Note_off_c, 2, 83, 0
3, 397920, Note_off_c, 2, 86, 0
3, 397920, Note_off_c, 2, 71, 0
3, 397920, Note_off_c, 2, 74, 0
3, 397920, Note_off_c, 2, 59, 0
3, 397920, Note_off_c, 2, 62, 0
3, 398016, Note_on_c, 2, 80, 5
3, 398016, Note_on_c, 2, 68, 5
3, 398016, Note_on_c, 2, 56, 5
3, 398016, Note_on_c, 2, 92, 5
3, 398112, Note_off_c, 2, 92, 0
3, 398112, Note_off_c, 2, 56, 0
3, 398112, Note_off_c, 2, 68, 0
3, 398112, Note_off_c, 2, 80, 0
3, 398208, Note_on_c, 2, 62, 5
3, 398208, Note_on_c, 2, 59, 5
3, 398208, Note_on_c, 2, 74, 5
3, 398208, Note_on_c, 2, 71, 5
3, 398208, Note_on_c, 2, 86, 5
3, 398208, Note_on_c, 2, 83, 5
3, 398304, Note_off_c, 2, 83, 0
3, 398304, Note_off_c, 2, 86, 0
3, 398304, Note_off_c, 2, 71, 0
3, 398304, Note_off_c, 2, 74, 0
3, 398304, Note_off_c, 2, 59, 0
3, 398304, Note_off_c, 2, 62, 0
3, 398400, Note_on_c, 2, 80, 5
3, 398400, Note_on_c, 2, 68, 5
3, 398400, Note_on_c, 2, 56, 5
3, 398400, Note_on_c, 2, 92, 5
3, 398496, Note_off_c, 2, 92, 0
3, 398496, Note_off_c, 2, 56, 0
3, 398496, Note_off_c, 2, 68, 0
3, 398496, Note_off_c, 2, 80, 0
3, 398592, Note_on_c, 2, 62, 5
3, 398592, Note_on_c, 2, 59, 5
3, 398592, Note_on_c, 2, 74, 5
3, 398592, Note_on_c, 2, 71, 5
3, 398592, Note_on_c, 2, 86, 5
3, 398592, Note_on_c, 2, 83, 5
3, 398688, Note_off_c, 2, 83, 0
3, 398688, Note_off_c, 2, 86, 0
3, 398688, Note_off_c, 2, 71, 0
3, 398688, Note_off_c, 2, 74, 0
3, 398688, Note_off_c, 2, 59, 0
3, 398688, Note_off_c, 2, 62, 0
3, 398784, Note_on_c, 2, 80, 5
3, 398784, Note_on_c, 2, 68, 5
3, 398784, Note_on_c, 2, 56, 5
3, 398784, Note_on_c, 2, 92, 5
3, 398880, Note_off_c, 2, 92, 0
3, 398880, Note_off_c, 2, 56, 0
3, 398880, Note_off_c, 2, 68, 0
3, 398880, Note_off_c, 2, 80, 0
3, 398976, Note_on_c, 2, 62, 5
3, 398976, Note_on_c, 2, 59, 5
3, 398976, Note_on_c, 2, 74, 5
3, 398976, Note_on_c, 2, 71, 5
3, 398976, Note_on_c, 2, 86, 5
3, 398976, Note_on_c, 2, 83, 5
3, 399072, Note_off_c, 2, 83, 0
3, 399072, Note_off_c, 2, 86, 0
3, 399072, Note_off_c, 2, 71, 0
3, 399072, Note_off_c, 2, 74, 0
3, 399072, Note_off_c, 2, 59, 0
3, 399072, Note_off_c, 2, 62, 0
3, 399168, Note_on_c, 2, 80, 5
3, 399168, Note_on_c, 2, 68, 5
3, 399168, Note_on_c, 2, 56, 5
3, 399168, Note_on_c, 2, 92, 5
3, 399264, Note_off_c, 2, 92, 0
3, 399264, Note_off_c, 2, 56, 0
3, 399264, Note_off_c, 2, 68, 0
3, 399264, Note_off_c, 2, 80, 0
3, 399360, Note_on_c, 2, 60, 5
3, 399360, Note_on_c, 2, 57, 5
3, 399360, Note_on_c, 2, 72, 5
3, 399360, Note_on_c, 2, 69, 5
3, 399360, Note_on_c, 2, 84, 5
3, 399360, Note_on_c, 2, 81, 5
3, 399360, Note_on_c, 2, 88, 5
3, 399360, Note_on_c, 2, 76, 5
3, 399360, Note_on_c, 2, 64, 5
3, 399360, Note_on_c, 2, 93, 5
3, 399456, Note_off_c, 2, 93, 0
3, 399456, Note_off_c, 2, 64, 0
3, 399456, Note_off_c, 2, 76, 0
3, 399456, Note_off_c, 2, 88, 0
3, 399456, Note_off_c, 2, 81, 0
3, 399456, Note_off_c, 2, 84, 0
3, 399456, Note_off_c, 2, 69, 0
3, 399456, Note_off_c, 2, 72, 0
3, 399456, Note_off_c, 2, 57, 0
3, 399456, Note_off_c, 2, 60, 0
3, 454656, Note_on_c, 2, 77, 5
3, 454656, Note_on_c, 2, 73, 5
3, 454656, Note_on_c, 2, 70, 5
3, 454656, Note_on_c, 2, 65, 5
3, 454656, Note_on_c, 2, 61, 5
3, 454656, Note_on_c, 2, 58, 5
3, 454656, Note_on_c, 2, 53, 5
3, 454656, Note_on_c, 2, 49, 5
3, 454656, Note_on_c, 2, 46, 5
3, 454656, Note_on_c, 2, 41, 5
3, 454656, Note_on_c, 2, 37, 5
3, 454656, Note_on_c, 2, 34, 5
3, 454656, Note_on_c, 2, 89, 5
3, 454656, Note_on_c, 2, 85, 5
3, 454656, Note_on_c, 2, 82, 5
3, 454656, Note_on_c, 2, 94, 5
3, 454656, Note_on_c, 2, 29, 5
3, 454656, Note_on_c, 2, 25, 5
3, 454752, Note_off_c, 2, 25, 0
3, 454752, Note_off_c, 2, 29, 0
3, 454752, Note_off_c, 2, 94, 0
3, 454752, Note_off_c, 2, 82, 0
3, 454752, Note_off_c, 2, 85, 0
3, 454752, Note_off_c, 2, 89, 0
3, 454752, Note_off_c, 2, 34, 0
3, 454752, Note_off_c, 2, 37, 0
3, 454752, Note_off_c, 2, 41, 0
3, 454752, Note_off_c, 2, 46, 0
3, 454752, Note_off_c, 2, 49, 0
3, 454752, Note_off_c, 2, 53, 0
3, 454752, Note_off_c, 2, 58, 0
3, 454752, Note_off_c, 2, 61, 0
3, 454752, Note_off_c, 2, 65, 0
3, 454752, Note_off_c, 2, 70, 0
3, 454752, Note_off_c, 2, 73, 0
3, 454752, Note_off_c, 2, 77, 0
3, 454848, Note_on_c, 2, 77, 5
3, 454848, Note_on_c, 2, 73, 5
3, 454848, Note_on_c, 2, 70, 5
3, 454848, Note_on_c, 2, 65, 5
3, 454848, Note_on_c, 2, 61, 5
3, 454848, Note_on_c, 2, 58, 5
3, 454848, Note_on_c, 2, 53, 5
3, 454848, Note_on_c, 2, 49, 5
3, 454848, Note_on_c, 2, 46, 5
3, 454848, Note_on_c, 2, 41, 5
3, 454848, Note_on_c, 2, 37, 5
3, 454848, Note_on_c, 2, 34, 5
3, 454848, Note_on_c, 2, 89, 5
3, 454848, Note_on_c, 2, 85, 5
3, 454848, Note_on_c, 2, 82, 5
3, 454848, Note_on_c, 2, 94, 5
3, 454848, Note_on_c, 2, 29, 5
3, 454848, Note_on_c, 2, 25, 5
3, 454944, Note_off_c, 2, 25, 0
3, 454944, Note_off_c, 2, 29, 0
3, 454944, Note_off_c, 2, 94, 0
3, 454944, Note_off_c, 2, 82, 0
3, 454944, Note_off_c, 2, 85, 0
3, 454944, Note_off_c, 2, 89, 0
3, 454944, Note_off_c, 2, 34, 0
3, 454944, Note_off_c, 2, 37, 0
3, 454944, Note_off_c, 2, 41, 0
3, 454944, Note_off_c, 2, 46, 0
3, 454944, Note_off_c, 2, 49, 0
3, 454944, Note_off_c, 2, 53, 0
3, 454944, Note_off_c, 2, 58, 0
3, 454944, Note_off_c, 2, 61, 0
3, 454944, Note_off_c, 2, 65, 0
3, 454944, Note_off_c, 2, 70, 0
3, 454944, Note_off_c, 2, 73, 0
3, 454944, Note_off_c, 2, 77, 0
3, 455040, Note_on_c, 2, 77, 5
3, 455040, Note_on_c, 2, 73, 5
3, 455040, Note_on_c, 2, 70, 5
3, 455040, Note_on_c, 2, 65, 5
3, 455040, Note_on_c, 2, 61, 5
3, 455040, Note_on_c, 2, 58, 5
3, 455040, Note_on_c, 2, 53, 5
3, 455040, Note_on_c, 2, 49, 5
3, 455040, Note_on_c, 2, 46, 5
3, 455040, Note_on_c, 2, 41, 5
3, 455040, Note_on_c, 2, 37, 5
3, 455040, Note_on_c, 2, 34, 5
3, 455040, Note_on_c, 2, 89, 5
3, 455040, Note_on_c, 2, 85, 5
3, 455040, Note_on_c, 2, 82, 5
3, 455040, Note_on_c, 2, 94, 5
3, 455040, Note_on_c, 2, 29, 5
3, 455040, Note_on_c, 2, 25, 5
3, 455136, Note_off_c, 2, 25, 0
3, 455136, Note_off_c, 2, 29, 0
3, 455136, Note_off_c, 2, 94, 0
3, 455136, Note_off_c, 2, 82, 0
3, 455136, Note_off_c, 2, 85, 0
3, 455136, Note_off_c, 2, 89, 0
3, 455136, Note_off_c, 2, 34, 0
3, 455136, Note_off_c, 2, 37, 0
3, 455136, Note_off_c, 2, 41, 0
3, 455136, Note_off_c, 2, 46, 0
3, 455136, Note_off_c, 2, 49, 0
3, 455136, Note_off_c, 2, 53, 0
3, 455136, Note_off_c, 2, 58, 0
3, 455136, Note_off_c, 2, 61, 0
3, 455136, Note_off_c, 2, 65, 0
3, 455136, Note_off_c, 2, 70, 0
3, 455136, Note_off_c, 2, 73, 0
3, 455136, Note_off_c, 2, 77, 0
3, 455232, Note_on_c, 2, 77, 5
3, 455232, Note_on_c, 2, 73, 5
3, 455232, Note_on_c, 2, 70, 5
3, 455232, Note_on_c, 2, 65, 5
3, 455232, Note_on_c, 2, 61, 5
3, 455232, Note_on_c, 2, 58, 5
3, 455232, Note_on_c, 2, 53, 5
3, 455232, Note_on_c, 2, 49, 5
3, 455232, Note_on_c, 2, 46, 5
3, 455232, Note_on_c, 2, 41, 5
3, 455232, Note_on_c, 2, 37, 5
3, 455232, Note_on_c, 2, 34, 5
3, 455232, Note_on_c, 2, 89, 5
3, 455232, Note_on_c, 2, 85, 5
3, 455232, Note_on_c, 2, 82, 5
3, 455232, Note_on_c, 2, 94, 5
3, 455232, Note_on_c, 2, 29, 5
3, 455232, Note_on_c, 2, 25, 5
3, 455328, Note_off_c, 2, 25, 0
3, 455328, Note_off_c, 2, 29, 0
3, 455328, Note_off_c, 2, 94, 0
3, 455328, Note_off_c, 2, 82, 0
3, 455328, Note_off_c, 2, 85, 0
3, 455328, Note_off_c, 2, 89, 0
3, 455328, Note_off_c, 2, 34, 0
3, 455328, Note_off_c, 2, 37, 0
3, 455328, Note_off_c, 2, 41, 0
3, 455328, Note_off_c, 2, 46, 0
3, 455328, Note_off_c, 2, 49, 0
3, 455328, Note_off_c, 2, 53, 0
3, 455328, Note_off_c, 2, 58, 0
3, 455328, Note_off_c, 2, 61, 0
3, 455328, Note_off_c, 2, 65, 0
3, 455328, Note_off_c, 2, 70, 0
3, 455328, Note_off_c, 2, 73, 0
3, 455328, Note_off_c, 2, 77, 0
3, 455424, Note_on_c, 2, 77, 5
3, 455424, Note_on_c, 2, 73, 5
3, 455424, Note_on_c, 2, 70, 5
3, 455424, Note_on_c, 2, 65, 5
3, 455424, Note_on_c, 2, 61, 5
3, 455424, Note_on_c, 2, 58, 5
3, 455424, Note_on_c, 2, 53, 5
3, 455424, Note_on_c, 2, 49, 5
3, 455424, Note_on_c, 2, 46, 5
3, 455424, Note_on_c, 2, 41, 5
3, 455424, Note_on_c, 2, 37, 5
3, 455424, Note_on_c, 2, 34, 5
3, 455424, Note_on_c, 2, 89, 5
3, 455424, Note_on_c, 2, 85, 5
3, 455424, Note_on_c, 2, 82, 5
3, 455424, Note_on_c, 2, 94, 5
3, 455424, Note_on_c, 2, 29, 5
3, 455424, Note_on_c, 2, 25, 5
3, 455520, Note_off_c, 2, 25, 0
3, 455520, Note_off_c, 2, 29, 0
3, 455520, Note_off_c, 2, 94, 0
3, 455520, Note_off_c, 2, 82, 0
3, 455520, Note_off_c, 2, 85, 0
3, 455520, Note_off_c, 2, 89, 0
3, 455520, Note_off_c, 2, 34, 0
3, 455520, Note_off_c, 2, 37, 0
3, 455520, Note_off_c, 2, 41, 0
3, 455520, Note_off_c, 2, 46, 0
3, 455520, Note_off_c, 2, 49, 0
3, 455520, Note_off_c, 2, 53, 0
3, 455520, Note_off_c, 2, 58, 0
3, 455520, Note_off_c, 2, 61, 0
3, 455520, Note_off_c, 2, 65, 0
3, 455520, Note_off_c, 2, 70, 0
3, 455520, Note_off_c, 2, 73, 0
3, 455520, Note_off_c, 2, 77, 0
3, 455616, Note_on_c, 2, 77, 5
3, 455616, Note_on_c, 2, 73, 5
3, 455616, Note_on_c, 2, 70, 5
3, 455616, Note_on_c, 2, 65, 5
3, 455616, Note_on_c, 2, 61, 5
3, 455616, Note_on_c, 2, 58, 5
3, 455616, Note_on_c, 2, 53, 5
3, 455616, Note_on_c, 2, 49, 5
3, 455616, Note_on_c, 2, 46, 5
3, 455616, Note_on_c, 2, 41, 5
3, 455616, Note_on_c, 2, 37, 5
3, 455616, Note_on_c, 2, 34, 5
3, 455616, Note_on_c, 2, 89, 5
3, 455616, Note_on_c, 2, 85, 5
3, 455616, Note_on_c, 2, 82, 5
3, 455616, Note_on_c, 2, 94, 5
3, 455616, Note_on_c, 2, 29, 5
3, 455616, Note_on_c, 2, 25, 5
3, 455712, Note_off_c, 2, 25, 0
3, 455712, Note_off_c, 2, 29, 0
3, 455712, Note_off_c, 2, 94, 0
3, 455712, Note_off_c, 2, 82, 0
3, 455712, Note_off_c, 2, 85, 0
3, 455712, Note_off_c, 2, 89, 0
3, 455712, Note_off_c, 2, 34, 0
3, 455712, Note_off_c, 2, 37, 0
3, 455712, Note_off_c, 2, 41, 0
3, 455712, Note_off_c, 2, 46, 0
3, 455712, Note_off_c, 2, 49, 0
3, 455712, Note_off_c, 2, 53, 0
3, 455712, Note_off_c, 2, 58, 0
3, 455712, Note_off_c, 2, 61, 0
3, 455712, Note_off_c, 2, 65, 0
3, 455712, Note_off_c, 2, 70, 0
3, 455712, Note_off_c, 2, 73, 0
3, 455712, Note_off_c, 2, 77, 0
3, 455808, Note_on_c, 2, 77, 5
3, 455808, Note_on_c, 2, 73, 5
3, 455808, Note_on_c, 2, 70, 5
3, 455808, Note_on_c, 2, 65, 5
3, 455808, Note_on_c, 2, 61, 5
3, 455808, Note_on_c, 2, 58, 5
3, 455808, Note_on_c, 2, 53, 5
3, 455808, Note_on_c, 2, 49, 5
3, 455808, Note_on_c, 2, 46, 5
3, 455808, Note_on_c, 2, 41, 5
3, 455808, Note_on_c, 2, 37, 5
3, 455808, Note_on_c, 2, 34, 5
3, 455808, Note_on_c, 2, 89, 5
3, 455808, Note_on_c, 2, 85, 5
3, 455808, Note_on_c, 2, 82, 5
3, 455808, Note_on_c, 2, 94, 5
3, 455808, Note_on_c, 2, 29, 5
3, 455808, Note_on_c, 2, 25, 5
3, 455904, Note_off_c, 2, 25, 0
3, 455904, Note_off_c, 2, 29, 0
3, 455904, Note_off_c, 2, 94, 0
3, 455904, Note_off_c, 2, 82, 0
3, 455904, Note_off_c, 2, 85, 0
3, 455904, Note_off_c, 2, 89, 0
3, 455904, Note_off_c, 2, 34, 0
3, 455904, Note_off_c, 2, 37, 0
3, 455904, Note_off_c, 2, 41, 0
3, 455904, Note_off_c, 2, 46, 0
3, 455904, Note_off_c, 2, 49, 0
3, 455904, Note_off_c, 2, 53, 0
3, 455904, Note_off_c, 2, 58, 0
3, 455904, Note_off_c, 2, 61, 0
3, 455904, Note_off_c, 2, 65, 0
3, 455904, Note_off_c, 2, 70, 0
3, 455904, Note_off_c, 2, 73, 0
3, 455904, Note_off_c, 2, 77, 0
3, 456000, Note_on_c, 2, 77, 5
3, 456000, Note_on_c, 2, 73, 5
3, 456000, Note_on_c, 2, 70, 5
3, 456000, Note_on_c, 2, 65, 5
3, 456000, Note_on_c, 2, 61, 5
3, 456000, Note_on_c, 2, 58, 5
3, 456000, Note_on_c, 2, 53, 5
3, 456000, Note_on_c, 2, 49, 5
3, 456000, Note_on_c, 2, 46, 5
3, 456000, Note_on_c, 2, 41, 5
3, 456000, Note_on_c, 2, 37, 5
3, 456000, Note_on_c, 2, 34, 5
3, 456000, Note_on_c, 2, 89, 5
3, 456000, Note_on_c, 2, 85, 5
3, 456000, Note_on_c, 2, 82, 5
3, 456000, Note_on_c, 2, 94, 5
3, 456000, Note_on_c, 2, 29, 5
3, 456000, Note_on_c, 2, 25, 5
3, 456096, Note_off_c, 2, 25, 0
3, 456096, Note_off_c, 2, 29, 0
3, 456096, Note_off_c, 2, 94, 0
3, 456096, Note_off_c, 2, 82, 0
3, 456096, Note_off_c, 2, 85, 0
3, 456096, Note_off_c, 2, 89, 0
3, 456096, Note_off_c, 2, 34, 0
3, 456096, Note_off_c, 2, 37, 0
3, 456096, Note_off_c, 2, 41, 0
3, 456096, Note_off_c, 2, 46, 0
3, 456096, Note_off_c, 2, 49, 0
3, 456096, Note_off_c, 2, 53, 0
3, 456096, Note_off_c, 2, 58, 0
3, 456096, Note_off_c, 2, 61, 0
3, 456096, Note_off_c, 2, 65, 0
3, 456096, Note_off_c, 2, 70, 0
3, 456096, Note_off_c, 2, 73, 0
3, 456096, Note_off_c, 2, 77, 0
3, 456192, Note_on_c, 2, 77, 5
3, 456192, Note_on_c, 2, 73, 5
3, 456192, Note_on_c, 2, 70, 5
3, 456192, Note_on_c, 2, 65, 5
3, 456192, Note_on_c, 2, 61, 5
3, 456192, Note_on_c, 2, 58, 5
3, 456192, Note_on_c, 2, 53, 5
3, 456192, Note_on_c, 2, 49, 5
3, 456192, Note_on_c, 2, 46, 5
3, 456192, Note_on_c, 2, 41, 5
3, 456192, Note_on_c, 2, 37, 5
3, 456192, Note_on_c, 2, 34, 5
3, 456192, Note_on_c, 2, 89, 5
3, 456192, Note_on_c, 2, 85, 5
3, 456192, Note_on_c, 2, 82, 5
3, 456192, Note_on_c, 2, 94, 5
3, 456192, Note_on_c, 2, 29, 5
3, 456192, Note_on_c, 2, 25, 5
3, 456288, Note_off_c, 2, 25, 0
3, 456288, Note_off_c, 2, 29, 0
3, 456288, Note_off_c, 2, 94, 0
3, 456288, Note_off_c, 2, 82, 0
3, 456288, Note_off_c, 2, 85, 0
3, 456288, Note_off_c, 2, 89, 0
3, 456288, Note_off_c, 2, 34, 0
3, 456288, Note_off_c, 2, 37, 0
3, 456288, Note_off_c, 2, 41, 0
3, 456288, Note_off_c, 2, 46, 0
3, 456288, Note_off_c, 2, 49, 0
3, 456288, Note_off_c, 2, 53, 0
3, 456288, Note_off_c, 2, 58, 0
3, 456288, Note_off_c, 2, 61, 0
3, 456288, Note_off_c, 2, 65, 0
3, 456288, Note_off_c, 2, 70, 0
3, 456288, Note_off_c, 2, 73, 0
3, 456288, Note_off_c, 2, 77, 0
3, 456384, Note_on_c, 2, 77, 5
3, 456384, Note_on_c, 2, 73, 5
3, 456384, Note_on_c, 2, 70, 5
3, 456384, Note_on_c, 2, 65, 5
3, 456384, Note_on_c, 2, 61, 5
3, 456384, Note_on_c, 2, 58, 5
3, 456384, Note_on_c, 2, 53, 5
3, 456384, Note_on_c, 2, 49, 5
3, 456384, Note_on_c, 2, 46, 5
3, 456384, Note_on_c, 2, 41, 5
3, 456384, Note_on_c, 2, 37, 5
3, 456384, Note_on_c, 2, 34, 5
3, 456384, Note_on_c, 2, 89, 5
3, 456384, Note_on_c, 2, 85, 5
3, 456384, Note_on_c, 2, 82, 5
3, 456384, Note_on_c, 2, 94, 5
3, 456384, Note_on_c, 2, 29, 5
3, 456384, Note_on_c, 2, 25, 5
3, 456480, Note_off_c, 2, 25, 0
3, 456480, Note_off_c, 2, 29, 0
3, 456480, Note_off_c, 2, 94, 0
3, 456480, Note_off_c, 2, 82, 0
3, 456480, Note_off_c, 2, 85, 0
3, 456480, Note_off_c, 2, 89, 0
3, 456480, Note_off_c, 2, 34, 0
3, 456480, Note_off_c, 2, 37, 0
3, 456480, Note_off_c, 2, 41, 0
3, 456480, Note_off_c, 2, 46, 0
3, 456480, Note_off_c, 2, 49, 0
3, 456480, Note_off_c, 2, 53, 0
3, 456480, Note_off_c, 2, 58, 0
3, 456480, Note_off_c, 2, 61, 0
3, 456480, Note_off_c, 2, 65, 0
3, 456480, Note_off_c, 2, 70, 0
3, 456480, Note_off_c, 2, 73, 0
3, 456480, Note_off_c, 2, 77, 0
3, 456576, Note_on_c, 2, 77, 5
3, 456576, Note_on_c, 2, 73, 5
3, 456576, Note_on_c, 2, 70, 5
3, 456576, Note_on_c, 2, 65, 5
3, 456576, Note_on_c, 2, 61, 5
3, 456576, Note_on_c, 2, 58, 5
3, 456576, Note_on_c, 2, 53, 5
3, 456576, Note_on_c, 2, 49, 5
3, 456576, Note_on_c, 2, 46, 5
3, 456576, Note_on_c, 2, 41, 5
3, 456576, Note_on_c, 2, 37, 5
3, 456576, Note_on_c, 2, 34, 5
3, 456576, Note_on_c, 2, 89, 5
3, 456576, Note_on_c, 2, 85, 5
3, 456576, Note_on_c, 2, 82, 5
3, 456576, Note_on_c, 2, 94, 5
3, 456576, Note_on_c, 2, 29, 5
3, 456576, Note_on_c, 2, 25, 5
3, 456672, Note_off_c, 2, 25, 0
3, 456672, Note_off_c, 2, 29, 0
3, 456672, Note_off_c, 2, 94, 0
3, 456672, Note_off_c, 2, 82, 0
3, 456672, Note_off_c, 2, 85, 0
3, 456672, Note_off_c, 2, 89, 0
3, 456672, Note_off_c, 2, 34, 0
3, 456672, Note_off_c, 2, 37, 0
3, 456672, Note_off_c, 2, 41, 0
3, 456672, Note_off_c, 2, 46, 0
3, 456672, Note_off_c, 2, 49, 0
3, 456672, Note_off_c, 2, 53, 0
3, 456672, Note_off_c, 2, 58, 0
3, 456672, Note_off_c, 2, 61, 0
3, 456672, Note_off_c, 2, 65, 0
3, 456672, Note_off_c, 2, 70, 0
3, 456672, Note_off_c, 2, 73, 0
3, 456672, Note_off_c, 2, 77, 0
3, 456768, Note_on_c, 2, 77, 5
3, 456768, Note_on_c, 2, 73, 5
3, 456768, Note_on_c, 2, 70, 5
3, 456768, Note_on_c, 2, 65, 5
3, 456768, Note_on_c, 2, 61, 5
3, 456768, Note_on_c, 2, 58, 5
3, 456768, Note_on_c, 2, 53, 5
3, 456768, Note_on_c, 2, 49, 5
3, 456768, Note_on_c, 2, 46, 5
3, 456768, Note_on_c, 2, 41, 5
3, 456768, Note_on_c, 2, 37, 5
3, 456768, Note_on_c, 2, 34, 5
3, 456768, Note_on_c, 2, 89, 5
3, 456768, Note_on_c, 2, 85, 5
3, 456768, Note_on_c, 2, 82, 5
3, 456768, Note_on_c, 2, 94, 5
3, 456768, Note_on_c, 2, 29, 5
3, 456768, Note_on_c, 2, 25, 5
3, 456864, Note_off_c, 2, 25, 0
3, 456864, Note_off_c, 2, 29, 0
3, 456864, Note_off_c, 2, 94, 0
3, 456864, Note_off_c, 2, 82, 0
3, 456864, Note_off_c, 2, 85, 0
3, 456864, Note_off_c, 2, 89, 0
3, 456864, Note_off_c, 2, 34, 0
3, 456864, Note_off_c, 2, 37, 0
3, 456864, Note_off_c, 2, 41, 0
3, 456864, Note_off_c, 2, 46, 0
3, 456864, Note_off_c, 2, 49, 0
3, 456864, Note_off_c, 2, 53, 0
3, 456864, Note_off_c, 2, 58, 0
3, 456864, Note_off_c, 2, 61, 0
3, 456864, Note_off_c, 2, 65, 0
3, 456864, Note_off_c, 2, 70, 0
3, 456864, Note_off_c, 2, 73, 0
3, 456864, Note_off_c, 2, 77, 0
3, 456960, Note_on_c, 2, 77, 5
3, 456960, Note_on_c, 2, 73, 5
3, 456960, Note_on_c, 2, 70, 5
3, 456960, Note_on_c, 2, 65, 5
3, 456960, Note_on_c, 2, 61, 5
3, 456960, Note_on_c, 2, 58, 5
3, 456960, Note_on_c, 2, 53, 5
3, 456960, Note_on_c, 2, 49, 5
3, 456960, Note_on_c, 2, 46, 5
3, 456960, Note_on_c, 2, 41, 5
3, 456960, Note_on_c, 2, 37, 5
3, 456960, Note_on_c, 2, 34, 5
3, 456960, Note_on_c, 2, 89, 5
3, 456960, Note_on_c, 2, 85, 5
3, 456960, Note_on_c, 2, 82, 5
3, 456960, Note_on_c, 2, 94, 5
3, 456960, Note_on_c, 2, 29, 5
3, 456960, Note_on_c, 2, 25, 5
3, 457056, Note_off_c, 2, 25, 0
3, 457056, Note_off_c, 2, 29, 0
3, 457056, Note_off_c, 2, 94, 0
3, 457056, Note_off_c, 2, 82, 0
3, 457056, Note_off_c, 2, 85, 0
3, 457056, Note_off_c, 2, 89, 0
3, 457056, Note_off_c, 2, 34, 0
3, 457056, Note_off_c, 2, 37, 0
3, 457056, Note_off_c, 2, 41, 0
3, 457056, Note_off_c, 2, 46, 0
3, 457056, Note_off_c, 2, 49, 0
3, 457056, Note_off_c, 2, 53, 0
3, 457056, Note_off_c, 2, 58, 0
3, 457056, Note_off_c, 2, 61, 0
3, 457056, Note_off_c, 2, 65, 0
3, 457056, Note_off_c, 2, 70, 0
3, 457056, Note_off_c, 2, 73, 0
3, 457056, Note_off_c, 2, 77, 0
3, 457152, Note_on_c, 2, 77, 5
3, 457152, Note_on_c, 2, 73, 5
3, 457152, Note_on_c, 2, 70, 5
3, 457152, Note_on_c, 2, 65, 5
3, 457152, Note_on_c, 2, 61, 5
3, 457152, Note_on_c, 2, 58, 5
3, 457152, Note_on_c, 2, 53, 5
3, 457152, Note_on_c, 2, 49, 5
3, 457152, Note_on_c, 2, 46, 5
3, 457152, Note_on_c, 2, 41, 5
3, 457152, Note_on_c, 2, 37, 5
3, 457152, Note_on_c, 2, 34, 5
3, 457152, Note_on_c, 2, 89, 5
3, 457152, Note_on_c, 2, 85, 5
3, 457152, Note_on_c, 2, 82, 5
3, 457152, Note_on_c, 2, 94, 5
3, 457152, Note_on_c, 2, 29, 5
3, 457152, Note_on_c, 2, 25, 5
3, 457248, Note_off_c, 2, 25, 0
3, 457248, Note_off_c, 2, 29, 0
3, 457248, Note_off_c, 2, 94, 0
3, 457248, Note_off_c, 2, 82, 0
3, 457248, Note_off_c, 2, 85, 0
3, 457248, Note_off_c, 2, 89, 0
3, 457248, Note_off_c, 2, 34, 0
3, 457248, Note_off_c, 2, 37, 0
3, 457248, Note_off_c, 2, 41, 0
3, 457248, Note_off_c, 2, 46, 0
3, 457248, Note_off_c, 2, 49, 0
3, 457248, Note_off_c, 2, 53, 0
3, 457248, Note_off_c, 2, 58, 0
3, 457248, Note_off_c, 2, 61, 0
3, 457248, Note_off_c, 2, 65, 0
3, 457248, Note_off_c, 2, 70, 0
3, 457248, Note_off_c, 2, 73, 0
3, 457248, Note_off_c, 2, 77, 0
3, 457344, Note_on_c, 2, 77, 5
3, 457344, Note_on_c, 2, 73, 5
3, 457344, Note_on_c, 2, 70, 5
3, 457344, Note_on_c, 2, 65, 5
3, 457344, Note_on_c, 2, 61, 5
3, 457344, Note_on_c, 2, 58, 5
3, 457344, Note_on_c, 2, 53, 5
3, 457344, Note_on_c, 2, 49, 5
3, 457344, Note_on_c, 2, 46, 5
3, 457344, Note_on_c, 2, 41, 5
3, 457344, Note_on_c, 2, 37, 5
3, 457344, Note_on_c, 2, 34, 5
3, 457344, Note_on_c, 2, 89, 5
3, 457344, Note_on_c, 2, 85, 5
3, 457344, Note_on_c, 2, 82, 5
3, 457344, Note_on_c, 2, 94, 5
3, 457344, Note_on_c, 2, 29, 5
3, 457344, Note_on_c, 2, 25, 5
3, 457440, Note_off_c, 2, 25, 0
3, 457440, Note_off_c, 2, 29, 0
3, 457440, Note_off_c, 2, 94, 0
3, 457440, Note_off_c, 2, 82, 0
3, 457440, Note_off_c, 2, 85, 0
3, 457440, Note_off_c, 2, 89, 0
3, 457440, Note_off_c, 2, 34, 0
3, 457440, Note_off_c, 2, 37, 0
3, 457440, Note_off_c, 2, 41, 0
3, 457440, Note_off_c, 2, 46, 0
3, 457440, Note_off_c, 2, 49, 0
3, 457440, Note_off_c, 2, 53, 0
3, 457440, Note_off_c, 2, 58, 0
3, 457440, Note_off_c, 2, 61, 0
3, 457440, Note_off_c, 2, 65, 0
3, 457440, Note_off_c, 2, 70, 0
3, 457440, Note_off_c, 2, 73, 0
3, 457440, Note_off_c, 2, 77, 0
3, 457536, Note_on_c, 2, 77, 5
3, 457536, Note_on_c, 2, 73, 5
3, 457536, Note_on_c, 2, 70, 5
3, 457536, Note_on_c, 2, 65, 5
3, 457536, Note_on_c, 2, 61, 5
3, 457536, Note_on_c, 2, 58, 5
3, 457536, Note_on_c, 2, 53, 5
3, 457536, Note_on_c, 2, 49, 5
3, 457536, Note_on_c, 2, 46, 5
3, 457536, Note_on_c, 2, 41, 5
3, 457536, Note_on_c, 2, 37, 5
3, 457536, Note_on_c, 2, 34, 5
3, 457536, Note_on_c, 2, 89, 5
3, 457536, Note_on_c, 2, 85, 5
3, 457536, Note_on_c, 2, 82, 5
3, 457536, Note_on_c, 2, 94, 5
3, 457536, Note_on_c, 2, 29, 5
3, 457536, Note_on_c, 2, 25, 5
3, 457632, Note_off_c, 2, 25, 0
3, 457632, Note_off_c, 2, 29, 0
3, 457632, Note_off_c, 2, 94, 0
3, 457632, Note_off_c, 2, 82, 0
3, 457632, Note_off_c, 2, 85, 0
3, 457632, Note_off_c, 2, 89, 0
3, 457632, Note_off_c, 2, 34, 0
3, 457632, Note_off_c, 2, 37, 0
3, 457632, Note_off_c, 2, 41, 0
3, 457632, Note_off_c, 2, 46, 0
3, 457632, Note_off_c, 2, 49, 0
3, 457632, Note_off_c, 2, 53, 0
3, 457632, Note_off_c, 2, 58, 0
3, 457632, Note_off_c, 2, 61, 0
3, 457632, Note_off_c, 2, 65, 0
3, 457632, Note_off_c, 2, 70, 0
3, 457632, Note_off_c, 2, 73, 0
3, 457632, Note_off_c, 2, 77, 0
3, 457728, Note_on_c, 2, 77, 5
3, 457728, Note_on_c, 2, 73, 5
3, 457728, Note_on_c, 2, 70, 5
3, 457728, Note_on_c, 2, 65, 5
3, 457728, Note_on_c, 2, 61, 5
3, 457728, Note_on_c, 2, 58, 5
3, 457728, Note_on_c, 2, 53, 5
3, 457728, Note_on_c, 2, 49, 5
3, 457728, Note_on_c, 2, 46, 5
3, 457728, Note_on_c, 2, 41, 5
3, 457728, Note_on_c, 2, 37, 5
3, 457728, Note_on_c, 2, 34, 5
3, 457728, Note_on_c, 2, 89, 5
3, 457728, Note_on_c, 2, 85, 5
3, 457728, Note_on_c, 2, 82, 5
3, 457728, Note_on_c, 2, 94, 5
3, 457728, Note_on_c, 2, 29, 5
3, 457728, Note_on_c, 2, 25, 5
3, 457824, Note_off_c, 2, 25, 0
3, 457824, Note_off_c, 2, 29, 0
3, 457824, Note_off_c, 2, 94, 0
3, 457824, Note_off_c, 2, 82, 0
3, 457824, Note_off_c, 2, 85, 0
3, 457824, Note_off_c, 2, 89, 0
3, 457824, Note_off_c, 2, 34, 0
3, 457824, Note_off_c, 2, 37, 0
3, 457824, Note_off_c, 2, 41, 0
3, 457824, Note_off_c, 2, 46, 0
3, 457824, Note_off_c, 2, 49, 0
3, 457824, Note_off_c, 2, 53, 0
3, 457824, Note_off_c, 2, 58, 0
3, 457824, Note_off_c, 2, 61, 0
3, 457824, Note_off_c, 2, 65, 0
3, 457824, Note_off_c, 2, 70, 0
3, 457824, Note_off_c, 2, 73, 0
3, 457824, Note_off_c, 2, 77, 0
3, 457920, Note_on_c, 2, 77, 5
3, 457920, Note_on_c, 2, 73, 5
3, 457920, Note_on_c, 2, 70, 5
3, 457920, Note_on_c, 2, 65, 5
3, 457920, Note_on_c, 2, 61, 5
3, 457920, Note_on_c, 2, 58, 5
3, 457920, Note_on_c, 2, 53, 5
3, 457920, Note_on_c, 2, 49, 5
3, 457920, Note_on_c, 2, 46, 5
3, 457920, Note_on_c, 2, 41, 5
3, 457920, Note_on_c, 2, 37, 5
3, 457920, Note_on_c, 2, 34, 5
3, 457920, Note_on_c, 2, 89, 5
3, 457920, Note_on_c, 2, 85, 5
3, 457920, Note_on_c, 2, 82, 5
3, 457920, Note_on_c, 2, 94, 5
3, 457920, Note_on_c, 2, 29, 5
3, 457920, Note_on_c, 2, 25, 5
3, 458016, Note_off_c, 2, 25, 0
3, 458016, Note_off_c, 2, 29, 0
3, 458016, Note_off_c, 2, 94, 0
3, 458016, Note_off_c, 2, 82, 0
3, 458016, Note_off_c, 2, 85, 0
3, 458016, Note_off_c, 2, 89, 0
3, 458016, Note_off_c, 2, 34, 0
3, 458016, Note_off_c, 2, 37, 0
3, 458016, Note_off_c, 2, 41, 0
3, 458016, Note_off_c, 2, 46, 0
3, 458016, Note_off_c, 2, 49, 0
3, 458016, Note_off_c, 2, 53, 0
3, 458016, Note_off_c, 2, 58, 0
3, 458016, Note_off_c, 2, 61, 0
3, 458016, Note_off_c, 2, 65, 0
3, 458016, Note_off_c, 2, 70, 0
3, 458016, Note_off_c, 2, 73, 0
3, 458016, Note_off_c, 2, 77, 0
3, 458112, Note_on_c, 2, 77, 5
3, 458112, Note_on_c, 2, 73, 5
3, 458112, Note_on_c, 2, 70, 5
3, 458112, Note_on_c, 2, 65, 5
3, 458112, Note_on_c, 2, 61, 5
3, 458112, Note_on_c, 2, 58, 5
3, 458112, Note_on_c, 2, 53, 5
3, 458112, Note_on_c, 2, 49, 5
3, 458112, Note_on_c, 2, 46, 5
3, 458112, Note_on_c, 2, 41, 5
3, 458112, Note_on_c, 2, 37, 5
3, 458112, Note_on_c, 2, 34, 5
3, 458112, Note_on_c, 2, 89, 5
3, 458112, Note_on_c, 2, 85, 5
3, 458112, Note_on_c, 2, 82, 5
3, 458112, Note_on_c, 2, 94, 5
3, 458112, Note_on_c, 2, 29, 5
3, 458112, Note_on_c, 2, 25, 5
3, 458208, Note_off_c, 2, 25, 0
3, 458208, Note_off_c, 2, 29, 0
3, 458208, Note_off_c, 2, 94, 0
3, 458208, Note_off_c, 2, 82, 0
3, 458208, Note_off_c, 2, 85, 0
3, 458208, Note_off_c, 2, 89, 0
3, 458208, Note_off_c, 2, 34, 0
3, 458208, Note_off_c, 2, 37, 0
3, 458208, Note_off_c, 2, 41, 0
3, 458208, Note_off_c, 2, 46, 0
3, 458208, Note_off_c, 2, 49, 0
3, 458208, Note_off_c, 2, 53, 0
3, 458208, Note_off_c, 2, 58, 0
3, 458208, Note_off_c, 2, 61, 0
3, 458208, Note_off_c, 2, 65, 0
3, 458208, Note_off_c, 2, 70, 0
3, 458208, Note_off_c, 2, 73, 0
3, 458208, Note_off_c, 2, 77, 0
3, 458304, Note_on_c, 2, 77, 5
3, 458304, Note_on_c, 2, 73, 5
3, 458304, Note_on_c, 2, 70, 5
3, 458304, Note_on_c, 2, 65, 5
3, 458304, Note_on_c, 2, 61, 5
3, 458304, Note_on_c, 2, 58, 5
3, 458304, Note_on_c, 2, 53, 5
3, 458304, Note_on_c, 2, 49, 5
3, 458304, Note_on_c, 2, 46, 5
3, 458304, Note_on_c, 2, 41, 5
3, 458304, Note_on_c, 2, 37, 5
3, 458304, Note_on_c, 2, 34, 5
3, 458304, Note_on_c, 2, 89, 5
3, 458304, Note_on_c, 2, 85, 5
3, 458304, Note_on_c, 2, 82, 5
3, 458304, Note_on_c, 2, 94, 5
3, 458304, Note_on_c, 2, 29, 5
3, 458304, Note_on_c, 2, 25, 5
3, 458400, Note_off_c, 2, 25, 0
3, 458400, Note_off_c, 2, 29, 0
3, 458400, Note_off_c, 2, 94, 0
3, 458400, Note_off_c, 2, 82, 0
3, 458400, Note_off_c, 2, 85, 0
3, 458400, Note_off_c, 2, 89, 0
3, 458400, Note_off_c, 2, 34, 0
3, 458400, Note_off_c, 2, 37, 0
3, 458400, Note_off_c, 2, 41, 0
3, 458400, Note_off_c, 2, 46, 0
3, 458400, Note_off_c, 2, 49, 0
3, 458400, Note_off_c, 2, 53, 0
3, 458400, Note_off_c, 2, 58, 0
3, 458400, Note_off_c, 2, 61, 0
3, 458400, Note_off_c, 2, 65, 0
3, 458400, Note_off_c, 2, 70, 0
3, 458400, Note_off_c, 2, 73, 0
3, 458400, Note_off_c, 2, 77, 0
3, 458496, Note_on_c, 2, 77, 5
3, 458496, Note_on_c, 2, 73, 5
3, 458496, Note_on_c, 2, 70, 5
3, 458496, Note_on_c, 2, 65, 5
3, 458496, Note_on_c, 2, 61, 5
3, 458496, Note_on_c, 2, 58, 5
3, 458496, Note_on_c, 2, 53, 5
3, 458496, Note_on_c, 2, 49, 5
3, 458496, Note_on_c, 2, 46, 5
3, 458496, Note_on_c, 2, 41, 5
3, 458496, Note_on_c, 2, 37, 5
3, 458496, Note_on_c, 2, 34, 5
3, 458496, Note_on_c, 2, 89, 5
3, 458496, Note_on_c, 2, 85, 5
3, 458496, Note_on_c, 2, 82, 5
3, 458496, Note_on_c, 2, 94, 5
3, 458496, Note_on_c, 2, 29, 5
3, 458496, Note_on_c, 2, 25, 5
3, 458592, Note_off_c, 2, 25, 0
3, 458592, Note_off_c, 2, 29, 0
3, 458592, Note_off_c, 2, 94, 0
3, 458592, Note_off_c, 2, 82, 0
3, 458592, Note_off_c, 2, 85, 0
3, 458592, Note_off_c, 2, 89, 0
3, 458592, Note_off_c, 2, 34, 0
3, 458592, Note_off_c, 2, 37, 0
3, 458592, Note_off_c, 2, 41, 0
3, 458592, Note_off_c, 2, 46, 0
3, 458592, Note_off_c, 2, 49, 0
3, 458592, Note_off_c, 2, 53, 0
3, 458592, Note_off_c, 2, 58, 0
3, 458592, Note_off_c, 2, 61, 0
3, 458592, Note_off_c, 2, 65, 0
3, 458592, Note_off_c, 2, 70, 0
3, 458592, Note_off_c, 2, 73, 0
3, 458592, Note_off_c, 2, 77, 0
3, 458688, Note_on_c, 2, 77, 5
3, 458688, Note_on_c, 2, 73, 5
3, 458688, Note_on_c, 2, 70, 5
3, 458688, Note_on_c, 2, 65, 5
3, 458688, Note_on_c, 2, 61, 5
3, 458688, Note_on_c, 2, 58, 5
3, 458688, Note_on_c, 2, 53, 5
3, 458688, Note_on_c, 2, 49, 5
3, 458688, Note_on_c, 2, 46, 5
3, 458688, Note_on_c, 2, 41, 5
3, 458688, Note_on_c, 2, 37, 5
3, 458688, Note_on_c, 2, 34, 5
3, 458688, Note_on_c, 2, 89, 5
3, 458688, Note_on_c, 2, 85, 5
3, 458688, Note_on_c, 2, 82, 5
3, 458688, Note_on_c, 2, 94, 5
3, 458688, Note_on_c, 2, 29, 5
3, 458688, Note_on_c, 2, 25, 5
3, 458784, Note_off_c, 2, 25, 0
3, 458784, Note_off_c, 2, 29, 0
3, 458784, Note_off_c, 2, 94, 0
3, 458784, Note_off_c, 2, 82, 0
3, 458784, Note_off_c, 2, 85, 0
3, 458784, Note_off_c, 2, 89, 0
3, 458784, Note_off_c, 2, 34, 0
3, 458784, Note_off_c, 2, 37, 0
3, 458784, Note_off_c, 2, 41, 0
3, 458784, Note_off_c, 2, 46, 0
3, 458784, Note_off_c, 2, 49, 0
3, 458784, Note_off_c, 2, 53, 0
3, 458784, Note_off_c, 2, 58, 0
3, 458784, Note_off_c, 2, 61, 0
3, 458784, Note_off_c, 2, 65, 0
3, 458784, Note_off_c, 2, 70, 0
3, 458784, Note_off_c, 2, 73, 0
3, 458784, Note_off_c, 2, 77, 0
3, 458880, Note_on_c, 2, 77, 5
3, 458880, Note_on_c, 2, 73, 5
3, 458880, Note_on_c, 2, 70, 5
3, 458880, Note_on_c, 2, 65, 5
3, 458880, Note_on_c, 2, 61, 5
3, 458880, Note_on_c, 2, 58, 5
3, 458880, Note_on_c, 2, 53, 5
3, 458880, Note_on_c, 2, 49, 5
3, 458880, Note_on_c, 2, 46, 5
3, 458880, Note_on_c, 2, 41, 5
3, 458880, Note_on_c, 2, 37, 5
3, 458880, Note_on_c, 2, 34, 5
3, 458880, Note_on_c, 2, 89, 5
3, 458880, Note_on_c, 2, 85, 5
3, 458880, Note_on_c, 2, 82, 5
3, 458880, Note_on_c, 2, 94, 5
3, 458880, Note_on_c, 2, 29, 5
3, 458880, Note_on_c, 2, 25, 5
3, 458976, Note_off_c, 2, 25, 0
3, 458976, Note_off_c, 2, 29, 0
3, 458976, Note_off_c, 2, 94, 0
3, 458976, Note_off_c, 2, 82, 0
3, 458976, Note_off_c, 2, 85, 0
3, 458976, Note_off_c, 2, 89, 0
3, 458976, Note_off_c, 2, 34, 0
3, 458976, Note_off_c, 2, 37, 0
3, 458976, Note_off_c, 2, 41, 0
3, 458976, Note_off_c, 2, 46, 0
3, 458976, Note_off_c, 2, 49, 0
3, 458976, Note_off_c, 2, 53, 0
3, 458976, Note_off_c, 2, 58, 0
3, 458976, Note_off_c, 2, 61, 0
3, 458976, Note_off_c, 2, 65, 0
3, 458976, Note_off_c, 2, 70, 0
3, 458976, Note_off_c, 2, 73, 0
3, 458976, Note_off_c, 2, 77, 0
3, 459072, Note_on_c, 2, 77, 5
3, 459072, Note_on_c, 2, 73, 5
3, 459072, Note_on_c, 2, 70, 5
3, 459072, Note_on_c, 2, 65, 5
3, 459072, Note_on_c, 2, 61, 5
3, 459072, Note_on_c, 2, 58, 5
3, 459072, Note_on_c, 2, 53, 5
3, 459072, Note_on_c, 2, 49, 5
3, 459072, Note_on_c, 2, 46, 5
3, 459072, Note_on_c, 2, 41, 5
3, 459072, Note_on_c, 2, 37, 5
3, 459072, Note_on_c, 2, 34, 5
3, 459072, Note_on_c, 2, 89, 5
3, 459072, Note_on_c, 2, 85, 5
3, 459072, Note_on_c, 2, 82, 5
3, 459072, Note_on_c, 2, 94, 5
3, 459072, Note_on_c, 2, 29, 5
3, 459072, Note_on_c, 2, 25, 5
3, 459168, Note_off_c, 2, 25, 0
3, 459168, Note_off_c, 2, 29, 0
3, 459168, Note_off_c, 2, 94, 0
3, 459168, Note_off_c, 2, 82, 0
3, 459168, Note_off_c, 2, 85, 0
3, 459168, Note_off_c, 2, 89, 0
3, 459168, Note_off_c, 2, 34, 0
3, 459168, Note_off_c, 2, 37, 0
3, 459168, Note_off_c, 2, 41, 0
3, 459168, Note_off_c, 2, 46, 0
3, 459168, Note_off_c, 2, 49, 0
3, 459168, Note_off_c, 2, 53, 0
3, 459168, Note_off_c, 2, 58, 0
3, 459168, Note_off_c, 2, 61, 0
3, 459168, Note_off_c, 2, 65, 0
3, 459168, Note_off_c, 2, 70, 0
3, 459168, Note_off_c, 2, 73, 0
3, 459168, Note_off_c, 2, 77, 0
3, 459264, Note_on_c, 2, 77, 5
3, 459264, Note_on_c, 2, 73, 5
3, 459264, Note_on_c, 2, 70, 5
3, 459264, Note_on_c, 2, 65, 5
3, 459264, Note_on_c, 2, 61, 5
3, 459264, Note_on_c, 2, 58, 5
3, 459264, Note_on_c, 2, 53, 5
3, 459264, Note_on_c, 2, 49, 5
3, 459264, Note_on_c, 2, 46, 5
3, 459264, Note_on_c, 2, 41, 5
3, 459264, Note_on_c, 2, 37, 5
3, 459264, Note_on_c, 2, 34, 5
3, 459264, Note_on_c, 2, 89, 5
3, 459264, Note_on_c, 2, 85, 5
3, 459264, Note_on_c, 2, 82, 5
3, 459264, Note_on_c, 2, 94, 5
3, 459264, Note_on_c, 2, 29, 5
3, 459264, Note_on_c, 2, 25, 5
3, 459360, Note_off_c, 2, 25, 0
3, 459360, Note_off_c, 2, 29, 0
3, 459360, Note_off_c, 2, 94, 0
3, 459360, Note_off_c, 2, 82, 0
3, 459360, Note_off_c, 2, 85, 0
3, 459360, Note_off_c, 2, 89, 0
3, 459360, Note_off_c, 2, 34, 0
3, 459360, Note_off_c, 2, 37, 0
3, 459360, Note_off_c, 2, 41, 0
3, 459360, Note_off_c, 2, 46, 0
3, 459360, Note_off_c, 2, 49, 0
3, 459360, Note_off_c, 2, 53, 0
3, 459360, Note_off_c, 2, 58, 0
3, 459360, Note_off_c, 2, 61, 0
3, 459360, Note_off_c, 2, 65, 0
3, 459360, Note_off_c, 2, 70, 0
3, 459360, Note_off_c, 2, 73, 0
3, 459360, Note_off_c, 2, 77, 0
3, 459456, Note_on_c, 2, 77, 5
3, 459456, Note_on_c, 2, 73, 5
3, 459456, Note_on_c, 2, 70, 5
3, 459456, Note_on_c, 2, 65, 5
3, 459456, Note_on_c, 2, 61, 5
3, 459456, Note_on_c, 2, 58, 5
3, 459456, Note_on_c, 2, 53, 5
3, 459456, Note_on_c, 2, 49, 5
3, 459456, Note_on_c, 2, 46, 5
3, 459456, Note_on_c, 2, 41, 5
3, 459456, Note_on_c, 2, 37, 5
3, 459456, Note_on_c, 2, 34, 5
3, 459456, Note_on_c, 2, 89, 5
3, 459456, Note_on_c, 2, 85, 5
3, 459456, Note_on_c, 2, 82, 5
3, 459456, Note_on_c, 2, 94, 5
3, 459456, Note_on_c, 2, 29, 5
3, 459456, Note_on_c, 2, 25, 5
3, 459552, Note_off_c, 2, 25, 0
3, 459552, Note_off_c, 2, 29, 0
3, 459552, Note_off_c, 2, 94, 0
3, 459552, Note_off_c, 2, 82, 0
3, 459552, Note_off_c, 2, 85, 0
3, 459552, Note_off_c, 2, 89, 0
3, 459552, Note_off_c, 2, 34, 0
3, 459552, Note_off_c, 2, 37, 0
3, 459552, Note_off_c, 2, 41, 0
3, 459552, Note_off_c, 2, 46, 0
3, 459552, Note_off_c, 2, 49, 0
3, 459552, Note_off_c, 2, 53, 0
3, 459552, Note_off_c, 2, 58, 0
3, 459552, Note_off_c, 2, 61, 0
3, 459552, Note_off_c, 2, 65, 0
3, 459552, Note_off_c, 2, 70, 0
3, 459552, Note_off_c, 2, 73, 0
3, 459552, Note_off_c, 2, 77, 0
3, 459648, Note_on_c, 2, 77, 5
3, 459648, Note_on_c, 2, 73, 5
3, 459648, Note_on_c, 2, 70, 5
3, 459648, Note_on_c, 2, 65, 5
3, 459648, Note_on_c, 2, 61, 5
3, 459648, Note_on_c, 2, 58, 5
3, 459648, Note_on_c, 2, 53, 5
3, 459648, Note_on_c, 2, 49, 5
3, 459648, Note_on_c, 2, 46, 5
3, 459648, Note_on_c, 2, 41, 5
3, 459648, Note_on_c, 2, 37, 5
3, 459648, Note_on_c, 2, 34, 5
3, 459648, Note_on_c, 2, 89, 5
3, 459648, Note_on_c, 2, 85, 5
3, 459648, Note_on_c, 2, 82, 5
3, 459648, Note_on_c, 2, 94, 5
3, 459648, Note_on_c, 2, 29, 5
3, 459648, Note_on_c, 2, 25, 5
3, 459744, Note_off_c, 2, 25, 0
3, 459744, Note_off_c, 2, 29, 0
3, 459744, Note_off_c, 2, 94, 0
3, 459744, Note_off_c, 2, 82, 0
3, 459744, Note_off_c, 2, 85, 0
3, 459744, Note_off_c, 2, 89, 0
3, 459744, Note_off_c, 2, 34, 0
3, 459744, Note_off_c, 2, 37, 0
3, 459744, Note_off_c, 2, 41, 0
3, 459744, Note_off_c, 2, 46, 0
3, 459744, Note_off_c, 2, 49, 0
3, 459744, Note_off_c, 2, 53, 0
3, 459744, Note_off_c, 2, 58, 0
3, 459744, Note_off_c, 2, 61, 0
3, 459744, Note_off_c, 2, 65, 0
3, 459744, Note_off_c, 2, 70, 0
3, 459744, Note_off_c, 2, 73, 0
3, 459744, Note_off_c, 2, 77, 0
3, 459840, Note_on_c, 2, 77, 5
3, 459840, Note_on_c, 2, 73, 5
3, 459840, Note_on_c, 2, 70, 5
3, 459840, Note_on_c, 2, 65, 5
3, 459840, Note_on_c, 2, 61, 5
3, 459840, Note_on_c, 2, 58, 5
3, 459840, Note_on_c, 2, 53, 5
3, 459840, Note_on_c, 2, 49, 5
3, 459840, Note_on_c, 2, 46, 5
3, 459840, Note_on_c, 2, 41, 5
3, 459840, Note_on_c, 2, 37, 5
3, 459840, Note_on_c, 2, 34, 5
3, 459840, Note_on_c, 2, 89, 5
3, 459840, Note_on_c, 2, 85, 5
3, 459840, Note_on_c, 2, 82, 5
3, 459840, Note_on_c, 2, 94, 5
3, 459840, Note_on_c, 2, 29, 5
3, 459840, Note_on_c, 2, 25, 5
3, 459936, Note_off_c, 2, 25, 0
3, 459936, Note_off_c, 2, 29, 0
3, 459936, Note_off_c, 2, 94, 0
3, 459936, Note_off_c, 2, 82, 0
3, 459936, Note_off_c, 2, 85, 0
3, 459936, Note_off_c, 2, 89, 0
3, 459936, Note_off_c, 2, 34, 0
3, 459936, Note_off_c, 2, 37, 0
3, 459936, Note_off_c, 2, 41, 0
3, 459936, Note_off_c, 2, 46, 0
3, 459936, Note_off_c, 2, 49, 0
3, 459936, Note_off_c, 2, 53, 0
3, 459936, Note_off_c, 2, 58, 0
3, 459936, Note_off_c, 2, 61, 0
3, 459936, Note_off_c, 2, 65, 0
3, 459936, Note_off_c, 2, 70, 0
3, 459936, Note_off_c, 2, 73, 0
3, 459936, Note_off_c, 2, 77, 0
3, 460032, Note_on_c, 2, 77, 5
3, 460032, Note_on_c, 2, 73, 5
3, 460032, Note_on_c, 2, 70, 5
3, 460032, Note_on_c, 2, 65, 5
3, 460032, Note_on_c, 2, 61, 5
3, 460032, Note_on_c, 2, 58, 5
3, 460032, Note_on_c, 2, 53, 5
3, 460032, Note_on_c, 2, 49, 5
3, 460032, Note_on_c, 2, 46, 5
3, 460032, Note_on_c, 2, 41, 5
3, 460032, Note_on_c, 2, 37, 5
3, 460032, Note_on_c, 2, 34, 5
3, 460032, Note_on_c, 2, 89, 5
3, 460032, Note_on_c, 2, 85, 5
3, 460032, Note_on_c, 2, 82, 5
3, 460032, Note_on_c, 2, 94, 5
3, 460032, Note_on_c, 2, 29, 5
3, 460032, Note_on_c, 2, 25, 5
3, 460128, Note_off_c, 2, 25, 0
3, 460128, Note_off_c, 2, 29, 0
3, 460128, Note_off_c, 2, 94, 0
3, 460128, Note_off_c, 2, 82, 0
3, 460128, Note_off_c, 2, 85, 0
3, 460128, Note_off_c, 2, 89, 0
3, 460128, Note_off_c, 2, 34, 0
3, 460128, Note_off_c, 2, 37, 0
3, 460128, Note_off_c, 2, 41, 0
3, 460128, Note_off_c, 2, 46, 0
3, 460128, Note_off_c, 2, 49, 0
3, 460128, Note_off_c, 2, 53, 0
3, 460128, Note_off_c, 2, 58, 0
3, 460128, Note_off_c, 2, 61, 0
3, 460128, Note_off_c, 2, 65, 0
3, 460128, Note_off_c, 2, 70, 0
3, 460128, Note_off_c, 2, 73, 0
3, 460128, Note_off_c, 2, 77, 0
3, 460224, Note_on_c, 2, 77, 5
3, 460224, Note_on_c, 2, 73, 5
3, 460224, Note_on_c, 2, 70, 5
3, 460224, Note_on_c, 2, 65, 5
3, 460224, Note_on_c, 2, 61, 5
3, 460224, Note_on_c, 2, 58, 5
3, 460224, Note_on_c, 2, 53, 5
3, 460224, Note_on_c, 2, 49, 5
3, 460224, Note_on_c, 2, 46, 5
3, 460224, Note_on_c, 2, 41, 5
3, 460224, Note_on_c, 2, 37, 5
3, 460224, Note_on_c, 2, 34, 5
3, 460224, Note_on_c, 2, 89, 5
3, 460224, Note_on_c, 2, 85, 5
3, 460224, Note_on_c, 2, 82, 5
3, 460224, Note_on_c, 2, 94, 5
3, 460224, Note_on_c, 2, 29, 5
3, 460224, Note_on_c, 2, 25, 5
3, 460320, Note_off_c, 2, 25, 0
3, 460320, Note_off_c, 2, 29, 0
3, 460320, Note_off_c, 2, 94, 0
3, 460320, Note_off_c, 2, 82, 0
3, 460320, Note_off_c, 2, 85, 0
3, 460320, Note_off_c, 2, 89, 0
3, 460320, Note_off_c, 2, 34, 0
3, 460320, Note_off_c, 2, 37, 0
3, 460320, Note_off_c, 2, 41, 0
3, 460320, Note_off_c, 2, 46, 0
3, 460320, Note_off_c, 2, 49, 0
3, 460320, Note_off_c, 2, 53, 0
3, 460320, Note_off_c, 2, 58, 0
3, 460320, Note_off_c, 2, 61, 0
3, 460320, Note_off_c, 2, 65, 0
3, 460320, Note_off_c, 2, 70, 0
3, 460320, Note_off_c, 2, 73, 0
3, 460320, Note_off_c, 2, 77, 0
3, 460416, Note_on_c, 2, 77, 5
3, 460416, Note_on_c, 2, 73, 5
3, 460416, Note_on_c, 2, 70, 5
3, 460416, Note_on_c, 2, 65, 5
3, 460416, Note_on_c, 2, 61, 5
3, 460416, Note_on_c, 2, 58, 5
3, 460416, Note_on_c, 2, 53, 5
3, 460416, Note_on_c, 2, 49, 5
3, 460416, Note_on_c, 2, 46, 5
3, 460416, Note_on_c, 2, 41, 5
3, 460416, Note_on_c, 2, 37, 5
3, 460416, Note_on_c, 2, 34, 5
3, 460416, Note_on_c, 2, 89, 5
3, 460416, Note_on_c, 2, 85, 5
3, 460416, Note_on_c, 2, 82, 5
3, 460416, Note_on_c, 2, 94, 5
3, 460416, Note_on_c, 2, 29, 5
3, 460416, Note_on_c, 2, 25, 5
3, 460512, Note_off_c, 2, 25, 0
3, 460512, Note_off_c, 2, 29, 0
3, 460512, Note_off_c, 2, 94, 0
3, 460512, Note_off_c, 2, 82, 0
3, 460512, Note_off_c, 2, 85, 0
3, 460512, Note_off_c, 2, 89, 0
3, 460512, Note_off_c, 2, 34, 0
3, 460512, Note_off_c, 2, 37, 0
3, 460512, Note_off_c, 2, 41, 0
3, 460512, Note_off_c, 2, 46, 0
3, 460512, Note_off_c, 2, 49, 0
3, 460512, Note_off_c, 2, 53, 0
3, 460512, Note_off_c, 2, 58, 0
3, 460512, Note_off_c, 2, 61, 0
3, 460512, Note_off_c, 2, 65, 0
3, 460512, Note_off_c, 2, 70, 0
3, 460512, Note_off_c, 2, 73, 0
3, 460512, Note_off_c, 2, 77, 0
3, 460608, Note_on_c, 2, 77, 5
3, 460608, Note_on_c, 2, 73, 5
3, 460608, Note_on_c, 2, 70, 5
3, 460608, Note_on_c, 2, 65, 5
3, 460608, Note_on_c, 2, 61, 5
3, 460608, Note_on_c, 2, 58, 5
3, 460608, Note_on_c, 2, 53, 5
3, 460608, Note_on_c, 2, 49, 5
3, 460608, Note_on_c, 2, 46, 5
3, 460608, Note_on_c, 2, 41, 5
3, 460608, Note_on_c, 2, 37, 5
3, 460608, Note_on_c, 2, 34, 5
3, 460608, Note_on_c, 2, 89, 5
3, 460608, Note_on_c, 2, 85, 5
3, 460608, Note_on_c, 2, 82, 5
3, 460608, Note_on_c, 2, 94, 5
3, 460608, Note_on_c, 2, 29, 5
3, 460608, Note_on_c, 2, 25, 5
3, 460704, Note_off_c, 2, 25, 0
3, 460704, Note_off_c, 2, 29, 0
3, 460704, Note_off_c, 2, 94, 0
3, 460704, Note_off_c, 2, 82, 0
3, 460704, Note_off_c, 2, 85, 0
3, 460704, Note_off_c, 2, 89, 0
3, 460704, Note_off_c, 2, 34, 0
3, 460704, Note_off_c, 2, 37, 0
3, 460704, Note_off_c, 2, 41, 0
3, 460704, Note_off_c, 2, 46, 0
3, 460704, Note_off_c, 2, 49, 0
3, 460704, Note_off_c, 2, 53, 0
3, 460704, Note_off_c, 2, 58, 0
3, 460704, Note_off_c, 2, 61, 0
3, 460704, Note_off_c, 2, 65, 0
3, 460704, Note_off_c, 2, 70, 0
3, 460704, Note_off_c, 2, 73, 0
3, 460704, Note_off_c, 2, 77, 0
3, 460800, Note_on_c, 2, 77, 5
3, 460800, Note_on_c, 2, 73, 5
3, 460800, Note_on_c, 2, 70, 5
3, 460800, Note_on_c, 2, 65, 5
3, 460800, Note_on_c, 2, 61, 5
3, 460800, Note_on_c, 2, 58, 5
3, 460800, Note_on_c, 2, 53, 5
3, 460800, Note_on_c, 2, 49, 5
3, 460800, Note_on_c, 2, 46, 5
3, 460800, Note_on_c, 2, 41, 5
3, 460800, Note_on_c, 2, 37, 5
3, 460800, Note_on_c, 2, 34, 5
3, 460800, Note_on_c, 2, 89, 5
3, 460800, Note_on_c, 2, 85, 5
3, 460800, Note_on_c, 2, 82, 5
3, 460800, Note_on_c, 2, 94, 5
3, 460800, Note_on_c, 2, 29, 5
3, 460800, Note_on_c, 2, 25, 5
3, 460896, Note_off_c, 2, 25, 0
3, 460896, Note_off_c, 2, 29, 0
3, 460896, Note_off_c, 2, 94, 0
3, 460896, Note_off_c, 2, 82, 0
3, 460896, Note_off_c, 2, 85, 0
3, 460896, Note_off_c, 2, 89, 0
3, 460896, Note_off_c, 2, 34, 0
3, 460896, Note_off_c, 2, 37, 0
3, 460896, Note_off_c, 2, 41, 0
3, 460896, Note_off_c, 2, 46, 0
3, 460896, Note_off_c, 2, 49, 0
3, 460896, Note_off_c, 2, 53, 0
3, 460896, Note_off_c, 2, 58, 0
3, 460896, Note_off_c, 2, 61, 0
3, 460896, Note_off_c, 2, 65, 0
3, 460896, Note_off_c, 2, 70, 0
3, 460896, Note_off_c, 2, 73, 0
3, 460896, Note_off_c, 2, 77, 0
3, 460992, Note_on_c, 2, 77, 5
3, 460992, Note_on_c, 2, 73, 5
3, 460992, Note_on_c, 2, 70, 5
3, 460992, Note_on_c, 2, 65, 5
3, 460992, Note_on_c, 2, 61, 5
3, 460992, Note_on_c, 2, 58, 5
3, 460992, Note_on_c, 2, 53, 5
3, 460992, Note_on_c, 2, 49, 5
3, 460992, Note_on_c, 2, 46, 5
3, 460992, Note_on_c, 2, 41, 5
3, 460992, Note_on_c, 2, 37, 5
3, 460992, Note_on_c, 2, 34, 5
3, 460992, Note_on_c, 2, 89, 5
3, 460992, Note_on_c, 2, 85, 5
3, 460992, Note_on_c, 2, 82, 5
3, 460992, Note_on_c, 2, 94, 5
3, 460992, Note_on_c, 2, 29, 5
3, 460992, Note_on_c, 2, 25, 5
3, 461088, Note_off_c, 2, 25, 0
3, 461088, Note_off_c, 2, 29, 0
3, 461088, Note_off_c, 2, 94, 0
3, 461088, Note_off_c, 2, 82, 0
3, 461088, Note_off_c, 2, 85, 0
3, 461088, Note_off_c, 2, 89, 0
3, 461088, Note_off_c, 2, 34, 0
3, 461088, Note_off_c, 2, 37, 0
3, 461088, Note_off_c, 2, 41, 0
3, 461088, Note_off_c, 2, 46, 0
3, 461088, Note_off_c, 2, 49, 0
3, 461088, Note_off_c, 2, 53, 0
3, 461088, Note_off_c, 2, 58, 0
3, 461088, Note_off_c, 2, 61, 0
3, 461088, Note_off_c, 2, 65, 0
3, 461088, Note_off_c, 2, 70, 0
3, 461088, Note_off_c, 2, 73, 0
3, 461088, Note_off_c, 2, 77, 0
3, 461184, Note_on_c, 2, 77, 5
3, 461184, Note_on_c, 2, 73, 5
3, 461184, Note_on_c, 2, 70, 5
3, 461184, Note_on_c, 2, 65, 5
3, 461184, Note_on_c, 2, 61, 5
3, 461184, Note_on_c, 2, 58, 5
3, 461184, Note_on_c, 2, 53, 5
3, 461184, Note_on_c, 2, 49, 5
3, 461184, Note_on_c, 2, 46, 5
3, 461184, Note_on_c, 2, 41, 5
3, 461184, Note_on_c, 2, 37, 5
3, 461184, Note_on_c, 2, 34, 5
3, 461184, Note_on_c, 2, 89, 5
3, 461184, Note_on_c, 2, 85, 5
3, 461184, Note_on_c, 2, 82, 5
3, 461184, Note_on_c, 2, 94, 5
3, 461184, Note_on_c, 2, 29, 5
3, 461184, Note_on_c, 2, 25, 5
3, 461280, Note_off_c, 2, 25, 0
3, 461280, Note_off_c, 2, 29, 0
3, 461280, Note_off_c, 2, 94, 0
3, 461280, Note_off_c, 2, 82, 0
3, 461280, Note_off_c, 2, 85, 0
3, 461280, Note_off_c, 2, 89, 0
3, 461280, Note_off_c, 2, 34, 0
3, 461280, Note_off_c, 2, 37, 0
3, 461280, Note_off_c, 2, 41, 0
3, 461280, Note_off_c, 2, 46, 0
3, 461280, Note_off_c, 2, 49, 0
3, 461280, Note_off_c, 2, 53, 0
3, 461280, Note_off_c, 2, 58, 0
3, 461280, Note_off_c, 2, 61, 0
3, 461280, Note_off_c, 2, 65, 0
3, 461280, Note_off_c, 2, 70, 0
3, 461280, Note_off_c, 2, 73, 0
3, 461280, Note_off_c, 2, 77, 0
3, 461376, Note_on_c, 2, 77, 5
3, 461376, Note_on_c, 2, 73, 5
3, 461376, Note_on_c, 2, 70, 5
3, 461376, Note_on_c, 2, 65, 5
3, 461376, Note_on_c, 2, 61, 5
3, 461376, Note_on_c, 2, 58, 5
3, 461376, Note_on_c, 2, 53, 5
3, 461376, Note_on_c, 2, 49, 5
3, 461376, Note_on_c, 2, 46, 5
3, 461376, Note_on_c, 2, 41, 5
3, 461376, Note_on_c, 2, 37, 5
3, 461376, Note_on_c, 2, 34, 5
3, 461376, Note_on_c, 2, 89, 5
3, 461376, Note_on_c, 2, 85, 5
3, 461376, Note_on_c, 2, 82, 5
3, 461376, Note_on_c, 2, 94, 5
3, 461376, Note_on_c, 2, 29, 5
3, 461376, Note_on_c, 2, 25, 5
3, 461472, Note_off_c, 2, 25, 0
3, 461472, Note_off_c, 2, 29, 0
3, 461472, Note_off_c, 2, 94, 0
3, 461472, Note_off_c, 2, 82, 0
3, 461472, Note_off_c, 2, 85, 0
3, 461472, Note_off_c, 2, 89, 0
3, 461472, Note_off_c, 2, 34, 0
3, 461472, Note_off_c, 2, 37, 0
3, 461472, Note_off_c, 2, 41, 0
3, 461472, Note_off_c, 2, 46, 0
3, 461472, Note_off_c, 2, 49, 0
3, 461472, Note_off_c, 2, 53, 0
3, 461472, Note_off_c, 2, 58, 0
3, 461472, Note_off_c, 2, 61, 0
3, 461472, Note_off_c, 2, 65, 0
3, 461472, Note_off_c, 2, 70, 0
3, 461472, Note_off_c, 2, 73, 0
3, 461472, Note_off_c, 2, 77, 0
3, 461568, Note_on_c, 2, 77, 5
3, 461568, Note_on_c, 2, 73, 5
3, 461568, Note_on_c, 2, 70, 5
3, 461568, Note_on_c, 2, 65, 5
3, 461568, Note_on_c, 2, 61, 5
3, 461568, Note_on_c, 2, 58, 5
3, 461568, Note_on_c, 2, 53, 5
3, 461568, Note_on_c, 2, 49, 5
3, 461568, Note_on_c, 2, 46, 5
3, 461568, Note_on_c, 2, 41, 5
3, 461568, Note_on_c, 2, 37, 5
3, 461568, Note_on_c, 2, 34, 5
3, 461568, Note_on_c, 2, 89, 5
3, 461568, Note_on_c, 2, 85, 5
3, 461568, Note_on_c, 2, 82, 5
3, 461568, Note_on_c, 2, 94, 5
3, 461568, Note_on_c, 2, 29, 5
3, 461568, Note_on_c, 2, 25, 5
3, 461664, Note_off_c, 2, 25, 0
3, 461664, Note_off_c, 2, 29, 0
3, 461664, Note_off_c, 2, 94, 0
3, 461664, Note_off_c, 2, 82, 0
3, 461664, Note_off_c, 2, 85, 0
3, 461664, Note_off_c, 2, 89, 0
3, 461664, Note_off_c, 2, 34, 0
3, 461664, Note_off_c, 2, 37, 0
3, 461664, Note_off_c, 2, 41, 0
3, 461664, Note_off_c, 2, 46, 0
3, 461664, Note_off_c, 2, 49, 0
3, 461664, Note_off_c, 2, 53, 0
3, 461664, Note_off_c, 2, 58, 0
3, 461664, Note_off_c, 2, 61, 0
3, 461664, Note_off_c, 2, 65, 0
3, 461664, Note_off_c, 2, 70, 0
3, 461664, Note_off_c, 2, 73, 0
3, 461664, Note_off_c, 2, 77, 0
3, 461760, Note_on_c, 2, 77, 5
3, 461760, Note_on_c, 2, 73, 5
3, 461760, Note_on_c, 2, 70, 5
3, 461760, Note_on_c, 2, 65, 5
3, 461760, Note_on_c, 2, 61, 5
3, 461760, Note_on_c, 2, 58, 5
3, 461760, Note_on_c, 2, 53, 5
3, 461760, Note_on_c, 2, 49, 5
3, 461760, Note_on_c, 2, 46, 5
3, 461760, Note_on_c, 2, 41, 5
3, 461760, Note_on_c, 2, 37, 5
3, 461760, Note_on_c, 2, 34, 5
3, 461760, Note_on_c, 2, 89, 5
3, 461760, Note_on_c, 2, 85, 5
3, 461760, Note_on_c, 2, 82, 5
3, 461760, Note_on_c, 2, 94, 5
3, 461760, Note_on_c, 2, 29, 5
3, 461760, Note_on_c, 2, 25, 5
3, 461856, Note_off_c, 2, 25, 0
3, 461856, Note_off_c, 2, 29, 0
3, 461856, Note_off_c, 2, 94, 0
3, 461856, Note_off_c, 2, 82, 0
3, 461856, Note_off_c, 2, 85, 0
3, 461856, Note_off_c, 2, 89, 0
3, 461856, Note_off_c, 2, 34, 0
3, 461856, Note_off_c, 2, 37, 0
3, 461856, Note_off_c, 2, 41, 0
3, 461856, Note_off_c, 2, 46, 0
3, 461856, Note_off_c, 2, 49, 0
3, 461856, Note_off_c, 2, 53, 0
3, 461856, Note_off_c, 2, 58, 0
3, 461856, Note_off_c, 2, 61, 0
3, 461856, Note_off_c, 2, 65, 0
3, 461856, Note_off_c, 2, 70, 0
3, 461856, Note_off_c, 2, 73, 0
3, 461856, Note_off_c, 2, 77, 0
3, 461952, Note_on_c, 2, 77, 5
3, 461952, Note_on_c, 2, 73, 5
3, 461952, Note_on_c, 2, 70, 5
3, 461952, Note_on_c, 2, 65, 5
3, 461952, Note_on_c, 2, 61, 5
3, 461952, Note_on_c, 2, 58, 5
3, 461952, Note_on_c, 2, 53, 5
3, 461952, Note_on_c, 2, 49, 5
3, 461952, Note_on_c, 2, 46, 5
3, 461952, Note_on_c, 2, 41, 5
3, 461952, Note_on_c, 2, 37, 5
3, 461952, Note_on_c, 2, 34, 5
3, 461952, Note_on_c, 2, 89, 5
3, 461952, Note_on_c, 2, 85, 5
3, 461952, Note_on_c, 2, 82, 5
3, 461952, Note_on_c, 2, 94, 5
3, 461952, Note_on_c, 2, 29, 5
3, 461952, Note_on_c, 2, 25, 5
3, 462048, Note_off_c, 2, 25, 0
3, 462048, Note_off_c, 2, 29, 0
3, 462048, Note_off_c, 2, 94, 0
3, 462048, Note_off_c, 2, 82, 0
3, 462048, Note_off_c, 2, 85, 0
3, 462048, Note_off_c, 2, 89, 0
3, 462048, Note_off_c, 2, 34, 0
3, 462048, Note_off_c, 2, 37, 0
3, 462048, Note_off_c, 2, 41, 0
3, 462048, Note_off_c, 2, 46, 0
3, 462048, Note_off_c, 2, 49, 0
3, 462048, Note_off_c, 2, 53, 0
3, 462048, Note_off_c, 2, 58, 0
3, 462048, Note_off_c, 2, 61, 0
3, 462048, Note_off_c, 2, 65, 0
3, 462048, Note_off_c, 2, 70, 0
3, 462048, Note_off_c, 2, 73, 0
3, 462048, Note_off_c, 2, 77, 0
3, 462144, Note_on_c, 2, 77, 5
3, 462144, Note_on_c, 2, 73, 5
3, 462144, Note_on_c, 2, 70, 5
3, 462144, Note_on_c, 2, 65, 5
3, 462144, Note_on_c, 2, 61, 5
3, 462144, Note_on_c, 2, 58, 5
3, 462144, Note_on_c, 2, 53, 5
3, 462144, Note_on_c, 2, 49, 5
3, 462144, Note_on_c, 2, 46, 5
3, 462144, Note_on_c, 2, 41, 5
3, 462144, Note_on_c, 2, 37, 5
3, 462144, Note_on_c, 2, 34, 5
3, 462144, Note_on_c, 2, 89, 5
3, 462144, Note_on_c, 2, 85, 5
3, 462144, Note_on_c, 2, 82, 5
3, 462144, Note_on_c, 2, 94, 5
3, 462144, Note_on_c, 2, 29, 5
3, 462144, Note_on_c, 2, 25, 5
3, 462240, Note_off_c, 2, 25, 0
3, 462240, Note_off_c, 2, 29, 0
3, 462240, Note_off_c, 2, 94, 0
3, 462240, Note_off_c, 2, 82, 0
3, 462240, Note_off_c, 2, 85, 0
3, 462240, Note_off_c, 2, 89, 0
3, 462240, Note_off_c, 2, 34, 0
3, 462240, Note_off_c, 2, 37, 0
3, 462240, Note_off_c, 2, 41, 0
3, 462240, Note_off_c, 2, 46, 0
3, 462240, Note_off_c, 2, 49, 0
3, 462240, Note_off_c, 2, 53, 0
3, 462240, Note_off_c, 2, 58, 0
3, 462240, Note_off_c, 2, 61, 0
3, 462240, Note_off_c, 2, 65, 0
3, 462240, Note_off_c, 2, 70, 0
3, 462240, Note_off_c, 2, 73, 0
3, 462240, Note_off_c, 2, 77, 0
3, 462336, Note_on_c, 2, 77, 5
3, 462336, Note_on_c, 2, 73, 5
3, 462336, Note_on_c, 2, 70, 5
3, 462336, Note_on_c, 2, 65, 5
3, 462336, Note_on_c, 2, 61, 5
3, 462336, Note_on_c, 2, 58, 5
3, 462336, Note_on_c, 2, 53, 5
3, 462336, Note_on_c, 2, 49, 5
3, 462336, Note_on_c, 2, 46, 5
3, 462336, Note_on_c, 2, 41, 5
3, 462336, Note_on_c, 2, 37, 5
3, 462336, Note_on_c, 2, 34, 5
3, 462336, Note_on_c, 2, 89, 5
3, 462336, Note_on_c, 2, 85, 5
3, 462336, Note_on_c, 2, 82, 5
3, 462336, Note_on_c, 2, 94, 5
3, 462336, Note_on_c, 2, 29, 5
3, 462336, Note_on_c, 2, 25, 5
3, 462432, Note_off_c, 2, 25, 0
3, 462432, Note_off_c, 2, 29, 0
3, 462432, Note_off_c, 2, 94, 0
3, 462432, Note_off_c, 2, 82, 0
3, 462432, Note_off_c, 2, 85, 0
3, 462432, Note_off_c, 2, 89, 0
3, 462432, Note_off_c, 2, 34, 0
3, 462432, Note_off_c, 2, 37, 0
3, 462432, Note_off_c, 2, 41, 0
3, 462432, Note_off_c, 2, 46, 0
3, 462432, Note_off_c, 2, 49, 0
3, 462432, Note_off_c, 2, 53, 0
3, 462432, Note_off_c, 2, 58, 0
3, 462432, Note_off_c, 2, 61, 0
3, 462432, Note_off_c, 2, 65, 0
3, 462432, Note_off_c, 2, 70, 0
3, 462432, Note_off_c, 2, 73, 0
3, 462432, Note_off_c, 2, 77, 0
3, 462528, Note_on_c, 2, 77, 5
3, 462528, Note_on_c, 2, 73, 5
3, 462528, Note_on_c, 2, 70, 5
3, 462528, Note_on_c, 2, 65, 5
3, 462528, Note_on_c, 2, 61, 5
3, 462528, Note_on_c, 2, 58, 5
3, 462528, Note_on_c, 2, 53, 5
3, 462528, Note_on_c, 2, 49, 5
3, 462528, Note_on_c, 2, 46, 5
3, 462528, Note_on_c, 2, 41, 5
3, 462528, Note_on_c, 2, 37, 5
3, 462528, Note_on_c, 2, 34, 5
3, 462528, Note_on_c, 2, 89, 5
3, 462528, Note_on_c, 2, 85, 5
3, 462528, Note_on_c, 2, 82, 5
3, 462528, Note_on_c, 2, 94, 5
3, 462528, Note_on_c, 2, 29, 5
3, 462528, Note_on_c, 2, 25, 5
3, 462624, Note_off_c, 2, 25, 0
3, 462624, Note_off_c, 2, 29, 0
3, 462624, Note_off_c, 2, 94, 0
3, 462624, Note_off_c, 2, 82, 0
3, 462624, Note_off_c, 2, 85, 0
3, 462624, Note_off_c, 2, 89, 0
3, 462624, Note_off_c, 2, 34, 0
3, 462624, Note_off_c, 2, 37, 0
3, 462624, Note_off_c, 2, 41, 0
3, 462624, Note_off_c, 2, 46, 0
3, 462624, Note_off_c, 2, 49, 0
3, 462624, Note_off_c, 2, 53, 0
3, 462624, Note_off_c, 2, 58, 0
3, 462624, Note_off_c, 2, 61, 0
3, 462624, Note_off_c, 2, 65, 0
3, 462624, Note_off_c, 2, 70, 0
3, 462624, Note_off_c, 2, 73, 0
3, 462624, Note_off_c, 2, 77, 0
3, 462720, Note_on_c, 2, 77, 5
3, 462720, Note_on_c, 2, 73, 5
3, 462720, Note_on_c, 2, 70, 5
3, 462720, Note_on_c, 2, 65, 5
3, 462720, Note_on_c, 2, 61, 5
3, 462720, Note_on_c, 2, 58, 5
3, 462720, Note_on_c, 2, 53, 5
3, 462720, Note_on_c, 2, 49, 5
3, 462720, Note_on_c, 2, 46, 5
3, 462720, Note_on_c, 2, 41, 5
3, 462720, Note_on_c, 2, 37, 5
3, 462720, Note_on_c, 2, 34, 5
3, 462720, Note_on_c, 2, 89, 5
3, 462720, Note_on_c, 2, 85, 5
3, 462720, Note_on_c, 2, 82, 5
3, 462720, Note_on_c, 2, 94, 5
3, 462720, Note_on_c, 2, 29, 5
3, 462720, Note_on_c, 2, 25, 5
3, 462816, Note_off_c, 2, 25, 0
3, 462816, Note_off_c, 2, 29, 0
3, 462816, Note_off_c, 2, 94, 0
3, 462816, Note_off_c, 2, 82, 0
3, 462816, Note_off_c, 2, 85, 0
3, 462816, Note_off_c, 2, 89, 0
3, 462816, Note_off_c, 2, 34, 0
3, 462816, Note_off_c, 2, 37, 0
3, 462816, Note_off_c, 2, 41, 0
3, 462816, Note_off_c, 2, 46, 0
3, 462816, Note_off_c, 2, 49, 0
3, 462816, Note_off_c, 2, 53, 0
3, 462816, Note_off_c, 2, 58, 0
3, 462816, Note_off_c, 2, 61, 0
3, 462816, Note_off_c, 2, 65, 0
3, 462816, Note_off_c, 2, 70, 0
3, 462816, Note_off_c, 2, 73, 0
3, 462816, Note_off_c, 2, 77, 0
3, 462912, Note_on_c, 2, 77, 5
3, 462912, Note_on_c, 2, 73, 5
3, 462912, Note_on_c, 2, 70, 5
3, 462912, Note_on_c, 2, 65, 5
3, 462912, Note_on_c, 2, 61, 5
3, 462912, Note_on_c, 2, 58, 5
3, 462912, Note_on_c, 2, 53, 5
3, 462912, Note_on_c, 2, 49, 5
3, 462912, Note_on_c, 2, 46, 5
3, 462912, Note_on_c, 2, 41, 5
3, 462912, Note_on_c, 2, 37, 5
3, 462912, Note_on_c, 2, 34, 5
3, 462912, Note_on_c, 2, 89, 5
3, 462912, Note_on_c, 2, 85, 5
3, 462912, Note_on_c, 2, 82, 5
3, 462912, Note_on_c, 2, 94, 5
3, 462912, Note_on_c, 2, 29, 5
3, 462912, Note_on_c, 2, 25, 5
3, 463008, Note_off_c, 2, 25, 0
3, 463008, Note_off_c, 2, 29, 0
3, 463008, Note_off_c, 2, 94, 0
3, 463008, Note_off_c, 2, 82, 0
3, 463008, Note_off_c, 2, 85, 0
3, 463008, Note_off_c, 2, 89, 0
3, 463008, Note_off_c, 2, 34, 0
3, 463008, Note_off_c, 2, 37, 0
3, 463008, Note_off_c, 2, 41, 0
3, 463008, Note_off_c, 2, 46, 0
3, 463008, Note_off_c, 2, 49, 0
3, 463008, Note_off_c, 2, 53, 0
3, 463008, Note_off_c, 2, 58, 0
3, 463008, Note_off_c, 2, 61, 0
3, 463008, Note_off_c, 2, 65, 0
3, 463008, Note_off_c, 2, 70, 0
3, 463008, Note_off_c, 2, 73, 0
3, 463008, Note_off_c, 2, 77, 0
3, 463104, Note_on_c, 2, 77, 5
3, 463104, Note_on_c, 2, 73, 5
3, 463104, Note_on_c, 2, 70, 5
3, 463104, Note_on_c, 2, 65, 5
3, 463104, Note_on_c, 2, 61, 5
3, 463104, Note_on_c, 2, 58, 5
3, 463104, Note_on_c, 2, 53, 5
3, 463104, Note_on_c, 2, 49, 5
3, 463104, Note_on_c, 2, 46, 5
3, 463104, Note_on_c, 2, 41, 5
3, 463104, Note_on_c, 2, 37, 5
3, 463104, Note_on_c, 2, 34, 5
3, 463104, Note_on_c, 2, 89, 5
3, 463104, Note_on_c, 2, 85, 5
3, 463104, Note_on_c, 2, 82, 5
3, 463104, Note_on_c, 2, 94, 5
3, 463104, Note_on_c, 2, 29, 5
3, 463104, Note_on_c, 2, 25, 5
3, 463200, Note_off_c, 2, 25, 0
3, 463200, Note_off_c, 2, 29, 0
3, 463200, Note_off_c, 2, 94, 0
3, 463200, Note_off_c, 2, 82, 0
3, 463200, Note_off_c, 2, 85, 0
3, 463200, Note_off_c, 2, 89, 0
3, 463200, Note_off_c, 2, 34, 0
3, 463200, Note_off_c, 2, 37, 0
3, 463200, Note_off_c, 2, 41, 0
3, 463200, Note_off_c, 2, 46, 0
3, 463200, Note_off_c, 2, 49, 0
3, 463200, Note_off_c, 2, 53, 0
3, 463200, Note_off_c, 2, 58, 0
3, 463200, Note_off_c, 2, 61, 0
3, 463200, Note_off_c, 2, 65, 0
3, 463200, Note_off_c, 2, 70, 0
3, 463200, Note_off_c, 2, 73, 0
3, 463200, Note_off_c, 2, 77, 0
3, 463296, Note_on_c, 2, 77, 5
3, 463296, Note_on_c, 2, 73, 5
3, 463296, Note_on_c, 2, 70, 5
3, 463296, Note_on_c, 2, 65, 5
3, 463296, Note_on_c, 2, 61, 5
3, 463296, Note_on_c, 2, 58, 5
3, 463296, Note_on_c, 2, 53, 5
3, 463296, Note_on_c, 2, 49, 5
3, 463296, Note_on_c, 2, 46, 5
3, 463296, Note_on_c, 2, 41, 5
3, 463296, Note_on_c, 2, 37, 5
3, 463296, Note_on_c, 2, 34, 5
3, 463296, Note_on_c, 2, 89, 5
3, 463296, Note_on_c, 2, 85, 5
3, 463296, Note_on_c, 2, 82, 5
3, 463296, Note_on_c, 2, 94, 5
3, 463296, Note_on_c, 2, 29, 5
3, 463296, Note_on_c, 2, 25, 5
3, 463392, Note_off_c, 2, 25, 0
3, 463392, Note_off_c, 2, 29, 0
3, 463392, Note_off_c, 2, 94, 0
3, 463392, Note_off_c, 2, 82, 0
3, 463392, Note_off_c, 2, 85, 0
3, 463392, Note_off_c, 2, 89, 0
3, 463392, Note_off_c, 2, 34, 0
3, 463392, Note_off_c, 2, 37, 0
3, 463392, Note_off_c, 2, 41, 0
3, 463392, Note_off_c, 2, 46, 0
3, 463392, Note_off_c, 2, 49, 0
3, 463392, Note_off_c, 2, 53, 0
3, 463392, Note_off_c, 2, 58, 0
3, 463392, Note_off_c, 2, 61, 0
3, 463392, Note_off_c, 2, 65, 0
3, 463392, Note_off_c, 2, 70, 0
3, 463392, Note_off_c, 2, 73, 0
3, 463392, Note_off_c, 2, 77, 0
3, 463488, Note_on_c, 2, 77, 5
3, 463488, Note_on_c, 2, 73, 5
3, 463488, Note_on_c, 2, 70, 5
3, 463488, Note_on_c, 2, 65, 5
3, 463488, Note_on_c, 2, 61, 5
3, 463488, Note_on_c, 2, 58, 5
3, 463488, Note_on_c, 2, 53, 5
3, 463488, Note_on_c, 2, 49, 5
3, 463488, Note_on_c, 2, 46, 5
3, 463488, Note_on_c, 2, 41, 5
3, 463488, Note_on_c, 2, 37, 5
3, 463488, Note_on_c, 2, 34, 5
3, 463488, Note_on_c, 2, 89, 5
3, 463488, Note_on_c, 2, 85, 5
3, 463488, Note_on_c, 2, 82, 5
3, 463488, Note_on_c, 2, 94, 5
3, 463488, Note_on_c, 2, 29, 5
3, 463488, Note_on_c, 2, 25, 5
3, 463584, Note_off_c, 2, 25, 0
3, 463584, Note_off_c, 2, 29, 0
3, 463584, Note_off_c, 2, 94, 0
3, 463584, Note_off_c, 2, 82, 0
3, 463584, Note_off_c, 2, 85, 0
3, 463584, Note_off_c, 2, 89, 0
3, 463584, Note_off_c, 2, 34, 0
3, 463584, Note_off_c, 2, 37, 0
3, 463584, Note_off_c, 2, 41, 0
3, 463584, Note_off_c, 2, 46, 0
3, 463584, Note_off_c, 2, 49, 0
3, 463584, Note_off_c, 2, 53, 0
3, 463584, Note_off_c, 2, 58, 0
3, 463584, Note_off_c, 2, 61, 0
3, 463584, Note_off_c, 2, 65, 0
3, 463584, Note_off_c, 2, 70, 0
3, 463584, Note_off_c, 2, 73, 0
3, 463584, Note_off_c, 2, 77, 0
3, 463680, Note_on_c, 2, 77, 5
3, 463680, Note_on_c, 2, 73, 5
3, 463680, Note_on_c, 2, 70, 5
3, 463680, Note_on_c, 2, 65, 5
3, 463680, Note_on_c, 2, 61, 5
3, 463680, Note_on_c, 2, 58, 5
3, 463680, Note_on_c, 2, 53, 5
3, 463680, Note_on_c, 2, 49, 5
3, 463680, Note_on_c, 2, 46, 5
3, 463680, Note_on_c, 2, 41, 5
3, 463680, Note_on_c, 2, 37, 5
3, 463680, Note_on_c, 2, 34, 5
3, 463680, Note_on_c, 2, 89, 5
3, 463680, Note_on_c, 2, 85, 5
3, 463680, Note_on_c, 2, 82, 5
3, 463680, Note_on_c, 2, 94, 5
3, 463680, Note_on_c, 2, 29, 5
3, 463680, Note_on_c, 2, 25, 5
3, 463776, Note_off_c, 2, 25, 0
3, 463776, Note_off_c, 2, 29, 0
3, 463776, Note_off_c, 2, 94, 0
3, 463776, Note_off_c, 2, 82, 0
3, 463776, Note_off_c, 2, 85, 0
3, 463776, Note_off_c, 2, 89, 0
3, 463776, Note_off_c, 2, 34, 0
3, 463776, Note_off_c, 2, 37, 0
3, 463776, Note_off_c, 2, 41, 0
3, 463776, Note_off_c, 2, 46, 0
3, 463776, Note_off_c, 2, 49, 0
3, 463776, Note_off_c, 2, 53, 0
3, 463776, Note_off_c, 2, 58, 0
3, 463776, Note_off_c, 2, 61, 0
3, 463776, Note_off_c, 2, 65, 0
3, 463776, Note_off_c, 2, 70, 0
3, 463776, Note_off_c, 2, 73, 0
3, 463776, Note_off_c, 2, 77, 0
3, 463872, Note_on_c, 2, 77, 5
3, 463872, Note_on_c, 2, 73, 5
3, 463872, Note_on_c, 2, 70, 5
3, 463872, Note_on_c, 2, 65, 5
3, 463872, Note_on_c, 2, 61, 5
3, 463872, Note_on_c, 2, 58, 5
3, 463872, Note_on_c, 2, 53, 5
3, 463872, Note_on_c, 2, 49, 5
3, 463872, Note_on_c, 2, 46, 5
3, 463872, Note_on_c, 2, 41, 5
3, 463872, Note_on_c, 2, 37, 5
3, 463872, Note_on_c, 2, 34, 5
3, 463872, Note_on_c, 2, 89, 5
3, 463872, Note_on_c, 2, 85, 5
3, 463872, Note_on_c, 2, 82, 5
3, 463872, Note_on_c, 2, 94, 5
3, 463872, Note_on_c, 2, 29, 5
3, 463872, Note_on_c, 2, 25, 5
3, 463968, Note_off_c, 2, 25, 0
3, 463968, Note_off_c, 2, 29, 0
3, 463968, Note_off_c, 2, 94, 0
3, 463968, Note_off_c, 2, 82, 0
3, 463968, Note_off_c, 2, 85, 0
3, 463968, Note_off_c, 2, 89, 0
3, 463968, Note_off_c, 2, 34, 0
3, 463968, Note_off_c, 2, 37, 0
3, 463968, Note_off_c, 2, 41, 0
3, 463968, Note_off_c, 2, 46, 0
3, 463968, Note_off_c, 2, 49, 0
3, 463968, Note_off_c, 2, 53, 0
3, 463968, Note_off_c, 2, 58, 0
3, 463968, Note_off_c, 2, 61, 0
3, 463968, Note_off_c, 2, 65, 0
3, 463968, Note_off_c, 2, 70, 0
3, 463968, Note_off_c, 2, 73, 0
3, 463968, Note_off_c, 2, 77, 0
3, 464064, Note_on_c, 2, 77, 5
3, 464064, Note_on_c, 2, 73, 5
3, 464064, Note_on_c, 2, 70, 5
3, 464064, Note_on_c, 2, 65, 5
3, 464064, Note_on_c, 2, 61, 5
3, 464064, Note_on_c, 2, 58, 5
3, 464064, Note_on_c, 2, 53, 5
3, 464064, Note_on_c, 2, 49, 5
3, 464064, Note_on_c, 2, 46, 5
3, 464064, Note_on_c, 2, 41, 5
3, 464064, Note_on_c, 2, 37, 5
3, 464064, Note_on_c, 2, 34, 5
3, 464064, Note_on_c, 2, 89, 5
3, 464064, Note_on_c, 2, 85, 5
3, 464064, Note_on_c, 2, 82, 5
3, 464064, Note_on_c, 2, 94, 5
3, 464064, Note_on_c, 2, 29, 5
3, 464064, Note_on_c, 2, 25, 5
3, 464160, Note_off_c, 2, 25, 0
3, 464160, Note_off_c, 2, 29, 0
3, 464160, Note_off_c, 2, 94, 0
3, 464160, Note_off_c, 2, 82, 0
3, 464160, Note_off_c, 2, 85, 0
3, 464160, Note_off_c, 2, 89, 0
3, 464160, Note_off_c, 2, 34, 0
3, 464160, Note_off_c, 2, 37, 0
3, 464160, Note_off_c, 2, 41, 0
3, 464160, Note_off_c, 2, 46, 0
3, 464160, Note_off_c, 2, 49, 0
3, 464160, Note_off_c, 2, 53, 0
3, 464160, Note_off_c, 2, 58, 0
3, 464160, Note_off_c, 2, 61, 0
3, 464160, Note_off_c, 2, 65, 0
3, 464160, Note_off_c, 2, 70, 0
3, 464160, Note_off_c, 2, 73, 0
3, 464160, Note_off_c, 2, 77, 0
3, 464256, Note_on_c, 2, 77, 5
3, 464256, Note_on_c, 2, 73, 5
3, 464256, Note_on_c, 2, 70, 5
3, 464256, Note_on_c, 2, 65, 5
3, 464256, Note_on_c, 2, 61, 5
3, 464256, Note_on_c, 2, 58, 5
3, 464256, Note_on_c, 2, 53, 5
3, 464256, Note_on_c, 2, 49, 5
3, 464256, Note_on_c, 2, 46, 5
3, 464256, Note_on_c, 2, 41, 5
3, 464256, Note_on_c, 2, 37, 5
3, 464256, Note_on_c, 2, 34, 5
3, 464256, Note_on_c, 2, 89, 5
3, 464256, Note_on_c, 2, 85, 5
3, 464256, Note_on_c, 2, 82, 5
3, 464256, Note_on_c, 2, 94, 5
3, 464256, Note_on_c, 2, 29, 5
3, 464256, Note_on_c, 2, 25, 5
3, 464352, Note_off_c, 2, 25, 0
3, 464352, Note_off_c, 2, 29, 0
3, 464352, Note_off_c, 2, 94, 0
3, 464352, Note_off_c, 2, 82, 0
3, 464352, Note_off_c, 2, 85, 0
3, 464352, Note_off_c, 2, 89, 0
3, 464352, Note_off_c, 2, 34, 0
3, 464352, Note_off_c, 2, 37, 0
3, 464352, Note_off_c, 2, 41, 0
3, 464352, Note_off_c, 2, 46, 0
3, 464352, Note_off_c, 2, 49, 0
3, 464352, Note_off_c, 2, 53, 0
3, 464352, Note_off_c, 2, 58, 0
3, 464352, Note_off_c, 2, 61, 0
3, 464352, Note_off_c, 2, 65, 0
3, 464352, Note_off_c, 2, 70, 0
3, 464352, Note_off_c, 2, 73, 0
3, 464352, Note_off_c, 2, 77, 0
3, 464448, Note_on_c, 2, 77, 5
3, 464448, Note_on_c, 2, 73, 5
3, 464448, Note_on_c, 2, 70, 5
3, 464448, Note_on_c, 2, 65, 5
3, 464448, Note_on_c, 2, 61, 5
3, 464448, Note_on_c, 2, 58, 5
3, 464448, Note_on_c, 2, 53, 5
3, 464448, Note_on_c, 2, 49, 5
3, 464448, Note_on_c, 2, 46, 5
3, 464448, Note_on_c, 2, 41, 5
3, 464448, Note_on_c, 2, 37, 5
3, 464448, Note_on_c, 2, 34, 5
3, 464448, Note_on_c, 2, 89, 5
3, 464448, Note_on_c, 2, 85, 5
3, 464448, Note_on_c, 2, 82, 5
3, 464448, Note_on_c, 2, 94, 5
3, 464448, Note_on_c, 2, 29, 5
3, 464448, Note_on_c, 2, 25, 5
3, 464544, Note_off_c, 2, 25, 0
3, 464544, Note_off_c, 2, 29, 0
3, 464544, Note_off_c, 2, 94, 0
3, 464544, Note_off_c, 2, 82, 0
3, 464544, Note_off_c, 2, 85, 0
3, 464544, Note_off_c, 2, 89, 0
3, 464544, Note_off_c, 2, 34, 0
3, 464544, Note_off_c, 2, 37, 0
3, 464544, Note_off_c, 2, 41, 0
3, 464544, Note_off_c, 2, 46, 0
3, 464544, Note_off_c, 2, 49, 0
3, 464544, Note_off_c, 2, 53, 0
3, 464544, Note_off_c, 2, 58, 0
3, 464544, Note_off_c, 2, 61, 0
3, 464544, Note_off_c, 2, 65, 0
3, 464544, Note_off_c, 2, 70, 0
3, 464544, Note_off_c, 2, 73, 0
3, 464544, Note_off_c, 2, 77, 0
3, 464640, Note_on_c, 2, 77, 5
3, 464640, Note_on_c, 2, 73, 5
3, 464640, Note_on_c, 2, 70, 5
3, 464640, Note_on_c, 2, 65, 5
3, 464640, Note_on_c, 2, 61, 5
3, 464640, Note_on_c, 2, 58, 5
3, 464640, Note_on_c, 2, 53, 5
3, 464640, Note_on_c, 2, 49, 5
3, 464640, Note_on_c, 2, 46, 5
3, 464640, Note_on_c, 2, 41, 5
3, 464640, Note_on_c, 2, 37, 5
3, 464640, Note_on_c, 2, 34, 5
3, 464640, Note_on_c, 2, 89, 5
3, 464640, Note_on_c, 2, 85, 5
3, 464640, Note_on_c, 2, 82, 5
3, 464640, Note_on_c, 2, 94, 5
3, 464640, Note_on_c, 2, 29, 5
3, 464640, Note_on_c, 2, 25, 5
3, 464736, Note_off_c, 2, 25, 0
3, 464736, Note_off_c, 2, 29, 0
3, 464736, Note_off_c, 2, 94, 0
3, 464736, Note_off_c, 2, 82, 0
3, 464736, Note_off_c, 2, 85, 0
3, 464736, Note_off_c, 2, 89, 0
3, 464736, Note_off_c, 2, 34, 0
3, 464736, Note_off_c, 2, 37, 0
3, 464736, Note_off_c, 2, 41, 0
3, 464736, Note_off_c, 2, 46, 0
3, 464736, Note_off_c, 2, 49, 0
3, 464736, Note_off_c, 2, 53, 0
3, 464736, Note_off_c, 2, 58, 0
3, 464736, Note_off_c, 2, 61, 0
3, 464736, Note_off_c, 2, 65, 0
3, 464736, Note_off_c, 2, 70, 0
3, 464736, Note_off_c, 2, 73, 0
3, 464736, Note_off_c, 2, 77, 0
3, 464832, Note_on_c, 2, 77, 5
3, 464832, Note_on_c, 2, 73, 5
3, 464832, Note_on_c, 2, 70, 5
3, 464832, Note_on_c, 2, 65, 5
3, 464832, Note_on_c, 2, 61, 5
3, 464832, Note_on_c, 2, 58, 5
3, 464832, Note_on_c, 2, 53, 5
3, 464832, Note_on_c, 2, 49, 5
3, 464832, Note_on_c, 2, 46, 5
3, 464832, Note_on_c, 2, 41, 5
3, 464832, Note_on_c, 2, 37, 5
3, 464832, Note_on_c, 2, 34, 5
3, 464832, Note_on_c, 2, 89, 5
3, 464832, Note_on_c, 2, 85, 5
3, 464832, Note_on_c, 2, 82, 5
3, 464832, Note_on_c, 2, 94, 5
3, 464832, Note_on_c, 2, 29, 5
3, 464832, Note_on_c, 2, 25, 5
3, 464928, Note_off_c, 2, 25, 0
3, 464928, Note_off_c, 2, 29, 0
3, 464928, Note_off_c, 2, 94, 0
3, 464928, Note_off_c, 2, 82, 0
3, 464928, Note_off_c, 2, 85, 0
3, 464928, Note_off_c, 2, 89, 0
3, 464928, Note_off_c, 2, 34, 0
3, 464928, Note_off_c, 2, 37, 0
3, 464928, Note_off_c, 2, 41, 0
3, 464928, Note_off_c, 2, 46, 0
3, 464928, Note_off_c, 2, 49, 0
3, 464928, Note_off_c, 2, 53, 0
3, 464928, Note_off_c, 2, 58, 0
3, 464928, Note_off_c, 2, 61, 0
3, 464928, Note_off_c, 2, 65, 0
3, 464928, Note_off_c, 2, 70, 0
3, 464928, Note_off_c, 2, 73, 0
3, 464928, Note_off_c, 2, 77, 0
3, 465024, Note_on_c, 2, 77, 5
3, 465024, Note_on_c, 2, 73, 5
3, 465024, Note_on_c, 2, 70, 5
3, 465024, Note_on_c, 2, 65, 5
3, 465024, Note_on_c, 2, 61, 5
3, 465024, Note_on_c, 2, 58, 5
3, 465024, Note_on_c, 2, 53, 5
3, 465024, Note_on_c, 2, 49, 5
3, 465024, Note_on_c, 2, 46, 5
3, 465024, Note_on_c, 2, 41, 5
3, 465024, Note_on_c, 2, 37, 5
3, 465024, Note_on_c, 2, 34, 5
3, 465024, Note_on_c, 2, 89, 5
3, 465024, Note_on_c, 2, 85, 5
3, 465024, Note_on_c, 2, 82, 5
3, 465024, Note_on_c, 2, 94, 5
3, 465024, Note_on_c, 2, 29, 5
3, 465024, Note_on_c, 2, 25, 5
3, 465120, Note_off_c, 2, 25, 0
3, 465120, Note_off_c, 2, 29, 0
3, 465120, Note_off_c, 2, 94, 0
3, 465120, Note_off_c, 2, 82, 0
3, 465120, Note_off_c, 2, 85, 0
3, 465120, Note_off_c, 2, 89, 0
3, 465120, Note_off_c, 2, 34, 0
3, 465120, Note_off_c, 2, 37, 0
3, 465120, Note_off_c, 2, 41, 0
3, 465120, Note_off_c, 2, 46, 0
3, 465120, Note_off_c, 2, 49, 0
3, 465120, Note_off_c, 2, 53, 0
3, 465120, Note_off_c, 2, 58, 0
3, 465120, Note_off_c, 2, 61, 0
3, 465120, Note_off_c, 2, 65, 0
3, 465120, Note_off_c, 2, 70, 0
3, 465120, Note_off_c, 2, 73, 0
3, 465120, Note_off_c, 2, 77, 0
3, 465216, Note_on_c, 2, 77, 5
3, 465216, Note_on_c, 2, 73, 5
3, 465216, Note_on_c, 2, 70, 5
3, 465216, Note_on_c, 2, 65, 5
3, 465216, Note_on_c, 2, 61, 5
3, 465216, Note_on_c, 2, 58, 5
3, 465216, Note_on_c, 2, 53, 5
3, 465216, Note_on_c, 2, 49, 5
3, 465216, Note_on_c, 2, 46, 5
3, 465216, Note_on_c, 2, 41, 5
3, 465216, Note_on_c, 2, 37, 5
3, 465216, Note_on_c, 2, 34, 5
3, 465216, Note_on_c, 2, 89, 5
3, 465216, Note_on_c, 2, 85, 5
3, 465216, Note_on_c, 2, 82, 5
3, 465216, Note_on_c, 2, 94, 5
3, 465216, Note_on_c, 2, 29, 5
3, 465216, Note_on_c, 2, 25, 5
3, 465312, Note_off_c, 2, 25, 0
3, 465312, Note_off_c, 2, 29, 0
3, 465312, Note_off_c, 2, 94, 0
3, 465312, Note_off_c, 2, 82, 0
3, 465312, Note_off_c, 2, 85, 0
3, 465312, Note_off_c, 2, 89, 0
3, 465312, Note_off_c, 2, 34, 0
3, 465312, Note_off_c, 2, 37, 0
3, 465312, Note_off_c, 2, 41, 0
3, 465312, Note_off_c, 2, 46, 0
3, 465312, Note_off_c, 2, 49, 0
3, 465312, Note_off_c, 2, 53, 0
3, 465312, Note_off_c, 2, 58, 0
3, 465312, Note_off_c, 2, 61, 0
3, 465312, Note_off_c, 2, 65, 0
3, 465312, Note_off_c, 2, 70, 0
3, 465312, Note_off_c, 2, 73, 0
3, 465312, Note_off_c, 2, 77, 0
3, 465408, Note_on_c, 2, 77, 5
3, 465408, Note_on_c, 2, 73, 5
3, 465408, Note_on_c, 2, 70, 5
3, 465408, Note_on_c, 2, 65, 5
3, 465408, Note_on_c, 2, 61, 5
3, 465408, Note_on_c, 2, 58, 5
3, 465408, Note_on_c, 2, 53, 5
3, 465408, Note_on_c, 2, 49, 5
3, 465408, Note_on_c, 2, 46, 5
3, 465408, Note_on_c, 2, 41, 5
3, 465408, Note_on_c, 2, 37, 5
3, 465408, Note_on_c, 2, 34, 5
3, 465408, Note_on_c, 2, 89, 5
3, 465408, Note_on_c, 2, 85, 5
3, 465408, Note_on_c, 2, 82, 5
3, 465408, Note_on_c, 2, 94, 5
3, 465408, Note_on_c, 2, 29, 5
3, 465408, Note_on_c, 2, 25, 5
3, 465504, Note_off_c, 2, 25, 0
3, 465504, Note_off_c, 2, 29, 0
3, 465504, Note_off_c, 2, 94, 0
3, 465504, Note_off_c, 2, 82, 0
3, 465504, Note_off_c, 2, 85, 0
3, 465504, Note_off_c, 2, 89, 0
3, 465504, Note_off_c, 2, 34, 0
3, 465504, Note_off_c, 2, 37, 0
3, 465504, Note_off_c, 2, 41, 0
3, 465504, Note_off_c, 2, 46, 0
3, 465504, Note_off_c, 2, 49, 0
3, 465504, Note_off_c, 2, 53, 0
3, 465504, Note_off_c, 2, 58, 0
3, 465504, Note_off_c, 2, 61, 0
3, 465504, Note_off_c, 2, 65, 0
3, 465504, Note_off_c, 2, 70, 0
3, 465504, Note_off_c, 2, 73, 0
3, 465504, Note_off_c, 2, 77, 0
3, 465600, Note_on_c, 2, 77, 5
3, 465600, Note_on_c, 2, 73, 5
3, 465600, Note_on_c, 2, 70, 5
3, 465600, Note_on_c, 2, 65, 5
3, 465600, Note_on_c, 2, 61, 5
3, 465600, Note_on_c, 2, 58, 5
3, 465600, Note_on_c, 2, 53, 5
3, 465600, Note_on_c, 2, 49, 5
3, 465600, Note_on_c, 2, 46, 5
3, 465600, Note_on_c, 2, 41, 5
3, 465600, Note_on_c, 2, 37, 5
3, 465600, Note_on_c, 2, 34, 5
3, 465600, Note_on_c, 2, 89, 5
3, 465600, Note_on_c, 2, 85, 5
3, 465600, Note_on_c, 2, 82, 5
3, 465600, Note_on_c, 2, 94, 5
3, 465600, Note_on_c, 2, 29, 5
3, 465600, Note_on_c, 2, 25, 5
3, 465696, Note_off_c, 2, 25, 0
3, 465696, Note_off_c, 2, 29, 0
3, 465696, Note_off_c, 2, 94, 0
3, 465696, Note_off_c, 2, 82, 0
3, 465696, Note_off_c, 2, 85, 0
3, 465696, Note_off_c, 2, 89, 0
3, 465696, Note_off_c, 2, 34, 0
3, 465696, Note_off_c, 2, 37, 0
3, 465696, Note_off_c, 2, 41, 0
3, 465696, Note_off_c, 2, 46, 0
3, 465696, Note_off_c, 2, 49, 0
3, 465696, Note_off_c, 2, 53, 0
3, 465696, Note_off_c, 2, 58, 0
3, 465696, Note_off_c, 2, 61, 0
3, 465696, Note_off_c, 2, 65, 0
3, 465696, Note_off_c, 2, 70, 0
3, 465696, Note_off_c, 2, 73, 0
3, 465696, Note_off_c, 2, 77, 0
3, 465792, Note_on_c, 2, 77, 5
3, 465792, Note_on_c, 2, 73, 5
3, 465792, Note_on_c, 2, 70, 5
3, 465792, Note_on_c, 2, 65, 5
3, 465792, Note_on_c, 2, 61, 5
3, 465792, Note_on_c, 2, 58, 5
3, 465792, Note_on_c, 2, 53, 5
3, 465792, Note_on_c, 2, 49, 5
3, 465792, Note_on_c, 2, 46, 5
3, 465792, Note_on_c, 2, 41, 5
3, 465792, Note_on_c, 2, 37, 5
3, 465792, Note_on_c, 2, 34, 5
3, 465792, Note_on_c, 2, 89, 5
3, 465792, Note_on_c, 2, 85, 5
3, 465792, Note_on_c, 2, 82, 5
3, 465792, Note_on_c, 2, 94, 5
3, 465792, Note_on_c, 2, 29, 5
3, 465792, Note_on_c, 2, 25, 5
3, 465888, Note_off_c, 2, 25, 0
3, 465888, Note_off_c, 2, 29, 0
3, 465888, Note_off_c, 2, 94, 0
3, 465888, Note_off_c, 2, 82, 0
3, 465888, Note_off_c, 2, 85, 0
3, 465888, Note_off_c, 2, 89, 0
3, 465888, Note_off_c, 2, 34, 0
3, 465888, Note_off_c, 2, 37, 0
3, 465888, Note_off_c, 2, 41, 0
3, 465888, Note_off_c, 2, 46, 0
3, 465888, Note_off_c, 2, 49, 0
3, 465888, Note_off_c, 2, 53, 0
3, 465888, Note_off_c, 2, 58, 0
3, 465888, Note_off_c, 2, 61, 0
3, 465888, Note_off_c, 2, 65, 0
3, 465888, Note_off_c, 2, 70, 0
3, 465888, Note_off_c, 2, 73, 0
3, 465888, Note_off_c, 2, 77, 0
3, 465984, Note_on_c, 2, 77, 5
3, 465984, Note_on_c, 2, 73, 5
3, 465984, Note_on_c, 2, 70, 5
3, 465984, Note_on_c, 2, 65, 5
3, 465984, Note_on_c, 2, 61, 5
3, 465984, Note_on_c, 2, 58, 5
3, 465984, Note_on_c, 2, 53, 5
3, 465984, Note_on_c, 2, 49, 5
3, 465984, Note_on_c, 2, 46, 5
3, 465984, Note_on_c, 2, 41, 5
3, 465984, Note_on_c, 2, 37, 5
3, 465984, Note_on_c, 2, 34, 5
3, 465984, Note_on_c, 2, 89, 5
3, 465984, Note_on_c, 2, 85, 5
3, 465984, Note_on_c, 2, 82, 5
3, 465984, Note_on_c, 2, 94, 5
3, 465984, Note_on_c, 2, 29, 5
3, 465984, Note_on_c, 2, 25, 5
3, 466080, Note_off_c, 2, 25, 0
3, 466080, Note_off_c, 2, 29, 0
3, 466080, Note_off_c, 2, 94, 0
3, 466080, Note_off_c, 2, 82, 0
3, 466080, Note_off_c, 2, 85, 0
3, 466080, Note_off_c, 2, 89, 0
3, 466080, Note_off_c, 2, 34, 0
3, 466080, Note_off_c, 2, 37, 0
3, 466080, Note_off_c, 2, 41, 0
3, 466080, Note_off_c, 2, 46, 0
3, 466080, Note_off_c, 2, 49, 0
3, 466080, Note_off_c, 2, 53, 0
3, 466080, Note_off_c, 2, 58, 0
3, 466080, Note_off_c, 2, 61, 0
3, 466080, Note_off_c, 2, 65, 0
3, 466080, Note_off_c, 2, 70, 0
3, 466080, Note_off_c, 2, 73, 0
3, 466080, Note_off_c, 2, 77, 0
3, 466176, Note_on_c, 2, 77, 5
3, 466176, Note_on_c, 2, 73, 5
3, 466176, Note_on_c, 2, 70, 5
3, 466176, Note_on_c, 2, 65, 5
3, 466176, Note_on_c, 2, 61, 5
3, 466176, Note_on_c, 2, 58, 5
3, 466176, Note_on_c, 2, 53, 5
3, 466176, Note_on_c, 2, 49, 5
3, 466176, Note_on_c, 2, 46, 5
3, 466176, Note_on_c, 2, 41, 5
3, 466176, Note_on_c, 2, 37, 5
3, 466176, Note_on_c, 2, 34, 5
3, 466176, Note_on_c, 2, 89, 5
3, 466176, Note_on_c, 2, 85, 5
3, 466176, Note_on_c, 2, 82, 5
3, 466176, Note_on_c, 2, 94, 5
3, 466176, Note_on_c, 2, 29, 5
3, 466176, Note_on_c, 2, 25, 5
3, 466272, Note_off_c, 2, 25, 0
3, 466272, Note_off_c, 2, 29, 0
3, 466272, Note_off_c, 2, 94, 0
3, 466272, Note_off_c, 2, 82, 0
3, 466272, Note_off_c, 2, 85, 0
3, 466272, Note_off_c, 2, 89, 0
3, 466272, Note_off_c, 2, 34, 0
3, 466272, Note_off_c, 2, 37, 0
3, 466272, Note_off_c, 2, 41, 0
3, 466272, Note_off_c, 2, 46, 0
3, 466272, Note_off_c, 2, 49, 0
3, 466272, Note_off_c, 2, 53, 0
3, 466272, Note_off_c, 2, 58, 0
3, 466272, Note_off_c, 2, 61, 0
3, 466272, Note_off_c, 2, 65, 0
3, 466272, Note_off_c, 2, 70, 0
3, 466272, Note_off_c, 2, 73, 0
3, 466272, Note_off_c, 2, 77, 0
3, 466368, Note_on_c, 2, 77, 5
3, 466368, Note_on_c, 2, 73, 5
3, 466368, Note_on_c, 2, 70, 5
3, 466368, Note_on_c, 2, 65, 5
3, 466368, Note_on_c, 2, 61, 5
3, 466368, Note_on_c, 2, 58, 5
3, 466368, Note_on_c, 2, 53, 5
3, 466368, Note_on_c, 2, 49, 5
3, 466368, Note_on_c, 2, 46, 5
3, 466368, Note_on_c, 2, 41, 5
3, 466368, Note_on_c, 2, 37, 5
3, 466368, Note_on_c, 2, 34, 5
3, 466368, Note_on_c, 2, 89, 5
3, 466368, Note_on_c, 2, 85, 5
3, 466368, Note_on_c, 2, 82, 5
3, 466368, Note_on_c, 2, 94, 5
3, 466368, Note_on_c, 2, 29, 5
3, 466368, Note_on_c, 2, 25, 5
3, 466464, Note_off_c, 2, 25, 0
3, 466464, Note_off_c, 2, 29, 0
3, 466464, Note_off_c, 2, 94, 0
3, 466464, Note_off_c, 2, 82, 0
3, 466464, Note_off_c, 2, 85, 0
3, 466464, Note_off_c, 2, 89, 0
3, 466464, Note_off_c, 2, 34, 0
3, 466464, Note_off_c, 2, 37, 0
3, 466464, Note_off_c, 2, 41, 0
3, 466464, Note_off_c, 2, 46, 0
3, 466464, Note_off_c, 2, 49, 0
3, 466464, Note_off_c, 2, 53, 0
3, 466464, Note_off_c, 2, 58, 0
3, 466464, Note_off_c, 2, 61, 0
3, 466464, Note_off_c, 2, 65, 0
3, 466464, Note_off_c, 2, 70, 0
3, 466464, Note_off_c, 2, 73, 0
3, 466464, Note_off_c, 2, 77, 0
3, 466560, Note_on_c, 2, 77, 5
3, 466560, Note_on_c, 2, 73, 5
3, 466560, Note_on_c, 2, 70, 5
3, 466560, Note_on_c, 2, 65, 5
3, 466560, Note_on_c, 2, 61, 5
3, 466560, Note_on_c, 2, 58, 5
3, 466560, Note_on_c, 2, 53, 5
3, 466560, Note_on_c, 2, 49, 5
3, 466560, Note_on_c, 2, 46, 5
3, 466560, Note_on_c, 2, 41, 5
3, 466560, Note_on_c, 2, 37, 5
3, 466560, Note_on_c, 2, 34, 5
3, 466560, Note_on_c, 2, 89, 5
3, 466560, Note_on_c, 2, 85, 5
3, 466560, Note_on_c, 2, 82, 5
3, 466560, Note_on_c, 2, 94, 5
3, 466560, Note_on_c, 2, 29, 5
3, 466560, Note_on_c, 2, 25, 5
3, 466656, Note_off_c, 2, 25, 0
3, 466656, Note_off_c, 2, 29, 0
3, 466656, Note_off_c, 2, 94, 0
3, 466656, Note_off_c, 2, 82, 0
3, 466656, Note_off_c, 2, 85, 0
3, 466656, Note_off_c, 2, 89, 0
3, 466656, Note_off_c, 2, 34, 0
3, 466656, Note_off_c, 2, 37, 0
3, 466656, Note_off_c, 2, 41, 0
3, 466656, Note_off_c, 2, 46, 0
3, 466656, Note_off_c, 2, 49, 0
3, 466656, Note_off_c, 2, 53, 0
3, 466656, Note_off_c, 2, 58, 0
3, 466656, Note_off_c, 2, 61, 0
3, 466656, Note_off_c, 2, 65, 0
3, 466656, Note_off_c, 2, 70, 0
3, 466656, Note_off_c, 2, 73, 0
3, 466656, Note_off_c, 2, 77, 0
3, 466752, Note_on_c, 2, 77, 5
3, 466752, Note_on_c, 2, 73, 5
3, 466752, Note_on_c, 2, 70, 5
3, 466752, Note_on_c, 2, 65, 5
3, 466752, Note_on_c, 2, 61, 5
3, 466752, Note_on_c, 2, 58, 5
3, 466752, Note_on_c, 2, 53, 5
3, 466752, Note_on_c, 2, 49, 5
3, 466752, Note_on_c, 2, 46, 5
3, 466752, Note_on_c, 2, 41, 5
3, 466752, Note_on_c, 2, 37, 5
3, 466752, Note_on_c, 2, 34, 5
3, 466752, Note_on_c, 2, 89, 5
3, 466752, Note_on_c, 2, 85, 5
3, 466752, Note_on_c, 2, 82, 5
3, 466752, Note_on_c, 2, 94, 5
3, 466752, Note_on_c, 2, 29, 5
3, 466752, Note_on_c, 2, 25, 5
3, 466848, Note_off_c, 2, 25, 0
3, 466848, Note_off_c, 2, 29, 0
3, 466848, Note_off_c, 2, 94, 0
3, 466848, Note_off_c, 2, 82, 0
3, 466848, Note_off_c, 2, 85, 0
3, 466848, Note_off_c, 2, 89, 0
3, 466848, Note_off_c, 2, 34, 0
3, 466848, Note_off_c, 2, 37, 0
3, 466848, Note_off_c, 2, 41, 0
3, 466848, Note_off_c, 2, 46, 0
3, 466848, Note_off_c, 2, 49, 0
3, 466848, Note_off_c, 2, 53, 0
3, 466848, Note_off_c, 2, 58, 0
3, 466848, Note_off_c, 2, 61, 0
3, 466848, Note_off_c, 2, 65, 0
3, 466848, Note_off_c, 2, 70, 0
3, 466848, Note_off_c, 2, 73, 0
3, 466848, Note_off_c, 2, 77, 0
3, 466944, Note_on_c, 2, 78, 5
3, 466944, Note_on_c, 2, 75, 5
3, 466944, Note_on_c, 2, 70, 5
3, 466944, Note_on_c, 2, 66, 5
3, 466944, Note_on_c, 2, 63, 5
3, 466944, Note_on_c, 2, 58, 5
3, 466944, Note_on_c, 2, 54, 5
3, 466944, Note_on_c, 2, 51, 5
3, 466944, Note_on_c, 2, 46, 5
3, 466944, Note_on_c, 2, 42, 5
3, 466944, Note_on_c, 2, 39, 5
3, 466944, Note_on_c, 2, 34, 5
3, 466944, Note_on_c, 2, 90, 5
3, 466944, Note_on_c, 2, 87, 5
3, 466944, Note_on_c, 2, 82, 5
3, 466944, Note_on_c, 2, 94, 5
3, 466944, Note_on_c, 2, 30, 5
3, 466944, Note_on_c, 2, 27, 5
3, 467040, Note_off_c, 2, 27, 0
3, 467040, Note_off_c, 2, 30, 0
3, 467040, Note_off_c, 2, 94, 0
3, 467040, Note_off_c, 2, 82, 0
3, 467040, Note_off_c, 2, 87, 0
3, 467040, Note_off_c, 2, 90, 0
3, 467040, Note_off_c, 2, 34, 0
3, 467040, Note_off_c, 2, 39, 0
3, 467040, Note_off_c, 2, 42, 0
3, 467040, Note_off_c, 2, 46, 0
3, 467040, Note_off_c, 2, 51, 0
3, 467040, Note_off_c, 2, 54, 0
3, 467040, Note_off_c, 2, 58, 0
3, 467040, Note_off_c, 2, 63, 0
3, 467040, Note_off_c, 2, 66, 0
3, 467040, Note_off_c, 2, 70, 0
3, 467040, Note_off_c, 2, 75, 0
3, 467040, Note_off_c, 2, 78, 0
3, 467136, Note_on_c, 2, 78, 5
3, 467136, Note_on_c, 2, 75, 5
3, 467136, Note_on_c, 2, 70, 5
3, 467136, Note_on_c, 2, 66, 5
3, 467136, Note_on_c, 2, 63, 5
3, 467136, Note_on_c, 2, 58, 5
3, 467136, Note_on_c, 2, 54, 5
3, 467136, Note_on_c, 2, 51, 5
3, 467136, Note_on_c, 2, 46, 5
3, 467136, Note_on_c, 2, 42, 5
3, 467136, Note_on_c, 2, 39, 5
3, 467136, Note_on_c, 2, 34, 5
3, 467136, Note_on_c, 2, 90, 5
3, 467136, Note_on_c, 2, 87, 5
3, 467136, Note_on_c, 2, 82, 5
3, 467136, Note_on_c, 2, 94, 5
3, 467136, Note_on_c, 2, 30, 5
3, 467136, Note_on_c, 2, 27, 5
3, 467232, Note_off_c, 2, 27, 0
3, 467232, Note_off_c, 2, 30, 0
3, 467232, Note_off_c, 2, 94, 0
3, 467232, Note_off_c, 2, 82, 0
3, 467232, Note_off_c, 2, 87, 0
3, 467232, Note_off_c, 2, 90, 0
3, 467232, Note_off_c, 2, 34, 0
3, 467232, Note_off_c, 2, 39, 0
3, 467232, Note_off_c, 2, 42, 0
3, 467232, Note_off_c, 2, 46, 0
3, 467232, Note_off_c, 2, 51, 0
3, 467232, Note_off_c, 2, 54, 0
3, 467232, Note_off_c, 2, 58, 0
3, 467232, Note_off_c, 2, 63, 0
3, 467232, Note_off_c, 2, 66, 0
3, 467232, Note_off_c, 2, 70, 0
3, 467232, Note_off_c, 2, 75, 0
3, 467232, Note_off_c, 2, 78, 0
3, 467328, Note_on_c, 2, 78, 5
3, 467328, Note_on_c, 2, 75, 5
3, 467328, Note_on_c, 2, 70, 5
3, 467328, Note_on_c, 2, 66, 5
3, 467328, Note_on_c, 2, 63, 5
3, 467328, Note_on_c, 2, 58, 5
3, 467328, Note_on_c, 2, 54, 5
3, 467328, Note_on_c, 2, 51, 5
3, 467328, Note_on_c, 2, 46, 5
3, 467328, Note_on_c, 2, 42, 5
3, 467328, Note_on_c, 2, 39, 5
3, 467328, Note_on_c, 2, 34, 5
3, 467328, Note_on_c, 2, 90, 5
3, 467328, Note_on_c, 2, 87, 5
3, 467328, Note_on_c, 2, 82, 5
3, 467328, Note_on_c, 2, 94, 5
3, 467328, Note_on_c, 2, 30, 5
3, 467328, Note_on_c, 2, 27, 5
3, 467424, Note_off_c, 2, 27, 0
3, 467424, Note_off_c, 2, 30, 0
3, 467424, Note_off_c, 2, 94, 0
3, 467424, Note_off_c, 2, 82, 0
3, 467424, Note_off_c, 2, 87, 0
3, 467424, Note_off_c, 2, 90, 0
3, 467424, Note_off_c, 2, 34, 0
3, 467424, Note_off_c, 2, 39, 0
3, 467424, Note_off_c, 2, 42, 0
3, 467424, Note_off_c, 2, 46, 0
3, 467424, Note_off_c, 2, 51, 0
3, 467424, Note_off_c, 2, 54, 0
3, 467424, Note_off_c, 2, 58, 0
3, 467424, Note_off_c, 2, 63, 0
3, 467424, Note_off_c, 2, 66, 0
3, 467424, Note_off_c, 2, 70, 0
3, 467424, Note_off_c, 2, 75, 0
3, 467424, Note_off_c, 2, 78, 0
3, 467520, Note_on_c, 2, 78, 5
3, 467520, Note_on_c, 2, 75, 5
3, 467520, Note_on_c, 2, 70, 5
3, 467520, Note_on_c, 2, 66, 5
3, 467520, Note_on_c, 2, 63, 5
3, 467520, Note_on_c, 2, 58, 5
3, 467520, Note_on_c, 2, 54, 5
3, 467520, Note_on_c, 2, 51, 5
3, 467520, Note_on_c, 2, 46, 5
3, 467520, Note_on_c, 2, 42, 5
3, 467520, Note_on_c, 2, 39, 5
3, 467520, Note_on_c, 2, 34, 5
3, 467520, Note_on_c, 2, 90, 5
3, 467520, Note_on_c, 2, 87, 5
3, 467520, Note_on_c, 2, 82, 5
3, 467520, Note_on_c, 2, 94, 5
3, 467520, Note_on_c, 2, 30, 5
3, 467520, Note_on_c, 2, 27, 5
3, 467616, Note_off_c, 2, 27, 0
3, 467616, Note_off_c, 2, 30, 0
3, 467616, Note_off_c, 2, 94, 0
3, 467616, Note_off_c, 2, 82, 0
3, 467616, Note_off_c, 2, 87, 0
3, 467616, Note_off_c, 2, 90, 0
3, 467616, Note_off_c, 2, 34, 0
3, 467616, Note_off_c, 2, 39, 0
3, 467616, Note_off_c, 2, 42, 0
3, 467616, Note_off_c, 2, 46, 0
3, 467616, Note_off_c, 2, 51, 0
3, 467616, Note_off_c, 2, 54, 0
3, 467616, Note_off_c, 2, 58, 0
3, 467616, Note_off_c, 2, 63, 0
3, 467616, Note_off_c, 2, 66, 0
3, 467616, Note_off_c, 2, 70, 0
3, 467616, Note_off_c, 2, 75, 0
3, 467616, Note_off_c, 2, 78, 0
3, 467712, Note_on_c, 2, 78, 5
3, 467712, Note_on_c, 2, 75, 5
3, 467712, Note_on_c, 2, 70, 5
3, 467712, Note_on_c, 2, 66, 5
3, 467712, Note_on_c, 2, 63, 5
3, 467712, Note_on_c, 2, 58, 5
3, 467712, Note_on_c, 2, 54, 5
3, 467712, Note_on_c, 2, 51, 5
3, 467712, Note_on_c, 2, 46, 5
3, 467712, Note_on_c, 2, 42, 5
3, 467712, Note_on_c, 2, 39, 5
3, 467712, Note_on_c, 2, 34, 5
3, 467712, Note_on_c, 2, 90, 5
3, 467712, Note_on_c, 2, 87, 5
3, 467712, Note_on_c, 2, 82, 5
3, 467712, Note_on_c, 2, 94, 5
3, 467712, Note_on_c, 2, 30, 5
3, 467712, Note_on_c, 2, 27, 5
3, 467808, Note_off_c, 2, 27, 0
3, 467808, Note_off_c, 2, 30, 0
3, 467808, Note_off_c, 2, 94, 0
3, 467808, Note_off_c, 2, 82, 0
3, 467808, Note_off_c, 2, 87, 0
3, 467808, Note_off_c, 2, 90, 0
3, 467808, Note_off_c, 2, 34, 0
3, 467808, Note_off_c, 2, 39, 0
3, 467808, Note_off_c, 2, 42, 0
3, 467808, Note_off_c, 2, 46, 0
3, 467808, Note_off_c, 2, 51, 0
3, 467808, Note_off_c, 2, 54, 0
3, 467808, Note_off_c, 2, 58, 0
3, 467808, Note_off_c, 2, 63, 0
3, 467808, Note_off_c, 2, 66, 0
3, 467808, Note_off_c, 2, 70, 0
3, 467808, Note_off_c, 2, 75, 0
3, 467808, Note_off_c, 2, 78, 0
3, 467904, Note_on_c, 2, 78, 5
3, 467904, Note_on_c, 2, 75, 5
3, 467904, Note_on_c, 2, 70, 5
3, 467904, Note_on_c, 2, 66, 5
3, 467904, Note_on_c, 2, 63, 5
3, 467904, Note_on_c, 2, 58, 5
3, 467904, Note_on_c, 2, 54, 5
3, 467904, Note_on_c, 2, 51, 5
3, 467904, Note_on_c, 2, 46, 5
3, 467904, Note_on_c, 2, 42, 5
3, 467904, Note_on_c, 2, 39, 5
3, 467904, Note_on_c, 2, 34, 5
3, 467904, Note_on_c, 2, 90, 5
3, 467904, Note_on_c, 2, 87, 5
3, 467904, Note_on_c, 2, 82, 5
3, 467904, Note_on_c, 2, 94, 5
3, 467904, Note_on_c, 2, 30, 5
3, 467904, Note_on_c, 2, 27, 5
3, 468000, Note_off_c, 2, 27, 0
3, 468000, Note_off_c, 2, 30, 0
3, 468000, Note_off_c, 2, 94, 0
3, 468000, Note_off_c, 2, 82, 0
3, 468000, Note_off_c, 2, 87, 0
3, 468000, Note_off_c, 2, 90, 0
3, 468000, Note_off_c, 2, 34, 0
3, 468000, Note_off_c, 2, 39, 0
3, 468000, Note_off_c, 2, 42, 0
3, 468000, Note_off_c, 2, 46, 0
3, 468000, Note_off_c, 2, 51, 0
3, 468000, Note_off_c, 2, 54, 0
3, 468000, Note_off_c, 2, 58, 0
3, 468000, Note_off_c, 2, 63, 0
3, 468000, Note_off_c, 2, 66, 0
3, 468000, Note_off_c, 2, 70, 0
3, 468000, Note_off_c, 2, 75, 0
3, 468000, Note_off_c, 2, 78, 0
3, 468096, Note_on_c, 2, 78, 5
3, 468096, Note_on_c, 2, 75, 5
3, 468096, Note_on_c, 2, 70, 5
3, 468096, Note_on_c, 2, 66, 5
3, 468096, Note_on_c, 2, 63, 5
3, 468096, Note_on_c, 2, 58, 5
3, 468096, Note_on_c, 2, 54, 5
3, 468096, Note_on_c, 2, 51, 5
3, 468096, Note_on_c, 2, 46, 5
3, 468096, Note_on_c, 2, 42, 5
3, 468096, Note_on_c, 2, 39, 5
3, 468096, Note_on_c, 2, 34, 5
3, 468096, Note_on_c, 2, 90, 5
3, 468096, Note_on_c, 2, 87, 5
3, 468096, Note_on_c, 2, 82, 5
3, 468096, Note_on_c, 2, 94, 5
3, 468096, Note_on_c, 2, 30, 5
3, 468096, Note_on_c, 2, 27, 5
3, 468192, Note_off_c, 2, 27, 0
3, 468192, Note_off_c, 2, 30, 0
3, 468192, Note_off_c, 2, 94, 0
3, 468192, Note_off_c, 2, 82, 0
3, 468192, Note_off_c, 2, 87, 0
3, 468192, Note_off_c, 2, 90, 0
3, 468192, Note_off_c, 2, 34, 0
3, 468192, Note_off_c, 2, 39, 0
3, 468192, Note_off_c, 2, 42, 0
3, 468192, Note_off_c, 2, 46, 0
3, 468192, Note_off_c, 2, 51, 0
3, 468192, Note_off_c, 2, 54, 0
3, 468192, Note_off_c, 2, 58, 0
3, 468192, Note_off_c, 2, 63, 0
3, 468192, Note_off_c, 2, 66, 0
3, 468192, Note_off_c, 2, 70, 0
3, 468192, Note_off_c, 2, 75, 0
3, 468192, Note_off_c, 2, 78, 0
3, 468288, Note_on_c, 2, 78, 5
3, 468288, Note_on_c, 2, 75, 5
3, 468288, Note_on_c, 2, 70, 5
3, 468288, Note_on_c, 2, 66, 5
3, 468288, Note_on_c, 2, 63, 5
3, 468288, Note_on_c, 2, 58, 5
3, 468288, Note_on_c, 2, 54, 5
3, 468288, Note_on_c, 2, 51, 5
3, 468288, Note_on_c, 2, 46, 5
3, 468288, Note_on_c, 2, 42, 5
3, 468288, Note_on_c, 2, 39, 5
3, 468288, Note_on_c, 2, 34, 5
3, 468288, Note_on_c, 2, 90, 5
3, 468288, Note_on_c, 2, 87, 5
3, 468288, Note_on_c, 2, 82, 5
3, 468288, Note_on_c, 2, 94, 5
3, 468288, Note_on_c, 2, 30, 5
3, 468288, Note_on_c, 2, 27, 5
3, 468384, Note_off_c, 2, 27, 0
3, 468384, Note_off_c, 2, 30, 0
3, 468384, Note_off_c, 2, 94, 0
3, 468384, Note_off_c, 2, 82, 0
3, 468384, Note_off_c, 2, 87, 0
3, 468384, Note_off_c, 2, 90, 0
3, 468384, Note_off_c, 2, 34, 0
3, 468384, Note_off_c, 2, 39, 0
3, 468384, Note_off_c, 2, 42, 0
3, 468384, Note_off_c, 2, 46, 0
3, 468384, Note_off_c, 2, 51, 0
3, 468384, Note_off_c, 2, 54, 0
3, 468384, Note_off_c, 2, 58, 0
3, 468384, Note_off_c, 2, 63, 0
3, 468384, Note_off_c, 2, 66, 0
3, 468384, Note_off_c, 2, 70, 0
3, 468384, Note_off_c, 2, 75, 0
3, 468384, Note_off_c, 2, 78, 0
3, 468480, Note_on_c, 2, 78, 5
3, 468480, Note_on_c, 2, 75, 5
3, 468480, Note_on_c, 2, 70, 5
3, 468480, Note_on_c, 2, 66, 5
3, 468480, Note_on_c, 2, 63, 5
3, 468480, Note_on_c, 2, 58, 5
3, 468480, Note_on_c, 2, 54, 5
3, 468480, Note_on_c, 2, 51, 5
3, 468480, Note_on_c, 2, 46, 5
3, 468480, Note_on_c, 2, 42, 5
3, 468480, Note_on_c, 2, 39, 5
3, 468480, Note_on_c, 2, 34, 5
3, 468480, Note_on_c, 2, 90, 5
3, 468480, Note_on_c, 2, 87, 5
3, 468480, Note_on_c, 2, 82, 5
3, 468480, Note_on_c, 2, 94, 5
3, 468480, Note_on_c, 2, 30, 5
3, 468480, Note_on_c, 2, 27, 5
3, 468576, Note_off_c, 2, 27, 0
3, 468576, Note_off_c, 2, 30, 0
3, 468576, Note_off_c, 2, 94, 0
3, 468576, Note_off_c, 2, 82, 0
3, 468576, Note_off_c, 2, 87, 0
3, 468576, Note_off_c, 2, 90, 0
3, 468576, Note_off_c, 2, 34, 0
3, 468576, Note_off_c, 2, 39, 0
3, 468576, Note_off_c, 2, 42, 0
3, 468576, Note_off_c, 2, 46, 0
3, 468576, Note_off_c, 2, 51, 0
3, 468576, Note_off_c, 2, 54, 0
3, 468576, Note_off_c, 2, 58, 0
3, 468576, Note_off_c, 2, 63, 0
3, 468576, Note_off_c, 2, 66, 0
3, 468576, Note_off_c, 2, 70, 0
3, 468576, Note_off_c, 2, 75, 0
3, 468576, Note_off_c, 2, 78, 0
3, 468672, Note_on_c, 2, 78, 5
3, 468672, Note_on_c, 2, 75, 5
3, 468672, Note_on_c, 2, 70, 5
3, 468672, Note_on_c, 2, 66, 5
3, 468672, Note_on_c, 2, 63, 5
3, 468672, Note_on_c, 2, 58, 5
3, 468672, Note_on_c, 2, 54, 5
3, 468672, Note_on_c, 2, 51, 5
3, 468672, Note_on_c, 2, 46, 5
3, 468672, Note_on_c, 2, 42, 5
3, 468672, Note_on_c, 2, 39, 5
3, 468672, Note_on_c, 2, 34, 5
3, 468672, Note_on_c, 2, 90, 5
3, 468672, Note_on_c, 2, 87, 5
3, 468672, Note_on_c, 2, 82, 5
3, 468672, Note_on_c, 2, 94, 5
3, 468672, Note_on_c, 2, 30, 5
3, 468672, Note_on_c, 2, 27, 5
3, 468768, Note_off_c, 2, 27, 0
3, 468768, Note_off_c, 2, 30, 0
3, 468768, Note_off_c, 2, 94, 0
3, 468768, Note_off_c, 2, 82, 0
3, 468768, Note_off_c, 2, 87, 0
3, 468768, Note_off_c, 2, 90, 0
3, 468768, Note_off_c, 2, 34, 0
3, 468768, Note_off_c, 2, 39, 0
3, 468768, Note_off_c, 2, 42, 0
3, 468768, Note_off_c, 2, 46, 0
3, 468768, Note_off_c, 2, 51, 0
3, 468768, Note_off_c, 2, 54, 0
3, 468768, Note_off_c, 2, 58, 0
3, 468768, Note_off_c, 2, 63, 0
3, 468768, Note_off_c, 2, 66, 0
3, 468768, Note_off_c, 2, 70, 0
3, 468768, Note_off_c, 2, 75, 0
3, 468768, Note_off_c, 2, 78, 0
3, 468864, Note_on_c, 2, 78, 5
3, 468864, Note_on_c, 2, 75, 5
3, 468864, Note_on_c, 2, 70, 5
3, 468864, Note_on_c, 2, 66, 5
3, 468864, Note_on_c, 2, 63, 5
3, 468864, Note_on_c, 2, 58, 5
3, 468864, Note_on_c, 2, 54, 5
3, 468864, Note_on_c, 2, 51, 5
3, 468864, Note_on_c, 2, 46, 5
3, 468864, Note_on_c, 2, 42, 5
3, 468864, Note_on_c, 2, 39, 5
3, 468864, Note_on_c, 2, 34, 5
3, 468864, Note_on_c, 2, 90, 5
3, 468864, Note_on_c, 2, 87, 5
3, 468864, Note_on_c, 2, 82, 5
3, 468864, Note_on_c, 2, 94, 5
3, 468864, Note_on_c, 2, 30, 5
3, 468864, Note_on_c, 2, 27, 5
3, 468960, Note_off_c, 2, 27, 0
3, 468960, Note_off_c, 2, 30, 0
3, 468960, Note_off_c, 2, 94, 0
3, 468960, Note_off_c, 2, 82, 0
3, 468960, Note_off_c, 2, 87, 0
3, 468960, Note_off_c, 2, 90, 0
3, 468960, Note_off_c, 2, 34, 0
3, 468960, Note_off_c, 2, 39, 0
3, 468960, Note_off_c, 2, 42, 0
3, 468960, Note_off_c, 2, 46, 0
3, 468960, Note_off_c, 2, 51, 0
3, 468960, Note_off_c, 2, 54, 0
3, 468960, Note_off_c, 2, 58, 0
3, 468960, Note_off_c, 2, 63, 0
3, 468960, Note_off_c, 2, 66, 0
3, 468960, Note_off_c, 2, 70, 0
3, 468960, Note_off_c, 2, 75, 0
3, 468960, Note_off_c, 2, 78, 0
3, 469056, Note_on_c, 2, 78, 5
3, 469056, Note_on_c, 2, 75, 5
3, 469056, Note_on_c, 2, 70, 5
3, 469056, Note_on_c, 2, 66, 5
3, 469056, Note_on_c, 2, 63, 5
3, 469056, Note_on_c, 2, 58, 5
3, 469056, Note_on_c, 2, 54, 5
3, 469056, Note_on_c, 2, 51, 5
3, 469056, Note_on_c, 2, 46, 5
3, 469056, Note_on_c, 2, 42, 5
3, 469056, Note_on_c, 2, 39, 5
3, 469056, Note_on_c, 2, 34, 5
3, 469056, Note_on_c, 2, 90, 5
3, 469056, Note_on_c, 2, 87, 5
3, 469056, Note_on_c, 2, 82, 5
3, 469056, Note_on_c, 2, 94, 5
3, 469056, Note_on_c, 2, 30, 5
3, 469056, Note_on_c, 2, 27, 5
3, 469152, Note_off_c, 2, 27, 0
3, 469152, Note_off_c, 2, 30, 0
3, 469152, Note_off_c, 2, 94, 0
3, 469152, Note_off_c, 2, 82, 0
3, 469152, Note_off_c, 2, 87, 0
3, 469152, Note_off_c, 2, 90, 0
3, 469152, Note_off_c, 2, 34, 0
3, 469152, Note_off_c, 2, 39, 0
3, 469152, Note_off_c, 2, 42, 0
3, 469152, Note_off_c, 2, 46, 0
3, 469152, Note_off_c, 2, 51, 0
3, 469152, Note_off_c, 2, 54, 0
3, 469152, Note_off_c, 2, 58, 0
3, 469152, Note_off_c, 2, 63, 0
3, 469152, Note_off_c, 2, 66, 0
3, 469152, Note_off_c, 2, 70, 0
3, 469152, Note_off_c, 2, 75, 0
3, 469152, Note_off_c, 2, 78, 0
3, 469248, Note_on_c, 2, 78, 5
3, 469248, Note_on_c, 2, 75, 5
3, 469248, Note_on_c, 2, 70, 5
3, 469248, Note_on_c, 2, 66, 5
3, 469248, Note_on_c, 2, 63, 5
3, 469248, Note_on_c, 2, 58, 5
3, 469248, Note_on_c, 2, 54, 5
3, 469248, Note_on_c, 2, 51, 5
3, 469248, Note_on_c, 2, 46, 5
3, 469248, Note_on_c, 2, 42, 5
3, 469248, Note_on_c, 2, 39, 5
3, 469248, Note_on_c, 2, 34, 5
3, 469248, Note_on_c, 2, 90, 5
3, 469248, Note_on_c, 2, 87, 5
3, 469248, Note_on_c, 2, 82, 5
3, 469248, Note_on_c, 2, 94, 5
3, 469248, Note_on_c, 2, 30, 5
3, 469248, Note_on_c, 2, 27, 5
3, 469344, Note_off_c, 2, 27, 0
3, 469344, Note_off_c, 2, 30, 0
3, 469344, Note_off_c, 2, 94, 0
3, 469344, Note_off_c, 2, 82, 0
3, 469344, Note_off_c, 2, 87, 0
3, 469344, Note_off_c, 2, 90, 0
3, 469344, Note_off_c, 2, 34, 0
3, 469344, Note_off_c, 2, 39, 0
3, 469344, Note_off_c, 2, 42, 0
3, 469344, Note_off_c, 2, 46, 0
3, 469344, Note_off_c, 2, 51, 0
3, 469344, Note_off_c, 2, 54, 0
3, 469344, Note_off_c, 2, 58, 0
3, 469344, Note_off_c, 2, 63, 0
3, 469344, Note_off_c, 2, 66, 0
3, 469344, Note_off_c, 2, 70, 0
3, 469344, Note_off_c, 2, 75, 0
3, 469344, Note_off_c, 2, 78, 0
3, 469440, Note_on_c, 2, 78, 5
3, 469440, Note_on_c, 2, 75, 5
3, 469440, Note_on_c, 2, 70, 5
3, 469440, Note_on_c, 2, 66, 5
3, 469440, Note_on_c, 2, 63, 5
3, 469440, Note_on_c, 2, 58, 5
3, 469440, Note_on_c, 2, 54, 5
3, 469440, Note_on_c, 2, 51, 5
3, 469440, Note_on_c, 2, 46, 5
3, 469440, Note_on_c, 2, 42, 5
3, 469440, Note_on_c, 2, 39, 5
3, 469440, Note_on_c, 2, 34, 5
3, 469440, Note_on_c, 2, 90, 5
3, 469440, Note_on_c, 2, 87, 5
3, 469440, Note_on_c, 2, 82, 5
3, 469440, Note_on_c, 2, 94, 5
3, 469440, Note_on_c, 2, 30, 5
3, 469440, Note_on_c, 2, 27, 5
3, 469536, Note_off_c, 2, 27, 0
3, 469536, Note_off_c, 2, 30, 0
3, 469536, Note_off_c, 2, 94, 0
3, 469536, Note_off_c, 2, 82, 0
3, 469536, Note_off_c, 2, 87, 0
3, 469536, Note_off_c, 2, 90, 0
3, 469536, Note_off_c, 2, 34, 0
3, 469536, Note_off_c, 2, 39, 0
3, 469536, Note_off_c, 2, 42, 0
3, 469536, Note_off_c, 2, 46, 0
3, 469536, Note_off_c, 2, 51, 0
3, 469536, Note_off_c, 2, 54, 0
3, 469536, Note_off_c, 2, 58, 0
3, 469536, Note_off_c, 2, 63, 0
3, 469536, Note_off_c, 2, 66, 0
3, 469536, Note_off_c, 2, 70, 0
3, 469536, Note_off_c, 2, 75, 0
3, 469536, Note_off_c, 2, 78, 0
3, 469632, Note_on_c, 2, 78, 5
3, 469632, Note_on_c, 2, 75, 5
3, 469632, Note_on_c, 2, 70, 5
3, 469632, Note_on_c, 2, 66, 5
3, 469632, Note_on_c, 2, 63, 5
3, 469632, Note_on_c, 2, 58, 5
3, 469632, Note_on_c, 2, 54, 5
3, 469632, Note_on_c, 2, 51, 5
3, 469632, Note_on_c, 2, 46, 5
3, 469632, Note_on_c, 2, 42, 5
3, 469632, Note_on_c, 2, 39, 5
3, 469632, Note_on_c, 2, 34, 5
3, 469632, Note_on_c, 2, 90, 5
3, 469632, Note_on_c, 2, 87, 5
3, 469632, Note_on_c, 2, 82, 5
3, 469632, Note_on_c, 2, 94, 5
3, 469632, Note_on_c, 2, 30, 5
3, 469632, Note_on_c, 2, 27, 5
3, 469728, Note_off_c, 2, 27, 0
3, 469728, Note_off_c, 2, 30, 0
3, 469728, Note_off_c, 2, 94, 0
3, 469728, Note_off_c, 2, 82, 0
3, 469728, Note_off_c, 2, 87, 0
3, 469728, Note_off_c, 2, 90, 0
3, 469728, Note_off_c, 2, 34, 0
3, 469728, Note_off_c, 2, 39, 0
3, 469728, Note_off_c, 2, 42, 0
3, 469728, Note_off_c, 2, 46, 0
3, 469728, Note_off_c, 2, 51, 0
3, 469728, Note_off_c, 2, 54, 0
3, 469728, Note_off_c, 2, 58, 0
3, 469728, Note_off_c, 2, 63, 0
3, 469728, Note_off_c, 2, 66, 0
3, 469728, Note_off_c, 2, 70, 0
3, 469728, Note_off_c, 2, 75, 0
3, 469728, Note_off_c, 2, 78, 0
3, 469824, Note_on_c, 2, 78, 5
3, 469824, Note_on_c, 2, 75, 5
3, 469824, Note_on_c, 2, 70, 5
3, 469824, Note_on_c, 2, 66, 5
3, 469824, Note_on_c, 2, 63, 5
3, 469824, Note_on_c, 2, 58, 5
3, 469824, Note_on_c, 2, 54, 5
3, 469824, Note_on_c, 2, 51, 5
3, 469824, Note_on_c, 2, 46, 5
3, 469824, Note_on_c, 2, 42, 5
3, 469824, Note_on_c, 2, 39, 5
3, 469824, Note_on_c, 2, 34, 5
3, 469824, Note_on_c, 2, 90, 5
3, 469824, Note_on_c, 2, 87, 5
3, 469824, Note_on_c, 2, 82, 5
3, 469824, Note_on_c, 2, 94, 5
3, 469824, Note_on_c, 2, 30, 5
3, 469824, Note_on_c, 2, 27, 5
3, 469920, Note_off_c, 2, 27, 0
3, 469920, Note_off_c, 2, 30, 0
3, 469920, Note_off_c, 2, 94, 0
3, 469920, Note_off_c, 2, 82, 0
3, 469920, Note_off_c, 2, 87, 0
3, 469920, Note_off_c, 2, 90, 0
3, 469920, Note_off_c, 2, 34, 0
3, 469920, Note_off_c, 2, 39, 0
3, 469920, Note_off_c, 2, 42, 0
3, 469920, Note_off_c, 2, 46, 0
3, 469920, Note_off_c, 2, 51, 0
3, 469920, Note_off_c, 2, 54, 0
3, 469920, Note_off_c, 2, 58, 0
3, 469920, Note_off_c, 2, 63, 0
3, 469920, Note_off_c, 2, 66, 0
3, 469920, Note_off_c, 2, 70, 0
3, 469920, Note_off_c, 2, 75, 0
3, 469920, Note_off_c, 2, 78, 0
3, 470016, Note_on_c, 2, 77, 5
3, 470016, Note_on_c, 2, 73, 5
3, 470016, Note_on_c, 2, 70, 5
3, 470016, Note_on_c, 2, 65, 5
3, 470016, Note_on_c, 2, 61, 5
3, 470016, Note_on_c, 2, 58, 5
3, 470016, Note_on_c, 2, 53, 5
3, 470016, Note_on_c, 2, 49, 5
3, 470016, Note_on_c, 2, 46, 5
3, 470016, Note_on_c, 2, 41, 5
3, 470016, Note_on_c, 2, 37, 5
3, 470016, Note_on_c, 2, 34, 5
3, 470016, Note_on_c, 2, 89, 5
3, 470016, Note_on_c, 2, 85, 5
3, 470016, Note_on_c, 2, 82, 5
3, 470016, Note_on_c, 2, 94, 5
3, 470016, Note_on_c, 2, 29, 5
3, 470016, Note_on_c, 2, 25, 5
3, 470112, Note_off_c, 2, 25, 0
3, 470112, Note_off_c, 2, 29, 0
3, 470112, Note_off_c, 2, 94, 0
3, 470112, Note_off_c, 2, 82, 0
3, 470112, Note_off_c, 2, 85, 0
3, 470112, Note_off_c, 2, 89, 0
3, 470112, Note_off_c, 2, 34, 0
3, 470112, Note_off_c, 2, 37, 0
3, 470112, Note_off_c, 2, 41, 0
3, 470112, Note_off_c, 2, 46, 0
3, 470112, Note_off_c, 2, 49, 0
3, 470112, Note_off_c, 2, 53, 0
3, 470112, Note_off_c, 2, 58, 0
3, 470112, Note_off_c, 2, 61, 0
3, 470112, Note_off_c, 2, 65, 0
3, 470112, Note_off_c, 2, 70, 0
3, 470112, Note_off_c, 2, 73, 0
3, 470112, Note_off_c, 2, 77, 0
3, 470208, Note_on_c, 2, 77, 5
3, 470208, Note_on_c, 2, 73, 5
3, 470208, Note_on_c, 2, 70, 5
3, 470208, Note_on_c, 2, 65, 5
3, 470208, Note_on_c, 2, 61, 5
3, 470208, Note_on_c, 2, 58, 5
3, 470208, Note_on_c, 2, 53, 5
3, 470208, Note_on_c, 2, 49, 5
3, 470208, Note_on_c, 2, 46, 5
3, 470208, Note_on_c, 2, 41, 5
3, 470208, Note_on_c, 2, 37, 5
3, 470208, Note_on_c, 2, 34, 5
3, 470208, Note_on_c, 2, 89, 5
3, 470208, Note_on_c, 2, 85, 5
3, 470208, Note_on_c, 2, 82, 5
3, 470208, Note_on_c, 2, 94, 5
3, 470208, Note_on_c, 2, 29, 5
3, 470208, Note_on_c, 2, 25, 5
3, 470304, Note_off_c, 2, 25, 0
3, 470304, Note_off_c, 2, 29, 0
3, 470304, Note_off_c, 2, 94, 0
3, 470304, Note_off_c, 2, 82, 0
3, 470304, Note_off_c, 2, 85, 0
3, 470304, Note_off_c, 2, 89, 0
3, 470304, Note_off_c, 2, 34, 0
3, 470304, Note_off_c, 2, 37, 0
3, 470304, Note_off_c, 2, 41, 0
3, 470304, Note_off_c, 2, 46, 0
3, 470304, Note_off_c, 2, 49, 0
3, 470304, Note_off_c, 2, 53, 0
3, 470304, Note_off_c, 2, 58, 0
3, 470304, Note_off_c, 2, 61, 0
3, 470304, Note_off_c, 2, 65, 0
3, 470304, Note_off_c, 2, 70, 0
3, 470304, Note_off_c, 2, 73, 0
3, 470304, Note_off_c, 2, 77, 0
3, 470400, Note_on_c, 2, 77, 5
3, 470400, Note_on_c, 2, 73, 5
3, 470400, Note_on_c, 2, 70, 5
3, 470400, Note_on_c, 2, 65, 5
3, 470400, Note_on_c, 2, 61, 5
3, 470400, Note_on_c, 2, 58, 5
3, 470400, Note_on_c, 2, 53, 5
3, 470400, Note_on_c, 2, 49, 5
3, 470400, Note_on_c, 2, 46, 5
3, 470400, Note_on_c, 2, 41, 5
3, 470400, Note_on_c, 2, 37, 5
3, 470400, Note_on_c, 2, 34, 5
3, 470400, Note_on_c, 2, 89, 5
3, 470400, Note_on_c, 2, 85, 5
3, 470400, Note_on_c, 2, 82, 5
3, 470400, Note_on_c, 2, 94, 5
3, 470400, Note_on_c, 2, 29, 5
3, 470400, Note_on_c, 2, 25, 5
3, 470496, Note_off_c, 2, 25, 0
3, 470496, Note_off_c, 2, 29, 0
3, 470496, Note_off_c, 2, 94, 0
3, 470496, Note_off_c, 2, 82, 0
3, 470496, Note_off_c, 2, 85, 0
3, 470496, Note_off_c, 2, 89, 0
3, 470496, Note_off_c, 2, 34, 0
3, 470496, Note_off_c, 2, 37, 0
3, 470496, Note_off_c, 2, 41, 0
3, 470496, Note_off_c, 2, 46, 0
3, 470496, Note_off_c, 2, 49, 0
3, 470496, Note_off_c, 2, 53, 0
3, 470496, Note_off_c, 2, 58, 0
3, 470496, Note_off_c, 2, 61, 0
3, 470496, Note_off_c, 2, 65, 0
3, 470496, Note_off_c, 2, 70, 0
3, 470496, Note_off_c, 2, 73, 0
3, 470496, Note_off_c, 2, 77, 0
3, 470592, Note_on_c, 2, 77, 5
3, 470592, Note_on_c, 2, 73, 5
3, 470592, Note_on_c, 2, 70, 5
3, 470592, Note_on_c, 2, 65, 5
3, 470592, Note_on_c, 2, 61, 5
3, 470592, Note_on_c, 2, 58, 5
3, 470592, Note_on_c, 2, 53, 5
3, 470592, Note_on_c, 2, 49, 5
3, 470592, Note_on_c, 2, 46, 5
3, 470592, Note_on_c, 2, 41, 5
3, 470592, Note_on_c, 2, 37, 5
3, 470592, Note_on_c, 2, 34, 5
3, 470592, Note_on_c, 2, 89, 5
3, 470592, Note_on_c, 2, 85, 5
3, 470592, Note_on_c, 2, 82, 5
3, 470592, Note_on_c, 2, 94, 5
3, 470592, Note_on_c, 2, 29, 5
3, 470592, Note_on_c, 2, 25, 5
3, 470688, Note_off_c, 2, 25, 0
3, 470688, Note_off_c, 2, 29, 0
3, 470688, Note_off_c, 2, 94, 0
3, 470688, Note_off_c, 2, 82, 0
3, 470688, Note_off_c, 2, 85, 0
3, 470688, Note_off_c, 2, 89, 0
3, 470688, Note_off_c, 2, 34, 0
3, 470688, Note_off_c, 2, 37, 0
3, 470688, Note_off_c, 2, 41, 0
3, 470688, Note_off_c, 2, 46, 0
3, 470688, Note_off_c, 2, 49, 0
3, 470688, Note_off_c, 2, 53, 0
3, 470688, Note_off_c, 2, 58, 0
3, 470688, Note_off_c, 2, 61, 0
3, 470688, Note_off_c, 2, 65, 0
3, 470688, Note_off_c, 2, 70, 0
3, 470688, Note_off_c, 2, 73, 0
3, 470688, Note_off_c, 2, 77, 0
3, 470784, Note_on_c, 2, 77, 5
3, 470784, Note_on_c, 2, 73, 5
3, 470784, Note_on_c, 2, 70, 5
3, 470784, Note_on_c, 2, 65, 5
3, 470784, Note_on_c, 2, 61, 5
3, 470784, Note_on_c, 2, 58, 5
3, 470784, Note_on_c, 2, 53, 5
3, 470784, Note_on_c, 2, 49, 5
3, 470784, Note_on_c, 2, 46, 5
3, 470784, Note_on_c, 2, 41, 5
3, 470784, Note_on_c, 2, 37, 5
3, 470784, Note_on_c, 2, 34, 5
3, 470784, Note_on_c, 2, 89, 5
3, 470784, Note_on_c, 2, 85, 5
3, 470784, Note_on_c, 2, 82, 5
3, 470784, Note_on_c, 2, 94, 5
3, 470784, Note_on_c, 2, 29, 5
3, 470784, Note_on_c, 2, 25, 5
3, 470880, Note_off_c, 2, 25, 0
3, 470880, Note_off_c, 2, 29, 0
3, 470880, Note_off_c, 2, 94, 0
3, 470880, Note_off_c, 2, 82, 0
3, 470880, Note_off_c, 2, 85, 0
3, 470880, Note_off_c, 2, 89, 0
3, 470880, Note_off_c, 2, 34, 0
3, 470880, Note_off_c, 2, 37, 0
3, 470880, Note_off_c, 2, 41, 0
3, 470880, Note_off_c, 2, 46, 0
3, 470880, Note_off_c, 2, 49, 0
3, 470880, Note_off_c, 2, 53, 0
3, 470880, Note_off_c, 2, 58, 0
3, 470880, Note_off_c, 2, 61, 0
3, 470880, Note_off_c, 2, 65, 0
3, 470880, Note_off_c, 2, 70, 0
3, 470880, Note_off_c, 2, 73, 0
3, 470880, Note_off_c, 2, 77, 0
3, 470976, Note_on_c, 2, 77, 5
3, 470976, Note_on_c, 2, 73, 5
3, 470976, Note_on_c, 2, 70, 5
3, 470976, Note_on_c, 2, 65, 5
3, 470976, Note_on_c, 2, 61, 5
3, 470976, Note_on_c, 2, 58, 5
3, 470976, Note_on_c, 2, 53, 5
3, 470976, Note_on_c, 2, 49, 5
3, 470976, Note_on_c, 2, 46, 5
3, 470976, Note_on_c, 2, 41, 5
3, 470976, Note_on_c, 2, 37, 5
3, 470976, Note_on_c, 2, 34, 5
3, 470976, Note_on_c, 2, 89, 5
3, 470976, Note_on_c, 2, 85, 5
3, 470976, Note_on_c, 2, 82, 5
3, 470976, Note_on_c, 2, 94, 5
3, 470976, Note_on_c, 2, 29, 5
3, 470976, Note_on_c, 2, 25, 5
3, 471072, Note_off_c, 2, 25, 0
3, 471072, Note_off_c, 2, 29, 0
3, 471072, Note_off_c, 2, 94, 0
3, 471072, Note_off_c, 2, 82, 0
3, 471072, Note_off_c, 2, 85, 0
3, 471072, Note_off_c, 2, 89, 0
3, 471072, Note_off_c, 2, 34, 0
3, 471072, Note_off_c, 2, 37, 0
3, 471072, Note_off_c, 2, 41, 0
3, 471072, Note_off_c, 2, 46, 0
3, 471072, Note_off_c, 2, 49, 0
3, 471072, Note_off_c, 2, 53, 0
3, 471072, Note_off_c, 2, 58, 0
3, 471072, Note_off_c, 2, 61, 0
3, 471072, Note_off_c, 2, 65, 0
3, 471072, Note_off_c, 2, 70, 0
3, 471072, Note_off_c, 2, 73, 0
3, 471072, Note_off_c, 2, 77, 0
3, 471168, Note_on_c, 2, 77, 5
3, 471168, Note_on_c, 2, 73, 5
3, 471168, Note_on_c, 2, 70, 5
3, 471168, Note_on_c, 2, 65, 5
3, 471168, Note_on_c, 2, 61, 5
3, 471168, Note_on_c, 2, 58, 5
3, 471168, Note_on_c, 2, 53, 5
3, 471168, Note_on_c, 2, 49, 5
3, 471168, Note_on_c, 2, 46, 5
3, 471168, Note_on_c, 2, 41, 5
3, 471168, Note_on_c, 2, 37, 5
3, 471168, Note_on_c, 2, 34, 5
3, 471168, Note_on_c, 2, 89, 5
3, 471168, Note_on_c, 2, 85, 5
3, 471168, Note_on_c, 2, 82, 5
3, 471168, Note_on_c, 2, 94, 5
3, 471168, Note_on_c, 2, 29, 5
3, 471168, Note_on_c, 2, 25, 5
3, 471264, Note_off_c, 2, 25, 0
3, 471264, Note_off_c, 2, 29, 0
3, 471264, Note_off_c, 2, 94, 0
3, 471264, Note_off_c, 2, 82, 0
3, 471264, Note_off_c, 2, 85, 0
3, 471264, Note_off_c, 2, 89, 0
3, 471264, Note_off_c, 2, 34, 0
3, 471264, Note_off_c, 2, 37, 0
3, 471264, Note_off_c, 2, 41, 0
3, 471264, Note_off_c, 2, 46, 0
3, 471264, Note_off_c, 2, 49, 0
3, 471264, Note_off_c, 2, 53, 0
3, 471264, Note_off_c, 2, 58, 0
3, 471264, Note_off_c, 2, 61, 0
3, 471264, Note_off_c, 2, 65, 0
3, 471264, Note_off_c, 2, 70, 0
3, 471264, Note_off_c, 2, 73, 0
3, 471264, Note_off_c, 2, 77, 0
3, 471360, Note_on_c, 2, 77, 5
3, 471360, Note_on_c, 2, 73, 5
3, 471360, Note_on_c, 2, 70, 5
3, 471360, Note_on_c, 2, 65, 5
3, 471360, Note_on_c, 2, 61, 5
3, 471360, Note_on_c, 2, 58, 5
3, 471360, Note_on_c, 2, 53, 5
3, 471360, Note_on_c, 2, 49, 5
3, 471360, Note_on_c, 2, 46, 5
3, 471360, Note_on_c, 2, 41, 5
3, 471360, Note_on_c, 2, 37, 5
3, 471360, Note_on_c, 2, 34, 5
3, 471360, Note_on_c, 2, 89, 5
3, 471360, Note_on_c, 2, 85, 5
3, 471360, Note_on_c, 2, 82, 5
3, 471360, Note_on_c, 2, 94, 5
3, 471360, Note_on_c, 2, 29, 5
3, 471360, Note_on_c, 2, 25, 5
3, 471456, Note_off_c, 2, 25, 0
3, 471456, Note_off_c, 2, 29, 0
3, 471456, Note_off_c, 2, 94, 0
3, 471456, Note_off_c, 2, 82, 0
3, 471456, Note_off_c, 2, 85, 0
3, 471456, Note_off_c, 2, 89, 0
3, 471456, Note_off_c, 2, 34, 0
3, 471456, Note_off_c, 2, 37, 0
3, 471456, Note_off_c, 2, 41, 0
3, 471456, Note_off_c, 2, 46, 0
3, 471456, Note_off_c, 2, 49, 0
3, 471456, Note_off_c, 2, 53, 0
3, 471456, Note_off_c, 2, 58, 0
3, 471456, Note_off_c, 2, 61, 0
3, 471456, Note_off_c, 2, 65, 0
3, 471456, Note_off_c, 2, 70, 0
3, 471456, Note_off_c, 2, 73, 0
3, 471456, Note_off_c, 2, 77, 0
3, 471552, Note_on_c, 2, 77, 5
3, 471552, Note_on_c, 2, 73, 5
3, 471552, Note_on_c, 2, 70, 5
3, 471552, Note_on_c, 2, 65, 5
3, 471552, Note_on_c, 2, 61, 5
3, 471552, Note_on_c, 2, 58, 5
3, 471552, Note_on_c, 2, 53, 5
3, 471552, Note_on_c, 2, 49, 5
3, 471552, Note_on_c, 2, 46, 5
3, 471552, Note_on_c, 2, 41, 5
3, 471552, Note_on_c, 2, 37, 5
3, 471552, Note_on_c, 2, 34, 5
3, 471552, Note_on_c, 2, 89, 5
3, 471552, Note_on_c, 2, 85, 5
3, 471552, Note_on_c, 2, 82, 5
3, 471552, Note_on_c, 2, 94, 5
3, 471552, Note_on_c, 2, 29, 5
3, 471552, Note_on_c, 2, 25, 5
3, 471648, Note_off_c, 2, 25, 0
3, 471648, Note_off_c, 2, 29, 0
3, 471648, Note_off_c, 2, 94, 0
3, 471648, Note_off_c, 2, 82, 0
3, 471648, Note_off_c, 2, 85, 0
3, 471648, Note_off_c, 2, 89, 0
3, 471648, Note_off_c, 2, 34, 0
3, 471648, Note_off_c, 2, 37, 0
3, 471648, Note_off_c, 2, 41, 0
3, 471648, Note_off_c, 2, 46, 0
3, 471648, Note_off_c, 2, 49, 0
3, 471648, Note_off_c, 2, 53, 0
3, 471648, Note_off_c, 2, 58, 0
3, 471648, Note_off_c, 2, 61, 0
3, 471648, Note_off_c, 2, 65, 0
3, 471648, Note_off_c, 2, 70, 0
3, 471648, Note_off_c, 2, 73, 0
3, 471648, Note_off_c, 2, 77, 0
3, 471744, Note_on_c, 2, 77, 5
3, 471744, Note_on_c, 2, 73, 5
3, 471744, Note_on_c, 2, 70, 5
3, 471744, Note_on_c, 2, 65, 5
3, 471744, Note_on_c, 2, 61, 5
3, 471744, Note_on_c, 2, 58, 5
3, 471744, Note_on_c, 2, 53, 5
3, 471744, Note_on_c, 2, 49, 5
3, 471744, Note_on_c, 2, 46, 5
3, 471744, Note_on_c, 2, 41, 5
3, 471744, Note_on_c, 2, 37, 5
3, 471744, Note_on_c, 2, 34, 5
3, 471744, Note_on_c, 2, 89, 5
3, 471744, Note_on_c, 2, 85, 5
3, 471744, Note_on_c, 2, 82, 5
3, 471744, Note_on_c, 2, 94, 5
3, 471744, Note_on_c, 2, 29, 5
3, 471744, Note_on_c, 2, 25, 5
3, 471840, Note_off_c, 2, 25, 0
3, 471840, Note_off_c, 2, 29, 0
3, 471840, Note_off_c, 2, 94, 0
3, 471840, Note_off_c, 2, 82, 0
3, 471840, Note_off_c, 2, 85, 0
3, 471840, Note_off_c, 2, 89, 0
3, 471840, Note_off_c, 2, 34, 0
3, 471840, Note_off_c, 2, 37, 0
3, 471840, Note_off_c, 2, 41, 0
3, 471840, Note_off_c, 2, 46, 0
3, 471840, Note_off_c, 2, 49, 0
3, 471840, Note_off_c, 2, 53, 0
3, 471840, Note_off_c, 2, 58, 0
3, 471840, Note_off_c, 2, 61, 0
3, 471840, Note_off_c, 2, 65, 0
3, 471840, Note_off_c, 2, 70, 0
3, 471840, Note_off_c, 2, 73, 0
3, 471840, Note_off_c, 2, 77, 0
3, 471936, Note_on_c, 2, 77, 5
3, 471936, Note_on_c, 2, 73, 5
3, 471936, Note_on_c, 2, 70, 5
3, 471936, Note_on_c, 2, 65, 5
3, 471936, Note_on_c, 2, 61, 5
3, 471936, Note_on_c, 2, 58, 5
3, 471936, Note_on_c, 2, 53, 5
3, 471936, Note_on_c, 2, 49, 5
3, 471936, Note_on_c, 2, 46, 5
3, 471936, Note_on_c, 2, 41, 5
3, 471936, Note_on_c, 2, 37, 5
3, 471936, Note_on_c, 2, 34, 5
3, 471936, Note_on_c, 2, 89, 5
3, 471936, Note_on_c, 2, 85, 5
3, 471936, Note_on_c, 2, 82, 5
3, 471936, Note_on_c, 2, 94, 5
3, 471936, Note_on_c, 2, 29, 5
3, 471936, Note_on_c, 2, 25, 5
3, 472032, Note_off_c, 2, 25, 0
3, 472032, Note_off_c, 2, 29, 0
3, 472032, Note_off_c, 2, 94, 0
3, 472032, Note_off_c, 2, 82, 0
3, 472032, Note_off_c, 2, 85, 0
3, 472032, Note_off_c, 2, 89, 0
3, 472032, Note_off_c, 2, 34, 0
3, 472032, Note_off_c, 2, 37, 0
3, 472032, Note_off_c, 2, 41, 0
3, 472032, Note_off_c, 2, 46, 0
3, 472032, Note_off_c, 2, 49, 0
3, 472032, Note_off_c, 2, 53, 0
3, 472032, Note_off_c, 2, 58, 0
3, 472032, Note_off_c, 2, 61, 0
3, 472032, Note_off_c, 2, 65, 0
3, 472032, Note_off_c, 2, 70, 0
3, 472032, Note_off_c, 2, 73, 0
3, 472032, Note_off_c, 2, 77, 0
3, 472128, Note_on_c, 2, 77, 5
3, 472128, Note_on_c, 2, 73, 5
3, 472128, Note_on_c, 2, 70, 5
3, 472128, Note_on_c, 2, 65, 5
3, 472128, Note_on_c, 2, 61, 5
3, 472128, Note_on_c, 2, 58, 5
3, 472128, Note_on_c, 2, 53, 5
3, 472128, Note_on_c, 2, 49, 5
3, 472128, Note_on_c, 2, 46, 5
3, 472128, Note_on_c, 2, 41, 5
3, 472128, Note_on_c, 2, 37, 5
3, 472128, Note_on_c, 2, 34, 5
3, 472128, Note_on_c, 2, 89, 5
3, 472128, Note_on_c, 2, 85, 5
3, 472128, Note_on_c, 2, 82, 5
3, 472128, Note_on_c, 2, 94, 5
3, 472128, Note_on_c, 2, 29, 5
3, 472128, Note_on_c, 2, 25, 5
3, 472224, Note_off_c, 2, 25, 0
3, 472224, Note_off_c, 2, 29, 0
3, 472224, Note_off_c, 2, 94, 0
3, 472224, Note_off_c, 2, 82, 0
3, 472224, Note_off_c, 2, 85, 0
3, 472224, Note_off_c, 2, 89, 0
3, 472224, Note_off_c, 2, 34, 0
3, 472224, Note_off_c, 2, 37, 0
3, 472224, Note_off_c, 2, 41, 0
3, 472224, Note_off_c, 2, 46, 0
3, 472224, Note_off_c, 2, 49, 0
3, 472224, Note_off_c, 2, 53, 0
3, 472224, Note_off_c, 2, 58, 0
3, 472224, Note_off_c, 2, 61, 0
3, 472224, Note_off_c, 2, 65, 0
3, 472224, Note_off_c, 2, 70, 0
3, 472224, Note_off_c, 2, 73, 0
3, 472224, Note_off_c, 2, 77, 0
3, 472320, Note_on_c, 2, 77, 5
3, 472320, Note_on_c, 2, 73, 5
3, 472320, Note_on_c, 2, 70, 5
3, 472320, Note_on_c, 2, 65, 5
3, 472320, Note_on_c, 2, 61, 5
3, 472320, Note_on_c, 2, 58, 5
3, 472320, Note_on_c, 2, 53, 5
3, 472320, Note_on_c, 2, 49, 5
3, 472320, Note_on_c, 2, 46, 5
3, 472320, Note_on_c, 2, 41, 5
3, 472320, Note_on_c, 2, 37, 5
3, 472320, Note_on_c, 2, 34, 5
3, 472320, Note_on_c, 2, 89, 5
3, 472320, Note_on_c, 2, 85, 5
3, 472320, Note_on_c, 2, 82, 5
3, 472320, Note_on_c, 2, 94, 5
3, 472320, Note_on_c, 2, 29, 5
3, 472320, Note_on_c, 2, 25, 5
3, 472416, Note_off_c, 2, 25, 0
3, 472416, Note_off_c, 2, 29, 0
3, 472416, Note_off_c, 2, 94, 0
3, 472416, Note_off_c, 2, 82, 0
3, 472416, Note_off_c, 2, 85, 0
3, 472416, Note_off_c, 2, 89, 0
3, 472416, Note_off_c, 2, 34, 0
3, 472416, Note_off_c, 2, 37, 0
3, 472416, Note_off_c, 2, 41, 0
3, 472416, Note_off_c, 2, 46, 0
3, 472416, Note_off_c, 2, 49, 0
3, 472416, Note_off_c, 2, 53, 0
3, 472416, Note_off_c, 2, 58, 0
3, 472416, Note_off_c, 2, 61, 0
3, 472416, Note_off_c, 2, 65, 0
3, 472416, Note_off_c, 2, 70, 0
3, 472416, Note_off_c, 2, 73, 0
3, 472416, Note_off_c, 2, 77, 0
3, 472512, Note_on_c, 2, 77, 5
3, 472512, Note_on_c, 2, 73, 5
3, 472512, Note_on_c, 2, 70, 5
3, 472512, Note_on_c, 2, 65, 5
3, 472512, Note_on_c, 2, 61, 5
3, 472512, Note_on_c, 2, 58, 5
3, 472512, Note_on_c, 2, 53, 5
3, 472512, Note_on_c, 2, 49, 5
3, 472512, Note_on_c, 2, 46, 5
3, 472512, Note_on_c, 2, 41, 5
3, 472512, Note_on_c, 2, 37, 5
3, 472512, Note_on_c, 2, 34, 5
3, 472512, Note_on_c, 2, 89, 5
3, 472512, Note_on_c, 2, 85, 5
3, 472512, Note_on_c, 2, 82, 5
3, 472512, Note_on_c, 2, 94, 5
3, 472512, Note_on_c, 2, 29, 5
3, 472512, Note_on_c, 2, 25, 5
3, 472608, Note_off_c, 2, 25, 0
3, 472608, Note_off_c, 2, 29, 0
3, 472608, Note_off_c, 2, 94, 0
3, 472608, Note_off_c, 2, 82, 0
3, 472608, Note_off_c, 2, 85, 0
3, 472608, Note_off_c, 2, 89, 0
3, 472608, Note_off_c, 2, 34, 0
3, 472608, Note_off_c, 2, 37, 0
3, 472608, Note_off_c, 2, 41, 0
3, 472608, Note_off_c, 2, 46, 0
3, 472608, Note_off_c, 2, 49, 0
3, 472608, Note_off_c, 2, 53, 0
3, 472608, Note_off_c, 2, 58, 0
3, 472608, Note_off_c, 2, 61, 0
3, 472608, Note_off_c, 2, 65, 0
3, 472608, Note_off_c, 2, 70, 0
3, 472608, Note_off_c, 2, 73, 0
3, 472608, Note_off_c, 2, 77, 0
3, 472704, Note_on_c, 2, 77, 5
3, 472704, Note_on_c, 2, 73, 5
3, 472704, Note_on_c, 2, 70, 5
3, 472704, Note_on_c, 2, 65, 5
3, 472704, Note_on_c, 2, 61, 5
3, 472704, Note_on_c, 2, 58, 5
3, 472704, Note_on_c, 2, 53, 5
3, 472704, Note_on_c, 2, 49, 5
3, 472704, Note_on_c, 2, 46, 5
3, 472704, Note_on_c, 2, 41, 5
3, 472704, Note_on_c, 2, 37, 5
3, 472704, Note_on_c, 2, 34, 5
3, 472704, Note_on_c, 2, 89, 5
3, 472704, Note_on_c, 2, 85, 5
3, 472704, Note_on_c, 2, 82, 5
3, 472704, Note_on_c, 2, 94, 5
3, 472704, Note_on_c, 2, 29, 5
3, 472704, Note_on_c, 2, 25, 5
3, 472800, Note_off_c, 2, 25, 0
3, 472800, Note_off_c, 2, 29, 0
3, 472800, Note_off_c, 2, 94, 0
3, 472800, Note_off_c, 2, 82, 0
3, 472800, Note_off_c, 2, 85, 0
3, 472800, Note_off_c, 2, 89, 0
3, 472800, Note_off_c, 2, 34, 0
3, 472800, Note_off_c, 2, 37, 0
3, 472800, Note_off_c, 2, 41, 0
3, 472800, Note_off_c, 2, 46, 0
3, 472800, Note_off_c, 2, 49, 0
3, 472800, Note_off_c, 2, 53, 0
3, 472800, Note_off_c, 2, 58, 0
3, 472800, Note_off_c, 2, 61, 0
3, 472800, Note_off_c, 2, 65, 0
3, 472800, Note_off_c, 2, 70, 0
3, 472800, Note_off_c, 2, 73, 0
3, 472800, Note_off_c, 2, 77, 0
3, 472896, Note_on_c, 2, 77, 5
3, 472896, Note_on_c, 2, 73, 5
3, 472896, Note_on_c, 2, 70, 5
3, 472896, Note_on_c, 2, 65, 5
3, 472896, Note_on_c, 2, 61, 5
3, 472896, Note_on_c, 2, 58, 5
3, 472896, Note_on_c, 2, 53, 5
3, 472896, Note_on_c, 2, 49, 5
3, 472896, Note_on_c, 2, 46, 5
3, 472896, Note_on_c, 2, 41, 5
3, 472896, Note_on_c, 2, 37, 5
3, 472896, Note_on_c, 2, 34, 5
3, 472896, Note_on_c, 2, 89, 5
3, 472896, Note_on_c, 2, 85, 5
3, 472896, Note_on_c, 2, 82, 5
3, 472896, Note_on_c, 2, 94, 5
3, 472896, Note_on_c, 2, 29, 5
3, 472896, Note_on_c, 2, 25, 5
3, 472992, Note_off_c, 2, 25, 0
3, 472992, Note_off_c, 2, 29, 0
3, 472992, Note_off_c, 2, 94, 0
3, 472992, Note_off_c, 2, 82, 0
3, 472992, Note_off_c, 2, 85, 0
3, 472992, Note_off_c, 2, 89, 0
3, 472992, Note_off_c, 2, 34, 0
3, 472992, Note_off_c, 2, 37, 0
3, 472992, Note_off_c, 2, 41, 0
3, 472992, Note_off_c, 2, 46, 0
3, 472992, Note_off_c, 2, 49, 0
3, 472992, Note_off_c, 2, 53, 0
3, 472992, Note_off_c, 2, 58, 0
3, 472992, Note_off_c, 2, 61, 0
3, 472992, Note_off_c, 2, 65, 0
3, 472992, Note_off_c, 2, 70, 0
3, 472992, Note_off_c, 2, 73, 0
3, 472992, Note_off_c, 2, 77, 0
3, 473088, Note_on_c, 2, 76, 5
3, 473088, Note_on_c, 2, 72, 5
3, 473088, Note_on_c, 2, 67, 5
3, 473088, Note_on_c, 2, 64, 5
3, 473088, Note_on_c, 2, 60, 5
3, 473088, Note_on_c, 2, 55, 5
3, 473088, Note_on_c, 2, 52, 5
3, 473088, Note_on_c, 2, 48, 5
3, 473088, Note_on_c, 2, 43, 5
3, 473088, Note_on_c, 2, 40, 5
3, 473088, Note_on_c, 2, 36, 5
3, 473088, Note_on_c, 2, 31, 5
3, 473088, Note_on_c, 2, 88, 5
3, 473088, Note_on_c, 2, 84, 5
3, 473088, Note_on_c, 2, 79, 5
3, 473088, Note_on_c, 2, 91, 5
3, 473088, Note_on_c, 2, 28, 5
3, 473088, Note_on_c, 2, 24, 5
3, 473184, Note_off_c, 2, 24, 0
3, 473184, Note_off_c, 2, 28, 0
3, 473184, Note_off_c, 2, 91, 0
3, 473184, Note_off_c, 2, 79, 0
3, 473184, Note_off_c, 2, 84, 0
3, 473184, Note_off_c, 2, 88, 0
3, 473184, Note_off_c, 2, 31, 0
3, 473184, Note_off_c, 2, 36, 0
3, 473184, Note_off_c, 2, 40, 0
3, 473184, Note_off_c, 2, 43, 0
3, 473184, Note_off_c, 2, 48, 0
3, 473184, Note_off_c, 2, 52, 0
3, 473184, Note_off_c, 2, 55, 0
3, 473184, Note_off_c, 2, 60, 0
3, 473184, Note_off_c, 2, 64, 0
3, 473184, Note_off_c, 2, 67, 0
3, 473184, Note_off_c, 2, 72, 0
3, 473184, Note_off_c, 2, 76, 0
3, 473280, Note_on_c, 2, 76, 5
3, 473280, Note_on_c, 2, 72, 5
3, 473280, Note_on_c, 2, 67, 5
3, 473280, Note_on_c, 2, 64, 5
3, 473280, Note_on_c, 2, 60, 5
3, 473280, Note_on_c, 2, 55, 5
3, 473280, Note_on_c, 2, 52, 5
3, 473280, Note_on_c, 2, 48, 5
3, 473280, Note_on_c, 2, 43, 5
3, 473280, Note_on_c, 2, 40, 5
3, 473280, Note_on_c, 2, 36, 5
3, 473280, Note_on_c, 2, 31, 5
3, 473280, Note_on_c, 2, 88, 5
3, 473280, Note_on_c, 2, 84, 5
3, 473280, Note_on_c, 2, 79, 5
3, 473280, Note_on_c, 2, 91, 5
3, 473280, Note_on_c, 2, 28, 5
3, 473280, Note_on_c, 2, 24, 5
3, 473376, Note_off_c, 2, 24, 0
3, 473376, Note_off_c, 2, 28, 0
3, 473376, Note_off_c, 2, 91, 0
3, 473376, Note_off_c, 2, 79, 0
3, 473376, Note_off_c, 2, 84, 0
3, 473376, Note_off_c, 2, 88, 0
3, 473376, Note_off_c, 2, 31, 0
3, 473376, Note_off_c, 2, 36, 0
3, 473376, Note_off_c, 2, 40, 0
3, 473376, Note_off_c, 2, 43, 0
3, 473376, Note_off_c, 2, 48, 0
3, 473376, Note_off_c, 2, 52, 0
3, 473376, Note_off_c, 2, 55, 0
3, 473376, Note_off_c, 2, 60, 0
3, 473376, Note_off_c, 2, 64, 0
3, 473376, Note_off_c, 2, 67, 0
3, 473376, Note_off_c, 2, 72, 0
3, 473376, Note_off_c, 2, 76, 0
3, 473472, Note_on_c, 2, 76, 5
3, 473472, Note_on_c, 2, 72, 5
3, 473472, Note_on_c, 2, 67, 5
3, 473472, Note_on_c, 2, 64, 5
3, 473472, Note_on_c, 2, 60, 5
3, 473472, Note_on_c, 2, 55, 5
3, 473472, Note_on_c, 2, 52, 5
3, 473472, Note_on_c, 2, 48, 5
3, 473472, Note_on_c, 2, 43, 5
3, 473472, Note_on_c, 2, 40, 5
3, 473472, Note_on_c, 2, 36, 5
3, 473472, Note_on_c, 2, 31, 5
3, 473472, Note_on_c, 2, 88, 5
3, 473472, Note_on_c, 2, 84, 5
3, 473472, Note_on_c, 2, 79, 5
3, 473472, Note_on_c, 2, 91, 5
3, 473472, Note_on_c, 2, 28, 5
3, 473472, Note_on_c, 2, 24, 5
3, 473568, Note_off_c, 2, 24, 0
3, 473568, Note_off_c, 2, 28, 0
3, 473568, Note_off_c, 2, 91, 0
3, 473568, Note_off_c, 2, 79, 0
3, 473568, Note_off_c, 2, 84, 0
3, 473568, Note_off_c, 2, 88, 0
3, 473568, Note_off_c, 2, 31, 0
3, 473568, Note_off_c, 2, 36, 0
3, 473568, Note_off_c, 2, 40, 0
3, 473568, Note_off_c, 2, 43, 0
3, 473568, Note_off_c, 2, 48, 0
3, 473568, Note_off_c, 2, 52, 0
3, 473568, Note_off_c, 2, 55, 0
3, 473568, Note_off_c, 2, 60, 0
3, 473568, Note_off_c, 2, 64, 0
3, 473568, Note_off_c, 2, 67, 0
3, 473568, Note_off_c, 2, 72, 0
3, 473568, Note_off_c, 2, 76, 0
3, 473664, Note_on_c, 2, 76, 5
3, 473664, Note_on_c, 2, 72, 5
3, 473664, Note_on_c, 2, 67, 5
3, 473664, Note_on_c, 2, 64, 5
3, 473664, Note_on_c, 2, 60, 5
3, 473664, Note_on_c, 2, 55, 5
3, 473664, Note_on_c, 2, 52, 5
3, 473664, Note_on_c, 2, 48, 5
3, 473664, Note_on_c, 2, 43, 5
3, 473664, Note_on_c, 2, 40, 5
3, 473664, Note_on_c, 2, 36, 5
3, 473664, Note_on_c, 2, 31, 5
3, 473664, Note_on_c, 2, 88, 5
3, 473664, Note_on_c, 2, 84, 5
3, 473664, Note_on_c, 2, 79, 5
3, 473664, Note_on_c, 2, 91, 5
3, 473664, Note_on_c, 2, 28, 5
3, 473664, Note_on_c, 2, 24, 5
3, 473760, Note_off_c, 2, 24, 0
3, 473760, Note_off_c, 2, 28, 0
3, 473760, Note_off_c, 2, 91, 0
3, 473760, Note_off_c, 2, 79, 0
3, 473760, Note_off_c, 2, 84, 0
3, 473760, Note_off_c, 2, 88, 0
3, 473760, Note_off_c, 2, 31, 0
3, 473760, Note_off_c, 2, 36, 0
3, 473760, Note_off_c, 2, 40, 0
3, 473760, Note_off_c, 2, 43, 0
3, 473760, Note_off_c, 2, 48, 0
3, 473760, Note_off_c, 2, 52, 0
3, 473760, Note_off_c, 2, 55, 0
3, 473760, Note_off_c, 2, 60, 0
3, 473760, Note_off_c, 2, 64, 0
3, 473760, Note_off_c, 2, 67, 0
3, 473760, Note_off_c, 2, 72, 0
3, 473760, Note_off_c, 2, 76, 0
3, 473856, Note_on_c, 2, 76, 5
3, 473856, Note_on_c, 2, 72, 5
3, 473856, Note_on_c, 2, 67, 5
3, 473856, Note_on_c, 2, 64, 5
3, 473856, Note_on_c, 2, 60, 5
3, 473856, Note_on_c, 2, 55, 5
3, 473856, Note_on_c, 2, 52, 5
3, 473856, Note_on_c, 2, 48, 5
3, 473856, Note_on_c, 2, 43, 5
3, 473856, Note_on_c, 2, 40, 5
3, 473856, Note_on_c, 2, 36, 5
3, 473856, Note_on_c, 2, 31, 5
3, 473856, Note_on_c, 2, 88, 5
3, 473856, Note_on_c, 2, 84, 5
3, 473856, Note_on_c, 2, 79, 5
3, 473856, Note_on_c, 2, 91, 5
3, 473856, Note_on_c, 2, 28, 5
3, 473856, Note_on_c, 2, 24, 5
3, 473952, Note_off_c, 2, 24, 0
3, 473952, Note_off_c, 2, 28, 0
3, 473952, Note_off_c, 2, 91, 0
3, 473952, Note_off_c, 2, 79, 0
3, 473952, Note_off_c, 2, 84, 0
3, 473952, Note_off_c, 2, 88, 0
3, 473952, Note_off_c, 2, 31, 0
3, 473952, Note_off_c, 2, 36, 0
3, 473952, Note_off_c, 2, 40, 0
3, 473952, Note_off_c, 2, 43, 0
3, 473952, Note_off_c, 2, 48, 0
3, 473952, Note_off_c, 2, 52, 0
3, 473952, Note_off_c, 2, 55, 0
3, 473952, Note_off_c, 2, 60, 0
3, 473952, Note_off_c, 2, 64, 0
3, 473952, Note_off_c, 2, 67, 0
3, 473952, Note_off_c, 2, 72, 0
3, 473952, Note_off_c, 2, 76, 0
3, 474048, Note_on_c, 2, 76, 5
3, 474048, Note_on_c, 2, 72, 5
3, 474048, Note_on_c, 2, 67, 5
3, 474048, Note_on_c, 2, 64, 5
3, 474048, Note_on_c, 2, 60, 5
3, 474048, Note_on_c, 2, 55, 5
3, 474048, Note_on_c, 2, 52, 5
3, 474048, Note_on_c, 2, 48, 5
3, 474048, Note_on_c, 2, 43, 5
3, 474048, Note_on_c, 2, 40, 5
3, 474048, Note_on_c, 2, 36, 5
3, 474048, Note_on_c, 2, 31, 5
3, 474048, Note_on_c, 2, 88, 5
3, 474048, Note_on_c, 2, 84, 5
3, 474048, Note_on_c, 2, 79, 5
3, 474048, Note_on_c, 2, 91, 5
3, 474048, Note_on_c, 2, 28, 5
3, 474048, Note_on_c, 2, 24, 5
3, 474144, Note_off_c, 2, 24, 0
3, 474144, Note_off_c, 2, 28, 0
3, 474144, Note_off_c, 2, 91, 0
3, 474144, Note_off_c, 2, 79, 0
3, 474144, Note_off_c, 2, 84, 0
3, 474144, Note_off_c, 2, 88, 0
3, 474144, Note_off_c, 2, 31, 0
3, 474144, Note_off_c, 2, 36, 0
3, 474144, Note_off_c, 2, 40, 0
3, 474144, Note_off_c, 2, 43, 0
3, 474144, Note_off_c, 2, 48, 0
3, 474144, Note_off_c, 2, 52, 0
3, 474144, Note_off_c, 2, 55, 0
3, 474144, Note_off_c, 2, 60, 0
3, 474144, Note_off_c, 2, 64, 0
3, 474144, Note_off_c, 2, 67, 0
3, 474144, Note_off_c, 2, 72, 0
3, 474144, Note_off_c, 2, 76, 0
3, 474240, Note_on_c, 2, 76, 5
3, 474240, Note_on_c, 2, 72, 5
3, 474240, Note_on_c, 2, 67, 5
3, 474240, Note_on_c, 2, 64, 5
3, 474240, Note_on_c, 2, 60, 5
3, 474240, Note_on_c, 2, 55, 5
3, 474240, Note_on_c, 2, 52, 5
3, 474240, Note_on_c, 2, 48, 5
3, 474240, Note_on_c, 2, 43, 5
3, 474240, Note_on_c, 2, 40, 5
3, 474240, Note_on_c, 2, 36, 5
3, 474240, Note_on_c, 2, 31, 5
3, 474240, Note_on_c, 2, 88, 5
3, 474240, Note_on_c, 2, 84, 5
3, 474240, Note_on_c, 2, 79, 5
3, 474240, Note_on_c, 2, 91, 5
3, 474240, Note_on_c, 2, 28, 5
3, 474240, Note_on_c, 2, 24, 5
3, 474336, Note_off_c, 2, 24, 0
3, 474336, Note_off_c, 2, 28, 0
3, 474336, Note_off_c, 2, 91, 0
3, 474336, Note_off_c, 2, 79, 0
3, 474336, Note_off_c, 2, 84, 0
3, 474336, Note_off_c, 2, 88, 0
3, 474336, Note_off_c, 2, 31, 0
3, 474336, Note_off_c, 2, 36, 0
3, 474336, Note_off_c, 2, 40, 0
3, 474336, Note_off_c, 2, 43, 0
3, 474336, Note_off_c, 2, 48, 0
3, 474336, Note_off_c, 2, 52, 0
3, 474336, Note_off_c, 2, 55, 0
3, 474336, Note_off_c, 2, 60, 0
3, 474336, Note_off_c, 2, 64, 0
3, 474336, Note_off_c, 2, 67, 0
3, 474336, Note_off_c, 2, 72, 0
3, 474336, Note_off_c, 2, 76, 0
3, 474432, Note_on_c, 2, 76, 5
3, 474432, Note_on_c, 2, 72, 5
3, 474432, Note_on_c, 2, 67, 5
3, 474432, Note_on_c, 2, 64, 5
3, 474432, Note_on_c, 2, 60, 5
3, 474432, Note_on_c, 2, 55, 5
3, 474432, Note_on_c, 2, 52, 5
3, 474432, Note_on_c, 2, 48, 5
3, 474432, Note_on_c, 2, 43, 5
3, 474432, Note_on_c, 2, 40, 5
3, 474432, Note_on_c, 2, 36, 5
3, 474432, Note_on_c, 2, 31, 5
3, 474432, Note_on_c, 2, 88, 5
3, 474432, Note_on_c, 2, 84, 5
3, 474432, Note_on_c, 2, 79, 5
3, 474432, Note_on_c, 2, 91, 5
3, 474432, Note_on_c, 2, 28, 5
3, 474432, Note_on_c, 2, 24, 5
3, 474528, Note_off_c, 2, 24, 0
3, 474528, Note_off_c, 2, 28, 0
3, 474528, Note_off_c, 2, 91, 0
3, 474528, Note_off_c, 2, 79, 0
3, 474528, Note_off_c, 2, 84, 0
3, 474528, Note_off_c, 2, 88, 0
3, 474528, Note_off_c, 2, 31, 0
3, 474528, Note_off_c, 2, 36, 0
3, 474528, Note_off_c, 2, 40, 0
3, 474528, Note_off_c, 2, 43, 0
3, 474528, Note_off_c, 2, 48, 0
3, 474528, Note_off_c, 2, 52, 0
3, 474528, Note_off_c, 2, 55, 0
3, 474528, Note_off_c, 2, 60, 0
3, 474528, Note_off_c, 2, 64, 0
3, 474528, Note_off_c, 2, 67, 0
3, 474528, Note_off_c, 2, 72, 0
3, 474528, Note_off_c, 2, 76, 0
3, 474624, Note_on_c, 2, 76, 5
3, 474624, Note_on_c, 2, 72, 5
3, 474624, Note_on_c, 2, 67, 5
3, 474624, Note_on_c, 2, 64, 5
3, 474624, Note_on_c, 2, 60, 5
3, 474624, Note_on_c, 2, 55, 5
3, 474624, Note_on_c, 2, 52, 5
3, 474624, Note_on_c, 2, 48, 5
3, 474624, Note_on_c, 2, 43, 5
3, 474624, Note_on_c, 2, 40, 5
3, 474624, Note_on_c, 2, 36, 5
3, 474624, Note_on_c, 2, 31, 5
3, 474624, Note_on_c, 2, 88, 5
3, 474624, Note_on_c, 2, 84, 5
3, 474624, Note_on_c, 2, 79, 5
3, 474624, Note_on_c, 2, 91, 5
3, 474624, Note_on_c, 2, 28, 5
3, 474624, Note_on_c, 2, 24, 5
3, 474720, Note_off_c, 2, 24, 0
3, 474720, Note_off_c, 2, 28, 0
3, 474720, Note_off_c, 2, 91, 0
3, 474720, Note_off_c, 2, 79, 0
3, 474720, Note_off_c, 2, 84, 0
3, 474720, Note_off_c, 2, 88, 0
3, 474720, Note_off_c, 2, 31, 0
3, 474720, Note_off_c, 2, 36, 0
3, 474720, Note_off_c, 2, 40, 0
3, 474720, Note_off_c, 2, 43, 0
3, 474720, Note_off_c, 2, 48, 0
3, 474720, Note_off_c, 2, 52, 0
3, 474720, Note_off_c, 2, 55, 0
3, 474720, Note_off_c, 2, 60, 0
3, 474720, Note_off_c, 2, 64, 0
3, 474720, Note_off_c, 2, 67, 0
3, 474720, Note_off_c, 2, 72, 0
3, 474720, Note_off_c, 2, 76, 0
3, 474816, Note_on_c, 2, 76, 5
3, 474816, Note_on_c, 2, 72, 5
3, 474816, Note_on_c, 2, 67, 5
3, 474816, Note_on_c, 2, 64, 5
3, 474816, Note_on_c, 2, 60, 5
3, 474816, Note_on_c, 2, 55, 5
3, 474816, Note_on_c, 2, 52, 5
3, 474816, Note_on_c, 2, 48, 5
3, 474816, Note_on_c, 2, 43, 5
3, 474816, Note_on_c, 2, 40, 5
3, 474816, Note_on_c, 2, 36, 5
3, 474816, Note_on_c, 2, 31, 5
3, 474816, Note_on_c, 2, 88, 5
3, 474816, Note_on_c, 2, 84, 5
3, 474816, Note_on_c, 2, 79, 5
3, 474816, Note_on_c, 2, 91, 5
3, 474816, Note_on_c, 2, 28, 5
3, 474816, Note_on_c, 2, 24, 5
3, 474912, Note_off_c, 2, 24, 0
3, 474912, Note_off_c, 2, 28, 0
3, 474912, Note_off_c, 2, 91, 0
3, 474912, Note_off_c, 2, 79, 0
3, 474912, Note_off_c, 2, 84, 0
3, 474912, Note_off_c, 2, 88, 0
3, 474912, Note_off_c, 2, 31, 0
3, 474912, Note_off_c, 2, 36, 0
3, 474912, Note_off_c, 2, 40, 0
3, 474912, Note_off_c, 2, 43, 0
3, 474912, Note_off_c, 2, 48, 0
3, 474912, Note_off_c, 2, 52, 0
3, 474912, Note_off_c, 2, 55, 0
3, 474912, Note_off_c, 2, 60, 0
3, 474912, Note_off_c, 2, 64, 0
3, 474912, Note_off_c, 2, 67, 0
3, 474912, Note_off_c, 2, 72, 0
3, 474912, Note_off_c, 2, 76, 0
3, 475008, Note_on_c, 2, 76, 5
3, 475008, Note_on_c, 2, 72, 5
3, 475008, Note_on_c, 2, 67, 5
3, 475008, Note_on_c, 2, 64, 5
3, 475008, Note_on_c, 2, 60, 5
3, 475008, Note_on_c, 2, 55, 5
3, 475008, Note_on_c, 2, 52, 5
3, 475008, Note_on_c, 2, 48, 5
3, 475008, Note_on_c, 2, 43, 5
3, 475008, Note_on_c, 2, 40, 5
3, 475008, Note_on_c, 2, 36, 5
3, 475008, Note_on_c, 2, 31, 5
3, 475008, Note_on_c, 2, 88, 5
3, 475008, Note_on_c, 2, 84, 5
3, 475008, Note_on_c, 2, 79, 5
3, 475008, Note_on_c, 2, 91, 5
3, 475008, Note_on_c, 2, 28, 5
3, 475008, Note_on_c, 2, 24, 5
3, 475104, Note_off_c, 2, 24, 0
3, 475104, Note_off_c, 2, 28, 0
3, 475104, Note_off_c, 2, 91, 0
3, 475104, Note_off_c, 2, 79, 0
3, 475104, Note_off_c, 2, 84, 0
3, 475104, Note_off_c, 2, 88, 0
3, 475104, Note_off_c, 2, 31, 0
3, 475104, Note_off_c, 2, 36, 0
3, 475104, Note_off_c, 2, 40, 0
3, 475104, Note_off_c, 2, 43, 0
3, 475104, Note_off_c, 2, 48, 0
3, 475104, Note_off_c, 2, 52, 0
3, 475104, Note_off_c, 2, 55, 0
3, 475104, Note_off_c, 2, 60, 0
3, 475104, Note_off_c, 2, 64, 0
3, 475104, Note_off_c, 2, 67, 0
3, 475104, Note_off_c, 2, 72, 0
3, 475104, Note_off_c, 2, 76, 0
3, 475200, Note_on_c, 2, 76, 5
3, 475200, Note_on_c, 2, 72, 5
3, 475200, Note_on_c, 2, 67, 5
3, 475200, Note_on_c, 2, 64, 5
3, 475200, Note_on_c, 2, 60, 5
3, 475200, Note_on_c, 2, 55, 5
3, 475200, Note_on_c, 2, 52, 5
3, 475200, Note_on_c, 2, 48, 5
3, 475200, Note_on_c, 2, 43, 5
3, 475200, Note_on_c, 2, 40, 5
3, 475200, Note_on_c, 2, 36, 5
3, 475200, Note_on_c, 2, 31, 5
3, 475200, Note_on_c, 2, 88, 5
3, 475200, Note_on_c, 2, 84, 5
3, 475200, Note_on_c, 2, 79, 5
3, 475200, Note_on_c, 2, 91, 5
3, 475200, Note_on_c, 2, 28, 5
3, 475200, Note_on_c, 2, 24, 5
3, 475296, Note_off_c, 2, 24, 0
3, 475296, Note_off_c, 2, 28, 0
3, 475296, Note_off_c, 2, 91, 0
3, 475296, Note_off_c, 2, 79, 0
3, 475296, Note_off_c, 2, 84, 0
3, 475296, Note_off_c, 2, 88, 0
3, 475296, Note_off_c, 2, 31, 0
3, 475296, Note_off_c, 2, 36, 0
3, 475296, Note_off_c, 2, 40, 0
3, 475296, Note_off_c, 2, 43, 0
3, 475296, Note_off_c, 2, 48, 0
3, 475296, Note_off_c, 2, 52, 0
3, 475296, Note_off_c, 2, 55, 0
3, 475296, Note_off_c, 2, 60, 0
3, 475296, Note_off_c, 2, 64, 0
3, 475296, Note_off_c, 2, 67, 0
3, 475296, Note_off_c, 2, 72, 0
3, 475296, Note_off_c, 2, 76, 0
3, 475392, Note_on_c, 2, 76, 5
3, 475392, Note_on_c, 2, 72, 5
3, 475392, Note_on_c, 2, 67, 5
3, 475392, Note_on_c, 2, 64, 5
3, 475392, Note_on_c, 2, 60, 5
3, 475392, Note_on_c, 2, 55, 5
3, 475392, Note_on_c, 2, 52, 5
3, 475392, Note_on_c, 2, 48, 5
3, 475392, Note_on_c, 2, 43, 5
3, 475392, Note_on_c, 2, 40, 5
3, 475392, Note_on_c, 2, 36, 5
3, 475392, Note_on_c, 2, 31, 5
3, 475392, Note_on_c, 2, 88, 5
3, 475392, Note_on_c, 2, 84, 5
3, 475392, Note_on_c, 2, 79, 5
3, 475392, Note_on_c, 2, 91, 5
3, 475392, Note_on_c, 2, 28, 5
3, 475392, Note_on_c, 2, 24, 5
3, 475488, Note_off_c, 2, 24, 0
3, 475488, Note_off_c, 2, 28, 0
3, 475488, Note_off_c, 2, 91, 0
3, 475488, Note_off_c, 2, 79, 0
3, 475488, Note_off_c, 2, 84, 0
3, 475488, Note_off_c, 2, 88, 0
3, 475488, Note_off_c, 2, 31, 0
3, 475488, Note_off_c, 2, 36, 0
3, 475488, Note_off_c, 2, 40, 0
3, 475488, Note_off_c, 2, 43, 0
3, 475488, Note_off_c, 2, 48, 0
3, 475488, Note_off_c, 2, 52, 0
3, 475488, Note_off_c, 2, 55, 0
3, 475488, Note_off_c, 2, 60, 0
3, 475488, Note_off_c, 2, 64, 0
3, 475488, Note_off_c, 2, 67, 0
3, 475488, Note_off_c, 2, 72, 0
3, 475488, Note_off_c, 2, 76, 0
3, 475584, Note_on_c, 2, 76, 5
3, 475584, Note_on_c, 2, 72, 5
3, 475584, Note_on_c, 2, 67, 5
3, 475584, Note_on_c, 2, 64, 5
3, 475584, Note_on_c, 2, 60, 5
3, 475584, Note_on_c, 2, 55, 5
3, 475584, Note_on_c, 2, 52, 5
3, 475584, Note_on_c, 2, 48, 5
3, 475584, Note_on_c, 2, 43, 5
3, 475584, Note_on_c, 2, 40, 5
3, 475584, Note_on_c, 2, 36, 5
3, 475584, Note_on_c, 2, 31, 5
3, 475584, Note_on_c, 2, 88, 5
3, 475584, Note_on_c, 2, 84, 5
3, 475584, Note_on_c, 2, 79, 5
3, 475584, Note_on_c, 2, 91, 5
3, 475584, Note_on_c, 2, 28, 5
3, 475584, Note_on_c, 2, 24, 5
3, 475680, Note_off_c, 2, 24, 0
3, 475680, Note_off_c, 2, 28, 0
3, 475680, Note_off_c, 2, 91, 0
3, 475680, Note_off_c, 2, 79, 0
3, 475680, Note_off_c, 2, 84, 0
3, 475680, Note_off_c, 2, 88, 0
3, 475680, Note_off_c, 2, 31, 0
3, 475680, Note_off_c, 2, 36, 0
3, 475680, Note_off_c, 2, 40, 0
3, 475680, Note_off_c, 2, 43, 0
3, 475680, Note_off_c, 2, 48, 0
3, 475680, Note_off_c, 2, 52, 0
3, 475680, Note_off_c, 2, 55, 0
3, 475680, Note_off_c, 2, 60, 0
3, 475680, Note_off_c, 2, 64, 0
3, 475680, Note_off_c, 2, 67, 0
3, 475680, Note_off_c, 2, 72, 0
3, 475680, Note_off_c, 2, 76, 0
3, 475776, Note_on_c, 2, 76, 5
3, 475776, Note_on_c, 2, 72, 5
3, 475776, Note_on_c, 2, 67, 5
3, 475776, Note_on_c, 2, 64, 5
3, 475776, Note_on_c, 2, 60, 5
3, 475776, Note_on_c, 2, 55, 5
3, 475776, Note_on_c, 2, 52, 5
3, 475776, Note_on_c, 2, 48, 5
3, 475776, Note_on_c, 2, 43, 5
3, 475776, Note_on_c, 2, 40, 5
3, 475776, Note_on_c, 2, 36, 5
3, 475776, Note_on_c, 2, 31, 5
3, 475776, Note_on_c, 2, 88, 5
3, 475776, Note_on_c, 2, 84, 5
3, 475776, Note_on_c, 2, 79, 5
3, 475776, Note_on_c, 2, 91, 5
3, 475776, Note_on_c, 2, 28, 5
3, 475776, Note_on_c, 2, 24, 5
3, 475872, Note_off_c, 2, 24, 0
3, 475872, Note_off_c, 2, 28, 0
3, 475872, Note_off_c, 2, 91, 0
3, 475872, Note_off_c, 2, 79, 0
3, 475872, Note_off_c, 2, 84, 0
3, 475872, Note_off_c, 2, 88, 0
3, 475872, Note_off_c, 2, 31, 0
3, 475872, Note_off_c, 2, 36, 0
3, 475872, Note_off_c, 2, 40, 0
3, 475872, Note_off_c, 2, 43, 0
3, 475872, Note_off_c, 2, 48, 0
3, 475872, Note_off_c, 2, 52, 0
3, 475872, Note_off_c, 2, 55, 0
3, 475872, Note_off_c, 2, 60, 0
3, 475872, Note_off_c, 2, 64, 0
3, 475872, Note_off_c, 2, 67, 0
3, 475872, Note_off_c, 2, 72, 0
3, 475872, Note_off_c, 2, 76, 0
3, 475968, Note_on_c, 2, 76, 5
3, 475968, Note_on_c, 2, 72, 5
3, 475968, Note_on_c, 2, 67, 5
3, 475968, Note_on_c, 2, 64, 5
3, 475968, Note_on_c, 2, 60, 5
3, 475968, Note_on_c, 2, 55, 5
3, 475968, Note_on_c, 2, 52, 5
3, 475968, Note_on_c, 2, 48, 5
3, 475968, Note_on_c, 2, 43, 5
3, 475968, Note_on_c, 2, 40, 5
3, 475968, Note_on_c, 2, 36, 5
3, 475968, Note_on_c, 2, 31, 5
3, 475968, Note_on_c, 2, 88, 5
3, 475968, Note_on_c, 2, 84, 5
3, 475968, Note_on_c, 2, 79, 5
3, 475968, Note_on_c, 2, 91, 5
3, 475968, Note_on_c, 2, 28, 5
3, 475968, Note_on_c, 2, 24, 5
3, 476064, Note_off_c, 2, 24, 0
3, 476064, Note_off_c, 2, 28, 0
3, 476064, Note_off_c, 2, 91, 0
3, 476064, Note_off_c, 2, 79, 0
3, 476064, Note_off_c, 2, 84, 0
3, 476064, Note_off_c, 2, 88, 0
3, 476064, Note_off_c, 2, 31, 0
3, 476064, Note_off_c, 2, 36, 0
3, 476064, Note_off_c, 2, 40, 0
3, 476064, Note_off_c, 2, 43, 0
3, 476064, Note_off_c, 2, 48, 0
3, 476064, Note_off_c, 2, 52, 0
3, 476064, Note_off_c, 2, 55, 0
3, 476064, Note_off_c, 2, 60, 0
3, 476064, Note_off_c, 2, 64, 0
3, 476064, Note_off_c, 2, 67, 0
3, 476064, Note_off_c, 2, 72, 0
3, 476064, Note_off_c, 2, 76, 0
3, 476160, Note_on_c, 2, 77, 5
3, 476160, Note_on_c, 2, 72, 5
3, 476160, Note_on_c, 2, 69, 5
3, 476160, Note_on_c, 2, 65, 5
3, 476160, Note_on_c, 2, 60, 5
3, 476160, Note_on_c, 2, 57, 5
3, 476160, Note_on_c, 2, 53, 5
3, 476160, Note_on_c, 2, 48, 5
3, 476160, Note_on_c, 2, 45, 5
3, 476160, Note_on_c, 2, 41, 5
3, 476160, Note_on_c, 2, 36, 5
3, 476160, Note_on_c, 2, 32, 5
3, 476160, Note_on_c, 2, 89, 5
3, 476160, Note_on_c, 2, 84, 5
3, 476160, Note_on_c, 2, 81, 5
3, 476160, Note_on_c, 2, 93, 5
3, 476160, Note_on_c, 2, 29, 5
3, 476160, Note_on_c, 2, 24, 5
3, 476256, Note_off_c, 2, 24, 0
3, 476256, Note_off_c, 2, 29, 0
3, 476256, Note_off_c, 2, 93, 0
3, 476256, Note_off_c, 2, 81, 0
3, 476256, Note_off_c, 2, 84, 0
3, 476256, Note_off_c, 2, 89, 0
3, 476256, Note_off_c, 2, 32, 0
3, 476256, Note_off_c, 2, 36, 0
3, 476256, Note_off_c, 2, 41, 0
3, 476256, Note_off_c, 2, 45, 0
3, 476256, Note_off_c, 2, 48, 0
3, 476256, Note_off_c, 2, 53, 0
3, 476256, Note_off_c, 2, 57, 0
3, 476256, Note_off_c, 2, 60, 0
3, 476256, Note_off_c, 2, 65, 0
3, 476256, Note_off_c, 2, 69, 0
3, 476256, Note_off_c, 2, 72, 0
3, 476256, Note_off_c, 2, 77, 0
3, 476352, Note_on_c, 2, 77, 5
3, 476352, Note_on_c, 2, 72, 5
3, 476352, Note_on_c, 2, 69, 5
3, 476352, Note_on_c, 2, 65, 5
3, 476352, Note_on_c, 2, 60, 5
3, 476352, Note_on_c, 2, 57, 5
3, 476352, Note_on_c, 2, 53, 5
3, 476352, Note_on_c, 2, 48, 5
3, 476352, Note_on_c, 2, 45, 5
3, 476352, Note_on_c, 2, 41, 5
3, 476352, Note_on_c, 2, 36, 5
3, 476352, Note_on_c, 2, 32, 5
3, 476352, Note_on_c, 2, 89, 5
3, 476352, Note_on_c, 2, 84, 5
3, 476352, Note_on_c, 2, 81, 5
3, 476352, Note_on_c, 2, 93, 5
3, 476352, Note_on_c, 2, 29, 5
3, 476352, Note_on_c, 2, 24, 5
3, 476448, Note_off_c, 2, 24, 0
3, 476448, Note_off_c, 2, 29, 0
3, 476448, Note_off_c, 2, 93, 0
3, 476448, Note_off_c, 2, 81, 0
3, 476448, Note_off_c, 2, 84, 0
3, 476448, Note_off_c, 2, 89, 0
3, 476448, Note_off_c, 2, 32, 0
3, 476448, Note_off_c, 2, 36, 0
3, 476448, Note_off_c, 2, 41, 0
3, 476448, Note_off_c, 2, 45, 0
3, 476448, Note_off_c, 2, 48, 0
3, 476448, Note_off_c, 2, 53, 0
3, 476448, Note_off_c, 2, 57, 0
3, 476448, Note_off_c, 2, 60, 0
3, 476448, Note_off_c, 2, 65, 0
3, 476448, Note_off_c, 2, 69, 0
3, 476448, Note_off_c, 2, 72, 0
3, 476448, Note_off_c, 2, 77, 0
3, 476544, Note_on_c, 2, 77, 5
3, 476544, Note_on_c, 2, 72, 5
3, 476544, Note_on_c, 2, 69, 5
3, 476544, Note_on_c, 2, 65, 5
3, 476544, Note_on_c, 2, 60, 5
3, 476544, Note_on_c, 2, 57, 5
3, 476544, Note_on_c, 2, 53, 5
3, 476544, Note_on_c, 2, 48, 5
3, 476544, Note_on_c, 2, 45, 5
3, 476544, Note_on_c, 2, 41, 5
3, 476544, Note_on_c, 2, 36, 5
3, 476544, Note_on_c, 2, 32, 5
3, 476544, Note_on_c, 2, 89, 5
3, 476544, Note_on_c, 2, 84, 5
3, 476544, Note_on_c, 2, 81, 5
3, 476544, Note_on_c, 2, 93, 5
3, 476544, Note_on_c, 2, 29, 5
3, 476544, Note_on_c, 2, 24, 5
3, 476640, Note_off_c, 2, 24, 0
3, 476640, Note_off_c, 2, 29, 0
3, 476640, Note_off_c, 2, 93, 0
3, 476640, Note_off_c, 2, 81, 0
3, 476640, Note_off_c, 2, 84, 0
3, 476640, Note_off_c, 2, 89, 0
3, 476640, Note_off_c, 2, 32, 0
3, 476640, Note_off_c, 2, 36, 0
3, 476640, Note_off_c, 2, 41, 0
3, 476640, Note_off_c, 2, 45, 0
3, 476640, Note_off_c, 2, 48, 0
3, 476640, Note_off_c, 2, 53, 0
3, 476640, Note_off_c, 2, 57, 0
3, 476640, Note_off_c, 2, 60, 0
3, 476640, Note_off_c, 2, 65, 0
3, 476640, Note_off_c, 2, 69, 0
3, 476640, Note_off_c, 2, 72, 0
3, 476640, Note_off_c, 2, 77, 0
3, 476736, Note_on_c, 2, 77, 5
3, 476736, Note_on_c, 2, 72, 5
3, 476736, Note_on_c, 2, 69, 5
3, 476736, Note_on_c, 2, 65, 5
3, 476736, Note_on_c, 2, 60, 5
3, 476736, Note_on_c, 2, 57, 5
3, 476736, Note_on_c, 2, 53, 5
3, 476736, Note_on_c, 2, 48, 5
3, 476736, Note_on_c, 2, 45, 5
3, 476736, Note_on_c, 2, 41, 5
3, 476736, Note_on_c, 2, 36, 5
3, 476736, Note_on_c, 2, 32, 5
3, 476736, Note_on_c, 2, 89, 5
3, 476736, Note_on_c, 2, 84, 5
3, 476736, Note_on_c, 2, 81, 5
3, 476736, Note_on_c, 2, 93, 5
3, 476736, Note_on_c, 2, 29, 5
3, 476736, Note_on_c, 2, 24, 5
3, 476832, Note_off_c, 2, 24, 0
3, 476832, Note_off_c, 2, 29, 0
3, 476832, Note_off_c, 2, 93, 0
3, 476832, Note_off_c, 2, 81, 0
3, 476832, Note_off_c, 2, 84, 0
3, 476832, Note_off_c, 2, 89, 0
3, 476832, Note_off_c, 2, 32, 0
3, 476832, Note_off_c, 2, 36, 0
3, 476832, Note_off_c, 2, 41, 0
3, 476832, Note_off_c, 2, 45, 0
3, 476832, Note_off_c, 2, 48, 0
3, 476832, Note_off_c, 2, 53, 0
3, 476832, Note_off_c, 2, 57, 0
3, 476832, Note_off_c, 2, 60, 0
3, 476832, Note_off_c, 2, 65, 0
3, 476832, Note_off_c, 2, 69, 0
3, 476832, Note_off_c, 2, 72, 0
3, 476832, Note_off_c, 2, 77, 0
3, 476928, Note_on_c, 2, 77, 5
3, 476928, Note_on_c, 2, 72, 5
3, 476928, Note_on_c, 2, 69, 5
3, 476928, Note_on_c, 2, 65, 5
3, 476928, Note_on_c, 2, 60, 5
3, 476928, Note_on_c, 2, 57, 5
3, 476928, Note_on_c, 2, 53, 5
3, 476928, Note_on_c, 2, 48, 5
3, 476928, Note_on_c, 2, 45, 5
3, 476928, Note_on_c, 2, 41, 5
3, 476928, Note_on_c, 2, 36, 5
3, 476928, Note_on_c, 2, 32, 5
3, 476928, Note_on_c, 2, 89, 5
3, 476928, Note_on_c, 2, 84, 5
3, 476928, Note_on_c, 2, 81, 5
3, 476928, Note_on_c, 2, 93, 5
3, 476928, Note_on_c, 2, 29, 5
3, 476928, Note_on_c, 2, 24, 5
3, 477024, Note_off_c, 2, 24, 0
3, 477024, Note_off_c, 2, 29, 0
3, 477024, Note_off_c, 2, 93, 0
3, 477024, Note_off_c, 2, 81, 0
3, 477024, Note_off_c, 2, 84, 0
3, 477024, Note_off_c, 2, 89, 0
3, 477024, Note_off_c, 2, 32, 0
3, 477024, Note_off_c, 2, 36, 0
3, 477024, Note_off_c, 2, 41, 0
3, 477024, Note_off_c, 2, 45, 0
3, 477024, Note_off_c, 2, 48, 0
3, 477024, Note_off_c, 2, 53, 0
3, 477024, Note_off_c, 2, 57, 0
3, 477024, Note_off_c, 2, 60, 0
3, 477024, Note_off_c, 2, 65, 0
3, 477024, Note_off_c, 2, 69, 0
3, 477024, Note_off_c, 2, 72, 0
3, 477024, Note_off_c, 2, 77, 0
3, 477120, Note_on_c, 2, 77, 5
3, 477120, Note_on_c, 2, 72, 5
3, 477120, Note_on_c, 2, 69, 5
3, 477120, Note_on_c, 2, 65, 5
3, 477120, Note_on_c, 2, 60, 5
3, 477120, Note_on_c, 2, 57, 5
3, 477120, Note_on_c, 2, 53, 5
3, 477120, Note_on_c, 2, 48, 5
3, 477120, Note_on_c, 2, 45, 5
3, 477120, Note_on_c, 2, 41, 5
3, 477120, Note_on_c, 2, 36, 5
3, 477120, Note_on_c, 2, 32, 5
3, 477120, Note_on_c, 2, 89, 5
3, 477120, Note_on_c, 2, 84, 5
3, 477120, Note_on_c, 2, 81, 5
3, 477120, Note_on_c, 2, 93, 5
3, 477120, Note_on_c, 2, 29, 5
3, 477120, Note_on_c, 2, 24, 5
3, 477216, Note_off_c, 2, 24, 0
3, 477216, Note_off_c, 2, 29, 0
3, 477216, Note_off_c, 2, 93, 0
3, 477216, Note_off_c, 2, 81, 0
3, 477216, Note_off_c, 2, 84, 0
3, 477216, Note_off_c, 2, 89, 0
3, 477216, Note_off_c, 2, 32, 0
3, 477216, Note_off_c, 2, 36, 0
3, 477216, Note_off_c, 2, 41, 0
3, 477216, Note_off_c, 2, 45, 0
3, 477216, Note_off_c, 2, 48, 0
3, 477216, Note_off_c, 2, 53, 0
3, 477216, Note_off_c, 2, 57, 0
3, 477216, Note_off_c, 2, 60, 0
3, 477216, Note_off_c, 2, 65, 0
3, 477216, Note_off_c, 2, 69, 0
3, 477216, Note_off_c, 2, 72, 0
3, 477216, Note_off_c, 2, 77, 0
3, 477312, Note_on_c, 2, 77, 5
3, 477312, Note_on_c, 2, 72, 5
3, 477312, Note_on_c, 2, 69, 5
3, 477312, Note_on_c, 2, 65, 5
3, 477312, Note_on_c, 2, 60, 5
3, 477312, Note_on_c, 2, 57, 5
3, 477312, Note_on_c, 2, 53, 5
3, 477312, Note_on_c, 2, 48, 5
3, 477312, Note_on_c, 2, 45, 5
3, 477312, Note_on_c, 2, 41, 5
3, 477312, Note_on_c, 2, 36, 5
3, 477312, Note_on_c, 2, 32, 5
3, 477312, Note_on_c, 2, 89, 5
3, 477312, Note_on_c, 2, 84, 5
3, 477312, Note_on_c, 2, 81, 5
3, 477312, Note_on_c, 2, 93, 5
3, 477312, Note_on_c, 2, 29, 5
3, 477312, Note_on_c, 2, 24, 5
3, 477408, Note_off_c, 2, 24, 0
3, 477408, Note_off_c, 2, 29, 0
3, 477408, Note_off_c, 2, 93, 0
3, 477408, Note_off_c, 2, 81, 0
3, 477408, Note_off_c, 2, 84, 0
3, 477408, Note_off_c, 2, 89, 0
3, 477408, Note_off_c, 2, 32, 0
3, 477408, Note_off_c, 2, 36, 0
3, 477408, Note_off_c, 2, 41, 0
3, 477408, Note_off_c, 2, 45, 0
3, 477408, Note_off_c, 2, 48, 0
3, 477408, Note_off_c, 2, 53, 0
3, 477408, Note_off_c, 2, 57, 0
3, 477408, Note_off_c, 2, 60, 0
3, 477408, Note_off_c, 2, 65, 0
3, 477408, Note_off_c, 2, 69, 0
3, 477408, Note_off_c, 2, 72, 0
3, 477408, Note_off_c, 2, 77, 0
3, 477504, Note_on_c, 2, 77, 5
3, 477504, Note_on_c, 2, 72, 5
3, 477504, Note_on_c, 2, 69, 5
3, 477504, Note_on_c, 2, 65, 5
3, 477504, Note_on_c, 2, 60, 5
3, 477504, Note_on_c, 2, 57, 5
3, 477504, Note_on_c, 2, 53, 5
3, 477504, Note_on_c, 2, 48, 5
3, 477504, Note_on_c, 2, 45, 5
3, 477504, Note_on_c, 2, 41, 5
3, 477504, Note_on_c, 2, 36, 5
3, 477504, Note_on_c, 2, 32, 5
3, 477504, Note_on_c, 2, 89, 5
3, 477504, Note_on_c, 2, 84, 5
3, 477504, Note_on_c, 2, 81, 5
3, 477504, Note_on_c, 2, 93, 5
3, 477504, Note_on_c, 2, 29, 5
3, 477504, Note_on_c, 2, 24, 5
3, 477600, Note_off_c, 2, 24, 0
3, 477600, Note_off_c, 2, 29, 0
3, 477600, Note_off_c, 2, 93, 0
3, 477600, Note_off_c, 2, 81, 0
3, 477600, Note_off_c, 2, 84, 0
3, 477600, Note_off_c, 2, 89, 0
3, 477600, Note_off_c, 2, 32, 0
3, 477600, Note_off_c, 2, 36, 0
3, 477600, Note_off_c, 2, 41, 0
3, 477600, Note_off_c, 2, 45, 0
3, 477600, Note_off_c, 2, 48, 0
3, 477600, Note_off_c, 2, 53, 0
3, 477600, Note_off_c, 2, 57, 0
3, 477600, Note_off_c, 2, 60, 0
3, 477600, Note_off_c, 2, 65, 0
3, 477600, Note_off_c, 2, 69, 0
3, 477600, Note_off_c, 2, 72, 0
3, 477600, Note_off_c, 2, 77, 0
3, 477696, Note_on_c, 2, 77, 5
3, 477696, Note_on_c, 2, 72, 5
3, 477696, Note_on_c, 2, 69, 5
3, 477696, Note_on_c, 2, 65, 5
3, 477696, Note_on_c, 2, 60, 5
3, 477696, Note_on_c, 2, 57, 5
3, 477696, Note_on_c, 2, 53, 5
3, 477696, Note_on_c, 2, 48, 5
3, 477696, Note_on_c, 2, 45, 5
3, 477696, Note_on_c, 2, 41, 5
3, 477696, Note_on_c, 2, 36, 5
3, 477696, Note_on_c, 2, 32, 5
3, 477696, Note_on_c, 2, 89, 5
3, 477696, Note_on_c, 2, 84, 5
3, 477696, Note_on_c, 2, 81, 5
3, 477696, Note_on_c, 2, 93, 5
3, 477696, Note_on_c, 2, 29, 5
3, 477696, Note_on_c, 2, 24, 5
3, 477792, Note_off_c, 2, 24, 0
3, 477792, Note_off_c, 2, 29, 0
3, 477792, Note_off_c, 2, 93, 0
3, 477792, Note_off_c, 2, 81, 0
3, 477792, Note_off_c, 2, 84, 0
3, 477792, Note_off_c, 2, 89, 0
3, 477792, Note_off_c, 2, 32, 0
3, 477792, Note_off_c, 2, 36, 0
3, 477792, Note_off_c, 2, 41, 0
3, 477792, Note_off_c, 2, 45, 0
3, 477792, Note_off_c, 2, 48, 0
3, 477792, Note_off_c, 2, 53, 0
3, 477792, Note_off_c, 2, 57, 0
3, 477792, Note_off_c, 2, 60, 0
3, 477792, Note_off_c, 2, 65, 0
3, 477792, Note_off_c, 2, 69, 0
3, 477792, Note_off_c, 2, 72, 0
3, 477792, Note_off_c, 2, 77, 0
3, 477888, Note_on_c, 2, 77, 5
3, 477888, Note_on_c, 2, 72, 5
3, 477888, Note_on_c, 2, 69, 5
3, 477888, Note_on_c, 2, 65, 5
3, 477888, Note_on_c, 2, 60, 5
3, 477888, Note_on_c, 2, 57, 5
3, 477888, Note_on_c, 2, 53, 5
3, 477888, Note_on_c, 2, 48, 5
3, 477888, Note_on_c, 2, 45, 5
3, 477888, Note_on_c, 2, 41, 5
3, 477888, Note_on_c, 2, 36, 5
3, 477888, Note_on_c, 2, 32, 5
3, 477888, Note_on_c, 2, 89, 5
3, 477888, Note_on_c, 2, 84, 5
3, 477888, Note_on_c, 2, 81, 5
3, 477888, Note_on_c, 2, 93, 5
3, 477888, Note_on_c, 2, 29, 5
3, 477888, Note_on_c, 2, 24, 5
3, 477984, Note_off_c, 2, 24, 0
3, 477984, Note_off_c, 2, 29, 0
3, 477984, Note_off_c, 2, 93, 0
3, 477984, Note_off_c, 2, 81, 0
3, 477984, Note_off_c, 2, 84, 0
3, 477984, Note_off_c, 2, 89, 0
3, 477984, Note_off_c, 2, 32, 0
3, 477984, Note_off_c, 2, 36, 0
3, 477984, Note_off_c, 2, 41, 0
3, 477984, Note_off_c, 2, 45, 0
3, 477984, Note_off_c, 2, 48, 0
3, 477984, Note_off_c, 2, 53, 0
3, 477984, Note_off_c, 2, 57, 0
3, 477984, Note_off_c, 2, 60, 0
3, 477984, Note_off_c, 2, 65, 0
3, 477984, Note_off_c, 2, 69, 0
3, 477984, Note_off_c, 2, 72, 0
3, 477984, Note_off_c, 2, 77, 0
3, 478080, Note_on_c, 2, 77, 5
3, 478080, Note_on_c, 2, 72, 5
3, 478080, Note_on_c, 2, 69, 5
3, 478080, Note_on_c, 2, 65, 5
3, 478080, Note_on_c, 2, 60, 5
3, 478080, Note_on_c, 2, 57, 5
3, 478080, Note_on_c, 2, 53, 5
3, 478080, Note_on_c, 2, 48, 5
3, 478080, Note_on_c, 2, 45, 5
3, 478080, Note_on_c, 2, 41, 5
3, 478080, Note_on_c, 2, 36, 5
3, 478080, Note_on_c, 2, 32, 5
3, 478080, Note_on_c, 2, 89, 5
3, 478080, Note_on_c, 2, 84, 5
3, 478080, Note_on_c, 2, 81, 5
3, 478080, Note_on_c, 2, 93, 5
3, 478080, Note_on_c, 2, 29, 5
3, 478080, Note_on_c, 2, 24, 5
3, 478176, Note_off_c, 2, 24, 0
3, 478176, Note_off_c, 2, 29, 0
3, 478176, Note_off_c, 2, 93, 0
3, 478176, Note_off_c, 2, 81, 0
3, 478176, Note_off_c, 2, 84, 0
3, 478176, Note_off_c, 2, 89, 0
3, 478176, Note_off_c, 2, 32, 0
3, 478176, Note_off_c, 2, 36, 0
3, 478176, Note_off_c, 2, 41, 0
3, 478176, Note_off_c, 2, 45, 0
3, 478176, Note_off_c, 2, 48, 0
3, 478176, Note_off_c, 2, 53, 0
3, 478176, Note_off_c, 2, 57, 0
3, 478176, Note_off_c, 2, 60, 0
3, 478176, Note_off_c, 2, 65, 0
3, 478176, Note_off_c, 2, 69, 0
3, 478176, Note_off_c, 2, 72, 0
3, 478176, Note_off_c, 2, 77, 0
3, 478272, Note_on_c, 2, 77, 5
3, 478272, Note_on_c, 2, 72, 5
3, 478272, Note_on_c, 2, 69, 5
3, 478272, Note_on_c, 2, 65, 5
3, 478272, Note_on_c, 2, 60, 5
3, 478272, Note_on_c, 2, 57, 5
3, 478272, Note_on_c, 2, 53, 5
3, 478272, Note_on_c, 2, 48, 5
3, 478272, Note_on_c, 2, 45, 5
3, 478272, Note_on_c, 2, 41, 5
3, 478272, Note_on_c, 2, 36, 5
3, 478272, Note_on_c, 2, 32, 5
3, 478272, Note_on_c, 2, 89, 5
3, 478272, Note_on_c, 2, 84, 5
3, 478272, Note_on_c, 2, 81, 5
3, 478272, Note_on_c, 2, 93, 5
3, 478272, Note_on_c, 2, 29, 5
3, 478272, Note_on_c, 2, 24, 5
3, 478368, Note_off_c, 2, 24, 0
3, 478368, Note_off_c, 2, 29, 0
3, 478368, Note_off_c, 2, 93, 0
3, 478368, Note_off_c, 2, 81, 0
3, 478368, Note_off_c, 2, 84, 0
3, 478368, Note_off_c, 2, 89, 0
3, 478368, Note_off_c, 2, 32, 0
3, 478368, Note_off_c, 2, 36, 0
3, 478368, Note_off_c, 2, 41, 0
3, 478368, Note_off_c, 2, 45, 0
3, 478368, Note_off_c, 2, 48, 0
3, 478368, Note_off_c, 2, 53, 0
3, 478368, Note_off_c, 2, 57, 0
3, 478368, Note_off_c, 2, 60, 0
3, 478368, Note_off_c, 2, 65, 0
3, 478368, Note_off_c, 2, 69, 0
3, 478368, Note_off_c, 2, 72, 0
3, 478368, Note_off_c, 2, 77, 0
3, 478464, Note_on_c, 2, 77, 5
3, 478464, Note_on_c, 2, 72, 5
3, 478464, Note_on_c, 2, 69, 5
3, 478464, Note_on_c, 2, 65, 5
3, 478464, Note_on_c, 2, 60, 5
3, 478464, Note_on_c, 2, 57, 5
3, 478464, Note_on_c, 2, 53, 5
3, 478464, Note_on_c, 2, 48, 5
3, 478464, Note_on_c, 2, 45, 5
3, 478464, Note_on_c, 2, 41, 5
3, 478464, Note_on_c, 2, 36, 5
3, 478464, Note_on_c, 2, 32, 5
3, 478464, Note_on_c, 2, 89, 5
3, 478464, Note_on_c, 2, 84, 5
3, 478464, Note_on_c, 2, 81, 5
3, 478464, Note_on_c, 2, 93, 5
3, 478464, Note_on_c, 2, 29, 5
3, 478464, Note_on_c, 2, 24, 5
3, 478560, Note_off_c, 2, 24, 0
3, 478560, Note_off_c, 2, 29, 0
3, 478560, Note_off_c, 2, 93, 0
3, 478560, Note_off_c, 2, 81, 0
3, 478560, Note_off_c, 2, 84, 0
3, 478560, Note_off_c, 2, 89, 0
3, 478560, Note_off_c, 2, 32, 0
3, 478560, Note_off_c, 2, 36, 0
3, 478560, Note_off_c, 2, 41, 0
3, 478560, Note_off_c, 2, 45, 0
3, 478560, Note_off_c, 2, 48, 0
3, 478560, Note_off_c, 2, 53, 0
3, 478560, Note_off_c, 2, 57, 0
3, 478560, Note_off_c, 2, 60, 0
3, 478560, Note_off_c, 2, 65, 0
3, 478560, Note_off_c, 2, 69, 0
3, 478560, Note_off_c, 2, 72, 0
3, 478560, Note_off_c, 2, 77, 0
3, 478656, Note_on_c, 2, 77, 5
3, 478656, Note_on_c, 2, 72, 5
3, 478656, Note_on_c, 2, 69, 5
3, 478656, Note_on_c, 2, 65, 5
3, 478656, Note_on_c, 2, 60, 5
3, 478656, Note_on_c, 2, 57, 5
3, 478656, Note_on_c, 2, 53, 5
3, 478656, Note_on_c, 2, 48, 5
3, 478656, Note_on_c, 2, 45, 5
3, 478656, Note_on_c, 2, 41, 5
3, 478656, Note_on_c, 2, 36, 5
3, 478656, Note_on_c, 2, 32, 5
3, 478656, Note_on_c, 2, 89, 5
3, 478656, Note_on_c, 2, 84, 5
3, 478656, Note_on_c, 2, 81, 5
3, 478656, Note_on_c, 2, 93, 5
3, 478656, Note_on_c, 2, 29, 5
3, 478656, Note_on_c, 2, 24, 5
3, 478752, Note_off_c, 2, 24, 0
3, 478752, Note_off_c, 2, 29, 0
3, 478752, Note_off_c, 2, 93, 0
3, 478752, Note_off_c, 2, 81, 0
3, 478752, Note_off_c, 2, 84, 0
3, 478752, Note_off_c, 2, 89, 0
3, 478752, Note_off_c, 2, 32, 0
3, 478752, Note_off_c, 2, 36, 0
3, 478752, Note_off_c, 2, 41, 0
3, 478752, Note_off_c, 2, 45, 0
3, 478752, Note_off_c, 2, 48, 0
3, 478752, Note_off_c, 2, 53, 0
3, 478752, Note_off_c, 2, 57, 0
3, 478752, Note_off_c, 2, 60, 0
3, 478752, Note_off_c, 2, 65, 0
3, 478752, Note_off_c, 2, 69, 0
3, 478752, Note_off_c, 2, 72, 0
3, 478752, Note_off_c, 2, 77, 0
3, 478848, Note_on_c, 2, 77, 5
3, 478848, Note_on_c, 2, 72, 5
3, 478848, Note_on_c, 2, 69, 5
3, 478848, Note_on_c, 2, 65, 5
3, 478848, Note_on_c, 2, 60, 5
3, 478848, Note_on_c, 2, 57, 5
3, 478848, Note_on_c, 2, 53, 5
3, 478848, Note_on_c, 2, 48, 5
3, 478848, Note_on_c, 2, 45, 5
3, 478848, Note_on_c, 2, 41, 5
3, 478848, Note_on_c, 2, 36, 5
3, 478848, Note_on_c, 2, 32, 5
3, 478848, Note_on_c, 2, 89, 5
3, 478848, Note_on_c, 2, 84, 5
3, 478848, Note_on_c, 2, 81, 5
3, 478848, Note_on_c, 2, 93, 5
3, 478848, Note_on_c, 2, 29, 5
3, 478848, Note_on_c, 2, 24, 5
3, 478944, Note_off_c, 2, 24, 0
3, 478944, Note_off_c, 2, 29, 0
3, 478944, Note_off_c, 2, 93, 0
3, 478944, Note_off_c, 2, 81, 0
3, 478944, Note_off_c, 2, 84, 0
3, 478944, Note_off_c, 2, 89, 0
3, 478944, Note_off_c, 2, 32, 0
3, 478944, Note_off_c, 2, 36, 0
3, 478944, Note_off_c, 2, 41, 0
3, 478944, Note_off_c, 2, 45, 0
3, 478944, Note_off_c, 2, 48, 0
3, 478944, Note_off_c, 2, 53, 0
3, 478944, Note_off_c, 2, 57, 0
3, 478944, Note_off_c, 2, 60, 0
3, 478944, Note_off_c, 2, 65, 0
3, 478944, Note_off_c, 2, 69, 0
3, 478944, Note_off_c, 2, 72, 0
3, 478944, Note_off_c, 2, 77, 0
3, 479040, Note_on_c, 2, 77, 5
3, 479040, Note_on_c, 2, 72, 5
3, 479040, Note_on_c, 2, 69, 5
3, 479040, Note_on_c, 2, 65, 5
3, 479040, Note_on_c, 2, 60, 5
3, 479040, Note_on_c, 2, 57, 5
3, 479040, Note_on_c, 2, 53, 5
3, 479040, Note_on_c, 2, 48, 5
3, 479040, Note_on_c, 2, 45, 5
3, 479040, Note_on_c, 2, 41, 5
3, 479040, Note_on_c, 2, 36, 5
3, 479040, Note_on_c, 2, 32, 5
3, 479040, Note_on_c, 2, 89, 5
3, 479040, Note_on_c, 2, 84, 5
3, 479040, Note_on_c, 2, 81, 5
3, 479040, Note_on_c, 2, 93, 5
3, 479040, Note_on_c, 2, 29, 5
3, 479040, Note_on_c, 2, 24, 5
3, 479136, Note_off_c, 2, 24, 0
3, 479136, Note_off_c, 2, 29, 0
3, 479136, Note_off_c, 2, 93, 0
3, 479136, Note_off_c, 2, 81, 0
3, 479136, Note_off_c, 2, 84, 0
3, 479136, Note_off_c, 2, 89, 0
3, 479136, Note_off_c, 2, 32, 0
3, 479136, Note_off_c, 2, 36, 0
3, 479136, Note_off_c, 2, 41, 0
3, 479136, Note_off_c, 2, 45, 0
3, 479136, Note_off_c, 2, 48, 0
3, 479136, Note_off_c, 2, 53, 0
3, 479136, Note_off_c, 2, 57, 0
3, 479136, Note_off_c, 2, 60, 0
3, 479136, Note_off_c, 2, 65, 0
3, 479136, Note_off_c, 2, 69, 0
3, 479136, Note_off_c, 2, 72, 0
3, 479136, Note_off_c, 2, 77, 0
3, 479232, Note_on_c, 2, 77, 5
3, 479232, Note_on_c, 2, 73, 5
3, 479232, Note_on_c, 2, 70, 5
3, 479232, Note_on_c, 2, 65, 5
3, 479232, Note_on_c, 2, 61, 5
3, 479232, Note_on_c, 2, 58, 5
3, 479232, Note_on_c, 2, 53, 5
3, 479232, Note_on_c, 2, 49, 5
3, 479232, Note_on_c, 2, 46, 5
3, 479232, Note_on_c, 2, 41, 5
3, 479232, Note_on_c, 2, 37, 5
3, 479232, Note_on_c, 2, 34, 5
3, 479232, Note_on_c, 2, 89, 5
3, 479232, Note_on_c, 2, 85, 5
3, 479232, Note_on_c, 2, 82, 5
3, 479232, Note_on_c, 2, 94, 5
3, 479232, Note_on_c, 2, 29, 5
3, 479232, Note_on_c, 2, 25, 5
3, 479328, Note_off_c, 2, 25, 0
3, 479328, Note_off_c, 2, 29, 0
3, 479328, Note_off_c, 2, 94, 0
3, 479328, Note_off_c, 2, 82, 0
3, 479328, Note_off_c, 2, 85, 0
3, 479328, Note_off_c, 2, 89, 0
3, 479328, Note_off_c, 2, 34, 0
3, 479328, Note_off_c, 2, 37, 0
3, 479328, Note_off_c, 2, 41, 0
3, 479328, Note_off_c, 2, 46, 0
3, 479328, Note_off_c, 2, 49, 0
3, 479328, Note_off_c, 2, 53, 0
3, 479328, Note_off_c, 2, 58, 0
3, 479328, Note_off_c, 2, 61, 0
3, 479328, Note_off_c, 2, 65, 0
3, 479328, Note_off_c, 2, 70, 0
3, 479328, Note_off_c, 2, 73, 0
3, 479328, Note_off_c, 2, 77, 0
3, 479424, Note_on_c, 2, 77, 5
3, 479424, Note_on_c, 2, 73, 5
3, 479424, Note_on_c, 2, 70, 5
3, 479424, Note_on_c, 2, 65, 5
3, 479424, Note_on_c, 2, 61, 5
3, 479424, Note_on_c, 2, 58, 5
3, 479424, Note_on_c, 2, 53, 5
3, 479424, Note_on_c, 2, 49, 5
3, 479424, Note_on_c, 2, 46, 5
3, 479424, Note_on_c, 2, 41, 5
3, 479424, Note_on_c, 2, 37, 5
3, 479424, Note_on_c, 2, 34, 5
3, 479424, Note_on_c, 2, 89, 5
3, 479424, Note_on_c, 2, 85, 5
3, 479424, Note_on_c, 2, 82, 5
3, 479424, Note_on_c, 2, 94, 5
3, 479424, Note_on_c, 2, 29, 5
3, 479424, Note_on_c, 2, 25, 5
3, 479520, Note_off_c, 2, 25, 0
3, 479520, Note_off_c, 2, 29, 0
3, 479520, Note_off_c, 2, 94, 0
3, 479520, Note_off_c, 2, 82, 0
3, 479520, Note_off_c, 2, 85, 0
3, 479520, Note_off_c, 2, 89, 0
3, 479520, Note_off_c, 2, 34, 0
3, 479520, Note_off_c, 2, 37, 0
3, 479520, Note_off_c, 2, 41, 0
3, 479520, Note_off_c, 2, 46, 0
3, 479520, Note_off_c, 2, 49, 0
3, 479520, Note_off_c, 2, 53, 0
3, 479520, Note_off_c, 2, 58, 0
3, 479520, Note_off_c, 2, 61, 0
3, 479520, Note_off_c, 2, 65, 0
3, 479520, Note_off_c, 2, 70, 0
3, 479520, Note_off_c, 2, 73, 0
3, 479520, Note_off_c, 2, 77, 0
3, 479616, Note_on_c, 2, 77, 5
3, 479616, Note_on_c, 2, 73, 5
3, 479616, Note_on_c, 2, 70, 5
3, 479616, Note_on_c, 2, 65, 5
3, 479616, Note_on_c, 2, 61, 5
3, 479616, Note_on_c, 2, 58, 5
3, 479616, Note_on_c, 2, 53, 5
3, 479616, Note_on_c, 2, 49, 5
3, 479616, Note_on_c, 2, 46, 5
3, 479616, Note_on_c, 2, 41, 5
3, 479616, Note_on_c, 2, 37, 5
3, 479616, Note_on_c, 2, 34, 5
3, 479616, Note_on_c, 2, 89, 5
3, 479616, Note_on_c, 2, 85, 5
3, 479616, Note_on_c, 2, 82, 5
3, 479616, Note_on_c, 2, 94, 5
3, 479616, Note_on_c, 2, 29, 5
3, 479616, Note_on_c, 2, 25, 5
3, 479712, Note_off_c, 2, 25, 0
3, 479712, Note_off_c, 2, 29, 0
3, 479712, Note_off_c, 2, 94, 0
3, 479712, Note_off_c, 2, 82, 0
3, 479712, Note_off_c, 2, 85, 0
3, 479712, Note_off_c, 2, 89, 0
3, 479712, Note_off_c, 2, 34, 0
3, 479712, Note_off_c, 2, 37, 0
3, 479712, Note_off_c, 2, 41, 0
3, 479712, Note_off_c, 2, 46, 0
3, 479712, Note_off_c, 2, 49, 0
3, 479712, Note_off_c, 2, 53, 0
3, 479712, Note_off_c, 2, 58, 0
3, 479712, Note_off_c, 2, 61, 0
3, 479712, Note_off_c, 2, 65, 0
3, 479712, Note_off_c, 2, 70, 0
3, 479712, Note_off_c, 2, 73, 0
3, 479712, Note_off_c, 2, 77, 0
3, 479808, Note_on_c, 2, 77, 5
3, 479808, Note_on_c, 2, 73, 5
3, 479808, Note_on_c, 2, 70, 5
3, 479808, Note_on_c, 2, 65, 5
3, 479808, Note_on_c, 2, 61, 5
3, 479808, Note_on_c, 2, 58, 5
3, 479808, Note_on_c, 2, 53, 5
3, 479808, Note_on_c, 2, 49, 5
3, 479808, Note_on_c, 2, 46, 5
3, 479808, Note_on_c, 2, 41, 5
3, 479808, Note_on_c, 2, 37, 5
3, 479808, Note_on_c, 2, 34, 5
3, 479808, Note_on_c, 2, 89, 5
3, 479808, Note_on_c, 2, 85, 5
3, 479808, Note_on_c, 2, 82, 5
3, 479808, Note_on_c, 2, 94, 5
3, 479808, Note_on_c, 2, 29, 5
3, 479808, Note_on_c, 2, 25, 5
3, 479904, Note_off_c, 2, 25, 0
3, 479904, Note_off_c, 2, 29, 0
3, 479904, Note_off_c, 2, 94, 0
3, 479904, Note_off_c, 2, 82, 0
3, 479904, Note_off_c, 2, 85, 0
3, 479904, Note_off_c, 2, 89, 0
3, 479904, Note_off_c, 2, 34, 0
3, 479904, Note_off_c, 2, 37, 0
3, 479904, Note_off_c, 2, 41, 0
3, 479904, Note_off_c, 2, 46, 0
3, 479904, Note_off_c, 2, 49, 0
3, 479904, Note_off_c, 2, 53, 0
3, 479904, Note_off_c, 2, 58, 0
3, 479904, Note_off_c, 2, 61, 0
3, 479904, Note_off_c, 2, 65, 0
3, 479904, Note_off_c, 2, 70, 0
3, 479904, Note_off_c, 2, 73, 0
3, 479904, Note_off_c, 2, 77, 0
3, 480000, Note_on_c, 2, 77, 5
3, 480000, Note_on_c, 2, 73, 5
3, 480000, Note_on_c, 2, 70, 5
3, 480000, Note_on_c, 2, 65, 5
3, 480000, Note_on_c, 2, 61, 5
3, 480000, Note_on_c, 2, 58, 5
3, 480000, Note_on_c, 2, 53, 5
3, 480000, Note_on_c, 2, 49, 5
3, 480000, Note_on_c, 2, 46, 5
3, 480000, Note_on_c, 2, 41, 5
3, 480000, Note_on_c, 2, 37, 5
3, 480000, Note_on_c, 2, 34, 5
3, 480000, Note_on_c, 2, 89, 5
3, 480000, Note_on_c, 2, 85, 5
3, 480000, Note_on_c, 2, 82, 5
3, 480000, Note_on_c, 2, 94, 5
3, 480000, Note_on_c, 2, 29, 5
3, 480000, Note_on_c, 2, 25, 5
3, 480096, Note_off_c, 2, 25, 0
3, 480096, Note_off_c, 2, 29, 0
3, 480096, Note_off_c, 2, 94, 0
3, 480096, Note_off_c, 2, 82, 0
3, 480096, Note_off_c, 2, 85, 0
3, 480096, Note_off_c, 2, 89, 0
3, 480096, Note_off_c, 2, 34, 0
3, 480096, Note_off_c, 2, 37, 0
3, 480096, Note_off_c, 2, 41, 0
3, 480096, Note_off_c, 2, 46, 0
3, 480096, Note_off_c, 2, 49, 0
3, 480096, Note_off_c, 2, 53, 0
3, 480096, Note_off_c, 2, 58, 0
3, 480096, Note_off_c, 2, 61, 0
3, 480096, Note_off_c, 2, 65, 0
3, 480096, Note_off_c, 2, 70, 0
3, 480096, Note_off_c, 2, 73, 0
3, 480096, Note_off_c, 2, 77, 0
3, 480192, Note_on_c, 2, 77, 5
3, 480192, Note_on_c, 2, 73, 5
3, 480192, Note_on_c, 2, 70, 5
3, 480192, Note_on_c, 2, 65, 5
3, 480192, Note_on_c, 2, 61, 5
3, 480192, Note_on_c, 2, 58, 5
3, 480192, Note_on_c, 2, 53, 5
3, 480192, Note_on_c, 2, 49, 5
3, 480192, Note_on_c, 2, 46, 5
3, 480192, Note_on_c, 2, 41, 5
3, 480192, Note_on_c, 2, 37, 5
3, 480192, Note_on_c, 2, 34, 5
3, 480192, Note_on_c, 2, 89, 5
3, 480192, Note_on_c, 2, 85, 5
3, 480192, Note_on_c, 2, 82, 5
3, 480192, Note_on_c, 2, 94, 5
3, 480192, Note_on_c, 2, 29, 5
3, 480192, Note_on_c, 2, 25, 5
3, 480288, Note_off_c, 2, 25, 0
3, 480288, Note_off_c, 2, 29, 0
3, 480288, Note_off_c, 2, 94, 0
3, 480288, Note_off_c, 2, 82, 0
3, 480288, Note_off_c, 2, 85, 0
3, 480288, Note_off_c, 2, 89, 0
3, 480288, Note_off_c, 2, 34, 0
3, 480288, Note_off_c, 2, 37, 0
3, 480288, Note_off_c, 2, 41, 0
3, 480288, Note_off_c, 2, 46, 0
3, 480288, Note_off_c, 2, 49, 0
3, 480288, Note_off_c, 2, 53, 0
3, 480288, Note_off_c, 2, 58, 0
3, 480288, Note_off_c, 2, 61, 0
3, 480288, Note_off_c, 2, 65, 0
3, 480288, Note_off_c, 2, 70, 0
3, 480288, Note_off_c, 2, 73, 0
3, 480288, Note_off_c, 2, 77, 0
3, 480384, Note_on_c, 2, 77, 5
3, 480384, Note_on_c, 2, 73, 5
3, 480384, Note_on_c, 2, 70, 5
3, 480384, Note_on_c, 2, 65, 5
3, 480384, Note_on_c, 2, 61, 5
3, 480384, Note_on_c, 2, 58, 5
3, 480384, Note_on_c, 2, 53, 5
3, 480384, Note_on_c, 2, 49, 5
3, 480384, Note_on_c, 2, 46, 5
3, 480384, Note_on_c, 2, 41, 5
3, 480384, Note_on_c, 2, 37, 5
3, 480384, Note_on_c, 2, 34, 5
3, 480384, Note_on_c, 2, 89, 5
3, 480384, Note_on_c, 2, 85, 5
3, 480384, Note_on_c, 2, 82, 5
3, 480384, Note_on_c, 2, 94, 5
3, 480384, Note_on_c, 2, 29, 5
3, 480384, Note_on_c, 2, 25, 5
3, 480480, Note_off_c, 2, 25, 0
3, 480480, Note_off_c, 2, 29, 0
3, 480480, Note_off_c, 2, 94, 0
3, 480480, Note_off_c, 2, 82, 0
3, 480480, Note_off_c, 2, 85, 0
3, 480480, Note_off_c, 2, 89, 0
3, 480480, Note_off_c, 2, 34, 0
3, 480480, Note_off_c, 2, 37, 0
3, 480480, Note_off_c, 2, 41, 0
3, 480480, Note_off_c, 2, 46, 0
3, 480480, Note_off_c, 2, 49, 0
3, 480480, Note_off_c, 2, 53, 0
3, 480480, Note_off_c, 2, 58, 0
3, 480480, Note_off_c, 2, 61, 0
3, 480480, Note_off_c, 2, 65, 0
3, 480480, Note_off_c, 2, 70, 0
3, 480480, Note_off_c, 2, 73, 0
3, 480480, Note_off_c, 2, 77, 0
3, 480576, Note_on_c, 2, 77, 5
3, 480576, Note_on_c, 2, 73, 5
3, 480576, Note_on_c, 2, 70, 5
3, 480576, Note_on_c, 2, 65, 5
3, 480576, Note_on_c, 2, 61, 5
3, 480576, Note_on_c, 2, 58, 5
3, 480576, Note_on_c, 2, 53, 5
3, 480576, Note_on_c, 2, 49, 5
3, 480576, Note_on_c, 2, 46, 5
3, 480576, Note_on_c, 2, 41, 5
3, 480576, Note_on_c, 2, 37, 5
3, 480576, Note_on_c, 2, 34, 5
3, 480576, Note_on_c, 2, 89, 5
3, 480576, Note_on_c, 2, 85, 5
3, 480576, Note_on_c, 2, 82, 5
3, 480576, Note_on_c, 2, 94, 5
3, 480576, Note_on_c, 2, 29, 5
3, 480576, Note_on_c, 2, 25, 5
3, 480672, Note_off_c, 2, 25, 0
3, 480672, Note_off_c, 2, 29, 0
3, 480672, Note_off_c, 2, 94, 0
3, 480672, Note_off_c, 2, 82, 0
3, 480672, Note_off_c, 2, 85, 0
3, 480672, Note_off_c, 2, 89, 0
3, 480672, Note_off_c, 2, 34, 0
3, 480672, Note_off_c, 2, 37, 0
3, 480672, Note_off_c, 2, 41, 0
3, 480672, Note_off_c, 2, 46, 0
3, 480672, Note_off_c, 2, 49, 0
3, 480672, Note_off_c, 2, 53, 0
3, 480672, Note_off_c, 2, 58, 0
3, 480672, Note_off_c, 2, 61, 0
3, 480672, Note_off_c, 2, 65, 0
3, 480672, Note_off_c, 2, 70, 0
3, 480672, Note_off_c, 2, 73, 0
3, 480672, Note_off_c, 2, 77, 0
3, 480768, Note_on_c, 2, 77, 5
3, 480768, Note_on_c, 2, 73, 5
3, 480768, Note_on_c, 2, 70, 5
3, 480768, Note_on_c, 2, 65, 5
3, 480768, Note_on_c, 2, 61, 5
3, 480768, Note_on_c, 2, 58, 5
3, 480768, Note_on_c, 2, 53, 5
3, 480768, Note_on_c, 2, 49, 5
3, 480768, Note_on_c, 2, 46, 5
3, 480768, Note_on_c, 2, 41, 5
3, 480768, Note_on_c, 2, 37, 5
3, 480768, Note_on_c, 2, 34, 5
3, 480768, Note_on_c, 2, 89, 5
3, 480768, Note_on_c, 2, 85, 5
3, 480768, Note_on_c, 2, 82, 5
3, 480768, Note_on_c, 2, 94, 5
3, 480768, Note_on_c, 2, 29, 5
3, 480768, Note_on_c, 2, 25, 5
3, 480864, Note_off_c, 2, 25, 0
3, 480864, Note_off_c, 2, 29, 0
3, 480864, Note_off_c, 2, 94, 0
3, 480864, Note_off_c, 2, 82, 0
3, 480864, Note_off_c, 2, 85, 0
3, 480864, Note_off_c, 2, 89, 0
3, 480864, Note_off_c, 2, 34, 0
3, 480864, Note_off_c, 2, 37, 0
3, 480864, Note_off_c, 2, 41, 0
3, 480864, Note_off_c, 2, 46, 0
3, 480864, Note_off_c, 2, 49, 0
3, 480864, Note_off_c, 2, 53, 0
3, 480864, Note_off_c, 2, 58, 0
3, 480864, Note_off_c, 2, 61, 0
3, 480864, Note_off_c, 2, 65, 0
3, 480864, Note_off_c, 2, 70, 0
3, 480864, Note_off_c, 2, 73, 0
3, 480864, Note_off_c, 2, 77, 0
3, 480960, Note_on_c, 2, 77, 5
3, 480960, Note_on_c, 2, 73, 5
3, 480960, Note_on_c, 2, 70, 5
3, 480960, Note_on_c, 2, 65, 5
3, 480960, Note_on_c, 2, 61, 5
3, 480960, Note_on_c, 2, 58, 5
3, 480960, Note_on_c, 2, 53, 5
3, 480960, Note_on_c, 2, 49, 5
3, 480960, Note_on_c, 2, 46, 5
3, 480960, Note_on_c, 2, 41, 5
3, 480960, Note_on_c, 2, 37, 5
3, 480960, Note_on_c, 2, 34, 5
3, 480960, Note_on_c, 2, 89, 5
3, 480960, Note_on_c, 2, 85, 5
3, 480960, Note_on_c, 2, 82, 5
3, 480960, Note_on_c, 2, 94, 5
3, 480960, Note_on_c, 2, 29, 5
3, 480960, Note_on_c, 2, 25, 5
3, 481056, Note_off_c, 2, 25, 0
3, 481056, Note_off_c, 2, 29, 0
3, 481056, Note_off_c, 2, 94, 0
3, 481056, Note_off_c, 2, 82, 0
3, 481056, Note_off_c, 2, 85, 0
3, 481056, Note_off_c, 2, 89, 0
3, 481056, Note_off_c, 2, 34, 0
3, 481056, Note_off_c, 2, 37, 0
3, 481056, Note_off_c, 2, 41, 0
3, 481056, Note_off_c, 2, 46, 0
3, 481056, Note_off_c, 2, 49, 0
3, 481056, Note_off_c, 2, 53, 0
3, 481056, Note_off_c, 2, 58, 0
3, 481056, Note_off_c, 2, 61, 0
3, 481056, Note_off_c, 2, 65, 0
3, 481056, Note_off_c, 2, 70, 0
3, 481056, Note_off_c, 2, 73, 0
3, 481056, Note_off_c, 2, 77, 0
3, 481152, Note_on_c, 2, 77, 5
3, 481152, Note_on_c, 2, 73, 5
3, 481152, Note_on_c, 2, 70, 5
3, 481152, Note_on_c, 2, 65, 5
3, 481152, Note_on_c, 2, 61, 5
3, 481152, Note_on_c, 2, 58, 5
3, 481152, Note_on_c, 2, 53, 5
3, 481152, Note_on_c, 2, 49, 5
3, 481152, Note_on_c, 2, 46, 5
3, 481152, Note_on_c, 2, 41, 5
3, 481152, Note_on_c, 2, 37, 5
3, 481152, Note_on_c, 2, 34, 5
3, 481152, Note_on_c, 2, 89, 5
3, 481152, Note_on_c, 2, 85, 5
3, 481152, Note_on_c, 2, 82, 5
3, 481152, Note_on_c, 2, 94, 5
3, 481152, Note_on_c, 2, 29, 5
3, 481152, Note_on_c, 2, 25, 5
3, 481248, Note_off_c, 2, 25, 0
3, 481248, Note_off_c, 2, 29, 0
3, 481248, Note_off_c, 2, 94, 0
3, 481248, Note_off_c, 2, 82, 0
3, 481248, Note_off_c, 2, 85, 0
3, 481248, Note_off_c, 2, 89, 0
3, 481248, Note_off_c, 2, 34, 0
3, 481248, Note_off_c, 2, 37, 0
3, 481248, Note_off_c, 2, 41, 0
3, 481248, Note_off_c, 2, 46, 0
3, 481248, Note_off_c, 2, 49, 0
3, 481248, Note_off_c, 2, 53, 0
3, 481248, Note_off_c, 2, 58, 0
3, 481248, Note_off_c, 2, 61, 0
3, 481248, Note_off_c, 2, 65, 0
3, 481248, Note_off_c, 2, 70, 0
3, 481248, Note_off_c, 2, 73, 0
3, 481248, Note_off_c, 2, 77, 0
3, 481344, Note_on_c, 2, 77, 5
3, 481344, Note_on_c, 2, 73, 5
3, 481344, Note_on_c, 2, 70, 5
3, 481344, Note_on_c, 2, 65, 5
3, 481344, Note_on_c, 2, 61, 5
3, 481344, Note_on_c, 2, 58, 5
3, 481344, Note_on_c, 2, 53, 5
3, 481344, Note_on_c, 2, 49, 5
3, 481344, Note_on_c, 2, 46, 5
3, 481344, Note_on_c, 2, 41, 5
3, 481344, Note_on_c, 2, 37, 5
3, 481344, Note_on_c, 2, 34, 5
3, 481344, Note_on_c, 2, 89, 5
3, 481344, Note_on_c, 2, 85, 5
3, 481344, Note_on_c, 2, 82, 5
3, 481344, Note_on_c, 2, 94, 5
3, 481344, Note_on_c, 2, 29, 5
3, 481344, Note_on_c, 2, 25, 5
3, 481440, Note_off_c, 2, 25, 0
3, 481440, Note_off_c, 2, 29, 0
3, 481440, Note_off_c, 2, 94, 0
3, 481440, Note_off_c, 2, 82, 0
3, 481440, Note_off_c, 2, 85, 0
3, 481440, Note_off_c, 2, 89, 0
3, 481440, Note_off_c, 2, 34, 0
3, 481440, Note_off_c, 2, 37, 0
3, 481440, Note_off_c, 2, 41, 0
3, 481440, Note_off_c, 2, 46, 0
3, 481440, Note_off_c, 2, 49, 0
3, 481440, Note_off_c, 2, 53, 0
3, 481440, Note_off_c, 2, 58, 0
3, 481440, Note_off_c, 2, 61, 0
3, 481440, Note_off_c, 2, 65, 0
3, 481440, Note_off_c, 2, 70, 0
3, 481440, Note_off_c, 2, 73, 0
3, 481440, Note_off_c, 2, 77, 0
3, 481536, Note_on_c, 2, 77, 5
3, 481536, Note_on_c, 2, 73, 5
3, 481536, Note_on_c, 2, 70, 5
3, 481536, Note_on_c, 2, 65, 5
3, 481536, Note_on_c, 2, 61, 5
3, 481536, Note_on_c, 2, 58, 5
3, 481536, Note_on_c, 2, 53, 5
3, 481536, Note_on_c, 2, 49, 5
3, 481536, Note_on_c, 2, 46, 5
3, 481536, Note_on_c, 2, 41, 5
3, 481536, Note_on_c, 2, 37, 5
3, 481536, Note_on_c, 2, 34, 5
3, 481536, Note_on_c, 2, 89, 5
3, 481536, Note_on_c, 2, 85, 5
3, 481536, Note_on_c, 2, 82, 5
3, 481536, Note_on_c, 2, 94, 5
3, 481536, Note_on_c, 2, 29, 5
3, 481536, Note_on_c, 2, 25, 5
3, 481632, Note_off_c, 2, 25, 0
3, 481632, Note_off_c, 2, 29, 0
3, 481632, Note_off_c, 2, 94, 0
3, 481632, Note_off_c, 2, 82, 0
3, 481632, Note_off_c, 2, 85, 0
3, 481632, Note_off_c, 2, 89, 0
3, 481632, Note_off_c, 2, 34, 0
3, 481632, Note_off_c, 2, 37, 0
3, 481632, Note_off_c, 2, 41, 0
3, 481632, Note_off_c, 2, 46, 0
3, 481632, Note_off_c, 2, 49, 0
3, 481632, Note_off_c, 2, 53, 0
3, 481632, Note_off_c, 2, 58, 0
3, 481632, Note_off_c, 2, 61, 0
3, 481632, Note_off_c, 2, 65, 0
3, 481632, Note_off_c, 2, 70, 0
3, 481632, Note_off_c, 2, 73, 0
3, 481632, Note_off_c, 2, 77, 0
3, 481728, Note_on_c, 2, 77, 5
3, 481728, Note_on_c, 2, 73, 5
3, 481728, Note_on_c, 2, 70, 5
3, 481728, Note_on_c, 2, 65, 5
3, 481728, Note_on_c, 2, 61, 5
3, 481728, Note_on_c, 2, 58, 5
3, 481728, Note_on_c, 2, 53, 5
3, 481728, Note_on_c, 2, 49, 5
3, 481728, Note_on_c, 2, 46, 5
3, 481728, Note_on_c, 2, 41, 5
3, 481728, Note_on_c, 2, 37, 5
3, 481728, Note_on_c, 2, 34, 5
3, 481728, Note_on_c, 2, 89, 5
3, 481728, Note_on_c, 2, 85, 5
3, 481728, Note_on_c, 2, 82, 5
3, 481728, Note_on_c, 2, 94, 5
3, 481728, Note_on_c, 2, 29, 5
3, 481728, Note_on_c, 2, 25, 5
3, 481824, Note_off_c, 2, 25, 0
3, 481824, Note_off_c, 2, 29, 0
3, 481824, Note_off_c, 2, 94, 0
3, 481824, Note_off_c, 2, 82, 0
3, 481824, Note_off_c, 2, 85, 0
3, 481824, Note_off_c, 2, 89, 0
3, 481824, Note_off_c, 2, 34, 0
3, 481824, Note_off_c, 2, 37, 0
3, 481824, Note_off_c, 2, 41, 0
3, 481824, Note_off_c, 2, 46, 0
3, 481824, Note_off_c, 2, 49, 0
3, 481824, Note_off_c, 2, 53, 0
3, 481824, Note_off_c, 2, 58, 0
3, 481824, Note_off_c, 2, 61, 0
3, 481824, Note_off_c, 2, 65, 0
3, 481824, Note_off_c, 2, 70, 0
3, 481824, Note_off_c, 2, 73, 0
3, 481824, Note_off_c, 2, 77, 0
3, 481920, Note_on_c, 2, 77, 5
3, 481920, Note_on_c, 2, 73, 5
3, 481920, Note_on_c, 2, 70, 5
3, 481920, Note_on_c, 2, 65, 5
3, 481920, Note_on_c, 2, 61, 5
3, 481920, Note_on_c, 2, 58, 5
3, 481920, Note_on_c, 2, 53, 5
3, 481920, Note_on_c, 2, 49, 5
3, 481920, Note_on_c, 2, 46, 5
3, 481920, Note_on_c, 2, 41, 5
3, 481920, Note_on_c, 2, 37, 5
3, 481920, Note_on_c, 2, 34, 5
3, 481920, Note_on_c, 2, 89, 5
3, 481920, Note_on_c, 2, 85, 5
3, 481920, Note_on_c, 2, 82, 5
3, 481920, Note_on_c, 2, 94, 5
3, 481920, Note_on_c, 2, 29, 5
3, 481920, Note_on_c, 2, 25, 5
3, 482016, Note_off_c, 2, 25, 0
3, 482016, Note_off_c, 2, 29, 0
3, 482016, Note_off_c, 2, 94, 0
3, 482016, Note_off_c, 2, 82, 0
3, 482016, Note_off_c, 2, 85, 0
3, 482016, Note_off_c, 2, 89, 0
3, 482016, Note_off_c, 2, 34, 0
3, 482016, Note_off_c, 2, 37, 0
3, 482016, Note_off_c, 2, 41, 0
3, 482016, Note_off_c, 2, 46, 0
3, 482016, Note_off_c, 2, 49, 0
3, 482016, Note_off_c, 2, 53, 0
3, 482016, Note_off_c, 2, 58, 0
3, 482016, Note_off_c, 2, 61, 0
3, 482016, Note_off_c, 2, 65, 0
3, 482016, Note_off_c, 2, 70, 0
3, 482016, Note_off_c, 2, 73, 0
3, 482016, Note_off_c, 2, 77, 0
3, 482112, Note_on_c, 2, 77, 5
3, 482112, Note_on_c, 2, 73, 5
3, 482112, Note_on_c, 2, 70, 5
3, 482112, Note_on_c, 2, 65, 5
3, 482112, Note_on_c, 2, 61, 5
3, 482112, Note_on_c, 2, 58, 5
3, 482112, Note_on_c, 2, 53, 5
3, 482112, Note_on_c, 2, 49, 5
3, 482112, Note_on_c, 2, 46, 5
3, 482112, Note_on_c, 2, 41, 5
3, 482112, Note_on_c, 2, 37, 5
3, 482112, Note_on_c, 2, 34, 5
3, 482112, Note_on_c, 2, 89, 5
3, 482112, Note_on_c, 2, 85, 5
3, 482112, Note_on_c, 2, 82, 5
3, 482112, Note_on_c, 2, 94, 5
3, 482112, Note_on_c, 2, 29, 5
3, 482112, Note_on_c, 2, 25, 5
3, 482208, Note_off_c, 2, 25, 0
3, 482208, Note_off_c, 2, 29, 0
3, 482208, Note_off_c, 2, 94, 0
3, 482208, Note_off_c, 2, 82, 0
3, 482208, Note_off_c, 2, 85, 0
3, 482208, Note_off_c, 2, 89, 0
3, 482208, Note_off_c, 2, 34, 0
3, 482208, Note_off_c, 2, 37, 0
3, 482208, Note_off_c, 2, 41, 0
3, 482208, Note_off_c, 2, 46, 0
3, 482208, Note_off_c, 2, 49, 0
3, 482208, Note_off_c, 2, 53, 0
3, 482208, Note_off_c, 2, 58, 0
3, 482208, Note_off_c, 2, 61, 0
3, 482208, Note_off_c, 2, 65, 0
3, 482208, Note_off_c, 2, 70, 0
3, 482208, Note_off_c, 2, 73, 0
3, 482208, Note_off_c, 2, 77, 0
3, 482304, Note_on_c, 2, 77, 5
3, 482304, Note_on_c, 2, 73, 5
3, 482304, Note_on_c, 2, 70, 5
3, 482304, Note_on_c, 2, 65, 5
3, 482304, Note_on_c, 2, 61, 5
3, 482304, Note_on_c, 2, 58, 5
3, 482304, Note_on_c, 2, 53, 5
3, 482304, Note_on_c, 2, 49, 5
3, 482304, Note_on_c, 2, 46, 5
3, 482304, Note_on_c, 2, 41, 5
3, 482304, Note_on_c, 2, 37, 5
3, 482304, Note_on_c, 2, 34, 5
3, 482304, Note_on_c, 2, 89, 5
3, 482304, Note_on_c, 2, 85, 5
3, 482304, Note_on_c, 2, 82, 5
3, 482304, Note_on_c, 2, 94, 5
3, 482304, Note_on_c, 2, 29, 5
3, 482304, Note_on_c, 2, 25, 5
3, 482400, Note_off_c, 2, 25, 0
3, 482400, Note_off_c, 2, 29, 0
3, 482400, Note_off_c, 2, 94, 0
3, 482400, Note_off_c, 2, 82, 0
3, 482400, Note_off_c, 2, 85, 0
3, 482400, Note_off_c, 2, 89, 0
3, 482400, Note_off_c, 2, 34, 0
3, 482400, Note_off_c, 2, 37, 0
3, 482400, Note_off_c, 2, 41, 0
3, 482400, Note_off_c, 2, 46, 0
3, 482400, Note_off_c, 2, 49, 0
3, 482400, Note_off_c, 2, 53, 0
3, 482400, Note_off_c, 2, 58, 0
3, 482400, Note_off_c, 2, 61, 0
3, 482400, Note_off_c, 2, 65, 0
3, 482400, Note_off_c, 2, 70, 0
3, 482400, Note_off_c, 2, 73, 0
3, 482400, Note_off_c, 2, 77, 0
3, 482496, Note_on_c, 2, 77, 5
3, 482496, Note_on_c, 2, 73, 5
3, 482496, Note_on_c, 2, 70, 5
3, 482496, Note_on_c, 2, 65, 5
3, 482496, Note_on_c, 2, 61, 5
3, 482496, Note_on_c, 2, 58, 5
3, 482496, Note_on_c, 2, 53, 5
3, 482496, Note_on_c, 2, 49, 5
3, 482496, Note_on_c, 2, 46, 5
3, 482496, Note_on_c, 2, 41, 5
3, 482496, Note_on_c, 2, 37, 5
3, 482496, Note_on_c, 2, 34, 5
3, 482496, Note_on_c, 2, 89, 5
3, 482496, Note_on_c, 2, 85, 5
3, 482496, Note_on_c, 2, 82, 5
3, 482496, Note_on_c, 2, 94, 5
3, 482496, Note_on_c, 2, 29, 5
3, 482496, Note_on_c, 2, 25, 5
3, 482592, Note_off_c, 2, 25, 0
3, 482592, Note_off_c, 2, 29, 0
3, 482592, Note_off_c, 2, 94, 0
3, 482592, Note_off_c, 2, 82, 0
3, 482592, Note_off_c, 2, 85, 0
3, 482592, Note_off_c, 2, 89, 0
3, 482592, Note_off_c, 2, 34, 0
3, 482592, Note_off_c, 2, 37, 0
3, 482592, Note_off_c, 2, 41, 0
3, 482592, Note_off_c, 2, 46, 0
3, 482592, Note_off_c, 2, 49, 0
3, 482592, Note_off_c, 2, 53, 0
3, 482592, Note_off_c, 2, 58, 0
3, 482592, Note_off_c, 2, 61, 0
3, 482592, Note_off_c, 2, 65, 0
3, 482592, Note_off_c, 2, 70, 0
3, 482592, Note_off_c, 2, 73, 0
3, 482592, Note_off_c, 2, 77, 0
3, 482688, Note_on_c, 2, 77, 5
3, 482688, Note_on_c, 2, 73, 5
3, 482688, Note_on_c, 2, 70, 5
3, 482688, Note_on_c, 2, 65, 5
3, 482688, Note_on_c, 2, 61, 5
3, 482688, Note_on_c, 2, 58, 5
3, 482688, Note_on_c, 2, 53, 5
3, 482688, Note_on_c, 2, 49, 5
3, 482688, Note_on_c, 2, 46, 5
3, 482688, Note_on_c, 2, 41, 5
3, 482688, Note_on_c, 2, 37, 5
3, 482688, Note_on_c, 2, 34, 5
3, 482688, Note_on_c, 2, 89, 5
3, 482688, Note_on_c, 2, 85, 5
3, 482688, Note_on_c, 2, 82, 5
3, 482688, Note_on_c, 2, 94, 5
3, 482688, Note_on_c, 2, 29, 5
3, 482688, Note_on_c, 2, 25, 5
3, 482784, Note_off_c, 2, 25, 0
3, 482784, Note_off_c, 2, 29, 0
3, 482784, Note_off_c, 2, 94, 0
3, 482784, Note_off_c, 2, 82, 0
3, 482784, Note_off_c, 2, 85, 0
3, 482784, Note_off_c, 2, 89, 0
3, 482784, Note_off_c, 2, 34, 0
3, 482784, Note_off_c, 2, 37, 0
3, 482784, Note_off_c, 2, 41, 0
3, 482784, Note_off_c, 2, 46, 0
3, 482784, Note_off_c, 2, 49, 0
3, 482784, Note_off_c, 2, 53, 0
3, 482784, Note_off_c, 2, 58, 0
3, 482784, Note_off_c, 2, 61, 0
3, 482784, Note_off_c, 2, 65, 0
3, 482784, Note_off_c, 2, 70, 0
3, 482784, Note_off_c, 2, 73, 0
3, 482784, Note_off_c, 2, 77, 0
3, 482880, Note_on_c, 2, 77, 5
3, 482880, Note_on_c, 2, 73, 5
3, 482880, Note_on_c, 2, 70, 5
3, 482880, Note_on_c, 2, 65, 5
3, 482880, Note_on_c, 2, 61, 5
3, 482880, Note_on_c, 2, 58, 5
3, 482880, Note_on_c, 2, 53, 5
3, 482880, Note_on_c, 2, 49, 5
3, 482880, Note_on_c, 2, 46, 5
3, 482880, Note_on_c, 2, 41, 5
3, 482880, Note_on_c, 2, 37, 5
3, 482880, Note_on_c, 2, 34, 5
3, 482880, Note_on_c, 2, 89, 5
3, 482880, Note_on_c, 2, 85, 5
3, 482880, Note_on_c, 2, 82, 5
3, 482880, Note_on_c, 2, 94, 5
3, 482880, Note_on_c, 2, 29, 5
3, 482880, Note_on_c, 2, 25, 5
3, 482976, Note_off_c, 2, 25, 0
3, 482976, Note_off_c, 2, 29, 0
3, 482976, Note_off_c, 2, 94, 0
3, 482976, Note_off_c, 2, 82, 0
3, 482976, Note_off_c, 2, 85, 0
3, 482976, Note_off_c, 2, 89, 0
3, 482976, Note_off_c, 2, 34, 0
3, 482976, Note_off_c, 2, 37, 0
3, 482976, Note_off_c, 2, 41, 0
3, 482976, Note_off_c, 2, 46, 0
3, 482976, Note_off_c, 2, 49, 0
3, 482976, Note_off_c, 2, 53, 0
3, 482976, Note_off_c, 2, 58, 0
3, 482976, Note_off_c, 2, 61, 0
3, 482976, Note_off_c, 2, 65, 0
3, 482976, Note_off_c, 2, 70, 0
3, 482976, Note_off_c, 2, 73, 0
3, 482976, Note_off_c, 2, 77, 0
3, 483072, Note_on_c, 2, 77, 5
3, 483072, Note_on_c, 2, 73, 5
3, 483072, Note_on_c, 2, 70, 5
3, 483072, Note_on_c, 2, 65, 5
3, 483072, Note_on_c, 2, 61, 5
3, 483072, Note_on_c, 2, 58, 5
3, 483072, Note_on_c, 2, 53, 5
3, 483072, Note_on_c, 2, 49, 5
3, 483072, Note_on_c, 2, 46, 5
3, 483072, Note_on_c, 2, 41, 5
3, 483072, Note_on_c, 2, 37, 5
3, 483072, Note_on_c, 2, 34, 5
3, 483072, Note_on_c, 2, 89, 5
3, 483072, Note_on_c, 2, 85, 5
3, 483072, Note_on_c, 2, 82, 5
3, 483072, Note_on_c, 2, 94, 5
3, 483072, Note_on_c, 2, 29, 5
3, 483072, Note_on_c, 2, 25, 5
3, 483168, Note_off_c, 2, 25, 0
3, 483168, Note_off_c, 2, 29, 0
3, 483168, Note_off_c, 2, 94, 0
3, 483168, Note_off_c, 2, 82, 0
3, 483168, Note_off_c, 2, 85, 0
3, 483168, Note_off_c, 2, 89, 0
3, 483168, Note_off_c, 2, 34, 0
3, 483168, Note_off_c, 2, 37, 0
3, 483168, Note_off_c, 2, 41, 0
3, 483168, Note_off_c, 2, 46, 0
3, 483168, Note_off_c, 2, 49, 0
3, 483168, Note_off_c, 2, 53, 0
3, 483168, Note_off_c, 2, 58, 0
3, 483168, Note_off_c, 2, 61, 0
3, 483168, Note_off_c, 2, 65, 0
3, 483168, Note_off_c, 2, 70, 0
3, 483168, Note_off_c, 2, 73, 0
3, 483168, Note_off_c, 2, 77, 0
3, 483264, Note_on_c, 2, 77, 5
3, 483264, Note_on_c, 2, 73, 5
3, 483264, Note_on_c, 2, 70, 5
3, 483264, Note_on_c, 2, 65, 5
3, 483264, Note_on_c, 2, 61, 5
3, 483264, Note_on_c, 2, 58, 5
3, 483264, Note_on_c, 2, 53, 5
3, 483264, Note_on_c, 2, 49, 5
3, 483264, Note_on_c, 2, 46, 5
3, 483264, Note_on_c, 2, 41, 5
3, 483264, Note_on_c, 2, 37, 5
3, 483264, Note_on_c, 2, 34, 5
3, 483264, Note_on_c, 2, 89, 5
3, 483264, Note_on_c, 2, 85, 5
3, 483264, Note_on_c, 2, 82, 5
3, 483264, Note_on_c, 2, 94, 5
3, 483264, Note_on_c, 2, 29, 5
3, 483264, Note_on_c, 2, 25, 5
3, 483360, Note_off_c, 2, 25, 0
3, 483360, Note_off_c, 2, 29, 0
3, 483360, Note_off_c, 2, 94, 0
3, 483360, Note_off_c, 2, 82, 0
3, 483360, Note_off_c, 2, 85, 0
3, 483360, Note_off_c, 2, 89, 0
3, 483360, Note_off_c, 2, 34, 0
3, 483360, Note_off_c, 2, 37, 0
3, 483360, Note_off_c, 2, 41, 0
3, 483360, Note_off_c, 2, 46, 0
3, 483360, Note_off_c, 2, 49, 0
3, 483360, Note_off_c, 2, 53, 0
3, 483360, Note_off_c, 2, 58, 0
3, 483360, Note_off_c, 2, 61, 0
3, 483360, Note_off_c, 2, 65, 0
3, 483360, Note_off_c, 2, 70, 0
3, 483360, Note_off_c, 2, 73, 0
3, 483360, Note_off_c, 2, 77, 0
3, 483456, Note_on_c, 2, 77, 5
3, 483456, Note_on_c, 2, 73, 5
3, 483456, Note_on_c, 2, 70, 5
3, 483456, Note_on_c, 2, 65, 5
3, 483456, Note_on_c, 2, 61, 5
3, 483456, Note_on_c, 2, 58, 5
3, 483456, Note_on_c, 2, 53, 5
3, 483456, Note_on_c, 2, 49, 5
3, 483456, Note_on_c, 2, 46, 5
3, 483456, Note_on_c, 2, 41, 5
3, 483456, Note_on_c, 2, 37, 5
3, 483456, Note_on_c, 2, 34, 5
3, 483456, Note_on_c, 2, 89, 5
3, 483456, Note_on_c, 2, 85, 5
3, 483456, Note_on_c, 2, 82, 5
3, 483456, Note_on_c, 2, 94, 5
3, 483456, Note_on_c, 2, 29, 5
3, 483456, Note_on_c, 2, 25, 5
3, 483552, Note_off_c, 2, 25, 0
3, 483552, Note_off_c, 2, 29, 0
3, 483552, Note_off_c, 2, 94, 0
3, 483552, Note_off_c, 2, 82, 0
3, 483552, Note_off_c, 2, 85, 0
3, 483552, Note_off_c, 2, 89, 0
3, 483552, Note_off_c, 2, 34, 0
3, 483552, Note_off_c, 2, 37, 0
3, 483552, Note_off_c, 2, 41, 0
3, 483552, Note_off_c, 2, 46, 0
3, 483552, Note_off_c, 2, 49, 0
3, 483552, Note_off_c, 2, 53, 0
3, 483552, Note_off_c, 2, 58, 0
3, 483552, Note_off_c, 2, 61, 0
3, 483552, Note_off_c, 2, 65, 0
3, 483552, Note_off_c, 2, 70, 0
3, 483552, Note_off_c, 2, 73, 0
3, 483552, Note_off_c, 2, 77, 0
3, 483648, Note_on_c, 2, 77, 5
3, 483648, Note_on_c, 2, 73, 5
3, 483648, Note_on_c, 2, 70, 5
3, 483648, Note_on_c, 2, 65, 5
3, 483648, Note_on_c, 2, 61, 5
3, 483648, Note_on_c, 2, 58, 5
3, 483648, Note_on_c, 2, 53, 5
3, 483648, Note_on_c, 2, 49, 5
3, 483648, Note_on_c, 2, 46, 5
3, 483648, Note_on_c, 2, 41, 5
3, 483648, Note_on_c, 2, 37, 5
3, 483648, Note_on_c, 2, 34, 5
3, 483648, Note_on_c, 2, 89, 5
3, 483648, Note_on_c, 2, 85, 5
3, 483648, Note_on_c, 2, 82, 5
3, 483648, Note_on_c, 2, 94, 5
3, 483648, Note_on_c, 2, 29, 5
3, 483648, Note_on_c, 2, 25, 5
3, 483744, Note_off_c, 2, 25, 0
3, 483744, Note_off_c, 2, 29, 0
3, 483744, Note_off_c, 2, 94, 0
3, 483744, Note_off_c, 2, 82, 0
3, 483744, Note_off_c, 2, 85, 0
3, 483744, Note_off_c, 2, 89, 0
3, 483744, Note_off_c, 2, 34, 0
3, 483744, Note_off_c, 2, 37, 0
3, 483744, Note_off_c, 2, 41, 0
3, 483744, Note_off_c, 2, 46, 0
3, 483744, Note_off_c, 2, 49, 0
3, 483744, Note_off_c, 2, 53, 0
3, 483744, Note_off_c, 2, 58, 0
3, 483744, Note_off_c, 2, 61, 0
3, 483744, Note_off_c, 2, 65, 0
3, 483744, Note_off_c, 2, 70, 0
3, 483744, Note_off_c, 2, 73, 0
3, 483744, Note_off_c, 2, 77, 0
3, 483840, Note_on_c, 2, 77, 5
3, 483840, Note_on_c, 2, 73, 5
3, 483840, Note_on_c, 2, 70, 5
3, 483840, Note_on_c, 2, 65, 5
3, 483840, Note_on_c, 2, 61, 5
3, 483840, Note_on_c, 2, 58, 5
3, 483840, Note_on_c, 2, 53, 5
3, 483840, Note_on_c, 2, 49, 5
3, 483840, Note_on_c, 2, 46, 5
3, 483840, Note_on_c, 2, 41, 5
3, 483840, Note_on_c, 2, 37, 5
3, 483840, Note_on_c, 2, 34, 5
3, 483840, Note_on_c, 2, 89, 5
3, 483840, Note_on_c, 2, 85, 5
3, 483840, Note_on_c, 2, 82, 5
3, 483840, Note_on_c, 2, 94, 5
3, 483840, Note_on_c, 2, 29, 5
3, 483840, Note_on_c, 2, 25, 5
3, 483936, Note_off_c, 2, 25, 0
3, 483936, Note_off_c, 2, 29, 0
3, 483936, Note_off_c, 2, 94, 0
3, 483936, Note_off_c, 2, 82, 0
3, 483936, Note_off_c, 2, 85, 0
3, 483936, Note_off_c, 2, 89, 0
3, 483936, Note_off_c, 2, 34, 0
3, 483936, Note_off_c, 2, 37, 0
3, 483936, Note_off_c, 2, 41, 0
3, 483936, Note_off_c, 2, 46, 0
3, 483936, Note_off_c, 2, 49, 0
3, 483936, Note_off_c, 2, 53, 0
3, 483936, Note_off_c, 2, 58, 0
3, 483936, Note_off_c, 2, 61, 0
3, 483936, Note_off_c, 2, 65, 0
3, 483936, Note_off_c, 2, 70, 0
3, 483936, Note_off_c, 2, 73, 0
3, 483936, Note_off_c, 2, 77, 0
3, 484032, Note_on_c, 2, 77, 5
3, 484032, Note_on_c, 2, 73, 5
3, 484032, Note_on_c, 2, 70, 5
3, 484032, Note_on_c, 2, 65, 5
3, 484032, Note_on_c, 2, 61, 5
3, 484032, Note_on_c, 2, 58, 5
3, 484032, Note_on_c, 2, 53, 5
3, 484032, Note_on_c, 2, 49, 5
3, 484032, Note_on_c, 2, 46, 5
3, 484032, Note_on_c, 2, 41, 5
3, 484032, Note_on_c, 2, 37, 5
3, 484032, Note_on_c, 2, 34, 5
3, 484032, Note_on_c, 2, 89, 5
3, 484032, Note_on_c, 2, 85, 5
3, 484032, Note_on_c, 2, 82, 5
3, 484032, Note_on_c, 2, 94, 5
3, 484032, Note_on_c, 2, 29, 5
3, 484032, Note_on_c, 2, 25, 5
3, 484128, Note_off_c, 2, 25, 0
3, 484128, Note_off_c, 2, 29, 0
3, 484128, Note_off_c, 2, 94, 0
3, 484128, Note_off_c, 2, 82, 0
3, 484128, Note_off_c, 2, 85, 0
3, 484128, Note_off_c, 2, 89, 0
3, 484128, Note_off_c, 2, 34, 0
3, 484128, Note_off_c, 2, 37, 0
3, 484128, Note_off_c, 2, 41, 0
3, 484128, Note_off_c, 2, 46, 0
3, 484128, Note_off_c, 2, 49, 0
3, 484128, Note_off_c, 2, 53, 0
3, 484128, Note_off_c, 2, 58, 0
3, 484128, Note_off_c, 2, 61, 0
3, 484128, Note_off_c, 2, 65, 0
3, 484128, Note_off_c, 2, 70, 0
3, 484128, Note_off_c, 2, 73, 0
3, 484128, Note_off_c, 2, 77, 0
3, 484224, Note_on_c, 2, 77, 5
3, 484224, Note_on_c, 2, 73, 5
3, 484224, Note_on_c, 2, 70, 5
3, 484224, Note_on_c, 2, 65, 5
3, 484224, Note_on_c, 2, 61, 5
3, 484224, Note_on_c, 2, 58, 5
3, 484224, Note_on_c, 2, 53, 5
3, 484224, Note_on_c, 2, 49, 5
3, 484224, Note_on_c, 2, 46, 5
3, 484224, Note_on_c, 2, 41, 5
3, 484224, Note_on_c, 2, 37, 5
3, 484224, Note_on_c, 2, 34, 5
3, 484224, Note_on_c, 2, 89, 5
3, 484224, Note_on_c, 2, 85, 5
3, 484224, Note_on_c, 2, 82, 5
3, 484224, Note_on_c, 2, 94, 5
3, 484224, Note_on_c, 2, 29, 5
3, 484224, Note_on_c, 2, 25, 5
3, 484320, Note_off_c, 2, 25, 0
3, 484320, Note_off_c, 2, 29, 0
3, 484320, Note_off_c, 2, 94, 0
3, 484320, Note_off_c, 2, 82, 0
3, 484320, Note_off_c, 2, 85, 0
3, 484320, Note_off_c, 2, 89, 0
3, 484320, Note_off_c, 2, 34, 0
3, 484320, Note_off_c, 2, 37, 0
3, 484320, Note_off_c, 2, 41, 0
3, 484320, Note_off_c, 2, 46, 0
3, 484320, Note_off_c, 2, 49, 0
3, 484320, Note_off_c, 2, 53, 0
3, 484320, Note_off_c, 2, 58, 0
3, 484320, Note_off_c, 2, 61, 0
3, 484320, Note_off_c, 2, 65, 0
3, 484320, Note_off_c, 2, 70, 0
3, 484320, Note_off_c, 2, 73, 0
3, 484320, Note_off_c, 2, 77, 0
3, 484416, Note_on_c, 2, 77, 5
3, 484416, Note_on_c, 2, 73, 5
3, 484416, Note_on_c, 2, 70, 5
3, 484416, Note_on_c, 2, 65, 5
3, 484416, Note_on_c, 2, 61, 5
3, 484416, Note_on_c, 2, 58, 5
3, 484416, Note_on_c, 2, 53, 5
3, 484416, Note_on_c, 2, 49, 5
3, 484416, Note_on_c, 2, 46, 5
3, 484416, Note_on_c, 2, 41, 5
3, 484416, Note_on_c, 2, 37, 5
3, 484416, Note_on_c, 2, 34, 5
3, 484416, Note_on_c, 2, 89, 5
3, 484416, Note_on_c, 2, 85, 5
3, 484416, Note_on_c, 2, 82, 5
3, 484416, Note_on_c, 2, 94, 5
3, 484416, Note_on_c, 2, 29, 5
3, 484416, Note_on_c, 2, 25, 5
3, 484512, Note_off_c, 2, 25, 0
3, 484512, Note_off_c, 2, 29, 0
3, 484512, Note_off_c, 2, 94, 0
3, 484512, Note_off_c, 2, 82, 0
3, 484512, Note_off_c, 2, 85, 0
3, 484512, Note_off_c, 2, 89, 0
3, 484512, Note_off_c, 2, 34, 0
3, 484512, Note_off_c, 2, 37, 0
3, 484512, Note_off_c, 2, 41, 0
3, 484512, Note_off_c, 2, 46, 0
3, 484512, Note_off_c, 2, 49, 0
3, 484512, Note_off_c, 2, 53, 0
3, 484512, Note_off_c, 2, 58, 0
3, 484512, Note_off_c, 2, 61, 0
3, 484512, Note_off_c, 2, 65, 0
3, 484512, Note_off_c, 2, 70, 0
3, 484512, Note_off_c, 2, 73, 0
3, 484512, Note_off_c, 2, 77, 0
3, 484608, Note_on_c, 2, 77, 5
3, 484608, Note_on_c, 2, 73, 5
3, 484608, Note_on_c, 2, 70, 5
3, 484608, Note_on_c, 2, 65, 5
3, 484608, Note_on_c, 2, 61, 5
3, 484608, Note_on_c, 2, 58, 5
3, 484608, Note_on_c, 2, 53, 5
3, 484608, Note_on_c, 2, 49, 5
3, 484608, Note_on_c, 2, 46, 5
3, 484608, Note_on_c, 2, 41, 5
3, 484608, Note_on_c, 2, 37, 5
3, 484608, Note_on_c, 2, 34, 5
3, 484608, Note_on_c, 2, 89, 5
3, 484608, Note_on_c, 2, 85, 5
3, 484608, Note_on_c, 2, 82, 5
3, 484608, Note_on_c, 2, 94, 5
3, 484608, Note_on_c, 2, 29, 5
3, 484608, Note_on_c, 2, 25, 5
3, 484704, Note_off_c, 2, 25, 0
3, 484704, Note_off_c, 2, 29, 0
3, 484704, Note_off_c, 2, 94, 0
3, 484704, Note_off_c, 2, 82, 0
3, 484704, Note_off_c, 2, 85, 0
3, 484704, Note_off_c, 2, 89, 0
3, 484704, Note_off_c, 2, 34, 0
3, 484704, Note_off_c, 2, 37, 0
3, 484704, Note_off_c, 2, 41, 0
3, 484704, Note_off_c, 2, 46, 0
3, 484704, Note_off_c, 2, 49, 0
3, 484704, Note_off_c, 2, 53, 0
3, 484704, Note_off_c, 2, 58, 0
3, 484704, Note_off_c, 2, 61, 0
3, 484704, Note_off_c, 2, 65, 0
3, 484704, Note_off_c, 2, 70, 0
3, 484704, Note_off_c, 2, 73, 0
3, 484704, Note_off_c, 2, 77, 0
3, 484800, Note_on_c, 2, 77, 5
3, 484800, Note_on_c, 2, 73, 5
3, 484800, Note_on_c, 2, 70, 5
3, 484800, Note_on_c, 2, 65, 5
3, 484800, Note_on_c, 2, 61, 5
3, 484800, Note_on_c, 2, 58, 5
3, 484800, Note_on_c, 2, 53, 5
3, 484800, Note_on_c, 2, 49, 5
3, 484800, Note_on_c, 2, 46, 5
3, 484800, Note_on_c, 2, 41, 5
3, 484800, Note_on_c, 2, 37, 5
3, 484800, Note_on_c, 2, 34, 5
3, 484800, Note_on_c, 2, 89, 5
3, 484800, Note_on_c, 2, 85, 5
3, 484800, Note_on_c, 2, 82, 5
3, 484800, Note_on_c, 2, 94, 5
3, 484800, Note_on_c, 2, 29, 5
3, 484800, Note_on_c, 2, 25, 5
3, 484896, Note_off_c, 2, 25, 0
3, 484896, Note_off_c, 2, 29, 0
3, 484896, Note_off_c, 2, 94, 0
3, 484896, Note_off_c, 2, 82, 0
3, 484896, Note_off_c, 2, 85, 0
3, 484896, Note_off_c, 2, 89, 0
3, 484896, Note_off_c, 2, 34, 0
3, 484896, Note_off_c, 2, 37, 0
3, 484896, Note_off_c, 2, 41, 0
3, 484896, Note_off_c, 2, 46, 0
3, 484896, Note_off_c, 2, 49, 0
3, 484896, Note_off_c, 2, 53, 0
3, 484896, Note_off_c, 2, 58, 0
3, 484896, Note_off_c, 2, 61, 0
3, 484896, Note_off_c, 2, 65, 0
3, 484896, Note_off_c, 2, 70, 0
3, 484896, Note_off_c, 2, 73, 0
3, 484896, Note_off_c, 2, 77, 0
3, 484992, Note_on_c, 2, 77, 5
3, 484992, Note_on_c, 2, 73, 5
3, 484992, Note_on_c, 2, 70, 5
3, 484992, Note_on_c, 2, 65, 5
3, 484992, Note_on_c, 2, 61, 5
3, 484992, Note_on_c, 2, 58, 5
3, 484992, Note_on_c, 2, 53, 5
3, 484992, Note_on_c, 2, 49, 5
3, 484992, Note_on_c, 2, 46, 5
3, 484992, Note_on_c, 2, 41, 5
3, 484992, Note_on_c, 2, 37, 5
3, 484992, Note_on_c, 2, 34, 5
3, 484992, Note_on_c, 2, 89, 5
3, 484992, Note_on_c, 2, 85, 5
3, 484992, Note_on_c, 2, 82, 5
3, 484992, Note_on_c, 2, 94, 5
3, 484992, Note_on_c, 2, 29, 5
3, 484992, Note_on_c, 2, 25, 5
3, 485088, Note_off_c, 2, 25, 0
3, 485088, Note_off_c, 2, 29, 0
3, 485088, Note_off_c, 2, 94, 0
3, 485088, Note_off_c, 2, 82, 0
3, 485088, Note_off_c, 2, 85, 0
3, 485088, Note_off_c, 2, 89, 0
3, 485088, Note_off_c, 2, 34, 0
3, 485088, Note_off_c, 2, 37, 0
3, 485088, Note_off_c, 2, 41, 0
3, 485088, Note_off_c, 2, 46, 0
3, 485088, Note_off_c, 2, 49, 0
3, 485088, Note_off_c, 2, 53, 0
3, 485088, Note_off_c, 2, 58, 0
3, 485088, Note_off_c, 2, 61, 0
3, 485088, Note_off_c, 2, 65, 0
3, 485088, Note_off_c, 2, 70, 0
3, 485088, Note_off_c, 2, 73, 0
3, 485088, Note_off_c, 2, 77, 0
3, 485184, Note_on_c, 2, 77, 5
3, 485184, Note_on_c, 2, 73, 5
3, 485184, Note_on_c, 2, 70, 5
3, 485184, Note_on_c, 2, 65, 5
3, 485184, Note_on_c, 2, 61, 5
3, 485184, Note_on_c, 2, 58, 5
3, 485184, Note_on_c, 2, 53, 5
3, 485184, Note_on_c, 2, 49, 5
3, 485184, Note_on_c, 2, 46, 5
3, 485184, Note_on_c, 2, 41, 5
3, 485184, Note_on_c, 2, 37, 5
3, 485184, Note_on_c, 2, 34, 5
3, 485184, Note_on_c, 2, 89, 5
3, 485184, Note_on_c, 2, 85, 5
3, 485184, Note_on_c, 2, 82, 5
3, 485184, Note_on_c, 2, 94, 5
3, 485184, Note_on_c, 2, 29, 5
3, 485184, Note_on_c, 2, 25, 5
3, 485280, Note_off_c, 2, 25, 0
3, 485280, Note_off_c, 2, 29, 0
3, 485280, Note_off_c, 2, 94, 0
3, 485280, Note_off_c, 2, 82, 0
3, 485280, Note_off_c, 2, 85, 0
3, 485280, Note_off_c, 2, 89, 0
3, 485280, Note_off_c, 2, 34, 0
3, 485280, Note_off_c, 2, 37, 0
3, 485280, Note_off_c, 2, 41, 0
3, 485280, Note_off_c, 2, 46, 0
3, 485280, Note_off_c, 2, 49, 0
3, 485280, Note_off_c, 2, 53, 0
3, 485280, Note_off_c, 2, 58, 0
3, 485280, Note_off_c, 2, 61, 0
3, 485280, Note_off_c, 2, 65, 0
3, 485280, Note_off_c, 2, 70, 0
3, 485280, Note_off_c, 2, 73, 0
3, 485280, Note_off_c, 2, 77, 0
3, 485376, Note_on_c, 2, 77, 5
3, 485376, Note_on_c, 2, 73, 5
3, 485376, Note_on_c, 2, 70, 5
3, 485376, Note_on_c, 2, 65, 5
3, 485376, Note_on_c, 2, 61, 5
3, 485376, Note_on_c, 2, 58, 5
3, 485376, Note_on_c, 2, 53, 5
3, 485376, Note_on_c, 2, 49, 5
3, 485376, Note_on_c, 2, 46, 5
3, 485376, Note_on_c, 2, 41, 5
3, 485376, Note_on_c, 2, 37, 5
3, 485376, Note_on_c, 2, 34, 5
3, 485376, Note_on_c, 2, 89, 5
3, 485376, Note_on_c, 2, 85, 5
3, 485376, Note_on_c, 2, 82, 5
3, 485376, Note_on_c, 2, 94, 5
3, 485376, Note_on_c, 2, 29, 5
3, 485376, Note_on_c, 2, 25, 5
3, 485472, Note_off_c, 2, 25, 0
3, 485472, Note_off_c, 2, 29, 0
3, 485472, Note_off_c, 2, 94, 0
3, 485472, Note_off_c, 2, 82, 0
3, 485472, Note_off_c, 2, 85, 0
3, 485472, Note_off_c, 2, 89, 0
3, 485472, Note_off_c, 2, 34, 0
3, 485472, Note_off_c, 2, 37, 0
3, 485472, Note_off_c, 2, 41, 0
3, 485472, Note_off_c, 2, 46, 0
3, 485472, Note_off_c, 2, 49, 0
3, 485472, Note_off_c, 2, 53, 0
3, 485472, Note_off_c, 2, 58, 0
3, 485472, Note_off_c, 2, 61, 0
3, 485472, Note_off_c, 2, 65, 0
3, 485472, Note_off_c, 2, 70, 0
3, 485472, Note_off_c, 2, 73, 0
3, 485472, Note_off_c, 2, 77, 0
3, 485568, Note_on_c, 2, 77, 5
3, 485568, Note_on_c, 2, 73, 5
3, 485568, Note_on_c, 2, 70, 5
3, 485568, Note_on_c, 2, 65, 5
3, 485568, Note_on_c, 2, 61, 5
3, 485568, Note_on_c, 2, 58, 5
3, 485568, Note_on_c, 2, 53, 5
3, 485568, Note_on_c, 2, 49, 5
3, 485568, Note_on_c, 2, 46, 5
3, 485568, Note_on_c, 2, 41, 5
3, 485568, Note_on_c, 2, 37, 5
3, 485568, Note_on_c, 2, 34, 5
3, 485568, Note_on_c, 2, 89, 5
3, 485568, Note_on_c, 2, 85, 5
3, 485568, Note_on_c, 2, 82, 5
3, 485568, Note_on_c, 2, 94, 5
3, 485568, Note_on_c, 2, 29, 5
3, 485568, Note_on_c, 2, 25, 5
3, 485664, Note_off_c, 2, 25, 0
3, 485664, Note_off_c, 2, 29, 0
3, 485664, Note_off_c, 2, 94, 0
3, 485664, Note_off_c, 2, 82, 0
3, 485664, Note_off_c, 2, 85, 0
3, 485664, Note_off_c, 2, 89, 0
3, 485664, Note_off_c, 2, 34, 0
3, 485664, Note_off_c, 2, 37, 0
3, 485664, Note_off_c, 2, 41, 0
3, 485664, Note_off_c, 2, 46, 0
3, 485664, Note_off_c, 2, 49, 0
3, 485664, Note_off_c, 2, 53, 0
3, 485664, Note_off_c, 2, 58, 0
3, 485664, Note_off_c, 2, 61, 0
3, 485664, Note_off_c, 2, 65, 0
3, 485664, Note_off_c, 2, 70, 0
3, 485664, Note_off_c, 2, 73, 0
3, 485664, Note_off_c, 2, 77, 0
3, 485760, Note_on_c, 2, 77, 5
3, 485760, Note_on_c, 2, 73, 5
3, 485760, Note_on_c, 2, 70, 5
3, 485760, Note_on_c, 2, 65, 5
3, 485760, Note_on_c, 2, 61, 5
3, 485760, Note_on_c, 2, 58, 5
3, 485760, Note_on_c, 2, 53, 5
3, 485760, Note_on_c, 2, 49, 5
3, 485760, Note_on_c, 2, 46, 5
3, 485760, Note_on_c, 2, 41, 5
3, 485760, Note_on_c, 2, 37, 5
3, 485760, Note_on_c, 2, 34, 5
3, 485760, Note_on_c, 2, 89, 5
3, 485760, Note_on_c, 2, 85, 5
3, 485760, Note_on_c, 2, 82, 5
3, 485760, Note_on_c, 2, 94, 5
3, 485760, Note_on_c, 2, 29, 5
3, 485760, Note_on_c, 2, 25, 5
3, 485856, Note_off_c, 2, 25, 0
3, 485856, Note_off_c, 2, 29, 0
3, 485856, Note_off_c, 2, 94, 0
3, 485856, Note_off_c, 2, 82, 0
3, 485856, Note_off_c, 2, 85, 0
3, 485856, Note_off_c, 2, 89, 0
3, 485856, Note_off_c, 2, 34, 0
3, 485856, Note_off_c, 2, 37, 0
3, 485856, Note_off_c, 2, 41, 0
3, 485856, Note_off_c, 2, 46, 0
3, 485856, Note_off_c, 2, 49, 0
3, 485856, Note_off_c, 2, 53, 0
3, 485856, Note_off_c, 2, 58, 0
3, 485856, Note_off_c, 2, 61, 0
3, 485856, Note_off_c, 2, 65, 0
3, 485856, Note_off_c, 2, 70, 0
3, 485856, Note_off_c, 2, 73, 0
3, 485856, Note_off_c, 2, 77, 0
3, 485952, Note_on_c, 2, 77, 5
3, 485952, Note_on_c, 2, 73, 5
3, 485952, Note_on_c, 2, 70, 5
3, 485952, Note_on_c, 2, 65, 5
3, 485952, Note_on_c, 2, 61, 5
3, 485952, Note_on_c, 2, 58, 5
3, 485952, Note_on_c, 2, 53, 5
3, 485952, Note_on_c, 2, 49, 5
3, 485952, Note_on_c, 2, 46, 5
3, 485952, Note_on_c, 2, 41, 5
3, 485952, Note_on_c, 2, 37, 5
3, 485952, Note_on_c, 2, 34, 5
3, 485952, Note_on_c, 2, 89, 5
3, 485952, Note_on_c, 2, 85, 5
3, 485952, Note_on_c, 2, 82, 5
3, 485952, Note_on_c, 2, 94, 5
3, 485952, Note_on_c, 2, 29, 5
3, 485952, Note_on_c, 2, 25, 5
3, 486048, Note_off_c, 2, 25, 0
3, 486048, Note_off_c, 2, 29, 0
3, 486048, Note_off_c, 2, 94, 0
3, 486048, Note_off_c, 2, 82, 0
3, 486048, Note_off_c, 2, 85, 0
3, 486048, Note_off_c, 2, 89, 0
3, 486048, Note_off_c, 2, 34, 0
3, 486048, Note_off_c, 2, 37, 0
3, 486048, Note_off_c, 2, 41, 0
3, 486048, Note_off_c, 2, 46, 0
3, 486048, Note_off_c, 2, 49, 0
3, 486048, Note_off_c, 2, 53, 0
3, 486048, Note_off_c, 2, 58, 0
3, 486048, Note_off_c, 2, 61, 0
3, 486048, Note_off_c, 2, 65, 0
3, 486048, Note_off_c, 2, 70, 0
3, 486048, Note_off_c, 2, 73, 0
3, 486048, Note_off_c, 2, 77, 0
3, 486144, Note_on_c, 2, 77, 5
3, 486144, Note_on_c, 2, 73, 5
3, 486144, Note_on_c, 2, 70, 5
3, 486144, Note_on_c, 2, 65, 5
3, 486144, Note_on_c, 2, 61, 5
3, 486144, Note_on_c, 2, 58, 5
3, 486144, Note_on_c, 2, 53, 5
3, 486144, Note_on_c, 2, 49, 5
3, 486144, Note_on_c, 2, 46, 5
3, 486144, Note_on_c, 2, 41, 5
3, 486144, Note_on_c, 2, 37, 5
3, 486144, Note_on_c, 2, 34, 5
3, 486144, Note_on_c, 2, 89, 5
3, 486144, Note_on_c, 2, 85, 5
3, 486144, Note_on_c, 2, 82, 5
3, 486144, Note_on_c, 2, 94, 5
3, 486144, Note_on_c, 2, 29, 5
3, 486144, Note_on_c, 2, 25, 5
3, 486240, Note_off_c, 2, 25, 0
3, 486240, Note_off_c, 2, 29, 0
3, 486240, Note_off_c, 2, 94, 0
3, 486240, Note_off_c, 2, 82, 0
3, 486240, Note_off_c, 2, 85, 0
3, 486240, Note_off_c, 2, 89, 0
3, 486240, Note_off_c, 2, 34, 0
3, 486240, Note_off_c, 2, 37, 0
3, 486240, Note_off_c, 2, 41, 0
3, 486240, Note_off_c, 2, 46, 0
3, 486240, Note_off_c, 2, 49, 0
3, 486240, Note_off_c, 2, 53, 0
3, 486240, Note_off_c, 2, 58, 0
3, 486240, Note_off_c, 2, 61, 0
3, 486240, Note_off_c, 2, 65, 0
3, 486240, Note_off_c, 2, 70, 0
3, 486240, Note_off_c, 2, 73, 0
3, 486240, Note_off_c, 2, 77, 0
3, 486336, Note_on_c, 2, 77, 5
3, 486336, Note_on_c, 2, 73, 5
3, 486336, Note_on_c, 2, 70, 5
3, 486336, Note_on_c, 2, 65, 5
3, 486336, Note_on_c, 2, 61, 5
3, 486336, Note_on_c, 2, 58, 5
3, 486336, Note_on_c, 2, 53, 5
3, 486336, Note_on_c, 2, 49, 5
3, 486336, Note_on_c, 2, 46, 5
3, 486336, Note_on_c, 2, 41, 5
3, 486336, Note_on_c, 2, 37, 5
3, 486336, Note_on_c, 2, 34, 5
3, 486336, Note_on_c, 2, 89, 5
3, 486336, Note_on_c, 2, 85, 5
3, 486336, Note_on_c, 2, 82, 5
3, 486336, Note_on_c, 2, 94, 5
3, 486336, Note_on_c, 2, 29, 5
3, 486336, Note_on_c, 2, 25, 5
3, 486432, Note_off_c, 2, 25, 0
3, 486432, Note_off_c, 2, 29, 0
3, 486432, Note_off_c, 2, 94, 0
3, 486432, Note_off_c, 2, 82, 0
3, 486432, Note_off_c, 2, 85, 0
3, 486432, Note_off_c, 2, 89, 0
3, 486432, Note_off_c, 2, 34, 0
3, 486432, Note_off_c, 2, 37, 0
3, 486432, Note_off_c, 2, 41, 0
3, 486432, Note_off_c, 2, 46, 0
3, 486432, Note_off_c, 2, 49, 0
3, 486432, Note_off_c, 2, 53, 0
3, 486432, Note_off_c, 2, 58, 0
3, 486432, Note_off_c, 2, 61, 0
3, 486432, Note_off_c, 2, 65, 0
3, 486432, Note_off_c, 2, 70, 0
3, 486432, Note_off_c, 2, 73, 0
3, 486432, Note_off_c, 2, 77, 0
3, 486528, Note_on_c, 2, 77, 5
3, 486528, Note_on_c, 2, 73, 5
3, 486528, Note_on_c, 2, 70, 5
3, 486528, Note_on_c, 2, 65, 5
3, 486528, Note_on_c, 2, 61, 5
3, 486528, Note_on_c, 2, 58, 5
3, 486528, Note_on_c, 2, 53, 5
3, 486528, Note_on_c, 2, 49, 5
3, 486528, Note_on_c, 2, 46, 5
3, 486528, Note_on_c, 2, 41, 5
3, 486528, Note_on_c, 2, 37, 5
3, 486528, Note_on_c, 2, 34, 5
3, 486528, Note_on_c, 2, 89, 5
3, 486528, Note_on_c, 2, 85, 5
3, 486528, Note_on_c, 2, 82, 5
3, 486528, Note_on_c, 2, 94, 5
3, 486528, Note_on_c, 2, 29, 5
3, 486528, Note_on_c, 2, 25, 5
3, 486624, Note_off_c, 2, 25, 0
3, 486624, Note_off_c, 2, 29, 0
3, 486624, Note_off_c, 2, 94, 0
3, 486624, Note_off_c, 2, 82, 0
3, 486624, Note_off_c, 2, 85, 0
3, 486624, Note_off_c, 2, 89, 0
3, 486624, Note_off_c, 2, 34, 0
3, 486624, Note_off_c, 2, 37, 0
3, 486624, Note_off_c, 2, 41, 0
3, 486624, Note_off_c, 2, 46, 0
3, 486624, Note_off_c, 2, 49, 0
3, 486624, Note_off_c, 2, 53, 0
3, 486624, Note_off_c, 2, 58, 0
3, 486624, Note_off_c, 2, 61, 0
3, 486624, Note_off_c, 2, 65, 0
3, 486624, Note_off_c, 2, 70, 0
3, 486624, Note_off_c, 2, 73, 0
3, 486624, Note_off_c, 2, 77, 0
3, 486720, Note_on_c, 2, 77, 5
3, 486720, Note_on_c, 2, 73, 5
3, 486720, Note_on_c, 2, 70, 5
3, 486720, Note_on_c, 2, 65, 5
3, 486720, Note_on_c, 2, 61, 5
3, 486720, Note_on_c, 2, 58, 5
3, 486720, Note_on_c, 2, 53, 5
3, 486720, Note_on_c, 2, 49, 5
3, 486720, Note_on_c, 2, 46, 5
3, 486720, Note_on_c, 2, 41, 5
3, 486720, Note_on_c, 2, 37, 5
3, 486720, Note_on_c, 2, 34, 5
3, 486720, Note_on_c, 2, 89, 5
3, 486720, Note_on_c, 2, 85, 5
3, 486720, Note_on_c, 2, 82, 5
3, 486720, Note_on_c, 2, 94, 5
3, 486720, Note_on_c, 2, 29, 5
3, 486720, Note_on_c, 2, 25, 5
3, 486816, Note_off_c, 2, 25, 0
3, 486816, Note_off_c, 2, 29, 0
3, 486816, Note_off_c, 2, 94, 0
3, 486816, Note_off_c, 2, 82, 0
3, 486816, Note_off_c, 2, 85, 0
3, 486816, Note_off_c, 2, 89, 0
3, 486816, Note_off_c, 2, 34, 0
3, 486816, Note_off_c, 2, 37, 0
3, 486816, Note_off_c, 2, 41, 0
3, 486816, Note_off_c, 2, 46, 0
3, 486816, Note_off_c, 2, 49, 0
3, 486816, Note_off_c, 2, 53, 0
3, 486816, Note_off_c, 2, 58, 0
3, 486816, Note_off_c, 2, 61, 0
3, 486816, Note_off_c, 2, 65, 0
3, 486816, Note_off_c, 2, 70, 0
3, 486816, Note_off_c, 2, 73, 0
3, 486816, Note_off_c, 2, 77, 0
3, 486912, Note_on_c, 2, 77, 5
3, 486912, Note_on_c, 2, 73, 5
3, 486912, Note_on_c, 2, 70, 5
3, 486912, Note_on_c, 2, 65, 5
3, 486912, Note_on_c, 2, 61, 5
3, 486912, Note_on_c, 2, 58, 5
3, 486912, Note_on_c, 2, 53, 5
3, 486912, Note_on_c, 2, 49, 5
3, 486912, Note_on_c, 2, 46, 5
3, 486912, Note_on_c, 2, 41, 5
3, 486912, Note_on_c, 2, 37, 5
3, 486912, Note_on_c, 2, 34, 5
3, 486912, Note_on_c, 2, 89, 5
3, 486912, Note_on_c, 2, 85, 5
3, 486912, Note_on_c, 2, 82, 5
3, 486912, Note_on_c, 2, 94, 5
3, 486912, Note_on_c, 2, 29, 5
3, 486912, Note_on_c, 2, 25, 5
3, 487008, Note_off_c, 2, 25, 0
3, 487008, Note_off_c, 2, 29, 0
3, 487008, Note_off_c, 2, 94, 0
3, 487008, Note_off_c, 2, 82, 0
3, 487008, Note_off_c, 2, 85, 0
3, 487008, Note_off_c, 2, 89, 0
3, 487008, Note_off_c, 2, 34, 0
3, 487008, Note_off_c, 2, 37, 0
3, 487008, Note_off_c, 2, 41, 0
3, 487008, Note_off_c, 2, 46, 0
3, 487008, Note_off_c, 2, 49, 0
3, 487008, Note_off_c, 2, 53, 0
3, 487008, Note_off_c, 2, 58, 0
3, 487008, Note_off_c, 2, 61, 0
3, 487008, Note_off_c, 2, 65, 0
3, 487008, Note_off_c, 2, 70, 0
3, 487008, Note_off_c, 2, 73, 0
3, 487008, Note_off_c, 2, 77, 0
3, 487104, Note_on_c, 2, 77, 5
3, 487104, Note_on_c, 2, 73, 5
3, 487104, Note_on_c, 2, 70, 5
3, 487104, Note_on_c, 2, 65, 5
3, 487104, Note_on_c, 2, 61, 5
3, 487104, Note_on_c, 2, 58, 5
3, 487104, Note_on_c, 2, 53, 5
3, 487104, Note_on_c, 2, 49, 5
3, 487104, Note_on_c, 2, 46, 5
3, 487104, Note_on_c, 2, 41, 5
3, 487104, Note_on_c, 2, 37, 5
3, 487104, Note_on_c, 2, 34, 5
3, 487104, Note_on_c, 2, 89, 5
3, 487104, Note_on_c, 2, 85, 5
3, 487104, Note_on_c, 2, 82, 5
3, 487104, Note_on_c, 2, 94, 5
3, 487104, Note_on_c, 2, 29, 5
3, 487104, Note_on_c, 2, 25, 5
3, 487200, Note_off_c, 2, 25, 0
3, 487200, Note_off_c, 2, 29, 0
3, 487200, Note_off_c, 2, 94, 0
3, 487200, Note_off_c, 2, 82, 0
3, 487200, Note_off_c, 2, 85, 0
3, 487200, Note_off_c, 2, 89, 0
3, 487200, Note_off_c, 2, 34, 0
3, 487200, Note_off_c, 2, 37, 0
3, 487200, Note_off_c, 2, 41, 0
3, 487200, Note_off_c, 2, 46, 0
3, 487200, Note_off_c, 2, 49, 0
3, 487200, Note_off_c, 2, 53, 0
3, 487200, Note_off_c, 2, 58, 0
3, 487200, Note_off_c, 2, 61, 0
3, 487200, Note_off_c, 2, 65, 0
3, 487200, Note_off_c, 2, 70, 0
3, 487200, Note_off_c, 2, 73, 0
3, 487200, Note_off_c, 2, 77, 0
3, 487296, Note_on_c, 2, 77, 5
3, 487296, Note_on_c, 2, 73, 5
3, 487296, Note_on_c, 2, 70, 5
3, 487296, Note_on_c, 2, 65, 5
3, 487296, Note_on_c, 2, 61, 5
3, 487296, Note_on_c, 2, 58, 5
3, 487296, Note_on_c, 2, 53, 5
3, 487296, Note_on_c, 2, 49, 5
3, 487296, Note_on_c, 2, 46, 5
3, 487296, Note_on_c, 2, 41, 5
3, 487296, Note_on_c, 2, 37, 5
3, 487296, Note_on_c, 2, 34, 5
3, 487296, Note_on_c, 2, 89, 5
3, 487296, Note_on_c, 2, 85, 5
3, 487296, Note_on_c, 2, 82, 5
3, 487296, Note_on_c, 2, 94, 5
3, 487296, Note_on_c, 2, 29, 5
3, 487296, Note_on_c, 2, 25, 5
3, 487392, Note_off_c, 2, 25, 0
3, 487392, Note_off_c, 2, 29, 0
3, 487392, Note_off_c, 2, 94, 0
3, 487392, Note_off_c, 2, 82, 0
3, 487392, Note_off_c, 2, 85, 0
3, 487392, Note_off_c, 2, 89, 0
3, 487392, Note_off_c, 2, 34, 0
3, 487392, Note_off_c, 2, 37, 0
3, 487392, Note_off_c, 2, 41, 0
3, 487392, Note_off_c, 2, 46, 0
3, 487392, Note_off_c, 2, 49, 0
3, 487392, Note_off_c, 2, 53, 0
3, 487392, Note_off_c, 2, 58, 0
3, 487392, Note_off_c, 2, 61, 0
3, 487392, Note_off_c, 2, 65, 0
3, 487392, Note_off_c, 2, 70, 0
3, 487392, Note_off_c, 2, 73, 0
3, 487392, Note_off_c, 2, 77, 0
3, 487488, Note_on_c, 2, 77, 5
3, 487488, Note_on_c, 2, 73, 5
3, 487488, Note_on_c, 2, 70, 5
3, 487488, Note_on_c, 2, 65, 5
3, 487488, Note_on_c, 2, 61, 5
3, 487488, Note_on_c, 2, 58, 5
3, 487488, Note_on_c, 2, 53, 5
3, 487488, Note_on_c, 2, 49, 5
3, 487488, Note_on_c, 2, 46, 5
3, 487488, Note_on_c, 2, 41, 5
3, 487488, Note_on_c, 2, 37, 5
3, 487488, Note_on_c, 2, 34, 5
3, 487488, Note_on_c, 2, 89, 5
3, 487488, Note_on_c, 2, 85, 5
3, 487488, Note_on_c, 2, 82, 5
3, 487488, Note_on_c, 2, 94, 5
3, 487488, Note_on_c, 2, 29, 5
3, 487488, Note_on_c, 2, 25, 5
3, 487584, Note_off_c, 2, 25, 0
3, 487584, Note_off_c, 2, 29, 0
3, 487584, Note_off_c, 2, 94, 0
3, 487584, Note_off_c, 2, 82, 0
3, 487584, Note_off_c, 2, 85, 0
3, 487584, Note_off_c, 2, 89, 0
3, 487584, Note_off_c, 2, 34, 0
3, 487584, Note_off_c, 2, 37, 0
3, 487584, Note_off_c, 2, 41, 0
3, 487584, Note_off_c, 2, 46, 0
3, 487584, Note_off_c, 2, 49, 0
3, 487584, Note_off_c, 2, 53, 0
3, 487584, Note_off_c, 2, 58, 0
3, 487584, Note_off_c, 2, 61, 0
3, 487584, Note_off_c, 2, 65, 0
3, 487584, Note_off_c, 2, 70, 0
3, 487584, Note_off_c, 2, 73, 0
3, 487584, Note_off_c, 2, 77, 0
3, 487680, Note_on_c, 2, 77, 5
3, 487680, Note_on_c, 2, 73, 5
3, 487680, Note_on_c, 2, 70, 5
3, 487680, Note_on_c, 2, 65, 5
3, 487680, Note_on_c, 2, 61, 5
3, 487680, Note_on_c, 2, 58, 5
3, 487680, Note_on_c, 2, 53, 5
3, 487680, Note_on_c, 2, 49, 5
3, 487680, Note_on_c, 2, 46, 5
3, 487680, Note_on_c, 2, 41, 5
3, 487680, Note_on_c, 2, 37, 5
3, 487680, Note_on_c, 2, 34, 5
3, 487680, Note_on_c, 2, 89, 5
3, 487680, Note_on_c, 2, 85, 5
3, 487680, Note_on_c, 2, 82, 5
3, 487680, Note_on_c, 2, 94, 5
3, 487680, Note_on_c, 2, 29, 5
3, 487680, Note_on_c, 2, 25, 5
3, 487776, Note_off_c, 2, 25, 0
3, 487776, Note_off_c, 2, 29, 0
3, 487776, Note_off_c, 2, 94, 0
3, 487776, Note_off_c, 2, 82, 0
3, 487776, Note_off_c, 2, 85, 0
3, 487776, Note_off_c, 2, 89, 0
3, 487776, Note_off_c, 2, 34, 0
3, 487776, Note_off_c, 2, 37, 0
3, 487776, Note_off_c, 2, 41, 0
3, 487776, Note_off_c, 2, 46, 0
3, 487776, Note_off_c, 2, 49, 0
3, 487776, Note_off_c, 2, 53, 0
3, 487776, Note_off_c, 2, 58, 0
3, 487776, Note_off_c, 2, 61, 0
3, 487776, Note_off_c, 2, 65, 0
3, 487776, Note_off_c, 2, 70, 0
3, 487776, Note_off_c, 2, 73, 0
3, 487776, Note_off_c, 2, 77, 0
3, 487872, Note_on_c, 2, 77, 5
3, 487872, Note_on_c, 2, 73, 5
3, 487872, Note_on_c, 2, 70, 5
3, 487872, Note_on_c, 2, 65, 5
3, 487872, Note_on_c, 2, 61, 5
3, 487872, Note_on_c, 2, 58, 5
3, 487872, Note_on_c, 2, 53, 5
3, 487872, Note_on_c, 2, 49, 5
3, 487872, Note_on_c, 2, 46, 5
3, 487872, Note_on_c, 2, 41, 5
3, 487872, Note_on_c, 2, 37, 5
3, 487872, Note_on_c, 2, 34, 5
3, 487872, Note_on_c, 2, 89, 5
3, 487872, Note_on_c, 2, 85, 5
3, 487872, Note_on_c, 2, 82, 5
3, 487872, Note_on_c, 2, 94, 5
3, 487872, Note_on_c, 2, 29, 5
3, 487872, Note_on_c, 2, 25, 5
3, 487968, Note_off_c, 2, 25, 0
3, 487968, Note_off_c, 2, 29, 0
3, 487968, Note_off_c, 2, 94, 0
3, 487968, Note_off_c, 2, 82, 0
3, 487968, Note_off_c, 2, 85, 0
3, 487968, Note_off_c, 2, 89, 0
3, 487968, Note_off_c, 2, 34, 0
3, 487968, Note_off_c, 2, 37, 0
3, 487968, Note_off_c, 2, 41, 0
3, 487968, Note_off_c, 2, 46, 0
3, 487968, Note_off_c, 2, 49, 0
3, 487968, Note_off_c, 2, 53, 0
3, 487968, Note_off_c, 2, 58, 0
3, 487968, Note_off_c, 2, 61, 0
3, 487968, Note_off_c, 2, 65, 0
3, 487968, Note_off_c, 2, 70, 0
3, 487968, Note_off_c, 2, 73, 0
3, 487968, Note_off_c, 2, 77, 0
3, 488064, Note_on_c, 2, 77, 5
3, 488064, Note_on_c, 2, 73, 5
3, 488064, Note_on_c, 2, 70, 5
3, 488064, Note_on_c, 2, 65, 5
3, 488064, Note_on_c, 2, 61, 5
3, 488064, Note_on_c, 2, 58, 5
3, 488064, Note_on_c, 2, 53, 5
3, 488064, Note_on_c, 2, 49, 5
3, 488064, Note_on_c, 2, 46, 5
3, 488064, Note_on_c, 2, 41, 5
3, 488064, Note_on_c, 2, 37, 5
3, 488064, Note_on_c, 2, 34, 5
3, 488064, Note_on_c, 2, 89, 5
3, 488064, Note_on_c, 2, 85, 5
3, 488064, Note_on_c, 2, 82, 5
3, 488064, Note_on_c, 2, 94, 5
3, 488064, Note_on_c, 2, 29, 5
3, 488064, Note_on_c, 2, 25, 5
3, 488160, Note_off_c, 2, 25, 0
3, 488160, Note_off_c, 2, 29, 0
3, 488160, Note_off_c, 2, 94, 0
3, 488160, Note_off_c, 2, 82, 0
3, 488160, Note_off_c, 2, 85, 0
3, 488160, Note_off_c, 2, 89, 0
3, 488160, Note_off_c, 2, 34, 0
3, 488160, Note_off_c, 2, 37, 0
3, 488160, Note_off_c, 2, 41, 0
3, 488160, Note_off_c, 2, 46, 0
3, 488160, Note_off_c, 2, 49, 0
3, 488160, Note_off_c, 2, 53, 0
3, 488160, Note_off_c, 2, 58, 0
3, 488160, Note_off_c, 2, 61, 0
3, 488160, Note_off_c, 2, 65, 0
3, 488160, Note_off_c, 2, 70, 0
3, 488160, Note_off_c, 2, 73, 0
3, 488160, Note_off_c, 2, 77, 0
3, 488256, Note_on_c, 2, 77, 5
3, 488256, Note_on_c, 2, 73, 5
3, 488256, Note_on_c, 2, 70, 5
3, 488256, Note_on_c, 2, 65, 5
3, 488256, Note_on_c, 2, 61, 5
3, 488256, Note_on_c, 2, 58, 5
3, 488256, Note_on_c, 2, 53, 5
3, 488256, Note_on_c, 2, 49, 5
3, 488256, Note_on_c, 2, 46, 5
3, 488256, Note_on_c, 2, 41, 5
3, 488256, Note_on_c, 2, 37, 5
3, 488256, Note_on_c, 2, 34, 5
3, 488256, Note_on_c, 2, 89, 5
3, 488256, Note_on_c, 2, 85, 5
3, 488256, Note_on_c, 2, 82, 5
3, 488256, Note_on_c, 2, 94, 5
3, 488256, Note_on_c, 2, 29, 5
3, 488256, Note_on_c, 2, 25, 5
3, 488352, Note_off_c, 2, 25, 0
3, 488352, Note_off_c, 2, 29, 0
3, 488352, Note_off_c, 2, 94, 0
3, 488352, Note_off_c, 2, 82, 0
3, 488352, Note_off_c, 2, 85, 0
3, 488352, Note_off_c, 2, 89, 0
3, 488352, Note_off_c, 2, 34, 0
3, 488352, Note_off_c, 2, 37, 0
3, 488352, Note_off_c, 2, 41, 0
3, 488352, Note_off_c, 2, 46, 0
3, 488352, Note_off_c, 2, 49, 0
3, 488352, Note_off_c, 2, 53, 0
3, 488352, Note_off_c, 2, 58, 0
3, 488352, Note_off_c, 2, 61, 0
3, 488352, Note_off_c, 2, 65, 0
3, 488352, Note_off_c, 2, 70, 0
3, 488352, Note_off_c, 2, 73, 0
3, 488352, Note_off_c, 2, 77, 0
3, 488448, Note_on_c, 2, 77, 5
3, 488448, Note_on_c, 2, 73, 5
3, 488448, Note_on_c, 2, 70, 5
3, 488448, Note_on_c, 2, 65, 5
3, 488448, Note_on_c, 2, 61, 5
3, 488448, Note_on_c, 2, 58, 5
3, 488448, Note_on_c, 2, 53, 5
3, 488448, Note_on_c, 2, 49, 5
3, 488448, Note_on_c, 2, 46, 5
3, 488448, Note_on_c, 2, 41, 5
3, 488448, Note_on_c, 2, 37, 5
3, 488448, Note_on_c, 2, 34, 5
3, 488448, Note_on_c, 2, 89, 5
3, 488448, Note_on_c, 2, 85, 5
3, 488448, Note_on_c, 2, 82, 5
3, 488448, Note_on_c, 2, 94, 5
3, 488448, Note_on_c, 2, 29, 5
3, 488448, Note_on_c, 2, 25, 5
3, 488544, Note_off_c, 2, 25, 0
3, 488544, Note_off_c, 2, 29, 0
3, 488544, Note_off_c, 2, 94, 0
3, 488544, Note_off_c, 2, 82, 0
3, 488544, Note_off_c, 2, 85, 0
3, 488544, Note_off_c, 2, 89, 0
3, 488544, Note_off_c, 2, 34, 0
3, 488544, Note_off_c, 2, 37, 0
3, 488544, Note_off_c, 2, 41, 0
3, 488544, Note_off_c, 2, 46, 0
3, 488544, Note_off_c, 2, 49, 0
3, 488544, Note_off_c, 2, 53, 0
3, 488544, Note_off_c, 2, 58, 0
3, 488544, Note_off_c, 2, 61, 0
3, 488544, Note_off_c, 2, 65, 0
3, 488544, Note_off_c, 2, 70, 0
3, 488544, Note_off_c, 2, 73, 0
3, 488544, Note_off_c, 2, 77, 0
3, 488640, Note_on_c, 2, 77, 5
3, 488640, Note_on_c, 2, 73, 5
3, 488640, Note_on_c, 2, 70, 5
3, 488640, Note_on_c, 2, 65, 5
3, 488640, Note_on_c, 2, 61, 5
3, 488640, Note_on_c, 2, 58, 5
3, 488640, Note_on_c, 2, 53, 5
3, 488640, Note_on_c, 2, 49, 5
3, 488640, Note_on_c, 2, 46, 5
3, 488640, Note_on_c, 2, 41, 5
3, 488640, Note_on_c, 2, 37, 5
3, 488640, Note_on_c, 2, 34, 5
3, 488640, Note_on_c, 2, 89, 5
3, 488640, Note_on_c, 2, 85, 5
3, 488640, Note_on_c, 2, 82, 5
3, 488640, Note_on_c, 2, 94, 5
3, 488640, Note_on_c, 2, 29, 5
3, 488640, Note_on_c, 2, 25, 5
3, 488736, Note_off_c, 2, 25, 0
3, 488736, Note_off_c, 2, 29, 0
3, 488736, Note_off_c, 2, 94, 0
3, 488736, Note_off_c, 2, 82, 0
3, 488736, Note_off_c, 2, 85, 0
3, 488736, Note_off_c, 2, 89, 0
3, 488736, Note_off_c, 2, 34, 0
3, 488736, Note_off_c, 2, 37, 0
3, 488736, Note_off_c, 2, 41, 0
3, 488736, Note_off_c, 2, 46, 0
3, 488736, Note_off_c, 2, 49, 0
3, 488736, Note_off_c, 2, 53, 0
3, 488736, Note_off_c, 2, 58, 0
3, 488736, Note_off_c, 2, 61, 0
3, 488736, Note_off_c, 2, 65, 0
3, 488736, Note_off_c, 2, 70, 0
3, 488736, Note_off_c, 2, 73, 0
3, 488736, Note_off_c, 2, 77, 0
3, 488832, Note_on_c, 2, 77, 5
3, 488832, Note_on_c, 2, 73, 5
3, 488832, Note_on_c, 2, 70, 5
3, 488832, Note_on_c, 2, 65, 5
3, 488832, Note_on_c, 2, 61, 5
3, 488832, Note_on_c, 2, 58, 5
3, 488832, Note_on_c, 2, 53, 5
3, 488832, Note_on_c, 2, 49, 5
3, 488832, Note_on_c, 2, 46, 5
3, 488832, Note_on_c, 2, 41, 5
3, 488832, Note_on_c, 2, 37, 5
3, 488832, Note_on_c, 2, 34, 5
3, 488832, Note_on_c, 2, 89, 5
3, 488832, Note_on_c, 2, 85, 5
3, 488832, Note_on_c, 2, 82, 5
3, 488832, Note_on_c, 2, 94, 5
3, 488832, Note_on_c, 2, 29, 5
3, 488832, Note_on_c, 2, 25, 5
3, 488928, Note_off_c, 2, 25, 0
3, 488928, Note_off_c, 2, 29, 0
3, 488928, Note_off_c, 2, 94, 0
3, 488928, Note_off_c, 2, 82, 0
3, 488928, Note_off_c, 2, 85, 0
3, 488928, Note_off_c, 2, 89, 0
3, 488928, Note_off_c, 2, 34, 0
3, 488928, Note_off_c, 2, 37, 0
3, 488928, Note_off_c, 2, 41, 0
3, 488928, Note_off_c, 2, 46, 0
3, 488928, Note_off_c, 2, 49, 0
3, 488928, Note_off_c, 2, 53, 0
3, 488928, Note_off_c, 2, 58, 0
3, 488928, Note_off_c, 2, 61, 0
3, 488928, Note_off_c, 2, 65, 0
3, 488928, Note_off_c, 2, 70, 0
3, 488928, Note_off_c, 2, 73, 0
3, 488928, Note_off_c, 2, 77, 0
3, 489024, Note_on_c, 2, 77, 5
3, 489024, Note_on_c, 2, 73, 5
3, 489024, Note_on_c, 2, 70, 5
3, 489024, Note_on_c, 2, 65, 5
3, 489024, Note_on_c, 2, 61, 5
3, 489024, Note_on_c, 2, 58, 5
3, 489024, Note_on_c, 2, 53, 5
3, 489024, Note_on_c, 2, 49, 5
3, 489024, Note_on_c, 2, 46, 5
3, 489024, Note_on_c, 2, 41, 5
3, 489024, Note_on_c, 2, 37, 5
3, 489024, Note_on_c, 2, 34, 5
3, 489024, Note_on_c, 2, 89, 5
3, 489024, Note_on_c, 2, 85, 5
3, 489024, Note_on_c, 2, 82, 5
3, 489024, Note_on_c, 2, 94, 5
3, 489024, Note_on_c, 2, 29, 5
3, 489024, Note_on_c, 2, 25, 5
3, 489120, Note_off_c, 2, 25, 0
3, 489120, Note_off_c, 2, 29, 0
3, 489120, Note_off_c, 2, 94, 0
3, 489120, Note_off_c, 2, 82, 0
3, 489120, Note_off_c, 2, 85, 0
3, 489120, Note_off_c, 2, 89, 0
3, 489120, Note_off_c, 2, 34, 0
3, 489120, Note_off_c, 2, 37, 0
3, 489120, Note_off_c, 2, 41, 0
3, 489120, Note_off_c, 2, 46, 0
3, 489120, Note_off_c, 2, 49, 0
3, 489120, Note_off_c, 2, 53, 0
3, 489120, Note_off_c, 2, 58, 0
3, 489120, Note_off_c, 2, 61, 0
3, 489120, Note_off_c, 2, 65, 0
3, 489120, Note_off_c, 2, 70, 0
3, 489120, Note_off_c, 2, 73, 0
3, 489120, Note_off_c, 2, 77, 0
3, 489216, Note_on_c, 2, 77, 5
3, 489216, Note_on_c, 2, 73, 5
3, 489216, Note_on_c, 2, 70, 5
3, 489216, Note_on_c, 2, 65, 5
3, 489216, Note_on_c, 2, 61, 5
3, 489216, Note_on_c, 2, 58, 5
3, 489216, Note_on_c, 2, 53, 5
3, 489216, Note_on_c, 2, 49, 5
3, 489216, Note_on_c, 2, 46, 5
3, 489216, Note_on_c, 2, 41, 5
3, 489216, Note_on_c, 2, 37, 5
3, 489216, Note_on_c, 2, 34, 5
3, 489216, Note_on_c, 2, 89, 5
3, 489216, Note_on_c, 2, 85, 5
3, 489216, Note_on_c, 2, 82, 5
3, 489216, Note_on_c, 2, 94, 5
3, 489216, Note_on_c, 2, 29, 5
3, 489216, Note_on_c, 2, 25, 5
3, 489312, Note_off_c, 2, 25, 0
3, 489312, Note_off_c, 2, 29, 0
3, 489312, Note_off_c, 2, 94, 0
3, 489312, Note_off_c, 2, 82, 0
3, 489312, Note_off_c, 2, 85, 0
3, 489312, Note_off_c, 2, 89, 0
3, 489312, Note_off_c, 2, 34, 0
3, 489312, Note_off_c, 2, 37, 0
3, 489312, Note_off_c, 2, 41, 0
3, 489312, Note_off_c, 2, 46, 0
3, 489312, Note_off_c, 2, 49, 0
3, 489312, Note_off_c, 2, 53, 0
3, 489312, Note_off_c, 2, 58, 0
3, 489312, Note_off_c, 2, 61, 0
3, 489312, Note_off_c, 2, 65, 0
3, 489312, Note_off_c, 2, 70, 0
3, 489312, Note_off_c, 2, 73, 0
3, 489312, Note_off_c, 2, 77, 0
3, 489408, Note_on_c, 2, 77, 5
3, 489408, Note_on_c, 2, 73, 5
3, 489408, Note_on_c, 2, 70, 5
3, 489408, Note_on_c, 2, 65, 5
3, 489408, Note_on_c, 2, 61, 5
3, 489408, Note_on_c, 2, 58, 5
3, 489408, Note_on_c, 2, 53, 5
3, 489408, Note_on_c, 2, 49, 5
3, 489408, Note_on_c, 2, 46, 5
3, 489408, Note_on_c, 2, 41, 5
3, 489408, Note_on_c, 2, 37, 5
3, 489408, Note_on_c, 2, 34, 5
3, 489408, Note_on_c, 2, 89, 5
3, 489408, Note_on_c, 2, 85, 5
3, 489408, Note_on_c, 2, 82, 5
3, 489408, Note_on_c, 2, 94, 5
3, 489408, Note_on_c, 2, 29, 5
3, 489408, Note_on_c, 2, 25, 5
3, 489504, Note_off_c, 2, 25, 0
3, 489504, Note_off_c, 2, 29, 0
3, 489504, Note_off_c, 2, 94, 0
3, 489504, Note_off_c, 2, 82, 0
3, 489504, Note_off_c, 2, 85, 0
3, 489504, Note_off_c, 2, 89, 0
3, 489504, Note_off_c, 2, 34, 0
3, 489504, Note_off_c, 2, 37, 0
3, 489504, Note_off_c, 2, 41, 0
3, 489504, Note_off_c, 2, 46, 0
3, 489504, Note_off_c, 2, 49, 0
3, 489504, Note_off_c, 2, 53, 0
3, 489504, Note_off_c, 2, 58, 0
3, 489504, Note_off_c, 2, 61, 0
3, 489504, Note_off_c, 2, 65, 0
3, 489504, Note_off_c, 2, 70, 0
3, 489504, Note_off_c, 2, 73, 0
3, 489504, Note_off_c, 2, 77, 0
3, 489600, Note_on_c, 2, 77, 5
3, 489600, Note_on_c, 2, 73, 5
3, 489600, Note_on_c, 2, 70, 5
3, 489600, Note_on_c, 2, 65, 5
3, 489600, Note_on_c, 2, 61, 5
3, 489600, Note_on_c, 2, 58, 5
3, 489600, Note_on_c, 2, 53, 5
3, 489600, Note_on_c, 2, 49, 5
3, 489600, Note_on_c, 2, 46, 5
3, 489600, Note_on_c, 2, 41, 5
3, 489600, Note_on_c, 2, 37, 5
3, 489600, Note_on_c, 2, 34, 5
3, 489600, Note_on_c, 2, 89, 5
3, 489600, Note_on_c, 2, 85, 5
3, 489600, Note_on_c, 2, 82, 5
3, 489600, Note_on_c, 2, 94, 5
3, 489600, Note_on_c, 2, 29, 5
3, 489600, Note_on_c, 2, 25, 5
3, 489696, Note_off_c, 2, 25, 0
3, 489696, Note_off_c, 2, 29, 0
3, 489696, Note_off_c, 2, 94, 0
3, 489696, Note_off_c, 2, 82, 0
3, 489696, Note_off_c, 2, 85, 0
3, 489696, Note_off_c, 2, 89, 0
3, 489696, Note_off_c, 2, 34, 0
3, 489696, Note_off_c, 2, 37, 0
3, 489696, Note_off_c, 2, 41, 0
3, 489696, Note_off_c, 2, 46, 0
3, 489696, Note_off_c, 2, 49, 0
3, 489696, Note_off_c, 2, 53, 0
3, 489696, Note_off_c, 2, 58, 0
3, 489696, Note_off_c, 2, 61, 0
3, 489696, Note_off_c, 2, 65, 0
3, 489696, Note_off_c, 2, 70, 0
3, 489696, Note_off_c, 2, 73, 0
3, 489696, Note_off_c, 2, 77, 0
3, 489792, Note_on_c, 2, 77, 5
3, 489792, Note_on_c, 2, 73, 5
3, 489792, Note_on_c, 2, 70, 5
3, 489792, Note_on_c, 2, 65, 5
3, 489792, Note_on_c, 2, 61, 5
3, 489792, Note_on_c, 2, 58, 5
3, 489792, Note_on_c, 2, 53, 5
3, 489792, Note_on_c, 2, 49, 5
3, 489792, Note_on_c, 2, 46, 5
3, 489792, Note_on_c, 2, 41, 5
3, 489792, Note_on_c, 2, 37, 5
3, 489792, Note_on_c, 2, 34, 5
3, 489792, Note_on_c, 2, 89, 5
3, 489792, Note_on_c, 2, 85, 5
3, 489792, Note_on_c, 2, 82, 5
3, 489792, Note_on_c, 2, 94, 5
3, 489792, Note_on_c, 2, 29, 5
3, 489792, Note_on_c, 2, 25, 5
3, 489888, Note_off_c, 2, 25, 0
3, 489888, Note_off_c, 2, 29, 0
3, 489888, Note_off_c, 2, 94, 0
3, 489888, Note_off_c, 2, 82, 0
3, 489888, Note_off_c, 2, 85, 0
3, 489888, Note_off_c, 2, 89, 0
3, 489888, Note_off_c, 2, 34, 0
3, 489888, Note_off_c, 2, 37, 0
3, 489888, Note_off_c, 2, 41, 0
3, 489888, Note_off_c, 2, 46, 0
3, 489888, Note_off_c, 2, 49, 0
3, 489888, Note_off_c, 2, 53, 0
3, 489888, Note_off_c, 2, 58, 0
3, 489888, Note_off_c, 2, 61, 0
3, 489888, Note_off_c, 2, 65, 0
3, 489888, Note_off_c, 2, 70, 0
3, 489888, Note_off_c, 2, 73, 0
3, 489888, Note_off_c, 2, 77, 0
3, 489984, Note_on_c, 2, 77, 5
3, 489984, Note_on_c, 2, 73, 5
3, 489984, Note_on_c, 2, 70, 5
3, 489984, Note_on_c, 2, 65, 5
3, 489984, Note_on_c, 2, 61, 5
3, 489984, Note_on_c, 2, 58, 5
3, 489984, Note_on_c, 2, 53, 5
3, 489984, Note_on_c, 2, 49, 5
3, 489984, Note_on_c, 2, 46, 5
3, 489984, Note_on_c, 2, 41, 5
3, 489984, Note_on_c, 2, 37, 5
3, 489984, Note_on_c, 2, 34, 5
3, 489984, Note_on_c, 2, 89, 5
3, 489984, Note_on_c, 2, 85, 5
3, 489984, Note_on_c, 2, 82, 5
3, 489984, Note_on_c, 2, 94, 5
3, 489984, Note_on_c, 2, 29, 5
3, 489984, Note_on_c, 2, 25, 5
3, 490080, Note_off_c, 2, 25, 0
3, 490080, Note_off_c, 2, 29, 0
3, 490080, Note_off_c, 2, 94, 0
3, 490080, Note_off_c, 2, 82, 0
3, 490080, Note_off_c, 2, 85, 0
3, 490080, Note_off_c, 2, 89, 0
3, 490080, Note_off_c, 2, 34, 0
3, 490080, Note_off_c, 2, 37, 0
3, 490080, Note_off_c, 2, 41, 0
3, 490080, Note_off_c, 2, 46, 0
3, 490080, Note_off_c, 2, 49, 0
3, 490080, Note_off_c, 2, 53, 0
3, 490080, Note_off_c, 2, 58, 0
3, 490080, Note_off_c, 2, 61, 0
3, 490080, Note_off_c, 2, 65, 0
3, 490080, Note_off_c, 2, 70, 0
3, 490080, Note_off_c, 2, 73, 0
3, 490080, Note_off_c, 2, 77, 0
3, 490176, Note_on_c, 2, 77, 5
3, 490176, Note_on_c, 2, 73, 5
3, 490176, Note_on_c, 2, 70, 5
3, 490176, Note_on_c, 2, 65, 5
3, 490176, Note_on_c, 2, 61, 5
3, 490176, Note_on_c, 2, 58, 5
3, 490176, Note_on_c, 2, 53, 5
3, 490176, Note_on_c, 2, 49, 5
3, 490176, Note_on_c, 2, 46, 5
3, 490176, Note_on_c, 2, 41, 5
3, 490176, Note_on_c, 2, 37, 5
3, 490176, Note_on_c, 2, 34, 5
3, 490176, Note_on_c, 2, 89, 5
3, 490176, Note_on_c, 2, 85, 5
3, 490176, Note_on_c, 2, 82, 5
3, 490176, Note_on_c, 2, 94, 5
3, 490176, Note_on_c, 2, 29, 5
3, 490176, Note_on_c, 2, 25, 5
3, 490272, Note_off_c, 2, 25, 0
3, 490272, Note_off_c, 2, 29, 0
3, 490272, Note_off_c, 2, 94, 0
3, 490272, Note_off_c, 2, 82, 0
3, 490272, Note_off_c, 2, 85, 0
3, 490272, Note_off_c, 2, 89, 0
3, 490272, Note_off_c, 2, 34, 0
3, 490272, Note_off_c, 2, 37, 0
3, 490272, Note_off_c, 2, 41, 0
3, 490272, Note_off_c, 2, 46, 0
3, 490272, Note_off_c, 2, 49, 0
3, 490272, Note_off_c, 2, 53, 0
3, 490272, Note_off_c, 2, 58, 0
3, 490272, Note_off_c, 2, 61, 0
3, 490272, Note_off_c, 2, 65, 0
3, 490272, Note_off_c, 2, 70, 0
3, 490272, Note_off_c, 2, 73, 0
3, 490272, Note_off_c, 2, 77, 0
3, 490368, Note_on_c, 2, 77, 5
3, 490368, Note_on_c, 2, 73, 5
3, 490368, Note_on_c, 2, 70, 5
3, 490368, Note_on_c, 2, 65, 5
3, 490368, Note_on_c, 2, 61, 5
3, 490368, Note_on_c, 2, 58, 5
3, 490368, Note_on_c, 2, 53, 5
3, 490368, Note_on_c, 2, 49, 5
3, 490368, Note_on_c, 2, 46, 5
3, 490368, Note_on_c, 2, 41, 5
3, 490368, Note_on_c, 2, 37, 5
3, 490368, Note_on_c, 2, 34, 5
3, 490368, Note_on_c, 2, 89, 5
3, 490368, Note_on_c, 2, 85, 5
3, 490368, Note_on_c, 2, 82, 5
3, 490368, Note_on_c, 2, 94, 5
3, 490368, Note_on_c, 2, 29, 5
3, 490368, Note_on_c, 2, 25, 5
3, 490464, Note_off_c, 2, 25, 0
3, 490464, Note_off_c, 2, 29, 0
3, 490464, Note_off_c, 2, 94, 0
3, 490464, Note_off_c, 2, 82, 0
3, 490464, Note_off_c, 2, 85, 0
3, 490464, Note_off_c, 2, 89, 0
3, 490464, Note_off_c, 2, 34, 0
3, 490464, Note_off_c, 2, 37, 0
3, 490464, Note_off_c, 2, 41, 0
3, 490464, Note_off_c, 2, 46, 0
3, 490464, Note_off_c, 2, 49, 0
3, 490464, Note_off_c, 2, 53, 0
3, 490464, Note_off_c, 2, 58, 0
3, 490464, Note_off_c, 2, 61, 0
3, 490464, Note_off_c, 2, 65, 0
3, 490464, Note_off_c, 2, 70, 0
3, 490464, Note_off_c, 2, 73, 0
3, 490464, Note_off_c, 2, 77, 0
3, 490560, Note_on_c, 2, 77, 5
3, 490560, Note_on_c, 2, 73, 5
3, 490560, Note_on_c, 2, 70, 5
3, 490560, Note_on_c, 2, 65, 5
3, 490560, Note_on_c, 2, 61, 5
3, 490560, Note_on_c, 2, 58, 5
3, 490560, Note_on_c, 2, 53, 5
3, 490560, Note_on_c, 2, 49, 5
3, 490560, Note_on_c, 2, 46, 5
3, 490560, Note_on_c, 2, 41, 5
3, 490560, Note_on_c, 2, 37, 5
3, 490560, Note_on_c, 2, 34, 5
3, 490560, Note_on_c, 2, 89, 5
3, 490560, Note_on_c, 2, 85, 5
3, 490560, Note_on_c, 2, 82, 5
3, 490560, Note_on_c, 2, 94, 5
3, 490560, Note_on_c, 2, 29, 5
3, 490560, Note_on_c, 2, 25, 5
3, 490656, Note_off_c, 2, 25, 0
3, 490656, Note_off_c, 2, 29, 0
3, 490656, Note_off_c, 2, 94, 0
3, 490656, Note_off_c, 2, 82, 0
3, 490656, Note_off_c, 2, 85, 0
3, 490656, Note_off_c, 2, 89, 0
3, 490656, Note_off_c, 2, 34, 0
3, 490656, Note_off_c, 2, 37, 0
3, 490656, Note_off_c, 2, 41, 0
3, 490656, Note_off_c, 2, 46, 0
3, 490656, Note_off_c, 2, 49, 0
3, 490656, Note_off_c, 2, 53, 0
3, 490656, Note_off_c, 2, 58, 0
3, 490656, Note_off_c, 2, 61, 0
3, 490656, Note_off_c, 2, 65, 0
3, 490656, Note_off_c, 2, 70, 0
3, 490656, Note_off_c, 2, 73, 0
3, 490656, Note_off_c, 2, 77, 0
3, 490752, Note_on_c, 2, 77, 5
3, 490752, Note_on_c, 2, 73, 5
3, 490752, Note_on_c, 2, 70, 5
3, 490752, Note_on_c, 2, 65, 5
3, 490752, Note_on_c, 2, 61, 5
3, 490752, Note_on_c, 2, 58, 5
3, 490752, Note_on_c, 2, 53, 5
3, 490752, Note_on_c, 2, 49, 5
3, 490752, Note_on_c, 2, 46, 5
3, 490752, Note_on_c, 2, 41, 5
3, 490752, Note_on_c, 2, 37, 5
3, 490752, Note_on_c, 2, 34, 5
3, 490752, Note_on_c, 2, 89, 5
3, 490752, Note_on_c, 2, 85, 5
3, 490752, Note_on_c, 2, 82, 5
3, 490752, Note_on_c, 2, 94, 5
3, 490752, Note_on_c, 2, 29, 5
3, 490752, Note_on_c, 2, 25, 5
3, 490848, Note_off_c, 2, 25, 0
3, 490848, Note_off_c, 2, 29, 0
3, 490848, Note_off_c, 2, 94, 0
3, 490848, Note_off_c, 2, 82, 0
3, 490848, Note_off_c, 2, 85, 0
3, 490848, Note_off_c, 2, 89, 0
3, 490848, Note_off_c, 2, 34, 0
3, 490848, Note_off_c, 2, 37, 0
3, 490848, Note_off_c, 2, 41, 0
3, 490848, Note_off_c, 2, 46, 0
3, 490848, Note_off_c, 2, 49, 0
3, 490848, Note_off_c, 2, 53, 0
3, 490848, Note_off_c, 2, 58, 0
3, 490848, Note_off_c, 2, 61, 0
3, 490848, Note_off_c, 2, 65, 0
3, 490848, Note_off_c, 2, 70, 0
3, 490848, Note_off_c, 2, 73, 0
3, 490848, Note_off_c, 2, 77, 0
3, 490944, Note_on_c, 2, 77, 5
3, 490944, Note_on_c, 2, 73, 5
3, 490944, Note_on_c, 2, 70, 5
3, 490944, Note_on_c, 2, 65, 5
3, 490944, Note_on_c, 2, 61, 5
3, 490944, Note_on_c, 2, 58, 5
3, 490944, Note_on_c, 2, 53, 5
3, 490944, Note_on_c, 2, 49, 5
3, 490944, Note_on_c, 2, 46, 5
3, 490944, Note_on_c, 2, 41, 5
3, 490944, Note_on_c, 2, 37, 5
3, 490944, Note_on_c, 2, 34, 5
3, 490944, Note_on_c, 2, 89, 5
3, 490944, Note_on_c, 2, 85, 5
3, 490944, Note_on_c, 2, 82, 5
3, 490944, Note_on_c, 2, 94, 5
3, 490944, Note_on_c, 2, 29, 5
3, 490944, Note_on_c, 2, 25, 5
3, 491040, Note_off_c, 2, 25, 0
3, 491040, Note_off_c, 2, 29, 0
3, 491040, Note_off_c, 2, 94, 0
3, 491040, Note_off_c, 2, 82, 0
3, 491040, Note_off_c, 2, 85, 0
3, 491040, Note_off_c, 2, 89, 0
3, 491040, Note_off_c, 2, 34, 0
3, 491040, Note_off_c, 2, 37, 0
3, 491040, Note_off_c, 2, 41, 0
3, 491040, Note_off_c, 2, 46, 0
3, 491040, Note_off_c, 2, 49, 0
3, 491040, Note_off_c, 2, 53, 0
3, 491040, Note_off_c, 2, 58, 0
3, 491040, Note_off_c, 2, 61, 0
3, 491040, Note_off_c, 2, 65, 0
3, 491040, Note_off_c, 2, 70, 0
3, 491040, Note_off_c, 2, 73, 0
3, 491040, Note_off_c, 2, 77, 0
3, 491136, Note_on_c, 2, 77, 5
3, 491136, Note_on_c, 2, 73, 5
3, 491136, Note_on_c, 2, 70, 5
3, 491136, Note_on_c, 2, 65, 5
3, 491136, Note_on_c, 2, 61, 5
3, 491136, Note_on_c, 2, 58, 5
3, 491136, Note_on_c, 2, 53, 5
3, 491136, Note_on_c, 2, 49, 5
3, 491136, Note_on_c, 2, 46, 5
3, 491136, Note_on_c, 2, 41, 5
3, 491136, Note_on_c, 2, 37, 5
3, 491136, Note_on_c, 2, 34, 5
3, 491136, Note_on_c, 2, 89, 5
3, 491136, Note_on_c, 2, 85, 5
3, 491136, Note_on_c, 2, 82, 5
3, 491136, Note_on_c, 2, 94, 5
3, 491136, Note_on_c, 2, 29, 5
3, 491136, Note_on_c, 2, 25, 5
3, 491232, Note_off_c, 2, 25, 0
3, 491232, Note_off_c, 2, 29, 0
3, 491232, Note_off_c, 2, 94, 0
3, 491232, Note_off_c, 2, 82, 0
3, 491232, Note_off_c, 2, 85, 0
3, 491232, Note_off_c, 2, 89, 0
3, 491232, Note_off_c, 2, 34, 0
3, 491232, Note_off_c, 2, 37, 0
3, 491232, Note_off_c, 2, 41, 0
3, 491232, Note_off_c, 2, 46, 0
3, 491232, Note_off_c, 2, 49, 0
3, 491232, Note_off_c, 2, 53, 0
3, 491232, Note_off_c, 2, 58, 0
3, 491232, Note_off_c, 2, 61, 0
3, 491232, Note_off_c, 2, 65, 0
3, 491232, Note_off_c, 2, 70, 0
3, 491232, Note_off_c, 2, 73, 0
3, 491232, Note_off_c, 2, 77, 0
3, 491328, Note_on_c, 2, 77, 5
3, 491328, Note_on_c, 2, 73, 5
3, 491328, Note_on_c, 2, 70, 5
3, 491328, Note_on_c, 2, 65, 5
3, 491328, Note_on_c, 2, 61, 5
3, 491328, Note_on_c, 2, 58, 5
3, 491328, Note_on_c, 2, 53, 5
3, 491328, Note_on_c, 2, 49, 5
3, 491328, Note_on_c, 2, 46, 5
3, 491328, Note_on_c, 2, 41, 5
3, 491328, Note_on_c, 2, 37, 5
3, 491328, Note_on_c, 2, 34, 5
3, 491328, Note_on_c, 2, 89, 5
3, 491328, Note_on_c, 2, 85, 5
3, 491328, Note_on_c, 2, 82, 5
3, 491328, Note_on_c, 2, 94, 5
3, 491328, Note_on_c, 2, 29, 5
3, 491328, Note_on_c, 2, 25, 5
3, 491424, Note_off_c, 2, 25, 0
3, 491424, Note_off_c, 2, 29, 0
3, 491424, Note_off_c, 2, 94, 0
3, 491424, Note_off_c, 2, 82, 0
3, 491424, Note_off_c, 2, 85, 0
3, 491424, Note_off_c, 2, 89, 0
3, 491424, Note_off_c, 2, 34, 0
3, 491424, Note_off_c, 2, 37, 0
3, 491424, Note_off_c, 2, 41, 0
3, 491424, Note_off_c, 2, 46, 0
3, 491424, Note_off_c, 2, 49, 0
3, 491424, Note_off_c, 2, 53, 0
3, 491424, Note_off_c, 2, 58, 0
3, 491424, Note_off_c, 2, 61, 0
3, 491424, Note_off_c, 2, 65, 0
3, 491424, Note_off_c, 2, 70, 0
3, 491424, Note_off_c, 2, 73, 0
3, 491424, Note_off_c, 2, 77, 0
3, 491520, Note_on_c, 2, 78, 5
3, 491520, Note_on_c, 2, 75, 5
3, 491520, Note_on_c, 2, 70, 5
3, 491520, Note_on_c, 2, 66, 5
3, 491520, Note_on_c, 2, 63, 5
3, 491520, Note_on_c, 2, 58, 5
3, 491520, Note_on_c, 2, 54, 5
3, 491520, Note_on_c, 2, 51, 5
3, 491520, Note_on_c, 2, 46, 5
3, 491520, Note_on_c, 2, 42, 5
3, 491520, Note_on_c, 2, 39, 5
3, 491520, Note_on_c, 2, 34, 5
3, 491520, Note_on_c, 2, 90, 5
3, 491520, Note_on_c, 2, 87, 5
3, 491520, Note_on_c, 2, 82, 5
3, 491520, Note_on_c, 2, 94, 5
3, 491520, Note_on_c, 2, 30, 5
3, 491520, Note_on_c, 2, 27, 5
3, 491616, Note_off_c, 2, 27, 0
3, 491616, Note_off_c, 2, 30, 0
3, 491616, Note_off_c, 2, 94, 0
3, 491616, Note_off_c, 2, 82, 0
3, 491616, Note_off_c, 2, 87, 0
3, 491616, Note_off_c, 2, 90, 0
3, 491616, Note_off_c, 2, 34, 0
3, 491616, Note_off_c, 2, 39, 0
3, 491616, Note_off_c, 2, 42, 0
3, 491616, Note_off_c, 2, 46, 0
3, 491616, Note_off_c, 2, 51, 0
3, 491616, Note_off_c, 2, 54, 0
3, 491616, Note_off_c, 2, 58, 0
3, 491616, Note_off_c, 2, 63, 0
3, 491616, Note_off_c, 2, 66, 0
3, 491616, Note_off_c, 2, 70, 0
3, 491616, Note_off_c, 2, 75, 0
3, 491616, Note_off_c, 2, 78, 0
3, 491712, Note_on_c, 2, 78, 5
3, 491712, Note_on_c, 2, 75, 5
3, 491712, Note_on_c, 2, 70, 5
3, 491712, Note_on_c, 2, 66, 5
3, 491712, Note_on_c, 2, 63, 5
3, 491712, Note_on_c, 2, 58, 5
3, 491712, Note_on_c, 2, 54, 5
3, 491712, Note_on_c, 2, 51, 5
3, 491712, Note_on_c, 2, 46, 5
3, 491712, Note_on_c, 2, 42, 5
3, 491712, Note_on_c, 2, 39, 5
3, 491712, Note_on_c, 2, 34, 5
3, 491712, Note_on_c, 2, 90, 5
3, 491712, Note_on_c, 2, 87, 5
3, 491712, Note_on_c, 2, 82, 5
3, 491712, Note_on_c, 2, 94, 5
3, 491712, Note_on_c, 2, 30, 5
3, 491712, Note_on_c, 2, 27, 5
3, 491808, Note_off_c, 2, 27, 0
3, 491808, Note_off_c, 2, 30, 0
3, 491808, Note_off_c, 2, 94, 0
3, 491808, Note_off_c, 2, 82, 0
3, 491808, Note_off_c, 2, 87, 0
3, 491808, Note_off_c, 2, 90, 0
3, 491808, Note_off_c, 2, 34, 0
3, 491808, Note_off_c, 2, 39, 0
3, 491808, Note_off_c, 2, 42, 0
3, 491808, Note_off_c, 2, 46, 0
3, 491808, Note_off_c, 2, 51, 0
3, 491808, Note_off_c, 2, 54, 0
3, 491808, Note_off_c, 2, 58, 0
3, 491808, Note_off_c, 2, 63, 0
3, 491808, Note_off_c, 2, 66, 0
3, 491808, Note_off_c, 2, 70, 0
3, 491808, Note_off_c, 2, 75, 0
3, 491808, Note_off_c, 2, 78, 0
3, 491904, Note_on_c, 2, 78, 5
3, 491904, Note_on_c, 2, 75, 5
3, 491904, Note_on_c, 2, 70, 5
3, 491904, Note_on_c, 2, 66, 5
3, 491904, Note_on_c, 2, 63, 5
3, 491904, Note_on_c, 2, 58, 5
3, 491904, Note_on_c, 2, 54, 5
3, 491904, Note_on_c, 2, 51, 5
3, 491904, Note_on_c, 2, 46, 5
3, 491904, Note_on_c, 2, 42, 5
3, 491904, Note_on_c, 2, 39, 5
3, 491904, Note_on_c, 2, 34, 5
3, 491904, Note_on_c, 2, 90, 5
3, 491904, Note_on_c, 2, 87, 5
3, 491904, Note_on_c, 2, 82, 5
3, 491904, Note_on_c, 2, 94, 5
3, 491904, Note_on_c, 2, 30, 5
3, 491904, Note_on_c, 2, 27, 5
3, 492000, Note_off_c, 2, 27, 0
3, 492000, Note_off_c, 2, 30, 0
3, 492000, Note_off_c, 2, 94, 0
3, 492000, Note_off_c, 2, 82, 0
3, 492000, Note_off_c, 2, 87, 0
3, 492000, Note_off_c, 2, 90, 0
3, 492000, Note_off_c, 2, 34, 0
3, 492000, Note_off_c, 2, 39, 0
3, 492000, Note_off_c, 2, 42, 0
3, 492000, Note_off_c, 2, 46, 0
3, 492000, Note_off_c, 2, 51, 0
3, 492000, Note_off_c, 2, 54, 0
3, 492000, Note_off_c, 2, 58, 0
3, 492000, Note_off_c, 2, 63, 0
3, 492000, Note_off_c, 2, 66, 0
3, 492000, Note_off_c, 2, 70, 0
3, 492000, Note_off_c, 2, 75, 0
3, 492000, Note_off_c, 2, 78, 0
3, 492096, Note_on_c, 2, 78, 5
3, 492096, Note_on_c, 2, 75, 5
3, 492096, Note_on_c, 2, 70, 5
3, 492096, Note_on_c, 2, 66, 5
3, 492096, Note_on_c, 2, 63, 5
3, 492096, Note_on_c, 2, 58, 5
3, 492096, Note_on_c, 2, 54, 5
3, 492096, Note_on_c, 2, 51, 5
3, 492096, Note_on_c, 2, 46, 5
3, 492096, Note_on_c, 2, 42, 5
3, 492096, Note_on_c, 2, 39, 5
3, 492096, Note_on_c, 2, 34, 5
3, 492096, Note_on_c, 2, 90, 5
3, 492096, Note_on_c, 2, 87, 5
3, 492096, Note_on_c, 2, 82, 5
3, 492096, Note_on_c, 2, 94, 5
3, 492096, Note_on_c, 2, 30, 5
3, 492096, Note_on_c, 2, 27, 5
3, 492192, Note_off_c, 2, 27, 0
3, 492192, Note_off_c, 2, 30, 0
3, 492192, Note_off_c, 2, 94, 0
3, 492192, Note_off_c, 2, 82, 0
3, 492192, Note_off_c, 2, 87, 0
3, 492192, Note_off_c, 2, 90, 0
3, 492192, Note_off_c, 2, 34, 0
3, 492192, Note_off_c, 2, 39, 0
3, 492192, Note_off_c, 2, 42, 0
3, 492192, Note_off_c, 2, 46, 0
3, 492192, Note_off_c, 2, 51, 0
3, 492192, Note_off_c, 2, 54, 0
3, 492192, Note_off_c, 2, 58, 0
3, 492192, Note_off_c, 2, 63, 0
3, 492192, Note_off_c, 2, 66, 0
3, 492192, Note_off_c, 2, 70, 0
3, 492192, Note_off_c, 2, 75, 0
3, 492192, Note_off_c, 2, 78, 0
3, 492288, Note_on_c, 2, 78, 5
3, 492288, Note_on_c, 2, 75, 5
3, 492288, Note_on_c, 2, 70, 5
3, 492288, Note_on_c, 2, 66, 5
3, 492288, Note_on_c, 2, 63, 5
3, 492288, Note_on_c, 2, 58, 5
3, 492288, Note_on_c, 2, 54, 5
3, 492288, Note_on_c, 2, 51, 5
3, 492288, Note_on_c, 2, 46, 5
3, 492288, Note_on_c, 2, 42, 5
3, 492288, Note_on_c, 2, 39, 5
3, 492288, Note_on_c, 2, 34, 5
3, 492288, Note_on_c, 2, 90, 5
3, 492288, Note_on_c, 2, 87, 5
3, 492288, Note_on_c, 2, 82, 5
3, 492288, Note_on_c, 2, 94, 5
3, 492288, Note_on_c, 2, 30, 5
3, 492288, Note_on_c, 2, 27, 5
3, 492384, Note_off_c, 2, 27, 0
3, 492384, Note_off_c, 2, 30, 0
3, 492384, Note_off_c, 2, 94, 0
3, 492384, Note_off_c, 2, 82, 0
3, 492384, Note_off_c, 2, 87, 0
3, 492384, Note_off_c, 2, 90, 0
3, 492384, Note_off_c, 2, 34, 0
3, 492384, Note_off_c, 2, 39, 0
3, 492384, Note_off_c, 2, 42, 0
3, 492384, Note_off_c, 2, 46, 0
3, 492384, Note_off_c, 2, 51, 0
3, 492384, Note_off_c, 2, 54, 0
3, 492384, Note_off_c, 2, 58, 0
3, 492384, Note_off_c, 2, 63, 0
3, 492384, Note_off_c, 2, 66, 0
3, 492384, Note_off_c, 2, 70, 0
3, 492384, Note_off_c, 2, 75, 0
3, 492384, Note_off_c, 2, 78, 0
3, 492480, Note_on_c, 2, 78, 5
3, 492480, Note_on_c, 2, 75, 5
3, 492480, Note_on_c, 2, 70, 5
3, 492480, Note_on_c, 2, 66, 5
3, 492480, Note_on_c, 2, 63, 5
3, 492480, Note_on_c, 2, 58, 5
3, 492480, Note_on_c, 2, 54, 5
3, 492480, Note_on_c, 2, 51, 5
3, 492480, Note_on_c, 2, 46, 5
3, 492480, Note_on_c, 2, 42, 5
3, 492480, Note_on_c, 2, 39, 5
3, 492480, Note_on_c, 2, 34, 5
3, 492480, Note_on_c, 2, 90, 5
3, 492480, Note_on_c, 2, 87, 5
3, 492480, Note_on_c, 2, 82, 5
3, 492480, Note_on_c, 2, 94, 5
3, 492480, Note_on_c, 2, 30, 5
3, 492480, Note_on_c, 2, 27, 5
3, 492576, Note_off_c, 2, 27, 0
3, 492576, Note_off_c, 2, 30, 0
3, 492576, Note_off_c, 2, 94, 0
3, 492576, Note_off_c, 2, 82, 0
3, 492576, Note_off_c, 2, 87, 0
3, 492576, Note_off_c, 2, 90, 0
3, 492576, Note_off_c, 2, 34, 0
3, 492576, Note_off_c, 2, 39, 0
3, 492576, Note_off_c, 2, 42, 0
3, 492576, Note_off_c, 2, 46, 0
3, 492576, Note_off_c, 2, 51, 0
3, 492576, Note_off_c, 2, 54, 0
3, 492576, Note_off_c, 2, 58, 0
3, 492576, Note_off_c, 2, 63, 0
3, 492576, Note_off_c, 2, 66, 0
3, 492576, Note_off_c, 2, 70, 0
3, 492576, Note_off_c, 2, 75, 0
3, 492576, Note_off_c, 2, 78, 0
3, 492672, Note_on_c, 2, 78, 5
3, 492672, Note_on_c, 2, 75, 5
3, 492672, Note_on_c, 2, 70, 5
3, 492672, Note_on_c, 2, 66, 5
3, 492672, Note_on_c, 2, 63, 5
3, 492672, Note_on_c, 2, 58, 5
3, 492672, Note_on_c, 2, 54, 5
3, 492672, Note_on_c, 2, 51, 5
3, 492672, Note_on_c, 2, 46, 5
3, 492672, Note_on_c, 2, 42, 5
3, 492672, Note_on_c, 2, 39, 5
3, 492672, Note_on_c, 2, 34, 5
3, 492672, Note_on_c, 2, 90, 5
3, 492672, Note_on_c, 2, 87, 5
3, 492672, Note_on_c, 2, 82, 5
3, 492672, Note_on_c, 2, 94, 5
3, 492672, Note_on_c, 2, 30, 5
3, 492672, Note_on_c, 2, 27, 5
3, 492768, Note_off_c, 2, 27, 0
3, 492768, Note_off_c, 2, 30, 0
3, 492768, Note_off_c, 2, 94, 0
3, 492768, Note_off_c, 2, 82, 0
3, 492768, Note_off_c, 2, 87, 0
3, 492768, Note_off_c, 2, 90, 0
3, 492768, Note_off_c, 2, 34, 0
3, 492768, Note_off_c, 2, 39, 0
3, 492768, Note_off_c, 2, 42, 0
3, 492768, Note_off_c, 2, 46, 0
3, 492768, Note_off_c, 2, 51, 0
3, 492768, Note_off_c, 2, 54, 0
3, 492768, Note_off_c, 2, 58, 0
3, 492768, Note_off_c, 2, 63, 0
3, 492768, Note_off_c, 2, 66, 0
3, 492768, Note_off_c, 2, 70, 0
3, 492768, Note_off_c, 2, 75, 0
3, 492768, Note_off_c, 2, 78, 0
3, 492864, Note_on_c, 2, 78, 5
3, 492864, Note_on_c, 2, 75, 5
3, 492864, Note_on_c, 2, 70, 5
3, 492864, Note_on_c, 2, 66, 5
3, 492864, Note_on_c, 2, 63, 5
3, 492864, Note_on_c, 2, 58, 5
3, 492864, Note_on_c, 2, 54, 5
3, 492864, Note_on_c, 2, 51, 5
3, 492864, Note_on_c, 2, 46, 5
3, 492864, Note_on_c, 2, 42, 5
3, 492864, Note_on_c, 2, 39, 5
3, 492864, Note_on_c, 2, 34, 5
3, 492864, Note_on_c, 2, 90, 5
3, 492864, Note_on_c, 2, 87, 5
3, 492864, Note_on_c, 2, 82, 5
3, 492864, Note_on_c, 2, 94, 5
3, 492864, Note_on_c, 2, 30, 5
3, 492864, Note_on_c, 2, 27, 5
3, 492960, Note_off_c, 2, 27, 0
3, 492960, Note_off_c, 2, 30, 0
3, 492960, Note_off_c, 2, 94, 0
3, 492960, Note_off_c, 2, 82, 0
3, 492960, Note_off_c, 2, 87, 0
3, 492960, Note_off_c, 2, 90, 0
3, 492960, Note_off_c, 2, 34, 0
3, 492960, Note_off_c, 2, 39, 0
3, 492960, Note_off_c, 2, 42, 0
3, 492960, Note_off_c, 2, 46, 0
3, 492960, Note_off_c, 2, 51, 0
3, 492960, Note_off_c, 2, 54, 0
3, 492960, Note_off_c, 2, 58, 0
3, 492960, Note_off_c, 2, 63, 0
3, 492960, Note_off_c, 2, 66, 0
3, 492960, Note_off_c, 2, 70, 0
3, 492960, Note_off_c, 2, 75, 0
3, 492960, Note_off_c, 2, 78, 0
3, 493056, Note_on_c, 2, 77, 5
3, 493056, Note_on_c, 2, 73, 5
3, 493056, Note_on_c, 2, 70, 5
3, 493056, Note_on_c, 2, 65, 5
3, 493056, Note_on_c, 2, 61, 5
3, 493056, Note_on_c, 2, 58, 5
3, 493056, Note_on_c, 2, 53, 5
3, 493056, Note_on_c, 2, 49, 5
3, 493056, Note_on_c, 2, 46, 5
3, 493056, Note_on_c, 2, 41, 5
3, 493056, Note_on_c, 2, 37, 5
3, 493056, Note_on_c, 2, 34, 5
3, 493056, Note_on_c, 2, 89, 5
3, 493056, Note_on_c, 2, 85, 5
3, 493056, Note_on_c, 2, 82, 5
3, 493056, Note_on_c, 2, 94, 5
3, 493056, Note_on_c, 2, 29, 5
3, 493056, Note_on_c, 2, 25, 5
3, 493152, Note_off_c, 2, 25, 0
3, 493152, Note_off_c, 2, 29, 0
3, 493152, Note_off_c, 2, 94, 0
3, 493152, Note_off_c, 2, 82, 0
3, 493152, Note_off_c, 2, 85, 0
3, 493152, Note_off_c, 2, 89, 0
3, 493152, Note_off_c, 2, 34, 0
3, 493152, Note_off_c, 2, 37, 0
3, 493152, Note_off_c, 2, 41, 0
3, 493152, Note_off_c, 2, 46, 0
3, 493152, Note_off_c, 2, 49, 0
3, 493152, Note_off_c, 2, 53, 0
3, 493152, Note_off_c, 2, 58, 0
3, 493152, Note_off_c, 2, 61, 0
3, 493152, Note_off_c, 2, 65, 0
3, 493152, Note_off_c, 2, 70, 0
3, 493152, Note_off_c, 2, 73, 0
3, 493152, Note_off_c, 2, 77, 0
3, 493248, Note_on_c, 2, 77, 5
3, 493248, Note_on_c, 2, 73, 5
3, 493248, Note_on_c, 2, 70, 5
3, 493248, Note_on_c, 2, 65, 5
3, 493248, Note_on_c, 2, 61, 5
3, 493248, Note_on_c, 2, 58, 5
3, 493248, Note_on_c, 2, 53, 5
3, 493248, Note_on_c, 2, 49, 5
3, 493248, Note_on_c, 2, 46, 5
3, 493248, Note_on_c, 2, 41, 5
3, 493248, Note_on_c, 2, 37, 5
3, 493248, Note_on_c, 2, 34, 5
3, 493248, Note_on_c, 2, 89, 5
3, 493248, Note_on_c, 2, 85, 5
3, 493248, Note_on_c, 2, 82, 5
3, 493248, Note_on_c, 2, 94, 5
3, 493248, Note_on_c, 2, 29, 5
3, 493248, Note_on_c, 2, 25, 5
3, 493344, Note_off_c, 2, 25, 0
3, 493344, Note_off_c, 2, 29, 0
3, 493344, Note_off_c, 2, 94, 0
3, 493344, Note_off_c, 2, 82, 0
3, 493344, Note_off_c, 2, 85, 0
3, 493344, Note_off_c, 2, 89, 0
3, 493344, Note_off_c, 2, 34, 0
3, 493344, Note_off_c, 2, 37, 0
3, 493344, Note_off_c, 2, 41, 0
3, 493344, Note_off_c, 2, 46, 0
3, 493344, Note_off_c, 2, 49, 0
3, 493344, Note_off_c, 2, 53, 0
3, 493344, Note_off_c, 2, 58, 0
3, 493344, Note_off_c, 2, 61, 0
3, 493344, Note_off_c, 2, 65, 0
3, 493344, Note_off_c, 2, 70, 0
3, 493344, Note_off_c, 2, 73, 0
3, 493344, Note_off_c, 2, 77, 0
3, 493440, Note_on_c, 2, 77, 5
3, 493440, Note_on_c, 2, 73, 5
3, 493440, Note_on_c, 2, 70, 5
3, 493440, Note_on_c, 2, 65, 5
3, 493440, Note_on_c, 2, 61, 5
3, 493440, Note_on_c, 2, 58, 5
3, 493440, Note_on_c, 2, 53, 5
3, 493440, Note_on_c, 2, 49, 5
3, 493440, Note_on_c, 2, 46, 5
3, 493440, Note_on_c, 2, 41, 5
3, 493440, Note_on_c, 2, 37, 5
3, 493440, Note_on_c, 2, 34, 5
3, 493440, Note_on_c, 2, 89, 5
3, 493440, Note_on_c, 2, 85, 5
3, 493440, Note_on_c, 2, 82, 5
3, 493440, Note_on_c, 2, 94, 5
3, 493440, Note_on_c, 2, 29, 5
3, 493440, Note_on_c, 2, 25, 5
3, 493536, Note_off_c, 2, 25, 0
3, 493536, Note_off_c, 2, 29, 0
3, 493536, Note_off_c, 2, 94, 0
3, 493536, Note_off_c, 2, 82, 0
3, 493536, Note_off_c, 2, 85, 0
3, 493536, Note_off_c, 2, 89, 0
3, 493536, Note_off_c, 2, 34, 0
3, 493536, Note_off_c, 2, 37, 0
3, 493536, Note_off_c, 2, 41, 0
3, 493536, Note_off_c, 2, 46, 0
3, 493536, Note_off_c, 2, 49, 0
3, 493536, Note_off_c, 2, 53, 0
3, 493536, Note_off_c, 2, 58, 0
3, 493536, Note_off_c, 2, 61, 0
3, 493536, Note_off_c, 2, 65, 0
3, 493536, Note_off_c, 2, 70, 0
3, 493536, Note_off_c, 2, 73, 0
3, 493536, Note_off_c, 2, 77, 0
3, 493632, Note_on_c, 2, 77, 5
3, 493632, Note_on_c, 2, 73, 5
3, 493632, Note_on_c, 2, 70, 5
3, 493632, Note_on_c, 2, 65, 5
3, 493632, Note_on_c, 2, 61, 5
3, 493632, Note_on_c, 2, 58, 5
3, 493632, Note_on_c, 2, 53, 5
3, 493632, Note_on_c, 2, 49, 5
3, 493632, Note_on_c, 2, 46, 5
3, 493632, Note_on_c, 2, 41, 5
3, 493632, Note_on_c, 2, 37, 5
3, 493632, Note_on_c, 2, 34, 5
3, 493632, Note_on_c, 2, 89, 5
3, 493632, Note_on_c, 2, 85, 5
3, 493632, Note_on_c, 2, 82, 5
3, 493632, Note_on_c, 2, 94, 5
3, 493632, Note_on_c, 2, 29, 5
3, 493632, Note_on_c, 2, 25, 5
3, 493728, Note_off_c, 2, 25, 0
3, 493728, Note_off_c, 2, 29, 0
3, 493728, Note_off_c, 2, 94, 0
3, 493728, Note_off_c, 2, 82, 0
3, 493728, Note_off_c, 2, 85, 0
3, 493728, Note_off_c, 2, 89, 0
3, 493728, Note_off_c, 2, 34, 0
3, 493728, Note_off_c, 2, 37, 0
3, 493728, Note_off_c, 2, 41, 0
3, 493728, Note_off_c, 2, 46, 0
3, 493728, Note_off_c, 2, 49, 0
3, 493728, Note_off_c, 2, 53, 0
3, 493728, Note_off_c, 2, 58, 0
3, 493728, Note_off_c, 2, 61, 0
3, 493728, Note_off_c, 2, 65, 0
3, 493728, Note_off_c, 2, 70, 0
3, 493728, Note_off_c, 2, 73, 0
3, 493728, Note_off_c, 2, 77, 0
3, 493824, Note_on_c, 2, 77, 5
3, 493824, Note_on_c, 2, 73, 5
3, 493824, Note_on_c, 2, 70, 5
3, 493824, Note_on_c, 2, 65, 5
3, 493824, Note_on_c, 2, 61, 5
3, 493824, Note_on_c, 2, 58, 5
3, 493824, Note_on_c, 2, 53, 5
3, 493824, Note_on_c, 2, 49, 5
3, 493824, Note_on_c, 2, 46, 5
3, 493824, Note_on_c, 2, 41, 5
3, 493824, Note_on_c, 2, 37, 5
3, 493824, Note_on_c, 2, 34, 5
3, 493824, Note_on_c, 2, 89, 5
3, 493824, Note_on_c, 2, 85, 5
3, 493824, Note_on_c, 2, 82, 5
3, 493824, Note_on_c, 2, 94, 5
3, 493824, Note_on_c, 2, 29, 5
3, 493824, Note_on_c, 2, 25, 5
3, 493920, Note_off_c, 2, 25, 0
3, 493920, Note_off_c, 2, 29, 0
3, 493920, Note_off_c, 2, 94, 0
3, 493920, Note_off_c, 2, 82, 0
3, 493920, Note_off_c, 2, 85, 0
3, 493920, Note_off_c, 2, 89, 0
3, 493920, Note_off_c, 2, 34, 0
3, 493920, Note_off_c, 2, 37, 0
3, 493920, Note_off_c, 2, 41, 0
3, 493920, Note_off_c, 2, 46, 0
3, 493920, Note_off_c, 2, 49, 0
3, 493920, Note_off_c, 2, 53, 0
3, 493920, Note_off_c, 2, 58, 0
3, 493920, Note_off_c, 2, 61, 0
3, 493920, Note_off_c, 2, 65, 0
3, 493920, Note_off_c, 2, 70, 0
3, 493920, Note_off_c, 2, 73, 0
3, 493920, Note_off_c, 2, 77, 0
3, 494016, Note_on_c, 2, 77, 5
3, 494016, Note_on_c, 2, 73, 5
3, 494016, Note_on_c, 2, 70, 5
3, 494016, Note_on_c, 2, 65, 5
3, 494016, Note_on_c, 2, 61, 5
3, 494016, Note_on_c, 2, 58, 5
3, 494016, Note_on_c, 2, 53, 5
3, 494016, Note_on_c, 2, 49, 5
3, 494016, Note_on_c, 2, 46, 5
3, 494016, Note_on_c, 2, 41, 5
3, 494016, Note_on_c, 2, 37, 5
3, 494016, Note_on_c, 2, 34, 5
3, 494016, Note_on_c, 2, 89, 5
3, 494016, Note_on_c, 2, 85, 5
3, 494016, Note_on_c, 2, 82, 5
3, 494016, Note_on_c, 2, 94, 5
3, 494016, Note_on_c, 2, 29, 5
3, 494016, Note_on_c, 2, 25, 5
3, 494112, Note_off_c, 2, 25, 0
3, 494112, Note_off_c, 2, 29, 0
3, 494112, Note_off_c, 2, 94, 0
3, 494112, Note_off_c, 2, 82, 0
3, 494112, Note_off_c, 2, 85, 0
3, 494112, Note_off_c, 2, 89, 0
3, 494112, Note_off_c, 2, 34, 0
3, 494112, Note_off_c, 2, 37, 0
3, 494112, Note_off_c, 2, 41, 0
3, 494112, Note_off_c, 2, 46, 0
3, 494112, Note_off_c, 2, 49, 0
3, 494112, Note_off_c, 2, 53, 0
3, 494112, Note_off_c, 2, 58, 0
3, 494112, Note_off_c, 2, 61, 0
3, 494112, Note_off_c, 2, 65, 0
3, 494112, Note_off_c, 2, 70, 0
3, 494112, Note_off_c, 2, 73, 0
3, 494112, Note_off_c, 2, 77, 0
3, 494208, Note_on_c, 2, 77, 5
3, 494208, Note_on_c, 2, 73, 5
3, 494208, Note_on_c, 2, 70, 5
3, 494208, Note_on_c, 2, 65, 5
3, 494208, Note_on_c, 2, 61, 5
3, 494208, Note_on_c, 2, 58, 5
3, 494208, Note_on_c, 2, 53, 5
3, 494208, Note_on_c, 2, 49, 5
3, 494208, Note_on_c, 2, 46, 5
3, 494208, Note_on_c, 2, 41, 5
3, 494208, Note_on_c, 2, 37, 5
3, 494208, Note_on_c, 2, 34, 5
3, 494208, Note_on_c, 2, 89, 5
3, 494208, Note_on_c, 2, 85, 5
3, 494208, Note_on_c, 2, 82, 5
3, 494208, Note_on_c, 2, 94, 5
3, 494208, Note_on_c, 2, 29, 5
3, 494208, Note_on_c, 2, 25, 5
3, 494304, Note_off_c, 2, 25, 0
3, 494304, Note_off_c, 2, 29, 0
3, 494304, Note_off_c, 2, 94, 0
3, 494304, Note_off_c, 2, 82, 0
3, 494304, Note_off_c, 2, 85, 0
3, 494304, Note_off_c, 2, 89, 0
3, 494304, Note_off_c, 2, 34, 0
3, 494304, Note_off_c, 2, 37, 0
3, 494304, Note_off_c, 2, 41, 0
3, 494304, Note_off_c, 2, 46, 0
3, 494304, Note_off_c, 2, 49, 0
3, 494304, Note_off_c, 2, 53, 0
3, 494304, Note_off_c, 2, 58, 0
3, 494304, Note_off_c, 2, 61, 0
3, 494304, Note_off_c, 2, 65, 0
3, 494304, Note_off_c, 2, 70, 0
3, 494304, Note_off_c, 2, 73, 0
3, 494304, Note_off_c, 2, 77, 0
3, 494400, Note_on_c, 2, 77, 5
3, 494400, Note_on_c, 2, 73, 5
3, 494400, Note_on_c, 2, 70, 5
3, 494400, Note_on_c, 2, 65, 5
3, 494400, Note_on_c, 2, 61, 5
3, 494400, Note_on_c, 2, 58, 5
3, 494400, Note_on_c, 2, 53, 5
3, 494400, Note_on_c, 2, 49, 5
3, 494400, Note_on_c, 2, 46, 5
3, 494400, Note_on_c, 2, 41, 5
3, 494400, Note_on_c, 2, 37, 5
3, 494400, Note_on_c, 2, 34, 5
3, 494400, Note_on_c, 2, 89, 5
3, 494400, Note_on_c, 2, 85, 5
3, 494400, Note_on_c, 2, 82, 5
3, 494400, Note_on_c, 2, 94, 5
3, 494400, Note_on_c, 2, 29, 5
3, 494400, Note_on_c, 2, 25, 5
3, 494496, Note_off_c, 2, 25, 0
3, 494496, Note_off_c, 2, 29, 0
3, 494496, Note_off_c, 2, 94, 0
3, 494496, Note_off_c, 2, 82, 0
3, 494496, Note_off_c, 2, 85, 0
3, 494496, Note_off_c, 2, 89, 0
3, 494496, Note_off_c, 2, 34, 0
3, 494496, Note_off_c, 2, 37, 0
3, 494496, Note_off_c, 2, 41, 0
3, 494496, Note_off_c, 2, 46, 0
3, 494496, Note_off_c, 2, 49, 0
3, 494496, Note_off_c, 2, 53, 0
3, 494496, Note_off_c, 2, 58, 0
3, 494496, Note_off_c, 2, 61, 0
3, 494496, Note_off_c, 2, 65, 0
3, 494496, Note_off_c, 2, 70, 0
3, 494496, Note_off_c, 2, 73, 0
3, 494496, Note_off_c, 2, 77, 0
3, 494592, Note_on_c, 2, 78, 5
3, 494592, Note_on_c, 2, 72, 5
3, 494592, Note_on_c, 2, 66, 5
3, 494592, Note_on_c, 2, 63, 5
3, 494592, Note_on_c, 2, 60, 5
3, 494592, Note_on_c, 2, 54, 5
3, 494592, Note_on_c, 2, 51, 5
3, 494592, Note_on_c, 2, 48, 5
3, 494592, Note_on_c, 2, 42, 5
3, 494592, Note_on_c, 2, 39, 5
3, 494592, Note_on_c, 2, 36, 5
3, 494592, Note_on_c, 2, 87, 5
3, 494592, Note_on_c, 2, 84, 5
3, 494592, Note_on_c, 2, 30, 5
3, 494592, Note_on_c, 2, 27, 5
3, 494592, Note_on_c, 2, 90, 5
3, 494592, Note_on_c, 2, 75, 5
3, 494592, Note_on_c, 2, 24, 5
3, 494688, Note_off_c, 2, 24, 0
3, 494688, Note_off_c, 2, 75, 0
3, 494688, Note_off_c, 2, 90, 0
3, 494688, Note_off_c, 2, 27, 0
3, 494688, Note_off_c, 2, 30, 0
3, 494688, Note_off_c, 2, 84, 0
3, 494688, Note_off_c, 2, 87, 0
3, 494688, Note_off_c, 2, 36, 0
3, 494688, Note_off_c, 2, 39, 0
3, 494688, Note_off_c, 2, 42, 0
3, 494688, Note_off_c, 2, 48, 0
3, 494688, Note_off_c, 2, 51, 0
3, 494688, Note_off_c, 2, 54, 0
3, 494688, Note_off_c, 2, 60, 0
3, 494688, Note_off_c, 2, 63, 0
3, 494688, Note_off_c, 2, 66, 0
3, 494688, Note_off_c, 2, 72, 0
3, 494688, Note_off_c, 2, 78, 0
3, 494784, Note_on_c, 2, 78, 5
3, 494784, Note_on_c, 2, 72, 5
3, 494784, Note_on_c, 2, 66, 5
3, 494784, Note_on_c, 2, 63, 5
3, 494784, Note_on_c, 2, 60, 5
3, 494784, Note_on_c, 2, 54, 5
3, 494784, Note_on_c, 2, 51, 5
3, 494784, Note_on_c, 2, 48, 5
3, 494784, Note_on_c, 2, 42, 5
3, 494784, Note_on_c, 2, 39, 5
3, 494784, Note_on_c, 2, 36, 5
3, 494784, Note_on_c, 2, 87, 5
3, 494784, Note_on_c, 2, 84, 5
3, 494784, Note_on_c, 2, 30, 5
3, 494784, Note_on_c, 2, 27, 5
3, 494784, Note_on_c, 2, 90, 5
3, 494784, Note_on_c, 2, 75, 5
3, 494784, Note_on_c, 2, 24, 5
3, 494880, Note_off_c, 2, 24, 0
3, 494880, Note_off_c, 2, 75, 0
3, 494880, Note_off_c, 2, 90, 0
3, 494880, Note_off_c, 2, 27, 0
3, 494880, Note_off_c, 2, 30, 0
3, 494880, Note_off_c, 2, 84, 0
3, 494880, Note_off_c, 2, 87, 0
3, 494880, Note_off_c, 2, 36, 0
3, 494880, Note_off_c, 2, 39, 0
3, 494880, Note_off_c, 2, 42, 0
3, 494880, Note_off_c, 2, 48, 0
3, 494880, Note_off_c, 2, 51, 0
3, 494880, Note_off_c, 2, 54, 0
3, 494880, Note_off_c, 2, 60, 0
3, 494880, Note_off_c, 2, 63, 0
3, 494880, Note_off_c, 2, 66, 0
3, 494880, Note_off_c, 2, 72, 0
3, 494880, Note_off_c, 2, 78, 0
3, 494976, Note_on_c, 2, 78, 5
3, 494976, Note_on_c, 2, 72, 5
3, 494976, Note_on_c, 2, 66, 5
3, 494976, Note_on_c, 2, 63, 5
3, 494976, Note_on_c, 2, 60, 5
3, 494976, Note_on_c, 2, 54, 5
3, 494976, Note_on_c, 2, 51, 5
3, 494976, Note_on_c, 2, 48, 5
3, 494976, Note_on_c, 2, 42, 5
3, 494976, Note_on_c, 2, 39, 5
3, 494976, Note_on_c, 2, 36, 5
3, 494976, Note_on_c, 2, 87, 5
3, 494976, Note_on_c, 2, 84, 5
3, 494976, Note_on_c, 2, 30, 5
3, 494976, Note_on_c, 2, 27, 5
3, 494976, Note_on_c, 2, 90, 5
3, 494976, Note_on_c, 2, 75, 5
3, 494976, Note_on_c, 2, 24, 5
3, 495072, Note_off_c, 2, 24, 0
3, 495072, Note_off_c, 2, 75, 0
3, 495072, Note_off_c, 2, 90, 0
3, 495072, Note_off_c, 2, 27, 0
3, 495072, Note_off_c, 2, 30, 0
3, 495072, Note_off_c, 2, 84, 0
3, 495072, Note_off_c, 2, 87, 0
3, 495072, Note_off_c, 2, 36, 0
3, 495072, Note_off_c, 2, 39, 0
3, 495072, Note_off_c, 2, 42, 0
3, 495072, Note_off_c, 2, 48, 0
3, 495072, Note_off_c, 2, 51, 0
3, 495072, Note_off_c, 2, 54, 0
3, 495072, Note_off_c, 2, 60, 0
3, 495072, Note_off_c, 2, 63, 0
3, 495072, Note_off_c, 2, 66, 0
3, 495072, Note_off_c, 2, 72, 0
3, 495072, Note_off_c, 2, 78, 0
3, 495168, Note_on_c, 2, 78, 5
3, 495168, Note_on_c, 2, 72, 5
3, 495168, Note_on_c, 2, 66, 5
3, 495168, Note_on_c, 2, 63, 5
3, 495168, Note_on_c, 2, 60, 5
3, 495168, Note_on_c, 2, 54, 5
3, 495168, Note_on_c, 2, 51, 5
3, 495168, Note_on_c, 2, 48, 5
3, 495168, Note_on_c, 2, 42, 5
3, 495168, Note_on_c, 2, 39, 5
3, 495168, Note_on_c, 2, 36, 5
3, 495168, Note_on_c, 2, 87, 5
3, 495168, Note_on_c, 2, 84, 5
3, 495168, Note_on_c, 2, 30, 5
3, 495168, Note_on_c, 2, 27, 5
3, 495168, Note_on_c, 2, 90, 5
3, 495168, Note_on_c, 2, 75, 5
3, 495168, Note_on_c, 2, 24, 5
3, 495264, Note_off_c, 2, 24, 0
3, 495264, Note_off_c, 2, 75, 0
3, 495264, Note_off_c, 2, 90, 0
3, 495264, Note_off_c, 2, 27, 0
3, 495264, Note_off_c, 2, 30, 0
3, 495264, Note_off_c, 2, 84, 0
3, 495264, Note_off_c, 2, 87, 0
3, 495264, Note_off_c, 2, 36, 0
3, 495264, Note_off_c, 2, 39, 0
3, 495264, Note_off_c, 2, 42, 0
3, 495264, Note_off_c, 2, 48, 0
3, 495264, Note_off_c, 2, 51, 0
3, 495264, Note_off_c, 2, 54, 0
3, 495264, Note_off_c, 2, 60, 0
3, 495264, Note_off_c, 2, 63, 0
3, 495264, Note_off_c, 2, 66, 0
3, 495264, Note_off_c, 2, 72, 0
3, 495264, Note_off_c, 2, 78, 0
3, 495360, Note_on_c, 2, 78, 5
3, 495360, Note_on_c, 2, 72, 5
3, 495360, Note_on_c, 2, 66, 5
3, 495360, Note_on_c, 2, 63, 5
3, 495360, Note_on_c, 2, 60, 5
3, 495360, Note_on_c, 2, 54, 5
3, 495360, Note_on_c, 2, 51, 5
3, 495360, Note_on_c, 2, 48, 5
3, 495360, Note_on_c, 2, 42, 5
3, 495360, Note_on_c, 2, 39, 5
3, 495360, Note_on_c, 2, 36, 5
3, 495360, Note_on_c, 2, 87, 5
3, 495360, Note_on_c, 2, 84, 5
3, 495360, Note_on_c, 2, 30, 5
3, 495360, Note_on_c, 2, 27, 5
3, 495360, Note_on_c, 2, 90, 5
3, 495360, Note_on_c, 2, 75, 5
3, 495360, Note_on_c, 2, 24, 5
3, 495456, Note_off_c, 2, 24, 0
3, 495456, Note_off_c, 2, 75, 0
3, 495456, Note_off_c, 2, 90, 0
3, 495456, Note_off_c, 2, 27, 0
3, 495456, Note_off_c, 2, 30, 0
3, 495456, Note_off_c, 2, 84, 0
3, 495456, Note_off_c, 2, 87, 0
3, 495456, Note_off_c, 2, 36, 0
3, 495456, Note_off_c, 2, 39, 0
3, 495456, Note_off_c, 2, 42, 0
3, 495456, Note_off_c, 2, 48, 0
3, 495456, Note_off_c, 2, 51, 0
3, 495456, Note_off_c, 2, 54, 0
3, 495456, Note_off_c, 2, 60, 0
3, 495456, Note_off_c, 2, 63, 0
3, 495456, Note_off_c, 2, 66, 0
3, 495456, Note_off_c, 2, 72, 0
3, 495456, Note_off_c, 2, 78, 0
3, 495552, Note_on_c, 2, 78, 5
3, 495552, Note_on_c, 2, 72, 5
3, 495552, Note_on_c, 2, 66, 5
3, 495552, Note_on_c, 2, 63, 5
3, 495552, Note_on_c, 2, 60, 5
3, 495552, Note_on_c, 2, 54, 5
3, 495552, Note_on_c, 2, 51, 5
3, 495552, Note_on_c, 2, 48, 5
3, 495552, Note_on_c, 2, 42, 5
3, 495552, Note_on_c, 2, 39, 5
3, 495552, Note_on_c, 2, 36, 5
3, 495552, Note_on_c, 2, 87, 5
3, 495552, Note_on_c, 2, 84, 5
3, 495552, Note_on_c, 2, 30, 5
3, 495552, Note_on_c, 2, 27, 5
3, 495552, Note_on_c, 2, 90, 5
3, 495552, Note_on_c, 2, 75, 5
3, 495552, Note_on_c, 2, 24, 5
3, 495648, Note_off_c, 2, 24, 0
3, 495648, Note_off_c, 2, 75, 0
3, 495648, Note_off_c, 2, 90, 0
3, 495648, Note_off_c, 2, 27, 0
3, 495648, Note_off_c, 2, 30, 0
3, 495648, Note_off_c, 2, 84, 0
3, 495648, Note_off_c, 2, 87, 0
3, 495648, Note_off_c, 2, 36, 0
3, 495648, Note_off_c, 2, 39, 0
3, 495648, Note_off_c, 2, 42, 0
3, 495648, Note_off_c, 2, 48, 0
3, 495648, Note_off_c, 2, 51, 0
3, 495648, Note_off_c, 2, 54, 0
3, 495648, Note_off_c, 2, 60, 0
3, 495648, Note_off_c, 2, 63, 0
3, 495648, Note_off_c, 2, 66, 0
3, 495648, Note_off_c, 2, 72, 0
3, 495648, Note_off_c, 2, 78, 0
3, 495744, Note_on_c, 2, 78, 5
3, 495744, Note_on_c, 2, 72, 5
3, 495744, Note_on_c, 2, 66, 5
3, 495744, Note_on_c, 2, 63, 5
3, 495744, Note_on_c, 2, 60, 5
3, 495744, Note_on_c, 2, 54, 5
3, 495744, Note_on_c, 2, 51, 5
3, 495744, Note_on_c, 2, 48, 5
3, 495744, Note_on_c, 2, 42, 5
3, 495744, Note_on_c, 2, 39, 5
3, 495744, Note_on_c, 2, 36, 5
3, 495744, Note_on_c, 2, 87, 5
3, 495744, Note_on_c, 2, 84, 5
3, 495744, Note_on_c, 2, 30, 5
3, 495744, Note_on_c, 2, 27, 5
3, 495744, Note_on_c, 2, 90, 5
3, 495744, Note_on_c, 2, 75, 5
3, 495744, Note_on_c, 2, 24, 5
3, 495840, Note_off_c, 2, 24, 0
3, 495840, Note_off_c, 2, 75, 0
3, 495840, Note_off_c, 2, 90, 0
3, 495840, Note_off_c, 2, 27, 0
3, 495840, Note_off_c, 2, 30, 0
3, 495840, Note_off_c, 2, 84, 0
3, 495840, Note_off_c, 2, 87, 0
3, 495840, Note_off_c, 2, 36, 0
3, 495840, Note_off_c, 2, 39, 0
3, 495840, Note_off_c, 2, 42, 0
3, 495840, Note_off_c, 2, 48, 0
3, 495840, Note_off_c, 2, 51, 0
3, 495840, Note_off_c, 2, 54, 0
3, 495840, Note_off_c, 2, 60, 0
3, 495840, Note_off_c, 2, 63, 0
3, 495840, Note_off_c, 2, 66, 0
3, 495840, Note_off_c, 2, 72, 0
3, 495840, Note_off_c, 2, 78, 0
3, 495936, Note_on_c, 2, 78, 5
3, 495936, Note_on_c, 2, 72, 5
3, 495936, Note_on_c, 2, 66, 5
3, 495936, Note_on_c, 2, 63, 5
3, 495936, Note_on_c, 2, 60, 5
3, 495936, Note_on_c, 2, 54, 5
3, 495936, Note_on_c, 2, 51, 5
3, 495936, Note_on_c, 2, 48, 5
3, 495936, Note_on_c, 2, 42, 5
3, 495936, Note_on_c, 2, 39, 5
3, 495936, Note_on_c, 2, 36, 5
3, 495936, Note_on_c, 2, 87, 5
3, 495936, Note_on_c, 2, 84, 5
3, 495936, Note_on_c, 2, 30, 5
3, 495936, Note_on_c, 2, 27, 5
3, 495936, Note_on_c, 2, 90, 5
3, 495936, Note_on_c, 2, 75, 5
3, 495936, Note_on_c, 2, 24, 5
3, 496032, Note_off_c, 2, 24, 0
3, 496032, Note_off_c, 2, 75, 0
3, 496032, Note_off_c, 2, 90, 0
3, 496032, Note_off_c, 2, 27, 0
3, 496032, Note_off_c, 2, 30, 0
3, 496032, Note_off_c, 2, 84, 0
3, 496032, Note_off_c, 2, 87, 0
3, 496032, Note_off_c, 2, 36, 0
3, 496032, Note_off_c, 2, 39, 0
3, 496032, Note_off_c, 2, 42, 0
3, 496032, Note_off_c, 2, 48, 0
3, 496032, Note_off_c, 2, 51, 0
3, 496032, Note_off_c, 2, 54, 0
3, 496032, Note_off_c, 2, 60, 0
3, 496032, Note_off_c, 2, 63, 0
3, 496032, Note_off_c, 2, 66, 0
3, 496032, Note_off_c, 2, 72, 0
3, 496032, Note_off_c, 2, 78, 0
3, 496128, Note_on_c, 2, 77, 5
3, 496128, Note_on_c, 2, 70, 5
3, 496128, Note_on_c, 2, 65, 5
3, 496128, Note_on_c, 2, 61, 5
3, 496128, Note_on_c, 2, 58, 5
3, 496128, Note_on_c, 2, 53, 5
3, 496128, Note_on_c, 2, 49, 5
3, 496128, Note_on_c, 2, 46, 5
3, 496128, Note_on_c, 2, 41, 5
3, 496128, Note_on_c, 2, 37, 5
3, 496128, Note_on_c, 2, 34, 5
3, 496128, Note_on_c, 2, 85, 5
3, 496128, Note_on_c, 2, 82, 5
3, 496128, Note_on_c, 2, 29, 5
3, 496128, Note_on_c, 2, 25, 5
3, 496128, Note_on_c, 2, 89, 5
3, 496128, Note_on_c, 2, 73, 5
3, 496224, Note_off_c, 2, 73, 0
3, 496224, Note_off_c, 2, 89, 0
3, 496224, Note_off_c, 2, 25, 0
3, 496224, Note_off_c, 2, 29, 0
3, 496224, Note_off_c, 2, 82, 0
3, 496224, Note_off_c, 2, 85, 0
3, 496224, Note_off_c, 2, 34, 0
3, 496224, Note_off_c, 2, 37, 0
3, 496224, Note_off_c, 2, 41, 0
3, 496224, Note_off_c, 2, 46, 0
3, 496224, Note_off_c, 2, 49, 0
3, 496224, Note_off_c, 2, 53, 0
3, 496224, Note_off_c, 2, 58, 0
3, 496224, Note_off_c, 2, 61, 0
3, 496224, Note_off_c, 2, 65, 0
3, 496224, Note_off_c, 2, 70, 0
3, 496224, Note_off_c, 2, 77, 0
3, 496320, Note_on_c, 2, 77, 5
3, 496320, Note_on_c, 2, 70, 5
3, 496320, Note_on_c, 2, 65, 5
3, 496320, Note_on_c, 2, 61, 5
3, 496320, Note_on_c, 2, 58, 5
3, 496320, Note_on_c, 2, 53, 5
3, 496320, Note_on_c, 2, 49, 5
3, 496320, Note_on_c, 2, 46, 5
3, 496320, Note_on_c, 2, 41, 5
3, 496320, Note_on_c, 2, 37, 5
3, 496320, Note_on_c, 2, 34, 5
3, 496320, Note_on_c, 2, 85, 5
3, 496320, Note_on_c, 2, 82, 5
3, 496320, Note_on_c, 2, 29, 5
3, 496320, Note_on_c, 2, 25, 5
3, 496320, Note_on_c, 2, 89, 5
3, 496320, Note_on_c, 2, 73, 5
3, 496416, Note_off_c, 2, 73, 0
3, 496416, Note_off_c, 2, 89, 0
3, 496416, Note_off_c, 2, 25, 0
3, 496416, Note_off_c, 2, 29, 0
3, 496416, Note_off_c, 2, 82, 0
3, 496416, Note_off_c, 2, 85, 0
3, 496416, Note_off_c, 2, 34, 0
3, 496416, Note_off_c, 2, 37, 0
3, 496416, Note_off_c, 2, 41, 0
3, 496416, Note_off_c, 2, 46, 0
3, 496416, Note_off_c, 2, 49, 0
3, 496416, Note_off_c, 2, 53, 0
3, 496416, Note_off_c, 2, 58, 0
3, 496416, Note_off_c, 2, 61, 0
3, 496416, Note_off_c, 2, 65, 0
3, 496416, Note_off_c, 2, 70, 0
3, 496416, Note_off_c, 2, 77, 0
3, 496512, Note_on_c, 2, 77, 5
3, 496512, Note_on_c, 2, 70, 5
3, 496512, Note_on_c, 2, 65, 5
3, 496512, Note_on_c, 2, 61, 5
3, 496512, Note_on_c, 2, 58, 5
3, 496512, Note_on_c, 2, 53, 5
3, 496512, Note_on_c, 2, 49, 5
3, 496512, Note_on_c, 2, 46, 5
3, 496512, Note_on_c, 2, 41, 5
3, 496512, Note_on_c, 2, 37, 5
3, 496512, Note_on_c, 2, 34, 5
3, 496512, Note_on_c, 2, 85, 5
3, 496512, Note_on_c, 2, 82, 5
3, 496512, Note_on_c, 2, 29, 5
3, 496512, Note_on_c, 2, 25, 5
3, 496512, Note_on_c, 2, 89, 5
3, 496512, Note_on_c, 2, 73, 5
3, 496608, Note_off_c, 2, 73, 0
3, 496608, Note_off_c, 2, 89, 0
3, 496608, Note_off_c, 2, 25, 0
3, 496608, Note_off_c, 2, 29, 0
3, 496608, Note_off_c, 2, 82, 0
3, 496608, Note_off_c, 2, 85, 0
3, 496608, Note_off_c, 2, 34, 0
3, 496608, Note_off_c, 2, 37, 0
3, 496608, Note_off_c, 2, 41, 0
3, 496608, Note_off_c, 2, 46, 0
3, 496608, Note_off_c, 2, 49, 0
3, 496608, Note_off_c, 2, 53, 0
3, 496608, Note_off_c, 2, 58, 0
3, 496608, Note_off_c, 2, 61, 0
3, 496608, Note_off_c, 2, 65, 0
3, 496608, Note_off_c, 2, 70, 0
3, 496608, Note_off_c, 2, 77, 0
3, 496704, Note_on_c, 2, 77, 5
3, 496704, Note_on_c, 2, 70, 5
3, 496704, Note_on_c, 2, 65, 5
3, 496704, Note_on_c, 2, 61, 5
3, 496704, Note_on_c, 2, 58, 5
3, 496704, Note_on_c, 2, 53, 5
3, 496704, Note_on_c, 2, 49, 5
3, 496704, Note_on_c, 2, 46, 5
3, 496704, Note_on_c, 2, 41, 5
3, 496704, Note_on_c, 2, 37, 5
3, 496704, Note_on_c, 2, 34, 5
3, 496704, Note_on_c, 2, 85, 5
3, 496704, Note_on_c, 2, 82, 5
3, 496704, Note_on_c, 2, 29, 5
3, 496704, Note_on_c, 2, 25, 5
3, 496704, Note_on_c, 2, 89, 5
3, 496704, Note_on_c, 2, 73, 5
3, 496800, Note_off_c, 2, 73, 0
3, 496800, Note_off_c, 2, 89, 0
3, 496800, Note_off_c, 2, 25, 0
3, 496800, Note_off_c, 2, 29, 0
3, 496800, Note_off_c, 2, 82, 0
3, 496800, Note_off_c, 2, 85, 0
3, 496800, Note_off_c, 2, 34, 0
3, 496800, Note_off_c, 2, 37, 0
3, 496800, Note_off_c, 2, 41, 0
3, 496800, Note_off_c, 2, 46, 0
3, 496800, Note_off_c, 2, 49, 0
3, 496800, Note_off_c, 2, 53, 0
3, 496800, Note_off_c, 2, 58, 0
3, 496800, Note_off_c, 2, 61, 0
3, 496800, Note_off_c, 2, 65, 0
3, 496800, Note_off_c, 2, 70, 0
3, 496800, Note_off_c, 2, 77, 0
3, 496896, Note_on_c, 2, 77, 5
3, 496896, Note_on_c, 2, 70, 5
3, 496896, Note_on_c, 2, 65, 5
3, 496896, Note_on_c, 2, 61, 5
3, 496896, Note_on_c, 2, 58, 5
3, 496896, Note_on_c, 2, 53, 5
3, 496896, Note_on_c, 2, 49, 5
3, 496896, Note_on_c, 2, 46, 5
3, 496896, Note_on_c, 2, 41, 5
3, 496896, Note_on_c, 2, 37, 5
3, 496896, Note_on_c, 2, 34, 5
3, 496896, Note_on_c, 2, 85, 5
3, 496896, Note_on_c, 2, 82, 5
3, 496896, Note_on_c, 2, 29, 5
3, 496896, Note_on_c, 2, 25, 5
3, 496896, Note_on_c, 2, 89, 5
3, 496896, Note_on_c, 2, 73, 5
3, 496992, Note_off_c, 2, 73, 0
3, 496992, Note_off_c, 2, 89, 0
3, 496992, Note_off_c, 2, 25, 0
3, 496992, Note_off_c, 2, 29, 0
3, 496992, Note_off_c, 2, 82, 0
3, 496992, Note_off_c, 2, 85, 0
3, 496992, Note_off_c, 2, 34, 0
3, 496992, Note_off_c, 2, 37, 0
3, 496992, Note_off_c, 2, 41, 0
3, 496992, Note_off_c, 2, 46, 0
3, 496992, Note_off_c, 2, 49, 0
3, 496992, Note_off_c, 2, 53, 0
3, 496992, Note_off_c, 2, 58, 0
3, 496992, Note_off_c, 2, 61, 0
3, 496992, Note_off_c, 2, 65, 0
3, 496992, Note_off_c, 2, 70, 0
3, 496992, Note_off_c, 2, 77, 0
3, 497088, Note_on_c, 2, 77, 5
3, 497088, Note_on_c, 2, 70, 5
3, 497088, Note_on_c, 2, 65, 5
3, 497088, Note_on_c, 2, 61, 5
3, 497088, Note_on_c, 2, 58, 5
3, 497088, Note_on_c, 2, 53, 5
3, 497088, Note_on_c, 2, 49, 5
3, 497088, Note_on_c, 2, 46, 5
3, 497088, Note_on_c, 2, 41, 5
3, 497088, Note_on_c, 2, 37, 5
3, 497088, Note_on_c, 2, 34, 5
3, 497088, Note_on_c, 2, 85, 5
3, 497088, Note_on_c, 2, 82, 5
3, 497088, Note_on_c, 2, 29, 5
3, 497088, Note_on_c, 2, 25, 5
3, 497088, Note_on_c, 2, 89, 5
3, 497088, Note_on_c, 2, 73, 5
3, 497184, Note_off_c, 2, 73, 0
3, 497184, Note_off_c, 2, 89, 0
3, 497184, Note_off_c, 2, 25, 0
3, 497184, Note_off_c, 2, 29, 0
3, 497184, Note_off_c, 2, 82, 0
3, 497184, Note_off_c, 2, 85, 0
3, 497184, Note_off_c, 2, 34, 0
3, 497184, Note_off_c, 2, 37, 0
3, 497184, Note_off_c, 2, 41, 0
3, 497184, Note_off_c, 2, 46, 0
3, 497184, Note_off_c, 2, 49, 0
3, 497184, Note_off_c, 2, 53, 0
3, 497184, Note_off_c, 2, 58, 0
3, 497184, Note_off_c, 2, 61, 0
3, 497184, Note_off_c, 2, 65, 0
3, 497184, Note_off_c, 2, 70, 0
3, 497184, Note_off_c, 2, 77, 0
3, 497280, Note_on_c, 2, 77, 5
3, 497280, Note_on_c, 2, 70, 5
3, 497280, Note_on_c, 2, 65, 5
3, 497280, Note_on_c, 2, 61, 5
3, 497280, Note_on_c, 2, 58, 5
3, 497280, Note_on_c, 2, 53, 5
3, 497280, Note_on_c, 2, 49, 5
3, 497280, Note_on_c, 2, 46, 5
3, 497280, Note_on_c, 2, 41, 5
3, 497280, Note_on_c, 2, 37, 5
3, 497280, Note_on_c, 2, 34, 5
3, 497280, Note_on_c, 2, 85, 5
3, 497280, Note_on_c, 2, 82, 5
3, 497280, Note_on_c, 2, 29, 5
3, 497280, Note_on_c, 2, 25, 5
3, 497280, Note_on_c, 2, 89, 5
3, 497280, Note_on_c, 2, 73, 5
3, 497376, Note_off_c, 2, 73, 0
3, 497376, Note_off_c, 2, 89, 0
3, 497376, Note_off_c, 2, 25, 0
3, 497376, Note_off_c, 2, 29, 0
3, 497376, Note_off_c, 2, 82, 0
3, 497376, Note_off_c, 2, 85, 0
3, 497376, Note_off_c, 2, 34, 0
3, 497376, Note_off_c, 2, 37, 0
3, 497376, Note_off_c, 2, 41, 0
3, 497376, Note_off_c, 2, 46, 0
3, 497376, Note_off_c, 2, 49, 0
3, 497376, Note_off_c, 2, 53, 0
3, 497376, Note_off_c, 2, 58, 0
3, 497376, Note_off_c, 2, 61, 0
3, 497376, Note_off_c, 2, 65, 0
3, 497376, Note_off_c, 2, 70, 0
3, 497376, Note_off_c, 2, 77, 0
3, 497472, Note_on_c, 2, 77, 5
3, 497472, Note_on_c, 2, 70, 5
3, 497472, Note_on_c, 2, 65, 5
3, 497472, Note_on_c, 2, 61, 5
3, 497472, Note_on_c, 2, 58, 5
3, 497472, Note_on_c, 2, 53, 5
3, 497472, Note_on_c, 2, 49, 5
3, 497472, Note_on_c, 2, 46, 5
3, 497472, Note_on_c, 2, 41, 5
3, 497472, Note_on_c, 2, 37, 5
3, 497472, Note_on_c, 2, 34, 5
3, 497472, Note_on_c, 2, 85, 5
3, 497472, Note_on_c, 2, 82, 5
3, 497472, Note_on_c, 2, 29, 5
3, 497472, Note_on_c, 2, 25, 5
3, 497472, Note_on_c, 2, 89, 5
3, 497472, Note_on_c, 2, 73, 5
3, 497568, Note_off_c, 2, 73, 0
3, 497568, Note_off_c, 2, 89, 0
3, 497568, Note_off_c, 2, 25, 0
3, 497568, Note_off_c, 2, 29, 0
3, 497568, Note_off_c, 2, 82, 0
3, 497568, Note_off_c, 2, 85, 0
3, 497568, Note_off_c, 2, 34, 0
3, 497568, Note_off_c, 2, 37, 0
3, 497568, Note_off_c, 2, 41, 0
3, 497568, Note_off_c, 2, 46, 0
3, 497568, Note_off_c, 2, 49, 0
3, 497568, Note_off_c, 2, 53, 0
3, 497568, Note_off_c, 2, 58, 0
3, 497568, Note_off_c, 2, 61, 0
3, 497568, Note_off_c, 2, 65, 0
3, 497568, Note_off_c, 2, 70, 0
3, 497568, Note_off_c, 2, 77, 0
3, 497664, Note_on_c, 2, 78, 5
3, 497664, Note_on_c, 2, 73, 5
3, 497664, Note_on_c, 2, 70, 5
3, 497664, Note_on_c, 2, 66, 5
3, 497664, Note_on_c, 2, 61, 5
3, 497664, Note_on_c, 2, 58, 5
3, 497664, Note_on_c, 2, 54, 5
3, 497664, Note_on_c, 2, 49, 5
3, 497664, Note_on_c, 2, 46, 5
3, 497664, Note_on_c, 2, 42, 5
3, 497664, Note_on_c, 2, 37, 5
3, 497664, Note_on_c, 2, 34, 5
3, 497664, Note_on_c, 2, 90, 5
3, 497664, Note_on_c, 2, 85, 5
3, 497664, Note_on_c, 2, 82, 5
3, 497664, Note_on_c, 2, 94, 5
3, 497664, Note_on_c, 2, 30, 5
3, 497664, Note_on_c, 2, 25, 5
3, 497760, Note_off_c, 2, 25, 0
3, 497760, Note_off_c, 2, 30, 0
3, 497760, Note_off_c, 2, 94, 0
3, 497760, Note_off_c, 2, 82, 0
3, 497760, Note_off_c, 2, 85, 0
3, 497760, Note_off_c, 2, 90, 0
3, 497760, Note_off_c, 2, 34, 0
3, 497760, Note_off_c, 2, 37, 0
3, 497760, Note_off_c, 2, 42, 0
3, 497760, Note_off_c, 2, 46, 0
3, 497760, Note_off_c, 2, 49, 0
3, 497760, Note_off_c, 2, 54, 0
3, 497760, Note_off_c, 2, 58, 0
3, 497760, Note_off_c, 2, 61, 0
3, 497760, Note_off_c, 2, 66, 0
3, 497760, Note_off_c, 2, 70, 0
3, 497760, Note_off_c, 2, 73, 0
3, 497760, Note_off_c, 2, 78, 0
3, 497856, Note_on_c, 2, 78, 5
3, 497856, Note_on_c, 2, 73, 5
3, 497856, Note_on_c, 2, 70, 5
3, 497856, Note_on_c, 2, 66, 5
3, 497856, Note_on_c, 2, 61, 5
3, 497856, Note_on_c, 2, 58, 5
3, 497856, Note_on_c, 2, 54, 5
3, 497856, Note_on_c, 2, 49, 5
3, 497856, Note_on_c, 2, 46, 5
3, 497856, Note_on_c, 2, 42, 5
3, 497856, Note_on_c, 2, 37, 5
3, 497856, Note_on_c, 2, 34, 5
3, 497856, Note_on_c, 2, 90, 5
3, 497856, Note_on_c, 2, 85, 5
3, 497856, Note_on_c, 2, 82, 5
3, 497856, Note_on_c, 2, 94, 5
3, 497856, Note_on_c, 2, 30, 5
3, 497856, Note_on_c, 2, 25, 5
3, 497952, Note_off_c, 2, 25, 0
3, 497952, Note_off_c, 2, 30, 0
3, 497952, Note_off_c, 2, 94, 0
3, 497952, Note_off_c, 2, 82, 0
3, 497952, Note_off_c, 2, 85, 0
3, 497952, Note_off_c, 2, 90, 0
3, 497952, Note_off_c, 2, 34, 0
3, 497952, Note_off_c, 2, 37, 0
3, 497952, Note_off_c, 2, 42, 0
3, 497952, Note_off_c, 2, 46, 0
3, 497952, Note_off_c, 2, 49, 0
3, 497952, Note_off_c, 2, 54, 0
3, 497952, Note_off_c, 2, 58, 0
3, 497952, Note_off_c, 2, 61, 0
3, 497952, Note_off_c, 2, 66, 0
3, 497952, Note_off_c, 2, 70, 0
3, 497952, Note_off_c, 2, 73, 0
3, 497952, Note_off_c, 2, 78, 0
3, 498048, Note_on_c, 2, 78, 5
3, 498048, Note_on_c, 2, 73, 5
3, 498048, Note_on_c, 2, 70, 5
3, 498048, Note_on_c, 2, 66, 5
3, 498048, Note_on_c, 2, 61, 5
3, 498048, Note_on_c, 2, 58, 5
3, 498048, Note_on_c, 2, 54, 5
3, 498048, Note_on_c, 2, 49, 5
3, 498048, Note_on_c, 2, 46, 5
3, 498048, Note_on_c, 2, 42, 5
3, 498048, Note_on_c, 2, 37, 5
3, 498048, Note_on_c, 2, 34, 5
3, 498048, Note_on_c, 2, 90, 5
3, 498048, Note_on_c, 2, 85, 5
3, 498048, Note_on_c, 2, 82, 5
3, 498048, Note_on_c, 2, 94, 5
3, 498048, Note_on_c, 2, 30, 5
3, 498048, Note_on_c, 2, 25, 5
3, 498144, Note_off_c, 2, 25, 0
3, 498144, Note_off_c, 2, 30, 0
3, 498144, Note_off_c, 2, 94, 0
3, 498144, Note_off_c, 2, 82, 0
3, 498144, Note_off_c, 2, 85, 0
3, 498144, Note_off_c, 2, 90, 0
3, 498144, Note_off_c, 2, 34, 0
3, 498144, Note_off_c, 2, 37, 0
3, 498144, Note_off_c, 2, 42, 0
3, 498144, Note_off_c, 2, 46, 0
3, 498144, Note_off_c, 2, 49, 0
3, 498144, Note_off_c, 2, 54, 0
3, 498144, Note_off_c, 2, 58, 0
3, 498144, Note_off_c, 2, 61, 0
3, 498144, Note_off_c, 2, 66, 0
3, 498144, Note_off_c, 2, 70, 0
3, 498144, Note_off_c, 2, 73, 0
3, 498144, Note_off_c, 2, 78, 0
3, 498240, Note_on_c, 2, 78, 5
3, 498240, Note_on_c, 2, 73, 5
3, 498240, Note_on_c, 2, 70, 5
3, 498240, Note_on_c, 2, 66, 5
3, 498240, Note_on_c, 2, 61, 5
3, 498240, Note_on_c, 2, 58, 5
3, 498240, Note_on_c, 2, 54, 5
3, 498240, Note_on_c, 2, 49, 5
3, 498240, Note_on_c, 2, 46, 5
3, 498240, Note_on_c, 2, 42, 5
3, 498240, Note_on_c, 2, 37, 5
3, 498240, Note_on_c, 2, 34, 5
3, 498240, Note_on_c, 2, 90, 5
3, 498240, Note_on_c, 2, 85, 5
3, 498240, Note_on_c, 2, 82, 5
3, 498240, Note_on_c, 2, 94, 5
3, 498240, Note_on_c, 2, 30, 5
3, 498240, Note_on_c, 2, 25, 5
3, 498336, Note_off_c, 2, 25, 0
3, 498336, Note_off_c, 2, 30, 0
3, 498336, Note_off_c, 2, 94, 0
3, 498336, Note_off_c, 2, 82, 0
3, 498336, Note_off_c, 2, 85, 0
3, 498336, Note_off_c, 2, 90, 0
3, 498336, Note_off_c, 2, 34, 0
3, 498336, Note_off_c, 2, 37, 0
3, 498336, Note_off_c, 2, 42, 0
3, 498336, Note_off_c, 2, 46, 0
3, 498336, Note_off_c, 2, 49, 0
3, 498336, Note_off_c, 2, 54, 0
3, 498336, Note_off_c, 2, 58, 0
3, 498336, Note_off_c, 2, 61, 0
3, 498336, Note_off_c, 2, 66, 0
3, 498336, Note_off_c, 2, 70, 0
3, 498336, Note_off_c, 2, 73, 0
3, 498336, Note_off_c, 2, 78, 0
3, 498432, Note_on_c, 2, 78, 5
3, 498432, Note_on_c, 2, 73, 5
3, 498432, Note_on_c, 2, 70, 5
3, 498432, Note_on_c, 2, 66, 5
3, 498432, Note_on_c, 2, 61, 5
3, 498432, Note_on_c, 2, 58, 5
3, 498432, Note_on_c, 2, 54, 5
3, 498432, Note_on_c, 2, 49, 5
3, 498432, Note_on_c, 2, 46, 5
3, 498432, Note_on_c, 2, 42, 5
3, 498432, Note_on_c, 2, 37, 5
3, 498432, Note_on_c, 2, 34, 5
3, 498432, Note_on_c, 2, 90, 5
3, 498432, Note_on_c, 2, 85, 5
3, 498432, Note_on_c, 2, 82, 5
3, 498432, Note_on_c, 2, 94, 5
3, 498432, Note_on_c, 2, 30, 5
3, 498432, Note_on_c, 2, 25, 5
3, 498528, Note_off_c, 2, 25, 0
3, 498528, Note_off_c, 2, 30, 0
3, 498528, Note_off_c, 2, 94, 0
3, 498528, Note_off_c, 2, 82, 0
3, 498528, Note_off_c, 2, 85, 0
3, 498528, Note_off_c, 2, 90, 0
3, 498528, Note_off_c, 2, 34, 0
3, 498528, Note_off_c, 2, 37, 0
3, 498528, Note_off_c, 2, 42, 0
3, 498528, Note_off_c, 2, 46, 0
3, 498528, Note_off_c, 2, 49, 0
3, 498528, Note_off_c, 2, 54, 0
3, 498528, Note_off_c, 2, 58, 0
3, 498528, Note_off_c, 2, 61, 0
3, 498528, Note_off_c, 2, 66, 0
3, 498528, Note_off_c, 2, 70, 0
3, 498528, Note_off_c, 2, 73, 0
3, 498528, Note_off_c, 2, 78, 0
3, 498624, Note_on_c, 2, 78, 5
3, 498624, Note_on_c, 2, 73, 5
3, 498624, Note_on_c, 2, 70, 5
3, 498624, Note_on_c, 2, 66, 5
3, 498624, Note_on_c, 2, 61, 5
3, 498624, Note_on_c, 2, 58, 5
3, 498624, Note_on_c, 2, 54, 5
3, 498624, Note_on_c, 2, 49, 5
3, 498624, Note_on_c, 2, 46, 5
3, 498624, Note_on_c, 2, 42, 5
3, 498624, Note_on_c, 2, 37, 5
3, 498624, Note_on_c, 2, 34, 5
3, 498624, Note_on_c, 2, 90, 5
3, 498624, Note_on_c, 2, 85, 5
3, 498624, Note_on_c, 2, 82, 5
3, 498624, Note_on_c, 2, 94, 5
3, 498624, Note_on_c, 2, 30, 5
3, 498624, Note_on_c, 2, 25, 5
3, 498720, Note_off_c, 2, 25, 0
3, 498720, Note_off_c, 2, 30, 0
3, 498720, Note_off_c, 2, 94, 0
3, 498720, Note_off_c, 2, 82, 0
3, 498720, Note_off_c, 2, 85, 0
3, 498720, Note_off_c, 2, 90, 0
3, 498720, Note_off_c, 2, 34, 0
3, 498720, Note_off_c, 2, 37, 0
3, 498720, Note_off_c, 2, 42, 0
3, 498720, Note_off_c, 2, 46, 0
3, 498720, Note_off_c, 2, 49, 0
3, 498720, Note_off_c, 2, 54, 0
3, 498720, Note_off_c, 2, 58, 0
3, 498720, Note_off_c, 2, 61, 0
3, 498720, Note_off_c, 2, 66, 0
3, 498720, Note_off_c, 2, 70, 0
3, 498720, Note_off_c, 2, 73, 0
3, 498720, Note_off_c, 2, 78, 0
3, 498816, Note_on_c, 2, 78, 5
3, 498816, Note_on_c, 2, 73, 5
3, 498816, Note_on_c, 2, 70, 5
3, 498816, Note_on_c, 2, 66, 5
3, 498816, Note_on_c, 2, 61, 5
3, 498816, Note_on_c, 2, 58, 5
3, 498816, Note_on_c, 2, 54, 5
3, 498816, Note_on_c, 2, 49, 5
3, 498816, Note_on_c, 2, 46, 5
3, 498816, Note_on_c, 2, 42, 5
3, 498816, Note_on_c, 2, 37, 5
3, 498816, Note_on_c, 2, 34, 5
3, 498816, Note_on_c, 2, 90, 5
3, 498816, Note_on_c, 2, 85, 5
3, 498816, Note_on_c, 2, 82, 5
3, 498816, Note_on_c, 2, 94, 5
3, 498816, Note_on_c, 2, 30, 5
3, 498816, Note_on_c, 2, 25, 5
3, 498912, Note_off_c, 2, 25, 0
3, 498912, Note_off_c, 2, 30, 0
3, 498912, Note_off_c, 2, 94, 0
3, 498912, Note_off_c, 2, 82, 0
3, 498912, Note_off_c, 2, 85, 0
3, 498912, Note_off_c, 2, 90, 0
3, 498912, Note_off_c, 2, 34, 0
3, 498912, Note_off_c, 2, 37, 0
3, 498912, Note_off_c, 2, 42, 0
3, 498912, Note_off_c, 2, 46, 0
3, 498912, Note_off_c, 2, 49, 0
3, 498912, Note_off_c, 2, 54, 0
3, 498912, Note_off_c, 2, 58, 0
3, 498912, Note_off_c, 2, 61, 0
3, 498912, Note_off_c, 2, 66, 0
3, 498912, Note_off_c, 2, 70, 0
3, 498912, Note_off_c, 2, 73, 0
3, 498912, Note_off_c, 2, 78, 0
3, 499008, Note_on_c, 2, 78, 5
3, 499008, Note_on_c, 2, 73, 5
3, 499008, Note_on_c, 2, 70, 5
3, 499008, Note_on_c, 2, 66, 5
3, 499008, Note_on_c, 2, 61, 5
3, 499008, Note_on_c, 2, 58, 5
3, 499008, Note_on_c, 2, 54, 5
3, 499008, Note_on_c, 2, 49, 5
3, 499008, Note_on_c, 2, 46, 5
3, 499008, Note_on_c, 2, 42, 5
3, 499008, Note_on_c, 2, 37, 5
3, 499008, Note_on_c, 2, 34, 5
3, 499008, Note_on_c, 2, 90, 5
3, 499008, Note_on_c, 2, 85, 5
3, 499008, Note_on_c, 2, 82, 5
3, 499008, Note_on_c, 2, 94, 5
3, 499008, Note_on_c, 2, 30, 5
3, 499008, Note_on_c, 2, 25, 5
3, 499104, Note_off_c, 2, 25, 0
3, 499104, Note_off_c, 2, 30, 0
3, 499104, Note_off_c, 2, 94, 0
3, 499104, Note_off_c, 2, 82, 0
3, 499104, Note_off_c, 2, 85, 0
3, 499104, Note_off_c, 2, 90, 0
3, 499104, Note_off_c, 2, 34, 0
3, 499104, Note_off_c, 2, 37, 0
3, 499104, Note_off_c, 2, 42, 0
3, 499104, Note_off_c, 2, 46, 0
3, 499104, Note_off_c, 2, 49, 0
3, 499104, Note_off_c, 2, 54, 0
3, 499104, Note_off_c, 2, 58, 0
3, 499104, Note_off_c, 2, 61, 0
3, 499104, Note_off_c, 2, 66, 0
3, 499104, Note_off_c, 2, 70, 0
3, 499104, Note_off_c, 2, 73, 0
3, 499104, Note_off_c, 2, 78, 0
3, 499200, Note_on_c, 2, 78, 5
3, 499200, Note_on_c, 2, 75, 5
3, 499200, Note_on_c, 2, 70, 5
3, 499200, Note_on_c, 2, 66, 5
3, 499200, Note_on_c, 2, 63, 5
3, 499200, Note_on_c, 2, 58, 5
3, 499200, Note_on_c, 2, 54, 5
3, 499200, Note_on_c, 2, 51, 5
3, 499200, Note_on_c, 2, 46, 5
3, 499200, Note_on_c, 2, 42, 5
3, 499200, Note_on_c, 2, 39, 5
3, 499200, Note_on_c, 2, 34, 5
3, 499200, Note_on_c, 2, 90, 5
3, 499200, Note_on_c, 2, 87, 5
3, 499200, Note_on_c, 2, 82, 5
3, 499200, Note_on_c, 2, 94, 5
3, 499200, Note_on_c, 2, 30, 5
3, 499200, Note_on_c, 2, 27, 5
3, 499296, Note_off_c, 2, 27, 0
3, 499296, Note_off_c, 2, 30, 0
3, 499296, Note_off_c, 2, 94, 0
3, 499296, Note_off_c, 2, 82, 0
3, 499296, Note_off_c, 2, 87, 0
3, 499296, Note_off_c, 2, 90, 0
3, 499296, Note_off_c, 2, 34, 0
3, 499296, Note_off_c, 2, 39, 0
3, 499296, Note_off_c, 2, 42, 0
3, 499296, Note_off_c, 2, 46, 0
3, 499296, Note_off_c, 2, 51, 0
3, 499296, Note_off_c, 2, 54, 0
3, 499296, Note_off_c, 2, 58, 0
3, 499296, Note_off_c, 2, 63, 0
3, 499296, Note_off_c, 2, 66, 0
3, 499296, Note_off_c, 2, 70, 0
3, 499296, Note_off_c, 2, 75, 0
3, 499296, Note_off_c, 2, 78, 0
3, 499392, Note_on_c, 2, 78, 5
3, 499392, Note_on_c, 2, 75, 5
3, 499392, Note_on_c, 2, 70, 5
3, 499392, Note_on_c, 2, 66, 5
3, 499392, Note_on_c, 2, 63, 5
3, 499392, Note_on_c, 2, 58, 5
3, 499392, Note_on_c, 2, 54, 5
3, 499392, Note_on_c, 2, 51, 5
3, 499392, Note_on_c, 2, 46, 5
3, 499392, Note_on_c, 2, 42, 5
3, 499392, Note_on_c, 2, 39, 5
3, 499392, Note_on_c, 2, 34, 5
3, 499392, Note_on_c, 2, 90, 5
3, 499392, Note_on_c, 2, 87, 5
3, 499392, Note_on_c, 2, 82, 5
3, 499392, Note_on_c, 2, 94, 5
3, 499392, Note_on_c, 2, 30, 5
3, 499392, Note_on_c, 2, 27, 5
3, 499488, Note_off_c, 2, 27, 0
3, 499488, Note_off_c, 2, 30, 0
3, 499488, Note_off_c, 2, 94, 0
3, 499488, Note_off_c, 2, 82, 0
3, 499488, Note_off_c, 2, 87, 0
3, 499488, Note_off_c, 2, 90, 0
3, 499488, Note_off_c, 2, 34, 0
3, 499488, Note_off_c, 2, 39, 0
3, 499488, Note_off_c, 2, 42, 0
3, 499488, Note_off_c, 2, 46, 0
3, 499488, Note_off_c, 2, 51, 0
3, 499488, Note_off_c, 2, 54, 0
3, 499488, Note_off_c, 2, 58, 0
3, 499488, Note_off_c, 2, 63, 0
3, 499488, Note_off_c, 2, 66, 0
3, 499488, Note_off_c, 2, 70, 0
3, 499488, Note_off_c, 2, 75, 0
3, 499488, Note_off_c, 2, 78, 0
3, 499584, Note_on_c, 2, 78, 5
3, 499584, Note_on_c, 2, 75, 5
3, 499584, Note_on_c, 2, 70, 5
3, 499584, Note_on_c, 2, 66, 5
3, 499584, Note_on_c, 2, 63, 5
3, 499584, Note_on_c, 2, 58, 5
3, 499584, Note_on_c, 2, 54, 5
3, 499584, Note_on_c, 2, 51, 5
3, 499584, Note_on_c, 2, 46, 5
3, 499584, Note_on_c, 2, 42, 5
3, 499584, Note_on_c, 2, 39, 5
3, 499584, Note_on_c, 2, 34, 5
3, 499584, Note_on_c, 2, 90, 5
3, 499584, Note_on_c, 2, 87, 5
3, 499584, Note_on_c, 2, 82, 5
3, 499584, Note_on_c, 2, 94, 5
3, 499584, Note_on_c, 2, 30, 5
3, 499584, Note_on_c, 2, 27, 5
3, 499680, Note_off_c, 2, 27, 0
3, 499680, Note_off_c, 2, 30, 0
3, 499680, Note_off_c, 2, 94, 0
3, 499680, Note_off_c, 2, 82, 0
3, 499680, Note_off_c, 2, 87, 0
3, 499680, Note_off_c, 2, 90, 0
3, 499680, Note_off_c, 2, 34, 0
3, 499680, Note_off_c, 2, 39, 0
3, 499680, Note_off_c, 2, 42, 0
3, 499680, Note_off_c, 2, 46, 0
3, 499680, Note_off_c, 2, 51, 0
3, 499680, Note_off_c, 2, 54, 0
3, 499680, Note_off_c, 2, 58, 0
3, 499680, Note_off_c, 2, 63, 0
3, 499680, Note_off_c, 2, 66, 0
3, 499680, Note_off_c, 2, 70, 0
3, 499680, Note_off_c, 2, 75, 0
3, 499680, Note_off_c, 2, 78, 0
3, 499776, Note_on_c, 2, 78, 5
3, 499776, Note_on_c, 2, 75, 5
3, 499776, Note_on_c, 2, 70, 5
3, 499776, Note_on_c, 2, 66, 5
3, 499776, Note_on_c, 2, 63, 5
3, 499776, Note_on_c, 2, 58, 5
3, 499776, Note_on_c, 2, 54, 5
3, 499776, Note_on_c, 2, 51, 5
3, 499776, Note_on_c, 2, 46, 5
3, 499776, Note_on_c, 2, 42, 5
3, 499776, Note_on_c, 2, 39, 5
3, 499776, Note_on_c, 2, 34, 5
3, 499776, Note_on_c, 2, 90, 5
3, 499776, Note_on_c, 2, 87, 5
3, 499776, Note_on_c, 2, 82, 5
3, 499776, Note_on_c, 2, 94, 5
3, 499776, Note_on_c, 2, 30, 5
3, 499776, Note_on_c, 2, 27, 5
3, 499872, Note_off_c, 2, 27, 0
3, 499872, Note_off_c, 2, 30, 0
3, 499872, Note_off_c, 2, 94, 0
3, 499872, Note_off_c, 2, 82, 0
3, 499872, Note_off_c, 2, 87, 0
3, 499872, Note_off_c, 2, 90, 0
3, 499872, Note_off_c, 2, 34, 0
3, 499872, Note_off_c, 2, 39, 0
3, 499872, Note_off_c, 2, 42, 0
3, 499872, Note_off_c, 2, 46, 0
3, 499872, Note_off_c, 2, 51, 0
3, 499872, Note_off_c, 2, 54, 0
3, 499872, Note_off_c, 2, 58, 0
3, 499872, Note_off_c, 2, 63, 0
3, 499872, Note_off_c, 2, 66, 0
3, 499872, Note_off_c, 2, 70, 0
3, 499872, Note_off_c, 2, 75, 0
3, 499872, Note_off_c, 2, 78, 0
3, 499968, Note_on_c, 2, 78, 5
3, 499968, Note_on_c, 2, 75, 5
3, 499968, Note_on_c, 2, 70, 5
3, 499968, Note_on_c, 2, 66, 5
3, 499968, Note_on_c, 2, 63, 5
3, 499968, Note_on_c, 2, 58, 5
3, 499968, Note_on_c, 2, 54, 5
3, 499968, Note_on_c, 2, 51, 5
3, 499968, Note_on_c, 2, 46, 5
3, 499968, Note_on_c, 2, 42, 5
3, 499968, Note_on_c, 2, 39, 5
3, 499968, Note_on_c, 2, 34, 5
3, 499968, Note_on_c, 2, 90, 5
3, 499968, Note_on_c, 2, 87, 5
3, 499968, Note_on_c, 2, 82, 5
3, 499968, Note_on_c, 2, 94, 5
3, 499968, Note_on_c, 2, 30, 5
3, 499968, Note_on_c, 2, 27, 5
3, 500064, Note_off_c, 2, 27, 0
3, 500064, Note_off_c, 2, 30, 0
3, 500064, Note_off_c, 2, 94, 0
3, 500064, Note_off_c, 2, 82, 0
3, 500064, Note_off_c, 2, 87, 0
3, 500064, Note_off_c, 2, 90, 0
3, 500064, Note_off_c, 2, 34, 0
3, 500064, Note_off_c, 2, 39, 0
3, 500064, Note_off_c, 2, 42, 0
3, 500064, Note_off_c, 2, 46, 0
3, 500064, Note_off_c, 2, 51, 0
3, 500064, Note_off_c, 2, 54, 0
3, 500064, Note_off_c, 2, 58, 0
3, 500064, Note_off_c, 2, 63, 0
3, 500064, Note_off_c, 2, 66, 0
3, 500064, Note_off_c, 2, 70, 0
3, 500064, Note_off_c, 2, 75, 0
3, 500064, Note_off_c, 2, 78, 0
3, 500160, Note_on_c, 2, 78, 5
3, 500160, Note_on_c, 2, 75, 5
3, 500160, Note_on_c, 2, 70, 5
3, 500160, Note_on_c, 2, 66, 5
3, 500160, Note_on_c, 2, 63, 5
3, 500160, Note_on_c, 2, 58, 5
3, 500160, Note_on_c, 2, 54, 5
3, 500160, Note_on_c, 2, 51, 5
3, 500160, Note_on_c, 2, 46, 5
3, 500160, Note_on_c, 2, 42, 5
3, 500160, Note_on_c, 2, 39, 5
3, 500160, Note_on_c, 2, 34, 5
3, 500160, Note_on_c, 2, 90, 5
3, 500160, Note_on_c, 2, 87, 5
3, 500160, Note_on_c, 2, 82, 5
3, 500160, Note_on_c, 2, 94, 5
3, 500160, Note_on_c, 2, 30, 5
3, 500160, Note_on_c, 2, 27, 5
3, 500256, Note_off_c, 2, 27, 0
3, 500256, Note_off_c, 2, 30, 0
3, 500256, Note_off_c, 2, 94, 0
3, 500256, Note_off_c, 2, 82, 0
3, 500256, Note_off_c, 2, 87, 0
3, 500256, Note_off_c, 2, 90, 0
3, 500256, Note_off_c, 2, 34, 0
3, 500256, Note_off_c, 2, 39, 0
3, 500256, Note_off_c, 2, 42, 0
3, 500256, Note_off_c, 2, 46, 0
3, 500256, Note_off_c, 2, 51, 0
3, 500256, Note_off_c, 2, 54, 0
3, 500256, Note_off_c, 2, 58, 0
3, 500256, Note_off_c, 2, 63, 0
3, 500256, Note_off_c, 2, 66, 0
3, 500256, Note_off_c, 2, 70, 0
3, 500256, Note_off_c, 2, 75, 0
3, 500256, Note_off_c, 2, 78, 0
3, 500352, Note_on_c, 2, 78, 5
3, 500352, Note_on_c, 2, 75, 5
3, 500352, Note_on_c, 2, 70, 5
3, 500352, Note_on_c, 2, 66, 5
3, 500352, Note_on_c, 2, 63, 5
3, 500352, Note_on_c, 2, 58, 5
3, 500352, Note_on_c, 2, 54, 5
3, 500352, Note_on_c, 2, 51, 5
3, 500352, Note_on_c, 2, 46, 5
3, 500352, Note_on_c, 2, 42, 5
3, 500352, Note_on_c, 2, 39, 5
3, 500352, Note_on_c, 2, 34, 5
3, 500352, Note_on_c, 2, 90, 5
3, 500352, Note_on_c, 2, 87, 5
3, 500352, Note_on_c, 2, 82, 5
3, 500352, Note_on_c, 2, 94, 5
3, 500352, Note_on_c, 2, 30, 5
3, 500352, Note_on_c, 2, 27, 5
3, 500448, Note_off_c, 2, 27, 0
3, 500448, Note_off_c, 2, 30, 0
3, 500448, Note_off_c, 2, 94, 0
3, 500448, Note_off_c, 2, 82, 0
3, 500448, Note_off_c, 2, 87, 0
3, 500448, Note_off_c, 2, 90, 0
3, 500448, Note_off_c, 2, 34, 0
3, 500448, Note_off_c, 2, 39, 0
3, 500448, Note_off_c, 2, 42, 0
3, 500448, Note_off_c, 2, 46, 0
3, 500448, Note_off_c, 2, 51, 0
3, 500448, Note_off_c, 2, 54, 0
3, 500448, Note_off_c, 2, 58, 0
3, 500448, Note_off_c, 2, 63, 0
3, 500448, Note_off_c, 2, 66, 0
3, 500448, Note_off_c, 2, 70, 0
3, 500448, Note_off_c, 2, 75, 0
3, 500448, Note_off_c, 2, 78, 0
3, 500544, Note_on_c, 2, 78, 5
3, 500544, Note_on_c, 2, 75, 5
3, 500544, Note_on_c, 2, 70, 5
3, 500544, Note_on_c, 2, 66, 5
3, 500544, Note_on_c, 2, 63, 5
3, 500544, Note_on_c, 2, 58, 5
3, 500544, Note_on_c, 2, 54, 5
3, 500544, Note_on_c, 2, 51, 5
3, 500544, Note_on_c, 2, 46, 5
3, 500544, Note_on_c, 2, 42, 5
3, 500544, Note_on_c, 2, 39, 5
3, 500544, Note_on_c, 2, 34, 5
3, 500544, Note_on_c, 2, 90, 5
3, 500544, Note_on_c, 2, 87, 5
3, 500544, Note_on_c, 2, 82, 5
3, 500544, Note_on_c, 2, 94, 5
3, 500544, Note_on_c, 2, 30, 5
3, 500544, Note_on_c, 2, 27, 5
3, 500640, Note_off_c, 2, 27, 0
3, 500640, Note_off_c, 2, 30, 0
3, 500640, Note_off_c, 2, 94, 0
3, 500640, Note_off_c, 2, 82, 0
3, 500640, Note_off_c, 2, 87, 0
3, 500640, Note_off_c, 2, 90, 0
3, 500640, Note_off_c, 2, 34, 0
3, 500640, Note_off_c, 2, 39, 0
3, 500640, Note_off_c, 2, 42, 0
3, 500640, Note_off_c, 2, 46, 0
3, 500640, Note_off_c, 2, 51, 0
3, 500640, Note_off_c, 2, 54, 0
3, 500640, Note_off_c, 2, 58, 0
3, 500640, Note_off_c, 2, 63, 0
3, 500640, Note_off_c, 2, 66, 0
3, 500640, Note_off_c, 2, 70, 0
3, 500640, Note_off_c, 2, 75, 0
3, 500640, Note_off_c, 2, 78, 0
3, 500640, End_track
4, 0, Start_track
4, 0, Title_t, "Grand Piano (Classic)"
4, 0, Program_c, 3, 0
4, 307200, Note_on_c, 3, 76, 17
4, 307200, Note_on_c, 3, 64, 17
4, 307584, Note_off_c, 3, 64, 0
4, 307584, Note_off_c, 3, 76, 0
4, 307584, Note_on_c, 3, 72, 17
4, 307584, Note_on_c, 3, 60, 17
4, 307968, Note_off_c, 3, 60, 0
4, 307968, Note_off_c, 3, 72, 0
4, 307968, Note_on_c, 3, 69, 17
4, 307968, Note_on_c, 3, 57, 17
4, 308352, Note_off_c, 3, 57, 0
4, 308352, Note_off_c, 3, 69, 0
4, 308352, Note_on_c, 3, 52, 17
4, 308352, Note_on_c, 3, 64, 17
4, 308736, Note_off_c, 3, 64, 0
4, 308736, Note_off_c, 3, 52, 0
4, 308736, Note_on_c, 3, 60, 17
4, 308736, Note_on_c, 3, 48, 17
4, 309120, Note_off_c, 3, 48, 0
4, 309120, Note_off_c, 3, 60, 0
4, 309120, Note_on_c, 3, 45, 17
4, 309120, Note_on_c, 3, 57, 17
4, 309504, Note_off_c, 3, 57, 0
4, 309504, Note_off_c, 3, 45, 0
4, 309504, Note_on_c, 3, 52, 17
4, 309504, Note_on_c, 3, 40, 17
4, 309888, Note_off_c, 3, 40, 0
4, 309888, Note_off_c, 3, 52, 0
4, 309888, Note_on_c, 3, 36, 17
4, 309888, Note_on_c, 3, 48, 17
4, 310272, Note_off_c, 3, 48, 0
4, 310272, Note_off_c, 3, 36, 0
4, 310272, Note_on_c, 3, 33, 17
4, 310272, Note_on_c, 3, 45, 17
4, 310656, Note_off_c, 3, 45, 0
4, 310656, Note_off_c, 3, 33, 0
4, 310656, Note_on_c, 3, 48, 17
4, 310656, Note_on_c, 3, 36, 17
4, 311040, Note_off_c, 3, 36, 0
4, 311040, Note_off_c, 3, 48, 0
4, 311040, Note_on_c, 3, 52, 17
4, 311040, Note_on_c, 3, 40, 17
4, 311424, Note_off_c, 3, 40, 0
4, 311424, Note_off_c, 3, 52, 0
4, 311424, Note_on_c, 3, 57, 17
4, 311424, Note_on_c, 3, 45, 17
4, 311808, Note_off_c, 3, 45, 0
4, 311808, Note_off_c, 3, 57, 0
4, 311808, Note_on_c, 3, 60, 17
4, 311808, Note_on_c, 3, 48, 17
4, 312192, Note_off_c, 3, 48, 0
4, 312192, Note_off_c, 3, 60, 0
4, 312192, Note_on_c, 3, 64, 17
4, 312192, Note_on_c, 3, 52, 17
4, 312576, Note_off_c, 3, 52, 0
4, 312576, Note_off_c, 3, 64, 0
4, 312576, Note_on_c, 3, 69, 17
4, 312576, Note_on_c, 3, 57, 17
4, 312960, Note_off_c, 3, 57, 0
4, 312960, Note_off_c, 3, 69, 0
4, 312960, Note_on_c, 3, 60, 17
4, 312960, Note_on_c, 3, 72, 17
4, 313344, Note_off_c, 3, 72, 0
4, 313344, Note_off_c, 3, 60, 0
4, 313344, Note_on_c, 3, 64, 17
4, 313344, Note_on_c, 3, 76, 17
4, 313728, Note_off_c, 3, 76, 0
4, 313728, Note_off_c, 3, 64, 0
4, 313728, Note_on_c, 3, 72, 17
4, 313728, Note_on_c, 3, 60, 17
4, 314112, Note_off_c, 3, 60, 0
4, 314112, Note_off_c, 3, 72, 0
4, 314112, Note_on_c, 3, 69, 17
4, 314112, Note_on_c, 3, 57, 17
4, 314496, Note_off_c, 3, 57, 0
4, 314496, Note_off_c, 3, 69, 0
4, 314496, Note_on_c, 3, 52, 17
4, 314496, Note_on_c, 3, 64, 17
4, 314880, Note_off_c, 3, 64, 0
4, 314880, Note_off_c, 3, 52, 0
4, 314880, Note_on_c, 3, 60, 17
4, 314880, Note_on_c, 3, 48, 17
4, 315264, Note_off_c, 3, 48, 0
4, 315264, Note_off_c, 3, 60, 0
4, 315264, Note_on_c, 3, 45, 17
4, 315264, Note_on_c, 3, 57, 17
4, 315648, Note_off_c, 3, 57, 0
4, 315648, Note_off_c, 3, 45, 0
4, 315648, Note_on_c, 3, 52, 17
4, 315648, Note_on_c, 3, 40, 17
4, 316032, Note_off_c, 3, 40, 0
4, 316032, Note_off_c, 3, 52, 0
4, 316032, Note_on_c, 3, 36, 17
4, 316032, Note_on_c, 3, 48, 17
4, 316416, Note_off_c, 3, 48, 0
4, 316416, Note_off_c, 3, 36, 0
4, 316416, Note_on_c, 3, 45, 17
4, 316416, Note_on_c, 3, 33, 17
4, 316800, Note_off_c, 3, 33, 0
4, 316800, Note_off_c, 3, 45, 0
4, 316800, Note_on_c, 3, 48, 17
4, 316800, Note_on_c, 3, 36, 17
4, 317184, Note_off_c, 3, 36, 0
4, 317184, Note_off_c, 3, 48, 0
4, 317184, Note_on_c, 3, 52, 17
4, 317184, Note_on_c, 3, 40, 17
4, 317568, Note_off_c, 3, 40, 0
4, 317568, Note_off_c, 3, 52, 0
4, 317568, Note_on_c, 3, 57, 17
4, 317568, Note_on_c, 3, 45, 17
4, 317952, Note_off_c, 3, 45, 0
4, 317952, Note_off_c, 3, 57, 0
4, 317952, Note_on_c, 3, 60, 17
4, 317952, Note_on_c, 3, 48, 17
4, 318336, Note_off_c, 3, 48, 0
4, 318336, Note_off_c, 3, 60, 0
4, 318336, Note_on_c, 3, 64, 17
4, 318336, Note_on_c, 3, 52, 17
4, 318720, Note_off_c, 3, 52, 0
4, 318720, Note_off_c, 3, 64, 0
4, 318720, Note_on_c, 3, 69, 17
4, 318720, Note_on_c, 3, 57, 17
4, 319104, Note_off_c, 3, 57, 0
4, 319104, Note_off_c, 3, 69, 0
4, 319104, Note_on_c, 3, 60, 17
4, 319104, Note_on_c, 3, 72, 17
4, 319488, Note_off_c, 3, 72, 0
4, 319488, Note_off_c, 3, 60, 0
4, 319488, Note_on_c, 3, 64, 17
4, 319488, Note_on_c, 3, 76, 17
4, 319872, Note_off_c, 3, 76, 0
4, 319872, Note_off_c, 3, 64, 0
4, 319872, Note_on_c, 3, 71, 17
4, 319872, Note_on_c, 3, 59, 17
4, 320256, Note_off_c, 3, 59, 0
4, 320256, Note_off_c, 3, 71, 0
4, 320256, Note_on_c, 3, 68, 17
4, 320256, Note_on_c, 3, 56, 17
4, 320640, Note_off_c, 3, 56, 0
4, 320640, Note_off_c, 3, 68, 0
4, 320640, Note_on_c, 3, 52, 17
4, 320640, Note_on_c, 3, 64, 17
4, 321024, Note_off_c, 3, 64, 0
4, 321024, Note_off_c, 3, 52, 0
4, 321024, Note_on_c, 3, 59, 17
4, 321024, Note_on_c, 3, 47, 17
4, 321408, Note_off_c, 3, 47, 0
4, 321408, Note_off_c, 3, 59, 0
4, 321408, Note_on_c, 3, 44, 17
4, 321408, Note_on_c, 3, 56, 17
4, 321792, Note_off_c, 3, 56, 0
4, 321792, Note_off_c, 3, 44, 0
4, 321792, Note_on_c, 3, 52, 17
4, 321792, Note_on_c, 3, 40, 17
4, 322176, Note_off_c, 3, 40, 0
4, 322176, Note_off_c, 3, 52, 0
4, 322176, Note_on_c, 3, 35, 17
4, 322176, Note_on_c, 3, 47, 17
4, 322560, Note_off_c, 3, 47, 0
4, 322560, Note_off_c, 3, 35, 0
4, 322560, Note_on_c, 3, 45, 17
4, 322560, Note_on_c, 3, 33, 17
4, 322944, Note_off_c, 3, 33, 0
4, 322944, Note_off_c, 3, 45, 0
4, 322944, Note_on_c, 3, 48, 17
4, 322944, Note_on_c, 3, 36, 17
4, 323328, Note_off_c, 3, 36, 0
4, 323328, Note_off_c, 3, 48, 0
4, 323328, Note_on_c, 3, 52, 17
4, 323328, Note_on_c, 3, 40, 17
4, 323712, Note_off_c, 3, 40, 0
4, 323712, Note_off_c, 3, 52, 0
4, 323712, Note_on_c, 3, 57, 17
4, 323712, Note_on_c, 3, 45, 17
4, 324096, Note_off_c, 3, 45, 0
4, 324096, Note_off_c, 3, 57, 0
4, 324096, Note_on_c, 3, 48, 17
4, 324096, Note_on_c, 3, 60, 17
4, 324480, Note_off_c, 3, 60, 0
4, 324480, Note_off_c, 3, 48, 0
4, 324480, Note_on_c, 3, 52, 17
4, 324480, Note_on_c, 3, 64, 17
4, 324864, Note_off_c, 3, 64, 0
4, 324864, Note_off_c, 3, 52, 0
4, 324864, Note_on_c, 3, 57, 17
4, 324864, Note_on_c, 3, 69, 17
4, 325248, Note_off_c, 3, 69, 0
4, 325248, Note_off_c, 3, 57, 0
4, 325248, Note_on_c, 3, 72, 17
4, 325248, Note_on_c, 3, 60, 17
4, 325632, Note_off_c, 3, 60, 0
4, 325632, Note_off_c, 3, 72, 0
4, 325632, Note_on_c, 3, 75, 17
4, 325632, Note_on_c, 3, 63, 17
4, 326016, Note_off_c, 3, 63, 0
4, 326016, Note_off_c, 3, 75, 0
4, 326016, Note_on_c, 3, 71, 17
4, 326016, Note_on_c, 3, 59, 17
4, 326400, Note_off_c, 3, 59, 0
4, 326400, Note_off_c, 3, 71, 0
4, 326400, Note_on_c, 3, 66, 17
4, 326400, Note_on_c, 3, 54, 17
4, 326784, Note_off_c, 3, 54, 0
4, 326784, Note_off_c, 3, 66, 0
4, 326784, Note_on_c, 3, 63, 17
4, 326784, Note_on_c, 3, 51, 17
4, 327168, Note_off_c, 3, 51, 0
4, 327168, Note_off_c, 3, 63, 0
4, 327168, Note_on_c, 3, 59, 17
4, 327168, Note_on_c, 3, 47, 17
4, 327552, Note_off_c, 3, 47, 0
4, 327552, Note_off_c, 3, 59, 0
4, 327552, Note_on_c, 3, 54, 17
4, 327552, Note_on_c, 3, 42, 17
4, 327936, Note_off_c, 3, 42, 0
4, 327936, Note_off_c, 3, 54, 0
4, 327936, Note_on_c, 3, 51, 17
4, 327936, Note_on_c, 3, 39, 17
4, 328320, Note_off_c, 3, 39, 0
4, 328320, Note_off_c, 3, 51, 0
4, 328320, Note_on_c, 3, 54, 17
4, 328320, Note_on_c, 3, 35, 17
4, 328320, Note_on_c, 3, 42, 17
4, 328320, Note_on_c, 3, 47, 17
4, 328704, Note_off_c, 3, 47, 0
4, 328704, Note_off_c, 3, 42, 0
4, 328704, Note_off_c, 3, 35, 0
4, 328704, Note_off_c, 3, 54, 0
4, 328704, Note_on_c, 3, 56, 17
4, 328704, Note_on_c, 3, 32, 17
4, 328704, Note_on_c, 3, 44, 17
4, 329088, Note_off_c, 3, 44, 0
4, 329088, Note_off_c, 3, 32, 0
4, 329088, Note_off_c, 3, 56, 0
4, 331776, Note_on_c, 3, 76, 17
4, 331776, Note_on_c, 3, 64, 17
4, 332160, Note_off_c, 3, 64, 0
4, 332160, Note_off_c, 3, 76, 0
4, 332160, Note_on_c, 3, 72, 17
4, 332160, Note_on_c, 3, 60, 17
4, 332544, Note_off_c, 3, 60, 0
4, 332544, Note_off_c, 3, 72, 0
4, 332544, Note_on_c, 3, 69, 17
4, 332544, Note_on_c, 3, 57, 17
4, 332928, Note_off_c, 3, 57, 0
4, 332928, Note_off_c, 3, 69, 0
4, 332928, Note_on_c, 3, 52, 17
4, 332928, Note_on_c, 3, 64, 17
4, 333312, Note_off_c, 3, 64, 0
4, 333312, Note_off_c, 3, 52, 0
4, 333312, Note_on_c, 3, 60, 17
4, 333312, Note_on_c, 3, 48, 17
4, 333696, Note_off_c, 3, 48, 0
4, 333696, Note_off_c, 3, 60, 0
4, 333696, Note_on_c, 3, 45, 17
4, 333696, Note_on_c, 3, 57, 17
4, 334080, Note_off_c, 3, 57, 0
4, 334080, Note_off_c, 3, 45, 0
4, 334080, Note_on_c, 3, 52, 17
4, 334080, Note_on_c, 3, 40, 17
4, 334464, Note_off_c, 3, 40, 0
4, 334464, Note_off_c, 3, 52, 0
4, 334464, Note_on_c, 3, 36, 17
4, 334464, Note_on_c, 3, 48, 17
4, 334848, Note_off_c, 3, 48, 0
4, 334848, Note_off_c, 3, 36, 0
4, 334848, Note_on_c, 3, 33, 17
4, 334848, Note_on_c, 3, 45, 17
4, 335232, Note_off_c, 3, 45, 0
4, 335232, Note_off_c, 3, 33, 0
4, 335232, Note_on_c, 3, 48, 17
4, 335232, Note_on_c, 3, 36, 17
4, 335616, Note_off_c, 3, 36, 0
4, 335616, Note_off_c, 3, 48, 0
4, 335616, Note_on_c, 3, 52, 17
4, 335616, Note_on_c, 3, 40, 17
4, 336000, Note_off_c, 3, 40, 0
4, 336000, Note_off_c, 3, 52, 0
4, 336000, Note_on_c, 3, 57, 17
4, 336000, Note_on_c, 3, 45, 17
4, 336384, Note_off_c, 3, 45, 0
4, 336384, Note_off_c, 3, 57, 0
4, 336384, Note_on_c, 3, 60, 17
4, 336384, Note_on_c, 3, 48, 17
4, 336768, Note_off_c, 3, 48, 0
4, 336768, Note_off_c, 3, 60, 0
4, 336768, Note_on_c, 3, 64, 17
4, 336768, Note_on_c, 3, 52, 17
4, 337152, Note_off_c, 3, 52, 0
4, 337152, Note_off_c, 3, 64, 0
4, 337152, Note_on_c, 3, 69, 17
4, 337152, Note_on_c, 3, 57, 17
4, 337536, Note_off_c, 3, 57, 0
4, 337536, Note_off_c, 3, 69, 0
4, 337536, Note_on_c, 3, 60, 17
4, 337536, Note_on_c, 3, 72, 17
4, 337920, Note_off_c, 3, 72, 0
4, 337920, Note_off_c, 3, 60, 0
4, 337920, Note_on_c, 3, 64, 17
4, 337920, Note_on_c, 3, 76, 17
4, 338304, Note_off_c, 3, 76, 0
4, 338304, Note_off_c, 3, 64, 0
4, 338304, Note_on_c, 3, 72, 17
4, 338304, Note_on_c, 3, 60, 17
4, 338688, Note_off_c, 3, 60, 0
4, 338688, Note_off_c, 3, 72, 0
4, 338688, Note_on_c, 3, 69, 17
4, 338688, Note_on_c, 3, 57, 17
4, 339072, Note_off_c, 3, 57, 0
4, 339072, Note_off_c, 3, 69, 0
4, 339072, Note_on_c, 3, 52, 17
4, 339072, Note_on_c, 3, 64, 17
4, 339456, Note_off_c, 3, 64, 0
4, 339456, Note_off_c, 3, 52, 0
4, 339456, Note_on_c, 3, 60, 17
4, 339456, Note_on_c, 3, 48, 17
4, 339840, Note_off_c, 3, 48, 0
4, 339840, Note_off_c, 3, 60, 0
4, 339840, Note_on_c, 3, 45, 17
4, 339840, Note_on_c, 3, 57, 17
4, 340224, Note_off_c, 3, 57, 0
4, 340224, Note_off_c, 3, 45, 0
4, 340224, Note_on_c, 3, 52, 17
4, 340224, Note_on_c, 3, 40, 17
4, 340608, Note_off_c, 3, 40, 0
4, 340608, Note_off_c, 3, 52, 0
4, 340608, Note_on_c, 3, 36, 17
4, 340608, Note_on_c, 3, 48, 17
4, 340992, Note_off_c, 3, 48, 0
4, 340992, Note_off_c, 3, 36, 0
4, 340992, Note_on_c, 3, 45, 17
4, 340992, Note_on_c, 3, 33, 17
4, 341376, Note_off_c, 3, 33, 0
4, 341376, Note_off_c, 3, 45, 0
4, 341376, Note_on_c, 3, 48, 17
4, 341376, Note_on_c, 3, 36, 17
4, 341760, Note_off_c, 3, 36, 0
4, 341760, Note_off_c, 3, 48, 0
4, 341760, Note_on_c, 3, 52, 17
4, 341760, Note_on_c, 3, 40, 17
4, 342144, Note_off_c, 3, 40, 0
4, 342144, Note_off_c, 3, 52, 0
4, 342144, Note_on_c, 3, 57, 17
4, 342144, Note_on_c, 3, 45, 17
4, 342528, Note_off_c, 3, 45, 0
4, 342528, Note_off_c, 3, 57, 0
4, 342528, Note_on_c, 3, 60, 17
4, 342528, Note_on_c, 3, 48, 17
4, 342912, Note_off_c, 3, 48, 0
4, 342912, Note_off_c, 3, 60, 0
4, 342912, Note_on_c, 3, 64, 17
4, 342912, Note_on_c, 3, 52, 17
4, 343296, Note_off_c, 3, 52, 0
4, 343296, Note_off_c, 3, 64, 0
4, 343296, Note_on_c, 3, 69, 17
4, 343296, Note_on_c, 3, 57, 17
4, 343680, Note_off_c, 3, 57, 0
4, 343680, Note_off_c, 3, 69, 0
4, 343680, Note_on_c, 3, 60, 17
4, 343680, Note_on_c, 3, 72, 17
4, 344064, Note_off_c, 3, 72, 0
4, 344064, Note_off_c, 3, 60, 0
4, 344064, Note_on_c, 3, 65, 17
4, 344064, Note_on_c, 3, 77, 17
4, 344448, Note_off_c, 3, 77, 0
4, 344448, Note_off_c, 3, 65, 0
4, 344448, Note_on_c, 3, 74, 17
4, 344448, Note_on_c, 3, 62, 17
4, 344832, Note_off_c, 3, 62, 0
4, 344832, Note_off_c, 3, 74, 0
4, 344832, Note_on_c, 3, 69, 17
4, 344832, Note_on_c, 3, 57, 17
4, 345216, Note_off_c, 3, 57, 0
4, 345216, Note_off_c, 3, 69, 0
4, 345216, Note_on_c, 3, 53, 17
4, 345216, Note_on_c, 3, 65, 17
4, 345600, Note_off_c, 3, 65, 0
4, 345600, Note_off_c, 3, 53, 0
4, 345600, Note_on_c, 3, 64, 17
4, 345600, Note_on_c, 3, 52, 17
4, 345984, Note_off_c, 3, 52, 0
4, 345984, Note_off_c, 3, 64, 0
4, 345984, Note_on_c, 3, 48, 17
4, 345984, Note_on_c, 3, 60, 17
4, 346368, Note_off_c, 3, 60, 0
4, 346368, Note_off_c, 3, 48, 0
4, 346368, Note_on_c, 3, 57, 17
4, 346368, Note_on_c, 3, 45, 17
4, 346752, Note_off_c, 3, 45, 0
4, 346752, Note_off_c, 3, 57, 0
4, 346752, Note_on_c, 3, 40, 17
4, 346752, Note_on_c, 3, 52, 17
4, 347136, Note_off_c, 3, 52, 0
4, 347136, Note_off_c, 3, 40, 0
4, 347136, Note_on_c, 3, 35, 17
4, 347136, Note_on_c, 3, 47, 17
4, 347520, Note_off_c, 3, 47, 0
4, 347520, Note_off_c, 3, 35, 0
4, 347520, Note_on_c, 3, 40, 17
4, 347520, Note_on_c, 3, 52, 17
4, 347904, Note_off_c, 3, 52, 0
4, 347904, Note_off_c, 3, 40, 0
4, 347904, Note_on_c, 3, 44, 17
4, 347904, Note_on_c, 3, 56, 17
4, 348288, Note_off_c, 3, 56, 0
4, 348288, Note_off_c, 3, 44, 0
4, 348288, Note_on_c, 3, 47, 17
4, 348288, Note_on_c, 3, 59, 17
4, 348672, Note_off_c, 3, 59, 0
4, 348672, Note_off_c, 3, 47, 0
4, 348672, Note_on_c, 3, 48, 17
4, 348672, Note_on_c, 3, 60, 17
4, 349056, Note_off_c, 3, 60, 0
4, 349056, Note_off_c, 3, 48, 0
4, 349056, Note_on_c, 3, 52, 17
4, 349056, Note_on_c, 3, 64, 17
4, 349056, Note_on_c, 3, 52, 17
4, 349056, Note_on_c, 3, 64, 17
4, 349440, Note_off_c, 3, 64, 0
4, 349440, Note_off_c, 3, 52, 0
4, 349440, Note_off_c, 3, 64, 0
4, 349440, Note_off_c, 3, 52, 0
4, 349440, Note_on_c, 3, 57, 17
4, 349440, Note_on_c, 3, 69, 17
4, 349440, Note_on_c, 3, 57, 17
4, 349440, Note_on_c, 3, 69, 17
4, 349824, Note_off_c, 3, 69, 0
4, 349824, Note_off_c, 3, 57, 0
4, 349824, Note_off_c, 3, 69, 0
4, 349824, Note_off_c, 3, 57, 0
4, 349824, Note_on_c, 3, 60, 17
4, 349824, Note_on_c, 3, 72, 17
4, 349824, Note_on_c, 3, 60, 17
4, 349824, Note_on_c, 3, 72, 17
4, 350208, Note_off_c, 3, 72, 0
4, 350208, Note_off_c, 3, 60, 0
4, 350208, Note_off_c, 3, 72, 0
4, 350208, Note_off_c, 3, 60, 0
4, 350208, Note_on_c, 3, 63, 17
4, 350208, Note_on_c, 3, 75, 17
4, 350208, Note_on_c, 3, 63, 17
4, 350208, Note_on_c, 3, 75, 17
4, 350592, Note_off_c, 3, 75, 0
4, 350592, Note_off_c, 3, 63, 0
4, 350592, Note_off_c, 3, 75, 0
4, 350592, Note_off_c, 3, 63, 0
4, 350592, Note_on_c, 3, 59, 17
4, 350592, Note_on_c, 3, 71, 17
4, 350592, Note_on_c, 3, 59, 17
4, 350592, Note_on_c, 3, 71, 17
4, 350976, Note_off_c, 3, 71, 0
4, 350976, Note_off_c, 3, 59, 0
4, 350976, Note_off_c, 3, 71, 0
4, 350976, Note_off_c, 3, 59, 0
4, 350976, Note_on_c, 3, 56, 17
4, 350976, Note_on_c, 3, 68, 17
4, 350976, Note_on_c, 3, 42, 17
4, 350976, Note_on_c, 3, 30, 17
4, 350976, Note_on_c, 3, 42, 17
4, 350976, Note_on_c, 3, 40, 17
4, 350976, Note_on_c, 3, 50, 17
4, 351360, Note_off_c, 3, 50, 0
4, 351360, Note_off_c, 3, 40, 0
4, 351360, Note_off_c, 3, 42, 0
4, 351360, Note_off_c, 3, 30, 0
4, 351360, Note_off_c, 3, 42, 0
4, 351360, Note_off_c, 3, 68, 0
4, 351360, Note_off_c, 3, 56, 0
4, 351360, Note_on_c, 3, 52, 17
4, 351360, Note_on_c, 3, 64, 17
4, 351744, Note_off_c, 3, 64, 0
4, 351744, Note_off_c, 3, 52, 0
4, 351744, Note_on_c, 3, 47, 17
4, 351744, Note_on_c, 3, 59, 17
4, 352128, Note_off_c, 3, 59, 0
4, 352128, Note_off_c, 3, 47, 0
4, 352128, Note_on_c, 3, 44, 17
4, 352128, Note_on_c, 3, 56, 17
4, 352512, Note_off_c, 3, 56, 0
4, 352512, Note_off_c, 3, 44, 0
4, 352512, Note_on_c, 3, 44, 17
4, 352512, Note_on_c, 3, 40, 17
4, 352512, Note_on_c, 3, 50, 17
4, 352896, Note_off_c, 3, 50, 0
4, 352896, Note_off_c, 3, 40, 0
4, 352896, Note_off_c, 3, 44, 0
4, 352896, Note_on_c, 3, 35, 17
4, 352896, Note_on_c, 3, 47, 17
4, 353280, Note_off_c, 3, 47, 0
4, 353280, Note_off_c, 3, 35, 0
4, 353280, Note_on_c, 3, 33, 17
4, 353280, Note_on_c, 3, 45, 17
4, 353280, Note_on_c, 3, 48, 17
4, 353664, Note_off_c, 3, 48, 0
4, 353664, Note_off_c, 3, 45, 0
4, 353664, Note_off_c, 3, 33, 0
4, 377856, Note_on_c, 3, 95, 38
4, 377856, Note_on_c, 3, 94, 38
4, 377856, Note_on_c, 3, 93, 38
4, 377856, Note_on_c, 3, 92, 38
4, 377856, Note_on_c, 3, 91, 38
4, 377856, Note_on_c, 3, 90, 38
4, 377856, Note_on_c, 3, 88, 38
4, 377856, Note_on_c, 3, 89, 38
4, 377856, Note_on_c, 3, 87, 38
4, 377856, Note_on_c, 3, 86, 38
4, 377856, Note_on_c, 3, 85, 38
4, 377856, Note_on_c, 3, 84, 38
4, 377856, Note_on_c, 3, 83, 38
4, 377856, Note_on_c, 3, 81, 38
4, 377856, Note_on_c, 3, 82, 38
4, 377856, Note_on_c, 3, 79, 38
4, 377856, Note_on_c, 3, 80, 38
4, 377856, Note_on_c, 3, 78, 38
4, 377856, Note_on_c, 3, 76, 38
4, 377856, Note_on_c, 3, 77, 38
4, 377856, Note_on_c, 3, 75, 38
4, 377856, Note_on_c, 3, 74, 38
4, 377856, Note_on_c, 3, 72, 38
4, 377856, Note_on_c, 3, 69, 38
4, 377856, Note_on_c, 3, 65, 38
4, 377856, Note_on_c, 3, 59, 38
4, 377856, Note_on_c, 3, 55, 38
4, 377856, Note_on_c, 3, 51, 38
4, 377856, Note_on_c, 3, 49, 38
4, 377856, Note_on_c, 3, 62, 38
4, 377856, Note_on_c, 3, 63, 38
4, 377856, Note_on_c, 3, 64, 38
4, 377856, Note_on_c, 3, 67, 38
4, 377856, Note_on_c, 3, 66, 38
4, 377856, Note_on_c, 3, 68, 38
4, 377856, Note_on_c, 3, 70, 38
4, 377856, Note_on_c, 3, 71, 38
4, 377856, Note_on_c, 3, 73, 38
4, 377856, Note_on_c, 3, 61, 38
4, 377856, Note_on_c, 3, 60, 38
4, 377856, Note_on_c, 3, 58, 38
4, 377856, Note_on_c, 3, 57, 38
4, 377856, Note_on_c, 3, 56, 38
4, 377856, Note_on_c, 3, 53, 38
4, 377856, Note_on_c, 3, 54, 38
4, 377856, Note_on_c, 3, 52, 38
4, 377856, Note_on_c, 3, 50, 38
4, 377856, Note_on_c, 3, 48, 38
4, 377856, Note_on_c, 3, 47, 38
4, 377856, Note_on_c, 3, 46, 38
4, 377856, Note_on_c, 3, 45, 38
4, 377856, Note_on_c, 3, 44, 38
4, 377856, Note_on_c, 3, 42, 38
4, 377856, Note_on_c, 3, 43, 38
4, 377856, Note_on_c, 3, 41, 38
4, 377856, Note_on_c, 3, 40, 38
4, 377856, Note_on_c, 3, 39, 38
4, 377856, Note_on_c, 3, 38, 38
4, 377856, Note_on_c, 3, 37, 38
4, 377856, Note_on_c, 3, 36, 38
4, 377856, Note_on_c, 3, 35, 38
4, 377856, Note_on_c, 3, 34, 38
4, 377856, Note_on_c, 3, 32, 38
4, 377856, Note_on_c, 3, 33, 38
4, 377856, Note_on_c, 3, 31, 38
4, 377856, Note_on_c, 3, 30, 38
4, 377856, Note_on_c, 3, 29, 38
4, 377856, Note_on_c, 3, 28, 38
4, 377856, Note_on_c, 3, 27, 38
4, 377856, Note_on_c, 3, 25, 38
4, 377856, Note_on_c, 3, 26, 38
4, 377856, Note_on_c, 3, 24, 38
4, 378240, Note_off_c, 3, 24, 0
4, 378240, Note_off_c, 3, 26, 0
4, 378240, Note_off_c, 3, 25, 0
4, 378240, Note_off_c, 3, 27, 0
4, 378240, Note_off_c, 3, 28, 0
4, 378240, Note_off_c, 3, 29, 0
4, 378240, Note_off_c, 3, 30, 0
4, 378240, Note_off_c, 3, 31, 0
4, 378240, Note_off_c, 3, 33, 0
4, 378240, Note_off_c, 3, 32, 0
4, 378240, Note_off_c, 3, 34, 0
4, 378240, Note_off_c, 3, 35, 0
4, 378240, Note_off_c, 3, 36, 0
4, 378240, Note_off_c, 3, 37, 0
4, 378240, Note_off_c, 3, 38, 0
4, 378240, Note_off_c, 3, 39, 0
4, 378240, Note_off_c, 3, 40, 0
4, 378240, Note_off_c, 3, 41, 0
4, 378240, Note_off_c, 3, 43, 0
4, 378240, Note_off_c, 3, 42, 0
4, 378240, Note_off_c, 3, 44, 0
4, 378240, Note_off_c, 3, 45, 0
4, 378240, Note_off_c, 3, 46, 0
4, 378240, Note_off_c, 3, 47, 0
4, 378240, Note_off_c, 3, 48, 0
4, 378240, Note_off_c, 3, 50, 0
4, 378240, Note_off_c, 3, 52, 0
4, 378240, Note_off_c, 3, 54, 0
4, 378240, Note_off_c, 3, 53, 0
4, 378240, Note_off_c, 3, 56, 0
4, 378240, Note_off_c, 3, 57, 0
4, 378240, Note_off_c, 3, 58, 0
4, 378240, Note_off_c, 3, 60, 0
4, 378240, Note_off_c, 3, 61, 0
4, 378240, Note_off_c, 3, 73, 0
4, 378240, Note_off_c, 3, 71, 0
4, 378240, Note_off_c, 3, 70, 0
4, 378240, Note_off_c, 3, 68, 0
4, 378240, Note_off_c, 3, 66, 0
4, 378240, Note_off_c, 3, 67, 0
4, 378240, Note_off_c, 3, 64, 0
4, 378240, Note_off_c, 3, 63, 0
4, 378240, Note_off_c, 3, 62, 0
4, 378240, Note_off_c, 3, 49, 0
4, 378240, Note_off_c, 3, 51, 0
4, 378240, Note_off_c, 3, 55, 0
4, 378240, Note_off_c, 3, 59, 0
4, 378240, Note_off_c, 3, 65, 0
4, 378240, Note_off_c, 3, 69, 0
4, 378240, Note_off_c, 3, 72, 0
4, 378240, Note_off_c, 3, 74, 0
4, 378240, Note_off_c, 3, 75, 0
4, 378240, Note_off_c, 3, 77, 0
4, 378240, Note_off_c, 3, 76, 0
4, 378240, Note_off_c, 3, 78, 0
4, 378240, Note_off_c, 3, 80, 0
4, 378240, Note_off_c, 3, 79, 0
4, 378240, Note_off_c, 3, 82, 0
4, 378240, Note_off_c, 3, 81, 0
4, 378240, Note_off_c, 3, 83, 0
4, 378240, Note_off_c, 3, 84, 0
4, 378240, Note_off_c, 3, 85, 0
4, 378240, Note_off_c, 3, 86, 0
4, 378240, Note_off_c, 3, 87, 0
4, 378240, Note_off_c, 3, 89, 0
4, 378240, Note_off_c, 3, 88, 0
4, 378240, Note_off_c, 3, 90, 0
4, 378240, Note_off_c, 3, 91, 0
4, 378240, Note_off_c, 3, 92, 0
4, 378240, Note_off_c, 3, 93, 0
4, 378240, Note_off_c, 3, 94, 0
4, 378240, Note_off_c, 3, 95, 0
4, 378624, Note_on_c, 3, 95, 15
4, 378624, Note_on_c, 3, 94, 15
4, 378624, Note_on_c, 3, 93, 15
4, 378624, Note_on_c, 3, 92, 15
4, 378624, Note_on_c, 3, 91, 15
4, 378624, Note_on_c, 3, 90, 15
4, 378624, Note_on_c, 3, 88, 15
4, 378624, Note_on_c, 3, 89, 15
4, 378624, Note_on_c, 3, 87, 15
4, 378624, Note_on_c, 3, 86, 15
4, 378624, Note_on_c, 3, 85, 15
4, 378624, Note_on_c, 3, 84, 15
4, 378624, Note_on_c, 3, 83, 15
4, 378624, Note_on_c, 3, 81, 15
4, 378624, Note_on_c, 3, 82, 15
4, 378624, Note_on_c, 3, 79, 15
4, 378624, Note_on_c, 3, 80, 15
4, 378624, Note_on_c, 3, 78, 15
4, 378624, Note_on_c, 3, 76, 15
4, 378624, Note_on_c, 3, 77, 15
4, 378624, Note_on_c, 3, 75, 15
4, 378624, Note_on_c, 3, 74, 15
4, 378624, Note_on_c, 3, 72, 15
4, 378624, Note_on_c, 3, 69, 15
4, 378624, Note_on_c, 3, 65, 15
4, 378624, Note_on_c, 3, 59, 15
4, 378624, Note_on_c, 3, 55, 15
4, 378624, Note_on_c, 3, 51, 15
4, 378624, Note_on_c, 3, 49, 15
4, 378624, Note_on_c, 3, 62, 15
4, 378624, Note_on_c, 3, 63, 15
4, 378624, Note_on_c, 3, 64, 15
4, 378624, Note_on_c, 3, 67, 15
4, 378624, Note_on_c, 3, 66, 15
4, 378624, Note_on_c, 3, 68, 15
4, 378624, Note_on_c, 3, 70, 15
4, 378624, Note_on_c, 3, 71, 15
4, 378624, Note_on_c, 3, 73, 15
4, 378624, Note_on_c, 3, 61, 15
4, 378624, Note_on_c, 3, 60, 15
4, 378624, Note_on_c, 3, 58, 15
4, 378624, Note_on_c, 3, 57, 15
4, 378624, Note_on_c, 3, 56, 15
4, 378624, Note_on_c, 3, 53, 15
4, 378624, Note_on_c, 3, 54, 15
4, 378624, Note_on_c, 3, 52, 15
4, 378624, Note_on_c, 3, 50, 15
4, 378624, Note_on_c, 3, 48, 15
4, 378624, Note_on_c, 3, 47, 15
4, 378624, Note_on_c, 3, 46, 15
4, 378624, Note_on_c, 3, 45, 15
4, 378624, Note_on_c, 3, 44, 15
4, 378624, Note_on_c, 3, 42, 15
4, 378624, Note_on_c, 3, 43, 15
4, 378624, Note_on_c, 3, 41, 15
4, 378624, Note_on_c, 3, 40, 15
4, 378624, Note_on_c, 3, 39, 15
4, 378624, Note_on_c, 3, 38, 15
4, 378624, Note_on_c, 3, 37, 15
4, 378624, Note_on_c, 3, 36, 15
4, 378624, Note_on_c, 3, 35, 15
4, 378624, Note_on_c, 3, 34, 15
4, 378624, Note_on_c, 3, 32, 15
4, 378624, Note_on_c, 3, 33, 15
4, 378624, Note_on_c, 3, 31, 15
4, 378624, Note_on_c, 3, 30, 15
4, 378624, Note_on_c, 3, 29, 15
4, 378624, Note_on_c, 3, 28, 15
4, 378624, Note_on_c, 3, 27, 15
4, 378624, Note_on_c, 3, 25, 15
4, 378624, Note_on_c, 3, 26, 15
4, 378624, Note_on_c, 3, 24, 15
4, 379008, Note_off_c, 3, 24, 0
4, 379008, Note_off_c, 3, 26, 0
4, 379008, Note_off_c, 3, 25, 0
4, 379008, Note_off_c, 3, 27, 0
4, 379008, Note_off_c, 3, 28, 0
4, 379008, Note_off_c, 3, 29, 0
4, 379008, Note_off_c, 3, 30, 0
4, 379008, Note_off_c, 3, 31, 0
4, 379008, Note_off_c, 3, 33, 0
4, 379008, Note_off_c, 3, 32, 0
4, 379008, Note_off_c, 3, 34, 0
4, 379008, Note_off_c, 3, 35, 0
4, 379008, Note_off_c, 3, 36, 0
4, 379008, Note_off_c, 3, 37, 0
4, 379008, Note_off_c, 3, 38, 0
4, 379008, Note_off_c, 3, 39, 0
4, 379008, Note_off_c, 3, 40, 0
4, 379008, Note_off_c, 3, 41, 0
4, 379008, Note_off_c, 3, 43, 0
4, 379008, Note_off_c, 3, 42, 0
4, 379008, Note_off_c, 3, 44, 0
4, 379008, Note_off_c, 3, 45, 0
4, 379008, Note_off_c, 3, 46, 0
4, 379008, Note_off_c, 3, 47, 0
4, 379008, Note_off_c, 3, 48, 0
4, 379008, Note_off_c, 3, 50, 0
4, 379008, Note_off_c, 3, 52, 0
4, 379008, Note_off_c, 3, 54, 0
4, 379008, Note_off_c, 3, 53, 0
4, 379008, Note_off_c, 3, 56, 0
4, 379008, Note_off_c, 3, 57, 0
4, 379008, Note_off_c, 3, 58, 0
4, 379008, Note_off_c, 3, 60, 0
4, 379008, Note_off_c, 3, 61, 0
4, 379008, Note_off_c, 3, 73, 0
4, 379008, Note_off_c, 3, 71, 0
4, 379008, Note_off_c, 3, 70, 0
4, 379008, Note_off_c, 3, 68, 0
4, 379008, Note_off_c, 3, 66, 0
4, 379008, Note_off_c, 3, 67, 0
4, 379008, Note_off_c, 3, 64, 0
4, 379008, Note_off_c, 3, 63, 0
4, 379008, Note_off_c, 3, 62, 0
4, 379008, Note_off_c, 3, 49, 0
4, 379008, Note_off_c, 3, 51, 0
4, 379008, Note_off_c, 3, 55, 0
4, 379008, Note_off_c, 3, 59, 0
4, 379008, Note_off_c, 3, 65, 0
4, 379008, Note_off_c, 3, 69, 0
4, 379008, Note_off_c, 3, 72, 0
4, 379008, Note_off_c, 3, 74, 0
4, 379008, Note_off_c, 3, 75, 0
4, 379008, Note_off_c, 3, 77, 0
4, 379008, Note_off_c, 3, 76, 0
4, 379008, Note_off_c, 3, 78, 0
4, 379008, Note_off_c, 3, 80, 0
4, 379008, Note_off_c, 3, 79, 0
4, 379008, Note_off_c, 3, 82, 0
4, 379008, Note_off_c, 3, 81, 0
4, 379008, Note_off_c, 3, 83, 0
4, 379008, Note_off_c, 3, 84, 0
4, 379008, Note_off_c, 3, 85, 0
4, 379008, Note_off_c, 3, 86, 0
4, 379008, Note_off_c, 3, 87, 0
4, 379008, Note_off_c, 3, 89, 0
4, 379008, Note_off_c, 3, 88, 0
4, 379008, Note_off_c, 3, 90, 0
4, 379008, Note_off_c, 3, 91, 0
4, 379008, Note_off_c, 3, 92, 0
4, 379008, Note_off_c, 3, 93, 0
4, 379008, Note_off_c, 3, 94, 0
4, 379008, Note_off_c, 3, 95, 0
4, 379392, Note_on_c, 3, 95, 15
4, 379392, Note_on_c, 3, 94, 15
4, 379392, Note_on_c, 3, 93, 15
4, 379392, Note_on_c, 3, 92, 15
4, 379392, Note_on_c, 3, 91, 15
4, 379392, Note_on_c, 3, 90, 15
4, 379392, Note_on_c, 3, 88, 15
4, 379392, Note_on_c, 3, 89, 15
4, 379392, Note_on_c, 3, 87, 15
4, 379392, Note_on_c, 3, 86, 15
4, 379392, Note_on_c, 3, 85, 15
4, 379392, Note_on_c, 3, 84, 15
4, 379392, Note_on_c, 3, 83, 15
4, 379392, Note_on_c, 3, 81, 15
4, 379392, Note_on_c, 3, 82, 15
4, 379392, Note_on_c, 3, 79, 15
4, 379392, Note_on_c, 3, 80, 15
4, 379392, Note_on_c, 3, 78, 15
4, 379392, Note_on_c, 3, 76, 15
4, 379392, Note_on_c, 3, 77, 15
4, 379392, Note_on_c, 3, 75, 15
4, 379392, Note_on_c, 3, 74, 15
4, 379392, Note_on_c, 3, 72, 15
4, 379392, Note_on_c, 3, 69, 15
4, 379392, Note_on_c, 3, 65, 15
4, 379392, Note_on_c, 3, 59, 15
4, 379392, Note_on_c, 3, 55, 15
4, 379392, Note_on_c, 3, 51, 15
4, 379392, Note_on_c, 3, 49, 15
4, 379392, Note_on_c, 3, 62, 15
4, 379392, Note_on_c, 3, 63, 15
4, 379392, Note_on_c, 3, 64, 15
4, 379392, Note_on_c, 3, 67, 15
4, 379392, Note_on_c, 3, 66, 15
4, 379392, Note_on_c, 3, 68, 15
4, 379392, Note_on_c, 3, 70, 15
4, 379392, Note_on_c, 3, 71, 15
4, 379392, Note_on_c, 3, 73, 15
4, 379392, Note_on_c, 3, 61, 15
4, 379392, Note_on_c, 3, 60, 15
4, 379392, Note_on_c, 3, 58, 15
4, 379392, Note_on_c, 3, 57, 15
4, 379392, Note_on_c, 3, 56, 15
4, 379392, Note_on_c, 3, 53, 15
4, 379392, Note_on_c, 3, 54, 15
4, 379392, Note_on_c, 3, 52, 15
4, 379392, Note_on_c, 3, 50, 15
4, 379392, Note_on_c, 3, 48, 15
4, 379392, Note_on_c, 3, 47, 15
4, 379392, Note_on_c, 3, 46, 15
4, 379392, Note_on_c, 3, 45, 15
4, 379392, Note_on_c, 3, 44, 15
4, 379392, Note_on_c, 3, 42, 15
4, 379392, Note_on_c, 3, 43, 15
4, 379392, Note_on_c, 3, 41, 15
4, 379392, Note_on_c, 3, 40, 15
4, 379392, Note_on_c, 3, 39, 15
4, 379392, Note_on_c, 3, 38, 15
4, 379392, Note_on_c, 3, 37, 15
4, 379392, Note_on_c, 3, 36, 15
4, 379392, Note_on_c, 3, 35, 15
4, 379392, Note_on_c, 3, 34, 15
4, 379392, Note_on_c, 3, 32, 15
4, 379392, Note_on_c, 3, 33, 15
4, 379392, Note_on_c, 3, 31, 15
4, 379392, Note_on_c, 3, 30, 15
4, 379392, Note_on_c, 3, 29, 15
4, 379392, Note_on_c, 3, 28, 15
4, 379392, Note_on_c, 3, 27, 15
4, 379392, Note_on_c, 3, 25, 15
4, 379392, Note_on_c, 3, 26, 15
4, 379392, Note_on_c, 3, 24, 15
4, 379776, Note_off_c, 3, 24, 0
4, 379776, Note_off_c, 3, 26, 0
4, 379776, Note_off_c, 3, 25, 0
4, 379776, Note_off_c, 3, 27, 0
4, 379776, Note_off_c, 3, 28, 0
4, 379776, Note_off_c, 3, 29, 0
4, 379776, Note_off_c, 3, 30, 0
4, 379776, Note_off_c, 3, 31, 0
4, 379776, Note_off_c, 3, 33, 0
4, 379776, Note_off_c, 3, 32, 0
4, 379776, Note_off_c, 3, 34, 0
4, 379776, Note_off_c, 3, 35, 0
4, 379776, Note_off_c, 3, 36, 0
4, 379776, Note_off_c, 3, 37, 0
4, 379776, Note_off_c, 3, 38, 0
4, 379776, Note_off_c, 3, 39, 0
4, 379776, Note_off_c, 3, 40, 0
4, 379776, Note_off_c, 3, 41, 0
4, 379776, Note_off_c, 3, 43, 0
4, 379776, Note_off_c, 3, 42, 0
4, 379776, Note_off_c, 3, 44, 0
4, 379776, Note_off_c, 3, 45, 0
4, 379776, Note_off_c, 3, 46, 0
4, 379776, Note_off_c, 3, 47, 0
4, 379776, Note_off_c, 3, 48, 0
4, 379776, Note_off_c, 3, 50, 0
4, 379776, Note_off_c, 3, 52, 0
4, 379776, Note_off_c, 3, 54, 0
4, 379776, Note_off_c, 3, 53, 0
4, 379776, Note_off_c, 3, 56, 0
4, 379776, Note_off_c, 3, 57, 0
4, 379776, Note_off_c, 3, 58, 0
4, 379776, Note_off_c, 3, 60, 0
4, 379776, Note_off_c, 3, 61, 0
4, 379776, Note_off_c, 3, 73, 0
4, 379776, Note_off_c, 3, 71, 0
4, 379776, Note_off_c, 3, 70, 0
4, 379776, Note_off_c, 3, 68, 0
4, 379776, Note_off_c, 3, 66, 0
4, 379776, Note_off_c, 3, 67, 0
4, 379776, Note_off_c, 3, 64, 0
4, 379776, Note_off_c, 3, 63, 0
4, 379776, Note_off_c, 3, 62, 0
4, 379776, Note_off_c, 3, 49, 0
4, 379776, Note_off_c, 3, 51, 0
4, 379776, Note_off_c, 3, 55, 0
4, 379776, Note_off_c, 3, 59, 0
4, 379776, Note_off_c, 3, 65, 0
4, 379776, Note_off_c, 3, 69, 0
4, 379776, Note_off_c, 3, 72, 0
4, 379776, Note_off_c, 3, 74, 0
4, 379776, Note_off_c, 3, 75, 0
4, 379776, Note_off_c, 3, 77, 0
4, 379776, Note_off_c, 3, 76, 0
4, 379776, Note_off_c, 3, 78, 0
4, 379776, Note_off_c, 3, 80, 0
4, 379776, Note_off_c, 3, 79, 0
4, 379776, Note_off_c, 3, 82, 0
4, 379776, Note_off_c, 3, 81, 0
4, 379776, Note_off_c, 3, 83, 0
4, 379776, Note_off_c, 3, 84, 0
4, 379776, Note_off_c, 3, 85, 0
4, 379776, Note_off_c, 3, 86, 0
4, 379776, Note_off_c, 3, 87, 0
4, 379776, Note_off_c, 3, 89, 0
4, 379776, Note_off_c, 3, 88, 0
4, 379776, Note_off_c, 3, 90, 0
4, 379776, Note_off_c, 3, 91, 0
4, 379776, Note_off_c, 3, 92, 0
4, 379776, Note_off_c, 3, 93, 0
4, 379776, Note_off_c, 3, 94, 0
4, 379776, Note_off_c, 3, 95, 0
4, 380160, Note_on_c, 3, 95, 22
4, 380160, Note_on_c, 3, 94, 22
4, 380160, Note_on_c, 3, 93, 22
4, 380160, Note_on_c, 3, 92, 22
4, 380160, Note_on_c, 3, 91, 22
4, 380160, Note_on_c, 3, 90, 22
4, 380160, Note_on_c, 3, 88, 22
4, 380160, Note_on_c, 3, 89, 22
4, 380160, Note_on_c, 3, 87, 22
4, 380160, Note_on_c, 3, 86, 22
4, 380160, Note_on_c, 3, 85, 22
4, 380160, Note_on_c, 3, 84, 22
4, 380160, Note_on_c, 3, 83, 22
4, 380160, Note_on_c, 3, 81, 22
4, 380160, Note_on_c, 3, 82, 22
4, 380160, Note_on_c, 3, 79, 22
4, 380160, Note_on_c, 3, 80, 22
4, 380160, Note_on_c, 3, 78, 22
4, 380160, Note_on_c, 3, 76, 22
4, 380160, Note_on_c, 3, 77, 22
4, 380160, Note_on_c, 3, 75, 22
4, 380160, Note_on_c, 3, 74, 22
4, 380160, Note_on_c, 3, 72, 22
4, 380160, Note_on_c, 3, 69, 22
4, 380160, Note_on_c, 3, 65, 22
4, 380160, Note_on_c, 3, 59, 22
4, 380160, Note_on_c, 3, 55, 22
4, 380160, Note_on_c, 3, 51, 22
4, 380160, Note_on_c, 3, 49, 22
4, 380160, Note_on_c, 3, 62, 22
4, 380160, Note_on_c, 3, 63, 22
4, 380160, Note_on_c, 3, 64, 22
4, 380160, Note_on_c, 3, 67, 22
4, 380160, Note_on_c, 3, 66, 22
4, 380160, Note_on_c, 3, 68, 22
4, 380160, Note_on_c, 3, 70, 22
4, 380160, Note_on_c, 3, 71, 22
4, 380160, Note_on_c, 3, 73, 22
4, 380160, Note_on_c, 3, 61, 22
4, 380160, Note_on_c, 3, 60, 22
4, 380160, Note_on_c, 3, 58, 22
4, 380160, Note_on_c, 3, 57, 22
4, 380160, Note_on_c, 3, 56, 22
4, 380160, Note_on_c, 3, 53, 22
4, 380160, Note_on_c, 3, 54, 22
4, 380160, Note_on_c, 3, 52, 22
4, 380160, Note_on_c, 3, 50, 22
4, 380160, Note_on_c, 3, 48, 22
4, 380160, Note_on_c, 3, 47, 22
4, 380160, Note_on_c, 3, 46, 22
4, 380160, Note_on_c, 3, 45, 22
4, 380160, Note_on_c, 3, 44, 22
4, 380160, Note_on_c, 3, 42, 22
4, 380160, Note_on_c, 3, 43, 22
4, 380160, Note_on_c, 3, 41, 22
4, 380160, Note_on_c, 3, 40, 22
4, 380160, Note_on_c, 3, 39, 22
4, 380160, Note_on_c, 3, 38, 22
4, 380160, Note_on_c, 3, 37, 22
4, 380160, Note_on_c, 3, 36, 22
4, 380160, Note_on_c, 3, 35, 22
4, 380160, Note_on_c, 3, 34, 22
4, 380160, Note_on_c, 3, 32, 22
4, 380160, Note_on_c, 3, 33, 22
4, 380160, Note_on_c, 3, 31, 22
4, 380160, Note_on_c, 3, 30, 22
4, 380160, Note_on_c, 3, 29, 22
4, 380160, Note_on_c, 3, 28, 22
4, 380160, Note_on_c, 3, 27, 22
4, 380160, Note_on_c, 3, 25, 22
4, 380160, Note_on_c, 3, 26, 22
4, 380160, Note_on_c, 3, 24, 22
4, 380544, Note_off_c, 3, 24, 0
4, 380544, Note_off_c, 3, 26, 0
4, 380544, Note_off_c, 3, 25, 0
4, 380544, Note_off_c, 3, 27, 0
4, 380544, Note_off_c, 3, 28, 0
4, 380544, Note_off_c, 3, 29, 0
4, 380544, Note_off_c, 3, 30, 0
4, 380544, Note_off_c, 3, 31, 0
4, 380544, Note_off_c, 3, 33, 0
4, 380544, Note_off_c, 3, 32, 0
4, 380544, Note_off_c, 3, 34, 0
4, 380544, Note_off_c, 3, 35, 0
4, 380544, Note_off_c, 3, 36, 0
4, 380544, Note_off_c, 3, 37, 0
4, 380544, Note_off_c, 3, 38, 0
4, 380544, Note_off_c, 3, 39, 0
4, 380544, Note_off_c, 3, 40, 0
4, 380544, Note_off_c, 3, 41, 0
4, 380544, Note_off_c, 3, 43, 0
4, 380544, Note_off_c, 3, 42, 0
4, 380544, Note_off_c, 3, 44, 0
4, 380544, Note_off_c, 3, 45, 0
4, 380544, Note_off_c, 3, 46, 0
4, 380544, Note_off_c, 3, 47, 0
4, 380544, Note_off_c, 3, 48, 0
4, 380544, Note_off_c, 3, 50, 0
4, 380544, Note_off_c, 3, 52, 0
4, 380544, Note_off_c, 3, 54, 0
4, 380544, Note_off_c, 3, 53, 0
4, 380544, Note_off_c, 3, 56, 0
4, 380544, Note_off_c, 3, 57, 0
4, 380544, Note_off_c, 3, 58, 0
4, 380544, Note_off_c, 3, 60, 0
4, 380544, Note_off_c, 3, 61, 0
4, 380544, Note_off_c, 3, 73, 0
4, 380544, Note_off_c, 3, 71, 0
4, 380544, Note_off_c, 3, 70, 0
4, 380544, Note_off_c, 3, 68, 0
4, 380544, Note_off_c, 3, 66, 0
4, 380544, Note_off_c, 3, 67, 0
4, 380544, Note_off_c, 3, 64, 0
4, 380544, Note_off_c, 3, 63, 0
4, 380544, Note_off_c, 3, 62, 0
4, 380544, Note_off_c, 3, 49, 0
4, 380544, Note_off_c, 3, 51, 0
4, 380544, Note_off_c, 3, 55, 0
4, 380544, Note_off_c, 3, 59, 0
4, 380544, Note_off_c, 3, 65, 0
4, 380544, Note_off_c, 3, 69, 0
4, 380544, Note_off_c, 3, 72, 0
4, 380544, Note_off_c, 3, 74, 0
4, 380544, Note_off_c, 3, 75, 0
4, 380544, Note_off_c, 3, 77, 0
4, 380544, Note_off_c, 3, 76, 0
4, 380544, Note_off_c, 3, 78, 0
4, 380544, Note_off_c, 3, 80, 0
4, 380544, Note_off_c, 3, 79, 0
4, 380544, Note_off_c, 3, 82, 0
4, 380544, Note_off_c, 3, 81, 0
4, 380544, Note_off_c, 3, 83, 0
4, 380544, Note_off_c, 3, 84, 0
4, 380544, Note_off_c, 3, 85, 0
4, 380544, Note_off_c, 3, 86, 0
4, 380544, Note_off_c, 3, 87, 0
4, 380544, Note_off_c, 3, 89, 0
4, 380544, Note_off_c, 3, 88, 0
4, 380544, Note_off_c, 3, 90, 0
4, 380544, Note_off_c, 3, 91, 0
4, 380544, Note_off_c, 3, 92, 0
4, 380544, Note_off_c, 3, 93, 0
4, 380544, Note_off_c, 3, 94, 0
4, 380544, Note_off_c, 3, 95, 0
4, 380928, Note_on_c, 3, 93, 43
4, 381312, Note_off_c, 3, 93, 0
4, 381312, Note_on_c, 3, 89, 43
4, 381696, Note_off_c, 3, 89, 0
4, 381696, Note_on_c, 3, 86, 43
4, 382080, Note_off_c, 3, 86, 0
4, 382080, Note_on_c, 3, 81, 43
4, 382464, Note_off_c, 3, 81, 0
4, 382464, Note_on_c, 3, 77, 43
4, 382848, Note_off_c, 3, 77, 0
4, 382848, Note_on_c, 3, 74, 43
4, 383232, Note_off_c, 3, 74, 0
4, 383232, Note_on_c, 3, 69, 43
4, 383616, Note_off_c, 3, 69, 0
4, 383616, Note_on_c, 3, 65, 43
4, 384000, Note_off_c, 3, 65, 0
4, 384000, Note_on_c, 3, 62, 43
4, 384384, Note_off_c, 3, 62, 0
4, 384384, Note_on_c, 3, 65, 43
4, 384768, Note_off_c, 3, 65, 0
4, 384768, Note_on_c, 3, 69, 43
4, 385152, Note_off_c, 3, 69, 0
4, 385152, Note_on_c, 3, 74, 43
4, 385536, Note_off_c, 3, 74, 0
4, 385536, Note_on_c, 3, 77, 43
4, 385920, Note_off_c, 3, 77, 0
4, 385920, Note_on_c, 3, 81, 43
4, 386304, Note_off_c, 3, 81, 0
4, 386304, Note_on_c, 3, 86, 43
4, 386688, Note_off_c, 3, 86, 0
4, 386688, Note_on_c, 3, 89, 43
4, 387072, Note_off_c, 3, 89, 0
4, 387072, Note_on_c, 3, 93, 43
4, 387456, Note_off_c, 3, 93, 0
4, 387456, Note_on_c, 3, 88, 43
4, 387840, Note_off_c, 3, 88, 0
4, 387840, Note_on_c, 3, 84, 43
4, 388224, Note_off_c, 3, 84, 0
4, 388224, Note_on_c, 3, 81, 43
4, 388608, Note_off_c, 3, 81, 0
4, 388608, Note_on_c, 3, 76, 43
4, 388992, Note_off_c, 3, 76, 0
4, 388992, Note_on_c, 3, 72, 43
4, 389376, Note_off_c, 3, 72, 0
4, 389376, Note_on_c, 3, 69, 43
4, 389760, Note_off_c, 3, 69, 0
4, 389760, Note_on_c, 3, 64, 43
4, 390144, Note_off_c, 3, 64, 0
4, 390144, Note_on_c, 3, 60, 43
4, 390528, Note_off_c, 3, 60, 0
4, 390528, Note_on_c, 3, 64, 43
4, 390912, Note_off_c, 3, 64, 0
4, 390912, Note_on_c, 3, 69, 43
4, 391296, Note_off_c, 3, 69, 0
4, 391296, Note_on_c, 3, 72, 43
4, 391680, Note_off_c, 3, 72, 0
4, 391680, Note_on_c, 3, 76, 43
4, 392064, Note_off_c, 3, 76, 0
4, 392064, Note_on_c, 3, 81, 43
4, 392448, Note_off_c, 3, 81, 0
4, 392448, Note_on_c, 3, 84, 43
4, 392832, Note_off_c, 3, 84, 0
4, 392832, Note_on_c, 3, 88, 43
4, 393216, Note_off_c, 3, 88, 0
4, 393216, Note_on_c, 3, 93, 43
4, 393600, Note_off_c, 3, 93, 0
4, 393600, Note_on_c, 3, 89, 43
4, 393984, Note_off_c, 3, 89, 0
4, 393984, Note_on_c, 3, 86, 43
4, 394368, Note_off_c, 3, 86, 0
4, 394368, Note_on_c, 3, 81, 43
4, 394752, Note_off_c, 3, 81, 0
4, 394752, Note_on_c, 3, 77, 43
4, 395136, Note_off_c, 3, 77, 0
4, 395136, Note_on_c, 3, 74, 43
4, 395520, Note_off_c, 3, 74, 0
4, 395520, Note_on_c, 3, 69, 43
4, 395904, Note_off_c, 3, 69, 0
4, 395904, Note_on_c, 3, 65, 43
4, 396288, Note_off_c, 3, 65, 0
4, 396288, Note_on_c, 3, 62, 43
4, 396672, Note_off_c, 3, 62, 0
4, 396672, Note_on_c, 3, 65, 43
4, 397056, Note_off_c, 3, 65, 0
4, 397056, Note_on_c, 3, 69, 43
4, 397440, Note_off_c, 3, 69, 0
4, 397440, Note_on_c, 3, 74, 43
4, 397824, Note_off_c, 3, 74, 0
4, 397824, Note_on_c, 3, 77, 43
4, 398208, Note_off_c, 3, 77, 0
4, 398208, Note_on_c, 3, 81, 43
4, 398592, Note_off_c, 3, 81, 0
4, 398592, Note_on_c, 3, 86, 43
4, 398976, Note_off_c, 3, 86, 0
4, 398976, Note_on_c, 3, 89, 43
4, 399360, Note_off_c, 3, 89, 0
4, 399360, Note_on_c, 3, 93, 43
4, 399360, Note_on_c, 3, 84, 43
4, 399360, Note_on_c, 3, 88, 43
4, 399744, Note_off_c, 3, 88, 0
4, 399744, Note_off_c, 3, 84, 0
4, 399744, Note_off_c, 3, 93, 0
4, 401664, Note_on_c, 3, 95, 12
4, 401664, Note_on_c, 3, 94, 12
4, 401664, Note_on_c, 3, 93, 12
4, 401664, Note_on_c, 3, 92, 12
4, 401664, Note_on_c, 3, 91, 12
4, 401664, Note_on_c, 3, 90, 12
4, 401664, Note_on_c, 3, 88, 12
4, 401664, Note_on_c, 3, 89, 12
4, 401664, Note_on_c, 3, 87, 12
4, 401664, Note_on_c, 3, 86, 12
4, 401664, Note_on_c, 3, 85, 12
4, 401664, Note_on_c, 3, 84, 12
4, 401664, Note_on_c, 3, 83, 12
4, 401664, Note_on_c, 3, 81, 12
4, 401664, Note_on_c, 3, 82, 12
4, 401664, Note_on_c, 3, 79, 12
4, 401664, Note_on_c, 3, 80, 12
4, 401664, Note_on_c, 3, 78, 12
4, 401664, Note_on_c, 3, 76, 12
4, 401664, Note_on_c, 3, 77, 12
4, 401664, Note_on_c, 3, 75, 12
4, 401664, Note_on_c, 3, 74, 12
4, 401664, Note_on_c, 3, 72, 12
4, 401664, Note_on_c, 3, 69, 12
4, 401664, Note_on_c, 3, 65, 12
4, 401664, Note_on_c, 3, 59, 12
4, 401664, Note_on_c, 3, 55, 12
4, 401664, Note_on_c, 3, 51, 12
4, 401664, Note_on_c, 3, 49, 12
4, 401664, Note_on_c, 3, 62, 12
4, 401664, Note_on_c, 3, 63, 12
4, 401664, Note_on_c, 3, 64, 12
4, 401664, Note_on_c, 3, 67, 12
4, 401664, Note_on_c, 3, 66, 12
4, 401664, Note_on_c, 3, 68, 12
4, 401664, Note_on_c, 3, 70, 12
4, 401664, Note_on_c, 3, 71, 12
4, 401664, Note_on_c, 3, 73, 12
4, 401664, Note_on_c, 3, 61, 12
4, 401664, Note_on_c, 3, 60, 12
4, 401664, Note_on_c, 3, 58, 12
4, 401664, Note_on_c, 3, 57, 12
4, 401664, Note_on_c, 3, 56, 12
4, 401664, Note_on_c, 3, 53, 12
4, 401664, Note_on_c, 3, 54, 12
4, 401664, Note_on_c, 3, 52, 12
4, 401664, Note_on_c, 3, 50, 12
4, 401664, Note_on_c, 3, 48, 12
4, 401664, Note_on_c, 3, 47, 12
4, 401664, Note_on_c, 3, 46, 12
4, 401664, Note_on_c, 3, 45, 12
4, 401664, Note_on_c, 3, 44, 12
4, 401664, Note_on_c, 3, 42, 12
4, 401664, Note_on_c, 3, 43, 12
4, 401664, Note_on_c, 3, 41, 12
4, 401664, Note_on_c, 3, 40, 12
4, 401664, Note_on_c, 3, 39, 12
4, 401664, Note_on_c, 3, 38, 12
4, 401664, Note_on_c, 3, 37, 12
4, 401664, Note_on_c, 3, 36, 12
4, 401664, Note_on_c, 3, 35, 12
4, 401664, Note_on_c, 3, 34, 12
4, 401664, Note_on_c, 3, 32, 12
4, 401664, Note_on_c, 3, 33, 12
4, 401664, Note_on_c, 3, 31, 12
4, 401664, Note_on_c, 3, 30, 12
4, 401664, Note_on_c, 3, 29, 12
4, 401664, Note_on_c, 3, 28, 12
4, 401664, Note_on_c, 3, 27, 12
4, 401664, Note_on_c, 3, 25, 12
4, 401664, Note_on_c, 3, 26, 12
4, 401664, Note_on_c, 3, 24, 12
4, 402048, Note_off_c, 3, 24, 0
4, 402048, Note_off_c, 3, 26, 0
4, 402048, Note_off_c, 3, 25, 0
4, 402048, Note_off_c, 3, 27, 0
4, 402048, Note_off_c, 3, 28, 0
4, 402048, Note_off_c, 3, 29, 0
4, 402048, Note_off_c, 3, 30, 0
4, 402048, Note_off_c, 3, 31, 0
4, 402048, Note_off_c, 3, 33, 0
4, 402048, Note_off_c, 3, 32, 0
4, 402048, Note_off_c, 3, 34, 0
4, 402048, Note_off_c, 3, 35, 0
4, 402048, Note_off_c, 3, 36, 0
4, 402048, Note_off_c, 3, 37, 0
4, 402048, Note_off_c, 3, 38, 0
4, 402048, Note_off_c, 3, 39, 0
4, 402048, Note_off_c, 3, 40, 0
4, 402048, Note_off_c, 3, 41, 0
4, 402048, Note_off_c, 3, 43, 0
4, 402048, Note_off_c, 3, 42, 0
4, 402048, Note_off_c, 3, 44, 0
4, 402048, Note_off_c, 3, 45, 0
4, 402048, Note_off_c, 3, 46, 0
4, 402048, Note_off_c, 3, 47, 0
4, 402048, Note_off_c, 3, 48, 0
4, 402048, Note_off_c, 3, 50, 0
4, 402048, Note_off_c, 3, 52, 0
4, 402048, Note_off_c, 3, 54, 0
4, 402048, Note_off_c, 3, 53, 0
4, 402048, Note_off_c, 3, 56, 0
4, 402048, Note_off_c, 3, 57, 0
4, 402048, Note_off_c, 3, 58, 0
4, 402048, Note_off_c, 3, 60, 0
4, 402048, Note_off_c, 3, 61, 0
4, 402048, Note_off_c, 3, 73, 0
4, 402048, Note_off_c, 3, 71, 0
4, 402048, Note_off_c, 3, 70, 0
4, 402048, Note_off_c, 3, 68, 0
4, 402048, Note_off_c, 3, 66, 0
4, 402048, Note_off_c, 3, 67, 0
4, 402048, Note_off_c, 3, 64, 0
4, 402048, Note_off_c, 3, 63, 0
4, 402048, Note_off_c, 3, 62, 0
4, 402048, Note_off_c, 3, 49, 0
4, 402048, Note_off_c, 3, 51, 0
4, 402048, Note_off_c, 3, 55, 0
4, 402048, Note_off_c, 3, 59, 0
4, 402048, Note_off_c, 3, 65, 0
4, 402048, Note_off_c, 3, 69, 0
4, 402048, Note_off_c, 3, 72, 0
4, 402048, Note_off_c, 3, 74, 0
4, 402048, Note_off_c, 3, 75, 0
4, 402048, Note_off_c, 3, 77, 0
4, 402048, Note_off_c, 3, 76, 0
4, 402048, Note_off_c, 3, 78, 0
4, 402048, Note_off_c, 3, 80, 0
4, 402048, Note_off_c, 3, 79, 0
4, 402048, Note_off_c, 3, 82, 0
4, 402048, Note_off_c, 3, 81, 0
4, 402048, Note_off_c, 3, 83, 0
4, 402048, Note_off_c, 3, 84, 0
4, 402048, Note_off_c, 3, 85, 0
4, 402048, Note_off_c, 3, 86, 0
4, 402048, Note_off_c, 3, 87, 0
4, 402048, Note_off_c, 3, 89, 0
4, 402048, Note_off_c, 3, 88, 0
4, 402048, Note_off_c, 3, 90, 0
4, 402048, Note_off_c, 3, 91, 0
4, 402048, Note_off_c, 3, 92, 0
4, 402048, Note_off_c, 3, 93, 0
4, 402048, Note_off_c, 3, 94, 0
4, 402048, Note_off_c, 3, 95, 0
4, 402432, Note_on_c, 3, 95, 12
4, 402432, Note_on_c, 3, 94, 12
4, 402432, Note_on_c, 3, 93, 12
4, 402432, Note_on_c, 3, 92, 12
4, 402432, Note_on_c, 3, 91, 12
4, 402432, Note_on_c, 3, 90, 12
4, 402432, Note_on_c, 3, 88, 12
4, 402432, Note_on_c, 3, 89, 12
4, 402432, Note_on_c, 3, 87, 12
4, 402432, Note_on_c, 3, 86, 12
4, 402432, Note_on_c, 3, 85, 12
4, 402432, Note_on_c, 3, 84, 12
4, 402432, Note_on_c, 3, 83, 12
4, 402432, Note_on_c, 3, 81, 12
4, 402432, Note_on_c, 3, 82, 12
4, 402432, Note_on_c, 3, 79, 12
4, 402432, Note_on_c, 3, 80, 12
4, 402432, Note_on_c, 3, 78, 12
4, 402432, Note_on_c, 3, 76, 12
4, 402432, Note_on_c, 3, 77, 12
4, 402432, Note_on_c, 3, 75, 12
4, 402432, Note_on_c, 3, 74, 12
4, 402432, Note_on_c, 3, 72, 12
4, 402432, Note_on_c, 3, 69, 12
4, 402432, Note_on_c, 3, 65, 12
4, 402432, Note_on_c, 3, 59, 12
4, 402432, Note_on_c, 3, 55, 12
4, 402432, Note_on_c, 3, 51, 12
4, 402432, Note_on_c, 3, 49, 12
4, 402432, Note_on_c, 3, 62, 12
4, 402432, Note_on_c, 3, 63, 12
4, 402432, Note_on_c, 3, 64, 12
4, 402432, Note_on_c, 3, 67, 12
4, 402432, Note_on_c, 3, 66, 12
4, 402432, Note_on_c, 3, 68, 12
4, 402432, Note_on_c, 3, 70, 12
4, 402432, Note_on_c, 3, 71, 12
4, 402432, Note_on_c, 3, 73, 12
4, 402432, Note_on_c, 3, 61, 12
4, 402432, Note_on_c, 3, 60, 12
4, 402432, Note_on_c, 3, 58, 12
4, 402432, Note_on_c, 3, 57, 12
4, 402432, Note_on_c, 3, 56, 12
4, 402432, Note_on_c, 3, 53, 12
4, 402432, Note_on_c, 3, 54, 12
4, 402432, Note_on_c, 3, 52, 12
4, 402432, Note_on_c, 3, 50, 12
4, 402432, Note_on_c, 3, 48, 12
4, 402432, Note_on_c, 3, 47, 12
4, 402432, Note_on_c, 3, 46, 12
4, 402432, Note_on_c, 3, 45, 12
4, 402432, Note_on_c, 3, 44, 12
4, 402432, Note_on_c, 3, 42, 12
4, 402432, Note_on_c, 3, 43, 12
4, 402432, Note_on_c, 3, 41, 12
4, 402432, Note_on_c, 3, 40, 12
4, 402432, Note_on_c, 3, 39, 12
4, 402432, Note_on_c, 3, 38, 12
4, 402432, Note_on_c, 3, 37, 12
4, 402432, Note_on_c, 3, 36, 12
4, 402432, Note_on_c, 3, 35, 12
4, 402432, Note_on_c, 3, 34, 12
4, 402432, Note_on_c, 3, 32, 12
4, 402432, Note_on_c, 3, 33, 12
4, 402432, Note_on_c, 3, 31, 12
4, 402432, Note_on_c, 3, 30, 12
4, 402432, Note_on_c, 3, 29, 12
4, 402432, Note_on_c, 3, 28, 12
4, 402432, Note_on_c, 3, 27, 12
4, 402432, Note_on_c, 3, 25, 12
4, 402432, Note_on_c, 3, 26, 12
4, 402432, Note_on_c, 3, 24, 12
4, 402816, Note_off_c, 3, 24, 0
4, 402816, Note_off_c, 3, 26, 0
4, 402816, Note_off_c, 3, 25, 0
4, 402816, Note_off_c, 3, 27, 0
4, 402816, Note_off_c, 3, 28, 0
4, 402816, Note_off_c, 3, 29, 0
4, 402816, Note_off_c, 3, 30, 0
4, 402816, Note_off_c, 3, 31, 0
4, 402816, Note_off_c, 3, 33, 0
4, 402816, Note_off_c, 3, 32, 0
4, 402816, Note_off_c, 3, 34, 0
4, 402816, Note_off_c, 3, 35, 0
4, 402816, Note_off_c, 3, 36, 0
4, 402816, Note_off_c, 3, 37, 0
4, 402816, Note_off_c, 3, 38, 0
4, 402816, Note_off_c, 3, 39, 0
4, 402816, Note_off_c, 3, 40, 0
4, 402816, Note_off_c, 3, 41, 0
4, 402816, Note_off_c, 3, 43, 0
4, 402816, Note_off_c, 3, 42, 0
4, 402816, Note_off_c, 3, 44, 0
4, 402816, Note_off_c, 3, 45, 0
4, 402816, Note_off_c, 3, 46, 0
4, 402816, Note_off_c, 3, 47, 0
4, 402816, Note_off_c, 3, 48, 0
4, 402816, Note_off_c, 3, 50, 0
4, 402816, Note_off_c, 3, 52, 0
4, 402816, Note_off_c, 3, 54, 0
4, 402816, Note_off_c, 3, 53, 0
4, 402816, Note_off_c, 3, 56, 0
4, 402816, Note_off_c, 3, 57, 0
4, 402816, Note_off_c, 3, 58, 0
4, 402816, Note_off_c, 3, 60, 0
4, 402816, Note_off_c, 3, 61, 0
4, 402816, Note_off_c, 3, 73, 0
4, 402816, Note_off_c, 3, 71, 0
4, 402816, Note_off_c, 3, 70, 0
4, 402816, Note_off_c, 3, 68, 0
4, 402816, Note_off_c, 3, 66, 0
4, 402816, Note_off_c, 3, 67, 0
4, 402816, Note_off_c, 3, 64, 0
4, 402816, Note_off_c, 3, 63, 0
4, 402816, Note_off_c, 3, 62, 0
4, 402816, Note_off_c, 3, 49, 0
4, 402816, Note_off_c, 3, 51, 0
4, 402816, Note_off_c, 3, 55, 0
4, 402816, Note_off_c, 3, 59, 0
4, 402816, Note_off_c, 3, 65, 0
4, 402816, Note_off_c, 3, 69, 0
4, 402816, Note_off_c, 3, 72, 0
4, 402816, Note_off_c, 3, 74, 0
4, 402816, Note_off_c, 3, 75, 0
4, 402816, Note_off_c, 3, 77, 0
4, 402816, Note_off_c, 3, 76, 0
4, 402816, Note_off_c, 3, 78, 0
4, 402816, Note_off_c, 3, 80, 0
4, 402816, Note_off_c, 3, 79, 0
4, 402816, Note_off_c, 3, 82, 0
4, 402816, Note_off_c, 3, 81, 0
4, 402816, Note_off_c, 3, 83, 0
4, 402816, Note_off_c, 3, 84, 0
4, 402816, Note_off_c, 3, 85, 0
4, 402816, Note_off_c, 3, 86, 0
4, 402816, Note_off_c, 3, 87, 0
4, 402816, Note_off_c, 3, 89, 0
4, 402816, Note_off_c, 3, 88, 0
4, 402816, Note_off_c, 3, 90, 0
4, 402816, Note_off_c, 3, 91, 0
4, 402816, Note_off_c, 3, 92, 0
4, 402816, Note_off_c, 3, 93, 0
4, 402816, Note_off_c, 3, 94, 0
4, 402816, Note_off_c, 3, 95, 0
4, 405504, Note_on_c, 3, 28, 17
4, 405552, Note_on_c, 3, 29, 17
4, 405600, Note_on_c, 3, 30, 17
4, 405648, Note_on_c, 3, 31, 17
4, 405696, Note_off_c, 3, 28, 0
4, 405696, Note_on_c, 3, 32, 17
4, 405744, Note_off_c, 3, 29, 0
4, 405744, Note_on_c, 3, 33, 17
4, 405792, Note_off_c, 3, 30, 0
4, 405792, Note_on_c, 3, 34, 17
4, 405840, Note_off_c, 3, 31, 0
4, 405840, Note_on_c, 3, 35, 17
4, 405888, Note_off_c, 3, 32, 0
4, 405888, Note_on_c, 3, 36, 17
4, 405936, Note_off_c, 3, 33, 0
4, 405936, Note_on_c, 3, 37, 17
4, 405984, Note_off_c, 3, 34, 0
4, 405984, Note_on_c, 3, 38, 17
4, 406032, Note_off_c, 3, 35, 0
4, 406032, Note_on_c, 3, 39, 17
4, 406080, Note_off_c, 3, 36, 0
4, 406080, Note_on_c, 3, 40, 17
4, 406128, Note_off_c, 3, 37, 0
4, 406128, Note_on_c, 3, 41, 17
4, 406176, Note_off_c, 3, 38, 0
4, 406176, Note_on_c, 3, 42, 17
4, 406224, Note_off_c, 3, 39, 0
4, 406224, Note_on_c, 3, 43, 17
4, 406272, Note_off_c, 3, 40, 0
4, 406272, Note_on_c, 3, 44, 17
4, 406320, Note_off_c, 3, 41, 0
4, 406320, Note_on_c, 3, 45, 17
4, 406368, Note_off_c, 3, 42, 0
4, 406368, Note_on_c, 3, 46, 17
4, 406416, Note_off_c, 3, 43, 0
4, 406416, Note_on_c, 3, 47, 17
4, 406464, Note_off_c, 3, 44, 0
4, 406464, Note_on_c, 3, 48, 17
4, 406512, Note_off_c, 3, 45, 0
4, 406512, Note_on_c, 3, 49, 17
4, 406560, Note_off_c, 3, 46, 0
4, 406560, Note_on_c, 3, 50, 17
4, 406608, Note_off_c, 3, 47, 0
4, 406608, Note_on_c, 3, 51, 17
4, 406656, Note_off_c, 3, 48, 0
4, 406656, Note_on_c, 3, 52, 17
4, 406704, Note_off_c, 3, 49, 0
4, 406704, Note_on_c, 3, 53, 17
4, 406752, Note_off_c, 3, 50, 0
4, 406752, Note_on_c, 3, 54, 17
4, 406800, Note_off_c, 3, 51, 0
4, 406800, Note_on_c, 3, 55, 17
4, 406848, Note_off_c, 3, 52, 0
4, 406848, Note_on_c, 3, 56, 17
4, 406896, Note_off_c, 3, 53, 0
4, 406896, Note_on_c, 3, 57, 17
4, 406944, Note_off_c, 3, 54, 0
4, 406944, Note_on_c, 3, 58, 17
4, 406992, Note_off_c, 3, 55, 0
4, 406992, Note_on_c, 3, 59, 17
4, 407040, Note_off_c, 3, 56, 0
4, 407040, Note_on_c, 3, 60, 17
4, 407088, Note_off_c, 3, 57, 0
4, 407088, Note_on_c, 3, 61, 17
4, 407136, Note_off_c, 3, 58, 0
4, 407136, Note_on_c, 3, 62, 17
4, 407184, Note_off_c, 3, 59, 0
4, 407184, Note_on_c, 3, 63, 17
4, 407232, Note_off_c, 3, 60, 0
4, 407232, Note_on_c, 3, 64, 17
4, 407280, Note_off_c, 3, 61, 0
4, 407280, Note_on_c, 3, 65, 17
4, 407328, Note_off_c, 3, 62, 0
4, 407328, Note_on_c, 3, 66, 17
4, 407376, Note_off_c, 3, 63, 0
4, 407376, Note_on_c, 3, 67, 17
4, 407424, Note_off_c, 3, 64, 0
4, 407424, Note_on_c, 3, 68, 17
4, 407472, Note_off_c, 3, 65, 0
4, 407472, Note_on_c, 3, 69, 17
4, 407520, Note_off_c, 3, 66, 0
4, 407520, Note_on_c, 3, 70, 17
4, 407568, Note_off_c, 3, 67, 0
4, 407568, Note_on_c, 3, 71, 17
4, 407616, Note_off_c, 3, 68, 0
4, 407616, Note_on_c, 3, 72, 17
4, 407664, Note_off_c, 3, 69, 0
4, 407664, Note_on_c, 3, 73, 17
4, 407712, Note_off_c, 3, 70, 0
4, 407712, Note_on_c, 3, 74, 17
4, 407760, Note_off_c, 3, 71, 0
4, 407760, Note_on_c, 3, 75, 17
4, 407808, Note_off_c, 3, 72, 0
4, 407808, Note_on_c, 3, 76, 17
4, 407856, Note_off_c, 3, 73, 0
4, 407856, Note_on_c, 3, 77, 17
4, 407904, Note_off_c, 3, 74, 0
4, 407904, Note_on_c, 3, 78, 17
4, 407952, Note_off_c, 3, 75, 0
4, 407952, Note_on_c, 3, 79, 17
4, 408000, Note_off_c, 3, 76, 0
4, 408000, Note_on_c, 3, 80, 17
4, 408048, Note_off_c, 3, 77, 0
4, 408048, Note_on_c, 3, 81, 17
4, 408096, Note_off_c, 3, 78, 0
4, 408096, Note_on_c, 3, 82, 17
4, 408144, Note_off_c, 3, 79, 0
4, 408144, Note_on_c, 3, 83, 17
4, 408192, Note_off_c, 3, 80, 0
4, 408192, Note_on_c, 3, 84, 17
4, 408240, Note_off_c, 3, 81, 0
4, 408240, Note_on_c, 3, 85, 17
4, 408288, Note_off_c, 3, 82, 0
4, 408288, Note_on_c, 3, 86, 17
4, 408336, Note_off_c, 3, 83, 0
4, 408336, Note_on_c, 3, 87, 17
4, 408384, Note_off_c, 3, 84, 0
4, 408384, Note_on_c, 3, 88, 17
4, 408432, Note_off_c, 3, 85, 0
4, 408432, Note_on_c, 3, 89, 17
4, 408480, Note_off_c, 3, 86, 0
4, 408480, Note_on_c, 3, 90, 17
4, 408528, Note_off_c, 3, 87, 0
4, 408528, Note_on_c, 3, 91, 17
4, 408576, Note_off_c, 3, 88, 0
4, 408576, Note_on_c, 3, 93, 17
4, 408624, Note_off_c, 3, 89, 0
4, 408624, Note_on_c, 3, 92, 17
4, 408672, Note_off_c, 3, 90, 0
4, 408672, Note_on_c, 3, 91, 17
4, 408720, Note_off_c, 3, 91, 0
4, 408720, Note_on_c, 3, 90, 17
4, 408768, Note_off_c, 3, 93, 0
4, 408768, Note_on_c, 3, 89, 17
4, 408816, Note_off_c, 3, 92, 0
4, 408816, Note_on_c, 3, 88, 17
4, 408864, Note_off_c, 3, 91, 0
4, 408864, Note_on_c, 3, 87, 17
4, 408912, Note_off_c, 3, 90, 0
4, 408912, Note_on_c, 3, 86, 17
4, 408960, Note_off_c, 3, 89, 0
4, 408960, Note_on_c, 3, 85, 17
4, 409008, Note_off_c, 3, 88, 0
4, 409008, Note_on_c, 3, 84, 17
4, 409056, Note_off_c, 3, 87, 0
4, 409056, Note_on_c, 3, 83, 17
4, 409104, Note_off_c, 3, 86, 0
4, 409104, Note_on_c, 3, 82, 17
4, 409152, Note_off_c, 3, 85, 0
4, 409152, Note_on_c, 3, 81, 17
4, 409200, Note_off_c, 3, 84, 0
4, 409200, Note_on_c, 3, 80, 17
4, 409248, Note_off_c, 3, 83, 0
4, 409248, Note_on_c, 3, 79, 17
4, 409296, Note_off_c, 3, 82, 0
4, 409296, Note_on_c, 3, 78, 17
4, 409344, Note_off_c, 3, 81, 0
4, 409344, Note_on_c, 3, 77, 17
4, 409392, Note_off_c, 3, 80, 0
4, 409392, Note_on_c, 3, 76, 17
4, 409440, Note_off_c, 3, 79, 0
4, 409440, Note_on_c, 3, 75, 17
4, 409488, Note_off_c, 3, 78, 0
4, 409488, Note_on_c, 3, 74, 17
4, 409536, Note_off_c, 3, 77, 0
4, 409536, Note_on_c, 3, 73, 17
4, 409584, Note_off_c, 3, 76, 0
4, 409584, Note_on_c, 3, 72, 17
4, 409632, Note_off_c, 3, 75, 0
4, 409632, Note_on_c, 3, 71, 17
4, 409680, Note_off_c, 3, 74, 0
4, 409680, Note_on_c, 3, 70, 17
4, 409728, Note_off_c, 3, 73, 0
4, 409728, Note_on_c, 3, 69, 17
4, 409776, Note_off_c, 3, 72, 0
4, 409776, Note_on_c, 3, 68, 17
4, 409824, Note_off_c, 3, 71, 0
4, 409824, Note_on_c, 3, 67, 17
4, 409872, Note_off_c, 3, 70, 0
4, 409872, Note_on_c, 3, 66, 17
4, 409920, Note_off_c, 3, 69, 0
4, 409920, Note_on_c, 3, 65, 17
4, 409968, Note_off_c, 3, 68, 0
4, 409968, Note_on_c, 3, 64, 17
4, 410016, Note_off_c, 3, 67, 0
4, 410016, Note_on_c, 3, 63, 17
4, 410064, Note_off_c, 3, 66, 0
4, 410064, Note_on_c, 3, 62, 17
4, 410112, Note_off_c, 3, 65, 0
4, 410112, Note_on_c, 3, 61, 17
4, 410160, Note_off_c, 3, 64, 0
4, 410160, Note_on_c, 3, 60, 17
4, 410208, Note_off_c, 3, 63, 0
4, 410208, Note_on_c, 3, 59, 17
4, 410256, Note_off_c, 3, 62, 0
4, 410256, Note_on_c, 3, 58, 17
4, 410304, Note_off_c, 3, 61, 0
4, 410304, Note_on_c, 3, 57, 17
4, 410352, Note_off_c, 3, 60, 0
4, 410352, Note_on_c, 3, 56, 17
4, 410400, Note_off_c, 3, 59, 0
4, 410400, Note_on_c, 3, 55, 17
4, 410448, Note_off_c, 3, 58, 0
4, 410448, Note_on_c, 3, 54, 17
4, 410496, Note_off_c, 3, 57, 0
4, 410496, Note_on_c, 3, 53, 17
4, 410544, Note_off_c, 3, 56, 0
4, 410544, Note_on_c, 3, 52, 17
4, 410592, Note_off_c, 3, 55, 0
4, 410592, Note_on_c, 3, 51, 17
4, 410640, Note_off_c, 3, 54, 0
4, 410640, Note_on_c, 3, 50, 17
4, 410688, Note_off_c, 3, 53, 0
4, 410688, Note_on_c, 3, 49, 17
4, 410736, Note_off_c, 3, 52, 0
4, 410736, Note_on_c, 3, 48, 17
4, 410784, Note_off_c, 3, 51, 0
4, 410784, Note_on_c, 3, 47, 17
4, 410832, Note_off_c, 3, 50, 0
4, 410832, Note_on_c, 3, 46, 17
4, 410880, Note_off_c, 3, 49, 0
4, 410880, Note_on_c, 3, 45, 17
4, 410928, Note_off_c, 3, 48, 0
4, 410928, Note_on_c, 3, 44, 17
4, 410976, Note_off_c, 3, 47, 0
4, 410976, Note_on_c, 3, 43, 17
4, 411024, Note_off_c, 3, 46, 0
4, 411024, Note_on_c, 3, 42, 17
4, 411072, Note_off_c, 3, 45, 0
4, 411072, Note_on_c, 3, 41, 17
4, 411120, Note_off_c, 3, 44, 0
4, 411120, Note_on_c, 3, 40, 17
4, 411168, Note_off_c, 3, 43, 0
4, 411168, Note_on_c, 3, 39, 17
4, 411216, Note_off_c, 3, 42, 0
4, 411216, Note_on_c, 3, 38, 17
4, 411264, Note_off_c, 3, 41, 0
4, 411264, Note_on_c, 3, 37, 17
4, 411312, Note_off_c, 3, 40, 0
4, 411312, Note_on_c, 3, 36, 17
4, 411360, Note_off_c, 3, 39, 0
4, 411360, Note_on_c, 3, 35, 17
4, 411408, Note_off_c, 3, 38, 0
4, 411408, Note_on_c, 3, 34, 17
4, 411456, Note_off_c, 3, 37, 0
4, 411456, Note_on_c, 3, 33, 17
4, 411504, Note_off_c, 3, 36, 0
4, 411504, Note_on_c, 3, 32, 17
4, 411552, Note_off_c, 3, 35, 0
4, 411552, Note_on_c, 3, 31, 17
4, 411600, Note_off_c, 3, 34, 0
4, 411600, Note_on_c, 3, 30, 17
4, 411648, Note_off_c, 3, 33, 0
4, 411648, Note_on_c, 3, 28, 17
4, 411696, Note_off_c, 3, 32, 0
4, 411696, Note_on_c, 3, 29, 17
4, 411744, Note_off_c, 3, 31, 0
4, 411744, Note_on_c, 3, 30, 17
4, 411792, Note_off_c, 3, 30, 0
4, 411792, Note_on_c, 3, 31, 17
4, 411840, Note_off_c, 3, 28, 0
4, 411840, Note_on_c, 3, 32, 17
4, 411888, Note_off_c, 3, 29, 0
4, 411888, Note_on_c, 3, 33, 17
4, 411936, Note_off_c, 3, 30, 0
4, 411936, Note_on_c, 3, 34, 17
4, 411984, Note_off_c, 3, 31, 0
4, 411984, Note_on_c, 3, 35, 17
4, 412032, Note_off_c, 3, 32, 0
4, 412032, Note_on_c, 3, 36, 17
4, 412080, Note_off_c, 3, 33, 0
4, 412080, Note_on_c, 3, 37, 17
4, 412128, Note_off_c, 3, 34, 0
4, 412128, Note_on_c, 3, 38, 17
4, 412176, Note_off_c, 3, 35, 0
4, 412176, Note_on_c, 3, 39, 17
4, 412224, Note_off_c, 3, 36, 0
4, 412224, Note_on_c, 3, 40, 17
4, 412272, Note_off_c, 3, 37, 0
4, 412272, Note_on_c, 3, 41, 17
4, 412320, Note_off_c, 3, 38, 0
4, 412320, Note_on_c, 3, 42, 17
4, 412368, Note_off_c, 3, 39, 0
4, 412368, Note_on_c, 3, 43, 17
4, 412416, Note_off_c, 3, 40, 0
4, 412416, Note_on_c, 3, 44, 17
4, 412464, Note_off_c, 3, 41, 0
4, 412464, Note_on_c, 3, 45, 17
4, 412512, Note_off_c, 3, 42, 0
4, 412512, Note_on_c, 3, 46, 17
4, 412560, Note_off_c, 3, 43, 0
4, 412560, Note_on_c, 3, 47, 17
4, 412608, Note_off_c, 3, 44, 0
4, 412608, Note_on_c, 3, 48, 17
4, 412656, Note_off_c, 3, 45, 0
4, 412656, Note_on_c, 3, 49, 17
4, 412704, Note_off_c, 3, 46, 0
4, 412704, Note_on_c, 3, 50, 17
4, 412752, Note_off_c, 3, 47, 0
4, 412752, Note_on_c, 3, 51, 17
4, 412800, Note_off_c, 3, 48, 0
4, 412800, Note_on_c, 3, 52, 17
4, 412848, Note_off_c, 3, 49, 0
4, 412848, Note_on_c, 3, 53, 17
4, 412896, Note_off_c, 3, 50, 0
4, 412896, Note_on_c, 3, 54, 17
4, 412944, Note_off_c, 3, 51, 0
4, 412944, Note_on_c, 3, 55, 17
4, 412992, Note_off_c, 3, 52, 0
4, 412992, Note_on_c, 3, 56, 17
4, 413040, Note_off_c, 3, 53, 0
4, 413040, Note_on_c, 3, 57, 17
4, 413088, Note_off_c, 3, 54, 0
4, 413088, Note_on_c, 3, 58, 17
4, 413136, Note_off_c, 3, 55, 0
4, 413136, Note_on_c, 3, 59, 17
4, 413184, Note_off_c, 3, 56, 0
4, 413184, Note_on_c, 3, 60, 17
4, 413232, Note_off_c, 3, 57, 0
4, 413232, Note_on_c, 3, 61, 17
4, 413280, Note_off_c, 3, 58, 0
4, 413280, Note_on_c, 3, 62, 17
4, 413328, Note_off_c, 3, 59, 0
4, 413328, Note_on_c, 3, 63, 17
4, 413376, Note_off_c, 3, 60, 0
4, 413376, Note_on_c, 3, 64, 17
4, 413424, Note_off_c, 3, 61, 0
4, 413424, Note_on_c, 3, 65, 17
4, 413472, Note_off_c, 3, 62, 0
4, 413472, Note_on_c, 3, 66, 17
4, 413520, Note_off_c, 3, 63, 0
4, 413520, Note_on_c, 3, 67, 17
4, 413568, Note_off_c, 3, 64, 0
4, 413568, Note_on_c, 3, 68, 17
4, 413616, Note_off_c, 3, 65, 0
4, 413616, Note_on_c, 3, 69, 17
4, 413664, Note_off_c, 3, 66, 0
4, 413664, Note_on_c, 3, 70, 17
4, 413712, Note_off_c, 3, 67, 0
4, 413712, Note_on_c, 3, 71, 17
4, 413760, Note_off_c, 3, 68, 0
4, 413760, Note_on_c, 3, 72, 17
4, 413808, Note_off_c, 3, 69, 0
4, 413808, Note_on_c, 3, 73, 17
4, 413856, Note_off_c, 3, 70, 0
4, 413856, Note_on_c, 3, 74, 17
4, 413904, Note_off_c, 3, 71, 0
4, 413904, Note_on_c, 3, 75, 17
4, 413952, Note_off_c, 3, 72, 0
4, 413952, Note_on_c, 3, 76, 17
4, 414000, Note_off_c, 3, 73, 0
4, 414000, Note_on_c, 3, 77, 17
4, 414048, Note_off_c, 3, 74, 0
4, 414048, Note_on_c, 3, 78, 17
4, 414096, Note_off_c, 3, 75, 0
4, 414096, Note_on_c, 3, 79, 17
4, 414144, Note_off_c, 3, 76, 0
4, 414144, Note_on_c, 3, 80, 17
4, 414192, Note_off_c, 3, 77, 0
4, 414192, Note_on_c, 3, 81, 17
4, 414240, Note_off_c, 3, 78, 0
4, 414240, Note_on_c, 3, 82, 17
4, 414288, Note_off_c, 3, 79, 0
4, 414288, Note_on_c, 3, 83, 17
4, 414336, Note_off_c, 3, 80, 0
4, 414336, Note_on_c, 3, 84, 17
4, 414384, Note_off_c, 3, 81, 0
4, 414384, Note_on_c, 3, 85, 17
4, 414432, Note_off_c, 3, 82, 0
4, 414432, Note_on_c, 3, 86, 17
4, 414480, Note_off_c, 3, 83, 0
4, 414480, Note_on_c, 3, 87, 17
4, 414528, Note_off_c, 3, 84, 0
4, 414528, Note_on_c, 3, 88, 17
4, 414576, Note_off_c, 3, 85, 0
4, 414576, Note_on_c, 3, 89, 17
4, 414624, Note_off_c, 3, 86, 0
4, 414624, Note_on_c, 3, 90, 17
4, 414672, Note_off_c, 3, 87, 0
4, 414672, Note_on_c, 3, 91, 17
4, 414720, Note_off_c, 3, 88, 0
4, 414720, Note_on_c, 3, 93, 17
4, 414768, Note_off_c, 3, 89, 0
4, 414768, Note_on_c, 3, 92, 17
4, 414816, Note_off_c, 3, 90, 0
4, 414816, Note_on_c, 3, 91, 17
4, 414864, Note_off_c, 3, 91, 0
4, 414864, Note_on_c, 3, 90, 17
4, 414912, Note_off_c, 3, 93, 0
4, 414912, Note_on_c, 3, 89, 17
4, 414960, Note_off_c, 3, 92, 0
4, 414960, Note_on_c, 3, 88, 17
4, 415008, Note_off_c, 3, 91, 0
4, 415008, Note_on_c, 3, 87, 17
4, 415056, Note_off_c, 3, 90, 0
4, 415056, Note_on_c, 3, 86, 17
4, 415104, Note_off_c, 3, 89, 0
4, 415104, Note_on_c, 3, 85, 17
4, 415152, Note_off_c, 3, 88, 0
4, 415152, Note_on_c, 3, 84, 17
4, 415200, Note_off_c, 3, 87, 0
4, 415200, Note_on_c, 3, 83, 17
4, 415248, Note_off_c, 3, 86, 0
4, 415248, Note_on_c, 3, 82, 17
4, 415296, Note_off_c, 3, 85, 0
4, 415296, Note_on_c, 3, 81, 17
4, 415344, Note_off_c, 3, 84, 0
4, 415344, Note_on_c, 3, 80, 17
4, 415392, Note_off_c, 3, 83, 0
4, 415392, Note_on_c, 3, 79, 17
4, 415440, Note_off_c, 3, 82, 0
4, 415440, Note_on_c, 3, 78, 17
4, 415488, Note_off_c, 3, 81, 0
4, 415488, Note_on_c, 3, 77, 17
4, 415536, Note_off_c, 3, 80, 0
4, 415536, Note_on_c, 3, 76, 17
4, 415584, Note_off_c, 3, 79, 0
4, 415584, Note_on_c, 3, 75, 17
4, 415632, Note_off_c, 3, 78, 0
4, 415632, Note_on_c, 3, 74, 17
4, 415680, Note_off_c, 3, 77, 0
4, 415680, Note_on_c, 3, 73, 17
4, 415728, Note_off_c, 3, 76, 0
4, 415728, Note_on_c, 3, 72, 17
4, 415776, Note_off_c, 3, 75, 0
4, 415776, Note_on_c, 3, 71, 17
4, 415824, Note_off_c, 3, 74, 0
4, 415824, Note_on_c, 3, 70, 17
4, 415872, Note_off_c, 3, 73, 0
4, 415872, Note_on_c, 3, 69, 17
4, 415920, Note_off_c, 3, 72, 0
4, 415920, Note_on_c, 3, 68, 17
4, 415968, Note_off_c, 3, 71, 0
4, 415968, Note_on_c, 3, 67, 17
4, 416016, Note_off_c, 3, 70, 0
4, 416016, Note_on_c, 3, 66, 17
4, 416064, Note_off_c, 3, 69, 0
4, 416064, Note_on_c, 3, 65, 17
4, 416112, Note_off_c, 3, 68, 0
4, 416112, Note_on_c, 3, 64, 17
4, 416160, Note_off_c, 3, 67, 0
4, 416160, Note_on_c, 3, 63, 17
4, 416208, Note_off_c, 3, 66, 0
4, 416208, Note_on_c, 3, 62, 17
4, 416256, Note_off_c, 3, 65, 0
4, 416256, Note_on_c, 3, 61, 17
4, 416304, Note_off_c, 3, 64, 0
4, 416304, Note_on_c, 3, 60, 17
4, 416352, Note_off_c, 3, 63, 0
4, 416352, Note_on_c, 3, 59, 17
4, 416400, Note_off_c, 3, 62, 0
4, 416400, Note_on_c, 3, 58, 17
4, 416448, Note_off_c, 3, 61, 0
4, 416448, Note_on_c, 3, 57, 17
4, 416496, Note_off_c, 3, 60, 0
4, 416496, Note_on_c, 3, 56, 17
4, 416544, Note_off_c, 3, 59, 0
4, 416544, Note_on_c, 3, 55, 17
4, 416592, Note_off_c, 3, 58, 0
4, 416592, Note_on_c, 3, 54, 17
4, 416640, Note_off_c, 3, 57, 0
4, 416640, Note_on_c, 3, 53, 17
4, 416688, Note_off_c, 3, 56, 0
4, 416688, Note_on_c, 3, 52, 17
4, 416736, Note_off_c, 3, 55, 0
4, 416736, Note_on_c, 3, 51, 17
4, 416784, Note_off_c, 3, 54, 0
4, 416784, Note_on_c, 3, 50, 17
4, 416832, Note_off_c, 3, 53, 0
4, 416832, Note_on_c, 3, 49, 17
4, 416880, Note_off_c, 3, 52, 0
4, 416880, Note_on_c, 3, 48, 17
4, 416928, Note_off_c, 3, 51, 0
4, 416928, Note_on_c, 3, 47, 17
4, 416976, Note_off_c, 3, 50, 0
4, 416976, Note_on_c, 3, 46, 17
4, 417024, Note_off_c, 3, 49, 0
4, 417024, Note_on_c, 3, 45, 17
4, 417072, Note_off_c, 3, 48, 0
4, 417072, Note_on_c, 3, 44, 17
4, 417120, Note_off_c, 3, 47, 0
4, 417120, Note_on_c, 3, 43, 17
4, 417168, Note_off_c, 3, 46, 0
4, 417168, Note_on_c, 3, 42, 17
4, 417216, Note_off_c, 3, 45, 0
4, 417216, Note_on_c, 3, 41, 17
4, 417264, Note_off_c, 3, 44, 0
4, 417264, Note_on_c, 3, 40, 17
4, 417312, Note_off_c, 3, 43, 0
4, 417312, Note_on_c, 3, 39, 17
4, 417360, Note_off_c, 3, 42, 0
4, 417360, Note_on_c, 3, 38, 17
4, 417408, Note_off_c, 3, 41, 0
4, 417408, Note_on_c, 3, 37, 17
4, 417456, Note_off_c, 3, 40, 0
4, 417456, Note_on_c, 3, 36, 17
4, 417504, Note_off_c, 3, 39, 0
4, 417504, Note_on_c, 3, 35, 17
4, 417552, Note_off_c, 3, 38, 0
4, 417552, Note_on_c, 3, 34, 17
4, 417600, Note_off_c, 3, 37, 0
4, 417600, Note_on_c, 3, 33, 17
4, 417648, Note_off_c, 3, 36, 0
4, 417648, Note_on_c, 3, 32, 17
4, 417696, Note_off_c, 3, 35, 0
4, 417696, Note_on_c, 3, 31, 17
4, 417744, Note_off_c, 3, 34, 0
4, 417744, Note_on_c, 3, 30, 17
4, 417792, Note_off_c, 3, 33, 0
4, 417792, Note_on_c, 3, 28, 17
4, 417840, Note_off_c, 3, 32, 0
4, 417840, Note_on_c, 3, 29, 17
4, 417888, Note_off_c, 3, 31, 0
4, 417888, Note_on_c, 3, 30, 17
4, 417936, Note_off_c, 3, 30, 0
4, 417936, Note_on_c, 3, 31, 17
4, 417984, Note_off_c, 3, 28, 0
4, 417984, Note_on_c, 3, 32, 17
4, 418032, Note_off_c, 3, 29, 0
4, 418032, Note_on_c, 3, 33, 17
4, 418080, Note_off_c, 3, 30, 0
4, 418080, Note_on_c, 3, 34, 17
4, 418128, Note_off_c, 3, 31, 0
4, 418128, Note_on_c, 3, 35, 17
4, 418176, Note_off_c, 3, 32, 0
4, 418176, Note_on_c, 3, 36, 17
4, 418224, Note_off_c, 3, 33, 0
4, 418224, Note_on_c, 3, 37, 17
4, 418272, Note_off_c, 3, 34, 0
4, 418272, Note_on_c, 3, 38, 17
4, 418320, Note_off_c, 3, 35, 0
4, 418320, Note_on_c, 3, 39, 17
4, 418368, Note_off_c, 3, 36, 0
4, 418368, Note_on_c, 3, 40, 17
4, 418416, Note_off_c, 3, 37, 0
4, 418416, Note_on_c, 3, 41, 17
4, 418464, Note_off_c, 3, 38, 0
4, 418464, Note_on_c, 3, 42, 17
4, 418512, Note_off_c, 3, 39, 0
4, 418512, Note_on_c, 3, 43, 17
4, 418560, Note_off_c, 3, 40, 0
4, 418560, Note_on_c, 3, 44, 17
4, 418608, Note_off_c, 3, 41, 0
4, 418608, Note_on_c, 3, 45, 17
4, 418656, Note_off_c, 3, 42, 0
4, 418656, Note_on_c, 3, 46, 17
4, 418704, Note_off_c, 3, 43, 0
4, 418704, Note_on_c, 3, 47, 17
4, 418752, Note_off_c, 3, 44, 0
4, 418752, Note_on_c, 3, 48, 17
4, 418800, Note_off_c, 3, 45, 0
4, 418800, Note_on_c, 3, 49, 17
4, 418848, Note_off_c, 3, 46, 0
4, 418848, Note_on_c, 3, 50, 17
4, 418896, Note_off_c, 3, 47, 0
4, 418896, Note_on_c, 3, 51, 17
4, 418944, Note_off_c, 3, 48, 0
4, 418944, Note_on_c, 3, 52, 17
4, 418992, Note_off_c, 3, 49, 0
4, 418992, Note_on_c, 3, 53, 17
4, 419040, Note_off_c, 3, 50, 0
4, 419040, Note_on_c, 3, 54, 17
4, 419088, Note_off_c, 3, 51, 0
4, 419088, Note_on_c, 3, 55, 17
4, 419136, Note_off_c, 3, 52, 0
4, 419136, Note_on_c, 3, 56, 17
4, 419184, Note_off_c, 3, 53, 0
4, 419184, Note_on_c, 3, 57, 17
4, 419232, Note_off_c, 3, 54, 0
4, 419232, Note_on_c, 3, 58, 17
4, 419280, Note_off_c, 3, 55, 0
4, 419280, Note_on_c, 3, 59, 17
4, 419328, Note_off_c, 3, 56, 0
4, 419328, Note_on_c, 3, 60, 17
4, 419376, Note_off_c, 3, 57, 0
4, 419376, Note_on_c, 3, 61, 17
4, 419424, Note_off_c, 3, 58, 0
4, 419424, Note_on_c, 3, 62, 17
4, 419472, Note_off_c, 3, 59, 0
4, 419472, Note_on_c, 3, 63, 17
4, 419520, Note_off_c, 3, 60, 0
4, 419520, Note_on_c, 3, 64, 17
4, 419568, Note_off_c, 3, 61, 0
4, 419568, Note_on_c, 3, 65, 17
4, 419616, Note_off_c, 3, 62, 0
4, 419616, Note_on_c, 3, 66, 17
4, 419664, Note_off_c, 3, 63, 0
4, 419664, Note_on_c, 3, 67, 17
4, 419712, Note_off_c, 3, 64, 0
4, 419712, Note_on_c, 3, 68, 17
4, 419760, Note_off_c, 3, 65, 0
4, 419760, Note_on_c, 3, 69, 17
4, 419808, Note_off_c, 3, 66, 0
4, 419808, Note_on_c, 3, 70, 17
4, 419856, Note_off_c, 3, 67, 0
4, 419856, Note_on_c, 3, 71, 17
4, 419904, Note_off_c, 3, 68, 0
4, 419904, Note_on_c, 3, 72, 17
4, 419952, Note_off_c, 3, 69, 0
4, 419952, Note_on_c, 3, 73, 17
4, 420000, Note_off_c, 3, 70, 0
4, 420000, Note_on_c, 3, 74, 17
4, 420048, Note_off_c, 3, 71, 0
4, 420048, Note_on_c, 3, 75, 17
4, 420096, Note_off_c, 3, 72, 0
4, 420096, Note_on_c, 3, 76, 17
4, 420144, Note_off_c, 3, 73, 0
4, 420144, Note_on_c, 3, 77, 17
4, 420192, Note_off_c, 3, 74, 0
4, 420192, Note_on_c, 3, 78, 17
4, 420240, Note_off_c, 3, 75, 0
4, 420240, Note_on_c, 3, 79, 17
4, 420288, Note_off_c, 3, 76, 0
4, 420288, Note_on_c, 3, 80, 17
4, 420336, Note_off_c, 3, 77, 0
4, 420336, Note_on_c, 3, 81, 17
4, 420384, Note_off_c, 3, 78, 0
4, 420384, Note_on_c, 3, 82, 17
4, 420432, Note_off_c, 3, 79, 0
4, 420432, Note_on_c, 3, 83, 17
4, 420480, Note_off_c, 3, 80, 0
4, 420480, Note_on_c, 3, 84, 17
4, 420528, Note_off_c, 3, 81, 0
4, 420528, Note_on_c, 3, 85, 17
4, 420576, Note_off_c, 3, 82, 0
4, 420576, Note_on_c, 3, 86, 17
4, 420624, Note_off_c, 3, 83, 0
4, 420624, Note_on_c, 3, 87, 17
4, 420672, Note_off_c, 3, 84, 0
4, 420672, Note_on_c, 3, 88, 17
4, 420720, Note_off_c, 3, 85, 0
4, 420720, Note_on_c, 3, 89, 17
4, 420768, Note_off_c, 3, 86, 0
4, 420768, Note_on_c, 3, 90, 17
4, 420816, Note_off_c, 3, 87, 0
4, 420816, Note_on_c, 3, 91, 17
4, 420864, Note_off_c, 3, 88, 0
4, 420864, Note_on_c, 3, 93, 17
4, 420912, Note_off_c, 3, 89, 0
4, 420912, Note_on_c, 3, 92, 17
4, 420960, Note_off_c, 3, 90, 0
4, 420960, Note_on_c, 3, 91, 17
4, 421008, Note_off_c, 3, 91, 0
4, 421008, Note_on_c, 3, 90, 17
4, 421056, Note_off_c, 3, 93, 0
4, 421056, Note_on_c, 3, 89, 17
4, 421104, Note_off_c, 3, 92, 0
4, 421104, Note_on_c, 3, 88, 17
4, 421152, Note_off_c, 3, 91, 0
4, 421152, Note_on_c, 3, 87, 17
4, 421200, Note_off_c, 3, 90, 0
4, 421200, Note_on_c, 3, 86, 17
4, 421248, Note_off_c, 3, 89, 0
4, 421248, Note_on_c, 3, 85, 17
4, 421296, Note_off_c, 3, 88, 0
4, 421296, Note_on_c, 3, 84, 17
4, 421344, Note_off_c, 3, 87, 0
4, 421344, Note_on_c, 3, 83, 17
4, 421392, Note_off_c, 3, 86, 0
4, 421392, Note_on_c, 3, 82, 17
4, 421440, Note_off_c, 3, 85, 0
4, 421440, Note_on_c, 3, 81, 17
4, 421488, Note_off_c, 3, 84, 0
4, 421488, Note_on_c, 3, 80, 17
4, 421536, Note_off_c, 3, 83, 0
4, 421536, Note_on_c, 3, 79, 17
4, 421584, Note_off_c, 3, 82, 0
4, 421584, Note_on_c, 3, 78, 17
4, 421632, Note_off_c, 3, 81, 0
4, 421632, Note_on_c, 3, 77, 17
4, 421680, Note_off_c, 3, 80, 0
4, 421680, Note_on_c, 3, 76, 17
4, 421728, Note_off_c, 3, 79, 0
4, 421728, Note_on_c, 3, 75, 17
4, 421776, Note_off_c, 3, 78, 0
4, 421776, Note_on_c, 3, 74, 17
4, 421824, Note_off_c, 3, 77, 0
4, 421824, Note_on_c, 3, 73, 17
4, 421872, Note_off_c, 3, 76, 0
4, 421872, Note_on_c, 3, 72, 17
4, 421920, Note_off_c, 3, 75, 0
4, 421920, Note_on_c, 3, 71, 17
4, 421968, Note_off_c, 3, 74, 0
4, 421968, Note_on_c, 3, 70, 17
4, 422016, Note_off_c, 3, 73, 0
4, 422016, Note_on_c, 3, 69, 17
4, 422064, Note_off_c, 3, 72, 0
4, 422064, Note_on_c, 3, 68, 17
4, 422112, Note_off_c, 3, 71, 0
4, 422112, Note_on_c, 3, 67, 17
4, 422160, Note_off_c, 3, 70, 0
4, 422160, Note_on_c, 3, 66, 17
4, 422208, Note_off_c, 3, 69, 0
4, 422208, Note_on_c, 3, 65, 17
4, 422256, Note_off_c, 3, 68, 0
4, 422256, Note_on_c, 3, 64, 17
4, 422304, Note_off_c, 3, 67, 0
4, 422304, Note_on_c, 3, 63, 17
4, 422352, Note_off_c, 3, 66, 0
4, 422352, Note_on_c, 3, 62, 17
4, 422400, Note_off_c, 3, 65, 0
4, 422400, Note_on_c, 3, 61, 17
4, 422448, Note_off_c, 3, 64, 0
4, 422448, Note_on_c, 3, 60, 17
4, 422496, Note_off_c, 3, 63, 0
4, 422496, Note_on_c, 3, 59, 17
4, 422544, Note_off_c, 3, 62, 0
4, 422544, Note_on_c, 3, 58, 17
4, 422592, Note_off_c, 3, 61, 0
4, 422592, Note_on_c, 3, 57, 17
4, 422640, Note_off_c, 3, 60, 0
4, 422640, Note_on_c, 3, 56, 17
4, 422688, Note_off_c, 3, 59, 0
4, 422688, Note_on_c, 3, 55, 17
4, 422736, Note_off_c, 3, 58, 0
4, 422736, Note_on_c, 3, 54, 17
4, 422784, Note_off_c, 3, 57, 0
4, 422784, Note_on_c, 3, 53, 17
4, 422832, Note_off_c, 3, 56, 0
4, 422832, Note_on_c, 3, 52, 17
4, 422880, Note_off_c, 3, 55, 0
4, 422880, Note_on_c, 3, 51, 17
4, 422928, Note_off_c, 3, 54, 0
4, 422928, Note_on_c, 3, 50, 17
4, 422976, Note_off_c, 3, 53, 0
4, 422976, Note_on_c, 3, 49, 17
4, 423024, Note_off_c, 3, 52, 0
4, 423024, Note_on_c, 3, 48, 17
4, 423072, Note_off_c, 3, 51, 0
4, 423072, Note_on_c, 3, 47, 17
4, 423120, Note_off_c, 3, 50, 0
4, 423120, Note_on_c, 3, 46, 17
4, 423168, Note_off_c, 3, 49, 0
4, 423168, Note_on_c, 3, 45, 17
4, 423216, Note_off_c, 3, 48, 0
4, 423216, Note_on_c, 3, 44, 17
4, 423264, Note_off_c, 3, 47, 0
4, 423264, Note_on_c, 3, 43, 17
4, 423312, Note_off_c, 3, 46, 0
4, 423312, Note_on_c, 3, 42, 17
4, 423360, Note_off_c, 3, 45, 0
4, 423360, Note_on_c, 3, 41, 17
4, 423408, Note_off_c, 3, 44, 0
4, 423408, Note_on_c, 3, 40, 17
4, 423456, Note_off_c, 3, 43, 0
4, 423456, Note_on_c, 3, 39, 17
4, 423504, Note_off_c, 3, 42, 0
4, 423504, Note_on_c, 3, 38, 17
4, 423552, Note_off_c, 3, 41, 0
4, 423552, Note_on_c, 3, 37, 17
4, 423600, Note_off_c, 3, 40, 0
4, 423600, Note_on_c, 3, 36, 17
4, 423648, Note_off_c, 3, 39, 0
4, 423648, Note_on_c, 3, 35, 17
4, 423696, Note_off_c, 3, 38, 0
4, 423696, Note_on_c, 3, 34, 17
4, 423744, Note_off_c, 3, 37, 0
4, 423744, Note_on_c, 3, 33, 17
4, 423792, Note_off_c, 3, 36, 0
4, 423792, Note_on_c, 3, 32, 17
4, 423840, Note_off_c, 3, 35, 0
4, 423840, Note_on_c, 3, 31, 17
4, 423888, Note_off_c, 3, 34, 0
4, 423888, Note_on_c, 3, 30, 17
4, 423936, Note_off_c, 3, 33, 0
4, 423936, Note_on_c, 3, 28, 17
4, 423984, Note_off_c, 3, 32, 0
4, 423984, Note_on_c, 3, 29, 17
4, 424032, Note_off_c, 3, 31, 0
4, 424032, Note_on_c, 3, 30, 17
4, 424080, Note_off_c, 3, 30, 0
4, 424080, Note_on_c, 3, 31, 17
4, 424128, Note_off_c, 3, 28, 0
4, 424128, Note_on_c, 3, 32, 17
4, 424176, Note_off_c, 3, 29, 0
4, 424176, Note_on_c, 3, 33, 17
4, 424224, Note_off_c, 3, 30, 0
4, 424224, Note_on_c, 3, 34, 17
4, 424272, Note_off_c, 3, 31, 0
4, 424272, Note_on_c, 3, 35, 17
4, 424320, Note_off_c, 3, 32, 0
4, 424320, Note_on_c, 3, 36, 17
4, 424368, Note_off_c, 3, 33, 0
4, 424368, Note_on_c, 3, 37, 17
4, 424416, Note_off_c, 3, 34, 0
4, 424416, Note_on_c, 3, 38, 17
4, 424464, Note_off_c, 3, 35, 0
4, 424464, Note_on_c, 3, 39, 17
4, 424512, Note_off_c, 3, 36, 0
4, 424512, Note_on_c, 3, 40, 17
4, 424560, Note_off_c, 3, 37, 0
4, 424560, Note_on_c, 3, 41, 17
4, 424608, Note_off_c, 3, 38, 0
4, 424608, Note_on_c, 3, 42, 17
4, 424656, Note_off_c, 3, 39, 0
4, 424656, Note_on_c, 3, 43, 17
4, 424704, Note_off_c, 3, 40, 0
4, 424704, Note_on_c, 3, 44, 17
4, 424752, Note_off_c, 3, 41, 0
4, 424752, Note_on_c, 3, 45, 17
4, 424800, Note_off_c, 3, 42, 0
4, 424800, Note_on_c, 3, 46, 17
4, 424848, Note_off_c, 3, 43, 0
4, 424848, Note_on_c, 3, 47, 17
4, 424896, Note_off_c, 3, 44, 0
4, 424896, Note_on_c, 3, 48, 17
4, 424944, Note_off_c, 3, 45, 0
4, 424944, Note_on_c, 3, 49, 17
4, 424992, Note_off_c, 3, 46, 0
4, 424992, Note_on_c, 3, 50, 17
4, 425040, Note_off_c, 3, 47, 0
4, 425040, Note_on_c, 3, 51, 17
4, 425088, Note_off_c, 3, 48, 0
4, 425088, Note_on_c, 3, 52, 17
4, 425136, Note_off_c, 3, 49, 0
4, 425136, Note_on_c, 3, 53, 17
4, 425184, Note_off_c, 3, 50, 0
4, 425184, Note_on_c, 3, 54, 17
4, 425232, Note_off_c, 3, 51, 0
4, 425232, Note_on_c, 3, 55, 17
4, 425280, Note_off_c, 3, 52, 0
4, 425280, Note_on_c, 3, 56, 17
4, 425328, Note_off_c, 3, 53, 0
4, 425328, Note_on_c, 3, 57, 17
4, 425376, Note_off_c, 3, 54, 0
4, 425376, Note_on_c, 3, 58, 17
4, 425424, Note_off_c, 3, 55, 0
4, 425424, Note_on_c, 3, 59, 17
4, 425472, Note_off_c, 3, 56, 0
4, 425472, Note_on_c, 3, 60, 17
4, 425520, Note_off_c, 3, 57, 0
4, 425520, Note_on_c, 3, 61, 17
4, 425568, Note_off_c, 3, 58, 0
4, 425568, Note_on_c, 3, 62, 17
4, 425616, Note_off_c, 3, 59, 0
4, 425616, Note_on_c, 3, 63, 17
4, 425664, Note_off_c, 3, 60, 0
4, 425664, Note_on_c, 3, 64, 17
4, 425712, Note_off_c, 3, 61, 0
4, 425712, Note_on_c, 3, 65, 17
4, 425760, Note_off_c, 3, 62, 0
4, 425760, Note_on_c, 3, 66, 17
4, 425808, Note_off_c, 3, 63, 0
4, 425808, Note_on_c, 3, 67, 17
4, 425856, Note_off_c, 3, 64, 0
4, 425856, Note_on_c, 3, 68, 17
4, 425904, Note_off_c, 3, 65, 0
4, 425904, Note_on_c, 3, 69, 17
4, 425952, Note_off_c, 3, 66, 0
4, 425952, Note_on_c, 3, 70, 17
4, 426000, Note_off_c, 3, 67, 0
4, 426000, Note_on_c, 3, 71, 17
4, 426048, Note_off_c, 3, 68, 0
4, 426048, Note_on_c, 3, 72, 17
4, 426096, Note_off_c, 3, 69, 0
4, 426096, Note_on_c, 3, 73, 17
4, 426144, Note_off_c, 3, 70, 0
4, 426144, Note_on_c, 3, 74, 17
4, 426192, Note_off_c, 3, 71, 0
4, 426192, Note_on_c, 3, 75, 17
4, 426240, Note_off_c, 3, 72, 0
4, 426240, Note_on_c, 3, 76, 17
4, 426288, Note_off_c, 3, 73, 0
4, 426288, Note_on_c, 3, 77, 17
4, 426336, Note_off_c, 3, 74, 0
4, 426336, Note_on_c, 3, 78, 17
4, 426384, Note_off_c, 3, 75, 0
4, 426384, Note_on_c, 3, 79, 17
4, 426432, Note_off_c, 3, 76, 0
4, 426432, Note_on_c, 3, 80, 17
4, 426480, Note_off_c, 3, 77, 0
4, 426480, Note_on_c, 3, 81, 17
4, 426528, Note_off_c, 3, 78, 0
4, 426528, Note_on_c, 3, 82, 17
4, 426576, Note_off_c, 3, 79, 0
4, 426576, Note_on_c, 3, 83, 17
4, 426624, Note_off_c, 3, 80, 0
4, 426624, Note_on_c, 3, 84, 17
4, 426672, Note_off_c, 3, 81, 0
4, 426672, Note_on_c, 3, 85, 17
4, 426720, Note_off_c, 3, 82, 0
4, 426720, Note_on_c, 3, 86, 17
4, 426768, Note_off_c, 3, 83, 0
4, 426768, Note_on_c, 3, 87, 17
4, 426816, Note_off_c, 3, 84, 0
4, 426816, Note_on_c, 3, 88, 17
4, 426864, Note_off_c, 3, 85, 0
4, 426864, Note_on_c, 3, 89, 17
4, 426912, Note_off_c, 3, 86, 0
4, 426912, Note_on_c, 3, 90, 17
4, 426960, Note_off_c, 3, 87, 0
4, 426960, Note_on_c, 3, 91, 17
4, 427008, Note_off_c, 3, 88, 0
4, 427008, Note_on_c, 3, 93, 17
4, 427056, Note_off_c, 3, 89, 0
4, 427056, Note_on_c, 3, 92, 17
4, 427104, Note_off_c, 3, 90, 0
4, 427104, Note_on_c, 3, 91, 17
4, 427152, Note_off_c, 3, 91, 0
4, 427152, Note_on_c, 3, 90, 17
4, 427200, Note_off_c, 3, 93, 0
4, 427200, Note_on_c, 3, 89, 17
4, 427248, Note_off_c, 3, 92, 0
4, 427248, Note_on_c, 3, 88, 17
4, 427296, Note_off_c, 3, 91, 0
4, 427296, Note_on_c, 3, 87, 17
4, 427344, Note_off_c, 3, 90, 0
4, 427344, Note_on_c, 3, 86, 17
4, 427392, Note_off_c, 3, 89, 0
4, 427392, Note_on_c, 3, 85, 17
4, 427440, Note_off_c, 3, 88, 0
4, 427440, Note_on_c, 3, 84, 17
4, 427488, Note_off_c, 3, 87, 0
4, 427488, Note_on_c, 3, 83, 17
4, 427536, Note_off_c, 3, 86, 0
4, 427536, Note_on_c, 3, 82, 17
4, 427584, Note_off_c, 3, 85, 0
4, 427584, Note_on_c, 3, 81, 17
4, 427632, Note_off_c, 3, 84, 0
4, 427632, Note_on_c, 3, 80, 17
4, 427680, Note_off_c, 3, 83, 0
4, 427680, Note_on_c, 3, 79, 17
4, 427728, Note_off_c, 3, 82, 0
4, 427728, Note_on_c, 3, 78, 17
4, 427776, Note_off_c, 3, 81, 0
4, 427776, Note_on_c, 3, 77, 17
4, 427824, Note_off_c, 3, 80, 0
4, 427824, Note_on_c, 3, 76, 17
4, 427872, Note_off_c, 3, 79, 0
4, 427872, Note_on_c, 3, 75, 17
4, 427920, Note_off_c, 3, 78, 0
4, 427920, Note_on_c, 3, 74, 17
4, 427968, Note_off_c, 3, 77, 0
4, 427968, Note_on_c, 3, 73, 17
4, 428016, Note_off_c, 3, 76, 0
4, 428016, Note_on_c, 3, 72, 17
4, 428064, Note_off_c, 3, 75, 0
4, 428064, Note_on_c, 3, 71, 17
4, 428112, Note_off_c, 3, 74, 0
4, 428112, Note_on_c, 3, 70, 17
4, 428160, Note_off_c, 3, 73, 0
4, 428160, Note_on_c, 3, 69, 17
4, 428208, Note_off_c, 3, 72, 0
4, 428208, Note_on_c, 3, 68, 17
4, 428256, Note_off_c, 3, 71, 0
4, 428256, Note_on_c, 3, 67, 17
4, 428304, Note_off_c, 3, 70, 0
4, 428304, Note_on_c, 3, 66, 17
4, 428352, Note_off_c, 3, 69, 0
4, 428352, Note_on_c, 3, 65, 17
4, 428400, Note_off_c, 3, 68, 0
4, 428400, Note_on_c, 3, 64, 17
4, 428448, Note_off_c, 3, 67, 0
4, 428448, Note_on_c, 3, 63, 17
4, 428496, Note_off_c, 3, 66, 0
4, 428496, Note_on_c, 3, 62, 17
4, 428544, Note_off_c, 3, 65, 0
4, 428544, Note_on_c, 3, 61, 17
4, 428592, Note_off_c, 3, 64, 0
4, 428592, Note_on_c, 3, 60, 17
4, 428640, Note_off_c, 3, 63, 0
4, 428640, Note_on_c, 3, 59, 17
4, 428688, Note_off_c, 3, 62, 0
4, 428688, Note_on_c, 3, 58, 17
4, 428736, Note_off_c, 3, 61, 0
4, 428736, Note_on_c, 3, 57, 17
4, 428784, Note_off_c, 3, 60, 0
4, 428784, Note_on_c, 3, 56, 17
4, 428832, Note_off_c, 3, 59, 0
4, 428832, Note_on_c, 3, 55, 17
4, 428880, Note_off_c, 3, 58, 0
4, 428880, Note_on_c, 3, 54, 17
4, 428928, Note_off_c, 3, 57, 0
4, 428928, Note_on_c, 3, 53, 17
4, 428976, Note_off_c, 3, 56, 0
4, 428976, Note_on_c, 3, 52, 17
4, 429024, Note_off_c, 3, 55, 0
4, 429024, Note_on_c, 3, 51, 17
4, 429072, Note_off_c, 3, 54, 0
4, 429072, Note_on_c, 3, 50, 17
4, 429120, Note_off_c, 3, 53, 0
4, 429120, Note_on_c, 3, 49, 17
4, 429168, Note_off_c, 3, 52, 0
4, 429168, Note_on_c, 3, 48, 17
4, 429216, Note_off_c, 3, 51, 0
4, 429216, Note_on_c, 3, 47, 17
4, 429264, Note_off_c, 3, 50, 0
4, 429264, Note_on_c, 3, 46, 17
4, 429312, Note_off_c, 3, 49, 0
4, 429312, Note_on_c, 3, 45, 17
4, 429360, Note_off_c, 3, 48, 0
4, 429360, Note_on_c, 3, 44, 17
4, 429408, Note_off_c, 3, 47, 0
4, 429408, Note_on_c, 3, 43, 17
4, 429456, Note_off_c, 3, 46, 0
4, 429456, Note_on_c, 3, 42, 17
4, 429504, Note_off_c, 3, 45, 0
4, 429504, Note_on_c, 3, 41, 17
4, 429552, Note_off_c, 3, 44, 0
4, 429552, Note_on_c, 3, 40, 17
4, 429600, Note_off_c, 3, 43, 0
4, 429600, Note_on_c, 3, 39, 17
4, 429648, Note_off_c, 3, 42, 0
4, 429648, Note_on_c, 3, 38, 17
4, 429696, Note_off_c, 3, 41, 0
4, 429696, Note_on_c, 3, 37, 17
4, 429744, Note_off_c, 3, 40, 0
4, 429744, Note_on_c, 3, 36, 17
4, 429792, Note_off_c, 3, 39, 0
4, 429792, Note_on_c, 3, 35, 17
4, 429840, Note_off_c, 3, 38, 0
4, 429840, Note_on_c, 3, 34, 17
4, 429888, Note_off_c, 3, 37, 0
4, 429888, Note_on_c, 3, 33, 17
4, 429936, Note_off_c, 3, 36, 0
4, 429936, Note_on_c, 3, 32, 17
4, 429984, Note_off_c, 3, 35, 0
4, 429984, Note_on_c, 3, 31, 17
4, 430032, Note_off_c, 3, 34, 0
4, 430032, Note_on_c, 3, 30, 17
4, 430080, Note_off_c, 3, 33, 0
4, 430080, Note_on_c, 3, 28, 17
4, 430080, Note_on_c, 3, 93, 17
4, 430128, Note_off_c, 3, 32, 0
4, 430128, Note_on_c, 3, 29, 17
4, 430128, Note_on_c, 3, 92, 17
4, 430176, Note_off_c, 3, 31, 0
4, 430176, Note_on_c, 3, 30, 17
4, 430176, Note_on_c, 3, 91, 17
4, 430224, Note_off_c, 3, 30, 0
4, 430224, Note_on_c, 3, 31, 17
4, 430224, Note_on_c, 3, 90, 17
4, 430272, Note_off_c, 3, 93, 0
4, 430272, Note_off_c, 3, 28, 0
4, 430272, Note_on_c, 3, 32, 17
4, 430272, Note_on_c, 3, 89, 17
4, 430320, Note_off_c, 3, 92, 0
4, 430320, Note_off_c, 3, 29, 0
4, 430320, Note_on_c, 3, 33, 17
4, 430320, Note_on_c, 3, 88, 17
4, 430368, Note_off_c, 3, 91, 0
4, 430368, Note_off_c, 3, 30, 0
4, 430368, Note_on_c, 3, 34, 17
4, 430368, Note_on_c, 3, 87, 17
4, 430416, Note_off_c, 3, 90, 0
4, 430416, Note_off_c, 3, 31, 0
4, 430416, Note_on_c, 3, 35, 17
4, 430416, Note_on_c, 3, 86, 17
4, 430464, Note_off_c, 3, 89, 0
4, 430464, Note_off_c, 3, 32, 0
4, 430464, Note_on_c, 3, 36, 17
4, 430464, Note_on_c, 3, 85, 17
4, 430512, Note_off_c, 3, 88, 0
4, 430512, Note_off_c, 3, 33, 0
4, 430512, Note_on_c, 3, 37, 17
4, 430512, Note_on_c, 3, 84, 17
4, 430560, Note_off_c, 3, 87, 0
4, 430560, Note_off_c, 3, 34, 0
4, 430560, Note_on_c, 3, 38, 17
4, 430560, Note_on_c, 3, 83, 17
4, 430608, Note_off_c, 3, 86, 0
4, 430608, Note_off_c, 3, 35, 0
4, 430608, Note_on_c, 3, 39, 17
4, 430608, Note_on_c, 3, 82, 17
4, 430656, Note_off_c, 3, 85, 0
4, 430656, Note_off_c, 3, 36, 0
4, 430656, Note_on_c, 3, 40, 17
4, 430656, Note_on_c, 3, 81, 17
4, 430704, Note_off_c, 3, 84, 0
4, 430704, Note_off_c, 3, 37, 0
4, 430704, Note_on_c, 3, 41, 17
4, 430704, Note_on_c, 3, 80, 17
4, 430752, Note_off_c, 3, 83, 0
4, 430752, Note_off_c, 3, 38, 0
4, 430752, Note_on_c, 3, 42, 17
4, 430752, Note_on_c, 3, 79, 17
4, 430800, Note_off_c, 3, 82, 0
4, 430800, Note_off_c, 3, 39, 0
4, 430800, Note_on_c, 3, 43, 17
4, 430800, Note_on_c, 3, 78, 17
4, 430848, Note_off_c, 3, 81, 0
4, 430848, Note_off_c, 3, 40, 0
4, 430848, Note_on_c, 3, 44, 17
4, 430848, Note_on_c, 3, 77, 17
4, 430896, Note_off_c, 3, 80, 0
4, 430896, Note_off_c, 3, 41, 0
4, 430896, Note_on_c, 3, 45, 17
4, 430896, Note_on_c, 3, 76, 17
4, 430944, Note_off_c, 3, 79, 0
4, 430944, Note_off_c, 3, 42, 0
4, 430944, Note_on_c, 3, 46, 17
4, 430944, Note_on_c, 3, 75, 17
4, 430992, Note_off_c, 3, 78, 0
4, 430992, Note_off_c, 3, 43, 0
4, 430992, Note_on_c, 3, 47, 17
4, 430992, Note_on_c, 3, 74, 17
4, 431040, Note_off_c, 3, 77, 0
4, 431040, Note_off_c, 3, 44, 0
4, 431040, Note_on_c, 3, 48, 17
4, 431040, Note_on_c, 3, 73, 17
4, 431088, Note_off_c, 3, 76, 0
4, 431088, Note_off_c, 3, 45, 0
4, 431088, Note_on_c, 3, 49, 17
4, 431088, Note_on_c, 3, 72, 17
4, 431136, Note_off_c, 3, 75, 0
4, 431136, Note_off_c, 3, 46, 0
4, 431136, Note_on_c, 3, 50, 17
4, 431136, Note_on_c, 3, 71, 17
4, 431184, Note_off_c, 3, 74, 0
4, 431184, Note_off_c, 3, 47, 0
4, 431184, Note_on_c, 3, 51, 17
4, 431184, Note_on_c, 3, 70, 17
4, 431232, Note_off_c, 3, 73, 0
4, 431232, Note_off_c, 3, 48, 0
4, 431232, Note_on_c, 3, 52, 17
4, 431232, Note_on_c, 3, 69, 17
4, 431280, Note_off_c, 3, 72, 0
4, 431280, Note_off_c, 3, 49, 0
4, 431280, Note_on_c, 3, 53, 17
4, 431280, Note_on_c, 3, 68, 17
4, 431328, Note_off_c, 3, 71, 0
4, 431328, Note_off_c, 3, 50, 0
4, 431328, Note_on_c, 3, 54, 17
4, 431328, Note_on_c, 3, 67, 17
4, 431376, Note_off_c, 3, 70, 0
4, 431376, Note_off_c, 3, 51, 0
4, 431376, Note_on_c, 3, 55, 17
4, 431376, Note_on_c, 3, 66, 17
4, 431424, Note_off_c, 3, 69, 0
4, 431424, Note_off_c, 3, 52, 0
4, 431424, Note_on_c, 3, 56, 17
4, 431424, Note_on_c, 3, 65, 17
4, 431472, Note_off_c, 3, 68, 0
4, 431472, Note_off_c, 3, 53, 0
4, 431472, Note_on_c, 3, 57, 17
4, 431472, Note_on_c, 3, 64, 17
4, 431520, Note_off_c, 3, 67, 0
4, 431520, Note_off_c, 3, 54, 0
4, 431520, Note_on_c, 3, 58, 17
4, 431520, Note_on_c, 3, 63, 17
4, 431568, Note_off_c, 3, 66, 0
4, 431568, Note_off_c, 3, 55, 0
4, 431568, Note_on_c, 3, 59, 17
4, 431568, Note_on_c, 3, 62, 17
4, 431616, Note_off_c, 3, 65, 0
4, 431616, Note_off_c, 3, 56, 0
4, 431616, Note_on_c, 3, 60, 17
4, 431616, Note_on_c, 3, 61, 17
4, 431664, Note_off_c, 3, 64, 0
4, 431664, Note_off_c, 3, 57, 0
4, 431664, Note_on_c, 3, 61, 17
4, 431664, Note_on_c, 3, 60, 17
4, 431712, Note_off_c, 3, 63, 0
4, 431712, Note_off_c, 3, 58, 0
4, 431712, Note_on_c, 3, 62, 17
4, 431712, Note_on_c, 3, 59, 17
4, 431760, Note_off_c, 3, 62, 0
4, 431760, Note_off_c, 3, 59, 0
4, 431760, Note_on_c, 3, 63, 17
4, 431760, Note_on_c, 3, 58, 17
4, 431808, Note_off_c, 3, 61, 0
4, 431808, Note_off_c, 3, 60, 0
4, 431808, Note_on_c, 3, 64, 17
4, 431808, Note_on_c, 3, 57, 17
4, 431856, Note_off_c, 3, 60, 0
4, 431856, Note_off_c, 3, 61, 0
4, 431856, Note_on_c, 3, 65, 17
4, 431856, Note_on_c, 3, 56, 17
4, 431904, Note_off_c, 3, 59, 0
4, 431904, Note_off_c, 3, 62, 0
4, 431904, Note_on_c, 3, 66, 17
4, 431904, Note_on_c, 3, 55, 17
4, 431952, Note_off_c, 3, 58, 0
4, 431952, Note_off_c, 3, 63, 0
4, 431952, Note_on_c, 3, 67, 17
4, 431952, Note_on_c, 3, 54, 17
4, 432000, Note_off_c, 3, 57, 0
4, 432000, Note_off_c, 3, 64, 0
4, 432000, Note_on_c, 3, 68, 17
4, 432000, Note_on_c, 3, 53, 17
4, 432048, Note_off_c, 3, 56, 0
4, 432048, Note_off_c, 3, 65, 0
4, 432048, Note_on_c, 3, 69, 17
4, 432048, Note_on_c, 3, 52, 17
4, 432096, Note_off_c, 3, 55, 0
4, 432096, Note_off_c, 3, 66, 0
4, 432096, Note_on_c, 3, 70, 17
4, 432096, Note_on_c, 3, 51, 17
4, 432144, Note_off_c, 3, 54, 0
4, 432144, Note_off_c, 3, 67, 0
4, 432144, Note_on_c, 3, 71, 17
4, 432144, Note_on_c, 3, 50, 17
4, 432192, Note_off_c, 3, 53, 0
4, 432192, Note_off_c, 3, 68, 0
4, 432192, Note_on_c, 3, 72, 17
4, 432192, Note_on_c, 3, 49, 17
4, 432240, Note_off_c, 3, 52, 0
4, 432240, Note_off_c, 3, 69, 0
4, 432240, Note_on_c, 3, 73, 17
4, 432240, Note_on_c, 3, 48, 17
4, 432288, Note_off_c, 3, 51, 0
4, 432288, Note_off_c, 3, 70, 0
4, 432288, Note_on_c, 3, 74, 17
4, 432288, Note_on_c, 3, 47, 17
4, 432336, Note_off_c, 3, 50, 0
4, 432336, Note_off_c, 3, 71, 0
4, 432336, Note_on_c, 3, 75, 17
4, 432336, Note_on_c, 3, 46, 17
4, 432384, Note_off_c, 3, 49, 0
4, 432384, Note_off_c, 3, 72, 0
4, 432384, Note_on_c, 3, 76, 17
4, 432384, Note_on_c, 3, 45, 17
4, 432432, Note_off_c, 3, 48, 0
4, 432432, Note_off_c, 3, 73, 0
4, 432432, Note_on_c, 3, 77, 17
4, 432432, Note_on_c, 3, 44, 17
4, 432480, Note_off_c, 3, 47, 0
4, 432480, Note_off_c, 3, 74, 0
4, 432480, Note_on_c, 3, 78, 17
4, 432480, Note_on_c, 3, 43, 17
4, 432528, Note_off_c, 3, 46, 0
4, 432528, Note_off_c, 3, 75, 0
4, 432528, Note_on_c, 3, 79, 17
4, 432528, Note_on_c, 3, 42, 17
4, 432576, Note_off_c, 3, 45, 0
4, 432576, Note_off_c, 3, 76, 0
4, 432576, Note_on_c, 3, 80, 17
4, 432576, Note_on_c, 3, 41, 17
4, 432624, Note_off_c, 3, 44, 0
4, 432624, Note_off_c, 3, 77, 0
4, 432624, Note_on_c, 3, 81, 17
4, 432624, Note_on_c, 3, 40, 17
4, 432672, Note_off_c, 3, 43, 0
4, 432672, Note_off_c, 3, 78, 0
4, 432672, Note_on_c, 3, 82, 17
4, 432672, Note_on_c, 3, 39, 17
4, 432720, Note_off_c, 3, 42, 0
4, 432720, Note_off_c, 3, 79, 0
4, 432720, Note_on_c, 3, 83, 17
4, 432720, Note_on_c, 3, 38, 17
4, 432768, Note_off_c, 3, 41, 0
4, 432768, Note_off_c, 3, 80, 0
4, 432768, Note_on_c, 3, 84, 17
4, 432768, Note_on_c, 3, 37, 17
4, 432816, Note_off_c, 3, 40, 0
4, 432816, Note_off_c, 3, 81, 0
4, 432816, Note_on_c, 3, 85, 17
4, 432816, Note_on_c, 3, 36, 17
4, 432864, Note_off_c, 3, 39, 0
4, 432864, Note_off_c, 3, 82, 0
4, 432864, Note_on_c, 3, 86, 17
4, 432864, Note_on_c, 3, 35, 17
4, 432912, Note_off_c, 3, 38, 0
4, 432912, Note_off_c, 3, 83, 0
4, 432912, Note_on_c, 3, 87, 17
4, 432912, Note_on_c, 3, 34, 17
4, 432960, Note_off_c, 3, 37, 0
4, 432960, Note_off_c, 3, 84, 0
4, 432960, Note_on_c, 3, 88, 17
4, 432960, Note_on_c, 3, 33, 17
4, 433008, Note_off_c, 3, 36, 0
4, 433008, Note_off_c, 3, 85, 0
4, 433008, Note_on_c, 3, 89, 17
4, 433008, Note_on_c, 3, 32, 17
4, 433056, Note_off_c, 3, 35, 0
4, 433056, Note_off_c, 3, 86, 0
4, 433056, Note_on_c, 3, 90, 17
4, 433056, Note_on_c, 3, 31, 17
4, 433104, Note_off_c, 3, 34, 0
4, 433104, Note_off_c, 3, 87, 0
4, 433104, Note_on_c, 3, 91, 17
4, 433104, Note_on_c, 3, 30, 17
4, 433152, Note_off_c, 3, 33, 0
4, 433152, Note_off_c, 3, 88, 0
4, 433152, Note_on_c, 3, 93, 17
4, 433152, Note_on_c, 3, 28, 17
4, 433200, Note_off_c, 3, 32, 0
4, 433200, Note_off_c, 3, 89, 0
4, 433200, Note_on_c, 3, 92, 17
4, 433200, Note_on_c, 3, 29, 17
4, 433248, Note_off_c, 3, 31, 0
4, 433248, Note_off_c, 3, 90, 0
4, 433248, Note_on_c, 3, 91, 17
4, 433248, Note_on_c, 3, 30, 17
4, 433296, Note_off_c, 3, 30, 0
4, 433296, Note_off_c, 3, 91, 0
4, 433296, Note_on_c, 3, 90, 17
4, 433296, Note_on_c, 3, 31, 17
4, 433344, Note_off_c, 3, 28, 0
4, 433344, Note_off_c, 3, 93, 0
4, 433344, Note_on_c, 3, 89, 17
4, 433344, Note_on_c, 3, 32, 17
4, 433392, Note_off_c, 3, 29, 0
4, 433392, Note_off_c, 3, 92, 0
4, 433392, Note_on_c, 3, 88, 17
4, 433392, Note_on_c, 3, 33, 17
4, 433440, Note_off_c, 3, 30, 0
4, 433440, Note_off_c, 3, 91, 0
4, 433440, Note_on_c, 3, 87, 17
4, 433440, Note_on_c, 3, 34, 17
4, 433488, Note_off_c, 3, 31, 0
4, 433488, Note_off_c, 3, 90, 0
4, 433488, Note_on_c, 3, 86, 17
4, 433488, Note_on_c, 3, 35, 17
4, 433536, Note_off_c, 3, 32, 0
4, 433536, Note_off_c, 3, 89, 0
4, 433536, Note_on_c, 3, 85, 17
4, 433536, Note_on_c, 3, 36, 17
4, 433584, Note_off_c, 3, 33, 0
4, 433584, Note_off_c, 3, 88, 0
4, 433584, Note_on_c, 3, 84, 17
4, 433584, Note_on_c, 3, 37, 17
4, 433632, Note_off_c, 3, 34, 0
4, 433632, Note_off_c, 3, 87, 0
4, 433632, Note_on_c, 3, 83, 17
4, 433632, Note_on_c, 3, 38, 17
4, 433680, Note_off_c, 3, 35, 0
4, 433680, Note_off_c, 3, 86, 0
4, 433680, Note_on_c, 3, 82, 17
4, 433680, Note_on_c, 3, 39, 17
4, 433728, Note_off_c, 3, 36, 0
4, 433728, Note_off_c, 3, 85, 0
4, 433728, Note_on_c, 3, 81, 17
4, 433728, Note_on_c, 3, 40, 17
4, 433776, Note_off_c, 3, 37, 0
4, 433776, Note_off_c, 3, 84, 0
4, 433776, Note_on_c, 3, 80, 17
4, 433776, Note_on_c, 3, 41, 17
4, 433824, Note_off_c, 3, 38, 0
4, 433824, Note_off_c, 3, 83, 0
4, 433824, Note_on_c, 3, 79, 17
4, 433824, Note_on_c, 3, 42, 17
4, 433872, Note_off_c, 3, 39, 0
4, 433872, Note_off_c, 3, 82, 0
4, 433872, Note_on_c, 3, 78, 17
4, 433872, Note_on_c, 3, 43, 17
4, 433920, Note_off_c, 3, 40, 0
4, 433920, Note_off_c, 3, 81, 0
4, 433920, Note_on_c, 3, 77, 17
4, 433920, Note_on_c, 3, 44, 17
4, 433968, Note_off_c, 3, 41, 0
4, 433968, Note_off_c, 3, 80, 0
4, 433968, Note_on_c, 3, 76, 17
4, 433968, Note_on_c, 3, 45, 17
4, 434016, Note_off_c, 3, 42, 0
4, 434016, Note_off_c, 3, 79, 0
4, 434016, Note_on_c, 3, 75, 17
4, 434016, Note_on_c, 3, 46, 17
4, 434064, Note_off_c, 3, 43, 0
4, 434064, Note_off_c, 3, 78, 0
4, 434064, Note_on_c, 3, 74, 17
4, 434064, Note_on_c, 3, 47, 17
4, 434112, Note_off_c, 3, 44, 0
4, 434112, Note_off_c, 3, 77, 0
4, 434112, Note_on_c, 3, 73, 17
4, 434112, Note_on_c, 3, 48, 17
4, 434160, Note_off_c, 3, 45, 0
4, 434160, Note_off_c, 3, 76, 0
4, 434160, Note_on_c, 3, 72, 17
4, 434160, Note_on_c, 3, 49, 17
4, 434208, Note_off_c, 3, 46, 0
4, 434208, Note_off_c, 3, 75, 0
4, 434208, Note_on_c, 3, 71, 17
4, 434208, Note_on_c, 3, 50, 17
4, 434256, Note_off_c, 3, 47, 0
4, 434256, Note_off_c, 3, 74, 0
4, 434256, Note_on_c, 3, 70, 17
4, 434256, Note_on_c, 3, 51, 17
4, 434304, Note_off_c, 3, 48, 0
4, 434304, Note_off_c, 3, 73, 0
4, 434304, Note_on_c, 3, 69, 17
4, 434304, Note_on_c, 3, 52, 17
4, 434352, Note_off_c, 3, 49, 0
4, 434352, Note_off_c, 3, 72, 0
4, 434352, Note_on_c, 3, 68, 17
4, 434352, Note_on_c, 3, 53, 17
4, 434400, Note_off_c, 3, 50, 0
4, 434400, Note_off_c, 3, 71, 0
4, 434400, Note_on_c, 3, 67, 17
4, 434400, Note_on_c, 3, 54, 17
4, 434448, Note_off_c, 3, 51, 0
4, 434448, Note_off_c, 3, 70, 0
4, 434448, Note_on_c, 3, 66, 17
4, 434448, Note_on_c, 3, 55, 17
4, 434496, Note_off_c, 3, 52, 0
4, 434496, Note_off_c, 3, 69, 0
4, 434496, Note_on_c, 3, 65, 17
4, 434496, Note_on_c, 3, 56, 17
4, 434544, Note_off_c, 3, 53, 0
4, 434544, Note_off_c, 3, 68, 0
4, 434544, Note_on_c, 3, 64, 17
4, 434544, Note_on_c, 3, 57, 17
4, 434592, Note_off_c, 3, 54, 0
4, 434592, Note_off_c, 3, 67, 0
4, 434592, Note_on_c, 3, 63, 17
4, 434592, Note_on_c, 3, 58, 17
4, 434640, Note_off_c, 3, 55, 0
4, 434640, Note_off_c, 3, 66, 0
4, 434640, Note_on_c, 3, 62, 17
4, 434640, Note_on_c, 3, 59, 17
4, 434688, Note_off_c, 3, 56, 0
4, 434688, Note_off_c, 3, 65, 0
4, 434688, Note_on_c, 3, 61, 17
4, 434688, Note_on_c, 3, 60, 17
4, 434736, Note_off_c, 3, 57, 0
4, 434736, Note_off_c, 3, 64, 0
4, 434736, Note_on_c, 3, 60, 17
4, 434736, Note_on_c, 3, 61, 17
4, 434784, Note_off_c, 3, 58, 0
4, 434784, Note_off_c, 3, 63, 0
4, 434784, Note_on_c, 3, 59, 17
4, 434784, Note_on_c, 3, 62, 17
4, 434832, Note_off_c, 3, 59, 0
4, 434832, Note_off_c, 3, 62, 0
4, 434832, Note_on_c, 3, 58, 17
4, 434832, Note_on_c, 3, 63, 17
4, 434880, Note_off_c, 3, 60, 0
4, 434880, Note_off_c, 3, 61, 0
4, 434880, Note_on_c, 3, 57, 17
4, 434880, Note_on_c, 3, 64, 17
4, 434928, Note_off_c, 3, 61, 0
4, 434928, Note_off_c, 3, 60, 0
4, 434928, Note_on_c, 3, 56, 17
4, 434928, Note_on_c, 3, 65, 17
4, 434976, Note_off_c, 3, 62, 0
4, 434976, Note_off_c, 3, 59, 0
4, 434976, Note_on_c, 3, 55, 17
4, 434976, Note_on_c, 3, 66, 17
4, 435024, Note_off_c, 3, 63, 0
4, 435024, Note_off_c, 3, 58, 0
4, 435024, Note_on_c, 3, 54, 17
4, 435024, Note_on_c, 3, 67, 17
4, 435072, Note_off_c, 3, 64, 0
4, 435072, Note_off_c, 3, 57, 0
4, 435072, Note_on_c, 3, 53, 17
4, 435072, Note_on_c, 3, 68, 17
4, 435120, Note_off_c, 3, 65, 0
4, 435120, Note_off_c, 3, 56, 0
4, 435120, Note_on_c, 3, 52, 17
4, 435120, Note_on_c, 3, 69, 17
4, 435168, Note_off_c, 3, 66, 0
4, 435168, Note_off_c, 3, 55, 0
4, 435168, Note_on_c, 3, 51, 17
4, 435168, Note_on_c, 3, 70, 17
4, 435216, Note_off_c, 3, 67, 0
4, 435216, Note_off_c, 3, 54, 0
4, 435216, Note_on_c, 3, 50, 17
4, 435216, Note_on_c, 3, 71, 17
4, 435264, Note_off_c, 3, 68, 0
4, 435264, Note_off_c, 3, 53, 0
4, 435264, Note_on_c, 3, 49, 17
4, 435264, Note_on_c, 3, 72, 17
4, 435312, Note_off_c, 3, 69, 0
4, 435312, Note_off_c, 3, 52, 0
4, 435312, Note_on_c, 3, 48, 17
4, 435312, Note_on_c, 3, 73, 17
4, 435360, Note_off_c, 3, 70, 0
4, 435360, Note_off_c, 3, 51, 0
4, 435360, Note_on_c, 3, 47, 17
4, 435360, Note_on_c, 3, 74, 17
4, 435408, Note_off_c, 3, 71, 0
4, 435408, Note_off_c, 3, 50, 0
4, 435408, Note_on_c, 3, 46, 17
4, 435408, Note_on_c, 3, 75, 17
4, 435456, Note_off_c, 3, 72, 0
4, 435456, Note_off_c, 3, 49, 0
4, 435456, Note_on_c, 3, 45, 17
4, 435456, Note_on_c, 3, 76, 17
4, 435504, Note_off_c, 3, 73, 0
4, 435504, Note_off_c, 3, 48, 0
4, 435504, Note_on_c, 3, 44, 17
4, 435504, Note_on_c, 3, 77, 17
4, 435552, Note_off_c, 3, 74, 0
4, 435552, Note_off_c, 3, 47, 0
4, 435552, Note_on_c, 3, 43, 17
4, 435552, Note_on_c, 3, 78, 17
4, 435600, Note_off_c, 3, 75, 0
4, 435600, Note_off_c, 3, 46, 0
4, 435600, Note_on_c, 3, 42, 17
4, 435600, Note_on_c, 3, 79, 17
4, 435648, Note_off_c, 3, 76, 0
4, 435648, Note_off_c, 3, 45, 0
4, 435648, Note_on_c, 3, 41, 17
4, 435648, Note_on_c, 3, 80, 17
4, 435696, Note_off_c, 3, 77, 0
4, 435696, Note_off_c, 3, 44, 0
4, 435696, Note_on_c, 3, 40, 17
4, 435696, Note_on_c, 3, 81, 17
4, 435744, Note_off_c, 3, 78, 0
4, 435744, Note_off_c, 3, 43, 0
4, 435744, Note_on_c, 3, 39, 17
4, 435744, Note_on_c, 3, 82, 17
4, 435792, Note_off_c, 3, 79, 0
4, 435792, Note_off_c, 3, 42, 0
4, 435792, Note_on_c, 3, 38, 17
4, 435792, Note_on_c, 3, 83, 17
4, 435840, Note_off_c, 3, 80, 0
4, 435840, Note_off_c, 3, 41, 0
4, 435840, Note_on_c, 3, 37, 17
4, 435840, Note_on_c, 3, 84, 17
4, 435888, Note_off_c, 3, 81, 0
4, 435888, Note_off_c, 3, 40, 0
4, 435888, Note_on_c, 3, 36, 17
4, 435888, Note_on_c, 3, 85, 17
4, 435936, Note_off_c, 3, 82, 0
4, 435936, Note_off_c, 3, 39, 0
4, 435936, Note_on_c, 3, 35, 17
4, 435936, Note_on_c, 3, 86, 17
4, 435984, Note_off_c, 3, 83, 0
4, 435984, Note_off_c, 3, 38, 0
4, 435984, Note_on_c, 3, 34, 17
4, 435984, Note_on_c, 3, 87, 17
4, 436032, Note_off_c, 3, 84, 0
4, 436032, Note_off_c, 3, 37, 0
4, 436032, Note_on_c, 3, 33, 17
4, 436032, Note_on_c, 3, 88, 17
4, 436080, Note_off_c, 3, 85, 0
4, 436080, Note_off_c, 3, 36, 0
4, 436080, Note_on_c, 3, 32, 17
4, 436080, Note_on_c, 3, 89, 17
4, 436128, Note_off_c, 3, 86, 0
4, 436128, Note_off_c, 3, 35, 0
4, 436128, Note_on_c, 3, 31, 17
4, 436128, Note_on_c, 3, 90, 17
4, 436176, Note_off_c, 3, 87, 0
4, 436176, Note_off_c, 3, 34, 0
4, 436176, Note_on_c, 3, 30, 17
4, 436176, Note_on_c, 3, 91, 17
4, 436224, Note_off_c, 3, 88, 0
4, 436224, Note_off_c, 3, 33, 0
4, 436224, Note_on_c, 3, 28, 17
4, 436224, Note_on_c, 3, 93, 17
4, 436272, Note_off_c, 3, 89, 0
4, 436272, Note_off_c, 3, 32, 0
4, 436272, Note_on_c, 3, 29, 17
4, 436272, Note_on_c, 3, 92, 17
4, 436320, Note_off_c, 3, 90, 0
4, 436320, Note_off_c, 3, 31, 0
4, 436320, Note_on_c, 3, 30, 17
4, 436320, Note_on_c, 3, 91, 17
4, 436368, Note_off_c, 3, 91, 0
4, 436368, Note_off_c, 3, 30, 0
4, 436368, Note_on_c, 3, 31, 17
4, 436368, Note_on_c, 3, 90, 17
4, 436416, Note_off_c, 3, 93, 0
4, 436416, Note_off_c, 3, 28, 0
4, 436416, Note_on_c, 3, 32, 17
4, 436416, Note_on_c, 3, 89, 17
4, 436464, Note_off_c, 3, 92, 0
4, 436464, Note_off_c, 3, 29, 0
4, 436464, Note_on_c, 3, 33, 17
4, 436464, Note_on_c, 3, 88, 17
4, 436512, Note_off_c, 3, 91, 0
4, 436512, Note_off_c, 3, 30, 0
4, 436512, Note_on_c, 3, 34, 17
4, 436512, Note_on_c, 3, 87, 17
4, 436560, Note_off_c, 3, 90, 0
4, 436560, Note_off_c, 3, 31, 0
4, 436560, Note_on_c, 3, 35, 17
4, 436560, Note_on_c, 3, 86, 17
4, 436608, Note_off_c, 3, 89, 0
4, 436608, Note_off_c, 3, 32, 0
4, 436608, Note_on_c, 3, 36, 17
4, 436608, Note_on_c, 3, 85, 17
4, 436656, Note_off_c, 3, 88, 0
4, 436656, Note_off_c, 3, 33, 0
4, 436656, Note_on_c, 3, 37, 17
4, 436656, Note_on_c, 3, 84, 17
4, 436704, Note_off_c, 3, 87, 0
4, 436704, Note_off_c, 3, 34, 0
4, 436704, Note_on_c, 3, 38, 17
4, 436704, Note_on_c, 3, 83, 17
4, 436752, Note_off_c, 3, 86, 0
4, 436752, Note_off_c, 3, 35, 0
4, 436752, Note_on_c, 3, 39, 17
4, 436752, Note_on_c, 3, 82, 17
4, 436800, Note_off_c, 3, 85, 0
4, 436800, Note_off_c, 3, 36, 0
4, 436800, Note_on_c, 3, 40, 17
4, 436800, Note_on_c, 3, 81, 17
4, 436848, Note_off_c, 3, 84, 0
4, 436848, Note_off_c, 3, 37, 0
4, 436848, Note_on_c, 3, 41, 17
4, 436848, Note_on_c, 3, 80, 17
4, 436896, Note_off_c, 3, 83, 0
4, 436896, Note_off_c, 3, 38, 0
4, 436896, Note_on_c, 3, 42, 17
4, 436896, Note_on_c, 3, 79, 17
4, 436944, Note_off_c, 3, 82, 0
4, 436944, Note_off_c, 3, 39, 0
4, 436944, Note_on_c, 3, 43, 17
4, 436944, Note_on_c, 3, 78, 17
4, 436992, Note_off_c, 3, 81, 0
4, 436992, Note_off_c, 3, 40, 0
4, 436992, Note_on_c, 3, 44, 17
4, 436992, Note_on_c, 3, 77, 17
4, 437040, Note_off_c, 3, 80, 0
4, 437040, Note_off_c, 3, 41, 0
4, 437040, Note_on_c, 3, 45, 17
4, 437040, Note_on_c, 3, 76, 17
4, 437088, Note_off_c, 3, 79, 0
4, 437088, Note_off_c, 3, 42, 0
4, 437088, Note_on_c, 3, 46, 17
4, 437088, Note_on_c, 3, 75, 17
4, 437136, Note_off_c, 3, 78, 0
4, 437136, Note_off_c, 3, 43, 0
4, 437136, Note_on_c, 3, 47, 17
4, 437136, Note_on_c, 3, 74, 17
4, 437184, Note_off_c, 3, 77, 0
4, 437184, Note_off_c, 3, 44, 0
4, 437184, Note_on_c, 3, 48, 17
4, 437184, Note_on_c, 3, 73, 17
4, 437232, Note_off_c, 3, 76, 0
4, 437232, Note_off_c, 3, 45, 0
4, 437232, Note_on_c, 3, 49, 17
4, 437232, Note_on_c, 3, 72, 17
4, 437280, Note_off_c, 3, 75, 0
4, 437280, Note_off_c, 3, 46, 0
4, 437280, Note_on_c, 3, 50, 17
4, 437280, Note_on_c, 3, 71, 17
4, 437328, Note_off_c, 3, 74, 0
4, 437328, Note_off_c, 3, 47, 0
4, 437328, Note_on_c, 3, 51, 17
4, 437328, Note_on_c, 3, 70, 17
4, 437376, Note_off_c, 3, 73, 0
4, 437376, Note_off_c, 3, 48, 0
4, 437376, Note_on_c, 3, 52, 17
4, 437376, Note_on_c, 3, 69, 17
4, 437424, Note_off_c, 3, 72, 0
4, 437424, Note_off_c, 3, 49, 0
4, 437424, Note_on_c, 3, 53, 17
4, 437424, Note_on_c, 3, 68, 17
4, 437472, Note_off_c, 3, 71, 0
4, 437472, Note_off_c, 3, 50, 0
4, 437472, Note_on_c, 3, 54, 17
4, 437472, Note_on_c, 3, 67, 17
4, 437520, Note_off_c, 3, 70, 0
4, 437520, Note_off_c, 3, 51, 0
4, 437520, Note_on_c, 3, 55, 17
4, 437520, Note_on_c, 3, 66, 17
4, 437568, Note_off_c, 3, 69, 0
4, 437568, Note_off_c, 3, 52, 0
4, 437568, Note_on_c, 3, 56, 17
4, 437568, Note_on_c, 3, 65, 17
4, 437616, Note_off_c, 3, 68, 0
4, 437616, Note_off_c, 3, 53, 0
4, 437616, Note_on_c, 3, 57, 17
4, 437616, Note_on_c, 3, 64, 17
4, 437664, Note_off_c, 3, 67, 0
4, 437664, Note_off_c, 3, 54, 0
4, 437664, Note_on_c, 3, 58, 17
4, 437664, Note_on_c, 3, 63, 17
4, 437712, Note_off_c, 3, 66, 0
4, 437712, Note_off_c, 3, 55, 0
4, 437712, Note_on_c, 3, 59, 17
4, 437712, Note_on_c, 3, 62, 17
4, 437760, Note_off_c, 3, 65, 0
4, 437760, Note_off_c, 3, 56, 0
4, 437760, Note_on_c, 3, 60, 17
4, 437760, Note_on_c, 3, 61, 17
4, 437808, Note_off_c, 3, 64, 0
4, 437808, Note_off_c, 3, 57, 0
4, 437808, Note_on_c, 3, 61, 17
4, 437808, Note_on_c, 3, 60, 17
4, 437856, Note_off_c, 3, 63, 0
4, 437856, Note_off_c, 3, 58, 0
4, 437856, Note_on_c, 3, 62, 17
4, 437856, Note_on_c, 3, 59, 17
4, 437904, Note_off_c, 3, 62, 0
4, 437904, Note_off_c, 3, 59, 0
4, 437904, Note_on_c, 3, 63, 17
4, 437904, Note_on_c, 3, 58, 17
4, 437952, Note_off_c, 3, 61, 0
4, 437952, Note_off_c, 3, 60, 0
4, 437952, Note_on_c, 3, 64, 17
4, 437952, Note_on_c, 3, 57, 17
4, 438000, Note_off_c, 3, 60, 0
4, 438000, Note_off_c, 3, 61, 0
4, 438000, Note_on_c, 3, 65, 17
4, 438000, Note_on_c, 3, 56, 17
4, 438048, Note_off_c, 3, 59, 0
4, 438048, Note_off_c, 3, 62, 0
4, 438048, Note_on_c, 3, 66, 17
4, 438048, Note_on_c, 3, 55, 17
4, 438096, Note_off_c, 3, 58, 0
4, 438096, Note_off_c, 3, 63, 0
4, 438096, Note_on_c, 3, 67, 17
4, 438096, Note_on_c, 3, 54, 17
4, 438144, Note_off_c, 3, 57, 0
4, 438144, Note_off_c, 3, 64, 0
4, 438144, Note_on_c, 3, 68, 17
4, 438144, Note_on_c, 3, 53, 17
4, 438192, Note_off_c, 3, 56, 0
4, 438192, Note_off_c, 3, 65, 0
4, 438192, Note_on_c, 3, 69, 17
4, 438192, Note_on_c, 3, 52, 17
4, 438240, Note_off_c, 3, 55, 0
4, 438240, Note_off_c, 3, 66, 0
4, 438240, Note_on_c, 3, 70, 17
4, 438240, Note_on_c, 3, 51, 17
4, 438288, Note_off_c, 3, 54, 0
4, 438288, Note_off_c, 3, 67, 0
4, 438288, Note_on_c, 3, 71, 17
4, 438288, Note_on_c, 3, 50, 17
4, 438336, Note_off_c, 3, 53, 0
4, 438336, Note_off_c, 3, 68, 0
4, 438336, Note_on_c, 3, 72, 17
4, 438336, Note_on_c, 3, 49, 17
4, 438384, Note_off_c, 3, 52, 0
4, 438384, Note_off_c, 3, 69, 0
4, 438384, Note_on_c, 3, 73, 17
4, 438384, Note_on_c, 3, 48, 17
4, 438432, Note_off_c, 3, 51, 0
4, 438432, Note_off_c, 3, 70, 0
4, 438432, Note_on_c, 3, 74, 17
4, 438432, Note_on_c, 3, 47, 17
4, 438480, Note_off_c, 3, 50, 0
4, 438480, Note_off_c, 3, 71, 0
4, 438480, Note_on_c, 3, 75, 17
4, 438480, Note_on_c, 3, 46, 17
4, 438528, Note_off_c, 3, 49, 0
4, 438528, Note_off_c, 3, 72, 0
4, 438528, Note_on_c, 3, 76, 17
4, 438528, Note_on_c, 3, 45, 17
4, 438576, Note_off_c, 3, 48, 0
4, 438576, Note_off_c, 3, 73, 0
4, 438576, Note_on_c, 3, 77, 17
4, 438576, Note_on_c, 3, 44, 17
4, 438624, Note_off_c, 3, 47, 0
4, 438624, Note_off_c, 3, 74, 0
4, 438624, Note_on_c, 3, 78, 17
4, 438624, Note_on_c, 3, 43, 17
4, 438672, Note_off_c, 3, 46, 0
4, 438672, Note_off_c, 3, 75, 0
4, 438672, Note_on_c, 3, 79, 17
4, 438672, Note_on_c, 3, 42, 17
4, 438720, Note_off_c, 3, 45, 0
4, 438720, Note_off_c, 3, 76, 0
4, 438720, Note_on_c, 3, 80, 17
4, 438720, Note_on_c, 3, 41, 17
4, 438768, Note_off_c, 3, 44, 0
4, 438768, Note_off_c, 3, 77, 0
4, 438768, Note_on_c, 3, 81, 17
4, 438768, Note_on_c, 3, 40, 17
4, 438816, Note_off_c, 3, 43, 0
4, 438816, Note_off_c, 3, 78, 0
4, 438816, Note_on_c, 3, 82, 17
4, 438816, Note_on_c, 3, 39, 17
4, 438864, Note_off_c, 3, 42, 0
4, 438864, Note_off_c, 3, 79, 0
4, 438864, Note_on_c, 3, 83, 17
4, 438864, Note_on_c, 3, 38, 17
4, 438912, Note_off_c, 3, 41, 0
4, 438912, Note_off_c, 3, 80, 0
4, 438912, Note_on_c, 3, 84, 17
4, 438912, Note_on_c, 3, 37, 17
4, 438960, Note_off_c, 3, 40, 0
4, 438960, Note_off_c, 3, 81, 0
4, 438960, Note_on_c, 3, 85, 17
4, 438960, Note_on_c, 3, 36, 17
4, 439008, Note_off_c, 3, 39, 0
4, 439008, Note_off_c, 3, 82, 0
4, 439008, Note_on_c, 3, 86, 17
4, 439008, Note_on_c, 3, 35, 17
4, 439056, Note_off_c, 3, 38, 0
4, 439056, Note_off_c, 3, 83, 0
4, 439056, Note_on_c, 3, 87, 17
4, 439056, Note_on_c, 3, 34, 17
4, 439104, Note_off_c, 3, 37, 0
4, 439104, Note_off_c, 3, 84, 0
4, 439104, Note_on_c, 3, 88, 17
4, 439104, Note_on_c, 3, 33, 17
4, 439152, Note_off_c, 3, 36, 0
4, 439152, Note_off_c, 3, 85, 0
4, 439152, Note_on_c, 3, 89, 17
4, 439152, Note_on_c, 3, 32, 17
4, 439200, Note_off_c, 3, 35, 0
4, 439200, Note_off_c, 3, 86, 0
4, 439200, Note_on_c, 3, 90, 17
4, 439200, Note_on_c, 3, 31, 17
4, 439248, Note_off_c, 3, 34, 0
4, 439248, Note_off_c, 3, 87, 0
4, 439248, Note_on_c, 3, 91, 17
4, 439248, Note_on_c, 3, 30, 17
4, 439296, Note_off_c, 3, 33, 0
4, 439296, Note_off_c, 3, 88, 0
4, 439296, Note_on_c, 3, 93, 17
4, 439296, Note_on_c, 3, 28, 17
4, 439344, Note_off_c, 3, 32, 0
4, 439344, Note_off_c, 3, 89, 0
4, 439344, Note_on_c, 3, 92, 17
4, 439344, Note_on_c, 3, 29, 17
4, 439392, Note_off_c, 3, 31, 0
4, 439392, Note_off_c, 3, 90, 0
4, 439392, Note_on_c, 3, 91, 17
4, 439392, Note_on_c, 3, 30, 17
4, 439440, Note_off_c, 3, 30, 0
4, 439440, Note_off_c, 3, 91, 0
4, 439440, Note_on_c, 3, 90, 17
4, 439440, Note_on_c, 3, 31, 17
4, 439488, Note_off_c, 3, 28, 0
4, 439488, Note_off_c, 3, 93, 0
4, 439488, Note_on_c, 3, 89, 17
4, 439488, Note_on_c, 3, 32, 17
4, 439536, Note_off_c, 3, 29, 0
4, 439536, Note_off_c, 3, 92, 0
4, 439536, Note_on_c, 3, 88, 17
4, 439536, Note_on_c, 3, 33, 17
4, 439584, Note_off_c, 3, 30, 0
4, 439584, Note_off_c, 3, 91, 0
4, 439584, Note_on_c, 3, 87, 17
4, 439584, Note_on_c, 3, 34, 17
4, 439632, Note_off_c, 3, 31, 0
4, 439632, Note_off_c, 3, 90, 0
4, 439632, Note_on_c, 3, 86, 17
4, 439632, Note_on_c, 3, 35, 17
4, 439680, Note_off_c, 3, 32, 0
4, 439680, Note_off_c, 3, 89, 0
4, 439680, Note_on_c, 3, 85, 17
4, 439680, Note_on_c, 3, 36, 17
4, 439728, Note_off_c, 3, 33, 0
4, 439728, Note_off_c, 3, 88, 0
4, 439728, Note_on_c, 3, 84, 17
4, 439728, Note_on_c, 3, 37, 17
4, 439776, Note_off_c, 3, 34, 0
4, 439776, Note_off_c, 3, 87, 0
4, 439776, Note_on_c, 3, 83, 17
4, 439776, Note_on_c, 3, 38, 17
4, 439824, Note_off_c, 3, 35, 0
4, 439824, Note_off_c, 3, 86, 0
4, 439824, Note_on_c, 3, 82, 17
4, 439824, Note_on_c, 3, 39, 17
4, 439872, Note_off_c, 3, 36, 0
4, 439872, Note_off_c, 3, 85, 0
4, 439872, Note_on_c, 3, 81, 17
4, 439872, Note_on_c, 3, 40, 17
4, 439920, Note_off_c, 3, 37, 0
4, 439920, Note_off_c, 3, 84, 0
4, 439920, Note_on_c, 3, 80, 17
4, 439920, Note_on_c, 3, 41, 17
4, 439968, Note_off_c, 3, 38, 0
4, 439968, Note_off_c, 3, 83, 0
4, 439968, Note_on_c, 3, 79, 17
4, 439968, Note_on_c, 3, 42, 17
4, 440016, Note_off_c, 3, 39, 0
4, 440016, Note_off_c, 3, 82, 0
4, 440016, Note_on_c, 3, 78, 17
4, 440016, Note_on_c, 3, 43, 17
4, 440064, Note_off_c, 3, 40, 0
4, 440064, Note_off_c, 3, 81, 0
4, 440064, Note_on_c, 3, 77, 17
4, 440064, Note_on_c, 3, 44, 17
4, 440112, Note_off_c, 3, 41, 0
4, 440112, Note_off_c, 3, 80, 0
4, 440112, Note_on_c, 3, 76, 17
4, 440112, Note_on_c, 3, 45, 17
4, 440160, Note_off_c, 3, 42, 0
4, 440160, Note_off_c, 3, 79, 0
4, 440160, Note_on_c, 3, 75, 17
4, 440160, Note_on_c, 3, 46, 17
4, 440208, Note_off_c, 3, 43, 0
4, 440208, Note_off_c, 3, 78, 0
4, 440208, Note_on_c, 3, 74, 17
4, 440208, Note_on_c, 3, 47, 17
4, 440256, Note_off_c, 3, 44, 0
4, 440256, Note_off_c, 3, 77, 0
4, 440256, Note_on_c, 3, 73, 17
4, 440256, Note_on_c, 3, 48, 17
4, 440304, Note_off_c, 3, 45, 0
4, 440304, Note_off_c, 3, 76, 0
4, 440304, Note_on_c, 3, 72, 17
4, 440304, Note_on_c, 3, 49, 17
4, 440352, Note_off_c, 3, 46, 0
4, 440352, Note_off_c, 3, 75, 0
4, 440352, Note_on_c, 3, 71, 17
4, 440352, Note_on_c, 3, 50, 17
4, 440400, Note_off_c, 3, 47, 0
4, 440400, Note_off_c, 3, 74, 0
4, 440400, Note_on_c, 3, 70, 17
4, 440400, Note_on_c, 3, 51, 17
4, 440448, Note_off_c, 3, 48, 0
4, 440448, Note_off_c, 3, 73, 0
4, 440448, Note_on_c, 3, 69, 17
4, 440448, Note_on_c, 3, 52, 17
4, 440496, Note_off_c, 3, 49, 0
4, 440496, Note_off_c, 3, 72, 0
4, 440496, Note_on_c, 3, 68, 17
4, 440496, Note_on_c, 3, 53, 17
4, 440544, Note_off_c, 3, 50, 0
4, 440544, Note_off_c, 3, 71, 0
4, 440544, Note_on_c, 3, 67, 17
4, 440544, Note_on_c, 3, 54, 17
4, 440592, Note_off_c, 3, 51, 0
4, 440592, Note_off_c, 3, 70, 0
4, 440592, Note_on_c, 3, 66, 17
4, 440592, Note_on_c, 3, 55, 17
4, 440640, Note_off_c, 3, 52, 0
4, 440640, Note_off_c, 3, 69, 0
4, 440640, Note_on_c, 3, 65, 17
4, 440640, Note_on_c, 3, 56, 17
4, 440688, Note_off_c, 3, 53, 0
4, 440688, Note_off_c, 3, 68, 0
4, 440688, Note_on_c, 3, 64, 17
4, 440688, Note_on_c, 3, 57, 17
4, 440736, Note_off_c, 3, 54, 0
4, 440736, Note_off_c, 3, 67, 0
4, 440736, Note_on_c, 3, 63, 17
4, 440736, Note_on_c, 3, 58, 17
4, 440784, Note_off_c, 3, 55, 0
4, 440784, Note_off_c, 3, 66, 0
4, 440784, Note_on_c, 3, 62, 17
4, 440784, Note_on_c, 3, 59, 17
4, 440832, Note_off_c, 3, 56, 0
4, 440832, Note_off_c, 3, 65, 0
4, 440832, Note_on_c, 3, 61, 17
4, 440832, Note_on_c, 3, 60, 17
4, 440880, Note_off_c, 3, 57, 0
4, 440880, Note_off_c, 3, 64, 0
4, 440880, Note_on_c, 3, 60, 17
4, 440880, Note_on_c, 3, 61, 17
4, 440928, Note_off_c, 3, 58, 0
4, 440928, Note_off_c, 3, 63, 0
4, 440928, Note_on_c, 3, 59, 17
4, 440928, Note_on_c, 3, 62, 17
4, 440976, Note_off_c, 3, 59, 0
4, 440976, Note_off_c, 3, 62, 0
4, 440976, Note_on_c, 3, 58, 17
4, 440976, Note_on_c, 3, 63, 17
4, 441024, Note_off_c, 3, 60, 0
4, 441024, Note_off_c, 3, 61, 0
4, 441024, Note_on_c, 3, 57, 17
4, 441024, Note_on_c, 3, 64, 17
4, 441072, Note_off_c, 3, 61, 0
4, 441072, Note_off_c, 3, 60, 0
4, 441072, Note_on_c, 3, 56, 17
4, 441072, Note_on_c, 3, 65, 17
4, 441120, Note_off_c, 3, 62, 0
4, 441120, Note_off_c, 3, 59, 0
4, 441120, Note_on_c, 3, 55, 17
4, 441120, Note_on_c, 3, 66, 17
4, 441168, Note_off_c, 3, 63, 0
4, 441168, Note_off_c, 3, 58, 0
4, 441168, Note_on_c, 3, 54, 17
4, 441168, Note_on_c, 3, 67, 17
4, 441216, Note_off_c, 3, 64, 0
4, 441216, Note_off_c, 3, 57, 0
4, 441216, Note_on_c, 3, 53, 17
4, 441216, Note_on_c, 3, 68, 17
4, 441264, Note_off_c, 3, 65, 0
4, 441264, Note_off_c, 3, 56, 0
4, 441264, Note_on_c, 3, 52, 17
4, 441264, Note_on_c, 3, 69, 17
4, 441312, Note_off_c, 3, 66, 0
4, 441312, Note_off_c, 3, 55, 0
4, 441312, Note_on_c, 3, 51, 17
4, 441312, Note_on_c, 3, 70, 17
4, 441360, Note_off_c, 3, 67, 0
4, 441360, Note_off_c, 3, 54, 0
4, 441360, Note_on_c, 3, 50, 17
4, 441360, Note_on_c, 3, 71, 17
4, 441408, Note_off_c, 3, 68, 0
4, 441408, Note_off_c, 3, 53, 0
4, 441408, Note_on_c, 3, 49, 17
4, 441408, Note_on_c, 3, 72, 17
4, 441456, Note_off_c, 3, 69, 0
4, 441456, Note_off_c, 3, 52, 0
4, 441456, Note_on_c, 3, 48, 17
4, 441456, Note_on_c, 3, 73, 17
4, 441504, Note_off_c, 3, 70, 0
4, 441504, Note_off_c, 3, 51, 0
4, 441504, Note_on_c, 3, 47, 17
4, 441504, Note_on_c, 3, 74, 17
4, 441552, Note_off_c, 3, 71, 0
4, 441552, Note_off_c, 3, 50, 0
4, 441552, Note_on_c, 3, 46, 17
4, 441552, Note_on_c, 3, 75, 17
4, 441600, Note_off_c, 3, 72, 0
4, 441600, Note_off_c, 3, 49, 0
4, 441600, Note_on_c, 3, 45, 17
4, 441600, Note_on_c, 3, 76, 17
4, 441648, Note_off_c, 3, 73, 0
4, 441648, Note_off_c, 3, 48, 0
4, 441648, Note_on_c, 3, 44, 17
4, 441648, Note_on_c, 3, 77, 17
4, 441696, Note_off_c, 3, 74, 0
4, 441696, Note_off_c, 3, 47, 0
4, 441696, Note_on_c, 3, 43, 17
4, 441696, Note_on_c, 3, 78, 17
4, 441744, Note_off_c, 3, 75, 0
4, 441744, Note_off_c, 3, 46, 0
4, 441744, Note_on_c, 3, 42, 17
4, 441744, Note_on_c, 3, 79, 17
4, 441792, Note_off_c, 3, 76, 0
4, 441792, Note_off_c, 3, 45, 0
4, 441792, Note_on_c, 3, 41, 17
4, 441792, Note_on_c, 3, 80, 17
4, 441840, Note_off_c, 3, 77, 0
4, 441840, Note_off_c, 3, 44, 0
4, 441840, Note_on_c, 3, 40, 17
4, 441840, Note_on_c, 3, 81, 17
4, 441888, Note_off_c, 3, 78, 0
4, 441888, Note_off_c, 3, 43, 0
4, 441888, Note_on_c, 3, 39, 17
4, 441888, Note_on_c, 3, 82, 17
4, 441936, Note_off_c, 3, 79, 0
4, 441936, Note_off_c, 3, 42, 0
4, 441936, Note_on_c, 3, 38, 17
4, 441936, Note_on_c, 3, 83, 17
4, 441984, Note_off_c, 3, 80, 0
4, 441984, Note_off_c, 3, 41, 0
4, 441984, Note_on_c, 3, 37, 17
4, 441984, Note_on_c, 3, 84, 17
4, 442032, Note_off_c, 3, 81, 0
4, 442032, Note_off_c, 3, 40, 0
4, 442032, Note_on_c, 3, 36, 17
4, 442032, Note_on_c, 3, 85, 17
4, 442080, Note_off_c, 3, 82, 0
4, 442080, Note_off_c, 3, 39, 0
4, 442080, Note_on_c, 3, 35, 17
4, 442080, Note_on_c, 3, 86, 17
4, 442128, Note_off_c, 3, 83, 0
4, 442128, Note_off_c, 3, 38, 0
4, 442128, Note_on_c, 3, 34, 17
4, 442128, Note_on_c, 3, 87, 17
4, 442176, Note_off_c, 3, 84, 0
4, 442176, Note_off_c, 3, 37, 0
4, 442176, Note_on_c, 3, 33, 17
4, 442176, Note_on_c, 3, 88, 17
4, 442224, Note_off_c, 3, 85, 0
4, 442224, Note_off_c, 3, 36, 0
4, 442224, Note_on_c, 3, 32, 17
4, 442224, Note_on_c, 3, 89, 17
4, 442272, Note_off_c, 3, 86, 0
4, 442272, Note_off_c, 3, 35, 0
4, 442272, Note_on_c, 3, 31, 17
4, 442272, Note_on_c, 3, 90, 17
4, 442320, Note_off_c, 3, 87, 0
4, 442320, Note_off_c, 3, 34, 0
4, 442320, Note_on_c, 3, 30, 17
4, 442320, Note_on_c, 3, 91, 17
4, 442368, Note_off_c, 3, 88, 0
4, 442368, Note_off_c, 3, 33, 0
4, 442368, Note_on_c, 3, 28, 17
4, 442368, Note_on_c, 3, 93, 17
4, 442392, Note_on_c, 3, 29, 17
4, 442392, Note_on_c, 3, 92, 17
4, 442416, Note_off_c, 3, 89, 0
4, 442416, Note_off_c, 3, 32, 0
4, 442416, Note_on_c, 3, 30, 17
4, 442416, Note_on_c, 3, 91, 17
4, 442440, Note_on_c, 3, 31, 17
4, 442440, Note_on_c, 3, 90, 17
4, 442464, Note_off_c, 3, 90, 0
4, 442464, Note_off_c, 3, 31, 0
4, 442464, Note_on_c, 3, 32, 17
4, 442464, Note_on_c, 3, 89, 17
4, 442488, Note_on_c, 3, 33, 17
4, 442488, Note_on_c, 3, 88, 17
4, 442512, Note_off_c, 3, 91, 0
4, 442512, Note_off_c, 3, 30, 0
4, 442512, Note_on_c, 3, 34, 17
4, 442512, Note_on_c, 3, 87, 17
4, 442536, Note_on_c, 3, 35, 17
4, 442536, Note_on_c, 3, 86, 17
4, 442560, Note_off_c, 3, 93, 0
4, 442560, Note_off_c, 3, 28, 0
4, 442560, Note_on_c, 3, 36, 17
4, 442560, Note_on_c, 3, 85, 17
4, 442584, Note_off_c, 3, 92, 0
4, 442584, Note_off_c, 3, 29, 0
4, 442584, Note_on_c, 3, 37, 17
4, 442584, Note_on_c, 3, 84, 17
4, 442608, Note_off_c, 3, 91, 0
4, 442608, Note_off_c, 3, 30, 0
4, 442608, Note_on_c, 3, 38, 17
4, 442608, Note_on_c, 3, 83, 17
4, 442632, Note_off_c, 3, 90, 0
4, 442632, Note_off_c, 3, 31, 0
4, 442632, Note_on_c, 3, 39, 17
4, 442632, Note_on_c, 3, 82, 17
4, 442656, Note_off_c, 3, 89, 0
4, 442656, Note_off_c, 3, 32, 0
4, 442656, Note_on_c, 3, 40, 17
4, 442656, Note_on_c, 3, 81, 17
4, 442680, Note_off_c, 3, 88, 0
4, 442680, Note_off_c, 3, 33, 0
4, 442680, Note_on_c, 3, 41, 17
4, 442680, Note_on_c, 3, 80, 17
4, 442704, Note_off_c, 3, 87, 0
4, 442704, Note_off_c, 3, 34, 0
4, 442704, Note_on_c, 3, 42, 17
4, 442704, Note_on_c, 3, 79, 17
4, 442728, Note_off_c, 3, 86, 0
4, 442728, Note_off_c, 3, 35, 0
4, 442728, Note_on_c, 3, 43, 17
4, 442728, Note_on_c, 3, 78, 17
4, 442752, Note_off_c, 3, 85, 0
4, 442752, Note_off_c, 3, 36, 0
4, 442752, Note_on_c, 3, 44, 17
4, 442752, Note_on_c, 3, 77, 17
4, 442776, Note_off_c, 3, 84, 0
4, 442776, Note_off_c, 3, 37, 0
4, 442776, Note_on_c, 3, 45, 17
4, 442776, Note_on_c, 3, 76, 17
4, 442800, Note_off_c, 3, 83, 0
4, 442800, Note_off_c, 3, 38, 0
4, 442800, Note_on_c, 3, 46, 17
4, 442800, Note_on_c, 3, 75, 17
4, 442824, Note_off_c, 3, 82, 0
4, 442824, Note_off_c, 3, 39, 0
4, 442824, Note_on_c, 3, 47, 17
4, 442824, Note_on_c, 3, 74, 17
4, 442848, Note_off_c, 3, 81, 0
4, 442848, Note_off_c, 3, 40, 0
4, 442848, Note_on_c, 3, 48, 17
4, 442848, Note_on_c, 3, 73, 17
4, 442872, Note_off_c, 3, 80, 0
4, 442872, Note_off_c, 3, 41, 0
4, 442872, Note_on_c, 3, 72, 17
4, 442872, Note_on_c, 3, 49, 17
4, 442896, Note_off_c, 3, 79, 0
4, 442896, Note_off_c, 3, 42, 0
4, 442896, Note_on_c, 3, 71, 17
4, 442896, Note_on_c, 3, 50, 17
4, 442920, Note_off_c, 3, 78, 0
4, 442920, Note_off_c, 3, 43, 0
4, 442920, Note_on_c, 3, 51, 17
4, 442920, Note_on_c, 3, 70, 17
4, 442944, Note_off_c, 3, 77, 0
4, 442944, Note_off_c, 3, 44, 0
4, 442944, Note_on_c, 3, 52, 17
4, 442944, Note_on_c, 3, 69, 17
4, 442968, Note_off_c, 3, 76, 0
4, 442968, Note_off_c, 3, 45, 0
4, 442968, Note_on_c, 3, 53, 17
4, 442968, Note_on_c, 3, 68, 17
4, 442992, Note_off_c, 3, 75, 0
4, 442992, Note_off_c, 3, 46, 0
4, 442992, Note_on_c, 3, 54, 17
4, 442992, Note_on_c, 3, 67, 17
4, 443016, Note_off_c, 3, 74, 0
4, 443016, Note_off_c, 3, 47, 0
4, 443016, Note_on_c, 3, 55, 17
4, 443016, Note_on_c, 3, 66, 17
4, 443040, Note_off_c, 3, 73, 0
4, 443040, Note_off_c, 3, 48, 0
4, 443040, Note_on_c, 3, 56, 17
4, 443040, Note_on_c, 3, 65, 17
4, 443064, Note_off_c, 3, 49, 0
4, 443064, Note_off_c, 3, 72, 0
4, 443064, Note_on_c, 3, 57, 17
4, 443064, Note_on_c, 3, 64, 17
4, 443088, Note_off_c, 3, 50, 0
4, 443088, Note_off_c, 3, 71, 0
4, 443088, Note_on_c, 3, 58, 17
4, 443088, Note_on_c, 3, 63, 17
4, 443112, Note_off_c, 3, 70, 0
4, 443112, Note_off_c, 3, 51, 0
4, 443112, Note_on_c, 3, 62, 17
4, 443112, Note_on_c, 3, 59, 17
4, 443136, Note_off_c, 3, 69, 0
4, 443136, Note_off_c, 3, 52, 0
4, 443136, Note_on_c, 3, 60, 17
4, 443136, Note_on_c, 3, 61, 17
4, 443160, Note_off_c, 3, 68, 0
4, 443160, Note_off_c, 3, 53, 0
4, 443160, Note_on_c, 3, 61, 17
4, 443160, Note_on_c, 3, 60, 17
4, 443184, Note_off_c, 3, 67, 0
4, 443184, Note_off_c, 3, 54, 0
4, 443184, Note_on_c, 3, 59, 17
4, 443184, Note_on_c, 3, 62, 17
4, 443208, Note_off_c, 3, 66, 0
4, 443208, Note_off_c, 3, 55, 0
4, 443208, Note_on_c, 3, 63, 17
4, 443208, Note_on_c, 3, 58, 17
4, 443232, Note_off_c, 3, 65, 0
4, 443232, Note_off_c, 3, 56, 0
4, 443232, Note_on_c, 3, 64, 17
4, 443232, Note_on_c, 3, 57, 17
4, 443256, Note_off_c, 3, 64, 0
4, 443256, Note_off_c, 3, 57, 0
4, 443256, Note_on_c, 3, 65, 17
4, 443256, Note_on_c, 3, 56, 17
4, 443280, Note_off_c, 3, 63, 0
4, 443280, Note_off_c, 3, 58, 0
4, 443280, Note_on_c, 3, 66, 17
4, 443280, Note_on_c, 3, 55, 17
4, 443304, Note_off_c, 3, 59, 0
4, 443304, Note_off_c, 3, 62, 0
4, 443304, Note_on_c, 3, 67, 17
4, 443304, Note_on_c, 3, 54, 17
4, 443328, Note_off_c, 3, 61, 0
4, 443328, Note_off_c, 3, 60, 0
4, 443328, Note_on_c, 3, 68, 17
4, 443328, Note_on_c, 3, 53, 17
4, 443352, Note_off_c, 3, 60, 0
4, 443352, Note_off_c, 3, 61, 0
4, 443352, Note_on_c, 3, 69, 17
4, 443352, Note_on_c, 3, 52, 17
4, 443376, Note_off_c, 3, 62, 0
4, 443376, Note_off_c, 3, 59, 0
4, 443376, Note_on_c, 3, 70, 17
4, 443376, Note_on_c, 3, 51, 17
4, 443400, Note_off_c, 3, 58, 0
4, 443400, Note_off_c, 3, 63, 0
4, 443400, Note_on_c, 3, 71, 17
4, 443400, Note_on_c, 3, 50, 17
4, 443424, Note_off_c, 3, 57, 0
4, 443424, Note_off_c, 3, 64, 0
4, 443424, Note_on_c, 3, 72, 17
4, 443424, Note_on_c, 3, 49, 17
4, 443448, Note_off_c, 3, 56, 0
4, 443448, Note_off_c, 3, 65, 0
4, 443448, Note_on_c, 3, 73, 17
4, 443448, Note_on_c, 3, 48, 17
4, 443472, Note_off_c, 3, 55, 0
4, 443472, Note_off_c, 3, 66, 0
4, 443472, Note_on_c, 3, 74, 17
4, 443472, Note_on_c, 3, 47, 17
4, 443496, Note_off_c, 3, 54, 0
4, 443496, Note_off_c, 3, 67, 0
4, 443496, Note_on_c, 3, 75, 17
4, 443496, Note_on_c, 3, 46, 17
4, 443520, Note_off_c, 3, 53, 0
4, 443520, Note_off_c, 3, 68, 0
4, 443520, Note_on_c, 3, 76, 17
4, 443520, Note_on_c, 3, 45, 17
4, 443544, Note_off_c, 3, 52, 0
4, 443544, Note_off_c, 3, 69, 0
4, 443544, Note_on_c, 3, 77, 17
4, 443544, Note_on_c, 3, 44, 17
4, 443568, Note_off_c, 3, 51, 0
4, 443568, Note_off_c, 3, 70, 0
4, 443568, Note_on_c, 3, 78, 17
4, 443568, Note_on_c, 3, 43, 17
4, 443592, Note_off_c, 3, 50, 0
4, 443592, Note_off_c, 3, 71, 0
4, 443592, Note_on_c, 3, 79, 17
4, 443592, Note_on_c, 3, 42, 17
4, 443616, Note_off_c, 3, 49, 0
4, 443616, Note_off_c, 3, 72, 0
4, 443616, Note_on_c, 3, 80, 17
4, 443616, Note_on_c, 3, 41, 17
4, 443640, Note_off_c, 3, 48, 0
4, 443640, Note_off_c, 3, 73, 0
4, 443640, Note_on_c, 3, 81, 17
4, 443640, Note_on_c, 3, 40, 17
4, 443664, Note_off_c, 3, 47, 0
4, 443664, Note_off_c, 3, 74, 0
4, 443664, Note_on_c, 3, 82, 17
4, 443664, Note_on_c, 3, 39, 17
4, 443688, Note_off_c, 3, 46, 0
4, 443688, Note_off_c, 3, 75, 0
4, 443688, Note_on_c, 3, 83, 17
4, 443688, Note_on_c, 3, 38, 17
4, 443712, Note_off_c, 3, 45, 0
4, 443712, Note_off_c, 3, 76, 0
4, 443712, Note_on_c, 3, 84, 17
4, 443712, Note_on_c, 3, 37, 17
4, 443736, Note_off_c, 3, 44, 0
4, 443736, Note_off_c, 3, 77, 0
4, 443736, Note_on_c, 3, 85, 17
4, 443736, Note_on_c, 3, 36, 17
4, 443760, Note_off_c, 3, 43, 0
4, 443760, Note_off_c, 3, 78, 0
4, 443760, Note_on_c, 3, 86, 17
4, 443760, Note_on_c, 3, 35, 17
4, 443784, Note_off_c, 3, 42, 0
4, 443784, Note_off_c, 3, 79, 0
4, 443784, Note_on_c, 3, 87, 17
4, 443784, Note_on_c, 3, 34, 17
4, 443808, Note_off_c, 3, 41, 0
4, 443808, Note_off_c, 3, 80, 0
4, 443808, Note_on_c, 3, 88, 17
4, 443808, Note_on_c, 3, 33, 17
4, 443832, Note_off_c, 3, 40, 0
4, 443832, Note_off_c, 3, 81, 0
4, 443832, Note_on_c, 3, 89, 17
4, 443832, Note_on_c, 3, 32, 17
4, 443856, Note_off_c, 3, 39, 0
4, 443856, Note_off_c, 3, 82, 0
4, 443856, Note_on_c, 3, 90, 17
4, 443856, Note_on_c, 3, 31, 17
4, 443880, Note_off_c, 3, 38, 0
4, 443880, Note_off_c, 3, 83, 0
4, 443880, Note_on_c, 3, 91, 17
4, 443880, Note_on_c, 3, 30, 17
4, 443904, Note_off_c, 3, 37, 0
4, 443904, Note_off_c, 3, 84, 0
4, 443904, Note_on_c, 3, 28, 17
4, 443904, Note_on_c, 3, 93, 17
4, 443928, Note_off_c, 3, 36, 0
4, 443928, Note_off_c, 3, 85, 0
4, 443928, Note_on_c, 3, 29, 17
4, 443928, Note_on_c, 3, 92, 17
4, 443952, Note_off_c, 3, 35, 0
4, 443952, Note_off_c, 3, 86, 0
4, 443952, Note_on_c, 3, 30, 17
4, 443952, Note_on_c, 3, 91, 17
4, 443976, Note_off_c, 3, 34, 0
4, 443976, Note_off_c, 3, 87, 0
4, 443976, Note_on_c, 3, 31, 17
4, 443976, Note_on_c, 3, 90, 17
4, 444000, Note_off_c, 3, 33, 0
4, 444000, Note_off_c, 3, 88, 0
4, 444000, Note_on_c, 3, 32, 17
4, 444000, Note_on_c, 3, 89, 17
4, 444024, Note_off_c, 3, 32, 0
4, 444024, Note_off_c, 3, 89, 0
4, 444024, Note_on_c, 3, 33, 17
4, 444024, Note_on_c, 3, 88, 17
4, 444048, Note_off_c, 3, 31, 0
4, 444048, Note_off_c, 3, 90, 0
4, 444048, Note_on_c, 3, 34, 17
4, 444048, Note_on_c, 3, 87, 17
4, 444072, Note_off_c, 3, 30, 0
4, 444072, Note_off_c, 3, 91, 0
4, 444072, Note_on_c, 3, 35, 17
4, 444072, Note_on_c, 3, 86, 17
4, 444096, Note_off_c, 3, 93, 0
4, 444096, Note_off_c, 3, 28, 0
4, 444096, Note_on_c, 3, 36, 17
4, 444096, Note_on_c, 3, 85, 17
4, 444120, Note_off_c, 3, 92, 0
4, 444120, Note_off_c, 3, 29, 0
4, 444120, Note_on_c, 3, 37, 17
4, 444120, Note_on_c, 3, 84, 17
4, 444144, Note_off_c, 3, 91, 0
4, 444144, Note_off_c, 3, 30, 0
4, 444144, Note_on_c, 3, 38, 17
4, 444144, Note_on_c, 3, 83, 17
4, 444168, Note_off_c, 3, 90, 0
4, 444168, Note_off_c, 3, 31, 0
4, 444168, Note_on_c, 3, 39, 17
4, 444168, Note_on_c, 3, 82, 17
4, 444192, Note_off_c, 3, 89, 0
4, 444192, Note_off_c, 3, 32, 0
4, 444192, Note_on_c, 3, 40, 17
4, 444192, Note_on_c, 3, 81, 17
4, 444216, Note_off_c, 3, 88, 0
4, 444216, Note_off_c, 3, 33, 0
4, 444216, Note_on_c, 3, 41, 17
4, 444216, Note_on_c, 3, 80, 17
4, 444240, Note_off_c, 3, 87, 0
4, 444240, Note_off_c, 3, 34, 0
4, 444240, Note_on_c, 3, 42, 17
4, 444240, Note_on_c, 3, 79, 17
4, 444264, Note_off_c, 3, 86, 0
4, 444264, Note_off_c, 3, 35, 0
4, 444264, Note_on_c, 3, 43, 17
4, 444264, Note_on_c, 3, 78, 17
4, 444288, Note_off_c, 3, 85, 0
4, 444288, Note_off_c, 3, 36, 0
4, 444288, Note_on_c, 3, 44, 17
4, 444288, Note_on_c, 3, 77, 17
4, 444312, Note_off_c, 3, 84, 0
4, 444312, Note_off_c, 3, 37, 0
4, 444312, Note_on_c, 3, 45, 17
4, 444312, Note_on_c, 3, 76, 17
4, 444336, Note_off_c, 3, 83, 0
4, 444336, Note_off_c, 3, 38, 0
4, 444336, Note_on_c, 3, 46, 17
4, 444336, Note_on_c, 3, 75, 17
4, 444360, Note_off_c, 3, 82, 0
4, 444360, Note_off_c, 3, 39, 0
4, 444360, Note_on_c, 3, 47, 17
4, 444360, Note_on_c, 3, 74, 17
4, 444384, Note_off_c, 3, 81, 0
4, 444384, Note_off_c, 3, 40, 0
4, 444384, Note_on_c, 3, 48, 17
4, 444384, Note_on_c, 3, 73, 17
4, 444408, Note_off_c, 3, 80, 0
4, 444408, Note_off_c, 3, 41, 0
4, 444408, Note_on_c, 3, 72, 17
4, 444408, Note_on_c, 3, 49, 17
4, 444432, Note_off_c, 3, 79, 0
4, 444432, Note_off_c, 3, 42, 0
4, 444432, Note_on_c, 3, 71, 17
4, 444432, Note_on_c, 3, 50, 17
4, 444456, Note_off_c, 3, 78, 0
4, 444456, Note_off_c, 3, 43, 0
4, 444456, Note_on_c, 3, 51, 17
4, 444456, Note_on_c, 3, 70, 17
4, 444480, Note_off_c, 3, 77, 0
4, 444480, Note_off_c, 3, 44, 0
4, 444480, Note_on_c, 3, 52, 17
4, 444480, Note_on_c, 3, 69, 17
4, 444504, Note_off_c, 3, 76, 0
4, 444504, Note_off_c, 3, 45, 0
4, 444504, Note_on_c, 3, 53, 17
4, 444504, Note_on_c, 3, 68, 17
4, 444528, Note_off_c, 3, 75, 0
4, 444528, Note_off_c, 3, 46, 0
4, 444528, Note_on_c, 3, 54, 17
4, 444528, Note_on_c, 3, 67, 17
4, 444552, Note_off_c, 3, 74, 0
4, 444552, Note_off_c, 3, 47, 0
4, 444552, Note_on_c, 3, 55, 17
4, 444552, Note_on_c, 3, 66, 17
4, 444576, Note_off_c, 3, 73, 0
4, 444576, Note_off_c, 3, 48, 0
4, 444576, Note_on_c, 3, 56, 17
4, 444576, Note_on_c, 3, 65, 17
4, 444600, Note_off_c, 3, 49, 0
4, 444600, Note_off_c, 3, 72, 0
4, 444600, Note_on_c, 3, 57, 17
4, 444600, Note_on_c, 3, 64, 17
4, 444624, Note_off_c, 3, 50, 0
4, 444624, Note_off_c, 3, 71, 0
4, 444624, Note_on_c, 3, 58, 17
4, 444624, Note_on_c, 3, 63, 17
4, 444648, Note_off_c, 3, 70, 0
4, 444648, Note_off_c, 3, 51, 0
4, 444648, Note_on_c, 3, 62, 17
4, 444648, Note_on_c, 3, 59, 17
4, 444672, Note_off_c, 3, 69, 0
4, 444672, Note_off_c, 3, 52, 0
4, 444672, Note_on_c, 3, 60, 17
4, 444672, Note_on_c, 3, 61, 17
4, 444696, Note_off_c, 3, 68, 0
4, 444696, Note_off_c, 3, 53, 0
4, 444696, Note_on_c, 3, 61, 17
4, 444696, Note_on_c, 3, 60, 17
4, 444720, Note_off_c, 3, 67, 0
4, 444720, Note_off_c, 3, 54, 0
4, 444720, Note_on_c, 3, 59, 17
4, 444720, Note_on_c, 3, 62, 17
4, 444744, Note_off_c, 3, 66, 0
4, 444744, Note_off_c, 3, 55, 0
4, 444744, Note_on_c, 3, 63, 17
4, 444744, Note_on_c, 3, 58, 17
4, 444768, Note_off_c, 3, 65, 0
4, 444768, Note_off_c, 3, 56, 0
4, 444768, Note_on_c, 3, 64, 17
4, 444768, Note_on_c, 3, 57, 17
4, 444792, Note_off_c, 3, 64, 0
4, 444792, Note_off_c, 3, 57, 0
4, 444792, Note_on_c, 3, 65, 17
4, 444792, Note_on_c, 3, 56, 17
4, 444816, Note_off_c, 3, 63, 0
4, 444816, Note_off_c, 3, 58, 0
4, 444816, Note_on_c, 3, 66, 17
4, 444816, Note_on_c, 3, 55, 17
4, 444840, Note_off_c, 3, 59, 0
4, 444840, Note_off_c, 3, 62, 0
4, 444840, Note_on_c, 3, 67, 17
4, 444840, Note_on_c, 3, 54, 17
4, 444864, Note_off_c, 3, 61, 0
4, 444864, Note_off_c, 3, 60, 0
4, 444864, Note_on_c, 3, 68, 17
4, 444864, Note_on_c, 3, 53, 17
4, 444888, Note_off_c, 3, 60, 0
4, 444888, Note_off_c, 3, 61, 0
4, 444888, Note_on_c, 3, 69, 17
4, 444888, Note_on_c, 3, 52, 17
4, 444912, Note_off_c, 3, 62, 0
4, 444912, Note_off_c, 3, 59, 0
4, 444912, Note_on_c, 3, 70, 17
4, 444912, Note_on_c, 3, 51, 17
4, 444936, Note_off_c, 3, 58, 0
4, 444936, Note_off_c, 3, 63, 0
4, 444936, Note_on_c, 3, 71, 17
4, 444936, Note_on_c, 3, 50, 17
4, 444960, Note_off_c, 3, 57, 0
4, 444960, Note_off_c, 3, 64, 0
4, 444960, Note_on_c, 3, 72, 17
4, 444960, Note_on_c, 3, 49, 17
4, 444984, Note_off_c, 3, 56, 0
4, 444984, Note_off_c, 3, 65, 0
4, 444984, Note_on_c, 3, 73, 17
4, 444984, Note_on_c, 3, 48, 17
4, 445008, Note_off_c, 3, 55, 0
4, 445008, Note_off_c, 3, 66, 0
4, 445008, Note_on_c, 3, 74, 17
4, 445008, Note_on_c, 3, 47, 17
4, 445032, Note_off_c, 3, 54, 0
4, 445032, Note_off_c, 3, 67, 0
4, 445032, Note_on_c, 3, 75, 17
4, 445032, Note_on_c, 3, 46, 17
4, 445056, Note_off_c, 3, 53, 0
4, 445056, Note_off_c, 3, 68, 0
4, 445056, Note_on_c, 3, 76, 17
4, 445056, Note_on_c, 3, 45, 17
4, 445080, Note_off_c, 3, 52, 0
4, 445080, Note_off_c, 3, 69, 0
4, 445080, Note_on_c, 3, 77, 17
4, 445080, Note_on_c, 3, 44, 17
4, 445104, Note_off_c, 3, 51, 0
4, 445104, Note_off_c, 3, 70, 0
4, 445104, Note_on_c, 3, 78, 17
4, 445104, Note_on_c, 3, 43, 17
4, 445128, Note_off_c, 3, 50, 0
4, 445128, Note_off_c, 3, 71, 0
4, 445128, Note_on_c, 3, 79, 17
4, 445128, Note_on_c, 3, 42, 17
4, 445152, Note_off_c, 3, 49, 0
4, 445152, Note_off_c, 3, 72, 0
4, 445152, Note_on_c, 3, 80, 17
4, 445152, Note_on_c, 3, 41, 17
4, 445176, Note_off_c, 3, 48, 0
4, 445176, Note_off_c, 3, 73, 0
4, 445176, Note_on_c, 3, 81, 17
4, 445176, Note_on_c, 3, 40, 17
4, 445200, Note_off_c, 3, 47, 0
4, 445200, Note_off_c, 3, 74, 0
4, 445200, Note_on_c, 3, 82, 17
4, 445200, Note_on_c, 3, 39, 17
4, 445224, Note_off_c, 3, 46, 0
4, 445224, Note_off_c, 3, 75, 0
4, 445224, Note_on_c, 3, 83, 17
4, 445224, Note_on_c, 3, 38, 17
4, 445248, Note_off_c, 3, 45, 0
4, 445248, Note_off_c, 3, 76, 0
4, 445248, Note_on_c, 3, 84, 17
4, 445248, Note_on_c, 3, 37, 17
4, 445272, Note_off_c, 3, 44, 0
4, 445272, Note_off_c, 3, 77, 0
4, 445272, Note_on_c, 3, 85, 17
4, 445272, Note_on_c, 3, 36, 17
4, 445296, Note_off_c, 3, 43, 0
4, 445296, Note_off_c, 3, 78, 0
4, 445296, Note_on_c, 3, 86, 17
4, 445296, Note_on_c, 3, 35, 17
4, 445320, Note_off_c, 3, 42, 0
4, 445320, Note_off_c, 3, 79, 0
4, 445320, Note_on_c, 3, 87, 17
4, 445320, Note_on_c, 3, 34, 17
4, 445344, Note_off_c, 3, 41, 0
4, 445344, Note_off_c, 3, 80, 0
4, 445344, Note_on_c, 3, 88, 17
4, 445344, Note_on_c, 3, 33, 17
4, 445368, Note_off_c, 3, 40, 0
4, 445368, Note_off_c, 3, 81, 0
4, 445368, Note_on_c, 3, 89, 17
4, 445368, Note_on_c, 3, 32, 17
4, 445392, Note_off_c, 3, 39, 0
4, 445392, Note_off_c, 3, 82, 0
4, 445392, Note_on_c, 3, 90, 17
4, 445392, Note_on_c, 3, 31, 17
4, 445416, Note_off_c, 3, 38, 0
4, 445416, Note_off_c, 3, 83, 0
4, 445416, Note_on_c, 3, 91, 17
4, 445416, Note_on_c, 3, 30, 17
4, 445440, Note_off_c, 3, 37, 0
4, 445440, Note_off_c, 3, 84, 0
4, 445464, Note_off_c, 3, 36, 0
4, 445464, Note_off_c, 3, 85, 0
4, 445464, Note_on_c, 3, 28, 17
4, 445464, Note_on_c, 3, 93, 17
4, 445488, Note_off_c, 3, 35, 0
4, 445488, Note_off_c, 3, 86, 0
4, 445488, Note_on_c, 3, 29, 17
4, 445488, Note_on_c, 3, 92, 17
4, 445512, Note_off_c, 3, 34, 0
4, 445512, Note_off_c, 3, 87, 0
4, 445512, Note_on_c, 3, 30, 17
4, 445512, Note_on_c, 3, 91, 17
4, 445536, Note_off_c, 3, 33, 0
4, 445536, Note_off_c, 3, 88, 0
4, 445536, Note_on_c, 3, 31, 17
4, 445536, Note_on_c, 3, 90, 17
4, 445560, Note_off_c, 3, 32, 0
4, 445560, Note_off_c, 3, 89, 0
4, 445560, Note_on_c, 3, 32, 17
4, 445560, Note_on_c, 3, 89, 17
4, 445584, Note_off_c, 3, 31, 0
4, 445584, Note_off_c, 3, 90, 0
4, 445584, Note_on_c, 3, 33, 17
4, 445584, Note_on_c, 3, 88, 17
4, 445608, Note_off_c, 3, 30, 0
4, 445608, Note_off_c, 3, 91, 0
4, 445608, Note_on_c, 3, 34, 17
4, 445608, Note_on_c, 3, 87, 17
4, 445632, Note_on_c, 3, 35, 17
4, 445632, Note_on_c, 3, 86, 17
4, 445656, Note_off_c, 3, 93, 0
4, 445656, Note_off_c, 3, 28, 0
4, 445656, Note_on_c, 3, 36, 17
4, 445656, Note_on_c, 3, 85, 17
4, 445680, Note_off_c, 3, 92, 0
4, 445680, Note_off_c, 3, 29, 0
4, 445680, Note_on_c, 3, 37, 17
4, 445680, Note_on_c, 3, 84, 17
4, 445704, Note_off_c, 3, 91, 0
4, 445704, Note_off_c, 3, 30, 0
4, 445704, Note_on_c, 3, 38, 17
4, 445704, Note_on_c, 3, 83, 17
4, 445728, Note_off_c, 3, 90, 0
4, 445728, Note_off_c, 3, 31, 0
4, 445728, Note_on_c, 3, 39, 17
4, 445728, Note_on_c, 3, 82, 17
4, 445752, Note_off_c, 3, 89, 0
4, 445752, Note_off_c, 3, 32, 0
4, 445752, Note_on_c, 3, 40, 17
4, 445752, Note_on_c, 3, 81, 17
4, 445776, Note_off_c, 3, 88, 0
4, 445776, Note_off_c, 3, 33, 0
4, 445776, Note_on_c, 3, 41, 17
4, 445776, Note_on_c, 3, 80, 17
4, 445800, Note_off_c, 3, 87, 0
4, 445800, Note_off_c, 3, 34, 0
4, 445800, Note_on_c, 3, 42, 17
4, 445800, Note_on_c, 3, 79, 17
4, 445824, Note_off_c, 3, 86, 0
4, 445824, Note_off_c, 3, 35, 0
4, 445824, Note_on_c, 3, 43, 17
4, 445824, Note_on_c, 3, 78, 17
4, 445848, Note_off_c, 3, 85, 0
4, 445848, Note_off_c, 3, 36, 0
4, 445848, Note_on_c, 3, 44, 17
4, 445848, Note_on_c, 3, 77, 17
4, 445872, Note_off_c, 3, 84, 0
4, 445872, Note_off_c, 3, 37, 0
4, 445872, Note_on_c, 3, 45, 17
4, 445872, Note_on_c, 3, 76, 17
4, 445896, Note_off_c, 3, 83, 0
4, 445896, Note_off_c, 3, 38, 0
4, 445896, Note_on_c, 3, 46, 17
4, 445896, Note_on_c, 3, 75, 17
4, 445920, Note_off_c, 3, 82, 0
4, 445920, Note_off_c, 3, 39, 0
4, 445920, Note_on_c, 3, 47, 17
4, 445920, Note_on_c, 3, 74, 17
4, 445944, Note_off_c, 3, 81, 0
4, 445944, Note_off_c, 3, 40, 0
4, 445944, Note_on_c, 3, 48, 17
4, 445944, Note_on_c, 3, 73, 17
4, 445968, Note_off_c, 3, 80, 0
4, 445968, Note_off_c, 3, 41, 0
4, 445968, Note_on_c, 3, 72, 17
4, 445968, Note_on_c, 3, 49, 17
4, 445992, Note_off_c, 3, 79, 0
4, 445992, Note_off_c, 3, 42, 0
4, 445992, Note_on_c, 3, 71, 17
4, 445992, Note_on_c, 3, 50, 17
4, 446016, Note_off_c, 3, 78, 0
4, 446016, Note_off_c, 3, 43, 0
4, 446016, Note_on_c, 3, 51, 17
4, 446016, Note_on_c, 3, 70, 17
4, 446040, Note_off_c, 3, 77, 0
4, 446040, Note_off_c, 3, 44, 0
4, 446040, Note_on_c, 3, 52, 17
4, 446040, Note_on_c, 3, 69, 17
4, 446064, Note_off_c, 3, 76, 0
4, 446064, Note_off_c, 3, 45, 0
4, 446064, Note_on_c, 3, 53, 17
4, 446064, Note_on_c, 3, 68, 17
4, 446088, Note_off_c, 3, 75, 0
4, 446088, Note_off_c, 3, 46, 0
4, 446088, Note_on_c, 3, 54, 17
4, 446088, Note_on_c, 3, 67, 17
4, 446112, Note_off_c, 3, 74, 0
4, 446112, Note_off_c, 3, 47, 0
4, 446112, Note_on_c, 3, 55, 17
4, 446112, Note_on_c, 3, 66, 17
4, 446136, Note_off_c, 3, 73, 0
4, 446136, Note_off_c, 3, 48, 0
4, 446136, Note_on_c, 3, 56, 17
4, 446136, Note_on_c, 3, 65, 17
4, 446160, Note_off_c, 3, 49, 0
4, 446160, Note_off_c, 3, 72, 0
4, 446160, Note_on_c, 3, 57, 17
4, 446160, Note_on_c, 3, 64, 17
4, 446184, Note_off_c, 3, 50, 0
4, 446184, Note_off_c, 3, 71, 0
4, 446184, Note_on_c, 3, 58, 17
4, 446184, Note_on_c, 3, 63, 17
4, 446208, Note_off_c, 3, 70, 0
4, 446208, Note_off_c, 3, 51, 0
4, 446208, Note_on_c, 3, 62, 17
4, 446208, Note_on_c, 3, 59, 17
4, 446232, Note_off_c, 3, 69, 0
4, 446232, Note_off_c, 3, 52, 0
4, 446232, Note_on_c, 3, 60, 17
4, 446232, Note_on_c, 3, 61, 17
4, 446256, Note_off_c, 3, 68, 0
4, 446256, Note_off_c, 3, 53, 0
4, 446256, Note_on_c, 3, 61, 17
4, 446256, Note_on_c, 3, 60, 17
4, 446280, Note_off_c, 3, 67, 0
4, 446280, Note_off_c, 3, 54, 0
4, 446280, Note_on_c, 3, 59, 17
4, 446280, Note_on_c, 3, 62, 17
4, 446304, Note_off_c, 3, 66, 0
4, 446304, Note_off_c, 3, 55, 0
4, 446304, Note_on_c, 3, 63, 17
4, 446304, Note_on_c, 3, 58, 17
4, 446328, Note_off_c, 3, 65, 0
4, 446328, Note_off_c, 3, 56, 0
4, 446328, Note_on_c, 3, 64, 17
4, 446328, Note_on_c, 3, 57, 17
4, 446352, Note_off_c, 3, 64, 0
4, 446352, Note_off_c, 3, 57, 0
4, 446352, Note_on_c, 3, 65, 17
4, 446352, Note_on_c, 3, 56, 17
4, 446376, Note_off_c, 3, 63, 0
4, 446376, Note_off_c, 3, 58, 0
4, 446376, Note_on_c, 3, 66, 17
4, 446376, Note_on_c, 3, 55, 17
4, 446400, Note_off_c, 3, 59, 0
4, 446400, Note_off_c, 3, 62, 0
4, 446400, Note_on_c, 3, 67, 17
4, 446400, Note_on_c, 3, 54, 17
4, 446424, Note_off_c, 3, 61, 0
4, 446424, Note_off_c, 3, 60, 0
4, 446424, Note_on_c, 3, 68, 17
4, 446424, Note_on_c, 3, 53, 17
4, 446448, Note_off_c, 3, 60, 0
4, 446448, Note_off_c, 3, 61, 0
4, 446448, Note_on_c, 3, 69, 17
4, 446448, Note_on_c, 3, 52, 17
4, 446472, Note_off_c, 3, 62, 0
4, 446472, Note_off_c, 3, 59, 0
4, 446472, Note_on_c, 3, 70, 17
4, 446472, Note_on_c, 3, 51, 17
4, 446496, Note_off_c, 3, 58, 0
4, 446496, Note_off_c, 3, 63, 0
4, 446496, Note_on_c, 3, 71, 17
4, 446496, Note_on_c, 3, 50, 17
4, 446520, Note_off_c, 3, 57, 0
4, 446520, Note_off_c, 3, 64, 0
4, 446520, Note_on_c, 3, 72, 17
4, 446520, Note_on_c, 3, 49, 17
4, 446544, Note_off_c, 3, 56, 0
4, 446544, Note_off_c, 3, 65, 0
4, 446544, Note_on_c, 3, 73, 17
4, 446544, Note_on_c, 3, 48, 17
4, 446568, Note_off_c, 3, 55, 0
4, 446568, Note_off_c, 3, 66, 0
4, 446568, Note_on_c, 3, 74, 17
4, 446568, Note_on_c, 3, 47, 17
4, 446592, Note_off_c, 3, 54, 0
4, 446592, Note_off_c, 3, 67, 0
4, 446592, Note_on_c, 3, 75, 17
4, 446592, Note_on_c, 3, 46, 17
4, 446616, Note_off_c, 3, 53, 0
4, 446616, Note_off_c, 3, 68, 0
4, 446616, Note_on_c, 3, 76, 17
4, 446616, Note_on_c, 3, 45, 17
4, 446640, Note_off_c, 3, 52, 0
4, 446640, Note_off_c, 3, 69, 0
4, 446640, Note_on_c, 3, 77, 17
4, 446640, Note_on_c, 3, 44, 17
4, 446664, Note_off_c, 3, 51, 0
4, 446664, Note_off_c, 3, 70, 0
4, 446664, Note_on_c, 3, 78, 17
4, 446664, Note_on_c, 3, 43, 17
4, 446688, Note_off_c, 3, 50, 0
4, 446688, Note_off_c, 3, 71, 0
4, 446688, Note_on_c, 3, 79, 17
4, 446688, Note_on_c, 3, 42, 17
4, 446712, Note_off_c, 3, 49, 0
4, 446712, Note_off_c, 3, 72, 0
4, 446712, Note_on_c, 3, 80, 17
4, 446712, Note_on_c, 3, 41, 17
4, 446736, Note_off_c, 3, 48, 0
4, 446736, Note_off_c, 3, 73, 0
4, 446736, Note_on_c, 3, 81, 17
4, 446736, Note_on_c, 3, 40, 17
4, 446760, Note_off_c, 3, 47, 0
4, 446760, Note_off_c, 3, 74, 0
4, 446760, Note_on_c, 3, 82, 17
4, 446760, Note_on_c, 3, 39, 17
4, 446784, Note_off_c, 3, 46, 0
4, 446784, Note_off_c, 3, 75, 0
4, 446784, Note_on_c, 3, 83, 17
4, 446784, Note_on_c, 3, 38, 17
4, 446808, Note_off_c, 3, 45, 0
4, 446808, Note_off_c, 3, 76, 0
4, 446808, Note_on_c, 3, 84, 17
4, 446808, Note_on_c, 3, 37, 17
4, 446832, Note_off_c, 3, 44, 0
4, 446832, Note_off_c, 3, 77, 0
4, 446832, Note_on_c, 3, 85, 17
4, 446832, Note_on_c, 3, 36, 17
4, 446856, Note_off_c, 3, 43, 0
4, 446856, Note_off_c, 3, 78, 0
4, 446856, Note_on_c, 3, 86, 17
4, 446856, Note_on_c, 3, 35, 17
4, 446880, Note_off_c, 3, 42, 0
4, 446880, Note_off_c, 3, 79, 0
4, 446880, Note_on_c, 3, 87, 17
4, 446880, Note_on_c, 3, 34, 17
4, 446904, Note_off_c, 3, 41, 0
4, 446904, Note_off_c, 3, 80, 0
4, 446904, Note_on_c, 3, 88, 17
4, 446904, Note_on_c, 3, 33, 17
4, 446928, Note_off_c, 3, 40, 0
4, 446928, Note_off_c, 3, 81, 0
4, 446928, Note_on_c, 3, 89, 17
4, 446928, Note_on_c, 3, 32, 17
4, 446952, Note_off_c, 3, 39, 0
4, 446952, Note_off_c, 3, 82, 0
4, 446952, Note_on_c, 3, 90, 17
4, 446952, Note_on_c, 3, 31, 17
4, 446976, Note_off_c, 3, 38, 0
4, 446976, Note_off_c, 3, 83, 0
4, 446976, Note_on_c, 3, 91, 17
4, 446976, Note_on_c, 3, 30, 17
4, 446976, Note_on_c, 3, 28, 17
4, 446976, Note_on_c, 3, 93, 17
4, 447000, Note_off_c, 3, 37, 0
4, 447000, Note_off_c, 3, 84, 0
4, 447000, Note_on_c, 3, 29, 17
4, 447000, Note_on_c, 3, 92, 17
4, 447024, Note_off_c, 3, 36, 0
4, 447024, Note_off_c, 3, 85, 0
4, 447024, Note_on_c, 3, 30, 17
4, 447024, Note_on_c, 3, 91, 17
4, 447048, Note_off_c, 3, 35, 0
4, 447048, Note_off_c, 3, 86, 0
4, 447048, Note_on_c, 3, 31, 17
4, 447048, Note_on_c, 3, 90, 17
4, 447072, Note_off_c, 3, 34, 0
4, 447072, Note_off_c, 3, 87, 0
4, 447072, Note_on_c, 3, 32, 17
4, 447072, Note_on_c, 3, 89, 17
4, 447096, Note_off_c, 3, 33, 0
4, 447096, Note_off_c, 3, 88, 0
4, 447096, Note_on_c, 3, 33, 17
4, 447096, Note_on_c, 3, 88, 17
4, 447120, Note_off_c, 3, 32, 0
4, 447120, Note_off_c, 3, 89, 0
4, 447120, Note_on_c, 3, 34, 17
4, 447120, Note_on_c, 3, 87, 17
4, 447144, Note_off_c, 3, 31, 0
4, 447144, Note_off_c, 3, 90, 0
4, 447144, Note_on_c, 3, 35, 17
4, 447144, Note_on_c, 3, 86, 17
4, 447168, Note_off_c, 3, 93, 0
4, 447168, Note_off_c, 3, 28, 0
4, 447168, Note_off_c, 3, 30, 0
4, 447168, Note_off_c, 3, 91, 0
4, 447168, Note_on_c, 3, 36, 17
4, 447168, Note_on_c, 3, 85, 17
4, 447192, Note_off_c, 3, 92, 0
4, 447192, Note_off_c, 3, 29, 0
4, 447192, Note_on_c, 3, 37, 17
4, 447192, Note_on_c, 3, 84, 17
4, 447216, Note_off_c, 3, 91, 0
4, 447216, Note_off_c, 3, 30, 0
4, 447216, Note_on_c, 3, 38, 17
4, 447216, Note_on_c, 3, 83, 17
4, 447240, Note_off_c, 3, 90, 0
4, 447240, Note_off_c, 3, 31, 0
4, 447240, Note_on_c, 3, 39, 17
4, 447240, Note_on_c, 3, 82, 17
4, 447264, Note_off_c, 3, 89, 0
4, 447264, Note_off_c, 3, 32, 0
4, 447264, Note_on_c, 3, 40, 17
4, 447264, Note_on_c, 3, 81, 17
4, 447288, Note_off_c, 3, 88, 0
4, 447288, Note_off_c, 3, 33, 0
4, 447288, Note_on_c, 3, 41, 17
4, 447288, Note_on_c, 3, 80, 17
4, 447312, Note_off_c, 3, 87, 0
4, 447312, Note_off_c, 3, 34, 0
4, 447312, Note_on_c, 3, 42, 17
4, 447312, Note_on_c, 3, 79, 17
4, 447336, Note_off_c, 3, 86, 0
4, 447336, Note_off_c, 3, 35, 0
4, 447336, Note_on_c, 3, 43, 17
4, 447336, Note_on_c, 3, 78, 17
4, 447360, Note_off_c, 3, 85, 0
4, 447360, Note_off_c, 3, 36, 0
4, 447360, Note_on_c, 3, 44, 17
4, 447360, Note_on_c, 3, 77, 17
4, 447384, Note_off_c, 3, 84, 0
4, 447384, Note_off_c, 3, 37, 0
4, 447384, Note_on_c, 3, 45, 17
4, 447384, Note_on_c, 3, 76, 17
4, 447408, Note_off_c, 3, 83, 0
4, 447408, Note_off_c, 3, 38, 0
4, 447408, Note_on_c, 3, 46, 17
4, 447408, Note_on_c, 3, 75, 17
4, 447432, Note_off_c, 3, 82, 0
4, 447432, Note_off_c, 3, 39, 0
4, 447432, Note_on_c, 3, 47, 17
4, 447432, Note_on_c, 3, 74, 17
4, 447456, Note_off_c, 3, 81, 0
4, 447456, Note_off_c, 3, 40, 0
4, 447456, Note_on_c, 3, 48, 17
4, 447456, Note_on_c, 3, 73, 17
4, 447480, Note_off_c, 3, 80, 0
4, 447480, Note_off_c, 3, 41, 0
4, 447480, Note_on_c, 3, 72, 17
4, 447480, Note_on_c, 3, 49, 17
4, 447504, Note_off_c, 3, 79, 0
4, 447504, Note_off_c, 3, 42, 0
4, 447504, Note_on_c, 3, 71, 17
4, 447504, Note_on_c, 3, 50, 17
4, 447528, Note_off_c, 3, 78, 0
4, 447528, Note_off_c, 3, 43, 0
4, 447528, Note_on_c, 3, 51, 17
4, 447528, Note_on_c, 3, 70, 17
4, 447552, Note_off_c, 3, 77, 0
4, 447552, Note_off_c, 3, 44, 0
4, 447552, Note_on_c, 3, 52, 17
4, 447552, Note_on_c, 3, 69, 17
4, 447576, Note_off_c, 3, 76, 0
4, 447576, Note_off_c, 3, 45, 0
4, 447576, Note_on_c, 3, 53, 17
4, 447576, Note_on_c, 3, 68, 17
4, 447600, Note_off_c, 3, 75, 0
4, 447600, Note_off_c, 3, 46, 0
4, 447600, Note_on_c, 3, 54, 17
4, 447600, Note_on_c, 3, 67, 17
4, 447624, Note_off_c, 3, 74, 0
4, 447624, Note_off_c, 3, 47, 0
4, 447624, Note_on_c, 3, 55, 17
4, 447624, Note_on_c, 3, 66, 17
4, 447648, Note_off_c, 3, 73, 0
4, 447648, Note_off_c, 3, 48, 0
4, 447648, Note_on_c, 3, 56, 17
4, 447648, Note_on_c, 3, 65, 17
4, 447672, Note_off_c, 3, 49, 0
4, 447672, Note_off_c, 3, 72, 0
4, 447672, Note_on_c, 3, 57, 17
4, 447672, Note_on_c, 3, 64, 17
4, 447696, Note_off_c, 3, 50, 0
4, 447696, Note_off_c, 3, 71, 0
4, 447696, Note_on_c, 3, 58, 17
4, 447696, Note_on_c, 3, 63, 17
4, 447720, Note_off_c, 3, 70, 0
4, 447720, Note_off_c, 3, 51, 0
4, 447720, Note_on_c, 3, 62, 17
4, 447720, Note_on_c, 3, 59, 17
4, 447744, Note_off_c, 3, 69, 0
4, 447744, Note_off_c, 3, 52, 0
4, 447744, Note_on_c, 3, 60, 17
4, 447744, Note_on_c, 3, 61, 17
4, 447768, Note_off_c, 3, 68, 0
4, 447768, Note_off_c, 3, 53, 0
4, 447768, Note_on_c, 3, 61, 17
4, 447768, Note_on_c, 3, 60, 17
4, 447792, Note_off_c, 3, 67, 0
4, 447792, Note_off_c, 3, 54, 0
4, 447792, Note_on_c, 3, 59, 17
4, 447792, Note_on_c, 3, 62, 17
4, 447816, Note_off_c, 3, 66, 0
4, 447816, Note_off_c, 3, 55, 0
4, 447816, Note_on_c, 3, 63, 17
4, 447816, Note_on_c, 3, 58, 17
4, 447840, Note_off_c, 3, 65, 0
4, 447840, Note_off_c, 3, 56, 0
4, 447840, Note_on_c, 3, 64, 17
4, 447840, Note_on_c, 3, 57, 17
4, 447864, Note_off_c, 3, 64, 0
4, 447864, Note_off_c, 3, 57, 0
4, 447864, Note_on_c, 3, 65, 17
4, 447864, Note_on_c, 3, 56, 17
4, 447888, Note_off_c, 3, 63, 0
4, 447888, Note_off_c, 3, 58, 0
4, 447888, Note_on_c, 3, 66, 17
4, 447888, Note_on_c, 3, 55, 17
4, 447912, Note_off_c, 3, 59, 0
4, 447912, Note_off_c, 3, 62, 0
4, 447912, Note_on_c, 3, 67, 17
4, 447912, Note_on_c, 3, 54, 17
4, 447936, Note_off_c, 3, 61, 0
4, 447936, Note_off_c, 3, 60, 0
4, 447936, Note_on_c, 3, 68, 17
4, 447936, Note_on_c, 3, 53, 17
4, 447960, Note_off_c, 3, 60, 0
4, 447960, Note_off_c, 3, 61, 0
4, 447960, Note_on_c, 3, 69, 17
4, 447960, Note_on_c, 3, 52, 17
4, 447984, Note_off_c, 3, 62, 0
4, 447984, Note_off_c, 3, 59, 0
4, 447984, Note_on_c, 3, 70, 17
4, 447984, Note_on_c, 3, 51, 17
4, 448008, Note_off_c, 3, 58, 0
4, 448008, Note_off_c, 3, 63, 0
4, 448008, Note_on_c, 3, 71, 17
4, 448008, Note_on_c, 3, 50, 17
4, 448032, Note_off_c, 3, 57, 0
4, 448032, Note_off_c, 3, 64, 0
4, 448032, Note_on_c, 3, 72, 17
4, 448032, Note_on_c, 3, 49, 17
4, 448056, Note_off_c, 3, 56, 0
4, 448056, Note_off_c, 3, 65, 0
4, 448056, Note_on_c, 3, 73, 17
4, 448056, Note_on_c, 3, 48, 17
4, 448080, Note_off_c, 3, 55, 0
4, 448080, Note_off_c, 3, 66, 0
4, 448080, Note_on_c, 3, 74, 17
4, 448080, Note_on_c, 3, 47, 17
4, 448104, Note_off_c, 3, 54, 0
4, 448104, Note_off_c, 3, 67, 0
4, 448104, Note_on_c, 3, 75, 17
4, 448104, Note_on_c, 3, 46, 17
4, 448128, Note_off_c, 3, 53, 0
4, 448128, Note_off_c, 3, 68, 0
4, 448128, Note_on_c, 3, 76, 17
4, 448128, Note_on_c, 3, 45, 17
4, 448152, Note_off_c, 3, 52, 0
4, 448152, Note_off_c, 3, 69, 0
4, 448152, Note_on_c, 3, 77, 17
4, 448152, Note_on_c, 3, 44, 17
4, 448176, Note_off_c, 3, 51, 0
4, 448176, Note_off_c, 3, 70, 0
4, 448176, Note_on_c, 3, 78, 17
4, 448176, Note_on_c, 3, 43, 17
4, 448200, Note_off_c, 3, 50, 0
4, 448200, Note_off_c, 3, 71, 0
4, 448200, Note_on_c, 3, 79, 17
4, 448200, Note_on_c, 3, 42, 17
4, 448224, Note_off_c, 3, 49, 0
4, 448224, Note_off_c, 3, 72, 0
4, 448224, Note_on_c, 3, 80, 17
4, 448224, Note_on_c, 3, 41, 17
4, 448248, Note_off_c, 3, 48, 0
4, 448248, Note_off_c, 3, 73, 0
4, 448248, Note_on_c, 3, 81, 17
4, 448248, Note_on_c, 3, 40, 17
4, 448272, Note_off_c, 3, 47, 0
4, 448272, Note_off_c, 3, 74, 0
4, 448272, Note_on_c, 3, 82, 17
4, 448272, Note_on_c, 3, 39, 17
4, 448296, Note_off_c, 3, 46, 0
4, 448296, Note_off_c, 3, 75, 0
4, 448296, Note_on_c, 3, 83, 17
4, 448296, Note_on_c, 3, 38, 17
4, 448320, Note_off_c, 3, 45, 0
4, 448320, Note_off_c, 3, 76, 0
4, 448320, Note_on_c, 3, 84, 17
4, 448320, Note_on_c, 3, 37, 17
4, 448344, Note_off_c, 3, 44, 0
4, 448344, Note_off_c, 3, 77, 0
4, 448344, Note_on_c, 3, 85, 17
4, 448344, Note_on_c, 3, 36, 17
4, 448368, Note_off_c, 3, 43, 0
4, 448368, Note_off_c, 3, 78, 0
4, 448368, Note_on_c, 3, 86, 17
4, 448368, Note_on_c, 3, 35, 17
4, 448392, Note_off_c, 3, 42, 0
4, 448392, Note_off_c, 3, 79, 0
4, 448392, Note_on_c, 3, 87, 17
4, 448392, Note_on_c, 3, 34, 17
4, 448416, Note_off_c, 3, 41, 0
4, 448416, Note_off_c, 3, 80, 0
4, 448416, Note_on_c, 3, 88, 17
4, 448416, Note_on_c, 3, 33, 17
4, 448440, Note_off_c, 3, 40, 0
4, 448440, Note_off_c, 3, 81, 0
4, 448440, Note_on_c, 3, 89, 17
4, 448440, Note_on_c, 3, 32, 17
4, 448464, Note_off_c, 3, 39, 0
4, 448464, Note_off_c, 3, 82, 0
4, 448464, Note_on_c, 3, 90, 17
4, 448464, Note_on_c, 3, 31, 17
4, 448488, Note_off_c, 3, 38, 0
4, 448488, Note_off_c, 3, 83, 0
4, 448488, Note_on_c, 3, 91, 17
4, 448488, Note_on_c, 3, 30, 17
4, 448512, Note_off_c, 3, 37, 0
4, 448512, Note_off_c, 3, 84, 0
4, 448512, Note_on_c, 3, 93, 17
4, 448536, Note_off_c, 3, 36, 0
4, 448536, Note_off_c, 3, 85, 0
4, 448536, Note_on_c, 3, 92, 17
4, 448560, Note_off_c, 3, 35, 0
4, 448560, Note_off_c, 3, 86, 0
4, 448560, Note_on_c, 3, 91, 17
4, 448584, Note_off_c, 3, 34, 0
4, 448584, Note_off_c, 3, 87, 0
4, 448584, Note_on_c, 3, 90, 17
4, 448608, Note_off_c, 3, 33, 0
4, 448608, Note_off_c, 3, 88, 0
4, 448608, Note_on_c, 3, 89, 17
4, 448632, Note_off_c, 3, 32, 0
4, 448632, Note_off_c, 3, 89, 0
4, 448632, Note_on_c, 3, 88, 17
4, 448656, Note_off_c, 3, 31, 0
4, 448656, Note_off_c, 3, 90, 0
4, 448656, Note_on_c, 3, 87, 17
4, 448680, Note_off_c, 3, 30, 0
4, 448680, Note_off_c, 3, 91, 0
4, 448680, Note_on_c, 3, 86, 17
4, 448704, Note_off_c, 3, 93, 0
4, 448704, Note_on_c, 3, 85, 17
4, 448728, Note_off_c, 3, 92, 0
4, 448728, Note_on_c, 3, 84, 17
4, 448752, Note_off_c, 3, 91, 0
4, 448752, Note_on_c, 3, 83, 17
4, 448776, Note_off_c, 3, 90, 0
4, 448776, Note_on_c, 3, 82, 17
4, 448800, Note_off_c, 3, 89, 0
4, 448800, Note_on_c, 3, 81, 17
4, 448824, Note_off_c, 3, 88, 0
4, 448824, Note_on_c, 3, 80, 17
4, 448848, Note_off_c, 3, 87, 0
4, 448848, Note_on_c, 3, 79, 17
4, 448872, Note_off_c, 3, 86, 0
4, 448872, Note_on_c, 3, 78, 17
4, 448896, Note_off_c, 3, 85, 0
4, 448896, Note_on_c, 3, 77, 17
4, 448920, Note_off_c, 3, 84, 0
4, 448920, Note_on_c, 3, 76, 17
4, 448944, Note_off_c, 3, 83, 0
4, 448944, Note_on_c, 3, 75, 17
4, 448968, Note_off_c, 3, 82, 0
4, 448968, Note_on_c, 3, 74, 17
4, 448992, Note_off_c, 3, 81, 0
4, 448992, Note_on_c, 3, 73, 17
4, 449016, Note_off_c, 3, 80, 0
4, 449016, Note_on_c, 3, 72, 17
4, 449040, Note_off_c, 3, 79, 0
4, 449040, Note_on_c, 3, 71, 17
4, 449064, Note_off_c, 3, 78, 0
4, 449064, Note_on_c, 3, 70, 17
4, 449088, Note_off_c, 3, 77, 0
4, 449088, Note_on_c, 3, 69, 17
4, 449112, Note_off_c, 3, 76, 0
4, 449112, Note_on_c, 3, 68, 17
4, 449136, Note_off_c, 3, 75, 0
4, 449136, Note_on_c, 3, 67, 17
4, 449160, Note_off_c, 3, 74, 0
4, 449160, Note_on_c, 3, 66, 17
4, 449184, Note_off_c, 3, 73, 0
4, 449184, Note_on_c, 3, 65, 17
4, 449208, Note_off_c, 3, 72, 0
4, 449208, Note_on_c, 3, 64, 17
4, 449232, Note_off_c, 3, 71, 0
4, 449232, Note_on_c, 3, 63, 17
4, 449256, Note_off_c, 3, 70, 0
4, 449256, Note_on_c, 3, 62, 17
4, 449280, Note_off_c, 3, 69, 0
4, 449280, Note_on_c, 3, 61, 17
4, 449304, Note_off_c, 3, 68, 0
4, 449304, Note_on_c, 3, 60, 17
4, 449328, Note_off_c, 3, 67, 0
4, 449328, Note_on_c, 3, 59, 17
4, 449352, Note_off_c, 3, 66, 0
4, 449352, Note_on_c, 3, 58, 17
4, 449376, Note_off_c, 3, 65, 0
4, 449376, Note_on_c, 3, 57, 17
4, 449400, Note_off_c, 3, 64, 0
4, 449400, Note_on_c, 3, 56, 17
4, 449424, Note_off_c, 3, 63, 0
4, 449424, Note_on_c, 3, 55, 17
4, 449448, Note_off_c, 3, 62, 0
4, 449448, Note_on_c, 3, 54, 17
4, 449472, Note_off_c, 3, 61, 0
4, 449472, Note_on_c, 3, 53, 17
4, 449496, Note_off_c, 3, 60, 0
4, 449496, Note_on_c, 3, 52, 17
4, 449520, Note_off_c, 3, 59, 0
4, 449520, Note_on_c, 3, 51, 17
4, 449544, Note_off_c, 3, 58, 0
4, 449544, Note_on_c, 3, 50, 17
4, 449568, Note_off_c, 3, 57, 0
4, 449568, Note_on_c, 3, 49, 17
4, 449592, Note_off_c, 3, 56, 0
4, 449592, Note_on_c, 3, 48, 17
4, 449616, Note_off_c, 3, 55, 0
4, 449616, Note_on_c, 3, 47, 17
4, 449640, Note_off_c, 3, 54, 0
4, 449640, Note_on_c, 3, 46, 17
4, 449664, Note_off_c, 3, 53, 0
4, 449664, Note_on_c, 3, 45, 17
4, 449688, Note_off_c, 3, 52, 0
4, 449688, Note_on_c, 3, 44, 17
4, 449712, Note_off_c, 3, 51, 0
4, 449712, Note_on_c, 3, 43, 17
4, 449736, Note_off_c, 3, 50, 0
4, 449736, Note_on_c, 3, 42, 17
4, 449760, Note_off_c, 3, 49, 0
4, 449760, Note_on_c, 3, 41, 17
4, 449784, Note_off_c, 3, 48, 0
4, 449784, Note_on_c, 3, 40, 17
4, 449808, Note_off_c, 3, 47, 0
4, 449808, Note_on_c, 3, 39, 17
4, 449832, Note_off_c, 3, 46, 0
4, 449832, Note_on_c, 3, 38, 17
4, 449856, Note_off_c, 3, 45, 0
4, 449856, Note_on_c, 3, 37, 17
4, 449880, Note_off_c, 3, 44, 0
4, 449880, Note_on_c, 3, 36, 17
4, 449904, Note_off_c, 3, 43, 0
4, 449904, Note_on_c, 3, 35, 17
4, 449928, Note_off_c, 3, 42, 0
4, 449928, Note_on_c, 3, 34, 17
4, 449952, Note_off_c, 3, 41, 0
4, 449952, Note_on_c, 3, 33, 17
4, 449976, Note_off_c, 3, 40, 0
4, 449976, Note_on_c, 3, 32, 17
4, 450000, Note_off_c, 3, 39, 0
4, 450000, Note_on_c, 3, 31, 17
4, 450024, Note_off_c, 3, 38, 0
4, 450024, Note_on_c, 3, 30, 17
4, 450048, Note_off_c, 3, 37, 0
4, 450048, Note_on_c, 3, 93, 17
4, 450072, Note_off_c, 3, 36, 0
4, 450072, Note_on_c, 3, 92, 17
4, 450096, Note_off_c, 3, 35, 0
4, 450096, Note_on_c, 3, 91, 17
4, 450120, Note_off_c, 3, 34, 0
4, 450120, Note_on_c, 3, 90, 17
4, 450144, Note_off_c, 3, 33, 0
4, 450144, Note_on_c, 3, 89, 17
4, 450168, Note_off_c, 3, 32, 0
4, 450168, Note_on_c, 3, 88, 17
4, 450192, Note_off_c, 3, 31, 0
4, 450192, Note_on_c, 3, 87, 17
4, 450216, Note_off_c, 3, 30, 0
4, 450216, Note_on_c, 3, 86, 17
4, 450240, Note_off_c, 3, 93, 0
4, 450240, Note_on_c, 3, 85, 17
4, 450264, Note_off_c, 3, 92, 0
4, 450264, Note_on_c, 3, 84, 17
4, 450288, Note_off_c, 3, 91, 0
4, 450288, Note_on_c, 3, 83, 17
4, 450312, Note_off_c, 3, 90, 0
4, 450312, Note_on_c, 3, 82, 17
4, 450336, Note_off_c, 3, 89, 0
4, 450336, Note_on_c, 3, 81, 17
4, 450360, Note_off_c, 3, 88, 0
4, 450360, Note_on_c, 3, 80, 17
4, 450384, Note_off_c, 3, 87, 0
4, 450384, Note_on_c, 3, 79, 17
4, 450408, Note_off_c, 3, 86, 0
4, 450408, Note_on_c, 3, 78, 17
4, 450432, Note_off_c, 3, 85, 0
4, 450432, Note_on_c, 3, 77, 17
4, 450456, Note_off_c, 3, 84, 0
4, 450456, Note_on_c, 3, 76, 17
4, 450480, Note_off_c, 3, 83, 0
4, 450480, Note_on_c, 3, 75, 17
4, 450504, Note_off_c, 3, 82, 0
4, 450504, Note_on_c, 3, 74, 17
4, 450528, Note_off_c, 3, 81, 0
4, 450528, Note_on_c, 3, 73, 17
4, 450552, Note_off_c, 3, 80, 0
4, 450552, Note_on_c, 3, 72, 17
4, 450576, Note_off_c, 3, 79, 0
4, 450576, Note_on_c, 3, 71, 17
4, 450600, Note_off_c, 3, 78, 0
4, 450600, Note_on_c, 3, 70, 17
4, 450624, Note_off_c, 3, 77, 0
4, 450624, Note_on_c, 3, 69, 17
4, 450648, Note_off_c, 3, 76, 0
4, 450648, Note_on_c, 3, 68, 17
4, 450672, Note_off_c, 3, 75, 0
4, 450672, Note_on_c, 3, 67, 17
4, 450696, Note_off_c, 3, 74, 0
4, 450696, Note_on_c, 3, 66, 17
4, 450720, Note_off_c, 3, 73, 0
4, 450720, Note_on_c, 3, 65, 17
4, 450744, Note_off_c, 3, 72, 0
4, 450744, Note_on_c, 3, 64, 17
4, 450768, Note_off_c, 3, 71, 0
4, 450768, Note_on_c, 3, 63, 17
4, 450792, Note_off_c, 3, 70, 0
4, 450792, Note_on_c, 3, 62, 17
4, 450816, Note_off_c, 3, 69, 0
4, 450816, Note_on_c, 3, 61, 17
4, 450816, Note_on_c, 3, 95, 20
4, 450816, Note_on_c, 3, 94, 20
4, 450816, Note_on_c, 3, 93, 20
4, 450816, Note_on_c, 3, 92, 20
4, 450816, Note_on_c, 3, 91, 20
4, 450816, Note_on_c, 3, 90, 20
4, 450816, Note_on_c, 3, 88, 20
4, 450816, Note_on_c, 3, 89, 20
4, 450816, Note_on_c, 3, 87, 20
4, 450816, Note_on_c, 3, 86, 20
4, 450816, Note_on_c, 3, 85, 20
4, 450816, Note_on_c, 3, 84, 20
4, 450816, Note_on_c, 3, 83, 20
4, 450816, Note_on_c, 3, 81, 20
4, 450816, Note_on_c, 3, 82, 20
4, 450816, Note_on_c, 3, 79, 20
4, 450816, Note_on_c, 3, 80, 20
4, 450816, Note_on_c, 3, 78, 20
4, 450816, Note_on_c, 3, 76, 20
4, 450816, Note_on_c, 3, 77, 20
4, 450816, Note_on_c, 3, 75, 20
4, 450816, Note_on_c, 3, 74, 20
4, 450816, Note_on_c, 3, 72, 20
4, 450816, Note_on_c, 3, 69, 20
4, 450816, Note_on_c, 3, 65, 20
4, 450816, Note_on_c, 3, 59, 20
4, 450816, Note_on_c, 3, 55, 20
4, 450816, Note_on_c, 3, 51, 20
4, 450816, Note_on_c, 3, 49, 20
4, 450816, Note_on_c, 3, 62, 20
4, 450816, Note_on_c, 3, 63, 20
4, 450816, Note_on_c, 3, 64, 20
4, 450816, Note_on_c, 3, 67, 20
4, 450816, Note_on_c, 3, 66, 20
4, 450816, Note_on_c, 3, 68, 20
4, 450816, Note_on_c, 3, 70, 20
4, 450816, Note_on_c, 3, 71, 20
4, 450816, Note_on_c, 3, 73, 20
4, 450816, Note_on_c, 3, 61, 20
4, 450816, Note_on_c, 3, 60, 20
4, 450816, Note_on_c, 3, 58, 20
4, 450816, Note_on_c, 3, 57, 20
4, 450816, Note_on_c, 3, 56, 20
4, 450816, Note_on_c, 3, 53, 20
4, 450816, Note_on_c, 3, 54, 20
4, 450816, Note_on_c, 3, 52, 20
4, 450816, Note_on_c, 3, 50, 20
4, 450816, Note_on_c, 3, 48, 20
4, 450816, Note_on_c, 3, 47, 20
4, 450816, Note_on_c, 3, 46, 20
4, 450816, Note_on_c, 3, 45, 20
4, 450816, Note_on_c, 3, 44, 20
4, 450816, Note_on_c, 3, 42, 20
4, 450816, Note_on_c, 3, 43, 20
4, 450816, Note_on_c, 3, 41, 20
4, 450816, Note_on_c, 3, 40, 20
4, 450816, Note_on_c, 3, 39, 20
4, 450816, Note_on_c, 3, 38, 20
4, 450816, Note_on_c, 3, 37, 20
4, 450816, Note_on_c, 3, 36, 20
4, 450816, Note_on_c, 3, 35, 20
4, 450816, Note_on_c, 3, 34, 20
4, 450816, Note_on_c, 3, 32, 20
4, 450816, Note_on_c, 3, 33, 20
4, 450816, Note_on_c, 3, 31, 20
4, 450816, Note_on_c, 3, 30, 20
4, 450816, Note_on_c, 3, 29, 20
4, 450816, Note_on_c, 3, 28, 20
4, 450816, Note_on_c, 3, 27, 20
4, 450816, Note_on_c, 3, 25, 20
4, 450816, Note_on_c, 3, 26, 20
4, 450816, Note_on_c, 3, 24, 20
4, 450840, Note_off_c, 3, 68, 0
4, 450840, Note_on_c, 3, 60, 17
4, 450864, Note_off_c, 3, 67, 0
4, 450864, Note_on_c, 3, 59, 17
4, 450888, Note_off_c, 3, 66, 0
4, 450888, Note_on_c, 3, 58, 17
4, 450912, Note_off_c, 3, 65, 0
4, 450912, Note_on_c, 3, 57, 17
4, 450936, Note_off_c, 3, 64, 0
4, 450936, Note_on_c, 3, 56, 17
4, 450960, Note_off_c, 3, 63, 0
4, 450960, Note_on_c, 3, 55, 17
4, 450984, Note_off_c, 3, 62, 0
4, 450984, Note_on_c, 3, 54, 17
4, 451008, Note_off_c, 3, 61, 0
4, 451008, Note_on_c, 3, 53, 17
4, 451032, Note_off_c, 3, 60, 0
4, 451032, Note_on_c, 3, 52, 17
4, 451056, Note_off_c, 3, 59, 0
4, 451056, Note_on_c, 3, 51, 17
4, 451080, Note_off_c, 3, 58, 0
4, 451080, Note_on_c, 3, 50, 17
4, 451104, Note_off_c, 3, 57, 0
4, 451104, Note_on_c, 3, 49, 17
4, 451128, Note_off_c, 3, 56, 0
4, 451128, Note_on_c, 3, 48, 17
4, 451152, Note_off_c, 3, 55, 0
4, 451152, Note_on_c, 3, 47, 17
4, 451176, Note_off_c, 3, 54, 0
4, 451176, Note_on_c, 3, 46, 17
4, 451200, Note_off_c, 3, 53, 0
4, 451200, Note_off_c, 3, 24, 0
4, 451200, Note_off_c, 3, 26, 0
4, 451200, Note_off_c, 3, 25, 0
4, 451200, Note_off_c, 3, 27, 0
4, 451200, Note_off_c, 3, 28, 0
4, 451200, Note_off_c, 3, 29, 0
4, 451200, Note_off_c, 3, 30, 0
4, 451200, Note_off_c, 3, 31, 0
4, 451200, Note_off_c, 3, 33, 0
4, 451200, Note_off_c, 3, 32, 0
4, 451200, Note_off_c, 3, 34, 0
4, 451200, Note_off_c, 3, 35, 0
4, 451200, Note_off_c, 3, 36, 0
4, 451200, Note_off_c, 3, 37, 0
4, 451200, Note_off_c, 3, 38, 0
4, 451200, Note_off_c, 3, 39, 0
4, 451200, Note_off_c, 3, 40, 0
4, 451200, Note_off_c, 3, 41, 0
4, 451200, Note_off_c, 3, 43, 0
4, 451200, Note_off_c, 3, 42, 0
4, 451200, Note_off_c, 3, 44, 0
4, 451200, Note_off_c, 3, 45, 0
4, 451200, Note_off_c, 3, 46, 0
4, 451200, Note_off_c, 3, 47, 0
4, 451200, Note_off_c, 3, 48, 0
4, 451200, Note_off_c, 3, 50, 0
4, 451200, Note_off_c, 3, 52, 0
4, 451200, Note_off_c, 3, 54, 0
4, 451200, Note_off_c, 3, 53, 0
4, 451200, Note_off_c, 3, 56, 0
4, 451200, Note_off_c, 3, 57, 0
4, 451200, Note_off_c, 3, 58, 0
4, 451200, Note_off_c, 3, 60, 0
4, 451200, Note_off_c, 3, 61, 0
4, 451200, Note_off_c, 3, 73, 0
4, 451200, Note_off_c, 3, 71, 0
4, 451200, Note_off_c, 3, 70, 0
4, 451200, Note_off_c, 3, 68, 0
4, 451200, Note_off_c, 3, 66, 0
4, 451200, Note_off_c, 3, 67, 0
4, 451200, Note_off_c, 3, 64, 0
4, 451200, Note_off_c, 3, 63, 0
4, 451200, Note_off_c, 3, 62, 0
4, 451200, Note_off_c, 3, 49, 0
4, 451200, Note_off_c, 3, 51, 0
4, 451200, Note_off_c, 3, 55, 0
4, 451200, Note_off_c, 3, 59, 0
4, 451200, Note_off_c, 3, 65, 0
4, 451200, Note_off_c, 3, 69, 0
4, 451200, Note_off_c, 3, 72, 0
4, 451200, Note_off_c, 3, 74, 0
4, 451200, Note_off_c, 3, 75, 0
4, 451200, Note_off_c, 3, 77, 0
4, 451200, Note_off_c, 3, 76, 0
4, 451200, Note_off_c, 3, 78, 0
4, 451200, Note_off_c, 3, 80, 0
4, 451200, Note_off_c, 3, 79, 0
4, 451200, Note_off_c, 3, 82, 0
4, 451200, Note_off_c, 3, 81, 0
4, 451200, Note_off_c, 3, 83, 0
4, 451200, Note_off_c, 3, 84, 0
4, 451200, Note_off_c, 3, 85, 0
4, 451200, Note_off_c, 3, 86, 0
4, 451200, Note_off_c, 3, 87, 0
4, 451200, Note_off_c, 3, 89, 0
4, 451200, Note_off_c, 3, 88, 0
4, 451200, Note_off_c, 3, 90, 0
4, 451200, Note_off_c, 3, 91, 0
4, 451200, Note_off_c, 3, 92, 0
4, 451200, Note_off_c, 3, 93, 0
4, 451200, Note_off_c, 3, 94, 0
4, 451200, Note_off_c, 3, 95, 0
4, 451200, Note_on_c, 3, 45, 17
4, 451224, Note_off_c, 3, 52, 0
4, 451224, Note_on_c, 3, 44, 17
4, 451248, Note_off_c, 3, 51, 0
4, 451248, Note_on_c, 3, 43, 17
4, 451272, Note_off_c, 3, 50, 0
4, 451272, Note_on_c, 3, 42, 17
4, 451296, Note_off_c, 3, 49, 0
4, 451296, Note_on_c, 3, 41, 17
4, 451320, Note_off_c, 3, 48, 0
4, 451320, Note_on_c, 3, 40, 17
4, 451344, Note_off_c, 3, 47, 0
4, 451344, Note_on_c, 3, 39, 17
4, 451368, Note_off_c, 3, 46, 0
4, 451368, Note_on_c, 3, 38, 17
4, 451392, Note_off_c, 3, 45, 0
4, 451392, Note_on_c, 3, 37, 17
4, 451416, Note_off_c, 3, 44, 0
4, 451416, Note_on_c, 3, 36, 17
4, 451440, Note_off_c, 3, 43, 0
4, 451440, Note_on_c, 3, 35, 17
4, 451464, Note_off_c, 3, 42, 0
4, 451464, Note_on_c, 3, 34, 17
4, 451488, Note_off_c, 3, 41, 0
4, 451488, Note_on_c, 3, 33, 17
4, 451512, Note_off_c, 3, 40, 0
4, 451512, Note_on_c, 3, 32, 17
4, 451536, Note_off_c, 3, 39, 0
4, 451536, Note_on_c, 3, 31, 17
4, 451560, Note_off_c, 3, 38, 0
4, 451560, Note_on_c, 3, 30, 17
4, 451584, Note_off_c, 3, 37, 0
4, 451584, Note_on_c, 3, 93, 17
4, 451584, Note_on_c, 3, 95, 22
4, 451584, Note_on_c, 3, 94, 22
4, 451584, Note_on_c, 3, 93, 22
4, 451584, Note_on_c, 3, 92, 22
4, 451584, Note_on_c, 3, 91, 22
4, 451584, Note_on_c, 3, 90, 22
4, 451584, Note_on_c, 3, 88, 22
4, 451584, Note_on_c, 3, 89, 22
4, 451584, Note_on_c, 3, 87, 22
4, 451584, Note_on_c, 3, 86, 22
4, 451584, Note_on_c, 3, 85, 22
4, 451584, Note_on_c, 3, 84, 22
4, 451584, Note_on_c, 3, 83, 22
4, 451584, Note_on_c, 3, 81, 22
4, 451584, Note_on_c, 3, 82, 22
4, 451584, Note_on_c, 3, 79, 22
4, 451584, Note_on_c, 3, 80, 22
4, 451584, Note_on_c, 3, 78, 22
4, 451584, Note_on_c, 3, 76, 22
4, 451584, Note_on_c, 3, 77, 22
4, 451584, Note_on_c, 3, 75, 22
4, 451584, Note_on_c, 3, 74, 22
4, 451584, Note_on_c, 3, 72, 22
4, 451584, Note_on_c, 3, 69, 22
4, 451584, Note_on_c, 3, 65, 22
4, 451584, Note_on_c, 3, 59, 22
4, 451584, Note_on_c, 3, 55, 22
4, 451584, Note_on_c, 3, 51, 22
4, 451584, Note_on_c, 3, 49, 22
4, 451584, Note_on_c, 3, 62, 22
4, 451584, Note_on_c, 3, 63, 22
4, 451584, Note_on_c, 3, 64, 22
4, 451584, Note_on_c, 3, 67, 22
4, 451584, Note_on_c, 3, 66, 22
4, 451584, Note_on_c, 3, 68, 22
4, 451584, Note_on_c, 3, 70, 22
4, 451584, Note_on_c, 3, 71, 22
4, 451584, Note_on_c, 3, 73, 22
4, 451584, Note_on_c, 3, 61, 22
4, 451584, Note_on_c, 3, 60, 22
4, 451584, Note_on_c, 3, 58, 22
4, 451584, Note_on_c, 3, 57, 22
4, 451584, Note_on_c, 3, 56, 22
4, 451584, Note_on_c, 3, 53, 22
4, 451584, Note_on_c, 3, 54, 22
4, 451584, Note_on_c, 3, 52, 22
4, 451584, Note_on_c, 3, 50, 22
4, 451584, Note_on_c, 3, 48, 22
4, 451584, Note_on_c, 3, 47, 22
4, 451584, Note_on_c, 3, 46, 22
4, 451584, Note_on_c, 3, 45, 22
4, 451584, Note_on_c, 3, 44, 22
4, 451584, Note_on_c, 3, 42, 22
4, 451584, Note_on_c, 3, 43, 22
4, 451584, Note_on_c, 3, 41, 22
4, 451584, Note_on_c, 3, 40, 22
4, 451584, Note_on_c, 3, 39, 22
4, 451584, Note_on_c, 3, 38, 22
4, 451584, Note_on_c, 3, 37, 22
4, 451584, Note_on_c, 3, 36, 22
4, 451584, Note_on_c, 3, 35, 22
4, 451584, Note_on_c, 3, 34, 22
4, 451584, Note_on_c, 3, 32, 22
4, 451584, Note_on_c, 3, 33, 22
4, 451584, Note_on_c, 3, 31, 22
4, 451584, Note_on_c, 3, 30, 22
4, 451584, Note_on_c, 3, 29, 22
4, 451584, Note_on_c, 3, 28, 22
4, 451584, Note_on_c, 3, 27, 22
4, 451584, Note_on_c, 3, 25, 22
4, 451584, Note_on_c, 3, 26, 22
4, 451584, Note_on_c, 3, 24, 22
4, 451608, Note_off_c, 3, 36, 0
4, 451608, Note_on_c, 3, 92, 17
4, 451632, Note_off_c, 3, 35, 0
4, 451632, Note_on_c, 3, 91, 17
4, 451656, Note_off_c, 3, 34, 0
4, 451656, Note_on_c, 3, 90, 17
4, 451680, Note_off_c, 3, 33, 0
4, 451680, Note_on_c, 3, 89, 17
4, 451704, Note_off_c, 3, 32, 0
4, 451704, Note_on_c, 3, 88, 17
4, 451728, Note_off_c, 3, 31, 0
4, 451728, Note_on_c, 3, 87, 17
4, 451752, Note_off_c, 3, 30, 0
4, 451752, Note_on_c, 3, 86, 17
4, 451776, Note_off_c, 3, 93, 0
4, 451776, Note_on_c, 3, 85, 17
4, 451800, Note_off_c, 3, 92, 0
4, 451800, Note_on_c, 3, 84, 17
4, 451824, Note_off_c, 3, 91, 0
4, 451824, Note_on_c, 3, 83, 17
4, 451848, Note_off_c, 3, 90, 0
4, 451848, Note_on_c, 3, 82, 17
4, 451872, Note_off_c, 3, 89, 0
4, 451872, Note_on_c, 3, 81, 17
4, 451896, Note_off_c, 3, 88, 0
4, 451896, Note_on_c, 3, 80, 17
4, 451920, Note_off_c, 3, 87, 0
4, 451920, Note_on_c, 3, 79, 17
4, 451944, Note_off_c, 3, 86, 0
4, 451944, Note_on_c, 3, 78, 17
4, 451968, Note_off_c, 3, 85, 0
4, 451968, Note_off_c, 3, 24, 0
4, 451968, Note_off_c, 3, 26, 0
4, 451968, Note_off_c, 3, 25, 0
4, 451968, Note_off_c, 3, 27, 0
4, 451968, Note_off_c, 3, 28, 0
4, 451968, Note_off_c, 3, 29, 0
4, 451968, Note_off_c, 3, 30, 0
4, 451968, Note_off_c, 3, 31, 0
4, 451968, Note_off_c, 3, 33, 0
4, 451968, Note_off_c, 3, 32, 0
4, 451968, Note_off_c, 3, 34, 0
4, 451968, Note_off_c, 3, 35, 0
4, 451968, Note_off_c, 3, 36, 0
4, 451968, Note_off_c, 3, 37, 0
4, 451968, Note_off_c, 3, 38, 0
4, 451968, Note_off_c, 3, 39, 0
4, 451968, Note_off_c, 3, 40, 0
4, 451968, Note_off_c, 3, 41, 0
4, 451968, Note_off_c, 3, 43, 0
4, 451968, Note_off_c, 3, 42, 0
4, 451968, Note_off_c, 3, 44, 0
4, 451968, Note_off_c, 3, 45, 0
4, 451968, Note_off_c, 3, 46, 0
4, 451968, Note_off_c, 3, 47, 0
4, 451968, Note_off_c, 3, 48, 0
4, 451968, Note_off_c, 3, 50, 0
4, 451968, Note_off_c, 3, 52, 0
4, 451968, Note_off_c, 3, 54, 0
4, 451968, Note_off_c, 3, 53, 0
4, 451968, Note_off_c, 3, 56, 0
4, 451968, Note_off_c, 3, 57, 0
4, 451968, Note_off_c, 3, 58, 0
4, 451968, Note_off_c, 3, 60, 0
4, 451968, Note_off_c, 3, 61, 0
4, 451968, Note_off_c, 3, 73, 0
4, 451968, Note_off_c, 3, 71, 0
4, 451968, Note_off_c, 3, 70, 0
4, 451968, Note_off_c, 3, 68, 0
4, 451968, Note_off_c, 3, 66, 0
4, 451968, Note_off_c, 3, 67, 0
4, 451968, Note_off_c, 3, 64, 0
4, 451968, Note_off_c, 3, 63, 0
4, 451968, Note_off_c, 3, 62, 0
4, 451968, Note_off_c, 3, 49, 0
4, 451968, Note_off_c, 3, 51, 0
4, 451968, Note_off_c, 3, 55, 0
4, 451968, Note_off_c, 3, 59, 0
4, 451968, Note_off_c, 3, 65, 0
4, 451968, Note_off_c, 3, 69, 0
4, 451968, Note_off_c, 3, 72, 0
4, 451968, Note_off_c, 3, 74, 0
4, 451968, Note_off_c, 3, 75, 0
4, 451968, Note_off_c, 3, 77, 0
4, 451968, Note_off_c, 3, 76, 0
4, 451968, Note_off_c, 3, 78, 0
4, 451968, Note_off_c, 3, 80, 0
4, 451968, Note_off_c, 3, 79, 0
4, 451968, Note_off_c, 3, 82, 0
4, 451968, Note_off_c, 3, 81, 0
4, 451968, Note_off_c, 3, 83, 0
4, 451968, Note_off_c, 3, 84, 0
4, 451968, Note_off_c, 3, 85, 0
4, 451968, Note_off_c, 3, 86, 0
4, 451968, Note_off_c, 3, 87, 0
4, 451968, Note_off_c, 3, 89, 0
4, 451968, Note_off_c, 3, 88, 0
4, 451968, Note_off_c, 3, 90, 0
4, 451968, Note_off_c, 3, 91, 0
4, 451968, Note_off_c, 3, 92, 0
4, 451968, Note_off_c, 3, 93, 0
4, 451968, Note_off_c, 3, 94, 0
4, 451968, Note_off_c, 3, 95, 0
4, 451968, Note_on_c, 3, 77, 17
4, 451992, Note_off_c, 3, 84, 0
4, 451992, Note_on_c, 3, 76, 17
4, 452016, Note_off_c, 3, 83, 0
4, 452016, Note_on_c, 3, 75, 17
4, 452040, Note_off_c, 3, 82, 0
4, 452040, Note_on_c, 3, 74, 17
4, 452064, Note_off_c, 3, 81, 0
4, 452064, Note_on_c, 3, 73, 17
4, 452088, Note_off_c, 3, 80, 0
4, 452088, Note_on_c, 3, 72, 17
4, 452112, Note_off_c, 3, 79, 0
4, 452112, Note_on_c, 3, 71, 17
4, 452136, Note_off_c, 3, 78, 0
4, 452136, Note_on_c, 3, 70, 17
4, 452160, Note_off_c, 3, 77, 0
4, 452160, Note_on_c, 3, 69, 17
4, 452184, Note_off_c, 3, 76, 0
4, 452184, Note_on_c, 3, 68, 17
4, 452208, Note_off_c, 3, 75, 0
4, 452208, Note_on_c, 3, 67, 17
4, 452232, Note_off_c, 3, 74, 0
4, 452232, Note_on_c, 3, 66, 17
4, 452256, Note_off_c, 3, 73, 0
4, 452256, Note_on_c, 3, 65, 17
4, 452280, Note_off_c, 3, 72, 0
4, 452280, Note_on_c, 3, 64, 17
4, 452304, Note_off_c, 3, 71, 0
4, 452304, Note_on_c, 3, 63, 17
4, 452328, Note_off_c, 3, 70, 0
4, 452328, Note_on_c, 3, 62, 17
4, 452352, Note_off_c, 3, 69, 0
4, 452352, Note_on_c, 3, 61, 17
4, 452376, Note_off_c, 3, 68, 0
4, 452376, Note_on_c, 3, 60, 17
4, 452400, Note_off_c, 3, 67, 0
4, 452400, Note_on_c, 3, 59, 17
4, 452424, Note_off_c, 3, 66, 0
4, 452424, Note_on_c, 3, 58, 17
4, 452448, Note_off_c, 3, 65, 0
4, 452448, Note_on_c, 3, 57, 17
4, 452472, Note_off_c, 3, 64, 0
4, 452472, Note_on_c, 3, 56, 17
4, 452496, Note_off_c, 3, 63, 0
4, 452496, Note_on_c, 3, 55, 17
4, 452520, Note_off_c, 3, 62, 0
4, 452520, Note_on_c, 3, 54, 17
4, 452544, Note_off_c, 3, 61, 0
4, 452544, Note_on_c, 3, 53, 17
4, 452568, Note_off_c, 3, 60, 0
4, 452568, Note_on_c, 3, 52, 17
4, 452592, Note_off_c, 3, 59, 0
4, 452592, Note_on_c, 3, 51, 17
4, 452616, Note_off_c, 3, 58, 0
4, 452616, Note_on_c, 3, 50, 17
4, 452640, Note_off_c, 3, 57, 0
4, 452640, Note_on_c, 3, 49, 17
4, 452664, Note_off_c, 3, 56, 0
4, 452664, Note_on_c, 3, 48, 17
4, 452688, Note_off_c, 3, 55, 0
4, 452688, Note_on_c, 3, 47, 17
4, 452712, Note_off_c, 3, 54, 0
4, 452712, Note_on_c, 3, 46, 17
4, 452736, Note_off_c, 3, 53, 0
4, 452736, Note_on_c, 3, 45, 17
4, 452760, Note_off_c, 3, 52, 0
4, 452760, Note_on_c, 3, 44, 17
4, 452784, Note_off_c, 3, 51, 0
4, 452784, Note_on_c, 3, 43, 17
4, 452808, Note_off_c, 3, 50, 0
4, 452808, Note_on_c, 3, 42, 17
4, 452832, Note_off_c, 3, 49, 0
4, 452832, Note_on_c, 3, 41, 17
4, 452856, Note_off_c, 3, 48, 0
4, 452856, Note_on_c, 3, 40, 17
4, 452880, Note_off_c, 3, 47, 0
4, 452880, Note_on_c, 3, 39, 17
4, 452904, Note_off_c, 3, 46, 0
4, 452904, Note_on_c, 3, 38, 17
4, 452928, Note_off_c, 3, 45, 0
4, 452928, Note_on_c, 3, 37, 17
4, 452952, Note_off_c, 3, 44, 0
4, 452952, Note_on_c, 3, 36, 17
4, 452976, Note_off_c, 3, 43, 0
4, 452976, Note_on_c, 3, 35, 17
4, 453000, Note_off_c, 3, 42, 0
4, 453000, Note_on_c, 3, 34, 17
4, 453024, Note_off_c, 3, 41, 0
4, 453024, Note_on_c, 3, 33, 17
4, 453048, Note_off_c, 3, 40, 0
4, 453048, Note_on_c, 3, 32, 17
4, 453072, Note_off_c, 3, 39, 0
4, 453072, Note_on_c, 3, 31, 17
4, 453096, Note_off_c, 3, 38, 0
4, 453096, Note_on_c, 3, 30, 17
4, 453120, Note_off_c, 3, 37, 0
4, 453120, Note_on_c, 3, 95, 24
4, 453120, Note_on_c, 3, 94, 24
4, 453120, Note_on_c, 3, 93, 24
4, 453120, Note_on_c, 3, 92, 24
4, 453120, Note_on_c, 3, 91, 24
4, 453120, Note_on_c, 3, 90, 24
4, 453120, Note_on_c, 3, 88, 24
4, 453120, Note_on_c, 3, 89, 24
4, 453120, Note_on_c, 3, 87, 24
4, 453120, Note_on_c, 3, 86, 24
4, 453120, Note_on_c, 3, 85, 24
4, 453120, Note_on_c, 3, 84, 24
4, 453120, Note_on_c, 3, 83, 24
4, 453120, Note_on_c, 3, 81, 24
4, 453120, Note_on_c, 3, 82, 24
4, 453120, Note_on_c, 3, 79, 24
4, 453120, Note_on_c, 3, 80, 24
4, 453120, Note_on_c, 3, 78, 24
4, 453120, Note_on_c, 3, 76, 24
4, 453120, Note_on_c, 3, 77, 24
4, 453120, Note_on_c, 3, 75, 24
4, 453120, Note_on_c, 3, 74, 24
4, 453120, Note_on_c, 3, 72, 24
4, 453120, Note_on_c, 3, 69, 24
4, 453120, Note_on_c, 3, 65, 24
4, 453120, Note_on_c, 3, 59, 24
4, 453120, Note_on_c, 3, 55, 24
4, 453120, Note_on_c, 3, 51, 24
4, 453120, Note_on_c, 3, 49, 24
4, 453120, Note_on_c, 3, 62, 24
4, 453120, Note_on_c, 3, 63, 24
4, 453120, Note_on_c, 3, 64, 24
4, 453120, Note_on_c, 3, 67, 24
4, 453120, Note_on_c, 3, 66, 24
4, 453120, Note_on_c, 3, 68, 24
4, 453120, Note_on_c, 3, 70, 24
4, 453120, Note_on_c, 3, 71, 24
4, 453120, Note_on_c, 3, 73, 24
4, 453120, Note_on_c, 3, 61, 24
4, 453120, Note_on_c, 3, 60, 24
4, 453120, Note_on_c, 3, 58, 24
4, 453120, Note_on_c, 3, 57, 24
4, 453120, Note_on_c, 3, 56, 24
4, 453120, Note_on_c, 3, 53, 24
4, 453120, Note_on_c, 3, 54, 24
4, 453120, Note_on_c, 3, 52, 24
4, 453120, Note_on_c, 3, 50, 24
4, 453120, Note_on_c, 3, 48, 24
4, 453120, Note_on_c, 3, 47, 24
4, 453120, Note_on_c, 3, 46, 24
4, 453120, Note_on_c, 3, 45, 24
4, 453120, Note_on_c, 3, 44, 24
4, 453120, Note_on_c, 3, 42, 24
4, 453120, Note_on_c, 3, 43, 24
4, 453120, Note_on_c, 3, 41, 24
4, 453120, Note_on_c, 3, 40, 24
4, 453120, Note_on_c, 3, 39, 24
4, 453120, Note_on_c, 3, 38, 24
4, 453120, Note_on_c, 3, 37, 24
4, 453120, Note_on_c, 3, 36, 24
4, 453120, Note_on_c, 3, 35, 24
4, 453120, Note_on_c, 3, 34, 24
4, 453120, Note_on_c, 3, 32, 24
4, 453120, Note_on_c, 3, 33, 24
4, 453120, Note_on_c, 3, 31, 24
4, 453120, Note_on_c, 3, 30, 24
4, 453120, Note_on_c, 3, 29, 24
4, 453120, Note_on_c, 3, 28, 24
4, 453120, Note_on_c, 3, 27, 24
4, 453120, Note_on_c, 3, 25, 24
4, 453120, Note_on_c, 3, 26, 24
4, 453120, Note_on_c, 3, 24, 24
4, 453120, Note_on_c, 3, 33, 43
4, 453144, Note_off_c, 3, 36, 0
4, 453144, Note_on_c, 3, 34, 43
4, 453168, Note_off_c, 3, 35, 0
4, 453168, Note_on_c, 3, 35, 43
4, 453192, Note_off_c, 3, 34, 0
4, 453192, Note_on_c, 3, 36, 43
4, 453216, Note_off_c, 3, 33, 0
4, 453216, Note_on_c, 3, 37, 43
4, 453240, Note_off_c, 3, 32, 0
4, 453240, Note_on_c, 3, 38, 43
4, 453264, Note_off_c, 3, 31, 0
4, 453264, Note_on_c, 3, 39, 43
4, 453288, Note_off_c, 3, 30, 0
4, 453288, Note_on_c, 3, 40, 43
4, 453312, Note_off_c, 3, 33, 0
4, 453312, Note_on_c, 3, 41, 43
4, 453336, Note_off_c, 3, 34, 0
4, 453336, Note_on_c, 3, 42, 43
4, 453360, Note_off_c, 3, 35, 0
4, 453360, Note_on_c, 3, 43, 43
4, 453384, Note_off_c, 3, 36, 0
4, 453384, Note_on_c, 3, 44, 43
4, 453408, Note_off_c, 3, 37, 0
4, 453408, Note_on_c, 3, 45, 43
4, 453432, Note_off_c, 3, 38, 0
4, 453432, Note_on_c, 3, 46, 43
4, 453456, Note_off_c, 3, 39, 0
4, 453456, Note_on_c, 3, 47, 43
4, 453480, Note_off_c, 3, 40, 0
4, 453480, Note_on_c, 3, 48, 43
4, 453504, Note_off_c, 3, 41, 0
4, 453504, Note_off_c, 3, 24, 0
4, 453504, Note_off_c, 3, 26, 0
4, 453504, Note_off_c, 3, 25, 0
4, 453504, Note_off_c, 3, 27, 0
4, 453504, Note_off_c, 3, 28, 0
4, 453504, Note_off_c, 3, 29, 0
4, 453504, Note_off_c, 3, 30, 0
4, 453504, Note_off_c, 3, 31, 0
4, 453504, Note_off_c, 3, 33, 0
4, 453504, Note_off_c, 3, 32, 0
4, 453504, Note_off_c, 3, 34, 0
4, 453504, Note_off_c, 3, 35, 0
4, 453504, Note_off_c, 3, 36, 0
4, 453504, Note_off_c, 3, 37, 0
4, 453504, Note_off_c, 3, 38, 0
4, 453504, Note_off_c, 3, 39, 0
4, 453504, Note_off_c, 3, 40, 0
4, 453504, Note_off_c, 3, 41, 0
4, 453504, Note_off_c, 3, 43, 0
4, 453504, Note_off_c, 3, 42, 0
4, 453504, Note_off_c, 3, 44, 0
4, 453504, Note_off_c, 3, 45, 0
4, 453504, Note_off_c, 3, 46, 0
4, 453504, Note_off_c, 3, 47, 0
4, 453504, Note_off_c, 3, 48, 0
4, 453504, Note_off_c, 3, 50, 0
4, 453504, Note_off_c, 3, 52, 0
4, 453504, Note_off_c, 3, 54, 0
4, 453504, Note_off_c, 3, 53, 0
4, 453504, Note_off_c, 3, 56, 0
4, 453504, Note_off_c, 3, 57, 0
4, 453504, Note_off_c, 3, 58, 0
4, 453504, Note_off_c, 3, 60, 0
4, 453504, Note_off_c, 3, 61, 0
4, 453504, Note_off_c, 3, 73, 0
4, 453504, Note_off_c, 3, 71, 0
4, 453504, Note_off_c, 3, 70, 0
4, 453504, Note_off_c, 3, 68, 0
4, 453504, Note_off_c, 3, 66, 0
4, 453504, Note_off_c, 3, 67, 0
4, 453504, Note_off_c, 3, 64, 0
4, 453504, Note_off_c, 3, 63, 0
4, 453504, Note_off_c, 3, 62, 0
4, 453504, Note_off_c, 3, 49, 0
4, 453504, Note_off_c, 3, 51, 0
4, 453504, Note_off_c, 3, 55, 0
4, 453504, Note_off_c, 3, 59, 0
4, 453504, Note_off_c, 3, 65, 0
4, 453504, Note_off_c, 3, 69, 0
4, 453504, Note_off_c, 3, 72, 0
4, 453504, Note_off_c, 3, 74, 0
4, 453504, Note_off_c, 3, 75, 0
4, 453504, Note_off_c, 3, 77, 0
4, 453504, Note_off_c, 3, 76, 0
4, 453504, Note_off_c, 3, 78, 0
4, 453504, Note_off_c, 3, 80, 0
4, 453504, Note_off_c, 3, 79, 0
4, 453504, Note_off_c, 3, 82, 0
4, 453504, Note_off_c, 3, 81, 0
4, 453504, Note_off_c, 3, 83, 0
4, 453504, Note_off_c, 3, 84, 0
4, 453504, Note_off_c, 3, 85, 0
4, 453504, Note_off_c, 3, 86, 0
4, 453504, Note_off_c, 3, 87, 0
4, 453504, Note_off_c, 3, 89, 0
4, 453504, Note_off_c, 3, 88, 0
4, 453504, Note_off_c, 3, 90, 0
4, 453504, Note_off_c, 3, 91, 0
4, 453504, Note_off_c, 3, 92, 0
4, 453504, Note_off_c, 3, 93, 0
4, 453504, Note_off_c, 3, 94, 0
4, 453504, Note_off_c, 3, 95, 0
4, 453504, Note_on_c, 3, 49, 43
4, 453528, Note_off_c, 3, 42, 0
4, 453528, Note_on_c, 3, 50, 43
4, 453552, Note_off_c, 3, 43, 0
4, 453552, Note_on_c, 3, 51, 43
4, 453576, Note_off_c, 3, 44, 0
4, 453576, Note_on_c, 3, 52, 43
4, 453600, Note_off_c, 3, 45, 0
4, 453600, Note_on_c, 3, 53, 43
4, 453624, Note_off_c, 3, 46, 0
4, 453624, Note_on_c, 3, 54, 43
4, 453648, Note_off_c, 3, 47, 0
4, 453648, Note_on_c, 3, 55, 43
4, 453672, Note_off_c, 3, 48, 0
4, 453672, Note_on_c, 3, 56, 43
4, 453696, Note_off_c, 3, 49, 0
4, 453696, Note_on_c, 3, 57, 43
4, 453720, Note_off_c, 3, 50, 0
4, 453720, Note_on_c, 3, 58, 43
4, 453744, Note_off_c, 3, 51, 0
4, 453744, Note_on_c, 3, 59, 43
4, 453768, Note_off_c, 3, 52, 0
4, 453768, Note_on_c, 3, 60, 43
4, 453792, Note_off_c, 3, 53, 0
4, 453792, Note_on_c, 3, 61, 43
4, 453816, Note_off_c, 3, 54, 0
4, 453816, Note_on_c, 3, 62, 43
4, 453840, Note_off_c, 3, 55, 0
4, 453840, Note_on_c, 3, 63, 43
4, 453864, Note_off_c, 3, 56, 0
4, 453864, Note_on_c, 3, 64, 43
4, 453888, Note_off_c, 3, 57, 0
4, 453888, Note_on_c, 3, 65, 43
4, 453912, Note_off_c, 3, 58, 0
4, 453912, Note_on_c, 3, 66, 43
4, 453936, Note_off_c, 3, 59, 0
4, 453936, Note_on_c, 3, 67, 43
4, 453960, Note_off_c, 3, 60, 0
4, 453960, Note_on_c, 3, 68, 43
4, 453984, Note_off_c, 3, 61, 0
4, 453984, Note_on_c, 3, 69, 43
4, 454008, Note_off_c, 3, 62, 0
4, 454008, Note_on_c, 3, 70, 43
4, 454032, Note_off_c, 3, 63, 0
4, 454032, Note_on_c, 3, 71, 43
4, 454056, Note_off_c, 3, 64, 0
4, 454056, Note_on_c, 3, 72, 43
4, 454080, Note_off_c, 3, 65, 0
4, 454080, Note_on_c, 3, 73, 43
4, 454104, Note_off_c, 3, 66, 0
4, 454104, Note_on_c, 3, 74, 43
4, 454128, Note_off_c, 3, 67, 0
4, 454128, Note_on_c, 3, 75, 43
4, 454152, Note_off_c, 3, 68, 0
4, 454152, Note_on_c, 3, 76, 43
4, 454176, Note_off_c, 3, 69, 0
4, 454176, Note_on_c, 3, 77, 43
4, 454200, Note_off_c, 3, 70, 0
4, 454200, Note_on_c, 3, 78, 43
4, 454224, Note_off_c, 3, 71, 0
4, 454224, Note_on_c, 3, 79, 43
4, 454248, Note_off_c, 3, 72, 0
4, 454248, Note_on_c, 3, 80, 43
4, 454272, Note_off_c, 3, 73, 0
4, 454272, Note_on_c, 3, 81, 43
4, 454296, Note_off_c, 3, 74, 0
4, 454296, Note_on_c, 3, 82, 43
4, 454320, Note_off_c, 3, 75, 0
4, 454320, Note_on_c, 3, 83, 43
4, 454344, Note_off_c, 3, 76, 0
4, 454344, Note_on_c, 3, 84, 43
4, 454368, Note_off_c, 3, 77, 0
4, 454368, Note_on_c, 3, 85, 43
4, 454392, Note_off_c, 3, 78, 0
4, 454392, Note_on_c, 3, 86, 43
4, 454416, Note_off_c, 3, 79, 0
4, 454416, Note_on_c, 3, 87, 43
4, 454440, Note_off_c, 3, 80, 0
4, 454440, Note_on_c, 3, 88, 43
4, 454464, Note_off_c, 3, 81, 0
4, 454464, Note_on_c, 3, 89, 43
4, 454488, Note_off_c, 3, 82, 0
4, 454488, Note_on_c, 3, 90, 43
4, 454512, Note_off_c, 3, 83, 0
4, 454512, Note_on_c, 3, 91, 43
4, 454536, Note_off_c, 3, 84, 0
4, 454536, Note_on_c, 3, 92, 43
4, 454560, Note_off_c, 3, 85, 0
4, 454560, Note_on_c, 3, 93, 43
4, 454584, Note_off_c, 3, 86, 0
4, 454584, Note_on_c, 3, 94, 43
4, 454608, Note_off_c, 3, 87, 0
4, 454608, Note_on_c, 3, 95, 43
4, 454632, Note_off_c, 3, 88, 0
4, 454656, Note_off_c, 3, 89, 0
4, 454656, Note_on_c, 3, 28, 17
4, 454656, Note_on_c, 3, 93, 17
4, 454680, Note_off_c, 3, 90, 0
4, 454680, Note_on_c, 3, 29, 17
4, 454680, Note_on_c, 3, 92, 17
4, 454704, Note_off_c, 3, 91, 0
4, 454704, Note_on_c, 3, 30, 17
4, 454704, Note_on_c, 3, 91, 17
4, 454728, Note_off_c, 3, 92, 0
4, 454728, Note_on_c, 3, 31, 17
4, 454728, Note_on_c, 3, 90, 17
4, 454752, Note_off_c, 3, 93, 0
4, 454752, Note_on_c, 3, 32, 17
4, 454752, Note_on_c, 3, 89, 17
4, 454776, Note_off_c, 3, 94, 0
4, 454776, Note_on_c, 3, 33, 17
4, 454776, Note_on_c, 3, 88, 17
4, 454800, Note_off_c, 3, 95, 0
4, 454800, Note_on_c, 3, 34, 17
4, 454800, Note_on_c, 3, 87, 17
4, 454824, Note_on_c, 3, 35, 17
4, 454824, Note_on_c, 3, 86, 17
4, 454848, Note_off_c, 3, 93, 0
4, 454848, Note_off_c, 3, 28, 0
4, 454848, Note_on_c, 3, 36, 17
4, 454848, Note_on_c, 3, 85, 17
4, 454872, Note_off_c, 3, 92, 0
4, 454872, Note_off_c, 3, 29, 0
4, 454872, Note_on_c, 3, 37, 17
4, 454872, Note_on_c, 3, 84, 17
4, 454896, Note_off_c, 3, 91, 0
4, 454896, Note_off_c, 3, 30, 0
4, 454896, Note_on_c, 3, 38, 17
4, 454896, Note_on_c, 3, 83, 17
4, 454920, Note_off_c, 3, 90, 0
4, 454920, Note_off_c, 3, 31, 0
4, 454920, Note_on_c, 3, 39, 17
4, 454920, Note_on_c, 3, 82, 17
4, 454944, Note_off_c, 3, 89, 0
4, 454944, Note_off_c, 3, 32, 0
4, 454944, Note_on_c, 3, 40, 17
4, 454944, Note_on_c, 3, 81, 17
4, 454968, Note_off_c, 3, 88, 0
4, 454968, Note_off_c, 3, 33, 0
4, 454968, Note_on_c, 3, 41, 17
4, 454968, Note_on_c, 3, 80, 17
4, 454992, Note_off_c, 3, 87, 0
4, 454992, Note_off_c, 3, 34, 0
4, 454992, Note_on_c, 3, 42, 17
4, 454992, Note_on_c, 3, 79, 17
4, 455016, Note_off_c, 3, 86, 0
4, 455016, Note_off_c, 3, 35, 0
4, 455016, Note_on_c, 3, 43, 17
4, 455016, Note_on_c, 3, 78, 17
4, 455040, Note_off_c, 3, 85, 0
4, 455040, Note_off_c, 3, 36, 0
4, 455040, Note_on_c, 3, 44, 17
4, 455040, Note_on_c, 3, 77, 17
4, 455064, Note_off_c, 3, 84, 0
4, 455064, Note_off_c, 3, 37, 0
4, 455064, Note_on_c, 3, 45, 17
4, 455064, Note_on_c, 3, 76, 17
4, 455088, Note_off_c, 3, 83, 0
4, 455088, Note_off_c, 3, 38, 0
4, 455088, Note_on_c, 3, 46, 17
4, 455088, Note_on_c, 3, 75, 17
4, 455112, Note_off_c, 3, 82, 0
4, 455112, Note_off_c, 3, 39, 0
4, 455112, Note_on_c, 3, 47, 17
4, 455112, Note_on_c, 3, 74, 17
4, 455136, Note_off_c, 3, 81, 0
4, 455136, Note_off_c, 3, 40, 0
4, 455136, Note_on_c, 3, 48, 17
4, 455136, Note_on_c, 3, 73, 17
4, 455160, Note_off_c, 3, 80, 0
4, 455160, Note_off_c, 3, 41, 0
4, 455160, Note_on_c, 3, 72, 17
4, 455160, Note_on_c, 3, 49, 17
4, 455184, Note_off_c, 3, 79, 0
4, 455184, Note_off_c, 3, 42, 0
4, 455184, Note_on_c, 3, 71, 17
4, 455184, Note_on_c, 3, 50, 17
4, 455208, Note_off_c, 3, 78, 0
4, 455208, Note_off_c, 3, 43, 0
4, 455208, Note_on_c, 3, 51, 17
4, 455208, Note_on_c, 3, 70, 17
4, 455232, Note_off_c, 3, 77, 0
4, 455232, Note_off_c, 3, 44, 0
4, 455232, Note_on_c, 3, 52, 17
4, 455232, Note_on_c, 3, 69, 17
4, 455256, Note_off_c, 3, 76, 0
4, 455256, Note_off_c, 3, 45, 0
4, 455256, Note_on_c, 3, 53, 17
4, 455256, Note_on_c, 3, 68, 17
4, 455280, Note_off_c, 3, 75, 0
4, 455280, Note_off_c, 3, 46, 0
4, 455280, Note_on_c, 3, 54, 17
4, 455280, Note_on_c, 3, 67, 17
4, 455304, Note_off_c, 3, 74, 0
4, 455304, Note_off_c, 3, 47, 0
4, 455304, Note_on_c, 3, 55, 17
4, 455304, Note_on_c, 3, 66, 17
4, 455328, Note_off_c, 3, 73, 0
4, 455328, Note_off_c, 3, 48, 0
4, 455328, Note_on_c, 3, 56, 17
4, 455328, Note_on_c, 3, 65, 17
4, 455352, Note_off_c, 3, 49, 0
4, 455352, Note_off_c, 3, 72, 0
4, 455352, Note_on_c, 3, 57, 17
4, 455352, Note_on_c, 3, 64, 17
4, 455376, Note_off_c, 3, 50, 0
4, 455376, Note_off_c, 3, 71, 0
4, 455376, Note_on_c, 3, 58, 17
4, 455376, Note_on_c, 3, 63, 17
4, 455400, Note_off_c, 3, 70, 0
4, 455400, Note_off_c, 3, 51, 0
4, 455400, Note_on_c, 3, 62, 17
4, 455400, Note_on_c, 3, 59, 17
4, 455424, Note_off_c, 3, 69, 0
4, 455424, Note_off_c, 3, 52, 0
4, 455424, Note_on_c, 3, 60, 17
4, 455424, Note_on_c, 3, 61, 17
4, 455448, Note_off_c, 3, 68, 0
4, 455448, Note_off_c, 3, 53, 0
4, 455448, Note_on_c, 3, 61, 17
4, 455448, Note_on_c, 3, 60, 17
4, 455472, Note_off_c, 3, 67, 0
4, 455472, Note_off_c, 3, 54, 0
4, 455472, Note_on_c, 3, 59, 17
4, 455472, Note_on_c, 3, 62, 17
4, 455496, Note_off_c, 3, 66, 0
4, 455496, Note_off_c, 3, 55, 0
4, 455496, Note_on_c, 3, 63, 17
4, 455496, Note_on_c, 3, 58, 17
4, 455520, Note_off_c, 3, 65, 0
4, 455520, Note_off_c, 3, 56, 0
4, 455520, Note_on_c, 3, 64, 17
4, 455520, Note_on_c, 3, 57, 17
4, 455544, Note_off_c, 3, 64, 0
4, 455544, Note_off_c, 3, 57, 0
4, 455544, Note_on_c, 3, 65, 17
4, 455544, Note_on_c, 3, 56, 17
4, 455568, Note_off_c, 3, 63, 0
4, 455568, Note_off_c, 3, 58, 0
4, 455568, Note_on_c, 3, 66, 17
4, 455568, Note_on_c, 3, 55, 17
4, 455592, Note_off_c, 3, 59, 0
4, 455592, Note_off_c, 3, 62, 0
4, 455592, Note_on_c, 3, 67, 17
4, 455592, Note_on_c, 3, 54, 17
4, 455616, Note_off_c, 3, 61, 0
4, 455616, Note_off_c, 3, 60, 0
4, 455616, Note_on_c, 3, 68, 17
4, 455616, Note_on_c, 3, 53, 17
4, 455640, Note_off_c, 3, 60, 0
4, 455640, Note_off_c, 3, 61, 0
4, 455640, Note_on_c, 3, 69, 17
4, 455640, Note_on_c, 3, 52, 17
4, 455664, Note_off_c, 3, 62, 0
4, 455664, Note_off_c, 3, 59, 0
4, 455664, Note_on_c, 3, 70, 17
4, 455664, Note_on_c, 3, 51, 17
4, 455688, Note_off_c, 3, 58, 0
4, 455688, Note_off_c, 3, 63, 0
4, 455688, Note_on_c, 3, 71, 17
4, 455688, Note_on_c, 3, 50, 17
4, 455712, Note_off_c, 3, 57, 0
4, 455712, Note_off_c, 3, 64, 0
4, 455712, Note_on_c, 3, 72, 17
4, 455712, Note_on_c, 3, 49, 17
4, 455736, Note_off_c, 3, 56, 0
4, 455736, Note_off_c, 3, 65, 0
4, 455736, Note_on_c, 3, 73, 17
4, 455736, Note_on_c, 3, 48, 17
4, 455760, Note_off_c, 3, 55, 0
4, 455760, Note_off_c, 3, 66, 0
4, 455760, Note_on_c, 3, 74, 17
4, 455760, Note_on_c, 3, 47, 17
4, 455784, Note_off_c, 3, 54, 0
4, 455784, Note_off_c, 3, 67, 0
4, 455784, Note_on_c, 3, 75, 17
4, 455784, Note_on_c, 3, 46, 17
4, 455808, Note_off_c, 3, 53, 0
4, 455808, Note_off_c, 3, 68, 0
4, 455808, Note_on_c, 3, 76, 17
4, 455808, Note_on_c, 3, 45, 17
4, 455832, Note_off_c, 3, 52, 0
4, 455832, Note_off_c, 3, 69, 0
4, 455832, Note_on_c, 3, 77, 17
4, 455832, Note_on_c, 3, 44, 17
4, 455856, Note_off_c, 3, 51, 0
4, 455856, Note_off_c, 3, 70, 0
4, 455856, Note_on_c, 3, 78, 17
4, 455856, Note_on_c, 3, 43, 17
4, 455880, Note_off_c, 3, 50, 0
4, 455880, Note_off_c, 3, 71, 0
4, 455880, Note_on_c, 3, 79, 17
4, 455880, Note_on_c, 3, 42, 17
4, 455904, Note_off_c, 3, 49, 0
4, 455904, Note_off_c, 3, 72, 0
4, 455904, Note_on_c, 3, 80, 17
4, 455904, Note_on_c, 3, 41, 17
4, 455928, Note_off_c, 3, 48, 0
4, 455928, Note_off_c, 3, 73, 0
4, 455928, Note_on_c, 3, 81, 17
4, 455928, Note_on_c, 3, 40, 17
4, 455952, Note_off_c, 3, 47, 0
4, 455952, Note_off_c, 3, 74, 0
4, 455952, Note_on_c, 3, 82, 17
4, 455952, Note_on_c, 3, 39, 17
4, 455976, Note_off_c, 3, 46, 0
4, 455976, Note_off_c, 3, 75, 0
4, 455976, Note_on_c, 3, 83, 17
4, 455976, Note_on_c, 3, 38, 17
4, 456000, Note_off_c, 3, 45, 0
4, 456000, Note_off_c, 3, 76, 0
4, 456000, Note_on_c, 3, 84, 17
4, 456000, Note_on_c, 3, 37, 17
4, 456024, Note_off_c, 3, 44, 0
4, 456024, Note_off_c, 3, 77, 0
4, 456024, Note_on_c, 3, 85, 17
4, 456024, Note_on_c, 3, 36, 17
4, 456048, Note_off_c, 3, 43, 0
4, 456048, Note_off_c, 3, 78, 0
4, 456048, Note_on_c, 3, 86, 17
4, 456048, Note_on_c, 3, 35, 17
4, 456072, Note_off_c, 3, 42, 0
4, 456072, Note_off_c, 3, 79, 0
4, 456072, Note_on_c, 3, 87, 17
4, 456072, Note_on_c, 3, 34, 17
4, 456096, Note_off_c, 3, 41, 0
4, 456096, Note_off_c, 3, 80, 0
4, 456096, Note_on_c, 3, 88, 17
4, 456096, Note_on_c, 3, 33, 17
4, 456120, Note_off_c, 3, 40, 0
4, 456120, Note_off_c, 3, 81, 0
4, 456120, Note_on_c, 3, 89, 17
4, 456120, Note_on_c, 3, 32, 17
4, 456144, Note_off_c, 3, 39, 0
4, 456144, Note_off_c, 3, 82, 0
4, 456144, Note_on_c, 3, 90, 17
4, 456144, Note_on_c, 3, 31, 17
4, 456168, Note_off_c, 3, 38, 0
4, 456168, Note_off_c, 3, 83, 0
4, 456168, Note_on_c, 3, 91, 17
4, 456168, Note_on_c, 3, 30, 17
4, 456192, Note_off_c, 3, 37, 0
4, 456192, Note_off_c, 3, 84, 0
4, 456192, Note_on_c, 3, 28, 17
4, 456192, Note_on_c, 3, 93, 17
4, 456216, Note_off_c, 3, 36, 0
4, 456216, Note_off_c, 3, 85, 0
4, 456216, Note_on_c, 3, 29, 17
4, 456216, Note_on_c, 3, 92, 17
4, 456240, Note_off_c, 3, 35, 0
4, 456240, Note_off_c, 3, 86, 0
4, 456240, Note_on_c, 3, 30, 17
4, 456240, Note_on_c, 3, 91, 17
4, 456264, Note_off_c, 3, 34, 0
4, 456264, Note_off_c, 3, 87, 0
4, 456264, Note_on_c, 3, 31, 17
4, 456264, Note_on_c, 3, 90, 17
4, 456288, Note_off_c, 3, 33, 0
4, 456288, Note_off_c, 3, 88, 0
4, 456288, Note_on_c, 3, 32, 17
4, 456288, Note_on_c, 3, 89, 17
4, 456312, Note_off_c, 3, 32, 0
4, 456312, Note_off_c, 3, 89, 0
4, 456312, Note_on_c, 3, 33, 17
4, 456312, Note_on_c, 3, 88, 17
4, 456336, Note_off_c, 3, 31, 0
4, 456336, Note_off_c, 3, 90, 0
4, 456336, Note_on_c, 3, 34, 17
4, 456336, Note_on_c, 3, 87, 17
4, 456360, Note_off_c, 3, 30, 0
4, 456360, Note_off_c, 3, 91, 0
4, 456360, Note_on_c, 3, 35, 17
4, 456360, Note_on_c, 3, 86, 17
4, 456384, Note_off_c, 3, 93, 0
4, 456384, Note_off_c, 3, 28, 0
4, 456384, Note_on_c, 3, 36, 17
4, 456384, Note_on_c, 3, 85, 17
4, 456408, Note_off_c, 3, 92, 0
4, 456408, Note_off_c, 3, 29, 0
4, 456408, Note_on_c, 3, 37, 17
4, 456408, Note_on_c, 3, 84, 17
4, 456432, Note_off_c, 3, 91, 0
4, 456432, Note_off_c, 3, 30, 0
4, 456432, Note_on_c, 3, 38, 17
4, 456432, Note_on_c, 3, 83, 17
4, 456456, Note_off_c, 3, 90, 0
4, 456456, Note_off_c, 3, 31, 0
4, 456456, Note_on_c, 3, 39, 17
4, 456456, Note_on_c, 3, 82, 17
4, 456480, Note_off_c, 3, 89, 0
4, 456480, Note_off_c, 3, 32, 0
4, 456480, Note_on_c, 3, 40, 17
4, 456480, Note_on_c, 3, 81, 17
4, 456504, Note_off_c, 3, 88, 0
4, 456504, Note_off_c, 3, 33, 0
4, 456504, Note_on_c, 3, 41, 17
4, 456504, Note_on_c, 3, 80, 17
4, 456528, Note_off_c, 3, 87, 0
4, 456528, Note_off_c, 3, 34, 0
4, 456528, Note_on_c, 3, 42, 17
4, 456528, Note_on_c, 3, 79, 17
4, 456552, Note_off_c, 3, 86, 0
4, 456552, Note_off_c, 3, 35, 0
4, 456552, Note_on_c, 3, 43, 17
4, 456552, Note_on_c, 3, 78, 17
4, 456576, Note_off_c, 3, 85, 0
4, 456576, Note_off_c, 3, 36, 0
4, 456576, Note_on_c, 3, 44, 17
4, 456576, Note_on_c, 3, 77, 17
4, 456600, Note_off_c, 3, 84, 0
4, 456600, Note_off_c, 3, 37, 0
4, 456600, Note_on_c, 3, 45, 17
4, 456600, Note_on_c, 3, 76, 17
4, 456624, Note_off_c, 3, 83, 0
4, 456624, Note_off_c, 3, 38, 0
4, 456624, Note_on_c, 3, 46, 17
4, 456624, Note_on_c, 3, 75, 17
4, 456648, Note_off_c, 3, 82, 0
4, 456648, Note_off_c, 3, 39, 0
4, 456648, Note_on_c, 3, 47, 17
4, 456648, Note_on_c, 3, 74, 17
4, 456672, Note_off_c, 3, 81, 0
4, 456672, Note_off_c, 3, 40, 0
4, 456672, Note_on_c, 3, 48, 17
4, 456672, Note_on_c, 3, 73, 17
4, 456696, Note_off_c, 3, 80, 0
4, 456696, Note_off_c, 3, 41, 0
4, 456696, Note_on_c, 3, 72, 17
4, 456696, Note_on_c, 3, 49, 17
4, 456720, Note_off_c, 3, 79, 0
4, 456720, Note_off_c, 3, 42, 0
4, 456720, Note_on_c, 3, 71, 17
4, 456720, Note_on_c, 3, 50, 17
4, 456744, Note_off_c, 3, 78, 0
4, 456744, Note_off_c, 3, 43, 0
4, 456744, Note_on_c, 3, 51, 17
4, 456744, Note_on_c, 3, 70, 17
4, 456768, Note_off_c, 3, 77, 0
4, 456768, Note_off_c, 3, 44, 0
4, 456768, Note_on_c, 3, 52, 17
4, 456768, Note_on_c, 3, 69, 17
4, 456792, Note_off_c, 3, 76, 0
4, 456792, Note_off_c, 3, 45, 0
4, 456792, Note_on_c, 3, 53, 17
4, 456792, Note_on_c, 3, 68, 17
4, 456816, Note_off_c, 3, 75, 0
4, 456816, Note_off_c, 3, 46, 0
4, 456816, Note_on_c, 3, 54, 17
4, 456816, Note_on_c, 3, 67, 17
4, 456840, Note_off_c, 3, 74, 0
4, 456840, Note_off_c, 3, 47, 0
4, 456840, Note_on_c, 3, 55, 17
4, 456840, Note_on_c, 3, 66, 17
4, 456864, Note_off_c, 3, 73, 0
4, 456864, Note_off_c, 3, 48, 0
4, 456864, Note_on_c, 3, 56, 17
4, 456864, Note_on_c, 3, 65, 17
4, 456888, Note_off_c, 3, 49, 0
4, 456888, Note_off_c, 3, 72, 0
4, 456888, Note_on_c, 3, 57, 17
4, 456888, Note_on_c, 3, 64, 17
4, 456912, Note_off_c, 3, 50, 0
4, 456912, Note_off_c, 3, 71, 0
4, 456912, Note_on_c, 3, 58, 17
4, 456912, Note_on_c, 3, 63, 17
4, 456936, Note_off_c, 3, 70, 0
4, 456936, Note_off_c, 3, 51, 0
4, 456936, Note_on_c, 3, 62, 17
4, 456936, Note_on_c, 3, 59, 17
4, 456960, Note_off_c, 3, 69, 0
4, 456960, Note_off_c, 3, 52, 0
4, 456960, Note_on_c, 3, 60, 17
4, 456960, Note_on_c, 3, 61, 17
4, 456984, Note_off_c, 3, 68, 0
4, 456984, Note_off_c, 3, 53, 0
4, 456984, Note_on_c, 3, 61, 17
4, 456984, Note_on_c, 3, 60, 17
4, 457008, Note_off_c, 3, 67, 0
4, 457008, Note_off_c, 3, 54, 0
4, 457008, Note_on_c, 3, 59, 17
4, 457008, Note_on_c, 3, 62, 17
4, 457032, Note_off_c, 3, 66, 0
4, 457032, Note_off_c, 3, 55, 0
4, 457032, Note_on_c, 3, 63, 17
4, 457032, Note_on_c, 3, 58, 17
4, 457056, Note_off_c, 3, 65, 0
4, 457056, Note_off_c, 3, 56, 0
4, 457056, Note_on_c, 3, 64, 17
4, 457056, Note_on_c, 3, 57, 17
4, 457080, Note_off_c, 3, 64, 0
4, 457080, Note_off_c, 3, 57, 0
4, 457080, Note_on_c, 3, 65, 17
4, 457080, Note_on_c, 3, 56, 17
4, 457104, Note_off_c, 3, 63, 0
4, 457104, Note_off_c, 3, 58, 0
4, 457104, Note_on_c, 3, 66, 17
4, 457104, Note_on_c, 3, 55, 17
4, 457128, Note_off_c, 3, 59, 0
4, 457128, Note_off_c, 3, 62, 0
4, 457128, Note_on_c, 3, 67, 17
4, 457128, Note_on_c, 3, 54, 17
4, 457152, Note_off_c, 3, 61, 0
4, 457152, Note_off_c, 3, 60, 0
4, 457152, Note_on_c, 3, 68, 17
4, 457152, Note_on_c, 3, 53, 17
4, 457176, Note_off_c, 3, 60, 0
4, 457176, Note_off_c, 3, 61, 0
4, 457176, Note_on_c, 3, 69, 17
4, 457176, Note_on_c, 3, 52, 17
4, 457200, Note_off_c, 3, 62, 0
4, 457200, Note_off_c, 3, 59, 0
4, 457200, Note_on_c, 3, 70, 17
4, 457200, Note_on_c, 3, 51, 17
4, 457224, Note_off_c, 3, 58, 0
4, 457224, Note_off_c, 3, 63, 0
4, 457224, Note_on_c, 3, 71, 17
4, 457224, Note_on_c, 3, 50, 17
4, 457248, Note_off_c, 3, 57, 0
4, 457248, Note_off_c, 3, 64, 0
4, 457248, Note_on_c, 3, 72, 17
4, 457248, Note_on_c, 3, 49, 17
4, 457272, Note_off_c, 3, 56, 0
4, 457272, Note_off_c, 3, 65, 0
4, 457272, Note_on_c, 3, 73, 17
4, 457272, Note_on_c, 3, 48, 17
4, 457296, Note_off_c, 3, 55, 0
4, 457296, Note_off_c, 3, 66, 0
4, 457296, Note_on_c, 3, 74, 17
4, 457296, Note_on_c, 3, 47, 17
4, 457320, Note_off_c, 3, 54, 0
4, 457320, Note_off_c, 3, 67, 0
4, 457320, Note_on_c, 3, 75, 17
4, 457320, Note_on_c, 3, 46, 17
4, 457344, Note_off_c, 3, 53, 0
4, 457344, Note_off_c, 3, 68, 0
4, 457344, Note_on_c, 3, 76, 17
4, 457344, Note_on_c, 3, 45, 17
4, 457368, Note_off_c, 3, 52, 0
4, 457368, Note_off_c, 3, 69, 0
4, 457368, Note_on_c, 3, 77, 17
4, 457368, Note_on_c, 3, 44, 17
4, 457392, Note_off_c, 3, 51, 0
4, 457392, Note_off_c, 3, 70, 0
4, 457392, Note_on_c, 3, 78, 17
4, 457392, Note_on_c, 3, 43, 17
4, 457416, Note_off_c, 3, 50, 0
4, 457416, Note_off_c, 3, 71, 0
4, 457416, Note_on_c, 3, 79, 17
4, 457416, Note_on_c, 3, 42, 17
4, 457440, Note_off_c, 3, 49, 0
4, 457440, Note_off_c, 3, 72, 0
4, 457440, Note_on_c, 3, 80, 17
4, 457440, Note_on_c, 3, 41, 17
4, 457464, Note_off_c, 3, 48, 0
4, 457464, Note_off_c, 3, 73, 0
4, 457464, Note_on_c, 3, 81, 17
4, 457464, Note_on_c, 3, 40, 17
4, 457488, Note_off_c, 3, 47, 0
4, 457488, Note_off_c, 3, 74, 0
4, 457488, Note_on_c, 3, 82, 17
4, 457488, Note_on_c, 3, 39, 17
4, 457512, Note_off_c, 3, 46, 0
4, 457512, Note_off_c, 3, 75, 0
4, 457512, Note_on_c, 3, 83, 17
4, 457512, Note_on_c, 3, 38, 17
4, 457536, Note_off_c, 3, 45, 0
4, 457536, Note_off_c, 3, 76, 0
4, 457536, Note_on_c, 3, 84, 17
4, 457536, Note_on_c, 3, 37, 17
4, 457560, Note_off_c, 3, 44, 0
4, 457560, Note_off_c, 3, 77, 0
4, 457560, Note_on_c, 3, 85, 17
4, 457560, Note_on_c, 3, 36, 17
4, 457584, Note_off_c, 3, 43, 0
4, 457584, Note_off_c, 3, 78, 0
4, 457584, Note_on_c, 3, 86, 17
4, 457584, Note_on_c, 3, 35, 17
4, 457608, Note_off_c, 3, 42, 0
4, 457608, Note_off_c, 3, 79, 0
4, 457608, Note_on_c, 3, 87, 17
4, 457608, Note_on_c, 3, 34, 17
4, 457632, Note_off_c, 3, 41, 0
4, 457632, Note_off_c, 3, 80, 0
4, 457632, Note_on_c, 3, 88, 17
4, 457632, Note_on_c, 3, 33, 17
4, 457656, Note_off_c, 3, 40, 0
4, 457656, Note_off_c, 3, 81, 0
4, 457656, Note_on_c, 3, 89, 17
4, 457656, Note_on_c, 3, 32, 17
4, 457680, Note_off_c, 3, 39, 0
4, 457680, Note_off_c, 3, 82, 0
4, 457680, Note_on_c, 3, 90, 17
4, 457680, Note_on_c, 3, 31, 17
4, 457704, Note_off_c, 3, 38, 0
4, 457704, Note_off_c, 3, 83, 0
4, 457704, Note_on_c, 3, 91, 17
4, 457704, Note_on_c, 3, 30, 17
4, 457728, Note_off_c, 3, 37, 0
4, 457728, Note_off_c, 3, 84, 0
4, 457752, Note_off_c, 3, 36, 0
4, 457752, Note_off_c, 3, 85, 0
4, 457752, Note_on_c, 3, 28, 17
4, 457752, Note_on_c, 3, 93, 17
4, 457776, Note_off_c, 3, 35, 0
4, 457776, Note_off_c, 3, 86, 0
4, 457776, Note_on_c, 3, 29, 17
4, 457776, Note_on_c, 3, 92, 17
4, 457800, Note_off_c, 3, 34, 0
4, 457800, Note_off_c, 3, 87, 0
4, 457800, Note_on_c, 3, 30, 17
4, 457800, Note_on_c, 3, 91, 17
4, 457824, Note_off_c, 3, 33, 0
4, 457824, Note_off_c, 3, 88, 0
4, 457824, Note_on_c, 3, 31, 17
4, 457824, Note_on_c, 3, 90, 17
4, 457848, Note_off_c, 3, 32, 0
4, 457848, Note_off_c, 3, 89, 0
4, 457848, Note_on_c, 3, 32, 17
4, 457848, Note_on_c, 3, 89, 17
4, 457872, Note_off_c, 3, 31, 0
4, 457872, Note_off_c, 3, 90, 0
4, 457872, Note_on_c, 3, 33, 17
4, 457872, Note_on_c, 3, 88, 17
4, 457896, Note_off_c, 3, 30, 0
4, 457896, Note_off_c, 3, 91, 0
4, 457896, Note_on_c, 3, 34, 17
4, 457896, Note_on_c, 3, 87, 17
4, 457920, Note_on_c, 3, 35, 17
4, 457920, Note_on_c, 3, 86, 17
4, 457944, Note_off_c, 3, 93, 0
4, 457944, Note_off_c, 3, 28, 0
4, 457944, Note_on_c, 3, 36, 17
4, 457944, Note_on_c, 3, 85, 17
4, 457968, Note_off_c, 3, 92, 0
4, 457968, Note_off_c, 3, 29, 0
4, 457968, Note_on_c, 3, 37, 17
4, 457968, Note_on_c, 3, 84, 17
4, 457992, Note_off_c, 3, 91, 0
4, 457992, Note_off_c, 3, 30, 0
4, 457992, Note_on_c, 3, 38, 17
4, 457992, Note_on_c, 3, 83, 17
4, 458016, Note_off_c, 3, 90, 0
4, 458016, Note_off_c, 3, 31, 0
4, 458016, Note_on_c, 3, 39, 17
4, 458016, Note_on_c, 3, 82, 17
4, 458040, Note_off_c, 3, 89, 0
4, 458040, Note_off_c, 3, 32, 0
4, 458040, Note_on_c, 3, 40, 17
4, 458040, Note_on_c, 3, 81, 17
4, 458064, Note_off_c, 3, 88, 0
4, 458064, Note_off_c, 3, 33, 0
4, 458064, Note_on_c, 3, 41, 17
4, 458064, Note_on_c, 3, 80, 17
4, 458088, Note_off_c, 3, 87, 0
4, 458088, Note_off_c, 3, 34, 0
4, 458088, Note_on_c, 3, 42, 17
4, 458088, Note_on_c, 3, 79, 17
4, 458112, Note_off_c, 3, 86, 0
4, 458112, Note_off_c, 3, 35, 0
4, 458112, Note_on_c, 3, 43, 17
4, 458112, Note_on_c, 3, 78, 17
4, 458136, Note_off_c, 3, 85, 0
4, 458136, Note_off_c, 3, 36, 0
4, 458136, Note_on_c, 3, 44, 17
4, 458136, Note_on_c, 3, 77, 17
4, 458160, Note_off_c, 3, 84, 0
4, 458160, Note_off_c, 3, 37, 0
4, 458160, Note_on_c, 3, 45, 17
4, 458160, Note_on_c, 3, 76, 17
4, 458184, Note_off_c, 3, 83, 0
4, 458184, Note_off_c, 3, 38, 0
4, 458184, Note_on_c, 3, 46, 17
4, 458184, Note_on_c, 3, 75, 17
4, 458208, Note_off_c, 3, 82, 0
4, 458208, Note_off_c, 3, 39, 0
4, 458208, Note_on_c, 3, 47, 17
4, 458208, Note_on_c, 3, 74, 17
4, 458232, Note_off_c, 3, 81, 0
4, 458232, Note_off_c, 3, 40, 0
4, 458232, Note_on_c, 3, 48, 17
4, 458232, Note_on_c, 3, 73, 17
4, 458256, Note_off_c, 3, 80, 0
4, 458256, Note_off_c, 3, 41, 0
4, 458256, Note_on_c, 3, 72, 17
4, 458256, Note_on_c, 3, 49, 17
4, 458280, Note_off_c, 3, 79, 0
4, 458280, Note_off_c, 3, 42, 0
4, 458280, Note_on_c, 3, 71, 17
4, 458280, Note_on_c, 3, 50, 17
4, 458304, Note_off_c, 3, 78, 0
4, 458304, Note_off_c, 3, 43, 0
4, 458304, Note_on_c, 3, 51, 17
4, 458304, Note_on_c, 3, 70, 17
4, 458328, Note_off_c, 3, 77, 0
4, 458328, Note_off_c, 3, 44, 0
4, 458328, Note_on_c, 3, 52, 17
4, 458328, Note_on_c, 3, 69, 17
4, 458352, Note_off_c, 3, 76, 0
4, 458352, Note_off_c, 3, 45, 0
4, 458352, Note_on_c, 3, 53, 17
4, 458352, Note_on_c, 3, 68, 17
4, 458376, Note_off_c, 3, 75, 0
4, 458376, Note_off_c, 3, 46, 0
4, 458376, Note_on_c, 3, 54, 17
4, 458376, Note_on_c, 3, 67, 17
4, 458400, Note_off_c, 3, 74, 0
4, 458400, Note_off_c, 3, 47, 0
4, 458400, Note_on_c, 3, 55, 17
4, 458400, Note_on_c, 3, 66, 17
4, 458424, Note_off_c, 3, 73, 0
4, 458424, Note_off_c, 3, 48, 0
4, 458424, Note_on_c, 3, 56, 17
4, 458424, Note_on_c, 3, 65, 17
4, 458448, Note_off_c, 3, 49, 0
4, 458448, Note_off_c, 3, 72, 0
4, 458448, Note_on_c, 3, 57, 17
4, 458448, Note_on_c, 3, 64, 17
4, 458472, Note_off_c, 3, 50, 0
4, 458472, Note_off_c, 3, 71, 0
4, 458472, Note_on_c, 3, 58, 17
4, 458472, Note_on_c, 3, 63, 17
4, 458496, Note_off_c, 3, 70, 0
4, 458496, Note_off_c, 3, 51, 0
4, 458496, Note_on_c, 3, 62, 17
4, 458496, Note_on_c, 3, 59, 17
4, 458520, Note_off_c, 3, 69, 0
4, 458520, Note_off_c, 3, 52, 0
4, 458520, Note_on_c, 3, 60, 17
4, 458520, Note_on_c, 3, 61, 17
4, 458544, Note_off_c, 3, 68, 0
4, 458544, Note_off_c, 3, 53, 0
4, 458544, Note_on_c, 3, 61, 17
4, 458544, Note_on_c, 3, 60, 17
4, 458568, Note_off_c, 3, 67, 0
4, 458568, Note_off_c, 3, 54, 0
4, 458568, Note_on_c, 3, 59, 17
4, 458568, Note_on_c, 3, 62, 17
4, 458592, Note_off_c, 3, 66, 0
4, 458592, Note_off_c, 3, 55, 0
4, 458592, Note_on_c, 3, 63, 17
4, 458592, Note_on_c, 3, 58, 17
4, 458616, Note_off_c, 3, 65, 0
4, 458616, Note_off_c, 3, 56, 0
4, 458616, Note_on_c, 3, 64, 17
4, 458616, Note_on_c, 3, 57, 17
4, 458640, Note_off_c, 3, 64, 0
4, 458640, Note_off_c, 3, 57, 0
4, 458640, Note_on_c, 3, 65, 17
4, 458640, Note_on_c, 3, 56, 17
4, 458664, Note_off_c, 3, 63, 0
4, 458664, Note_off_c, 3, 58, 0
4, 458664, Note_on_c, 3, 66, 17
4, 458664, Note_on_c, 3, 55, 17
4, 458688, Note_off_c, 3, 59, 0
4, 458688, Note_off_c, 3, 62, 0
4, 458688, Note_on_c, 3, 67, 17
4, 458688, Note_on_c, 3, 54, 17
4, 458712, Note_off_c, 3, 61, 0
4, 458712, Note_off_c, 3, 60, 0
4, 458712, Note_on_c, 3, 68, 17
4, 458712, Note_on_c, 3, 53, 17
4, 458736, Note_off_c, 3, 60, 0
4, 458736, Note_off_c, 3, 61, 0
4, 458736, Note_on_c, 3, 69, 17
4, 458736, Note_on_c, 3, 52, 17
4, 458760, Note_off_c, 3, 62, 0
4, 458760, Note_off_c, 3, 59, 0
4, 458760, Note_on_c, 3, 70, 17
4, 458760, Note_on_c, 3, 51, 17
4, 458784, Note_off_c, 3, 58, 0
4, 458784, Note_off_c, 3, 63, 0
4, 458784, Note_on_c, 3, 71, 17
4, 458784, Note_on_c, 3, 50, 17
4, 458808, Note_off_c, 3, 57, 0
4, 458808, Note_off_c, 3, 64, 0
4, 458808, Note_on_c, 3, 72, 17
4, 458808, Note_on_c, 3, 49, 17
4, 458832, Note_off_c, 3, 56, 0
4, 458832, Note_off_c, 3, 65, 0
4, 458832, Note_on_c, 3, 73, 17
4, 458832, Note_on_c, 3, 48, 17
4, 458856, Note_off_c, 3, 55, 0
4, 458856, Note_off_c, 3, 66, 0
4, 458856, Note_on_c, 3, 74, 17
4, 458856, Note_on_c, 3, 47, 17
4, 458880, Note_off_c, 3, 54, 0
4, 458880, Note_off_c, 3, 67, 0
4, 458880, Note_on_c, 3, 75, 17
4, 458880, Note_on_c, 3, 46, 17
4, 458904, Note_off_c, 3, 53, 0
4, 458904, Note_off_c, 3, 68, 0
4, 458904, Note_on_c, 3, 76, 17
4, 458904, Note_on_c, 3, 45, 17
4, 458928, Note_off_c, 3, 52, 0
4, 458928, Note_off_c, 3, 69, 0
4, 458928, Note_on_c, 3, 77, 17
4, 458928, Note_on_c, 3, 44, 17
4, 458952, Note_off_c, 3, 51, 0
4, 458952, Note_off_c, 3, 70, 0
4, 458952, Note_on_c, 3, 78, 17
4, 458952, Note_on_c, 3, 43, 17
4, 458976, Note_off_c, 3, 50, 0
4, 458976, Note_off_c, 3, 71, 0
4, 458976, Note_on_c, 3, 79, 17
4, 458976, Note_on_c, 3, 42, 17
4, 459000, Note_off_c, 3, 49, 0
4, 459000, Note_off_c, 3, 72, 0
4, 459000, Note_on_c, 3, 80, 17
4, 459000, Note_on_c, 3, 41, 17
4, 459024, Note_off_c, 3, 48, 0
4, 459024, Note_off_c, 3, 73, 0
4, 459024, Note_on_c, 3, 81, 17
4, 459024, Note_on_c, 3, 40, 17
4, 459048, Note_off_c, 3, 47, 0
4, 459048, Note_off_c, 3, 74, 0
4, 459048, Note_on_c, 3, 82, 17
4, 459048, Note_on_c, 3, 39, 17
4, 459072, Note_off_c, 3, 46, 0
4, 459072, Note_off_c, 3, 75, 0
4, 459072, Note_on_c, 3, 83, 17
4, 459072, Note_on_c, 3, 38, 17
4, 459096, Note_off_c, 3, 45, 0
4, 459096, Note_off_c, 3, 76, 0
4, 459096, Note_on_c, 3, 84, 17
4, 459096, Note_on_c, 3, 37, 17
4, 459120, Note_off_c, 3, 44, 0
4, 459120, Note_off_c, 3, 77, 0
4, 459120, Note_on_c, 3, 85, 17
4, 459120, Note_on_c, 3, 36, 17
4, 459144, Note_off_c, 3, 43, 0
4, 459144, Note_off_c, 3, 78, 0
4, 459144, Note_on_c, 3, 86, 17
4, 459144, Note_on_c, 3, 35, 17
4, 459168, Note_off_c, 3, 42, 0
4, 459168, Note_off_c, 3, 79, 0
4, 459168, Note_on_c, 3, 87, 17
4, 459168, Note_on_c, 3, 34, 17
4, 459192, Note_off_c, 3, 41, 0
4, 459192, Note_off_c, 3, 80, 0
4, 459192, Note_on_c, 3, 88, 17
4, 459192, Note_on_c, 3, 33, 17
4, 459216, Note_off_c, 3, 40, 0
4, 459216, Note_off_c, 3, 81, 0
4, 459216, Note_on_c, 3, 89, 17
4, 459216, Note_on_c, 3, 32, 17
4, 459240, Note_off_c, 3, 39, 0
4, 459240, Note_off_c, 3, 82, 0
4, 459240, Note_on_c, 3, 90, 17
4, 459240, Note_on_c, 3, 31, 17
4, 459264, Note_off_c, 3, 38, 0
4, 459264, Note_off_c, 3, 83, 0
4, 459264, Note_on_c, 3, 91, 17
4, 459264, Note_on_c, 3, 30, 17
4, 459264, Note_on_c, 3, 28, 17
4, 459264, Note_on_c, 3, 93, 17
4, 459288, Note_off_c, 3, 37, 0
4, 459288, Note_off_c, 3, 84, 0
4, 459288, Note_on_c, 3, 29, 17
4, 459288, Note_on_c, 3, 92, 17
4, 459312, Note_off_c, 3, 36, 0
4, 459312, Note_off_c, 3, 85, 0
4, 459312, Note_on_c, 3, 30, 17
4, 459312, Note_on_c, 3, 91, 17
4, 459336, Note_off_c, 3, 35, 0
4, 459336, Note_off_c, 3, 86, 0
4, 459336, Note_on_c, 3, 31, 17
4, 459336, Note_on_c, 3, 90, 17
4, 459360, Note_off_c, 3, 34, 0
4, 459360, Note_off_c, 3, 87, 0
4, 459360, Note_on_c, 3, 32, 17
4, 459360, Note_on_c, 3, 89, 17
4, 459384, Note_off_c, 3, 33, 0
4, 459384, Note_off_c, 3, 88, 0
4, 459384, Note_on_c, 3, 33, 17
4, 459384, Note_on_c, 3, 88, 17
4, 459408, Note_off_c, 3, 32, 0
4, 459408, Note_off_c, 3, 89, 0
4, 459408, Note_on_c, 3, 34, 17
4, 459408, Note_on_c, 3, 87, 17
4, 459432, Note_off_c, 3, 31, 0
4, 459432, Note_off_c, 3, 90, 0
4, 459432, Note_on_c, 3, 35, 17
4, 459432, Note_on_c, 3, 86, 17
4, 459456, Note_off_c, 3, 93, 0
4, 459456, Note_off_c, 3, 28, 0
4, 459456, Note_off_c, 3, 30, 0
4, 459456, Note_off_c, 3, 91, 0
4, 459456, Note_on_c, 3, 36, 17
4, 459456, Note_on_c, 3, 85, 17
4, 459480, Note_off_c, 3, 92, 0
4, 459480, Note_off_c, 3, 29, 0
4, 459480, Note_on_c, 3, 37, 17
4, 459480, Note_on_c, 3, 84, 17
4, 459504, Note_off_c, 3, 91, 0
4, 459504, Note_off_c, 3, 30, 0
4, 459504, Note_on_c, 3, 38, 17
4, 459504, Note_on_c, 3, 83, 17
4, 459528, Note_off_c, 3, 90, 0
4, 459528, Note_off_c, 3, 31, 0
4, 459528, Note_on_c, 3, 39, 17
4, 459528, Note_on_c, 3, 82, 17
4, 459552, Note_off_c, 3, 89, 0
4, 459552, Note_off_c, 3, 32, 0
4, 459552, Note_on_c, 3, 40, 17
4, 459552, Note_on_c, 3, 81, 17
4, 459576, Note_off_c, 3, 88, 0
4, 459576, Note_off_c, 3, 33, 0
4, 459576, Note_on_c, 3, 41, 17
4, 459576, Note_on_c, 3, 80, 17
4, 459600, Note_off_c, 3, 87, 0
4, 459600, Note_off_c, 3, 34, 0
4, 459600, Note_on_c, 3, 42, 17
4, 459600, Note_on_c, 3, 79, 17
4, 459624, Note_off_c, 3, 86, 0
4, 459624, Note_off_c, 3, 35, 0
4, 459624, Note_on_c, 3, 43, 17
4, 459624, Note_on_c, 3, 78, 17
4, 459648, Note_off_c, 3, 85, 0
4, 459648, Note_off_c, 3, 36, 0
4, 459648, Note_on_c, 3, 44, 17
4, 459648, Note_on_c, 3, 77, 17
4, 459672, Note_off_c, 3, 84, 0
4, 459672, Note_off_c, 3, 37, 0
4, 459672, Note_on_c, 3, 45, 17
4, 459672, Note_on_c, 3, 76, 17
4, 459696, Note_off_c, 3, 83, 0
4, 459696, Note_off_c, 3, 38, 0
4, 459696, Note_on_c, 3, 46, 17
4, 459696, Note_on_c, 3, 75, 17
4, 459720, Note_off_c, 3, 82, 0
4, 459720, Note_off_c, 3, 39, 0
4, 459720, Note_on_c, 3, 47, 17
4, 459720, Note_on_c, 3, 74, 17
4, 459744, Note_off_c, 3, 81, 0
4, 459744, Note_off_c, 3, 40, 0
4, 459744, Note_on_c, 3, 48, 17
4, 459744, Note_on_c, 3, 73, 17
4, 459768, Note_off_c, 3, 80, 0
4, 459768, Note_off_c, 3, 41, 0
4, 459768, Note_on_c, 3, 72, 17
4, 459768, Note_on_c, 3, 49, 17
4, 459792, Note_off_c, 3, 79, 0
4, 459792, Note_off_c, 3, 42, 0
4, 459792, Note_on_c, 3, 71, 17
4, 459792, Note_on_c, 3, 50, 17
4, 459816, Note_off_c, 3, 78, 0
4, 459816, Note_off_c, 3, 43, 0
4, 459816, Note_on_c, 3, 51, 17
4, 459816, Note_on_c, 3, 70, 17
4, 459840, Note_off_c, 3, 77, 0
4, 459840, Note_off_c, 3, 44, 0
4, 459840, Note_on_c, 3, 52, 17
4, 459840, Note_on_c, 3, 69, 17
4, 459864, Note_off_c, 3, 76, 0
4, 459864, Note_off_c, 3, 45, 0
4, 459864, Note_on_c, 3, 53, 17
4, 459864, Note_on_c, 3, 68, 17
4, 459888, Note_off_c, 3, 75, 0
4, 459888, Note_off_c, 3, 46, 0
4, 459888, Note_on_c, 3, 54, 17
4, 459888, Note_on_c, 3, 67, 17
4, 459912, Note_off_c, 3, 74, 0
4, 459912, Note_off_c, 3, 47, 0
4, 459912, Note_on_c, 3, 55, 17
4, 459912, Note_on_c, 3, 66, 17
4, 459936, Note_off_c, 3, 73, 0
4, 459936, Note_off_c, 3, 48, 0
4, 459936, Note_on_c, 3, 56, 17
4, 459936, Note_on_c, 3, 65, 17
4, 459960, Note_off_c, 3, 49, 0
4, 459960, Note_off_c, 3, 72, 0
4, 459960, Note_on_c, 3, 57, 17
4, 459960, Note_on_c, 3, 64, 17
4, 459984, Note_off_c, 3, 50, 0
4, 459984, Note_off_c, 3, 71, 0
4, 459984, Note_on_c, 3, 58, 17
4, 459984, Note_on_c, 3, 63, 17
4, 460008, Note_off_c, 3, 70, 0
4, 460008, Note_off_c, 3, 51, 0
4, 460008, Note_on_c, 3, 62, 17
4, 460008, Note_on_c, 3, 59, 17
4, 460032, Note_off_c, 3, 69, 0
4, 460032, Note_off_c, 3, 52, 0
4, 460032, Note_on_c, 3, 60, 17
4, 460032, Note_on_c, 3, 61, 17
4, 460056, Note_off_c, 3, 68, 0
4, 460056, Note_off_c, 3, 53, 0
4, 460056, Note_on_c, 3, 61, 17
4, 460056, Note_on_c, 3, 60, 17
4, 460080, Note_off_c, 3, 67, 0
4, 460080, Note_off_c, 3, 54, 0
4, 460080, Note_on_c, 3, 59, 17
4, 460080, Note_on_c, 3, 62, 17
4, 460104, Note_off_c, 3, 66, 0
4, 460104, Note_off_c, 3, 55, 0
4, 460104, Note_on_c, 3, 63, 17
4, 460104, Note_on_c, 3, 58, 17
4, 460128, Note_off_c, 3, 65, 0
4, 460128, Note_off_c, 3, 56, 0
4, 460128, Note_on_c, 3, 64, 17
4, 460128, Note_on_c, 3, 57, 17
4, 460152, Note_off_c, 3, 64, 0
4, 460152, Note_off_c, 3, 57, 0
4, 460152, Note_on_c, 3, 65, 17
4, 460152, Note_on_c, 3, 56, 17
4, 460176, Note_off_c, 3, 63, 0
4, 460176, Note_off_c, 3, 58, 0
4, 460176, Note_on_c, 3, 66, 17
4, 460176, Note_on_c, 3, 55, 17
4, 460200, Note_off_c, 3, 59, 0
4, 460200, Note_off_c, 3, 62, 0
4, 460200, Note_on_c, 3, 67, 17
4, 460200, Note_on_c, 3, 54, 17
4, 460224, Note_off_c, 3, 61, 0
4, 460224, Note_off_c, 3, 60, 0
4, 460224, Note_on_c, 3, 68, 17
4, 460224, Note_on_c, 3, 53, 17
4, 460248, Note_off_c, 3, 60, 0
4, 460248, Note_off_c, 3, 61, 0
4, 460248, Note_on_c, 3, 69, 17
4, 460248, Note_on_c, 3, 52, 17
4, 460272, Note_off_c, 3, 62, 0
4, 460272, Note_off_c, 3, 59, 0
4, 460272, Note_on_c, 3, 70, 17
4, 460272, Note_on_c, 3, 51, 17
4, 460296, Note_off_c, 3, 58, 0
4, 460296, Note_off_c, 3, 63, 0
4, 460296, Note_on_c, 3, 71, 17
4, 460296, Note_on_c, 3, 50, 17
4, 460320, Note_off_c, 3, 57, 0
4, 460320, Note_off_c, 3, 64, 0
4, 460320, Note_on_c, 3, 72, 17
4, 460320, Note_on_c, 3, 49, 17
4, 460344, Note_off_c, 3, 56, 0
4, 460344, Note_off_c, 3, 65, 0
4, 460344, Note_on_c, 3, 73, 17
4, 460344, Note_on_c, 3, 48, 17
4, 460368, Note_off_c, 3, 55, 0
4, 460368, Note_off_c, 3, 66, 0
4, 460368, Note_on_c, 3, 74, 17
4, 460368, Note_on_c, 3, 47, 17
4, 460392, Note_off_c, 3, 54, 0
4, 460392, Note_off_c, 3, 67, 0
4, 460392, Note_on_c, 3, 75, 17
4, 460392, Note_on_c, 3, 46, 17
4, 460416, Note_off_c, 3, 53, 0
4, 460416, Note_off_c, 3, 68, 0
4, 460416, Note_on_c, 3, 76, 17
4, 460416, Note_on_c, 3, 45, 17
4, 460440, Note_off_c, 3, 52, 0
4, 460440, Note_off_c, 3, 69, 0
4, 460440, Note_on_c, 3, 77, 17
4, 460440, Note_on_c, 3, 44, 17
4, 460464, Note_off_c, 3, 51, 0
4, 460464, Note_off_c, 3, 70, 0
4, 460464, Note_on_c, 3, 78, 17
4, 460464, Note_on_c, 3, 43, 17
4, 460488, Note_off_c, 3, 50, 0
4, 460488, Note_off_c, 3, 71, 0
4, 460488, Note_on_c, 3, 79, 17
4, 460488, Note_on_c, 3, 42, 17
4, 460512, Note_off_c, 3, 49, 0
4, 460512, Note_off_c, 3, 72, 0
4, 460512, Note_on_c, 3, 80, 17
4, 460512, Note_on_c, 3, 41, 17
4, 460536, Note_off_c, 3, 48, 0
4, 460536, Note_off_c, 3, 73, 0
4, 460536, Note_on_c, 3, 81, 17
4, 460536, Note_on_c, 3, 40, 17
4, 460560, Note_off_c, 3, 47, 0
4, 460560, Note_off_c, 3, 74, 0
4, 460560, Note_on_c, 3, 82, 17
4, 460560, Note_on_c, 3, 39, 17
4, 460584, Note_off_c, 3, 46, 0
4, 460584, Note_off_c, 3, 75, 0
4, 460584, Note_on_c, 3, 83, 17
4, 460584, Note_on_c, 3, 38, 17
4, 460608, Note_off_c, 3, 45, 0
4, 460608, Note_off_c, 3, 76, 0
4, 460608, Note_on_c, 3, 84, 17
4, 460608, Note_on_c, 3, 37, 17
4, 460632, Note_off_c, 3, 44, 0
4, 460632, Note_off_c, 3, 77, 0
4, 460632, Note_on_c, 3, 85, 17
4, 460632, Note_on_c, 3, 36, 17
4, 460656, Note_off_c, 3, 43, 0
4, 460656, Note_off_c, 3, 78, 0
4, 460656, Note_on_c, 3, 86, 17
4, 460656, Note_on_c, 3, 35, 17
4, 460680, Note_off_c, 3, 42, 0
4, 460680, Note_off_c, 3, 79, 0
4, 460680, Note_on_c, 3, 87, 17
4, 460680, Note_on_c, 3, 34, 17
4, 460704, Note_off_c, 3, 41, 0
4, 460704, Note_off_c, 3, 80, 0
4, 460704, Note_on_c, 3, 88, 17
4, 460704, Note_on_c, 3, 33, 17
4, 460728, Note_off_c, 3, 40, 0
4, 460728, Note_off_c, 3, 81, 0
4, 460728, Note_on_c, 3, 89, 17
4, 460728, Note_on_c, 3, 32, 17
4, 460752, Note_off_c, 3, 39, 0
4, 460752, Note_off_c, 3, 82, 0
4, 460752, Note_on_c, 3, 90, 17
4, 460752, Note_on_c, 3, 31, 17
4, 460776, Note_off_c, 3, 38, 0
4, 460776, Note_off_c, 3, 83, 0
4, 460776, Note_on_c, 3, 91, 17
4, 460776, Note_on_c, 3, 30, 17
4, 460800, Note_off_c, 3, 37, 0
4, 460800, Note_off_c, 3, 84, 0
4, 460800, Note_on_c, 3, 93, 17
4, 460800, Note_on_c, 3, 28, 17
4, 460824, Note_off_c, 3, 36, 0
4, 460824, Note_off_c, 3, 85, 0
4, 460824, Note_on_c, 3, 29, 17
4, 460824, Note_on_c, 3, 92, 17
4, 460848, Note_off_c, 3, 35, 0
4, 460848, Note_off_c, 3, 86, 0
4, 460848, Note_on_c, 3, 30, 17
4, 460848, Note_on_c, 3, 91, 17
4, 460872, Note_off_c, 3, 34, 0
4, 460872, Note_off_c, 3, 87, 0
4, 460872, Note_on_c, 3, 31, 17
4, 460872, Note_on_c, 3, 90, 17
4, 460896, Note_off_c, 3, 33, 0
4, 460896, Note_off_c, 3, 88, 0
4, 460896, Note_on_c, 3, 32, 17
4, 460896, Note_on_c, 3, 89, 17
4, 460920, Note_off_c, 3, 32, 0
4, 460920, Note_off_c, 3, 89, 0
4, 460920, Note_on_c, 3, 33, 17
4, 460920, Note_on_c, 3, 88, 17
4, 460944, Note_off_c, 3, 31, 0
4, 460944, Note_off_c, 3, 90, 0
4, 460944, Note_on_c, 3, 34, 17
4, 460944, Note_on_c, 3, 87, 17
4, 460968, Note_off_c, 3, 30, 0
4, 460968, Note_off_c, 3, 91, 0
4, 460968, Note_on_c, 3, 35, 17
4, 460968, Note_on_c, 3, 86, 17
4, 460992, Note_off_c, 3, 28, 0
4, 460992, Note_off_c, 3, 93, 0
4, 460992, Note_on_c, 3, 36, 17
4, 460992, Note_on_c, 3, 85, 17
4, 461016, Note_off_c, 3, 92, 0
4, 461016, Note_off_c, 3, 29, 0
4, 461016, Note_on_c, 3, 37, 17
4, 461016, Note_on_c, 3, 84, 17
4, 461040, Note_off_c, 3, 91, 0
4, 461040, Note_off_c, 3, 30, 0
4, 461040, Note_on_c, 3, 38, 17
4, 461040, Note_on_c, 3, 83, 17
4, 461064, Note_off_c, 3, 90, 0
4, 461064, Note_off_c, 3, 31, 0
4, 461064, Note_on_c, 3, 39, 17
4, 461064, Note_on_c, 3, 82, 17
4, 461088, Note_off_c, 3, 89, 0
4, 461088, Note_off_c, 3, 32, 0
4, 461088, Note_on_c, 3, 40, 17
4, 461088, Note_on_c, 3, 81, 17
4, 461112, Note_off_c, 3, 88, 0
4, 461112, Note_off_c, 3, 33, 0
4, 461112, Note_on_c, 3, 41, 17
4, 461112, Note_on_c, 3, 80, 17
4, 461136, Note_off_c, 3, 87, 0
4, 461136, Note_off_c, 3, 34, 0
4, 461136, Note_on_c, 3, 42, 17
4, 461136, Note_on_c, 3, 79, 17
4, 461160, Note_off_c, 3, 86, 0
4, 461160, Note_off_c, 3, 35, 0
4, 461160, Note_on_c, 3, 43, 17
4, 461160, Note_on_c, 3, 78, 17
4, 461184, Note_off_c, 3, 85, 0
4, 461184, Note_off_c, 3, 36, 0
4, 461184, Note_on_c, 3, 44, 17
4, 461184, Note_on_c, 3, 77, 17
4, 461208, Note_off_c, 3, 84, 0
4, 461208, Note_off_c, 3, 37, 0
4, 461208, Note_on_c, 3, 45, 17
4, 461208, Note_on_c, 3, 76, 17
4, 461232, Note_off_c, 3, 83, 0
4, 461232, Note_off_c, 3, 38, 0
4, 461232, Note_on_c, 3, 46, 17
4, 461232, Note_on_c, 3, 75, 17
4, 461256, Note_off_c, 3, 82, 0
4, 461256, Note_off_c, 3, 39, 0
4, 461256, Note_on_c, 3, 47, 17
4, 461256, Note_on_c, 3, 74, 17
4, 461280, Note_off_c, 3, 81, 0
4, 461280, Note_off_c, 3, 40, 0
4, 461280, Note_on_c, 3, 48, 17
4, 461280, Note_on_c, 3, 73, 17
4, 461304, Note_off_c, 3, 80, 0
4, 461304, Note_off_c, 3, 41, 0
4, 461304, Note_on_c, 3, 72, 17
4, 461304, Note_on_c, 3, 49, 17
4, 461328, Note_off_c, 3, 79, 0
4, 461328, Note_off_c, 3, 42, 0
4, 461328, Note_on_c, 3, 71, 17
4, 461328, Note_on_c, 3, 50, 17
4, 461352, Note_off_c, 3, 78, 0
4, 461352, Note_off_c, 3, 43, 0
4, 461352, Note_on_c, 3, 51, 17
4, 461352, Note_on_c, 3, 70, 17
4, 461376, Note_off_c, 3, 77, 0
4, 461376, Note_off_c, 3, 44, 0
4, 461376, Note_on_c, 3, 52, 17
4, 461376, Note_on_c, 3, 69, 17
4, 461400, Note_off_c, 3, 76, 0
4, 461400, Note_off_c, 3, 45, 0
4, 461400, Note_on_c, 3, 53, 17
4, 461400, Note_on_c, 3, 68, 17
4, 461424, Note_off_c, 3, 75, 0
4, 461424, Note_off_c, 3, 46, 0
4, 461424, Note_on_c, 3, 54, 17
4, 461424, Note_on_c, 3, 67, 17
4, 461448, Note_off_c, 3, 74, 0
4, 461448, Note_off_c, 3, 47, 0
4, 461448, Note_on_c, 3, 55, 17
4, 461448, Note_on_c, 3, 66, 17
4, 461472, Note_off_c, 3, 73, 0
4, 461472, Note_off_c, 3, 48, 0
4, 461472, Note_on_c, 3, 56, 17
4, 461472, Note_on_c, 3, 65, 17
4, 461496, Note_off_c, 3, 49, 0
4, 461496, Note_off_c, 3, 72, 0
4, 461496, Note_on_c, 3, 57, 17
4, 461496, Note_on_c, 3, 64, 17
4, 461520, Note_off_c, 3, 50, 0
4, 461520, Note_off_c, 3, 71, 0
4, 461520, Note_on_c, 3, 58, 17
4, 461520, Note_on_c, 3, 63, 17
4, 461544, Note_off_c, 3, 70, 0
4, 461544, Note_off_c, 3, 51, 0
4, 461544, Note_on_c, 3, 62, 17
4, 461544, Note_on_c, 3, 59, 17
4, 461568, Note_off_c, 3, 69, 0
4, 461568, Note_off_c, 3, 52, 0
4, 461568, Note_on_c, 3, 60, 17
4, 461568, Note_on_c, 3, 61, 17
4, 461592, Note_off_c, 3, 68, 0
4, 461592, Note_off_c, 3, 53, 0
4, 461592, Note_on_c, 3, 61, 17
4, 461592, Note_on_c, 3, 60, 17
4, 461616, Note_off_c, 3, 67, 0
4, 461616, Note_off_c, 3, 54, 0
4, 461616, Note_on_c, 3, 59, 17
4, 461616, Note_on_c, 3, 62, 17
4, 461640, Note_off_c, 3, 66, 0
4, 461640, Note_off_c, 3, 55, 0
4, 461640, Note_on_c, 3, 63, 17
4, 461640, Note_on_c, 3, 58, 17
4, 461664, Note_off_c, 3, 65, 0
4, 461664, Note_off_c, 3, 56, 0
4, 461664, Note_on_c, 3, 64, 17
4, 461664, Note_on_c, 3, 57, 17
4, 461688, Note_off_c, 3, 64, 0
4, 461688, Note_off_c, 3, 57, 0
4, 461688, Note_on_c, 3, 65, 17
4, 461688, Note_on_c, 3, 56, 17
4, 461712, Note_off_c, 3, 63, 0
4, 461712, Note_off_c, 3, 58, 0
4, 461712, Note_on_c, 3, 66, 17
4, 461712, Note_on_c, 3, 55, 17
4, 461736, Note_off_c, 3, 59, 0
4, 461736, Note_off_c, 3, 62, 0
4, 461736, Note_on_c, 3, 67, 17
4, 461736, Note_on_c, 3, 54, 17
4, 461760, Note_off_c, 3, 61, 0
4, 461760, Note_off_c, 3, 60, 0
4, 461760, Note_on_c, 3, 68, 17
4, 461760, Note_on_c, 3, 53, 17
4, 461784, Note_off_c, 3, 60, 0
4, 461784, Note_off_c, 3, 61, 0
4, 461784, Note_on_c, 3, 69, 17
4, 461784, Note_on_c, 3, 52, 17
4, 461808, Note_off_c, 3, 62, 0
4, 461808, Note_off_c, 3, 59, 0
4, 461808, Note_on_c, 3, 70, 17
4, 461808, Note_on_c, 3, 51, 17
4, 461832, Note_off_c, 3, 58, 0
4, 461832, Note_off_c, 3, 63, 0
4, 461832, Note_on_c, 3, 71, 17
4, 461832, Note_on_c, 3, 50, 17
4, 461856, Note_off_c, 3, 57, 0
4, 461856, Note_off_c, 3, 64, 0
4, 461856, Note_on_c, 3, 72, 17
4, 461856, Note_on_c, 3, 49, 17
4, 461880, Note_off_c, 3, 56, 0
4, 461880, Note_off_c, 3, 65, 0
4, 461880, Note_on_c, 3, 73, 17
4, 461880, Note_on_c, 3, 48, 17
4, 461904, Note_off_c, 3, 55, 0
4, 461904, Note_off_c, 3, 66, 0
4, 461904, Note_on_c, 3, 74, 17
4, 461904, Note_on_c, 3, 47, 17
4, 461928, Note_off_c, 3, 54, 0
4, 461928, Note_off_c, 3, 67, 0
4, 461928, Note_on_c, 3, 75, 17
4, 461928, Note_on_c, 3, 46, 17
4, 461952, Note_off_c, 3, 53, 0
4, 461952, Note_off_c, 3, 68, 0
4, 461952, Note_on_c, 3, 76, 17
4, 461952, Note_on_c, 3, 45, 17
4, 461976, Note_off_c, 3, 52, 0
4, 461976, Note_off_c, 3, 69, 0
4, 461976, Note_on_c, 3, 77, 17
4, 461976, Note_on_c, 3, 44, 17
4, 462000, Note_off_c, 3, 51, 0
4, 462000, Note_off_c, 3, 70, 0
4, 462000, Note_on_c, 3, 78, 17
4, 462000, Note_on_c, 3, 43, 17
4, 462024, Note_off_c, 3, 50, 0
4, 462024, Note_off_c, 3, 71, 0
4, 462024, Note_on_c, 3, 79, 17
4, 462024, Note_on_c, 3, 42, 17
4, 462048, Note_off_c, 3, 49, 0
4, 462048, Note_off_c, 3, 72, 0
4, 462048, Note_on_c, 3, 80, 17
4, 462048, Note_on_c, 3, 41, 17
4, 462072, Note_off_c, 3, 48, 0
4, 462072, Note_off_c, 3, 73, 0
4, 462072, Note_on_c, 3, 81, 17
4, 462072, Note_on_c, 3, 40, 17
4, 462096, Note_off_c, 3, 47, 0
4, 462096, Note_off_c, 3, 74, 0
4, 462096, Note_on_c, 3, 82, 17
4, 462096, Note_on_c, 3, 39, 17
4, 462120, Note_off_c, 3, 46, 0
4, 462120, Note_off_c, 3, 75, 0
4, 462120, Note_on_c, 3, 83, 17
4, 462120, Note_on_c, 3, 38, 17
4, 462144, Note_off_c, 3, 45, 0
4, 462144, Note_off_c, 3, 76, 0
4, 462144, Note_on_c, 3, 84, 17
4, 462144, Note_on_c, 3, 37, 17
4, 462168, Note_off_c, 3, 44, 0
4, 462168, Note_off_c, 3, 77, 0
4, 462168, Note_on_c, 3, 85, 17
4, 462168, Note_on_c, 3, 36, 17
4, 462192, Note_off_c, 3, 43, 0
4, 462192, Note_off_c, 3, 78, 0
4, 462192, Note_on_c, 3, 86, 17
4, 462192, Note_on_c, 3, 35, 17
4, 462216, Note_off_c, 3, 42, 0
4, 462216, Note_off_c, 3, 79, 0
4, 462216, Note_on_c, 3, 87, 17
4, 462216, Note_on_c, 3, 34, 17
4, 462240, Note_off_c, 3, 41, 0
4, 462240, Note_off_c, 3, 80, 0
4, 462240, Note_on_c, 3, 88, 17
4, 462240, Note_on_c, 3, 33, 17
4, 462264, Note_off_c, 3, 40, 0
4, 462264, Note_off_c, 3, 81, 0
4, 462264, Note_on_c, 3, 89, 17
4, 462264, Note_on_c, 3, 32, 17
4, 462288, Note_off_c, 3, 39, 0
4, 462288, Note_off_c, 3, 82, 0
4, 462288, Note_on_c, 3, 90, 17
4, 462288, Note_on_c, 3, 31, 17
4, 462312, Note_off_c, 3, 38, 0
4, 462312, Note_off_c, 3, 83, 0
4, 462312, Note_on_c, 3, 91, 17
4, 462312, Note_on_c, 3, 30, 17
4, 462336, Note_off_c, 3, 37, 0
4, 462336, Note_off_c, 3, 84, 0
4, 462336, Note_on_c, 3, 28, 17
4, 462336, Note_on_c, 3, 93, 17
4, 462360, Note_off_c, 3, 36, 0
4, 462360, Note_off_c, 3, 85, 0
4, 462360, Note_on_c, 3, 29, 17
4, 462360, Note_on_c, 3, 92, 17
4, 462384, Note_off_c, 3, 35, 0
4, 462384, Note_off_c, 3, 86, 0
4, 462384, Note_on_c, 3, 30, 17
4, 462384, Note_on_c, 3, 91, 17
4, 462408, Note_off_c, 3, 34, 0
4, 462408, Note_off_c, 3, 87, 0
4, 462408, Note_on_c, 3, 31, 17
4, 462408, Note_on_c, 3, 90, 17
4, 462432, Note_off_c, 3, 33, 0
4, 462432, Note_off_c, 3, 88, 0
4, 462432, Note_on_c, 3, 32, 17
4, 462432, Note_on_c, 3, 89, 17
4, 462456, Note_off_c, 3, 32, 0
4, 462456, Note_off_c, 3, 89, 0
4, 462456, Note_on_c, 3, 33, 17
4, 462456, Note_on_c, 3, 88, 17
4, 462480, Note_off_c, 3, 31, 0
4, 462480, Note_off_c, 3, 90, 0
4, 462480, Note_on_c, 3, 34, 17
4, 462480, Note_on_c, 3, 87, 17
4, 462504, Note_off_c, 3, 30, 0
4, 462504, Note_off_c, 3, 91, 0
4, 462504, Note_on_c, 3, 35, 17
4, 462504, Note_on_c, 3, 86, 17
4, 462528, Note_off_c, 3, 93, 0
4, 462528, Note_off_c, 3, 28, 0
4, 462528, Note_on_c, 3, 36, 17
4, 462528, Note_on_c, 3, 85, 17
4, 462552, Note_off_c, 3, 92, 0
4, 462552, Note_off_c, 3, 29, 0
4, 462552, Note_on_c, 3, 37, 17
4, 462552, Note_on_c, 3, 84, 17
4, 462576, Note_off_c, 3, 91, 0
4, 462576, Note_off_c, 3, 30, 0
4, 462576, Note_on_c, 3, 38, 17
4, 462576, Note_on_c, 3, 83, 17
4, 462600, Note_off_c, 3, 90, 0
4, 462600, Note_off_c, 3, 31, 0
4, 462600, Note_on_c, 3, 39, 17
4, 462600, Note_on_c, 3, 82, 17
4, 462624, Note_off_c, 3, 89, 0
4, 462624, Note_off_c, 3, 32, 0
4, 462624, Note_on_c, 3, 40, 17
4, 462624, Note_on_c, 3, 81, 17
4, 462648, Note_off_c, 3, 88, 0
4, 462648, Note_off_c, 3, 33, 0
4, 462648, Note_on_c, 3, 41, 17
4, 462648, Note_on_c, 3, 80, 17
4, 462672, Note_off_c, 3, 87, 0
4, 462672, Note_off_c, 3, 34, 0
4, 462672, Note_on_c, 3, 42, 17
4, 462672, Note_on_c, 3, 79, 17
4, 462696, Note_off_c, 3, 86, 0
4, 462696, Note_off_c, 3, 35, 0
4, 462696, Note_on_c, 3, 43, 17
4, 462696, Note_on_c, 3, 78, 17
4, 462720, Note_off_c, 3, 85, 0
4, 462720, Note_off_c, 3, 36, 0
4, 462720, Note_on_c, 3, 44, 17
4, 462720, Note_on_c, 3, 77, 17
4, 462744, Note_off_c, 3, 84, 0
4, 462744, Note_off_c, 3, 37, 0
4, 462744, Note_on_c, 3, 45, 17
4, 462744, Note_on_c, 3, 76, 17
4, 462768, Note_off_c, 3, 83, 0
4, 462768, Note_off_c, 3, 38, 0
4, 462768, Note_on_c, 3, 46, 17
4, 462768, Note_on_c, 3, 75, 17
4, 462792, Note_off_c, 3, 82, 0
4, 462792, Note_off_c, 3, 39, 0
4, 462792, Note_on_c, 3, 47, 17
4, 462792, Note_on_c, 3, 74, 17
4, 462816, Note_off_c, 3, 81, 0
4, 462816, Note_off_c, 3, 40, 0
4, 462816, Note_on_c, 3, 48, 17
4, 462816, Note_on_c, 3, 73, 17
4, 462840, Note_off_c, 3, 80, 0
4, 462840, Note_off_c, 3, 41, 0
4, 462840, Note_on_c, 3, 72, 17
4, 462840, Note_on_c, 3, 49, 17
4, 462864, Note_off_c, 3, 79, 0
4, 462864, Note_off_c, 3, 42, 0
4, 462864, Note_on_c, 3, 71, 17
4, 462864, Note_on_c, 3, 50, 17
4, 462888, Note_off_c, 3, 78, 0
4, 462888, Note_off_c, 3, 43, 0
4, 462888, Note_on_c, 3, 51, 17
4, 462888, Note_on_c, 3, 70, 17
4, 462912, Note_off_c, 3, 77, 0
4, 462912, Note_off_c, 3, 44, 0
4, 462912, Note_on_c, 3, 52, 17
4, 462912, Note_on_c, 3, 69, 17
4, 462936, Note_off_c, 3, 76, 0
4, 462936, Note_off_c, 3, 45, 0
4, 462936, Note_on_c, 3, 53, 17
4, 462936, Note_on_c, 3, 68, 17
4, 462960, Note_off_c, 3, 75, 0
4, 462960, Note_off_c, 3, 46, 0
4, 462960, Note_on_c, 3, 54, 17
4, 462960, Note_on_c, 3, 67, 17
4, 462984, Note_off_c, 3, 74, 0
4, 462984, Note_off_c, 3, 47, 0
4, 462984, Note_on_c, 3, 55, 17
4, 462984, Note_on_c, 3, 66, 17
4, 463008, Note_off_c, 3, 73, 0
4, 463008, Note_off_c, 3, 48, 0
4, 463008, Note_on_c, 3, 56, 17
4, 463008, Note_on_c, 3, 65, 17
4, 463032, Note_off_c, 3, 49, 0
4, 463032, Note_off_c, 3, 72, 0
4, 463032, Note_on_c, 3, 57, 17
4, 463032, Note_on_c, 3, 64, 17
4, 463056, Note_off_c, 3, 50, 0
4, 463056, Note_off_c, 3, 71, 0
4, 463056, Note_on_c, 3, 58, 17
4, 463056, Note_on_c, 3, 63, 17
4, 463080, Note_off_c, 3, 70, 0
4, 463080, Note_off_c, 3, 51, 0
4, 463080, Note_on_c, 3, 62, 17
4, 463080, Note_on_c, 3, 59, 17
4, 463104, Note_off_c, 3, 69, 0
4, 463104, Note_off_c, 3, 52, 0
4, 463104, Note_on_c, 3, 60, 17
4, 463104, Note_on_c, 3, 61, 17
4, 463128, Note_off_c, 3, 68, 0
4, 463128, Note_off_c, 3, 53, 0
4, 463128, Note_on_c, 3, 61, 17
4, 463128, Note_on_c, 3, 60, 17
4, 463152, Note_off_c, 3, 67, 0
4, 463152, Note_off_c, 3, 54, 0
4, 463152, Note_on_c, 3, 59, 17
4, 463152, Note_on_c, 3, 62, 17
4, 463176, Note_off_c, 3, 66, 0
4, 463176, Note_off_c, 3, 55, 0
4, 463176, Note_on_c, 3, 63, 17
4, 463176, Note_on_c, 3, 58, 17
4, 463200, Note_off_c, 3, 65, 0
4, 463200, Note_off_c, 3, 56, 0
4, 463200, Note_on_c, 3, 64, 17
4, 463200, Note_on_c, 3, 57, 17
4, 463224, Note_off_c, 3, 64, 0
4, 463224, Note_off_c, 3, 57, 0
4, 463224, Note_on_c, 3, 65, 17
4, 463224, Note_on_c, 3, 56, 17
4, 463248, Note_off_c, 3, 63, 0
4, 463248, Note_off_c, 3, 58, 0
4, 463248, Note_on_c, 3, 66, 17
4, 463248, Note_on_c, 3, 55, 17
4, 463272, Note_off_c, 3, 59, 0
4, 463272, Note_off_c, 3, 62, 0
4, 463272, Note_on_c, 3, 67, 17
4, 463272, Note_on_c, 3, 54, 17
4, 463296, Note_off_c, 3, 61, 0
4, 463296, Note_off_c, 3, 60, 0
4, 463296, Note_on_c, 3, 68, 17
4, 463296, Note_on_c, 3, 53, 17
4, 463320, Note_off_c, 3, 60, 0
4, 463320, Note_off_c, 3, 61, 0
4, 463320, Note_on_c, 3, 69, 17
4, 463320, Note_on_c, 3, 52, 17
4, 463344, Note_off_c, 3, 62, 0
4, 463344, Note_off_c, 3, 59, 0
4, 463344, Note_on_c, 3, 70, 17
4, 463344, Note_on_c, 3, 51, 17
4, 463368, Note_off_c, 3, 58, 0
4, 463368, Note_off_c, 3, 63, 0
4, 463368, Note_on_c, 3, 71, 17
4, 463368, Note_on_c, 3, 50, 17
4, 463392, Note_off_c, 3, 57, 0
4, 463392, Note_off_c, 3, 64, 0
4, 463392, Note_on_c, 3, 72, 17
4, 463392, Note_on_c, 3, 49, 17
4, 463416, Note_off_c, 3, 56, 0
4, 463416, Note_off_c, 3, 65, 0
4, 463416, Note_on_c, 3, 73, 17
4, 463416, Note_on_c, 3, 48, 17
4, 463440, Note_off_c, 3, 55, 0
4, 463440, Note_off_c, 3, 66, 0
4, 463440, Note_on_c, 3, 74, 17
4, 463440, Note_on_c, 3, 47, 17
4, 463464, Note_off_c, 3, 54, 0
4, 463464, Note_off_c, 3, 67, 0
4, 463464, Note_on_c, 3, 75, 17
4, 463464, Note_on_c, 3, 46, 17
4, 463488, Note_off_c, 3, 53, 0
4, 463488, Note_off_c, 3, 68, 0
4, 463488, Note_on_c, 3, 76, 17
4, 463488, Note_on_c, 3, 45, 17
4, 463512, Note_off_c, 3, 52, 0
4, 463512, Note_off_c, 3, 69, 0
4, 463512, Note_on_c, 3, 77, 17
4, 463512, Note_on_c, 3, 44, 17
4, 463536, Note_off_c, 3, 51, 0
4, 463536, Note_off_c, 3, 70, 0
4, 463536, Note_on_c, 3, 78, 17
4, 463536, Note_on_c, 3, 43, 17
4, 463560, Note_off_c, 3, 50, 0
4, 463560, Note_off_c, 3, 71, 0
4, 463560, Note_on_c, 3, 79, 17
4, 463560, Note_on_c, 3, 42, 17
4, 463584, Note_off_c, 3, 49, 0
4, 463584, Note_off_c, 3, 72, 0
4, 463584, Note_on_c, 3, 80, 17
4, 463584, Note_on_c, 3, 41, 17
4, 463608, Note_off_c, 3, 48, 0
4, 463608, Note_off_c, 3, 73, 0
4, 463608, Note_on_c, 3, 81, 17
4, 463608, Note_on_c, 3, 40, 17
4, 463632, Note_off_c, 3, 47, 0
4, 463632, Note_off_c, 3, 74, 0
4, 463632, Note_on_c, 3, 82, 17
4, 463632, Note_on_c, 3, 39, 17
4, 463656, Note_off_c, 3, 46, 0
4, 463656, Note_off_c, 3, 75, 0
4, 463656, Note_on_c, 3, 83, 17
4, 463656, Note_on_c, 3, 38, 17
4, 463680, Note_off_c, 3, 45, 0
4, 463680, Note_off_c, 3, 76, 0
4, 463680, Note_on_c, 3, 84, 17
4, 463680, Note_on_c, 3, 37, 17
4, 463704, Note_off_c, 3, 44, 0
4, 463704, Note_off_c, 3, 77, 0
4, 463704, Note_on_c, 3, 85, 17
4, 463704, Note_on_c, 3, 36, 17
4, 463728, Note_off_c, 3, 43, 0
4, 463728, Note_off_c, 3, 78, 0
4, 463728, Note_on_c, 3, 86, 17
4, 463728, Note_on_c, 3, 35, 17
4, 463752, Note_off_c, 3, 42, 0
4, 463752, Note_off_c, 3, 79, 0
4, 463752, Note_on_c, 3, 87, 17
4, 463752, Note_on_c, 3, 34, 17
4, 463776, Note_off_c, 3, 41, 0
4, 463776, Note_off_c, 3, 80, 0
4, 463776, Note_on_c, 3, 88, 17
4, 463776, Note_on_c, 3, 33, 17
4, 463800, Note_off_c, 3, 40, 0
4, 463800, Note_off_c, 3, 81, 0
4, 463800, Note_on_c, 3, 89, 17
4, 463800, Note_on_c, 3, 32, 17
4, 463824, Note_off_c, 3, 39, 0
4, 463824, Note_off_c, 3, 82, 0
4, 463824, Note_on_c, 3, 90, 17
4, 463824, Note_on_c, 3, 31, 17
4, 463848, Note_off_c, 3, 38, 0
4, 463848, Note_off_c, 3, 83, 0
4, 463848, Note_on_c, 3, 91, 17
4, 463848, Note_on_c, 3, 30, 17
4, 463872, Note_off_c, 3, 37, 0
4, 463872, Note_off_c, 3, 84, 0
4, 463896, Note_off_c, 3, 36, 0
4, 463896, Note_off_c, 3, 85, 0
4, 463896, Note_on_c, 3, 28, 17
4, 463896, Note_on_c, 3, 93, 17
4, 463920, Note_off_c, 3, 35, 0
4, 463920, Note_off_c, 3, 86, 0
4, 463920, Note_on_c, 3, 29, 17
4, 463920, Note_on_c, 3, 92, 17
4, 463944, Note_off_c, 3, 34, 0
4, 463944, Note_off_c, 3, 87, 0
4, 463944, Note_on_c, 3, 30, 17
4, 463944, Note_on_c, 3, 91, 17
4, 463968, Note_off_c, 3, 33, 0
4, 463968, Note_off_c, 3, 88, 0
4, 463968, Note_on_c, 3, 31, 17
4, 463968, Note_on_c, 3, 90, 17
4, 463992, Note_off_c, 3, 32, 0
4, 463992, Note_off_c, 3, 89, 0
4, 463992, Note_on_c, 3, 32, 17
4, 463992, Note_on_c, 3, 89, 17
4, 464016, Note_off_c, 3, 31, 0
4, 464016, Note_off_c, 3, 90, 0
4, 464016, Note_on_c, 3, 33, 17
4, 464016, Note_on_c, 3, 88, 17
4, 464040, Note_off_c, 3, 30, 0
4, 464040, Note_off_c, 3, 91, 0
4, 464040, Note_on_c, 3, 34, 17
4, 464040, Note_on_c, 3, 87, 17
4, 464064, Note_on_c, 3, 35, 17
4, 464064, Note_on_c, 3, 86, 17
4, 464088, Note_off_c, 3, 93, 0
4, 464088, Note_off_c, 3, 28, 0
4, 464088, Note_on_c, 3, 36, 17
4, 464088, Note_on_c, 3, 85, 17
4, 464112, Note_off_c, 3, 92, 0
4, 464112, Note_off_c, 3, 29, 0
4, 464112, Note_on_c, 3, 37, 17
4, 464112, Note_on_c, 3, 84, 17
4, 464136, Note_off_c, 3, 91, 0
4, 464136, Note_off_c, 3, 30, 0
4, 464136, Note_on_c, 3, 38, 17
4, 464136, Note_on_c, 3, 83, 17
4, 464160, Note_off_c, 3, 90, 0
4, 464160, Note_off_c, 3, 31, 0
4, 464160, Note_on_c, 3, 39, 17
4, 464160, Note_on_c, 3, 82, 17
4, 464184, Note_off_c, 3, 89, 0
4, 464184, Note_off_c, 3, 32, 0
4, 464184, Note_on_c, 3, 40, 17
4, 464184, Note_on_c, 3, 81, 17
4, 464208, Note_off_c, 3, 88, 0
4, 464208, Note_off_c, 3, 33, 0
4, 464208, Note_on_c, 3, 41, 17
4, 464208, Note_on_c, 3, 80, 17
4, 464232, Note_off_c, 3, 87, 0
4, 464232, Note_off_c, 3, 34, 0
4, 464232, Note_on_c, 3, 42, 17
4, 464232, Note_on_c, 3, 79, 17
4, 464256, Note_off_c, 3, 86, 0
4, 464256, Note_off_c, 3, 35, 0
4, 464256, Note_on_c, 3, 43, 17
4, 464256, Note_on_c, 3, 78, 17
4, 464280, Note_off_c, 3, 85, 0
4, 464280, Note_off_c, 3, 36, 0
4, 464280, Note_on_c, 3, 44, 17
4, 464280, Note_on_c, 3, 77, 17
4, 464304, Note_off_c, 3, 84, 0
4, 464304, Note_off_c, 3, 37, 0
4, 464304, Note_on_c, 3, 45, 17
4, 464304, Note_on_c, 3, 76, 17
4, 464328, Note_off_c, 3, 83, 0
4, 464328, Note_off_c, 3, 38, 0
4, 464328, Note_on_c, 3, 46, 17
4, 464328, Note_on_c, 3, 75, 17
4, 464352, Note_off_c, 3, 82, 0
4, 464352, Note_off_c, 3, 39, 0
4, 464352, Note_on_c, 3, 47, 17
4, 464352, Note_on_c, 3, 74, 17
4, 464376, Note_off_c, 3, 81, 0
4, 464376, Note_off_c, 3, 40, 0
4, 464376, Note_on_c, 3, 48, 17
4, 464376, Note_on_c, 3, 73, 17
4, 464400, Note_off_c, 3, 80, 0
4, 464400, Note_off_c, 3, 41, 0
4, 464400, Note_on_c, 3, 72, 17
4, 464400, Note_on_c, 3, 49, 17
4, 464424, Note_off_c, 3, 79, 0
4, 464424, Note_off_c, 3, 42, 0
4, 464424, Note_on_c, 3, 71, 17
4, 464424, Note_on_c, 3, 50, 17
4, 464448, Note_off_c, 3, 78, 0
4, 464448, Note_off_c, 3, 43, 0
4, 464448, Note_on_c, 3, 51, 17
4, 464448, Note_on_c, 3, 70, 17
4, 464472, Note_off_c, 3, 77, 0
4, 464472, Note_off_c, 3, 44, 0
4, 464472, Note_on_c, 3, 52, 17
4, 464472, Note_on_c, 3, 69, 17
4, 464496, Note_off_c, 3, 76, 0
4, 464496, Note_off_c, 3, 45, 0
4, 464496, Note_on_c, 3, 53, 17
4, 464496, Note_on_c, 3, 68, 17
4, 464520, Note_off_c, 3, 75, 0
4, 464520, Note_off_c, 3, 46, 0
4, 464520, Note_on_c, 3, 54, 17
4, 464520, Note_on_c, 3, 67, 17
4, 464544, Note_off_c, 3, 74, 0
4, 464544, Note_off_c, 3, 47, 0
4, 464544, Note_on_c, 3, 55, 17
4, 464544, Note_on_c, 3, 66, 17
4, 464568, Note_off_c, 3, 73, 0
4, 464568, Note_off_c, 3, 48, 0
4, 464568, Note_on_c, 3, 56, 17
4, 464568, Note_on_c, 3, 65, 17
4, 464592, Note_off_c, 3, 49, 0
4, 464592, Note_off_c, 3, 72, 0
4, 464592, Note_on_c, 3, 57, 17
4, 464592, Note_on_c, 3, 64, 17
4, 464616, Note_off_c, 3, 50, 0
4, 464616, Note_off_c, 3, 71, 0
4, 464616, Note_on_c, 3, 58, 17
4, 464616, Note_on_c, 3, 63, 17
4, 464640, Note_off_c, 3, 70, 0
4, 464640, Note_off_c, 3, 51, 0
4, 464640, Note_on_c, 3, 62, 17
4, 464640, Note_on_c, 3, 59, 17
4, 464664, Note_off_c, 3, 69, 0
4, 464664, Note_off_c, 3, 52, 0
4, 464664, Note_on_c, 3, 60, 17
4, 464664, Note_on_c, 3, 61, 17
4, 464688, Note_off_c, 3, 68, 0
4, 464688, Note_off_c, 3, 53, 0
4, 464688, Note_on_c, 3, 61, 17
4, 464688, Note_on_c, 3, 60, 17
4, 464712, Note_off_c, 3, 67, 0
4, 464712, Note_off_c, 3, 54, 0
4, 464712, Note_on_c, 3, 59, 17
4, 464712, Note_on_c, 3, 62, 17
4, 464736, Note_off_c, 3, 66, 0
4, 464736, Note_off_c, 3, 55, 0
4, 464736, Note_on_c, 3, 63, 17
4, 464736, Note_on_c, 3, 58, 17
4, 464760, Note_off_c, 3, 65, 0
4, 464760, Note_off_c, 3, 56, 0
4, 464760, Note_on_c, 3, 64, 17
4, 464760, Note_on_c, 3, 57, 17
4, 464784, Note_off_c, 3, 64, 0
4, 464784, Note_off_c, 3, 57, 0
4, 464784, Note_on_c, 3, 65, 17
4, 464784, Note_on_c, 3, 56, 17
4, 464808, Note_off_c, 3, 63, 0
4, 464808, Note_off_c, 3, 58, 0
4, 464808, Note_on_c, 3, 66, 17
4, 464808, Note_on_c, 3, 55, 17
4, 464832, Note_off_c, 3, 59, 0
4, 464832, Note_off_c, 3, 62, 0
4, 464832, Note_on_c, 3, 67, 17
4, 464832, Note_on_c, 3, 54, 17
4, 464856, Note_off_c, 3, 61, 0
4, 464856, Note_off_c, 3, 60, 0
4, 464856, Note_on_c, 3, 68, 17
4, 464856, Note_on_c, 3, 53, 17
4, 464880, Note_off_c, 3, 60, 0
4, 464880, Note_off_c, 3, 61, 0
4, 464880, Note_on_c, 3, 69, 17
4, 464880, Note_on_c, 3, 52, 17
4, 464904, Note_off_c, 3, 62, 0
4, 464904, Note_off_c, 3, 59, 0
4, 464904, Note_on_c, 3, 70, 17
4, 464904, Note_on_c, 3, 51, 17
4, 464928, Note_off_c, 3, 58, 0
4, 464928, Note_off_c, 3, 63, 0
4, 464928, Note_on_c, 3, 71, 17
4, 464928, Note_on_c, 3, 50, 17
4, 464952, Note_off_c, 3, 57, 0
4, 464952, Note_off_c, 3, 64, 0
4, 464952, Note_on_c, 3, 72, 17
4, 464952, Note_on_c, 3, 49, 17
4, 464976, Note_off_c, 3, 56, 0
4, 464976, Note_off_c, 3, 65, 0
4, 464976, Note_on_c, 3, 73, 17
4, 464976, Note_on_c, 3, 48, 17
4, 465000, Note_off_c, 3, 55, 0
4, 465000, Note_off_c, 3, 66, 0
4, 465000, Note_on_c, 3, 74, 17
4, 465000, Note_on_c, 3, 47, 17
4, 465024, Note_off_c, 3, 54, 0
4, 465024, Note_off_c, 3, 67, 0
4, 465024, Note_on_c, 3, 75, 17
4, 465024, Note_on_c, 3, 46, 17
4, 465048, Note_off_c, 3, 53, 0
4, 465048, Note_off_c, 3, 68, 0
4, 465048, Note_on_c, 3, 76, 17
4, 465048, Note_on_c, 3, 45, 17
4, 465072, Note_off_c, 3, 52, 0
4, 465072, Note_off_c, 3, 69, 0
4, 465072, Note_on_c, 3, 77, 17
4, 465072, Note_on_c, 3, 44, 17
4, 465096, Note_off_c, 3, 51, 0
4, 465096, Note_off_c, 3, 70, 0
4, 465096, Note_on_c, 3, 78, 17
4, 465096, Note_on_c, 3, 43, 17
4, 465120, Note_off_c, 3, 50, 0
4, 465120, Note_off_c, 3, 71, 0
4, 465120, Note_on_c, 3, 79, 17
4, 465120, Note_on_c, 3, 42, 17
4, 465144, Note_off_c, 3, 49, 0
4, 465144, Note_off_c, 3, 72, 0
4, 465144, Note_on_c, 3, 80, 17
4, 465144, Note_on_c, 3, 41, 17
4, 465168, Note_off_c, 3, 48, 0
4, 465168, Note_off_c, 3, 73, 0
4, 465168, Note_on_c, 3, 81, 17
4, 465168, Note_on_c, 3, 40, 17
4, 465192, Note_off_c, 3, 47, 0
4, 465192, Note_off_c, 3, 74, 0
4, 465192, Note_on_c, 3, 82, 17
4, 465192, Note_on_c, 3, 39, 17
4, 465216, Note_off_c, 3, 46, 0
4, 465216, Note_off_c, 3, 75, 0
4, 465216, Note_on_c, 3, 83, 17
4, 465216, Note_on_c, 3, 38, 17
4, 465240, Note_off_c, 3, 45, 0
4, 465240, Note_off_c, 3, 76, 0
4, 465240, Note_on_c, 3, 84, 17
4, 465240, Note_on_c, 3, 37, 17
4, 465264, Note_off_c, 3, 44, 0
4, 465264, Note_off_c, 3, 77, 0
4, 465264, Note_on_c, 3, 85, 17
4, 465264, Note_on_c, 3, 36, 17
4, 465288, Note_off_c, 3, 43, 0
4, 465288, Note_off_c, 3, 78, 0
4, 465288, Note_on_c, 3, 86, 17
4, 465288, Note_on_c, 3, 35, 17
4, 465312, Note_off_c, 3, 42, 0
4, 465312, Note_off_c, 3, 79, 0
4, 465312, Note_on_c, 3, 87, 17
4, 465312, Note_on_c, 3, 34, 17
4, 465336, Note_off_c, 3, 41, 0
4, 465336, Note_off_c, 3, 80, 0
4, 465336, Note_on_c, 3, 88, 17
4, 465336, Note_on_c, 3, 33, 17
4, 465360, Note_off_c, 3, 40, 0
4, 465360, Note_off_c, 3, 81, 0
4, 465360, Note_on_c, 3, 89, 17
4, 465360, Note_on_c, 3, 32, 17
4, 465384, Note_off_c, 3, 39, 0
4, 465384, Note_off_c, 3, 82, 0
4, 465384, Note_on_c, 3, 90, 17
4, 465384, Note_on_c, 3, 31, 17
4, 465408, Note_off_c, 3, 38, 0
4, 465408, Note_off_c, 3, 83, 0
4, 465408, Note_on_c, 3, 91, 17
4, 465408, Note_on_c, 3, 30, 17
4, 465408, Note_on_c, 3, 28, 17
4, 465408, Note_on_c, 3, 93, 17
4, 465432, Note_off_c, 3, 37, 0
4, 465432, Note_off_c, 3, 84, 0
4, 465432, Note_on_c, 3, 29, 17
4, 465432, Note_on_c, 3, 92, 17
4, 465456, Note_off_c, 3, 36, 0
4, 465456, Note_off_c, 3, 85, 0
4, 465456, Note_on_c, 3, 30, 17
4, 465456, Note_on_c, 3, 91, 17
4, 465480, Note_off_c, 3, 35, 0
4, 465480, Note_off_c, 3, 86, 0
4, 465480, Note_on_c, 3, 31, 17
4, 465480, Note_on_c, 3, 90, 17
4, 465504, Note_off_c, 3, 34, 0
4, 465504, Note_off_c, 3, 87, 0
4, 465504, Note_on_c, 3, 32, 17
4, 465504, Note_on_c, 3, 89, 17
4, 465528, Note_off_c, 3, 33, 0
4, 465528, Note_off_c, 3, 88, 0
4, 465528, Note_on_c, 3, 33, 17
4, 465528, Note_on_c, 3, 88, 17
4, 465552, Note_off_c, 3, 32, 0
4, 465552, Note_off_c, 3, 89, 0
4, 465552, Note_on_c, 3, 34, 17
4, 465552, Note_on_c, 3, 87, 17
4, 465576, Note_off_c, 3, 31, 0
4, 465576, Note_off_c, 3, 90, 0
4, 465576, Note_on_c, 3, 35, 17
4, 465576, Note_on_c, 3, 86, 17
4, 465600, Note_off_c, 3, 93, 0
4, 465600, Note_off_c, 3, 28, 0
4, 465600, Note_off_c, 3, 30, 0
4, 465600, Note_off_c, 3, 91, 0
4, 465600, Note_on_c, 3, 36, 17
4, 465600, Note_on_c, 3, 85, 17
4, 465624, Note_off_c, 3, 92, 0
4, 465624, Note_off_c, 3, 29, 0
4, 465624, Note_on_c, 3, 37, 17
4, 465624, Note_on_c, 3, 84, 17
4, 465648, Note_off_c, 3, 91, 0
4, 465648, Note_off_c, 3, 30, 0
4, 465648, Note_on_c, 3, 38, 17
4, 465648, Note_on_c, 3, 83, 17
4, 465672, Note_off_c, 3, 90, 0
4, 465672, Note_off_c, 3, 31, 0
4, 465672, Note_on_c, 3, 39, 17
4, 465672, Note_on_c, 3, 82, 17
4, 465696, Note_off_c, 3, 89, 0
4, 465696, Note_off_c, 3, 32, 0
4, 465696, Note_on_c, 3, 40, 17
4, 465696, Note_on_c, 3, 81, 17
4, 465720, Note_off_c, 3, 88, 0
4, 465720, Note_off_c, 3, 33, 0
4, 465720, Note_on_c, 3, 41, 17
4, 465720, Note_on_c, 3, 80, 17
4, 465744, Note_off_c, 3, 87, 0
4, 465744, Note_off_c, 3, 34, 0
4, 465744, Note_on_c, 3, 42, 17
4, 465744, Note_on_c, 3, 79, 17
4, 465768, Note_off_c, 3, 86, 0
4, 465768, Note_off_c, 3, 35, 0
4, 465768, Note_on_c, 3, 43, 17
4, 465768, Note_on_c, 3, 78, 17
4, 465792, Note_off_c, 3, 85, 0
4, 465792, Note_off_c, 3, 36, 0
4, 465792, Note_on_c, 3, 44, 17
4, 465792, Note_on_c, 3, 77, 17
4, 465816, Note_off_c, 3, 84, 0
4, 465816, Note_off_c, 3, 37, 0
4, 465816, Note_on_c, 3, 45, 17
4, 465816, Note_on_c, 3, 76, 17
4, 465840, Note_off_c, 3, 83, 0
4, 465840, Note_off_c, 3, 38, 0
4, 465840, Note_on_c, 3, 46, 17
4, 465840, Note_on_c, 3, 75, 17
4, 465864, Note_off_c, 3, 82, 0
4, 465864, Note_off_c, 3, 39, 0
4, 465864, Note_on_c, 3, 47, 17
4, 465864, Note_on_c, 3, 74, 17
4, 465888, Note_off_c, 3, 81, 0
4, 465888, Note_off_c, 3, 40, 0
4, 465888, Note_on_c, 3, 48, 17
4, 465888, Note_on_c, 3, 73, 17
4, 465912, Note_off_c, 3, 80, 0
4, 465912, Note_off_c, 3, 41, 0
4, 465912, Note_on_c, 3, 72, 17
4, 465912, Note_on_c, 3, 49, 17
4, 465936, Note_off_c, 3, 79, 0
4, 465936, Note_off_c, 3, 42, 0
4, 465936, Note_on_c, 3, 71, 17
4, 465936, Note_on_c, 3, 50, 17
4, 465960, Note_off_c, 3, 78, 0
4, 465960, Note_off_c, 3, 43, 0
4, 465960, Note_on_c, 3, 51, 17
4, 465960, Note_on_c, 3, 70, 17
4, 465984, Note_off_c, 3, 77, 0
4, 465984, Note_off_c, 3, 44, 0
4, 465984, Note_on_c, 3, 52, 17
4, 465984, Note_on_c, 3, 69, 17
4, 466008, Note_off_c, 3, 76, 0
4, 466008, Note_off_c, 3, 45, 0
4, 466008, Note_on_c, 3, 53, 17
4, 466008, Note_on_c, 3, 68, 17
4, 466032, Note_off_c, 3, 75, 0
4, 466032, Note_off_c, 3, 46, 0
4, 466032, Note_on_c, 3, 54, 17
4, 466032, Note_on_c, 3, 67, 17
4, 466056, Note_off_c, 3, 74, 0
4, 466056, Note_off_c, 3, 47, 0
4, 466056, Note_on_c, 3, 55, 17
4, 466056, Note_on_c, 3, 66, 17
4, 466080, Note_off_c, 3, 73, 0
4, 466080, Note_off_c, 3, 48, 0
4, 466080, Note_on_c, 3, 56, 17
4, 466080, Note_on_c, 3, 65, 17
4, 466104, Note_off_c, 3, 49, 0
4, 466104, Note_off_c, 3, 72, 0
4, 466104, Note_on_c, 3, 57, 17
4, 466104, Note_on_c, 3, 64, 17
4, 466128, Note_off_c, 3, 50, 0
4, 466128, Note_off_c, 3, 71, 0
4, 466128, Note_on_c, 3, 58, 17
4, 466128, Note_on_c, 3, 63, 17
4, 466152, Note_off_c, 3, 70, 0
4, 466152, Note_off_c, 3, 51, 0
4, 466152, Note_on_c, 3, 62, 17
4, 466152, Note_on_c, 3, 59, 17
4, 466176, Note_off_c, 3, 69, 0
4, 466176, Note_off_c, 3, 52, 0
4, 466176, Note_on_c, 3, 60, 17
4, 466176, Note_on_c, 3, 61, 17
4, 466200, Note_off_c, 3, 68, 0
4, 466200, Note_off_c, 3, 53, 0
4, 466200, Note_on_c, 3, 61, 17
4, 466200, Note_on_c, 3, 60, 17
4, 466224, Note_off_c, 3, 67, 0
4, 466224, Note_off_c, 3, 54, 0
4, 466224, Note_on_c, 3, 59, 17
4, 466224, Note_on_c, 3, 62, 17
4, 466248, Note_off_c, 3, 66, 0
4, 466248, Note_off_c, 3, 55, 0
4, 466248, Note_on_c, 3, 63, 17
4, 466248, Note_on_c, 3, 58, 17
4, 466272, Note_off_c, 3, 65, 0
4, 466272, Note_off_c, 3, 56, 0
4, 466272, Note_on_c, 3, 64, 17
4, 466272, Note_on_c, 3, 57, 17
4, 466296, Note_off_c, 3, 64, 0
4, 466296, Note_off_c, 3, 57, 0
4, 466296, Note_on_c, 3, 65, 17
4, 466296, Note_on_c, 3, 56, 17
4, 466320, Note_off_c, 3, 63, 0
4, 466320, Note_off_c, 3, 58, 0
4, 466320, Note_on_c, 3, 66, 17
4, 466320, Note_on_c, 3, 55, 17
4, 466344, Note_off_c, 3, 59, 0
4, 466344, Note_off_c, 3, 62, 0
4, 466344, Note_on_c, 3, 67, 17
4, 466344, Note_on_c, 3, 54, 17
4, 466368, Note_off_c, 3, 61, 0
4, 466368, Note_off_c, 3, 60, 0
4, 466368, Note_on_c, 3, 68, 17
4, 466368, Note_on_c, 3, 53, 17
4, 466392, Note_off_c, 3, 60, 0
4, 466392, Note_off_c, 3, 61, 0
4, 466392, Note_on_c, 3, 69, 17
4, 466392, Note_on_c, 3, 52, 17
4, 466416, Note_off_c, 3, 62, 0
4, 466416, Note_off_c, 3, 59, 0
4, 466416, Note_on_c, 3, 70, 17
4, 466416, Note_on_c, 3, 51, 17
4, 466440, Note_off_c, 3, 58, 0
4, 466440, Note_off_c, 3, 63, 0
4, 466440, Note_on_c, 3, 71, 17
4, 466440, Note_on_c, 3, 50, 17
4, 466464, Note_off_c, 3, 57, 0
4, 466464, Note_off_c, 3, 64, 0
4, 466464, Note_on_c, 3, 72, 17
4, 466464, Note_on_c, 3, 49, 17
4, 466488, Note_off_c, 3, 56, 0
4, 466488, Note_off_c, 3, 65, 0
4, 466488, Note_on_c, 3, 73, 17
4, 466488, Note_on_c, 3, 48, 17
4, 466512, Note_off_c, 3, 55, 0
4, 466512, Note_off_c, 3, 66, 0
4, 466512, Note_on_c, 3, 74, 17
4, 466512, Note_on_c, 3, 47, 17
4, 466536, Note_off_c, 3, 54, 0
4, 466536, Note_off_c, 3, 67, 0
4, 466536, Note_on_c, 3, 75, 17
4, 466536, Note_on_c, 3, 46, 17
4, 466560, Note_off_c, 3, 53, 0
4, 466560, Note_off_c, 3, 68, 0
4, 466560, Note_on_c, 3, 76, 17
4, 466560, Note_on_c, 3, 45, 17
4, 466584, Note_off_c, 3, 52, 0
4, 466584, Note_off_c, 3, 69, 0
4, 466584, Note_on_c, 3, 77, 17
4, 466584, Note_on_c, 3, 44, 17
4, 466608, Note_off_c, 3, 51, 0
4, 466608, Note_off_c, 3, 70, 0
4, 466608, Note_on_c, 3, 78, 17
4, 466608, Note_on_c, 3, 43, 17
4, 466632, Note_off_c, 3, 50, 0
4, 466632, Note_off_c, 3, 71, 0
4, 466632, Note_on_c, 3, 79, 17
4, 466632, Note_on_c, 3, 42, 17
4, 466656, Note_off_c, 3, 49, 0
4, 466656, Note_off_c, 3, 72, 0
4, 466656, Note_on_c, 3, 80, 17
4, 466656, Note_on_c, 3, 41, 17
4, 466680, Note_off_c, 3, 48, 0
4, 466680, Note_off_c, 3, 73, 0
4, 466680, Note_on_c, 3, 81, 17
4, 466680, Note_on_c, 3, 40, 17
4, 466704, Note_off_c, 3, 47, 0
4, 466704, Note_off_c, 3, 74, 0
4, 466704, Note_on_c, 3, 82, 17
4, 466704, Note_on_c, 3, 39, 17
4, 466728, Note_off_c, 3, 46, 0
4, 466728, Note_off_c, 3, 75, 0
4, 466728, Note_on_c, 3, 83, 17
4, 466728, Note_on_c, 3, 38, 17
4, 466752, Note_off_c, 3, 45, 0
4, 466752, Note_off_c, 3, 76, 0
4, 466752, Note_on_c, 3, 84, 17
4, 466752, Note_on_c, 3, 37, 17
4, 466776, Note_off_c, 3, 44, 0
4, 466776, Note_off_c, 3, 77, 0
4, 466776, Note_on_c, 3, 85, 17
4, 466776, Note_on_c, 3, 36, 17
4, 466800, Note_off_c, 3, 43, 0
4, 466800, Note_off_c, 3, 78, 0
4, 466800, Note_on_c, 3, 86, 17
4, 466800, Note_on_c, 3, 35, 17
4, 466824, Note_off_c, 3, 42, 0
4, 466824, Note_off_c, 3, 79, 0
4, 466824, Note_on_c, 3, 87, 17
4, 466824, Note_on_c, 3, 34, 17
4, 466848, Note_off_c, 3, 41, 0
4, 466848, Note_off_c, 3, 80, 0
4, 466848, Note_on_c, 3, 88, 17
4, 466848, Note_on_c, 3, 33, 17
4, 466872, Note_off_c, 3, 40, 0
4, 466872, Note_off_c, 3, 81, 0
4, 466872, Note_on_c, 3, 89, 17
4, 466872, Note_on_c, 3, 32, 17
4, 466896, Note_off_c, 3, 39, 0
4, 466896, Note_off_c, 3, 82, 0
4, 466896, Note_on_c, 3, 90, 17
4, 466896, Note_on_c, 3, 31, 17
4, 466920, Note_off_c, 3, 38, 0
4, 466920, Note_off_c, 3, 83, 0
4, 466920, Note_on_c, 3, 91, 17
4, 466920, Note_on_c, 3, 30, 17
4, 466944, Note_off_c, 3, 37, 0
4, 466944, Note_off_c, 3, 84, 0
4, 466944, Note_on_c, 3, 93, 17
4, 466944, Note_on_c, 3, 28, 17
4, 466968, Note_off_c, 3, 36, 0
4, 466968, Note_off_c, 3, 85, 0
4, 466968, Note_on_c, 3, 29, 17
4, 466968, Note_on_c, 3, 92, 17
4, 466992, Note_off_c, 3, 35, 0
4, 466992, Note_off_c, 3, 86, 0
4, 466992, Note_on_c, 3, 30, 17
4, 466992, Note_on_c, 3, 91, 17
4, 467016, Note_off_c, 3, 34, 0
4, 467016, Note_off_c, 3, 87, 0
4, 467016, Note_on_c, 3, 31, 17
4, 467016, Note_on_c, 3, 90, 17
4, 467040, Note_off_c, 3, 33, 0
4, 467040, Note_off_c, 3, 88, 0
4, 467040, Note_on_c, 3, 32, 17
4, 467040, Note_on_c, 3, 89, 17
4, 467064, Note_off_c, 3, 32, 0
4, 467064, Note_off_c, 3, 89, 0
4, 467064, Note_on_c, 3, 33, 17
4, 467064, Note_on_c, 3, 88, 17
4, 467088, Note_off_c, 3, 31, 0
4, 467088, Note_off_c, 3, 90, 0
4, 467088, Note_on_c, 3, 34, 17
4, 467088, Note_on_c, 3, 87, 17
4, 467112, Note_off_c, 3, 30, 0
4, 467112, Note_off_c, 3, 91, 0
4, 467112, Note_on_c, 3, 35, 17
4, 467112, Note_on_c, 3, 86, 17
4, 467136, Note_off_c, 3, 28, 0
4, 467136, Note_off_c, 3, 93, 0
4, 467136, Note_on_c, 3, 36, 17
4, 467136, Note_on_c, 3, 85, 17
4, 467160, Note_off_c, 3, 92, 0
4, 467160, Note_off_c, 3, 29, 0
4, 467160, Note_on_c, 3, 37, 17
4, 467160, Note_on_c, 3, 84, 17
4, 467184, Note_off_c, 3, 91, 0
4, 467184, Note_off_c, 3, 30, 0
4, 467184, Note_on_c, 3, 38, 17
4, 467184, Note_on_c, 3, 83, 17
4, 467208, Note_off_c, 3, 90, 0
4, 467208, Note_off_c, 3, 31, 0
4, 467208, Note_on_c, 3, 39, 17
4, 467208, Note_on_c, 3, 82, 17
4, 467232, Note_off_c, 3, 89, 0
4, 467232, Note_off_c, 3, 32, 0
4, 467232, Note_on_c, 3, 40, 17
4, 467232, Note_on_c, 3, 81, 17
4, 467256, Note_off_c, 3, 88, 0
4, 467256, Note_off_c, 3, 33, 0
4, 467256, Note_on_c, 3, 41, 17
4, 467256, Note_on_c, 3, 80, 17
4, 467280, Note_off_c, 3, 87, 0
4, 467280, Note_off_c, 3, 34, 0
4, 467280, Note_on_c, 3, 42, 17
4, 467280, Note_on_c, 3, 79, 17
4, 467304, Note_off_c, 3, 86, 0
4, 467304, Note_off_c, 3, 35, 0
4, 467304, Note_on_c, 3, 43, 17
4, 467304, Note_on_c, 3, 78, 17
4, 467328, Note_off_c, 3, 85, 0
4, 467328, Note_off_c, 3, 36, 0
4, 467328, Note_on_c, 3, 44, 17
4, 467328, Note_on_c, 3, 77, 17
4, 467352, Note_off_c, 3, 84, 0
4, 467352, Note_off_c, 3, 37, 0
4, 467352, Note_on_c, 3, 45, 17
4, 467352, Note_on_c, 3, 76, 17
4, 467376, Note_off_c, 3, 83, 0
4, 467376, Note_off_c, 3, 38, 0
4, 467376, Note_on_c, 3, 46, 17
4, 467376, Note_on_c, 3, 75, 17
4, 467400, Note_off_c, 3, 82, 0
4, 467400, Note_off_c, 3, 39, 0
4, 467400, Note_on_c, 3, 47, 17
4, 467400, Note_on_c, 3, 74, 17
4, 467424, Note_off_c, 3, 81, 0
4, 467424, Note_off_c, 3, 40, 0
4, 467424, Note_on_c, 3, 48, 17
4, 467424, Note_on_c, 3, 73, 17
4, 467448, Note_off_c, 3, 80, 0
4, 467448, Note_off_c, 3, 41, 0
4, 467448, Note_on_c, 3, 72, 17
4, 467448, Note_on_c, 3, 49, 17
4, 467472, Note_off_c, 3, 79, 0
4, 467472, Note_off_c, 3, 42, 0
4, 467472, Note_on_c, 3, 71, 17
4, 467472, Note_on_c, 3, 50, 17
4, 467496, Note_off_c, 3, 78, 0
4, 467496, Note_off_c, 3, 43, 0
4, 467496, Note_on_c, 3, 51, 17
4, 467496, Note_on_c, 3, 70, 17
4, 467520, Note_off_c, 3, 77, 0
4, 467520, Note_off_c, 3, 44, 0
4, 467520, Note_on_c, 3, 52, 17
4, 467520, Note_on_c, 3, 69, 17
4, 467544, Note_off_c, 3, 76, 0
4, 467544, Note_off_c, 3, 45, 0
4, 467544, Note_on_c, 3, 53, 17
4, 467544, Note_on_c, 3, 68, 17
4, 467568, Note_off_c, 3, 75, 0
4, 467568, Note_off_c, 3, 46, 0
4, 467568, Note_on_c, 3, 54, 17
4, 467568, Note_on_c, 3, 67, 17
4, 467592, Note_off_c, 3, 74, 0
4, 467592, Note_off_c, 3, 47, 0
4, 467592, Note_on_c, 3, 55, 17
4, 467592, Note_on_c, 3, 66, 17
4, 467616, Note_off_c, 3, 73, 0
4, 467616, Note_off_c, 3, 48, 0
4, 467616, Note_on_c, 3, 56, 17
4, 467616, Note_on_c, 3, 65, 17
4, 467640, Note_off_c, 3, 49, 0
4, 467640, Note_off_c, 3, 72, 0
4, 467640, Note_on_c, 3, 57, 17
4, 467640, Note_on_c, 3, 64, 17
4, 467664, Note_off_c, 3, 50, 0
4, 467664, Note_off_c, 3, 71, 0
4, 467664, Note_on_c, 3, 58, 17
4, 467664, Note_on_c, 3, 63, 17
4, 467688, Note_off_c, 3, 70, 0
4, 467688, Note_off_c, 3, 51, 0
4, 467688, Note_on_c, 3, 62, 17
4, 467688, Note_on_c, 3, 59, 17
4, 467712, Note_off_c, 3, 69, 0
4, 467712, Note_off_c, 3, 52, 0
4, 467712, Note_on_c, 3, 60, 17
4, 467712, Note_on_c, 3, 61, 17
4, 467736, Note_off_c, 3, 68, 0
4, 467736, Note_off_c, 3, 53, 0
4, 467736, Note_on_c, 3, 61, 17
4, 467736, Note_on_c, 3, 60, 17
4, 467760, Note_off_c, 3, 67, 0
4, 467760, Note_off_c, 3, 54, 0
4, 467760, Note_on_c, 3, 59, 17
4, 467760, Note_on_c, 3, 62, 17
4, 467784, Note_off_c, 3, 66, 0
4, 467784, Note_off_c, 3, 55, 0
4, 467784, Note_on_c, 3, 63, 17
4, 467784, Note_on_c, 3, 58, 17
4, 467808, Note_off_c, 3, 65, 0
4, 467808, Note_off_c, 3, 56, 0
4, 467808, Note_on_c, 3, 64, 17
4, 467808, Note_on_c, 3, 57, 17
4, 467832, Note_off_c, 3, 64, 0
4, 467832, Note_off_c, 3, 57, 0
4, 467832, Note_on_c, 3, 65, 17
4, 467832, Note_on_c, 3, 56, 17
4, 467856, Note_off_c, 3, 63, 0
4, 467856, Note_off_c, 3, 58, 0
4, 467856, Note_on_c, 3, 66, 17
4, 467856, Note_on_c, 3, 55, 17
4, 467880, Note_off_c, 3, 59, 0
4, 467880, Note_off_c, 3, 62, 0
4, 467880, Note_on_c, 3, 67, 17
4, 467880, Note_on_c, 3, 54, 17
4, 467904, Note_off_c, 3, 61, 0
4, 467904, Note_off_c, 3, 60, 0
4, 467904, Note_on_c, 3, 68, 17
4, 467904, Note_on_c, 3, 53, 17
4, 467928, Note_off_c, 3, 60, 0
4, 467928, Note_off_c, 3, 61, 0
4, 467928, Note_on_c, 3, 69, 17
4, 467928, Note_on_c, 3, 52, 17
4, 467952, Note_off_c, 3, 62, 0
4, 467952, Note_off_c, 3, 59, 0
4, 467952, Note_on_c, 3, 70, 17
4, 467952, Note_on_c, 3, 51, 17
4, 467976, Note_off_c, 3, 58, 0
4, 467976, Note_off_c, 3, 63, 0
4, 467976, Note_on_c, 3, 71, 17
4, 467976, Note_on_c, 3, 50, 17
4, 468000, Note_off_c, 3, 57, 0
4, 468000, Note_off_c, 3, 64, 0
4, 468000, Note_on_c, 3, 72, 17
4, 468000, Note_on_c, 3, 49, 17
4, 468024, Note_off_c, 3, 56, 0
4, 468024, Note_off_c, 3, 65, 0
4, 468024, Note_on_c, 3, 73, 17
4, 468024, Note_on_c, 3, 48, 17
4, 468048, Note_off_c, 3, 55, 0
4, 468048, Note_off_c, 3, 66, 0
4, 468048, Note_on_c, 3, 74, 17
4, 468048, Note_on_c, 3, 47, 17
4, 468072, Note_off_c, 3, 54, 0
4, 468072, Note_off_c, 3, 67, 0
4, 468072, Note_on_c, 3, 75, 17
4, 468072, Note_on_c, 3, 46, 17
4, 468096, Note_off_c, 3, 53, 0
4, 468096, Note_off_c, 3, 68, 0
4, 468096, Note_on_c, 3, 76, 17
4, 468096, Note_on_c, 3, 45, 17
4, 468120, Note_off_c, 3, 52, 0
4, 468120, Note_off_c, 3, 69, 0
4, 468120, Note_on_c, 3, 77, 17
4, 468120, Note_on_c, 3, 44, 17
4, 468144, Note_off_c, 3, 51, 0
4, 468144, Note_off_c, 3, 70, 0
4, 468144, Note_on_c, 3, 78, 17
4, 468144, Note_on_c, 3, 43, 17
4, 468168, Note_off_c, 3, 50, 0
4, 468168, Note_off_c, 3, 71, 0
4, 468168, Note_on_c, 3, 79, 17
4, 468168, Note_on_c, 3, 42, 17
4, 468192, Note_off_c, 3, 49, 0
4, 468192, Note_off_c, 3, 72, 0
4, 468192, Note_on_c, 3, 80, 17
4, 468192, Note_on_c, 3, 41, 17
4, 468216, Note_off_c, 3, 48, 0
4, 468216, Note_off_c, 3, 73, 0
4, 468216, Note_on_c, 3, 81, 17
4, 468216, Note_on_c, 3, 40, 17
4, 468240, Note_off_c, 3, 47, 0
4, 468240, Note_off_c, 3, 74, 0
4, 468240, Note_on_c, 3, 82, 17
4, 468240, Note_on_c, 3, 39, 17
4, 468264, Note_off_c, 3, 46, 0
4, 468264, Note_off_c, 3, 75, 0
4, 468264, Note_on_c, 3, 83, 17
4, 468264, Note_on_c, 3, 38, 17
4, 468288, Note_off_c, 3, 45, 0
4, 468288, Note_off_c, 3, 76, 0
4, 468288, Note_on_c, 3, 84, 17
4, 468288, Note_on_c, 3, 37, 17
4, 468312, Note_off_c, 3, 44, 0
4, 468312, Note_off_c, 3, 77, 0
4, 468312, Note_on_c, 3, 85, 17
4, 468312, Note_on_c, 3, 36, 17
4, 468336, Note_off_c, 3, 43, 0
4, 468336, Note_off_c, 3, 78, 0
4, 468336, Note_on_c, 3, 86, 17
4, 468336, Note_on_c, 3, 35, 17
4, 468360, Note_off_c, 3, 42, 0
4, 468360, Note_off_c, 3, 79, 0
4, 468360, Note_on_c, 3, 87, 17
4, 468360, Note_on_c, 3, 34, 17
4, 468384, Note_off_c, 3, 41, 0
4, 468384, Note_off_c, 3, 80, 0
4, 468384, Note_on_c, 3, 88, 17
4, 468384, Note_on_c, 3, 33, 17
4, 468408, Note_off_c, 3, 40, 0
4, 468408, Note_off_c, 3, 81, 0
4, 468408, Note_on_c, 3, 89, 17
4, 468408, Note_on_c, 3, 32, 17
4, 468432, Note_off_c, 3, 39, 0
4, 468432, Note_off_c, 3, 82, 0
4, 468432, Note_on_c, 3, 90, 17
4, 468432, Note_on_c, 3, 31, 17
4, 468456, Note_off_c, 3, 38, 0
4, 468456, Note_off_c, 3, 83, 0
4, 468456, Note_on_c, 3, 91, 17
4, 468456, Note_on_c, 3, 30, 17
4, 468480, Note_off_c, 3, 37, 0
4, 468480, Note_off_c, 3, 84, 0
4, 468480, Note_on_c, 3, 28, 17
4, 468480, Note_on_c, 3, 93, 17
4, 468504, Note_off_c, 3, 36, 0
4, 468504, Note_off_c, 3, 85, 0
4, 468504, Note_on_c, 3, 29, 17
4, 468504, Note_on_c, 3, 92, 17
4, 468528, Note_off_c, 3, 35, 0
4, 468528, Note_off_c, 3, 86, 0
4, 468528, Note_on_c, 3, 30, 17
4, 468528, Note_on_c, 3, 91, 17
4, 468552, Note_off_c, 3, 34, 0
4, 468552, Note_off_c, 3, 87, 0
4, 468552, Note_on_c, 3, 31, 17
4, 468552, Note_on_c, 3, 90, 17
4, 468576, Note_off_c, 3, 33, 0
4, 468576, Note_off_c, 3, 88, 0
4, 468576, Note_on_c, 3, 32, 17
4, 468576, Note_on_c, 3, 89, 17
4, 468600, Note_off_c, 3, 32, 0
4, 468600, Note_off_c, 3, 89, 0
4, 468600, Note_on_c, 3, 33, 17
4, 468600, Note_on_c, 3, 88, 17
4, 468624, Note_off_c, 3, 31, 0
4, 468624, Note_off_c, 3, 90, 0
4, 468624, Note_on_c, 3, 34, 17
4, 468624, Note_on_c, 3, 87, 17
4, 468648, Note_off_c, 3, 30, 0
4, 468648, Note_off_c, 3, 91, 0
4, 468648, Note_on_c, 3, 35, 17
4, 468648, Note_on_c, 3, 86, 17
4, 468672, Note_off_c, 3, 93, 0
4, 468672, Note_off_c, 3, 28, 0
4, 468672, Note_on_c, 3, 36, 17
4, 468672, Note_on_c, 3, 85, 17
4, 468696, Note_off_c, 3, 92, 0
4, 468696, Note_off_c, 3, 29, 0
4, 468696, Note_on_c, 3, 37, 17
4, 468696, Note_on_c, 3, 84, 17
4, 468720, Note_off_c, 3, 91, 0
4, 468720, Note_off_c, 3, 30, 0
4, 468720, Note_on_c, 3, 38, 17
4, 468720, Note_on_c, 3, 83, 17
4, 468744, Note_off_c, 3, 90, 0
4, 468744, Note_off_c, 3, 31, 0
4, 468744, Note_on_c, 3, 39, 17
4, 468744, Note_on_c, 3, 82, 17
4, 468768, Note_off_c, 3, 89, 0
4, 468768, Note_off_c, 3, 32, 0
4, 468768, Note_on_c, 3, 40, 17
4, 468768, Note_on_c, 3, 81, 17
4, 468792, Note_off_c, 3, 88, 0
4, 468792, Note_off_c, 3, 33, 0
4, 468792, Note_on_c, 3, 41, 17
4, 468792, Note_on_c, 3, 80, 17
4, 468816, Note_off_c, 3, 87, 0
4, 468816, Note_off_c, 3, 34, 0
4, 468816, Note_on_c, 3, 42, 17
4, 468816, Note_on_c, 3, 79, 17
4, 468840, Note_off_c, 3, 86, 0
4, 468840, Note_off_c, 3, 35, 0
4, 468840, Note_on_c, 3, 43, 17
4, 468840, Note_on_c, 3, 78, 17
4, 468864, Note_off_c, 3, 85, 0
4, 468864, Note_off_c, 3, 36, 0
4, 468864, Note_on_c, 3, 44, 17
4, 468864, Note_on_c, 3, 77, 17
4, 468888, Note_off_c, 3, 84, 0
4, 468888, Note_off_c, 3, 37, 0
4, 468888, Note_on_c, 3, 45, 17
4, 468888, Note_on_c, 3, 76, 17
4, 468912, Note_off_c, 3, 83, 0
4, 468912, Note_off_c, 3, 38, 0
4, 468912, Note_on_c, 3, 46, 17
4, 468912, Note_on_c, 3, 75, 17
4, 468936, Note_off_c, 3, 82, 0
4, 468936, Note_off_c, 3, 39, 0
4, 468936, Note_on_c, 3, 47, 17
4, 468936, Note_on_c, 3, 74, 17
4, 468960, Note_off_c, 3, 81, 0
4, 468960, Note_off_c, 3, 40, 0
4, 468960, Note_on_c, 3, 48, 17
4, 468960, Note_on_c, 3, 73, 17
4, 468984, Note_off_c, 3, 80, 0
4, 468984, Note_off_c, 3, 41, 0
4, 468984, Note_on_c, 3, 72, 17
4, 468984, Note_on_c, 3, 49, 17
4, 469008, Note_off_c, 3, 79, 0
4, 469008, Note_off_c, 3, 42, 0
4, 469008, Note_on_c, 3, 71, 17
4, 469008, Note_on_c, 3, 50, 17
4, 469032, Note_off_c, 3, 78, 0
4, 469032, Note_off_c, 3, 43, 0
4, 469032, Note_on_c, 3, 51, 17
4, 469032, Note_on_c, 3, 70, 17
4, 469056, Note_off_c, 3, 77, 0
4, 469056, Note_off_c, 3, 44, 0
4, 469056, Note_on_c, 3, 52, 17
4, 469056, Note_on_c, 3, 69, 17
4, 469080, Note_off_c, 3, 76, 0
4, 469080, Note_off_c, 3, 45, 0
4, 469080, Note_on_c, 3, 53, 17
4, 469080, Note_on_c, 3, 68, 17
4, 469104, Note_off_c, 3, 75, 0
4, 469104, Note_off_c, 3, 46, 0
4, 469104, Note_on_c, 3, 54, 17
4, 469104, Note_on_c, 3, 67, 17
4, 469128, Note_off_c, 3, 74, 0
4, 469128, Note_off_c, 3, 47, 0
4, 469128, Note_on_c, 3, 55, 17
4, 469128, Note_on_c, 3, 66, 17
4, 469152, Note_off_c, 3, 73, 0
4, 469152, Note_off_c, 3, 48, 0
4, 469152, Note_on_c, 3, 56, 17
4, 469152, Note_on_c, 3, 65, 17
4, 469176, Note_off_c, 3, 49, 0
4, 469176, Note_off_c, 3, 72, 0
4, 469176, Note_on_c, 3, 57, 17
4, 469176, Note_on_c, 3, 64, 17
4, 469200, Note_off_c, 3, 50, 0
4, 469200, Note_off_c, 3, 71, 0
4, 469200, Note_on_c, 3, 58, 17
4, 469200, Note_on_c, 3, 63, 17
4, 469224, Note_off_c, 3, 70, 0
4, 469224, Note_off_c, 3, 51, 0
4, 469224, Note_on_c, 3, 62, 17
4, 469224, Note_on_c, 3, 59, 17
4, 469248, Note_off_c, 3, 69, 0
4, 469248, Note_off_c, 3, 52, 0
4, 469248, Note_on_c, 3, 60, 17
4, 469248, Note_on_c, 3, 61, 17
4, 469272, Note_off_c, 3, 68, 0
4, 469272, Note_off_c, 3, 53, 0
4, 469272, Note_on_c, 3, 61, 17
4, 469272, Note_on_c, 3, 60, 17
4, 469296, Note_off_c, 3, 67, 0
4, 469296, Note_off_c, 3, 54, 0
4, 469296, Note_on_c, 3, 59, 17
4, 469296, Note_on_c, 3, 62, 17
4, 469320, Note_off_c, 3, 66, 0
4, 469320, Note_off_c, 3, 55, 0
4, 469320, Note_on_c, 3, 63, 17
4, 469320, Note_on_c, 3, 58, 17
4, 469344, Note_off_c, 3, 65, 0
4, 469344, Note_off_c, 3, 56, 0
4, 469344, Note_on_c, 3, 64, 17
4, 469344, Note_on_c, 3, 57, 17
4, 469368, Note_off_c, 3, 64, 0
4, 469368, Note_off_c, 3, 57, 0
4, 469368, Note_on_c, 3, 65, 17
4, 469368, Note_on_c, 3, 56, 17
4, 469392, Note_off_c, 3, 63, 0
4, 469392, Note_off_c, 3, 58, 0
4, 469392, Note_on_c, 3, 66, 17
4, 469392, Note_on_c, 3, 55, 17
4, 469416, Note_off_c, 3, 59, 0
4, 469416, Note_off_c, 3, 62, 0
4, 469416, Note_on_c, 3, 67, 17
4, 469416, Note_on_c, 3, 54, 17
4, 469440, Note_off_c, 3, 61, 0
4, 469440, Note_off_c, 3, 60, 0
4, 469440, Note_on_c, 3, 68, 17
4, 469440, Note_on_c, 3, 53, 17
4, 469464, Note_off_c, 3, 60, 0
4, 469464, Note_off_c, 3, 61, 0
4, 469464, Note_on_c, 3, 69, 17
4, 469464, Note_on_c, 3, 52, 17
4, 469488, Note_off_c, 3, 62, 0
4, 469488, Note_off_c, 3, 59, 0
4, 469488, Note_on_c, 3, 70, 17
4, 469488, Note_on_c, 3, 51, 17
4, 469512, Note_off_c, 3, 58, 0
4, 469512, Note_off_c, 3, 63, 0
4, 469512, Note_on_c, 3, 71, 17
4, 469512, Note_on_c, 3, 50, 17
4, 469536, Note_off_c, 3, 57, 0
4, 469536, Note_off_c, 3, 64, 0
4, 469536, Note_on_c, 3, 72, 17
4, 469536, Note_on_c, 3, 49, 17
4, 469560, Note_off_c, 3, 56, 0
4, 469560, Note_off_c, 3, 65, 0
4, 469560, Note_on_c, 3, 73, 17
4, 469560, Note_on_c, 3, 48, 17
4, 469584, Note_off_c, 3, 55, 0
4, 469584, Note_off_c, 3, 66, 0
4, 469584, Note_on_c, 3, 74, 17
4, 469584, Note_on_c, 3, 47, 17
4, 469608, Note_off_c, 3, 54, 0
4, 469608, Note_off_c, 3, 67, 0
4, 469608, Note_on_c, 3, 75, 17
4, 469608, Note_on_c, 3, 46, 17
4, 469632, Note_off_c, 3, 53, 0
4, 469632, Note_off_c, 3, 68, 0
4, 469632, Note_on_c, 3, 76, 17
4, 469632, Note_on_c, 3, 45, 17
4, 469656, Note_off_c, 3, 52, 0
4, 469656, Note_off_c, 3, 69, 0
4, 469656, Note_on_c, 3, 77, 17
4, 469656, Note_on_c, 3, 44, 17
4, 469680, Note_off_c, 3, 51, 0
4, 469680, Note_off_c, 3, 70, 0
4, 469680, Note_on_c, 3, 78, 17
4, 469680, Note_on_c, 3, 43, 17
4, 469704, Note_off_c, 3, 50, 0
4, 469704, Note_off_c, 3, 71, 0
4, 469704, Note_on_c, 3, 79, 17
4, 469704, Note_on_c, 3, 42, 17
4, 469728, Note_off_c, 3, 49, 0
4, 469728, Note_off_c, 3, 72, 0
4, 469728, Note_on_c, 3, 80, 17
4, 469728, Note_on_c, 3, 41, 17
4, 469752, Note_off_c, 3, 48, 0
4, 469752, Note_off_c, 3, 73, 0
4, 469752, Note_on_c, 3, 81, 17
4, 469752, Note_on_c, 3, 40, 17
4, 469776, Note_off_c, 3, 47, 0
4, 469776, Note_off_c, 3, 74, 0
4, 469776, Note_on_c, 3, 82, 17
4, 469776, Note_on_c, 3, 39, 17
4, 469800, Note_off_c, 3, 46, 0
4, 469800, Note_off_c, 3, 75, 0
4, 469800, Note_on_c, 3, 83, 17
4, 469800, Note_on_c, 3, 38, 17
4, 469824, Note_off_c, 3, 45, 0
4, 469824, Note_off_c, 3, 76, 0
4, 469824, Note_on_c, 3, 84, 17
4, 469824, Note_on_c, 3, 37, 17
4, 469848, Note_off_c, 3, 44, 0
4, 469848, Note_off_c, 3, 77, 0
4, 469848, Note_on_c, 3, 85, 17
4, 469848, Note_on_c, 3, 36, 17
4, 469872, Note_off_c, 3, 43, 0
4, 469872, Note_off_c, 3, 78, 0
4, 469872, Note_on_c, 3, 86, 17
4, 469872, Note_on_c, 3, 35, 17
4, 469896, Note_off_c, 3, 42, 0
4, 469896, Note_off_c, 3, 79, 0
4, 469896, Note_on_c, 3, 87, 17
4, 469896, Note_on_c, 3, 34, 17
4, 469920, Note_off_c, 3, 41, 0
4, 469920, Note_off_c, 3, 80, 0
4, 469920, Note_on_c, 3, 88, 17
4, 469920, Note_on_c, 3, 33, 17
4, 469944, Note_off_c, 3, 40, 0
4, 469944, Note_off_c, 3, 81, 0
4, 469944, Note_on_c, 3, 89, 17
4, 469944, Note_on_c, 3, 32, 17
4, 469968, Note_off_c, 3, 39, 0
4, 469968, Note_off_c, 3, 82, 0
4, 469968, Note_on_c, 3, 90, 17
4, 469968, Note_on_c, 3, 31, 17
4, 469992, Note_off_c, 3, 38, 0
4, 469992, Note_off_c, 3, 83, 0
4, 469992, Note_on_c, 3, 91, 17
4, 469992, Note_on_c, 3, 30, 17
4, 470016, Note_off_c, 3, 37, 0
4, 470016, Note_off_c, 3, 84, 0
4, 470040, Note_off_c, 3, 36, 0
4, 470040, Note_off_c, 3, 85, 0
4, 470040, Note_on_c, 3, 28, 17
4, 470040, Note_on_c, 3, 93, 17
4, 470064, Note_off_c, 3, 35, 0
4, 470064, Note_off_c, 3, 86, 0
4, 470064, Note_on_c, 3, 29, 17
4, 470064, Note_on_c, 3, 92, 17
4, 470088, Note_off_c, 3, 34, 0
4, 470088, Note_off_c, 3, 87, 0
4, 470088, Note_on_c, 3, 30, 17
4, 470088, Note_on_c, 3, 91, 17
4, 470112, Note_off_c, 3, 33, 0
4, 470112, Note_off_c, 3, 88, 0
4, 470112, Note_on_c, 3, 31, 17
4, 470112, Note_on_c, 3, 90, 17
4, 470136, Note_off_c, 3, 32, 0
4, 470136, Note_off_c, 3, 89, 0
4, 470136, Note_on_c, 3, 32, 17
4, 470136, Note_on_c, 3, 89, 17
4, 470160, Note_off_c, 3, 31, 0
4, 470160, Note_off_c, 3, 90, 0
4, 470160, Note_on_c, 3, 33, 17
4, 470160, Note_on_c, 3, 88, 17
4, 470184, Note_off_c, 3, 30, 0
4, 470184, Note_off_c, 3, 91, 0
4, 470184, Note_on_c, 3, 34, 17
4, 470184, Note_on_c, 3, 87, 17
4, 470208, Note_on_c, 3, 35, 17
4, 470208, Note_on_c, 3, 86, 17
4, 470232, Note_off_c, 3, 93, 0
4, 470232, Note_off_c, 3, 28, 0
4, 470232, Note_on_c, 3, 36, 17
4, 470232, Note_on_c, 3, 85, 17
4, 470256, Note_off_c, 3, 92, 0
4, 470256, Note_off_c, 3, 29, 0
4, 470256, Note_on_c, 3, 37, 17
4, 470256, Note_on_c, 3, 84, 17
4, 470280, Note_off_c, 3, 91, 0
4, 470280, Note_off_c, 3, 30, 0
4, 470280, Note_on_c, 3, 38, 17
4, 470280, Note_on_c, 3, 83, 17
4, 470304, Note_off_c, 3, 90, 0
4, 470304, Note_off_c, 3, 31, 0
4, 470304, Note_on_c, 3, 39, 17
4, 470304, Note_on_c, 3, 82, 17
4, 470328, Note_off_c, 3, 89, 0
4, 470328, Note_off_c, 3, 32, 0
4, 470328, Note_on_c, 3, 40, 17
4, 470328, Note_on_c, 3, 81, 17
4, 470352, Note_off_c, 3, 88, 0
4, 470352, Note_off_c, 3, 33, 0
4, 470352, Note_on_c, 3, 41, 17
4, 470352, Note_on_c, 3, 80, 17
4, 470376, Note_off_c, 3, 87, 0
4, 470376, Note_off_c, 3, 34, 0
4, 470376, Note_on_c, 3, 42, 17
4, 470376, Note_on_c, 3, 79, 17
4, 470400, Note_off_c, 3, 86, 0
4, 470400, Note_off_c, 3, 35, 0
4, 470400, Note_on_c, 3, 43, 17
4, 470400, Note_on_c, 3, 78, 17
4, 470424, Note_off_c, 3, 85, 0
4, 470424, Note_off_c, 3, 36, 0
4, 470424, Note_on_c, 3, 44, 17
4, 470424, Note_on_c, 3, 77, 17
4, 470448, Note_off_c, 3, 84, 0
4, 470448, Note_off_c, 3, 37, 0
4, 470448, Note_on_c, 3, 45, 17
4, 470448, Note_on_c, 3, 76, 17
4, 470472, Note_off_c, 3, 83, 0
4, 470472, Note_off_c, 3, 38, 0
4, 470472, Note_on_c, 3, 46, 17
4, 470472, Note_on_c, 3, 75, 17
4, 470496, Note_off_c, 3, 82, 0
4, 470496, Note_off_c, 3, 39, 0
4, 470496, Note_on_c, 3, 47, 17
4, 470496, Note_on_c, 3, 74, 17
4, 470520, Note_off_c, 3, 81, 0
4, 470520, Note_off_c, 3, 40, 0
4, 470520, Note_on_c, 3, 48, 17
4, 470520, Note_on_c, 3, 73, 17
4, 470544, Note_off_c, 3, 80, 0
4, 470544, Note_off_c, 3, 41, 0
4, 470544, Note_on_c, 3, 72, 17
4, 470544, Note_on_c, 3, 49, 17
4, 470568, Note_off_c, 3, 79, 0
4, 470568, Note_off_c, 3, 42, 0
4, 470568, Note_on_c, 3, 71, 17
4, 470568, Note_on_c, 3, 50, 17
4, 470592, Note_off_c, 3, 78, 0
4, 470592, Note_off_c, 3, 43, 0
4, 470592, Note_on_c, 3, 51, 17
4, 470592, Note_on_c, 3, 70, 17
4, 470616, Note_off_c, 3, 77, 0
4, 470616, Note_off_c, 3, 44, 0
4, 470616, Note_on_c, 3, 52, 17
4, 470616, Note_on_c, 3, 69, 17
4, 470640, Note_off_c, 3, 76, 0
4, 470640, Note_off_c, 3, 45, 0
4, 470640, Note_on_c, 3, 53, 17
4, 470640, Note_on_c, 3, 68, 17
4, 470664, Note_off_c, 3, 75, 0
4, 470664, Note_off_c, 3, 46, 0
4, 470664, Note_on_c, 3, 54, 17
4, 470664, Note_on_c, 3, 67, 17
4, 470688, Note_off_c, 3, 74, 0
4, 470688, Note_off_c, 3, 47, 0
4, 470688, Note_on_c, 3, 55, 17
4, 470688, Note_on_c, 3, 66, 17
4, 470712, Note_off_c, 3, 73, 0
4, 470712, Note_off_c, 3, 48, 0
4, 470712, Note_on_c, 3, 56, 17
4, 470712, Note_on_c, 3, 65, 17
4, 470736, Note_off_c, 3, 49, 0
4, 470736, Note_off_c, 3, 72, 0
4, 470736, Note_on_c, 3, 57, 17
4, 470736, Note_on_c, 3, 64, 17
4, 470760, Note_off_c, 3, 50, 0
4, 470760, Note_off_c, 3, 71, 0
4, 470760, Note_on_c, 3, 58, 17
4, 470760, Note_on_c, 3, 63, 17
4, 470784, Note_off_c, 3, 70, 0
4, 470784, Note_off_c, 3, 51, 0
4, 470784, Note_on_c, 3, 62, 17
4, 470784, Note_on_c, 3, 59, 17
4, 470808, Note_off_c, 3, 69, 0
4, 470808, Note_off_c, 3, 52, 0
4, 470808, Note_on_c, 3, 60, 17
4, 470808, Note_on_c, 3, 61, 17
4, 470832, Note_off_c, 3, 68, 0
4, 470832, Note_off_c, 3, 53, 0
4, 470832, Note_on_c, 3, 61, 17
4, 470832, Note_on_c, 3, 60, 17
4, 470856, Note_off_c, 3, 67, 0
4, 470856, Note_off_c, 3, 54, 0
4, 470856, Note_on_c, 3, 59, 17
4, 470856, Note_on_c, 3, 62, 17
4, 470880, Note_off_c, 3, 66, 0
4, 470880, Note_off_c, 3, 55, 0
4, 470880, Note_on_c, 3, 63, 17
4, 470880, Note_on_c, 3, 58, 17
4, 470904, Note_off_c, 3, 65, 0
4, 470904, Note_off_c, 3, 56, 0
4, 470904, Note_on_c, 3, 64, 17
4, 470904, Note_on_c, 3, 57, 17
4, 470928, Note_off_c, 3, 64, 0
4, 470928, Note_off_c, 3, 57, 0
4, 470928, Note_on_c, 3, 65, 17
4, 470928, Note_on_c, 3, 56, 17
4, 470952, Note_off_c, 3, 63, 0
4, 470952, Note_off_c, 3, 58, 0
4, 470952, Note_on_c, 3, 66, 17
4, 470952, Note_on_c, 3, 55, 17
4, 470976, Note_off_c, 3, 59, 0
4, 470976, Note_off_c, 3, 62, 0
4, 470976, Note_on_c, 3, 67, 17
4, 470976, Note_on_c, 3, 54, 17
4, 471000, Note_off_c, 3, 61, 0
4, 471000, Note_off_c, 3, 60, 0
4, 471000, Note_on_c, 3, 68, 17
4, 471000, Note_on_c, 3, 53, 17
4, 471024, Note_off_c, 3, 60, 0
4, 471024, Note_off_c, 3, 61, 0
4, 471024, Note_on_c, 3, 69, 17
4, 471024, Note_on_c, 3, 52, 17
4, 471048, Note_off_c, 3, 62, 0
4, 471048, Note_off_c, 3, 59, 0
4, 471048, Note_on_c, 3, 70, 17
4, 471048, Note_on_c, 3, 51, 17
4, 471072, Note_off_c, 3, 58, 0
4, 471072, Note_off_c, 3, 63, 0
4, 471072, Note_on_c, 3, 71, 17
4, 471072, Note_on_c, 3, 50, 17
4, 471096, Note_off_c, 3, 57, 0
4, 471096, Note_off_c, 3, 64, 0
4, 471096, Note_on_c, 3, 72, 17
4, 471096, Note_on_c, 3, 49, 17
4, 471120, Note_off_c, 3, 56, 0
4, 471120, Note_off_c, 3, 65, 0
4, 471120, Note_on_c, 3, 73, 17
4, 471120, Note_on_c, 3, 48, 17
4, 471144, Note_off_c, 3, 55, 0
4, 471144, Note_off_c, 3, 66, 0
4, 471144, Note_on_c, 3, 74, 17
4, 471144, Note_on_c, 3, 47, 17
4, 471168, Note_off_c, 3, 54, 0
4, 471168, Note_off_c, 3, 67, 0
4, 471168, Note_on_c, 3, 75, 17
4, 471168, Note_on_c, 3, 46, 17
4, 471192, Note_off_c, 3, 53, 0
4, 471192, Note_off_c, 3, 68, 0
4, 471192, Note_on_c, 3, 76, 17
4, 471192, Note_on_c, 3, 45, 17
4, 471216, Note_off_c, 3, 52, 0
4, 471216, Note_off_c, 3, 69, 0
4, 471216, Note_on_c, 3, 77, 17
4, 471216, Note_on_c, 3, 44, 17
4, 471240, Note_off_c, 3, 51, 0
4, 471240, Note_off_c, 3, 70, 0
4, 471240, Note_on_c, 3, 78, 17
4, 471240, Note_on_c, 3, 43, 17
4, 471264, Note_off_c, 3, 50, 0
4, 471264, Note_off_c, 3, 71, 0
4, 471264, Note_on_c, 3, 79, 17
4, 471264, Note_on_c, 3, 42, 17
4, 471288, Note_off_c, 3, 49, 0
4, 471288, Note_off_c, 3, 72, 0
4, 471288, Note_on_c, 3, 80, 17
4, 471288, Note_on_c, 3, 41, 17
4, 471312, Note_off_c, 3, 48, 0
4, 471312, Note_off_c, 3, 73, 0
4, 471312, Note_on_c, 3, 81, 17
4, 471312, Note_on_c, 3, 40, 17
4, 471336, Note_off_c, 3, 47, 0
4, 471336, Note_off_c, 3, 74, 0
4, 471336, Note_on_c, 3, 82, 17
4, 471336, Note_on_c, 3, 39, 17
4, 471360, Note_off_c, 3, 46, 0
4, 471360, Note_off_c, 3, 75, 0
4, 471360, Note_on_c, 3, 83, 17
4, 471360, Note_on_c, 3, 38, 17
4, 471384, Note_off_c, 3, 45, 0
4, 471384, Note_off_c, 3, 76, 0
4, 471384, Note_on_c, 3, 84, 17
4, 471384, Note_on_c, 3, 37, 17
4, 471408, Note_off_c, 3, 44, 0
4, 471408, Note_off_c, 3, 77, 0
4, 471408, Note_on_c, 3, 85, 17
4, 471408, Note_on_c, 3, 36, 17
4, 471432, Note_off_c, 3, 43, 0
4, 471432, Note_off_c, 3, 78, 0
4, 471432, Note_on_c, 3, 86, 17
4, 471432, Note_on_c, 3, 35, 17
4, 471456, Note_off_c, 3, 42, 0
4, 471456, Note_off_c, 3, 79, 0
4, 471456, Note_on_c, 3, 87, 17
4, 471456, Note_on_c, 3, 34, 17
4, 471480, Note_off_c, 3, 41, 0
4, 471480, Note_off_c, 3, 80, 0
4, 471480, Note_on_c, 3, 88, 17
4, 471480, Note_on_c, 3, 33, 17
4, 471504, Note_off_c, 3, 40, 0
4, 471504, Note_off_c, 3, 81, 0
4, 471504, Note_on_c, 3, 89, 17
4, 471504, Note_on_c, 3, 32, 17
4, 471528, Note_off_c, 3, 39, 0
4, 471528, Note_off_c, 3, 82, 0
4, 471528, Note_on_c, 3, 90, 17
4, 471528, Note_on_c, 3, 31, 17
4, 471552, Note_off_c, 3, 38, 0
4, 471552, Note_off_c, 3, 83, 0
4, 471552, Note_on_c, 3, 91, 17
4, 471552, Note_on_c, 3, 30, 17
4, 471552, Note_on_c, 3, 28, 17
4, 471552, Note_on_c, 3, 93, 17
4, 471576, Note_off_c, 3, 37, 0
4, 471576, Note_off_c, 3, 84, 0
4, 471576, Note_on_c, 3, 29, 17
4, 471576, Note_on_c, 3, 92, 17
4, 471600, Note_off_c, 3, 36, 0
4, 471600, Note_off_c, 3, 85, 0
4, 471600, Note_on_c, 3, 30, 17
4, 471600, Note_on_c, 3, 91, 17
4, 471624, Note_off_c, 3, 35, 0
4, 471624, Note_off_c, 3, 86, 0
4, 471624, Note_on_c, 3, 31, 17
4, 471624, Note_on_c, 3, 90, 17
4, 471648, Note_off_c, 3, 34, 0
4, 471648, Note_off_c, 3, 87, 0
4, 471648, Note_on_c, 3, 32, 17
4, 471648, Note_on_c, 3, 89, 17
4, 471672, Note_off_c, 3, 33, 0
4, 471672, Note_off_c, 3, 88, 0
4, 471672, Note_on_c, 3, 33, 17
4, 471672, Note_on_c, 3, 88, 17
4, 471696, Note_off_c, 3, 32, 0
4, 471696, Note_off_c, 3, 89, 0
4, 471696, Note_on_c, 3, 34, 17
4, 471696, Note_on_c, 3, 87, 17
4, 471720, Note_off_c, 3, 31, 0
4, 471720, Note_off_c, 3, 90, 0
4, 471720, Note_on_c, 3, 35, 17
4, 471720, Note_on_c, 3, 86, 17
4, 471744, Note_off_c, 3, 93, 0
4, 471744, Note_off_c, 3, 28, 0
4, 471744, Note_off_c, 3, 30, 0
4, 471744, Note_off_c, 3, 91, 0
4, 471744, Note_on_c, 3, 36, 17
4, 471744, Note_on_c, 3, 85, 17
4, 471768, Note_off_c, 3, 92, 0
4, 471768, Note_off_c, 3, 29, 0
4, 471768, Note_on_c, 3, 37, 17
4, 471768, Note_on_c, 3, 84, 17
4, 471792, Note_off_c, 3, 91, 0
4, 471792, Note_off_c, 3, 30, 0
4, 471792, Note_on_c, 3, 38, 17
4, 471792, Note_on_c, 3, 83, 17
4, 471816, Note_off_c, 3, 90, 0
4, 471816, Note_off_c, 3, 31, 0
4, 471816, Note_on_c, 3, 39, 17
4, 471816, Note_on_c, 3, 82, 17
4, 471840, Note_off_c, 3, 89, 0
4, 471840, Note_off_c, 3, 32, 0
4, 471840, Note_on_c, 3, 40, 17
4, 471840, Note_on_c, 3, 81, 17
4, 471864, Note_off_c, 3, 88, 0
4, 471864, Note_off_c, 3, 33, 0
4, 471864, Note_on_c, 3, 41, 17
4, 471864, Note_on_c, 3, 80, 17
4, 471888, Note_off_c, 3, 87, 0
4, 471888, Note_off_c, 3, 34, 0
4, 471888, Note_on_c, 3, 42, 17
4, 471888, Note_on_c, 3, 79, 17
4, 471912, Note_off_c, 3, 86, 0
4, 471912, Note_off_c, 3, 35, 0
4, 471912, Note_on_c, 3, 43, 17
4, 471912, Note_on_c, 3, 78, 17
4, 471936, Note_off_c, 3, 85, 0
4, 471936, Note_off_c, 3, 36, 0
4, 471936, Note_on_c, 3, 44, 17
4, 471936, Note_on_c, 3, 77, 17
4, 471960, Note_off_c, 3, 84, 0
4, 471960, Note_off_c, 3, 37, 0
4, 471960, Note_on_c, 3, 45, 17
4, 471960, Note_on_c, 3, 76, 17
4, 471984, Note_off_c, 3, 83, 0
4, 471984, Note_off_c, 3, 38, 0
4, 471984, Note_on_c, 3, 46, 17
4, 471984, Note_on_c, 3, 75, 17
4, 472008, Note_off_c, 3, 82, 0
4, 472008, Note_off_c, 3, 39, 0
4, 472008, Note_on_c, 3, 47, 17
4, 472008, Note_on_c, 3, 74, 17
4, 472032, Note_off_c, 3, 81, 0
4, 472032, Note_off_c, 3, 40, 0
4, 472032, Note_on_c, 3, 48, 17
4, 472032, Note_on_c, 3, 73, 17
4, 472056, Note_off_c, 3, 80, 0
4, 472056, Note_off_c, 3, 41, 0
4, 472056, Note_on_c, 3, 72, 17
4, 472056, Note_on_c, 3, 49, 17
4, 472080, Note_off_c, 3, 79, 0
4, 472080, Note_off_c, 3, 42, 0
4, 472080, Note_on_c, 3, 71, 17
4, 472080, Note_on_c, 3, 50, 17
4, 472104, Note_off_c, 3, 78, 0
4, 472104, Note_off_c, 3, 43, 0
4, 472104, Note_on_c, 3, 51, 17
4, 472104, Note_on_c, 3, 70, 17
4, 472128, Note_off_c, 3, 77, 0
4, 472128, Note_off_c, 3, 44, 0
4, 472128, Note_on_c, 3, 52, 17
4, 472128, Note_on_c, 3, 69, 17
4, 472152, Note_off_c, 3, 76, 0
4, 472152, Note_off_c, 3, 45, 0
4, 472152, Note_on_c, 3, 53, 17
4, 472152, Note_on_c, 3, 68, 17
4, 472176, Note_off_c, 3, 75, 0
4, 472176, Note_off_c, 3, 46, 0
4, 472176, Note_on_c, 3, 54, 17
4, 472176, Note_on_c, 3, 67, 17
4, 472200, Note_off_c, 3, 74, 0
4, 472200, Note_off_c, 3, 47, 0
4, 472200, Note_on_c, 3, 55, 17
4, 472200, Note_on_c, 3, 66, 17
4, 472224, Note_off_c, 3, 73, 0
4, 472224, Note_off_c, 3, 48, 0
4, 472224, Note_on_c, 3, 56, 17
4, 472224, Note_on_c, 3, 65, 17
4, 472248, Note_off_c, 3, 49, 0
4, 472248, Note_off_c, 3, 72, 0
4, 472248, Note_on_c, 3, 57, 17
4, 472248, Note_on_c, 3, 64, 17
4, 472272, Note_off_c, 3, 50, 0
4, 472272, Note_off_c, 3, 71, 0
4, 472272, Note_on_c, 3, 58, 17
4, 472272, Note_on_c, 3, 63, 17
4, 472296, Note_off_c, 3, 70, 0
4, 472296, Note_off_c, 3, 51, 0
4, 472296, Note_on_c, 3, 62, 17
4, 472296, Note_on_c, 3, 59, 17
4, 472320, Note_off_c, 3, 69, 0
4, 472320, Note_off_c, 3, 52, 0
4, 472320, Note_on_c, 3, 60, 17
4, 472320, Note_on_c, 3, 61, 17
4, 472344, Note_off_c, 3, 68, 0
4, 472344, Note_off_c, 3, 53, 0
4, 472344, Note_on_c, 3, 61, 17
4, 472344, Note_on_c, 3, 60, 17
4, 472368, Note_off_c, 3, 67, 0
4, 472368, Note_off_c, 3, 54, 0
4, 472368, Note_on_c, 3, 59, 17
4, 472368, Note_on_c, 3, 62, 17
4, 472392, Note_off_c, 3, 66, 0
4, 472392, Note_off_c, 3, 55, 0
4, 472392, Note_on_c, 3, 63, 17
4, 472392, Note_on_c, 3, 58, 17
4, 472416, Note_off_c, 3, 65, 0
4, 472416, Note_off_c, 3, 56, 0
4, 472416, Note_on_c, 3, 64, 17
4, 472416, Note_on_c, 3, 57, 17
4, 472440, Note_off_c, 3, 64, 0
4, 472440, Note_off_c, 3, 57, 0
4, 472440, Note_on_c, 3, 65, 17
4, 472440, Note_on_c, 3, 56, 17
4, 472464, Note_off_c, 3, 63, 0
4, 472464, Note_off_c, 3, 58, 0
4, 472464, Note_on_c, 3, 66, 17
4, 472464, Note_on_c, 3, 55, 17
4, 472488, Note_off_c, 3, 59, 0
4, 472488, Note_off_c, 3, 62, 0
4, 472488, Note_on_c, 3, 67, 17
4, 472488, Note_on_c, 3, 54, 17
4, 472512, Note_off_c, 3, 61, 0
4, 472512, Note_off_c, 3, 60, 0
4, 472512, Note_on_c, 3, 68, 17
4, 472512, Note_on_c, 3, 53, 17
4, 472536, Note_off_c, 3, 60, 0
4, 472536, Note_off_c, 3, 61, 0
4, 472536, Note_on_c, 3, 69, 17
4, 472536, Note_on_c, 3, 52, 17
4, 472560, Note_off_c, 3, 62, 0
4, 472560, Note_off_c, 3, 59, 0
4, 472560, Note_on_c, 3, 70, 17
4, 472560, Note_on_c, 3, 51, 17
4, 472584, Note_off_c, 3, 58, 0
4, 472584, Note_off_c, 3, 63, 0
4, 472584, Note_on_c, 3, 71, 17
4, 472584, Note_on_c, 3, 50, 17
4, 472608, Note_off_c, 3, 57, 0
4, 472608, Note_off_c, 3, 64, 0
4, 472608, Note_on_c, 3, 72, 17
4, 472608, Note_on_c, 3, 49, 17
4, 472632, Note_off_c, 3, 56, 0
4, 472632, Note_off_c, 3, 65, 0
4, 472632, Note_on_c, 3, 73, 17
4, 472632, Note_on_c, 3, 48, 17
4, 472656, Note_off_c, 3, 55, 0
4, 472656, Note_off_c, 3, 66, 0
4, 472656, Note_on_c, 3, 74, 17
4, 472656, Note_on_c, 3, 47, 17
4, 472680, Note_off_c, 3, 54, 0
4, 472680, Note_off_c, 3, 67, 0
4, 472680, Note_on_c, 3, 75, 17
4, 472680, Note_on_c, 3, 46, 17
4, 472704, Note_off_c, 3, 53, 0
4, 472704, Note_off_c, 3, 68, 0
4, 472704, Note_on_c, 3, 76, 17
4, 472704, Note_on_c, 3, 45, 17
4, 472728, Note_off_c, 3, 52, 0
4, 472728, Note_off_c, 3, 69, 0
4, 472728, Note_on_c, 3, 77, 17
4, 472728, Note_on_c, 3, 44, 17
4, 472752, Note_off_c, 3, 51, 0
4, 472752, Note_off_c, 3, 70, 0
4, 472752, Note_on_c, 3, 78, 17
4, 472752, Note_on_c, 3, 43, 17
4, 472776, Note_off_c, 3, 50, 0
4, 472776, Note_off_c, 3, 71, 0
4, 472776, Note_on_c, 3, 79, 17
4, 472776, Note_on_c, 3, 42, 17
4, 472800, Note_off_c, 3, 49, 0
4, 472800, Note_off_c, 3, 72, 0
4, 472800, Note_on_c, 3, 80, 17
4, 472800, Note_on_c, 3, 41, 17
4, 472824, Note_off_c, 3, 48, 0
4, 472824, Note_off_c, 3, 73, 0
4, 472824, Note_on_c, 3, 81, 17
4, 472824, Note_on_c, 3, 40, 17
4, 472848, Note_off_c, 3, 47, 0
4, 472848, Note_off_c, 3, 74, 0
4, 472848, Note_on_c, 3, 82, 17
4, 472848, Note_on_c, 3, 39, 17
4, 472872, Note_off_c, 3, 46, 0
4, 472872, Note_off_c, 3, 75, 0
4, 472872, Note_on_c, 3, 83, 17
4, 472872, Note_on_c, 3, 38, 17
4, 472896, Note_off_c, 3, 45, 0
4, 472896, Note_off_c, 3, 76, 0
4, 472896, Note_on_c, 3, 84, 17
4, 472896, Note_on_c, 3, 37, 17
4, 472920, Note_off_c, 3, 44, 0
4, 472920, Note_off_c, 3, 77, 0
4, 472920, Note_on_c, 3, 85, 17
4, 472920, Note_on_c, 3, 36, 17
4, 472944, Note_off_c, 3, 43, 0
4, 472944, Note_off_c, 3, 78, 0
4, 472944, Note_on_c, 3, 86, 17
4, 472944, Note_on_c, 3, 35, 17
4, 472968, Note_off_c, 3, 42, 0
4, 472968, Note_off_c, 3, 79, 0
4, 472968, Note_on_c, 3, 87, 17
4, 472968, Note_on_c, 3, 34, 17
4, 472992, Note_off_c, 3, 41, 0
4, 472992, Note_off_c, 3, 80, 0
4, 472992, Note_on_c, 3, 88, 17
4, 472992, Note_on_c, 3, 33, 17
4, 473016, Note_off_c, 3, 40, 0
4, 473016, Note_off_c, 3, 81, 0
4, 473016, Note_on_c, 3, 89, 17
4, 473016, Note_on_c, 3, 32, 17
4, 473040, Note_off_c, 3, 39, 0
4, 473040, Note_off_c, 3, 82, 0
4, 473040, Note_on_c, 3, 90, 17
4, 473040, Note_on_c, 3, 31, 17
4, 473064, Note_off_c, 3, 38, 0
4, 473064, Note_off_c, 3, 83, 0
4, 473064, Note_on_c, 3, 91, 17
4, 473064, Note_on_c, 3, 30, 17
4, 473088, Note_off_c, 3, 37, 0
4, 473088, Note_off_c, 3, 84, 0
4, 473088, Note_on_c, 3, 93, 17
4, 473088, Note_on_c, 3, 28, 17
4, 473112, Note_off_c, 3, 36, 0
4, 473112, Note_off_c, 3, 85, 0
4, 473112, Note_on_c, 3, 29, 17
4, 473112, Note_on_c, 3, 92, 17
4, 473136, Note_off_c, 3, 35, 0
4, 473136, Note_off_c, 3, 86, 0
4, 473136, Note_on_c, 3, 30, 17
4, 473136, Note_on_c, 3, 91, 17
4, 473160, Note_off_c, 3, 34, 0
4, 473160, Note_off_c, 3, 87, 0
4, 473160, Note_on_c, 3, 31, 17
4, 473160, Note_on_c, 3, 90, 17
4, 473184, Note_off_c, 3, 33, 0
4, 473184, Note_off_c, 3, 88, 0
4, 473184, Note_on_c, 3, 32, 17
4, 473184, Note_on_c, 3, 89, 17
4, 473208, Note_off_c, 3, 32, 0
4, 473208, Note_off_c, 3, 89, 0
4, 473208, Note_on_c, 3, 33, 17
4, 473208, Note_on_c, 3, 88, 17
4, 473232, Note_off_c, 3, 31, 0
4, 473232, Note_off_c, 3, 90, 0
4, 473232, Note_on_c, 3, 34, 17
4, 473232, Note_on_c, 3, 87, 17
4, 473256, Note_off_c, 3, 30, 0
4, 473256, Note_off_c, 3, 91, 0
4, 473256, Note_on_c, 3, 35, 17
4, 473256, Note_on_c, 3, 86, 17
4, 473280, Note_off_c, 3, 28, 0
4, 473280, Note_off_c, 3, 93, 0
4, 473280, Note_on_c, 3, 36, 17
4, 473280, Note_on_c, 3, 85, 17
4, 473304, Note_off_c, 3, 92, 0
4, 473304, Note_off_c, 3, 29, 0
4, 473304, Note_on_c, 3, 37, 17
4, 473304, Note_on_c, 3, 84, 17
4, 473328, Note_off_c, 3, 91, 0
4, 473328, Note_off_c, 3, 30, 0
4, 473328, Note_on_c, 3, 38, 17
4, 473328, Note_on_c, 3, 83, 17
4, 473352, Note_off_c, 3, 90, 0
4, 473352, Note_off_c, 3, 31, 0
4, 473352, Note_on_c, 3, 39, 17
4, 473352, Note_on_c, 3, 82, 17
4, 473376, Note_off_c, 3, 89, 0
4, 473376, Note_off_c, 3, 32, 0
4, 473376, Note_on_c, 3, 40, 17
4, 473376, Note_on_c, 3, 81, 17
4, 473400, Note_off_c, 3, 88, 0
4, 473400, Note_off_c, 3, 33, 0
4, 473400, Note_on_c, 3, 41, 17
4, 473400, Note_on_c, 3, 80, 17
4, 473424, Note_off_c, 3, 87, 0
4, 473424, Note_off_c, 3, 34, 0
4, 473424, Note_on_c, 3, 42, 17
4, 473424, Note_on_c, 3, 79, 17
4, 473448, Note_off_c, 3, 86, 0
4, 473448, Note_off_c, 3, 35, 0
4, 473448, Note_on_c, 3, 43, 17
4, 473448, Note_on_c, 3, 78, 17
4, 473472, Note_off_c, 3, 85, 0
4, 473472, Note_off_c, 3, 36, 0
4, 473472, Note_on_c, 3, 44, 17
4, 473472, Note_on_c, 3, 77, 17
4, 473496, Note_off_c, 3, 84, 0
4, 473496, Note_off_c, 3, 37, 0
4, 473496, Note_on_c, 3, 45, 17
4, 473496, Note_on_c, 3, 76, 17
4, 473520, Note_off_c, 3, 83, 0
4, 473520, Note_off_c, 3, 38, 0
4, 473520, Note_on_c, 3, 46, 17
4, 473520, Note_on_c, 3, 75, 17
4, 473544, Note_off_c, 3, 82, 0
4, 473544, Note_off_c, 3, 39, 0
4, 473544, Note_on_c, 3, 47, 17
4, 473544, Note_on_c, 3, 74, 17
4, 473568, Note_off_c, 3, 81, 0
4, 473568, Note_off_c, 3, 40, 0
4, 473568, Note_on_c, 3, 48, 17
4, 473568, Note_on_c, 3, 73, 17
4, 473592, Note_off_c, 3, 80, 0
4, 473592, Note_off_c, 3, 41, 0
4, 473592, Note_on_c, 3, 72, 17
4, 473592, Note_on_c, 3, 49, 17
4, 473616, Note_off_c, 3, 79, 0
4, 473616, Note_off_c, 3, 42, 0
4, 473616, Note_on_c, 3, 71, 17
4, 473616, Note_on_c, 3, 50, 17
4, 473640, Note_off_c, 3, 78, 0
4, 473640, Note_off_c, 3, 43, 0
4, 473640, Note_on_c, 3, 51, 17
4, 473640, Note_on_c, 3, 70, 17
4, 473664, Note_off_c, 3, 77, 0
4, 473664, Note_off_c, 3, 44, 0
4, 473664, Note_on_c, 3, 52, 17
4, 473664, Note_on_c, 3, 69, 17
4, 473688, Note_off_c, 3, 76, 0
4, 473688, Note_off_c, 3, 45, 0
4, 473688, Note_on_c, 3, 53, 17
4, 473688, Note_on_c, 3, 68, 17
4, 473712, Note_off_c, 3, 75, 0
4, 473712, Note_off_c, 3, 46, 0
4, 473712, Note_on_c, 3, 54, 17
4, 473712, Note_on_c, 3, 67, 17
4, 473736, Note_off_c, 3, 74, 0
4, 473736, Note_off_c, 3, 47, 0
4, 473736, Note_on_c, 3, 55, 17
4, 473736, Note_on_c, 3, 66, 17
4, 473760, Note_off_c, 3, 73, 0
4, 473760, Note_off_c, 3, 48, 0
4, 473760, Note_on_c, 3, 56, 17
4, 473760, Note_on_c, 3, 65, 17
4, 473784, Note_off_c, 3, 49, 0
4, 473784, Note_off_c, 3, 72, 0
4, 473784, Note_on_c, 3, 57, 17
4, 473784, Note_on_c, 3, 64, 17
4, 473808, Note_off_c, 3, 50, 0
4, 473808, Note_off_c, 3, 71, 0
4, 473808, Note_on_c, 3, 58, 17
4, 473808, Note_on_c, 3, 63, 17
4, 473832, Note_off_c, 3, 70, 0
4, 473832, Note_off_c, 3, 51, 0
4, 473832, Note_on_c, 3, 62, 17
4, 473832, Note_on_c, 3, 59, 17
4, 473856, Note_off_c, 3, 69, 0
4, 473856, Note_off_c, 3, 52, 0
4, 473856, Note_on_c, 3, 60, 17
4, 473856, Note_on_c, 3, 61, 17
4, 473880, Note_off_c, 3, 68, 0
4, 473880, Note_off_c, 3, 53, 0
4, 473880, Note_on_c, 3, 61, 17
4, 473880, Note_on_c, 3, 60, 17
4, 473904, Note_off_c, 3, 67, 0
4, 473904, Note_off_c, 3, 54, 0
4, 473904, Note_on_c, 3, 59, 17
4, 473904, Note_on_c, 3, 62, 17
4, 473928, Note_off_c, 3, 66, 0
4, 473928, Note_off_c, 3, 55, 0
4, 473928, Note_on_c, 3, 63, 17
4, 473928, Note_on_c, 3, 58, 17
4, 473952, Note_off_c, 3, 65, 0
4, 473952, Note_off_c, 3, 56, 0
4, 473952, Note_on_c, 3, 64, 17
4, 473952, Note_on_c, 3, 57, 17
4, 473976, Note_off_c, 3, 64, 0
4, 473976, Note_off_c, 3, 57, 0
4, 473976, Note_on_c, 3, 65, 17
4, 473976, Note_on_c, 3, 56, 17
4, 474000, Note_off_c, 3, 63, 0
4, 474000, Note_off_c, 3, 58, 0
4, 474000, Note_on_c, 3, 66, 17
4, 474000, Note_on_c, 3, 55, 17
4, 474024, Note_off_c, 3, 59, 0
4, 474024, Note_off_c, 3, 62, 0
4, 474024, Note_on_c, 3, 67, 17
4, 474024, Note_on_c, 3, 54, 17
4, 474048, Note_off_c, 3, 61, 0
4, 474048, Note_off_c, 3, 60, 0
4, 474048, Note_on_c, 3, 68, 17
4, 474048, Note_on_c, 3, 53, 17
4, 474072, Note_off_c, 3, 60, 0
4, 474072, Note_off_c, 3, 61, 0
4, 474072, Note_on_c, 3, 69, 17
4, 474072, Note_on_c, 3, 52, 17
4, 474096, Note_off_c, 3, 62, 0
4, 474096, Note_off_c, 3, 59, 0
4, 474096, Note_on_c, 3, 70, 17
4, 474096, Note_on_c, 3, 51, 17
4, 474120, Note_off_c, 3, 58, 0
4, 474120, Note_off_c, 3, 63, 0
4, 474120, Note_on_c, 3, 71, 17
4, 474120, Note_on_c, 3, 50, 17
4, 474144, Note_off_c, 3, 57, 0
4, 474144, Note_off_c, 3, 64, 0
4, 474144, Note_on_c, 3, 72, 17
4, 474144, Note_on_c, 3, 49, 17
4, 474168, Note_off_c, 3, 56, 0
4, 474168, Note_off_c, 3, 65, 0
4, 474168, Note_on_c, 3, 73, 17
4, 474168, Note_on_c, 3, 48, 17
4, 474192, Note_off_c, 3, 55, 0
4, 474192, Note_off_c, 3, 66, 0
4, 474192, Note_on_c, 3, 74, 17
4, 474192, Note_on_c, 3, 47, 17
4, 474216, Note_off_c, 3, 54, 0
4, 474216, Note_off_c, 3, 67, 0
4, 474216, Note_on_c, 3, 75, 17
4, 474216, Note_on_c, 3, 46, 17
4, 474240, Note_off_c, 3, 53, 0
4, 474240, Note_off_c, 3, 68, 0
4, 474240, Note_on_c, 3, 76, 17
4, 474240, Note_on_c, 3, 45, 17
4, 474264, Note_off_c, 3, 52, 0
4, 474264, Note_off_c, 3, 69, 0
4, 474264, Note_on_c, 3, 77, 17
4, 474264, Note_on_c, 3, 44, 17
4, 474288, Note_off_c, 3, 51, 0
4, 474288, Note_off_c, 3, 70, 0
4, 474288, Note_on_c, 3, 78, 17
4, 474288, Note_on_c, 3, 43, 17
4, 474312, Note_off_c, 3, 50, 0
4, 474312, Note_off_c, 3, 71, 0
4, 474312, Note_on_c, 3, 79, 17
4, 474312, Note_on_c, 3, 42, 17
4, 474336, Note_off_c, 3, 49, 0
4, 474336, Note_off_c, 3, 72, 0
4, 474336, Note_on_c, 3, 80, 17
4, 474336, Note_on_c, 3, 41, 17
4, 474360, Note_off_c, 3, 48, 0
4, 474360, Note_off_c, 3, 73, 0
4, 474360, Note_on_c, 3, 81, 17
4, 474360, Note_on_c, 3, 40, 17
4, 474384, Note_off_c, 3, 47, 0
4, 474384, Note_off_c, 3, 74, 0
4, 474384, Note_on_c, 3, 82, 17
4, 474384, Note_on_c, 3, 39, 17
4, 474408, Note_off_c, 3, 46, 0
4, 474408, Note_off_c, 3, 75, 0
4, 474408, Note_on_c, 3, 83, 17
4, 474408, Note_on_c, 3, 38, 17
4, 474432, Note_off_c, 3, 45, 0
4, 474432, Note_off_c, 3, 76, 0
4, 474432, Note_on_c, 3, 84, 17
4, 474432, Note_on_c, 3, 37, 17
4, 474456, Note_off_c, 3, 44, 0
4, 474456, Note_off_c, 3, 77, 0
4, 474456, Note_on_c, 3, 85, 17
4, 474456, Note_on_c, 3, 36, 17
4, 474480, Note_off_c, 3, 43, 0
4, 474480, Note_off_c, 3, 78, 0
4, 474480, Note_on_c, 3, 86, 17
4, 474480, Note_on_c, 3, 35, 17
4, 474504, Note_off_c, 3, 42, 0
4, 474504, Note_off_c, 3, 79, 0
4, 474504, Note_on_c, 3, 87, 17
4, 474504, Note_on_c, 3, 34, 17
4, 474528, Note_off_c, 3, 41, 0
4, 474528, Note_off_c, 3, 80, 0
4, 474528, Note_on_c, 3, 88, 17
4, 474528, Note_on_c, 3, 33, 17
4, 474552, Note_off_c, 3, 40, 0
4, 474552, Note_off_c, 3, 81, 0
4, 474552, Note_on_c, 3, 89, 17
4, 474552, Note_on_c, 3, 32, 17
4, 474576, Note_off_c, 3, 39, 0
4, 474576, Note_off_c, 3, 82, 0
4, 474576, Note_on_c, 3, 90, 17
4, 474576, Note_on_c, 3, 31, 17
4, 474600, Note_off_c, 3, 38, 0
4, 474600, Note_off_c, 3, 83, 0
4, 474600, Note_on_c, 3, 91, 17
4, 474600, Note_on_c, 3, 30, 17
4, 474624, Note_off_c, 3, 37, 0
4, 474624, Note_off_c, 3, 84, 0
4, 474624, Note_on_c, 3, 28, 17
4, 474624, Note_on_c, 3, 93, 17
4, 474648, Note_off_c, 3, 36, 0
4, 474648, Note_off_c, 3, 85, 0
4, 474648, Note_on_c, 3, 29, 17
4, 474648, Note_on_c, 3, 92, 17
4, 474672, Note_off_c, 3, 35, 0
4, 474672, Note_off_c, 3, 86, 0
4, 474672, Note_on_c, 3, 30, 17
4, 474672, Note_on_c, 3, 91, 17
4, 474696, Note_off_c, 3, 34, 0
4, 474696, Note_off_c, 3, 87, 0
4, 474696, Note_on_c, 3, 31, 17
4, 474696, Note_on_c, 3, 90, 17
4, 474720, Note_off_c, 3, 33, 0
4, 474720, Note_off_c, 3, 88, 0
4, 474720, Note_on_c, 3, 32, 17
4, 474720, Note_on_c, 3, 89, 17
4, 474744, Note_off_c, 3, 32, 0
4, 474744, Note_off_c, 3, 89, 0
4, 474744, Note_on_c, 3, 33, 17
4, 474744, Note_on_c, 3, 88, 17
4, 474768, Note_off_c, 3, 31, 0
4, 474768, Note_off_c, 3, 90, 0
4, 474768, Note_on_c, 3, 34, 17
4, 474768, Note_on_c, 3, 87, 17
4, 474792, Note_off_c, 3, 30, 0
4, 474792, Note_off_c, 3, 91, 0
4, 474792, Note_on_c, 3, 35, 17
4, 474792, Note_on_c, 3, 86, 17
4, 474816, Note_off_c, 3, 93, 0
4, 474816, Note_off_c, 3, 28, 0
4, 474816, Note_on_c, 3, 36, 17
4, 474816, Note_on_c, 3, 85, 17
4, 474840, Note_off_c, 3, 92, 0
4, 474840, Note_off_c, 3, 29, 0
4, 474840, Note_on_c, 3, 37, 17
4, 474840, Note_on_c, 3, 84, 17
4, 474864, Note_off_c, 3, 91, 0
4, 474864, Note_off_c, 3, 30, 0
4, 474864, Note_on_c, 3, 38, 17
4, 474864, Note_on_c, 3, 83, 17
4, 474888, Note_off_c, 3, 90, 0
4, 474888, Note_off_c, 3, 31, 0
4, 474888, Note_on_c, 3, 39, 17
4, 474888, Note_on_c, 3, 82, 17
4, 474912, Note_off_c, 3, 89, 0
4, 474912, Note_off_c, 3, 32, 0
4, 474912, Note_on_c, 3, 40, 17
4, 474912, Note_on_c, 3, 81, 17
4, 474936, Note_off_c, 3, 88, 0
4, 474936, Note_off_c, 3, 33, 0
4, 474936, Note_on_c, 3, 41, 17
4, 474936, Note_on_c, 3, 80, 17
4, 474960, Note_off_c, 3, 87, 0
4, 474960, Note_off_c, 3, 34, 0
4, 474960, Note_on_c, 3, 42, 17
4, 474960, Note_on_c, 3, 79, 17
4, 474984, Note_off_c, 3, 86, 0
4, 474984, Note_off_c, 3, 35, 0
4, 474984, Note_on_c, 3, 43, 17
4, 474984, Note_on_c, 3, 78, 17
4, 475008, Note_off_c, 3, 85, 0
4, 475008, Note_off_c, 3, 36, 0
4, 475008, Note_on_c, 3, 44, 17
4, 475008, Note_on_c, 3, 77, 17
4, 475032, Note_off_c, 3, 84, 0
4, 475032, Note_off_c, 3, 37, 0
4, 475032, Note_on_c, 3, 45, 17
4, 475032, Note_on_c, 3, 76, 17
4, 475056, Note_off_c, 3, 83, 0
4, 475056, Note_off_c, 3, 38, 0
4, 475056, Note_on_c, 3, 46, 17
4, 475056, Note_on_c, 3, 75, 17
4, 475080, Note_off_c, 3, 82, 0
4, 475080, Note_off_c, 3, 39, 0
4, 475080, Note_on_c, 3, 47, 17
4, 475080, Note_on_c, 3, 74, 17
4, 475104, Note_off_c, 3, 81, 0
4, 475104, Note_off_c, 3, 40, 0
4, 475104, Note_on_c, 3, 48, 17
4, 475104, Note_on_c, 3, 73, 17
4, 475128, Note_off_c, 3, 80, 0
4, 475128, Note_off_c, 3, 41, 0
4, 475128, Note_on_c, 3, 72, 17
4, 475128, Note_on_c, 3, 49, 17
4, 475152, Note_off_c, 3, 79, 0
4, 475152, Note_off_c, 3, 42, 0
4, 475152, Note_on_c, 3, 71, 17
4, 475152, Note_on_c, 3, 50, 17
4, 475176, Note_off_c, 3, 78, 0
4, 475176, Note_off_c, 3, 43, 0
4, 475176, Note_on_c, 3, 51, 17
4, 475176, Note_on_c, 3, 70, 17
4, 475200, Note_off_c, 3, 77, 0
4, 475200, Note_off_c, 3, 44, 0
4, 475200, Note_on_c, 3, 52, 17
4, 475200, Note_on_c, 3, 69, 17
4, 475224, Note_off_c, 3, 76, 0
4, 475224, Note_off_c, 3, 45, 0
4, 475224, Note_on_c, 3, 53, 17
4, 475224, Note_on_c, 3, 68, 17
4, 475248, Note_off_c, 3, 75, 0
4, 475248, Note_off_c, 3, 46, 0
4, 475248, Note_on_c, 3, 54, 17
4, 475248, Note_on_c, 3, 67, 17
4, 475272, Note_off_c, 3, 74, 0
4, 475272, Note_off_c, 3, 47, 0
4, 475272, Note_on_c, 3, 55, 17
4, 475272, Note_on_c, 3, 66, 17
4, 475296, Note_off_c, 3, 73, 0
4, 475296, Note_off_c, 3, 48, 0
4, 475296, Note_on_c, 3, 56, 17
4, 475296, Note_on_c, 3, 65, 17
4, 475320, Note_off_c, 3, 49, 0
4, 475320, Note_off_c, 3, 72, 0
4, 475320, Note_on_c, 3, 57, 17
4, 475320, Note_on_c, 3, 64, 17
4, 475344, Note_off_c, 3, 50, 0
4, 475344, Note_off_c, 3, 71, 0
4, 475344, Note_on_c, 3, 58, 17
4, 475344, Note_on_c, 3, 63, 17
4, 475368, Note_off_c, 3, 70, 0
4, 475368, Note_off_c, 3, 51, 0
4, 475368, Note_on_c, 3, 62, 17
4, 475368, Note_on_c, 3, 59, 17
4, 475392, Note_off_c, 3, 69, 0
4, 475392, Note_off_c, 3, 52, 0
4, 475392, Note_on_c, 3, 60, 17
4, 475392, Note_on_c, 3, 61, 17
4, 475416, Note_off_c, 3, 68, 0
4, 475416, Note_off_c, 3, 53, 0
4, 475416, Note_on_c, 3, 61, 17
4, 475416, Note_on_c, 3, 60, 17
4, 475440, Note_off_c, 3, 67, 0
4, 475440, Note_off_c, 3, 54, 0
4, 475440, Note_on_c, 3, 59, 17
4, 475440, Note_on_c, 3, 62, 17
4, 475464, Note_off_c, 3, 66, 0
4, 475464, Note_off_c, 3, 55, 0
4, 475464, Note_on_c, 3, 63, 17
4, 475464, Note_on_c, 3, 58, 17
4, 475488, Note_off_c, 3, 65, 0
4, 475488, Note_off_c, 3, 56, 0
4, 475488, Note_on_c, 3, 64, 17
4, 475488, Note_on_c, 3, 57, 17
4, 475512, Note_off_c, 3, 64, 0
4, 475512, Note_off_c, 3, 57, 0
4, 475512, Note_on_c, 3, 65, 17
4, 475512, Note_on_c, 3, 56, 17
4, 475536, Note_off_c, 3, 63, 0
4, 475536, Note_off_c, 3, 58, 0
4, 475536, Note_on_c, 3, 66, 17
4, 475536, Note_on_c, 3, 55, 17
4, 475560, Note_off_c, 3, 59, 0
4, 475560, Note_off_c, 3, 62, 0
4, 475560, Note_on_c, 3, 67, 17
4, 475560, Note_on_c, 3, 54, 17
4, 475584, Note_off_c, 3, 61, 0
4, 475584, Note_off_c, 3, 60, 0
4, 475584, Note_on_c, 3, 68, 17
4, 475584, Note_on_c, 3, 53, 17
4, 475608, Note_off_c, 3, 60, 0
4, 475608, Note_off_c, 3, 61, 0
4, 475608, Note_on_c, 3, 69, 17
4, 475608, Note_on_c, 3, 52, 17
4, 475632, Note_off_c, 3, 62, 0
4, 475632, Note_off_c, 3, 59, 0
4, 475632, Note_on_c, 3, 70, 17
4, 475632, Note_on_c, 3, 51, 17
4, 475656, Note_off_c, 3, 58, 0
4, 475656, Note_off_c, 3, 63, 0
4, 475656, Note_on_c, 3, 71, 17
4, 475656, Note_on_c, 3, 50, 17
4, 475680, Note_off_c, 3, 57, 0
4, 475680, Note_off_c, 3, 64, 0
4, 475680, Note_on_c, 3, 72, 17
4, 475680, Note_on_c, 3, 49, 17
4, 475704, Note_off_c, 3, 56, 0
4, 475704, Note_off_c, 3, 65, 0
4, 475704, Note_on_c, 3, 73, 17
4, 475704, Note_on_c, 3, 48, 17
4, 475728, Note_off_c, 3, 55, 0
4, 475728, Note_off_c, 3, 66, 0
4, 475728, Note_on_c, 3, 74, 17
4, 475728, Note_on_c, 3, 47, 17
4, 475752, Note_off_c, 3, 54, 0
4, 475752, Note_off_c, 3, 67, 0
4, 475752, Note_on_c, 3, 75, 17
4, 475752, Note_on_c, 3, 46, 17
4, 475776, Note_off_c, 3, 53, 0
4, 475776, Note_off_c, 3, 68, 0
4, 475776, Note_on_c, 3, 76, 17
4, 475776, Note_on_c, 3, 45, 17
4, 475800, Note_off_c, 3, 52, 0
4, 475800, Note_off_c, 3, 69, 0
4, 475800, Note_on_c, 3, 77, 17
4, 475800, Note_on_c, 3, 44, 17
4, 475824, Note_off_c, 3, 51, 0
4, 475824, Note_off_c, 3, 70, 0
4, 475824, Note_on_c, 3, 78, 17
4, 475824, Note_on_c, 3, 43, 17
4, 475848, Note_off_c, 3, 50, 0
4, 475848, Note_off_c, 3, 71, 0
4, 475848, Note_on_c, 3, 79, 17
4, 475848, Note_on_c, 3, 42, 17
4, 475872, Note_off_c, 3, 49, 0
4, 475872, Note_off_c, 3, 72, 0
4, 475872, Note_on_c, 3, 80, 17
4, 475872, Note_on_c, 3, 41, 17
4, 475896, Note_off_c, 3, 48, 0
4, 475896, Note_off_c, 3, 73, 0
4, 475896, Note_on_c, 3, 81, 17
4, 475896, Note_on_c, 3, 40, 17
4, 475920, Note_off_c, 3, 47, 0
4, 475920, Note_off_c, 3, 74, 0
4, 475920, Note_on_c, 3, 82, 17
4, 475920, Note_on_c, 3, 39, 17
4, 475944, Note_off_c, 3, 46, 0
4, 475944, Note_off_c, 3, 75, 0
4, 475944, Note_on_c, 3, 83, 17
4, 475944, Note_on_c, 3, 38, 17
4, 475968, Note_off_c, 3, 45, 0
4, 475968, Note_off_c, 3, 76, 0
4, 475968, Note_on_c, 3, 84, 17
4, 475968, Note_on_c, 3, 37, 17
4, 475992, Note_off_c, 3, 44, 0
4, 475992, Note_off_c, 3, 77, 0
4, 475992, Note_on_c, 3, 85, 17
4, 475992, Note_on_c, 3, 36, 17
4, 476016, Note_off_c, 3, 43, 0
4, 476016, Note_off_c, 3, 78, 0
4, 476016, Note_on_c, 3, 86, 17
4, 476016, Note_on_c, 3, 35, 17
4, 476040, Note_off_c, 3, 42, 0
4, 476040, Note_off_c, 3, 79, 0
4, 476040, Note_on_c, 3, 87, 17
4, 476040, Note_on_c, 3, 34, 17
4, 476064, Note_off_c, 3, 41, 0
4, 476064, Note_off_c, 3, 80, 0
4, 476064, Note_on_c, 3, 88, 17
4, 476064, Note_on_c, 3, 33, 17
4, 476088, Note_off_c, 3, 40, 0
4, 476088, Note_off_c, 3, 81, 0
4, 476088, Note_on_c, 3, 89, 17
4, 476088, Note_on_c, 3, 32, 17
4, 476112, Note_off_c, 3, 39, 0
4, 476112, Note_off_c, 3, 82, 0
4, 476112, Note_on_c, 3, 90, 17
4, 476112, Note_on_c, 3, 31, 17
4, 476136, Note_off_c, 3, 38, 0
4, 476136, Note_off_c, 3, 83, 0
4, 476136, Note_on_c, 3, 91, 17
4, 476136, Note_on_c, 3, 30, 17
4, 476160, Note_off_c, 3, 37, 0
4, 476160, Note_off_c, 3, 84, 0
4, 476184, Note_off_c, 3, 36, 0
4, 476184, Note_off_c, 3, 85, 0
4, 476184, Note_on_c, 3, 28, 17
4, 476184, Note_on_c, 3, 93, 17
4, 476208, Note_off_c, 3, 35, 0
4, 476208, Note_off_c, 3, 86, 0
4, 476208, Note_on_c, 3, 29, 17
4, 476208, Note_on_c, 3, 92, 17
4, 476232, Note_off_c, 3, 34, 0
4, 476232, Note_off_c, 3, 87, 0
4, 476232, Note_on_c, 3, 30, 17
4, 476232, Note_on_c, 3, 91, 17
4, 476256, Note_off_c, 3, 33, 0
4, 476256, Note_off_c, 3, 88, 0
4, 476256, Note_on_c, 3, 31, 17
4, 476256, Note_on_c, 3, 90, 17
4, 476280, Note_off_c, 3, 32, 0
4, 476280, Note_off_c, 3, 89, 0
4, 476280, Note_on_c, 3, 32, 17
4, 476280, Note_on_c, 3, 89, 17
4, 476304, Note_off_c, 3, 31, 0
4, 476304, Note_off_c, 3, 90, 0
4, 476304, Note_on_c, 3, 33, 17
4, 476304, Note_on_c, 3, 88, 17
4, 476328, Note_off_c, 3, 30, 0
4, 476328, Note_off_c, 3, 91, 0
4, 476328, Note_on_c, 3, 34, 17
4, 476328, Note_on_c, 3, 87, 17
4, 476352, Note_on_c, 3, 35, 17
4, 476352, Note_on_c, 3, 86, 17
4, 476376, Note_off_c, 3, 93, 0
4, 476376, Note_off_c, 3, 28, 0
4, 476376, Note_on_c, 3, 36, 17
4, 476376, Note_on_c, 3, 85, 17
4, 476400, Note_off_c, 3, 92, 0
4, 476400, Note_off_c, 3, 29, 0
4, 476400, Note_on_c, 3, 37, 17
4, 476400, Note_on_c, 3, 84, 17
4, 476424, Note_off_c, 3, 91, 0
4, 476424, Note_off_c, 3, 30, 0
4, 476424, Note_on_c, 3, 38, 17
4, 476424, Note_on_c, 3, 83, 17
4, 476448, Note_off_c, 3, 90, 0
4, 476448, Note_off_c, 3, 31, 0
4, 476448, Note_on_c, 3, 39, 17
4, 476448, Note_on_c, 3, 82, 17
4, 476472, Note_off_c, 3, 89, 0
4, 476472, Note_off_c, 3, 32, 0
4, 476472, Note_on_c, 3, 40, 17
4, 476472, Note_on_c, 3, 81, 17
4, 476496, Note_off_c, 3, 88, 0
4, 476496, Note_off_c, 3, 33, 0
4, 476496, Note_on_c, 3, 41, 17
4, 476496, Note_on_c, 3, 80, 17
4, 476520, Note_off_c, 3, 87, 0
4, 476520, Note_off_c, 3, 34, 0
4, 476520, Note_on_c, 3, 42, 17
4, 476520, Note_on_c, 3, 79, 17
4, 476544, Note_off_c, 3, 86, 0
4, 476544, Note_off_c, 3, 35, 0
4, 476544, Note_on_c, 3, 43, 17
4, 476544, Note_on_c, 3, 78, 17
4, 476568, Note_off_c, 3, 85, 0
4, 476568, Note_off_c, 3, 36, 0
4, 476568, Note_on_c, 3, 44, 17
4, 476568, Note_on_c, 3, 77, 17
4, 476592, Note_off_c, 3, 84, 0
4, 476592, Note_off_c, 3, 37, 0
4, 476592, Note_on_c, 3, 45, 17
4, 476592, Note_on_c, 3, 76, 17
4, 476616, Note_off_c, 3, 83, 0
4, 476616, Note_off_c, 3, 38, 0
4, 476616, Note_on_c, 3, 46, 17
4, 476616, Note_on_c, 3, 75, 17
4, 476640, Note_off_c, 3, 82, 0
4, 476640, Note_off_c, 3, 39, 0
4, 476640, Note_on_c, 3, 47, 17
4, 476640, Note_on_c, 3, 74, 17
4, 476664, Note_off_c, 3, 81, 0
4, 476664, Note_off_c, 3, 40, 0
4, 476664, Note_on_c, 3, 48, 17
4, 476664, Note_on_c, 3, 73, 17
4, 476688, Note_off_c, 3, 80, 0
4, 476688, Note_off_c, 3, 41, 0
4, 476688, Note_on_c, 3, 72, 17
4, 476688, Note_on_c, 3, 49, 17
4, 476712, Note_off_c, 3, 79, 0
4, 476712, Note_off_c, 3, 42, 0
4, 476712, Note_on_c, 3, 71, 17
4, 476712, Note_on_c, 3, 50, 17
4, 476736, Note_off_c, 3, 78, 0
4, 476736, Note_off_c, 3, 43, 0
4, 476736, Note_on_c, 3, 51, 17
4, 476736, Note_on_c, 3, 70, 17
4, 476760, Note_off_c, 3, 77, 0
4, 476760, Note_off_c, 3, 44, 0
4, 476760, Note_on_c, 3, 52, 17
4, 476760, Note_on_c, 3, 69, 17
4, 476784, Note_off_c, 3, 76, 0
4, 476784, Note_off_c, 3, 45, 0
4, 476784, Note_on_c, 3, 53, 17
4, 476784, Note_on_c, 3, 68, 17
4, 476808, Note_off_c, 3, 75, 0
4, 476808, Note_off_c, 3, 46, 0
4, 476808, Note_on_c, 3, 54, 17
4, 476808, Note_on_c, 3, 67, 17
4, 476832, Note_off_c, 3, 74, 0
4, 476832, Note_off_c, 3, 47, 0
4, 476832, Note_on_c, 3, 55, 17
4, 476832, Note_on_c, 3, 66, 17
4, 476856, Note_off_c, 3, 73, 0
4, 476856, Note_off_c, 3, 48, 0
4, 476856, Note_on_c, 3, 56, 17
4, 476856, Note_on_c, 3, 65, 17
4, 476880, Note_off_c, 3, 49, 0
4, 476880, Note_off_c, 3, 72, 0
4, 476880, Note_on_c, 3, 57, 17
4, 476880, Note_on_c, 3, 64, 17
4, 476904, Note_off_c, 3, 50, 0
4, 476904, Note_off_c, 3, 71, 0
4, 476904, Note_on_c, 3, 58, 17
4, 476904, Note_on_c, 3, 63, 17
4, 476928, Note_off_c, 3, 70, 0
4, 476928, Note_off_c, 3, 51, 0
4, 476928, Note_on_c, 3, 62, 17
4, 476928, Note_on_c, 3, 59, 17
4, 476952, Note_off_c, 3, 69, 0
4, 476952, Note_off_c, 3, 52, 0
4, 476952, Note_on_c, 3, 60, 17
4, 476952, Note_on_c, 3, 61, 17
4, 476976, Note_off_c, 3, 68, 0
4, 476976, Note_off_c, 3, 53, 0
4, 476976, Note_on_c, 3, 61, 17
4, 476976, Note_on_c, 3, 60, 17
4, 477000, Note_off_c, 3, 67, 0
4, 477000, Note_off_c, 3, 54, 0
4, 477000, Note_on_c, 3, 59, 17
4, 477000, Note_on_c, 3, 62, 17
4, 477024, Note_off_c, 3, 66, 0
4, 477024, Note_off_c, 3, 55, 0
4, 477024, Note_on_c, 3, 63, 17
4, 477024, Note_on_c, 3, 58, 17
4, 477048, Note_off_c, 3, 65, 0
4, 477048, Note_off_c, 3, 56, 0
4, 477048, Note_on_c, 3, 64, 17
4, 477048, Note_on_c, 3, 57, 17
4, 477072, Note_off_c, 3, 64, 0
4, 477072, Note_off_c, 3, 57, 0
4, 477072, Note_on_c, 3, 65, 17
4, 477072, Note_on_c, 3, 56, 17
4, 477096, Note_off_c, 3, 63, 0
4, 477096, Note_off_c, 3, 58, 0
4, 477096, Note_on_c, 3, 66, 17
4, 477096, Note_on_c, 3, 55, 17
4, 477120, Note_off_c, 3, 59, 0
4, 477120, Note_off_c, 3, 62, 0
4, 477120, Note_on_c, 3, 67, 17
4, 477120, Note_on_c, 3, 54, 17
4, 477144, Note_off_c, 3, 61, 0
4, 477144, Note_off_c, 3, 60, 0
4, 477144, Note_on_c, 3, 68, 17
4, 477144, Note_on_c, 3, 53, 17
4, 477168, Note_off_c, 3, 60, 0
4, 477168, Note_off_c, 3, 61, 0
4, 477168, Note_on_c, 3, 69, 17
4, 477168, Note_on_c, 3, 52, 17
4, 477192, Note_off_c, 3, 62, 0
4, 477192, Note_off_c, 3, 59, 0
4, 477192, Note_on_c, 3, 70, 17
4, 477192, Note_on_c, 3, 51, 17
4, 477216, Note_off_c, 3, 58, 0
4, 477216, Note_off_c, 3, 63, 0
4, 477216, Note_on_c, 3, 71, 17
4, 477216, Note_on_c, 3, 50, 17
4, 477240, Note_off_c, 3, 57, 0
4, 477240, Note_off_c, 3, 64, 0
4, 477240, Note_on_c, 3, 72, 17
4, 477240, Note_on_c, 3, 49, 17
4, 477264, Note_off_c, 3, 56, 0
4, 477264, Note_off_c, 3, 65, 0
4, 477264, Note_on_c, 3, 73, 17
4, 477264, Note_on_c, 3, 48, 17
4, 477288, Note_off_c, 3, 55, 0
4, 477288, Note_off_c, 3, 66, 0
4, 477288, Note_on_c, 3, 74, 17
4, 477288, Note_on_c, 3, 47, 17
4, 477312, Note_off_c, 3, 54, 0
4, 477312, Note_off_c, 3, 67, 0
4, 477312, Note_on_c, 3, 75, 17
4, 477312, Note_on_c, 3, 46, 17
4, 477336, Note_off_c, 3, 53, 0
4, 477336, Note_off_c, 3, 68, 0
4, 477336, Note_on_c, 3, 76, 17
4, 477336, Note_on_c, 3, 45, 17
4, 477360, Note_off_c, 3, 52, 0
4, 477360, Note_off_c, 3, 69, 0
4, 477360, Note_on_c, 3, 77, 17
4, 477360, Note_on_c, 3, 44, 17
4, 477384, Note_off_c, 3, 51, 0
4, 477384, Note_off_c, 3, 70, 0
4, 477384, Note_on_c, 3, 78, 17
4, 477384, Note_on_c, 3, 43, 17
4, 477408, Note_off_c, 3, 50, 0
4, 477408, Note_off_c, 3, 71, 0
4, 477408, Note_on_c, 3, 79, 17
4, 477408, Note_on_c, 3, 42, 17
4, 477432, Note_off_c, 3, 49, 0
4, 477432, Note_off_c, 3, 72, 0
4, 477432, Note_on_c, 3, 80, 17
4, 477432, Note_on_c, 3, 41, 17
4, 477456, Note_off_c, 3, 48, 0
4, 477456, Note_off_c, 3, 73, 0
4, 477456, Note_on_c, 3, 81, 17
4, 477456, Note_on_c, 3, 40, 17
4, 477480, Note_off_c, 3, 47, 0
4, 477480, Note_off_c, 3, 74, 0
4, 477480, Note_on_c, 3, 82, 17
4, 477480, Note_on_c, 3, 39, 17
4, 477504, Note_off_c, 3, 46, 0
4, 477504, Note_off_c, 3, 75, 0
4, 477504, Note_on_c, 3, 83, 17
4, 477504, Note_on_c, 3, 38, 17
4, 477528, Note_off_c, 3, 45, 0
4, 477528, Note_off_c, 3, 76, 0
4, 477528, Note_on_c, 3, 84, 17
4, 477528, Note_on_c, 3, 37, 17
4, 477552, Note_off_c, 3, 44, 0
4, 477552, Note_off_c, 3, 77, 0
4, 477552, Note_on_c, 3, 85, 17
4, 477552, Note_on_c, 3, 36, 17
4, 477576, Note_off_c, 3, 43, 0
4, 477576, Note_off_c, 3, 78, 0
4, 477576, Note_on_c, 3, 86, 17
4, 477576, Note_on_c, 3, 35, 17
4, 477600, Note_off_c, 3, 42, 0
4, 477600, Note_off_c, 3, 79, 0
4, 477600, Note_on_c, 3, 87, 17
4, 477600, Note_on_c, 3, 34, 17
4, 477624, Note_off_c, 3, 41, 0
4, 477624, Note_off_c, 3, 80, 0
4, 477624, Note_on_c, 3, 88, 17
4, 477624, Note_on_c, 3, 33, 17
4, 477648, Note_off_c, 3, 40, 0
4, 477648, Note_off_c, 3, 81, 0
4, 477648, Note_on_c, 3, 89, 17
4, 477648, Note_on_c, 3, 32, 17
4, 477672, Note_off_c, 3, 39, 0
4, 477672, Note_off_c, 3, 82, 0
4, 477672, Note_on_c, 3, 90, 17
4, 477672, Note_on_c, 3, 31, 17
4, 477696, Note_off_c, 3, 38, 0
4, 477696, Note_off_c, 3, 83, 0
4, 477696, Note_on_c, 3, 95, 24
4, 477696, Note_on_c, 3, 94, 24
4, 477696, Note_on_c, 3, 93, 24
4, 477696, Note_on_c, 3, 92, 24
4, 477696, Note_on_c, 3, 91, 24
4, 477696, Note_on_c, 3, 90, 24
4, 477696, Note_on_c, 3, 88, 24
4, 477696, Note_on_c, 3, 89, 24
4, 477696, Note_on_c, 3, 87, 24
4, 477696, Note_on_c, 3, 86, 24
4, 477696, Note_on_c, 3, 85, 24
4, 477696, Note_on_c, 3, 84, 24
4, 477696, Note_on_c, 3, 83, 24
4, 477696, Note_on_c, 3, 81, 24
4, 477696, Note_on_c, 3, 82, 24
4, 477696, Note_on_c, 3, 79, 24
4, 477696, Note_on_c, 3, 80, 24
4, 477696, Note_on_c, 3, 78, 24
4, 477696, Note_on_c, 3, 76, 24
4, 477696, Note_on_c, 3, 77, 24
4, 477696, Note_on_c, 3, 75, 24
4, 477696, Note_on_c, 3, 74, 24
4, 477696, Note_on_c, 3, 72, 24
4, 477696, Note_on_c, 3, 69, 24
4, 477696, Note_on_c, 3, 65, 24
4, 477696, Note_on_c, 3, 59, 24
4, 477696, Note_on_c, 3, 55, 24
4, 477696, Note_on_c, 3, 51, 24
4, 477696, Note_on_c, 3, 49, 24
4, 477696, Note_on_c, 3, 62, 24
4, 477696, Note_on_c, 3, 63, 24
4, 477696, Note_on_c, 3, 64, 24
4, 477696, Note_on_c, 3, 67, 24
4, 477696, Note_on_c, 3, 66, 24
4, 477696, Note_on_c, 3, 68, 24
4, 477696, Note_on_c, 3, 70, 24
4, 477696, Note_on_c, 3, 71, 24
4, 477696, Note_on_c, 3, 73, 24
4, 477696, Note_on_c, 3, 61, 24
4, 477696, Note_on_c, 3, 60, 24
4, 477696, Note_on_c, 3, 58, 24
4, 477696, Note_on_c, 3, 57, 24
4, 477696, Note_on_c, 3, 56, 24
4, 477696, Note_on_c, 3, 53, 24
4, 477696, Note_on_c, 3, 54, 24
4, 477696, Note_on_c, 3, 52, 24
4, 477696, Note_on_c, 3, 50, 24
4, 477696, Note_on_c, 3, 48, 24
4, 477696, Note_on_c, 3, 47, 24
4, 477696, Note_on_c, 3, 46, 24
4, 477696, Note_on_c, 3, 45, 24
4, 477696, Note_on_c, 3, 44, 24
4, 477696, Note_on_c, 3, 42, 24
4, 477696, Note_on_c, 3, 43, 24
4, 477696, Note_on_c, 3, 41, 24
4, 477696, Note_on_c, 3, 40, 24
4, 477696, Note_on_c, 3, 39, 24
4, 477696, Note_on_c, 3, 38, 24
4, 477696, Note_on_c, 3, 37, 24
4, 477696, Note_on_c, 3, 36, 24
4, 477696, Note_on_c, 3, 35, 24
4, 477696, Note_on_c, 3, 34, 24
4, 477696, Note_on_c, 3, 32, 24
4, 477696, Note_on_c, 3, 33, 24
4, 477696, Note_on_c, 3, 31, 24
4, 477696, Note_on_c, 3, 30, 24
4, 477696, Note_on_c, 3, 29, 24
4, 477696, Note_on_c, 3, 28, 24
4, 477696, Note_on_c, 3, 27, 24
4, 477696, Note_on_c, 3, 25, 24
4, 477696, Note_on_c, 3, 26, 24
4, 477696, Note_on_c, 3, 24, 24
4, 477696, Note_on_c, 3, 33, 43
4, 477696, Note_on_c, 3, 91, 17
4, 477696, Note_on_c, 3, 30, 17
4, 477696, Note_on_c, 3, 28, 17
4, 477696, Note_on_c, 3, 93, 17
4, 477720, Note_off_c, 3, 37, 0
4, 477720, Note_off_c, 3, 84, 0
4, 477720, Note_on_c, 3, 34, 43
4, 477720, Note_on_c, 3, 29, 17
4, 477720, Note_on_c, 3, 92, 17
4, 477744, Note_off_c, 3, 36, 0
4, 477744, Note_off_c, 3, 85, 0
4, 477744, Note_on_c, 3, 35, 43
4, 477744, Note_on_c, 3, 30, 17
4, 477744, Note_on_c, 3, 91, 17
4, 477768, Note_off_c, 3, 35, 0
4, 477768, Note_off_c, 3, 86, 0
4, 477768, Note_on_c, 3, 36, 43
4, 477768, Note_on_c, 3, 31, 17
4, 477768, Note_on_c, 3, 90, 17
4, 477792, Note_off_c, 3, 34, 0
4, 477792, Note_off_c, 3, 87, 0
4, 477792, Note_on_c, 3, 37, 43
4, 477792, Note_on_c, 3, 32, 17
4, 477792, Note_on_c, 3, 89, 17
4, 477816, Note_off_c, 3, 33, 0
4, 477816, Note_off_c, 3, 88, 0
4, 477816, Note_on_c, 3, 38, 43
4, 477816, Note_on_c, 3, 33, 17
4, 477816, Note_on_c, 3, 88, 17
4, 477840, Note_off_c, 3, 32, 0
4, 477840, Note_off_c, 3, 89, 0
4, 477840, Note_on_c, 3, 39, 43
4, 477840, Note_on_c, 3, 34, 17
4, 477840, Note_on_c, 3, 87, 17
4, 477864, Note_off_c, 3, 31, 0
4, 477864, Note_off_c, 3, 90, 0
4, 477864, Note_on_c, 3, 40, 43
4, 477864, Note_on_c, 3, 35, 17
4, 477864, Note_on_c, 3, 86, 17
4, 477888, Note_off_c, 3, 93, 0
4, 477888, Note_off_c, 3, 28, 0
4, 477888, Note_off_c, 3, 30, 0
4, 477888, Note_off_c, 3, 91, 0
4, 477888, Note_off_c, 3, 33, 0
4, 477888, Note_on_c, 3, 41, 43
4, 477888, Note_on_c, 3, 36, 17
4, 477888, Note_on_c, 3, 85, 17
4, 477912, Note_off_c, 3, 92, 0
4, 477912, Note_off_c, 3, 29, 0
4, 477912, Note_off_c, 3, 34, 0
4, 477912, Note_on_c, 3, 42, 43
4, 477912, Note_on_c, 3, 37, 17
4, 477912, Note_on_c, 3, 84, 17
4, 477936, Note_off_c, 3, 91, 0
4, 477936, Note_off_c, 3, 30, 0
4, 477936, Note_off_c, 3, 35, 0
4, 477936, Note_on_c, 3, 43, 43
4, 477936, Note_on_c, 3, 38, 17
4, 477936, Note_on_c, 3, 83, 17
4, 477960, Note_off_c, 3, 90, 0
4, 477960, Note_off_c, 3, 31, 0
4, 477960, Note_off_c, 3, 36, 0
4, 477960, Note_on_c, 3, 44, 43
4, 477960, Note_on_c, 3, 39, 17
4, 477960, Note_on_c, 3, 82, 17
4, 477984, Note_off_c, 3, 89, 0
4, 477984, Note_off_c, 3, 32, 0
4, 477984, Note_off_c, 3, 37, 0
4, 477984, Note_on_c, 3, 45, 43
4, 477984, Note_on_c, 3, 40, 17
4, 477984, Note_on_c, 3, 81, 17
4, 478008, Note_off_c, 3, 88, 0
4, 478008, Note_off_c, 3, 33, 0
4, 478008, Note_off_c, 3, 38, 0
4, 478008, Note_on_c, 3, 46, 43
4, 478008, Note_on_c, 3, 41, 17
4, 478008, Note_on_c, 3, 80, 17
4, 478032, Note_off_c, 3, 87, 0
4, 478032, Note_off_c, 3, 34, 0
4, 478032, Note_off_c, 3, 39, 0
4, 478032, Note_on_c, 3, 47, 43
4, 478032, Note_on_c, 3, 42, 17
4, 478032, Note_on_c, 3, 79, 17
4, 478056, Note_off_c, 3, 86, 0
4, 478056, Note_off_c, 3, 35, 0
4, 478056, Note_off_c, 3, 40, 0
4, 478056, Note_on_c, 3, 48, 43
4, 478056, Note_on_c, 3, 43, 17
4, 478056, Note_on_c, 3, 78, 17
4, 478080, Note_off_c, 3, 85, 0
4, 478080, Note_off_c, 3, 36, 0
4, 478080, Note_off_c, 3, 41, 0
4, 478080, Note_off_c, 3, 24, 0
4, 478080, Note_off_c, 3, 26, 0
4, 478080, Note_off_c, 3, 25, 0
4, 478080, Note_off_c, 3, 27, 0
4, 478080, Note_off_c, 3, 28, 0
4, 478080, Note_off_c, 3, 29, 0
4, 478080, Note_off_c, 3, 30, 0
4, 478080, Note_off_c, 3, 31, 0
4, 478080, Note_off_c, 3, 33, 0
4, 478080, Note_off_c, 3, 32, 0
4, 478080, Note_off_c, 3, 34, 0
4, 478080, Note_off_c, 3, 35, 0
4, 478080, Note_off_c, 3, 36, 0
4, 478080, Note_off_c, 3, 37, 0
4, 478080, Note_off_c, 3, 38, 0
4, 478080, Note_off_c, 3, 39, 0
4, 478080, Note_off_c, 3, 40, 0
4, 478080, Note_off_c, 3, 41, 0
4, 478080, Note_off_c, 3, 43, 0
4, 478080, Note_off_c, 3, 42, 0
4, 478080, Note_off_c, 3, 44, 0
4, 478080, Note_off_c, 3, 45, 0
4, 478080, Note_off_c, 3, 46, 0
4, 478080, Note_off_c, 3, 47, 0
4, 478080, Note_off_c, 3, 48, 0
4, 478080, Note_off_c, 3, 50, 0
4, 478080, Note_off_c, 3, 52, 0
4, 478080, Note_off_c, 3, 54, 0
4, 478080, Note_off_c, 3, 53, 0
4, 478080, Note_off_c, 3, 56, 0
4, 478080, Note_off_c, 3, 57, 0
4, 478080, Note_off_c, 3, 58, 0
4, 478080, Note_off_c, 3, 60, 0
4, 478080, Note_off_c, 3, 61, 0
4, 478080, Note_off_c, 3, 73, 0
4, 478080, Note_off_c, 3, 71, 0
4, 478080, Note_off_c, 3, 70, 0
4, 478080, Note_off_c, 3, 68, 0
4, 478080, Note_off_c, 3, 66, 0
4, 478080, Note_off_c, 3, 67, 0
4, 478080, Note_off_c, 3, 64, 0
4, 478080, Note_off_c, 3, 63, 0
4, 478080, Note_off_c, 3, 62, 0
4, 478080, Note_off_c, 3, 49, 0
4, 478080, Note_off_c, 3, 51, 0
4, 478080, Note_off_c, 3, 55, 0
4, 478080, Note_off_c, 3, 59, 0
4, 478080, Note_off_c, 3, 65, 0
4, 478080, Note_off_c, 3, 69, 0
4, 478080, Note_off_c, 3, 72, 0
4, 478080, Note_off_c, 3, 74, 0
4, 478080, Note_off_c, 3, 75, 0
4, 478080, Note_off_c, 3, 77, 0
4, 478080, Note_off_c, 3, 76, 0
4, 478080, Note_off_c, 3, 78, 0
4, 478080, Note_off_c, 3, 80, 0
4, 478080, Note_off_c, 3, 79, 0
4, 478080, Note_off_c, 3, 82, 0
4, 478080, Note_off_c, 3, 81, 0
4, 478080, Note_off_c, 3, 83, 0
4, 478080, Note_off_c, 3, 84, 0
4, 478080, Note_off_c, 3, 85, 0
4, 478080, Note_off_c, 3, 86, 0
4, 478080, Note_off_c, 3, 87, 0
4, 478080, Note_off_c, 3, 89, 0
4, 478080, Note_off_c, 3, 88, 0
4, 478080, Note_off_c, 3, 90, 0
4, 478080, Note_off_c, 3, 91, 0
4, 478080, Note_off_c, 3, 92, 0
4, 478080, Note_off_c, 3, 93, 0
4, 478080, Note_off_c, 3, 94, 0
4, 478080, Note_off_c, 3, 95, 0
4, 478080, Note_on_c, 3, 49, 43
4, 478080, Note_on_c, 3, 44, 17
4, 478080, Note_on_c, 3, 77, 17
4, 478080, Note_on_c, 3, 34, 43
4, 478080, Note_on_c, 3, 33, 43
4, 478104, Note_off_c, 3, 84, 0
4, 478104, Note_off_c, 3, 37, 0
4, 478104, Note_off_c, 3, 42, 0
4, 478104, Note_on_c, 3, 50, 43
4, 478104, Note_on_c, 3, 45, 17
4, 478104, Note_on_c, 3, 76, 17
4, 478104, Note_on_c, 3, 35, 43
4, 478128, Note_off_c, 3, 83, 0
4, 478128, Note_off_c, 3, 38, 0
4, 478128, Note_off_c, 3, 43, 0
4, 478128, Note_on_c, 3, 51, 43
4, 478128, Note_on_c, 3, 46, 17
4, 478128, Note_on_c, 3, 75, 17
4, 478128, Note_on_c, 3, 36, 43
4, 478152, Note_off_c, 3, 82, 0
4, 478152, Note_off_c, 3, 39, 0
4, 478152, Note_off_c, 3, 44, 0
4, 478152, Note_on_c, 3, 52, 43
4, 478152, Note_on_c, 3, 47, 17
4, 478152, Note_on_c, 3, 74, 17
4, 478152, Note_on_c, 3, 37, 43
4, 478176, Note_off_c, 3, 81, 0
4, 478176, Note_off_c, 3, 40, 0
4, 478176, Note_off_c, 3, 45, 0
4, 478176, Note_on_c, 3, 53, 43
4, 478176, Note_on_c, 3, 48, 17
4, 478176, Note_on_c, 3, 73, 17
4, 478176, Note_on_c, 3, 38, 43
4, 478200, Note_off_c, 3, 80, 0
4, 478200, Note_off_c, 3, 41, 0
4, 478200, Note_off_c, 3, 46, 0
4, 478200, Note_on_c, 3, 54, 43
4, 478200, Note_on_c, 3, 72, 17
4, 478200, Note_on_c, 3, 49, 17
4, 478200, Note_on_c, 3, 39, 43
4, 478224, Note_off_c, 3, 79, 0
4, 478224, Note_off_c, 3, 42, 0
4, 478224, Note_off_c, 3, 47, 0
4, 478224, Note_on_c, 3, 55, 43
4, 478224, Note_on_c, 3, 71, 17
4, 478224, Note_on_c, 3, 50, 17
4, 478224, Note_on_c, 3, 40, 43
4, 478248, Note_off_c, 3, 78, 0
4, 478248, Note_off_c, 3, 43, 0
4, 478248, Note_off_c, 3, 48, 0
4, 478248, Note_on_c, 3, 56, 43
4, 478248, Note_on_c, 3, 51, 17
4, 478248, Note_on_c, 3, 70, 17
4, 478248, Note_on_c, 3, 41, 43
4, 478272, Note_off_c, 3, 33, 0
4, 478272, Note_off_c, 3, 34, 0
4, 478272, Note_off_c, 3, 77, 0
4, 478272, Note_off_c, 3, 44, 0
4, 478272, Note_off_c, 3, 49, 0
4, 478272, Note_on_c, 3, 57, 43
4, 478272, Note_on_c, 3, 52, 17
4, 478272, Note_on_c, 3, 69, 17
4, 478272, Note_on_c, 3, 42, 43
4, 478272, Note_on_c, 3, 34, 43
4, 478296, Note_off_c, 3, 35, 0
4, 478296, Note_off_c, 3, 76, 0
4, 478296, Note_off_c, 3, 45, 0
4, 478296, Note_off_c, 3, 50, 0
4, 478296, Note_on_c, 3, 58, 43
4, 478296, Note_on_c, 3, 53, 17
4, 478296, Note_on_c, 3, 68, 17
4, 478296, Note_on_c, 3, 43, 43
4, 478296, Note_on_c, 3, 35, 43
4, 478320, Note_off_c, 3, 36, 0
4, 478320, Note_off_c, 3, 75, 0
4, 478320, Note_off_c, 3, 46, 0
4, 478320, Note_off_c, 3, 51, 0
4, 478320, Note_on_c, 3, 59, 43
4, 478320, Note_on_c, 3, 54, 17
4, 478320, Note_on_c, 3, 67, 17
4, 478320, Note_on_c, 3, 44, 43
4, 478320, Note_on_c, 3, 36, 43
4, 478344, Note_off_c, 3, 37, 0
4, 478344, Note_off_c, 3, 74, 0
4, 478344, Note_off_c, 3, 47, 0
4, 478344, Note_off_c, 3, 52, 0
4, 478344, Note_on_c, 3, 60, 43
4, 478344, Note_on_c, 3, 55, 17
4, 478344, Note_on_c, 3, 66, 17
4, 478344, Note_on_c, 3, 45, 43
4, 478344, Note_on_c, 3, 37, 43
4, 478368, Note_off_c, 3, 38, 0
4, 478368, Note_off_c, 3, 73, 0
4, 478368, Note_off_c, 3, 48, 0
4, 478368, Note_off_c, 3, 53, 0
4, 478368, Note_on_c, 3, 61, 43
4, 478368, Note_on_c, 3, 56, 17
4, 478368, Note_on_c, 3, 65, 17
4, 478368, Note_on_c, 3, 46, 43
4, 478368, Note_on_c, 3, 38, 43
4, 478392, Note_off_c, 3, 39, 0
4, 478392, Note_off_c, 3, 49, 0
4, 478392, Note_off_c, 3, 72, 0
4, 478392, Note_off_c, 3, 54, 0
4, 478392, Note_on_c, 3, 62, 43
4, 478392, Note_on_c, 3, 57, 17
4, 478392, Note_on_c, 3, 64, 17
4, 478392, Note_on_c, 3, 47, 43
4, 478392, Note_on_c, 3, 39, 43
4, 478416, Note_off_c, 3, 40, 0
4, 478416, Note_off_c, 3, 50, 0
4, 478416, Note_off_c, 3, 71, 0
4, 478416, Note_off_c, 3, 55, 0
4, 478416, Note_on_c, 3, 63, 43
4, 478416, Note_on_c, 3, 58, 17
4, 478416, Note_on_c, 3, 63, 17
4, 478416, Note_on_c, 3, 48, 43
4, 478416, Note_on_c, 3, 40, 43
4, 478440, Note_off_c, 3, 41, 0
4, 478440, Note_off_c, 3, 70, 0
4, 478440, Note_off_c, 3, 51, 0
4, 478440, Note_off_c, 3, 56, 0
4, 478440, Note_on_c, 3, 64, 43
4, 478440, Note_on_c, 3, 62, 17
4, 478440, Note_on_c, 3, 59, 17
4, 478440, Note_on_c, 3, 49, 43
4, 478440, Note_on_c, 3, 41, 43
4, 478464, Note_off_c, 3, 34, 0
4, 478464, Note_off_c, 3, 42, 0
4, 478464, Note_off_c, 3, 69, 0
4, 478464, Note_off_c, 3, 52, 0
4, 478464, Note_off_c, 3, 57, 0
4, 478464, Note_on_c, 3, 65, 43
4, 478464, Note_on_c, 3, 60, 17
4, 478464, Note_on_c, 3, 61, 17
4, 478464, Note_on_c, 3, 50, 43
4, 478464, Note_on_c, 3, 42, 43
4, 478464, Note_on_c, 3, 34, 43
4, 478488, Note_off_c, 3, 35, 0
4, 478488, Note_off_c, 3, 43, 0
4, 478488, Note_off_c, 3, 68, 0
4, 478488, Note_off_c, 3, 53, 0
4, 478488, Note_off_c, 3, 58, 0
4, 478488, Note_on_c, 3, 66, 43
4, 478488, Note_on_c, 3, 61, 17
4, 478488, Note_on_c, 3, 60, 17
4, 478488, Note_on_c, 3, 51, 43
4, 478488, Note_on_c, 3, 43, 43
4, 478488, Note_on_c, 3, 35, 43
4, 478512, Note_off_c, 3, 36, 0
4, 478512, Note_off_c, 3, 44, 0
4, 478512, Note_off_c, 3, 67, 0
4, 478512, Note_off_c, 3, 54, 0
4, 478512, Note_off_c, 3, 59, 0
4, 478512, Note_on_c, 3, 67, 43
4, 478512, Note_on_c, 3, 59, 17
4, 478512, Note_on_c, 3, 62, 17
4, 478512, Note_on_c, 3, 52, 43
4, 478512, Note_on_c, 3, 44, 43
4, 478512, Note_on_c, 3, 36, 43
4, 478536, Note_off_c, 3, 37, 0
4, 478536, Note_off_c, 3, 45, 0
4, 478536, Note_off_c, 3, 66, 0
4, 478536, Note_off_c, 3, 55, 0
4, 478536, Note_off_c, 3, 60, 0
4, 478536, Note_on_c, 3, 68, 43
4, 478536, Note_on_c, 3, 63, 17
4, 478536, Note_on_c, 3, 58, 17
4, 478536, Note_on_c, 3, 53, 43
4, 478536, Note_on_c, 3, 45, 43
4, 478536, Note_on_c, 3, 37, 43
4, 478560, Note_off_c, 3, 38, 0
4, 478560, Note_off_c, 3, 46, 0
4, 478560, Note_off_c, 3, 65, 0
4, 478560, Note_off_c, 3, 56, 0
4, 478560, Note_off_c, 3, 61, 0
4, 478560, Note_on_c, 3, 69, 43
4, 478560, Note_on_c, 3, 64, 17
4, 478560, Note_on_c, 3, 57, 17
4, 478560, Note_on_c, 3, 54, 43
4, 478560, Note_on_c, 3, 46, 43
4, 478560, Note_on_c, 3, 38, 43
4, 478584, Note_off_c, 3, 39, 0
4, 478584, Note_off_c, 3, 47, 0
4, 478584, Note_off_c, 3, 64, 0
4, 478584, Note_off_c, 3, 57, 0
4, 478584, Note_off_c, 3, 62, 0
4, 478584, Note_on_c, 3, 70, 43
4, 478584, Note_on_c, 3, 65, 17
4, 478584, Note_on_c, 3, 56, 17
4, 478584, Note_on_c, 3, 55, 43
4, 478584, Note_on_c, 3, 47, 43
4, 478584, Note_on_c, 3, 39, 43
4, 478608, Note_off_c, 3, 40, 0
4, 478608, Note_off_c, 3, 48, 0
4, 478608, Note_off_c, 3, 63, 0
4, 478608, Note_off_c, 3, 58, 0
4, 478608, Note_off_c, 3, 63, 0
4, 478608, Note_on_c, 3, 71, 43
4, 478608, Note_on_c, 3, 66, 17
4, 478608, Note_on_c, 3, 55, 17
4, 478608, Note_on_c, 3, 56, 43
4, 478608, Note_on_c, 3, 48, 43
4, 478608, Note_on_c, 3, 40, 43
4, 478632, Note_off_c, 3, 41, 0
4, 478632, Note_off_c, 3, 49, 0
4, 478632, Note_off_c, 3, 59, 0
4, 478632, Note_off_c, 3, 62, 0
4, 478632, Note_off_c, 3, 64, 0
4, 478632, Note_on_c, 3, 72, 43
4, 478632, Note_on_c, 3, 67, 17
4, 478632, Note_on_c, 3, 54, 17
4, 478632, Note_on_c, 3, 57, 43
4, 478632, Note_on_c, 3, 49, 43
4, 478632, Note_on_c, 3, 41, 43
4, 478656, Note_off_c, 3, 34, 0
4, 478656, Note_off_c, 3, 42, 0
4, 478656, Note_off_c, 3, 50, 0
4, 478656, Note_off_c, 3, 61, 0
4, 478656, Note_off_c, 3, 60, 0
4, 478656, Note_off_c, 3, 65, 0
4, 478656, Note_on_c, 3, 73, 43
4, 478656, Note_on_c, 3, 68, 17
4, 478656, Note_on_c, 3, 53, 17
4, 478656, Note_on_c, 3, 58, 43
4, 478656, Note_on_c, 3, 50, 43
4, 478656, Note_on_c, 3, 42, 43
4, 478656, Note_on_c, 3, 34, 43
4, 478680, Note_off_c, 3, 35, 0
4, 478680, Note_off_c, 3, 43, 0
4, 478680, Note_off_c, 3, 51, 0
4, 478680, Note_off_c, 3, 60, 0
4, 478680, Note_off_c, 3, 61, 0
4, 478680, Note_off_c, 3, 66, 0
4, 478680, Note_on_c, 3, 74, 43
4, 478680, Note_on_c, 3, 69, 17
4, 478680, Note_on_c, 3, 52, 17
4, 478680, Note_on_c, 3, 59, 43
4, 478680, Note_on_c, 3, 51, 43
4, 478680, Note_on_c, 3, 43, 43
4, 478680, Note_on_c, 3, 35, 43
4, 478704, Note_off_c, 3, 36, 0
4, 478704, Note_off_c, 3, 44, 0
4, 478704, Note_off_c, 3, 52, 0
4, 478704, Note_off_c, 3, 62, 0
4, 478704, Note_off_c, 3, 59, 0
4, 478704, Note_off_c, 3, 67, 0
4, 478704, Note_on_c, 3, 75, 43
4, 478704, Note_on_c, 3, 70, 17
4, 478704, Note_on_c, 3, 51, 17
4, 478704, Note_on_c, 3, 60, 43
4, 478704, Note_on_c, 3, 52, 43
4, 478704, Note_on_c, 3, 44, 43
4, 478704, Note_on_c, 3, 36, 43
4, 478728, Note_off_c, 3, 37, 0
4, 478728, Note_off_c, 3, 45, 0
4, 478728, Note_off_c, 3, 53, 0
4, 478728, Note_off_c, 3, 58, 0
4, 478728, Note_off_c, 3, 63, 0
4, 478728, Note_off_c, 3, 68, 0
4, 478728, Note_on_c, 3, 76, 43
4, 478728, Note_on_c, 3, 71, 17
4, 478728, Note_on_c, 3, 50, 17
4, 478728, Note_on_c, 3, 61, 43
4, 478728, Note_on_c, 3, 53, 43
4, 478728, Note_on_c, 3, 45, 43
4, 478728, Note_on_c, 3, 37, 43
4, 478752, Note_off_c, 3, 38, 0
4, 478752, Note_off_c, 3, 46, 0
4, 478752, Note_off_c, 3, 54, 0
4, 478752, Note_off_c, 3, 57, 0
4, 478752, Note_off_c, 3, 64, 0
4, 478752, Note_off_c, 3, 69, 0
4, 478752, Note_on_c, 3, 77, 43
4, 478752, Note_on_c, 3, 72, 17
4, 478752, Note_on_c, 3, 49, 17
4, 478752, Note_on_c, 3, 62, 43
4, 478752, Note_on_c, 3, 54, 43
4, 478752, Note_on_c, 3, 46, 43
4, 478752, Note_on_c, 3, 38, 43
4, 478776, Note_off_c, 3, 39, 0
4, 478776, Note_off_c, 3, 47, 0
4, 478776, Note_off_c, 3, 55, 0
4, 478776, Note_off_c, 3, 56, 0
4, 478776, Note_off_c, 3, 65, 0
4, 478776, Note_off_c, 3, 70, 0
4, 478776, Note_on_c, 3, 78, 43
4, 478776, Note_on_c, 3, 73, 17
4, 478776, Note_on_c, 3, 48, 17
4, 478776, Note_on_c, 3, 63, 43
4, 478776, Note_on_c, 3, 55, 43
4, 478776, Note_on_c, 3, 47, 43
4, 478776, Note_on_c, 3, 39, 43
4, 478800, Note_off_c, 3, 40, 0
4, 478800, Note_off_c, 3, 48, 0
4, 478800, Note_off_c, 3, 56, 0
4, 478800, Note_off_c, 3, 55, 0
4, 478800, Note_off_c, 3, 66, 0
4, 478800, Note_off_c, 3, 71, 0
4, 478800, Note_on_c, 3, 79, 43
4, 478800, Note_on_c, 3, 74, 17
4, 478800, Note_on_c, 3, 47, 17
4, 478800, Note_on_c, 3, 64, 43
4, 478800, Note_on_c, 3, 56, 43
4, 478800, Note_on_c, 3, 48, 43
4, 478800, Note_on_c, 3, 40, 43
4, 478824, Note_off_c, 3, 41, 0
4, 478824, Note_off_c, 3, 49, 0
4, 478824, Note_off_c, 3, 57, 0
4, 478824, Note_off_c, 3, 54, 0
4, 478824, Note_off_c, 3, 67, 0
4, 478824, Note_off_c, 3, 72, 0
4, 478824, Note_on_c, 3, 80, 43
4, 478824, Note_on_c, 3, 75, 17
4, 478824, Note_on_c, 3, 46, 17
4, 478824, Note_on_c, 3, 65, 43
4, 478824, Note_on_c, 3, 57, 43
4, 478824, Note_on_c, 3, 49, 43
4, 478824, Note_on_c, 3, 41, 43
4, 478848, Note_off_c, 3, 34, 0
4, 478848, Note_off_c, 3, 42, 0
4, 478848, Note_off_c, 3, 50, 0
4, 478848, Note_off_c, 3, 58, 0
4, 478848, Note_off_c, 3, 53, 0
4, 478848, Note_off_c, 3, 68, 0
4, 478848, Note_off_c, 3, 73, 0
4, 478848, Note_on_c, 3, 81, 43
4, 478848, Note_on_c, 3, 76, 17
4, 478848, Note_on_c, 3, 45, 17
4, 478848, Note_on_c, 3, 66, 43
4, 478848, Note_on_c, 3, 58, 43
4, 478848, Note_on_c, 3, 50, 43
4, 478848, Note_on_c, 3, 42, 43
4, 478848, Note_on_c, 3, 34, 43
4, 478872, Note_off_c, 3, 35, 0
4, 478872, Note_off_c, 3, 43, 0
4, 478872, Note_off_c, 3, 51, 0
4, 478872, Note_off_c, 3, 59, 0
4, 478872, Note_off_c, 3, 52, 0
4, 478872, Note_off_c, 3, 69, 0
4, 478872, Note_off_c, 3, 74, 0
4, 478872, Note_on_c, 3, 82, 43
4, 478872, Note_on_c, 3, 77, 17
4, 478872, Note_on_c, 3, 44, 17
4, 478872, Note_on_c, 3, 67, 43
4, 478872, Note_on_c, 3, 59, 43
4, 478872, Note_on_c, 3, 51, 43
4, 478872, Note_on_c, 3, 43, 43
4, 478872, Note_on_c, 3, 35, 43
4, 478896, Note_off_c, 3, 36, 0
4, 478896, Note_off_c, 3, 44, 0
4, 478896, Note_off_c, 3, 52, 0
4, 478896, Note_off_c, 3, 60, 0
4, 478896, Note_off_c, 3, 51, 0
4, 478896, Note_off_c, 3, 70, 0
4, 478896, Note_off_c, 3, 75, 0
4, 478896, Note_on_c, 3, 83, 43
4, 478896, Note_on_c, 3, 78, 17
4, 478896, Note_on_c, 3, 43, 17
4, 478896, Note_on_c, 3, 68, 43
4, 478896, Note_on_c, 3, 60, 43
4, 478896, Note_on_c, 3, 52, 43
4, 478896, Note_on_c, 3, 44, 43
4, 478896, Note_on_c, 3, 36, 43
4, 478920, Note_off_c, 3, 37, 0
4, 478920, Note_off_c, 3, 45, 0
4, 478920, Note_off_c, 3, 53, 0
4, 478920, Note_off_c, 3, 61, 0
4, 478920, Note_off_c, 3, 50, 0
4, 478920, Note_off_c, 3, 71, 0
4, 478920, Note_off_c, 3, 76, 0
4, 478920, Note_on_c, 3, 84, 43
4, 478920, Note_on_c, 3, 79, 17
4, 478920, Note_on_c, 3, 42, 17
4, 478920, Note_on_c, 3, 69, 43
4, 478920, Note_on_c, 3, 61, 43
4, 478920, Note_on_c, 3, 53, 43
4, 478920, Note_on_c, 3, 45, 43
4, 478920, Note_on_c, 3, 37, 43
4, 478944, Note_off_c, 3, 38, 0
4, 478944, Note_off_c, 3, 46, 0
4, 478944, Note_off_c, 3, 54, 0
4, 478944, Note_off_c, 3, 62, 0
4, 478944, Note_off_c, 3, 49, 0
4, 478944, Note_off_c, 3, 72, 0
4, 478944, Note_off_c, 3, 77, 0
4, 478944, Note_on_c, 3, 85, 43
4, 478944, Note_on_c, 3, 80, 17
4, 478944, Note_on_c, 3, 41, 17
4, 478944, Note_on_c, 3, 70, 43
4, 478944, Note_on_c, 3, 62, 43
4, 478944, Note_on_c, 3, 54, 43
4, 478944, Note_on_c, 3, 46, 43
4, 478944, Note_on_c, 3, 38, 43
4, 478968, Note_off_c, 3, 39, 0
4, 478968, Note_off_c, 3, 47, 0
4, 478968, Note_off_c, 3, 55, 0
4, 478968, Note_off_c, 3, 63, 0
4, 478968, Note_off_c, 3, 48, 0
4, 478968, Note_off_c, 3, 73, 0
4, 478968, Note_off_c, 3, 78, 0
4, 478968, Note_on_c, 3, 86, 43
4, 478968, Note_on_c, 3, 81, 17
4, 478968, Note_on_c, 3, 40, 17
4, 478968, Note_on_c, 3, 71, 43
4, 478968, Note_on_c, 3, 63, 43
4, 478968, Note_on_c, 3, 55, 43
4, 478968, Note_on_c, 3, 47, 43
4, 478968, Note_on_c, 3, 39, 43
4, 478992, Note_off_c, 3, 40, 0
4, 478992, Note_off_c, 3, 48, 0
4, 478992, Note_off_c, 3, 56, 0
4, 478992, Note_off_c, 3, 64, 0
4, 478992, Note_off_c, 3, 47, 0
4, 478992, Note_off_c, 3, 74, 0
4, 478992, Note_off_c, 3, 79, 0
4, 478992, Note_on_c, 3, 87, 43
4, 478992, Note_on_c, 3, 82, 17
4, 478992, Note_on_c, 3, 39, 17
4, 478992, Note_on_c, 3, 72, 43
4, 478992, Note_on_c, 3, 64, 43
4, 478992, Note_on_c, 3, 56, 43
4, 478992, Note_on_c, 3, 48, 43
4, 478992, Note_on_c, 3, 40, 43
4, 479016, Note_off_c, 3, 41, 0
4, 479016, Note_off_c, 3, 49, 0
4, 479016, Note_off_c, 3, 57, 0
4, 479016, Note_off_c, 3, 65, 0
4, 479016, Note_off_c, 3, 46, 0
4, 479016, Note_off_c, 3, 75, 0
4, 479016, Note_off_c, 3, 80, 0
4, 479016, Note_on_c, 3, 88, 43
4, 479016, Note_on_c, 3, 83, 17
4, 479016, Note_on_c, 3, 38, 17
4, 479016, Note_on_c, 3, 73, 43
4, 479016, Note_on_c, 3, 65, 43
4, 479016, Note_on_c, 3, 57, 43
4, 479016, Note_on_c, 3, 49, 43
4, 479016, Note_on_c, 3, 41, 43
4, 479040, Note_off_c, 3, 34, 0
4, 479040, Note_off_c, 3, 42, 0
4, 479040, Note_off_c, 3, 50, 0
4, 479040, Note_off_c, 3, 58, 0
4, 479040, Note_off_c, 3, 66, 0
4, 479040, Note_off_c, 3, 45, 0
4, 479040, Note_off_c, 3, 76, 0
4, 479040, Note_off_c, 3, 81, 0
4, 479040, Note_on_c, 3, 89, 43
4, 479040, Note_on_c, 3, 84, 17
4, 479040, Note_on_c, 3, 37, 17
4, 479040, Note_on_c, 3, 74, 43
4, 479040, Note_on_c, 3, 66, 43
4, 479040, Note_on_c, 3, 58, 43
4, 479040, Note_on_c, 3, 50, 43
4, 479040, Note_on_c, 3, 42, 43
4, 479064, Note_off_c, 3, 35, 0
4, 479064, Note_off_c, 3, 43, 0
4, 479064, Note_off_c, 3, 51, 0
4, 479064, Note_off_c, 3, 59, 0
4, 479064, Note_off_c, 3, 67, 0
4, 479064, Note_off_c, 3, 44, 0
4, 479064, Note_off_c, 3, 77, 0
4, 479064, Note_off_c, 3, 82, 0
4, 479064, Note_on_c, 3, 90, 43
4, 479064, Note_on_c, 3, 85, 17
4, 479064, Note_on_c, 3, 36, 17
4, 479064, Note_on_c, 3, 75, 43
4, 479064, Note_on_c, 3, 67, 43
4, 479064, Note_on_c, 3, 59, 43
4, 479064, Note_on_c, 3, 51, 43
4, 479064, Note_on_c, 3, 43, 43
4, 479088, Note_off_c, 3, 36, 0
4, 479088, Note_off_c, 3, 44, 0
4, 479088, Note_off_c, 3, 52, 0
4, 479088, Note_off_c, 3, 60, 0
4, 479088, Note_off_c, 3, 68, 0
4, 479088, Note_off_c, 3, 43, 0
4, 479088, Note_off_c, 3, 78, 0
4, 479088, Note_off_c, 3, 83, 0
4, 479088, Note_on_c, 3, 91, 43
4, 479088, Note_on_c, 3, 86, 17
4, 479088, Note_on_c, 3, 35, 17
4, 479088, Note_on_c, 3, 76, 43
4, 479088, Note_on_c, 3, 68, 43
4, 479088, Note_on_c, 3, 60, 43
4, 479088, Note_on_c, 3, 52, 43
4, 479088, Note_on_c, 3, 44, 43
4, 479112, Note_off_c, 3, 37, 0
4, 479112, Note_off_c, 3, 45, 0
4, 479112, Note_off_c, 3, 53, 0
4, 479112, Note_off_c, 3, 61, 0
4, 479112, Note_off_c, 3, 69, 0
4, 479112, Note_off_c, 3, 42, 0
4, 479112, Note_off_c, 3, 79, 0
4, 479112, Note_off_c, 3, 84, 0
4, 479112, Note_on_c, 3, 92, 43
4, 479112, Note_on_c, 3, 87, 17
4, 479112, Note_on_c, 3, 34, 17
4, 479112, Note_on_c, 3, 77, 43
4, 479112, Note_on_c, 3, 69, 43
4, 479112, Note_on_c, 3, 61, 43
4, 479112, Note_on_c, 3, 53, 43
4, 479112, Note_on_c, 3, 45, 43
4, 479136, Note_off_c, 3, 38, 0
4, 479136, Note_off_c, 3, 46, 0
4, 479136, Note_off_c, 3, 54, 0
4, 479136, Note_off_c, 3, 62, 0
4, 479136, Note_off_c, 3, 70, 0
4, 479136, Note_off_c, 3, 41, 0
4, 479136, Note_off_c, 3, 80, 0
4, 479136, Note_off_c, 3, 85, 0
4, 479136, Note_on_c, 3, 93, 43
4, 479136, Note_on_c, 3, 88, 17
4, 479136, Note_on_c, 3, 33, 17
4, 479136, Note_on_c, 3, 78, 43
4, 479136, Note_on_c, 3, 70, 43
4, 479136, Note_on_c, 3, 62, 43
4, 479136, Note_on_c, 3, 54, 43
4, 479136, Note_on_c, 3, 46, 43
4, 479160, Note_off_c, 3, 39, 0
4, 479160, Note_off_c, 3, 47, 0
4, 479160, Note_off_c, 3, 55, 0
4, 479160, Note_off_c, 3, 63, 0
4, 479160, Note_off_c, 3, 71, 0
4, 479160, Note_off_c, 3, 40, 0
4, 479160, Note_off_c, 3, 81, 0
4, 479160, Note_off_c, 3, 86, 0
4, 479160, Note_on_c, 3, 94, 43
4, 479160, Note_on_c, 3, 89, 17
4, 479160, Note_on_c, 3, 32, 17
4, 479160, Note_on_c, 3, 79, 43
4, 479160, Note_on_c, 3, 71, 43
4, 479160, Note_on_c, 3, 63, 43
4, 479160, Note_on_c, 3, 55, 43
4, 479160, Note_on_c, 3, 47, 43
4, 479184, Note_off_c, 3, 40, 0
4, 479184, Note_off_c, 3, 48, 0
4, 479184, Note_off_c, 3, 56, 0
4, 479184, Note_off_c, 3, 64, 0
4, 479184, Note_off_c, 3, 72, 0
4, 479184, Note_off_c, 3, 39, 0
4, 479184, Note_off_c, 3, 82, 0
4, 479184, Note_off_c, 3, 87, 0
4, 479184, Note_on_c, 3, 95, 43
4, 479184, Note_on_c, 3, 90, 17
4, 479184, Note_on_c, 3, 31, 17
4, 479184, Note_on_c, 3, 80, 43
4, 479184, Note_on_c, 3, 72, 43
4, 479184, Note_on_c, 3, 64, 43
4, 479184, Note_on_c, 3, 56, 43
4, 479184, Note_on_c, 3, 48, 43
4, 479208, Note_off_c, 3, 41, 0
4, 479208, Note_off_c, 3, 49, 0
4, 479208, Note_off_c, 3, 57, 0
4, 479208, Note_off_c, 3, 65, 0
4, 479208, Note_off_c, 3, 73, 0
4, 479208, Note_off_c, 3, 38, 0
4, 479208, Note_off_c, 3, 83, 0
4, 479208, Note_off_c, 3, 88, 0
4, 479208, Note_on_c, 3, 91, 17
4, 479208, Note_on_c, 3, 30, 17
4, 479208, Note_on_c, 3, 81, 43
4, 479208, Note_on_c, 3, 73, 43
4, 479208, Note_on_c, 3, 65, 43
4, 479208, Note_on_c, 3, 57, 43
4, 479208, Note_on_c, 3, 49, 43
4, 479232, Note_off_c, 3, 42, 0
4, 479232, Note_off_c, 3, 50, 0
4, 479232, Note_off_c, 3, 58, 0
4, 479232, Note_off_c, 3, 66, 0
4, 479232, Note_off_c, 3, 74, 0
4, 479232, Note_off_c, 3, 37, 0
4, 479232, Note_off_c, 3, 84, 0
4, 479232, Note_off_c, 3, 89, 0
4, 479232, Note_on_c, 3, 93, 17
4, 479232, Note_on_c, 3, 28, 17
4, 479232, Note_on_c, 3, 82, 43
4, 479232, Note_on_c, 3, 74, 43
4, 479232, Note_on_c, 3, 66, 43
4, 479232, Note_on_c, 3, 58, 43
4, 479232, Note_on_c, 3, 50, 43
4, 479232, Note_on_c, 3, 34, 43
4, 479256, Note_off_c, 3, 43, 0
4, 479256, Note_off_c, 3, 51, 0
4, 479256, Note_off_c, 3, 59, 0
4, 479256, Note_off_c, 3, 67, 0
4, 479256, Note_off_c, 3, 75, 0
4, 479256, Note_off_c, 3, 36, 0
4, 479256, Note_off_c, 3, 85, 0
4, 479256, Note_off_c, 3, 90, 0
4, 479256, Note_on_c, 3, 29, 17
4, 479256, Note_on_c, 3, 92, 17
4, 479256, Note_on_c, 3, 83, 43
4, 479256, Note_on_c, 3, 75, 43
4, 479256, Note_on_c, 3, 67, 43
4, 479256, Note_on_c, 3, 59, 43
4, 479256, Note_on_c, 3, 51, 43
4, 479256, Note_on_c, 3, 35, 43
4, 479280, Note_off_c, 3, 44, 0
4, 479280, Note_off_c, 3, 52, 0
4, 479280, Note_off_c, 3, 60, 0
4, 479280, Note_off_c, 3, 68, 0
4, 479280, Note_off_c, 3, 76, 0
4, 479280, Note_off_c, 3, 35, 0
4, 479280, Note_off_c, 3, 86, 0
4, 479280, Note_off_c, 3, 91, 0
4, 479280, Note_on_c, 3, 30, 17
4, 479280, Note_on_c, 3, 91, 17
4, 479280, Note_on_c, 3, 84, 43
4, 479280, Note_on_c, 3, 76, 43
4, 479280, Note_on_c, 3, 68, 43
4, 479280, Note_on_c, 3, 60, 43
4, 479280, Note_on_c, 3, 52, 43
4, 479280, Note_on_c, 3, 36, 43
4, 479304, Note_off_c, 3, 45, 0
4, 479304, Note_off_c, 3, 53, 0
4, 479304, Note_off_c, 3, 61, 0
4, 479304, Note_off_c, 3, 69, 0
4, 479304, Note_off_c, 3, 77, 0
4, 479304, Note_off_c, 3, 34, 0
4, 479304, Note_off_c, 3, 87, 0
4, 479304, Note_off_c, 3, 92, 0
4, 479304, Note_on_c, 3, 31, 17
4, 479304, Note_on_c, 3, 90, 17
4, 479304, Note_on_c, 3, 85, 43
4, 479304, Note_on_c, 3, 77, 43
4, 479304, Note_on_c, 3, 69, 43
4, 479304, Note_on_c, 3, 61, 43
4, 479304, Note_on_c, 3, 53, 43
4, 479304, Note_on_c, 3, 37, 43
4, 479328, Note_off_c, 3, 46, 0
4, 479328, Note_off_c, 3, 54, 0
4, 479328, Note_off_c, 3, 62, 0
4, 479328, Note_off_c, 3, 70, 0
4, 479328, Note_off_c, 3, 78, 0
4, 479328, Note_off_c, 3, 33, 0
4, 479328, Note_off_c, 3, 88, 0
4, 479328, Note_off_c, 3, 93, 0
4, 479328, Note_on_c, 3, 32, 17
4, 479328, Note_on_c, 3, 89, 17
4, 479328, Note_on_c, 3, 86, 43
4, 479328, Note_on_c, 3, 78, 43
4, 479328, Note_on_c, 3, 70, 43
4, 479328, Note_on_c, 3, 62, 43
4, 479328, Note_on_c, 3, 54, 43
4, 479328, Note_on_c, 3, 38, 43
4, 479352, Note_off_c, 3, 47, 0
4, 479352, Note_off_c, 3, 55, 0
4, 479352, Note_off_c, 3, 63, 0
4, 479352, Note_off_c, 3, 71, 0
4, 479352, Note_off_c, 3, 79, 0
4, 479352, Note_off_c, 3, 32, 0
4, 479352, Note_off_c, 3, 89, 0
4, 479352, Note_off_c, 3, 94, 0
4, 479352, Note_on_c, 3, 33, 17
4, 479352, Note_on_c, 3, 88, 17
4, 479352, Note_on_c, 3, 87, 43
4, 479352, Note_on_c, 3, 79, 43
4, 479352, Note_on_c, 3, 71, 43
4, 479352, Note_on_c, 3, 63, 43
4, 479352, Note_on_c, 3, 55, 43
4, 479352, Note_on_c, 3, 39, 43
4, 479376, Note_off_c, 3, 48, 0
4, 479376, Note_off_c, 3, 56, 0
4, 479376, Note_off_c, 3, 64, 0
4, 479376, Note_off_c, 3, 72, 0
4, 479376, Note_off_c, 3, 80, 0
4, 479376, Note_off_c, 3, 31, 0
4, 479376, Note_off_c, 3, 90, 0
4, 479376, Note_off_c, 3, 95, 0
4, 479376, Note_on_c, 3, 34, 17
4, 479376, Note_on_c, 3, 87, 17
4, 479376, Note_on_c, 3, 88, 43
4, 479376, Note_on_c, 3, 80, 43
4, 479376, Note_on_c, 3, 72, 43
4, 479376, Note_on_c, 3, 64, 43
4, 479376, Note_on_c, 3, 56, 43
4, 479376, Note_on_c, 3, 40, 43
4, 479400, Note_off_c, 3, 49, 0
4, 479400, Note_off_c, 3, 57, 0
4, 479400, Note_off_c, 3, 65, 0
4, 479400, Note_off_c, 3, 73, 0
4, 479400, Note_off_c, 3, 81, 0
4, 479400, Note_off_c, 3, 30, 0
4, 479400, Note_off_c, 3, 91, 0
4, 479400, Note_on_c, 3, 35, 17
4, 479400, Note_on_c, 3, 86, 17
4, 479400, Note_on_c, 3, 89, 43
4, 479400, Note_on_c, 3, 81, 43
4, 479400, Note_on_c, 3, 73, 43
4, 479400, Note_on_c, 3, 65, 43
4, 479400, Note_on_c, 3, 57, 43
4, 479400, Note_on_c, 3, 41, 43
4, 479424, Note_off_c, 3, 34, 0
4, 479424, Note_off_c, 3, 50, 0
4, 479424, Note_off_c, 3, 58, 0
4, 479424, Note_off_c, 3, 66, 0
4, 479424, Note_off_c, 3, 74, 0
4, 479424, Note_off_c, 3, 82, 0
4, 479424, Note_off_c, 3, 28, 0
4, 479424, Note_off_c, 3, 93, 0
4, 479424, Note_on_c, 3, 36, 17
4, 479424, Note_on_c, 3, 85, 17
4, 479424, Note_on_c, 3, 90, 43
4, 479424, Note_on_c, 3, 82, 43
4, 479424, Note_on_c, 3, 74, 43
4, 479424, Note_on_c, 3, 66, 43
4, 479424, Note_on_c, 3, 58, 43
4, 479424, Note_on_c, 3, 42, 43
4, 479448, Note_off_c, 3, 35, 0
4, 479448, Note_off_c, 3, 51, 0
4, 479448, Note_off_c, 3, 59, 0
4, 479448, Note_off_c, 3, 67, 0
4, 479448, Note_off_c, 3, 75, 0
4, 479448, Note_off_c, 3, 83, 0
4, 479448, Note_off_c, 3, 92, 0
4, 479448, Note_off_c, 3, 29, 0
4, 479448, Note_on_c, 3, 37, 17
4, 479448, Note_on_c, 3, 84, 17
4, 479448, Note_on_c, 3, 91, 43
4, 479448, Note_on_c, 3, 83, 43
4, 479448, Note_on_c, 3, 75, 43
4, 479448, Note_on_c, 3, 67, 43
4, 479448, Note_on_c, 3, 59, 43
4, 479448, Note_on_c, 3, 43, 43
4, 479472, Note_off_c, 3, 36, 0
4, 479472, Note_off_c, 3, 52, 0
4, 479472, Note_off_c, 3, 60, 0
4, 479472, Note_off_c, 3, 68, 0
4, 479472, Note_off_c, 3, 76, 0
4, 479472, Note_off_c, 3, 84, 0
4, 479472, Note_off_c, 3, 91, 0
4, 479472, Note_off_c, 3, 30, 0
4, 479472, Note_on_c, 3, 38, 17
4, 479472, Note_on_c, 3, 83, 17
4, 479472, Note_on_c, 3, 92, 43
4, 479472, Note_on_c, 3, 84, 43
4, 479472, Note_on_c, 3, 76, 43
4, 479472, Note_on_c, 3, 68, 43
4, 479472, Note_on_c, 3, 60, 43
4, 479472, Note_on_c, 3, 44, 43
4, 479496, Note_off_c, 3, 37, 0
4, 479496, Note_off_c, 3, 53, 0
4, 479496, Note_off_c, 3, 61, 0
4, 479496, Note_off_c, 3, 69, 0
4, 479496, Note_off_c, 3, 77, 0
4, 479496, Note_off_c, 3, 85, 0
4, 479496, Note_off_c, 3, 90, 0
4, 479496, Note_off_c, 3, 31, 0
4, 479496, Note_on_c, 3, 39, 17
4, 479496, Note_on_c, 3, 82, 17
4, 479496, Note_on_c, 3, 93, 43
4, 479496, Note_on_c, 3, 85, 43
4, 479496, Note_on_c, 3, 77, 43
4, 479496, Note_on_c, 3, 69, 43
4, 479496, Note_on_c, 3, 61, 43
4, 479496, Note_on_c, 3, 45, 43
4, 479520, Note_off_c, 3, 38, 0
4, 479520, Note_off_c, 3, 54, 0
4, 479520, Note_off_c, 3, 62, 0
4, 479520, Note_off_c, 3, 70, 0
4, 479520, Note_off_c, 3, 78, 0
4, 479520, Note_off_c, 3, 86, 0
4, 479520, Note_off_c, 3, 89, 0
4, 479520, Note_off_c, 3, 32, 0
4, 479520, Note_on_c, 3, 40, 17
4, 479520, Note_on_c, 3, 81, 17
4, 479520, Note_on_c, 3, 94, 43
4, 479520, Note_on_c, 3, 86, 43
4, 479520, Note_on_c, 3, 78, 43
4, 479520, Note_on_c, 3, 70, 43
4, 479520, Note_on_c, 3, 62, 43
4, 479520, Note_on_c, 3, 46, 43
4, 479544, Note_off_c, 3, 39, 0
4, 479544, Note_off_c, 3, 55, 0
4, 479544, Note_off_c, 3, 63, 0
4, 479544, Note_off_c, 3, 71, 0
4, 479544, Note_off_c, 3, 79, 0
4, 479544, Note_off_c, 3, 87, 0
4, 479544, Note_off_c, 3, 88, 0
4, 479544, Note_off_c, 3, 33, 0
4, 479544, Note_on_c, 3, 41, 17
4, 479544, Note_on_c, 3, 80, 17
4, 479544, Note_on_c, 3, 95, 43
4, 479544, Note_on_c, 3, 87, 43
4, 479544, Note_on_c, 3, 79, 43
4, 479544, Note_on_c, 3, 71, 43
4, 479544, Note_on_c, 3, 63, 43
4, 479544, Note_on_c, 3, 47, 43
4, 479568, Note_off_c, 3, 40, 0
4, 479568, Note_off_c, 3, 56, 0
4, 479568, Note_off_c, 3, 64, 0
4, 479568, Note_off_c, 3, 72, 0
4, 479568, Note_off_c, 3, 80, 0
4, 479568, Note_off_c, 3, 88, 0
4, 479568, Note_off_c, 3, 87, 0
4, 479568, Note_off_c, 3, 34, 0
4, 479568, Note_on_c, 3, 42, 17
4, 479568, Note_on_c, 3, 79, 17
4, 479568, Note_on_c, 3, 88, 43
4, 479568, Note_on_c, 3, 80, 43
4, 479568, Note_on_c, 3, 72, 43
4, 479568, Note_on_c, 3, 64, 43
4, 479568, Note_on_c, 3, 48, 43
4, 479592, Note_off_c, 3, 41, 0
4, 479592, Note_off_c, 3, 57, 0
4, 479592, Note_off_c, 3, 65, 0
4, 479592, Note_off_c, 3, 73, 0
4, 479592, Note_off_c, 3, 81, 0
4, 479592, Note_off_c, 3, 89, 0
4, 479592, Note_off_c, 3, 86, 0
4, 479592, Note_off_c, 3, 35, 0
4, 479592, Note_on_c, 3, 43, 17
4, 479592, Note_on_c, 3, 78, 17
4, 479592, Note_on_c, 3, 89, 43
4, 479592, Note_on_c, 3, 81, 43
4, 479592, Note_on_c, 3, 73, 43
4, 479592, Note_on_c, 3, 65, 43
4, 479592, Note_on_c, 3, 49, 43
4, 479616, Note_off_c, 3, 42, 0
4, 479616, Note_off_c, 3, 58, 0
4, 479616, Note_off_c, 3, 66, 0
4, 479616, Note_off_c, 3, 74, 0
4, 479616, Note_off_c, 3, 82, 0
4, 479616, Note_off_c, 3, 90, 0
4, 479616, Note_off_c, 3, 85, 0
4, 479616, Note_off_c, 3, 36, 0
4, 479616, Note_on_c, 3, 44, 17
4, 479616, Note_on_c, 3, 77, 17
4, 479616, Note_on_c, 3, 90, 43
4, 479616, Note_on_c, 3, 82, 43
4, 479616, Note_on_c, 3, 74, 43
4, 479616, Note_on_c, 3, 66, 43
4, 479616, Note_on_c, 3, 50, 43
4, 479616, Note_on_c, 3, 34, 43
4, 479640, Note_off_c, 3, 43, 0
4, 479640, Note_off_c, 3, 59, 0
4, 479640, Note_off_c, 3, 67, 0
4, 479640, Note_off_c, 3, 75, 0
4, 479640, Note_off_c, 3, 83, 0
4, 479640, Note_off_c, 3, 91, 0
4, 479640, Note_off_c, 3, 84, 0
4, 479640, Note_off_c, 3, 37, 0
4, 479640, Note_on_c, 3, 45, 17
4, 479640, Note_on_c, 3, 76, 17
4, 479640, Note_on_c, 3, 91, 43
4, 479640, Note_on_c, 3, 83, 43
4, 479640, Note_on_c, 3, 75, 43
4, 479640, Note_on_c, 3, 67, 43
4, 479640, Note_on_c, 3, 51, 43
4, 479640, Note_on_c, 3, 35, 43
4, 479664, Note_off_c, 3, 44, 0
4, 479664, Note_off_c, 3, 60, 0
4, 479664, Note_off_c, 3, 68, 0
4, 479664, Note_off_c, 3, 76, 0
4, 479664, Note_off_c, 3, 84, 0
4, 479664, Note_off_c, 3, 92, 0
4, 479664, Note_off_c, 3, 83, 0
4, 479664, Note_off_c, 3, 38, 0
4, 479664, Note_on_c, 3, 46, 17
4, 479664, Note_on_c, 3, 75, 17
4, 479664, Note_on_c, 3, 92, 43
4, 479664, Note_on_c, 3, 84, 43
4, 479664, Note_on_c, 3, 76, 43
4, 479664, Note_on_c, 3, 68, 43
4, 479664, Note_on_c, 3, 52, 43
4, 479664, Note_on_c, 3, 36, 43
4, 479688, Note_off_c, 3, 45, 0
4, 479688, Note_off_c, 3, 61, 0
4, 479688, Note_off_c, 3, 69, 0
4, 479688, Note_off_c, 3, 77, 0
4, 479688, Note_off_c, 3, 85, 0
4, 479688, Note_off_c, 3, 93, 0
4, 479688, Note_off_c, 3, 82, 0
4, 479688, Note_off_c, 3, 39, 0
4, 479688, Note_on_c, 3, 47, 17
4, 479688, Note_on_c, 3, 74, 17
4, 479688, Note_on_c, 3, 93, 43
4, 479688, Note_on_c, 3, 85, 43
4, 479688, Note_on_c, 3, 77, 43
4, 479688, Note_on_c, 3, 69, 43
4, 479688, Note_on_c, 3, 53, 43
4, 479688, Note_on_c, 3, 37, 43
4, 479712, Note_off_c, 3, 46, 0
4, 479712, Note_off_c, 3, 62, 0
4, 479712, Note_off_c, 3, 70, 0
4, 479712, Note_off_c, 3, 78, 0
4, 479712, Note_off_c, 3, 86, 0
4, 479712, Note_off_c, 3, 94, 0
4, 479712, Note_off_c, 3, 81, 0
4, 479712, Note_off_c, 3, 40, 0
4, 479712, Note_on_c, 3, 48, 17
4, 479712, Note_on_c, 3, 73, 17
4, 479712, Note_on_c, 3, 94, 43
4, 479712, Note_on_c, 3, 86, 43
4, 479712, Note_on_c, 3, 78, 43
4, 479712, Note_on_c, 3, 70, 43
4, 479712, Note_on_c, 3, 54, 43
4, 479712, Note_on_c, 3, 38, 43
4, 479736, Note_off_c, 3, 47, 0
4, 479736, Note_off_c, 3, 63, 0
4, 479736, Note_off_c, 3, 71, 0
4, 479736, Note_off_c, 3, 79, 0
4, 479736, Note_off_c, 3, 87, 0
4, 479736, Note_off_c, 3, 95, 0
4, 479736, Note_off_c, 3, 80, 0
4, 479736, Note_off_c, 3, 41, 0
4, 479736, Note_on_c, 3, 72, 17
4, 479736, Note_on_c, 3, 49, 17
4, 479736, Note_on_c, 3, 95, 43
4, 479736, Note_on_c, 3, 87, 43
4, 479736, Note_on_c, 3, 79, 43
4, 479736, Note_on_c, 3, 71, 43
4, 479736, Note_on_c, 3, 55, 43
4, 479736, Note_on_c, 3, 39, 43
4, 479760, Note_off_c, 3, 48, 0
4, 479760, Note_off_c, 3, 64, 0
4, 479760, Note_off_c, 3, 72, 0
4, 479760, Note_off_c, 3, 80, 0
4, 479760, Note_off_c, 3, 88, 0
4, 479760, Note_off_c, 3, 79, 0
4, 479760, Note_off_c, 3, 42, 0
4, 479760, Note_on_c, 3, 71, 17
4, 479760, Note_on_c, 3, 50, 17
4, 479760, Note_on_c, 3, 88, 43
4, 479760, Note_on_c, 3, 80, 43
4, 479760, Note_on_c, 3, 72, 43
4, 479760, Note_on_c, 3, 56, 43
4, 479760, Note_on_c, 3, 40, 43
4, 479784, Note_off_c, 3, 49, 0
4, 479784, Note_off_c, 3, 65, 0
4, 479784, Note_off_c, 3, 73, 0
4, 479784, Note_off_c, 3, 81, 0
4, 479784, Note_off_c, 3, 89, 0
4, 479784, Note_off_c, 3, 78, 0
4, 479784, Note_off_c, 3, 43, 0
4, 479784, Note_on_c, 3, 51, 17
4, 479784, Note_on_c, 3, 70, 17
4, 479784, Note_on_c, 3, 89, 43
4, 479784, Note_on_c, 3, 81, 43
4, 479784, Note_on_c, 3, 73, 43
4, 479784, Note_on_c, 3, 57, 43
4, 479784, Note_on_c, 3, 41, 43
4, 479808, Note_off_c, 3, 34, 0
4, 479808, Note_off_c, 3, 50, 0
4, 479808, Note_off_c, 3, 66, 0
4, 479808, Note_off_c, 3, 74, 0
4, 479808, Note_off_c, 3, 82, 0
4, 479808, Note_off_c, 3, 90, 0
4, 479808, Note_off_c, 3, 77, 0
4, 479808, Note_off_c, 3, 44, 0
4, 479808, Note_on_c, 3, 52, 17
4, 479808, Note_on_c, 3, 69, 17
4, 479808, Note_on_c, 3, 90, 43
4, 479808, Note_on_c, 3, 82, 43
4, 479808, Note_on_c, 3, 74, 43
4, 479808, Note_on_c, 3, 58, 43
4, 479808, Note_on_c, 3, 42, 43
4, 479832, Note_off_c, 3, 35, 0
4, 479832, Note_off_c, 3, 51, 0
4, 479832, Note_off_c, 3, 67, 0
4, 479832, Note_off_c, 3, 75, 0
4, 479832, Note_off_c, 3, 83, 0
4, 479832, Note_off_c, 3, 91, 0
4, 479832, Note_off_c, 3, 76, 0
4, 479832, Note_off_c, 3, 45, 0
4, 479832, Note_on_c, 3, 53, 17
4, 479832, Note_on_c, 3, 68, 17
4, 479832, Note_on_c, 3, 91, 43
4, 479832, Note_on_c, 3, 83, 43
4, 479832, Note_on_c, 3, 75, 43
4, 479832, Note_on_c, 3, 59, 43
4, 479832, Note_on_c, 3, 43, 43
4, 479856, Note_off_c, 3, 36, 0
4, 479856, Note_off_c, 3, 52, 0
4, 479856, Note_off_c, 3, 68, 0
4, 479856, Note_off_c, 3, 76, 0
4, 479856, Note_off_c, 3, 84, 0
4, 479856, Note_off_c, 3, 92, 0
4, 479856, Note_off_c, 3, 75, 0
4, 479856, Note_off_c, 3, 46, 0
4, 479856, Note_on_c, 3, 54, 17
4, 479856, Note_on_c, 3, 67, 17
4, 479856, Note_on_c, 3, 92, 43
4, 479856, Note_on_c, 3, 84, 43
4, 479856, Note_on_c, 3, 76, 43
4, 479856, Note_on_c, 3, 60, 43
4, 479856, Note_on_c, 3, 44, 43
4, 479880, Note_off_c, 3, 37, 0
4, 479880, Note_off_c, 3, 53, 0
4, 479880, Note_off_c, 3, 69, 0
4, 479880, Note_off_c, 3, 77, 0
4, 479880, Note_off_c, 3, 85, 0
4, 479880, Note_off_c, 3, 93, 0
4, 479880, Note_off_c, 3, 74, 0
4, 479880, Note_off_c, 3, 47, 0
4, 479880, Note_on_c, 3, 55, 17
4, 479880, Note_on_c, 3, 66, 17
4, 479880, Note_on_c, 3, 93, 43
4, 479880, Note_on_c, 3, 85, 43
4, 479880, Note_on_c, 3, 77, 43
4, 479880, Note_on_c, 3, 61, 43
4, 479880, Note_on_c, 3, 45, 43
4, 479904, Note_off_c, 3, 38, 0
4, 479904, Note_off_c, 3, 54, 0
4, 479904, Note_off_c, 3, 70, 0
4, 479904, Note_off_c, 3, 78, 0
4, 479904, Note_off_c, 3, 86, 0
4, 479904, Note_off_c, 3, 94, 0
4, 479904, Note_off_c, 3, 73, 0
4, 479904, Note_off_c, 3, 48, 0
4, 479904, Note_on_c, 3, 56, 17
4, 479904, Note_on_c, 3, 65, 17
4, 479904, Note_on_c, 3, 94, 43
4, 479904, Note_on_c, 3, 86, 43
4, 479904, Note_on_c, 3, 78, 43
4, 479904, Note_on_c, 3, 62, 43
4, 479904, Note_on_c, 3, 46, 43
4, 479928, Note_off_c, 3, 39, 0
4, 479928, Note_off_c, 3, 55, 0
4, 479928, Note_off_c, 3, 71, 0
4, 479928, Note_off_c, 3, 79, 0
4, 479928, Note_off_c, 3, 87, 0
4, 479928, Note_off_c, 3, 95, 0
4, 479928, Note_off_c, 3, 49, 0
4, 479928, Note_off_c, 3, 72, 0
4, 479928, Note_on_c, 3, 57, 17
4, 479928, Note_on_c, 3, 64, 17
4, 479928, Note_on_c, 3, 95, 43
4, 479928, Note_on_c, 3, 87, 43
4, 479928, Note_on_c, 3, 79, 43
4, 479928, Note_on_c, 3, 63, 43
4, 479928, Note_on_c, 3, 47, 43
4, 479952, Note_off_c, 3, 40, 0
4, 479952, Note_off_c, 3, 56, 0
4, 479952, Note_off_c, 3, 72, 0
4, 479952, Note_off_c, 3, 80, 0
4, 479952, Note_off_c, 3, 88, 0
4, 479952, Note_off_c, 3, 50, 0
4, 479952, Note_off_c, 3, 71, 0
4, 479952, Note_on_c, 3, 58, 17
4, 479952, Note_on_c, 3, 63, 17
4, 479952, Note_on_c, 3, 88, 43
4, 479952, Note_on_c, 3, 80, 43
4, 479952, Note_on_c, 3, 64, 43
4, 479952, Note_on_c, 3, 48, 43
4, 479976, Note_off_c, 3, 41, 0
4, 479976, Note_off_c, 3, 57, 0
4, 479976, Note_off_c, 3, 73, 0
4, 479976, Note_off_c, 3, 81, 0
4, 479976, Note_off_c, 3, 89, 0
4, 479976, Note_off_c, 3, 70, 0
4, 479976, Note_off_c, 3, 51, 0
4, 479976, Note_on_c, 3, 62, 17
4, 479976, Note_on_c, 3, 59, 17
4, 479976, Note_on_c, 3, 89, 43
4, 479976, Note_on_c, 3, 81, 43
4, 479976, Note_on_c, 3, 65, 43
4, 479976, Note_on_c, 3, 49, 43
4, 480000, Note_off_c, 3, 42, 0
4, 480000, Note_off_c, 3, 58, 0
4, 480000, Note_off_c, 3, 74, 0
4, 480000, Note_off_c, 3, 82, 0
4, 480000, Note_off_c, 3, 90, 0
4, 480000, Note_off_c, 3, 69, 0
4, 480000, Note_off_c, 3, 52, 0
4, 480000, Note_on_c, 3, 60, 17
4, 480000, Note_on_c, 3, 61, 17
4, 480000, Note_on_c, 3, 90, 43
4, 480000, Note_on_c, 3, 82, 43
4, 480000, Note_on_c, 3, 66, 43
4, 480000, Note_on_c, 3, 50, 43
4, 480000, Note_on_c, 3, 34, 43
4, 480024, Note_off_c, 3, 43, 0
4, 480024, Note_off_c, 3, 59, 0
4, 480024, Note_off_c, 3, 75, 0
4, 480024, Note_off_c, 3, 83, 0
4, 480024, Note_off_c, 3, 91, 0
4, 480024, Note_off_c, 3, 68, 0
4, 480024, Note_off_c, 3, 53, 0
4, 480024, Note_on_c, 3, 61, 17
4, 480024, Note_on_c, 3, 60, 17
4, 480024, Note_on_c, 3, 91, 43
4, 480024, Note_on_c, 3, 83, 43
4, 480024, Note_on_c, 3, 67, 43
4, 480024, Note_on_c, 3, 51, 43
4, 480024, Note_on_c, 3, 35, 43
4, 480048, Note_off_c, 3, 44, 0
4, 480048, Note_off_c, 3, 60, 0
4, 480048, Note_off_c, 3, 76, 0
4, 480048, Note_off_c, 3, 84, 0
4, 480048, Note_off_c, 3, 92, 0
4, 480048, Note_off_c, 3, 67, 0
4, 480048, Note_off_c, 3, 54, 0
4, 480048, Note_on_c, 3, 59, 17
4, 480048, Note_on_c, 3, 62, 17
4, 480048, Note_on_c, 3, 92, 43
4, 480048, Note_on_c, 3, 84, 43
4, 480048, Note_on_c, 3, 68, 43
4, 480048, Note_on_c, 3, 52, 43
4, 480048, Note_on_c, 3, 36, 43
4, 480072, Note_off_c, 3, 45, 0
4, 480072, Note_off_c, 3, 61, 0
4, 480072, Note_off_c, 3, 77, 0
4, 480072, Note_off_c, 3, 85, 0
4, 480072, Note_off_c, 3, 93, 0
4, 480072, Note_off_c, 3, 66, 0
4, 480072, Note_off_c, 3, 55, 0
4, 480072, Note_on_c, 3, 63, 17
4, 480072, Note_on_c, 3, 58, 17
4, 480072, Note_on_c, 3, 93, 43
4, 480072, Note_on_c, 3, 85, 43
4, 480072, Note_on_c, 3, 69, 43
4, 480072, Note_on_c, 3, 53, 43
4, 480072, Note_on_c, 3, 37, 43
4, 480096, Note_off_c, 3, 46, 0
4, 480096, Note_off_c, 3, 62, 0
4, 480096, Note_off_c, 3, 78, 0
4, 480096, Note_off_c, 3, 86, 0
4, 480096, Note_off_c, 3, 94, 0
4, 480096, Note_off_c, 3, 65, 0
4, 480096, Note_off_c, 3, 56, 0
4, 480096, Note_on_c, 3, 64, 17
4, 480096, Note_on_c, 3, 57, 17
4, 480096, Note_on_c, 3, 94, 43
4, 480096, Note_on_c, 3, 86, 43
4, 480096, Note_on_c, 3, 70, 43
4, 480096, Note_on_c, 3, 54, 43
4, 480096, Note_on_c, 3, 38, 43
4, 480120, Note_off_c, 3, 47, 0
4, 480120, Note_off_c, 3, 63, 0
4, 480120, Note_off_c, 3, 79, 0
4, 480120, Note_off_c, 3, 87, 0
4, 480120, Note_off_c, 3, 95, 0
4, 480120, Note_off_c, 3, 64, 0
4, 480120, Note_off_c, 3, 57, 0
4, 480120, Note_on_c, 3, 65, 17
4, 480120, Note_on_c, 3, 56, 17
4, 480120, Note_on_c, 3, 95, 43
4, 480120, Note_on_c, 3, 87, 43
4, 480120, Note_on_c, 3, 71, 43
4, 480120, Note_on_c, 3, 55, 43
4, 480120, Note_on_c, 3, 39, 43
4, 480144, Note_off_c, 3, 48, 0
4, 480144, Note_off_c, 3, 64, 0
4, 480144, Note_off_c, 3, 80, 0
4, 480144, Note_off_c, 3, 88, 0
4, 480144, Note_off_c, 3, 63, 0
4, 480144, Note_off_c, 3, 58, 0
4, 480144, Note_on_c, 3, 66, 17
4, 480144, Note_on_c, 3, 55, 17
4, 480144, Note_on_c, 3, 88, 43
4, 480144, Note_on_c, 3, 72, 43
4, 480144, Note_on_c, 3, 56, 43
4, 480144, Note_on_c, 3, 40, 43
4, 480168, Note_off_c, 3, 49, 0
4, 480168, Note_off_c, 3, 65, 0
4, 480168, Note_off_c, 3, 81, 0
4, 480168, Note_off_c, 3, 89, 0
4, 480168, Note_off_c, 3, 59, 0
4, 480168, Note_off_c, 3, 62, 0
4, 480168, Note_on_c, 3, 67, 17
4, 480168, Note_on_c, 3, 54, 17
4, 480168, Note_on_c, 3, 89, 43
4, 480168, Note_on_c, 3, 73, 43
4, 480168, Note_on_c, 3, 57, 43
4, 480168, Note_on_c, 3, 41, 43
4, 480192, Note_off_c, 3, 34, 0
4, 480192, Note_off_c, 3, 50, 0
4, 480192, Note_off_c, 3, 66, 0
4, 480192, Note_off_c, 3, 82, 0
4, 480192, Note_off_c, 3, 90, 0
4, 480192, Note_off_c, 3, 61, 0
4, 480192, Note_off_c, 3, 60, 0
4, 480192, Note_on_c, 3, 68, 17
4, 480192, Note_on_c, 3, 53, 17
4, 480192, Note_on_c, 3, 90, 43
4, 480192, Note_on_c, 3, 74, 43
4, 480192, Note_on_c, 3, 58, 43
4, 480192, Note_on_c, 3, 42, 43
4, 480216, Note_off_c, 3, 35, 0
4, 480216, Note_off_c, 3, 51, 0
4, 480216, Note_off_c, 3, 67, 0
4, 480216, Note_off_c, 3, 83, 0
4, 480216, Note_off_c, 3, 91, 0
4, 480216, Note_off_c, 3, 60, 0
4, 480216, Note_off_c, 3, 61, 0
4, 480216, Note_on_c, 3, 69, 17
4, 480216, Note_on_c, 3, 52, 17
4, 480216, Note_on_c, 3, 91, 43
4, 480216, Note_on_c, 3, 75, 43
4, 480216, Note_on_c, 3, 59, 43
4, 480216, Note_on_c, 3, 43, 43
4, 480240, Note_off_c, 3, 36, 0
4, 480240, Note_off_c, 3, 52, 0
4, 480240, Note_off_c, 3, 68, 0
4, 480240, Note_off_c, 3, 84, 0
4, 480240, Note_off_c, 3, 92, 0
4, 480240, Note_off_c, 3, 62, 0
4, 480240, Note_off_c, 3, 59, 0
4, 480240, Note_on_c, 3, 70, 17
4, 480240, Note_on_c, 3, 51, 17
4, 480240, Note_on_c, 3, 92, 43
4, 480240, Note_on_c, 3, 76, 43
4, 480240, Note_on_c, 3, 60, 43
4, 480240, Note_on_c, 3, 44, 43
4, 480264, Note_off_c, 3, 37, 0
4, 480264, Note_off_c, 3, 53, 0
4, 480264, Note_off_c, 3, 69, 0
4, 480264, Note_off_c, 3, 85, 0
4, 480264, Note_off_c, 3, 93, 0
4, 480264, Note_off_c, 3, 58, 0
4, 480264, Note_off_c, 3, 63, 0
4, 480264, Note_on_c, 3, 71, 17
4, 480264, Note_on_c, 3, 50, 17
4, 480264, Note_on_c, 3, 93, 43
4, 480264, Note_on_c, 3, 77, 43
4, 480264, Note_on_c, 3, 61, 43
4, 480264, Note_on_c, 3, 45, 43
4, 480288, Note_off_c, 3, 38, 0
4, 480288, Note_off_c, 3, 54, 0
4, 480288, Note_off_c, 3, 70, 0
4, 480288, Note_off_c, 3, 86, 0
4, 480288, Note_off_c, 3, 94, 0
4, 480288, Note_off_c, 3, 57, 0
4, 480288, Note_off_c, 3, 64, 0
4, 480288, Note_on_c, 3, 72, 17
4, 480288, Note_on_c, 3, 49, 17
4, 480288, Note_on_c, 3, 94, 43
4, 480288, Note_on_c, 3, 78, 43
4, 480288, Note_on_c, 3, 62, 43
4, 480288, Note_on_c, 3, 46, 43
4, 480312, Note_off_c, 3, 39, 0
4, 480312, Note_off_c, 3, 55, 0
4, 480312, Note_off_c, 3, 71, 0
4, 480312, Note_off_c, 3, 87, 0
4, 480312, Note_off_c, 3, 95, 0
4, 480312, Note_off_c, 3, 56, 0
4, 480312, Note_off_c, 3, 65, 0
4, 480312, Note_on_c, 3, 73, 17
4, 480312, Note_on_c, 3, 48, 17
4, 480312, Note_on_c, 3, 95, 43
4, 480312, Note_on_c, 3, 79, 43
4, 480312, Note_on_c, 3, 63, 43
4, 480312, Note_on_c, 3, 47, 43
4, 480336, Note_off_c, 3, 40, 0
4, 480336, Note_off_c, 3, 56, 0
4, 480336, Note_off_c, 3, 72, 0
4, 480336, Note_off_c, 3, 88, 0
4, 480336, Note_off_c, 3, 55, 0
4, 480336, Note_off_c, 3, 66, 0
4, 480336, Note_on_c, 3, 74, 17
4, 480336, Note_on_c, 3, 47, 17
4, 480336, Note_on_c, 3, 80, 43
4, 480336, Note_on_c, 3, 64, 43
4, 480336, Note_on_c, 3, 48, 43
4, 480360, Note_off_c, 3, 41, 0
4, 480360, Note_off_c, 3, 57, 0
4, 480360, Note_off_c, 3, 73, 0
4, 480360, Note_off_c, 3, 89, 0
4, 480360, Note_off_c, 3, 54, 0
4, 480360, Note_off_c, 3, 67, 0
4, 480360, Note_on_c, 3, 75, 17
4, 480360, Note_on_c, 3, 46, 17
4, 480360, Note_on_c, 3, 81, 43
4, 480360, Note_on_c, 3, 65, 43
4, 480360, Note_on_c, 3, 49, 43
4, 480384, Note_off_c, 3, 42, 0
4, 480384, Note_off_c, 3, 58, 0
4, 480384, Note_off_c, 3, 74, 0
4, 480384, Note_off_c, 3, 90, 0
4, 480384, Note_off_c, 3, 53, 0
4, 480384, Note_off_c, 3, 68, 0
4, 480384, Note_on_c, 3, 76, 17
4, 480384, Note_on_c, 3, 45, 17
4, 480384, Note_on_c, 3, 82, 43
4, 480384, Note_on_c, 3, 66, 43
4, 480384, Note_on_c, 3, 50, 43
4, 480408, Note_off_c, 3, 43, 0
4, 480408, Note_off_c, 3, 59, 0
4, 480408, Note_off_c, 3, 75, 0
4, 480408, Note_off_c, 3, 91, 0
4, 480408, Note_off_c, 3, 52, 0
4, 480408, Note_off_c, 3, 69, 0
4, 480408, Note_on_c, 3, 77, 17
4, 480408, Note_on_c, 3, 44, 17
4, 480408, Note_on_c, 3, 83, 43
4, 480408, Note_on_c, 3, 67, 43
4, 480408, Note_on_c, 3, 51, 43
4, 480432, Note_off_c, 3, 44, 0
4, 480432, Note_off_c, 3, 60, 0
4, 480432, Note_off_c, 3, 76, 0
4, 480432, Note_off_c, 3, 92, 0
4, 480432, Note_off_c, 3, 51, 0
4, 480432, Note_off_c, 3, 70, 0
4, 480432, Note_on_c, 3, 78, 17
4, 480432, Note_on_c, 3, 43, 17
4, 480432, Note_on_c, 3, 84, 43
4, 480432, Note_on_c, 3, 68, 43
4, 480432, Note_on_c, 3, 52, 43
4, 480456, Note_off_c, 3, 45, 0
4, 480456, Note_off_c, 3, 61, 0
4, 480456, Note_off_c, 3, 77, 0
4, 480456, Note_off_c, 3, 93, 0
4, 480456, Note_off_c, 3, 50, 0
4, 480456, Note_off_c, 3, 71, 0
4, 480456, Note_on_c, 3, 79, 17
4, 480456, Note_on_c, 3, 42, 17
4, 480456, Note_on_c, 3, 85, 43
4, 480456, Note_on_c, 3, 69, 43
4, 480456, Note_on_c, 3, 53, 43
4, 480480, Note_off_c, 3, 46, 0
4, 480480, Note_off_c, 3, 62, 0
4, 480480, Note_off_c, 3, 78, 0
4, 480480, Note_off_c, 3, 94, 0
4, 480480, Note_off_c, 3, 49, 0
4, 480480, Note_off_c, 3, 72, 0
4, 480480, Note_on_c, 3, 80, 17
4, 480480, Note_on_c, 3, 41, 17
4, 480480, Note_on_c, 3, 86, 43
4, 480480, Note_on_c, 3, 70, 43
4, 480480, Note_on_c, 3, 54, 43
4, 480504, Note_off_c, 3, 47, 0
4, 480504, Note_off_c, 3, 63, 0
4, 480504, Note_off_c, 3, 79, 0
4, 480504, Note_off_c, 3, 95, 0
4, 480504, Note_off_c, 3, 48, 0
4, 480504, Note_off_c, 3, 73, 0
4, 480504, Note_on_c, 3, 81, 17
4, 480504, Note_on_c, 3, 40, 17
4, 480504, Note_on_c, 3, 87, 43
4, 480504, Note_on_c, 3, 71, 43
4, 480504, Note_on_c, 3, 55, 43
4, 480528, Note_off_c, 3, 48, 0
4, 480528, Note_off_c, 3, 64, 0
4, 480528, Note_off_c, 3, 80, 0
4, 480528, Note_off_c, 3, 47, 0
4, 480528, Note_off_c, 3, 74, 0
4, 480528, Note_on_c, 3, 82, 17
4, 480528, Note_on_c, 3, 39, 17
4, 480528, Note_on_c, 3, 88, 43
4, 480528, Note_on_c, 3, 72, 43
4, 480528, Note_on_c, 3, 56, 43
4, 480552, Note_off_c, 3, 49, 0
4, 480552, Note_off_c, 3, 65, 0
4, 480552, Note_off_c, 3, 81, 0
4, 480552, Note_off_c, 3, 46, 0
4, 480552, Note_off_c, 3, 75, 0
4, 480552, Note_on_c, 3, 83, 17
4, 480552, Note_on_c, 3, 38, 17
4, 480552, Note_on_c, 3, 89, 43
4, 480552, Note_on_c, 3, 73, 43
4, 480552, Note_on_c, 3, 57, 43
4, 480576, Note_off_c, 3, 50, 0
4, 480576, Note_off_c, 3, 66, 0
4, 480576, Note_off_c, 3, 82, 0
4, 480576, Note_off_c, 3, 45, 0
4, 480576, Note_off_c, 3, 76, 0
4, 480576, Note_on_c, 3, 84, 17
4, 480576, Note_on_c, 3, 37, 17
4, 480576, Note_on_c, 3, 90, 43
4, 480576, Note_on_c, 3, 74, 43
4, 480576, Note_on_c, 3, 58, 43
4, 480600, Note_off_c, 3, 51, 0
4, 480600, Note_off_c, 3, 67, 0
4, 480600, Note_off_c, 3, 83, 0
4, 480600, Note_off_c, 3, 44, 0
4, 480600, Note_off_c, 3, 77, 0
4, 480600, Note_on_c, 3, 85, 17
4, 480600, Note_on_c, 3, 36, 17
4, 480600, Note_on_c, 3, 91, 43
4, 480600, Note_on_c, 3, 75, 43
4, 480600, Note_on_c, 3, 59, 43
4, 480624, Note_off_c, 3, 52, 0
4, 480624, Note_off_c, 3, 68, 0
4, 480624, Note_off_c, 3, 84, 0
4, 480624, Note_off_c, 3, 43, 0
4, 480624, Note_off_c, 3, 78, 0
4, 480624, Note_on_c, 3, 86, 17
4, 480624, Note_on_c, 3, 35, 17
4, 480624, Note_on_c, 3, 92, 43
4, 480624, Note_on_c, 3, 76, 43
4, 480624, Note_on_c, 3, 60, 43
4, 480648, Note_off_c, 3, 53, 0
4, 480648, Note_off_c, 3, 69, 0
4, 480648, Note_off_c, 3, 85, 0
4, 480648, Note_off_c, 3, 42, 0
4, 480648, Note_off_c, 3, 79, 0
4, 480648, Note_on_c, 3, 87, 17
4, 480648, Note_on_c, 3, 34, 17
4, 480648, Note_on_c, 3, 93, 43
4, 480648, Note_on_c, 3, 77, 43
4, 480648, Note_on_c, 3, 61, 43
4, 480672, Note_off_c, 3, 54, 0
4, 480672, Note_off_c, 3, 70, 0
4, 480672, Note_off_c, 3, 86, 0
4, 480672, Note_off_c, 3, 41, 0
4, 480672, Note_off_c, 3, 80, 0
4, 480672, Note_on_c, 3, 88, 17
4, 480672, Note_on_c, 3, 33, 17
4, 480672, Note_on_c, 3, 94, 43
4, 480672, Note_on_c, 3, 78, 43
4, 480672, Note_on_c, 3, 62, 43
4, 480696, Note_off_c, 3, 55, 0
4, 480696, Note_off_c, 3, 71, 0
4, 480696, Note_off_c, 3, 87, 0
4, 480696, Note_off_c, 3, 40, 0
4, 480696, Note_off_c, 3, 81, 0
4, 480696, Note_on_c, 3, 89, 17
4, 480696, Note_on_c, 3, 32, 17
4, 480696, Note_on_c, 3, 95, 43
4, 480696, Note_on_c, 3, 79, 43
4, 480696, Note_on_c, 3, 63, 43
4, 480720, Note_off_c, 3, 56, 0
4, 480720, Note_off_c, 3, 72, 0
4, 480720, Note_off_c, 3, 88, 0
4, 480720, Note_off_c, 3, 39, 0
4, 480720, Note_off_c, 3, 82, 0
4, 480720, Note_on_c, 3, 90, 17
4, 480720, Note_on_c, 3, 31, 17
4, 480720, Note_on_c, 3, 80, 43
4, 480720, Note_on_c, 3, 64, 43
4, 480744, Note_off_c, 3, 57, 0
4, 480744, Note_off_c, 3, 73, 0
4, 480744, Note_off_c, 3, 89, 0
4, 480744, Note_off_c, 3, 38, 0
4, 480744, Note_off_c, 3, 83, 0
4, 480744, Note_on_c, 3, 91, 17
4, 480744, Note_on_c, 3, 30, 17
4, 480744, Note_on_c, 3, 81, 43
4, 480744, Note_on_c, 3, 65, 43
4, 480768, Note_off_c, 3, 58, 0
4, 480768, Note_off_c, 3, 74, 0
4, 480768, Note_off_c, 3, 90, 0
4, 480768, Note_off_c, 3, 37, 0
4, 480768, Note_off_c, 3, 84, 0
4, 480768, Note_on_c, 3, 28, 17
4, 480768, Note_on_c, 3, 93, 17
4, 480768, Note_on_c, 3, 82, 43
4, 480768, Note_on_c, 3, 66, 43
4, 480792, Note_off_c, 3, 59, 0
4, 480792, Note_off_c, 3, 75, 0
4, 480792, Note_off_c, 3, 91, 0
4, 480792, Note_off_c, 3, 36, 0
4, 480792, Note_off_c, 3, 85, 0
4, 480792, Note_on_c, 3, 29, 17
4, 480792, Note_on_c, 3, 92, 17
4, 480792, Note_on_c, 3, 83, 43
4, 480792, Note_on_c, 3, 67, 43
4, 480816, Note_off_c, 3, 60, 0
4, 480816, Note_off_c, 3, 76, 0
4, 480816, Note_off_c, 3, 92, 0
4, 480816, Note_off_c, 3, 35, 0
4, 480816, Note_off_c, 3, 86, 0
4, 480816, Note_on_c, 3, 30, 17
4, 480816, Note_on_c, 3, 91, 17
4, 480816, Note_on_c, 3, 84, 43
4, 480816, Note_on_c, 3, 68, 43
4, 480840, Note_off_c, 3, 61, 0
4, 480840, Note_off_c, 3, 77, 0
4, 480840, Note_off_c, 3, 93, 0
4, 480840, Note_off_c, 3, 34, 0
4, 480840, Note_off_c, 3, 87, 0
4, 480840, Note_on_c, 3, 31, 17
4, 480840, Note_on_c, 3, 90, 17
4, 480840, Note_on_c, 3, 85, 43
4, 480840, Note_on_c, 3, 69, 43
4, 480864, Note_off_c, 3, 62, 0
4, 480864, Note_off_c, 3, 78, 0
4, 480864, Note_off_c, 3, 94, 0
4, 480864, Note_off_c, 3, 33, 0
4, 480864, Note_off_c, 3, 88, 0
4, 480864, Note_on_c, 3, 32, 17
4, 480864, Note_on_c, 3, 89, 17
4, 480864, Note_on_c, 3, 86, 43
4, 480864, Note_on_c, 3, 70, 43
4, 480888, Note_off_c, 3, 63, 0
4, 480888, Note_off_c, 3, 79, 0
4, 480888, Note_off_c, 3, 95, 0
4, 480888, Note_off_c, 3, 32, 0
4, 480888, Note_off_c, 3, 89, 0
4, 480888, Note_on_c, 3, 33, 17
4, 480888, Note_on_c, 3, 88, 17
4, 480888, Note_on_c, 3, 87, 43
4, 480888, Note_on_c, 3, 71, 43
4, 480912, Note_off_c, 3, 64, 0
4, 480912, Note_off_c, 3, 80, 0
4, 480912, Note_off_c, 3, 31, 0
4, 480912, Note_off_c, 3, 90, 0
4, 480912, Note_on_c, 3, 34, 17
4, 480912, Note_on_c, 3, 87, 17
4, 480912, Note_on_c, 3, 88, 43
4, 480912, Note_on_c, 3, 72, 43
4, 480936, Note_off_c, 3, 65, 0
4, 480936, Note_off_c, 3, 81, 0
4, 480936, Note_off_c, 3, 30, 0
4, 480936, Note_off_c, 3, 91, 0
4, 480936, Note_on_c, 3, 35, 17
4, 480936, Note_on_c, 3, 86, 17
4, 480936, Note_on_c, 3, 89, 43
4, 480936, Note_on_c, 3, 73, 43
4, 480960, Note_off_c, 3, 66, 0
4, 480960, Note_off_c, 3, 82, 0
4, 480960, Note_off_c, 3, 93, 0
4, 480960, Note_off_c, 3, 28, 0
4, 480960, Note_on_c, 3, 36, 17
4, 480960, Note_on_c, 3, 85, 17
4, 480960, Note_on_c, 3, 90, 43
4, 480960, Note_on_c, 3, 74, 43
4, 480984, Note_off_c, 3, 67, 0
4, 480984, Note_off_c, 3, 83, 0
4, 480984, Note_off_c, 3, 92, 0
4, 480984, Note_off_c, 3, 29, 0
4, 480984, Note_on_c, 3, 37, 17
4, 480984, Note_on_c, 3, 84, 17
4, 480984, Note_on_c, 3, 91, 43
4, 480984, Note_on_c, 3, 75, 43
4, 481008, Note_off_c, 3, 68, 0
4, 481008, Note_off_c, 3, 84, 0
4, 481008, Note_off_c, 3, 91, 0
4, 481008, Note_off_c, 3, 30, 0
4, 481008, Note_on_c, 3, 38, 17
4, 481008, Note_on_c, 3, 83, 17
4, 481008, Note_on_c, 3, 92, 43
4, 481008, Note_on_c, 3, 76, 43
4, 481032, Note_off_c, 3, 69, 0
4, 481032, Note_off_c, 3, 85, 0
4, 481032, Note_off_c, 3, 90, 0
4, 481032, Note_off_c, 3, 31, 0
4, 481032, Note_on_c, 3, 39, 17
4, 481032, Note_on_c, 3, 82, 17
4, 481032, Note_on_c, 3, 93, 43
4, 481032, Note_on_c, 3, 77, 43
4, 481056, Note_off_c, 3, 70, 0
4, 481056, Note_off_c, 3, 86, 0
4, 481056, Note_off_c, 3, 89, 0
4, 481056, Note_off_c, 3, 32, 0
4, 481056, Note_on_c, 3, 40, 17
4, 481056, Note_on_c, 3, 81, 17
4, 481056, Note_on_c, 3, 94, 43
4, 481056, Note_on_c, 3, 78, 43
4, 481080, Note_off_c, 3, 71, 0
4, 481080, Note_off_c, 3, 87, 0
4, 481080, Note_off_c, 3, 88, 0
4, 481080, Note_off_c, 3, 33, 0
4, 481080, Note_on_c, 3, 41, 17
4, 481080, Note_on_c, 3, 80, 17
4, 481080, Note_on_c, 3, 95, 43
4, 481080, Note_on_c, 3, 79, 43
4, 481104, Note_off_c, 3, 72, 0
4, 481104, Note_off_c, 3, 88, 0
4, 481104, Note_off_c, 3, 87, 0
4, 481104, Note_off_c, 3, 34, 0
4, 481104, Note_on_c, 3, 42, 17
4, 481104, Note_on_c, 3, 79, 17
4, 481104, Note_on_c, 3, 80, 43
4, 481128, Note_off_c, 3, 73, 0
4, 481128, Note_off_c, 3, 89, 0
4, 481128, Note_off_c, 3, 86, 0
4, 481128, Note_off_c, 3, 35, 0
4, 481128, Note_on_c, 3, 43, 17
4, 481128, Note_on_c, 3, 78, 17
4, 481128, Note_on_c, 3, 81, 43
4, 481152, Note_off_c, 3, 74, 0
4, 481152, Note_off_c, 3, 90, 0
4, 481152, Note_off_c, 3, 85, 0
4, 481152, Note_off_c, 3, 36, 0
4, 481152, Note_on_c, 3, 44, 17
4, 481152, Note_on_c, 3, 77, 17
4, 481152, Note_on_c, 3, 82, 43
4, 481176, Note_off_c, 3, 75, 0
4, 481176, Note_off_c, 3, 91, 0
4, 481176, Note_off_c, 3, 84, 0
4, 481176, Note_off_c, 3, 37, 0
4, 481176, Note_on_c, 3, 45, 17
4, 481176, Note_on_c, 3, 76, 17
4, 481176, Note_on_c, 3, 83, 43
4, 481200, Note_off_c, 3, 76, 0
4, 481200, Note_off_c, 3, 92, 0
4, 481200, Note_off_c, 3, 83, 0
4, 481200, Note_off_c, 3, 38, 0
4, 481200, Note_on_c, 3, 46, 17
4, 481200, Note_on_c, 3, 75, 17
4, 481200, Note_on_c, 3, 84, 43
4, 481224, Note_off_c, 3, 77, 0
4, 481224, Note_off_c, 3, 93, 0
4, 481224, Note_off_c, 3, 82, 0
4, 481224, Note_off_c, 3, 39, 0
4, 481224, Note_on_c, 3, 47, 17
4, 481224, Note_on_c, 3, 74, 17
4, 481224, Note_on_c, 3, 85, 43
4, 481248, Note_off_c, 3, 78, 0
4, 481248, Note_off_c, 3, 94, 0
4, 481248, Note_off_c, 3, 81, 0
4, 481248, Note_off_c, 3, 40, 0
4, 481248, Note_on_c, 3, 48, 17
4, 481248, Note_on_c, 3, 73, 17
4, 481248, Note_on_c, 3, 86, 43
4, 481272, Note_off_c, 3, 79, 0
4, 481272, Note_off_c, 3, 95, 0
4, 481272, Note_off_c, 3, 80, 0
4, 481272, Note_off_c, 3, 41, 0
4, 481272, Note_on_c, 3, 72, 17
4, 481272, Note_on_c, 3, 49, 17
4, 481272, Note_on_c, 3, 87, 43
4, 481296, Note_off_c, 3, 80, 0
4, 481296, Note_off_c, 3, 79, 0
4, 481296, Note_off_c, 3, 42, 0
4, 481296, Note_on_c, 3, 71, 17
4, 481296, Note_on_c, 3, 50, 17
4, 481296, Note_on_c, 3, 88, 43
4, 481320, Note_off_c, 3, 81, 0
4, 481320, Note_off_c, 3, 78, 0
4, 481320, Note_off_c, 3, 43, 0
4, 481320, Note_on_c, 3, 51, 17
4, 481320, Note_on_c, 3, 70, 17
4, 481320, Note_on_c, 3, 89, 43
4, 481344, Note_off_c, 3, 82, 0
4, 481344, Note_off_c, 3, 77, 0
4, 481344, Note_off_c, 3, 44, 0
4, 481344, Note_on_c, 3, 52, 17
4, 481344, Note_on_c, 3, 69, 17
4, 481344, Note_on_c, 3, 90, 43
4, 481368, Note_off_c, 3, 83, 0
4, 481368, Note_off_c, 3, 76, 0
4, 481368, Note_off_c, 3, 45, 0
4, 481368, Note_on_c, 3, 53, 17
4, 481368, Note_on_c, 3, 68, 17
4, 481368, Note_on_c, 3, 91, 43
4, 481392, Note_off_c, 3, 84, 0
4, 481392, Note_off_c, 3, 75, 0
4, 481392, Note_off_c, 3, 46, 0
4, 481392, Note_on_c, 3, 54, 17
4, 481392, Note_on_c, 3, 67, 17
4, 481392, Note_on_c, 3, 92, 43
4, 481416, Note_off_c, 3, 85, 0
4, 481416, Note_off_c, 3, 74, 0
4, 481416, Note_off_c, 3, 47, 0
4, 481416, Note_on_c, 3, 55, 17
4, 481416, Note_on_c, 3, 66, 17
4, 481416, Note_on_c, 3, 93, 43
4, 481440, Note_off_c, 3, 86, 0
4, 481440, Note_off_c, 3, 73, 0
4, 481440, Note_off_c, 3, 48, 0
4, 481440, Note_on_c, 3, 56, 17
4, 481440, Note_on_c, 3, 65, 17
4, 481440, Note_on_c, 3, 94, 43
4, 481464, Note_off_c, 3, 87, 0
4, 481464, Note_off_c, 3, 49, 0
4, 481464, Note_off_c, 3, 72, 0
4, 481464, Note_on_c, 3, 57, 17
4, 481464, Note_on_c, 3, 64, 17
4, 481464, Note_on_c, 3, 95, 43
4, 481488, Note_off_c, 3, 88, 0
4, 481488, Note_off_c, 3, 50, 0
4, 481488, Note_off_c, 3, 71, 0
4, 481488, Note_on_c, 3, 58, 17
4, 481488, Note_on_c, 3, 63, 17
4, 481512, Note_off_c, 3, 89, 0
4, 481512, Note_off_c, 3, 70, 0
4, 481512, Note_off_c, 3, 51, 0
4, 481512, Note_on_c, 3, 62, 17
4, 481512, Note_on_c, 3, 59, 17
4, 481536, Note_off_c, 3, 90, 0
4, 481536, Note_off_c, 3, 69, 0
4, 481536, Note_off_c, 3, 52, 0
4, 481536, Note_on_c, 3, 60, 17
4, 481536, Note_on_c, 3, 61, 17
4, 481560, Note_off_c, 3, 91, 0
4, 481560, Note_off_c, 3, 68, 0
4, 481560, Note_off_c, 3, 53, 0
4, 481560, Note_on_c, 3, 61, 17
4, 481560, Note_on_c, 3, 60, 17
4, 481584, Note_off_c, 3, 92, 0
4, 481584, Note_off_c, 3, 67, 0
4, 481584, Note_off_c, 3, 54, 0
4, 481584, Note_on_c, 3, 59, 17
4, 481584, Note_on_c, 3, 62, 17
4, 481608, Note_off_c, 3, 93, 0
4, 481608, Note_off_c, 3, 66, 0
4, 481608, Note_off_c, 3, 55, 0
4, 481608, Note_on_c, 3, 63, 17
4, 481608, Note_on_c, 3, 58, 17
4, 481632, Note_off_c, 3, 94, 0
4, 481632, Note_off_c, 3, 65, 0
4, 481632, Note_off_c, 3, 56, 0
4, 481632, Note_on_c, 3, 64, 17
4, 481632, Note_on_c, 3, 57, 17
4, 481656, Note_off_c, 3, 95, 0
4, 481656, Note_off_c, 3, 64, 0
4, 481656, Note_off_c, 3, 57, 0
4, 481656, Note_on_c, 3, 65, 17
4, 481656, Note_on_c, 3, 56, 17
4, 481680, Note_off_c, 3, 63, 0
4, 481680, Note_off_c, 3, 58, 0
4, 481680, Note_on_c, 3, 66, 17
4, 481680, Note_on_c, 3, 55, 17
4, 481704, Note_off_c, 3, 59, 0
4, 481704, Note_off_c, 3, 62, 0
4, 481704, Note_on_c, 3, 67, 17
4, 481704, Note_on_c, 3, 54, 17
4, 481728, Note_off_c, 3, 61, 0
4, 481728, Note_off_c, 3, 60, 0
4, 481728, Note_on_c, 3, 68, 17
4, 481728, Note_on_c, 3, 53, 17
4, 481752, Note_off_c, 3, 60, 0
4, 481752, Note_off_c, 3, 61, 0
4, 481752, Note_on_c, 3, 69, 17
4, 481752, Note_on_c, 3, 52, 17
4, 481776, Note_off_c, 3, 62, 0
4, 481776, Note_off_c, 3, 59, 0
4, 481776, Note_on_c, 3, 70, 17
4, 481776, Note_on_c, 3, 51, 17
4, 481800, Note_off_c, 3, 58, 0
4, 481800, Note_off_c, 3, 63, 0
4, 481800, Note_on_c, 3, 71, 17
4, 481800, Note_on_c, 3, 50, 17
4, 481824, Note_off_c, 3, 57, 0
4, 481824, Note_off_c, 3, 64, 0
4, 481824, Note_on_c, 3, 72, 17
4, 481824, Note_on_c, 3, 49, 17
4, 481848, Note_off_c, 3, 56, 0
4, 481848, Note_off_c, 3, 65, 0
4, 481848, Note_on_c, 3, 73, 17
4, 481848, Note_on_c, 3, 48, 17
4, 481872, Note_off_c, 3, 55, 0
4, 481872, Note_off_c, 3, 66, 0
4, 481872, Note_on_c, 3, 74, 17
4, 481872, Note_on_c, 3, 47, 17
4, 481896, Note_off_c, 3, 54, 0
4, 481896, Note_off_c, 3, 67, 0
4, 481896, Note_on_c, 3, 75, 17
4, 481896, Note_on_c, 3, 46, 17
4, 481920, Note_off_c, 3, 53, 0
4, 481920, Note_off_c, 3, 68, 0
4, 481920, Note_on_c, 3, 76, 17
4, 481920, Note_on_c, 3, 45, 17
4, 481944, Note_off_c, 3, 52, 0
4, 481944, Note_off_c, 3, 69, 0
4, 481944, Note_on_c, 3, 77, 17
4, 481944, Note_on_c, 3, 44, 17
4, 481968, Note_off_c, 3, 51, 0
4, 481968, Note_off_c, 3, 70, 0
4, 481968, Note_on_c, 3, 78, 17
4, 481968, Note_on_c, 3, 43, 17
4, 481992, Note_off_c, 3, 50, 0
4, 481992, Note_off_c, 3, 71, 0
4, 481992, Note_on_c, 3, 79, 17
4, 481992, Note_on_c, 3, 42, 17
4, 482016, Note_off_c, 3, 49, 0
4, 482016, Note_off_c, 3, 72, 0
4, 482016, Note_on_c, 3, 80, 17
4, 482016, Note_on_c, 3, 41, 17
4, 482040, Note_off_c, 3, 48, 0
4, 482040, Note_off_c, 3, 73, 0
4, 482040, Note_on_c, 3, 81, 17
4, 482040, Note_on_c, 3, 40, 17
4, 482064, Note_off_c, 3, 47, 0
4, 482064, Note_off_c, 3, 74, 0
4, 482064, Note_on_c, 3, 82, 17
4, 482064, Note_on_c, 3, 39, 17
4, 482088, Note_off_c, 3, 46, 0
4, 482088, Note_off_c, 3, 75, 0
4, 482088, Note_on_c, 3, 83, 17
4, 482088, Note_on_c, 3, 38, 17
4, 482112, Note_off_c, 3, 45, 0
4, 482112, Note_off_c, 3, 76, 0
4, 482112, Note_on_c, 3, 84, 17
4, 482112, Note_on_c, 3, 37, 17
4, 482136, Note_off_c, 3, 44, 0
4, 482136, Note_off_c, 3, 77, 0
4, 482136, Note_on_c, 3, 85, 17
4, 482136, Note_on_c, 3, 36, 17
4, 482160, Note_off_c, 3, 43, 0
4, 482160, Note_off_c, 3, 78, 0
4, 482160, Note_on_c, 3, 86, 17
4, 482160, Note_on_c, 3, 35, 17
4, 482184, Note_off_c, 3, 42, 0
4, 482184, Note_off_c, 3, 79, 0
4, 482184, Note_on_c, 3, 87, 17
4, 482184, Note_on_c, 3, 34, 17
4, 482208, Note_off_c, 3, 41, 0
4, 482208, Note_off_c, 3, 80, 0
4, 482208, Note_on_c, 3, 88, 17
4, 482208, Note_on_c, 3, 33, 17
4, 482232, Note_off_c, 3, 40, 0
4, 482232, Note_off_c, 3, 81, 0
4, 482232, Note_on_c, 3, 89, 17
4, 482232, Note_on_c, 3, 32, 17
4, 482256, Note_off_c, 3, 39, 0
4, 482256, Note_off_c, 3, 82, 0
4, 482256, Note_on_c, 3, 90, 17
4, 482256, Note_on_c, 3, 31, 17
4, 482280, Note_off_c, 3, 38, 0
4, 482280, Note_off_c, 3, 83, 0
4, 482280, Note_on_c, 3, 91, 17
4, 482280, Note_on_c, 3, 30, 17
4, 482304, Note_off_c, 3, 37, 0
4, 482304, Note_off_c, 3, 84, 0
4, 482328, Note_off_c, 3, 36, 0
4, 482328, Note_off_c, 3, 85, 0
4, 482328, Note_on_c, 3, 28, 17
4, 482328, Note_on_c, 3, 93, 17
4, 482352, Note_off_c, 3, 35, 0
4, 482352, Note_off_c, 3, 86, 0
4, 482352, Note_on_c, 3, 29, 17
4, 482352, Note_on_c, 3, 92, 17
4, 482376, Note_off_c, 3, 34, 0
4, 482376, Note_off_c, 3, 87, 0
4, 482376, Note_on_c, 3, 30, 17
4, 482376, Note_on_c, 3, 91, 17
4, 482400, Note_off_c, 3, 33, 0
4, 482400, Note_off_c, 3, 88, 0
4, 482400, Note_on_c, 3, 31, 17
4, 482400, Note_on_c, 3, 90, 17
4, 482424, Note_off_c, 3, 32, 0
4, 482424, Note_off_c, 3, 89, 0
4, 482424, Note_on_c, 3, 32, 17
4, 482424, Note_on_c, 3, 89, 17
4, 482448, Note_off_c, 3, 31, 0
4, 482448, Note_off_c, 3, 90, 0
4, 482448, Note_on_c, 3, 33, 17
4, 482448, Note_on_c, 3, 88, 17
4, 482472, Note_off_c, 3, 30, 0
4, 482472, Note_off_c, 3, 91, 0
4, 482472, Note_on_c, 3, 34, 17
4, 482472, Note_on_c, 3, 87, 17
4, 482496, Note_on_c, 3, 35, 17
4, 482496, Note_on_c, 3, 86, 17
4, 482520, Note_off_c, 3, 93, 0
4, 482520, Note_off_c, 3, 28, 0
4, 482520, Note_on_c, 3, 36, 17
4, 482520, Note_on_c, 3, 85, 17
4, 482544, Note_off_c, 3, 92, 0
4, 482544, Note_off_c, 3, 29, 0
4, 482544, Note_on_c, 3, 37, 17
4, 482544, Note_on_c, 3, 84, 17
4, 482568, Note_off_c, 3, 91, 0
4, 482568, Note_off_c, 3, 30, 0
4, 482568, Note_on_c, 3, 38, 17
4, 482568, Note_on_c, 3, 83, 17
4, 482592, Note_off_c, 3, 90, 0
4, 482592, Note_off_c, 3, 31, 0
4, 482592, Note_on_c, 3, 39, 17
4, 482592, Note_on_c, 3, 82, 17
4, 482616, Note_off_c, 3, 89, 0
4, 482616, Note_off_c, 3, 32, 0
4, 482616, Note_on_c, 3, 40, 17
4, 482616, Note_on_c, 3, 81, 17
4, 482640, Note_off_c, 3, 88, 0
4, 482640, Note_off_c, 3, 33, 0
4, 482640, Note_on_c, 3, 41, 17
4, 482640, Note_on_c, 3, 80, 17
4, 482664, Note_off_c, 3, 87, 0
4, 482664, Note_off_c, 3, 34, 0
4, 482664, Note_on_c, 3, 42, 17
4, 482664, Note_on_c, 3, 79, 17
4, 482688, Note_off_c, 3, 86, 0
4, 482688, Note_off_c, 3, 35, 0
4, 482688, Note_on_c, 3, 43, 17
4, 482688, Note_on_c, 3, 78, 17
4, 482712, Note_off_c, 3, 85, 0
4, 482712, Note_off_c, 3, 36, 0
4, 482712, Note_on_c, 3, 44, 17
4, 482712, Note_on_c, 3, 77, 17
4, 482736, Note_off_c, 3, 84, 0
4, 482736, Note_off_c, 3, 37, 0
4, 482736, Note_on_c, 3, 45, 17
4, 482736, Note_on_c, 3, 76, 17
4, 482760, Note_off_c, 3, 83, 0
4, 482760, Note_off_c, 3, 38, 0
4, 482760, Note_on_c, 3, 46, 17
4, 482760, Note_on_c, 3, 75, 17
4, 482784, Note_off_c, 3, 82, 0
4, 482784, Note_off_c, 3, 39, 0
4, 482784, Note_on_c, 3, 47, 17
4, 482784, Note_on_c, 3, 74, 17
4, 482808, Note_off_c, 3, 81, 0
4, 482808, Note_off_c, 3, 40, 0
4, 482808, Note_on_c, 3, 48, 17
4, 482808, Note_on_c, 3, 73, 17
4, 482832, Note_off_c, 3, 80, 0
4, 482832, Note_off_c, 3, 41, 0
4, 482832, Note_on_c, 3, 72, 17
4, 482832, Note_on_c, 3, 49, 17
4, 482856, Note_off_c, 3, 79, 0
4, 482856, Note_off_c, 3, 42, 0
4, 482856, Note_on_c, 3, 71, 17
4, 482856, Note_on_c, 3, 50, 17
4, 482880, Note_off_c, 3, 78, 0
4, 482880, Note_off_c, 3, 43, 0
4, 482880, Note_on_c, 3, 51, 17
4, 482880, Note_on_c, 3, 70, 17
4, 482904, Note_off_c, 3, 77, 0
4, 482904, Note_off_c, 3, 44, 0
4, 482904, Note_on_c, 3, 52, 17
4, 482904, Note_on_c, 3, 69, 17
4, 482928, Note_off_c, 3, 76, 0
4, 482928, Note_off_c, 3, 45, 0
4, 482928, Note_on_c, 3, 53, 17
4, 482928, Note_on_c, 3, 68, 17
4, 482952, Note_off_c, 3, 75, 0
4, 482952, Note_off_c, 3, 46, 0
4, 482952, Note_on_c, 3, 54, 17
4, 482952, Note_on_c, 3, 67, 17
4, 482976, Note_off_c, 3, 74, 0
4, 482976, Note_off_c, 3, 47, 0
4, 482976, Note_on_c, 3, 55, 17
4, 482976, Note_on_c, 3, 66, 17
4, 483000, Note_off_c, 3, 73, 0
4, 483000, Note_off_c, 3, 48, 0
4, 483000, Note_on_c, 3, 56, 17
4, 483000, Note_on_c, 3, 65, 17
4, 483024, Note_off_c, 3, 49, 0
4, 483024, Note_off_c, 3, 72, 0
4, 483024, Note_on_c, 3, 57, 17
4, 483024, Note_on_c, 3, 64, 17
4, 483048, Note_off_c, 3, 50, 0
4, 483048, Note_off_c, 3, 71, 0
4, 483048, Note_on_c, 3, 58, 17
4, 483048, Note_on_c, 3, 63, 17
4, 483072, Note_off_c, 3, 70, 0
4, 483072, Note_off_c, 3, 51, 0
4, 483072, Note_on_c, 3, 62, 17
4, 483072, Note_on_c, 3, 59, 17
4, 483096, Note_off_c, 3, 69, 0
4, 483096, Note_off_c, 3, 52, 0
4, 483096, Note_on_c, 3, 60, 17
4, 483096, Note_on_c, 3, 61, 17
4, 483120, Note_off_c, 3, 68, 0
4, 483120, Note_off_c, 3, 53, 0
4, 483120, Note_on_c, 3, 61, 17
4, 483120, Note_on_c, 3, 60, 17
4, 483144, Note_off_c, 3, 67, 0
4, 483144, Note_off_c, 3, 54, 0
4, 483144, Note_on_c, 3, 59, 17
4, 483144, Note_on_c, 3, 62, 17
4, 483168, Note_off_c, 3, 66, 0
4, 483168, Note_off_c, 3, 55, 0
4, 483168, Note_on_c, 3, 63, 17
4, 483168, Note_on_c, 3, 58, 17
4, 483192, Note_off_c, 3, 65, 0
4, 483192, Note_off_c, 3, 56, 0
4, 483192, Note_on_c, 3, 64, 17
4, 483192, Note_on_c, 3, 57, 17
4, 483216, Note_off_c, 3, 64, 0
4, 483216, Note_off_c, 3, 57, 0
4, 483216, Note_on_c, 3, 65, 17
4, 483216, Note_on_c, 3, 56, 17
4, 483240, Note_off_c, 3, 63, 0
4, 483240, Note_off_c, 3, 58, 0
4, 483240, Note_on_c, 3, 66, 17
4, 483240, Note_on_c, 3, 55, 17
4, 483264, Note_off_c, 3, 59, 0
4, 483264, Note_off_c, 3, 62, 0
4, 483264, Note_on_c, 3, 67, 17
4, 483264, Note_on_c, 3, 54, 17
4, 483288, Note_off_c, 3, 61, 0
4, 483288, Note_off_c, 3, 60, 0
4, 483288, Note_on_c, 3, 68, 17
4, 483288, Note_on_c, 3, 53, 17
4, 483312, Note_off_c, 3, 60, 0
4, 483312, Note_off_c, 3, 61, 0
4, 483312, Note_on_c, 3, 69, 17
4, 483312, Note_on_c, 3, 52, 17
4, 483336, Note_off_c, 3, 62, 0
4, 483336, Note_off_c, 3, 59, 0
4, 483336, Note_on_c, 3, 70, 17
4, 483336, Note_on_c, 3, 51, 17
4, 483360, Note_off_c, 3, 58, 0
4, 483360, Note_off_c, 3, 63, 0
4, 483360, Note_on_c, 3, 71, 17
4, 483360, Note_on_c, 3, 50, 17
4, 483384, Note_off_c, 3, 57, 0
4, 483384, Note_off_c, 3, 64, 0
4, 483384, Note_on_c, 3, 72, 17
4, 483384, Note_on_c, 3, 49, 17
4, 483408, Note_off_c, 3, 56, 0
4, 483408, Note_off_c, 3, 65, 0
4, 483408, Note_on_c, 3, 73, 17
4, 483408, Note_on_c, 3, 48, 17
4, 483432, Note_off_c, 3, 55, 0
4, 483432, Note_off_c, 3, 66, 0
4, 483432, Note_on_c, 3, 74, 17
4, 483432, Note_on_c, 3, 47, 17
4, 483456, Note_off_c, 3, 54, 0
4, 483456, Note_off_c, 3, 67, 0
4, 483456, Note_on_c, 3, 75, 17
4, 483456, Note_on_c, 3, 46, 17
4, 483480, Note_off_c, 3, 53, 0
4, 483480, Note_off_c, 3, 68, 0
4, 483480, Note_on_c, 3, 76, 17
4, 483480, Note_on_c, 3, 45, 17
4, 483504, Note_off_c, 3, 52, 0
4, 483504, Note_off_c, 3, 69, 0
4, 483504, Note_on_c, 3, 77, 17
4, 483504, Note_on_c, 3, 44, 17
4, 483528, Note_off_c, 3, 51, 0
4, 483528, Note_off_c, 3, 70, 0
4, 483528, Note_on_c, 3, 78, 17
4, 483528, Note_on_c, 3, 43, 17
4, 483552, Note_off_c, 3, 50, 0
4, 483552, Note_off_c, 3, 71, 0
4, 483552, Note_on_c, 3, 79, 17
4, 483552, Note_on_c, 3, 42, 17
4, 483576, Note_off_c, 3, 49, 0
4, 483576, Note_off_c, 3, 72, 0
4, 483576, Note_on_c, 3, 80, 17
4, 483576, Note_on_c, 3, 41, 17
4, 483600, Note_off_c, 3, 48, 0
4, 483600, Note_off_c, 3, 73, 0
4, 483600, Note_on_c, 3, 81, 17
4, 483600, Note_on_c, 3, 40, 17
4, 483624, Note_off_c, 3, 47, 0
4, 483624, Note_off_c, 3, 74, 0
4, 483624, Note_on_c, 3, 82, 17
4, 483624, Note_on_c, 3, 39, 17
4, 483648, Note_off_c, 3, 46, 0
4, 483648, Note_off_c, 3, 75, 0
4, 483648, Note_on_c, 3, 83, 17
4, 483648, Note_on_c, 3, 38, 17
4, 483672, Note_off_c, 3, 45, 0
4, 483672, Note_off_c, 3, 76, 0
4, 483672, Note_on_c, 3, 84, 17
4, 483672, Note_on_c, 3, 37, 17
4, 483696, Note_off_c, 3, 44, 0
4, 483696, Note_off_c, 3, 77, 0
4, 483696, Note_on_c, 3, 85, 17
4, 483696, Note_on_c, 3, 36, 17
4, 483720, Note_off_c, 3, 43, 0
4, 483720, Note_off_c, 3, 78, 0
4, 483720, Note_on_c, 3, 86, 17
4, 483720, Note_on_c, 3, 35, 17
4, 483744, Note_off_c, 3, 42, 0
4, 483744, Note_off_c, 3, 79, 0
4, 483744, Note_on_c, 3, 87, 17
4, 483744, Note_on_c, 3, 34, 17
4, 483768, Note_off_c, 3, 41, 0
4, 483768, Note_off_c, 3, 80, 0
4, 483768, Note_on_c, 3, 88, 17
4, 483768, Note_on_c, 3, 33, 17
4, 483792, Note_off_c, 3, 40, 0
4, 483792, Note_off_c, 3, 81, 0
4, 483792, Note_on_c, 3, 89, 17
4, 483792, Note_on_c, 3, 32, 17
4, 483816, Note_off_c, 3, 39, 0
4, 483816, Note_off_c, 3, 82, 0
4, 483816, Note_on_c, 3, 90, 17
4, 483816, Note_on_c, 3, 31, 17
4, 483840, Note_off_c, 3, 38, 0
4, 483840, Note_off_c, 3, 83, 0
4, 483840, Note_on_c, 3, 91, 17
4, 483840, Note_on_c, 3, 30, 17
4, 483840, Note_on_c, 3, 28, 17
4, 483840, Note_on_c, 3, 93, 17
4, 483864, Note_off_c, 3, 37, 0
4, 483864, Note_off_c, 3, 84, 0
4, 483864, Note_on_c, 3, 29, 17
4, 483864, Note_on_c, 3, 92, 17
4, 483888, Note_off_c, 3, 36, 0
4, 483888, Note_off_c, 3, 85, 0
4, 483888, Note_on_c, 3, 30, 17
4, 483888, Note_on_c, 3, 91, 17
4, 483912, Note_off_c, 3, 35, 0
4, 483912, Note_off_c, 3, 86, 0
4, 483912, Note_on_c, 3, 31, 17
4, 483912, Note_on_c, 3, 90, 17
4, 483936, Note_off_c, 3, 34, 0
4, 483936, Note_off_c, 3, 87, 0
4, 483936, Note_on_c, 3, 32, 17
4, 483936, Note_on_c, 3, 89, 17
4, 483960, Note_off_c, 3, 33, 0
4, 483960, Note_off_c, 3, 88, 0
4, 483960, Note_on_c, 3, 33, 17
4, 483960, Note_on_c, 3, 88, 17
4, 483984, Note_off_c, 3, 32, 0
4, 483984, Note_off_c, 3, 89, 0
4, 483984, Note_on_c, 3, 34, 17
4, 483984, Note_on_c, 3, 87, 17
4, 484008, Note_off_c, 3, 31, 0
4, 484008, Note_off_c, 3, 90, 0
4, 484008, Note_on_c, 3, 35, 17
4, 484008, Note_on_c, 3, 86, 17
4, 484032, Note_off_c, 3, 93, 0
4, 484032, Note_off_c, 3, 28, 0
4, 484032, Note_off_c, 3, 30, 0
4, 484032, Note_off_c, 3, 91, 0
4, 484032, Note_on_c, 3, 36, 17
4, 484032, Note_on_c, 3, 85, 17
4, 484056, Note_off_c, 3, 92, 0
4, 484056, Note_off_c, 3, 29, 0
4, 484056, Note_on_c, 3, 37, 17
4, 484056, Note_on_c, 3, 84, 17
4, 484080, Note_off_c, 3, 91, 0
4, 484080, Note_off_c, 3, 30, 0
4, 484080, Note_on_c, 3, 38, 17
4, 484080, Note_on_c, 3, 83, 17
4, 484104, Note_off_c, 3, 90, 0
4, 484104, Note_off_c, 3, 31, 0
4, 484104, Note_on_c, 3, 39, 17
4, 484104, Note_on_c, 3, 82, 17
4, 484128, Note_off_c, 3, 89, 0
4, 484128, Note_off_c, 3, 32, 0
4, 484128, Note_on_c, 3, 40, 17
4, 484128, Note_on_c, 3, 81, 17
4, 484152, Note_off_c, 3, 88, 0
4, 484152, Note_off_c, 3, 33, 0
4, 484152, Note_on_c, 3, 41, 17
4, 484152, Note_on_c, 3, 80, 17
4, 484176, Note_off_c, 3, 87, 0
4, 484176, Note_off_c, 3, 34, 0
4, 484176, Note_on_c, 3, 42, 17
4, 484176, Note_on_c, 3, 79, 17
4, 484200, Note_off_c, 3, 86, 0
4, 484200, Note_off_c, 3, 35, 0
4, 484200, Note_on_c, 3, 43, 17
4, 484200, Note_on_c, 3, 78, 17
4, 484224, Note_off_c, 3, 85, 0
4, 484224, Note_off_c, 3, 36, 0
4, 484224, Note_on_c, 3, 44, 17
4, 484224, Note_on_c, 3, 77, 17
4, 484248, Note_off_c, 3, 84, 0
4, 484248, Note_off_c, 3, 37, 0
4, 484248, Note_on_c, 3, 45, 17
4, 484248, Note_on_c, 3, 76, 17
4, 484272, Note_off_c, 3, 83, 0
4, 484272, Note_off_c, 3, 38, 0
4, 484272, Note_on_c, 3, 46, 17
4, 484272, Note_on_c, 3, 75, 17
4, 484296, Note_off_c, 3, 82, 0
4, 484296, Note_off_c, 3, 39, 0
4, 484296, Note_on_c, 3, 47, 17
4, 484296, Note_on_c, 3, 74, 17
4, 484320, Note_off_c, 3, 81, 0
4, 484320, Note_off_c, 3, 40, 0
4, 484320, Note_on_c, 3, 48, 17
4, 484320, Note_on_c, 3, 73, 17
4, 484344, Note_off_c, 3, 80, 0
4, 484344, Note_off_c, 3, 41, 0
4, 484344, Note_on_c, 3, 72, 17
4, 484344, Note_on_c, 3, 49, 17
4, 484368, Note_off_c, 3, 79, 0
4, 484368, Note_off_c, 3, 42, 0
4, 484368, Note_on_c, 3, 71, 17
4, 484368, Note_on_c, 3, 50, 17
4, 484392, Note_off_c, 3, 78, 0
4, 484392, Note_off_c, 3, 43, 0
4, 484392, Note_on_c, 3, 51, 17
4, 484392, Note_on_c, 3, 70, 17
4, 484416, Note_off_c, 3, 77, 0
4, 484416, Note_off_c, 3, 44, 0
4, 484416, Note_on_c, 3, 52, 17
4, 484416, Note_on_c, 3, 69, 17
4, 484440, Note_off_c, 3, 76, 0
4, 484440, Note_off_c, 3, 45, 0
4, 484440, Note_on_c, 3, 53, 17
4, 484440, Note_on_c, 3, 68, 17
4, 484464, Note_off_c, 3, 75, 0
4, 484464, Note_off_c, 3, 46, 0
4, 484464, Note_on_c, 3, 54, 17
4, 484464, Note_on_c, 3, 67, 17
4, 484488, Note_off_c, 3, 74, 0
4, 484488, Note_off_c, 3, 47, 0
4, 484488, Note_on_c, 3, 55, 17
4, 484488, Note_on_c, 3, 66, 17
4, 484512, Note_off_c, 3, 73, 0
4, 484512, Note_off_c, 3, 48, 0
4, 484512, Note_on_c, 3, 56, 17
4, 484512, Note_on_c, 3, 65, 17
4, 484536, Note_off_c, 3, 49, 0
4, 484536, Note_off_c, 3, 72, 0
4, 484536, Note_on_c, 3, 57, 17
4, 484536, Note_on_c, 3, 64, 17
4, 484560, Note_off_c, 3, 50, 0
4, 484560, Note_off_c, 3, 71, 0
4, 484560, Note_on_c, 3, 58, 17
4, 484560, Note_on_c, 3, 63, 17
4, 484584, Note_off_c, 3, 70, 0
4, 484584, Note_off_c, 3, 51, 0
4, 484584, Note_on_c, 3, 62, 17
4, 484584, Note_on_c, 3, 59, 17
4, 484608, Note_off_c, 3, 69, 0
4, 484608, Note_off_c, 3, 52, 0
4, 484608, Note_on_c, 3, 60, 17
4, 484608, Note_on_c, 3, 61, 17
4, 484632, Note_off_c, 3, 68, 0
4, 484632, Note_off_c, 3, 53, 0
4, 484632, Note_on_c, 3, 61, 17
4, 484632, Note_on_c, 3, 60, 17
4, 484656, Note_off_c, 3, 67, 0
4, 484656, Note_off_c, 3, 54, 0
4, 484656, Note_on_c, 3, 59, 17
4, 484656, Note_on_c, 3, 62, 17
4, 484680, Note_off_c, 3, 66, 0
4, 484680, Note_off_c, 3, 55, 0
4, 484680, Note_on_c, 3, 63, 17
4, 484680, Note_on_c, 3, 58, 17
4, 484704, Note_off_c, 3, 65, 0
4, 484704, Note_off_c, 3, 56, 0
4, 484704, Note_on_c, 3, 64, 17
4, 484704, Note_on_c, 3, 57, 17
4, 484728, Note_off_c, 3, 64, 0
4, 484728, Note_off_c, 3, 57, 0
4, 484728, Note_on_c, 3, 65, 17
4, 484728, Note_on_c, 3, 56, 17
4, 484752, Note_off_c, 3, 63, 0
4, 484752, Note_off_c, 3, 58, 0
4, 484752, Note_on_c, 3, 66, 17
4, 484752, Note_on_c, 3, 55, 17
4, 484776, Note_off_c, 3, 59, 0
4, 484776, Note_off_c, 3, 62, 0
4, 484776, Note_on_c, 3, 67, 17
4, 484776, Note_on_c, 3, 54, 17
4, 484800, Note_off_c, 3, 61, 0
4, 484800, Note_off_c, 3, 60, 0
4, 484800, Note_on_c, 3, 68, 17
4, 484800, Note_on_c, 3, 53, 17
4, 484824, Note_off_c, 3, 60, 0
4, 484824, Note_off_c, 3, 61, 0
4, 484824, Note_on_c, 3, 69, 17
4, 484824, Note_on_c, 3, 52, 17
4, 484848, Note_off_c, 3, 62, 0
4, 484848, Note_off_c, 3, 59, 0
4, 484848, Note_on_c, 3, 70, 17
4, 484848, Note_on_c, 3, 51, 17
4, 484872, Note_off_c, 3, 58, 0
4, 484872, Note_off_c, 3, 63, 0
4, 484872, Note_on_c, 3, 71, 17
4, 484872, Note_on_c, 3, 50, 17
4, 484896, Note_off_c, 3, 57, 0
4, 484896, Note_off_c, 3, 64, 0
4, 484896, Note_on_c, 3, 72, 17
4, 484896, Note_on_c, 3, 49, 17
4, 484920, Note_off_c, 3, 56, 0
4, 484920, Note_off_c, 3, 65, 0
4, 484920, Note_on_c, 3, 73, 17
4, 484920, Note_on_c, 3, 48, 17
4, 484944, Note_off_c, 3, 55, 0
4, 484944, Note_off_c, 3, 66, 0
4, 484944, Note_on_c, 3, 74, 17
4, 484944, Note_on_c, 3, 47, 17
4, 484968, Note_off_c, 3, 54, 0
4, 484968, Note_off_c, 3, 67, 0
4, 484968, Note_on_c, 3, 75, 17
4, 484968, Note_on_c, 3, 46, 17
4, 484992, Note_off_c, 3, 53, 0
4, 484992, Note_off_c, 3, 68, 0
4, 484992, Note_on_c, 3, 76, 17
4, 484992, Note_on_c, 3, 45, 17
4, 485016, Note_off_c, 3, 52, 0
4, 485016, Note_off_c, 3, 69, 0
4, 485016, Note_on_c, 3, 77, 17
4, 485016, Note_on_c, 3, 44, 17
4, 485040, Note_off_c, 3, 51, 0
4, 485040, Note_off_c, 3, 70, 0
4, 485040, Note_on_c, 3, 78, 17
4, 485040, Note_on_c, 3, 43, 17
4, 485064, Note_off_c, 3, 50, 0
4, 485064, Note_off_c, 3, 71, 0
4, 485064, Note_on_c, 3, 79, 17
4, 485064, Note_on_c, 3, 42, 17
4, 485088, Note_off_c, 3, 49, 0
4, 485088, Note_off_c, 3, 72, 0
4, 485088, Note_on_c, 3, 80, 17
4, 485088, Note_on_c, 3, 41, 17
4, 485112, Note_off_c, 3, 48, 0
4, 485112, Note_off_c, 3, 73, 0
4, 485112, Note_on_c, 3, 81, 17
4, 485112, Note_on_c, 3, 40, 17
4, 485136, Note_off_c, 3, 47, 0
4, 485136, Note_off_c, 3, 74, 0
4, 485136, Note_on_c, 3, 82, 17
4, 485136, Note_on_c, 3, 39, 17
4, 485160, Note_off_c, 3, 46, 0
4, 485160, Note_off_c, 3, 75, 0
4, 485160, Note_on_c, 3, 83, 17
4, 485160, Note_on_c, 3, 38, 17
4, 485184, Note_off_c, 3, 45, 0
4, 485184, Note_off_c, 3, 76, 0
4, 485184, Note_on_c, 3, 84, 17
4, 485184, Note_on_c, 3, 37, 17
4, 485208, Note_off_c, 3, 44, 0
4, 485208, Note_off_c, 3, 77, 0
4, 485208, Note_on_c, 3, 85, 17
4, 485208, Note_on_c, 3, 36, 17
4, 485232, Note_off_c, 3, 43, 0
4, 485232, Note_off_c, 3, 78, 0
4, 485232, Note_on_c, 3, 86, 17
4, 485232, Note_on_c, 3, 35, 17
4, 485256, Note_off_c, 3, 42, 0
4, 485256, Note_off_c, 3, 79, 0
4, 485256, Note_on_c, 3, 87, 17
4, 485256, Note_on_c, 3, 34, 17
4, 485280, Note_off_c, 3, 41, 0
4, 485280, Note_off_c, 3, 80, 0
4, 485280, Note_on_c, 3, 88, 17
4, 485280, Note_on_c, 3, 33, 17
4, 485304, Note_off_c, 3, 40, 0
4, 485304, Note_off_c, 3, 81, 0
4, 485304, Note_on_c, 3, 89, 17
4, 485304, Note_on_c, 3, 32, 17
4, 485328, Note_off_c, 3, 39, 0
4, 485328, Note_off_c, 3, 82, 0
4, 485328, Note_on_c, 3, 90, 17
4, 485328, Note_on_c, 3, 31, 17
4, 485352, Note_off_c, 3, 38, 0
4, 485352, Note_off_c, 3, 83, 0
4, 485352, Note_on_c, 3, 91, 17
4, 485352, Note_on_c, 3, 30, 17
4, 485376, Note_off_c, 3, 37, 0
4, 485376, Note_off_c, 3, 84, 0
4, 485376, Note_on_c, 3, 93, 17
4, 485376, Note_on_c, 3, 28, 17
4, 485400, Note_off_c, 3, 36, 0
4, 485400, Note_off_c, 3, 85, 0
4, 485400, Note_on_c, 3, 29, 17
4, 485400, Note_on_c, 3, 92, 17
4, 485424, Note_off_c, 3, 35, 0
4, 485424, Note_off_c, 3, 86, 0
4, 485424, Note_on_c, 3, 30, 17
4, 485424, Note_on_c, 3, 91, 17
4, 485448, Note_off_c, 3, 34, 0
4, 485448, Note_off_c, 3, 87, 0
4, 485448, Note_on_c, 3, 31, 17
4, 485448, Note_on_c, 3, 90, 17
4, 485472, Note_off_c, 3, 33, 0
4, 485472, Note_off_c, 3, 88, 0
4, 485472, Note_on_c, 3, 32, 17
4, 485472, Note_on_c, 3, 89, 17
4, 485496, Note_off_c, 3, 32, 0
4, 485496, Note_off_c, 3, 89, 0
4, 485496, Note_on_c, 3, 33, 17
4, 485496, Note_on_c, 3, 88, 17
4, 485520, Note_off_c, 3, 31, 0
4, 485520, Note_off_c, 3, 90, 0
4, 485520, Note_on_c, 3, 34, 17
4, 485520, Note_on_c, 3, 87, 17
4, 485544, Note_off_c, 3, 30, 0
4, 485544, Note_off_c, 3, 91, 0
4, 485544, Note_on_c, 3, 35, 17
4, 485544, Note_on_c, 3, 86, 17
4, 485568, Note_off_c, 3, 28, 0
4, 485568, Note_off_c, 3, 93, 0
4, 485568, Note_on_c, 3, 36, 17
4, 485568, Note_on_c, 3, 85, 17
4, 485592, Note_off_c, 3, 92, 0
4, 485592, Note_off_c, 3, 29, 0
4, 485592, Note_on_c, 3, 37, 17
4, 485592, Note_on_c, 3, 84, 17
4, 485616, Note_off_c, 3, 91, 0
4, 485616, Note_off_c, 3, 30, 0
4, 485616, Note_on_c, 3, 38, 17
4, 485616, Note_on_c, 3, 83, 17
4, 485640, Note_off_c, 3, 90, 0
4, 485640, Note_off_c, 3, 31, 0
4, 485640, Note_on_c, 3, 39, 17
4, 485640, Note_on_c, 3, 82, 17
4, 485664, Note_off_c, 3, 89, 0
4, 485664, Note_off_c, 3, 32, 0
4, 485664, Note_on_c, 3, 40, 17
4, 485664, Note_on_c, 3, 81, 17
4, 485688, Note_off_c, 3, 88, 0
4, 485688, Note_off_c, 3, 33, 0
4, 485688, Note_on_c, 3, 41, 17
4, 485688, Note_on_c, 3, 80, 17
4, 485712, Note_off_c, 3, 87, 0
4, 485712, Note_off_c, 3, 34, 0
4, 485712, Note_on_c, 3, 42, 17
4, 485712, Note_on_c, 3, 79, 17
4, 485736, Note_off_c, 3, 86, 0
4, 485736, Note_off_c, 3, 35, 0
4, 485736, Note_on_c, 3, 43, 17
4, 485736, Note_on_c, 3, 78, 17
4, 485760, Note_off_c, 3, 85, 0
4, 485760, Note_off_c, 3, 36, 0
4, 485760, Note_on_c, 3, 44, 17
4, 485760, Note_on_c, 3, 77, 17
4, 485784, Note_off_c, 3, 84, 0
4, 485784, Note_off_c, 3, 37, 0
4, 485784, Note_on_c, 3, 45, 17
4, 485784, Note_on_c, 3, 76, 17
4, 485808, Note_off_c, 3, 83, 0
4, 485808, Note_off_c, 3, 38, 0
4, 485808, Note_on_c, 3, 46, 17
4, 485808, Note_on_c, 3, 75, 17
4, 485832, Note_off_c, 3, 82, 0
4, 485832, Note_off_c, 3, 39, 0
4, 485832, Note_on_c, 3, 47, 17
4, 485832, Note_on_c, 3, 74, 17
4, 485856, Note_off_c, 3, 81, 0
4, 485856, Note_off_c, 3, 40, 0
4, 485856, Note_on_c, 3, 48, 17
4, 485856, Note_on_c, 3, 73, 17
4, 485880, Note_off_c, 3, 80, 0
4, 485880, Note_off_c, 3, 41, 0
4, 485880, Note_on_c, 3, 72, 17
4, 485880, Note_on_c, 3, 49, 17
4, 485904, Note_off_c, 3, 79, 0
4, 485904, Note_off_c, 3, 42, 0
4, 485904, Note_on_c, 3, 71, 17
4, 485904, Note_on_c, 3, 50, 17
4, 485928, Note_off_c, 3, 78, 0
4, 485928, Note_off_c, 3, 43, 0
4, 485928, Note_on_c, 3, 51, 17
4, 485928, Note_on_c, 3, 70, 17
4, 485952, Note_off_c, 3, 77, 0
4, 485952, Note_off_c, 3, 44, 0
4, 485952, Note_on_c, 3, 52, 17
4, 485952, Note_on_c, 3, 69, 17
4, 485976, Note_off_c, 3, 76, 0
4, 485976, Note_off_c, 3, 45, 0
4, 485976, Note_on_c, 3, 53, 17
4, 485976, Note_on_c, 3, 68, 17
4, 486000, Note_off_c, 3, 75, 0
4, 486000, Note_off_c, 3, 46, 0
4, 486000, Note_on_c, 3, 54, 17
4, 486000, Note_on_c, 3, 67, 17
4, 486024, Note_off_c, 3, 74, 0
4, 486024, Note_off_c, 3, 47, 0
4, 486024, Note_on_c, 3, 55, 17
4, 486024, Note_on_c, 3, 66, 17
4, 486048, Note_off_c, 3, 73, 0
4, 486048, Note_off_c, 3, 48, 0
4, 486048, Note_on_c, 3, 56, 17
4, 486048, Note_on_c, 3, 65, 17
4, 486072, Note_off_c, 3, 49, 0
4, 486072, Note_off_c, 3, 72, 0
4, 486072, Note_on_c, 3, 57, 17
4, 486072, Note_on_c, 3, 64, 17
4, 486096, Note_off_c, 3, 50, 0
4, 486096, Note_off_c, 3, 71, 0
4, 486096, Note_on_c, 3, 58, 17
4, 486096, Note_on_c, 3, 63, 17
4, 486120, Note_off_c, 3, 70, 0
4, 486120, Note_off_c, 3, 51, 0
4, 486120, Note_on_c, 3, 62, 17
4, 486120, Note_on_c, 3, 59, 17
4, 486144, Note_off_c, 3, 69, 0
4, 486144, Note_off_c, 3, 52, 0
4, 486144, Note_on_c, 3, 60, 17
4, 486144, Note_on_c, 3, 61, 17
4, 486168, Note_off_c, 3, 68, 0
4, 486168, Note_off_c, 3, 53, 0
4, 486168, Note_on_c, 3, 61, 17
4, 486168, Note_on_c, 3, 60, 17
4, 486192, Note_off_c, 3, 67, 0
4, 486192, Note_off_c, 3, 54, 0
4, 486192, Note_on_c, 3, 59, 17
4, 486192, Note_on_c, 3, 62, 17
4, 486216, Note_off_c, 3, 66, 0
4, 486216, Note_off_c, 3, 55, 0
4, 486216, Note_on_c, 3, 63, 17
4, 486216, Note_on_c, 3, 58, 17
4, 486240, Note_off_c, 3, 65, 0
4, 486240, Note_off_c, 3, 56, 0
4, 486240, Note_on_c, 3, 64, 17
4, 486240, Note_on_c, 3, 57, 17
4, 486264, Note_off_c, 3, 64, 0
4, 486264, Note_off_c, 3, 57, 0
4, 486264, Note_on_c, 3, 65, 17
4, 486264, Note_on_c, 3, 56, 17
4, 486288, Note_off_c, 3, 63, 0
4, 486288, Note_off_c, 3, 58, 0
4, 486288, Note_on_c, 3, 66, 17
4, 486288, Note_on_c, 3, 55, 17
4, 486312, Note_off_c, 3, 59, 0
4, 486312, Note_off_c, 3, 62, 0
4, 486312, Note_on_c, 3, 67, 17
4, 486312, Note_on_c, 3, 54, 17
4, 486336, Note_off_c, 3, 61, 0
4, 486336, Note_off_c, 3, 60, 0
4, 486336, Note_on_c, 3, 68, 17
4, 486336, Note_on_c, 3, 53, 17
4, 486360, Note_off_c, 3, 60, 0
4, 486360, Note_off_c, 3, 61, 0
4, 486360, Note_on_c, 3, 69, 17
4, 486360, Note_on_c, 3, 52, 17
4, 486384, Note_off_c, 3, 62, 0
4, 486384, Note_off_c, 3, 59, 0
4, 486384, Note_on_c, 3, 70, 17
4, 486384, Note_on_c, 3, 51, 17
4, 486408, Note_off_c, 3, 58, 0
4, 486408, Note_off_c, 3, 63, 0
4, 486408, Note_on_c, 3, 71, 17
4, 486408, Note_on_c, 3, 50, 17
4, 486432, Note_off_c, 3, 57, 0
4, 486432, Note_off_c, 3, 64, 0
4, 486432, Note_on_c, 3, 72, 17
4, 486432, Note_on_c, 3, 49, 17
4, 486456, Note_off_c, 3, 56, 0
4, 486456, Note_off_c, 3, 65, 0
4, 486456, Note_on_c, 3, 73, 17
4, 486456, Note_on_c, 3, 48, 17
4, 486480, Note_off_c, 3, 55, 0
4, 486480, Note_off_c, 3, 66, 0
4, 486480, Note_on_c, 3, 74, 17
4, 486480, Note_on_c, 3, 47, 17
4, 486504, Note_off_c, 3, 54, 0
4, 486504, Note_off_c, 3, 67, 0
4, 486504, Note_on_c, 3, 75, 17
4, 486504, Note_on_c, 3, 46, 17
4, 486528, Note_off_c, 3, 53, 0
4, 486528, Note_off_c, 3, 68, 0
4, 486528, Note_on_c, 3, 76, 17
4, 486528, Note_on_c, 3, 45, 17
4, 486552, Note_off_c, 3, 52, 0
4, 486552, Note_off_c, 3, 69, 0
4, 486552, Note_on_c, 3, 77, 17
4, 486552, Note_on_c, 3, 44, 17
4, 486576, Note_off_c, 3, 51, 0
4, 486576, Note_off_c, 3, 70, 0
4, 486576, Note_on_c, 3, 78, 17
4, 486576, Note_on_c, 3, 43, 17
4, 486600, Note_off_c, 3, 50, 0
4, 486600, Note_off_c, 3, 71, 0
4, 486600, Note_on_c, 3, 79, 17
4, 486600, Note_on_c, 3, 42, 17
4, 486624, Note_off_c, 3, 49, 0
4, 486624, Note_off_c, 3, 72, 0
4, 486624, Note_on_c, 3, 80, 17
4, 486624, Note_on_c, 3, 41, 17
4, 486648, Note_off_c, 3, 48, 0
4, 486648, Note_off_c, 3, 73, 0
4, 486648, Note_on_c, 3, 81, 17
4, 486648, Note_on_c, 3, 40, 17
4, 486672, Note_off_c, 3, 47, 0
4, 486672, Note_off_c, 3, 74, 0
4, 486672, Note_on_c, 3, 82, 17
4, 486672, Note_on_c, 3, 39, 17
4, 486696, Note_off_c, 3, 46, 0
4, 486696, Note_off_c, 3, 75, 0
4, 486696, Note_on_c, 3, 83, 17
4, 486696, Note_on_c, 3, 38, 17
4, 486720, Note_off_c, 3, 45, 0
4, 486720, Note_off_c, 3, 76, 0
4, 486720, Note_on_c, 3, 84, 17
4, 486720, Note_on_c, 3, 37, 17
4, 486744, Note_off_c, 3, 44, 0
4, 486744, Note_off_c, 3, 77, 0
4, 486744, Note_on_c, 3, 85, 17
4, 486744, Note_on_c, 3, 36, 17
4, 486768, Note_off_c, 3, 43, 0
4, 486768, Note_off_c, 3, 78, 0
4, 486768, Note_on_c, 3, 86, 17
4, 486768, Note_on_c, 3, 35, 17
4, 486792, Note_off_c, 3, 42, 0
4, 486792, Note_off_c, 3, 79, 0
4, 486792, Note_on_c, 3, 87, 17
4, 486792, Note_on_c, 3, 34, 17
4, 486816, Note_off_c, 3, 41, 0
4, 486816, Note_off_c, 3, 80, 0
4, 486816, Note_on_c, 3, 88, 17
4, 486816, Note_on_c, 3, 33, 17
4, 486840, Note_off_c, 3, 40, 0
4, 486840, Note_off_c, 3, 81, 0
4, 486840, Note_on_c, 3, 89, 17
4, 486840, Note_on_c, 3, 32, 17
4, 486864, Note_off_c, 3, 39, 0
4, 486864, Note_off_c, 3, 82, 0
4, 486864, Note_on_c, 3, 90, 17
4, 486864, Note_on_c, 3, 31, 17
4, 486888, Note_off_c, 3, 38, 0
4, 486888, Note_off_c, 3, 83, 0
4, 486888, Note_on_c, 3, 91, 17
4, 486888, Note_on_c, 3, 30, 17
4, 486912, Note_off_c, 3, 37, 0
4, 486912, Note_off_c, 3, 84, 0
4, 486912, Note_on_c, 3, 28, 17
4, 486912, Note_on_c, 3, 93, 17
4, 486936, Note_off_c, 3, 36, 0
4, 486936, Note_off_c, 3, 85, 0
4, 486936, Note_on_c, 3, 29, 17
4, 486936, Note_on_c, 3, 92, 17
4, 486960, Note_off_c, 3, 35, 0
4, 486960, Note_off_c, 3, 86, 0
4, 486960, Note_on_c, 3, 30, 17
4, 486960, Note_on_c, 3, 91, 17
4, 486984, Note_off_c, 3, 34, 0
4, 486984, Note_off_c, 3, 87, 0
4, 486984, Note_on_c, 3, 31, 17
4, 486984, Note_on_c, 3, 90, 17
4, 487008, Note_off_c, 3, 33, 0
4, 487008, Note_off_c, 3, 88, 0
4, 487008, Note_on_c, 3, 32, 17
4, 487008, Note_on_c, 3, 89, 17
4, 487032, Note_off_c, 3, 32, 0
4, 487032, Note_off_c, 3, 89, 0
4, 487032, Note_on_c, 3, 33, 17
4, 487032, Note_on_c, 3, 88, 17
4, 487056, Note_off_c, 3, 31, 0
4, 487056, Note_off_c, 3, 90, 0
4, 487056, Note_on_c, 3, 34, 17
4, 487056, Note_on_c, 3, 87, 17
4, 487080, Note_off_c, 3, 30, 0
4, 487080, Note_off_c, 3, 91, 0
4, 487080, Note_on_c, 3, 35, 17
4, 487080, Note_on_c, 3, 86, 17
4, 487104, Note_off_c, 3, 93, 0
4, 487104, Note_off_c, 3, 28, 0
4, 487104, Note_on_c, 3, 36, 17
4, 487104, Note_on_c, 3, 85, 17
4, 487128, Note_off_c, 3, 92, 0
4, 487128, Note_off_c, 3, 29, 0
4, 487128, Note_on_c, 3, 37, 17
4, 487128, Note_on_c, 3, 84, 17
4, 487152, Note_off_c, 3, 91, 0
4, 487152, Note_off_c, 3, 30, 0
4, 487152, Note_on_c, 3, 38, 17
4, 487152, Note_on_c, 3, 83, 17
4, 487176, Note_off_c, 3, 90, 0
4, 487176, Note_off_c, 3, 31, 0
4, 487176, Note_on_c, 3, 39, 17
4, 487176, Note_on_c, 3, 82, 17
4, 487200, Note_off_c, 3, 89, 0
4, 487200, Note_off_c, 3, 32, 0
4, 487200, Note_on_c, 3, 40, 17
4, 487200, Note_on_c, 3, 81, 17
4, 487224, Note_off_c, 3, 88, 0
4, 487224, Note_off_c, 3, 33, 0
4, 487224, Note_on_c, 3, 41, 17
4, 487224, Note_on_c, 3, 80, 17
4, 487248, Note_off_c, 3, 87, 0
4, 487248, Note_off_c, 3, 34, 0
4, 487248, Note_on_c, 3, 42, 17
4, 487248, Note_on_c, 3, 79, 17
4, 487272, Note_off_c, 3, 86, 0
4, 487272, Note_off_c, 3, 35, 0
4, 487272, Note_on_c, 3, 43, 17
4, 487272, Note_on_c, 3, 78, 17
4, 487296, Note_off_c, 3, 85, 0
4, 487296, Note_off_c, 3, 36, 0
4, 487296, Note_on_c, 3, 44, 17
4, 487296, Note_on_c, 3, 77, 17
4, 487320, Note_off_c, 3, 84, 0
4, 487320, Note_off_c, 3, 37, 0
4, 487320, Note_on_c, 3, 45, 17
4, 487320, Note_on_c, 3, 76, 17
4, 487344, Note_off_c, 3, 83, 0
4, 487344, Note_off_c, 3, 38, 0
4, 487344, Note_on_c, 3, 46, 17
4, 487344, Note_on_c, 3, 75, 17
4, 487368, Note_off_c, 3, 82, 0
4, 487368, Note_off_c, 3, 39, 0
4, 487368, Note_on_c, 3, 47, 17
4, 487368, Note_on_c, 3, 74, 17
4, 487392, Note_off_c, 3, 81, 0
4, 487392, Note_off_c, 3, 40, 0
4, 487392, Note_on_c, 3, 48, 17
4, 487392, Note_on_c, 3, 73, 17
4, 487416, Note_off_c, 3, 80, 0
4, 487416, Note_off_c, 3, 41, 0
4, 487416, Note_on_c, 3, 72, 17
4, 487416, Note_on_c, 3, 49, 17
4, 487440, Note_off_c, 3, 79, 0
4, 487440, Note_off_c, 3, 42, 0
4, 487440, Note_on_c, 3, 71, 17
4, 487440, Note_on_c, 3, 50, 17
4, 487464, Note_off_c, 3, 78, 0
4, 487464, Note_off_c, 3, 43, 0
4, 487464, Note_on_c, 3, 51, 17
4, 487464, Note_on_c, 3, 70, 17
4, 487488, Note_off_c, 3, 77, 0
4, 487488, Note_off_c, 3, 44, 0
4, 487488, Note_on_c, 3, 52, 17
4, 487488, Note_on_c, 3, 69, 17
4, 487512, Note_off_c, 3, 76, 0
4, 487512, Note_off_c, 3, 45, 0
4, 487512, Note_on_c, 3, 53, 17
4, 487512, Note_on_c, 3, 68, 17
4, 487536, Note_off_c, 3, 75, 0
4, 487536, Note_off_c, 3, 46, 0
4, 487536, Note_on_c, 3, 54, 17
4, 487536, Note_on_c, 3, 67, 17
4, 487560, Note_off_c, 3, 74, 0
4, 487560, Note_off_c, 3, 47, 0
4, 487560, Note_on_c, 3, 55, 17
4, 487560, Note_on_c, 3, 66, 17
4, 487584, Note_off_c, 3, 73, 0
4, 487584, Note_off_c, 3, 48, 0
4, 487584, Note_on_c, 3, 56, 17
4, 487584, Note_on_c, 3, 65, 17
4, 487608, Note_off_c, 3, 49, 0
4, 487608, Note_off_c, 3, 72, 0
4, 487608, Note_on_c, 3, 57, 17
4, 487608, Note_on_c, 3, 64, 17
4, 487632, Note_off_c, 3, 50, 0
4, 487632, Note_off_c, 3, 71, 0
4, 487632, Note_on_c, 3, 58, 17
4, 487632, Note_on_c, 3, 63, 17
4, 487656, Note_off_c, 3, 70, 0
4, 487656, Note_off_c, 3, 51, 0
4, 487656, Note_on_c, 3, 62, 17
4, 487656, Note_on_c, 3, 59, 17
4, 487680, Note_off_c, 3, 69, 0
4, 487680, Note_off_c, 3, 52, 0
4, 487680, Note_on_c, 3, 60, 17
4, 487680, Note_on_c, 3, 61, 17
4, 487704, Note_off_c, 3, 68, 0
4, 487704, Note_off_c, 3, 53, 0
4, 487704, Note_on_c, 3, 61, 17
4, 487704, Note_on_c, 3, 60, 17
4, 487728, Note_off_c, 3, 67, 0
4, 487728, Note_off_c, 3, 54, 0
4, 487728, Note_on_c, 3, 59, 17
4, 487728, Note_on_c, 3, 62, 17
4, 487752, Note_off_c, 3, 66, 0
4, 487752, Note_off_c, 3, 55, 0
4, 487752, Note_on_c, 3, 63, 17
4, 487752, Note_on_c, 3, 58, 17
4, 487776, Note_off_c, 3, 65, 0
4, 487776, Note_off_c, 3, 56, 0
4, 487776, Note_on_c, 3, 64, 17
4, 487776, Note_on_c, 3, 57, 17
4, 487800, Note_off_c, 3, 64, 0
4, 487800, Note_off_c, 3, 57, 0
4, 487800, Note_on_c, 3, 65, 17
4, 487800, Note_on_c, 3, 56, 17
4, 487824, Note_off_c, 3, 63, 0
4, 487824, Note_off_c, 3, 58, 0
4, 487824, Note_on_c, 3, 66, 17
4, 487824, Note_on_c, 3, 55, 17
4, 487848, Note_off_c, 3, 59, 0
4, 487848, Note_off_c, 3, 62, 0
4, 487848, Note_on_c, 3, 67, 17
4, 487848, Note_on_c, 3, 54, 17
4, 487872, Note_off_c, 3, 61, 0
4, 487872, Note_off_c, 3, 60, 0
4, 487872, Note_on_c, 3, 68, 17
4, 487872, Note_on_c, 3, 53, 17
4, 487896, Note_off_c, 3, 60, 0
4, 487896, Note_off_c, 3, 61, 0
4, 487896, Note_on_c, 3, 69, 17
4, 487896, Note_on_c, 3, 52, 17
4, 487920, Note_off_c, 3, 62, 0
4, 487920, Note_off_c, 3, 59, 0
4, 487920, Note_on_c, 3, 70, 17
4, 487920, Note_on_c, 3, 51, 17
4, 487944, Note_off_c, 3, 58, 0
4, 487944, Note_off_c, 3, 63, 0
4, 487944, Note_on_c, 3, 71, 17
4, 487944, Note_on_c, 3, 50, 17
4, 487968, Note_off_c, 3, 57, 0
4, 487968, Note_off_c, 3, 64, 0
4, 487968, Note_on_c, 3, 72, 17
4, 487968, Note_on_c, 3, 49, 17
4, 487992, Note_off_c, 3, 56, 0
4, 487992, Note_off_c, 3, 65, 0
4, 487992, Note_on_c, 3, 73, 17
4, 487992, Note_on_c, 3, 48, 17
4, 488016, Note_off_c, 3, 55, 0
4, 488016, Note_off_c, 3, 66, 0
4, 488016, Note_on_c, 3, 74, 17
4, 488016, Note_on_c, 3, 47, 17
4, 488040, Note_off_c, 3, 54, 0
4, 488040, Note_off_c, 3, 67, 0
4, 488040, Note_on_c, 3, 75, 17
4, 488040, Note_on_c, 3, 46, 17
4, 488064, Note_off_c, 3, 53, 0
4, 488064, Note_off_c, 3, 68, 0
4, 488064, Note_on_c, 3, 76, 17
4, 488064, Note_on_c, 3, 45, 17
4, 488088, Note_off_c, 3, 52, 0
4, 488088, Note_off_c, 3, 69, 0
4, 488088, Note_on_c, 3, 77, 17
4, 488088, Note_on_c, 3, 44, 17
4, 488112, Note_off_c, 3, 51, 0
4, 488112, Note_off_c, 3, 70, 0
4, 488112, Note_on_c, 3, 78, 17
4, 488112, Note_on_c, 3, 43, 17
4, 488136, Note_off_c, 3, 50, 0
4, 488136, Note_off_c, 3, 71, 0
4, 488136, Note_on_c, 3, 79, 17
4, 488136, Note_on_c, 3, 42, 17
4, 488160, Note_off_c, 3, 49, 0
4, 488160, Note_off_c, 3, 72, 0
4, 488160, Note_on_c, 3, 80, 17
4, 488160, Note_on_c, 3, 41, 17
4, 488184, Note_off_c, 3, 48, 0
4, 488184, Note_off_c, 3, 73, 0
4, 488184, Note_on_c, 3, 81, 17
4, 488184, Note_on_c, 3, 40, 17
4, 488208, Note_off_c, 3, 47, 0
4, 488208, Note_off_c, 3, 74, 0
4, 488208, Note_on_c, 3, 82, 17
4, 488208, Note_on_c, 3, 39, 17
4, 488232, Note_off_c, 3, 46, 0
4, 488232, Note_off_c, 3, 75, 0
4, 488232, Note_on_c, 3, 83, 17
4, 488232, Note_on_c, 3, 38, 17
4, 488256, Note_off_c, 3, 45, 0
4, 488256, Note_off_c, 3, 76, 0
4, 488256, Note_on_c, 3, 84, 17
4, 488256, Note_on_c, 3, 37, 17
4, 488280, Note_off_c, 3, 44, 0
4, 488280, Note_off_c, 3, 77, 0
4, 488280, Note_on_c, 3, 85, 17
4, 488280, Note_on_c, 3, 36, 17
4, 488304, Note_off_c, 3, 43, 0
4, 488304, Note_off_c, 3, 78, 0
4, 488304, Note_on_c, 3, 86, 17
4, 488304, Note_on_c, 3, 35, 17
4, 488328, Note_off_c, 3, 42, 0
4, 488328, Note_off_c, 3, 79, 0
4, 488328, Note_on_c, 3, 87, 17
4, 488328, Note_on_c, 3, 34, 17
4, 488352, Note_off_c, 3, 41, 0
4, 488352, Note_off_c, 3, 80, 0
4, 488352, Note_on_c, 3, 88, 17
4, 488352, Note_on_c, 3, 33, 17
4, 488376, Note_off_c, 3, 40, 0
4, 488376, Note_off_c, 3, 81, 0
4, 488376, Note_on_c, 3, 89, 17
4, 488376, Note_on_c, 3, 32, 17
4, 488400, Note_off_c, 3, 39, 0
4, 488400, Note_off_c, 3, 82, 0
4, 488400, Note_on_c, 3, 90, 17
4, 488400, Note_on_c, 3, 31, 17
4, 488424, Note_off_c, 3, 38, 0
4, 488424, Note_off_c, 3, 83, 0
4, 488424, Note_on_c, 3, 91, 17
4, 488424, Note_on_c, 3, 30, 17
4, 488448, Note_off_c, 3, 37, 0
4, 488448, Note_off_c, 3, 84, 0
4, 488472, Note_off_c, 3, 36, 0
4, 488472, Note_off_c, 3, 85, 0
4, 488472, Note_on_c, 3, 28, 17
4, 488472, Note_on_c, 3, 93, 17
4, 488496, Note_off_c, 3, 35, 0
4, 488496, Note_off_c, 3, 86, 0
4, 488496, Note_on_c, 3, 29, 17
4, 488496, Note_on_c, 3, 92, 17
4, 488520, Note_off_c, 3, 34, 0
4, 488520, Note_off_c, 3, 87, 0
4, 488520, Note_on_c, 3, 30, 17
4, 488520, Note_on_c, 3, 91, 17
4, 488544, Note_off_c, 3, 33, 0
4, 488544, Note_off_c, 3, 88, 0
4, 488544, Note_on_c, 3, 31, 17
4, 488544, Note_on_c, 3, 90, 17
4, 488568, Note_off_c, 3, 32, 0
4, 488568, Note_off_c, 3, 89, 0
4, 488568, Note_on_c, 3, 32, 17
4, 488568, Note_on_c, 3, 89, 17
4, 488592, Note_off_c, 3, 31, 0
4, 488592, Note_off_c, 3, 90, 0
4, 488592, Note_on_c, 3, 33, 17
4, 488592, Note_on_c, 3, 88, 17
4, 488616, Note_off_c, 3, 30, 0
4, 488616, Note_off_c, 3, 91, 0
4, 488616, Note_on_c, 3, 34, 17
4, 488616, Note_on_c, 3, 87, 17
4, 488640, Note_on_c, 3, 35, 17
4, 488640, Note_on_c, 3, 86, 17
4, 488664, Note_off_c, 3, 93, 0
4, 488664, Note_off_c, 3, 28, 0
4, 488664, Note_on_c, 3, 36, 17
4, 488664, Note_on_c, 3, 85, 17
4, 488688, Note_off_c, 3, 92, 0
4, 488688, Note_off_c, 3, 29, 0
4, 488688, Note_on_c, 3, 37, 17
4, 488688, Note_on_c, 3, 84, 17
4, 488712, Note_off_c, 3, 91, 0
4, 488712, Note_off_c, 3, 30, 0
4, 488712, Note_on_c, 3, 38, 17
4, 488712, Note_on_c, 3, 83, 17
4, 488736, Note_off_c, 3, 90, 0
4, 488736, Note_off_c, 3, 31, 0
4, 488736, Note_on_c, 3, 39, 17
4, 488736, Note_on_c, 3, 82, 17
4, 488760, Note_off_c, 3, 89, 0
4, 488760, Note_off_c, 3, 32, 0
4, 488760, Note_on_c, 3, 40, 17
4, 488760, Note_on_c, 3, 81, 17
4, 488784, Note_off_c, 3, 88, 0
4, 488784, Note_off_c, 3, 33, 0
4, 488784, Note_on_c, 3, 41, 17
4, 488784, Note_on_c, 3, 80, 17
4, 488808, Note_off_c, 3, 87, 0
4, 488808, Note_off_c, 3, 34, 0
4, 488808, Note_on_c, 3, 42, 17
4, 488808, Note_on_c, 3, 79, 17
4, 488832, Note_off_c, 3, 86, 0
4, 488832, Note_off_c, 3, 35, 0
4, 488832, Note_on_c, 3, 43, 17
4, 488832, Note_on_c, 3, 78, 17
4, 488856, Note_off_c, 3, 85, 0
4, 488856, Note_off_c, 3, 36, 0
4, 488856, Note_on_c, 3, 44, 17
4, 488856, Note_on_c, 3, 77, 17
4, 488880, Note_off_c, 3, 84, 0
4, 488880, Note_off_c, 3, 37, 0
4, 488880, Note_on_c, 3, 45, 17
4, 488880, Note_on_c, 3, 76, 17
4, 488904, Note_off_c, 3, 83, 0
4, 488904, Note_off_c, 3, 38, 0
4, 488904, Note_on_c, 3, 46, 17
4, 488904, Note_on_c, 3, 75, 17
4, 488928, Note_off_c, 3, 82, 0
4, 488928, Note_off_c, 3, 39, 0
4, 488928, Note_on_c, 3, 47, 17
4, 488928, Note_on_c, 3, 74, 17
4, 488952, Note_off_c, 3, 81, 0
4, 488952, Note_off_c, 3, 40, 0
4, 488952, Note_on_c, 3, 48, 17
4, 488952, Note_on_c, 3, 73, 17
4, 488976, Note_off_c, 3, 80, 0
4, 488976, Note_off_c, 3, 41, 0
4, 488976, Note_on_c, 3, 72, 17
4, 488976, Note_on_c, 3, 49, 17
4, 489000, Note_off_c, 3, 79, 0
4, 489000, Note_off_c, 3, 42, 0
4, 489000, Note_on_c, 3, 71, 17
4, 489000, Note_on_c, 3, 50, 17
4, 489024, Note_off_c, 3, 78, 0
4, 489024, Note_off_c, 3, 43, 0
4, 489024, Note_on_c, 3, 51, 17
4, 489024, Note_on_c, 3, 70, 17
4, 489048, Note_off_c, 3, 77, 0
4, 489048, Note_off_c, 3, 44, 0
4, 489048, Note_on_c, 3, 52, 17
4, 489048, Note_on_c, 3, 69, 17
4, 489072, Note_off_c, 3, 76, 0
4, 489072, Note_off_c, 3, 45, 0
4, 489072, Note_on_c, 3, 53, 17
4, 489072, Note_on_c, 3, 68, 17
4, 489096, Note_off_c, 3, 75, 0
4, 489096, Note_off_c, 3, 46, 0
4, 489096, Note_on_c, 3, 54, 17
4, 489096, Note_on_c, 3, 67, 17
4, 489120, Note_off_c, 3, 74, 0
4, 489120, Note_off_c, 3, 47, 0
4, 489120, Note_on_c, 3, 55, 17
4, 489120, Note_on_c, 3, 66, 17
4, 489144, Note_off_c, 3, 73, 0
4, 489144, Note_off_c, 3, 48, 0
4, 489144, Note_on_c, 3, 56, 17
4, 489144, Note_on_c, 3, 65, 17
4, 489168, Note_off_c, 3, 49, 0
4, 489168, Note_off_c, 3, 72, 0
4, 489168, Note_on_c, 3, 57, 17
4, 489168, Note_on_c, 3, 64, 17
4, 489192, Note_off_c, 3, 50, 0
4, 489192, Note_off_c, 3, 71, 0
4, 489192, Note_on_c, 3, 58, 17
4, 489192, Note_on_c, 3, 63, 17
4, 489216, Note_off_c, 3, 70, 0
4, 489216, Note_off_c, 3, 51, 0
4, 489216, Note_on_c, 3, 62, 17
4, 489216, Note_on_c, 3, 59, 17
4, 489240, Note_off_c, 3, 69, 0
4, 489240, Note_off_c, 3, 52, 0
4, 489240, Note_on_c, 3, 60, 17
4, 489240, Note_on_c, 3, 61, 17
4, 489264, Note_off_c, 3, 68, 0
4, 489264, Note_off_c, 3, 53, 0
4, 489264, Note_on_c, 3, 61, 17
4, 489264, Note_on_c, 3, 60, 17
4, 489288, Note_off_c, 3, 67, 0
4, 489288, Note_off_c, 3, 54, 0
4, 489288, Note_on_c, 3, 59, 17
4, 489288, Note_on_c, 3, 62, 17
4, 489312, Note_off_c, 3, 66, 0
4, 489312, Note_off_c, 3, 55, 0
4, 489312, Note_on_c, 3, 63, 17
4, 489312, Note_on_c, 3, 58, 17
4, 489336, Note_off_c, 3, 65, 0
4, 489336, Note_off_c, 3, 56, 0
4, 489336, Note_on_c, 3, 64, 17
4, 489336, Note_on_c, 3, 57, 17
4, 489360, Note_off_c, 3, 64, 0
4, 489360, Note_off_c, 3, 57, 0
4, 489360, Note_on_c, 3, 65, 17
4, 489360, Note_on_c, 3, 56, 17
4, 489384, Note_off_c, 3, 63, 0
4, 489384, Note_off_c, 3, 58, 0
4, 489384, Note_on_c, 3, 66, 17
4, 489384, Note_on_c, 3, 55, 17
4, 489408, Note_off_c, 3, 59, 0
4, 489408, Note_off_c, 3, 62, 0
4, 489408, Note_on_c, 3, 67, 17
4, 489408, Note_on_c, 3, 54, 17
4, 489432, Note_off_c, 3, 61, 0
4, 489432, Note_off_c, 3, 60, 0
4, 489432, Note_on_c, 3, 68, 17
4, 489432, Note_on_c, 3, 53, 17
4, 489456, Note_off_c, 3, 60, 0
4, 489456, Note_off_c, 3, 61, 0
4, 489456, Note_on_c, 3, 69, 17
4, 489456, Note_on_c, 3, 52, 17
4, 489480, Note_off_c, 3, 62, 0
4, 489480, Note_off_c, 3, 59, 0
4, 489480, Note_on_c, 3, 70, 17
4, 489480, Note_on_c, 3, 51, 17
4, 489504, Note_off_c, 3, 58, 0
4, 489504, Note_off_c, 3, 63, 0
4, 489504, Note_on_c, 3, 71, 17
4, 489504, Note_on_c, 3, 50, 17
4, 489528, Note_off_c, 3, 57, 0
4, 489528, Note_off_c, 3, 64, 0
4, 489528, Note_on_c, 3, 72, 17
4, 489528, Note_on_c, 3, 49, 17
4, 489552, Note_off_c, 3, 56, 0
4, 489552, Note_off_c, 3, 65, 0
4, 489552, Note_on_c, 3, 73, 17
4, 489552, Note_on_c, 3, 48, 17
4, 489576, Note_off_c, 3, 55, 0
4, 489576, Note_off_c, 3, 66, 0
4, 489576, Note_on_c, 3, 74, 17
4, 489576, Note_on_c, 3, 47, 17
4, 489600, Note_off_c, 3, 54, 0
4, 489600, Note_off_c, 3, 67, 0
4, 489600, Note_on_c, 3, 75, 17
4, 489600, Note_on_c, 3, 46, 17
4, 489624, Note_off_c, 3, 53, 0
4, 489624, Note_off_c, 3, 68, 0
4, 489624, Note_on_c, 3, 76, 17
4, 489624, Note_on_c, 3, 45, 17
4, 489648, Note_off_c, 3, 52, 0
4, 489648, Note_off_c, 3, 69, 0
4, 489648, Note_on_c, 3, 77, 17
4, 489648, Note_on_c, 3, 44, 17
4, 489672, Note_off_c, 3, 51, 0
4, 489672, Note_off_c, 3, 70, 0
4, 489672, Note_on_c, 3, 78, 17
4, 489672, Note_on_c, 3, 43, 17
4, 489696, Note_off_c, 3, 50, 0
4, 489696, Note_off_c, 3, 71, 0
4, 489696, Note_on_c, 3, 79, 17
4, 489696, Note_on_c, 3, 42, 17
4, 489720, Note_off_c, 3, 49, 0
4, 489720, Note_off_c, 3, 72, 0
4, 489720, Note_on_c, 3, 80, 17
4, 489720, Note_on_c, 3, 41, 17
4, 489744, Note_off_c, 3, 48, 0
4, 489744, Note_off_c, 3, 73, 0
4, 489744, Note_on_c, 3, 81, 17
4, 489744, Note_on_c, 3, 40, 17
4, 489768, Note_off_c, 3, 47, 0
4, 489768, Note_off_c, 3, 74, 0
4, 489768, Note_on_c, 3, 82, 17
4, 489768, Note_on_c, 3, 39, 17
4, 489792, Note_off_c, 3, 46, 0
4, 489792, Note_off_c, 3, 75, 0
4, 489792, Note_on_c, 3, 83, 17
4, 489792, Note_on_c, 3, 38, 17
4, 489816, Note_off_c, 3, 45, 0
4, 489816, Note_off_c, 3, 76, 0
4, 489816, Note_on_c, 3, 84, 17
4, 489816, Note_on_c, 3, 37, 17
4, 489840, Note_off_c, 3, 44, 0
4, 489840, Note_off_c, 3, 77, 0
4, 489840, Note_on_c, 3, 85, 17
4, 489840, Note_on_c, 3, 36, 17
4, 489864, Note_off_c, 3, 43, 0
4, 489864, Note_off_c, 3, 78, 0
4, 489864, Note_on_c, 3, 86, 17
4, 489864, Note_on_c, 3, 35, 17
4, 489888, Note_off_c, 3, 42, 0
4, 489888, Note_off_c, 3, 79, 0
4, 489888, Note_on_c, 3, 87, 17
4, 489888, Note_on_c, 3, 34, 17
4, 489912, Note_off_c, 3, 41, 0
4, 489912, Note_off_c, 3, 80, 0
4, 489912, Note_on_c, 3, 88, 17
4, 489912, Note_on_c, 3, 33, 17
4, 489936, Note_off_c, 3, 40, 0
4, 489936, Note_off_c, 3, 81, 0
4, 489936, Note_on_c, 3, 89, 17
4, 489936, Note_on_c, 3, 32, 17
4, 489960, Note_off_c, 3, 39, 0
4, 489960, Note_off_c, 3, 82, 0
4, 489960, Note_on_c, 3, 90, 17
4, 489960, Note_on_c, 3, 31, 17
4, 489984, Note_off_c, 3, 38, 0
4, 489984, Note_off_c, 3, 83, 0
4, 489984, Note_on_c, 3, 91, 17
4, 489984, Note_on_c, 3, 30, 17
4, 489984, Note_on_c, 3, 28, 17
4, 489984, Note_on_c, 3, 93, 17
4, 490008, Note_off_c, 3, 37, 0
4, 490008, Note_off_c, 3, 84, 0
4, 490008, Note_on_c, 3, 29, 17
4, 490008, Note_on_c, 3, 92, 17
4, 490032, Note_off_c, 3, 36, 0
4, 490032, Note_off_c, 3, 85, 0
4, 490032, Note_on_c, 3, 30, 17
4, 490032, Note_on_c, 3, 91, 17
4, 490056, Note_off_c, 3, 35, 0
4, 490056, Note_off_c, 3, 86, 0
4, 490056, Note_on_c, 3, 31, 17
4, 490056, Note_on_c, 3, 90, 17
4, 490080, Note_off_c, 3, 34, 0
4, 490080, Note_off_c, 3, 87, 0
4, 490080, Note_on_c, 3, 32, 17
4, 490080, Note_on_c, 3, 89, 17
4, 490104, Note_off_c, 3, 33, 0
4, 490104, Note_off_c, 3, 88, 0
4, 490104, Note_on_c, 3, 33, 17
4, 490104, Note_on_c, 3, 88, 17
4, 490128, Note_off_c, 3, 32, 0
4, 490128, Note_off_c, 3, 89, 0
4, 490128, Note_on_c, 3, 34, 17
4, 490128, Note_on_c, 3, 87, 17
4, 490152, Note_off_c, 3, 31, 0
4, 490152, Note_off_c, 3, 90, 0
4, 490152, Note_on_c, 3, 35, 17
4, 490152, Note_on_c, 3, 86, 17
4, 490176, Note_off_c, 3, 93, 0
4, 490176, Note_off_c, 3, 28, 0
4, 490176, Note_off_c, 3, 30, 0
4, 490176, Note_off_c, 3, 91, 0
4, 490176, Note_on_c, 3, 36, 17
4, 490176, Note_on_c, 3, 85, 17
4, 490200, Note_off_c, 3, 92, 0
4, 490200, Note_off_c, 3, 29, 0
4, 490200, Note_on_c, 3, 37, 17
4, 490200, Note_on_c, 3, 84, 17
4, 490224, Note_off_c, 3, 91, 0
4, 490224, Note_off_c, 3, 30, 0
4, 490224, Note_on_c, 3, 38, 17
4, 490224, Note_on_c, 3, 83, 17
4, 490248, Note_off_c, 3, 90, 0
4, 490248, Note_off_c, 3, 31, 0
4, 490248, Note_on_c, 3, 39, 17
4, 490248, Note_on_c, 3, 82, 17
4, 490272, Note_off_c, 3, 89, 0
4, 490272, Note_off_c, 3, 32, 0
4, 490272, Note_on_c, 3, 40, 17
4, 490272, Note_on_c, 3, 81, 17
4, 490296, Note_off_c, 3, 88, 0
4, 490296, Note_off_c, 3, 33, 0
4, 490296, Note_on_c, 3, 41, 17
4, 490296, Note_on_c, 3, 80, 17
4, 490320, Note_off_c, 3, 87, 0
4, 490320, Note_off_c, 3, 34, 0
4, 490320, Note_on_c, 3, 42, 17
4, 490320, Note_on_c, 3, 79, 17
4, 490344, Note_off_c, 3, 86, 0
4, 490344, Note_off_c, 3, 35, 0
4, 490344, Note_on_c, 3, 43, 17
4, 490344, Note_on_c, 3, 78, 17
4, 490368, Note_off_c, 3, 85, 0
4, 490368, Note_off_c, 3, 36, 0
4, 490368, Note_on_c, 3, 44, 17
4, 490368, Note_on_c, 3, 77, 17
4, 490392, Note_off_c, 3, 84, 0
4, 490392, Note_off_c, 3, 37, 0
4, 490392, Note_on_c, 3, 45, 17
4, 490392, Note_on_c, 3, 76, 17
4, 490416, Note_off_c, 3, 83, 0
4, 490416, Note_off_c, 3, 38, 0
4, 490416, Note_on_c, 3, 46, 17
4, 490416, Note_on_c, 3, 75, 17
4, 490440, Note_off_c, 3, 82, 0
4, 490440, Note_off_c, 3, 39, 0
4, 490440, Note_on_c, 3, 47, 17
4, 490440, Note_on_c, 3, 74, 17
4, 490464, Note_off_c, 3, 81, 0
4, 490464, Note_off_c, 3, 40, 0
4, 490464, Note_on_c, 3, 48, 17
4, 490464, Note_on_c, 3, 73, 17
4, 490488, Note_off_c, 3, 80, 0
4, 490488, Note_off_c, 3, 41, 0
4, 490488, Note_on_c, 3, 72, 17
4, 490488, Note_on_c, 3, 49, 17
4, 490512, Note_off_c, 3, 79, 0
4, 490512, Note_off_c, 3, 42, 0
4, 490512, Note_on_c, 3, 71, 17
4, 490512, Note_on_c, 3, 50, 17
4, 490536, Note_off_c, 3, 78, 0
4, 490536, Note_off_c, 3, 43, 0
4, 490536, Note_on_c, 3, 51, 17
4, 490536, Note_on_c, 3, 70, 17
4, 490560, Note_off_c, 3, 77, 0
4, 490560, Note_off_c, 3, 44, 0
4, 490560, Note_on_c, 3, 52, 17
4, 490560, Note_on_c, 3, 69, 17
4, 490584, Note_off_c, 3, 76, 0
4, 490584, Note_off_c, 3, 45, 0
4, 490584, Note_on_c, 3, 53, 17
4, 490584, Note_on_c, 3, 68, 17
4, 490608, Note_off_c, 3, 75, 0
4, 490608, Note_off_c, 3, 46, 0
4, 490608, Note_on_c, 3, 54, 17
4, 490608, Note_on_c, 3, 67, 17
4, 490632, Note_off_c, 3, 74, 0
4, 490632, Note_off_c, 3, 47, 0
4, 490632, Note_on_c, 3, 55, 17
4, 490632, Note_on_c, 3, 66, 17
4, 490656, Note_off_c, 3, 73, 0
4, 490656, Note_off_c, 3, 48, 0
4, 490656, Note_on_c, 3, 56, 17
4, 490656, Note_on_c, 3, 65, 17
4, 490680, Note_off_c, 3, 49, 0
4, 490680, Note_off_c, 3, 72, 0
4, 490680, Note_on_c, 3, 57, 17
4, 490680, Note_on_c, 3, 64, 17
4, 490704, Note_off_c, 3, 50, 0
4, 490704, Note_off_c, 3, 71, 0
4, 490704, Note_on_c, 3, 58, 17
4, 490704, Note_on_c, 3, 63, 17
4, 490728, Note_off_c, 3, 70, 0
4, 490728, Note_off_c, 3, 51, 0
4, 490728, Note_on_c, 3, 62, 17
4, 490728, Note_on_c, 3, 59, 17
4, 490752, Note_off_c, 3, 69, 0
4, 490752, Note_off_c, 3, 52, 0
4, 490752, Note_on_c, 3, 60, 17
4, 490752, Note_on_c, 3, 61, 17
4, 490776, Note_off_c, 3, 68, 0
4, 490776, Note_off_c, 3, 53, 0
4, 490776, Note_on_c, 3, 61, 17
4, 490776, Note_on_c, 3, 60, 17
4, 490800, Note_off_c, 3, 67, 0
4, 490800, Note_off_c, 3, 54, 0
4, 490800, Note_on_c, 3, 59, 17
4, 490800, Note_on_c, 3, 62, 17
4, 490824, Note_off_c, 3, 66, 0
4, 490824, Note_off_c, 3, 55, 0
4, 490824, Note_on_c, 3, 63, 17
4, 490824, Note_on_c, 3, 58, 17
4, 490848, Note_off_c, 3, 65, 0
4, 490848, Note_off_c, 3, 56, 0
4, 490848, Note_on_c, 3, 64, 17
4, 490848, Note_on_c, 3, 57, 17
4, 490872, Note_off_c, 3, 64, 0
4, 490872, Note_off_c, 3, 57, 0
4, 490872, Note_on_c, 3, 65, 17
4, 490872, Note_on_c, 3, 56, 17
4, 490896, Note_off_c, 3, 63, 0
4, 490896, Note_off_c, 3, 58, 0
4, 490896, Note_on_c, 3, 66, 17
4, 490896, Note_on_c, 3, 55, 17
4, 490920, Note_off_c, 3, 59, 0
4, 490920, Note_off_c, 3, 62, 0
4, 490920, Note_on_c, 3, 67, 17
4, 490920, Note_on_c, 3, 54, 17
4, 490944, Note_off_c, 3, 61, 0
4, 490944, Note_off_c, 3, 60, 0
4, 490944, Note_on_c, 3, 68, 17
4, 490944, Note_on_c, 3, 53, 17
4, 490968, Note_off_c, 3, 60, 0
4, 490968, Note_off_c, 3, 61, 0
4, 490968, Note_on_c, 3, 69, 17
4, 490968, Note_on_c, 3, 52, 17
4, 490992, Note_off_c, 3, 62, 0
4, 490992, Note_off_c, 3, 59, 0
4, 490992, Note_on_c, 3, 70, 17
4, 490992, Note_on_c, 3, 51, 17
4, 491016, Note_off_c, 3, 58, 0
4, 491016, Note_off_c, 3, 63, 0
4, 491016, Note_on_c, 3, 71, 17
4, 491016, Note_on_c, 3, 50, 17
4, 491040, Note_off_c, 3, 57, 0
4, 491040, Note_off_c, 3, 64, 0
4, 491040, Note_on_c, 3, 72, 17
4, 491040, Note_on_c, 3, 49, 17
4, 491064, Note_off_c, 3, 56, 0
4, 491064, Note_off_c, 3, 65, 0
4, 491064, Note_on_c, 3, 73, 17
4, 491064, Note_on_c, 3, 48, 17
4, 491088, Note_off_c, 3, 55, 0
4, 491088, Note_off_c, 3, 66, 0
4, 491088, Note_on_c, 3, 74, 17
4, 491088, Note_on_c, 3, 47, 17
4, 491112, Note_off_c, 3, 54, 0
4, 491112, Note_off_c, 3, 67, 0
4, 491112, Note_on_c, 3, 75, 17
4, 491112, Note_on_c, 3, 46, 17
4, 491136, Note_off_c, 3, 53, 0
4, 491136, Note_off_c, 3, 68, 0
4, 491136, Note_on_c, 3, 76, 17
4, 491136, Note_on_c, 3, 45, 17
4, 491160, Note_off_c, 3, 52, 0
4, 491160, Note_off_c, 3, 69, 0
4, 491160, Note_on_c, 3, 77, 17
4, 491160, Note_on_c, 3, 44, 17
4, 491184, Note_off_c, 3, 51, 0
4, 491184, Note_off_c, 3, 70, 0
4, 491184, Note_on_c, 3, 78, 17
4, 491184, Note_on_c, 3, 43, 17
4, 491208, Note_off_c, 3, 50, 0
4, 491208, Note_off_c, 3, 71, 0
4, 491208, Note_on_c, 3, 79, 17
4, 491208, Note_on_c, 3, 42, 17
4, 491232, Note_off_c, 3, 49, 0
4, 491232, Note_off_c, 3, 72, 0
4, 491232, Note_on_c, 3, 80, 17
4, 491232, Note_on_c, 3, 41, 17
4, 491256, Note_off_c, 3, 48, 0
4, 491256, Note_off_c, 3, 73, 0
4, 491256, Note_on_c, 3, 81, 17
4, 491256, Note_on_c, 3, 40, 17
4, 491280, Note_off_c, 3, 47, 0
4, 491280, Note_off_c, 3, 74, 0
4, 491280, Note_on_c, 3, 82, 17
4, 491280, Note_on_c, 3, 39, 17
4, 491304, Note_off_c, 3, 46, 0
4, 491304, Note_off_c, 3, 75, 0
4, 491304, Note_on_c, 3, 83, 17
4, 491304, Note_on_c, 3, 38, 17
4, 491328, Note_off_c, 3, 45, 0
4, 491328, Note_off_c, 3, 76, 0
4, 491328, Note_on_c, 3, 84, 17
4, 491328, Note_on_c, 3, 37, 17
4, 491352, Note_off_c, 3, 44, 0
4, 491352, Note_off_c, 3, 77, 0
4, 491352, Note_on_c, 3, 85, 17
4, 491352, Note_on_c, 3, 36, 17
4, 491376, Note_off_c, 3, 43, 0
4, 491376, Note_off_c, 3, 78, 0
4, 491376, Note_on_c, 3, 86, 17
4, 491376, Note_on_c, 3, 35, 17
4, 491400, Note_off_c, 3, 42, 0
4, 491400, Note_off_c, 3, 79, 0
4, 491400, Note_on_c, 3, 87, 17
4, 491400, Note_on_c, 3, 34, 17
4, 491424, Note_off_c, 3, 41, 0
4, 491424, Note_off_c, 3, 80, 0
4, 491424, Note_on_c, 3, 88, 17
4, 491424, Note_on_c, 3, 33, 17
4, 491448, Note_off_c, 3, 40, 0
4, 491448, Note_off_c, 3, 81, 0
4, 491448, Note_on_c, 3, 89, 17
4, 491448, Note_on_c, 3, 32, 17
4, 491472, Note_off_c, 3, 39, 0
4, 491472, Note_off_c, 3, 82, 0
4, 491472, Note_on_c, 3, 90, 17
4, 491472, Note_on_c, 3, 31, 17
4, 491496, Note_off_c, 3, 38, 0
4, 491496, Note_off_c, 3, 83, 0
4, 491496, Note_on_c, 3, 91, 17
4, 491496, Note_on_c, 3, 30, 17
4, 491496, Note_on_c, 3, 93, 17
4, 491520, Note_off_c, 3, 37, 0
4, 491520, Note_off_c, 3, 84, 0
4, 491520, Note_on_c, 3, 92, 17
4, 491544, Note_off_c, 3, 36, 0
4, 491544, Note_off_c, 3, 85, 0
4, 491568, Note_off_c, 3, 35, 0
4, 491568, Note_off_c, 3, 86, 0
4, 491568, Note_on_c, 3, 91, 17
4, 491592, Note_off_c, 3, 34, 0
4, 491592, Note_off_c, 3, 87, 0
4, 491592, Note_on_c, 3, 90, 17
4, 491616, Note_off_c, 3, 33, 0
4, 491616, Note_off_c, 3, 88, 0
4, 491616, Note_on_c, 3, 89, 17
4, 491640, Note_off_c, 3, 32, 0
4, 491640, Note_off_c, 3, 89, 0
4, 491640, Note_on_c, 3, 88, 17
4, 491664, Note_off_c, 3, 31, 0
4, 491664, Note_off_c, 3, 90, 0
4, 491664, Note_on_c, 3, 87, 17
4, 491688, Note_off_c, 3, 93, 0
4, 491688, Note_off_c, 3, 30, 0
4, 491688, Note_off_c, 3, 91, 0
4, 491688, Note_on_c, 3, 86, 17
4, 491712, Note_off_c, 3, 92, 0
4, 491712, Note_on_c, 3, 85, 17
4, 491736, Note_on_c, 3, 84, 17
4, 491760, Note_off_c, 3, 91, 0
4, 491760, Note_on_c, 3, 83, 17
4, 491784, Note_off_c, 3, 90, 0
4, 491784, Note_on_c, 3, 82, 17
4, 491808, Note_off_c, 3, 89, 0
4, 491808, Note_on_c, 3, 81, 17
4, 491832, Note_off_c, 3, 88, 0
4, 491832, Note_on_c, 3, 80, 17
4, 491856, Note_off_c, 3, 87, 0
4, 491856, Note_on_c, 3, 79, 17
4, 491880, Note_off_c, 3, 86, 0
4, 491880, Note_on_c, 3, 78, 17
4, 491904, Note_off_c, 3, 85, 0
4, 491904, Note_on_c, 3, 77, 17
4, 491928, Note_off_c, 3, 84, 0
4, 491928, Note_on_c, 3, 76, 17
4, 491952, Note_off_c, 3, 83, 0
4, 491952, Note_on_c, 3, 75, 17
4, 491976, Note_off_c, 3, 82, 0
4, 491976, Note_on_c, 3, 74, 17
4, 492000, Note_off_c, 3, 81, 0
4, 492000, Note_on_c, 3, 73, 17
4, 492024, Note_off_c, 3, 80, 0
4, 492024, Note_on_c, 3, 72, 17
4, 492048, Note_off_c, 3, 79, 0
4, 492048, Note_on_c, 3, 71, 17
4, 492072, Note_off_c, 3, 78, 0
4, 492072, Note_on_c, 3, 70, 17
4, 492096, Note_off_c, 3, 77, 0
4, 492096, Note_on_c, 3, 69, 17
4, 492120, Note_off_c, 3, 76, 0
4, 492120, Note_on_c, 3, 68, 17
4, 492144, Note_off_c, 3, 75, 0
4, 492144, Note_on_c, 3, 67, 17
4, 492168, Note_off_c, 3, 74, 0
4, 492168, Note_on_c, 3, 66, 17
4, 492192, Note_off_c, 3, 73, 0
4, 492192, Note_on_c, 3, 65, 17
4, 492216, Note_off_c, 3, 72, 0
4, 492216, Note_on_c, 3, 64, 17
4, 492240, Note_off_c, 3, 71, 0
4, 492240, Note_on_c, 3, 63, 17
4, 492264, Note_off_c, 3, 70, 0
4, 492264, Note_on_c, 3, 62, 17
4, 492288, Note_off_c, 3, 69, 0
4, 492288, Note_on_c, 3, 61, 17
4, 492312, Note_off_c, 3, 68, 0
4, 492312, Note_on_c, 3, 60, 17
4, 492336, Note_off_c, 3, 67, 0
4, 492336, Note_on_c, 3, 59, 17
4, 492360, Note_off_c, 3, 66, 0
4, 492360, Note_on_c, 3, 58, 17
4, 492384, Note_off_c, 3, 65, 0
4, 492384, Note_on_c, 3, 57, 17
4, 492408, Note_off_c, 3, 64, 0
4, 492408, Note_on_c, 3, 56, 17
4, 492432, Note_off_c, 3, 63, 0
4, 492432, Note_on_c, 3, 55, 17
4, 492456, Note_off_c, 3, 62, 0
4, 492456, Note_on_c, 3, 54, 17
4, 492480, Note_off_c, 3, 61, 0
4, 492480, Note_on_c, 3, 53, 17
4, 492504, Note_off_c, 3, 60, 0
4, 492504, Note_on_c, 3, 52, 17
4, 492528, Note_off_c, 3, 59, 0
4, 492528, Note_on_c, 3, 51, 17
4, 492552, Note_off_c, 3, 58, 0
4, 492552, Note_on_c, 3, 50, 17
4, 492576, Note_off_c, 3, 57, 0
4, 492576, Note_on_c, 3, 49, 17
4, 492600, Note_off_c, 3, 56, 0
4, 492600, Note_on_c, 3, 48, 17
4, 492624, Note_off_c, 3, 55, 0
4, 492624, Note_on_c, 3, 47, 17
4, 492648, Note_off_c, 3, 54, 0
4, 492648, Note_on_c, 3, 46, 17
4, 492672, Note_off_c, 3, 53, 0
4, 492672, Note_on_c, 3, 45, 17
4, 492696, Note_off_c, 3, 52, 0
4, 492696, Note_on_c, 3, 44, 17
4, 492720, Note_off_c, 3, 51, 0
4, 492720, Note_on_c, 3, 43, 17
4, 492744, Note_off_c, 3, 50, 0
4, 492744, Note_on_c, 3, 42, 17
4, 492768, Note_off_c, 3, 49, 0
4, 492768, Note_on_c, 3, 41, 17
4, 492792, Note_off_c, 3, 48, 0
4, 492792, Note_on_c, 3, 40, 17
4, 492816, Note_off_c, 3, 47, 0
4, 492816, Note_on_c, 3, 39, 17
4, 492840, Note_off_c, 3, 46, 0
4, 492840, Note_on_c, 3, 38, 17
4, 492864, Note_off_c, 3, 45, 0
4, 492864, Note_on_c, 3, 37, 17
4, 492888, Note_off_c, 3, 44, 0
4, 492888, Note_on_c, 3, 36, 17
4, 492912, Note_off_c, 3, 43, 0
4, 492912, Note_on_c, 3, 35, 17
4, 492936, Note_off_c, 3, 42, 0
4, 492936, Note_on_c, 3, 34, 17
4, 492960, Note_off_c, 3, 41, 0
4, 492960, Note_on_c, 3, 33, 17
4, 492984, Note_off_c, 3, 40, 0
4, 492984, Note_on_c, 3, 32, 17
4, 493008, Note_off_c, 3, 39, 0
4, 493008, Note_on_c, 3, 31, 17
4, 493032, Note_off_c, 3, 38, 0
4, 493032, Note_on_c, 3, 30, 17
4, 493056, Note_off_c, 3, 37, 0
4, 493056, Note_on_c, 3, 93, 17
4, 493080, Note_off_c, 3, 36, 0
4, 493080, Note_on_c, 3, 92, 17
4, 493104, Note_off_c, 3, 35, 0
4, 493128, Note_off_c, 3, 34, 0
4, 493128, Note_on_c, 3, 91, 17
4, 493152, Note_off_c, 3, 33, 0
4, 493152, Note_on_c, 3, 90, 17
4, 493176, Note_off_c, 3, 32, 0
4, 493176, Note_on_c, 3, 89, 17
4, 493200, Note_off_c, 3, 31, 0
4, 493200, Note_on_c, 3, 88, 17
4, 493224, Note_off_c, 3, 30, 0
4, 493224, Note_on_c, 3, 87, 17
4, 493248, Note_off_c, 3, 93, 0
4, 493248, Note_on_c, 3, 86, 17
4, 493272, Note_off_c, 3, 92, 0
4, 493272, Note_on_c, 3, 85, 17
4, 493296, Note_on_c, 3, 84, 17
4, 493320, Note_off_c, 3, 91, 0
4, 493320, Note_on_c, 3, 83, 17
4, 493344, Note_off_c, 3, 90, 0
4, 493344, Note_on_c, 3, 82, 17
4, 493368, Note_off_c, 3, 89, 0
4, 493368, Note_on_c, 3, 81, 17
4, 493392, Note_off_c, 3, 88, 0
4, 493392, Note_on_c, 3, 80, 17
4, 493416, Note_off_c, 3, 87, 0
4, 493416, Note_on_c, 3, 79, 17
4, 493440, Note_off_c, 3, 86, 0
4, 493440, Note_on_c, 3, 78, 17
4, 493464, Note_off_c, 3, 85, 0
4, 493464, Note_on_c, 3, 77, 17
4, 493488, Note_off_c, 3, 84, 0
4, 493488, Note_on_c, 3, 76, 17
4, 493512, Note_off_c, 3, 83, 0
4, 493512, Note_on_c, 3, 75, 17
4, 493536, Note_off_c, 3, 82, 0
4, 493536, Note_on_c, 3, 74, 17
4, 493560, Note_off_c, 3, 81, 0
4, 493560, Note_on_c, 3, 73, 17
4, 493584, Note_off_c, 3, 80, 0
4, 493584, Note_on_c, 3, 72, 17
4, 493608, Note_off_c, 3, 79, 0
4, 493608, Note_on_c, 3, 71, 17
4, 493632, Note_off_c, 3, 78, 0
4, 493632, Note_on_c, 3, 70, 17
4, 493656, Note_off_c, 3, 77, 0
4, 493656, Note_on_c, 3, 69, 17
4, 493680, Note_off_c, 3, 76, 0
4, 493680, Note_on_c, 3, 68, 17
4, 493704, Note_off_c, 3, 75, 0
4, 493704, Note_on_c, 3, 67, 17
4, 493728, Note_off_c, 3, 74, 0
4, 493728, Note_on_c, 3, 66, 17
4, 493752, Note_off_c, 3, 73, 0
4, 493752, Note_on_c, 3, 65, 17
4, 493776, Note_off_c, 3, 72, 0
4, 493776, Note_on_c, 3, 64, 17
4, 493800, Note_off_c, 3, 71, 0
4, 493800, Note_on_c, 3, 63, 17
4, 493824, Note_off_c, 3, 70, 0
4, 493824, Note_on_c, 3, 62, 17
4, 493848, Note_off_c, 3, 69, 0
4, 493848, Note_on_c, 3, 61, 17
4, 493872, Note_off_c, 3, 68, 0
4, 493872, Note_on_c, 3, 60, 17
4, 493896, Note_off_c, 3, 67, 0
4, 493896, Note_on_c, 3, 59, 17
4, 493920, Note_off_c, 3, 66, 0
4, 493920, Note_on_c, 3, 58, 17
4, 493944, Note_off_c, 3, 65, 0
4, 493944, Note_on_c, 3, 57, 17
4, 493968, Note_off_c, 3, 64, 0
4, 493968, Note_on_c, 3, 56, 17
4, 493992, Note_off_c, 3, 63, 0
4, 493992, Note_on_c, 3, 55, 17
4, 494016, Note_off_c, 3, 62, 0
4, 494016, Note_on_c, 3, 54, 17
4, 494040, Note_off_c, 3, 61, 0
4, 494040, Note_on_c, 3, 53, 17
4, 494064, Note_off_c, 3, 60, 0
4, 494064, Note_on_c, 3, 52, 17
4, 494088, Note_off_c, 3, 59, 0
4, 494088, Note_on_c, 3, 51, 17
4, 494112, Note_off_c, 3, 58, 0
4, 494112, Note_on_c, 3, 50, 17
4, 494136, Note_off_c, 3, 57, 0
4, 494136, Note_on_c, 3, 49, 17
4, 494160, Note_off_c, 3, 56, 0
4, 494160, Note_on_c, 3, 48, 17
4, 494184, Note_off_c, 3, 55, 0
4, 494184, Note_on_c, 3, 47, 17
4, 494208, Note_off_c, 3, 54, 0
4, 494208, Note_on_c, 3, 46, 17
4, 494232, Note_off_c, 3, 53, 0
4, 494232, Note_on_c, 3, 45, 17
4, 494256, Note_off_c, 3, 52, 0
4, 494256, Note_on_c, 3, 44, 17
4, 494280, Note_off_c, 3, 51, 0
4, 494280, Note_on_c, 3, 43, 17
4, 494304, Note_off_c, 3, 50, 0
4, 494304, Note_on_c, 3, 42, 17
4, 494328, Note_off_c, 3, 49, 0
4, 494328, Note_on_c, 3, 41, 17
4, 494352, Note_off_c, 3, 48, 0
4, 494352, Note_on_c, 3, 40, 17
4, 494376, Note_off_c, 3, 47, 0
4, 494376, Note_on_c, 3, 39, 17
4, 494400, Note_off_c, 3, 46, 0
4, 494400, Note_on_c, 3, 38, 17
4, 494424, Note_off_c, 3, 45, 0
4, 494424, Note_on_c, 3, 37, 17
4, 494448, Note_off_c, 3, 44, 0
4, 494448, Note_on_c, 3, 36, 17
4, 494472, Note_off_c, 3, 43, 0
4, 494472, Note_on_c, 3, 35, 17
4, 494496, Note_off_c, 3, 42, 0
4, 494496, Note_on_c, 3, 34, 17
4, 494520, Note_off_c, 3, 41, 0
4, 494520, Note_on_c, 3, 33, 17
4, 494544, Note_off_c, 3, 40, 0
4, 494544, Note_on_c, 3, 32, 17
4, 494568, Note_off_c, 3, 39, 0
4, 494568, Note_on_c, 3, 31, 17
4, 494592, Note_off_c, 3, 38, 0
4, 494592, Note_on_c, 3, 30, 17
4, 494592, Note_on_c, 3, 93, 17
4, 494616, Note_off_c, 3, 37, 0
4, 494616, Note_on_c, 3, 92, 17
4, 494640, Note_off_c, 3, 36, 0
4, 494664, Note_off_c, 3, 35, 0
4, 494664, Note_on_c, 3, 91, 17
4, 494688, Note_off_c, 3, 34, 0
4, 494688, Note_on_c, 3, 90, 17
4, 494712, Note_off_c, 3, 33, 0
4, 494712, Note_on_c, 3, 89, 17
4, 494736, Note_off_c, 3, 32, 0
4, 494736, Note_on_c, 3, 88, 17
4, 494760, Note_off_c, 3, 31, 0
4, 494760, Note_on_c, 3, 87, 17
4, 494784, Note_off_c, 3, 93, 0
4, 494784, Note_off_c, 3, 30, 0
4, 494784, Note_on_c, 3, 86, 17
4, 494808, Note_off_c, 3, 92, 0
4, 494808, Note_on_c, 3, 85, 17
4, 494832, Note_on_c, 3, 84, 17
4, 494856, Note_off_c, 3, 91, 0
4, 494856, Note_on_c, 3, 83, 17
4, 494880, Note_off_c, 3, 90, 0
4, 494880, Note_on_c, 3, 82, 17
4, 494904, Note_off_c, 3, 89, 0
4, 494904, Note_on_c, 3, 81, 17
4, 494928, Note_off_c, 3, 88, 0
4, 494928, Note_on_c, 3, 80, 17
4, 494952, Note_off_c, 3, 87, 0
4, 494952, Note_on_c, 3, 79, 17
4, 494976, Note_off_c, 3, 86, 0
4, 494976, Note_on_c, 3, 78, 17
4, 495000, Note_off_c, 3, 85, 0
4, 495000, Note_on_c, 3, 77, 17
4, 495024, Note_off_c, 3, 84, 0
4, 495024, Note_on_c, 3, 76, 17
4, 495048, Note_off_c, 3, 83, 0
4, 495048, Note_on_c, 3, 75, 17
4, 495072, Note_off_c, 3, 82, 0
4, 495072, Note_on_c, 3, 74, 17
4, 495096, Note_off_c, 3, 81, 0
4, 495096, Note_on_c, 3, 73, 17
4, 495120, Note_off_c, 3, 80, 0
4, 495120, Note_on_c, 3, 72, 17
4, 495144, Note_off_c, 3, 79, 0
4, 495144, Note_on_c, 3, 71, 17
4, 495168, Note_off_c, 3, 78, 0
4, 495168, Note_on_c, 3, 70, 17
4, 495192, Note_off_c, 3, 77, 0
4, 495192, Note_on_c, 3, 69, 17
4, 495216, Note_off_c, 3, 76, 0
4, 495216, Note_on_c, 3, 68, 17
4, 495240, Note_off_c, 3, 75, 0
4, 495240, Note_on_c, 3, 67, 17
4, 495264, Note_off_c, 3, 74, 0
4, 495264, Note_on_c, 3, 66, 17
4, 495288, Note_off_c, 3, 73, 0
4, 495288, Note_on_c, 3, 65, 17
4, 495312, Note_off_c, 3, 72, 0
4, 495312, Note_on_c, 3, 64, 17
4, 495336, Note_off_c, 3, 71, 0
4, 495336, Note_on_c, 3, 63, 17
4, 495360, Note_off_c, 3, 70, 0
4, 495360, Note_on_c, 3, 62, 17
4, 495384, Note_off_c, 3, 69, 0
4, 495384, Note_on_c, 3, 61, 17
4, 495408, Note_off_c, 3, 68, 0
4, 495408, Note_on_c, 3, 60, 17
4, 495432, Note_off_c, 3, 67, 0
4, 495432, Note_on_c, 3, 59, 17
4, 495456, Note_off_c, 3, 66, 0
4, 495456, Note_on_c, 3, 58, 17
4, 495480, Note_off_c, 3, 65, 0
4, 495480, Note_on_c, 3, 57, 17
4, 495504, Note_off_c, 3, 64, 0
4, 495504, Note_on_c, 3, 56, 17
4, 495528, Note_off_c, 3, 63, 0
4, 495528, Note_on_c, 3, 55, 17
4, 495552, Note_off_c, 3, 62, 0
4, 495552, Note_on_c, 3, 54, 17
4, 495576, Note_off_c, 3, 61, 0
4, 495576, Note_on_c, 3, 53, 17
4, 495600, Note_off_c, 3, 60, 0
4, 495600, Note_on_c, 3, 52, 17
4, 495624, Note_off_c, 3, 59, 0
4, 495624, Note_on_c, 3, 51, 17
4, 495648, Note_off_c, 3, 58, 0
4, 495648, Note_on_c, 3, 50, 17
4, 495672, Note_off_c, 3, 57, 0
4, 495672, Note_on_c, 3, 49, 17
4, 495696, Note_off_c, 3, 56, 0
4, 495696, Note_on_c, 3, 48, 17
4, 495720, Note_off_c, 3, 55, 0
4, 495720, Note_on_c, 3, 47, 17
4, 495744, Note_off_c, 3, 54, 0
4, 495744, Note_on_c, 3, 46, 17
4, 495768, Note_off_c, 3, 53, 0
4, 495768, Note_on_c, 3, 45, 17
4, 495792, Note_off_c, 3, 52, 0
4, 495792, Note_on_c, 3, 44, 17
4, 495816, Note_off_c, 3, 51, 0
4, 495816, Note_on_c, 3, 43, 17
4, 495840, Note_off_c, 3, 50, 0
4, 495840, Note_on_c, 3, 42, 17
4, 495864, Note_off_c, 3, 49, 0
4, 495864, Note_on_c, 3, 41, 17
4, 495888, Note_off_c, 3, 48, 0
4, 495888, Note_on_c, 3, 40, 17
4, 495912, Note_off_c, 3, 47, 0
4, 495912, Note_on_c, 3, 39, 17
4, 495936, Note_off_c, 3, 46, 0
4, 495936, Note_on_c, 3, 38, 17
4, 495960, Note_off_c, 3, 45, 0
4, 495960, Note_on_c, 3, 37, 17
4, 495984, Note_off_c, 3, 44, 0
4, 495984, Note_on_c, 3, 36, 17
4, 496008, Note_off_c, 3, 43, 0
4, 496008, Note_on_c, 3, 35, 17
4, 496032, Note_off_c, 3, 42, 0
4, 496032, Note_on_c, 3, 34, 17
4, 496056, Note_off_c, 3, 41, 0
4, 496056, Note_on_c, 3, 33, 17
4, 496080, Note_off_c, 3, 40, 0
4, 496080, Note_on_c, 3, 32, 17
4, 496104, Note_off_c, 3, 39, 0
4, 496104, Note_on_c, 3, 31, 17
4, 496128, Note_off_c, 3, 38, 0
4, 496128, Note_on_c, 3, 30, 17
4, 496128, Note_on_c, 3, 93, 17
4, 496152, Note_off_c, 3, 37, 0
4, 496152, Note_on_c, 3, 92, 17
4, 496176, Note_off_c, 3, 36, 0
4, 496200, Note_off_c, 3, 35, 0
4, 496200, Note_on_c, 3, 91, 17
4, 496224, Note_off_c, 3, 34, 0
4, 496224, Note_on_c, 3, 90, 17
4, 496248, Note_off_c, 3, 33, 0
4, 496248, Note_on_c, 3, 89, 17
4, 496272, Note_off_c, 3, 32, 0
4, 496272, Note_on_c, 3, 88, 17
4, 496296, Note_off_c, 3, 31, 0
4, 496296, Note_on_c, 3, 87, 17
4, 496320, Note_off_c, 3, 93, 0
4, 496320, Note_off_c, 3, 30, 0
4, 496320, Note_on_c, 3, 86, 17
4, 496344, Note_off_c, 3, 92, 0
4, 496344, Note_on_c, 3, 85, 17
4, 496368, Note_on_c, 3, 84, 17
4, 496392, Note_off_c, 3, 91, 0
4, 496392, Note_on_c, 3, 83, 17
4, 496416, Note_off_c, 3, 90, 0
4, 496416, Note_on_c, 3, 82, 17
4, 496440, Note_off_c, 3, 89, 0
4, 496440, Note_on_c, 3, 81, 17
4, 496464, Note_off_c, 3, 88, 0
4, 496464, Note_on_c, 3, 80, 17
4, 496488, Note_off_c, 3, 87, 0
4, 496488, Note_on_c, 3, 79, 17
4, 496512, Note_off_c, 3, 86, 0
4, 496512, Note_on_c, 3, 78, 17
4, 496536, Note_off_c, 3, 85, 0
4, 496536, Note_on_c, 3, 77, 17
4, 496560, Note_off_c, 3, 84, 0
4, 496560, Note_on_c, 3, 76, 17
4, 496584, Note_off_c, 3, 83, 0
4, 496584, Note_on_c, 3, 75, 17
4, 496608, Note_off_c, 3, 82, 0
4, 496608, Note_on_c, 3, 74, 17
4, 496632, Note_off_c, 3, 81, 0
4, 496632, Note_on_c, 3, 73, 17
4, 496656, Note_off_c, 3, 80, 0
4, 496656, Note_on_c, 3, 72, 17
4, 496680, Note_off_c, 3, 79, 0
4, 496680, Note_on_c, 3, 71, 17
4, 496704, Note_off_c, 3, 78, 0
4, 496704, Note_on_c, 3, 70, 17
4, 496728, Note_off_c, 3, 77, 0
4, 496728, Note_on_c, 3, 69, 17
4, 496752, Note_off_c, 3, 76, 0
4, 496752, Note_on_c, 3, 68, 17
4, 496776, Note_off_c, 3, 75, 0
4, 496776, Note_on_c, 3, 67, 17
4, 496800, Note_off_c, 3, 74, 0
4, 496800, Note_on_c, 3, 66, 17
4, 496824, Note_off_c, 3, 73, 0
4, 496824, Note_on_c, 3, 65, 17
4, 496848, Note_off_c, 3, 72, 0
4, 496848, Note_on_c, 3, 64, 17
4, 496872, Note_off_c, 3, 71, 0
4, 496872, Note_on_c, 3, 63, 17
4, 496896, Note_off_c, 3, 70, 0
4, 496896, Note_on_c, 3, 62, 17
4, 496920, Note_off_c, 3, 69, 0
4, 496920, Note_on_c, 3, 61, 17
4, 496944, Note_off_c, 3, 68, 0
4, 496944, Note_on_c, 3, 60, 17
4, 496968, Note_off_c, 3, 67, 0
4, 496968, Note_on_c, 3, 59, 17
4, 496992, Note_off_c, 3, 66, 0
4, 496992, Note_on_c, 3, 58, 17
4, 497016, Note_off_c, 3, 65, 0
4, 497016, Note_on_c, 3, 57, 17
4, 497040, Note_off_c, 3, 64, 0
4, 497040, Note_on_c, 3, 56, 17
4, 497064, Note_off_c, 3, 63, 0
4, 497064, Note_on_c, 3, 55, 17
4, 497088, Note_off_c, 3, 62, 0
4, 497088, Note_on_c, 3, 54, 17
4, 497112, Note_off_c, 3, 61, 0
4, 497112, Note_on_c, 3, 53, 17
4, 497136, Note_off_c, 3, 60, 0
4, 497136, Note_on_c, 3, 52, 17
4, 497160, Note_off_c, 3, 59, 0
4, 497160, Note_on_c, 3, 51, 17
4, 497184, Note_off_c, 3, 58, 0
4, 497184, Note_on_c, 3, 50, 17
4, 497208, Note_off_c, 3, 57, 0
4, 497208, Note_on_c, 3, 49, 17
4, 497232, Note_off_c, 3, 56, 0
4, 497232, Note_on_c, 3, 48, 17
4, 497256, Note_off_c, 3, 55, 0
4, 497256, Note_on_c, 3, 47, 17
4, 497280, Note_off_c, 3, 54, 0
4, 497280, Note_on_c, 3, 46, 17
4, 497304, Note_off_c, 3, 53, 0
4, 497304, Note_on_c, 3, 45, 17
4, 497328, Note_off_c, 3, 52, 0
4, 497328, Note_on_c, 3, 44, 17
4, 497352, Note_off_c, 3, 51, 0
4, 497352, Note_on_c, 3, 43, 17
4, 497376, Note_off_c, 3, 50, 0
4, 497376, Note_on_c, 3, 42, 17
4, 497400, Note_off_c, 3, 49, 0
4, 497400, Note_on_c, 3, 41, 17
4, 497424, Note_off_c, 3, 48, 0
4, 497424, Note_on_c, 3, 40, 17
4, 497448, Note_off_c, 3, 47, 0
4, 497448, Note_on_c, 3, 39, 17
4, 497472, Note_off_c, 3, 46, 0
4, 497472, Note_on_c, 3, 38, 17
4, 497496, Note_off_c, 3, 45, 0
4, 497496, Note_on_c, 3, 37, 17
4, 497520, Note_off_c, 3, 44, 0
4, 497520, Note_on_c, 3, 36, 17
4, 497544, Note_off_c, 3, 43, 0
4, 497544, Note_on_c, 3, 35, 17
4, 497568, Note_off_c, 3, 42, 0
4, 497568, Note_on_c, 3, 34, 17
4, 497592, Note_off_c, 3, 41, 0
4, 497592, Note_on_c, 3, 33, 17
4, 497616, Note_off_c, 3, 40, 0
4, 497616, Note_on_c, 3, 32, 17
4, 497640, Note_off_c, 3, 39, 0
4, 497640, Note_on_c, 3, 31, 17
4, 497664, Note_off_c, 3, 38, 0
4, 497664, Note_on_c, 3, 30, 17
4, 497664, Note_on_c, 3, 93, 17
4, 497688, Note_off_c, 3, 37, 0
4, 497688, Note_on_c, 3, 92, 17
4, 497712, Note_off_c, 3, 36, 0
4, 497736, Note_off_c, 3, 35, 0
4, 497736, Note_on_c, 3, 91, 17
4, 497760, Note_off_c, 3, 34, 0
4, 497760, Note_on_c, 3, 90, 17
4, 497784, Note_off_c, 3, 33, 0
4, 497784, Note_on_c, 3, 89, 17
4, 497808, Note_off_c, 3, 32, 0
4, 497808, Note_on_c, 3, 88, 17
4, 497832, Note_off_c, 3, 31, 0
4, 497832, Note_on_c, 3, 87, 17
4, 497856, Note_off_c, 3, 93, 0
4, 497856, Note_off_c, 3, 30, 0
4, 497856, Note_on_c, 3, 86, 17
4, 497880, Note_off_c, 3, 92, 0
4, 497880, Note_on_c, 3, 85, 17
4, 497904, Note_on_c, 3, 84, 17
4, 497928, Note_off_c, 3, 91, 0
4, 497928, Note_on_c, 3, 83, 17
4, 497952, Note_off_c, 3, 90, 0
4, 497952, Note_on_c, 3, 82, 17
4, 497976, Note_off_c, 3, 89, 0
4, 497976, Note_on_c, 3, 81, 17
4, 498000, Note_off_c, 3, 88, 0
4, 498000, Note_on_c, 3, 80, 17
4, 498024, Note_off_c, 3, 87, 0
4, 498024, Note_on_c, 3, 79, 17
4, 498048, Note_off_c, 3, 86, 0
4, 498048, Note_on_c, 3, 78, 17
4, 498072, Note_off_c, 3, 85, 0
4, 498072, Note_on_c, 3, 77, 17
4, 498096, Note_off_c, 3, 84, 0
4, 498096, Note_on_c, 3, 76, 17
4, 498120, Note_off_c, 3, 83, 0
4, 498120, Note_on_c, 3, 75, 17
4, 498144, Note_off_c, 3, 82, 0
4, 498144, Note_on_c, 3, 74, 17
4, 498168, Note_off_c, 3, 81, 0
4, 498168, Note_on_c, 3, 73, 17
4, 498192, Note_off_c, 3, 80, 0
4, 498192, Note_on_c, 3, 72, 17
4, 498216, Note_off_c, 3, 79, 0
4, 498216, Note_on_c, 3, 71, 17
4, 498240, Note_off_c, 3, 78, 0
4, 498240, Note_on_c, 3, 70, 17
4, 498264, Note_off_c, 3, 77, 0
4, 498264, Note_on_c, 3, 69, 17
4, 498288, Note_off_c, 3, 76, 0
4, 498288, Note_on_c, 3, 68, 17
4, 498312, Note_off_c, 3, 75, 0
4, 498312, Note_on_c, 3, 67, 17
4, 498336, Note_off_c, 3, 74, 0
4, 498336, Note_on_c, 3, 66, 17
4, 498360, Note_off_c, 3, 73, 0
4, 498360, Note_on_c, 3, 65, 17
4, 498384, Note_off_c, 3, 72, 0
4, 498384, Note_on_c, 3, 64, 17
4, 498408, Note_off_c, 3, 71, 0
4, 498408, Note_on_c, 3, 63, 17
4, 498432, Note_off_c, 3, 70, 0
4, 498432, Note_on_c, 3, 62, 17
4, 498456, Note_off_c, 3, 69, 0
4, 498456, Note_on_c, 3, 61, 17
4, 498480, Note_off_c, 3, 68, 0
4, 498480, Note_on_c, 3, 60, 17
4, 498504, Note_off_c, 3, 67, 0
4, 498504, Note_on_c, 3, 59, 17
4, 498528, Note_off_c, 3, 66, 0
4, 498528, Note_on_c, 3, 58, 17
4, 498552, Note_off_c, 3, 65, 0
4, 498552, Note_on_c, 3, 57, 17
4, 498576, Note_off_c, 3, 64, 0
4, 498576, Note_on_c, 3, 56, 17
4, 498600, Note_off_c, 3, 63, 0
4, 498600, Note_on_c, 3, 55, 17
4, 498624, Note_off_c, 3, 62, 0
4, 498624, Note_on_c, 3, 54, 17
4, 498648, Note_off_c, 3, 61, 0
4, 498648, Note_on_c, 3, 53, 17
4, 498672, Note_off_c, 3, 60, 0
4, 498672, Note_on_c, 3, 52, 17
4, 498696, Note_off_c, 3, 59, 0
4, 498696, Note_on_c, 3, 51, 17
4, 498720, Note_off_c, 3, 58, 0
4, 498720, Note_on_c, 3, 50, 17
4, 498744, Note_off_c, 3, 57, 0
4, 498744, Note_on_c, 3, 49, 17
4, 498768, Note_off_c, 3, 56, 0
4, 498768, Note_on_c, 3, 48, 17
4, 498792, Note_off_c, 3, 55, 0
4, 498792, Note_on_c, 3, 47, 17
4, 498816, Note_off_c, 3, 54, 0
4, 498816, Note_on_c, 3, 46, 17
4, 498840, Note_off_c, 3, 53, 0
4, 498840, Note_on_c, 3, 45, 17
4, 498864, Note_off_c, 3, 52, 0
4, 498864, Note_on_c, 3, 44, 17
4, 498888, Note_off_c, 3, 51, 0
4, 498888, Note_on_c, 3, 43, 17
4, 498912, Note_off_c, 3, 50, 0
4, 498912, Note_on_c, 3, 42, 17
4, 498936, Note_off_c, 3, 49, 0
4, 498936, Note_on_c, 3, 41, 17
4, 498960, Note_off_c, 3, 48, 0
4, 498960, Note_on_c, 3, 40, 17
4, 498984, Note_off_c, 3, 47, 0
4, 498984, Note_on_c, 3, 39, 17
4, 499008, Note_off_c, 3, 46, 0
4, 499008, Note_on_c, 3, 38, 17
4, 499032, Note_off_c, 3, 45, 0
4, 499032, Note_on_c, 3, 37, 17
4, 499056, Note_off_c, 3, 44, 0
4, 499056, Note_on_c, 3, 36, 17
4, 499080, Note_off_c, 3, 43, 0
4, 499080, Note_on_c, 3, 35, 17
4, 499104, Note_off_c, 3, 42, 0
4, 499104, Note_on_c, 3, 34, 17
4, 499128, Note_off_c, 3, 41, 0
4, 499128, Note_on_c, 3, 33, 17
4, 499152, Note_off_c, 3, 40, 0
4, 499152, Note_on_c, 3, 32, 17
4, 499176, Note_off_c, 3, 39, 0
4, 499176, Note_on_c, 3, 31, 17
4, 499200, Note_off_c, 3, 38, 0
4, 499200, Note_on_c, 3, 30, 17
4, 499200, Note_on_c, 3, 93, 17
4, 499224, Note_off_c, 3, 37, 0
4, 499224, Note_on_c, 3, 92, 17
4, 499248, Note_off_c, 3, 36, 0
4, 499272, Note_off_c, 3, 35, 0
4, 499272, Note_on_c, 3, 91, 17
4, 499296, Note_off_c, 3, 34, 0
4, 499296, Note_on_c, 3, 90, 17
4, 499320, Note_off_c, 3, 33, 0
4, 499320, Note_on_c, 3, 89, 17
4, 499344, Note_off_c, 3, 32, 0
4, 499344, Note_on_c, 3, 88, 17
4, 499368, Note_off_c, 3, 31, 0
4, 499368, Note_on_c, 3, 87, 17
4, 499392, Note_off_c, 3, 93, 0
4, 499392, Note_off_c, 3, 30, 0
4, 499392, Note_on_c, 3, 86, 17
4, 499416, Note_off_c, 3, 92, 0
4, 499416, Note_on_c, 3, 85, 17
4, 499440, Note_on_c, 3, 84, 17
4, 499464, Note_off_c, 3, 91, 0
4, 499464, Note_on_c, 3, 83, 17
4, 499488, Note_off_c, 3, 90, 0
4, 499488, Note_on_c, 3, 82, 17
4, 499512, Note_off_c, 3, 89, 0
4, 499512, Note_on_c, 3, 81, 17
4, 499536, Note_off_c, 3, 88, 0
4, 499536, Note_on_c, 3, 80, 17
4, 499560, Note_off_c, 3, 87, 0
4, 499560, Note_on_c, 3, 79, 17
4, 499584, Note_off_c, 3, 86, 0
4, 499584, Note_on_c, 3, 78, 17
4, 499608, Note_off_c, 3, 85, 0
4, 499608, Note_on_c, 3, 77, 17
4, 499632, Note_off_c, 3, 84, 0
4, 499632, Note_on_c, 3, 76, 17
4, 499656, Note_off_c, 3, 83, 0
4, 499656, Note_on_c, 3, 75, 17
4, 499680, Note_off_c, 3, 82, 0
4, 499680, Note_on_c, 3, 74, 17
4, 499704, Note_off_c, 3, 81, 0
4, 499704, Note_on_c, 3, 73, 17
4, 499728, Note_off_c, 3, 80, 0
4, 499728, Note_on_c, 3, 72, 17
4, 499752, Note_off_c, 3, 79, 0
4, 499752, Note_on_c, 3, 71, 17
4, 499776, Note_off_c, 3, 78, 0
4, 499776, Note_on_c, 3, 70, 17
4, 499800, Note_off_c, 3, 77, 0
4, 499800, Note_on_c, 3, 69, 17
4, 499824, Note_off_c, 3, 76, 0
4, 499824, Note_on_c, 3, 68, 17
4, 499848, Note_off_c, 3, 75, 0
4, 499848, Note_on_c, 3, 67, 17
4, 499872, Note_off_c, 3, 74, 0
4, 499872, Note_on_c, 3, 66, 17
4, 499896, Note_off_c, 3, 73, 0
4, 499896, Note_on_c, 3, 65, 17
4, 499920, Note_off_c, 3, 72, 0
4, 499920, Note_on_c, 3, 64, 17
4, 499944, Note_off_c, 3, 71, 0
4, 499944, Note_on_c, 3, 63, 17
4, 499968, Note_off_c, 3, 70, 0
4, 499968, Note_on_c, 3, 95, 26
4, 499968, Note_on_c, 3, 94, 26
4, 499968, Note_on_c, 3, 93, 26
4, 499968, Note_on_c, 3, 92, 26
4, 499968, Note_on_c, 3, 91, 26
4, 499968, Note_on_c, 3, 90, 26
4, 499968, Note_on_c, 3, 88, 26
4, 499968, Note_on_c, 3, 89, 26
4, 499968, Note_on_c, 3, 87, 26
4, 499968, Note_on_c, 3, 86, 26
4, 499968, Note_on_c, 3, 85, 26
4, 499968, Note_on_c, 3, 84, 26
4, 499968, Note_on_c, 3, 83, 26
4, 499968, Note_on_c, 3, 81, 26
4, 499968, Note_on_c, 3, 82, 26
4, 499968, Note_on_c, 3, 79, 26
4, 499968, Note_on_c, 3, 80, 26
4, 499968, Note_on_c, 3, 78, 26
4, 499968, Note_on_c, 3, 76, 26
4, 499968, Note_on_c, 3, 77, 26
4, 499968, Note_on_c, 3, 75, 26
4, 499968, Note_on_c, 3, 74, 26
4, 499968, Note_on_c, 3, 72, 26
4, 499968, Note_on_c, 3, 69, 26
4, 499968, Note_on_c, 3, 65, 26
4, 499968, Note_on_c, 3, 59, 26
4, 499968, Note_on_c, 3, 55, 26
4, 499968, Note_on_c, 3, 51, 26
4, 499968, Note_on_c, 3, 49, 26
4, 499968, Note_on_c, 3, 62, 26
4, 499968, Note_on_c, 3, 63, 26
4, 499968, Note_on_c, 3, 64, 26
4, 499968, Note_on_c, 3, 68, 26
4, 499968, Note_on_c, 3, 70, 26
4, 499968, Note_on_c, 3, 71, 26
4, 499968, Note_on_c, 3, 73, 26
4, 499968, Note_on_c, 3, 61, 26
4, 499968, Note_on_c, 3, 60, 26
4, 499968, Note_on_c, 3, 58, 26
4, 499968, Note_on_c, 3, 57, 26
4, 499968, Note_on_c, 3, 56, 26
4, 499968, Note_on_c, 3, 54, 26
4, 499968, Note_on_c, 3, 50, 26
4, 499968, Note_on_c, 3, 48, 26
4, 499968, Note_on_c, 3, 47, 26
4, 499968, Note_on_c, 3, 46, 26
4, 499968, Note_on_c, 3, 45, 26
4, 499968, Note_on_c, 3, 44, 26
4, 499968, Note_on_c, 3, 42, 26
4, 499968, Note_on_c, 3, 43, 26
4, 499968, Note_on_c, 3, 41, 26
4, 499968, Note_on_c, 3, 40, 26
4, 499968, Note_on_c, 3, 39, 26
4, 499968, Note_on_c, 3, 38, 26
4, 499968, Note_on_c, 3, 37, 26
4, 499968, Note_on_c, 3, 36, 26
4, 499968, Note_on_c, 3, 35, 26
4, 499968, Note_on_c, 3, 34, 26
4, 499968, Note_on_c, 3, 32, 26
4, 499968, Note_on_c, 3, 33, 26
4, 499968, Note_on_c, 3, 31, 26
4, 499968, Note_on_c, 3, 30, 26
4, 499968, Note_on_c, 3, 29, 26
4, 499968, Note_on_c, 3, 28, 26
4, 499968, Note_on_c, 3, 27, 26
4, 499968, Note_on_c, 3, 25, 26
4, 499968, Note_on_c, 3, 26, 26
4, 499968, Note_on_c, 3, 24, 26
4, 499968, Note_on_c, 3, 53, 26
4, 499968, Note_on_c, 3, 52, 26
4, 499968, Note_on_c, 3, 66, 26
4, 499968, Note_on_c, 3, 67, 26
4, 499968, Note_on_c, 3, 62, 17
4, 499992, Note_off_c, 3, 69, 0
4, 499992, Note_on_c, 3, 61, 17
4, 500016, Note_off_c, 3, 68, 0
4, 500016, Note_on_c, 3, 60, 17
4, 500040, Note_off_c, 3, 67, 0
4, 500040, Note_on_c, 3, 59, 17
4, 500064, Note_off_c, 3, 66, 0
4, 500064, Note_on_c, 3, 58, 17
4, 500088, Note_off_c, 3, 65, 0
4, 500088, Note_on_c, 3, 57, 17
4, 500112, Note_off_c, 3, 64, 0
4, 500112, Note_on_c, 3, 56, 17
4, 500136, Note_off_c, 3, 63, 0
4, 500136, Note_on_c, 3, 55, 17
4, 500160, Note_off_c, 3, 62, 0
4, 500160, Note_on_c, 3, 54, 17
4, 500184, Note_off_c, 3, 61, 0
4, 500184, Note_on_c, 3, 53, 17
4, 500208, Note_off_c, 3, 60, 0
4, 500208, Note_on_c, 3, 52, 17
4, 500232, Note_off_c, 3, 59, 0
4, 500232, Note_on_c, 3, 51, 17
4, 500256, Note_off_c, 3, 58, 0
4, 500256, Note_on_c, 3, 50, 17
4, 500280, Note_off_c, 3, 57, 0
4, 500280, Note_on_c, 3, 49, 17
4, 500304, Note_off_c, 3, 56, 0
4, 500304, Note_on_c, 3, 48, 17
4, 500328, Note_off_c, 3, 55, 0
4, 500328, Note_on_c, 3, 47, 17
4, 500352, Note_off_c, 3, 54, 0
4, 500352, Note_off_c, 3, 67, 0
4, 500352, Note_off_c, 3, 66, 0
4, 500352, Note_off_c, 3, 52, 0
4, 500352, Note_off_c, 3, 53, 0
4, 500352, Note_off_c, 3, 24, 0
4, 500352, Note_off_c, 3, 26, 0
4, 500352, Note_off_c, 3, 25, 0
4, 500352, Note_off_c, 3, 27, 0
4, 500352, Note_off_c, 3, 28, 0
4, 500352, Note_off_c, 3, 29, 0
4, 500352, Note_off_c, 3, 30, 0
4, 500352, Note_off_c, 3, 31, 0
4, 500352, Note_off_c, 3, 33, 0
4, 500352, Note_off_c, 3, 32, 0
4, 500352, Note_off_c, 3, 34, 0
4, 500352, Note_off_c, 3, 35, 0
4, 500352, Note_off_c, 3, 36, 0
4, 500352, Note_off_c, 3, 37, 0
4, 500352, Note_off_c, 3, 38, 0
4, 500352, Note_off_c, 3, 39, 0
4, 500352, Note_off_c, 3, 40, 0
4, 500352, Note_off_c, 3, 41, 0
4, 500352, Note_off_c, 3, 43, 0
4, 500352, Note_off_c, 3, 42, 0
4, 500352, Note_off_c, 3, 44, 0
4, 500352, Note_off_c, 3, 45, 0
4, 500352, Note_off_c, 3, 46, 0
4, 500352, Note_off_c, 3, 47, 0
4, 500352, Note_off_c, 3, 48, 0
4, 500352, Note_off_c, 3, 50, 0
4, 500352, Note_off_c, 3, 54, 0
4, 500352, Note_off_c, 3, 56, 0
4, 500352, Note_off_c, 3, 57, 0
4, 500352, Note_off_c, 3, 58, 0
4, 500352, Note_off_c, 3, 60, 0
4, 500352, Note_off_c, 3, 61, 0
4, 500352, Note_off_c, 3, 73, 0
4, 500352, Note_off_c, 3, 71, 0
4, 500352, Note_off_c, 3, 70, 0
4, 500352, Note_off_c, 3, 68, 0
4, 500352, Note_off_c, 3, 64, 0
4, 500352, Note_off_c, 3, 63, 0
4, 500352, Note_off_c, 3, 62, 0
4, 500352, Note_off_c, 3, 49, 0
4, 500352, Note_off_c, 3, 51, 0
4, 500352, Note_off_c, 3, 55, 0
4, 500352, Note_off_c, 3, 59, 0
4, 500352, Note_off_c, 3, 65, 0
4, 500352, Note_off_c, 3, 69, 0
4, 500352, Note_off_c, 3, 72, 0
4, 500352, Note_off_c, 3, 74, 0
4, 500352, Note_off_c, 3, 75, 0
4, 500352, Note_off_c, 3, 77, 0
4, 500352, Note_off_c, 3, 76, 0
4, 500352, Note_off_c, 3, 78, 0
4, 500352, Note_off_c, 3, 80, 0
4, 500352, Note_off_c, 3, 79, 0
4, 500352, Note_off_c, 3, 82, 0
4, 500352, Note_off_c, 3, 81, 0
4, 500352, Note_off_c, 3, 83, 0
4, 500352, Note_off_c, 3, 84, 0
4, 500352, Note_off_c, 3, 85, 0
4, 500352, Note_off_c, 3, 86, 0
4, 500352, Note_off_c, 3, 87, 0
4, 500352, Note_off_c, 3, 89, 0
4, 500352, Note_off_c, 3, 88, 0
4, 500352, Note_off_c, 3, 90, 0
4, 500352, Note_off_c, 3, 91, 0
4, 500352, Note_off_c, 3, 92, 0
4, 500352, Note_off_c, 3, 93, 0
4, 500352, Note_off_c, 3, 94, 0
4, 500352, Note_off_c, 3, 95, 0
4, 500352, Note_on_c, 3, 46, 17
4, 500376, Note_off_c, 3, 53, 0
4, 500376, Note_on_c, 3, 45, 17
4, 500400, Note_off_c, 3, 52, 0
4, 500400, Note_on_c, 3, 44, 17
4, 500424, Note_off_c, 3, 51, 0
4, 500424, Note_on_c, 3, 43, 17
4, 500448, Note_off_c, 3, 50, 0
4, 500448, Note_on_c, 3, 42, 17
4, 500472, Note_off_c, 3, 49, 0
4, 500472, Note_on_c, 3, 41, 17
4, 500496, Note_off_c, 3, 48, 0
4, 500496, Note_on_c, 3, 40, 17
4, 500520, Note_off_c, 3, 47, 0
4, 500520, Note_on_c, 3, 39, 17
4, 500544, Note_off_c, 3, 46, 0
4, 500544, Note_on_c, 3, 38, 17
4, 500568, Note_off_c, 3, 45, 0
4, 500568, Note_on_c, 3, 37, 17
4, 500592, Note_off_c, 3, 44, 0
4, 500592, Note_on_c, 3, 36, 17
4, 500616, Note_off_c, 3, 43, 0
4, 500616, Note_on_c, 3, 35, 17
4, 500640, Note_off_c, 3, 42, 0
4, 500640, Note_on_c, 3, 34, 17
4, 500664, Note_off_c, 3, 41, 0
4, 500664, Note_on_c, 3, 33, 17
4, 500688, Note_off_c, 3, 40, 0
4, 500688, Note_on_c, 3, 32, 17
4, 500712, Note_off_c, 3, 39, 0
4, 500712, Note_on_c, 3, 31, 17
4, 500736, Note_off_c, 3, 38, 0
4, 500736, Note_on_c, 3, 95, 26
4, 500736, Note_on_c, 3, 94, 26
4, 500736, Note_on_c, 3, 93, 26
4, 500736, Note_on_c, 3, 92, 26
4, 500736, Note_on_c, 3, 91, 26
4, 500736, Note_on_c, 3, 90, 26
4, 500736, Note_on_c, 3, 88, 26
4, 500736, Note_on_c, 3, 89, 26
4, 500736, Note_on_c, 3, 87, 26
4, 500736, Note_on_c, 3, 86, 26
4, 500736, Note_on_c, 3, 85, 26
4, 500736, Note_on_c, 3, 84, 26
4, 500736, Note_on_c, 3, 83, 26
4, 500736, Note_on_c, 3, 81, 26
4, 500736, Note_on_c, 3, 82, 26
4, 500736, Note_on_c, 3, 79, 26
4, 500736, Note_on_c, 3, 80, 26
4, 500736, Note_on_c, 3, 78, 26
4, 500736, Note_on_c, 3, 76, 26
4, 500736, Note_on_c, 3, 77, 26
4, 500736, Note_on_c, 3, 75, 26
4, 500736, Note_on_c, 3, 74, 26
4, 500736, Note_on_c, 3, 72, 26
4, 500736, Note_on_c, 3, 69, 26
4, 500736, Note_on_c, 3, 65, 26
4, 500736, Note_on_c, 3, 59, 26
4, 500736, Note_on_c, 3, 55, 26
4, 500736, Note_on_c, 3, 51, 26
4, 500736, Note_on_c, 3, 49, 26
4, 500736, Note_on_c, 3, 62, 26
4, 500736, Note_on_c, 3, 63, 26
4, 500736, Note_on_c, 3, 64, 26
4, 500736, Note_on_c, 3, 67, 26
4, 500736, Note_on_c, 3, 66, 26
4, 500736, Note_on_c, 3, 68, 26
4, 500736, Note_on_c, 3, 70, 26
4, 500736, Note_on_c, 3, 71, 26
4, 500736, Note_on_c, 3, 73, 26
4, 500736, Note_on_c, 3, 61, 26
4, 500736, Note_on_c, 3, 60, 26
4, 500736, Note_on_c, 3, 58, 26
4, 500736, Note_on_c, 3, 57, 26
4, 500736, Note_on_c, 3, 56, 26
4, 500736, Note_on_c, 3, 53, 26
4, 500736, Note_on_c, 3, 54, 26
4, 500736, Note_on_c, 3, 52, 26
4, 500736, Note_on_c, 3, 50, 26
4, 500736, Note_on_c, 3, 48, 26
4, 500736, Note_on_c, 3, 47, 26
4, 500736, Note_on_c, 3, 46, 26
4, 500736, Note_on_c, 3, 45, 26
4, 500736, Note_on_c, 3, 44, 26
4, 500736, Note_on_c, 3, 42, 26
4, 500736, Note_on_c, 3, 43, 26
4, 500736, Note_on_c, 3, 41, 26
4, 500736, Note_on_c, 3, 40, 26
4, 500736, Note_on_c, 3, 39, 26
4, 500736, Note_on_c, 3, 38, 26
4, 500736, Note_on_c, 3, 37, 26
4, 500736, Note_on_c, 3, 36, 26
4, 500736, Note_on_c, 3, 35, 26
4, 500736, Note_on_c, 3, 34, 26
4, 500736, Note_on_c, 3, 32, 26
4, 500736, Note_on_c, 3, 33, 26
4, 500736, Note_on_c, 3, 31, 26
4, 500736, Note_on_c, 3, 30, 26
4, 500736, Note_on_c, 3, 29, 26
4, 500736, Note_on_c, 3, 28, 26
4, 500736, Note_on_c, 3, 27, 26
4, 500736, Note_on_c, 3, 25, 26
4, 500736, Note_on_c, 3, 26, 26
4, 500736, Note_on_c, 3, 24, 26
4, 500736, Note_on_c, 3, 30, 17
4, 500760, Note_off_c, 3, 37, 0
4, 500760, Note_on_c, 3, 93, 17
4, 500784, Note_off_c, 3, 36, 0
4, 500808, Note_off_c, 3, 35, 0
4, 500832, Note_off_c, 3, 34, 0
4, 500856, Note_off_c, 3, 33, 0
4, 500880, Note_off_c, 3, 32, 0
4, 500904, Note_off_c, 3, 31, 0
4, 500928, Note_off_c, 3, 30, 0
4, 500952, Note_off_c, 3, 93, 0
4, 501120, Note_off_c, 3, 24, 0
4, 501120, Note_off_c, 3, 26, 0
4, 501120, Note_off_c, 3, 25, 0
4, 501120, Note_off_c, 3, 27, 0
4, 501120, Note_off_c, 3, 28, 0
4, 501120, Note_off_c, 3, 29, 0
4, 501120, Note_off_c, 3, 30, 0
4, 501120, Note_off_c, 3, 31, 0
4, 501120, Note_off_c, 3, 33, 0
4, 501120, Note_off_c, 3, 32, 0
4, 501120, Note_off_c, 3, 34, 0
4, 501120, Note_off_c, 3, 35, 0
4, 501120, Note_off_c, 3, 36, 0
4, 501120, Note_off_c, 3, 37, 0
4, 501120, Note_off_c, 3, 38, 0
4, 501120, Note_off_c, 3, 39, 0
4, 501120, Note_off_c, 3, 40, 0
4, 501120, Note_off_c, 3, 41, 0
4, 501120, Note_off_c, 3, 43, 0
4, 501120, Note_off_c, 3, 42, 0
4, 501120, Note_off_c, 3, 44, 0
4, 501120, Note_off_c, 3, 45, 0
4, 501120, Note_off_c, 3, 46, 0
4, 501120, Note_off_c, 3, 47, 0
4, 501120, Note_off_c, 3, 48, 0
4, 501120, Note_off_c, 3, 50, 0
4, 501120, Note_off_c, 3, 52, 0
4, 501120, Note_off_c, 3, 54, 0
4, 501120, Note_off_c, 3, 53, 0
4, 501120, Note_off_c, 3, 56, 0
4, 501120, Note_off_c, 3, 57, 0
4, 501120, Note_off_c, 3, 58, 0
4, 501120, Note_off_c, 3, 60, 0
4, 501120, Note_off_c, 3, 61, 0
4, 501120, Note_off_c, 3, 73, 0
4, 501120, Note_off_c, 3, 71, 0
4, 501120, Note_off_c, 3, 70, 0
4, 501120, Note_off_c, 3, 68, 0
4, 501120, Note_off_c, 3, 66, 0
4, 501120, Note_off_c, 3, 67, 0
4, 501120, Note_off_c, 3, 64, 0
4, 501120, Note_off_c, 3, 63, 0
4, 501120, Note_off_c, 3, 62, 0
4, 501120, Note_off_c, 3, 49, 0
4, 501120, Note_off_c, 3, 51, 0
4, 501120, Note_off_c, 3, 55, 0
4, 501120, Note_off_c, 3, 59, 0
4, 501120, Note_off_c, 3, 65, 0
4, 501120, Note_off_c, 3, 69, 0
4, 501120, Note_off_c, 3, 72, 0
4, 501120, Note_off_c, 3, 74, 0
4, 501120, Note_off_c, 3, 75, 0
4, 501120, Note_off_c, 3, 77, 0
4, 501120, Note_off_c, 3, 76, 0
4, 501120, Note_off_c, 3, 78, 0
4, 501120, Note_off_c, 3, 80, 0
4, 501120, Note_off_c, 3, 79, 0
4, 501120, Note_off_c, 3, 82, 0
4, 501120, Note_off_c, 3, 81, 0
4, 501120, Note_off_c, 3, 83, 0
4, 501120, Note_off_c, 3, 84, 0
4, 501120, Note_off_c, 3, 85, 0
4, 501120, Note_off_c, 3, 86, 0
4, 501120, Note_off_c, 3, 87, 0
4, 501120, Note_off_c, 3, 89, 0
4, 501120, Note_off_c, 3, 88, 0
4, 501120, Note_off_c, 3, 90, 0
4, 501120, Note_off_c, 3, 91, 0
4, 501120, Note_off_c, 3, 92, 0
4, 501120, Note_off_c, 3, 93, 0
4, 501120, Note_off_c, 3, 94, 0
4, 501120, Note_off_c, 3, 95, 0
4, 501120, End_track
0, 0, End_of_file
